G04 #@! TF.GenerationSoftware,KiCad,Pcbnew,5.0.2+dfsg1-1*
G04 #@! TF.CreationDate,2019-08-03T20:00:24+02:00*
G04 #@! TF.ProjectId,ALU,414c552e-6b69-4636-9164-5f7063625858,rev?*
G04 #@! TF.SameCoordinates,Original*
G04 #@! TF.FileFunction,Copper,L1,Top*
G04 #@! TF.FilePolarity,Positive*
%FSLAX46Y46*%
G04 Gerber Fmt 4.6, Leading zero omitted, Abs format (unit mm)*
G04 Created by KiCad (PCBNEW 5.0.2+dfsg1-1) date za 03 aug 2019 20:00:24 CEST*
%MOMM*%
%LPD*%
G01*
G04 APERTURE LIST*
G04 #@! TA.AperFunction,ComponentPad*
%ADD10O,1.600000X1.600000*%
G04 #@! TD*
G04 #@! TA.AperFunction,ComponentPad*
%ADD11R,1.600000X1.600000*%
G04 #@! TD*
G04 #@! TA.AperFunction,ComponentPad*
%ADD12O,1.700000X1.700000*%
G04 #@! TD*
G04 #@! TA.AperFunction,ComponentPad*
%ADD13R,1.700000X1.700000*%
G04 #@! TD*
G04 #@! TA.AperFunction,ComponentPad*
%ADD14R,2.032000X2.032000*%
G04 #@! TD*
G04 #@! TA.AperFunction,ComponentPad*
%ADD15C,2.032000*%
G04 #@! TD*
G04 #@! TA.AperFunction,ComponentPad*
%ADD16R,1.800000X1.800000*%
G04 #@! TD*
G04 #@! TA.AperFunction,ComponentPad*
%ADD17C,1.800000*%
G04 #@! TD*
G04 #@! TA.AperFunction,ComponentPad*
%ADD18C,1.600000*%
G04 #@! TD*
G04 #@! TA.AperFunction,ViaPad*
%ADD19C,0.800000*%
G04 #@! TD*
G04 #@! TA.AperFunction,Conductor*
%ADD20C,0.350000*%
G04 #@! TD*
G04 #@! TA.AperFunction,Conductor*
%ADD21C,0.250000*%
G04 #@! TD*
G04 APERTURE END LIST*
D10*
G04 #@! TO.P,U3,14*
G04 #@! TO.N,+5V*
X88900000Y-59690000D03*
G04 #@! TO.P,U3,7*
G04 #@! TO.N,GND*
X81280000Y-74930000D03*
G04 #@! TO.P,U3,13*
G04 #@! TO.N,Net-(U10-Pad6)*
X88900000Y-62230000D03*
G04 #@! TO.P,U3,6*
G04 #@! TO.N,Net-(U3-Pad6)*
X81280000Y-72390000D03*
G04 #@! TO.P,U3,12*
G04 #@! TO.N,Net-(U11-Pad9)*
X88900000Y-64770000D03*
G04 #@! TO.P,U3,5*
G04 #@! TO.N,/Cn4_B*
X81280000Y-69850000D03*
G04 #@! TO.P,U3,11*
G04 #@! TO.N,SHR*
X88900000Y-67310000D03*
G04 #@! TO.P,U3,4*
G04 #@! TO.N,Net-(U3-Pad4)*
X81280000Y-67310000D03*
G04 #@! TO.P,U3,10*
G04 #@! TO.N,~SHR*
X88900000Y-69850000D03*
G04 #@! TO.P,U3,3*
G04 #@! TO.N,/Cn4_B*
X81280000Y-64770000D03*
G04 #@! TO.P,U3,9*
G04 #@! TO.N,Net-(U10-Pad3)*
X88900000Y-72390000D03*
G04 #@! TO.P,U3,2*
G04 #@! TO.N,Net-(U3-Pad2)*
X81280000Y-62230000D03*
G04 #@! TO.P,U3,8*
G04 #@! TO.N,Net-(U3-Pad8)*
X88900000Y-74930000D03*
D11*
G04 #@! TO.P,U3,1*
G04 #@! TO.N,/Cn4_A*
X81280000Y-59690000D03*
G04 #@! TD*
G04 #@! TO.P,U8,1*
G04 #@! TO.N,Net-(U7-Pad3)*
X107950000Y-24130000D03*
D10*
G04 #@! TO.P,U8,8*
G04 #@! TO.N,Fc*
X115570000Y-39370000D03*
G04 #@! TO.P,U8,2*
G04 #@! TO.N,/Cn4_B*
X107950000Y-26670000D03*
G04 #@! TO.P,U8,9*
G04 #@! TO.N,Net-(U3-Pad6)*
X115570000Y-36830000D03*
G04 #@! TO.P,U8,3*
G04 #@! TO.N,Flt*
X107950000Y-29210000D03*
G04 #@! TO.P,U8,10*
G04 #@! TO.N,Net-(U7-Pad11)*
X115570000Y-34290000D03*
G04 #@! TO.P,U8,4*
G04 #@! TO.N,Net-(U7-Pad8)*
X107950000Y-31750000D03*
G04 #@! TO.P,U8,11*
G04 #@! TO.N,Fz*
X115570000Y-31750000D03*
G04 #@! TO.P,U8,5*
G04 #@! TO.N,Net-(U3-Pad4)*
X107950000Y-34290000D03*
G04 #@! TO.P,U8,12*
G04 #@! TO.N,Net-(U10-Pad11)*
X115570000Y-29210000D03*
G04 #@! TO.P,U8,6*
G04 #@! TO.N,Fgt*
X107950000Y-36830000D03*
G04 #@! TO.P,U8,13*
G04 #@! TO.N,SHRz*
X115570000Y-26670000D03*
G04 #@! TO.P,U8,7*
G04 #@! TO.N,GND*
X107950000Y-39370000D03*
G04 #@! TO.P,U8,14*
G04 #@! TO.N,+5V*
X115570000Y-24130000D03*
G04 #@! TD*
G04 #@! TO.P,U9,14*
G04 #@! TO.N,+5V*
X109220000Y-59690000D03*
G04 #@! TO.P,U9,7*
G04 #@! TO.N,GND*
X101600000Y-74930000D03*
G04 #@! TO.P,U9,13*
G04 #@! TO.N,Net-(BAR3-Pad7)*
X109220000Y-62230000D03*
G04 #@! TO.P,U9,6*
G04 #@! TO.N,Net-(U10-Pad2)*
X101600000Y-72390000D03*
G04 #@! TO.P,U9,12*
G04 #@! TO.N,Net-(U10-Pad1)*
X109220000Y-64770000D03*
G04 #@! TO.P,U9,5*
G04 #@! TO.N,Net-(BAR3-Pad4)*
X101600000Y-69850000D03*
G04 #@! TO.P,U9,11*
G04 #@! TO.N,Net-(BAR3-Pad2)*
X109220000Y-67310000D03*
G04 #@! TO.P,U9,4*
G04 #@! TO.N,Net-(BAR3-Pad5)*
X101600000Y-67310000D03*
G04 #@! TO.P,U9,10*
G04 #@! TO.N,Net-(BAR3-Pad3)*
X109220000Y-69850000D03*
G04 #@! TO.P,U9,3*
G04 #@! TO.N,Net-(BAR3-Pad6)*
X101600000Y-64770000D03*
G04 #@! TO.P,U9,9*
G04 #@! TO.N,Net-(U3-Pad8)*
X109220000Y-72390000D03*
G04 #@! TO.P,U9,2*
G04 #@! TO.N,Net-(BAR3-Pad8)*
X101600000Y-62230000D03*
G04 #@! TO.P,U9,8*
G04 #@! TO.N,Net-(U10-Pad12)*
X109220000Y-74930000D03*
D11*
G04 #@! TO.P,U9,1*
G04 #@! TO.N,Net-(BAR3-Pad9)*
X101600000Y-59690000D03*
G04 #@! TD*
G04 #@! TO.P,U10,1*
G04 #@! TO.N,Net-(U10-Pad1)*
X121920000Y-24130000D03*
D10*
G04 #@! TO.P,U10,8*
G04 #@! TO.N,SHRz*
X129540000Y-39370000D03*
G04 #@! TO.P,U10,2*
G04 #@! TO.N,Net-(U10-Pad2)*
X121920000Y-26670000D03*
G04 #@! TO.P,U10,9*
G04 #@! TO.N,Net-(U10-Pad9)*
X129540000Y-36830000D03*
G04 #@! TO.P,U10,3*
G04 #@! TO.N,Net-(U10-Pad3)*
X121920000Y-29210000D03*
G04 #@! TO.P,U10,10*
G04 #@! TO.N,SHR*
X129540000Y-34290000D03*
G04 #@! TO.P,U10,4*
G04 #@! TO.N,Net-(U10-Pad4)*
X121920000Y-31750000D03*
G04 #@! TO.P,U10,11*
G04 #@! TO.N,Net-(U10-Pad11)*
X129540000Y-31750000D03*
G04 #@! TO.P,U10,5*
G04 #@! TO.N,Net-(U10-Pad5)*
X121920000Y-34290000D03*
G04 #@! TO.P,U10,12*
G04 #@! TO.N,Net-(U10-Pad12)*
X129540000Y-29210000D03*
G04 #@! TO.P,U10,6*
G04 #@! TO.N,Net-(U10-Pad6)*
X121920000Y-36830000D03*
G04 #@! TO.P,U10,13*
G04 #@! TO.N,~SHR*
X129540000Y-26670000D03*
G04 #@! TO.P,U10,7*
G04 #@! TO.N,GND*
X121920000Y-39370000D03*
G04 #@! TO.P,U10,14*
G04 #@! TO.N,+5V*
X129540000Y-24130000D03*
G04 #@! TD*
G04 #@! TO.P,U7,14*
G04 #@! TO.N,+5V*
X100965000Y-24130000D03*
G04 #@! TO.P,U7,7*
G04 #@! TO.N,GND*
X93345000Y-39370000D03*
G04 #@! TO.P,U7,13*
G04 #@! TO.N,SHRc*
X100965000Y-26670000D03*
G04 #@! TO.P,U7,6*
G04 #@! TO.N,Feq*
X93345000Y-36830000D03*
G04 #@! TO.P,U7,12*
G04 #@! TO.N,SHR*
X100965000Y-29210000D03*
G04 #@! TO.P,U7,5*
G04 #@! TO.N,/A=B_B*
X93345000Y-34290000D03*
G04 #@! TO.P,U7,11*
G04 #@! TO.N,Net-(U7-Pad11)*
X100965000Y-31750000D03*
G04 #@! TO.P,U7,4*
G04 #@! TO.N,/A=B_A*
X93345000Y-31750000D03*
G04 #@! TO.P,U7,10*
G04 #@! TO.N,Net-(U3-Pad4)*
X100965000Y-34290000D03*
G04 #@! TO.P,U7,3*
G04 #@! TO.N,Net-(U7-Pad3)*
X93345000Y-29210000D03*
G04 #@! TO.P,U7,9*
G04 #@! TO.N,Net-(U3-Pad2)*
X100965000Y-36830000D03*
G04 #@! TO.P,U7,2*
G04 #@! TO.N,/Cn4_B*
X93345000Y-26670000D03*
G04 #@! TO.P,U7,8*
G04 #@! TO.N,Net-(U7-Pad8)*
X100965000Y-39370000D03*
D11*
G04 #@! TO.P,U7,1*
G04 #@! TO.N,/Cn4_A*
X93345000Y-24130000D03*
G04 #@! TD*
G04 #@! TO.P,U11,1*
G04 #@! TO.N,DATA_BUS0*
X60325000Y-59690000D03*
D10*
G04 #@! TO.P,U11,8*
G04 #@! TO.N,Net-(U10-Pad9)*
X67945000Y-74930000D03*
G04 #@! TO.P,U11,2*
G04 #@! TO.N,DATA_BUS1*
X60325000Y-62230000D03*
G04 #@! TO.P,U11,9*
G04 #@! TO.N,Net-(U11-Pad9)*
X67945000Y-72390000D03*
G04 #@! TO.P,U11,3*
G04 #@! TO.N,DATA_BUS3*
X60325000Y-64770000D03*
G04 #@! TO.P,U11,10*
G04 #@! TO.N,DATA_BUS6*
X67945000Y-69850000D03*
G04 #@! TO.P,U11,4*
G04 #@! TO.N,DATA_BUS4*
X60325000Y-67310000D03*
G04 #@! TO.P,U11,11*
G04 #@! TO.N,DATA_BUS7*
X67945000Y-67310000D03*
G04 #@! TO.P,U11,5*
G04 #@! TO.N,DATA_BUS5*
X60325000Y-69850000D03*
G04 #@! TO.P,U11,12*
G04 #@! TO.N,Net-(U10-Pad4)*
X67945000Y-64770000D03*
G04 #@! TO.P,U11,6*
G04 #@! TO.N,Net-(U10-Pad5)*
X60325000Y-72390000D03*
G04 #@! TO.P,U11,13*
G04 #@! TO.N,DATA_BUS2*
X67945000Y-62230000D03*
G04 #@! TO.P,U11,7*
G04 #@! TO.N,GND*
X60325000Y-74930000D03*
G04 #@! TO.P,U11,14*
G04 #@! TO.N,+5V*
X67945000Y-59690000D03*
G04 #@! TD*
D11*
G04 #@! TO.P,U12,1*
G04 #@! TO.N,+5V*
X121920000Y-52070000D03*
D10*
G04 #@! TO.P,U12,11*
G04 #@! TO.N,DATA_BUS7*
X129540000Y-74930000D03*
G04 #@! TO.P,U12,2*
G04 #@! TO.N,Net-(BAR3-Pad9)*
X121920000Y-54610000D03*
G04 #@! TO.P,U12,12*
G04 #@! TO.N,DATA_BUS6*
X129540000Y-72390000D03*
G04 #@! TO.P,U12,3*
G04 #@! TO.N,Net-(BAR3-Pad8)*
X121920000Y-57150000D03*
G04 #@! TO.P,U12,13*
G04 #@! TO.N,DATA_BUS5*
X129540000Y-69850000D03*
G04 #@! TO.P,U12,4*
G04 #@! TO.N,Net-(BAR3-Pad7)*
X121920000Y-59690000D03*
G04 #@! TO.P,U12,14*
G04 #@! TO.N,DATA_BUS4*
X129540000Y-67310000D03*
G04 #@! TO.P,U12,5*
G04 #@! TO.N,Net-(BAR3-Pad6)*
X121920000Y-62230000D03*
G04 #@! TO.P,U12,15*
G04 #@! TO.N,DATA_BUS3*
X129540000Y-64770000D03*
G04 #@! TO.P,U12,6*
G04 #@! TO.N,Net-(BAR3-Pad5)*
X121920000Y-64770000D03*
G04 #@! TO.P,U12,16*
G04 #@! TO.N,DATA_BUS2*
X129540000Y-62230000D03*
G04 #@! TO.P,U12,7*
G04 #@! TO.N,Net-(BAR3-Pad4)*
X121920000Y-67310000D03*
G04 #@! TO.P,U12,17*
G04 #@! TO.N,DATA_BUS1*
X129540000Y-59690000D03*
G04 #@! TO.P,U12,8*
G04 #@! TO.N,Net-(BAR3-Pad3)*
X121920000Y-69850000D03*
G04 #@! TO.P,U12,18*
G04 #@! TO.N,DATA_BUS0*
X129540000Y-57150000D03*
G04 #@! TO.P,U12,9*
G04 #@! TO.N,Net-(BAR3-Pad2)*
X121920000Y-72390000D03*
G04 #@! TO.P,U12,19*
G04 #@! TO.N,~ALU_OUT*
X129540000Y-54610000D03*
G04 #@! TO.P,U12,10*
G04 #@! TO.N,GND*
X121920000Y-74930000D03*
G04 #@! TO.P,U12,20*
G04 #@! TO.N,+5V*
X129540000Y-52070000D03*
G04 #@! TD*
D12*
G04 #@! TO.P,J1,13*
G04 #@! TO.N,SHR*
X22225000Y-54610000D03*
G04 #@! TO.P,J1,12*
G04 #@! TO.N,Cn*
X22225000Y-52070000D03*
G04 #@! TO.P,J1,11*
G04 #@! TO.N,M*
X22225000Y-49530000D03*
G04 #@! TO.P,J1,10*
G04 #@! TO.N,S3*
X22225000Y-46990000D03*
G04 #@! TO.P,J1,9*
G04 #@! TO.N,S2*
X22225000Y-44450000D03*
G04 #@! TO.P,J1,8*
G04 #@! TO.N,S1*
X22225000Y-41910000D03*
G04 #@! TO.P,J1,7*
G04 #@! TO.N,S0*
X22225000Y-39370000D03*
G04 #@! TO.P,J1,6*
G04 #@! TO.N,~ALU_OUT*
X22225000Y-36830000D03*
G04 #@! TO.P,J1,5*
G04 #@! TO.N,~AY_LOAD*
X22225000Y-34290000D03*
G04 #@! TO.P,J1,4*
G04 #@! TO.N,~AX_LOAD*
X22225000Y-31750000D03*
G04 #@! TO.P,J1,3*
G04 #@! TO.N,CLOCK*
X22225000Y-29210000D03*
G04 #@! TO.P,J1,2*
G04 #@! TO.N,+5V*
X22225000Y-26670000D03*
D13*
G04 #@! TO.P,J1,1*
G04 #@! TO.N,GND*
X22225000Y-24130000D03*
G04 #@! TD*
G04 #@! TO.P,J2,1*
G04 #@! TO.N,DATA_BUS0*
X144145000Y-69850000D03*
D12*
G04 #@! TO.P,J2,2*
G04 #@! TO.N,DATA_BUS1*
X144145000Y-72390000D03*
G04 #@! TO.P,J2,3*
G04 #@! TO.N,DATA_BUS2*
X144145000Y-74930000D03*
G04 #@! TO.P,J2,4*
G04 #@! TO.N,DATA_BUS3*
X144145000Y-77470000D03*
G04 #@! TO.P,J2,5*
G04 #@! TO.N,DATA_BUS4*
X144145000Y-80010000D03*
G04 #@! TO.P,J2,6*
G04 #@! TO.N,DATA_BUS5*
X144145000Y-82550000D03*
G04 #@! TO.P,J2,7*
G04 #@! TO.N,DATA_BUS6*
X144145000Y-85090000D03*
G04 #@! TO.P,J2,8*
G04 #@! TO.N,DATA_BUS7*
X144145000Y-87630000D03*
G04 #@! TO.P,J2,9*
G04 #@! TO.N,Fc*
X144145000Y-90170000D03*
G04 #@! TO.P,J2,10*
G04 #@! TO.N,Fz*
X144145000Y-92710000D03*
G04 #@! TO.P,J2,11*
G04 #@! TO.N,Flt*
X144145000Y-95250000D03*
G04 #@! TO.P,J2,12*
G04 #@! TO.N,Feq*
X144145000Y-97790000D03*
G04 #@! TO.P,J2,13*
G04 #@! TO.N,Fgt*
X144145000Y-100330000D03*
G04 #@! TD*
D14*
G04 #@! TO.P,BAR2,1*
G04 #@! TO.N,Net-(BAR2-Pad1)*
X34725700Y-35510600D03*
D15*
G04 #@! TO.P,BAR2,2*
G04 #@! TO.N,Net-(BAR2-Pad2)*
X37265700Y-35510600D03*
G04 #@! TO.P,BAR2,3*
G04 #@! TO.N,Net-(BAR2-Pad3)*
X39805700Y-35510600D03*
G04 #@! TO.P,BAR2,4*
G04 #@! TO.N,Net-(BAR2-Pad4)*
X42345700Y-35510600D03*
G04 #@! TO.P,BAR2,13*
G04 #@! TO.N,Net-(BAR2-Pad13)*
X52505700Y-27890600D03*
G04 #@! TO.P,BAR2,14*
G04 #@! TO.N,Net-(BAR2-Pad14)*
X49965700Y-27890600D03*
G04 #@! TO.P,BAR2,15*
G04 #@! TO.N,Net-(BAR2-Pad15)*
X47425700Y-27890600D03*
G04 #@! TO.P,BAR2,16*
G04 #@! TO.N,Net-(BAR2-Pad16)*
X44885700Y-27890600D03*
G04 #@! TO.P,BAR2,5*
G04 #@! TO.N,Net-(BAR2-Pad5)*
X44885700Y-35510600D03*
G04 #@! TO.P,BAR2,6*
G04 #@! TO.N,Net-(BAR2-Pad6)*
X47425700Y-35510600D03*
G04 #@! TO.P,BAR2,7*
G04 #@! TO.N,Net-(BAR2-Pad7)*
X49965700Y-35510600D03*
G04 #@! TO.P,BAR2,8*
G04 #@! TO.N,Net-(BAR2-Pad8)*
X52505700Y-35510600D03*
G04 #@! TO.P,BAR2,12*
G04 #@! TO.N,Net-(BAR2-Pad12)*
X55045700Y-27890600D03*
G04 #@! TO.P,BAR2,11*
G04 #@! TO.N,Net-(BAR2-Pad11)*
X57585700Y-27890600D03*
G04 #@! TO.P,BAR2,10*
G04 #@! TO.N,Net-(BAR2-Pad10)*
X57585700Y-35510600D03*
G04 #@! TO.P,BAR2,9*
G04 #@! TO.N,Net-(BAR2-Pad9)*
X55045700Y-35510600D03*
G04 #@! TO.P,BAR2,17*
G04 #@! TO.N,Net-(BAR2-Pad17)*
X42345700Y-27890600D03*
G04 #@! TO.P,BAR2,18*
G04 #@! TO.N,Net-(BAR2-Pad18)*
X39805700Y-27890600D03*
G04 #@! TO.P,BAR2,19*
G04 #@! TO.N,Net-(BAR2-Pad19)*
X37265700Y-27890600D03*
G04 #@! TO.P,BAR2,20*
G04 #@! TO.N,Net-(BAR2-Pad20)*
X34725700Y-27890600D03*
G04 #@! TD*
G04 #@! TO.P,BAR1,20*
G04 #@! TO.N,Net-(BAR1-Pad20)*
X63935700Y-27890600D03*
G04 #@! TO.P,BAR1,19*
G04 #@! TO.N,Net-(BAR1-Pad19)*
X66475700Y-27890600D03*
G04 #@! TO.P,BAR1,18*
G04 #@! TO.N,Net-(BAR1-Pad18)*
X69015700Y-27890600D03*
G04 #@! TO.P,BAR1,17*
G04 #@! TO.N,Net-(BAR1-Pad17)*
X71555700Y-27890600D03*
G04 #@! TO.P,BAR1,9*
G04 #@! TO.N,SHRc*
X84255700Y-35510600D03*
G04 #@! TO.P,BAR1,10*
G04 #@! TO.N,Net-(BAR1-Pad10)*
X86795700Y-35510600D03*
G04 #@! TO.P,BAR1,11*
G04 #@! TO.N,Net-(BAR1-Pad11)*
X86795700Y-27890600D03*
G04 #@! TO.P,BAR1,12*
G04 #@! TO.N,Net-(BAR1-Pad12)*
X84255700Y-27890600D03*
G04 #@! TO.P,BAR1,8*
G04 #@! TO.N,Net-(BAR1-Pad8)*
X81715700Y-35510600D03*
G04 #@! TO.P,BAR1,7*
G04 #@! TO.N,Net-(BAR1-Pad7)*
X79175700Y-35510600D03*
G04 #@! TO.P,BAR1,6*
G04 #@! TO.N,Net-(BAR1-Pad6)*
X76635700Y-35510600D03*
G04 #@! TO.P,BAR1,5*
G04 #@! TO.N,Net-(BAR1-Pad5)*
X74095700Y-35510600D03*
G04 #@! TO.P,BAR1,16*
G04 #@! TO.N,Net-(BAR1-Pad16)*
X74095700Y-27890600D03*
G04 #@! TO.P,BAR1,15*
G04 #@! TO.N,Net-(BAR1-Pad15)*
X76635700Y-27890600D03*
G04 #@! TO.P,BAR1,14*
G04 #@! TO.N,Net-(BAR1-Pad14)*
X79175700Y-27890600D03*
G04 #@! TO.P,BAR1,13*
G04 #@! TO.N,Net-(BAR1-Pad13)*
X81715700Y-27890600D03*
G04 #@! TO.P,BAR1,4*
G04 #@! TO.N,Net-(BAR1-Pad4)*
X71555700Y-35510600D03*
G04 #@! TO.P,BAR1,3*
G04 #@! TO.N,Net-(BAR1-Pad3)*
X69015700Y-35510600D03*
G04 #@! TO.P,BAR1,2*
G04 #@! TO.N,Net-(BAR1-Pad2)*
X66475700Y-35510600D03*
D14*
G04 #@! TO.P,BAR1,1*
G04 #@! TO.N,Net-(BAR1-Pad1)*
X63935700Y-35510600D03*
G04 #@! TD*
G04 #@! TO.P,BAR3,1*
G04 #@! TO.N,Net-(BAR3-Pad1)*
X22225000Y-74930000D03*
D15*
G04 #@! TO.P,BAR3,2*
G04 #@! TO.N,Net-(BAR3-Pad2)*
X24765000Y-74930000D03*
G04 #@! TO.P,BAR3,3*
G04 #@! TO.N,Net-(BAR3-Pad3)*
X27305000Y-74930000D03*
G04 #@! TO.P,BAR3,4*
G04 #@! TO.N,Net-(BAR3-Pad4)*
X29845000Y-74930000D03*
G04 #@! TO.P,BAR3,13*
G04 #@! TO.N,Net-(BAR3-Pad13)*
X40005000Y-67310000D03*
G04 #@! TO.P,BAR3,14*
G04 #@! TO.N,Net-(BAR3-Pad14)*
X37465000Y-67310000D03*
G04 #@! TO.P,BAR3,15*
G04 #@! TO.N,Net-(BAR3-Pad15)*
X34925000Y-67310000D03*
G04 #@! TO.P,BAR3,16*
G04 #@! TO.N,Net-(BAR3-Pad16)*
X32385000Y-67310000D03*
G04 #@! TO.P,BAR3,5*
G04 #@! TO.N,Net-(BAR3-Pad5)*
X32385000Y-74930000D03*
G04 #@! TO.P,BAR3,6*
G04 #@! TO.N,Net-(BAR3-Pad6)*
X34925000Y-74930000D03*
G04 #@! TO.P,BAR3,7*
G04 #@! TO.N,Net-(BAR3-Pad7)*
X37465000Y-74930000D03*
G04 #@! TO.P,BAR3,8*
G04 #@! TO.N,Net-(BAR3-Pad8)*
X40005000Y-74930000D03*
G04 #@! TO.P,BAR3,12*
G04 #@! TO.N,Net-(BAR3-Pad12)*
X42545000Y-67310000D03*
G04 #@! TO.P,BAR3,11*
G04 #@! TO.N,Net-(BAR3-Pad11)*
X45085000Y-67310000D03*
G04 #@! TO.P,BAR3,10*
G04 #@! TO.N,Net-(BAR3-Pad10)*
X45085000Y-74930000D03*
G04 #@! TO.P,BAR3,9*
G04 #@! TO.N,Net-(BAR3-Pad9)*
X42545000Y-74930000D03*
G04 #@! TO.P,BAR3,17*
G04 #@! TO.N,Net-(BAR3-Pad17)*
X29845000Y-67310000D03*
G04 #@! TO.P,BAR3,18*
G04 #@! TO.N,Net-(BAR3-Pad18)*
X27305000Y-67310000D03*
G04 #@! TO.P,BAR3,19*
G04 #@! TO.N,Net-(BAR3-Pad19)*
X24765000Y-67310000D03*
G04 #@! TO.P,BAR3,20*
G04 #@! TO.N,Net-(BAR3-Pad20)*
X22225000Y-67310000D03*
G04 #@! TD*
D16*
G04 #@! TO.P,D1,1*
G04 #@! TO.N,Net-(D1-Pad1)*
X118329000Y-90011000D03*
D17*
G04 #@! TO.P,D1,2*
G04 #@! TO.N,Flt*
X118329000Y-87471000D03*
G04 #@! TD*
G04 #@! TO.P,D2,2*
G04 #@! TO.N,Feq*
X123304000Y-87471000D03*
D16*
G04 #@! TO.P,D2,1*
G04 #@! TO.N,Net-(D2-Pad1)*
X123304000Y-90011000D03*
G04 #@! TD*
G04 #@! TO.P,D3,1*
G04 #@! TO.N,Net-(D3-Pad1)*
X128279000Y-90011000D03*
D17*
G04 #@! TO.P,D3,2*
G04 #@! TO.N,Fgt*
X128279000Y-87471000D03*
G04 #@! TD*
G04 #@! TO.P,D4,2*
G04 #@! TO.N,Fc*
X108489000Y-87471000D03*
D16*
G04 #@! TO.P,D4,1*
G04 #@! TO.N,Net-(D4-Pad1)*
X108489000Y-90011000D03*
G04 #@! TD*
G04 #@! TO.P,D5,1*
G04 #@! TO.N,Net-(D5-Pad1)*
X113464000Y-90011000D03*
D17*
G04 #@! TO.P,D5,2*
G04 #@! TO.N,Fz*
X113464000Y-87471000D03*
G04 #@! TD*
D10*
G04 #@! TO.P,U1,20*
G04 #@! TO.N,+5V*
X63935700Y-41860600D03*
G04 #@! TO.P,U1,10*
G04 #@! TO.N,GND*
X86795700Y-49480600D03*
G04 #@! TO.P,U1,19*
G04 #@! TO.N,Net-(BAR2-Pad2)*
X66475700Y-41860600D03*
G04 #@! TO.P,U1,9*
G04 #@! TO.N,Net-(BAR2-Pad6)*
X84255700Y-49480600D03*
G04 #@! TO.P,U1,18*
G04 #@! TO.N,DATA_BUS7*
X69015700Y-41860600D03*
G04 #@! TO.P,U1,8*
G04 #@! TO.N,DATA_BUS3*
X81715700Y-49480600D03*
G04 #@! TO.P,U1,17*
G04 #@! TO.N,DATA_BUS6*
X71555700Y-41860600D03*
G04 #@! TO.P,U1,7*
G04 #@! TO.N,DATA_BUS2*
X79175700Y-49480600D03*
G04 #@! TO.P,U1,16*
G04 #@! TO.N,Net-(BAR2-Pad3)*
X74095700Y-41860600D03*
G04 #@! TO.P,U1,6*
G04 #@! TO.N,Net-(BAR2-Pad7)*
X76635700Y-49480600D03*
G04 #@! TO.P,U1,15*
G04 #@! TO.N,Net-(BAR2-Pad4)*
X76635700Y-41860600D03*
G04 #@! TO.P,U1,5*
G04 #@! TO.N,Net-(BAR2-Pad8)*
X74095700Y-49480600D03*
G04 #@! TO.P,U1,14*
G04 #@! TO.N,DATA_BUS5*
X79175700Y-41860600D03*
G04 #@! TO.P,U1,4*
G04 #@! TO.N,DATA_BUS1*
X71555700Y-49480600D03*
G04 #@! TO.P,U1,13*
G04 #@! TO.N,DATA_BUS4*
X81715700Y-41860600D03*
G04 #@! TO.P,U1,3*
G04 #@! TO.N,DATA_BUS0*
X69015700Y-49480600D03*
G04 #@! TO.P,U1,12*
G04 #@! TO.N,Net-(BAR2-Pad5)*
X84255700Y-41860600D03*
G04 #@! TO.P,U1,2*
G04 #@! TO.N,Net-(BAR2-Pad9)*
X66475700Y-49480600D03*
G04 #@! TO.P,U1,11*
G04 #@! TO.N,CLOCK*
X86795700Y-41860600D03*
D11*
G04 #@! TO.P,U1,1*
G04 #@! TO.N,~AY_LOAD*
X63935700Y-49480600D03*
G04 #@! TD*
G04 #@! TO.P,U2,1*
G04 #@! TO.N,~AX_LOAD*
X34725700Y-49480600D03*
D10*
G04 #@! TO.P,U2,11*
G04 #@! TO.N,CLOCK*
X57585700Y-41860600D03*
G04 #@! TO.P,U2,2*
G04 #@! TO.N,SHRc*
X37265700Y-49480600D03*
G04 #@! TO.P,U2,12*
G04 #@! TO.N,Net-(BAR1-Pad5)*
X55045700Y-41860600D03*
G04 #@! TO.P,U2,3*
G04 #@! TO.N,DATA_BUS0*
X39805700Y-49480600D03*
G04 #@! TO.P,U2,13*
G04 #@! TO.N,DATA_BUS4*
X52505700Y-41860600D03*
G04 #@! TO.P,U2,4*
G04 #@! TO.N,DATA_BUS1*
X42345700Y-49480600D03*
G04 #@! TO.P,U2,14*
G04 #@! TO.N,DATA_BUS5*
X49965700Y-41860600D03*
G04 #@! TO.P,U2,5*
G04 #@! TO.N,Net-(BAR1-Pad8)*
X44885700Y-49480600D03*
G04 #@! TO.P,U2,15*
G04 #@! TO.N,Net-(BAR1-Pad4)*
X47425700Y-41860600D03*
G04 #@! TO.P,U2,6*
G04 #@! TO.N,Net-(BAR1-Pad7)*
X47425700Y-49480600D03*
G04 #@! TO.P,U2,16*
G04 #@! TO.N,Net-(BAR1-Pad3)*
X44885700Y-41860600D03*
G04 #@! TO.P,U2,7*
G04 #@! TO.N,DATA_BUS2*
X49965700Y-49480600D03*
G04 #@! TO.P,U2,17*
G04 #@! TO.N,DATA_BUS6*
X42345700Y-41860600D03*
G04 #@! TO.P,U2,8*
G04 #@! TO.N,DATA_BUS3*
X52505700Y-49480600D03*
G04 #@! TO.P,U2,18*
G04 #@! TO.N,DATA_BUS7*
X39805700Y-41860600D03*
G04 #@! TO.P,U2,9*
G04 #@! TO.N,Net-(BAR1-Pad6)*
X55045700Y-49480600D03*
G04 #@! TO.P,U2,19*
G04 #@! TO.N,Net-(BAR1-Pad2)*
X37265700Y-41860600D03*
G04 #@! TO.P,U2,10*
G04 #@! TO.N,GND*
X57585700Y-49480600D03*
G04 #@! TO.P,U2,20*
G04 #@! TO.N,+5V*
X34725700Y-41860600D03*
G04 #@! TD*
D11*
G04 #@! TO.P,U6,1*
G04 #@! TO.N,+5V*
X135890000Y-24130000D03*
D10*
G04 #@! TO.P,U6,11*
G04 #@! TO.N,DATA_BUS7*
X143510000Y-46990000D03*
G04 #@! TO.P,U6,2*
G04 #@! TO.N,Net-(BAR1-Pad8)*
X135890000Y-26670000D03*
G04 #@! TO.P,U6,12*
G04 #@! TO.N,DATA_BUS6*
X143510000Y-44450000D03*
G04 #@! TO.P,U6,3*
G04 #@! TO.N,Net-(BAR1-Pad7)*
X135890000Y-29210000D03*
G04 #@! TO.P,U6,13*
G04 #@! TO.N,DATA_BUS5*
X143510000Y-41910000D03*
G04 #@! TO.P,U6,4*
G04 #@! TO.N,Net-(BAR1-Pad6)*
X135890000Y-31750000D03*
G04 #@! TO.P,U6,14*
G04 #@! TO.N,DATA_BUS4*
X143510000Y-39370000D03*
G04 #@! TO.P,U6,5*
G04 #@! TO.N,Net-(BAR1-Pad5)*
X135890000Y-34290000D03*
G04 #@! TO.P,U6,15*
G04 #@! TO.N,DATA_BUS3*
X143510000Y-36830000D03*
G04 #@! TO.P,U6,6*
G04 #@! TO.N,Net-(BAR1-Pad4)*
X135890000Y-36830000D03*
G04 #@! TO.P,U6,16*
G04 #@! TO.N,DATA_BUS2*
X143510000Y-34290000D03*
G04 #@! TO.P,U6,7*
G04 #@! TO.N,Net-(BAR1-Pad3)*
X135890000Y-39370000D03*
G04 #@! TO.P,U6,17*
G04 #@! TO.N,DATA_BUS1*
X143510000Y-31750000D03*
G04 #@! TO.P,U6,8*
G04 #@! TO.N,Net-(BAR1-Pad2)*
X135890000Y-41910000D03*
G04 #@! TO.P,U6,18*
G04 #@! TO.N,DATA_BUS0*
X143510000Y-29210000D03*
G04 #@! TO.P,U6,9*
G04 #@! TO.N,GND*
X135890000Y-44450000D03*
G04 #@! TO.P,U6,19*
G04 #@! TO.N,~SHR*
X143510000Y-26670000D03*
G04 #@! TO.P,U6,10*
G04 #@! TO.N,GND*
X135890000Y-46990000D03*
G04 #@! TO.P,U6,20*
G04 #@! TO.N,+5V*
X143510000Y-24130000D03*
G04 #@! TD*
G04 #@! TO.P,U5,24*
G04 #@! TO.N,+5V*
X50165000Y-100330000D03*
G04 #@! TO.P,U5,12*
G04 #@! TO.N,GND*
X22225000Y-85090000D03*
G04 #@! TO.P,U5,23*
G04 #@! TO.N,Net-(BAR1-Pad4)*
X47625000Y-100330000D03*
G04 #@! TO.P,U5,11*
G04 #@! TO.N,Net-(BAR3-Pad3)*
X24765000Y-85090000D03*
G04 #@! TO.P,U5,22*
G04 #@! TO.N,Net-(BAR2-Pad4)*
X45085000Y-100330000D03*
G04 #@! TO.P,U5,10*
G04 #@! TO.N,Net-(BAR3-Pad4)*
X27305000Y-85090000D03*
G04 #@! TO.P,U5,21*
G04 #@! TO.N,Net-(BAR1-Pad3)*
X42545000Y-100330000D03*
G04 #@! TO.P,U5,9*
G04 #@! TO.N,Net-(BAR3-Pad5)*
X29845000Y-85090000D03*
G04 #@! TO.P,U5,20*
G04 #@! TO.N,Net-(BAR2-Pad3)*
X40005000Y-100330000D03*
G04 #@! TO.P,U5,8*
G04 #@! TO.N,M*
X32385000Y-85090000D03*
G04 #@! TO.P,U5,19*
G04 #@! TO.N,Net-(BAR1-Pad2)*
X37465000Y-100330000D03*
G04 #@! TO.P,U5,7*
G04 #@! TO.N,/Cn4_A*
X34925000Y-85090000D03*
G04 #@! TO.P,U5,18*
G04 #@! TO.N,Net-(BAR2-Pad2)*
X34925000Y-100330000D03*
G04 #@! TO.P,U5,6*
G04 #@! TO.N,S0*
X37465000Y-85090000D03*
G04 #@! TO.P,U5,17*
G04 #@! TO.N,Net-(U5-Pad17)*
X32385000Y-100330000D03*
G04 #@! TO.P,U5,5*
G04 #@! TO.N,S1*
X40005000Y-85090000D03*
G04 #@! TO.P,U5,16*
G04 #@! TO.N,/Cn4_B*
X29845000Y-100330000D03*
G04 #@! TO.P,U5,4*
G04 #@! TO.N,S2*
X42545000Y-85090000D03*
G04 #@! TO.P,U5,15*
G04 #@! TO.N,Net-(U5-Pad15)*
X27305000Y-100330000D03*
G04 #@! TO.P,U5,3*
G04 #@! TO.N,S3*
X45085000Y-85090000D03*
G04 #@! TO.P,U5,14*
G04 #@! TO.N,/A=B_B*
X24765000Y-100330000D03*
G04 #@! TO.P,U5,2*
G04 #@! TO.N,Net-(BAR1-Pad5)*
X47625000Y-85090000D03*
G04 #@! TO.P,U5,13*
G04 #@! TO.N,Net-(BAR3-Pad2)*
X22225000Y-100330000D03*
D11*
G04 #@! TO.P,U5,1*
G04 #@! TO.N,Net-(BAR2-Pad5)*
X50165000Y-85090000D03*
G04 #@! TD*
D10*
G04 #@! TO.P,U4,24*
G04 #@! TO.N,+5V*
X93345000Y-100330000D03*
G04 #@! TO.P,U4,12*
G04 #@! TO.N,GND*
X65405000Y-85090000D03*
G04 #@! TO.P,U4,23*
G04 #@! TO.N,Net-(BAR1-Pad8)*
X90805000Y-100330000D03*
G04 #@! TO.P,U4,11*
G04 #@! TO.N,Net-(BAR3-Pad7)*
X67945000Y-85090000D03*
G04 #@! TO.P,U4,22*
G04 #@! TO.N,Net-(BAR2-Pad8)*
X88265000Y-100330000D03*
G04 #@! TO.P,U4,10*
G04 #@! TO.N,Net-(BAR3-Pad8)*
X70485000Y-85090000D03*
G04 #@! TO.P,U4,21*
G04 #@! TO.N,Net-(BAR1-Pad7)*
X85725000Y-100330000D03*
G04 #@! TO.P,U4,9*
G04 #@! TO.N,Net-(BAR3-Pad9)*
X73025000Y-85090000D03*
G04 #@! TO.P,U4,20*
G04 #@! TO.N,Net-(BAR2-Pad7)*
X83185000Y-100330000D03*
G04 #@! TO.P,U4,8*
G04 #@! TO.N,M*
X75565000Y-85090000D03*
G04 #@! TO.P,U4,19*
G04 #@! TO.N,Net-(BAR1-Pad6)*
X80645000Y-100330000D03*
G04 #@! TO.P,U4,7*
G04 #@! TO.N,Cn*
X78105000Y-85090000D03*
G04 #@! TO.P,U4,18*
G04 #@! TO.N,Net-(BAR2-Pad6)*
X78105000Y-100330000D03*
G04 #@! TO.P,U4,6*
G04 #@! TO.N,S0*
X80645000Y-85090000D03*
G04 #@! TO.P,U4,17*
G04 #@! TO.N,Net-(U4-Pad17)*
X75565000Y-100330000D03*
G04 #@! TO.P,U4,5*
G04 #@! TO.N,S1*
X83185000Y-85090000D03*
G04 #@! TO.P,U4,16*
G04 #@! TO.N,/Cn4_A*
X73025000Y-100330000D03*
G04 #@! TO.P,U4,4*
G04 #@! TO.N,S2*
X85725000Y-85090000D03*
G04 #@! TO.P,U4,15*
G04 #@! TO.N,Net-(U4-Pad15)*
X70485000Y-100330000D03*
G04 #@! TO.P,U4,3*
G04 #@! TO.N,S3*
X88265000Y-85090000D03*
G04 #@! TO.P,U4,14*
G04 #@! TO.N,/A=B_A*
X67945000Y-100330000D03*
G04 #@! TO.P,U4,2*
G04 #@! TO.N,SHRc*
X90805000Y-85090000D03*
G04 #@! TO.P,U4,13*
G04 #@! TO.N,Net-(BAR3-Pad6)*
X65405000Y-100330000D03*
D11*
G04 #@! TO.P,U4,1*
G04 #@! TO.N,Net-(BAR2-Pad9)*
X93345000Y-85090000D03*
G04 #@! TD*
G04 #@! TO.P,RN1,1*
G04 #@! TO.N,GND*
X86795700Y-24080600D03*
D10*
G04 #@! TO.P,RN1,2*
G04 #@! TO.N,Net-(BAR1-Pad12)*
X84255700Y-24080600D03*
G04 #@! TO.P,RN1,3*
G04 #@! TO.N,Net-(BAR1-Pad13)*
X81715700Y-24080600D03*
G04 #@! TO.P,RN1,4*
G04 #@! TO.N,Net-(BAR1-Pad14)*
X79175700Y-24080600D03*
G04 #@! TO.P,RN1,5*
G04 #@! TO.N,Net-(BAR1-Pad15)*
X76635700Y-24080600D03*
G04 #@! TO.P,RN1,6*
G04 #@! TO.N,Net-(BAR1-Pad16)*
X74095700Y-24080600D03*
G04 #@! TO.P,RN1,7*
G04 #@! TO.N,Net-(BAR1-Pad17)*
X71555700Y-24080600D03*
G04 #@! TO.P,RN1,8*
G04 #@! TO.N,Net-(BAR1-Pad18)*
X69015700Y-24080600D03*
G04 #@! TO.P,RN1,9*
G04 #@! TO.N,Net-(BAR1-Pad19)*
X66475700Y-24080600D03*
G04 #@! TD*
G04 #@! TO.P,RN2,9*
G04 #@! TO.N,Net-(BAR2-Pad19)*
X37265700Y-24080600D03*
G04 #@! TO.P,RN2,8*
G04 #@! TO.N,Net-(BAR2-Pad18)*
X39805700Y-24080600D03*
G04 #@! TO.P,RN2,7*
G04 #@! TO.N,Net-(BAR2-Pad17)*
X42345700Y-24080600D03*
G04 #@! TO.P,RN2,6*
G04 #@! TO.N,Net-(BAR2-Pad16)*
X44885700Y-24080600D03*
G04 #@! TO.P,RN2,5*
G04 #@! TO.N,Net-(BAR2-Pad15)*
X47425700Y-24080600D03*
G04 #@! TO.P,RN2,4*
G04 #@! TO.N,Net-(BAR2-Pad14)*
X49965700Y-24080600D03*
G04 #@! TO.P,RN2,3*
G04 #@! TO.N,Net-(BAR2-Pad13)*
X52505700Y-24080600D03*
G04 #@! TO.P,RN2,2*
G04 #@! TO.N,Net-(BAR2-Pad12)*
X55045700Y-24080600D03*
D11*
G04 #@! TO.P,RN2,1*
G04 #@! TO.N,GND*
X57585700Y-24080600D03*
G04 #@! TD*
G04 #@! TO.P,RN3,1*
G04 #@! TO.N,GND*
X45085000Y-63500000D03*
D10*
G04 #@! TO.P,RN3,2*
G04 #@! TO.N,Net-(BAR3-Pad12)*
X42545000Y-63500000D03*
G04 #@! TO.P,RN3,3*
G04 #@! TO.N,Net-(BAR3-Pad13)*
X40005000Y-63500000D03*
G04 #@! TO.P,RN3,4*
G04 #@! TO.N,Net-(BAR3-Pad14)*
X37465000Y-63500000D03*
G04 #@! TO.P,RN3,5*
G04 #@! TO.N,Net-(BAR3-Pad15)*
X34925000Y-63500000D03*
G04 #@! TO.P,RN3,6*
G04 #@! TO.N,Net-(BAR3-Pad16)*
X32385000Y-63500000D03*
G04 #@! TO.P,RN3,7*
G04 #@! TO.N,Net-(BAR3-Pad17)*
X29845000Y-63500000D03*
G04 #@! TO.P,RN3,8*
G04 #@! TO.N,Net-(BAR3-Pad18)*
X27305000Y-63500000D03*
G04 #@! TO.P,RN3,9*
G04 #@! TO.N,Net-(BAR3-Pad19)*
X24765000Y-63500000D03*
G04 #@! TD*
D18*
G04 #@! TO.P,R5,1*
G04 #@! TO.N,GND*
X113464000Y-100330000D03*
D10*
G04 #@! TO.P,R5,2*
G04 #@! TO.N,Net-(D5-Pad1)*
X113464000Y-92710000D03*
G04 #@! TD*
G04 #@! TO.P,R4,2*
G04 #@! TO.N,Net-(D4-Pad1)*
X108489000Y-92710000D03*
D18*
G04 #@! TO.P,R4,1*
G04 #@! TO.N,GND*
X108489000Y-100330000D03*
G04 #@! TD*
G04 #@! TO.P,R3,1*
G04 #@! TO.N,GND*
X128279000Y-100330000D03*
D10*
G04 #@! TO.P,R3,2*
G04 #@! TO.N,Net-(D3-Pad1)*
X128279000Y-92710000D03*
G04 #@! TD*
G04 #@! TO.P,R2,2*
G04 #@! TO.N,Net-(D2-Pad1)*
X123304000Y-92710000D03*
D18*
G04 #@! TO.P,R2,1*
G04 #@! TO.N,GND*
X123304000Y-100330000D03*
G04 #@! TD*
G04 #@! TO.P,R1,1*
G04 #@! TO.N,GND*
X118329000Y-100330000D03*
D10*
G04 #@! TO.P,R1,2*
G04 #@! TO.N,Net-(D1-Pad1)*
X118329000Y-92710000D03*
G04 #@! TD*
D19*
G04 #@! TO.N,GND*
X85584300Y-30891900D03*
G04 #@! TO.N,Net-(BAR2-Pad9)*
X77657000Y-80323800D03*
G04 #@! TO.N,SHRc*
X83042500Y-44737200D03*
G04 #@! TO.N,/A=B_A*
X79909100Y-71769200D03*
X69309300Y-82602300D03*
G04 #@! TO.N,/Cn4_A*
X74132300Y-59663800D03*
G04 #@! TO.N,S0*
X46401600Y-83317600D03*
G04 #@! TO.N,Net-(BAR2-Pad6)*
X65262100Y-46215800D03*
G04 #@! TO.N,Net-(BAR1-Pad6)*
X76110800Y-47192300D03*
X61976900Y-91738900D03*
G04 #@! TO.N,Net-(BAR3-Pad9)*
X66622700Y-76978400D03*
X87275800Y-77738300D03*
G04 #@! TO.N,Net-(BAR1-Pad7)*
X77763400Y-50626000D03*
G04 #@! TO.N,Net-(BAR3-Pad8)*
X85509900Y-78380900D03*
X65035400Y-77286600D03*
G04 #@! TO.N,Net-(BAR3-Pad7)*
X60888500Y-77778500D03*
G04 #@! TO.N,Net-(BAR1-Pad8)*
X79876200Y-45464800D03*
G04 #@! TO.N,+5V*
X114782900Y-52376700D03*
G04 #@! TO.N,Net-(BAR2-Pad3)*
X49246400Y-45257100D03*
G04 #@! TO.N,Net-(BAR2-Pad2)*
X59457300Y-35889500D03*
G04 #@! TO.N,/Cn4_B*
X37848200Y-79404500D03*
G04 #@! TO.N,/A=B_B*
X91888500Y-29824100D03*
G04 #@! TO.N,Net-(BAR1-Pad5)*
X55756800Y-84662700D03*
G04 #@! TO.N,Net-(BAR3-Pad2)*
X110110600Y-83074100D03*
G04 #@! TO.N,Net-(BAR2-Pad5)*
X59539600Y-41473900D03*
G04 #@! TO.N,DATA_BUS7*
X77657000Y-77213400D03*
G04 #@! TO.N,DATA_BUS3*
X56134000Y-47834800D03*
G04 #@! TO.N,DATA_BUS2*
X78314200Y-58512300D03*
G04 #@! TO.N,DATA_BUS1*
X59435400Y-51234800D03*
G04 #@! TO.N,CLOCK*
X34739900Y-43602700D03*
X57631200Y-45536100D03*
G04 #@! TO.N,~AY_LOAD*
X58824900Y-46103200D03*
G04 #@! TO.N,Net-(U10-Pad6)*
X92794500Y-62091900D03*
G04 #@! TO.N,Net-(U10-Pad5)*
X103542700Y-53978200D03*
G04 #@! TO.N,Net-(U10-Pad4)*
X95596900Y-57753700D03*
G04 #@! TO.N,Net-(U10-Pad9)*
X118828500Y-53816100D03*
G04 #@! TO.N,Fgt*
X126588900Y-41424900D03*
G04 #@! TO.N,Flt*
X109173900Y-40197100D03*
X122750900Y-44137300D03*
G04 #@! TO.N,Feq*
X123788000Y-44901300D03*
G04 #@! TD*
D20*
G04 #@! TO.N,GND*
X92158900Y-35628900D02*
X90321300Y-35628900D01*
X90321300Y-35628900D02*
X85584300Y-30891900D01*
X123095300Y-39370000D02*
X128175300Y-44450000D01*
X128175300Y-44450000D02*
X134714700Y-44450000D01*
X106774700Y-39370000D02*
X103033600Y-35628900D01*
X103033600Y-35628900D02*
X92158900Y-35628900D01*
X65405000Y-83377600D02*
X65405000Y-83914700D01*
X65405000Y-83377600D02*
X69666900Y-83377600D01*
X69666900Y-83377600D02*
X78114500Y-74930000D01*
X78114500Y-74930000D02*
X80104700Y-74930000D01*
X120744700Y-39370000D02*
X119569300Y-40545400D01*
X119569300Y-40545400D02*
X110618700Y-40545400D01*
X110618700Y-40545400D02*
X109443300Y-39370000D01*
X109443300Y-39370000D02*
X109125300Y-39370000D01*
X107950000Y-39370000D02*
X109125300Y-39370000D01*
X121920000Y-39370000D02*
X120744700Y-39370000D01*
X122507700Y-39370000D02*
X121920000Y-39370000D01*
X122507700Y-39370000D02*
X123095300Y-39370000D01*
X135890000Y-44450000D02*
X134714700Y-44450000D01*
X101600000Y-74930000D02*
X102775300Y-74930000D01*
X121920000Y-74930000D02*
X120744700Y-74930000D01*
X120744700Y-74930000D02*
X117009000Y-71194300D01*
X117009000Y-71194300D02*
X106511000Y-71194300D01*
X106511000Y-71194300D02*
X102775300Y-74930000D01*
X45085000Y-63500000D02*
X46260300Y-63500000D01*
X46260300Y-63500000D02*
X57690300Y-74930000D01*
X57690300Y-74930000D02*
X60325000Y-74930000D01*
X107950000Y-39370000D02*
X106774700Y-39370000D01*
X81280000Y-74930000D02*
X80104700Y-74930000D01*
X81280000Y-74930000D02*
X82455300Y-74930000D01*
X100424700Y-74930000D02*
X99234100Y-73739400D01*
X99234100Y-73739400D02*
X83645900Y-73739400D01*
X83645900Y-73739400D02*
X82455300Y-74930000D01*
X101600000Y-74930000D02*
X100424700Y-74930000D01*
X113464000Y-100330000D02*
X108489000Y-100330000D01*
X118329000Y-100330000D02*
X113464000Y-100330000D01*
X128279000Y-100330000D02*
X123304000Y-100330000D01*
X65405000Y-85090000D02*
X65405000Y-83914700D01*
X63627300Y-81599900D02*
X65405000Y-83377600D01*
X25715100Y-81599900D02*
X63627300Y-81599900D01*
X22225000Y-85090000D02*
X25715100Y-81599900D01*
X58761000Y-24080600D02*
X57585700Y-24080600D01*
X59936300Y-22905300D02*
X58761000Y-24080600D01*
X84812400Y-22905300D02*
X59936300Y-22905300D01*
X85987700Y-24080600D02*
X84812400Y-22905300D01*
X86795700Y-24080600D02*
X85987700Y-24080600D01*
X92158900Y-38183900D02*
X92158900Y-37084000D01*
X93345000Y-39370000D02*
X92158900Y-38183900D01*
X92158900Y-35628900D02*
X92158900Y-37084000D01*
D21*
G04 #@! TO.N,Net-(BAR2-Pad9)*
X89628800Y-80323800D02*
X86614000Y-80323800D01*
X93345000Y-84040000D02*
X89628800Y-80323800D01*
X93345000Y-85090000D02*
X93345000Y-84040000D01*
X86614000Y-80323800D02*
X77657000Y-80323800D01*
G04 #@! TO.N,Net-(BAR3-Pad6)*
X121920000Y-62230000D02*
X120794700Y-62230000D01*
X101600000Y-64770000D02*
X103834400Y-64770000D01*
X103834400Y-64770000D02*
X105249100Y-63355300D01*
X105249100Y-63355300D02*
X119669400Y-63355300D01*
X119669400Y-63355300D02*
X120794700Y-62230000D01*
G04 #@! TO.N,SHRc*
X57236800Y-46828500D02*
X59125400Y-46828500D01*
X37265700Y-49480600D02*
X39588200Y-47158100D01*
X59125400Y-46828500D02*
X61216700Y-44737200D01*
X39588200Y-47158100D02*
X51014800Y-47158100D01*
X61216700Y-44737200D02*
X83042500Y-44737200D01*
X51014800Y-47158100D02*
X51513700Y-46659200D01*
X51513700Y-46659200D02*
X57067500Y-46659200D01*
X57067500Y-46659200D02*
X57236800Y-46828500D01*
G04 #@! TO.N,/A=B_A*
X79909100Y-71769200D02*
X79909100Y-72002500D01*
X79909100Y-72002500D02*
X69309300Y-82602300D01*
G04 #@! TO.N,S3*
X48019600Y-88024600D02*
X45085000Y-85090000D01*
X85330400Y-88024600D02*
X48019600Y-88024600D01*
X88265000Y-85090000D02*
X85330400Y-88024600D01*
G04 #@! TO.N,S2*
X88754000Y-83964500D02*
X86850500Y-83964500D01*
X42545000Y-85090000D02*
X45972800Y-88517800D01*
X86512000Y-88517800D02*
X89446400Y-85583400D01*
X45972800Y-88517800D02*
X86512000Y-88517800D01*
X86850500Y-83964500D02*
X85725000Y-85090000D01*
X89446400Y-84656900D02*
X88754000Y-83964500D01*
X89446400Y-85583400D02*
X89446400Y-84656900D01*
G04 #@! TO.N,/Cn4_A*
X74132300Y-59663800D02*
X80128500Y-59663800D01*
X80128500Y-59663800D02*
X80154700Y-59690000D01*
X81280000Y-59690000D02*
X80154700Y-59690000D01*
X71899700Y-99204700D02*
X73025000Y-100330000D01*
X49039700Y-99204700D02*
X71899700Y-99204700D01*
X34925000Y-85090000D02*
X49039700Y-99204700D01*
G04 #@! TO.N,S1*
X45997600Y-83964700D02*
X41130300Y-83964700D01*
X46088500Y-84055600D02*
X45997600Y-83964700D01*
X46689400Y-84055600D02*
X46088500Y-84055600D01*
X83185000Y-85090000D02*
X80705900Y-87569100D01*
X59988200Y-87569100D02*
X56315600Y-83896500D01*
X56315600Y-83896500D02*
X46848500Y-83896500D01*
X41130300Y-83964700D02*
X40005000Y-85090000D01*
X80705900Y-87569100D02*
X59988200Y-87569100D01*
X46848500Y-83896500D02*
X46689400Y-84055600D01*
G04 #@! TO.N,S0*
X37465000Y-85090000D02*
X39237400Y-83317600D01*
X39237400Y-83317600D02*
X40640000Y-83317600D01*
X40640000Y-83317600D02*
X46401600Y-83317600D01*
X59244300Y-83317600D02*
X46401600Y-83317600D01*
X63045500Y-87118800D02*
X59244300Y-83317600D01*
X78616200Y-87118800D02*
X63045500Y-87118800D01*
X80645000Y-85090000D02*
X78616200Y-87118800D01*
G04 #@! TO.N,Net-(BAR2-Pad6)*
X84255700Y-49480600D02*
X82917200Y-48142100D01*
X82917200Y-48142100D02*
X80170100Y-48142100D01*
X80170100Y-48142100D02*
X78013800Y-45985800D01*
X78013800Y-45985800D02*
X65492100Y-45985800D01*
X65492100Y-45985800D02*
X65262100Y-46215800D01*
G04 #@! TO.N,Cn*
X23400300Y-55900700D02*
X23400300Y-53245300D01*
X59114100Y-82550500D02*
X35842700Y-82550500D01*
X78105000Y-85090000D02*
X76526500Y-86668500D01*
X76526500Y-86668500D02*
X63232100Y-86668500D01*
X33655000Y-84738200D02*
X33655000Y-85441800D01*
X63232100Y-86668500D02*
X59114100Y-82550500D01*
X33655000Y-85441800D02*
X32388600Y-86708200D01*
X21563700Y-86708200D02*
X20429200Y-85573700D01*
X35842700Y-82550500D02*
X33655000Y-84738200D01*
X32388600Y-86708200D02*
X21563700Y-86708200D01*
X20429200Y-85573700D02*
X20429200Y-58871800D01*
X23400300Y-53245300D02*
X22225000Y-52070000D01*
X20429200Y-58871800D02*
X23400300Y-55900700D01*
G04 #@! TO.N,Net-(BAR1-Pad6)*
X57234300Y-48206700D02*
X59942400Y-48206700D01*
X59942400Y-48206700D02*
X60757700Y-47391400D01*
X60757700Y-47391400D02*
X65749200Y-47391400D01*
X65749200Y-47391400D02*
X66173200Y-46967400D01*
X66173200Y-46967400D02*
X75885900Y-46967400D01*
X75885900Y-46967400D02*
X76110800Y-47192300D01*
X72053900Y-91738900D02*
X69977000Y-91738900D01*
X80645000Y-100330000D02*
X72053900Y-91738900D01*
X69977000Y-91738900D02*
X61976900Y-91738900D01*
X55045700Y-49480600D02*
X55675400Y-49480600D01*
X56596199Y-48559801D02*
X56813825Y-48559801D01*
X55675400Y-49480600D02*
X56596199Y-48559801D01*
X56813825Y-48559801D02*
X56827661Y-48573637D01*
X56827661Y-48573637D02*
X57234300Y-48206700D01*
G04 #@! TO.N,M*
X32385000Y-85090000D02*
X31217100Y-86257900D01*
X23869200Y-51174200D02*
X22225000Y-49530000D01*
X31217100Y-86257900D02*
X21750300Y-86257900D01*
X20879500Y-85387100D02*
X20879500Y-65122300D01*
X21750300Y-86257900D02*
X20879500Y-85387100D01*
X23869200Y-62132600D02*
X23869200Y-51174200D01*
X20879500Y-65122300D02*
X23869200Y-62132600D01*
X35374800Y-82100200D02*
X32385000Y-85090000D01*
X60101300Y-82100200D02*
X35374800Y-82100200D01*
X74436800Y-86218200D02*
X64219300Y-86218200D01*
X64219300Y-86218200D02*
X60101300Y-82100200D01*
X75565000Y-85090000D02*
X74436800Y-86218200D01*
G04 #@! TO.N,Net-(BAR3-Pad9)*
X66622700Y-76978400D02*
X66200200Y-76555900D01*
X66200200Y-76555900D02*
X44170900Y-76555900D01*
X44170900Y-76555900D02*
X42545000Y-74930000D01*
X102725300Y-59690000D02*
X107805300Y-54610000D01*
X107805300Y-54610000D02*
X120794700Y-54610000D01*
X121920000Y-54610000D02*
X120794700Y-54610000D01*
X101600000Y-59690000D02*
X102725300Y-59690000D01*
X85415600Y-79598500D02*
X87275800Y-77738300D01*
X77356600Y-79598500D02*
X85415600Y-79598500D01*
X73025000Y-83930100D02*
X77356600Y-79598500D01*
X73025000Y-85090000D02*
X73025000Y-83930100D01*
G04 #@! TO.N,Net-(BAR1-Pad7)*
X61214200Y-49432300D02*
X62354500Y-48292000D01*
X76150900Y-50626000D02*
X77763400Y-50626000D01*
X49052800Y-51107700D02*
X58484900Y-51107700D01*
X60160300Y-49432300D02*
X61214200Y-49432300D01*
X47425700Y-49480600D02*
X49052800Y-51107700D01*
X75311300Y-49091200D02*
X75311300Y-49786400D01*
X75311300Y-49786400D02*
X76150900Y-50626000D01*
X66514500Y-47899900D02*
X74120000Y-47899900D01*
X62354500Y-48292000D02*
X66122400Y-48292000D01*
X66122400Y-48292000D02*
X66514500Y-47899900D01*
X58484900Y-51107700D02*
X60160300Y-49432300D01*
X74120000Y-47899900D02*
X75311300Y-49091200D01*
G04 #@! TO.N,Net-(BAR3-Pad8)*
X65035400Y-77286600D02*
X64802000Y-77053200D01*
X64802000Y-77053200D02*
X42128200Y-77053200D01*
X42128200Y-77053200D02*
X40005000Y-74930000D01*
X102725300Y-62230000D02*
X107805300Y-57150000D01*
X107805300Y-57150000D02*
X120794700Y-57150000D01*
X121920000Y-57150000D02*
X120794700Y-57150000D01*
X101600000Y-62230000D02*
X102725300Y-62230000D01*
X77194100Y-78380900D02*
X78486000Y-78380900D01*
X70485000Y-85090000D02*
X77194100Y-78380900D01*
X85509900Y-78380900D02*
X78486000Y-78380900D01*
G04 #@! TO.N,Net-(BAR3-Pad7)*
X60888500Y-77778500D02*
X40313500Y-77778500D01*
X40313500Y-77778500D02*
X37465000Y-74930000D01*
X109220000Y-62230000D02*
X110345300Y-62230000D01*
X121945100Y-76507700D02*
X123045300Y-75407500D01*
X87050600Y-76507700D02*
X121945100Y-76507700D01*
X67945000Y-85090000D02*
X68744999Y-84290001D01*
X68744999Y-84290001D02*
X69544699Y-84290001D01*
X77387900Y-76446800D02*
X86989700Y-76446800D01*
X86989700Y-76446800D02*
X87050600Y-76507700D01*
X69544699Y-84290001D02*
X77387900Y-76446800D01*
X123045300Y-60815300D02*
X123045300Y-62611000D01*
X123045300Y-75407500D02*
X123045300Y-62611000D01*
X121920000Y-59690000D02*
X123045300Y-60815300D01*
X123045300Y-62611000D02*
X123045300Y-61659200D01*
X119380000Y-62230000D02*
X121920000Y-59690000D01*
X109220000Y-62230000D02*
X119380000Y-62230000D01*
G04 #@! TO.N,Net-(BAR1-Pad8)*
X61126000Y-45464800D02*
X79876200Y-45464800D01*
X56880900Y-47109500D02*
X57050200Y-47278800D01*
X46757900Y-47608400D02*
X51201400Y-47608400D01*
X59312000Y-47278800D02*
X61126000Y-45464800D01*
X44885700Y-49480600D02*
X46757900Y-47608400D01*
X51201400Y-47608400D02*
X51700300Y-47109500D01*
X57050200Y-47278800D02*
X59312000Y-47278800D01*
X51700300Y-47109500D02*
X56880900Y-47109500D01*
D20*
G04 #@! TO.N,+5V*
X115570000Y-24130000D02*
X116745300Y-24130000D01*
X129540000Y-24130000D02*
X128364700Y-24130000D01*
X128364700Y-24130000D02*
X127189300Y-25305400D01*
X127189300Y-25305400D02*
X117920700Y-25305400D01*
X117920700Y-25305400D02*
X116745300Y-24130000D01*
X135890000Y-24130000D02*
X129540000Y-24130000D01*
X109220000Y-59690000D02*
X106129400Y-59690000D01*
X106129400Y-59690000D02*
X102392100Y-63427300D01*
X102392100Y-63427300D02*
X95226400Y-63427300D01*
X95226400Y-63427300D02*
X91489100Y-59690000D01*
X91489100Y-59690000D02*
X90075300Y-59690000D01*
X135890000Y-24130000D02*
X143510000Y-24130000D01*
X120744700Y-52070000D02*
X120438000Y-52376700D01*
X120438000Y-52376700D02*
X114782900Y-52376700D01*
X121920000Y-52070000D02*
X120744700Y-52070000D01*
X100965000Y-24130000D02*
X99789700Y-24130000D01*
X22225000Y-26670000D02*
X23450300Y-26670000D01*
X23450300Y-26670000D02*
X24675600Y-25444700D01*
X24675600Y-25444700D02*
X98475000Y-25444700D01*
X98475000Y-25444700D02*
X99789700Y-24130000D01*
X87724700Y-59690000D02*
X86549300Y-60865400D01*
X86549300Y-60865400D02*
X70295700Y-60865400D01*
X70295700Y-60865400D02*
X69120300Y-59690000D01*
X88900000Y-59690000D02*
X90075300Y-59690000D01*
X129540000Y-52070000D02*
X121920000Y-52070000D01*
X100965000Y-24130000D02*
X102140300Y-24130000D01*
X115570000Y-24130000D02*
X114394700Y-24130000D01*
X114394700Y-24130000D02*
X113219300Y-25305400D01*
X113219300Y-25305400D02*
X103315700Y-25305400D01*
X103315700Y-25305400D02*
X102140300Y-24130000D01*
X88900000Y-59690000D02*
X87724700Y-59690000D01*
X67945000Y-59690000D02*
X69120300Y-59690000D01*
X51340400Y-101505400D02*
X50165000Y-100330000D01*
X92169600Y-101505400D02*
X51340400Y-101505400D01*
X93345000Y-100330000D02*
X92169600Y-101505400D01*
D21*
G04 #@! TO.N,Net-(BAR1-Pad4)*
X69298400Y-37767900D02*
X71555700Y-35510600D01*
X51518400Y-37767900D02*
X69298400Y-37767900D01*
X47425700Y-41860600D02*
X51518400Y-37767900D01*
G04 #@! TO.N,Net-(BAR3-Pad3)*
X27305000Y-74930000D02*
X32505300Y-80130300D01*
X32505300Y-80130300D02*
X70469600Y-80130300D01*
X70469600Y-80130300D02*
X79624400Y-70975500D01*
X79624400Y-70975500D02*
X102236700Y-70975500D01*
X102236700Y-70975500D02*
X103362200Y-69850000D01*
X103362200Y-69850000D02*
X109220000Y-69850000D01*
X109220000Y-69850000D02*
X121920000Y-69850000D01*
G04 #@! TO.N,Net-(BAR3-Pad4)*
X100474700Y-69850000D02*
X99349400Y-68724700D01*
X99349400Y-68724700D02*
X79088100Y-68724700D01*
X79088100Y-68724700D02*
X69307200Y-78505600D01*
X69307200Y-78505600D02*
X33420600Y-78505600D01*
X33420600Y-78505600D02*
X29845000Y-74930000D01*
X101600000Y-69850000D02*
X100474700Y-69850000D01*
X101600000Y-69850000D02*
X102725300Y-69850000D01*
X121920000Y-67310000D02*
X120794700Y-67310000D01*
X120794700Y-67310000D02*
X119380000Y-68724700D01*
X119380000Y-68724700D02*
X103850600Y-68724700D01*
X103850600Y-68724700D02*
X102725300Y-69850000D01*
G04 #@! TO.N,Net-(BAR1-Pad3)*
X69015700Y-35510600D02*
X67208700Y-37317600D01*
X49428990Y-37317310D02*
X51180710Y-37317310D01*
X51180710Y-37317310D02*
X51181000Y-37317600D01*
X44885700Y-41860600D02*
X49428990Y-37317310D01*
X67208700Y-37317600D02*
X51181000Y-37317600D01*
X87389500Y-34166700D02*
X70359600Y-34166700D01*
X91536500Y-38313700D02*
X87389500Y-34166700D01*
X91536500Y-39153100D02*
X91536500Y-38313700D01*
X135890000Y-39370000D02*
X137015300Y-40495300D01*
X70359600Y-34166700D02*
X69015700Y-35510600D01*
X137015300Y-40495300D02*
X137015300Y-44920400D01*
X137015300Y-44920400D02*
X136304400Y-45631300D01*
X136304400Y-45631300D02*
X98014700Y-45631300D01*
X98014700Y-45631300D02*
X91536500Y-39153100D01*
G04 #@! TO.N,Net-(BAR3-Pad5)*
X101600000Y-67310000D02*
X100474700Y-67310000D01*
X32385000Y-74930000D02*
X33740000Y-73575000D01*
X33740000Y-73575000D02*
X55408200Y-73575000D01*
X55408200Y-73575000D02*
X57891500Y-76058300D01*
X57891500Y-76058300D02*
X69112200Y-76058300D01*
X69112200Y-76058300D02*
X78985800Y-66184700D01*
X78985800Y-66184700D02*
X99349400Y-66184700D01*
X99349400Y-66184700D02*
X100474700Y-67310000D01*
X120794700Y-64770000D02*
X119669400Y-65895300D01*
X119669400Y-65895300D02*
X104140000Y-65895300D01*
X104140000Y-65895300D02*
X102725300Y-67310000D01*
X121920000Y-64770000D02*
X120794700Y-64770000D01*
X101600000Y-67310000D02*
X102725300Y-67310000D01*
G04 #@! TO.N,Net-(BAR2-Pad3)*
X49246400Y-45257100D02*
X39039300Y-45257100D01*
X39039300Y-45257100D02*
X36137200Y-42355000D01*
X36137200Y-42355000D02*
X36137200Y-39179100D01*
X36137200Y-39179100D02*
X39805700Y-35510600D01*
X49696700Y-44806800D02*
X49246400Y-45257100D01*
X60282000Y-44806800D02*
X49696700Y-44806800D01*
X72118400Y-43837900D02*
X61250900Y-43837900D01*
X61250900Y-43837900D02*
X60282000Y-44806800D01*
X74095700Y-41860600D02*
X72118400Y-43837900D01*
G04 #@! TO.N,Net-(BAR1-Pad2)*
X135890000Y-41910000D02*
X128614200Y-41910000D01*
X128614200Y-41910000D02*
X122264200Y-35560000D01*
X122264200Y-35560000D02*
X113510500Y-35560000D01*
X113510500Y-35560000D02*
X110970500Y-33020000D01*
X110970500Y-33020000D02*
X88916900Y-33020000D01*
X88916900Y-33020000D02*
X86063500Y-30166600D01*
X86063500Y-30166600D02*
X85283900Y-30166600D01*
X85283900Y-30166600D02*
X81803600Y-33646900D01*
X81803600Y-33646900D02*
X68339400Y-33646900D01*
X68339400Y-33646900D02*
X66475700Y-35510600D01*
X65119000Y-36867300D02*
X66475700Y-35510600D01*
X42259000Y-36867300D02*
X65119000Y-36867300D01*
X37265700Y-41860600D02*
X42259000Y-36867300D01*
G04 #@! TO.N,Net-(BAR2-Pad2)*
X37265700Y-35510600D02*
X38637300Y-34139000D01*
X38637300Y-34139000D02*
X58142700Y-34139000D01*
X58142700Y-34139000D02*
X59457300Y-35453600D01*
X59457300Y-35453600D02*
X59457300Y-35889500D01*
G04 #@! TO.N,/Cn4_B*
X80154700Y-69850000D02*
X80113000Y-69850000D01*
X80113000Y-69850000D02*
X70558500Y-79404500D01*
X70558500Y-79404500D02*
X37848200Y-79404500D01*
X81280000Y-69850000D02*
X80154700Y-69850000D01*
X93345000Y-26670000D02*
X94470300Y-26670000D01*
X107950000Y-26670000D02*
X106824700Y-26670000D01*
X106824700Y-26670000D02*
X105699400Y-27795300D01*
X105699400Y-27795300D02*
X95595600Y-27795300D01*
X95595600Y-27795300D02*
X94470300Y-26670000D01*
G04 #@! TO.N,/A=B_B*
X24709000Y-29266000D02*
X91330400Y-29266000D01*
X91330400Y-29266000D02*
X91888500Y-29824100D01*
X24765000Y-100330000D02*
X19928000Y-95493000D01*
X19928000Y-95493000D02*
X19928000Y-32357400D01*
X19928000Y-32357400D02*
X21710800Y-30574600D01*
X21710800Y-30574600D02*
X23400400Y-30574600D01*
X23400400Y-30574600D02*
X24709000Y-29266000D01*
G04 #@! TO.N,Net-(BAR1-Pad5)*
X54204100Y-86215400D02*
X55756800Y-84662700D01*
X48750400Y-86215400D02*
X54204100Y-86215400D01*
X47625000Y-85090000D02*
X48750400Y-86215400D01*
X71388100Y-38218200D02*
X74095700Y-35510600D01*
X58688100Y-38218200D02*
X71388100Y-38218200D01*
X55045700Y-41860600D02*
X58688100Y-38218200D01*
X135890000Y-34290000D02*
X137477400Y-35877400D01*
X75892300Y-37307200D02*
X74095700Y-35510600D01*
X137477400Y-35877400D02*
X137477400Y-47002800D01*
X99858400Y-48139300D02*
X89026300Y-37307200D01*
X137477400Y-47002800D02*
X136340900Y-48139300D01*
X89026300Y-37307200D02*
X75892300Y-37307200D01*
X136340900Y-48139300D02*
X99858400Y-48139300D01*
G04 #@! TO.N,Net-(BAR3-Pad2)*
X107200100Y-85984600D02*
X110110600Y-83074100D01*
X93271100Y-102015900D02*
X107200100Y-88086900D01*
X107200100Y-88086900D02*
X107200100Y-85984600D01*
X23910900Y-102015900D02*
X93271100Y-102015900D01*
X22225000Y-100330000D02*
X23910900Y-102015900D01*
G04 #@! TO.N,Net-(BAR2-Pad5)*
X59539600Y-41473900D02*
X61669500Y-39344000D01*
X61669500Y-39344000D02*
X81739100Y-39344000D01*
X81739100Y-39344000D02*
X84255700Y-41860600D01*
G04 #@! TO.N,DATA_BUS7*
X128977400Y-74930000D02*
X129540000Y-74930000D01*
X128977400Y-74930000D02*
X128414700Y-74930000D01*
X77657000Y-77213400D02*
X77867100Y-77003300D01*
X77867100Y-77003300D02*
X126341400Y-77003300D01*
X126341400Y-77003300D02*
X128414700Y-74930000D01*
X42301600Y-44356500D02*
X39805700Y-41860600D01*
X61466000Y-42985900D02*
X60095400Y-44356500D01*
X60095400Y-44356500D02*
X42301600Y-44356500D01*
X67890400Y-42985900D02*
X61466000Y-42985900D01*
X69015700Y-41860600D02*
X67890400Y-42985900D01*
X142240000Y-87630000D02*
X129540000Y-74930000D01*
X143510000Y-87630000D02*
X142240000Y-87630000D01*
X143510000Y-48115300D02*
X143510000Y-46990000D01*
X141573300Y-62896700D02*
X141573300Y-50052000D01*
X141573300Y-50052000D02*
X143510000Y-48115300D01*
X129540000Y-74930000D02*
X141573300Y-62896700D01*
X144145000Y-87630000D02*
X142875000Y-87630000D01*
X142875000Y-87630000D02*
X142240000Y-87630000D01*
G04 #@! TO.N,DATA_BUS6*
X132071300Y-49558500D02*
X132071100Y-49558300D01*
X132071100Y-49558300D02*
X94951000Y-49558300D01*
X94951000Y-49558300D02*
X89387300Y-43994600D01*
X89387300Y-43994600D02*
X77129000Y-43994600D01*
X77129000Y-43994600D02*
X75365700Y-42231300D01*
X75365700Y-42231300D02*
X75365700Y-41489400D01*
X75365700Y-41489400D02*
X74611600Y-40735300D01*
X74611600Y-40735300D02*
X71555700Y-40735300D01*
X71555700Y-41860600D02*
X71555700Y-40735300D01*
X132071300Y-49558500D02*
X137276200Y-49558500D01*
X137276200Y-49558500D02*
X142384700Y-44450000D01*
X143510000Y-44450000D02*
X142384700Y-44450000D01*
X62801700Y-40735300D02*
X71555700Y-40735300D01*
X59647700Y-43889300D02*
X62801700Y-40735300D01*
X44374400Y-43889300D02*
X59647700Y-43889300D01*
X42345700Y-41860600D02*
X44374400Y-43889300D01*
X129540000Y-72390000D02*
X128395800Y-71245800D01*
X132071300Y-63837600D02*
X132071300Y-49558500D01*
X129868900Y-66040000D02*
X132071300Y-63837600D01*
X128395800Y-66827800D02*
X129183600Y-66040000D01*
X128395800Y-71245800D02*
X128395800Y-66827800D01*
X129183600Y-66040000D02*
X129868900Y-66040000D01*
G04 #@! TO.N,DATA_BUS5*
X143510000Y-41910000D02*
X143510000Y-42474200D01*
X49965700Y-41860600D02*
X51544000Y-43438900D01*
X51544000Y-43438900D02*
X59461200Y-43438900D01*
X59461200Y-43438900D02*
X62643800Y-40256300D01*
X75438290Y-40256010D02*
X75438000Y-40256300D01*
X79175700Y-41860600D02*
X77571110Y-40256010D01*
X77571110Y-40256010D02*
X75438290Y-40256010D01*
X62643800Y-40256300D02*
X75438000Y-40256300D01*
X136877700Y-49106500D02*
X143510000Y-42474200D01*
X90535900Y-43544300D02*
X96098100Y-49106500D01*
X80859400Y-43544300D02*
X90535900Y-43544300D01*
X96098100Y-49106500D02*
X136877700Y-49106500D01*
X79175700Y-41860600D02*
X80859400Y-43544300D01*
X129540000Y-69850000D02*
X138599100Y-60790900D01*
X138599100Y-60790900D02*
X138599100Y-50307700D01*
X138599100Y-50307700D02*
X143186800Y-45720000D01*
X143186800Y-45720000D02*
X143898900Y-45720000D01*
X143898900Y-45720000D02*
X144635300Y-44983600D01*
X144635300Y-43035300D02*
X144635300Y-44323000D01*
X143510000Y-41910000D02*
X144635300Y-43035300D01*
X144635300Y-44983600D02*
X144635300Y-44323000D01*
X144635300Y-44323000D02*
X144635300Y-43951500D01*
G04 #@! TO.N,DATA_BUS4*
X79661100Y-39806000D02*
X81715700Y-41860600D01*
X62457200Y-39806000D02*
X79661100Y-39806000D01*
X59274700Y-42988500D02*
X62457200Y-39806000D01*
X53633600Y-42988500D02*
X59274700Y-42988500D01*
X52505700Y-41860600D02*
X53633600Y-42988500D01*
X82841000Y-42985900D02*
X81715700Y-41860600D01*
X143510000Y-39370000D02*
X142384700Y-40495300D01*
X142384700Y-40495300D02*
X142384700Y-42808400D01*
X142384700Y-42808400D02*
X136595400Y-48597700D01*
X91251300Y-42985900D02*
X82841000Y-42985900D01*
X136595400Y-48597700D02*
X96863100Y-48597700D01*
X96863100Y-48597700D02*
X91251300Y-42985900D01*
G04 #@! TO.N,DATA_BUS3*
X145085600Y-38405600D02*
X145085600Y-49246600D01*
X145085600Y-49246600D02*
X142334600Y-51997600D01*
X143510000Y-36830000D02*
X145085600Y-38405600D01*
X82841000Y-50605900D02*
X81715700Y-49480600D01*
X95769400Y-50605900D02*
X82841000Y-50605900D01*
X129540000Y-64770000D02*
X131578300Y-62731700D01*
X131578300Y-62731700D02*
X131578300Y-51170500D01*
X131578300Y-51170500D02*
X130416500Y-50008700D01*
X130416500Y-50008700D02*
X96366600Y-50008700D01*
X96366600Y-50008700D02*
X95769400Y-50605900D01*
X142334600Y-75659600D02*
X142334600Y-75565000D01*
X144145000Y-77470000D02*
X142334600Y-75659600D01*
X142334600Y-51997600D02*
X142334600Y-75565000D01*
X80915701Y-48680601D02*
X81715700Y-49480600D01*
X80071701Y-48680601D02*
X80915701Y-48680601D01*
X77852600Y-46461500D02*
X80071701Y-48680601D01*
X66042200Y-46461500D02*
X77852600Y-46461500D01*
X60571100Y-46941100D02*
X65562600Y-46941100D01*
X65562600Y-46941100D02*
X66042200Y-46461500D01*
X56671100Y-47744100D02*
X59768100Y-47744100D01*
X59768100Y-47744100D02*
X60571100Y-46941100D01*
X54151500Y-47834800D02*
X52505700Y-49480600D01*
X56134000Y-47834800D02*
X54151500Y-47834800D01*
X56134000Y-47834800D02*
X56671100Y-47744100D01*
G04 #@! TO.N,DATA_BUS2*
X78314200Y-58512300D02*
X92430100Y-58512300D01*
X92430100Y-58512300D02*
X94733200Y-60815400D01*
X94733200Y-60815400D02*
X103095200Y-60815400D01*
X103095200Y-60815400D02*
X107900000Y-56010600D01*
X107900000Y-56010600D02*
X122432400Y-56010600D01*
X122432400Y-56010600D02*
X128414700Y-61992900D01*
X128414700Y-61992900D02*
X128414700Y-62230000D01*
X129540000Y-62230000D02*
X128414700Y-62230000D01*
X67528500Y-58512300D02*
X78314200Y-58512300D01*
X66819700Y-59221100D02*
X67528500Y-58512300D01*
X66819700Y-61104700D02*
X66819700Y-59221100D01*
X67945000Y-62230000D02*
X66819700Y-61104700D01*
X58124900Y-50657400D02*
X51142500Y-50657400D01*
X59800300Y-48982000D02*
X58124900Y-50657400D01*
X60440900Y-48982000D02*
X59800300Y-48982000D01*
X61581200Y-47841700D02*
X60440900Y-48982000D01*
X79175700Y-49480600D02*
X77863800Y-48168700D01*
X51142500Y-50657400D02*
X49965700Y-49480600D01*
X77863800Y-48168700D02*
X75125000Y-48168700D01*
X75125000Y-48168700D02*
X74405900Y-47449600D01*
X74405900Y-47449600D02*
X66327900Y-47449600D01*
X65935800Y-47841700D02*
X61581200Y-47841700D01*
X66327900Y-47449600D02*
X65935800Y-47841700D01*
G04 #@! TO.N,DATA_BUS1*
X59051000Y-51619200D02*
X59435400Y-51234800D01*
X44484300Y-51619200D02*
X59051000Y-51619200D01*
X42345700Y-49480600D02*
X44484300Y-51619200D01*
X66363200Y-51234800D02*
X59435400Y-51234800D01*
X71555700Y-49480600D02*
X70429900Y-48354800D01*
X70429900Y-48354800D02*
X68521100Y-48354800D01*
X68521100Y-48354800D02*
X67745700Y-49130200D01*
X67745700Y-49852300D02*
X66363200Y-51234800D01*
X67745700Y-49130200D02*
X67745700Y-49852300D01*
X143510000Y-31750000D02*
X145569100Y-33809100D01*
X129540000Y-59690000D02*
X131125400Y-58104600D01*
X112955900Y-50488600D02*
X112049100Y-51395400D01*
X131125400Y-58104600D02*
X131125400Y-51386300D01*
X73470500Y-51395400D02*
X71555700Y-49480600D01*
X112049100Y-51395400D02*
X73470500Y-51395400D01*
X131125400Y-51386300D02*
X130227700Y-50488600D01*
X130227700Y-50488600D02*
X112955900Y-50488600D01*
X144145000Y-72390000D02*
X145569100Y-70965900D01*
X145569100Y-33809100D02*
X145569100Y-69850000D01*
X145569100Y-70965900D02*
X145569100Y-69850000D01*
X145569100Y-69850000D02*
X145569100Y-70330900D01*
G04 #@! TO.N,DATA_BUS0*
X60325000Y-59690000D02*
X60325000Y-58564700D01*
X59199700Y-59690000D02*
X60325000Y-59690000D01*
X50015100Y-59690000D02*
X59199700Y-59690000D01*
X39805700Y-49480600D02*
X50015100Y-59690000D01*
X60325000Y-58171300D02*
X60325000Y-59690000D01*
X69015700Y-49480600D02*
X60325000Y-58171300D01*
X69815699Y-50288099D02*
X69815699Y-50280599D01*
X71374000Y-51846400D02*
X69815699Y-50288099D01*
X69815699Y-50280599D02*
X69015700Y-49480600D01*
X112553200Y-51846400D02*
X71374000Y-51846400D01*
X129540000Y-57150000D02*
X130675000Y-56015000D01*
X130675000Y-56015000D02*
X130675000Y-51572800D01*
X130675000Y-51572800D02*
X130046800Y-50944600D01*
X130046800Y-50944600D02*
X113455000Y-50944600D01*
X113455000Y-50944600D02*
X112553200Y-51846400D01*
G04 #@! TO.N,~ALU_OUT*
X129540000Y-54610000D02*
X128414700Y-54610000D01*
X22225000Y-36830000D02*
X24135200Y-36830000D01*
X24135200Y-36830000D02*
X35851100Y-48545900D01*
X35851100Y-48545900D02*
X35851100Y-49704700D01*
X35851100Y-49704700D02*
X46961800Y-60815400D01*
X46961800Y-60815400D02*
X61362500Y-60815400D01*
X61362500Y-60815400D02*
X69072100Y-53105800D01*
X69072100Y-53105800D02*
X118466100Y-53105800D01*
X118466100Y-53105800D02*
X118481100Y-53090800D01*
X118481100Y-53090800D02*
X119535500Y-53090800D01*
X119535500Y-53090800D02*
X119929400Y-53484700D01*
X119929400Y-53484700D02*
X127289400Y-53484700D01*
X127289400Y-53484700D02*
X128414700Y-54610000D01*
G04 #@! TO.N,~SHR*
X129540000Y-26670000D02*
X130665300Y-26670000D01*
X143510000Y-26670000D02*
X142384700Y-26670000D01*
X142384700Y-26670000D02*
X141259400Y-25544700D01*
X141259400Y-25544700D02*
X131790600Y-25544700D01*
X131790600Y-25544700D02*
X130665300Y-26670000D01*
G04 #@! TO.N,CLOCK*
X34739900Y-43602700D02*
X37124200Y-45987000D01*
X37124200Y-45987000D02*
X50687100Y-45987000D01*
X50687100Y-45987000D02*
X51138000Y-45536100D01*
X51138000Y-45536100D02*
X57631200Y-45536100D01*
X60552700Y-38893600D02*
X57585700Y-41860600D01*
X83828700Y-38893600D02*
X60552700Y-38893600D01*
X86795700Y-41860600D02*
X83828700Y-38893600D01*
G04 #@! TO.N,~AY_LOAD*
X23400300Y-34290000D02*
X35597700Y-46487400D01*
X35597700Y-46487400D02*
X51048500Y-46487400D01*
X51048500Y-46487400D02*
X51327000Y-46208900D01*
X51327000Y-46208900D02*
X57254100Y-46208900D01*
X57254100Y-46208900D02*
X57307300Y-46262100D01*
X57307300Y-46262100D02*
X58666000Y-46262100D01*
X58666000Y-46262100D02*
X58824900Y-46103200D01*
X22225000Y-34290000D02*
X23400300Y-34290000D01*
G04 #@! TO.N,Net-(U11-Pad9)*
X88900000Y-64770000D02*
X87774700Y-64770000D01*
X67945000Y-72390000D02*
X69070300Y-72390000D01*
X69070300Y-72390000D02*
X77815600Y-63644700D01*
X77815600Y-63644700D02*
X86649400Y-63644700D01*
X86649400Y-63644700D02*
X87774700Y-64770000D01*
G04 #@! TO.N,Net-(U10-Pad6)*
X90025300Y-62230000D02*
X90163400Y-62091900D01*
X90163400Y-62091900D02*
X92794500Y-62091900D01*
X88900000Y-62230000D02*
X90025300Y-62230000D01*
G04 #@! TO.N,Net-(U10-Pad5)*
X61450300Y-62643600D02*
X70115700Y-53978200D01*
X61450300Y-71264700D02*
X61450300Y-62643600D01*
X70115700Y-53978200D02*
X103542700Y-53978200D01*
X60325000Y-72390000D02*
X61450300Y-71264700D01*
G04 #@! TO.N,Net-(U10-Pad11)*
X116695300Y-29210000D02*
X117820600Y-30335300D01*
X117820600Y-30335300D02*
X127000000Y-30335300D01*
X127000000Y-30335300D02*
X128414700Y-31750000D01*
X115570000Y-29210000D02*
X116695300Y-29210000D01*
X129540000Y-31750000D02*
X128414700Y-31750000D01*
G04 #@! TO.N,Net-(U10-Pad4)*
X67636300Y-57753700D02*
X95596900Y-57753700D01*
X66355000Y-59035000D02*
X67636300Y-57753700D01*
X66355000Y-63180000D02*
X66355000Y-59035000D01*
X67945000Y-64770000D02*
X66355000Y-63180000D01*
G04 #@! TO.N,SHR*
X22225000Y-54610000D02*
X20974100Y-53359100D01*
X20974100Y-53359100D02*
X20974100Y-33858200D01*
X20974100Y-33858200D02*
X21756000Y-33076300D01*
X21756000Y-33076300D02*
X70132500Y-33076300D01*
X70132500Y-33076300D02*
X73492500Y-29716300D01*
X73492500Y-29716300D02*
X90755000Y-29716300D01*
X90755000Y-29716300D02*
X91588100Y-30549400D01*
X91588100Y-30549400D02*
X98500300Y-30549400D01*
X98500300Y-30549400D02*
X99839700Y-29210000D01*
X100965000Y-29210000D02*
X99839700Y-29210000D01*
X129540000Y-34290000D02*
X128414700Y-34290000D01*
X100965000Y-29210000D02*
X105414700Y-29210000D01*
X105414700Y-29210000D02*
X106540100Y-28084600D01*
X106540100Y-28084600D02*
X109859700Y-28084600D01*
X109859700Y-28084600D02*
X114939800Y-33164700D01*
X114939800Y-33164700D02*
X127289400Y-33164700D01*
X127289400Y-33164700D02*
X128414700Y-34290000D01*
G04 #@! TO.N,Net-(U10-Pad9)*
X67945000Y-74930000D02*
X65890200Y-72875200D01*
X65890200Y-58862900D02*
X67757100Y-56996000D01*
X65890200Y-72875200D02*
X65890200Y-58862900D01*
X106640700Y-53816100D02*
X118828500Y-53816100D01*
X103460800Y-56996000D02*
X106640700Y-53816100D01*
X67757100Y-56996000D02*
X103460800Y-56996000D01*
G04 #@! TO.N,SHRz*
X116695300Y-26670000D02*
X115570000Y-26670000D01*
X117820600Y-27795300D02*
X116695300Y-26670000D01*
X125585300Y-27795300D02*
X117820600Y-27795300D01*
X129540000Y-39370000D02*
X130684000Y-38226000D01*
X130684000Y-31250300D02*
X130058300Y-30624600D01*
X130684000Y-38226000D02*
X130684000Y-31250300D01*
X130058300Y-30624600D02*
X128414600Y-30624600D01*
X128414600Y-30624600D02*
X125585300Y-27795300D01*
G04 #@! TO.N,Net-(U3-Pad8)*
X88900000Y-74930000D02*
X90025300Y-74930000D01*
X109220000Y-72390000D02*
X108094700Y-72390000D01*
X108094700Y-72390000D02*
X104429400Y-76055300D01*
X104429400Y-76055300D02*
X91150600Y-76055300D01*
X91150600Y-76055300D02*
X90025300Y-74930000D01*
G04 #@! TO.N,Fgt*
X107950000Y-36830000D02*
X109075300Y-36830000D01*
X126588900Y-41424900D02*
X123119300Y-37955300D01*
X123119300Y-37955300D02*
X110200600Y-37955300D01*
X110200600Y-37955300D02*
X109075300Y-36830000D01*
G04 #@! TO.N,Net-(U3-Pad4)*
X107950000Y-34290000D02*
X100965000Y-34290000D01*
G04 #@! TO.N,Fz*
X113464000Y-87471000D02*
X114721300Y-86213700D01*
X114721300Y-86213700D02*
X135838400Y-86213700D01*
X135838400Y-86213700D02*
X142334700Y-92710000D01*
X144145000Y-92710000D02*
X142875000Y-92710000D01*
X143510000Y-92710000D02*
X142875000Y-92710000D01*
X142875000Y-92710000D02*
X142334700Y-92710000D01*
G04 #@! TO.N,Net-(U7-Pad11)*
X102090300Y-31750000D02*
X103215600Y-30624700D01*
X103215600Y-30624700D02*
X110779400Y-30624700D01*
X110779400Y-30624700D02*
X114444700Y-34290000D01*
X100965000Y-31750000D02*
X102090300Y-31750000D01*
X115570000Y-34290000D02*
X114444700Y-34290000D01*
G04 #@! TO.N,Flt*
X118329000Y-87471000D02*
X122109200Y-91251200D01*
X122109200Y-91251200D02*
X138335900Y-91251200D01*
X138335900Y-91251200D02*
X142334700Y-95250000D01*
X122750900Y-44137300D02*
X113114100Y-44137300D01*
X113114100Y-44137300D02*
X109173900Y-40197100D01*
X144145000Y-95250000D02*
X142875000Y-95250000D01*
X143510000Y-95250000D02*
X142875000Y-95250000D01*
X142875000Y-95250000D02*
X142334700Y-95250000D01*
G04 #@! TO.N,Fc*
X142334700Y-90170000D02*
X137928000Y-85763300D01*
X137928000Y-85763300D02*
X110196700Y-85763300D01*
X110196700Y-85763300D02*
X108489000Y-87471000D01*
X144145000Y-90170000D02*
X142875000Y-90170000D01*
X143510000Y-90170000D02*
X142875000Y-90170000D01*
X142875000Y-90170000D02*
X142334700Y-90170000D01*
G04 #@! TO.N,Feq*
X123788000Y-44901300D02*
X102541600Y-44901300D01*
X102541600Y-44901300D02*
X94470300Y-36830000D01*
X93345000Y-36830000D02*
X94470300Y-36830000D01*
G04 #@! TD*
M02*
