M48
;DRILL file {KiCad 5.0.2+dfsg1-1} date do 01 aug 2019 09:59:37 CEST
;FORMAT={-:-/ absolute / inch / decimal}
FMAT,2
INCH,TZ
T1C0.0157
T2C0.0315
T3C0.0354
T4C0.0360
T5C0.0394
%
G90
G05
T1
X1.3677Y-1.7166
X1.4901Y-3.1262
X1.8268Y-3.2802
X1.9388Y-1.7818
X2.1951Y-3.3332
X2.2276Y-1.8833
X2.2689Y-1.7928
X2.3159Y-1.8151
X2.34Y-2.0171
X2.3408Y-1.413
X2.3441Y-1.6328
X2.3972Y-3.0621
X2.44Y-3.6118
X2.5604Y-3.0428
X2.5694Y-1.8195
X2.6229Y-3.0306
X2.7287Y-3.2521
X2.9186Y-2.349
X2.9965Y-1.858
X3.0574Y-3.0399
X3.0574Y-3.1624
X3.0616Y-1.9931
X3.0832Y-2.3036
X3.1447Y-1.79
X3.146Y-2.8256
X3.2694Y-1.7613
X3.3665Y-3.0859
X3.3695Y-1.2162
X3.4361Y-3.0606
X3.6177Y-1.1742
X3.6533Y-2.4446
X3.7637Y-2.2738
X4.0765Y-2.1251
X4.2982Y-1.5826
X4.3351Y-3.2706
X4.519Y-2.0621
X4.6783Y-2.1187
X4.8327Y-1.7377
X4.8735Y-1.7678
X4.9838Y-1.6309
T2
X3.675Y-0.95
X3.675Y-1.05
X3.675Y-1.15
X3.675Y-1.25
X3.675Y-1.35
X3.675Y-1.45
X3.675Y-1.55
X3.975Y-0.95
X3.975Y-1.05
X3.975Y-1.15
X3.975Y-1.25
X3.975Y-1.35
X3.975Y-1.45
X3.975Y-1.55
X3.2Y-2.35
X3.2Y-2.45
X3.2Y-2.55
X3.2Y-2.65
X3.2Y-2.75
X3.2Y-2.85
X3.2Y-2.95
X3.5Y-2.35
X3.5Y-2.45
X3.5Y-2.55
X3.5Y-2.65
X3.5Y-2.75
X3.5Y-2.85
X3.5Y-2.95
X0.975Y-2.5
X1.075Y-2.5
X1.175Y-2.5
X1.275Y-2.5
X1.375Y-2.5
X1.475Y-2.5
X1.575Y-2.5
X1.675Y-2.5
X1.775Y-2.5
X2.5172Y-1.6481
X2.5172Y-1.9481
X2.6172Y-1.6481
X2.6172Y-1.9481
X2.7172Y-1.6481
X2.7172Y-1.9481
X2.8172Y-1.6481
X2.8172Y-1.9481
X2.9172Y-1.6481
X2.9172Y-1.9481
X3.0172Y-1.6481
X3.0172Y-1.9481
X3.1172Y-1.6481
X3.1172Y-1.9481
X3.2172Y-1.6481
X3.2172Y-1.9481
X3.3172Y-1.6481
X3.3172Y-1.9481
X3.4172Y-1.6481
X3.4172Y-1.9481
X2.575Y-3.35
X2.575Y-3.95
X2.675Y-3.35
X2.675Y-3.95
X2.775Y-3.35
X2.775Y-3.95
X2.875Y-3.35
X2.875Y-3.95
X2.975Y-3.35
X2.975Y-3.95
X3.075Y-3.35
X3.075Y-3.95
X3.175Y-3.35
X3.175Y-3.95
X3.275Y-3.35
X3.275Y-3.95
X3.375Y-3.35
X3.375Y-3.95
X3.475Y-3.35
X3.475Y-3.95
X3.575Y-3.35
X3.575Y-3.95
X3.675Y-3.35
X3.675Y-3.95
X0.875Y-3.35
X0.875Y-3.95
X0.975Y-3.35
X0.975Y-3.95
X1.075Y-3.35
X1.075Y-3.95
X1.175Y-3.35
X1.175Y-3.95
X1.275Y-3.35
X1.275Y-3.95
X1.375Y-3.35
X1.375Y-3.95
X1.475Y-3.35
X1.475Y-3.95
X1.575Y-3.35
X1.575Y-3.95
X1.675Y-3.35
X1.675Y-3.95
X1.775Y-3.35
X1.775Y-3.95
X1.875Y-3.35
X1.875Y-3.95
X1.975Y-3.35
X1.975Y-3.95
X4.8Y-0.95
X4.8Y-1.05
X4.8Y-1.15
X4.8Y-1.25
X4.8Y-1.35
X4.8Y-1.45
X4.8Y-1.55
X5.1Y-0.95
X5.1Y-1.05
X5.1Y-1.15
X5.1Y-1.25
X5.1Y-1.35
X5.1Y-1.45
X5.1Y-1.55
X4.6586Y-3.65
X4.6586Y-3.95
X1.4672Y-0.9481
X1.5672Y-0.9481
X1.6672Y-0.9481
X1.7672Y-0.9481
X1.8672Y-0.9481
X1.9672Y-0.9481
X2.0672Y-0.9481
X2.1672Y-0.9481
X2.2672Y-0.9481
X4.25Y-0.95
X4.25Y-1.05
X4.25Y-1.15
X4.25Y-1.25
X4.25Y-1.35
X4.25Y-1.45
X4.25Y-1.55
X4.55Y-0.95
X4.55Y-1.05
X4.55Y-1.15
X4.55Y-1.25
X4.55Y-1.35
X4.55Y-1.45
X4.55Y-1.55
X4.2712Y-3.65
X4.2712Y-3.95
X4.8545Y-3.65
X4.8545Y-3.95
X2.375Y-2.35
X2.375Y-2.45
X2.375Y-2.55
X2.375Y-2.65
X2.375Y-2.75
X2.375Y-2.85
X2.375Y-2.95
X2.675Y-2.35
X2.675Y-2.45
X2.675Y-2.55
X2.675Y-2.65
X2.675Y-2.75
X2.675Y-2.85
X2.675Y-2.95
X4.4671Y-3.65
X4.4671Y-3.95
X1.3672Y-1.6481
X1.3672Y-1.9481
X1.4672Y-1.6481
X1.4672Y-1.9481
X1.5672Y-1.6481
X1.5672Y-1.9481
X1.6672Y-1.6481
X1.6672Y-1.9481
X1.7672Y-1.6481
X1.7672Y-1.9481
X1.8672Y-1.6481
X1.8672Y-1.9481
X1.9672Y-1.6481
X1.9672Y-1.9481
X2.0672Y-1.6481
X2.0672Y-1.9481
X2.1672Y-1.6481
X2.1672Y-1.9481
X2.2672Y-1.6481
X2.2672Y-1.9481
X5.0504Y-3.65
X5.0504Y-3.95
X4.8Y-2.05
X4.8Y-2.15
X4.8Y-2.25
X4.8Y-2.35
X4.8Y-2.45
X4.8Y-2.55
X4.8Y-2.65
X4.8Y-2.75
X4.8Y-2.85
X4.8Y-2.95
X5.1Y-2.05
X5.1Y-2.15
X5.1Y-2.25
X5.1Y-2.35
X5.1Y-2.45
X5.1Y-2.55
X5.1Y-2.65
X5.1Y-2.75
X5.1Y-2.85
X5.1Y-2.95
X4.Y-2.35
X4.Y-2.45
X4.Y-2.55
X4.Y-2.65
X4.Y-2.75
X4.Y-2.85
X4.Y-2.95
X4.3Y-2.35
X4.3Y-2.45
X4.3Y-2.55
X4.3Y-2.65
X4.3Y-2.75
X4.3Y-2.85
X4.3Y-2.95
X5.35Y-0.95
X5.35Y-1.05
X5.35Y-1.15
X5.35Y-1.25
X5.35Y-1.35
X5.35Y-1.45
X5.35Y-1.55
X5.35Y-1.65
X5.35Y-1.75
X5.35Y-1.85
X5.65Y-0.95
X5.65Y-1.05
X5.65Y-1.15
X5.65Y-1.25
X5.65Y-1.35
X5.65Y-1.45
X5.65Y-1.55
X5.65Y-1.65
X5.65Y-1.75
X5.65Y-1.85
X2.6172Y-0.9481
X2.7172Y-0.9481
X2.8172Y-0.9481
X2.9172Y-0.9481
X3.0172Y-0.9481
X3.1172Y-0.9481
X3.2172Y-0.9481
X3.3172Y-0.9481
X3.4172Y-0.9481
T3
X4.4671Y-3.4437
X4.4671Y-3.5437
X4.6586Y-3.4437
X4.6586Y-3.5437
X5.0504Y-3.4437
X5.0504Y-3.5437
X4.8545Y-3.4437
X4.8545Y-3.5437
X4.2712Y-3.4437
X4.2712Y-3.5437
T4
X1.3672Y-1.0981
X1.3672Y-1.3981
X1.4672Y-1.0981
X1.4672Y-1.3981
X1.5672Y-1.0981
X1.5672Y-1.3981
X1.6672Y-1.0981
X1.6672Y-1.3981
X1.7672Y-1.0981
X1.7672Y-1.3981
X1.8672Y-1.0981
X1.8672Y-1.3981
X1.9672Y-1.0981
X1.9672Y-1.3981
X2.0672Y-1.0981
X2.0672Y-1.3981
X2.1672Y-1.0981
X2.1672Y-1.3981
X2.2672Y-1.0981
X2.2672Y-1.3981
X2.5172Y-1.0981
X2.5172Y-1.3981
X2.6172Y-1.0981
X2.6172Y-1.3981
X2.7172Y-1.0981
X2.7172Y-1.3981
X2.8172Y-1.0981
X2.8172Y-1.3981
X2.9172Y-1.0981
X2.9172Y-1.3981
X3.0172Y-1.0981
X3.0172Y-1.3981
X3.1172Y-1.0981
X3.1172Y-1.3981
X3.2172Y-1.0981
X3.2172Y-1.3981
X3.3172Y-1.0981
X3.3172Y-1.3981
X3.4172Y-1.0981
X3.4172Y-1.3981
X0.875Y-2.65
X0.875Y-2.95
X0.975Y-2.65
X0.975Y-2.95
X1.075Y-2.65
X1.075Y-2.95
X1.175Y-2.65
X1.175Y-2.95
X1.275Y-2.65
X1.275Y-2.95
X1.375Y-2.65
X1.375Y-2.95
X1.475Y-2.65
X1.475Y-2.95
X1.575Y-2.65
X1.575Y-2.95
X1.675Y-2.65
X1.675Y-2.95
X1.775Y-2.65
X1.775Y-2.95
T5
X0.875Y-0.95
X0.875Y-1.05
X0.875Y-1.15
X0.875Y-1.25
X0.875Y-1.35
X0.875Y-1.45
X0.875Y-1.55
X0.875Y-1.65
X0.875Y-1.75
X0.875Y-1.85
X0.875Y-1.95
X0.875Y-2.05
X0.875Y-2.15
X5.65Y-2.75
X5.65Y-2.85
X5.65Y-2.95
X5.65Y-3.05
X5.65Y-3.15
X5.65Y-3.25
X5.65Y-3.35
X5.65Y-3.45
X5.65Y-3.55
X5.65Y-3.65
X5.65Y-3.75
X5.65Y-3.85
X5.65Y-3.95
T0
M30
