G04 #@! TF.GenerationSoftware,KiCad,Pcbnew,5.0.2+dfsg1-1*
G04 #@! TF.CreationDate,2019-07-29T21:32:42+02:00*
G04 #@! TF.ProjectId,Stack-Pointer,53746163-6b2d-4506-9f69-6e7465722e6b,rev?*
G04 #@! TF.SameCoordinates,Original*
G04 #@! TF.FileFunction,Soldermask,Bot*
G04 #@! TF.FilePolarity,Negative*
%FSLAX46Y46*%
G04 Gerber Fmt 4.6, Leading zero omitted, Abs format (unit mm)*
G04 Created by KiCad (PCBNEW 5.0.2+dfsg1-1) date ma 29 jul 2019 21:32:42 CEST*
%MOMM*%
%LPD*%
G01*
G04 APERTURE LIST*
%ADD10C,0.100000*%
G04 APERTURE END LIST*
D10*
G36*
X97900443Y-65780519D02*
X97966627Y-65787037D01*
X98079853Y-65821384D01*
X98136467Y-65838557D01*
X98223311Y-65884977D01*
X98292991Y-65922222D01*
X98328729Y-65951552D01*
X98430186Y-66034814D01*
X98513448Y-66136271D01*
X98542778Y-66172009D01*
X98542779Y-66172011D01*
X98626443Y-66328533D01*
X98643616Y-66385147D01*
X98677963Y-66498373D01*
X98695359Y-66675000D01*
X98677963Y-66851627D01*
X98643616Y-66964853D01*
X98626443Y-67021467D01*
X98557698Y-67150078D01*
X98542778Y-67177991D01*
X98513448Y-67213729D01*
X98430186Y-67315186D01*
X98328729Y-67398448D01*
X98292991Y-67427778D01*
X98292989Y-67427779D01*
X98136467Y-67511443D01*
X98129069Y-67513687D01*
X97966627Y-67562963D01*
X97900443Y-67569481D01*
X97834260Y-67576000D01*
X97745740Y-67576000D01*
X97679557Y-67569481D01*
X97613373Y-67562963D01*
X97450931Y-67513687D01*
X97443533Y-67511443D01*
X97287011Y-67427779D01*
X97287009Y-67427778D01*
X97251271Y-67398448D01*
X97149814Y-67315186D01*
X97066552Y-67213729D01*
X97037222Y-67177991D01*
X97022302Y-67150078D01*
X96953557Y-67021467D01*
X96936384Y-66964853D01*
X96902037Y-66851627D01*
X96884641Y-66675000D01*
X96902037Y-66498373D01*
X96936384Y-66385147D01*
X96953557Y-66328533D01*
X97037221Y-66172011D01*
X97037222Y-66172009D01*
X97066552Y-66136271D01*
X97149814Y-66034814D01*
X97251271Y-65951552D01*
X97287009Y-65922222D01*
X97356689Y-65884977D01*
X97443533Y-65838557D01*
X97500147Y-65821384D01*
X97613373Y-65787037D01*
X97679557Y-65780519D01*
X97745740Y-65774000D01*
X97834260Y-65774000D01*
X97900443Y-65780519D01*
X97900443Y-65780519D01*
G37*
G36*
X54720443Y-65780519D02*
X54786627Y-65787037D01*
X54899853Y-65821384D01*
X54956467Y-65838557D01*
X55043311Y-65884977D01*
X55112991Y-65922222D01*
X55148729Y-65951552D01*
X55250186Y-66034814D01*
X55333448Y-66136271D01*
X55362778Y-66172009D01*
X55362779Y-66172011D01*
X55446443Y-66328533D01*
X55463616Y-66385147D01*
X55497963Y-66498373D01*
X55515359Y-66675000D01*
X55497963Y-66851627D01*
X55463616Y-66964853D01*
X55446443Y-67021467D01*
X55377698Y-67150078D01*
X55362778Y-67177991D01*
X55333448Y-67213729D01*
X55250186Y-67315186D01*
X55148729Y-67398448D01*
X55112991Y-67427778D01*
X55112989Y-67427779D01*
X54956467Y-67511443D01*
X54949069Y-67513687D01*
X54786627Y-67562963D01*
X54720443Y-67569481D01*
X54654260Y-67576000D01*
X54565740Y-67576000D01*
X54499557Y-67569481D01*
X54433373Y-67562963D01*
X54270931Y-67513687D01*
X54263533Y-67511443D01*
X54107011Y-67427779D01*
X54107009Y-67427778D01*
X54071271Y-67398448D01*
X53969814Y-67315186D01*
X53886552Y-67213729D01*
X53857222Y-67177991D01*
X53842302Y-67150078D01*
X53773557Y-67021467D01*
X53756384Y-66964853D01*
X53722037Y-66851627D01*
X53704641Y-66675000D01*
X53722037Y-66498373D01*
X53756384Y-66385147D01*
X53773557Y-66328533D01*
X53857221Y-66172011D01*
X53857222Y-66172009D01*
X53886552Y-66136271D01*
X53969814Y-66034814D01*
X54071271Y-65951552D01*
X54107009Y-65922222D01*
X54176689Y-65884977D01*
X54263533Y-65838557D01*
X54320147Y-65821384D01*
X54433373Y-65787037D01*
X54499557Y-65780519D01*
X54565740Y-65774000D01*
X54654260Y-65774000D01*
X54720443Y-65780519D01*
X54720443Y-65780519D01*
G37*
G36*
X74461821Y-65836313D02*
X74461824Y-65836314D01*
X74461825Y-65836314D01*
X74622239Y-65884975D01*
X74622241Y-65884976D01*
X74622244Y-65884977D01*
X74770078Y-65963995D01*
X74899659Y-66070341D01*
X75006005Y-66199922D01*
X75085023Y-66347756D01*
X75085024Y-66347759D01*
X75085025Y-66347761D01*
X75130713Y-66498375D01*
X75133687Y-66508179D01*
X75150117Y-66675000D01*
X75133687Y-66841821D01*
X75133686Y-66841824D01*
X75133686Y-66841825D01*
X75130713Y-66851627D01*
X75085023Y-67002244D01*
X75006005Y-67150078D01*
X74899659Y-67279659D01*
X74770078Y-67386005D01*
X74622244Y-67465023D01*
X74622241Y-67465024D01*
X74622239Y-67465025D01*
X74461825Y-67513686D01*
X74461824Y-67513686D01*
X74461821Y-67513687D01*
X74336804Y-67526000D01*
X74253196Y-67526000D01*
X74128179Y-67513687D01*
X74128176Y-67513686D01*
X74128175Y-67513686D01*
X73967761Y-67465025D01*
X73967759Y-67465024D01*
X73967756Y-67465023D01*
X73819922Y-67386005D01*
X73690341Y-67279659D01*
X73583995Y-67150078D01*
X73504977Y-67002244D01*
X73459288Y-66851627D01*
X73456314Y-66841825D01*
X73456314Y-66841824D01*
X73456313Y-66841821D01*
X73439883Y-66675000D01*
X73456313Y-66508179D01*
X73459287Y-66498375D01*
X73504975Y-66347761D01*
X73504976Y-66347759D01*
X73504977Y-66347756D01*
X73583995Y-66199922D01*
X73690341Y-66070341D01*
X73819922Y-65963995D01*
X73967756Y-65884977D01*
X73967759Y-65884976D01*
X73967761Y-65884975D01*
X74128175Y-65836314D01*
X74128176Y-65836314D01*
X74128179Y-65836313D01*
X74253196Y-65824000D01*
X74336804Y-65824000D01*
X74461821Y-65836313D01*
X74461821Y-65836313D01*
G37*
G36*
X66841821Y-65836313D02*
X66841824Y-65836314D01*
X66841825Y-65836314D01*
X67002239Y-65884975D01*
X67002241Y-65884976D01*
X67002244Y-65884977D01*
X67150078Y-65963995D01*
X67279659Y-66070341D01*
X67386005Y-66199922D01*
X67465023Y-66347756D01*
X67465024Y-66347759D01*
X67465025Y-66347761D01*
X67510713Y-66498375D01*
X67513687Y-66508179D01*
X67530117Y-66675000D01*
X67513687Y-66841821D01*
X67513686Y-66841824D01*
X67513686Y-66841825D01*
X67510713Y-66851627D01*
X67465023Y-67002244D01*
X67386005Y-67150078D01*
X67279659Y-67279659D01*
X67150078Y-67386005D01*
X67002244Y-67465023D01*
X67002241Y-67465024D01*
X67002239Y-67465025D01*
X66841825Y-67513686D01*
X66841824Y-67513686D01*
X66841821Y-67513687D01*
X66716804Y-67526000D01*
X66633196Y-67526000D01*
X66508179Y-67513687D01*
X66508176Y-67513686D01*
X66508175Y-67513686D01*
X66347761Y-67465025D01*
X66347759Y-67465024D01*
X66347756Y-67465023D01*
X66199922Y-67386005D01*
X66070341Y-67279659D01*
X65963995Y-67150078D01*
X65884977Y-67002244D01*
X65839288Y-66851627D01*
X65836314Y-66841825D01*
X65836314Y-66841824D01*
X65836313Y-66841821D01*
X65819883Y-66675000D01*
X65836313Y-66508179D01*
X65839287Y-66498375D01*
X65884975Y-66347761D01*
X65884976Y-66347759D01*
X65884977Y-66347756D01*
X65963995Y-66199922D01*
X66070341Y-66070341D01*
X66199922Y-65963995D01*
X66347756Y-65884977D01*
X66347759Y-65884976D01*
X66347761Y-65884975D01*
X66508175Y-65836314D01*
X66508176Y-65836314D01*
X66508179Y-65836313D01*
X66633196Y-65824000D01*
X66716804Y-65824000D01*
X66841821Y-65836313D01*
X66841821Y-65836313D01*
G37*
G36*
X90336821Y-65836313D02*
X90336824Y-65836314D01*
X90336825Y-65836314D01*
X90497239Y-65884975D01*
X90497241Y-65884976D01*
X90497244Y-65884977D01*
X90645078Y-65963995D01*
X90774659Y-66070341D01*
X90881005Y-66199922D01*
X90960023Y-66347756D01*
X90960024Y-66347759D01*
X90960025Y-66347761D01*
X91005713Y-66498375D01*
X91008687Y-66508179D01*
X91025117Y-66675000D01*
X91008687Y-66841821D01*
X91008686Y-66841824D01*
X91008686Y-66841825D01*
X91005713Y-66851627D01*
X90960023Y-67002244D01*
X90881005Y-67150078D01*
X90774659Y-67279659D01*
X90645078Y-67386005D01*
X90497244Y-67465023D01*
X90497241Y-67465024D01*
X90497239Y-67465025D01*
X90336825Y-67513686D01*
X90336824Y-67513686D01*
X90336821Y-67513687D01*
X90211804Y-67526000D01*
X90128196Y-67526000D01*
X90003179Y-67513687D01*
X90003176Y-67513686D01*
X90003175Y-67513686D01*
X89842761Y-67465025D01*
X89842759Y-67465024D01*
X89842756Y-67465023D01*
X89694922Y-67386005D01*
X89565341Y-67279659D01*
X89458995Y-67150078D01*
X89379977Y-67002244D01*
X89334288Y-66851627D01*
X89331314Y-66841825D01*
X89331314Y-66841824D01*
X89331313Y-66841821D01*
X89314883Y-66675000D01*
X89331313Y-66508179D01*
X89334287Y-66498375D01*
X89379975Y-66347761D01*
X89379976Y-66347759D01*
X89379977Y-66347756D01*
X89458995Y-66199922D01*
X89565341Y-66070341D01*
X89694922Y-65963995D01*
X89842756Y-65884977D01*
X89842759Y-65884976D01*
X89842761Y-65884975D01*
X90003175Y-65836314D01*
X90003176Y-65836314D01*
X90003179Y-65836313D01*
X90128196Y-65824000D01*
X90211804Y-65824000D01*
X90336821Y-65836313D01*
X90336821Y-65836313D01*
G37*
G36*
X82716821Y-65836313D02*
X82716824Y-65836314D01*
X82716825Y-65836314D01*
X82877239Y-65884975D01*
X82877241Y-65884976D01*
X82877244Y-65884977D01*
X83025078Y-65963995D01*
X83154659Y-66070341D01*
X83261005Y-66199922D01*
X83340023Y-66347756D01*
X83340024Y-66347759D01*
X83340025Y-66347761D01*
X83385713Y-66498375D01*
X83388687Y-66508179D01*
X83405117Y-66675000D01*
X83388687Y-66841821D01*
X83388686Y-66841824D01*
X83388686Y-66841825D01*
X83385713Y-66851627D01*
X83340023Y-67002244D01*
X83261005Y-67150078D01*
X83154659Y-67279659D01*
X83025078Y-67386005D01*
X82877244Y-67465023D01*
X82877241Y-67465024D01*
X82877239Y-67465025D01*
X82716825Y-67513686D01*
X82716824Y-67513686D01*
X82716821Y-67513687D01*
X82591804Y-67526000D01*
X82508196Y-67526000D01*
X82383179Y-67513687D01*
X82383176Y-67513686D01*
X82383175Y-67513686D01*
X82222761Y-67465025D01*
X82222759Y-67465024D01*
X82222756Y-67465023D01*
X82074922Y-67386005D01*
X81945341Y-67279659D01*
X81838995Y-67150078D01*
X81759977Y-67002244D01*
X81714288Y-66851627D01*
X81711314Y-66841825D01*
X81711314Y-66841824D01*
X81711313Y-66841821D01*
X81694883Y-66675000D01*
X81711313Y-66508179D01*
X81714287Y-66498375D01*
X81759975Y-66347761D01*
X81759976Y-66347759D01*
X81759977Y-66347756D01*
X81838995Y-66199922D01*
X81945341Y-66070341D01*
X82074922Y-65963995D01*
X82222756Y-65884977D01*
X82222759Y-65884976D01*
X82222761Y-65884975D01*
X82383175Y-65836314D01*
X82383176Y-65836314D01*
X82383179Y-65836313D01*
X82508196Y-65824000D01*
X82591804Y-65824000D01*
X82716821Y-65836313D01*
X82716821Y-65836313D01*
G37*
G36*
X97900443Y-63240519D02*
X97966627Y-63247037D01*
X98079853Y-63281384D01*
X98136467Y-63298557D01*
X98223311Y-63344977D01*
X98292991Y-63382222D01*
X98328729Y-63411552D01*
X98430186Y-63494814D01*
X98513448Y-63596271D01*
X98542778Y-63632009D01*
X98542779Y-63632011D01*
X98626443Y-63788533D01*
X98643616Y-63845147D01*
X98677963Y-63958373D01*
X98695359Y-64135000D01*
X98677963Y-64311627D01*
X98643616Y-64424853D01*
X98626443Y-64481467D01*
X98557698Y-64610078D01*
X98542778Y-64637991D01*
X98513448Y-64673729D01*
X98430186Y-64775186D01*
X98328729Y-64858448D01*
X98292991Y-64887778D01*
X98292989Y-64887779D01*
X98136467Y-64971443D01*
X98129069Y-64973687D01*
X97966627Y-65022963D01*
X97900442Y-65029482D01*
X97834260Y-65036000D01*
X97745740Y-65036000D01*
X97679558Y-65029482D01*
X97613373Y-65022963D01*
X97450931Y-64973687D01*
X97443533Y-64971443D01*
X97287011Y-64887779D01*
X97287009Y-64887778D01*
X97251271Y-64858448D01*
X97149814Y-64775186D01*
X97066552Y-64673729D01*
X97037222Y-64637991D01*
X97022302Y-64610078D01*
X96953557Y-64481467D01*
X96936384Y-64424853D01*
X96902037Y-64311627D01*
X96884641Y-64135000D01*
X96902037Y-63958373D01*
X96936384Y-63845147D01*
X96953557Y-63788533D01*
X97037221Y-63632011D01*
X97037222Y-63632009D01*
X97066552Y-63596271D01*
X97149814Y-63494814D01*
X97251271Y-63411552D01*
X97287009Y-63382222D01*
X97356689Y-63344977D01*
X97443533Y-63298557D01*
X97500147Y-63281384D01*
X97613373Y-63247037D01*
X97679557Y-63240519D01*
X97745740Y-63234000D01*
X97834260Y-63234000D01*
X97900443Y-63240519D01*
X97900443Y-63240519D01*
G37*
G36*
X54720443Y-63240519D02*
X54786627Y-63247037D01*
X54899853Y-63281384D01*
X54956467Y-63298557D01*
X55043311Y-63344977D01*
X55112991Y-63382222D01*
X55148729Y-63411552D01*
X55250186Y-63494814D01*
X55333448Y-63596271D01*
X55362778Y-63632009D01*
X55362779Y-63632011D01*
X55446443Y-63788533D01*
X55463616Y-63845147D01*
X55497963Y-63958373D01*
X55515359Y-64135000D01*
X55497963Y-64311627D01*
X55463616Y-64424853D01*
X55446443Y-64481467D01*
X55377698Y-64610078D01*
X55362778Y-64637991D01*
X55333448Y-64673729D01*
X55250186Y-64775186D01*
X55148729Y-64858448D01*
X55112991Y-64887778D01*
X55112989Y-64887779D01*
X54956467Y-64971443D01*
X54949069Y-64973687D01*
X54786627Y-65022963D01*
X54720442Y-65029482D01*
X54654260Y-65036000D01*
X54565740Y-65036000D01*
X54499558Y-65029482D01*
X54433373Y-65022963D01*
X54270931Y-64973687D01*
X54263533Y-64971443D01*
X54107011Y-64887779D01*
X54107009Y-64887778D01*
X54071271Y-64858448D01*
X53969814Y-64775186D01*
X53886552Y-64673729D01*
X53857222Y-64637991D01*
X53842302Y-64610078D01*
X53773557Y-64481467D01*
X53756384Y-64424853D01*
X53722037Y-64311627D01*
X53704641Y-64135000D01*
X53722037Y-63958373D01*
X53756384Y-63845147D01*
X53773557Y-63788533D01*
X53857221Y-63632011D01*
X53857222Y-63632009D01*
X53886552Y-63596271D01*
X53969814Y-63494814D01*
X54071271Y-63411552D01*
X54107009Y-63382222D01*
X54176689Y-63344977D01*
X54263533Y-63298557D01*
X54320147Y-63281384D01*
X54433373Y-63247037D01*
X54499557Y-63240519D01*
X54565740Y-63234000D01*
X54654260Y-63234000D01*
X54720443Y-63240519D01*
X54720443Y-63240519D01*
G37*
G36*
X82716821Y-63296313D02*
X82716824Y-63296314D01*
X82716825Y-63296314D01*
X82877239Y-63344975D01*
X82877241Y-63344976D01*
X82877244Y-63344977D01*
X83025078Y-63423995D01*
X83154659Y-63530341D01*
X83261005Y-63659922D01*
X83340023Y-63807756D01*
X83340024Y-63807759D01*
X83340025Y-63807761D01*
X83385713Y-63958375D01*
X83388687Y-63968179D01*
X83405117Y-64135000D01*
X83388687Y-64301821D01*
X83388686Y-64301824D01*
X83388686Y-64301825D01*
X83385713Y-64311627D01*
X83340023Y-64462244D01*
X83261005Y-64610078D01*
X83154659Y-64739659D01*
X83025078Y-64846005D01*
X82877244Y-64925023D01*
X82877241Y-64925024D01*
X82877239Y-64925025D01*
X82716825Y-64973686D01*
X82716824Y-64973686D01*
X82716821Y-64973687D01*
X82591804Y-64986000D01*
X82508196Y-64986000D01*
X82383179Y-64973687D01*
X82383176Y-64973686D01*
X82383175Y-64973686D01*
X82222761Y-64925025D01*
X82222759Y-64925024D01*
X82222756Y-64925023D01*
X82074922Y-64846005D01*
X81945341Y-64739659D01*
X81838995Y-64610078D01*
X81759977Y-64462244D01*
X81714288Y-64311627D01*
X81711314Y-64301825D01*
X81711314Y-64301824D01*
X81711313Y-64301821D01*
X81694883Y-64135000D01*
X81711313Y-63968179D01*
X81714287Y-63958375D01*
X81759975Y-63807761D01*
X81759976Y-63807759D01*
X81759977Y-63807756D01*
X81838995Y-63659922D01*
X81945341Y-63530341D01*
X82074922Y-63423995D01*
X82222756Y-63344977D01*
X82222759Y-63344976D01*
X82222761Y-63344975D01*
X82383175Y-63296314D01*
X82383176Y-63296314D01*
X82383179Y-63296313D01*
X82508196Y-63284000D01*
X82591804Y-63284000D01*
X82716821Y-63296313D01*
X82716821Y-63296313D01*
G37*
G36*
X66841821Y-63296313D02*
X66841824Y-63296314D01*
X66841825Y-63296314D01*
X67002239Y-63344975D01*
X67002241Y-63344976D01*
X67002244Y-63344977D01*
X67150078Y-63423995D01*
X67279659Y-63530341D01*
X67386005Y-63659922D01*
X67465023Y-63807756D01*
X67465024Y-63807759D01*
X67465025Y-63807761D01*
X67510713Y-63958375D01*
X67513687Y-63968179D01*
X67530117Y-64135000D01*
X67513687Y-64301821D01*
X67513686Y-64301824D01*
X67513686Y-64301825D01*
X67510713Y-64311627D01*
X67465023Y-64462244D01*
X67386005Y-64610078D01*
X67279659Y-64739659D01*
X67150078Y-64846005D01*
X67002244Y-64925023D01*
X67002241Y-64925024D01*
X67002239Y-64925025D01*
X66841825Y-64973686D01*
X66841824Y-64973686D01*
X66841821Y-64973687D01*
X66716804Y-64986000D01*
X66633196Y-64986000D01*
X66508179Y-64973687D01*
X66508176Y-64973686D01*
X66508175Y-64973686D01*
X66347761Y-64925025D01*
X66347759Y-64925024D01*
X66347756Y-64925023D01*
X66199922Y-64846005D01*
X66070341Y-64739659D01*
X65963995Y-64610078D01*
X65884977Y-64462244D01*
X65839288Y-64311627D01*
X65836314Y-64301825D01*
X65836314Y-64301824D01*
X65836313Y-64301821D01*
X65819883Y-64135000D01*
X65836313Y-63968179D01*
X65839287Y-63958375D01*
X65884975Y-63807761D01*
X65884976Y-63807759D01*
X65884977Y-63807756D01*
X65963995Y-63659922D01*
X66070341Y-63530341D01*
X66199922Y-63423995D01*
X66347756Y-63344977D01*
X66347759Y-63344976D01*
X66347761Y-63344975D01*
X66508175Y-63296314D01*
X66508176Y-63296314D01*
X66508179Y-63296313D01*
X66633196Y-63284000D01*
X66716804Y-63284000D01*
X66841821Y-63296313D01*
X66841821Y-63296313D01*
G37*
G36*
X74461821Y-63296313D02*
X74461824Y-63296314D01*
X74461825Y-63296314D01*
X74622239Y-63344975D01*
X74622241Y-63344976D01*
X74622244Y-63344977D01*
X74770078Y-63423995D01*
X74899659Y-63530341D01*
X75006005Y-63659922D01*
X75085023Y-63807756D01*
X75085024Y-63807759D01*
X75085025Y-63807761D01*
X75130713Y-63958375D01*
X75133687Y-63968179D01*
X75150117Y-64135000D01*
X75133687Y-64301821D01*
X75133686Y-64301824D01*
X75133686Y-64301825D01*
X75130713Y-64311627D01*
X75085023Y-64462244D01*
X75006005Y-64610078D01*
X74899659Y-64739659D01*
X74770078Y-64846005D01*
X74622244Y-64925023D01*
X74622241Y-64925024D01*
X74622239Y-64925025D01*
X74461825Y-64973686D01*
X74461824Y-64973686D01*
X74461821Y-64973687D01*
X74336804Y-64986000D01*
X74253196Y-64986000D01*
X74128179Y-64973687D01*
X74128176Y-64973686D01*
X74128175Y-64973686D01*
X73967761Y-64925025D01*
X73967759Y-64925024D01*
X73967756Y-64925023D01*
X73819922Y-64846005D01*
X73690341Y-64739659D01*
X73583995Y-64610078D01*
X73504977Y-64462244D01*
X73459288Y-64311627D01*
X73456314Y-64301825D01*
X73456314Y-64301824D01*
X73456313Y-64301821D01*
X73439883Y-64135000D01*
X73456313Y-63968179D01*
X73459287Y-63958375D01*
X73504975Y-63807761D01*
X73504976Y-63807759D01*
X73504977Y-63807756D01*
X73583995Y-63659922D01*
X73690341Y-63530341D01*
X73819922Y-63423995D01*
X73967756Y-63344977D01*
X73967759Y-63344976D01*
X73967761Y-63344975D01*
X74128175Y-63296314D01*
X74128176Y-63296314D01*
X74128179Y-63296313D01*
X74253196Y-63284000D01*
X74336804Y-63284000D01*
X74461821Y-63296313D01*
X74461821Y-63296313D01*
G37*
G36*
X90336821Y-63296313D02*
X90336824Y-63296314D01*
X90336825Y-63296314D01*
X90497239Y-63344975D01*
X90497241Y-63344976D01*
X90497244Y-63344977D01*
X90645078Y-63423995D01*
X90774659Y-63530341D01*
X90881005Y-63659922D01*
X90960023Y-63807756D01*
X90960024Y-63807759D01*
X90960025Y-63807761D01*
X91005713Y-63958375D01*
X91008687Y-63968179D01*
X91025117Y-64135000D01*
X91008687Y-64301821D01*
X91008686Y-64301824D01*
X91008686Y-64301825D01*
X91005713Y-64311627D01*
X90960023Y-64462244D01*
X90881005Y-64610078D01*
X90774659Y-64739659D01*
X90645078Y-64846005D01*
X90497244Y-64925023D01*
X90497241Y-64925024D01*
X90497239Y-64925025D01*
X90336825Y-64973686D01*
X90336824Y-64973686D01*
X90336821Y-64973687D01*
X90211804Y-64986000D01*
X90128196Y-64986000D01*
X90003179Y-64973687D01*
X90003176Y-64973686D01*
X90003175Y-64973686D01*
X89842761Y-64925025D01*
X89842759Y-64925024D01*
X89842756Y-64925023D01*
X89694922Y-64846005D01*
X89565341Y-64739659D01*
X89458995Y-64610078D01*
X89379977Y-64462244D01*
X89334288Y-64311627D01*
X89331314Y-64301825D01*
X89331314Y-64301824D01*
X89331313Y-64301821D01*
X89314883Y-64135000D01*
X89331313Y-63968179D01*
X89334287Y-63958375D01*
X89379975Y-63807761D01*
X89379976Y-63807759D01*
X89379977Y-63807756D01*
X89458995Y-63659922D01*
X89565341Y-63530341D01*
X89694922Y-63423995D01*
X89842756Y-63344977D01*
X89842759Y-63344976D01*
X89842761Y-63344975D01*
X90003175Y-63296314D01*
X90003176Y-63296314D01*
X90003179Y-63296313D01*
X90128196Y-63284000D01*
X90211804Y-63284000D01*
X90336821Y-63296313D01*
X90336821Y-63296313D01*
G37*
G36*
X97900443Y-60700519D02*
X97966627Y-60707037D01*
X98079853Y-60741384D01*
X98136467Y-60758557D01*
X98223311Y-60804977D01*
X98292991Y-60842222D01*
X98328729Y-60871552D01*
X98430186Y-60954814D01*
X98513448Y-61056271D01*
X98542778Y-61092009D01*
X98542779Y-61092011D01*
X98626443Y-61248533D01*
X98643616Y-61305147D01*
X98677963Y-61418373D01*
X98695359Y-61595000D01*
X98677963Y-61771627D01*
X98643616Y-61884853D01*
X98626443Y-61941467D01*
X98557698Y-62070078D01*
X98542778Y-62097991D01*
X98513448Y-62133729D01*
X98430186Y-62235186D01*
X98328729Y-62318448D01*
X98292991Y-62347778D01*
X98292989Y-62347779D01*
X98136467Y-62431443D01*
X98129069Y-62433687D01*
X97966627Y-62482963D01*
X97900443Y-62489481D01*
X97834260Y-62496000D01*
X97745740Y-62496000D01*
X97679557Y-62489481D01*
X97613373Y-62482963D01*
X97450931Y-62433687D01*
X97443533Y-62431443D01*
X97287011Y-62347779D01*
X97287009Y-62347778D01*
X97251271Y-62318448D01*
X97149814Y-62235186D01*
X97066552Y-62133729D01*
X97037222Y-62097991D01*
X97022302Y-62070078D01*
X96953557Y-61941467D01*
X96936384Y-61884853D01*
X96902037Y-61771627D01*
X96884641Y-61595000D01*
X96902037Y-61418373D01*
X96936384Y-61305147D01*
X96953557Y-61248533D01*
X97037221Y-61092011D01*
X97037222Y-61092009D01*
X97066552Y-61056271D01*
X97149814Y-60954814D01*
X97251271Y-60871552D01*
X97287009Y-60842222D01*
X97356689Y-60804977D01*
X97443533Y-60758557D01*
X97500147Y-60741384D01*
X97613373Y-60707037D01*
X97679557Y-60700519D01*
X97745740Y-60694000D01*
X97834260Y-60694000D01*
X97900443Y-60700519D01*
X97900443Y-60700519D01*
G37*
G36*
X54720443Y-60700519D02*
X54786627Y-60707037D01*
X54899853Y-60741384D01*
X54956467Y-60758557D01*
X55043311Y-60804977D01*
X55112991Y-60842222D01*
X55148729Y-60871552D01*
X55250186Y-60954814D01*
X55333448Y-61056271D01*
X55362778Y-61092009D01*
X55362779Y-61092011D01*
X55446443Y-61248533D01*
X55463616Y-61305147D01*
X55497963Y-61418373D01*
X55515359Y-61595000D01*
X55497963Y-61771627D01*
X55463616Y-61884853D01*
X55446443Y-61941467D01*
X55377698Y-62070078D01*
X55362778Y-62097991D01*
X55333448Y-62133729D01*
X55250186Y-62235186D01*
X55148729Y-62318448D01*
X55112991Y-62347778D01*
X55112989Y-62347779D01*
X54956467Y-62431443D01*
X54949069Y-62433687D01*
X54786627Y-62482963D01*
X54720443Y-62489481D01*
X54654260Y-62496000D01*
X54565740Y-62496000D01*
X54499557Y-62489481D01*
X54433373Y-62482963D01*
X54270931Y-62433687D01*
X54263533Y-62431443D01*
X54107011Y-62347779D01*
X54107009Y-62347778D01*
X54071271Y-62318448D01*
X53969814Y-62235186D01*
X53886552Y-62133729D01*
X53857222Y-62097991D01*
X53842302Y-62070078D01*
X53773557Y-61941467D01*
X53756384Y-61884853D01*
X53722037Y-61771627D01*
X53704641Y-61595000D01*
X53722037Y-61418373D01*
X53756384Y-61305147D01*
X53773557Y-61248533D01*
X53857221Y-61092011D01*
X53857222Y-61092009D01*
X53886552Y-61056271D01*
X53969814Y-60954814D01*
X54071271Y-60871552D01*
X54107009Y-60842222D01*
X54176689Y-60804977D01*
X54263533Y-60758557D01*
X54320147Y-60741384D01*
X54433373Y-60707037D01*
X54499557Y-60700519D01*
X54565740Y-60694000D01*
X54654260Y-60694000D01*
X54720443Y-60700519D01*
X54720443Y-60700519D01*
G37*
G36*
X82716821Y-60756313D02*
X82716824Y-60756314D01*
X82716825Y-60756314D01*
X82877239Y-60804975D01*
X82877241Y-60804976D01*
X82877244Y-60804977D01*
X83025078Y-60883995D01*
X83154659Y-60990341D01*
X83261005Y-61119922D01*
X83340023Y-61267756D01*
X83340024Y-61267759D01*
X83340025Y-61267761D01*
X83385713Y-61418375D01*
X83388687Y-61428179D01*
X83405117Y-61595000D01*
X83388687Y-61761821D01*
X83388686Y-61761824D01*
X83388686Y-61761825D01*
X83385713Y-61771627D01*
X83340023Y-61922244D01*
X83261005Y-62070078D01*
X83154659Y-62199659D01*
X83025078Y-62306005D01*
X82877244Y-62385023D01*
X82877241Y-62385024D01*
X82877239Y-62385025D01*
X82716825Y-62433686D01*
X82716824Y-62433686D01*
X82716821Y-62433687D01*
X82591804Y-62446000D01*
X82508196Y-62446000D01*
X82383179Y-62433687D01*
X82383176Y-62433686D01*
X82383175Y-62433686D01*
X82222761Y-62385025D01*
X82222759Y-62385024D01*
X82222756Y-62385023D01*
X82074922Y-62306005D01*
X81945341Y-62199659D01*
X81838995Y-62070078D01*
X81759977Y-61922244D01*
X81714288Y-61771627D01*
X81711314Y-61761825D01*
X81711314Y-61761824D01*
X81711313Y-61761821D01*
X81694883Y-61595000D01*
X81711313Y-61428179D01*
X81714287Y-61418375D01*
X81759975Y-61267761D01*
X81759976Y-61267759D01*
X81759977Y-61267756D01*
X81838995Y-61119922D01*
X81945341Y-60990341D01*
X82074922Y-60883995D01*
X82222756Y-60804977D01*
X82222759Y-60804976D01*
X82222761Y-60804975D01*
X82383175Y-60756314D01*
X82383176Y-60756314D01*
X82383179Y-60756313D01*
X82508196Y-60744000D01*
X82591804Y-60744000D01*
X82716821Y-60756313D01*
X82716821Y-60756313D01*
G37*
G36*
X74461821Y-60756313D02*
X74461824Y-60756314D01*
X74461825Y-60756314D01*
X74622239Y-60804975D01*
X74622241Y-60804976D01*
X74622244Y-60804977D01*
X74770078Y-60883995D01*
X74899659Y-60990341D01*
X75006005Y-61119922D01*
X75085023Y-61267756D01*
X75085024Y-61267759D01*
X75085025Y-61267761D01*
X75130713Y-61418375D01*
X75133687Y-61428179D01*
X75150117Y-61595000D01*
X75133687Y-61761821D01*
X75133686Y-61761824D01*
X75133686Y-61761825D01*
X75130713Y-61771627D01*
X75085023Y-61922244D01*
X75006005Y-62070078D01*
X74899659Y-62199659D01*
X74770078Y-62306005D01*
X74622244Y-62385023D01*
X74622241Y-62385024D01*
X74622239Y-62385025D01*
X74461825Y-62433686D01*
X74461824Y-62433686D01*
X74461821Y-62433687D01*
X74336804Y-62446000D01*
X74253196Y-62446000D01*
X74128179Y-62433687D01*
X74128176Y-62433686D01*
X74128175Y-62433686D01*
X73967761Y-62385025D01*
X73967759Y-62385024D01*
X73967756Y-62385023D01*
X73819922Y-62306005D01*
X73690341Y-62199659D01*
X73583995Y-62070078D01*
X73504977Y-61922244D01*
X73459288Y-61771627D01*
X73456314Y-61761825D01*
X73456314Y-61761824D01*
X73456313Y-61761821D01*
X73439883Y-61595000D01*
X73456313Y-61428179D01*
X73459287Y-61418375D01*
X73504975Y-61267761D01*
X73504976Y-61267759D01*
X73504977Y-61267756D01*
X73583995Y-61119922D01*
X73690341Y-60990341D01*
X73819922Y-60883995D01*
X73967756Y-60804977D01*
X73967759Y-60804976D01*
X73967761Y-60804975D01*
X74128175Y-60756314D01*
X74128176Y-60756314D01*
X74128179Y-60756313D01*
X74253196Y-60744000D01*
X74336804Y-60744000D01*
X74461821Y-60756313D01*
X74461821Y-60756313D01*
G37*
G36*
X66841821Y-60756313D02*
X66841824Y-60756314D01*
X66841825Y-60756314D01*
X67002239Y-60804975D01*
X67002241Y-60804976D01*
X67002244Y-60804977D01*
X67150078Y-60883995D01*
X67279659Y-60990341D01*
X67386005Y-61119922D01*
X67465023Y-61267756D01*
X67465024Y-61267759D01*
X67465025Y-61267761D01*
X67510713Y-61418375D01*
X67513687Y-61428179D01*
X67530117Y-61595000D01*
X67513687Y-61761821D01*
X67513686Y-61761824D01*
X67513686Y-61761825D01*
X67510713Y-61771627D01*
X67465023Y-61922244D01*
X67386005Y-62070078D01*
X67279659Y-62199659D01*
X67150078Y-62306005D01*
X67002244Y-62385023D01*
X67002241Y-62385024D01*
X67002239Y-62385025D01*
X66841825Y-62433686D01*
X66841824Y-62433686D01*
X66841821Y-62433687D01*
X66716804Y-62446000D01*
X66633196Y-62446000D01*
X66508179Y-62433687D01*
X66508176Y-62433686D01*
X66508175Y-62433686D01*
X66347761Y-62385025D01*
X66347759Y-62385024D01*
X66347756Y-62385023D01*
X66199922Y-62306005D01*
X66070341Y-62199659D01*
X65963995Y-62070078D01*
X65884977Y-61922244D01*
X65839288Y-61771627D01*
X65836314Y-61761825D01*
X65836314Y-61761824D01*
X65836313Y-61761821D01*
X65819883Y-61595000D01*
X65836313Y-61428179D01*
X65839287Y-61418375D01*
X65884975Y-61267761D01*
X65884976Y-61267759D01*
X65884977Y-61267756D01*
X65963995Y-61119922D01*
X66070341Y-60990341D01*
X66199922Y-60883995D01*
X66347756Y-60804977D01*
X66347759Y-60804976D01*
X66347761Y-60804975D01*
X66508175Y-60756314D01*
X66508176Y-60756314D01*
X66508179Y-60756313D01*
X66633196Y-60744000D01*
X66716804Y-60744000D01*
X66841821Y-60756313D01*
X66841821Y-60756313D01*
G37*
G36*
X90336821Y-60756313D02*
X90336824Y-60756314D01*
X90336825Y-60756314D01*
X90497239Y-60804975D01*
X90497241Y-60804976D01*
X90497244Y-60804977D01*
X90645078Y-60883995D01*
X90774659Y-60990341D01*
X90881005Y-61119922D01*
X90960023Y-61267756D01*
X90960024Y-61267759D01*
X90960025Y-61267761D01*
X91005713Y-61418375D01*
X91008687Y-61428179D01*
X91025117Y-61595000D01*
X91008687Y-61761821D01*
X91008686Y-61761824D01*
X91008686Y-61761825D01*
X91005713Y-61771627D01*
X90960023Y-61922244D01*
X90881005Y-62070078D01*
X90774659Y-62199659D01*
X90645078Y-62306005D01*
X90497244Y-62385023D01*
X90497241Y-62385024D01*
X90497239Y-62385025D01*
X90336825Y-62433686D01*
X90336824Y-62433686D01*
X90336821Y-62433687D01*
X90211804Y-62446000D01*
X90128196Y-62446000D01*
X90003179Y-62433687D01*
X90003176Y-62433686D01*
X90003175Y-62433686D01*
X89842761Y-62385025D01*
X89842759Y-62385024D01*
X89842756Y-62385023D01*
X89694922Y-62306005D01*
X89565341Y-62199659D01*
X89458995Y-62070078D01*
X89379977Y-61922244D01*
X89334288Y-61771627D01*
X89331314Y-61761825D01*
X89331314Y-61761824D01*
X89331313Y-61761821D01*
X89314883Y-61595000D01*
X89331313Y-61428179D01*
X89334287Y-61418375D01*
X89379975Y-61267761D01*
X89379976Y-61267759D01*
X89379977Y-61267756D01*
X89458995Y-61119922D01*
X89565341Y-60990341D01*
X89694922Y-60883995D01*
X89842756Y-60804977D01*
X89842759Y-60804976D01*
X89842761Y-60804975D01*
X90003175Y-60756314D01*
X90003176Y-60756314D01*
X90003179Y-60756313D01*
X90128196Y-60744000D01*
X90211804Y-60744000D01*
X90336821Y-60756313D01*
X90336821Y-60756313D01*
G37*
G36*
X54720442Y-58160518D02*
X54786627Y-58167037D01*
X54899853Y-58201384D01*
X54956467Y-58218557D01*
X55043311Y-58264977D01*
X55112991Y-58302222D01*
X55148729Y-58331552D01*
X55250186Y-58414814D01*
X55333448Y-58516271D01*
X55362778Y-58552009D01*
X55362779Y-58552011D01*
X55446443Y-58708533D01*
X55463616Y-58765147D01*
X55497963Y-58878373D01*
X55515359Y-59055000D01*
X55497963Y-59231627D01*
X55463616Y-59344853D01*
X55446443Y-59401467D01*
X55377698Y-59530078D01*
X55362778Y-59557991D01*
X55333448Y-59593729D01*
X55250186Y-59695186D01*
X55148729Y-59778448D01*
X55112991Y-59807778D01*
X55112989Y-59807779D01*
X54956467Y-59891443D01*
X54949069Y-59893687D01*
X54786627Y-59942963D01*
X54720442Y-59949482D01*
X54654260Y-59956000D01*
X54565740Y-59956000D01*
X54499558Y-59949482D01*
X54433373Y-59942963D01*
X54270931Y-59893687D01*
X54263533Y-59891443D01*
X54107011Y-59807779D01*
X54107009Y-59807778D01*
X54071271Y-59778448D01*
X53969814Y-59695186D01*
X53886552Y-59593729D01*
X53857222Y-59557991D01*
X53842302Y-59530078D01*
X53773557Y-59401467D01*
X53756384Y-59344853D01*
X53722037Y-59231627D01*
X53704641Y-59055000D01*
X53722037Y-58878373D01*
X53756384Y-58765147D01*
X53773557Y-58708533D01*
X53857221Y-58552011D01*
X53857222Y-58552009D01*
X53886552Y-58516271D01*
X53969814Y-58414814D01*
X54071271Y-58331552D01*
X54107009Y-58302222D01*
X54176689Y-58264977D01*
X54263533Y-58218557D01*
X54320147Y-58201384D01*
X54433373Y-58167037D01*
X54499558Y-58160518D01*
X54565740Y-58154000D01*
X54654260Y-58154000D01*
X54720442Y-58160518D01*
X54720442Y-58160518D01*
G37*
G36*
X97900442Y-58160518D02*
X97966627Y-58167037D01*
X98079853Y-58201384D01*
X98136467Y-58218557D01*
X98223311Y-58264977D01*
X98292991Y-58302222D01*
X98328729Y-58331552D01*
X98430186Y-58414814D01*
X98513448Y-58516271D01*
X98542778Y-58552009D01*
X98542779Y-58552011D01*
X98626443Y-58708533D01*
X98643616Y-58765147D01*
X98677963Y-58878373D01*
X98695359Y-59055000D01*
X98677963Y-59231627D01*
X98643616Y-59344853D01*
X98626443Y-59401467D01*
X98557698Y-59530078D01*
X98542778Y-59557991D01*
X98513448Y-59593729D01*
X98430186Y-59695186D01*
X98328729Y-59778448D01*
X98292991Y-59807778D01*
X98292989Y-59807779D01*
X98136467Y-59891443D01*
X98129069Y-59893687D01*
X97966627Y-59942963D01*
X97900442Y-59949482D01*
X97834260Y-59956000D01*
X97745740Y-59956000D01*
X97679558Y-59949482D01*
X97613373Y-59942963D01*
X97450931Y-59893687D01*
X97443533Y-59891443D01*
X97287011Y-59807779D01*
X97287009Y-59807778D01*
X97251271Y-59778448D01*
X97149814Y-59695186D01*
X97066552Y-59593729D01*
X97037222Y-59557991D01*
X97022302Y-59530078D01*
X96953557Y-59401467D01*
X96936384Y-59344853D01*
X96902037Y-59231627D01*
X96884641Y-59055000D01*
X96902037Y-58878373D01*
X96936384Y-58765147D01*
X96953557Y-58708533D01*
X97037221Y-58552011D01*
X97037222Y-58552009D01*
X97066552Y-58516271D01*
X97149814Y-58414814D01*
X97251271Y-58331552D01*
X97287009Y-58302222D01*
X97356689Y-58264977D01*
X97443533Y-58218557D01*
X97500147Y-58201384D01*
X97613373Y-58167037D01*
X97679558Y-58160518D01*
X97745740Y-58154000D01*
X97834260Y-58154000D01*
X97900442Y-58160518D01*
X97900442Y-58160518D01*
G37*
G36*
X90336821Y-58216313D02*
X90336824Y-58216314D01*
X90336825Y-58216314D01*
X90497239Y-58264975D01*
X90497241Y-58264976D01*
X90497244Y-58264977D01*
X90645078Y-58343995D01*
X90774659Y-58450341D01*
X90881005Y-58579922D01*
X90960023Y-58727756D01*
X90960024Y-58727759D01*
X90960025Y-58727761D01*
X91005713Y-58878375D01*
X91008687Y-58888179D01*
X91025117Y-59055000D01*
X91008687Y-59221821D01*
X91008686Y-59221824D01*
X91008686Y-59221825D01*
X91005713Y-59231627D01*
X90960023Y-59382244D01*
X90881005Y-59530078D01*
X90774659Y-59659659D01*
X90645078Y-59766005D01*
X90497244Y-59845023D01*
X90497241Y-59845024D01*
X90497239Y-59845025D01*
X90336825Y-59893686D01*
X90336824Y-59893686D01*
X90336821Y-59893687D01*
X90211804Y-59906000D01*
X90128196Y-59906000D01*
X90003179Y-59893687D01*
X90003176Y-59893686D01*
X90003175Y-59893686D01*
X89842761Y-59845025D01*
X89842759Y-59845024D01*
X89842756Y-59845023D01*
X89694922Y-59766005D01*
X89565341Y-59659659D01*
X89458995Y-59530078D01*
X89379977Y-59382244D01*
X89334288Y-59231627D01*
X89331314Y-59221825D01*
X89331314Y-59221824D01*
X89331313Y-59221821D01*
X89314883Y-59055000D01*
X89331313Y-58888179D01*
X89334287Y-58878375D01*
X89379975Y-58727761D01*
X89379976Y-58727759D01*
X89379977Y-58727756D01*
X89458995Y-58579922D01*
X89565341Y-58450341D01*
X89694922Y-58343995D01*
X89842756Y-58264977D01*
X89842759Y-58264976D01*
X89842761Y-58264975D01*
X90003175Y-58216314D01*
X90003176Y-58216314D01*
X90003179Y-58216313D01*
X90128196Y-58204000D01*
X90211804Y-58204000D01*
X90336821Y-58216313D01*
X90336821Y-58216313D01*
G37*
G36*
X74461821Y-58216313D02*
X74461824Y-58216314D01*
X74461825Y-58216314D01*
X74622239Y-58264975D01*
X74622241Y-58264976D01*
X74622244Y-58264977D01*
X74770078Y-58343995D01*
X74899659Y-58450341D01*
X75006005Y-58579922D01*
X75085023Y-58727756D01*
X75085024Y-58727759D01*
X75085025Y-58727761D01*
X75130713Y-58878375D01*
X75133687Y-58888179D01*
X75150117Y-59055000D01*
X75133687Y-59221821D01*
X75133686Y-59221824D01*
X75133686Y-59221825D01*
X75130713Y-59231627D01*
X75085023Y-59382244D01*
X75006005Y-59530078D01*
X74899659Y-59659659D01*
X74770078Y-59766005D01*
X74622244Y-59845023D01*
X74622241Y-59845024D01*
X74622239Y-59845025D01*
X74461825Y-59893686D01*
X74461824Y-59893686D01*
X74461821Y-59893687D01*
X74336804Y-59906000D01*
X74253196Y-59906000D01*
X74128179Y-59893687D01*
X74128176Y-59893686D01*
X74128175Y-59893686D01*
X73967761Y-59845025D01*
X73967759Y-59845024D01*
X73967756Y-59845023D01*
X73819922Y-59766005D01*
X73690341Y-59659659D01*
X73583995Y-59530078D01*
X73504977Y-59382244D01*
X73459288Y-59231627D01*
X73456314Y-59221825D01*
X73456314Y-59221824D01*
X73456313Y-59221821D01*
X73439883Y-59055000D01*
X73456313Y-58888179D01*
X73459287Y-58878375D01*
X73504975Y-58727761D01*
X73504976Y-58727759D01*
X73504977Y-58727756D01*
X73583995Y-58579922D01*
X73690341Y-58450341D01*
X73819922Y-58343995D01*
X73967756Y-58264977D01*
X73967759Y-58264976D01*
X73967761Y-58264975D01*
X74128175Y-58216314D01*
X74128176Y-58216314D01*
X74128179Y-58216313D01*
X74253196Y-58204000D01*
X74336804Y-58204000D01*
X74461821Y-58216313D01*
X74461821Y-58216313D01*
G37*
G36*
X66841821Y-58216313D02*
X66841824Y-58216314D01*
X66841825Y-58216314D01*
X67002239Y-58264975D01*
X67002241Y-58264976D01*
X67002244Y-58264977D01*
X67150078Y-58343995D01*
X67279659Y-58450341D01*
X67386005Y-58579922D01*
X67465023Y-58727756D01*
X67465024Y-58727759D01*
X67465025Y-58727761D01*
X67510713Y-58878375D01*
X67513687Y-58888179D01*
X67530117Y-59055000D01*
X67513687Y-59221821D01*
X67513686Y-59221824D01*
X67513686Y-59221825D01*
X67510713Y-59231627D01*
X67465023Y-59382244D01*
X67386005Y-59530078D01*
X67279659Y-59659659D01*
X67150078Y-59766005D01*
X67002244Y-59845023D01*
X67002241Y-59845024D01*
X67002239Y-59845025D01*
X66841825Y-59893686D01*
X66841824Y-59893686D01*
X66841821Y-59893687D01*
X66716804Y-59906000D01*
X66633196Y-59906000D01*
X66508179Y-59893687D01*
X66508176Y-59893686D01*
X66508175Y-59893686D01*
X66347761Y-59845025D01*
X66347759Y-59845024D01*
X66347756Y-59845023D01*
X66199922Y-59766005D01*
X66070341Y-59659659D01*
X65963995Y-59530078D01*
X65884977Y-59382244D01*
X65839288Y-59231627D01*
X65836314Y-59221825D01*
X65836314Y-59221824D01*
X65836313Y-59221821D01*
X65819883Y-59055000D01*
X65836313Y-58888179D01*
X65839287Y-58878375D01*
X65884975Y-58727761D01*
X65884976Y-58727759D01*
X65884977Y-58727756D01*
X65963995Y-58579922D01*
X66070341Y-58450341D01*
X66199922Y-58343995D01*
X66347756Y-58264977D01*
X66347759Y-58264976D01*
X66347761Y-58264975D01*
X66508175Y-58216314D01*
X66508176Y-58216314D01*
X66508179Y-58216313D01*
X66633196Y-58204000D01*
X66716804Y-58204000D01*
X66841821Y-58216313D01*
X66841821Y-58216313D01*
G37*
G36*
X82716821Y-58216313D02*
X82716824Y-58216314D01*
X82716825Y-58216314D01*
X82877239Y-58264975D01*
X82877241Y-58264976D01*
X82877244Y-58264977D01*
X83025078Y-58343995D01*
X83154659Y-58450341D01*
X83261005Y-58579922D01*
X83340023Y-58727756D01*
X83340024Y-58727759D01*
X83340025Y-58727761D01*
X83385713Y-58878375D01*
X83388687Y-58888179D01*
X83405117Y-59055000D01*
X83388687Y-59221821D01*
X83388686Y-59221824D01*
X83388686Y-59221825D01*
X83385713Y-59231627D01*
X83340023Y-59382244D01*
X83261005Y-59530078D01*
X83154659Y-59659659D01*
X83025078Y-59766005D01*
X82877244Y-59845023D01*
X82877241Y-59845024D01*
X82877239Y-59845025D01*
X82716825Y-59893686D01*
X82716824Y-59893686D01*
X82716821Y-59893687D01*
X82591804Y-59906000D01*
X82508196Y-59906000D01*
X82383179Y-59893687D01*
X82383176Y-59893686D01*
X82383175Y-59893686D01*
X82222761Y-59845025D01*
X82222759Y-59845024D01*
X82222756Y-59845023D01*
X82074922Y-59766005D01*
X81945341Y-59659659D01*
X81838995Y-59530078D01*
X81759977Y-59382244D01*
X81714288Y-59231627D01*
X81711314Y-59221825D01*
X81711314Y-59221824D01*
X81711313Y-59221821D01*
X81694883Y-59055000D01*
X81711313Y-58888179D01*
X81714287Y-58878375D01*
X81759975Y-58727761D01*
X81759976Y-58727759D01*
X81759977Y-58727756D01*
X81838995Y-58579922D01*
X81945341Y-58450341D01*
X82074922Y-58343995D01*
X82222756Y-58264977D01*
X82222759Y-58264976D01*
X82222761Y-58264975D01*
X82383175Y-58216314D01*
X82383176Y-58216314D01*
X82383179Y-58216313D01*
X82508196Y-58204000D01*
X82591804Y-58204000D01*
X82716821Y-58216313D01*
X82716821Y-58216313D01*
G37*
G36*
X54720443Y-55620519D02*
X54786627Y-55627037D01*
X54899853Y-55661384D01*
X54956467Y-55678557D01*
X55043311Y-55724977D01*
X55112991Y-55762222D01*
X55148729Y-55791552D01*
X55250186Y-55874814D01*
X55333448Y-55976271D01*
X55362778Y-56012009D01*
X55362779Y-56012011D01*
X55446443Y-56168533D01*
X55463616Y-56225147D01*
X55497963Y-56338373D01*
X55515359Y-56515000D01*
X55497963Y-56691627D01*
X55463616Y-56804853D01*
X55446443Y-56861467D01*
X55377698Y-56990078D01*
X55362778Y-57017991D01*
X55333448Y-57053729D01*
X55250186Y-57155186D01*
X55148729Y-57238448D01*
X55112991Y-57267778D01*
X55112989Y-57267779D01*
X54956467Y-57351443D01*
X54949069Y-57353687D01*
X54786627Y-57402963D01*
X54720443Y-57409481D01*
X54654260Y-57416000D01*
X54565740Y-57416000D01*
X54499557Y-57409481D01*
X54433373Y-57402963D01*
X54270931Y-57353687D01*
X54263533Y-57351443D01*
X54107011Y-57267779D01*
X54107009Y-57267778D01*
X54071271Y-57238448D01*
X53969814Y-57155186D01*
X53886552Y-57053729D01*
X53857222Y-57017991D01*
X53842302Y-56990078D01*
X53773557Y-56861467D01*
X53756384Y-56804853D01*
X53722037Y-56691627D01*
X53704641Y-56515000D01*
X53722037Y-56338373D01*
X53756384Y-56225147D01*
X53773557Y-56168533D01*
X53857221Y-56012011D01*
X53857222Y-56012009D01*
X53886552Y-55976271D01*
X53969814Y-55874814D01*
X54071271Y-55791552D01*
X54107009Y-55762222D01*
X54176689Y-55724977D01*
X54263533Y-55678557D01*
X54320147Y-55661384D01*
X54433373Y-55627037D01*
X54499557Y-55620519D01*
X54565740Y-55614000D01*
X54654260Y-55614000D01*
X54720443Y-55620519D01*
X54720443Y-55620519D01*
G37*
G36*
X97900443Y-55620519D02*
X97966627Y-55627037D01*
X98079853Y-55661384D01*
X98136467Y-55678557D01*
X98223311Y-55724977D01*
X98292991Y-55762222D01*
X98328729Y-55791552D01*
X98430186Y-55874814D01*
X98513448Y-55976271D01*
X98542778Y-56012009D01*
X98542779Y-56012011D01*
X98626443Y-56168533D01*
X98643616Y-56225147D01*
X98677963Y-56338373D01*
X98695359Y-56515000D01*
X98677963Y-56691627D01*
X98643616Y-56804853D01*
X98626443Y-56861467D01*
X98557698Y-56990078D01*
X98542778Y-57017991D01*
X98513448Y-57053729D01*
X98430186Y-57155186D01*
X98328729Y-57238448D01*
X98292991Y-57267778D01*
X98292989Y-57267779D01*
X98136467Y-57351443D01*
X98129069Y-57353687D01*
X97966627Y-57402963D01*
X97900443Y-57409481D01*
X97834260Y-57416000D01*
X97745740Y-57416000D01*
X97679557Y-57409481D01*
X97613373Y-57402963D01*
X97450931Y-57353687D01*
X97443533Y-57351443D01*
X97287011Y-57267779D01*
X97287009Y-57267778D01*
X97251271Y-57238448D01*
X97149814Y-57155186D01*
X97066552Y-57053729D01*
X97037222Y-57017991D01*
X97022302Y-56990078D01*
X96953557Y-56861467D01*
X96936384Y-56804853D01*
X96902037Y-56691627D01*
X96884641Y-56515000D01*
X96902037Y-56338373D01*
X96936384Y-56225147D01*
X96953557Y-56168533D01*
X97037221Y-56012011D01*
X97037222Y-56012009D01*
X97066552Y-55976271D01*
X97149814Y-55874814D01*
X97251271Y-55791552D01*
X97287009Y-55762222D01*
X97356689Y-55724977D01*
X97443533Y-55678557D01*
X97500147Y-55661384D01*
X97613373Y-55627037D01*
X97679557Y-55620519D01*
X97745740Y-55614000D01*
X97834260Y-55614000D01*
X97900443Y-55620519D01*
X97900443Y-55620519D01*
G37*
G36*
X74461821Y-55676313D02*
X74461824Y-55676314D01*
X74461825Y-55676314D01*
X74622239Y-55724975D01*
X74622241Y-55724976D01*
X74622244Y-55724977D01*
X74770078Y-55803995D01*
X74899659Y-55910341D01*
X75006005Y-56039922D01*
X75085023Y-56187756D01*
X75085024Y-56187759D01*
X75085025Y-56187761D01*
X75130713Y-56338375D01*
X75133687Y-56348179D01*
X75150117Y-56515000D01*
X75133687Y-56681821D01*
X75133686Y-56681824D01*
X75133686Y-56681825D01*
X75130713Y-56691627D01*
X75085023Y-56842244D01*
X75006005Y-56990078D01*
X74899659Y-57119659D01*
X74770078Y-57226005D01*
X74622244Y-57305023D01*
X74622241Y-57305024D01*
X74622239Y-57305025D01*
X74461825Y-57353686D01*
X74461824Y-57353686D01*
X74461821Y-57353687D01*
X74336804Y-57366000D01*
X74253196Y-57366000D01*
X74128179Y-57353687D01*
X74128176Y-57353686D01*
X74128175Y-57353686D01*
X73967761Y-57305025D01*
X73967759Y-57305024D01*
X73967756Y-57305023D01*
X73819922Y-57226005D01*
X73690341Y-57119659D01*
X73583995Y-56990078D01*
X73504977Y-56842244D01*
X73459288Y-56691627D01*
X73456314Y-56681825D01*
X73456314Y-56681824D01*
X73456313Y-56681821D01*
X73439883Y-56515000D01*
X73456313Y-56348179D01*
X73459287Y-56338375D01*
X73504975Y-56187761D01*
X73504976Y-56187759D01*
X73504977Y-56187756D01*
X73583995Y-56039922D01*
X73690341Y-55910341D01*
X73819922Y-55803995D01*
X73967756Y-55724977D01*
X73967759Y-55724976D01*
X73967761Y-55724975D01*
X74128175Y-55676314D01*
X74128176Y-55676314D01*
X74128179Y-55676313D01*
X74253196Y-55664000D01*
X74336804Y-55664000D01*
X74461821Y-55676313D01*
X74461821Y-55676313D01*
G37*
G36*
X90336821Y-55676313D02*
X90336824Y-55676314D01*
X90336825Y-55676314D01*
X90497239Y-55724975D01*
X90497241Y-55724976D01*
X90497244Y-55724977D01*
X90645078Y-55803995D01*
X90774659Y-55910341D01*
X90881005Y-56039922D01*
X90960023Y-56187756D01*
X90960024Y-56187759D01*
X90960025Y-56187761D01*
X91005713Y-56338375D01*
X91008687Y-56348179D01*
X91025117Y-56515000D01*
X91008687Y-56681821D01*
X91008686Y-56681824D01*
X91008686Y-56681825D01*
X91005713Y-56691627D01*
X90960023Y-56842244D01*
X90881005Y-56990078D01*
X90774659Y-57119659D01*
X90645078Y-57226005D01*
X90497244Y-57305023D01*
X90497241Y-57305024D01*
X90497239Y-57305025D01*
X90336825Y-57353686D01*
X90336824Y-57353686D01*
X90336821Y-57353687D01*
X90211804Y-57366000D01*
X90128196Y-57366000D01*
X90003179Y-57353687D01*
X90003176Y-57353686D01*
X90003175Y-57353686D01*
X89842761Y-57305025D01*
X89842759Y-57305024D01*
X89842756Y-57305023D01*
X89694922Y-57226005D01*
X89565341Y-57119659D01*
X89458995Y-56990078D01*
X89379977Y-56842244D01*
X89334288Y-56691627D01*
X89331314Y-56681825D01*
X89331314Y-56681824D01*
X89331313Y-56681821D01*
X89314883Y-56515000D01*
X89331313Y-56348179D01*
X89334287Y-56338375D01*
X89379975Y-56187761D01*
X89379976Y-56187759D01*
X89379977Y-56187756D01*
X89458995Y-56039922D01*
X89565341Y-55910341D01*
X89694922Y-55803995D01*
X89842756Y-55724977D01*
X89842759Y-55724976D01*
X89842761Y-55724975D01*
X90003175Y-55676314D01*
X90003176Y-55676314D01*
X90003179Y-55676313D01*
X90128196Y-55664000D01*
X90211804Y-55664000D01*
X90336821Y-55676313D01*
X90336821Y-55676313D01*
G37*
G36*
X82716821Y-55676313D02*
X82716824Y-55676314D01*
X82716825Y-55676314D01*
X82877239Y-55724975D01*
X82877241Y-55724976D01*
X82877244Y-55724977D01*
X83025078Y-55803995D01*
X83154659Y-55910341D01*
X83261005Y-56039922D01*
X83340023Y-56187756D01*
X83340024Y-56187759D01*
X83340025Y-56187761D01*
X83385713Y-56338375D01*
X83388687Y-56348179D01*
X83405117Y-56515000D01*
X83388687Y-56681821D01*
X83388686Y-56681824D01*
X83388686Y-56681825D01*
X83385713Y-56691627D01*
X83340023Y-56842244D01*
X83261005Y-56990078D01*
X83154659Y-57119659D01*
X83025078Y-57226005D01*
X82877244Y-57305023D01*
X82877241Y-57305024D01*
X82877239Y-57305025D01*
X82716825Y-57353686D01*
X82716824Y-57353686D01*
X82716821Y-57353687D01*
X82591804Y-57366000D01*
X82508196Y-57366000D01*
X82383179Y-57353687D01*
X82383176Y-57353686D01*
X82383175Y-57353686D01*
X82222761Y-57305025D01*
X82222759Y-57305024D01*
X82222756Y-57305023D01*
X82074922Y-57226005D01*
X81945341Y-57119659D01*
X81838995Y-56990078D01*
X81759977Y-56842244D01*
X81714288Y-56691627D01*
X81711314Y-56681825D01*
X81711314Y-56681824D01*
X81711313Y-56681821D01*
X81694883Y-56515000D01*
X81711313Y-56348179D01*
X81714287Y-56338375D01*
X81759975Y-56187761D01*
X81759976Y-56187759D01*
X81759977Y-56187756D01*
X81838995Y-56039922D01*
X81945341Y-55910341D01*
X82074922Y-55803995D01*
X82222756Y-55724977D01*
X82222759Y-55724976D01*
X82222761Y-55724975D01*
X82383175Y-55676314D01*
X82383176Y-55676314D01*
X82383179Y-55676313D01*
X82508196Y-55664000D01*
X82591804Y-55664000D01*
X82716821Y-55676313D01*
X82716821Y-55676313D01*
G37*
G36*
X66841821Y-55676313D02*
X66841824Y-55676314D01*
X66841825Y-55676314D01*
X67002239Y-55724975D01*
X67002241Y-55724976D01*
X67002244Y-55724977D01*
X67150078Y-55803995D01*
X67279659Y-55910341D01*
X67386005Y-56039922D01*
X67465023Y-56187756D01*
X67465024Y-56187759D01*
X67465025Y-56187761D01*
X67510713Y-56338375D01*
X67513687Y-56348179D01*
X67530117Y-56515000D01*
X67513687Y-56681821D01*
X67513686Y-56681824D01*
X67513686Y-56681825D01*
X67510713Y-56691627D01*
X67465023Y-56842244D01*
X67386005Y-56990078D01*
X67279659Y-57119659D01*
X67150078Y-57226005D01*
X67002244Y-57305023D01*
X67002241Y-57305024D01*
X67002239Y-57305025D01*
X66841825Y-57353686D01*
X66841824Y-57353686D01*
X66841821Y-57353687D01*
X66716804Y-57366000D01*
X66633196Y-57366000D01*
X66508179Y-57353687D01*
X66508176Y-57353686D01*
X66508175Y-57353686D01*
X66347761Y-57305025D01*
X66347759Y-57305024D01*
X66347756Y-57305023D01*
X66199922Y-57226005D01*
X66070341Y-57119659D01*
X65963995Y-56990078D01*
X65884977Y-56842244D01*
X65839288Y-56691627D01*
X65836314Y-56681825D01*
X65836314Y-56681824D01*
X65836313Y-56681821D01*
X65819883Y-56515000D01*
X65836313Y-56348179D01*
X65839287Y-56338375D01*
X65884975Y-56187761D01*
X65884976Y-56187759D01*
X65884977Y-56187756D01*
X65963995Y-56039922D01*
X66070341Y-55910341D01*
X66199922Y-55803995D01*
X66347756Y-55724977D01*
X66347759Y-55724976D01*
X66347761Y-55724975D01*
X66508175Y-55676314D01*
X66508176Y-55676314D01*
X66508179Y-55676313D01*
X66633196Y-55664000D01*
X66716804Y-55664000D01*
X66841821Y-55676313D01*
X66841821Y-55676313D01*
G37*
G36*
X97900442Y-53080518D02*
X97966627Y-53087037D01*
X98079853Y-53121384D01*
X98136467Y-53138557D01*
X98223311Y-53184977D01*
X98292991Y-53222222D01*
X98328729Y-53251552D01*
X98430186Y-53334814D01*
X98513448Y-53436271D01*
X98542778Y-53472009D01*
X98542779Y-53472011D01*
X98626443Y-53628533D01*
X98643616Y-53685147D01*
X98677963Y-53798373D01*
X98695359Y-53975000D01*
X98677963Y-54151627D01*
X98643616Y-54264853D01*
X98626443Y-54321467D01*
X98557698Y-54450078D01*
X98542778Y-54477991D01*
X98513448Y-54513729D01*
X98430186Y-54615186D01*
X98328729Y-54698448D01*
X98292991Y-54727778D01*
X98292989Y-54727779D01*
X98136467Y-54811443D01*
X98129069Y-54813687D01*
X97966627Y-54862963D01*
X97900443Y-54869481D01*
X97834260Y-54876000D01*
X97745740Y-54876000D01*
X97679557Y-54869481D01*
X97613373Y-54862963D01*
X97450931Y-54813687D01*
X97443533Y-54811443D01*
X97287011Y-54727779D01*
X97287009Y-54727778D01*
X97251271Y-54698448D01*
X97149814Y-54615186D01*
X97066552Y-54513729D01*
X97037222Y-54477991D01*
X97022302Y-54450078D01*
X96953557Y-54321467D01*
X96936384Y-54264853D01*
X96902037Y-54151627D01*
X96884641Y-53975000D01*
X96902037Y-53798373D01*
X96936384Y-53685147D01*
X96953557Y-53628533D01*
X97037221Y-53472011D01*
X97037222Y-53472009D01*
X97066552Y-53436271D01*
X97149814Y-53334814D01*
X97251271Y-53251552D01*
X97287009Y-53222222D01*
X97356689Y-53184977D01*
X97443533Y-53138557D01*
X97500147Y-53121384D01*
X97613373Y-53087037D01*
X97679558Y-53080518D01*
X97745740Y-53074000D01*
X97834260Y-53074000D01*
X97900442Y-53080518D01*
X97900442Y-53080518D01*
G37*
G36*
X55511000Y-54876000D02*
X53709000Y-54876000D01*
X53709000Y-53074000D01*
X55511000Y-53074000D01*
X55511000Y-54876000D01*
X55511000Y-54876000D01*
G37*
G36*
X82716821Y-53136313D02*
X82716824Y-53136314D01*
X82716825Y-53136314D01*
X82877239Y-53184975D01*
X82877241Y-53184976D01*
X82877244Y-53184977D01*
X83025078Y-53263995D01*
X83154659Y-53370341D01*
X83261005Y-53499922D01*
X83340023Y-53647756D01*
X83340024Y-53647759D01*
X83340025Y-53647761D01*
X83385713Y-53798375D01*
X83388687Y-53808179D01*
X83405117Y-53975000D01*
X83388687Y-54141821D01*
X83388686Y-54141824D01*
X83388686Y-54141825D01*
X83385713Y-54151627D01*
X83340023Y-54302244D01*
X83261005Y-54450078D01*
X83154659Y-54579659D01*
X83025078Y-54686005D01*
X82877244Y-54765023D01*
X82877241Y-54765024D01*
X82877239Y-54765025D01*
X82716825Y-54813686D01*
X82716824Y-54813686D01*
X82716821Y-54813687D01*
X82591804Y-54826000D01*
X82508196Y-54826000D01*
X82383179Y-54813687D01*
X82383176Y-54813686D01*
X82383175Y-54813686D01*
X82222761Y-54765025D01*
X82222759Y-54765024D01*
X82222756Y-54765023D01*
X82074922Y-54686005D01*
X81945341Y-54579659D01*
X81838995Y-54450078D01*
X81759977Y-54302244D01*
X81714288Y-54151627D01*
X81711314Y-54141825D01*
X81711314Y-54141824D01*
X81711313Y-54141821D01*
X81694883Y-53975000D01*
X81711313Y-53808179D01*
X81714287Y-53798375D01*
X81759975Y-53647761D01*
X81759976Y-53647759D01*
X81759977Y-53647756D01*
X81838995Y-53499922D01*
X81945341Y-53370341D01*
X82074922Y-53263995D01*
X82222756Y-53184977D01*
X82222759Y-53184976D01*
X82222761Y-53184975D01*
X82383175Y-53136314D01*
X82383176Y-53136314D01*
X82383179Y-53136313D01*
X82508196Y-53124000D01*
X82591804Y-53124000D01*
X82716821Y-53136313D01*
X82716821Y-53136313D01*
G37*
G36*
X74461821Y-53136313D02*
X74461824Y-53136314D01*
X74461825Y-53136314D01*
X74622239Y-53184975D01*
X74622241Y-53184976D01*
X74622244Y-53184977D01*
X74770078Y-53263995D01*
X74899659Y-53370341D01*
X75006005Y-53499922D01*
X75085023Y-53647756D01*
X75085024Y-53647759D01*
X75085025Y-53647761D01*
X75130713Y-53798375D01*
X75133687Y-53808179D01*
X75150117Y-53975000D01*
X75133687Y-54141821D01*
X75133686Y-54141824D01*
X75133686Y-54141825D01*
X75130713Y-54151627D01*
X75085023Y-54302244D01*
X75006005Y-54450078D01*
X74899659Y-54579659D01*
X74770078Y-54686005D01*
X74622244Y-54765023D01*
X74622241Y-54765024D01*
X74622239Y-54765025D01*
X74461825Y-54813686D01*
X74461824Y-54813686D01*
X74461821Y-54813687D01*
X74336804Y-54826000D01*
X74253196Y-54826000D01*
X74128179Y-54813687D01*
X74128176Y-54813686D01*
X74128175Y-54813686D01*
X73967761Y-54765025D01*
X73967759Y-54765024D01*
X73967756Y-54765023D01*
X73819922Y-54686005D01*
X73690341Y-54579659D01*
X73583995Y-54450078D01*
X73504977Y-54302244D01*
X73459288Y-54151627D01*
X73456314Y-54141825D01*
X73456314Y-54141824D01*
X73456313Y-54141821D01*
X73439883Y-53975000D01*
X73456313Y-53808179D01*
X73459287Y-53798375D01*
X73504975Y-53647761D01*
X73504976Y-53647759D01*
X73504977Y-53647756D01*
X73583995Y-53499922D01*
X73690341Y-53370341D01*
X73819922Y-53263995D01*
X73967756Y-53184977D01*
X73967759Y-53184976D01*
X73967761Y-53184975D01*
X74128175Y-53136314D01*
X74128176Y-53136314D01*
X74128179Y-53136313D01*
X74253196Y-53124000D01*
X74336804Y-53124000D01*
X74461821Y-53136313D01*
X74461821Y-53136313D01*
G37*
G36*
X90336821Y-53136313D02*
X90336824Y-53136314D01*
X90336825Y-53136314D01*
X90497239Y-53184975D01*
X90497241Y-53184976D01*
X90497244Y-53184977D01*
X90645078Y-53263995D01*
X90774659Y-53370341D01*
X90881005Y-53499922D01*
X90960023Y-53647756D01*
X90960024Y-53647759D01*
X90960025Y-53647761D01*
X91005713Y-53798375D01*
X91008687Y-53808179D01*
X91025117Y-53975000D01*
X91008687Y-54141821D01*
X91008686Y-54141824D01*
X91008686Y-54141825D01*
X91005713Y-54151627D01*
X90960023Y-54302244D01*
X90881005Y-54450078D01*
X90774659Y-54579659D01*
X90645078Y-54686005D01*
X90497244Y-54765023D01*
X90497241Y-54765024D01*
X90497239Y-54765025D01*
X90336825Y-54813686D01*
X90336824Y-54813686D01*
X90336821Y-54813687D01*
X90211804Y-54826000D01*
X90128196Y-54826000D01*
X90003179Y-54813687D01*
X90003176Y-54813686D01*
X90003175Y-54813686D01*
X89842761Y-54765025D01*
X89842759Y-54765024D01*
X89842756Y-54765023D01*
X89694922Y-54686005D01*
X89565341Y-54579659D01*
X89458995Y-54450078D01*
X89379977Y-54302244D01*
X89334288Y-54151627D01*
X89331314Y-54141825D01*
X89331314Y-54141824D01*
X89331313Y-54141821D01*
X89314883Y-53975000D01*
X89331313Y-53808179D01*
X89334287Y-53798375D01*
X89379975Y-53647761D01*
X89379976Y-53647759D01*
X89379977Y-53647756D01*
X89458995Y-53499922D01*
X89565341Y-53370341D01*
X89694922Y-53263995D01*
X89842756Y-53184977D01*
X89842759Y-53184976D01*
X89842761Y-53184975D01*
X90003175Y-53136314D01*
X90003176Y-53136314D01*
X90003179Y-53136313D01*
X90128196Y-53124000D01*
X90211804Y-53124000D01*
X90336821Y-53136313D01*
X90336821Y-53136313D01*
G37*
G36*
X66841821Y-53136313D02*
X66841824Y-53136314D01*
X66841825Y-53136314D01*
X67002239Y-53184975D01*
X67002241Y-53184976D01*
X67002244Y-53184977D01*
X67150078Y-53263995D01*
X67279659Y-53370341D01*
X67386005Y-53499922D01*
X67465023Y-53647756D01*
X67465024Y-53647759D01*
X67465025Y-53647761D01*
X67510713Y-53798375D01*
X67513687Y-53808179D01*
X67530117Y-53975000D01*
X67513687Y-54141821D01*
X67513686Y-54141824D01*
X67513686Y-54141825D01*
X67510713Y-54151627D01*
X67465023Y-54302244D01*
X67386005Y-54450078D01*
X67279659Y-54579659D01*
X67150078Y-54686005D01*
X67002244Y-54765023D01*
X67002241Y-54765024D01*
X67002239Y-54765025D01*
X66841825Y-54813686D01*
X66841824Y-54813686D01*
X66841821Y-54813687D01*
X66716804Y-54826000D01*
X66633196Y-54826000D01*
X66508179Y-54813687D01*
X66508176Y-54813686D01*
X66508175Y-54813686D01*
X66347761Y-54765025D01*
X66347759Y-54765024D01*
X66347756Y-54765023D01*
X66199922Y-54686005D01*
X66070341Y-54579659D01*
X65963995Y-54450078D01*
X65884977Y-54302244D01*
X65839288Y-54151627D01*
X65836314Y-54141825D01*
X65836314Y-54141824D01*
X65836313Y-54141821D01*
X65819883Y-53975000D01*
X65836313Y-53808179D01*
X65839287Y-53798375D01*
X65884975Y-53647761D01*
X65884976Y-53647759D01*
X65884977Y-53647756D01*
X65963995Y-53499922D01*
X66070341Y-53370341D01*
X66199922Y-53263995D01*
X66347756Y-53184977D01*
X66347759Y-53184976D01*
X66347761Y-53184975D01*
X66508175Y-53136314D01*
X66508176Y-53136314D01*
X66508179Y-53136313D01*
X66633196Y-53124000D01*
X66716804Y-53124000D01*
X66841821Y-53136313D01*
X66841821Y-53136313D01*
G37*
G36*
X97900442Y-50540518D02*
X97966627Y-50547037D01*
X98079853Y-50581384D01*
X98136467Y-50598557D01*
X98223311Y-50644977D01*
X98292991Y-50682222D01*
X98328729Y-50711552D01*
X98430186Y-50794814D01*
X98513448Y-50896271D01*
X98542778Y-50932009D01*
X98542779Y-50932011D01*
X98626443Y-51088533D01*
X98643616Y-51145147D01*
X98677963Y-51258373D01*
X98695359Y-51435000D01*
X98677963Y-51611627D01*
X98643616Y-51724853D01*
X98626443Y-51781467D01*
X98557698Y-51910078D01*
X98542778Y-51937991D01*
X98513448Y-51973729D01*
X98430186Y-52075186D01*
X98328729Y-52158448D01*
X98292991Y-52187778D01*
X98292989Y-52187779D01*
X98136467Y-52271443D01*
X98129069Y-52273687D01*
X97966627Y-52322963D01*
X97900443Y-52329481D01*
X97834260Y-52336000D01*
X97745740Y-52336000D01*
X97679558Y-52329482D01*
X97613373Y-52322963D01*
X97450931Y-52273687D01*
X97443533Y-52271443D01*
X97287011Y-52187779D01*
X97287009Y-52187778D01*
X97251271Y-52158448D01*
X97149814Y-52075186D01*
X97066552Y-51973729D01*
X97037222Y-51937991D01*
X97022302Y-51910078D01*
X96953557Y-51781467D01*
X96936384Y-51724853D01*
X96902037Y-51611627D01*
X96884641Y-51435000D01*
X96902037Y-51258373D01*
X96936384Y-51145147D01*
X96953557Y-51088533D01*
X97037221Y-50932011D01*
X97037222Y-50932009D01*
X97066552Y-50896271D01*
X97149814Y-50794814D01*
X97251271Y-50711552D01*
X97287009Y-50682222D01*
X97356689Y-50644977D01*
X97443533Y-50598557D01*
X97500147Y-50581384D01*
X97613373Y-50547037D01*
X97679558Y-50540518D01*
X97745740Y-50534000D01*
X97834260Y-50534000D01*
X97900442Y-50540518D01*
X97900442Y-50540518D01*
G37*
G36*
X90336821Y-50596313D02*
X90336824Y-50596314D01*
X90336825Y-50596314D01*
X90497239Y-50644975D01*
X90497241Y-50644976D01*
X90497244Y-50644977D01*
X90645078Y-50723995D01*
X90774659Y-50830341D01*
X90881005Y-50959922D01*
X90960023Y-51107756D01*
X90960024Y-51107759D01*
X90960025Y-51107761D01*
X91005713Y-51258375D01*
X91008687Y-51268179D01*
X91025117Y-51435000D01*
X91008687Y-51601821D01*
X91008686Y-51601824D01*
X91008686Y-51601825D01*
X91005713Y-51611627D01*
X90960023Y-51762244D01*
X90881005Y-51910078D01*
X90774659Y-52039659D01*
X90645078Y-52146005D01*
X90497244Y-52225023D01*
X90497241Y-52225024D01*
X90497239Y-52225025D01*
X90336825Y-52273686D01*
X90336824Y-52273686D01*
X90336821Y-52273687D01*
X90211804Y-52286000D01*
X90128196Y-52286000D01*
X90003179Y-52273687D01*
X90003176Y-52273686D01*
X90003175Y-52273686D01*
X89842761Y-52225025D01*
X89842759Y-52225024D01*
X89842756Y-52225023D01*
X89694922Y-52146005D01*
X89565341Y-52039659D01*
X89458995Y-51910078D01*
X89379977Y-51762244D01*
X89334288Y-51611627D01*
X89331314Y-51601825D01*
X89331314Y-51601824D01*
X89331313Y-51601821D01*
X89314883Y-51435000D01*
X89331313Y-51268179D01*
X89334287Y-51258375D01*
X89379975Y-51107761D01*
X89379976Y-51107759D01*
X89379977Y-51107756D01*
X89458995Y-50959922D01*
X89565341Y-50830341D01*
X89694922Y-50723995D01*
X89842756Y-50644977D01*
X89842759Y-50644976D01*
X89842761Y-50644975D01*
X90003175Y-50596314D01*
X90003176Y-50596314D01*
X90003179Y-50596313D01*
X90128196Y-50584000D01*
X90211804Y-50584000D01*
X90336821Y-50596313D01*
X90336821Y-50596313D01*
G37*
G36*
X74461821Y-50596313D02*
X74461824Y-50596314D01*
X74461825Y-50596314D01*
X74622239Y-50644975D01*
X74622241Y-50644976D01*
X74622244Y-50644977D01*
X74770078Y-50723995D01*
X74899659Y-50830341D01*
X75006005Y-50959922D01*
X75085023Y-51107756D01*
X75085024Y-51107759D01*
X75085025Y-51107761D01*
X75130713Y-51258375D01*
X75133687Y-51268179D01*
X75150117Y-51435000D01*
X75133687Y-51601821D01*
X75133686Y-51601824D01*
X75133686Y-51601825D01*
X75130713Y-51611627D01*
X75085023Y-51762244D01*
X75006005Y-51910078D01*
X74899659Y-52039659D01*
X74770078Y-52146005D01*
X74622244Y-52225023D01*
X74622241Y-52225024D01*
X74622239Y-52225025D01*
X74461825Y-52273686D01*
X74461824Y-52273686D01*
X74461821Y-52273687D01*
X74336804Y-52286000D01*
X74253196Y-52286000D01*
X74128179Y-52273687D01*
X74128176Y-52273686D01*
X74128175Y-52273686D01*
X73967761Y-52225025D01*
X73967759Y-52225024D01*
X73967756Y-52225023D01*
X73819922Y-52146005D01*
X73690341Y-52039659D01*
X73583995Y-51910078D01*
X73504977Y-51762244D01*
X73459288Y-51611627D01*
X73456314Y-51601825D01*
X73456314Y-51601824D01*
X73456313Y-51601821D01*
X73439883Y-51435000D01*
X73456313Y-51268179D01*
X73459287Y-51258375D01*
X73504975Y-51107761D01*
X73504976Y-51107759D01*
X73504977Y-51107756D01*
X73583995Y-50959922D01*
X73690341Y-50830341D01*
X73819922Y-50723995D01*
X73967756Y-50644977D01*
X73967759Y-50644976D01*
X73967761Y-50644975D01*
X74128175Y-50596314D01*
X74128176Y-50596314D01*
X74128179Y-50596313D01*
X74253196Y-50584000D01*
X74336804Y-50584000D01*
X74461821Y-50596313D01*
X74461821Y-50596313D01*
G37*
G36*
X66841821Y-50596313D02*
X66841824Y-50596314D01*
X66841825Y-50596314D01*
X67002239Y-50644975D01*
X67002241Y-50644976D01*
X67002244Y-50644977D01*
X67150078Y-50723995D01*
X67279659Y-50830341D01*
X67386005Y-50959922D01*
X67465023Y-51107756D01*
X67465024Y-51107759D01*
X67465025Y-51107761D01*
X67510713Y-51258375D01*
X67513687Y-51268179D01*
X67530117Y-51435000D01*
X67513687Y-51601821D01*
X67513686Y-51601824D01*
X67513686Y-51601825D01*
X67510713Y-51611627D01*
X67465023Y-51762244D01*
X67386005Y-51910078D01*
X67279659Y-52039659D01*
X67150078Y-52146005D01*
X67002244Y-52225023D01*
X67002241Y-52225024D01*
X67002239Y-52225025D01*
X66841825Y-52273686D01*
X66841824Y-52273686D01*
X66841821Y-52273687D01*
X66716804Y-52286000D01*
X66633196Y-52286000D01*
X66508179Y-52273687D01*
X66508176Y-52273686D01*
X66508175Y-52273686D01*
X66347761Y-52225025D01*
X66347759Y-52225024D01*
X66347756Y-52225023D01*
X66199922Y-52146005D01*
X66070341Y-52039659D01*
X65963995Y-51910078D01*
X65884977Y-51762244D01*
X65839288Y-51611627D01*
X65836314Y-51601825D01*
X65836314Y-51601824D01*
X65836313Y-51601821D01*
X65819883Y-51435000D01*
X65836313Y-51268179D01*
X65839287Y-51258375D01*
X65884975Y-51107761D01*
X65884976Y-51107759D01*
X65884977Y-51107756D01*
X65963995Y-50959922D01*
X66070341Y-50830341D01*
X66199922Y-50723995D01*
X66347756Y-50644977D01*
X66347759Y-50644976D01*
X66347761Y-50644975D01*
X66508175Y-50596314D01*
X66508176Y-50596314D01*
X66508179Y-50596313D01*
X66633196Y-50584000D01*
X66716804Y-50584000D01*
X66841821Y-50596313D01*
X66841821Y-50596313D01*
G37*
G36*
X82716821Y-50596313D02*
X82716824Y-50596314D01*
X82716825Y-50596314D01*
X82877239Y-50644975D01*
X82877241Y-50644976D01*
X82877244Y-50644977D01*
X83025078Y-50723995D01*
X83154659Y-50830341D01*
X83261005Y-50959922D01*
X83340023Y-51107756D01*
X83340024Y-51107759D01*
X83340025Y-51107761D01*
X83385713Y-51258375D01*
X83388687Y-51268179D01*
X83405117Y-51435000D01*
X83388687Y-51601821D01*
X83388686Y-51601824D01*
X83388686Y-51601825D01*
X83385713Y-51611627D01*
X83340023Y-51762244D01*
X83261005Y-51910078D01*
X83154659Y-52039659D01*
X83025078Y-52146005D01*
X82877244Y-52225023D01*
X82877241Y-52225024D01*
X82877239Y-52225025D01*
X82716825Y-52273686D01*
X82716824Y-52273686D01*
X82716821Y-52273687D01*
X82591804Y-52286000D01*
X82508196Y-52286000D01*
X82383179Y-52273687D01*
X82383176Y-52273686D01*
X82383175Y-52273686D01*
X82222761Y-52225025D01*
X82222759Y-52225024D01*
X82222756Y-52225023D01*
X82074922Y-52146005D01*
X81945341Y-52039659D01*
X81838995Y-51910078D01*
X81759977Y-51762244D01*
X81714288Y-51611627D01*
X81711314Y-51601825D01*
X81711314Y-51601824D01*
X81711313Y-51601821D01*
X81694883Y-51435000D01*
X81711313Y-51268179D01*
X81714287Y-51258375D01*
X81759975Y-51107761D01*
X81759976Y-51107759D01*
X81759977Y-51107756D01*
X81838995Y-50959922D01*
X81945341Y-50830341D01*
X82074922Y-50723995D01*
X82222756Y-50644977D01*
X82222759Y-50644976D01*
X82222761Y-50644975D01*
X82383175Y-50596314D01*
X82383176Y-50596314D01*
X82383179Y-50596313D01*
X82508196Y-50584000D01*
X82591804Y-50584000D01*
X82716821Y-50596313D01*
X82716821Y-50596313D01*
G37*
G36*
X97900442Y-48000518D02*
X97966627Y-48007037D01*
X98079853Y-48041384D01*
X98136467Y-48058557D01*
X98223311Y-48104977D01*
X98292991Y-48142222D01*
X98328729Y-48171552D01*
X98430186Y-48254814D01*
X98513448Y-48356271D01*
X98542778Y-48392009D01*
X98542779Y-48392011D01*
X98626443Y-48548533D01*
X98643616Y-48605147D01*
X98677963Y-48718373D01*
X98695359Y-48895000D01*
X98677963Y-49071627D01*
X98643616Y-49184853D01*
X98626443Y-49241467D01*
X98557698Y-49370078D01*
X98542778Y-49397991D01*
X98513448Y-49433729D01*
X98430186Y-49535186D01*
X98328729Y-49618448D01*
X98292991Y-49647778D01*
X98292989Y-49647779D01*
X98136467Y-49731443D01*
X98129069Y-49733687D01*
X97966627Y-49782963D01*
X97900443Y-49789481D01*
X97834260Y-49796000D01*
X97745740Y-49796000D01*
X97679557Y-49789481D01*
X97613373Y-49782963D01*
X97450931Y-49733687D01*
X97443533Y-49731443D01*
X97287011Y-49647779D01*
X97287009Y-49647778D01*
X97251271Y-49618448D01*
X97149814Y-49535186D01*
X97066552Y-49433729D01*
X97037222Y-49397991D01*
X97022302Y-49370078D01*
X96953557Y-49241467D01*
X96936384Y-49184853D01*
X96902037Y-49071627D01*
X96884641Y-48895000D01*
X96902037Y-48718373D01*
X96936384Y-48605147D01*
X96953557Y-48548533D01*
X97037221Y-48392011D01*
X97037222Y-48392009D01*
X97066552Y-48356271D01*
X97149814Y-48254814D01*
X97251271Y-48171552D01*
X97287009Y-48142222D01*
X97356689Y-48104977D01*
X97443533Y-48058557D01*
X97500147Y-48041384D01*
X97613373Y-48007037D01*
X97679557Y-48000519D01*
X97745740Y-47994000D01*
X97834260Y-47994000D01*
X97900442Y-48000518D01*
X97900442Y-48000518D01*
G37*
G36*
X90336821Y-48056313D02*
X90336824Y-48056314D01*
X90336825Y-48056314D01*
X90497239Y-48104975D01*
X90497241Y-48104976D01*
X90497244Y-48104977D01*
X90645078Y-48183995D01*
X90774659Y-48290341D01*
X90881005Y-48419922D01*
X90960023Y-48567756D01*
X90960024Y-48567759D01*
X90960025Y-48567761D01*
X91005713Y-48718375D01*
X91008687Y-48728179D01*
X91025117Y-48895000D01*
X91008687Y-49061821D01*
X91008686Y-49061824D01*
X91008686Y-49061825D01*
X91005713Y-49071627D01*
X90960023Y-49222244D01*
X90881005Y-49370078D01*
X90774659Y-49499659D01*
X90645078Y-49606005D01*
X90497244Y-49685023D01*
X90497241Y-49685024D01*
X90497239Y-49685025D01*
X90336825Y-49733686D01*
X90336824Y-49733686D01*
X90336821Y-49733687D01*
X90211804Y-49746000D01*
X90128196Y-49746000D01*
X90003179Y-49733687D01*
X90003176Y-49733686D01*
X90003175Y-49733686D01*
X89842761Y-49685025D01*
X89842759Y-49685024D01*
X89842756Y-49685023D01*
X89694922Y-49606005D01*
X89565341Y-49499659D01*
X89458995Y-49370078D01*
X89379977Y-49222244D01*
X89334288Y-49071627D01*
X89331314Y-49061825D01*
X89331314Y-49061824D01*
X89331313Y-49061821D01*
X89314883Y-48895000D01*
X89331313Y-48728179D01*
X89334287Y-48718375D01*
X89379975Y-48567761D01*
X89379976Y-48567759D01*
X89379977Y-48567756D01*
X89458995Y-48419922D01*
X89565341Y-48290341D01*
X89694922Y-48183995D01*
X89842756Y-48104977D01*
X89842759Y-48104976D01*
X89842761Y-48104975D01*
X90003175Y-48056314D01*
X90003176Y-48056314D01*
X90003179Y-48056313D01*
X90128196Y-48044000D01*
X90211804Y-48044000D01*
X90336821Y-48056313D01*
X90336821Y-48056313D01*
G37*
G36*
X67526000Y-49746000D02*
X65824000Y-49746000D01*
X65824000Y-48044000D01*
X67526000Y-48044000D01*
X67526000Y-49746000D01*
X67526000Y-49746000D01*
G37*
G36*
X74461821Y-48056313D02*
X74461824Y-48056314D01*
X74461825Y-48056314D01*
X74622239Y-48104975D01*
X74622241Y-48104976D01*
X74622244Y-48104977D01*
X74770078Y-48183995D01*
X74899659Y-48290341D01*
X75006005Y-48419922D01*
X75085023Y-48567756D01*
X75085024Y-48567759D01*
X75085025Y-48567761D01*
X75130713Y-48718375D01*
X75133687Y-48728179D01*
X75150117Y-48895000D01*
X75133687Y-49061821D01*
X75133686Y-49061824D01*
X75133686Y-49061825D01*
X75130713Y-49071627D01*
X75085023Y-49222244D01*
X75006005Y-49370078D01*
X74899659Y-49499659D01*
X74770078Y-49606005D01*
X74622244Y-49685023D01*
X74622241Y-49685024D01*
X74622239Y-49685025D01*
X74461825Y-49733686D01*
X74461824Y-49733686D01*
X74461821Y-49733687D01*
X74336804Y-49746000D01*
X74253196Y-49746000D01*
X74128179Y-49733687D01*
X74128176Y-49733686D01*
X74128175Y-49733686D01*
X73967761Y-49685025D01*
X73967759Y-49685024D01*
X73967756Y-49685023D01*
X73819922Y-49606005D01*
X73690341Y-49499659D01*
X73583995Y-49370078D01*
X73504977Y-49222244D01*
X73459288Y-49071627D01*
X73456314Y-49061825D01*
X73456314Y-49061824D01*
X73456313Y-49061821D01*
X73439883Y-48895000D01*
X73456313Y-48728179D01*
X73459287Y-48718375D01*
X73504975Y-48567761D01*
X73504976Y-48567759D01*
X73504977Y-48567756D01*
X73583995Y-48419922D01*
X73690341Y-48290341D01*
X73819922Y-48183995D01*
X73967756Y-48104977D01*
X73967759Y-48104976D01*
X73967761Y-48104975D01*
X74128175Y-48056314D01*
X74128176Y-48056314D01*
X74128179Y-48056313D01*
X74253196Y-48044000D01*
X74336804Y-48044000D01*
X74461821Y-48056313D01*
X74461821Y-48056313D01*
G37*
G36*
X83401000Y-49746000D02*
X81699000Y-49746000D01*
X81699000Y-48044000D01*
X83401000Y-48044000D01*
X83401000Y-49746000D01*
X83401000Y-49746000D01*
G37*
G36*
X97900443Y-45460519D02*
X97966627Y-45467037D01*
X98079853Y-45501384D01*
X98136467Y-45518557D01*
X98275087Y-45592652D01*
X98292991Y-45602222D01*
X98328729Y-45631552D01*
X98430186Y-45714814D01*
X98513448Y-45816271D01*
X98542778Y-45852009D01*
X98542779Y-45852011D01*
X98626443Y-46008533D01*
X98626443Y-46008534D01*
X98677963Y-46178373D01*
X98695359Y-46355000D01*
X98677963Y-46531627D01*
X98643616Y-46644853D01*
X98626443Y-46701467D01*
X98552348Y-46840087D01*
X98542778Y-46857991D01*
X98513448Y-46893729D01*
X98430186Y-46995186D01*
X98328729Y-47078448D01*
X98292991Y-47107778D01*
X98292989Y-47107779D01*
X98136467Y-47191443D01*
X98079853Y-47208616D01*
X97966627Y-47242963D01*
X97900442Y-47249482D01*
X97834260Y-47256000D01*
X97745740Y-47256000D01*
X97679558Y-47249482D01*
X97613373Y-47242963D01*
X97500147Y-47208616D01*
X97443533Y-47191443D01*
X97287011Y-47107779D01*
X97287009Y-47107778D01*
X97251271Y-47078448D01*
X97149814Y-46995186D01*
X97066552Y-46893729D01*
X97037222Y-46857991D01*
X97027652Y-46840087D01*
X96953557Y-46701467D01*
X96936384Y-46644853D01*
X96902037Y-46531627D01*
X96884641Y-46355000D01*
X96902037Y-46178373D01*
X96953557Y-46008534D01*
X96953557Y-46008533D01*
X97037221Y-45852011D01*
X97037222Y-45852009D01*
X97066552Y-45816271D01*
X97149814Y-45714814D01*
X97251271Y-45631552D01*
X97287009Y-45602222D01*
X97304913Y-45592652D01*
X97443533Y-45518557D01*
X97500147Y-45501384D01*
X97613373Y-45467037D01*
X97679557Y-45460519D01*
X97745740Y-45454000D01*
X97834260Y-45454000D01*
X97900443Y-45460519D01*
X97900443Y-45460519D01*
G37*
G36*
X97900443Y-42920519D02*
X97966627Y-42927037D01*
X98079853Y-42961384D01*
X98136467Y-42978557D01*
X98223311Y-43024977D01*
X98292991Y-43062222D01*
X98328729Y-43091552D01*
X98430186Y-43174814D01*
X98513448Y-43276271D01*
X98542778Y-43312009D01*
X98542779Y-43312011D01*
X98626443Y-43468533D01*
X98643616Y-43525147D01*
X98677963Y-43638373D01*
X98695359Y-43815000D01*
X98677963Y-43991627D01*
X98643616Y-44104853D01*
X98626443Y-44161467D01*
X98557698Y-44290078D01*
X98542778Y-44317991D01*
X98513448Y-44353729D01*
X98430186Y-44455186D01*
X98328729Y-44538448D01*
X98292991Y-44567778D01*
X98292989Y-44567779D01*
X98136467Y-44651443D01*
X98129069Y-44653687D01*
X97966627Y-44702963D01*
X97900443Y-44709481D01*
X97834260Y-44716000D01*
X97745740Y-44716000D01*
X97679557Y-44709481D01*
X97613373Y-44702963D01*
X97450931Y-44653687D01*
X97443533Y-44651443D01*
X97287011Y-44567779D01*
X97287009Y-44567778D01*
X97251271Y-44538448D01*
X97149814Y-44455186D01*
X97066552Y-44353729D01*
X97037222Y-44317991D01*
X97022302Y-44290078D01*
X96953557Y-44161467D01*
X96936384Y-44104853D01*
X96902037Y-43991627D01*
X96884641Y-43815000D01*
X96902037Y-43638373D01*
X96936384Y-43525147D01*
X96953557Y-43468533D01*
X97037221Y-43312011D01*
X97037222Y-43312009D01*
X97066552Y-43276271D01*
X97149814Y-43174814D01*
X97251271Y-43091552D01*
X97287009Y-43062222D01*
X97356689Y-43024977D01*
X97443533Y-42978557D01*
X97500147Y-42961384D01*
X97613373Y-42927037D01*
X97679557Y-42920519D01*
X97745740Y-42914000D01*
X97834260Y-42914000D01*
X97900443Y-42920519D01*
X97900443Y-42920519D01*
G37*
G36*
X54776821Y-42976313D02*
X54776824Y-42976314D01*
X54776825Y-42976314D01*
X54937239Y-43024975D01*
X54937241Y-43024976D01*
X54937244Y-43024977D01*
X55085078Y-43103995D01*
X55214659Y-43210341D01*
X55321005Y-43339922D01*
X55400023Y-43487756D01*
X55400024Y-43487759D01*
X55400025Y-43487761D01*
X55445713Y-43638375D01*
X55448687Y-43648179D01*
X55465117Y-43815000D01*
X55448687Y-43981821D01*
X55448686Y-43981824D01*
X55448686Y-43981825D01*
X55445713Y-43991627D01*
X55400023Y-44142244D01*
X55321005Y-44290078D01*
X55214659Y-44419659D01*
X55085078Y-44526005D01*
X54937244Y-44605023D01*
X54937241Y-44605024D01*
X54937239Y-44605025D01*
X54776825Y-44653686D01*
X54776824Y-44653686D01*
X54776821Y-44653687D01*
X54651804Y-44666000D01*
X54568196Y-44666000D01*
X54443179Y-44653687D01*
X54443176Y-44653686D01*
X54443175Y-44653686D01*
X54282761Y-44605025D01*
X54282759Y-44605024D01*
X54282756Y-44605023D01*
X54134922Y-44526005D01*
X54005341Y-44419659D01*
X53898995Y-44290078D01*
X53819977Y-44142244D01*
X53774288Y-43991627D01*
X53771314Y-43981825D01*
X53771314Y-43981824D01*
X53771313Y-43981821D01*
X53754883Y-43815000D01*
X53771313Y-43648179D01*
X53774287Y-43638375D01*
X53819975Y-43487761D01*
X53819976Y-43487759D01*
X53819977Y-43487756D01*
X53898995Y-43339922D01*
X54005341Y-43210341D01*
X54134922Y-43103995D01*
X54282756Y-43024977D01*
X54282759Y-43024976D01*
X54282761Y-43024975D01*
X54443175Y-42976314D01*
X54443176Y-42976314D01*
X54443179Y-42976313D01*
X54568196Y-42964000D01*
X54651804Y-42964000D01*
X54776821Y-42976313D01*
X54776821Y-42976313D01*
G37*
G36*
X62396821Y-42976313D02*
X62396824Y-42976314D01*
X62396825Y-42976314D01*
X62557239Y-43024975D01*
X62557241Y-43024976D01*
X62557244Y-43024977D01*
X62705078Y-43103995D01*
X62834659Y-43210341D01*
X62941005Y-43339922D01*
X63020023Y-43487756D01*
X63020024Y-43487759D01*
X63020025Y-43487761D01*
X63065713Y-43638375D01*
X63068687Y-43648179D01*
X63085117Y-43815000D01*
X63068687Y-43981821D01*
X63068686Y-43981824D01*
X63068686Y-43981825D01*
X63065713Y-43991627D01*
X63020023Y-44142244D01*
X62941005Y-44290078D01*
X62834659Y-44419659D01*
X62705078Y-44526005D01*
X62557244Y-44605023D01*
X62557241Y-44605024D01*
X62557239Y-44605025D01*
X62396825Y-44653686D01*
X62396824Y-44653686D01*
X62396821Y-44653687D01*
X62271804Y-44666000D01*
X62188196Y-44666000D01*
X62063179Y-44653687D01*
X62063176Y-44653686D01*
X62063175Y-44653686D01*
X61902761Y-44605025D01*
X61902759Y-44605024D01*
X61902756Y-44605023D01*
X61754922Y-44526005D01*
X61625341Y-44419659D01*
X61518995Y-44290078D01*
X61439977Y-44142244D01*
X61394288Y-43991627D01*
X61391314Y-43981825D01*
X61391314Y-43981824D01*
X61391313Y-43981821D01*
X61374883Y-43815000D01*
X61391313Y-43648179D01*
X61394287Y-43638375D01*
X61439975Y-43487761D01*
X61439976Y-43487759D01*
X61439977Y-43487756D01*
X61518995Y-43339922D01*
X61625341Y-43210341D01*
X61754922Y-43103995D01*
X61902756Y-43024977D01*
X61902759Y-43024976D01*
X61902761Y-43024975D01*
X62063175Y-42976314D01*
X62063176Y-42976314D01*
X62063179Y-42976313D01*
X62188196Y-42964000D01*
X62271804Y-42964000D01*
X62396821Y-42976313D01*
X62396821Y-42976313D01*
G37*
G36*
X97900443Y-40380519D02*
X97966627Y-40387037D01*
X98079853Y-40421384D01*
X98136467Y-40438557D01*
X98223311Y-40484977D01*
X98292991Y-40522222D01*
X98328729Y-40551552D01*
X98430186Y-40634814D01*
X98513448Y-40736271D01*
X98542778Y-40772009D01*
X98542779Y-40772011D01*
X98626443Y-40928533D01*
X98643616Y-40985147D01*
X98677963Y-41098373D01*
X98695359Y-41275000D01*
X98677963Y-41451627D01*
X98643616Y-41564853D01*
X98626443Y-41621467D01*
X98557698Y-41750078D01*
X98542778Y-41777991D01*
X98513448Y-41813729D01*
X98430186Y-41915186D01*
X98328729Y-41998448D01*
X98292991Y-42027778D01*
X98292989Y-42027779D01*
X98136467Y-42111443D01*
X98129069Y-42113687D01*
X97966627Y-42162963D01*
X97900443Y-42169481D01*
X97834260Y-42176000D01*
X97745740Y-42176000D01*
X97679557Y-42169481D01*
X97613373Y-42162963D01*
X97450931Y-42113687D01*
X97443533Y-42111443D01*
X97287011Y-42027779D01*
X97287009Y-42027778D01*
X97251271Y-41998448D01*
X97149814Y-41915186D01*
X97066552Y-41813729D01*
X97037222Y-41777991D01*
X97022302Y-41750078D01*
X96953557Y-41621467D01*
X96936384Y-41564853D01*
X96902037Y-41451627D01*
X96884641Y-41275000D01*
X96902037Y-41098373D01*
X96936384Y-40985147D01*
X96953557Y-40928533D01*
X97037221Y-40772011D01*
X97037222Y-40772009D01*
X97066552Y-40736271D01*
X97149814Y-40634814D01*
X97251271Y-40551552D01*
X97287009Y-40522222D01*
X97356689Y-40484977D01*
X97443533Y-40438557D01*
X97500147Y-40421384D01*
X97613373Y-40387037D01*
X97679557Y-40380519D01*
X97745740Y-40374000D01*
X97834260Y-40374000D01*
X97900443Y-40380519D01*
X97900443Y-40380519D01*
G37*
G36*
X62396821Y-40436313D02*
X62396824Y-40436314D01*
X62396825Y-40436314D01*
X62557239Y-40484975D01*
X62557241Y-40484976D01*
X62557244Y-40484977D01*
X62705078Y-40563995D01*
X62834659Y-40670341D01*
X62941005Y-40799922D01*
X63020023Y-40947756D01*
X63020024Y-40947759D01*
X63020025Y-40947761D01*
X63065713Y-41098375D01*
X63068687Y-41108179D01*
X63085117Y-41275000D01*
X63068687Y-41441821D01*
X63068686Y-41441824D01*
X63068686Y-41441825D01*
X63065713Y-41451627D01*
X63020023Y-41602244D01*
X62941005Y-41750078D01*
X62834659Y-41879659D01*
X62705078Y-41986005D01*
X62557244Y-42065023D01*
X62557241Y-42065024D01*
X62557239Y-42065025D01*
X62396825Y-42113686D01*
X62396824Y-42113686D01*
X62396821Y-42113687D01*
X62271804Y-42126000D01*
X62188196Y-42126000D01*
X62063179Y-42113687D01*
X62063176Y-42113686D01*
X62063175Y-42113686D01*
X61902761Y-42065025D01*
X61902759Y-42065024D01*
X61902756Y-42065023D01*
X61754922Y-41986005D01*
X61625341Y-41879659D01*
X61518995Y-41750078D01*
X61439977Y-41602244D01*
X61394288Y-41451627D01*
X61391314Y-41441825D01*
X61391314Y-41441824D01*
X61391313Y-41441821D01*
X61374883Y-41275000D01*
X61391313Y-41108179D01*
X61394287Y-41098375D01*
X61439975Y-40947761D01*
X61439976Y-40947759D01*
X61439977Y-40947756D01*
X61518995Y-40799922D01*
X61625341Y-40670341D01*
X61754922Y-40563995D01*
X61902756Y-40484977D01*
X61902759Y-40484976D01*
X61902761Y-40484975D01*
X62063175Y-40436314D01*
X62063176Y-40436314D01*
X62063179Y-40436313D01*
X62188196Y-40424000D01*
X62271804Y-40424000D01*
X62396821Y-40436313D01*
X62396821Y-40436313D01*
G37*
G36*
X54776821Y-40436313D02*
X54776824Y-40436314D01*
X54776825Y-40436314D01*
X54937239Y-40484975D01*
X54937241Y-40484976D01*
X54937244Y-40484977D01*
X55085078Y-40563995D01*
X55214659Y-40670341D01*
X55321005Y-40799922D01*
X55400023Y-40947756D01*
X55400024Y-40947759D01*
X55400025Y-40947761D01*
X55445713Y-41098375D01*
X55448687Y-41108179D01*
X55465117Y-41275000D01*
X55448687Y-41441821D01*
X55448686Y-41441824D01*
X55448686Y-41441825D01*
X55445713Y-41451627D01*
X55400023Y-41602244D01*
X55321005Y-41750078D01*
X55214659Y-41879659D01*
X55085078Y-41986005D01*
X54937244Y-42065023D01*
X54937241Y-42065024D01*
X54937239Y-42065025D01*
X54776825Y-42113686D01*
X54776824Y-42113686D01*
X54776821Y-42113687D01*
X54651804Y-42126000D01*
X54568196Y-42126000D01*
X54443179Y-42113687D01*
X54443176Y-42113686D01*
X54443175Y-42113686D01*
X54282761Y-42065025D01*
X54282759Y-42065024D01*
X54282756Y-42065023D01*
X54134922Y-41986005D01*
X54005341Y-41879659D01*
X53898995Y-41750078D01*
X53819977Y-41602244D01*
X53774288Y-41451627D01*
X53771314Y-41441825D01*
X53771314Y-41441824D01*
X53771313Y-41441821D01*
X53754883Y-41275000D01*
X53771313Y-41108179D01*
X53774287Y-41098375D01*
X53819975Y-40947761D01*
X53819976Y-40947759D01*
X53819977Y-40947756D01*
X53898995Y-40799922D01*
X54005341Y-40670341D01*
X54134922Y-40563995D01*
X54282756Y-40484977D01*
X54282759Y-40484976D01*
X54282761Y-40484975D01*
X54443175Y-40436314D01*
X54443176Y-40436314D01*
X54443179Y-40436313D01*
X54568196Y-40424000D01*
X54651804Y-40424000D01*
X54776821Y-40436313D01*
X54776821Y-40436313D01*
G37*
G36*
X77781231Y-38979003D02*
X77975415Y-39059437D01*
X78150176Y-39176209D01*
X78298791Y-39324824D01*
X78415563Y-39499585D01*
X78495997Y-39693769D01*
X78537000Y-39899908D01*
X78537000Y-40110092D01*
X78495997Y-40316231D01*
X78415563Y-40510415D01*
X78298791Y-40685176D01*
X78150176Y-40833791D01*
X77975415Y-40950563D01*
X77781231Y-41030997D01*
X77575092Y-41072000D01*
X77364908Y-41072000D01*
X77158769Y-41030997D01*
X76964585Y-40950563D01*
X76789824Y-40833791D01*
X76641209Y-40685176D01*
X76524437Y-40510415D01*
X76444003Y-40316231D01*
X76403000Y-40110092D01*
X76403000Y-39899908D01*
X76444003Y-39693769D01*
X76524437Y-39499585D01*
X76641209Y-39324824D01*
X76789824Y-39176209D01*
X76964585Y-39059437D01*
X77158769Y-38979003D01*
X77364908Y-38938000D01*
X77575092Y-38938000D01*
X77781231Y-38979003D01*
X77781231Y-38979003D01*
G37*
G36*
X90481231Y-38979003D02*
X90675415Y-39059437D01*
X90850176Y-39176209D01*
X90998791Y-39324824D01*
X91115563Y-39499585D01*
X91195997Y-39693769D01*
X91237000Y-39899908D01*
X91237000Y-40110092D01*
X91195997Y-40316231D01*
X91115563Y-40510415D01*
X90998791Y-40685176D01*
X90850176Y-40833791D01*
X90675415Y-40950563D01*
X90481231Y-41030997D01*
X90275092Y-41072000D01*
X90064908Y-41072000D01*
X89858769Y-41030997D01*
X89664585Y-40950563D01*
X89489824Y-40833791D01*
X89341209Y-40685176D01*
X89224437Y-40510415D01*
X89144003Y-40316231D01*
X89103000Y-40110092D01*
X89103000Y-39899908D01*
X89144003Y-39693769D01*
X89224437Y-39499585D01*
X89341209Y-39324824D01*
X89489824Y-39176209D01*
X89664585Y-39059437D01*
X89858769Y-38979003D01*
X90064908Y-38938000D01*
X90275092Y-38938000D01*
X90481231Y-38979003D01*
X90481231Y-38979003D01*
G37*
G36*
X68377000Y-41072000D02*
X66243000Y-41072000D01*
X66243000Y-38938000D01*
X68377000Y-38938000D01*
X68377000Y-41072000D01*
X68377000Y-41072000D01*
G37*
G36*
X70161231Y-38979003D02*
X70355415Y-39059437D01*
X70530176Y-39176209D01*
X70678791Y-39324824D01*
X70795563Y-39499585D01*
X70875997Y-39693769D01*
X70917000Y-39899908D01*
X70917000Y-40110092D01*
X70875997Y-40316231D01*
X70795563Y-40510415D01*
X70678791Y-40685176D01*
X70530176Y-40833791D01*
X70355415Y-40950563D01*
X70161231Y-41030997D01*
X69955092Y-41072000D01*
X69744908Y-41072000D01*
X69538769Y-41030997D01*
X69344585Y-40950563D01*
X69169824Y-40833791D01*
X69021209Y-40685176D01*
X68904437Y-40510415D01*
X68824003Y-40316231D01*
X68783000Y-40110092D01*
X68783000Y-39899908D01*
X68824003Y-39693769D01*
X68904437Y-39499585D01*
X69021209Y-39324824D01*
X69169824Y-39176209D01*
X69344585Y-39059437D01*
X69538769Y-38979003D01*
X69744908Y-38938000D01*
X69955092Y-38938000D01*
X70161231Y-38979003D01*
X70161231Y-38979003D01*
G37*
G36*
X72701231Y-38979003D02*
X72895415Y-39059437D01*
X73070176Y-39176209D01*
X73218791Y-39324824D01*
X73335563Y-39499585D01*
X73415997Y-39693769D01*
X73457000Y-39899908D01*
X73457000Y-40110092D01*
X73415997Y-40316231D01*
X73335563Y-40510415D01*
X73218791Y-40685176D01*
X73070176Y-40833791D01*
X72895415Y-40950563D01*
X72701231Y-41030997D01*
X72495092Y-41072000D01*
X72284908Y-41072000D01*
X72078769Y-41030997D01*
X71884585Y-40950563D01*
X71709824Y-40833791D01*
X71561209Y-40685176D01*
X71444437Y-40510415D01*
X71364003Y-40316231D01*
X71323000Y-40110092D01*
X71323000Y-39899908D01*
X71364003Y-39693769D01*
X71444437Y-39499585D01*
X71561209Y-39324824D01*
X71709824Y-39176209D01*
X71884585Y-39059437D01*
X72078769Y-38979003D01*
X72284908Y-38938000D01*
X72495092Y-38938000D01*
X72701231Y-38979003D01*
X72701231Y-38979003D01*
G37*
G36*
X75241231Y-38979003D02*
X75435415Y-39059437D01*
X75610176Y-39176209D01*
X75758791Y-39324824D01*
X75875563Y-39499585D01*
X75955997Y-39693769D01*
X75997000Y-39899908D01*
X75997000Y-40110092D01*
X75955997Y-40316231D01*
X75875563Y-40510415D01*
X75758791Y-40685176D01*
X75610176Y-40833791D01*
X75435415Y-40950563D01*
X75241231Y-41030997D01*
X75035092Y-41072000D01*
X74824908Y-41072000D01*
X74618769Y-41030997D01*
X74424585Y-40950563D01*
X74249824Y-40833791D01*
X74101209Y-40685176D01*
X73984437Y-40510415D01*
X73904003Y-40316231D01*
X73863000Y-40110092D01*
X73863000Y-39899908D01*
X73904003Y-39693769D01*
X73984437Y-39499585D01*
X74101209Y-39324824D01*
X74249824Y-39176209D01*
X74424585Y-39059437D01*
X74618769Y-38979003D01*
X74824908Y-38938000D01*
X75035092Y-38938000D01*
X75241231Y-38979003D01*
X75241231Y-38979003D01*
G37*
G36*
X85401231Y-38979003D02*
X85595415Y-39059437D01*
X85770176Y-39176209D01*
X85918791Y-39324824D01*
X86035563Y-39499585D01*
X86115997Y-39693769D01*
X86157000Y-39899908D01*
X86157000Y-40110092D01*
X86115997Y-40316231D01*
X86035563Y-40510415D01*
X85918791Y-40685176D01*
X85770176Y-40833791D01*
X85595415Y-40950563D01*
X85401231Y-41030997D01*
X85195092Y-41072000D01*
X84984908Y-41072000D01*
X84778769Y-41030997D01*
X84584585Y-40950563D01*
X84409824Y-40833791D01*
X84261209Y-40685176D01*
X84144437Y-40510415D01*
X84064003Y-40316231D01*
X84023000Y-40110092D01*
X84023000Y-39899908D01*
X84064003Y-39693769D01*
X84144437Y-39499585D01*
X84261209Y-39324824D01*
X84409824Y-39176209D01*
X84584585Y-39059437D01*
X84778769Y-38979003D01*
X84984908Y-38938000D01*
X85195092Y-38938000D01*
X85401231Y-38979003D01*
X85401231Y-38979003D01*
G37*
G36*
X82861231Y-38979003D02*
X83055415Y-39059437D01*
X83230176Y-39176209D01*
X83378791Y-39324824D01*
X83495563Y-39499585D01*
X83575997Y-39693769D01*
X83617000Y-39899908D01*
X83617000Y-40110092D01*
X83575997Y-40316231D01*
X83495563Y-40510415D01*
X83378791Y-40685176D01*
X83230176Y-40833791D01*
X83055415Y-40950563D01*
X82861231Y-41030997D01*
X82655092Y-41072000D01*
X82444908Y-41072000D01*
X82238769Y-41030997D01*
X82044585Y-40950563D01*
X81869824Y-40833791D01*
X81721209Y-40685176D01*
X81604437Y-40510415D01*
X81524003Y-40316231D01*
X81483000Y-40110092D01*
X81483000Y-39899908D01*
X81524003Y-39693769D01*
X81604437Y-39499585D01*
X81721209Y-39324824D01*
X81869824Y-39176209D01*
X82044585Y-39059437D01*
X82238769Y-38979003D01*
X82444908Y-38938000D01*
X82655092Y-38938000D01*
X82861231Y-38979003D01*
X82861231Y-38979003D01*
G37*
G36*
X80321231Y-38979003D02*
X80515415Y-39059437D01*
X80690176Y-39176209D01*
X80838791Y-39324824D01*
X80955563Y-39499585D01*
X81035997Y-39693769D01*
X81077000Y-39899908D01*
X81077000Y-40110092D01*
X81035997Y-40316231D01*
X80955563Y-40510415D01*
X80838791Y-40685176D01*
X80690176Y-40833791D01*
X80515415Y-40950563D01*
X80321231Y-41030997D01*
X80115092Y-41072000D01*
X79904908Y-41072000D01*
X79698769Y-41030997D01*
X79504585Y-40950563D01*
X79329824Y-40833791D01*
X79181209Y-40685176D01*
X79064437Y-40510415D01*
X78984003Y-40316231D01*
X78943000Y-40110092D01*
X78943000Y-39899908D01*
X78984003Y-39693769D01*
X79064437Y-39499585D01*
X79181209Y-39324824D01*
X79329824Y-39176209D01*
X79504585Y-39059437D01*
X79698769Y-38979003D01*
X79904908Y-38938000D01*
X80115092Y-38938000D01*
X80321231Y-38979003D01*
X80321231Y-38979003D01*
G37*
G36*
X87941231Y-38979003D02*
X88135415Y-39059437D01*
X88310176Y-39176209D01*
X88458791Y-39324824D01*
X88575563Y-39499585D01*
X88655997Y-39693769D01*
X88697000Y-39899908D01*
X88697000Y-40110092D01*
X88655997Y-40316231D01*
X88575563Y-40510415D01*
X88458791Y-40685176D01*
X88310176Y-40833791D01*
X88135415Y-40950563D01*
X87941231Y-41030997D01*
X87735092Y-41072000D01*
X87524908Y-41072000D01*
X87318769Y-41030997D01*
X87124585Y-40950563D01*
X86949824Y-40833791D01*
X86801209Y-40685176D01*
X86684437Y-40510415D01*
X86604003Y-40316231D01*
X86563000Y-40110092D01*
X86563000Y-39899908D01*
X86604003Y-39693769D01*
X86684437Y-39499585D01*
X86801209Y-39324824D01*
X86949824Y-39176209D01*
X87124585Y-39059437D01*
X87318769Y-38979003D01*
X87524908Y-38938000D01*
X87735092Y-38938000D01*
X87941231Y-38979003D01*
X87941231Y-38979003D01*
G37*
G36*
X97900443Y-37840519D02*
X97966627Y-37847037D01*
X98079853Y-37881384D01*
X98136467Y-37898557D01*
X98223311Y-37944977D01*
X98292991Y-37982222D01*
X98328729Y-38011552D01*
X98430186Y-38094814D01*
X98513448Y-38196271D01*
X98542778Y-38232009D01*
X98542779Y-38232011D01*
X98626443Y-38388533D01*
X98643616Y-38445147D01*
X98677963Y-38558373D01*
X98695359Y-38735000D01*
X98677963Y-38911627D01*
X98657525Y-38979003D01*
X98626443Y-39081467D01*
X98557698Y-39210078D01*
X98542778Y-39237991D01*
X98513448Y-39273729D01*
X98430186Y-39375186D01*
X98328729Y-39458448D01*
X98292991Y-39487778D01*
X98292989Y-39487779D01*
X98136467Y-39571443D01*
X98129069Y-39573687D01*
X97966627Y-39622963D01*
X97900442Y-39629482D01*
X97834260Y-39636000D01*
X97745740Y-39636000D01*
X97679558Y-39629482D01*
X97613373Y-39622963D01*
X97450931Y-39573687D01*
X97443533Y-39571443D01*
X97287011Y-39487779D01*
X97287009Y-39487778D01*
X97251271Y-39458448D01*
X97149814Y-39375186D01*
X97066552Y-39273729D01*
X97037222Y-39237991D01*
X97022302Y-39210078D01*
X96953557Y-39081467D01*
X96922475Y-38979003D01*
X96902037Y-38911627D01*
X96884641Y-38735000D01*
X96902037Y-38558373D01*
X96936384Y-38445147D01*
X96953557Y-38388533D01*
X97037221Y-38232011D01*
X97037222Y-38232009D01*
X97066552Y-38196271D01*
X97149814Y-38094814D01*
X97251271Y-38011552D01*
X97287009Y-37982222D01*
X97356689Y-37944977D01*
X97443533Y-37898557D01*
X97500147Y-37881384D01*
X97613373Y-37847037D01*
X97679557Y-37840519D01*
X97745740Y-37834000D01*
X97834260Y-37834000D01*
X97900443Y-37840519D01*
X97900443Y-37840519D01*
G37*
G36*
X62396821Y-37896313D02*
X62396824Y-37896314D01*
X62396825Y-37896314D01*
X62557239Y-37944975D01*
X62557241Y-37944976D01*
X62557244Y-37944977D01*
X62705078Y-38023995D01*
X62834659Y-38130341D01*
X62941005Y-38259922D01*
X63020023Y-38407756D01*
X63020024Y-38407759D01*
X63020025Y-38407761D01*
X63065713Y-38558375D01*
X63068687Y-38568179D01*
X63085117Y-38735000D01*
X63068687Y-38901821D01*
X63068686Y-38901824D01*
X63068686Y-38901825D01*
X63020875Y-39059437D01*
X63020023Y-39062244D01*
X62941005Y-39210078D01*
X62834659Y-39339659D01*
X62705078Y-39446005D01*
X62557244Y-39525023D01*
X62557241Y-39525024D01*
X62557239Y-39525025D01*
X62396825Y-39573686D01*
X62396824Y-39573686D01*
X62396821Y-39573687D01*
X62271804Y-39586000D01*
X62188196Y-39586000D01*
X62063179Y-39573687D01*
X62063176Y-39573686D01*
X62063175Y-39573686D01*
X61902761Y-39525025D01*
X61902759Y-39525024D01*
X61902756Y-39525023D01*
X61754922Y-39446005D01*
X61625341Y-39339659D01*
X61518995Y-39210078D01*
X61439977Y-39062244D01*
X61439126Y-39059437D01*
X61391314Y-38901825D01*
X61391314Y-38901824D01*
X61391313Y-38901821D01*
X61374883Y-38735000D01*
X61391313Y-38568179D01*
X61394287Y-38558375D01*
X61439975Y-38407761D01*
X61439976Y-38407759D01*
X61439977Y-38407756D01*
X61518995Y-38259922D01*
X61625341Y-38130341D01*
X61754922Y-38023995D01*
X61902756Y-37944977D01*
X61902759Y-37944976D01*
X61902761Y-37944975D01*
X62063175Y-37896314D01*
X62063176Y-37896314D01*
X62063179Y-37896313D01*
X62188196Y-37884000D01*
X62271804Y-37884000D01*
X62396821Y-37896313D01*
X62396821Y-37896313D01*
G37*
G36*
X54776821Y-37896313D02*
X54776824Y-37896314D01*
X54776825Y-37896314D01*
X54937239Y-37944975D01*
X54937241Y-37944976D01*
X54937244Y-37944977D01*
X55085078Y-38023995D01*
X55214659Y-38130341D01*
X55321005Y-38259922D01*
X55400023Y-38407756D01*
X55400024Y-38407759D01*
X55400025Y-38407761D01*
X55445713Y-38558375D01*
X55448687Y-38568179D01*
X55465117Y-38735000D01*
X55448687Y-38901821D01*
X55448686Y-38901824D01*
X55448686Y-38901825D01*
X55400875Y-39059437D01*
X55400023Y-39062244D01*
X55321005Y-39210078D01*
X55214659Y-39339659D01*
X55085078Y-39446005D01*
X54937244Y-39525023D01*
X54937241Y-39525024D01*
X54937239Y-39525025D01*
X54776825Y-39573686D01*
X54776824Y-39573686D01*
X54776821Y-39573687D01*
X54651804Y-39586000D01*
X54568196Y-39586000D01*
X54443179Y-39573687D01*
X54443176Y-39573686D01*
X54443175Y-39573686D01*
X54282761Y-39525025D01*
X54282759Y-39525024D01*
X54282756Y-39525023D01*
X54134922Y-39446005D01*
X54005341Y-39339659D01*
X53898995Y-39210078D01*
X53819977Y-39062244D01*
X53819126Y-39059437D01*
X53771314Y-38901825D01*
X53771314Y-38901824D01*
X53771313Y-38901821D01*
X53754883Y-38735000D01*
X53771313Y-38568179D01*
X53774287Y-38558375D01*
X53819975Y-38407761D01*
X53819976Y-38407759D01*
X53819977Y-38407756D01*
X53898995Y-38259922D01*
X54005341Y-38130341D01*
X54134922Y-38023995D01*
X54282756Y-37944977D01*
X54282759Y-37944976D01*
X54282761Y-37944975D01*
X54443175Y-37896314D01*
X54443176Y-37896314D01*
X54443179Y-37896313D01*
X54568196Y-37884000D01*
X54651804Y-37884000D01*
X54776821Y-37896313D01*
X54776821Y-37896313D01*
G37*
G36*
X97900442Y-35300518D02*
X97966627Y-35307037D01*
X98079853Y-35341384D01*
X98136467Y-35358557D01*
X98223311Y-35404977D01*
X98292991Y-35442222D01*
X98328729Y-35471552D01*
X98430186Y-35554814D01*
X98513448Y-35656271D01*
X98542778Y-35692009D01*
X98542779Y-35692011D01*
X98626443Y-35848533D01*
X98643616Y-35905147D01*
X98677963Y-36018373D01*
X98695359Y-36195000D01*
X98677963Y-36371627D01*
X98643616Y-36484853D01*
X98626443Y-36541467D01*
X98557698Y-36670078D01*
X98542778Y-36697991D01*
X98513448Y-36733729D01*
X98430186Y-36835186D01*
X98328729Y-36918448D01*
X98292991Y-36947778D01*
X98292989Y-36947779D01*
X98136467Y-37031443D01*
X98129069Y-37033687D01*
X97966627Y-37082963D01*
X97900443Y-37089481D01*
X97834260Y-37096000D01*
X97745740Y-37096000D01*
X97679557Y-37089481D01*
X97613373Y-37082963D01*
X97450931Y-37033687D01*
X97443533Y-37031443D01*
X97287011Y-36947779D01*
X97287009Y-36947778D01*
X97251271Y-36918448D01*
X97149814Y-36835186D01*
X97066552Y-36733729D01*
X97037222Y-36697991D01*
X97022302Y-36670078D01*
X96953557Y-36541467D01*
X96936384Y-36484853D01*
X96902037Y-36371627D01*
X96884641Y-36195000D01*
X96902037Y-36018373D01*
X96936384Y-35905147D01*
X96953557Y-35848533D01*
X97037221Y-35692011D01*
X97037222Y-35692009D01*
X97066552Y-35656271D01*
X97149814Y-35554814D01*
X97251271Y-35471552D01*
X97287009Y-35442222D01*
X97356689Y-35404977D01*
X97443533Y-35358557D01*
X97500147Y-35341384D01*
X97613373Y-35307037D01*
X97679558Y-35300518D01*
X97745740Y-35294000D01*
X97834260Y-35294000D01*
X97900442Y-35300518D01*
X97900442Y-35300518D01*
G37*
G36*
X54776821Y-35356313D02*
X54776824Y-35356314D01*
X54776825Y-35356314D01*
X54937239Y-35404975D01*
X54937241Y-35404976D01*
X54937244Y-35404977D01*
X55085078Y-35483995D01*
X55214659Y-35590341D01*
X55321005Y-35719922D01*
X55400023Y-35867756D01*
X55400024Y-35867759D01*
X55400025Y-35867761D01*
X55445713Y-36018375D01*
X55448687Y-36028179D01*
X55465117Y-36195000D01*
X55448687Y-36361821D01*
X55448686Y-36361824D01*
X55448686Y-36361825D01*
X55445713Y-36371627D01*
X55400023Y-36522244D01*
X55321005Y-36670078D01*
X55214659Y-36799659D01*
X55085078Y-36906005D01*
X54937244Y-36985023D01*
X54937241Y-36985024D01*
X54937239Y-36985025D01*
X54776825Y-37033686D01*
X54776824Y-37033686D01*
X54776821Y-37033687D01*
X54651804Y-37046000D01*
X54568196Y-37046000D01*
X54443179Y-37033687D01*
X54443176Y-37033686D01*
X54443175Y-37033686D01*
X54282761Y-36985025D01*
X54282759Y-36985024D01*
X54282756Y-36985023D01*
X54134922Y-36906005D01*
X54005341Y-36799659D01*
X53898995Y-36670078D01*
X53819977Y-36522244D01*
X53774288Y-36371627D01*
X53771314Y-36361825D01*
X53771314Y-36361824D01*
X53771313Y-36361821D01*
X53754883Y-36195000D01*
X53771313Y-36028179D01*
X53774287Y-36018375D01*
X53819975Y-35867761D01*
X53819976Y-35867759D01*
X53819977Y-35867756D01*
X53898995Y-35719922D01*
X54005341Y-35590341D01*
X54134922Y-35483995D01*
X54282756Y-35404977D01*
X54282759Y-35404976D01*
X54282761Y-35404975D01*
X54443175Y-35356314D01*
X54443176Y-35356314D01*
X54443179Y-35356313D01*
X54568196Y-35344000D01*
X54651804Y-35344000D01*
X54776821Y-35356313D01*
X54776821Y-35356313D01*
G37*
G36*
X62396821Y-35356313D02*
X62396824Y-35356314D01*
X62396825Y-35356314D01*
X62557239Y-35404975D01*
X62557241Y-35404976D01*
X62557244Y-35404977D01*
X62705078Y-35483995D01*
X62834659Y-35590341D01*
X62941005Y-35719922D01*
X63020023Y-35867756D01*
X63020024Y-35867759D01*
X63020025Y-35867761D01*
X63065713Y-36018375D01*
X63068687Y-36028179D01*
X63085117Y-36195000D01*
X63068687Y-36361821D01*
X63068686Y-36361824D01*
X63068686Y-36361825D01*
X63065713Y-36371627D01*
X63020023Y-36522244D01*
X62941005Y-36670078D01*
X62834659Y-36799659D01*
X62705078Y-36906005D01*
X62557244Y-36985023D01*
X62557241Y-36985024D01*
X62557239Y-36985025D01*
X62396825Y-37033686D01*
X62396824Y-37033686D01*
X62396821Y-37033687D01*
X62271804Y-37046000D01*
X62188196Y-37046000D01*
X62063179Y-37033687D01*
X62063176Y-37033686D01*
X62063175Y-37033686D01*
X61902761Y-36985025D01*
X61902759Y-36985024D01*
X61902756Y-36985023D01*
X61754922Y-36906005D01*
X61625341Y-36799659D01*
X61518995Y-36670078D01*
X61439977Y-36522244D01*
X61394288Y-36371627D01*
X61391314Y-36361825D01*
X61391314Y-36361824D01*
X61391313Y-36361821D01*
X61374883Y-36195000D01*
X61391313Y-36028179D01*
X61394287Y-36018375D01*
X61439975Y-35867761D01*
X61439976Y-35867759D01*
X61439977Y-35867756D01*
X61518995Y-35719922D01*
X61625341Y-35590341D01*
X61754922Y-35483995D01*
X61902756Y-35404977D01*
X61902759Y-35404976D01*
X61902761Y-35404975D01*
X62063175Y-35356314D01*
X62063176Y-35356314D01*
X62063179Y-35356313D01*
X62188196Y-35344000D01*
X62271804Y-35344000D01*
X62396821Y-35356313D01*
X62396821Y-35356313D01*
G37*
G36*
X97900443Y-32760519D02*
X97966627Y-32767037D01*
X98079853Y-32801384D01*
X98136467Y-32818557D01*
X98223311Y-32864977D01*
X98292991Y-32902222D01*
X98328729Y-32931552D01*
X98430186Y-33014814D01*
X98513448Y-33116271D01*
X98542778Y-33152009D01*
X98542779Y-33152011D01*
X98626443Y-33308533D01*
X98643616Y-33365147D01*
X98677963Y-33478373D01*
X98695359Y-33655000D01*
X98677963Y-33831627D01*
X98643616Y-33944853D01*
X98626443Y-34001467D01*
X98557698Y-34130078D01*
X98542778Y-34157991D01*
X98513448Y-34193729D01*
X98430186Y-34295186D01*
X98328729Y-34378448D01*
X98292991Y-34407778D01*
X98292989Y-34407779D01*
X98136467Y-34491443D01*
X98129069Y-34493687D01*
X97966627Y-34542963D01*
X97900442Y-34549482D01*
X97834260Y-34556000D01*
X97745740Y-34556000D01*
X97679558Y-34549482D01*
X97613373Y-34542963D01*
X97450931Y-34493687D01*
X97443533Y-34491443D01*
X97287011Y-34407779D01*
X97287009Y-34407778D01*
X97251271Y-34378448D01*
X97149814Y-34295186D01*
X97066552Y-34193729D01*
X97037222Y-34157991D01*
X97022302Y-34130078D01*
X96953557Y-34001467D01*
X96936384Y-33944853D01*
X96902037Y-33831627D01*
X96884641Y-33655000D01*
X96902037Y-33478373D01*
X96936384Y-33365147D01*
X96953557Y-33308533D01*
X97037221Y-33152011D01*
X97037222Y-33152009D01*
X97066552Y-33116271D01*
X97149814Y-33014814D01*
X97251271Y-32931552D01*
X97287009Y-32902222D01*
X97356689Y-32864977D01*
X97443533Y-32818557D01*
X97500147Y-32801384D01*
X97613373Y-32767037D01*
X97679557Y-32760519D01*
X97745740Y-32754000D01*
X97834260Y-32754000D01*
X97900443Y-32760519D01*
X97900443Y-32760519D01*
G37*
G36*
X62396821Y-32816313D02*
X62396824Y-32816314D01*
X62396825Y-32816314D01*
X62557239Y-32864975D01*
X62557241Y-32864976D01*
X62557244Y-32864977D01*
X62705078Y-32943995D01*
X62834659Y-33050341D01*
X62941005Y-33179922D01*
X63020023Y-33327756D01*
X63020024Y-33327759D01*
X63020025Y-33327761D01*
X63065713Y-33478375D01*
X63068687Y-33488179D01*
X63085117Y-33655000D01*
X63068687Y-33821821D01*
X63068686Y-33821824D01*
X63068686Y-33821825D01*
X63065713Y-33831627D01*
X63020023Y-33982244D01*
X62941005Y-34130078D01*
X62834659Y-34259659D01*
X62705078Y-34366005D01*
X62557244Y-34445023D01*
X62557241Y-34445024D01*
X62557239Y-34445025D01*
X62396825Y-34493686D01*
X62396824Y-34493686D01*
X62396821Y-34493687D01*
X62271804Y-34506000D01*
X62188196Y-34506000D01*
X62063179Y-34493687D01*
X62063176Y-34493686D01*
X62063175Y-34493686D01*
X61902761Y-34445025D01*
X61902759Y-34445024D01*
X61902756Y-34445023D01*
X61754922Y-34366005D01*
X61625341Y-34259659D01*
X61518995Y-34130078D01*
X61439977Y-33982244D01*
X61394288Y-33831627D01*
X61391314Y-33821825D01*
X61391314Y-33821824D01*
X61391313Y-33821821D01*
X61374883Y-33655000D01*
X61391313Y-33488179D01*
X61394287Y-33478375D01*
X61439975Y-33327761D01*
X61439976Y-33327759D01*
X61439977Y-33327756D01*
X61518995Y-33179922D01*
X61625341Y-33050341D01*
X61754922Y-32943995D01*
X61902756Y-32864977D01*
X61902759Y-32864976D01*
X61902761Y-32864975D01*
X62063175Y-32816314D01*
X62063176Y-32816314D01*
X62063179Y-32816313D01*
X62188196Y-32804000D01*
X62271804Y-32804000D01*
X62396821Y-32816313D01*
X62396821Y-32816313D01*
G37*
G36*
X54776821Y-32816313D02*
X54776824Y-32816314D01*
X54776825Y-32816314D01*
X54937239Y-32864975D01*
X54937241Y-32864976D01*
X54937244Y-32864977D01*
X55085078Y-32943995D01*
X55214659Y-33050341D01*
X55321005Y-33179922D01*
X55400023Y-33327756D01*
X55400024Y-33327759D01*
X55400025Y-33327761D01*
X55445713Y-33478375D01*
X55448687Y-33488179D01*
X55465117Y-33655000D01*
X55448687Y-33821821D01*
X55448686Y-33821824D01*
X55448686Y-33821825D01*
X55445713Y-33831627D01*
X55400023Y-33982244D01*
X55321005Y-34130078D01*
X55214659Y-34259659D01*
X55085078Y-34366005D01*
X54937244Y-34445023D01*
X54937241Y-34445024D01*
X54937239Y-34445025D01*
X54776825Y-34493686D01*
X54776824Y-34493686D01*
X54776821Y-34493687D01*
X54651804Y-34506000D01*
X54568196Y-34506000D01*
X54443179Y-34493687D01*
X54443176Y-34493686D01*
X54443175Y-34493686D01*
X54282761Y-34445025D01*
X54282759Y-34445024D01*
X54282756Y-34445023D01*
X54134922Y-34366005D01*
X54005341Y-34259659D01*
X53898995Y-34130078D01*
X53819977Y-33982244D01*
X53774288Y-33831627D01*
X53771314Y-33821825D01*
X53771314Y-33821824D01*
X53771313Y-33821821D01*
X53754883Y-33655000D01*
X53771313Y-33488179D01*
X53774287Y-33478375D01*
X53819975Y-33327761D01*
X53819976Y-33327759D01*
X53819977Y-33327756D01*
X53898995Y-33179922D01*
X54005341Y-33050341D01*
X54134922Y-32943995D01*
X54282756Y-32864977D01*
X54282759Y-32864976D01*
X54282761Y-32864975D01*
X54443175Y-32816314D01*
X54443176Y-32816314D01*
X54443179Y-32816313D01*
X54568196Y-32804000D01*
X54651804Y-32804000D01*
X54776821Y-32816313D01*
X54776821Y-32816313D01*
G37*
G36*
X77781231Y-31359003D02*
X77975415Y-31439437D01*
X78150176Y-31556209D01*
X78298791Y-31704824D01*
X78415563Y-31879585D01*
X78495997Y-32073769D01*
X78537000Y-32279908D01*
X78537000Y-32490092D01*
X78495997Y-32696231D01*
X78415563Y-32890415D01*
X78298791Y-33065176D01*
X78150176Y-33213791D01*
X77975415Y-33330563D01*
X77781231Y-33410997D01*
X77575092Y-33452000D01*
X77364908Y-33452000D01*
X77158769Y-33410997D01*
X76964585Y-33330563D01*
X76789824Y-33213791D01*
X76641209Y-33065176D01*
X76524437Y-32890415D01*
X76444003Y-32696231D01*
X76403000Y-32490092D01*
X76403000Y-32279908D01*
X76444003Y-32073769D01*
X76524437Y-31879585D01*
X76641209Y-31704824D01*
X76789824Y-31556209D01*
X76964585Y-31439437D01*
X77158769Y-31359003D01*
X77364908Y-31318000D01*
X77575092Y-31318000D01*
X77781231Y-31359003D01*
X77781231Y-31359003D01*
G37*
G36*
X80321231Y-31359003D02*
X80515415Y-31439437D01*
X80690176Y-31556209D01*
X80838791Y-31704824D01*
X80955563Y-31879585D01*
X81035997Y-32073769D01*
X81077000Y-32279908D01*
X81077000Y-32490092D01*
X81035997Y-32696231D01*
X80955563Y-32890415D01*
X80838791Y-33065176D01*
X80690176Y-33213791D01*
X80515415Y-33330563D01*
X80321231Y-33410997D01*
X80115092Y-33452000D01*
X79904908Y-33452000D01*
X79698769Y-33410997D01*
X79504585Y-33330563D01*
X79329824Y-33213791D01*
X79181209Y-33065176D01*
X79064437Y-32890415D01*
X78984003Y-32696231D01*
X78943000Y-32490092D01*
X78943000Y-32279908D01*
X78984003Y-32073769D01*
X79064437Y-31879585D01*
X79181209Y-31704824D01*
X79329824Y-31556209D01*
X79504585Y-31439437D01*
X79698769Y-31359003D01*
X79904908Y-31318000D01*
X80115092Y-31318000D01*
X80321231Y-31359003D01*
X80321231Y-31359003D01*
G37*
G36*
X75241231Y-31359003D02*
X75435415Y-31439437D01*
X75610176Y-31556209D01*
X75758791Y-31704824D01*
X75875563Y-31879585D01*
X75955997Y-32073769D01*
X75997000Y-32279908D01*
X75997000Y-32490092D01*
X75955997Y-32696231D01*
X75875563Y-32890415D01*
X75758791Y-33065176D01*
X75610176Y-33213791D01*
X75435415Y-33330563D01*
X75241231Y-33410997D01*
X75035092Y-33452000D01*
X74824908Y-33452000D01*
X74618769Y-33410997D01*
X74424585Y-33330563D01*
X74249824Y-33213791D01*
X74101209Y-33065176D01*
X73984437Y-32890415D01*
X73904003Y-32696231D01*
X73863000Y-32490092D01*
X73863000Y-32279908D01*
X73904003Y-32073769D01*
X73984437Y-31879585D01*
X74101209Y-31704824D01*
X74249824Y-31556209D01*
X74424585Y-31439437D01*
X74618769Y-31359003D01*
X74824908Y-31318000D01*
X75035092Y-31318000D01*
X75241231Y-31359003D01*
X75241231Y-31359003D01*
G37*
G36*
X72701231Y-31359003D02*
X72895415Y-31439437D01*
X73070176Y-31556209D01*
X73218791Y-31704824D01*
X73335563Y-31879585D01*
X73415997Y-32073769D01*
X73457000Y-32279908D01*
X73457000Y-32490092D01*
X73415997Y-32696231D01*
X73335563Y-32890415D01*
X73218791Y-33065176D01*
X73070176Y-33213791D01*
X72895415Y-33330563D01*
X72701231Y-33410997D01*
X72495092Y-33452000D01*
X72284908Y-33452000D01*
X72078769Y-33410997D01*
X71884585Y-33330563D01*
X71709824Y-33213791D01*
X71561209Y-33065176D01*
X71444437Y-32890415D01*
X71364003Y-32696231D01*
X71323000Y-32490092D01*
X71323000Y-32279908D01*
X71364003Y-32073769D01*
X71444437Y-31879585D01*
X71561209Y-31704824D01*
X71709824Y-31556209D01*
X71884585Y-31439437D01*
X72078769Y-31359003D01*
X72284908Y-31318000D01*
X72495092Y-31318000D01*
X72701231Y-31359003D01*
X72701231Y-31359003D01*
G37*
G36*
X82861231Y-31359003D02*
X83055415Y-31439437D01*
X83230176Y-31556209D01*
X83378791Y-31704824D01*
X83495563Y-31879585D01*
X83575997Y-32073769D01*
X83617000Y-32279908D01*
X83617000Y-32490092D01*
X83575997Y-32696231D01*
X83495563Y-32890415D01*
X83378791Y-33065176D01*
X83230176Y-33213791D01*
X83055415Y-33330563D01*
X82861231Y-33410997D01*
X82655092Y-33452000D01*
X82444908Y-33452000D01*
X82238769Y-33410997D01*
X82044585Y-33330563D01*
X81869824Y-33213791D01*
X81721209Y-33065176D01*
X81604437Y-32890415D01*
X81524003Y-32696231D01*
X81483000Y-32490092D01*
X81483000Y-32279908D01*
X81524003Y-32073769D01*
X81604437Y-31879585D01*
X81721209Y-31704824D01*
X81869824Y-31556209D01*
X82044585Y-31439437D01*
X82238769Y-31359003D01*
X82444908Y-31318000D01*
X82655092Y-31318000D01*
X82861231Y-31359003D01*
X82861231Y-31359003D01*
G37*
G36*
X90481231Y-31359003D02*
X90675415Y-31439437D01*
X90850176Y-31556209D01*
X90998791Y-31704824D01*
X91115563Y-31879585D01*
X91195997Y-32073769D01*
X91237000Y-32279908D01*
X91237000Y-32490092D01*
X91195997Y-32696231D01*
X91115563Y-32890415D01*
X90998791Y-33065176D01*
X90850176Y-33213791D01*
X90675415Y-33330563D01*
X90481231Y-33410997D01*
X90275092Y-33452000D01*
X90064908Y-33452000D01*
X89858769Y-33410997D01*
X89664585Y-33330563D01*
X89489824Y-33213791D01*
X89341209Y-33065176D01*
X89224437Y-32890415D01*
X89144003Y-32696231D01*
X89103000Y-32490092D01*
X89103000Y-32279908D01*
X89144003Y-32073769D01*
X89224437Y-31879585D01*
X89341209Y-31704824D01*
X89489824Y-31556209D01*
X89664585Y-31439437D01*
X89858769Y-31359003D01*
X90064908Y-31318000D01*
X90275092Y-31318000D01*
X90481231Y-31359003D01*
X90481231Y-31359003D01*
G37*
G36*
X70161231Y-31359003D02*
X70355415Y-31439437D01*
X70530176Y-31556209D01*
X70678791Y-31704824D01*
X70795563Y-31879585D01*
X70875997Y-32073769D01*
X70917000Y-32279908D01*
X70917000Y-32490092D01*
X70875997Y-32696231D01*
X70795563Y-32890415D01*
X70678791Y-33065176D01*
X70530176Y-33213791D01*
X70355415Y-33330563D01*
X70161231Y-33410997D01*
X69955092Y-33452000D01*
X69744908Y-33452000D01*
X69538769Y-33410997D01*
X69344585Y-33330563D01*
X69169824Y-33213791D01*
X69021209Y-33065176D01*
X68904437Y-32890415D01*
X68824003Y-32696231D01*
X68783000Y-32490092D01*
X68783000Y-32279908D01*
X68824003Y-32073769D01*
X68904437Y-31879585D01*
X69021209Y-31704824D01*
X69169824Y-31556209D01*
X69344585Y-31439437D01*
X69538769Y-31359003D01*
X69744908Y-31318000D01*
X69955092Y-31318000D01*
X70161231Y-31359003D01*
X70161231Y-31359003D01*
G37*
G36*
X67621231Y-31359003D02*
X67815415Y-31439437D01*
X67990176Y-31556209D01*
X68138791Y-31704824D01*
X68255563Y-31879585D01*
X68335997Y-32073769D01*
X68377000Y-32279908D01*
X68377000Y-32490092D01*
X68335997Y-32696231D01*
X68255563Y-32890415D01*
X68138791Y-33065176D01*
X67990176Y-33213791D01*
X67815415Y-33330563D01*
X67621231Y-33410997D01*
X67415092Y-33452000D01*
X67204908Y-33452000D01*
X66998769Y-33410997D01*
X66804585Y-33330563D01*
X66629824Y-33213791D01*
X66481209Y-33065176D01*
X66364437Y-32890415D01*
X66284003Y-32696231D01*
X66243000Y-32490092D01*
X66243000Y-32279908D01*
X66284003Y-32073769D01*
X66364437Y-31879585D01*
X66481209Y-31704824D01*
X66629824Y-31556209D01*
X66804585Y-31439437D01*
X66998769Y-31359003D01*
X67204908Y-31318000D01*
X67415092Y-31318000D01*
X67621231Y-31359003D01*
X67621231Y-31359003D01*
G37*
G36*
X87941231Y-31359003D02*
X88135415Y-31439437D01*
X88310176Y-31556209D01*
X88458791Y-31704824D01*
X88575563Y-31879585D01*
X88655997Y-32073769D01*
X88697000Y-32279908D01*
X88697000Y-32490092D01*
X88655997Y-32696231D01*
X88575563Y-32890415D01*
X88458791Y-33065176D01*
X88310176Y-33213791D01*
X88135415Y-33330563D01*
X87941231Y-33410997D01*
X87735092Y-33452000D01*
X87524908Y-33452000D01*
X87318769Y-33410997D01*
X87124585Y-33330563D01*
X86949824Y-33213791D01*
X86801209Y-33065176D01*
X86684437Y-32890415D01*
X86604003Y-32696231D01*
X86563000Y-32490092D01*
X86563000Y-32279908D01*
X86604003Y-32073769D01*
X86684437Y-31879585D01*
X86801209Y-31704824D01*
X86949824Y-31556209D01*
X87124585Y-31439437D01*
X87318769Y-31359003D01*
X87524908Y-31318000D01*
X87735092Y-31318000D01*
X87941231Y-31359003D01*
X87941231Y-31359003D01*
G37*
G36*
X85401231Y-31359003D02*
X85595415Y-31439437D01*
X85770176Y-31556209D01*
X85918791Y-31704824D01*
X86035563Y-31879585D01*
X86115997Y-32073769D01*
X86157000Y-32279908D01*
X86157000Y-32490092D01*
X86115997Y-32696231D01*
X86035563Y-32890415D01*
X85918791Y-33065176D01*
X85770176Y-33213791D01*
X85595415Y-33330563D01*
X85401231Y-33410997D01*
X85195092Y-33452000D01*
X84984908Y-33452000D01*
X84778769Y-33410997D01*
X84584585Y-33330563D01*
X84409824Y-33213791D01*
X84261209Y-33065176D01*
X84144437Y-32890415D01*
X84064003Y-32696231D01*
X84023000Y-32490092D01*
X84023000Y-32279908D01*
X84064003Y-32073769D01*
X84144437Y-31879585D01*
X84261209Y-31704824D01*
X84409824Y-31556209D01*
X84584585Y-31439437D01*
X84778769Y-31359003D01*
X84984908Y-31318000D01*
X85195092Y-31318000D01*
X85401231Y-31359003D01*
X85401231Y-31359003D01*
G37*
G36*
X97900442Y-30220518D02*
X97966627Y-30227037D01*
X98079853Y-30261384D01*
X98136467Y-30278557D01*
X98223311Y-30324977D01*
X98292991Y-30362222D01*
X98328729Y-30391552D01*
X98430186Y-30474814D01*
X98513448Y-30576271D01*
X98542778Y-30612009D01*
X98542779Y-30612011D01*
X98626443Y-30768533D01*
X98643616Y-30825147D01*
X98677963Y-30938373D01*
X98695359Y-31115000D01*
X98677963Y-31291627D01*
X98657525Y-31359003D01*
X98626443Y-31461467D01*
X98557698Y-31590078D01*
X98542778Y-31617991D01*
X98513448Y-31653729D01*
X98430186Y-31755186D01*
X98328729Y-31838448D01*
X98292991Y-31867778D01*
X98292989Y-31867779D01*
X98136467Y-31951443D01*
X98129069Y-31953687D01*
X97966627Y-32002963D01*
X97900443Y-32009481D01*
X97834260Y-32016000D01*
X97745740Y-32016000D01*
X97679557Y-32009481D01*
X97613373Y-32002963D01*
X97450931Y-31953687D01*
X97443533Y-31951443D01*
X97287011Y-31867779D01*
X97287009Y-31867778D01*
X97251271Y-31838448D01*
X97149814Y-31755186D01*
X97066552Y-31653729D01*
X97037222Y-31617991D01*
X97022302Y-31590078D01*
X96953557Y-31461467D01*
X96922475Y-31359003D01*
X96902037Y-31291627D01*
X96884641Y-31115000D01*
X96902037Y-30938373D01*
X96936384Y-30825147D01*
X96953557Y-30768533D01*
X97037221Y-30612011D01*
X97037222Y-30612009D01*
X97066552Y-30576271D01*
X97149814Y-30474814D01*
X97251271Y-30391552D01*
X97287009Y-30362222D01*
X97356689Y-30324977D01*
X97443533Y-30278557D01*
X97500147Y-30261384D01*
X97613373Y-30227037D01*
X97679558Y-30220518D01*
X97745740Y-30214000D01*
X97834260Y-30214000D01*
X97900442Y-30220518D01*
X97900442Y-30220518D01*
G37*
G36*
X54776821Y-30276313D02*
X54776824Y-30276314D01*
X54776825Y-30276314D01*
X54937239Y-30324975D01*
X54937241Y-30324976D01*
X54937244Y-30324977D01*
X55085078Y-30403995D01*
X55214659Y-30510341D01*
X55321005Y-30639922D01*
X55400023Y-30787756D01*
X55400024Y-30787759D01*
X55400025Y-30787761D01*
X55445713Y-30938375D01*
X55448687Y-30948179D01*
X55465117Y-31115000D01*
X55448687Y-31281821D01*
X55448686Y-31281824D01*
X55448686Y-31281825D01*
X55400875Y-31439437D01*
X55400023Y-31442244D01*
X55321005Y-31590078D01*
X55214659Y-31719659D01*
X55085078Y-31826005D01*
X54937244Y-31905023D01*
X54937241Y-31905024D01*
X54937239Y-31905025D01*
X54776825Y-31953686D01*
X54776824Y-31953686D01*
X54776821Y-31953687D01*
X54651804Y-31966000D01*
X54568196Y-31966000D01*
X54443179Y-31953687D01*
X54443176Y-31953686D01*
X54443175Y-31953686D01*
X54282761Y-31905025D01*
X54282759Y-31905024D01*
X54282756Y-31905023D01*
X54134922Y-31826005D01*
X54005341Y-31719659D01*
X53898995Y-31590078D01*
X53819977Y-31442244D01*
X53819126Y-31439437D01*
X53771314Y-31281825D01*
X53771314Y-31281824D01*
X53771313Y-31281821D01*
X53754883Y-31115000D01*
X53771313Y-30948179D01*
X53774287Y-30938375D01*
X53819975Y-30787761D01*
X53819976Y-30787759D01*
X53819977Y-30787756D01*
X53898995Y-30639922D01*
X54005341Y-30510341D01*
X54134922Y-30403995D01*
X54282756Y-30324977D01*
X54282759Y-30324976D01*
X54282761Y-30324975D01*
X54443175Y-30276314D01*
X54443176Y-30276314D01*
X54443179Y-30276313D01*
X54568196Y-30264000D01*
X54651804Y-30264000D01*
X54776821Y-30276313D01*
X54776821Y-30276313D01*
G37*
G36*
X62396821Y-30276313D02*
X62396824Y-30276314D01*
X62396825Y-30276314D01*
X62557239Y-30324975D01*
X62557241Y-30324976D01*
X62557244Y-30324977D01*
X62705078Y-30403995D01*
X62834659Y-30510341D01*
X62941005Y-30639922D01*
X63020023Y-30787756D01*
X63020024Y-30787759D01*
X63020025Y-30787761D01*
X63065713Y-30938375D01*
X63068687Y-30948179D01*
X63085117Y-31115000D01*
X63068687Y-31281821D01*
X63068686Y-31281824D01*
X63068686Y-31281825D01*
X63020875Y-31439437D01*
X63020023Y-31442244D01*
X62941005Y-31590078D01*
X62834659Y-31719659D01*
X62705078Y-31826005D01*
X62557244Y-31905023D01*
X62557241Y-31905024D01*
X62557239Y-31905025D01*
X62396825Y-31953686D01*
X62396824Y-31953686D01*
X62396821Y-31953687D01*
X62271804Y-31966000D01*
X62188196Y-31966000D01*
X62063179Y-31953687D01*
X62063176Y-31953686D01*
X62063175Y-31953686D01*
X61902761Y-31905025D01*
X61902759Y-31905024D01*
X61902756Y-31905023D01*
X61754922Y-31826005D01*
X61625341Y-31719659D01*
X61518995Y-31590078D01*
X61439977Y-31442244D01*
X61439126Y-31439437D01*
X61391314Y-31281825D01*
X61391314Y-31281824D01*
X61391313Y-31281821D01*
X61374883Y-31115000D01*
X61391313Y-30948179D01*
X61394287Y-30938375D01*
X61439975Y-30787761D01*
X61439976Y-30787759D01*
X61439977Y-30787756D01*
X61518995Y-30639922D01*
X61625341Y-30510341D01*
X61754922Y-30403995D01*
X61902756Y-30324977D01*
X61902759Y-30324976D01*
X61902761Y-30324975D01*
X62063175Y-30276314D01*
X62063176Y-30276314D01*
X62063179Y-30276313D01*
X62188196Y-30264000D01*
X62271804Y-30264000D01*
X62396821Y-30276313D01*
X62396821Y-30276313D01*
G37*
G36*
X98691000Y-29476000D02*
X96889000Y-29476000D01*
X96889000Y-27674000D01*
X98691000Y-27674000D01*
X98691000Y-29476000D01*
X98691000Y-29476000D01*
G37*
G36*
X55461000Y-29426000D02*
X53759000Y-29426000D01*
X53759000Y-27724000D01*
X55461000Y-27724000D01*
X55461000Y-29426000D01*
X55461000Y-29426000D01*
G37*
G36*
X62396821Y-27736313D02*
X62396824Y-27736314D01*
X62396825Y-27736314D01*
X62557239Y-27784975D01*
X62557241Y-27784976D01*
X62557244Y-27784977D01*
X62705078Y-27863995D01*
X62834659Y-27970341D01*
X62941005Y-28099922D01*
X63020023Y-28247756D01*
X63068687Y-28408179D01*
X63085117Y-28575000D01*
X63068687Y-28741821D01*
X63020023Y-28902244D01*
X62941005Y-29050078D01*
X62834659Y-29179659D01*
X62705078Y-29286005D01*
X62557244Y-29365023D01*
X62557241Y-29365024D01*
X62557239Y-29365025D01*
X62396825Y-29413686D01*
X62396824Y-29413686D01*
X62396821Y-29413687D01*
X62271804Y-29426000D01*
X62188196Y-29426000D01*
X62063179Y-29413687D01*
X62063176Y-29413686D01*
X62063175Y-29413686D01*
X61902761Y-29365025D01*
X61902759Y-29365024D01*
X61902756Y-29365023D01*
X61754922Y-29286005D01*
X61625341Y-29179659D01*
X61518995Y-29050078D01*
X61439977Y-28902244D01*
X61391313Y-28741821D01*
X61374883Y-28575000D01*
X61391313Y-28408179D01*
X61439977Y-28247756D01*
X61518995Y-28099922D01*
X61625341Y-27970341D01*
X61754922Y-27863995D01*
X61902756Y-27784977D01*
X61902759Y-27784976D01*
X61902761Y-27784975D01*
X62063175Y-27736314D01*
X62063176Y-27736314D01*
X62063179Y-27736313D01*
X62188196Y-27724000D01*
X62271804Y-27724000D01*
X62396821Y-27736313D01*
X62396821Y-27736313D01*
G37*
G36*
X85256821Y-27736313D02*
X85256824Y-27736314D01*
X85256825Y-27736314D01*
X85417239Y-27784975D01*
X85417241Y-27784976D01*
X85417244Y-27784977D01*
X85565078Y-27863995D01*
X85694659Y-27970341D01*
X85801005Y-28099922D01*
X85880023Y-28247756D01*
X85928687Y-28408179D01*
X85945117Y-28575000D01*
X85928687Y-28741821D01*
X85880023Y-28902244D01*
X85801005Y-29050078D01*
X85694659Y-29179659D01*
X85565078Y-29286005D01*
X85417244Y-29365023D01*
X85417241Y-29365024D01*
X85417239Y-29365025D01*
X85256825Y-29413686D01*
X85256824Y-29413686D01*
X85256821Y-29413687D01*
X85131804Y-29426000D01*
X85048196Y-29426000D01*
X84923179Y-29413687D01*
X84923176Y-29413686D01*
X84923175Y-29413686D01*
X84762761Y-29365025D01*
X84762759Y-29365024D01*
X84762756Y-29365023D01*
X84614922Y-29286005D01*
X84485341Y-29179659D01*
X84378995Y-29050078D01*
X84299977Y-28902244D01*
X84251313Y-28741821D01*
X84234883Y-28575000D01*
X84251313Y-28408179D01*
X84299977Y-28247756D01*
X84378995Y-28099922D01*
X84485341Y-27970341D01*
X84614922Y-27863995D01*
X84762756Y-27784977D01*
X84762759Y-27784976D01*
X84762761Y-27784975D01*
X84923175Y-27736314D01*
X84923176Y-27736314D01*
X84923179Y-27736313D01*
X85048196Y-27724000D01*
X85131804Y-27724000D01*
X85256821Y-27736313D01*
X85256821Y-27736313D01*
G37*
G36*
X87796821Y-27736313D02*
X87796824Y-27736314D01*
X87796825Y-27736314D01*
X87957239Y-27784975D01*
X87957241Y-27784976D01*
X87957244Y-27784977D01*
X88105078Y-27863995D01*
X88234659Y-27970341D01*
X88341005Y-28099922D01*
X88420023Y-28247756D01*
X88468687Y-28408179D01*
X88485117Y-28575000D01*
X88468687Y-28741821D01*
X88420023Y-28902244D01*
X88341005Y-29050078D01*
X88234659Y-29179659D01*
X88105078Y-29286005D01*
X87957244Y-29365023D01*
X87957241Y-29365024D01*
X87957239Y-29365025D01*
X87796825Y-29413686D01*
X87796824Y-29413686D01*
X87796821Y-29413687D01*
X87671804Y-29426000D01*
X87588196Y-29426000D01*
X87463179Y-29413687D01*
X87463176Y-29413686D01*
X87463175Y-29413686D01*
X87302761Y-29365025D01*
X87302759Y-29365024D01*
X87302756Y-29365023D01*
X87154922Y-29286005D01*
X87025341Y-29179659D01*
X86918995Y-29050078D01*
X86839977Y-28902244D01*
X86791313Y-28741821D01*
X86774883Y-28575000D01*
X86791313Y-28408179D01*
X86839977Y-28247756D01*
X86918995Y-28099922D01*
X87025341Y-27970341D01*
X87154922Y-27863995D01*
X87302756Y-27784977D01*
X87302759Y-27784976D01*
X87302761Y-27784975D01*
X87463175Y-27736314D01*
X87463176Y-27736314D01*
X87463179Y-27736313D01*
X87588196Y-27724000D01*
X87671804Y-27724000D01*
X87796821Y-27736313D01*
X87796821Y-27736313D01*
G37*
G36*
X91021000Y-29426000D02*
X89319000Y-29426000D01*
X89319000Y-27724000D01*
X91021000Y-27724000D01*
X91021000Y-29426000D01*
X91021000Y-29426000D01*
G37*
G36*
X80176821Y-27736313D02*
X80176824Y-27736314D01*
X80176825Y-27736314D01*
X80337239Y-27784975D01*
X80337241Y-27784976D01*
X80337244Y-27784977D01*
X80485078Y-27863995D01*
X80614659Y-27970341D01*
X80721005Y-28099922D01*
X80800023Y-28247756D01*
X80848687Y-28408179D01*
X80865117Y-28575000D01*
X80848687Y-28741821D01*
X80800023Y-28902244D01*
X80721005Y-29050078D01*
X80614659Y-29179659D01*
X80485078Y-29286005D01*
X80337244Y-29365023D01*
X80337241Y-29365024D01*
X80337239Y-29365025D01*
X80176825Y-29413686D01*
X80176824Y-29413686D01*
X80176821Y-29413687D01*
X80051804Y-29426000D01*
X79968196Y-29426000D01*
X79843179Y-29413687D01*
X79843176Y-29413686D01*
X79843175Y-29413686D01*
X79682761Y-29365025D01*
X79682759Y-29365024D01*
X79682756Y-29365023D01*
X79534922Y-29286005D01*
X79405341Y-29179659D01*
X79298995Y-29050078D01*
X79219977Y-28902244D01*
X79171313Y-28741821D01*
X79154883Y-28575000D01*
X79171313Y-28408179D01*
X79219977Y-28247756D01*
X79298995Y-28099922D01*
X79405341Y-27970341D01*
X79534922Y-27863995D01*
X79682756Y-27784977D01*
X79682759Y-27784976D01*
X79682761Y-27784975D01*
X79843175Y-27736314D01*
X79843176Y-27736314D01*
X79843179Y-27736313D01*
X79968196Y-27724000D01*
X80051804Y-27724000D01*
X80176821Y-27736313D01*
X80176821Y-27736313D01*
G37*
G36*
X77636821Y-27736313D02*
X77636824Y-27736314D01*
X77636825Y-27736314D01*
X77797239Y-27784975D01*
X77797241Y-27784976D01*
X77797244Y-27784977D01*
X77945078Y-27863995D01*
X78074659Y-27970341D01*
X78181005Y-28099922D01*
X78260023Y-28247756D01*
X78308687Y-28408179D01*
X78325117Y-28575000D01*
X78308687Y-28741821D01*
X78260023Y-28902244D01*
X78181005Y-29050078D01*
X78074659Y-29179659D01*
X77945078Y-29286005D01*
X77797244Y-29365023D01*
X77797241Y-29365024D01*
X77797239Y-29365025D01*
X77636825Y-29413686D01*
X77636824Y-29413686D01*
X77636821Y-29413687D01*
X77511804Y-29426000D01*
X77428196Y-29426000D01*
X77303179Y-29413687D01*
X77303176Y-29413686D01*
X77303175Y-29413686D01*
X77142761Y-29365025D01*
X77142759Y-29365024D01*
X77142756Y-29365023D01*
X76994922Y-29286005D01*
X76865341Y-29179659D01*
X76758995Y-29050078D01*
X76679977Y-28902244D01*
X76631313Y-28741821D01*
X76614883Y-28575000D01*
X76631313Y-28408179D01*
X76679977Y-28247756D01*
X76758995Y-28099922D01*
X76865341Y-27970341D01*
X76994922Y-27863995D01*
X77142756Y-27784977D01*
X77142759Y-27784976D01*
X77142761Y-27784975D01*
X77303175Y-27736314D01*
X77303176Y-27736314D01*
X77303179Y-27736313D01*
X77428196Y-27724000D01*
X77511804Y-27724000D01*
X77636821Y-27736313D01*
X77636821Y-27736313D01*
G37*
G36*
X75096821Y-27736313D02*
X75096824Y-27736314D01*
X75096825Y-27736314D01*
X75257239Y-27784975D01*
X75257241Y-27784976D01*
X75257244Y-27784977D01*
X75405078Y-27863995D01*
X75534659Y-27970341D01*
X75641005Y-28099922D01*
X75720023Y-28247756D01*
X75768687Y-28408179D01*
X75785117Y-28575000D01*
X75768687Y-28741821D01*
X75720023Y-28902244D01*
X75641005Y-29050078D01*
X75534659Y-29179659D01*
X75405078Y-29286005D01*
X75257244Y-29365023D01*
X75257241Y-29365024D01*
X75257239Y-29365025D01*
X75096825Y-29413686D01*
X75096824Y-29413686D01*
X75096821Y-29413687D01*
X74971804Y-29426000D01*
X74888196Y-29426000D01*
X74763179Y-29413687D01*
X74763176Y-29413686D01*
X74763175Y-29413686D01*
X74602761Y-29365025D01*
X74602759Y-29365024D01*
X74602756Y-29365023D01*
X74454922Y-29286005D01*
X74325341Y-29179659D01*
X74218995Y-29050078D01*
X74139977Y-28902244D01*
X74091313Y-28741821D01*
X74074883Y-28575000D01*
X74091313Y-28408179D01*
X74139977Y-28247756D01*
X74218995Y-28099922D01*
X74325341Y-27970341D01*
X74454922Y-27863995D01*
X74602756Y-27784977D01*
X74602759Y-27784976D01*
X74602761Y-27784975D01*
X74763175Y-27736314D01*
X74763176Y-27736314D01*
X74763179Y-27736313D01*
X74888196Y-27724000D01*
X74971804Y-27724000D01*
X75096821Y-27736313D01*
X75096821Y-27736313D01*
G37*
G36*
X72556821Y-27736313D02*
X72556824Y-27736314D01*
X72556825Y-27736314D01*
X72717239Y-27784975D01*
X72717241Y-27784976D01*
X72717244Y-27784977D01*
X72865078Y-27863995D01*
X72994659Y-27970341D01*
X73101005Y-28099922D01*
X73180023Y-28247756D01*
X73228687Y-28408179D01*
X73245117Y-28575000D01*
X73228687Y-28741821D01*
X73180023Y-28902244D01*
X73101005Y-29050078D01*
X72994659Y-29179659D01*
X72865078Y-29286005D01*
X72717244Y-29365023D01*
X72717241Y-29365024D01*
X72717239Y-29365025D01*
X72556825Y-29413686D01*
X72556824Y-29413686D01*
X72556821Y-29413687D01*
X72431804Y-29426000D01*
X72348196Y-29426000D01*
X72223179Y-29413687D01*
X72223176Y-29413686D01*
X72223175Y-29413686D01*
X72062761Y-29365025D01*
X72062759Y-29365024D01*
X72062756Y-29365023D01*
X71914922Y-29286005D01*
X71785341Y-29179659D01*
X71678995Y-29050078D01*
X71599977Y-28902244D01*
X71551313Y-28741821D01*
X71534883Y-28575000D01*
X71551313Y-28408179D01*
X71599977Y-28247756D01*
X71678995Y-28099922D01*
X71785341Y-27970341D01*
X71914922Y-27863995D01*
X72062756Y-27784977D01*
X72062759Y-27784976D01*
X72062761Y-27784975D01*
X72223175Y-27736314D01*
X72223176Y-27736314D01*
X72223179Y-27736313D01*
X72348196Y-27724000D01*
X72431804Y-27724000D01*
X72556821Y-27736313D01*
X72556821Y-27736313D01*
G37*
G36*
X82716821Y-27736313D02*
X82716824Y-27736314D01*
X82716825Y-27736314D01*
X82877239Y-27784975D01*
X82877241Y-27784976D01*
X82877244Y-27784977D01*
X83025078Y-27863995D01*
X83154659Y-27970341D01*
X83261005Y-28099922D01*
X83340023Y-28247756D01*
X83388687Y-28408179D01*
X83405117Y-28575000D01*
X83388687Y-28741821D01*
X83340023Y-28902244D01*
X83261005Y-29050078D01*
X83154659Y-29179659D01*
X83025078Y-29286005D01*
X82877244Y-29365023D01*
X82877241Y-29365024D01*
X82877239Y-29365025D01*
X82716825Y-29413686D01*
X82716824Y-29413686D01*
X82716821Y-29413687D01*
X82591804Y-29426000D01*
X82508196Y-29426000D01*
X82383179Y-29413687D01*
X82383176Y-29413686D01*
X82383175Y-29413686D01*
X82222761Y-29365025D01*
X82222759Y-29365024D01*
X82222756Y-29365023D01*
X82074922Y-29286005D01*
X81945341Y-29179659D01*
X81838995Y-29050078D01*
X81759977Y-28902244D01*
X81711313Y-28741821D01*
X81694883Y-28575000D01*
X81711313Y-28408179D01*
X81759977Y-28247756D01*
X81838995Y-28099922D01*
X81945341Y-27970341D01*
X82074922Y-27863995D01*
X82222756Y-27784977D01*
X82222759Y-27784976D01*
X82222761Y-27784975D01*
X82383175Y-27736314D01*
X82383176Y-27736314D01*
X82383179Y-27736313D01*
X82508196Y-27724000D01*
X82591804Y-27724000D01*
X82716821Y-27736313D01*
X82716821Y-27736313D01*
G37*
G36*
X70016821Y-27736313D02*
X70016824Y-27736314D01*
X70016825Y-27736314D01*
X70177239Y-27784975D01*
X70177241Y-27784976D01*
X70177244Y-27784977D01*
X70325078Y-27863995D01*
X70454659Y-27970341D01*
X70561005Y-28099922D01*
X70640023Y-28247756D01*
X70688687Y-28408179D01*
X70705117Y-28575000D01*
X70688687Y-28741821D01*
X70640023Y-28902244D01*
X70561005Y-29050078D01*
X70454659Y-29179659D01*
X70325078Y-29286005D01*
X70177244Y-29365023D01*
X70177241Y-29365024D01*
X70177239Y-29365025D01*
X70016825Y-29413686D01*
X70016824Y-29413686D01*
X70016821Y-29413687D01*
X69891804Y-29426000D01*
X69808196Y-29426000D01*
X69683179Y-29413687D01*
X69683176Y-29413686D01*
X69683175Y-29413686D01*
X69522761Y-29365025D01*
X69522759Y-29365024D01*
X69522756Y-29365023D01*
X69374922Y-29286005D01*
X69245341Y-29179659D01*
X69138995Y-29050078D01*
X69059977Y-28902244D01*
X69011313Y-28741821D01*
X68994883Y-28575000D01*
X69011313Y-28408179D01*
X69059977Y-28247756D01*
X69138995Y-28099922D01*
X69245341Y-27970341D01*
X69374922Y-27863995D01*
X69522756Y-27784977D01*
X69522759Y-27784976D01*
X69522761Y-27784975D01*
X69683175Y-27736314D01*
X69683176Y-27736314D01*
X69683179Y-27736313D01*
X69808196Y-27724000D01*
X69891804Y-27724000D01*
X70016821Y-27736313D01*
X70016821Y-27736313D01*
G37*
M02*
