G04 #@! TF.GenerationSoftware,KiCad,Pcbnew,5.0.2+dfsg1-1*
G04 #@! TF.CreationDate,2019-07-29T21:32:42+02:00*
G04 #@! TF.ProjectId,Stack-Pointer,53746163-6b2d-4506-9f69-6e7465722e6b,rev?*
G04 #@! TF.SameCoordinates,Original*
G04 #@! TF.FileFunction,Copper,L2,Bot*
G04 #@! TF.FilePolarity,Positive*
%FSLAX46Y46*%
G04 Gerber Fmt 4.6, Leading zero omitted, Abs format (unit mm)*
G04 Created by KiCad (PCBNEW 5.0.2+dfsg1-1) date ma 29 jul 2019 21:32:42 CEST*
%MOMM*%
%LPD*%
G01*
G04 APERTURE LIST*
G04 #@! TA.AperFunction,ComponentPad*
%ADD10R,1.700000X1.700000*%
G04 #@! TD*
G04 #@! TA.AperFunction,ComponentPad*
%ADD11O,1.700000X1.700000*%
G04 #@! TD*
G04 #@! TA.AperFunction,ComponentPad*
%ADD12R,2.032000X2.032000*%
G04 #@! TD*
G04 #@! TA.AperFunction,ComponentPad*
%ADD13C,2.032000*%
G04 #@! TD*
G04 #@! TA.AperFunction,ComponentPad*
%ADD14R,1.600000X1.600000*%
G04 #@! TD*
G04 #@! TA.AperFunction,ComponentPad*
%ADD15O,1.600000X1.600000*%
G04 #@! TD*
G04 #@! TA.AperFunction,ViaPad*
%ADD16C,0.800000*%
G04 #@! TD*
G04 #@! TA.AperFunction,Conductor*
%ADD17C,0.250000*%
G04 #@! TD*
G04 #@! TA.AperFunction,Conductor*
%ADD18C,0.350000*%
G04 #@! TD*
G04 #@! TA.AperFunction,Conductor*
%ADD19C,0.254000*%
G04 #@! TD*
G04 APERTURE END LIST*
D10*
G04 #@! TO.P,J1,1*
G04 #@! TO.N,GND*
X54610000Y-53975000D03*
D11*
G04 #@! TO.P,J1,2*
G04 #@! TO.N,+5V*
X54610000Y-56515000D03*
G04 #@! TO.P,J1,3*
G04 #@! TO.N,CLOCK*
X54610000Y-59055000D03*
G04 #@! TO.P,J1,4*
G04 #@! TO.N,STK_INC*
X54610000Y-61595000D03*
G04 #@! TO.P,J1,5*
G04 #@! TO.N,STK_DEC*
X54610000Y-64135000D03*
G04 #@! TO.P,J1,6*
G04 #@! TO.N,~STK_RESET*
X54610000Y-66675000D03*
G04 #@! TD*
D10*
G04 #@! TO.P,J2,1*
G04 #@! TO.N,Net-(BAR1-Pad9)*
X97790000Y-28575000D03*
D11*
G04 #@! TO.P,J2,2*
G04 #@! TO.N,Net-(BAR1-Pad8)*
X97790000Y-31115000D03*
G04 #@! TO.P,J2,3*
G04 #@! TO.N,Net-(BAR1-Pad7)*
X97790000Y-33655000D03*
G04 #@! TO.P,J2,4*
G04 #@! TO.N,Net-(BAR1-Pad6)*
X97790000Y-36195000D03*
G04 #@! TO.P,J2,5*
G04 #@! TO.N,Net-(BAR1-Pad5)*
X97790000Y-38735000D03*
G04 #@! TO.P,J2,6*
G04 #@! TO.N,Net-(BAR1-Pad4)*
X97790000Y-41275000D03*
G04 #@! TO.P,J2,7*
G04 #@! TO.N,Net-(BAR1-Pad3)*
X97790000Y-43815000D03*
G04 #@! TO.P,J2,8*
G04 #@! TO.N,Net-(BAR1-Pad2)*
X97790000Y-46355000D03*
G04 #@! TO.P,J2,9*
G04 #@! TO.N,+5V*
X97790000Y-48895000D03*
G04 #@! TO.P,J2,10*
X97790000Y-51435000D03*
G04 #@! TO.P,J2,11*
X97790000Y-53975000D03*
G04 #@! TO.P,J2,12*
X97790000Y-56515000D03*
G04 #@! TO.P,J2,13*
X97790000Y-59055000D03*
G04 #@! TO.P,J2,14*
X97790000Y-61595000D03*
G04 #@! TO.P,J2,15*
X97790000Y-64135000D03*
G04 #@! TO.P,J2,16*
X97790000Y-66675000D03*
G04 #@! TD*
D12*
G04 #@! TO.P,BAR1,1*
G04 #@! TO.N,Net-(BAR1-Pad1)*
X67310000Y-40005000D03*
D13*
G04 #@! TO.P,BAR1,2*
G04 #@! TO.N,Net-(BAR1-Pad2)*
X69850000Y-40005000D03*
G04 #@! TO.P,BAR1,3*
G04 #@! TO.N,Net-(BAR1-Pad3)*
X72390000Y-40005000D03*
G04 #@! TO.P,BAR1,4*
G04 #@! TO.N,Net-(BAR1-Pad4)*
X74930000Y-40005000D03*
G04 #@! TO.P,BAR1,13*
G04 #@! TO.N,Net-(BAR1-Pad13)*
X85090000Y-32385000D03*
G04 #@! TO.P,BAR1,14*
G04 #@! TO.N,Net-(BAR1-Pad14)*
X82550000Y-32385000D03*
G04 #@! TO.P,BAR1,15*
G04 #@! TO.N,Net-(BAR1-Pad15)*
X80010000Y-32385000D03*
G04 #@! TO.P,BAR1,16*
G04 #@! TO.N,Net-(BAR1-Pad16)*
X77470000Y-32385000D03*
G04 #@! TO.P,BAR1,5*
G04 #@! TO.N,Net-(BAR1-Pad5)*
X77470000Y-40005000D03*
G04 #@! TO.P,BAR1,6*
G04 #@! TO.N,Net-(BAR1-Pad6)*
X80010000Y-40005000D03*
G04 #@! TO.P,BAR1,7*
G04 #@! TO.N,Net-(BAR1-Pad7)*
X82550000Y-40005000D03*
G04 #@! TO.P,BAR1,8*
G04 #@! TO.N,Net-(BAR1-Pad8)*
X85090000Y-40005000D03*
G04 #@! TO.P,BAR1,12*
G04 #@! TO.N,Net-(BAR1-Pad12)*
X87630000Y-32385000D03*
G04 #@! TO.P,BAR1,11*
G04 #@! TO.N,Net-(BAR1-Pad11)*
X90170000Y-32385000D03*
G04 #@! TO.P,BAR1,10*
G04 #@! TO.N,Net-(BAR1-Pad10)*
X90170000Y-40005000D03*
G04 #@! TO.P,BAR1,9*
G04 #@! TO.N,Net-(BAR1-Pad9)*
X87630000Y-40005000D03*
G04 #@! TO.P,BAR1,17*
G04 #@! TO.N,Net-(BAR1-Pad17)*
X74930000Y-32385000D03*
G04 #@! TO.P,BAR1,18*
G04 #@! TO.N,Net-(BAR1-Pad18)*
X72390000Y-32385000D03*
G04 #@! TO.P,BAR1,19*
G04 #@! TO.N,Net-(BAR1-Pad19)*
X69850000Y-32385000D03*
G04 #@! TO.P,BAR1,20*
G04 #@! TO.N,Net-(BAR1-Pad20)*
X67310000Y-32385000D03*
G04 #@! TD*
D14*
G04 #@! TO.P,U1,1*
G04 #@! TO.N,DOWN_~UP*
X54610000Y-28575000D03*
D15*
G04 #@! TO.P,U1,8*
G04 #@! TO.N,STK_INC*
X62230000Y-43815000D03*
G04 #@! TO.P,U1,2*
X54610000Y-31115000D03*
G04 #@! TO.P,U1,9*
G04 #@! TO.N,STK_DEC*
X62230000Y-41275000D03*
G04 #@! TO.P,U1,3*
G04 #@! TO.N,Net-(U1-Pad3)*
X54610000Y-33655000D03*
G04 #@! TO.P,U1,10*
G04 #@! TO.N,~CLK_EN*
X62230000Y-38735000D03*
G04 #@! TO.P,U1,4*
G04 #@! TO.N,Net-(U1-Pad3)*
X54610000Y-36195000D03*
G04 #@! TO.P,U1,11*
G04 #@! TO.N,N/C*
X62230000Y-36195000D03*
G04 #@! TO.P,U1,5*
G04 #@! TO.N,DOWN_~UP*
X54610000Y-38735000D03*
G04 #@! TO.P,U1,12*
G04 #@! TO.N,N/C*
X62230000Y-33655000D03*
G04 #@! TO.P,U1,6*
G04 #@! TO.N,STK_DEC*
X54610000Y-41275000D03*
G04 #@! TO.P,U1,13*
G04 #@! TO.N,N/C*
X62230000Y-31115000D03*
G04 #@! TO.P,U1,7*
G04 #@! TO.N,GND*
X54610000Y-43815000D03*
G04 #@! TO.P,U1,14*
G04 #@! TO.N,+5V*
X62230000Y-28575000D03*
G04 #@! TD*
G04 #@! TO.P,U3,16*
G04 #@! TO.N,+5V*
X90170000Y-48895000D03*
G04 #@! TO.P,U3,8*
G04 #@! TO.N,GND*
X82550000Y-66675000D03*
G04 #@! TO.P,U3,15*
X90170000Y-51435000D03*
G04 #@! TO.P,U3,7*
G04 #@! TO.N,Net-(BAR1-Pad2)*
X82550000Y-64135000D03*
G04 #@! TO.P,U3,14*
G04 #@! TO.N,Net-(U2-Pad13)*
X90170000Y-53975000D03*
G04 #@! TO.P,U3,6*
G04 #@! TO.N,Net-(BAR1-Pad3)*
X82550000Y-61595000D03*
G04 #@! TO.P,U3,13*
G04 #@! TO.N,Net-(U3-Pad13)*
X90170000Y-56515000D03*
G04 #@! TO.P,U3,5*
G04 #@! TO.N,DOWN_~UP*
X82550000Y-59055000D03*
G04 #@! TO.P,U3,12*
G04 #@! TO.N,Net-(U3-Pad12)*
X90170000Y-59055000D03*
G04 #@! TO.P,U3,4*
G04 #@! TO.N,~CLK_EN*
X82550000Y-56515000D03*
G04 #@! TO.P,U3,11*
G04 #@! TO.N,~STK_RESET*
X90170000Y-61595000D03*
G04 #@! TO.P,U3,3*
G04 #@! TO.N,Net-(BAR1-Pad5)*
X82550000Y-53975000D03*
G04 #@! TO.P,U3,10*
G04 #@! TO.N,GND*
X90170000Y-64135000D03*
G04 #@! TO.P,U3,2*
G04 #@! TO.N,Net-(BAR1-Pad4)*
X82550000Y-51435000D03*
G04 #@! TO.P,U3,9*
G04 #@! TO.N,GND*
X90170000Y-66675000D03*
D14*
G04 #@! TO.P,U3,1*
X82550000Y-48895000D03*
G04 #@! TD*
G04 #@! TO.P,U2,1*
G04 #@! TO.N,GND*
X66675000Y-48895000D03*
D15*
G04 #@! TO.P,U2,9*
X74295000Y-66675000D03*
G04 #@! TO.P,U2,2*
G04 #@! TO.N,Net-(BAR1-Pad8)*
X66675000Y-51435000D03*
G04 #@! TO.P,U2,10*
G04 #@! TO.N,GND*
X74295000Y-64135000D03*
G04 #@! TO.P,U2,3*
G04 #@! TO.N,Net-(BAR1-Pad9)*
X66675000Y-53975000D03*
G04 #@! TO.P,U2,11*
G04 #@! TO.N,~STK_RESET*
X74295000Y-61595000D03*
G04 #@! TO.P,U2,4*
G04 #@! TO.N,~CLK_EN*
X66675000Y-56515000D03*
G04 #@! TO.P,U2,12*
G04 #@! TO.N,Net-(U2-Pad12)*
X74295000Y-59055000D03*
G04 #@! TO.P,U2,5*
G04 #@! TO.N,DOWN_~UP*
X66675000Y-59055000D03*
G04 #@! TO.P,U2,13*
G04 #@! TO.N,Net-(U2-Pad13)*
X74295000Y-56515000D03*
G04 #@! TO.P,U2,6*
G04 #@! TO.N,Net-(BAR1-Pad7)*
X66675000Y-61595000D03*
G04 #@! TO.P,U2,14*
G04 #@! TO.N,CLOCK*
X74295000Y-53975000D03*
G04 #@! TO.P,U2,7*
G04 #@! TO.N,Net-(BAR1-Pad6)*
X66675000Y-64135000D03*
G04 #@! TO.P,U2,15*
G04 #@! TO.N,GND*
X74295000Y-51435000D03*
G04 #@! TO.P,U2,8*
X66675000Y-66675000D03*
G04 #@! TO.P,U2,16*
G04 #@! TO.N,+5V*
X74295000Y-48895000D03*
G04 #@! TD*
D14*
G04 #@! TO.P,RN1,1*
G04 #@! TO.N,GND*
X90170000Y-28575000D03*
D15*
G04 #@! TO.P,RN1,2*
G04 #@! TO.N,Net-(BAR1-Pad12)*
X87630000Y-28575000D03*
G04 #@! TO.P,RN1,3*
G04 #@! TO.N,Net-(BAR1-Pad13)*
X85090000Y-28575000D03*
G04 #@! TO.P,RN1,4*
G04 #@! TO.N,Net-(BAR1-Pad14)*
X82550000Y-28575000D03*
G04 #@! TO.P,RN1,5*
G04 #@! TO.N,Net-(BAR1-Pad15)*
X80010000Y-28575000D03*
G04 #@! TO.P,RN1,6*
G04 #@! TO.N,Net-(BAR1-Pad16)*
X77470000Y-28575000D03*
G04 #@! TO.P,RN1,7*
G04 #@! TO.N,Net-(BAR1-Pad17)*
X74930000Y-28575000D03*
G04 #@! TO.P,RN1,8*
G04 #@! TO.N,Net-(BAR1-Pad18)*
X72390000Y-28575000D03*
G04 #@! TO.P,RN1,9*
G04 #@! TO.N,Net-(BAR1-Pad19)*
X69850000Y-28575000D03*
G04 #@! TD*
D16*
G04 #@! TO.N,GND*
X94615000Y-53340000D03*
X85725000Y-48895000D03*
X51943000Y-47879000D03*
X54864000Y-47879000D03*
X71120000Y-66040000D03*
X69850000Y-62230000D03*
G04 #@! TO.N,Net-(BAR1-Pad4)*
X81411900Y-46664200D03*
G04 #@! TD*
D17*
G04 #@! TO.N,Net-(BAR1-Pad12)*
X87630000Y-28575000D02*
X87630000Y-32385000D01*
G04 #@! TO.N,Net-(BAR1-Pad13)*
X85090000Y-28575000D02*
X85090000Y-32385000D01*
G04 #@! TO.N,Net-(BAR1-Pad14)*
X82550000Y-28575000D02*
X82550000Y-32385000D01*
G04 #@! TO.N,Net-(BAR1-Pad15)*
X80010000Y-28575000D02*
X80010000Y-32385000D01*
G04 #@! TO.N,Net-(BAR1-Pad16)*
X77470000Y-28575000D02*
X77470000Y-32385000D01*
G04 #@! TO.N,Net-(BAR1-Pad17)*
X74930000Y-28575000D02*
X74930000Y-32385000D01*
G04 #@! TO.N,Net-(BAR1-Pad18)*
X72390000Y-28575000D02*
X72390000Y-32385000D01*
G04 #@! TO.N,Net-(BAR1-Pad19)*
X69850000Y-28575000D02*
X69850000Y-32385000D01*
G04 #@! TO.N,Net-(BAR1-Pad9)*
X87630000Y-40005000D02*
X87630000Y-39543000D01*
X95123000Y-30142000D02*
X95123000Y-32050000D01*
X96690000Y-28575000D02*
X95123000Y-30142000D01*
X97790000Y-28575000D02*
X96690000Y-28575000D01*
X87630000Y-39543000D02*
X95123000Y-32050000D01*
G04 #@! TO.N,~STK_RESET*
X54610000Y-66675000D02*
X55785300Y-66675000D01*
X74295000Y-61595000D02*
X73169700Y-61595000D01*
X73169700Y-61595000D02*
X69265000Y-65499700D01*
X69265000Y-65499700D02*
X56960600Y-65499700D01*
X56960600Y-65499700D02*
X55785300Y-66675000D01*
G04 #@! TO.N,~CLK_EN*
X65549700Y-42898600D02*
X62230000Y-39578900D01*
X62230000Y-39578900D02*
X62230000Y-38735000D01*
X65549700Y-55389700D02*
X65549700Y-42898600D01*
X66675000Y-56515000D02*
X65549700Y-55389700D01*
G04 #@! TO.N,DOWN_~UP*
X65543630Y-59055000D02*
X66675000Y-59055000D01*
X55735300Y-49246670D02*
X65543630Y-59055000D01*
X55735300Y-39860300D02*
X55735300Y-49246670D01*
X54610000Y-38735000D02*
X55735300Y-39860300D01*
G04 #@! TO.N,Net-(BAR1-Pad7)*
X82550000Y-40005000D02*
X83925900Y-41380900D01*
X83925900Y-41380900D02*
X90719000Y-41380900D01*
X97790000Y-33655000D02*
X95142900Y-36302100D01*
X95142900Y-36302100D02*
X95142900Y-36957000D01*
X90719000Y-41380900D02*
X95142900Y-36957000D01*
G04 #@! TO.N,Net-(BAR1-Pad6)*
X81839200Y-41834200D02*
X80010000Y-40005000D01*
X92150800Y-41834200D02*
X81839200Y-41834200D01*
X97790000Y-36195000D02*
X92150800Y-41834200D01*
D18*
G04 #@! TO.N,+5V*
X97790000Y-53975000D02*
X97790000Y-51435000D01*
X97790000Y-56515000D02*
X97790000Y-53975000D01*
X97790000Y-59055000D02*
X97790000Y-56515000D01*
X97790000Y-61595000D02*
X97790000Y-59055000D01*
X97790000Y-64135000D02*
X97790000Y-61595000D01*
X97790000Y-66675000D02*
X97790000Y-64135000D01*
X63594600Y-39369900D02*
X73119700Y-48895000D01*
X63594600Y-29939600D02*
X63594600Y-39369900D01*
X73119700Y-48895000D02*
X74295000Y-48895000D01*
X62230000Y-28575000D02*
X63594600Y-29939600D01*
D17*
G04 #@! TO.N,Net-(BAR1-Pad2)*
X69850000Y-40005000D02*
X76287800Y-46442800D01*
X76287800Y-57872800D02*
X76287800Y-55372000D01*
X82550000Y-64135000D02*
X76287800Y-57872800D01*
X76287800Y-46442800D02*
X76287800Y-55372000D01*
X76287800Y-55372000D02*
X76287800Y-56987400D01*
X87901000Y-57156900D02*
X87901000Y-58784000D01*
X97790000Y-46355000D02*
X96614700Y-47530300D01*
X90579600Y-55245000D02*
X89812900Y-55245000D01*
X87901000Y-58784000D02*
X82550000Y-64135000D01*
X96614700Y-47530300D02*
X96614700Y-49209900D01*
X96614700Y-49209900D02*
X90579600Y-55245000D01*
X89812900Y-55245000D02*
X87901000Y-57156900D01*
G04 #@! TO.N,Net-(BAR1-Pad3)*
X72390000Y-40005000D02*
X80358500Y-47973500D01*
X80358500Y-47973500D02*
X80358500Y-53391200D01*
X80358500Y-53391200D02*
X82212300Y-55245000D01*
X82212300Y-55245000D02*
X83675500Y-55245000D01*
X83675500Y-55245000D02*
X85459400Y-57028900D01*
X85459400Y-58685600D02*
X85459400Y-57277000D01*
X82550000Y-61595000D02*
X85459400Y-58685600D01*
X85459400Y-57277000D02*
X85459400Y-57028900D01*
X90519500Y-52705000D02*
X89783300Y-52705000D01*
X89783300Y-52705000D02*
X85459400Y-57028900D01*
X91468900Y-51755600D02*
X90519500Y-52705000D01*
X91468900Y-50136100D02*
X91468900Y-51755600D01*
X97790000Y-43815000D02*
X91468900Y-50136100D01*
G04 #@! TO.N,Net-(BAR1-Pad5)*
X83690100Y-46225100D02*
X77470000Y-40005000D01*
X83690100Y-52834900D02*
X83690100Y-51562000D01*
X82550000Y-53975000D02*
X83690100Y-52834900D01*
X83690100Y-51562000D02*
X83690100Y-46225100D01*
X97790000Y-38735000D02*
X90299900Y-46225100D01*
X90299900Y-46225100D02*
X88265000Y-46225100D01*
X83690100Y-46225100D02*
X88265000Y-46225100D01*
G04 #@! TO.N,Net-(BAR1-Pad4)*
X74930000Y-40005000D02*
X74930000Y-40182300D01*
X74930000Y-40182300D02*
X81411900Y-46664200D01*
X82550000Y-51435000D02*
X81411900Y-50296900D01*
X81411900Y-50296900D02*
X81411900Y-49530000D01*
X81411900Y-49530000D02*
X81411900Y-46664200D01*
G04 #@! TO.N,STK_INC*
X55409999Y-31914999D02*
X54610000Y-31115000D01*
X55735001Y-32240001D02*
X55409999Y-31914999D01*
X55735001Y-37320001D02*
X55735001Y-32240001D01*
X62230000Y-43815000D02*
X55735001Y-37320001D01*
G04 #@! TO.N,STK_DEC*
X53434700Y-42450300D02*
X54610000Y-41275000D01*
X53434700Y-62959700D02*
X53434700Y-42450300D01*
X54610000Y-64135000D02*
X53434700Y-62959700D01*
G04 #@! TO.N,Net-(U1-Pad3)*
X54610000Y-36195000D02*
X54610000Y-33655000D01*
G04 #@! TD*
D19*
G04 #@! TO.N,GND*
G36*
X103430001Y-72315000D02*
X48970000Y-72315000D01*
X48970000Y-42450300D01*
X52659812Y-42450300D01*
X52674701Y-42525152D01*
X52674700Y-62884853D01*
X52659812Y-62959700D01*
X52674700Y-63034547D01*
X52674700Y-63034551D01*
X52718796Y-63256236D01*
X52886771Y-63507629D01*
X52950230Y-63550031D01*
X53168791Y-63768592D01*
X53095908Y-64135000D01*
X53211161Y-64714418D01*
X53539375Y-65205625D01*
X53837761Y-65405000D01*
X53539375Y-65604375D01*
X53211161Y-66095582D01*
X53095908Y-66675000D01*
X53211161Y-67254418D01*
X53539375Y-67745625D01*
X54030582Y-68073839D01*
X54463744Y-68160000D01*
X54756256Y-68160000D01*
X55189418Y-68073839D01*
X55680625Y-67745625D01*
X55892474Y-67428571D01*
X56081837Y-67390904D01*
X56333229Y-67222929D01*
X56375631Y-67159470D01*
X56511062Y-67024039D01*
X65283096Y-67024039D01*
X65443959Y-67412423D01*
X65819866Y-67827389D01*
X66325959Y-68066914D01*
X66548000Y-67945629D01*
X66548000Y-66802000D01*
X66802000Y-66802000D01*
X66802000Y-67945629D01*
X67024041Y-68066914D01*
X67530134Y-67827389D01*
X67906041Y-67412423D01*
X68066904Y-67024039D01*
X72903096Y-67024039D01*
X73063959Y-67412423D01*
X73439866Y-67827389D01*
X73945959Y-68066914D01*
X74168000Y-67945629D01*
X74168000Y-66802000D01*
X74422000Y-66802000D01*
X74422000Y-67945629D01*
X74644041Y-68066914D01*
X75150134Y-67827389D01*
X75526041Y-67412423D01*
X75686904Y-67024039D01*
X81158096Y-67024039D01*
X81318959Y-67412423D01*
X81694866Y-67827389D01*
X82200959Y-68066914D01*
X82423000Y-67945629D01*
X82423000Y-66802000D01*
X82677000Y-66802000D01*
X82677000Y-67945629D01*
X82899041Y-68066914D01*
X83405134Y-67827389D01*
X83781041Y-67412423D01*
X83941904Y-67024039D01*
X88778096Y-67024039D01*
X88938959Y-67412423D01*
X89314866Y-67827389D01*
X89820959Y-68066914D01*
X90043000Y-67945629D01*
X90043000Y-66802000D01*
X90297000Y-66802000D01*
X90297000Y-67945629D01*
X90519041Y-68066914D01*
X91025134Y-67827389D01*
X91401041Y-67412423D01*
X91561904Y-67024039D01*
X91439915Y-66802000D01*
X90297000Y-66802000D01*
X90043000Y-66802000D01*
X88900085Y-66802000D01*
X88778096Y-67024039D01*
X83941904Y-67024039D01*
X83819915Y-66802000D01*
X82677000Y-66802000D01*
X82423000Y-66802000D01*
X81280085Y-66802000D01*
X81158096Y-67024039D01*
X75686904Y-67024039D01*
X75564915Y-66802000D01*
X74422000Y-66802000D01*
X74168000Y-66802000D01*
X73025085Y-66802000D01*
X72903096Y-67024039D01*
X68066904Y-67024039D01*
X67944915Y-66802000D01*
X66802000Y-66802000D01*
X66548000Y-66802000D01*
X65405085Y-66802000D01*
X65283096Y-67024039D01*
X56511062Y-67024039D01*
X57275402Y-66259700D01*
X65310540Y-66259700D01*
X65283096Y-66325961D01*
X65405085Y-66548000D01*
X66548000Y-66548000D01*
X66548000Y-66528000D01*
X66802000Y-66528000D01*
X66802000Y-66548000D01*
X67944915Y-66548000D01*
X68066904Y-66325961D01*
X68039460Y-66259700D01*
X69190153Y-66259700D01*
X69265000Y-66274588D01*
X69339847Y-66259700D01*
X69339852Y-66259700D01*
X69561537Y-66215604D01*
X69812929Y-66047629D01*
X69855331Y-65984170D01*
X71355462Y-64484039D01*
X72903096Y-64484039D01*
X73063959Y-64872423D01*
X73439866Y-65287389D01*
X73688367Y-65405000D01*
X73439866Y-65522611D01*
X73063959Y-65937577D01*
X72903096Y-66325961D01*
X73025085Y-66548000D01*
X74168000Y-66548000D01*
X74168000Y-64262000D01*
X74422000Y-64262000D01*
X74422000Y-66548000D01*
X75564915Y-66548000D01*
X75686904Y-66325961D01*
X75526041Y-65937577D01*
X75150134Y-65522611D01*
X74901633Y-65405000D01*
X75150134Y-65287389D01*
X75526041Y-64872423D01*
X75686904Y-64484039D01*
X75564915Y-64262000D01*
X74422000Y-64262000D01*
X74168000Y-64262000D01*
X73025085Y-64262000D01*
X72903096Y-64484039D01*
X71355462Y-64484039D01*
X73240196Y-62599306D01*
X73260423Y-62629577D01*
X73644108Y-62885947D01*
X73439866Y-62982611D01*
X73063959Y-63397577D01*
X72903096Y-63785961D01*
X73025085Y-64008000D01*
X74168000Y-64008000D01*
X74168000Y-63988000D01*
X74422000Y-63988000D01*
X74422000Y-64008000D01*
X75564915Y-64008000D01*
X75686904Y-63785961D01*
X75526041Y-63397577D01*
X75150134Y-62982611D01*
X74945892Y-62885947D01*
X75329577Y-62629577D01*
X75646740Y-62154909D01*
X75758113Y-61595000D01*
X75646740Y-61035091D01*
X75329577Y-60560423D01*
X74977242Y-60325000D01*
X75329577Y-60089577D01*
X75646740Y-59614909D01*
X75758113Y-59055000D01*
X75646740Y-58495091D01*
X75329577Y-58020423D01*
X74977242Y-57785000D01*
X75329577Y-57549577D01*
X75527800Y-57252915D01*
X75527800Y-57797953D01*
X75512912Y-57872800D01*
X75527800Y-57947647D01*
X75527800Y-57947651D01*
X75571896Y-58169336D01*
X75739871Y-58420729D01*
X75803330Y-58463131D01*
X81151312Y-63811114D01*
X81086887Y-64135000D01*
X81198260Y-64694909D01*
X81515423Y-65169577D01*
X81899108Y-65425947D01*
X81694866Y-65522611D01*
X81318959Y-65937577D01*
X81158096Y-66325961D01*
X81280085Y-66548000D01*
X82423000Y-66548000D01*
X82423000Y-66528000D01*
X82677000Y-66528000D01*
X82677000Y-66548000D01*
X83819915Y-66548000D01*
X83941904Y-66325961D01*
X83781041Y-65937577D01*
X83405134Y-65522611D01*
X83200892Y-65425947D01*
X83584577Y-65169577D01*
X83901740Y-64694909D01*
X83943684Y-64484039D01*
X88778096Y-64484039D01*
X88938959Y-64872423D01*
X89314866Y-65287389D01*
X89563367Y-65405000D01*
X89314866Y-65522611D01*
X88938959Y-65937577D01*
X88778096Y-66325961D01*
X88900085Y-66548000D01*
X90043000Y-66548000D01*
X90043000Y-64262000D01*
X90297000Y-64262000D01*
X90297000Y-66548000D01*
X91439915Y-66548000D01*
X91561904Y-66325961D01*
X91401041Y-65937577D01*
X91025134Y-65522611D01*
X90776633Y-65405000D01*
X91025134Y-65287389D01*
X91401041Y-64872423D01*
X91561904Y-64484039D01*
X91439915Y-64262000D01*
X90297000Y-64262000D01*
X90043000Y-64262000D01*
X88900085Y-64262000D01*
X88778096Y-64484039D01*
X83943684Y-64484039D01*
X84013113Y-64135000D01*
X83948688Y-63811113D01*
X88385473Y-59374329D01*
X88448929Y-59331929D01*
X88580665Y-59134773D01*
X88616904Y-59080538D01*
X88636477Y-58982136D01*
X88661000Y-58858852D01*
X88661000Y-58858848D01*
X88675888Y-58784000D01*
X88661000Y-58709152D01*
X88661000Y-57471701D01*
X88914203Y-57218498D01*
X89135423Y-57549577D01*
X89487758Y-57785000D01*
X89135423Y-58020423D01*
X88818260Y-58495091D01*
X88706887Y-59055000D01*
X88818260Y-59614909D01*
X89135423Y-60089577D01*
X89487758Y-60325000D01*
X89135423Y-60560423D01*
X88818260Y-61035091D01*
X88706887Y-61595000D01*
X88818260Y-62154909D01*
X89135423Y-62629577D01*
X89519108Y-62885947D01*
X89314866Y-62982611D01*
X88938959Y-63397577D01*
X88778096Y-63785961D01*
X88900085Y-64008000D01*
X90043000Y-64008000D01*
X90043000Y-63988000D01*
X90297000Y-63988000D01*
X90297000Y-64008000D01*
X91439915Y-64008000D01*
X91561904Y-63785961D01*
X91401041Y-63397577D01*
X91025134Y-62982611D01*
X90820892Y-62885947D01*
X91204577Y-62629577D01*
X91521740Y-62154909D01*
X91633113Y-61595000D01*
X91521740Y-61035091D01*
X91204577Y-60560423D01*
X90852242Y-60325000D01*
X91204577Y-60089577D01*
X91521740Y-59614909D01*
X91633113Y-59055000D01*
X91521740Y-58495091D01*
X91204577Y-58020423D01*
X90852242Y-57785000D01*
X91204577Y-57549577D01*
X91521740Y-57074909D01*
X91633113Y-56515000D01*
X91521740Y-55955091D01*
X91290454Y-55608947D01*
X96847900Y-50051502D01*
X97017761Y-50165000D01*
X96719375Y-50364375D01*
X96391161Y-50855582D01*
X96275908Y-51435000D01*
X96391161Y-52014418D01*
X96719375Y-52505625D01*
X96980001Y-52679769D01*
X96980000Y-52730231D01*
X96719375Y-52904375D01*
X96391161Y-53395582D01*
X96275908Y-53975000D01*
X96391161Y-54554418D01*
X96719375Y-55045625D01*
X96980001Y-55219769D01*
X96980000Y-55270231D01*
X96719375Y-55444375D01*
X96391161Y-55935582D01*
X96275908Y-56515000D01*
X96391161Y-57094418D01*
X96719375Y-57585625D01*
X96980001Y-57759769D01*
X96980000Y-57810231D01*
X96719375Y-57984375D01*
X96391161Y-58475582D01*
X96275908Y-59055000D01*
X96391161Y-59634418D01*
X96719375Y-60125625D01*
X96980001Y-60299769D01*
X96980000Y-60350231D01*
X96719375Y-60524375D01*
X96391161Y-61015582D01*
X96275908Y-61595000D01*
X96391161Y-62174418D01*
X96719375Y-62665625D01*
X96980001Y-62839769D01*
X96980000Y-62890231D01*
X96719375Y-63064375D01*
X96391161Y-63555582D01*
X96275908Y-64135000D01*
X96391161Y-64714418D01*
X96719375Y-65205625D01*
X96980001Y-65379769D01*
X96980000Y-65430231D01*
X96719375Y-65604375D01*
X96391161Y-66095582D01*
X96275908Y-66675000D01*
X96391161Y-67254418D01*
X96719375Y-67745625D01*
X97210582Y-68073839D01*
X97643744Y-68160000D01*
X97936256Y-68160000D01*
X98369418Y-68073839D01*
X98860625Y-67745625D01*
X99188839Y-67254418D01*
X99304092Y-66675000D01*
X99188839Y-66095582D01*
X98860625Y-65604375D01*
X98600000Y-65430231D01*
X98600000Y-65379769D01*
X98860625Y-65205625D01*
X99188839Y-64714418D01*
X99304092Y-64135000D01*
X99188839Y-63555582D01*
X98860625Y-63064375D01*
X98600000Y-62890231D01*
X98600000Y-62839769D01*
X98860625Y-62665625D01*
X99188839Y-62174418D01*
X99304092Y-61595000D01*
X99188839Y-61015582D01*
X98860625Y-60524375D01*
X98600000Y-60350231D01*
X98600000Y-60299769D01*
X98860625Y-60125625D01*
X99188839Y-59634418D01*
X99304092Y-59055000D01*
X99188839Y-58475582D01*
X98860625Y-57984375D01*
X98600000Y-57810231D01*
X98600000Y-57759769D01*
X98860625Y-57585625D01*
X99188839Y-57094418D01*
X99304092Y-56515000D01*
X99188839Y-55935582D01*
X98860625Y-55444375D01*
X98600000Y-55270231D01*
X98600000Y-55219769D01*
X98860625Y-55045625D01*
X99188839Y-54554418D01*
X99304092Y-53975000D01*
X99188839Y-53395582D01*
X98860625Y-52904375D01*
X98600000Y-52730231D01*
X98600000Y-52679769D01*
X98860625Y-52505625D01*
X99188839Y-52014418D01*
X99304092Y-51435000D01*
X99188839Y-50855582D01*
X98860625Y-50364375D01*
X98562239Y-50165000D01*
X98860625Y-49965625D01*
X99188839Y-49474418D01*
X99304092Y-48895000D01*
X99188839Y-48315582D01*
X98860625Y-47824375D01*
X98562239Y-47625000D01*
X98860625Y-47425625D01*
X99188839Y-46934418D01*
X99304092Y-46355000D01*
X99188839Y-45775582D01*
X98860625Y-45284375D01*
X98562239Y-45085000D01*
X98860625Y-44885625D01*
X99188839Y-44394418D01*
X99304092Y-43815000D01*
X99188839Y-43235582D01*
X98860625Y-42744375D01*
X98562239Y-42545000D01*
X98860625Y-42345625D01*
X99188839Y-41854418D01*
X99304092Y-41275000D01*
X99188839Y-40695582D01*
X98860625Y-40204375D01*
X98562239Y-40005000D01*
X98860625Y-39805625D01*
X99188839Y-39314418D01*
X99304092Y-38735000D01*
X99188839Y-38155582D01*
X98860625Y-37664375D01*
X98562239Y-37465000D01*
X98860625Y-37265625D01*
X99188839Y-36774418D01*
X99304092Y-36195000D01*
X99188839Y-35615582D01*
X98860625Y-35124375D01*
X98562239Y-34925000D01*
X98860625Y-34725625D01*
X99188839Y-34234418D01*
X99304092Y-33655000D01*
X99188839Y-33075582D01*
X98860625Y-32584375D01*
X98562239Y-32385000D01*
X98860625Y-32185625D01*
X99188839Y-31694418D01*
X99304092Y-31115000D01*
X99188839Y-30535582D01*
X98860625Y-30044375D01*
X98842381Y-30032184D01*
X98887765Y-30023157D01*
X99097809Y-29882809D01*
X99238157Y-29672765D01*
X99287440Y-29425000D01*
X99287440Y-27725000D01*
X99238157Y-27477235D01*
X99097809Y-27267191D01*
X98887765Y-27126843D01*
X98640000Y-27077560D01*
X96940000Y-27077560D01*
X96692235Y-27126843D01*
X96482191Y-27267191D01*
X96341843Y-27477235D01*
X96292560Y-27725000D01*
X96292560Y-27926517D01*
X96263649Y-27945835D01*
X96142071Y-28027071D01*
X96099671Y-28090527D01*
X94638530Y-29551669D01*
X94575071Y-29594071D01*
X94407096Y-29845464D01*
X94363000Y-30067149D01*
X94363000Y-30067153D01*
X94348112Y-30142000D01*
X94363000Y-30216847D01*
X94363001Y-31735197D01*
X87744199Y-38354000D01*
X87301596Y-38354000D01*
X86694784Y-38605350D01*
X86360000Y-38940134D01*
X86025216Y-38605350D01*
X85418404Y-38354000D01*
X84761596Y-38354000D01*
X84154784Y-38605350D01*
X83820000Y-38940134D01*
X83485216Y-38605350D01*
X82878404Y-38354000D01*
X82221596Y-38354000D01*
X81614784Y-38605350D01*
X81280000Y-38940134D01*
X80945216Y-38605350D01*
X80338404Y-38354000D01*
X79681596Y-38354000D01*
X79074784Y-38605350D01*
X78740000Y-38940134D01*
X78405216Y-38605350D01*
X77798404Y-38354000D01*
X77141596Y-38354000D01*
X76534784Y-38605350D01*
X76200000Y-38940134D01*
X75865216Y-38605350D01*
X75258404Y-38354000D01*
X74601596Y-38354000D01*
X73994784Y-38605350D01*
X73660000Y-38940134D01*
X73325216Y-38605350D01*
X72718404Y-38354000D01*
X72061596Y-38354000D01*
X71454784Y-38605350D01*
X71120000Y-38940134D01*
X70785216Y-38605350D01*
X70178404Y-38354000D01*
X69521596Y-38354000D01*
X68914784Y-38605350D01*
X68865975Y-38654159D01*
X68783809Y-38531191D01*
X68573765Y-38390843D01*
X68326000Y-38341560D01*
X66294000Y-38341560D01*
X66046235Y-38390843D01*
X65836191Y-38531191D01*
X65695843Y-38741235D01*
X65646560Y-38989000D01*
X65646560Y-40276348D01*
X64404600Y-39034388D01*
X64404600Y-32056596D01*
X65659000Y-32056596D01*
X65659000Y-32713404D01*
X65910350Y-33320216D01*
X66374784Y-33784650D01*
X66981596Y-34036000D01*
X67638404Y-34036000D01*
X68245216Y-33784650D01*
X68580000Y-33449866D01*
X68914784Y-33784650D01*
X69521596Y-34036000D01*
X70178404Y-34036000D01*
X70785216Y-33784650D01*
X71120000Y-33449866D01*
X71454784Y-33784650D01*
X72061596Y-34036000D01*
X72718404Y-34036000D01*
X73325216Y-33784650D01*
X73660000Y-33449866D01*
X73994784Y-33784650D01*
X74601596Y-34036000D01*
X75258404Y-34036000D01*
X75865216Y-33784650D01*
X76200000Y-33449866D01*
X76534784Y-33784650D01*
X77141596Y-34036000D01*
X77798404Y-34036000D01*
X78405216Y-33784650D01*
X78740000Y-33449866D01*
X79074784Y-33784650D01*
X79681596Y-34036000D01*
X80338404Y-34036000D01*
X80945216Y-33784650D01*
X81280000Y-33449866D01*
X81614784Y-33784650D01*
X82221596Y-34036000D01*
X82878404Y-34036000D01*
X83485216Y-33784650D01*
X83820000Y-33449866D01*
X84154784Y-33784650D01*
X84761596Y-34036000D01*
X85418404Y-34036000D01*
X86025216Y-33784650D01*
X86360000Y-33449866D01*
X86694784Y-33784650D01*
X87301596Y-34036000D01*
X87958404Y-34036000D01*
X88565216Y-33784650D01*
X88900000Y-33449866D01*
X89234784Y-33784650D01*
X89841596Y-34036000D01*
X90498404Y-34036000D01*
X91105216Y-33784650D01*
X91569650Y-33320216D01*
X91821000Y-32713404D01*
X91821000Y-32056596D01*
X91569650Y-31449784D01*
X91105216Y-30985350D01*
X90498404Y-30734000D01*
X89841596Y-30734000D01*
X89234784Y-30985350D01*
X88900000Y-31320134D01*
X88565216Y-30985350D01*
X88390000Y-30912773D01*
X88390000Y-29793043D01*
X88664577Y-29609577D01*
X88735734Y-29503083D01*
X88831673Y-29734699D01*
X89010302Y-29913327D01*
X89243691Y-30010000D01*
X89884250Y-30010000D01*
X90043000Y-29851250D01*
X90043000Y-28702000D01*
X90297000Y-28702000D01*
X90297000Y-29851250D01*
X90455750Y-30010000D01*
X91096309Y-30010000D01*
X91329698Y-29913327D01*
X91508327Y-29734699D01*
X91605000Y-29501310D01*
X91605000Y-28860750D01*
X91446250Y-28702000D01*
X90297000Y-28702000D01*
X90043000Y-28702000D01*
X90023000Y-28702000D01*
X90023000Y-28448000D01*
X90043000Y-28448000D01*
X90043000Y-27298750D01*
X90297000Y-27298750D01*
X90297000Y-28448000D01*
X91446250Y-28448000D01*
X91605000Y-28289250D01*
X91605000Y-27648690D01*
X91508327Y-27415301D01*
X91329698Y-27236673D01*
X91096309Y-27140000D01*
X90455750Y-27140000D01*
X90297000Y-27298750D01*
X90043000Y-27298750D01*
X89884250Y-27140000D01*
X89243691Y-27140000D01*
X89010302Y-27236673D01*
X88831673Y-27415301D01*
X88735734Y-27646917D01*
X88664577Y-27540423D01*
X88189909Y-27223260D01*
X87771333Y-27140000D01*
X87488667Y-27140000D01*
X87070091Y-27223260D01*
X86595423Y-27540423D01*
X86360000Y-27892758D01*
X86124577Y-27540423D01*
X85649909Y-27223260D01*
X85231333Y-27140000D01*
X84948667Y-27140000D01*
X84530091Y-27223260D01*
X84055423Y-27540423D01*
X83820000Y-27892758D01*
X83584577Y-27540423D01*
X83109909Y-27223260D01*
X82691333Y-27140000D01*
X82408667Y-27140000D01*
X81990091Y-27223260D01*
X81515423Y-27540423D01*
X81280000Y-27892758D01*
X81044577Y-27540423D01*
X80569909Y-27223260D01*
X80151333Y-27140000D01*
X79868667Y-27140000D01*
X79450091Y-27223260D01*
X78975423Y-27540423D01*
X78740000Y-27892758D01*
X78504577Y-27540423D01*
X78029909Y-27223260D01*
X77611333Y-27140000D01*
X77328667Y-27140000D01*
X76910091Y-27223260D01*
X76435423Y-27540423D01*
X76200000Y-27892758D01*
X75964577Y-27540423D01*
X75489909Y-27223260D01*
X75071333Y-27140000D01*
X74788667Y-27140000D01*
X74370091Y-27223260D01*
X73895423Y-27540423D01*
X73660000Y-27892758D01*
X73424577Y-27540423D01*
X72949909Y-27223260D01*
X72531333Y-27140000D01*
X72248667Y-27140000D01*
X71830091Y-27223260D01*
X71355423Y-27540423D01*
X71120000Y-27892758D01*
X70884577Y-27540423D01*
X70409909Y-27223260D01*
X69991333Y-27140000D01*
X69708667Y-27140000D01*
X69290091Y-27223260D01*
X68815423Y-27540423D01*
X68498260Y-28015091D01*
X68386887Y-28575000D01*
X68498260Y-29134909D01*
X68815423Y-29609577D01*
X69090000Y-29793044D01*
X69090001Y-30912773D01*
X68914784Y-30985350D01*
X68580000Y-31320134D01*
X68245216Y-30985350D01*
X67638404Y-30734000D01*
X66981596Y-30734000D01*
X66374784Y-30985350D01*
X65910350Y-31449784D01*
X65659000Y-32056596D01*
X64404600Y-32056596D01*
X64404600Y-30019373D01*
X64420468Y-29939600D01*
X64385392Y-29763260D01*
X64357603Y-29623554D01*
X64178577Y-29355623D01*
X64110947Y-29310434D01*
X63640420Y-28839907D01*
X63693113Y-28575000D01*
X63581740Y-28015091D01*
X63264577Y-27540423D01*
X62789909Y-27223260D01*
X62371333Y-27140000D01*
X62088667Y-27140000D01*
X61670091Y-27223260D01*
X61195423Y-27540423D01*
X60878260Y-28015091D01*
X60766887Y-28575000D01*
X60878260Y-29134909D01*
X61195423Y-29609577D01*
X61547758Y-29845000D01*
X61195423Y-30080423D01*
X60878260Y-30555091D01*
X60766887Y-31115000D01*
X60878260Y-31674909D01*
X61195423Y-32149577D01*
X61547758Y-32385000D01*
X61195423Y-32620423D01*
X60878260Y-33095091D01*
X60766887Y-33655000D01*
X60878260Y-34214909D01*
X61195423Y-34689577D01*
X61547758Y-34925000D01*
X61195423Y-35160423D01*
X60878260Y-35635091D01*
X60766887Y-36195000D01*
X60878260Y-36754909D01*
X61195423Y-37229577D01*
X61547758Y-37465000D01*
X61195423Y-37700423D01*
X60878260Y-38175091D01*
X60766887Y-38735000D01*
X60878260Y-39294909D01*
X61195423Y-39769577D01*
X61547758Y-40005000D01*
X61195423Y-40240423D01*
X60878260Y-40715091D01*
X60766887Y-41275000D01*
X60767405Y-41277603D01*
X56495001Y-37005200D01*
X56495001Y-32314847D01*
X56509889Y-32240000D01*
X56495001Y-32165153D01*
X56495001Y-32165149D01*
X56450905Y-31943464D01*
X56282930Y-31692072D01*
X56219471Y-31649670D01*
X56008688Y-31438887D01*
X56073113Y-31115000D01*
X55961740Y-30555091D01*
X55644577Y-30080423D01*
X55523894Y-29999785D01*
X55657765Y-29973157D01*
X55867809Y-29832809D01*
X56008157Y-29622765D01*
X56057440Y-29375000D01*
X56057440Y-27775000D01*
X56008157Y-27527235D01*
X55867809Y-27317191D01*
X55657765Y-27176843D01*
X55410000Y-27127560D01*
X53810000Y-27127560D01*
X53562235Y-27176843D01*
X53352191Y-27317191D01*
X53211843Y-27527235D01*
X53162560Y-27775000D01*
X53162560Y-29375000D01*
X53211843Y-29622765D01*
X53352191Y-29832809D01*
X53562235Y-29973157D01*
X53696106Y-29999785D01*
X53575423Y-30080423D01*
X53258260Y-30555091D01*
X53146887Y-31115000D01*
X53258260Y-31674909D01*
X53575423Y-32149577D01*
X53927758Y-32385000D01*
X53575423Y-32620423D01*
X53258260Y-33095091D01*
X53146887Y-33655000D01*
X53258260Y-34214909D01*
X53575423Y-34689577D01*
X53850001Y-34873044D01*
X53850000Y-34976956D01*
X53575423Y-35160423D01*
X53258260Y-35635091D01*
X53146887Y-36195000D01*
X53258260Y-36754909D01*
X53575423Y-37229577D01*
X53927758Y-37465000D01*
X53575423Y-37700423D01*
X53258260Y-38175091D01*
X53146887Y-38735000D01*
X53258260Y-39294909D01*
X53575423Y-39769577D01*
X53927758Y-40005000D01*
X53575423Y-40240423D01*
X53258260Y-40715091D01*
X53146887Y-41275000D01*
X53211312Y-41598887D01*
X52950228Y-41859971D01*
X52886772Y-41902371D01*
X52844372Y-41965827D01*
X52844371Y-41965828D01*
X52718797Y-42153763D01*
X52659812Y-42450300D01*
X48970000Y-42450300D01*
X48970000Y-22935000D01*
X103430000Y-22935000D01*
X103430001Y-72315000D01*
X103430001Y-72315000D01*
G37*
X103430001Y-72315000D02*
X48970000Y-72315000D01*
X48970000Y-42450300D01*
X52659812Y-42450300D01*
X52674701Y-42525152D01*
X52674700Y-62884853D01*
X52659812Y-62959700D01*
X52674700Y-63034547D01*
X52674700Y-63034551D01*
X52718796Y-63256236D01*
X52886771Y-63507629D01*
X52950230Y-63550031D01*
X53168791Y-63768592D01*
X53095908Y-64135000D01*
X53211161Y-64714418D01*
X53539375Y-65205625D01*
X53837761Y-65405000D01*
X53539375Y-65604375D01*
X53211161Y-66095582D01*
X53095908Y-66675000D01*
X53211161Y-67254418D01*
X53539375Y-67745625D01*
X54030582Y-68073839D01*
X54463744Y-68160000D01*
X54756256Y-68160000D01*
X55189418Y-68073839D01*
X55680625Y-67745625D01*
X55892474Y-67428571D01*
X56081837Y-67390904D01*
X56333229Y-67222929D01*
X56375631Y-67159470D01*
X56511062Y-67024039D01*
X65283096Y-67024039D01*
X65443959Y-67412423D01*
X65819866Y-67827389D01*
X66325959Y-68066914D01*
X66548000Y-67945629D01*
X66548000Y-66802000D01*
X66802000Y-66802000D01*
X66802000Y-67945629D01*
X67024041Y-68066914D01*
X67530134Y-67827389D01*
X67906041Y-67412423D01*
X68066904Y-67024039D01*
X72903096Y-67024039D01*
X73063959Y-67412423D01*
X73439866Y-67827389D01*
X73945959Y-68066914D01*
X74168000Y-67945629D01*
X74168000Y-66802000D01*
X74422000Y-66802000D01*
X74422000Y-67945629D01*
X74644041Y-68066914D01*
X75150134Y-67827389D01*
X75526041Y-67412423D01*
X75686904Y-67024039D01*
X81158096Y-67024039D01*
X81318959Y-67412423D01*
X81694866Y-67827389D01*
X82200959Y-68066914D01*
X82423000Y-67945629D01*
X82423000Y-66802000D01*
X82677000Y-66802000D01*
X82677000Y-67945629D01*
X82899041Y-68066914D01*
X83405134Y-67827389D01*
X83781041Y-67412423D01*
X83941904Y-67024039D01*
X88778096Y-67024039D01*
X88938959Y-67412423D01*
X89314866Y-67827389D01*
X89820959Y-68066914D01*
X90043000Y-67945629D01*
X90043000Y-66802000D01*
X90297000Y-66802000D01*
X90297000Y-67945629D01*
X90519041Y-68066914D01*
X91025134Y-67827389D01*
X91401041Y-67412423D01*
X91561904Y-67024039D01*
X91439915Y-66802000D01*
X90297000Y-66802000D01*
X90043000Y-66802000D01*
X88900085Y-66802000D01*
X88778096Y-67024039D01*
X83941904Y-67024039D01*
X83819915Y-66802000D01*
X82677000Y-66802000D01*
X82423000Y-66802000D01*
X81280085Y-66802000D01*
X81158096Y-67024039D01*
X75686904Y-67024039D01*
X75564915Y-66802000D01*
X74422000Y-66802000D01*
X74168000Y-66802000D01*
X73025085Y-66802000D01*
X72903096Y-67024039D01*
X68066904Y-67024039D01*
X67944915Y-66802000D01*
X66802000Y-66802000D01*
X66548000Y-66802000D01*
X65405085Y-66802000D01*
X65283096Y-67024039D01*
X56511062Y-67024039D01*
X57275402Y-66259700D01*
X65310540Y-66259700D01*
X65283096Y-66325961D01*
X65405085Y-66548000D01*
X66548000Y-66548000D01*
X66548000Y-66528000D01*
X66802000Y-66528000D01*
X66802000Y-66548000D01*
X67944915Y-66548000D01*
X68066904Y-66325961D01*
X68039460Y-66259700D01*
X69190153Y-66259700D01*
X69265000Y-66274588D01*
X69339847Y-66259700D01*
X69339852Y-66259700D01*
X69561537Y-66215604D01*
X69812929Y-66047629D01*
X69855331Y-65984170D01*
X71355462Y-64484039D01*
X72903096Y-64484039D01*
X73063959Y-64872423D01*
X73439866Y-65287389D01*
X73688367Y-65405000D01*
X73439866Y-65522611D01*
X73063959Y-65937577D01*
X72903096Y-66325961D01*
X73025085Y-66548000D01*
X74168000Y-66548000D01*
X74168000Y-64262000D01*
X74422000Y-64262000D01*
X74422000Y-66548000D01*
X75564915Y-66548000D01*
X75686904Y-66325961D01*
X75526041Y-65937577D01*
X75150134Y-65522611D01*
X74901633Y-65405000D01*
X75150134Y-65287389D01*
X75526041Y-64872423D01*
X75686904Y-64484039D01*
X75564915Y-64262000D01*
X74422000Y-64262000D01*
X74168000Y-64262000D01*
X73025085Y-64262000D01*
X72903096Y-64484039D01*
X71355462Y-64484039D01*
X73240196Y-62599306D01*
X73260423Y-62629577D01*
X73644108Y-62885947D01*
X73439866Y-62982611D01*
X73063959Y-63397577D01*
X72903096Y-63785961D01*
X73025085Y-64008000D01*
X74168000Y-64008000D01*
X74168000Y-63988000D01*
X74422000Y-63988000D01*
X74422000Y-64008000D01*
X75564915Y-64008000D01*
X75686904Y-63785961D01*
X75526041Y-63397577D01*
X75150134Y-62982611D01*
X74945892Y-62885947D01*
X75329577Y-62629577D01*
X75646740Y-62154909D01*
X75758113Y-61595000D01*
X75646740Y-61035091D01*
X75329577Y-60560423D01*
X74977242Y-60325000D01*
X75329577Y-60089577D01*
X75646740Y-59614909D01*
X75758113Y-59055000D01*
X75646740Y-58495091D01*
X75329577Y-58020423D01*
X74977242Y-57785000D01*
X75329577Y-57549577D01*
X75527800Y-57252915D01*
X75527800Y-57797953D01*
X75512912Y-57872800D01*
X75527800Y-57947647D01*
X75527800Y-57947651D01*
X75571896Y-58169336D01*
X75739871Y-58420729D01*
X75803330Y-58463131D01*
X81151312Y-63811114D01*
X81086887Y-64135000D01*
X81198260Y-64694909D01*
X81515423Y-65169577D01*
X81899108Y-65425947D01*
X81694866Y-65522611D01*
X81318959Y-65937577D01*
X81158096Y-66325961D01*
X81280085Y-66548000D01*
X82423000Y-66548000D01*
X82423000Y-66528000D01*
X82677000Y-66528000D01*
X82677000Y-66548000D01*
X83819915Y-66548000D01*
X83941904Y-66325961D01*
X83781041Y-65937577D01*
X83405134Y-65522611D01*
X83200892Y-65425947D01*
X83584577Y-65169577D01*
X83901740Y-64694909D01*
X83943684Y-64484039D01*
X88778096Y-64484039D01*
X88938959Y-64872423D01*
X89314866Y-65287389D01*
X89563367Y-65405000D01*
X89314866Y-65522611D01*
X88938959Y-65937577D01*
X88778096Y-66325961D01*
X88900085Y-66548000D01*
X90043000Y-66548000D01*
X90043000Y-64262000D01*
X90297000Y-64262000D01*
X90297000Y-66548000D01*
X91439915Y-66548000D01*
X91561904Y-66325961D01*
X91401041Y-65937577D01*
X91025134Y-65522611D01*
X90776633Y-65405000D01*
X91025134Y-65287389D01*
X91401041Y-64872423D01*
X91561904Y-64484039D01*
X91439915Y-64262000D01*
X90297000Y-64262000D01*
X90043000Y-64262000D01*
X88900085Y-64262000D01*
X88778096Y-64484039D01*
X83943684Y-64484039D01*
X84013113Y-64135000D01*
X83948688Y-63811113D01*
X88385473Y-59374329D01*
X88448929Y-59331929D01*
X88580665Y-59134773D01*
X88616904Y-59080538D01*
X88636477Y-58982136D01*
X88661000Y-58858852D01*
X88661000Y-58858848D01*
X88675888Y-58784000D01*
X88661000Y-58709152D01*
X88661000Y-57471701D01*
X88914203Y-57218498D01*
X89135423Y-57549577D01*
X89487758Y-57785000D01*
X89135423Y-58020423D01*
X88818260Y-58495091D01*
X88706887Y-59055000D01*
X88818260Y-59614909D01*
X89135423Y-60089577D01*
X89487758Y-60325000D01*
X89135423Y-60560423D01*
X88818260Y-61035091D01*
X88706887Y-61595000D01*
X88818260Y-62154909D01*
X89135423Y-62629577D01*
X89519108Y-62885947D01*
X89314866Y-62982611D01*
X88938959Y-63397577D01*
X88778096Y-63785961D01*
X88900085Y-64008000D01*
X90043000Y-64008000D01*
X90043000Y-63988000D01*
X90297000Y-63988000D01*
X90297000Y-64008000D01*
X91439915Y-64008000D01*
X91561904Y-63785961D01*
X91401041Y-63397577D01*
X91025134Y-62982611D01*
X90820892Y-62885947D01*
X91204577Y-62629577D01*
X91521740Y-62154909D01*
X91633113Y-61595000D01*
X91521740Y-61035091D01*
X91204577Y-60560423D01*
X90852242Y-60325000D01*
X91204577Y-60089577D01*
X91521740Y-59614909D01*
X91633113Y-59055000D01*
X91521740Y-58495091D01*
X91204577Y-58020423D01*
X90852242Y-57785000D01*
X91204577Y-57549577D01*
X91521740Y-57074909D01*
X91633113Y-56515000D01*
X91521740Y-55955091D01*
X91290454Y-55608947D01*
X96847900Y-50051502D01*
X97017761Y-50165000D01*
X96719375Y-50364375D01*
X96391161Y-50855582D01*
X96275908Y-51435000D01*
X96391161Y-52014418D01*
X96719375Y-52505625D01*
X96980001Y-52679769D01*
X96980000Y-52730231D01*
X96719375Y-52904375D01*
X96391161Y-53395582D01*
X96275908Y-53975000D01*
X96391161Y-54554418D01*
X96719375Y-55045625D01*
X96980001Y-55219769D01*
X96980000Y-55270231D01*
X96719375Y-55444375D01*
X96391161Y-55935582D01*
X96275908Y-56515000D01*
X96391161Y-57094418D01*
X96719375Y-57585625D01*
X96980001Y-57759769D01*
X96980000Y-57810231D01*
X96719375Y-57984375D01*
X96391161Y-58475582D01*
X96275908Y-59055000D01*
X96391161Y-59634418D01*
X96719375Y-60125625D01*
X96980001Y-60299769D01*
X96980000Y-60350231D01*
X96719375Y-60524375D01*
X96391161Y-61015582D01*
X96275908Y-61595000D01*
X96391161Y-62174418D01*
X96719375Y-62665625D01*
X96980001Y-62839769D01*
X96980000Y-62890231D01*
X96719375Y-63064375D01*
X96391161Y-63555582D01*
X96275908Y-64135000D01*
X96391161Y-64714418D01*
X96719375Y-65205625D01*
X96980001Y-65379769D01*
X96980000Y-65430231D01*
X96719375Y-65604375D01*
X96391161Y-66095582D01*
X96275908Y-66675000D01*
X96391161Y-67254418D01*
X96719375Y-67745625D01*
X97210582Y-68073839D01*
X97643744Y-68160000D01*
X97936256Y-68160000D01*
X98369418Y-68073839D01*
X98860625Y-67745625D01*
X99188839Y-67254418D01*
X99304092Y-66675000D01*
X99188839Y-66095582D01*
X98860625Y-65604375D01*
X98600000Y-65430231D01*
X98600000Y-65379769D01*
X98860625Y-65205625D01*
X99188839Y-64714418D01*
X99304092Y-64135000D01*
X99188839Y-63555582D01*
X98860625Y-63064375D01*
X98600000Y-62890231D01*
X98600000Y-62839769D01*
X98860625Y-62665625D01*
X99188839Y-62174418D01*
X99304092Y-61595000D01*
X99188839Y-61015582D01*
X98860625Y-60524375D01*
X98600000Y-60350231D01*
X98600000Y-60299769D01*
X98860625Y-60125625D01*
X99188839Y-59634418D01*
X99304092Y-59055000D01*
X99188839Y-58475582D01*
X98860625Y-57984375D01*
X98600000Y-57810231D01*
X98600000Y-57759769D01*
X98860625Y-57585625D01*
X99188839Y-57094418D01*
X99304092Y-56515000D01*
X99188839Y-55935582D01*
X98860625Y-55444375D01*
X98600000Y-55270231D01*
X98600000Y-55219769D01*
X98860625Y-55045625D01*
X99188839Y-54554418D01*
X99304092Y-53975000D01*
X99188839Y-53395582D01*
X98860625Y-52904375D01*
X98600000Y-52730231D01*
X98600000Y-52679769D01*
X98860625Y-52505625D01*
X99188839Y-52014418D01*
X99304092Y-51435000D01*
X99188839Y-50855582D01*
X98860625Y-50364375D01*
X98562239Y-50165000D01*
X98860625Y-49965625D01*
X99188839Y-49474418D01*
X99304092Y-48895000D01*
X99188839Y-48315582D01*
X98860625Y-47824375D01*
X98562239Y-47625000D01*
X98860625Y-47425625D01*
X99188839Y-46934418D01*
X99304092Y-46355000D01*
X99188839Y-45775582D01*
X98860625Y-45284375D01*
X98562239Y-45085000D01*
X98860625Y-44885625D01*
X99188839Y-44394418D01*
X99304092Y-43815000D01*
X99188839Y-43235582D01*
X98860625Y-42744375D01*
X98562239Y-42545000D01*
X98860625Y-42345625D01*
X99188839Y-41854418D01*
X99304092Y-41275000D01*
X99188839Y-40695582D01*
X98860625Y-40204375D01*
X98562239Y-40005000D01*
X98860625Y-39805625D01*
X99188839Y-39314418D01*
X99304092Y-38735000D01*
X99188839Y-38155582D01*
X98860625Y-37664375D01*
X98562239Y-37465000D01*
X98860625Y-37265625D01*
X99188839Y-36774418D01*
X99304092Y-36195000D01*
X99188839Y-35615582D01*
X98860625Y-35124375D01*
X98562239Y-34925000D01*
X98860625Y-34725625D01*
X99188839Y-34234418D01*
X99304092Y-33655000D01*
X99188839Y-33075582D01*
X98860625Y-32584375D01*
X98562239Y-32385000D01*
X98860625Y-32185625D01*
X99188839Y-31694418D01*
X99304092Y-31115000D01*
X99188839Y-30535582D01*
X98860625Y-30044375D01*
X98842381Y-30032184D01*
X98887765Y-30023157D01*
X99097809Y-29882809D01*
X99238157Y-29672765D01*
X99287440Y-29425000D01*
X99287440Y-27725000D01*
X99238157Y-27477235D01*
X99097809Y-27267191D01*
X98887765Y-27126843D01*
X98640000Y-27077560D01*
X96940000Y-27077560D01*
X96692235Y-27126843D01*
X96482191Y-27267191D01*
X96341843Y-27477235D01*
X96292560Y-27725000D01*
X96292560Y-27926517D01*
X96263649Y-27945835D01*
X96142071Y-28027071D01*
X96099671Y-28090527D01*
X94638530Y-29551669D01*
X94575071Y-29594071D01*
X94407096Y-29845464D01*
X94363000Y-30067149D01*
X94363000Y-30067153D01*
X94348112Y-30142000D01*
X94363000Y-30216847D01*
X94363001Y-31735197D01*
X87744199Y-38354000D01*
X87301596Y-38354000D01*
X86694784Y-38605350D01*
X86360000Y-38940134D01*
X86025216Y-38605350D01*
X85418404Y-38354000D01*
X84761596Y-38354000D01*
X84154784Y-38605350D01*
X83820000Y-38940134D01*
X83485216Y-38605350D01*
X82878404Y-38354000D01*
X82221596Y-38354000D01*
X81614784Y-38605350D01*
X81280000Y-38940134D01*
X80945216Y-38605350D01*
X80338404Y-38354000D01*
X79681596Y-38354000D01*
X79074784Y-38605350D01*
X78740000Y-38940134D01*
X78405216Y-38605350D01*
X77798404Y-38354000D01*
X77141596Y-38354000D01*
X76534784Y-38605350D01*
X76200000Y-38940134D01*
X75865216Y-38605350D01*
X75258404Y-38354000D01*
X74601596Y-38354000D01*
X73994784Y-38605350D01*
X73660000Y-38940134D01*
X73325216Y-38605350D01*
X72718404Y-38354000D01*
X72061596Y-38354000D01*
X71454784Y-38605350D01*
X71120000Y-38940134D01*
X70785216Y-38605350D01*
X70178404Y-38354000D01*
X69521596Y-38354000D01*
X68914784Y-38605350D01*
X68865975Y-38654159D01*
X68783809Y-38531191D01*
X68573765Y-38390843D01*
X68326000Y-38341560D01*
X66294000Y-38341560D01*
X66046235Y-38390843D01*
X65836191Y-38531191D01*
X65695843Y-38741235D01*
X65646560Y-38989000D01*
X65646560Y-40276348D01*
X64404600Y-39034388D01*
X64404600Y-32056596D01*
X65659000Y-32056596D01*
X65659000Y-32713404D01*
X65910350Y-33320216D01*
X66374784Y-33784650D01*
X66981596Y-34036000D01*
X67638404Y-34036000D01*
X68245216Y-33784650D01*
X68580000Y-33449866D01*
X68914784Y-33784650D01*
X69521596Y-34036000D01*
X70178404Y-34036000D01*
X70785216Y-33784650D01*
X71120000Y-33449866D01*
X71454784Y-33784650D01*
X72061596Y-34036000D01*
X72718404Y-34036000D01*
X73325216Y-33784650D01*
X73660000Y-33449866D01*
X73994784Y-33784650D01*
X74601596Y-34036000D01*
X75258404Y-34036000D01*
X75865216Y-33784650D01*
X76200000Y-33449866D01*
X76534784Y-33784650D01*
X77141596Y-34036000D01*
X77798404Y-34036000D01*
X78405216Y-33784650D01*
X78740000Y-33449866D01*
X79074784Y-33784650D01*
X79681596Y-34036000D01*
X80338404Y-34036000D01*
X80945216Y-33784650D01*
X81280000Y-33449866D01*
X81614784Y-33784650D01*
X82221596Y-34036000D01*
X82878404Y-34036000D01*
X83485216Y-33784650D01*
X83820000Y-33449866D01*
X84154784Y-33784650D01*
X84761596Y-34036000D01*
X85418404Y-34036000D01*
X86025216Y-33784650D01*
X86360000Y-33449866D01*
X86694784Y-33784650D01*
X87301596Y-34036000D01*
X87958404Y-34036000D01*
X88565216Y-33784650D01*
X88900000Y-33449866D01*
X89234784Y-33784650D01*
X89841596Y-34036000D01*
X90498404Y-34036000D01*
X91105216Y-33784650D01*
X91569650Y-33320216D01*
X91821000Y-32713404D01*
X91821000Y-32056596D01*
X91569650Y-31449784D01*
X91105216Y-30985350D01*
X90498404Y-30734000D01*
X89841596Y-30734000D01*
X89234784Y-30985350D01*
X88900000Y-31320134D01*
X88565216Y-30985350D01*
X88390000Y-30912773D01*
X88390000Y-29793043D01*
X88664577Y-29609577D01*
X88735734Y-29503083D01*
X88831673Y-29734699D01*
X89010302Y-29913327D01*
X89243691Y-30010000D01*
X89884250Y-30010000D01*
X90043000Y-29851250D01*
X90043000Y-28702000D01*
X90297000Y-28702000D01*
X90297000Y-29851250D01*
X90455750Y-30010000D01*
X91096309Y-30010000D01*
X91329698Y-29913327D01*
X91508327Y-29734699D01*
X91605000Y-29501310D01*
X91605000Y-28860750D01*
X91446250Y-28702000D01*
X90297000Y-28702000D01*
X90043000Y-28702000D01*
X90023000Y-28702000D01*
X90023000Y-28448000D01*
X90043000Y-28448000D01*
X90043000Y-27298750D01*
X90297000Y-27298750D01*
X90297000Y-28448000D01*
X91446250Y-28448000D01*
X91605000Y-28289250D01*
X91605000Y-27648690D01*
X91508327Y-27415301D01*
X91329698Y-27236673D01*
X91096309Y-27140000D01*
X90455750Y-27140000D01*
X90297000Y-27298750D01*
X90043000Y-27298750D01*
X89884250Y-27140000D01*
X89243691Y-27140000D01*
X89010302Y-27236673D01*
X88831673Y-27415301D01*
X88735734Y-27646917D01*
X88664577Y-27540423D01*
X88189909Y-27223260D01*
X87771333Y-27140000D01*
X87488667Y-27140000D01*
X87070091Y-27223260D01*
X86595423Y-27540423D01*
X86360000Y-27892758D01*
X86124577Y-27540423D01*
X85649909Y-27223260D01*
X85231333Y-27140000D01*
X84948667Y-27140000D01*
X84530091Y-27223260D01*
X84055423Y-27540423D01*
X83820000Y-27892758D01*
X83584577Y-27540423D01*
X83109909Y-27223260D01*
X82691333Y-27140000D01*
X82408667Y-27140000D01*
X81990091Y-27223260D01*
X81515423Y-27540423D01*
X81280000Y-27892758D01*
X81044577Y-27540423D01*
X80569909Y-27223260D01*
X80151333Y-27140000D01*
X79868667Y-27140000D01*
X79450091Y-27223260D01*
X78975423Y-27540423D01*
X78740000Y-27892758D01*
X78504577Y-27540423D01*
X78029909Y-27223260D01*
X77611333Y-27140000D01*
X77328667Y-27140000D01*
X76910091Y-27223260D01*
X76435423Y-27540423D01*
X76200000Y-27892758D01*
X75964577Y-27540423D01*
X75489909Y-27223260D01*
X75071333Y-27140000D01*
X74788667Y-27140000D01*
X74370091Y-27223260D01*
X73895423Y-27540423D01*
X73660000Y-27892758D01*
X73424577Y-27540423D01*
X72949909Y-27223260D01*
X72531333Y-27140000D01*
X72248667Y-27140000D01*
X71830091Y-27223260D01*
X71355423Y-27540423D01*
X71120000Y-27892758D01*
X70884577Y-27540423D01*
X70409909Y-27223260D01*
X69991333Y-27140000D01*
X69708667Y-27140000D01*
X69290091Y-27223260D01*
X68815423Y-27540423D01*
X68498260Y-28015091D01*
X68386887Y-28575000D01*
X68498260Y-29134909D01*
X68815423Y-29609577D01*
X69090000Y-29793044D01*
X69090001Y-30912773D01*
X68914784Y-30985350D01*
X68580000Y-31320134D01*
X68245216Y-30985350D01*
X67638404Y-30734000D01*
X66981596Y-30734000D01*
X66374784Y-30985350D01*
X65910350Y-31449784D01*
X65659000Y-32056596D01*
X64404600Y-32056596D01*
X64404600Y-30019373D01*
X64420468Y-29939600D01*
X64385392Y-29763260D01*
X64357603Y-29623554D01*
X64178577Y-29355623D01*
X64110947Y-29310434D01*
X63640420Y-28839907D01*
X63693113Y-28575000D01*
X63581740Y-28015091D01*
X63264577Y-27540423D01*
X62789909Y-27223260D01*
X62371333Y-27140000D01*
X62088667Y-27140000D01*
X61670091Y-27223260D01*
X61195423Y-27540423D01*
X60878260Y-28015091D01*
X60766887Y-28575000D01*
X60878260Y-29134909D01*
X61195423Y-29609577D01*
X61547758Y-29845000D01*
X61195423Y-30080423D01*
X60878260Y-30555091D01*
X60766887Y-31115000D01*
X60878260Y-31674909D01*
X61195423Y-32149577D01*
X61547758Y-32385000D01*
X61195423Y-32620423D01*
X60878260Y-33095091D01*
X60766887Y-33655000D01*
X60878260Y-34214909D01*
X61195423Y-34689577D01*
X61547758Y-34925000D01*
X61195423Y-35160423D01*
X60878260Y-35635091D01*
X60766887Y-36195000D01*
X60878260Y-36754909D01*
X61195423Y-37229577D01*
X61547758Y-37465000D01*
X61195423Y-37700423D01*
X60878260Y-38175091D01*
X60766887Y-38735000D01*
X60878260Y-39294909D01*
X61195423Y-39769577D01*
X61547758Y-40005000D01*
X61195423Y-40240423D01*
X60878260Y-40715091D01*
X60766887Y-41275000D01*
X60767405Y-41277603D01*
X56495001Y-37005200D01*
X56495001Y-32314847D01*
X56509889Y-32240000D01*
X56495001Y-32165153D01*
X56495001Y-32165149D01*
X56450905Y-31943464D01*
X56282930Y-31692072D01*
X56219471Y-31649670D01*
X56008688Y-31438887D01*
X56073113Y-31115000D01*
X55961740Y-30555091D01*
X55644577Y-30080423D01*
X55523894Y-29999785D01*
X55657765Y-29973157D01*
X55867809Y-29832809D01*
X56008157Y-29622765D01*
X56057440Y-29375000D01*
X56057440Y-27775000D01*
X56008157Y-27527235D01*
X55867809Y-27317191D01*
X55657765Y-27176843D01*
X55410000Y-27127560D01*
X53810000Y-27127560D01*
X53562235Y-27176843D01*
X53352191Y-27317191D01*
X53211843Y-27527235D01*
X53162560Y-27775000D01*
X53162560Y-29375000D01*
X53211843Y-29622765D01*
X53352191Y-29832809D01*
X53562235Y-29973157D01*
X53696106Y-29999785D01*
X53575423Y-30080423D01*
X53258260Y-30555091D01*
X53146887Y-31115000D01*
X53258260Y-31674909D01*
X53575423Y-32149577D01*
X53927758Y-32385000D01*
X53575423Y-32620423D01*
X53258260Y-33095091D01*
X53146887Y-33655000D01*
X53258260Y-34214909D01*
X53575423Y-34689577D01*
X53850001Y-34873044D01*
X53850000Y-34976956D01*
X53575423Y-35160423D01*
X53258260Y-35635091D01*
X53146887Y-36195000D01*
X53258260Y-36754909D01*
X53575423Y-37229577D01*
X53927758Y-37465000D01*
X53575423Y-37700423D01*
X53258260Y-38175091D01*
X53146887Y-38735000D01*
X53258260Y-39294909D01*
X53575423Y-39769577D01*
X53927758Y-40005000D01*
X53575423Y-40240423D01*
X53258260Y-40715091D01*
X53146887Y-41275000D01*
X53211312Y-41598887D01*
X52950228Y-41859971D01*
X52886772Y-41902371D01*
X52844372Y-41965827D01*
X52844371Y-41965828D01*
X52718797Y-42153763D01*
X52659812Y-42450300D01*
X48970000Y-42450300D01*
X48970000Y-22935000D01*
X103430000Y-22935000D01*
X103430001Y-72315000D01*
G36*
X54737000Y-43688000D02*
X54757000Y-43688000D01*
X54757000Y-43942000D01*
X54737000Y-43942000D01*
X54737000Y-45085629D01*
X54959041Y-45206914D01*
X54975301Y-45199219D01*
X54975301Y-49171818D01*
X54960412Y-49246670D01*
X55019397Y-49543207D01*
X55127504Y-49705000D01*
X55187372Y-49794599D01*
X55250828Y-49836999D01*
X64953303Y-59539476D01*
X64995701Y-59602929D01*
X65059154Y-59645327D01*
X65059156Y-59645329D01*
X65184532Y-59729102D01*
X65247093Y-59770904D01*
X65455145Y-59812288D01*
X65640423Y-60089577D01*
X65992758Y-60325000D01*
X65640423Y-60560423D01*
X65323260Y-61035091D01*
X65211887Y-61595000D01*
X65323260Y-62154909D01*
X65640423Y-62629577D01*
X65992758Y-62865000D01*
X65640423Y-63100423D01*
X65323260Y-63575091D01*
X65211887Y-64135000D01*
X65323260Y-64694909D01*
X65353188Y-64739700D01*
X57035446Y-64739700D01*
X56960599Y-64724812D01*
X56885752Y-64739700D01*
X56885748Y-64739700D01*
X56664063Y-64783796D01*
X56412671Y-64951771D01*
X56370271Y-65015227D01*
X55720879Y-65664620D01*
X55680625Y-65604375D01*
X55382239Y-65405000D01*
X55680625Y-65205625D01*
X56008839Y-64714418D01*
X56124092Y-64135000D01*
X56008839Y-63555582D01*
X55680625Y-63064375D01*
X55382239Y-62865000D01*
X55680625Y-62665625D01*
X56008839Y-62174418D01*
X56124092Y-61595000D01*
X56008839Y-61015582D01*
X55680625Y-60524375D01*
X55382239Y-60325000D01*
X55680625Y-60125625D01*
X56008839Y-59634418D01*
X56124092Y-59055000D01*
X56008839Y-58475582D01*
X55680625Y-57984375D01*
X55382239Y-57785000D01*
X55680625Y-57585625D01*
X56008839Y-57094418D01*
X56124092Y-56515000D01*
X56008839Y-55935582D01*
X55680625Y-55444375D01*
X55658967Y-55429904D01*
X55819698Y-55363327D01*
X55998327Y-55184699D01*
X56095000Y-54951310D01*
X56095000Y-54260750D01*
X55936250Y-54102000D01*
X54737000Y-54102000D01*
X54737000Y-54122000D01*
X54483000Y-54122000D01*
X54483000Y-54102000D01*
X54463000Y-54102000D01*
X54463000Y-53848000D01*
X54483000Y-53848000D01*
X54483000Y-52648750D01*
X54737000Y-52648750D01*
X54737000Y-53848000D01*
X55936250Y-53848000D01*
X56095000Y-53689250D01*
X56095000Y-52998690D01*
X55998327Y-52765301D01*
X55819698Y-52586673D01*
X55586309Y-52490000D01*
X54895750Y-52490000D01*
X54737000Y-52648750D01*
X54483000Y-52648750D01*
X54324250Y-52490000D01*
X54194700Y-52490000D01*
X54194700Y-45175555D01*
X54260959Y-45206914D01*
X54483000Y-45085629D01*
X54483000Y-43942000D01*
X54463000Y-43942000D01*
X54463000Y-43688000D01*
X54483000Y-43688000D01*
X54483000Y-43668000D01*
X54737000Y-43668000D01*
X54737000Y-43688000D01*
X54737000Y-43688000D01*
G37*
X54737000Y-43688000D02*
X54757000Y-43688000D01*
X54757000Y-43942000D01*
X54737000Y-43942000D01*
X54737000Y-45085629D01*
X54959041Y-45206914D01*
X54975301Y-45199219D01*
X54975301Y-49171818D01*
X54960412Y-49246670D01*
X55019397Y-49543207D01*
X55127504Y-49705000D01*
X55187372Y-49794599D01*
X55250828Y-49836999D01*
X64953303Y-59539476D01*
X64995701Y-59602929D01*
X65059154Y-59645327D01*
X65059156Y-59645329D01*
X65184532Y-59729102D01*
X65247093Y-59770904D01*
X65455145Y-59812288D01*
X65640423Y-60089577D01*
X65992758Y-60325000D01*
X65640423Y-60560423D01*
X65323260Y-61035091D01*
X65211887Y-61595000D01*
X65323260Y-62154909D01*
X65640423Y-62629577D01*
X65992758Y-62865000D01*
X65640423Y-63100423D01*
X65323260Y-63575091D01*
X65211887Y-64135000D01*
X65323260Y-64694909D01*
X65353188Y-64739700D01*
X57035446Y-64739700D01*
X56960599Y-64724812D01*
X56885752Y-64739700D01*
X56885748Y-64739700D01*
X56664063Y-64783796D01*
X56412671Y-64951771D01*
X56370271Y-65015227D01*
X55720879Y-65664620D01*
X55680625Y-65604375D01*
X55382239Y-65405000D01*
X55680625Y-65205625D01*
X56008839Y-64714418D01*
X56124092Y-64135000D01*
X56008839Y-63555582D01*
X55680625Y-63064375D01*
X55382239Y-62865000D01*
X55680625Y-62665625D01*
X56008839Y-62174418D01*
X56124092Y-61595000D01*
X56008839Y-61015582D01*
X55680625Y-60524375D01*
X55382239Y-60325000D01*
X55680625Y-60125625D01*
X56008839Y-59634418D01*
X56124092Y-59055000D01*
X56008839Y-58475582D01*
X55680625Y-57984375D01*
X55382239Y-57785000D01*
X55680625Y-57585625D01*
X56008839Y-57094418D01*
X56124092Y-56515000D01*
X56008839Y-55935582D01*
X55680625Y-55444375D01*
X55658967Y-55429904D01*
X55819698Y-55363327D01*
X55998327Y-55184699D01*
X56095000Y-54951310D01*
X56095000Y-54260750D01*
X55936250Y-54102000D01*
X54737000Y-54102000D01*
X54737000Y-54122000D01*
X54483000Y-54122000D01*
X54483000Y-54102000D01*
X54463000Y-54102000D01*
X54463000Y-53848000D01*
X54483000Y-53848000D01*
X54483000Y-52648750D01*
X54737000Y-52648750D01*
X54737000Y-53848000D01*
X55936250Y-53848000D01*
X56095000Y-53689250D01*
X56095000Y-52998690D01*
X55998327Y-52765301D01*
X55819698Y-52586673D01*
X55586309Y-52490000D01*
X54895750Y-52490000D01*
X54737000Y-52648750D01*
X54483000Y-52648750D01*
X54324250Y-52490000D01*
X54194700Y-52490000D01*
X54194700Y-45175555D01*
X54260959Y-45206914D01*
X54483000Y-45085629D01*
X54483000Y-43942000D01*
X54463000Y-43942000D01*
X54463000Y-43688000D01*
X54483000Y-43688000D01*
X54483000Y-43668000D01*
X54737000Y-43668000D01*
X54737000Y-43688000D01*
G36*
X72490534Y-49411347D02*
X72535723Y-49478977D01*
X72603352Y-49524165D01*
X72803653Y-49658003D01*
X73119700Y-49720868D01*
X73120819Y-49720645D01*
X73260423Y-49929577D01*
X73644108Y-50185947D01*
X73439866Y-50282611D01*
X73063959Y-50697577D01*
X72903096Y-51085961D01*
X73025085Y-51308000D01*
X74168000Y-51308000D01*
X74168000Y-51288000D01*
X74422000Y-51288000D01*
X74422000Y-51308000D01*
X74442000Y-51308000D01*
X74442000Y-51562000D01*
X74422000Y-51562000D01*
X74422000Y-51582000D01*
X74168000Y-51582000D01*
X74168000Y-51562000D01*
X73025085Y-51562000D01*
X72903096Y-51784039D01*
X73063959Y-52172423D01*
X73439866Y-52587389D01*
X73644108Y-52684053D01*
X73260423Y-52940423D01*
X72943260Y-53415091D01*
X72831887Y-53975000D01*
X72943260Y-54534909D01*
X73260423Y-55009577D01*
X73612758Y-55245000D01*
X73260423Y-55480423D01*
X72943260Y-55955091D01*
X72831887Y-56515000D01*
X72943260Y-57074909D01*
X73260423Y-57549577D01*
X73612758Y-57785000D01*
X73260423Y-58020423D01*
X72943260Y-58495091D01*
X72831887Y-59055000D01*
X72943260Y-59614909D01*
X73260423Y-60089577D01*
X73612758Y-60325000D01*
X73260423Y-60560423D01*
X73074214Y-60839104D01*
X72921305Y-60869520D01*
X72873162Y-60879096D01*
X72686118Y-61004076D01*
X72621771Y-61047071D01*
X72579371Y-61110527D01*
X68950199Y-64739700D01*
X67996812Y-64739700D01*
X68026740Y-64694909D01*
X68138113Y-64135000D01*
X68026740Y-63575091D01*
X67709577Y-63100423D01*
X67357242Y-62865000D01*
X67709577Y-62629577D01*
X68026740Y-62154909D01*
X68138113Y-61595000D01*
X68026740Y-61035091D01*
X67709577Y-60560423D01*
X67357242Y-60325000D01*
X67709577Y-60089577D01*
X68026740Y-59614909D01*
X68138113Y-59055000D01*
X68026740Y-58495091D01*
X67709577Y-58020423D01*
X67357242Y-57785000D01*
X67709577Y-57549577D01*
X68026740Y-57074909D01*
X68138113Y-56515000D01*
X68026740Y-55955091D01*
X67709577Y-55480423D01*
X67357242Y-55245000D01*
X67709577Y-55009577D01*
X68026740Y-54534909D01*
X68138113Y-53975000D01*
X68026740Y-53415091D01*
X67709577Y-52940423D01*
X67357242Y-52705000D01*
X67709577Y-52469577D01*
X68026740Y-51994909D01*
X68138113Y-51435000D01*
X68026740Y-50875091D01*
X67709577Y-50400423D01*
X67603082Y-50329265D01*
X67834698Y-50233327D01*
X68013327Y-50054699D01*
X68110000Y-49821310D01*
X68110000Y-49180750D01*
X67951250Y-49022000D01*
X66802000Y-49022000D01*
X66802000Y-49042000D01*
X66548000Y-49042000D01*
X66548000Y-49022000D01*
X66528000Y-49022000D01*
X66528000Y-48768000D01*
X66548000Y-48768000D01*
X66548000Y-47618750D01*
X66802000Y-47618750D01*
X66802000Y-48768000D01*
X67951250Y-48768000D01*
X68110000Y-48609250D01*
X68110000Y-47968690D01*
X68013327Y-47735301D01*
X67834698Y-47556673D01*
X67601309Y-47460000D01*
X66960750Y-47460000D01*
X66802000Y-47618750D01*
X66548000Y-47618750D01*
X66389250Y-47460000D01*
X66309700Y-47460000D01*
X66309700Y-43230512D01*
X72490534Y-49411347D01*
X72490534Y-49411347D01*
G37*
X72490534Y-49411347D02*
X72535723Y-49478977D01*
X72603352Y-49524165D01*
X72803653Y-49658003D01*
X73119700Y-49720868D01*
X73120819Y-49720645D01*
X73260423Y-49929577D01*
X73644108Y-50185947D01*
X73439866Y-50282611D01*
X73063959Y-50697577D01*
X72903096Y-51085961D01*
X73025085Y-51308000D01*
X74168000Y-51308000D01*
X74168000Y-51288000D01*
X74422000Y-51288000D01*
X74422000Y-51308000D01*
X74442000Y-51308000D01*
X74442000Y-51562000D01*
X74422000Y-51562000D01*
X74422000Y-51582000D01*
X74168000Y-51582000D01*
X74168000Y-51562000D01*
X73025085Y-51562000D01*
X72903096Y-51784039D01*
X73063959Y-52172423D01*
X73439866Y-52587389D01*
X73644108Y-52684053D01*
X73260423Y-52940423D01*
X72943260Y-53415091D01*
X72831887Y-53975000D01*
X72943260Y-54534909D01*
X73260423Y-55009577D01*
X73612758Y-55245000D01*
X73260423Y-55480423D01*
X72943260Y-55955091D01*
X72831887Y-56515000D01*
X72943260Y-57074909D01*
X73260423Y-57549577D01*
X73612758Y-57785000D01*
X73260423Y-58020423D01*
X72943260Y-58495091D01*
X72831887Y-59055000D01*
X72943260Y-59614909D01*
X73260423Y-60089577D01*
X73612758Y-60325000D01*
X73260423Y-60560423D01*
X73074214Y-60839104D01*
X72921305Y-60869520D01*
X72873162Y-60879096D01*
X72686118Y-61004076D01*
X72621771Y-61047071D01*
X72579371Y-61110527D01*
X68950199Y-64739700D01*
X67996812Y-64739700D01*
X68026740Y-64694909D01*
X68138113Y-64135000D01*
X68026740Y-63575091D01*
X67709577Y-63100423D01*
X67357242Y-62865000D01*
X67709577Y-62629577D01*
X68026740Y-62154909D01*
X68138113Y-61595000D01*
X68026740Y-61035091D01*
X67709577Y-60560423D01*
X67357242Y-60325000D01*
X67709577Y-60089577D01*
X68026740Y-59614909D01*
X68138113Y-59055000D01*
X68026740Y-58495091D01*
X67709577Y-58020423D01*
X67357242Y-57785000D01*
X67709577Y-57549577D01*
X68026740Y-57074909D01*
X68138113Y-56515000D01*
X68026740Y-55955091D01*
X67709577Y-55480423D01*
X67357242Y-55245000D01*
X67709577Y-55009577D01*
X68026740Y-54534909D01*
X68138113Y-53975000D01*
X68026740Y-53415091D01*
X67709577Y-52940423D01*
X67357242Y-52705000D01*
X67709577Y-52469577D01*
X68026740Y-51994909D01*
X68138113Y-51435000D01*
X68026740Y-50875091D01*
X67709577Y-50400423D01*
X67603082Y-50329265D01*
X67834698Y-50233327D01*
X68013327Y-50054699D01*
X68110000Y-49821310D01*
X68110000Y-49180750D01*
X67951250Y-49022000D01*
X66802000Y-49022000D01*
X66802000Y-49042000D01*
X66548000Y-49042000D01*
X66548000Y-49022000D01*
X66528000Y-49022000D01*
X66528000Y-48768000D01*
X66548000Y-48768000D01*
X66548000Y-47618750D01*
X66802000Y-47618750D01*
X66802000Y-48768000D01*
X67951250Y-48768000D01*
X68110000Y-48609250D01*
X68110000Y-47968690D01*
X68013327Y-47735301D01*
X67834698Y-47556673D01*
X67601309Y-47460000D01*
X66960750Y-47460000D01*
X66802000Y-47618750D01*
X66548000Y-47618750D01*
X66389250Y-47460000D01*
X66309700Y-47460000D01*
X66309700Y-43230512D01*
X72490534Y-49411347D01*
G36*
X96391161Y-41854418D02*
X96719375Y-42345625D01*
X97017761Y-42545000D01*
X96719375Y-42744375D01*
X96391161Y-43235582D01*
X96275908Y-43815000D01*
X96348791Y-44181407D01*
X91632595Y-48897604D01*
X91633113Y-48895000D01*
X91521740Y-48335091D01*
X91204577Y-47860423D01*
X90729909Y-47543260D01*
X90311333Y-47460000D01*
X90028667Y-47460000D01*
X89610091Y-47543260D01*
X89135423Y-47860423D01*
X88818260Y-48335091D01*
X88706887Y-48895000D01*
X88818260Y-49454909D01*
X89135423Y-49929577D01*
X89519108Y-50185947D01*
X89314866Y-50282611D01*
X88938959Y-50697577D01*
X88778096Y-51085961D01*
X88900085Y-51308000D01*
X90043000Y-51308000D01*
X90043000Y-51288000D01*
X90297000Y-51288000D01*
X90297000Y-51308000D01*
X90317000Y-51308000D01*
X90317000Y-51562000D01*
X90297000Y-51562000D01*
X90297000Y-51582000D01*
X90043000Y-51582000D01*
X90043000Y-51562000D01*
X88900085Y-51562000D01*
X88778096Y-51784039D01*
X88938959Y-52172423D01*
X89082557Y-52330941D01*
X85459400Y-55954099D01*
X84265831Y-54760530D01*
X84223429Y-54697071D01*
X83972037Y-54529096D01*
X83905528Y-54515866D01*
X84013113Y-53975000D01*
X83948688Y-53651114D01*
X84174573Y-53425229D01*
X84238029Y-53382829D01*
X84406004Y-53131437D01*
X84450100Y-52909752D01*
X84450100Y-52909747D01*
X84464988Y-52834900D01*
X84450100Y-52760053D01*
X84450100Y-46985100D01*
X90225053Y-46985100D01*
X90299900Y-46999988D01*
X90374747Y-46985100D01*
X90374752Y-46985100D01*
X90596437Y-46941004D01*
X90847829Y-46773029D01*
X90890231Y-46709570D01*
X96284020Y-41315782D01*
X96391161Y-41854418D01*
X96391161Y-41854418D01*
G37*
X96391161Y-41854418D02*
X96719375Y-42345625D01*
X97017761Y-42545000D01*
X96719375Y-42744375D01*
X96391161Y-43235582D01*
X96275908Y-43815000D01*
X96348791Y-44181407D01*
X91632595Y-48897604D01*
X91633113Y-48895000D01*
X91521740Y-48335091D01*
X91204577Y-47860423D01*
X90729909Y-47543260D01*
X90311333Y-47460000D01*
X90028667Y-47460000D01*
X89610091Y-47543260D01*
X89135423Y-47860423D01*
X88818260Y-48335091D01*
X88706887Y-48895000D01*
X88818260Y-49454909D01*
X89135423Y-49929577D01*
X89519108Y-50185947D01*
X89314866Y-50282611D01*
X88938959Y-50697577D01*
X88778096Y-51085961D01*
X88900085Y-51308000D01*
X90043000Y-51308000D01*
X90043000Y-51288000D01*
X90297000Y-51288000D01*
X90297000Y-51308000D01*
X90317000Y-51308000D01*
X90317000Y-51562000D01*
X90297000Y-51562000D01*
X90297000Y-51582000D01*
X90043000Y-51582000D01*
X90043000Y-51562000D01*
X88900085Y-51562000D01*
X88778096Y-51784039D01*
X88938959Y-52172423D01*
X89082557Y-52330941D01*
X85459400Y-55954099D01*
X84265831Y-54760530D01*
X84223429Y-54697071D01*
X83972037Y-54529096D01*
X83905528Y-54515866D01*
X84013113Y-53975000D01*
X83948688Y-53651114D01*
X84174573Y-53425229D01*
X84238029Y-53382829D01*
X84406004Y-53131437D01*
X84450100Y-52909752D01*
X84450100Y-52909747D01*
X84464988Y-52834900D01*
X84450100Y-52760053D01*
X84450100Y-46985100D01*
X90225053Y-46985100D01*
X90299900Y-46999988D01*
X90374747Y-46985100D01*
X90374752Y-46985100D01*
X90596437Y-46941004D01*
X90847829Y-46773029D01*
X90890231Y-46709570D01*
X96284020Y-41315782D01*
X96391161Y-41854418D01*
G36*
X82930101Y-46539903D02*
X82930101Y-47460000D01*
X82835750Y-47460000D01*
X82677000Y-47618750D01*
X82677000Y-48768000D01*
X82697000Y-48768000D01*
X82697000Y-49022000D01*
X82677000Y-49022000D01*
X82677000Y-49042000D01*
X82423000Y-49042000D01*
X82423000Y-49022000D01*
X82403000Y-49022000D01*
X82403000Y-48768000D01*
X82423000Y-48768000D01*
X82423000Y-47618750D01*
X82264250Y-47460000D01*
X82171900Y-47460000D01*
X82171900Y-47367911D01*
X82289331Y-47250480D01*
X82446900Y-46870074D01*
X82446900Y-46458326D01*
X82289331Y-46077920D01*
X81998180Y-45786769D01*
X81617774Y-45629200D01*
X81451702Y-45629200D01*
X77478501Y-41656000D01*
X77798404Y-41656000D01*
X77973621Y-41583423D01*
X82930101Y-46539903D01*
X82930101Y-46539903D01*
G37*
X82930101Y-46539903D02*
X82930101Y-47460000D01*
X82835750Y-47460000D01*
X82677000Y-47618750D01*
X82677000Y-48768000D01*
X82697000Y-48768000D01*
X82697000Y-49022000D01*
X82677000Y-49022000D01*
X82677000Y-49042000D01*
X82423000Y-49042000D01*
X82423000Y-49022000D01*
X82403000Y-49022000D01*
X82403000Y-48768000D01*
X82423000Y-48768000D01*
X82423000Y-47618750D01*
X82264250Y-47460000D01*
X82171900Y-47460000D01*
X82171900Y-47367911D01*
X82289331Y-47250480D01*
X82446900Y-46870074D01*
X82446900Y-46458326D01*
X82289331Y-46077920D01*
X81998180Y-45786769D01*
X81617774Y-45629200D01*
X81451702Y-45629200D01*
X77478501Y-41656000D01*
X77798404Y-41656000D01*
X77973621Y-41583423D01*
X82930101Y-46539903D01*
G04 #@! TD*
M02*
