G04 #@! TF.GenerationSoftware,KiCad,Pcbnew,5.0.2+dfsg1-1*
G04 #@! TF.CreationDate,2019-08-03T19:47:52+02:00*
G04 #@! TF.ProjectId,Stack-Pointer,53746163-6b2d-4506-9f69-6e7465722e6b,rev?*
G04 #@! TF.SameCoordinates,Original*
G04 #@! TF.FileFunction,Legend,Top*
G04 #@! TF.FilePolarity,Positive*
%FSLAX46Y46*%
G04 Gerber Fmt 4.6, Leading zero omitted, Abs format (unit mm)*
G04 Created by KiCad (PCBNEW 5.0.2+dfsg1-1) date za 03 aug 2019 19:47:52 CEST*
%MOMM*%
%LPD*%
G01*
G04 APERTURE LIST*
%ADD10C,0.150000*%
%ADD11C,0.120000*%
G04 APERTURE END LIST*
D10*
X56485500Y-66067000D02*
X57199785Y-66067000D01*
X56628357Y-67105571D02*
X56735500Y-67141285D01*
X56914071Y-67141285D01*
X56985500Y-67105571D01*
X57021214Y-67069857D01*
X57056928Y-66998428D01*
X57056928Y-66927000D01*
X57021214Y-66855571D01*
X56985500Y-66819857D01*
X56914071Y-66784142D01*
X56771214Y-66748428D01*
X56699785Y-66712714D01*
X56664071Y-66677000D01*
X56628357Y-66605571D01*
X56628357Y-66534142D01*
X56664071Y-66462714D01*
X56699785Y-66427000D01*
X56771214Y-66391285D01*
X56949785Y-66391285D01*
X57056928Y-66427000D01*
X57199785Y-66067000D02*
X57771214Y-66067000D01*
X57271214Y-66391285D02*
X57699785Y-66391285D01*
X57485500Y-67141285D02*
X57485500Y-66391285D01*
X57771214Y-66067000D02*
X58521214Y-66067000D01*
X57949785Y-67141285D02*
X57949785Y-66391285D01*
X58378357Y-67141285D02*
X58056928Y-66712714D01*
X58378357Y-66391285D02*
X57949785Y-66819857D01*
X58521214Y-66067000D02*
X59092642Y-66067000D01*
X58521214Y-67212714D02*
X59092642Y-67212714D01*
X59092642Y-66067000D02*
X59878357Y-66067000D01*
X59414071Y-66391285D02*
X59556928Y-66391285D01*
X59628357Y-66427000D01*
X59699785Y-66498428D01*
X59735500Y-66641285D01*
X59735500Y-66891285D01*
X59699785Y-67034142D01*
X59628357Y-67105571D01*
X59556928Y-67141285D01*
X59414071Y-67141285D01*
X59342642Y-67105571D01*
X59271214Y-67034142D01*
X59235500Y-66891285D01*
X59235500Y-66641285D01*
X59271214Y-66498428D01*
X59342642Y-66427000D01*
X59414071Y-66391285D01*
X59878357Y-66067000D02*
X60664071Y-66067000D01*
X60056928Y-66391285D02*
X60056928Y-66998428D01*
X60092642Y-67069857D01*
X60128357Y-67105571D01*
X60199785Y-67141285D01*
X60342642Y-67141285D01*
X60414071Y-67105571D01*
X60449785Y-67069857D01*
X60485500Y-66998428D01*
X60485500Y-66391285D01*
X60664071Y-66067000D02*
X61235500Y-66067000D01*
X60735500Y-66391285D02*
X61164071Y-66391285D01*
X60949785Y-67141285D02*
X60949785Y-66391285D01*
X56628357Y-62025571D02*
X56735500Y-62061285D01*
X56914071Y-62061285D01*
X56985500Y-62025571D01*
X57021214Y-61989857D01*
X57056928Y-61918428D01*
X57056928Y-61847000D01*
X57021214Y-61775571D01*
X56985500Y-61739857D01*
X56914071Y-61704142D01*
X56771214Y-61668428D01*
X56699785Y-61632714D01*
X56664071Y-61597000D01*
X56628357Y-61525571D01*
X56628357Y-61454142D01*
X56664071Y-61382714D01*
X56699785Y-61347000D01*
X56771214Y-61311285D01*
X56949785Y-61311285D01*
X57056928Y-61347000D01*
X57271214Y-61311285D02*
X57699785Y-61311285D01*
X57485500Y-62061285D02*
X57485500Y-61311285D01*
X57949785Y-62061285D02*
X57949785Y-61311285D01*
X58378357Y-62061285D02*
X58056928Y-61632714D01*
X58378357Y-61311285D02*
X57949785Y-61739857D01*
X58521214Y-62132714D02*
X59092642Y-62132714D01*
X59271214Y-62061285D02*
X59271214Y-61311285D01*
X59449785Y-61311285D01*
X59556928Y-61347000D01*
X59628357Y-61418428D01*
X59664071Y-61489857D01*
X59699785Y-61632714D01*
X59699785Y-61739857D01*
X59664071Y-61882714D01*
X59628357Y-61954142D01*
X59556928Y-62025571D01*
X59449785Y-62061285D01*
X59271214Y-62061285D01*
X60021214Y-61668428D02*
X60271214Y-61668428D01*
X60378357Y-62061285D02*
X60021214Y-62061285D01*
X60021214Y-61311285D01*
X60378357Y-61311285D01*
X61128357Y-61989857D02*
X61092642Y-62025571D01*
X60985500Y-62061285D01*
X60914071Y-62061285D01*
X60806928Y-62025571D01*
X60735500Y-61954142D01*
X60699785Y-61882714D01*
X60664071Y-61739857D01*
X60664071Y-61632714D01*
X60699785Y-61489857D01*
X60735500Y-61418428D01*
X60806928Y-61347000D01*
X60914071Y-61311285D01*
X60985500Y-61311285D01*
X61092642Y-61347000D01*
X61128357Y-61382714D01*
X56485500Y-63527000D02*
X57199785Y-63527000D01*
X56628357Y-64565571D02*
X56735500Y-64601285D01*
X56914071Y-64601285D01*
X56985500Y-64565571D01*
X57021214Y-64529857D01*
X57056928Y-64458428D01*
X57056928Y-64387000D01*
X57021214Y-64315571D01*
X56985500Y-64279857D01*
X56914071Y-64244142D01*
X56771214Y-64208428D01*
X56699785Y-64172714D01*
X56664071Y-64137000D01*
X56628357Y-64065571D01*
X56628357Y-63994142D01*
X56664071Y-63922714D01*
X56699785Y-63887000D01*
X56771214Y-63851285D01*
X56949785Y-63851285D01*
X57056928Y-63887000D01*
X57199785Y-63527000D02*
X57771214Y-63527000D01*
X57271214Y-63851285D02*
X57699785Y-63851285D01*
X57485500Y-64601285D02*
X57485500Y-63851285D01*
X57771214Y-63527000D02*
X58521214Y-63527000D01*
X57949785Y-64601285D02*
X57949785Y-63851285D01*
X58378357Y-64601285D02*
X58056928Y-64172714D01*
X58378357Y-63851285D02*
X57949785Y-64279857D01*
X58521214Y-63527000D02*
X59092642Y-63527000D01*
X58521214Y-64672714D02*
X59092642Y-64672714D01*
X59092642Y-63527000D02*
X59842642Y-63527000D01*
X59699785Y-64601285D02*
X59449785Y-64244142D01*
X59271214Y-64601285D02*
X59271214Y-63851285D01*
X59556928Y-63851285D01*
X59628357Y-63887000D01*
X59664071Y-63922714D01*
X59699785Y-63994142D01*
X59699785Y-64101285D01*
X59664071Y-64172714D01*
X59628357Y-64208428D01*
X59556928Y-64244142D01*
X59271214Y-64244142D01*
X59842642Y-63527000D02*
X60521214Y-63527000D01*
X60021214Y-64208428D02*
X60271214Y-64208428D01*
X60378357Y-64601285D02*
X60021214Y-64601285D01*
X60021214Y-63851285D01*
X60378357Y-63851285D01*
X60521214Y-63527000D02*
X61235500Y-63527000D01*
X60664071Y-64565571D02*
X60771214Y-64601285D01*
X60949785Y-64601285D01*
X61021214Y-64565571D01*
X61056928Y-64529857D01*
X61092642Y-64458428D01*
X61092642Y-64387000D01*
X61056928Y-64315571D01*
X61021214Y-64279857D01*
X60949785Y-64244142D01*
X60806928Y-64208428D01*
X60735500Y-64172714D01*
X60699785Y-64137000D01*
X60664071Y-64065571D01*
X60664071Y-63994142D01*
X60699785Y-63922714D01*
X60735500Y-63887000D01*
X60806928Y-63851285D01*
X60985500Y-63851285D01*
X61092642Y-63887000D01*
X61235500Y-63527000D02*
X61914071Y-63527000D01*
X61414071Y-64208428D02*
X61664071Y-64208428D01*
X61771214Y-64601285D02*
X61414071Y-64601285D01*
X61414071Y-63851285D01*
X61771214Y-63851285D01*
X61914071Y-63527000D02*
X62485500Y-63527000D01*
X61985500Y-63851285D02*
X62414071Y-63851285D01*
X62199785Y-64601285D02*
X62199785Y-63851285D01*
X56628357Y-59485571D02*
X56735500Y-59521285D01*
X56914071Y-59521285D01*
X56985500Y-59485571D01*
X57021214Y-59449857D01*
X57056928Y-59378428D01*
X57056928Y-59307000D01*
X57021214Y-59235571D01*
X56985500Y-59199857D01*
X56914071Y-59164142D01*
X56771214Y-59128428D01*
X56699785Y-59092714D01*
X56664071Y-59057000D01*
X56628357Y-58985571D01*
X56628357Y-58914142D01*
X56664071Y-58842714D01*
X56699785Y-58807000D01*
X56771214Y-58771285D01*
X56949785Y-58771285D01*
X57056928Y-58807000D01*
X57271214Y-58771285D02*
X57699785Y-58771285D01*
X57485500Y-59521285D02*
X57485500Y-58771285D01*
X57949785Y-59521285D02*
X57949785Y-58771285D01*
X58378357Y-59521285D02*
X58056928Y-59092714D01*
X58378357Y-58771285D02*
X57949785Y-59199857D01*
X58521214Y-59592714D02*
X59092642Y-59592714D01*
X59271214Y-59521285D02*
X59271214Y-58771285D01*
X59628357Y-59521285D02*
X59628357Y-58771285D01*
X60056928Y-59521285D01*
X60056928Y-58771285D01*
X60842642Y-59449857D02*
X60806928Y-59485571D01*
X60699785Y-59521285D01*
X60628357Y-59521285D01*
X60521214Y-59485571D01*
X60449785Y-59414142D01*
X60414071Y-59342714D01*
X60378357Y-59199857D01*
X60378357Y-59092714D01*
X60414071Y-58949857D01*
X60449785Y-58878428D01*
X60521214Y-58807000D01*
X60628357Y-58771285D01*
X60699785Y-58771285D01*
X60806928Y-58807000D01*
X60842642Y-58842714D01*
X57056928Y-51187000D02*
X56985500Y-51151285D01*
X56878357Y-51151285D01*
X56771214Y-51187000D01*
X56699785Y-51258428D01*
X56664071Y-51329857D01*
X56628357Y-51472714D01*
X56628357Y-51579857D01*
X56664071Y-51722714D01*
X56699785Y-51794142D01*
X56771214Y-51865571D01*
X56878357Y-51901285D01*
X56949785Y-51901285D01*
X57056928Y-51865571D01*
X57092642Y-51829857D01*
X57092642Y-51579857D01*
X56949785Y-51579857D01*
X57414071Y-51901285D02*
X57414071Y-51151285D01*
X57842642Y-51901285D01*
X57842642Y-51151285D01*
X58199785Y-51901285D02*
X58199785Y-51151285D01*
X58378357Y-51151285D01*
X58485500Y-51187000D01*
X58556928Y-51258428D01*
X58592642Y-51329857D01*
X58628357Y-51472714D01*
X58628357Y-51579857D01*
X58592642Y-51722714D01*
X58556928Y-51794142D01*
X58485500Y-51865571D01*
X58378357Y-51901285D01*
X58199785Y-51901285D01*
X56664071Y-54155571D02*
X57235500Y-54155571D01*
X56949785Y-54441285D02*
X56949785Y-53869857D01*
X57949785Y-53691285D02*
X57592642Y-53691285D01*
X57556928Y-54048428D01*
X57592642Y-54012714D01*
X57664071Y-53977000D01*
X57842642Y-53977000D01*
X57914071Y-54012714D01*
X57949785Y-54048428D01*
X57985500Y-54119857D01*
X57985500Y-54298428D01*
X57949785Y-54369857D01*
X57914071Y-54405571D01*
X57842642Y-54441285D01*
X57664071Y-54441285D01*
X57592642Y-54405571D01*
X57556928Y-54369857D01*
X58199785Y-53691285D02*
X58449785Y-54441285D01*
X58699785Y-53691285D01*
X57092642Y-56909857D02*
X57056928Y-56945571D01*
X56949785Y-56981285D01*
X56878357Y-56981285D01*
X56771214Y-56945571D01*
X56699785Y-56874142D01*
X56664071Y-56802714D01*
X56628357Y-56659857D01*
X56628357Y-56552714D01*
X56664071Y-56409857D01*
X56699785Y-56338428D01*
X56771214Y-56267000D01*
X56878357Y-56231285D01*
X56949785Y-56231285D01*
X57056928Y-56267000D01*
X57092642Y-56302714D01*
X57771214Y-56981285D02*
X57414071Y-56981285D01*
X57414071Y-56231285D01*
X58164071Y-56231285D02*
X58306928Y-56231285D01*
X58378357Y-56267000D01*
X58449785Y-56338428D01*
X58485500Y-56481285D01*
X58485500Y-56731285D01*
X58449785Y-56874142D01*
X58378357Y-56945571D01*
X58306928Y-56981285D01*
X58164071Y-56981285D01*
X58092642Y-56945571D01*
X58021214Y-56874142D01*
X57985500Y-56731285D01*
X57985500Y-56481285D01*
X58021214Y-56338428D01*
X58092642Y-56267000D01*
X58164071Y-56231285D01*
X59235500Y-56909857D02*
X59199785Y-56945571D01*
X59092642Y-56981285D01*
X59021214Y-56981285D01*
X58914071Y-56945571D01*
X58842642Y-56874142D01*
X58806928Y-56802714D01*
X58771214Y-56659857D01*
X58771214Y-56552714D01*
X58806928Y-56409857D01*
X58842642Y-56338428D01*
X58914071Y-56267000D01*
X59021214Y-56231285D01*
X59092642Y-56231285D01*
X59199785Y-56267000D01*
X59235500Y-56302714D01*
X59556928Y-56981285D02*
X59556928Y-56231285D01*
X59985500Y-56981285D02*
X59664071Y-56552714D01*
X59985500Y-56231285D02*
X59556928Y-56659857D01*
X125716357Y-33907000D02*
X126073500Y-33907000D01*
X125644928Y-34121285D02*
X125894928Y-33371285D01*
X126144928Y-34121285D01*
X126359214Y-33442714D02*
X126394928Y-33407000D01*
X126466357Y-33371285D01*
X126644928Y-33371285D01*
X126716357Y-33407000D01*
X126752071Y-33442714D01*
X126787785Y-33514142D01*
X126787785Y-33585571D01*
X126752071Y-33692714D01*
X126323500Y-34121285D01*
X126787785Y-34121285D01*
X125716357Y-31367000D02*
X126073500Y-31367000D01*
X125644928Y-31581285D02*
X125894928Y-30831285D01*
X126144928Y-31581285D01*
X126787785Y-31581285D02*
X126359214Y-31581285D01*
X126573500Y-31581285D02*
X126573500Y-30831285D01*
X126502071Y-30938428D01*
X126430642Y-31009857D01*
X126359214Y-31045571D01*
X125716357Y-41527000D02*
X126073500Y-41527000D01*
X125644928Y-41741285D02*
X125894928Y-40991285D01*
X126144928Y-41741285D01*
X126752071Y-40991285D02*
X126394928Y-40991285D01*
X126359214Y-41348428D01*
X126394928Y-41312714D01*
X126466357Y-41277000D01*
X126644928Y-41277000D01*
X126716357Y-41312714D01*
X126752071Y-41348428D01*
X126787785Y-41419857D01*
X126787785Y-41598428D01*
X126752071Y-41669857D01*
X126716357Y-41705571D01*
X126644928Y-41741285D01*
X126466357Y-41741285D01*
X126394928Y-41705571D01*
X126359214Y-41669857D01*
X125716357Y-38987000D02*
X126073500Y-38987000D01*
X125644928Y-39201285D02*
X125894928Y-38451285D01*
X126144928Y-39201285D01*
X126716357Y-38701285D02*
X126716357Y-39201285D01*
X126537785Y-38415571D02*
X126359214Y-38951285D01*
X126823500Y-38951285D01*
X125716357Y-36447000D02*
X126073500Y-36447000D01*
X125644928Y-36661285D02*
X125894928Y-35911285D01*
X126144928Y-36661285D01*
X126323500Y-35911285D02*
X126787785Y-35911285D01*
X126537785Y-36197000D01*
X126644928Y-36197000D01*
X126716357Y-36232714D01*
X126752071Y-36268428D01*
X126787785Y-36339857D01*
X126787785Y-36518428D01*
X126752071Y-36589857D01*
X126716357Y-36625571D01*
X126644928Y-36661285D01*
X126430642Y-36661285D01*
X126359214Y-36625571D01*
X126323500Y-36589857D01*
X125716357Y-46607000D02*
X126073500Y-46607000D01*
X125644928Y-46821285D02*
X125894928Y-46071285D01*
X126144928Y-46821285D01*
X126323500Y-46071285D02*
X126823500Y-46071285D01*
X126502071Y-46821285D01*
X125716357Y-28827000D02*
X126073500Y-28827000D01*
X125644928Y-29041285D02*
X125894928Y-28291285D01*
X126144928Y-29041285D01*
X126537785Y-28291285D02*
X126609214Y-28291285D01*
X126680642Y-28327000D01*
X126716357Y-28362714D01*
X126752071Y-28434142D01*
X126787785Y-28577000D01*
X126787785Y-28755571D01*
X126752071Y-28898428D01*
X126716357Y-28969857D01*
X126680642Y-29005571D01*
X126609214Y-29041285D01*
X126537785Y-29041285D01*
X126466357Y-29005571D01*
X126430642Y-28969857D01*
X126394928Y-28898428D01*
X126359214Y-28755571D01*
X126359214Y-28577000D01*
X126394928Y-28434142D01*
X126430642Y-28362714D01*
X126466357Y-28327000D01*
X126537785Y-28291285D01*
X125716357Y-44067000D02*
X126073500Y-44067000D01*
X125644928Y-44281285D02*
X125894928Y-43531285D01*
X126144928Y-44281285D01*
X126716357Y-43531285D02*
X126573500Y-43531285D01*
X126502071Y-43567000D01*
X126466357Y-43602714D01*
X126394928Y-43709857D01*
X126359214Y-43852714D01*
X126359214Y-44138428D01*
X126394928Y-44209857D01*
X126430642Y-44245571D01*
X126502071Y-44281285D01*
X126644928Y-44281285D01*
X126716357Y-44245571D01*
X126752071Y-44209857D01*
X126787785Y-44138428D01*
X126787785Y-43959857D01*
X126752071Y-43888428D01*
X126716357Y-43852714D01*
X126644928Y-43817000D01*
X126502071Y-43817000D01*
X126430642Y-43852714D01*
X126394928Y-43888428D01*
X126359214Y-43959857D01*
X125716357Y-64387000D02*
X126073500Y-64387000D01*
X125644928Y-64601285D02*
X125894928Y-63851285D01*
X126144928Y-64601285D01*
X126787785Y-64601285D02*
X126359214Y-64601285D01*
X126573500Y-64601285D02*
X126573500Y-63851285D01*
X126502071Y-63958428D01*
X126430642Y-64029857D01*
X126359214Y-64065571D01*
X127430642Y-64101285D02*
X127430642Y-64601285D01*
X127252071Y-63815571D02*
X127073500Y-64351285D01*
X127537785Y-64351285D01*
X125716357Y-59307000D02*
X126073500Y-59307000D01*
X125644928Y-59521285D02*
X125894928Y-58771285D01*
X126144928Y-59521285D01*
X126787785Y-59521285D02*
X126359214Y-59521285D01*
X126573500Y-59521285D02*
X126573500Y-58771285D01*
X126502071Y-58878428D01*
X126430642Y-58949857D01*
X126359214Y-58985571D01*
X127073500Y-58842714D02*
X127109214Y-58807000D01*
X127180642Y-58771285D01*
X127359214Y-58771285D01*
X127430642Y-58807000D01*
X127466357Y-58842714D01*
X127502071Y-58914142D01*
X127502071Y-58985571D01*
X127466357Y-59092714D01*
X127037785Y-59521285D01*
X127502071Y-59521285D01*
X125716357Y-66927000D02*
X126073500Y-66927000D01*
X125644928Y-67141285D02*
X125894928Y-66391285D01*
X126144928Y-67141285D01*
X126787785Y-67141285D02*
X126359214Y-67141285D01*
X126573500Y-67141285D02*
X126573500Y-66391285D01*
X126502071Y-66498428D01*
X126430642Y-66569857D01*
X126359214Y-66605571D01*
X127466357Y-66391285D02*
X127109214Y-66391285D01*
X127073500Y-66748428D01*
X127109214Y-66712714D01*
X127180642Y-66677000D01*
X127359214Y-66677000D01*
X127430642Y-66712714D01*
X127466357Y-66748428D01*
X127502071Y-66819857D01*
X127502071Y-66998428D01*
X127466357Y-67069857D01*
X127430642Y-67105571D01*
X127359214Y-67141285D01*
X127180642Y-67141285D01*
X127109214Y-67105571D01*
X127073500Y-67069857D01*
X125716357Y-54227000D02*
X126073500Y-54227000D01*
X125644928Y-54441285D02*
X125894928Y-53691285D01*
X126144928Y-54441285D01*
X126787785Y-54441285D02*
X126359214Y-54441285D01*
X126573500Y-54441285D02*
X126573500Y-53691285D01*
X126502071Y-53798428D01*
X126430642Y-53869857D01*
X126359214Y-53905571D01*
X127252071Y-53691285D02*
X127323500Y-53691285D01*
X127394928Y-53727000D01*
X127430642Y-53762714D01*
X127466357Y-53834142D01*
X127502071Y-53977000D01*
X127502071Y-54155571D01*
X127466357Y-54298428D01*
X127430642Y-54369857D01*
X127394928Y-54405571D01*
X127323500Y-54441285D01*
X127252071Y-54441285D01*
X127180642Y-54405571D01*
X127144928Y-54369857D01*
X127109214Y-54298428D01*
X127073500Y-54155571D01*
X127073500Y-53977000D01*
X127109214Y-53834142D01*
X127144928Y-53762714D01*
X127180642Y-53727000D01*
X127252071Y-53691285D01*
X125716357Y-51687000D02*
X126073500Y-51687000D01*
X125644928Y-51901285D02*
X125894928Y-51151285D01*
X126144928Y-51901285D01*
X126430642Y-51901285D02*
X126573500Y-51901285D01*
X126644928Y-51865571D01*
X126680642Y-51829857D01*
X126752071Y-51722714D01*
X126787785Y-51579857D01*
X126787785Y-51294142D01*
X126752071Y-51222714D01*
X126716357Y-51187000D01*
X126644928Y-51151285D01*
X126502071Y-51151285D01*
X126430642Y-51187000D01*
X126394928Y-51222714D01*
X126359214Y-51294142D01*
X126359214Y-51472714D01*
X126394928Y-51544142D01*
X126430642Y-51579857D01*
X126502071Y-51615571D01*
X126644928Y-51615571D01*
X126716357Y-51579857D01*
X126752071Y-51544142D01*
X126787785Y-51472714D01*
X125716357Y-61847000D02*
X126073500Y-61847000D01*
X125644928Y-62061285D02*
X125894928Y-61311285D01*
X126144928Y-62061285D01*
X126787785Y-62061285D02*
X126359214Y-62061285D01*
X126573500Y-62061285D02*
X126573500Y-61311285D01*
X126502071Y-61418428D01*
X126430642Y-61489857D01*
X126359214Y-61525571D01*
X127037785Y-61311285D02*
X127502071Y-61311285D01*
X127252071Y-61597000D01*
X127359214Y-61597000D01*
X127430642Y-61632714D01*
X127466357Y-61668428D01*
X127502071Y-61739857D01*
X127502071Y-61918428D01*
X127466357Y-61989857D01*
X127430642Y-62025571D01*
X127359214Y-62061285D01*
X127144928Y-62061285D01*
X127073500Y-62025571D01*
X127037785Y-61989857D01*
X125716357Y-49147000D02*
X126073500Y-49147000D01*
X125644928Y-49361285D02*
X125894928Y-48611285D01*
X126144928Y-49361285D01*
X126502071Y-48932714D02*
X126430642Y-48897000D01*
X126394928Y-48861285D01*
X126359214Y-48789857D01*
X126359214Y-48754142D01*
X126394928Y-48682714D01*
X126430642Y-48647000D01*
X126502071Y-48611285D01*
X126644928Y-48611285D01*
X126716357Y-48647000D01*
X126752071Y-48682714D01*
X126787785Y-48754142D01*
X126787785Y-48789857D01*
X126752071Y-48861285D01*
X126716357Y-48897000D01*
X126644928Y-48932714D01*
X126502071Y-48932714D01*
X126430642Y-48968428D01*
X126394928Y-49004142D01*
X126359214Y-49075571D01*
X126359214Y-49218428D01*
X126394928Y-49289857D01*
X126430642Y-49325571D01*
X126502071Y-49361285D01*
X126644928Y-49361285D01*
X126716357Y-49325571D01*
X126752071Y-49289857D01*
X126787785Y-49218428D01*
X126787785Y-49075571D01*
X126752071Y-49004142D01*
X126716357Y-48968428D01*
X126644928Y-48932714D01*
X125716357Y-56767000D02*
X126073500Y-56767000D01*
X125644928Y-56981285D02*
X125894928Y-56231285D01*
X126144928Y-56981285D01*
X126787785Y-56981285D02*
X126359214Y-56981285D01*
X126573500Y-56981285D02*
X126573500Y-56231285D01*
X126502071Y-56338428D01*
X126430642Y-56409857D01*
X126359214Y-56445571D01*
X127502071Y-56981285D02*
X127073500Y-56981285D01*
X127287785Y-56981285D02*
X127287785Y-56231285D01*
X127216357Y-56338428D01*
X127144928Y-56409857D01*
X127073500Y-56445571D01*
D11*
G04 #@! TO.C,J1*
X53280000Y-68005000D02*
X55940000Y-68005000D01*
X53280000Y-52705000D02*
X53280000Y-68005000D01*
X55940000Y-52705000D02*
X55940000Y-68005000D01*
X53280000Y-52705000D02*
X55940000Y-52705000D01*
X53280000Y-51435000D02*
X53280000Y-50105000D01*
X53280000Y-50105000D02*
X54610000Y-50105000D01*
G04 #@! TO.C,U5*
X116315000Y-27245000D02*
X114665000Y-27245000D01*
X116315000Y-52765000D02*
X116315000Y-27245000D01*
X111015000Y-52765000D02*
X116315000Y-52765000D01*
X111015000Y-27245000D02*
X111015000Y-52765000D01*
X112665000Y-27245000D02*
X111015000Y-27245000D01*
X114665000Y-27245000D02*
G75*
G02X112665000Y-27245000I-1000000J0D01*
G01*
G04 #@! TO.C,U4*
X100695000Y-27245000D02*
G75*
G02X98695000Y-27245000I-1000000J0D01*
G01*
X98695000Y-27245000D02*
X97045000Y-27245000D01*
X97045000Y-27245000D02*
X97045000Y-52765000D01*
X97045000Y-52765000D02*
X102345000Y-52765000D01*
X102345000Y-52765000D02*
X102345000Y-27245000D01*
X102345000Y-27245000D02*
X100695000Y-27245000D01*
G04 #@! TO.C,J2*
X121860000Y-68005000D02*
X124520000Y-68005000D01*
X121860000Y-29845000D02*
X121860000Y-68005000D01*
X124520000Y-29845000D02*
X124520000Y-68005000D01*
X121860000Y-29845000D02*
X124520000Y-29845000D01*
X121860000Y-28575000D02*
X121860000Y-27245000D01*
X121860000Y-27245000D02*
X123190000Y-27245000D01*
G04 #@! TO.C,BAR1*
X64975000Y-40005000D02*
X64975000Y-41705000D01*
X64975000Y-41705000D02*
X66675000Y-41705000D01*
X90945000Y-30975000D02*
X90945000Y-41415000D01*
X90945000Y-41415000D02*
X65265000Y-41415000D01*
X65265000Y-41415000D02*
X65265000Y-30975000D01*
X65265000Y-30975000D02*
X90945000Y-30975000D01*
G04 #@! TO.C,U1*
X59420000Y-27245000D02*
G75*
G02X57420000Y-27245000I-1000000J0D01*
G01*
X57420000Y-27245000D02*
X55770000Y-27245000D01*
X55770000Y-27245000D02*
X55770000Y-45145000D01*
X55770000Y-45145000D02*
X61070000Y-45145000D01*
X61070000Y-45145000D02*
X61070000Y-27245000D01*
X61070000Y-27245000D02*
X59420000Y-27245000D01*
G04 #@! TO.C,U3*
X87740000Y-47565000D02*
X86090000Y-47565000D01*
X87740000Y-68005000D02*
X87740000Y-47565000D01*
X82440000Y-68005000D02*
X87740000Y-68005000D01*
X82440000Y-47565000D02*
X82440000Y-68005000D01*
X84090000Y-47565000D02*
X82440000Y-47565000D01*
X86090000Y-47565000D02*
G75*
G02X84090000Y-47565000I-1000000J0D01*
G01*
G04 #@! TO.C,U2*
X71485000Y-47565000D02*
G75*
G02X69485000Y-47565000I-1000000J0D01*
G01*
X69485000Y-47565000D02*
X67835000Y-47565000D01*
X67835000Y-47565000D02*
X67835000Y-68005000D01*
X67835000Y-68005000D02*
X73135000Y-68005000D01*
X73135000Y-68005000D02*
X73135000Y-47565000D01*
X73135000Y-47565000D02*
X71485000Y-47565000D01*
G04 #@! TO.C,RN1*
X90975000Y-29975000D02*
X90975000Y-27175000D01*
X90975000Y-27175000D02*
X67775000Y-27175000D01*
X67775000Y-27175000D02*
X67775000Y-29975000D01*
X67775000Y-29975000D02*
X90975000Y-29975000D01*
X88265000Y-29975000D02*
X88265000Y-27175000D01*
G04 #@! TO.C,J1*
D10*
X54276666Y-48557380D02*
X54276666Y-49271666D01*
X54229047Y-49414523D01*
X54133809Y-49509761D01*
X53990952Y-49557380D01*
X53895714Y-49557380D01*
X55276666Y-49557380D02*
X54705238Y-49557380D01*
X54990952Y-49557380D02*
X54990952Y-48557380D01*
X54895714Y-48700238D01*
X54800476Y-48795476D01*
X54705238Y-48843095D01*
G04 #@! TO.C,U5*
X112903095Y-39457380D02*
X112903095Y-40266904D01*
X112950714Y-40362142D01*
X112998333Y-40409761D01*
X113093571Y-40457380D01*
X113284047Y-40457380D01*
X113379285Y-40409761D01*
X113426904Y-40362142D01*
X113474523Y-40266904D01*
X113474523Y-39457380D01*
X114426904Y-39457380D02*
X113950714Y-39457380D01*
X113903095Y-39933571D01*
X113950714Y-39885952D01*
X114045952Y-39838333D01*
X114284047Y-39838333D01*
X114379285Y-39885952D01*
X114426904Y-39933571D01*
X114474523Y-40028809D01*
X114474523Y-40266904D01*
X114426904Y-40362142D01*
X114379285Y-40409761D01*
X114284047Y-40457380D01*
X114045952Y-40457380D01*
X113950714Y-40409761D01*
X113903095Y-40362142D01*
X111022142Y-53217380D02*
X111688809Y-53217380D01*
X111260238Y-54217380D01*
X112498333Y-53550714D02*
X112498333Y-54217380D01*
X112260238Y-53169761D02*
X112022142Y-53884047D01*
X112641190Y-53884047D01*
X112926904Y-54217380D02*
X113450714Y-53550714D01*
X112926904Y-53550714D02*
X113450714Y-54217380D01*
X113784047Y-53312619D02*
X113831666Y-53265000D01*
X113926904Y-53217380D01*
X114165000Y-53217380D01*
X114260238Y-53265000D01*
X114307857Y-53312619D01*
X114355476Y-53407857D01*
X114355476Y-53503095D01*
X114307857Y-53645952D01*
X113736428Y-54217380D01*
X114355476Y-54217380D01*
X115212619Y-53550714D02*
X115212619Y-54217380D01*
X114974523Y-53169761D02*
X114736428Y-53884047D01*
X115355476Y-53884047D01*
X116212619Y-53217380D02*
X115736428Y-53217380D01*
X115688809Y-53693571D01*
X115736428Y-53645952D01*
X115831666Y-53598333D01*
X116069761Y-53598333D01*
X116165000Y-53645952D01*
X116212619Y-53693571D01*
X116260238Y-53788809D01*
X116260238Y-54026904D01*
X116212619Y-54122142D01*
X116165000Y-54169761D01*
X116069761Y-54217380D01*
X115831666Y-54217380D01*
X115736428Y-54169761D01*
X115688809Y-54122142D01*
G04 #@! TO.C,U4*
X98933095Y-39457380D02*
X98933095Y-40266904D01*
X98980714Y-40362142D01*
X99028333Y-40409761D01*
X99123571Y-40457380D01*
X99314047Y-40457380D01*
X99409285Y-40409761D01*
X99456904Y-40362142D01*
X99504523Y-40266904D01*
X99504523Y-39457380D01*
X100409285Y-39790714D02*
X100409285Y-40457380D01*
X100171190Y-39409761D02*
X99933095Y-40124047D01*
X100552142Y-40124047D01*
X97052142Y-53217380D02*
X97718809Y-53217380D01*
X97290238Y-54217380D01*
X98528333Y-53550714D02*
X98528333Y-54217380D01*
X98290238Y-53169761D02*
X98052142Y-53884047D01*
X98671190Y-53884047D01*
X98956904Y-54217380D02*
X99480714Y-53550714D01*
X98956904Y-53550714D02*
X99480714Y-54217380D01*
X99814047Y-53312619D02*
X99861666Y-53265000D01*
X99956904Y-53217380D01*
X100195000Y-53217380D01*
X100290238Y-53265000D01*
X100337857Y-53312619D01*
X100385476Y-53407857D01*
X100385476Y-53503095D01*
X100337857Y-53645952D01*
X99766428Y-54217380D01*
X100385476Y-54217380D01*
X101242619Y-53550714D02*
X101242619Y-54217380D01*
X101004523Y-53169761D02*
X100766428Y-53884047D01*
X101385476Y-53884047D01*
X102242619Y-53217380D02*
X101766428Y-53217380D01*
X101718809Y-53693571D01*
X101766428Y-53645952D01*
X101861666Y-53598333D01*
X102099761Y-53598333D01*
X102195000Y-53645952D01*
X102242619Y-53693571D01*
X102290238Y-53788809D01*
X102290238Y-54026904D01*
X102242619Y-54122142D01*
X102195000Y-54169761D01*
X102099761Y-54217380D01*
X101861666Y-54217380D01*
X101766428Y-54169761D01*
X101718809Y-54122142D01*
G04 #@! TO.C,J2*
X122856666Y-25697380D02*
X122856666Y-26411666D01*
X122809047Y-26554523D01*
X122713809Y-26649761D01*
X122570952Y-26697380D01*
X122475714Y-26697380D01*
X123285238Y-25792619D02*
X123332857Y-25745000D01*
X123428095Y-25697380D01*
X123666190Y-25697380D01*
X123761428Y-25745000D01*
X123809047Y-25792619D01*
X123856666Y-25887857D01*
X123856666Y-25983095D01*
X123809047Y-26125952D01*
X123237619Y-26697380D01*
X123856666Y-26697380D01*
X121102380Y-54148809D02*
X120102380Y-54148809D01*
X120816666Y-53815476D01*
X120102380Y-53482142D01*
X121102380Y-53482142D01*
X120578571Y-53005952D02*
X120578571Y-52672619D01*
X121102380Y-52529761D02*
X121102380Y-53005952D01*
X120102380Y-53005952D01*
X120102380Y-52529761D01*
X121102380Y-52101190D02*
X120102380Y-52101190D01*
X120816666Y-51767857D01*
X120102380Y-51434523D01*
X121102380Y-51434523D01*
X120102380Y-50767857D02*
X120102380Y-50577380D01*
X120150000Y-50482142D01*
X120245238Y-50386904D01*
X120435714Y-50339285D01*
X120769047Y-50339285D01*
X120959523Y-50386904D01*
X121054761Y-50482142D01*
X121102380Y-50577380D01*
X121102380Y-50767857D01*
X121054761Y-50863095D01*
X120959523Y-50958333D01*
X120769047Y-51005952D01*
X120435714Y-51005952D01*
X120245238Y-50958333D01*
X120150000Y-50863095D01*
X120102380Y-50767857D01*
X121102380Y-49339285D02*
X120626190Y-49672619D01*
X121102380Y-49910714D02*
X120102380Y-49910714D01*
X120102380Y-49529761D01*
X120150000Y-49434523D01*
X120197619Y-49386904D01*
X120292857Y-49339285D01*
X120435714Y-49339285D01*
X120530952Y-49386904D01*
X120578571Y-49434523D01*
X120626190Y-49529761D01*
X120626190Y-49910714D01*
X120626190Y-48720238D02*
X121102380Y-48720238D01*
X120102380Y-49053571D02*
X120626190Y-48720238D01*
X120102380Y-48386904D01*
X120816666Y-47339285D02*
X120816666Y-46863095D01*
X121102380Y-47434523D02*
X120102380Y-47101190D01*
X121102380Y-46767857D01*
X121102380Y-46434523D02*
X120102380Y-46434523D01*
X120102380Y-46196428D01*
X120150000Y-46053571D01*
X120245238Y-45958333D01*
X120340476Y-45910714D01*
X120530952Y-45863095D01*
X120673809Y-45863095D01*
X120864285Y-45910714D01*
X120959523Y-45958333D01*
X121054761Y-46053571D01*
X121102380Y-46196428D01*
X121102380Y-46434523D01*
X121102380Y-45434523D02*
X120102380Y-45434523D01*
X120102380Y-45196428D01*
X120150000Y-45053571D01*
X120245238Y-44958333D01*
X120340476Y-44910714D01*
X120530952Y-44863095D01*
X120673809Y-44863095D01*
X120864285Y-44910714D01*
X120959523Y-44958333D01*
X121054761Y-45053571D01*
X121102380Y-45196428D01*
X121102380Y-45434523D01*
X121102380Y-43863095D02*
X120626190Y-44196428D01*
X121102380Y-44434523D02*
X120102380Y-44434523D01*
X120102380Y-44053571D01*
X120150000Y-43958333D01*
X120197619Y-43910714D01*
X120292857Y-43863095D01*
X120435714Y-43863095D01*
X120530952Y-43910714D01*
X120578571Y-43958333D01*
X120626190Y-44053571D01*
X120626190Y-44434523D01*
X120578571Y-43434523D02*
X120578571Y-43101190D01*
X121102380Y-42958333D02*
X121102380Y-43434523D01*
X120102380Y-43434523D01*
X120102380Y-42958333D01*
X121054761Y-42577380D02*
X121102380Y-42434523D01*
X121102380Y-42196428D01*
X121054761Y-42101190D01*
X121007142Y-42053571D01*
X120911904Y-42005952D01*
X120816666Y-42005952D01*
X120721428Y-42053571D01*
X120673809Y-42101190D01*
X120626190Y-42196428D01*
X120578571Y-42386904D01*
X120530952Y-42482142D01*
X120483333Y-42529761D01*
X120388095Y-42577380D01*
X120292857Y-42577380D01*
X120197619Y-42529761D01*
X120150000Y-42482142D01*
X120102380Y-42386904D01*
X120102380Y-42148809D01*
X120150000Y-42005952D01*
X121054761Y-41625000D02*
X121102380Y-41482142D01*
X121102380Y-41244047D01*
X121054761Y-41148809D01*
X121007142Y-41101190D01*
X120911904Y-41053571D01*
X120816666Y-41053571D01*
X120721428Y-41101190D01*
X120673809Y-41148809D01*
X120626190Y-41244047D01*
X120578571Y-41434523D01*
X120530952Y-41529761D01*
X120483333Y-41577380D01*
X120388095Y-41625000D01*
X120292857Y-41625000D01*
X120197619Y-41577380D01*
X120150000Y-41529761D01*
X120102380Y-41434523D01*
X120102380Y-41196428D01*
X120150000Y-41053571D01*
G04 #@! TO.C,BAR1*
X78668571Y-37528333D02*
X78716190Y-37385476D01*
X78763809Y-37337857D01*
X78859047Y-37290238D01*
X79001904Y-37290238D01*
X79097142Y-37337857D01*
X79144761Y-37385476D01*
X79192380Y-37480714D01*
X79192380Y-37861666D01*
X78192380Y-37861666D01*
X78192380Y-37528333D01*
X78240000Y-37433095D01*
X78287619Y-37385476D01*
X78382857Y-37337857D01*
X78478095Y-37337857D01*
X78573333Y-37385476D01*
X78620952Y-37433095D01*
X78668571Y-37528333D01*
X78668571Y-37861666D01*
X78906666Y-36909285D02*
X78906666Y-36433095D01*
X79192380Y-37004523D02*
X78192380Y-36671190D01*
X79192380Y-36337857D01*
X79192380Y-35433095D02*
X78716190Y-35766428D01*
X79192380Y-36004523D02*
X78192380Y-36004523D01*
X78192380Y-35623571D01*
X78240000Y-35528333D01*
X78287619Y-35480714D01*
X78382857Y-35433095D01*
X78525714Y-35433095D01*
X78620952Y-35480714D01*
X78668571Y-35528333D01*
X78716190Y-35623571D01*
X78716190Y-36004523D01*
X79192380Y-34480714D02*
X79192380Y-35052142D01*
X79192380Y-34766428D02*
X78192380Y-34766428D01*
X78335238Y-34861666D01*
X78430476Y-34956904D01*
X78478095Y-35052142D01*
G04 #@! TO.C,U1*
X57658095Y-35850379D02*
X57658095Y-36659903D01*
X57705714Y-36755141D01*
X57753333Y-36802760D01*
X57848571Y-36850379D01*
X58039047Y-36850379D01*
X58134285Y-36802760D01*
X58181904Y-36755141D01*
X58229523Y-36659903D01*
X58229523Y-35850379D01*
X59229523Y-36850379D02*
X58658095Y-36850379D01*
X58943809Y-36850379D02*
X58943809Y-35850379D01*
X58848571Y-35993237D01*
X58753333Y-36088475D01*
X58658095Y-36136094D01*
X56253333Y-45597380D02*
X56920000Y-45597380D01*
X56491428Y-46597380D01*
X57729523Y-45930714D02*
X57729523Y-46597380D01*
X57491428Y-45549761D02*
X57253333Y-46264047D01*
X57872380Y-46264047D01*
X58158095Y-46597380D02*
X58681904Y-45930714D01*
X58158095Y-45930714D02*
X58681904Y-46597380D01*
X59253333Y-45597380D02*
X59348571Y-45597380D01*
X59443809Y-45645000D01*
X59491428Y-45692619D01*
X59539047Y-45787857D01*
X59586666Y-45978333D01*
X59586666Y-46216428D01*
X59539047Y-46406904D01*
X59491428Y-46502142D01*
X59443809Y-46549761D01*
X59348571Y-46597380D01*
X59253333Y-46597380D01*
X59158095Y-46549761D01*
X59110476Y-46502142D01*
X59062857Y-46406904D01*
X59015238Y-46216428D01*
X59015238Y-45978333D01*
X59062857Y-45787857D01*
X59110476Y-45692619D01*
X59158095Y-45645000D01*
X59253333Y-45597380D01*
X59967619Y-45692619D02*
X60015238Y-45645000D01*
X60110476Y-45597380D01*
X60348571Y-45597380D01*
X60443809Y-45645000D01*
X60491428Y-45692619D01*
X60539047Y-45787857D01*
X60539047Y-45883095D01*
X60491428Y-46025952D01*
X59920000Y-46597380D01*
X60539047Y-46597380D01*
G04 #@! TO.C,U3*
X84328095Y-57193380D02*
X84328095Y-58002904D01*
X84375714Y-58098142D01*
X84423333Y-58145761D01*
X84518571Y-58193380D01*
X84709047Y-58193380D01*
X84804285Y-58145761D01*
X84851904Y-58098142D01*
X84899523Y-58002904D01*
X84899523Y-57193380D01*
X85280476Y-57193380D02*
X85899523Y-57193380D01*
X85566190Y-57574333D01*
X85709047Y-57574333D01*
X85804285Y-57621952D01*
X85851904Y-57669571D01*
X85899523Y-57764809D01*
X85899523Y-58002904D01*
X85851904Y-58098142D01*
X85804285Y-58145761D01*
X85709047Y-58193380D01*
X85423333Y-58193380D01*
X85328095Y-58145761D01*
X85280476Y-58098142D01*
X82447142Y-68457380D02*
X83113809Y-68457380D01*
X82685238Y-69457380D01*
X83923333Y-68790714D02*
X83923333Y-69457380D01*
X83685238Y-68409761D02*
X83447142Y-69124047D01*
X84066190Y-69124047D01*
X84351904Y-69457380D02*
X84875714Y-68790714D01*
X84351904Y-68790714D02*
X84875714Y-69457380D01*
X85780476Y-69457380D02*
X85209047Y-69457380D01*
X85494761Y-69457380D02*
X85494761Y-68457380D01*
X85399523Y-68600238D01*
X85304285Y-68695476D01*
X85209047Y-68743095D01*
X86256666Y-69457380D02*
X86447142Y-69457380D01*
X86542380Y-69409761D01*
X86590000Y-69362142D01*
X86685238Y-69219285D01*
X86732857Y-69028809D01*
X86732857Y-68647857D01*
X86685238Y-68552619D01*
X86637619Y-68505000D01*
X86542380Y-68457380D01*
X86351904Y-68457380D01*
X86256666Y-68505000D01*
X86209047Y-68552619D01*
X86161428Y-68647857D01*
X86161428Y-68885952D01*
X86209047Y-68981190D01*
X86256666Y-69028809D01*
X86351904Y-69076428D01*
X86542380Y-69076428D01*
X86637619Y-69028809D01*
X86685238Y-68981190D01*
X86732857Y-68885952D01*
X87685238Y-69457380D02*
X87113809Y-69457380D01*
X87399523Y-69457380D02*
X87399523Y-68457380D01*
X87304285Y-68600238D01*
X87209047Y-68695476D01*
X87113809Y-68743095D01*
G04 #@! TO.C,U2*
X69723095Y-57193380D02*
X69723095Y-58002904D01*
X69770714Y-58098142D01*
X69818333Y-58145761D01*
X69913571Y-58193380D01*
X70104047Y-58193380D01*
X70199285Y-58145761D01*
X70246904Y-58098142D01*
X70294523Y-58002904D01*
X70294523Y-57193380D01*
X70723095Y-57288619D02*
X70770714Y-57241000D01*
X70865952Y-57193380D01*
X71104047Y-57193380D01*
X71199285Y-57241000D01*
X71246904Y-57288619D01*
X71294523Y-57383857D01*
X71294523Y-57479095D01*
X71246904Y-57621952D01*
X70675476Y-58193380D01*
X71294523Y-58193380D01*
X67842142Y-68457380D02*
X68508809Y-68457380D01*
X68080238Y-69457380D01*
X69318333Y-68790714D02*
X69318333Y-69457380D01*
X69080238Y-68409761D02*
X68842142Y-69124047D01*
X69461190Y-69124047D01*
X69746904Y-69457380D02*
X70270714Y-68790714D01*
X69746904Y-68790714D02*
X70270714Y-69457380D01*
X71175476Y-69457380D02*
X70604047Y-69457380D01*
X70889761Y-69457380D02*
X70889761Y-68457380D01*
X70794523Y-68600238D01*
X70699285Y-68695476D01*
X70604047Y-68743095D01*
X71651666Y-69457380D02*
X71842142Y-69457380D01*
X71937380Y-69409761D01*
X71985000Y-69362142D01*
X72080238Y-69219285D01*
X72127857Y-69028809D01*
X72127857Y-68647857D01*
X72080238Y-68552619D01*
X72032619Y-68505000D01*
X71937380Y-68457380D01*
X71746904Y-68457380D01*
X71651666Y-68505000D01*
X71604047Y-68552619D01*
X71556428Y-68647857D01*
X71556428Y-68885952D01*
X71604047Y-68981190D01*
X71651666Y-69028809D01*
X71746904Y-69076428D01*
X71937380Y-69076428D01*
X72032619Y-69028809D01*
X72080238Y-68981190D01*
X72127857Y-68885952D01*
X73080238Y-69457380D02*
X72508809Y-69457380D01*
X72794523Y-69457380D02*
X72794523Y-68457380D01*
X72699285Y-68600238D01*
X72604047Y-68695476D01*
X72508809Y-68743095D01*
G04 #@! TO.C,RN1*
X78684523Y-29027380D02*
X78351190Y-28551190D01*
X78113095Y-29027380D02*
X78113095Y-28027380D01*
X78494047Y-28027380D01*
X78589285Y-28075000D01*
X78636904Y-28122619D01*
X78684523Y-28217857D01*
X78684523Y-28360714D01*
X78636904Y-28455952D01*
X78589285Y-28503571D01*
X78494047Y-28551190D01*
X78113095Y-28551190D01*
X79113095Y-29027380D02*
X79113095Y-28027380D01*
X79684523Y-29027380D01*
X79684523Y-28027380D01*
X80684523Y-29027380D02*
X80113095Y-29027380D01*
X80398809Y-29027380D02*
X80398809Y-28027380D01*
X80303571Y-28170238D01*
X80208333Y-28265476D01*
X80113095Y-28313095D01*
G04 #@! TD*
M02*
