G04 #@! TF.GenerationSoftware,KiCad,Pcbnew,5.0.2+dfsg1-1*
G04 #@! TF.CreationDate,2019-07-26T12:14:53+02:00*
G04 #@! TF.ProjectId,Stack-Pointer,53746163-6b2d-4506-9f69-6e7465722e6b,rev?*
G04 #@! TF.SameCoordinates,Original*
G04 #@! TF.FileFunction,Copper,L2,Bot*
G04 #@! TF.FilePolarity,Positive*
%FSLAX46Y46*%
G04 Gerber Fmt 4.6, Leading zero omitted, Abs format (unit mm)*
G04 Created by KiCad (PCBNEW 5.0.2+dfsg1-1) date vr 26 jul 2019 12:14:53 CEST*
%MOMM*%
%LPD*%
G01*
G04 APERTURE LIST*
G04 #@! TA.AperFunction,ComponentPad*
%ADD10R,1.700000X1.700000*%
G04 #@! TD*
G04 #@! TA.AperFunction,ComponentPad*
%ADD11O,1.700000X1.700000*%
G04 #@! TD*
G04 #@! TA.AperFunction,ComponentPad*
%ADD12R,2.032000X2.032000*%
G04 #@! TD*
G04 #@! TA.AperFunction,ComponentPad*
%ADD13C,2.032000*%
G04 #@! TD*
G04 #@! TA.AperFunction,ComponentPad*
%ADD14R,1.600000X1.600000*%
G04 #@! TD*
G04 #@! TA.AperFunction,ComponentPad*
%ADD15O,1.600000X1.600000*%
G04 #@! TD*
G04 #@! TA.AperFunction,ViaPad*
%ADD16C,0.800000*%
G04 #@! TD*
G04 #@! TA.AperFunction,Conductor*
%ADD17C,0.250000*%
G04 #@! TD*
G04 #@! TA.AperFunction,Conductor*
%ADD18C,0.350000*%
G04 #@! TD*
G04 #@! TA.AperFunction,Conductor*
%ADD19C,0.254000*%
G04 #@! TD*
G04 APERTURE END LIST*
D10*
G04 #@! TO.P,J1,1*
G04 #@! TO.N,GND*
X54610000Y-53975000D03*
D11*
G04 #@! TO.P,J1,2*
G04 #@! TO.N,+5V*
X54610000Y-56515000D03*
G04 #@! TO.P,J1,3*
G04 #@! TO.N,CLOCK*
X54610000Y-59055000D03*
G04 #@! TO.P,J1,4*
G04 #@! TO.N,STK_INC*
X54610000Y-61595000D03*
G04 #@! TO.P,J1,5*
G04 #@! TO.N,STK_DEC*
X54610000Y-64135000D03*
G04 #@! TO.P,J1,6*
G04 #@! TO.N,~STK_RESET*
X54610000Y-66675000D03*
G04 #@! TD*
D10*
G04 #@! TO.P,J2,1*
G04 #@! TO.N,Net-(BAR1-Pad9)*
X96139000Y-28702000D03*
D11*
G04 #@! TO.P,J2,2*
G04 #@! TO.N,Net-(BAR1-Pad8)*
X96139000Y-31242000D03*
G04 #@! TO.P,J2,3*
G04 #@! TO.N,Net-(BAR1-Pad7)*
X96139000Y-33782000D03*
G04 #@! TO.P,J2,4*
G04 #@! TO.N,Net-(BAR1-Pad6)*
X96139000Y-36322000D03*
G04 #@! TO.P,J2,5*
G04 #@! TO.N,Net-(BAR1-Pad5)*
X96139000Y-38862000D03*
G04 #@! TO.P,J2,6*
G04 #@! TO.N,Net-(BAR1-Pad4)*
X96139000Y-41402000D03*
G04 #@! TO.P,J2,7*
G04 #@! TO.N,Net-(BAR1-Pad3)*
X96139000Y-43942000D03*
G04 #@! TO.P,J2,8*
G04 #@! TO.N,Net-(BAR1-Pad2)*
X96139000Y-46482000D03*
G04 #@! TO.P,J2,9*
G04 #@! TO.N,+5V*
X96139000Y-49022000D03*
G04 #@! TO.P,J2,10*
X96139000Y-51562000D03*
G04 #@! TO.P,J2,11*
X96139000Y-54102000D03*
G04 #@! TO.P,J2,12*
X96139000Y-56642000D03*
G04 #@! TO.P,J2,13*
X96139000Y-59182000D03*
G04 #@! TO.P,J2,14*
X96139000Y-61722000D03*
G04 #@! TO.P,J2,15*
X96139000Y-64262000D03*
G04 #@! TO.P,J2,16*
X96139000Y-66802000D03*
G04 #@! TD*
D12*
G04 #@! TO.P,BAR1,1*
G04 #@! TO.N,Net-(BAR1-Pad1)*
X67310000Y-40005000D03*
D13*
G04 #@! TO.P,BAR1,2*
G04 #@! TO.N,Net-(BAR1-Pad2)*
X69850000Y-40005000D03*
G04 #@! TO.P,BAR1,3*
G04 #@! TO.N,Net-(BAR1-Pad3)*
X72390000Y-40005000D03*
G04 #@! TO.P,BAR1,4*
G04 #@! TO.N,Net-(BAR1-Pad4)*
X74930000Y-40005000D03*
G04 #@! TO.P,BAR1,13*
G04 #@! TO.N,Net-(BAR1-Pad13)*
X85090000Y-32385000D03*
G04 #@! TO.P,BAR1,14*
G04 #@! TO.N,Net-(BAR1-Pad14)*
X82550000Y-32385000D03*
G04 #@! TO.P,BAR1,15*
G04 #@! TO.N,Net-(BAR1-Pad15)*
X80010000Y-32385000D03*
G04 #@! TO.P,BAR1,16*
G04 #@! TO.N,Net-(BAR1-Pad16)*
X77470000Y-32385000D03*
G04 #@! TO.P,BAR1,5*
G04 #@! TO.N,Net-(BAR1-Pad5)*
X77470000Y-40005000D03*
G04 #@! TO.P,BAR1,6*
G04 #@! TO.N,Net-(BAR1-Pad6)*
X80010000Y-40005000D03*
G04 #@! TO.P,BAR1,7*
G04 #@! TO.N,Net-(BAR1-Pad7)*
X82550000Y-40005000D03*
G04 #@! TO.P,BAR1,8*
G04 #@! TO.N,Net-(BAR1-Pad8)*
X85090000Y-40005000D03*
G04 #@! TO.P,BAR1,12*
G04 #@! TO.N,Net-(BAR1-Pad12)*
X87630000Y-32385000D03*
G04 #@! TO.P,BAR1,11*
G04 #@! TO.N,Net-(BAR1-Pad11)*
X90170000Y-32385000D03*
G04 #@! TO.P,BAR1,10*
G04 #@! TO.N,Net-(BAR1-Pad10)*
X90170000Y-40005000D03*
G04 #@! TO.P,BAR1,9*
G04 #@! TO.N,Net-(BAR1-Pad9)*
X87630000Y-40005000D03*
G04 #@! TO.P,BAR1,17*
G04 #@! TO.N,Net-(BAR1-Pad17)*
X74930000Y-32385000D03*
G04 #@! TO.P,BAR1,18*
G04 #@! TO.N,Net-(BAR1-Pad18)*
X72390000Y-32385000D03*
G04 #@! TO.P,BAR1,19*
G04 #@! TO.N,Net-(BAR1-Pad19)*
X69850000Y-32385000D03*
G04 #@! TO.P,BAR1,20*
G04 #@! TO.N,Net-(BAR1-Pad20)*
X67310000Y-32385000D03*
G04 #@! TD*
D14*
G04 #@! TO.P,U1,1*
G04 #@! TO.N,DOWN_~UP*
X54610000Y-28575000D03*
D15*
G04 #@! TO.P,U1,8*
G04 #@! TO.N,STK_INC*
X62230000Y-43815000D03*
G04 #@! TO.P,U1,2*
X54610000Y-31115000D03*
G04 #@! TO.P,U1,9*
G04 #@! TO.N,STK_DEC*
X62230000Y-41275000D03*
G04 #@! TO.P,U1,3*
G04 #@! TO.N,Net-(U1-Pad3)*
X54610000Y-33655000D03*
G04 #@! TO.P,U1,10*
G04 #@! TO.N,~CLK_EN*
X62230000Y-38735000D03*
G04 #@! TO.P,U1,4*
G04 #@! TO.N,Net-(U1-Pad3)*
X54610000Y-36195000D03*
G04 #@! TO.P,U1,11*
G04 #@! TO.N,N/C*
X62230000Y-36195000D03*
G04 #@! TO.P,U1,5*
G04 #@! TO.N,DOWN_~UP*
X54610000Y-38735000D03*
G04 #@! TO.P,U1,12*
G04 #@! TO.N,N/C*
X62230000Y-33655000D03*
G04 #@! TO.P,U1,6*
G04 #@! TO.N,STK_DEC*
X54610000Y-41275000D03*
G04 #@! TO.P,U1,13*
G04 #@! TO.N,N/C*
X62230000Y-31115000D03*
G04 #@! TO.P,U1,7*
G04 #@! TO.N,GND*
X54610000Y-43815000D03*
G04 #@! TO.P,U1,14*
G04 #@! TO.N,+5V*
X62230000Y-28575000D03*
G04 #@! TD*
G04 #@! TO.P,U3,16*
G04 #@! TO.N,+5V*
X90170000Y-48895000D03*
G04 #@! TO.P,U3,8*
G04 #@! TO.N,GND*
X82550000Y-66675000D03*
G04 #@! TO.P,U3,15*
X90170000Y-51435000D03*
G04 #@! TO.P,U3,7*
G04 #@! TO.N,Net-(BAR1-Pad2)*
X82550000Y-64135000D03*
G04 #@! TO.P,U3,14*
G04 #@! TO.N,Net-(U2-Pad13)*
X90170000Y-53975000D03*
G04 #@! TO.P,U3,6*
G04 #@! TO.N,Net-(BAR1-Pad3)*
X82550000Y-61595000D03*
G04 #@! TO.P,U3,13*
G04 #@! TO.N,Net-(U3-Pad13)*
X90170000Y-56515000D03*
G04 #@! TO.P,U3,5*
G04 #@! TO.N,DOWN_~UP*
X82550000Y-59055000D03*
G04 #@! TO.P,U3,12*
G04 #@! TO.N,Net-(U3-Pad12)*
X90170000Y-59055000D03*
G04 #@! TO.P,U3,4*
G04 #@! TO.N,~CLK_EN*
X82550000Y-56515000D03*
G04 #@! TO.P,U3,11*
G04 #@! TO.N,~STK_RESET*
X90170000Y-61595000D03*
G04 #@! TO.P,U3,3*
G04 #@! TO.N,Net-(BAR1-Pad5)*
X82550000Y-53975000D03*
G04 #@! TO.P,U3,10*
G04 #@! TO.N,GND*
X90170000Y-64135000D03*
G04 #@! TO.P,U3,2*
G04 #@! TO.N,Net-(BAR1-Pad4)*
X82550000Y-51435000D03*
G04 #@! TO.P,U3,9*
G04 #@! TO.N,GND*
X90170000Y-66675000D03*
D14*
G04 #@! TO.P,U3,1*
X82550000Y-48895000D03*
G04 #@! TD*
G04 #@! TO.P,U2,1*
G04 #@! TO.N,GND*
X66675000Y-48895000D03*
D15*
G04 #@! TO.P,U2,9*
X74295000Y-66675000D03*
G04 #@! TO.P,U2,2*
G04 #@! TO.N,Net-(BAR1-Pad8)*
X66675000Y-51435000D03*
G04 #@! TO.P,U2,10*
G04 #@! TO.N,GND*
X74295000Y-64135000D03*
G04 #@! TO.P,U2,3*
G04 #@! TO.N,Net-(BAR1-Pad9)*
X66675000Y-53975000D03*
G04 #@! TO.P,U2,11*
G04 #@! TO.N,~STK_RESET*
X74295000Y-61595000D03*
G04 #@! TO.P,U2,4*
G04 #@! TO.N,~CLK_EN*
X66675000Y-56515000D03*
G04 #@! TO.P,U2,12*
G04 #@! TO.N,Net-(U2-Pad12)*
X74295000Y-59055000D03*
G04 #@! TO.P,U2,5*
G04 #@! TO.N,DOWN_~UP*
X66675000Y-59055000D03*
G04 #@! TO.P,U2,13*
G04 #@! TO.N,Net-(U2-Pad13)*
X74295000Y-56515000D03*
G04 #@! TO.P,U2,6*
G04 #@! TO.N,Net-(BAR1-Pad7)*
X66675000Y-61595000D03*
G04 #@! TO.P,U2,14*
G04 #@! TO.N,CLOCK*
X74295000Y-53975000D03*
G04 #@! TO.P,U2,7*
G04 #@! TO.N,Net-(BAR1-Pad6)*
X66675000Y-64135000D03*
G04 #@! TO.P,U2,15*
G04 #@! TO.N,GND*
X74295000Y-51435000D03*
G04 #@! TO.P,U2,8*
X66675000Y-66675000D03*
G04 #@! TO.P,U2,16*
G04 #@! TO.N,+5V*
X74295000Y-48895000D03*
G04 #@! TD*
D14*
G04 #@! TO.P,RN1,1*
G04 #@! TO.N,GND*
X90170000Y-28575000D03*
D15*
G04 #@! TO.P,RN1,2*
G04 #@! TO.N,Net-(BAR1-Pad12)*
X87630000Y-28575000D03*
G04 #@! TO.P,RN1,3*
G04 #@! TO.N,Net-(BAR1-Pad13)*
X85090000Y-28575000D03*
G04 #@! TO.P,RN1,4*
G04 #@! TO.N,Net-(BAR1-Pad14)*
X82550000Y-28575000D03*
G04 #@! TO.P,RN1,5*
G04 #@! TO.N,Net-(BAR1-Pad15)*
X80010000Y-28575000D03*
G04 #@! TO.P,RN1,6*
G04 #@! TO.N,Net-(BAR1-Pad16)*
X77470000Y-28575000D03*
G04 #@! TO.P,RN1,7*
G04 #@! TO.N,Net-(BAR1-Pad17)*
X74930000Y-28575000D03*
G04 #@! TO.P,RN1,8*
G04 #@! TO.N,Net-(BAR1-Pad18)*
X72390000Y-28575000D03*
G04 #@! TO.P,RN1,9*
G04 #@! TO.N,Net-(BAR1-Pad19)*
X69850000Y-28575000D03*
G04 #@! TD*
D16*
G04 #@! TO.N,GND*
X54864000Y-47879000D03*
X51943000Y-47879000D03*
X92456000Y-47625000D03*
X88392000Y-43561000D03*
X92329000Y-51308000D03*
X93218000Y-54991000D03*
G04 #@! TD*
D17*
G04 #@! TO.N,Net-(BAR1-Pad12)*
X87630000Y-28575000D02*
X87630000Y-32385000D01*
G04 #@! TO.N,Net-(BAR1-Pad13)*
X85090000Y-28575000D02*
X85090000Y-32385000D01*
G04 #@! TO.N,Net-(BAR1-Pad14)*
X82550000Y-28575000D02*
X82550000Y-32385000D01*
G04 #@! TO.N,Net-(BAR1-Pad15)*
X80010000Y-28575000D02*
X80010000Y-32385000D01*
G04 #@! TO.N,Net-(BAR1-Pad16)*
X77470000Y-28575000D02*
X77470000Y-32385000D01*
G04 #@! TO.N,Net-(BAR1-Pad17)*
X74930000Y-28575000D02*
X74930000Y-32385000D01*
G04 #@! TO.N,Net-(BAR1-Pad18)*
X72390000Y-28575000D02*
X72390000Y-32385000D01*
G04 #@! TO.N,Net-(BAR1-Pad19)*
X69850000Y-28575000D02*
X69850000Y-32385000D01*
G04 #@! TO.N,Net-(BAR1-Pad8)*
X96139000Y-31242000D02*
X93853000Y-31242000D01*
X93853000Y-31242000D02*
X85090000Y-40005000D01*
G04 #@! TO.N,Net-(BAR1-Pad9)*
X87630000Y-40005000D02*
X95123000Y-32512000D01*
X95123000Y-32512000D02*
X96559800Y-32512000D01*
X96559800Y-32512000D02*
X97314300Y-31757500D01*
X97314300Y-31757500D02*
X97314300Y-30685200D01*
X96309000Y-29972000D02*
X96601100Y-29972000D01*
X96139000Y-29802000D02*
X96309000Y-29972000D01*
X96139000Y-28702000D02*
X96139000Y-29802000D01*
X97314300Y-30685200D02*
X96601100Y-29972000D01*
G04 #@! TO.N,~STK_RESET*
X54610000Y-66675000D02*
X55785300Y-66675000D01*
X74295000Y-61595000D02*
X73169700Y-61595000D01*
X73169700Y-61595000D02*
X69265000Y-65499700D01*
X69265000Y-65499700D02*
X56960600Y-65499700D01*
X56960600Y-65499700D02*
X55785300Y-66675000D01*
G04 #@! TO.N,~CLK_EN*
X64516000Y-54356000D02*
X66675000Y-56515000D01*
X62230000Y-39243000D02*
X64516000Y-41529000D01*
X64516000Y-41529000D02*
X64516000Y-54356000D01*
X62230000Y-38735000D02*
X62230000Y-39243000D01*
G04 #@! TO.N,DOWN_~UP*
X57785000Y-50165000D02*
X60960000Y-53340000D01*
X57785000Y-41910000D02*
X57785000Y-50165000D01*
X54610000Y-38735000D02*
X57785000Y-41910000D01*
X60960000Y-53340000D02*
X66675000Y-59055000D01*
G04 #@! TO.N,Net-(BAR1-Pad7)*
X82550000Y-40005000D02*
X83919100Y-41374100D01*
X83919100Y-41374100D02*
X90747500Y-41374100D01*
X94742000Y-35179000D02*
X94742000Y-37379600D01*
X96139000Y-33782000D02*
X94742000Y-35179000D01*
X90747500Y-41374100D02*
X94742000Y-37379600D01*
G04 #@! TO.N,CLOCK*
X55785300Y-59055000D02*
X54610000Y-59055000D01*
X57055300Y-60325000D02*
X55785300Y-59055000D01*
X67945000Y-60325000D02*
X57055300Y-60325000D01*
X74295000Y-53975000D02*
X67945000Y-60325000D01*
D18*
G04 #@! TO.N,+5V*
X96139000Y-64262000D02*
X96139000Y-66802000D01*
X96139000Y-61722000D02*
X96139000Y-64262000D01*
X96139000Y-51562000D02*
X96139000Y-49022000D01*
X96139000Y-56642000D02*
X96139000Y-54102000D01*
X96139000Y-59182000D02*
X96139000Y-56642000D01*
X96139000Y-61722000D02*
X96139000Y-59182000D01*
X73119700Y-48895000D02*
X74295000Y-48895000D01*
X63594600Y-39369900D02*
X73119700Y-48895000D01*
X63594600Y-29939600D02*
X63594600Y-39369900D01*
X62230000Y-28575000D02*
X63594600Y-29939600D01*
X96139000Y-51562000D02*
X96139000Y-54102000D01*
D17*
G04 #@! TO.N,Net-(BAR1-Pad2)*
X69850000Y-40005000D02*
X69850000Y-42024600D01*
X69850000Y-42024600D02*
X78842400Y-51017000D01*
X89783300Y-55245000D02*
X90539300Y-55245000D01*
X94361000Y-48260000D02*
X94361000Y-51423300D01*
X96139000Y-46482000D02*
X94361000Y-48260000D01*
X90539300Y-55245000D02*
X94361000Y-51423300D01*
X84328000Y-62357000D02*
X84328000Y-60700300D01*
X82550000Y-64135000D02*
X84328000Y-62357000D01*
X84328000Y-60700300D02*
X89783300Y-55245000D01*
X82550000Y-64135000D02*
X78842400Y-60427400D01*
X78842400Y-51017000D02*
X78842400Y-58039000D01*
X78842400Y-60427400D02*
X78842400Y-58039000D01*
X78842400Y-58039000D02*
X78842400Y-59515900D01*
G04 #@! TO.N,Net-(BAR1-Pad3)*
X72390000Y-43544300D02*
X72390000Y-40005000D01*
X81153000Y-52307300D02*
X80788700Y-51943000D01*
X82550000Y-61595000D02*
X81153000Y-60198000D01*
X80788700Y-51943000D02*
X72390000Y-43544300D01*
X81153000Y-60198000D02*
X81153000Y-52705000D01*
X81153000Y-52705000D02*
X81153000Y-52307300D01*
X92075000Y-43942000D02*
X83312000Y-52705000D01*
X92075000Y-43942000D02*
X96139000Y-43942000D01*
X83312000Y-52705000D02*
X81153000Y-52705000D01*
G04 #@! TO.N,Net-(BAR1-Pad5)*
X77470000Y-40005000D02*
X79315400Y-41850400D01*
X79315400Y-41850400D02*
X90908100Y-41850400D01*
X90908100Y-41850400D02*
X92721200Y-40037300D01*
X92721200Y-40037300D02*
X96139000Y-40037300D01*
X96139000Y-38862000D02*
X96139000Y-40037300D01*
X96506400Y-40037300D02*
X96139000Y-40037300D01*
X97314300Y-40845200D02*
X96506400Y-40037300D01*
X97314300Y-44439200D02*
X97314300Y-40845200D01*
X83497900Y-53975000D02*
X92260900Y-45212000D01*
X82550000Y-53975000D02*
X83497900Y-53975000D01*
X92260900Y-45212000D02*
X96541500Y-45212000D01*
X96541500Y-45212000D02*
X97314300Y-44439200D01*
G04 #@! TO.N,Net-(BAR1-Pad4)*
X96139000Y-41402000D02*
X93102900Y-41402000D01*
X74930000Y-43392900D02*
X74930000Y-40005000D01*
X84212900Y-50292000D02*
X84455000Y-50049900D01*
X74930000Y-43815000D02*
X82550000Y-51435000D01*
X74930000Y-40005000D02*
X74930000Y-43815000D01*
X82550000Y-51435000D02*
X83349999Y-50635001D01*
X83869899Y-50635001D02*
X90308900Y-44196000D01*
X83349999Y-50635001D02*
X83869899Y-50635001D01*
X93102900Y-41402000D02*
X90308900Y-44196000D01*
X90308900Y-44196000D02*
X84455000Y-50049900D01*
G04 #@! TO.N,STK_INC*
X61430001Y-43015001D02*
X62230000Y-43815000D01*
X60325000Y-36830000D02*
X60325000Y-41910000D01*
X60325000Y-41910000D02*
X61430001Y-43015001D01*
X54610000Y-31115000D02*
X60325000Y-36830000D01*
G04 #@! TO.N,STK_DEC*
X54610000Y-41275000D02*
X53434700Y-42450300D01*
X54610000Y-64135000D02*
X53340000Y-62865000D01*
X53340000Y-58514700D02*
X53434700Y-58420000D01*
X53340000Y-62865000D02*
X53340000Y-58514700D01*
X53434700Y-42450300D02*
X53434700Y-58420000D01*
G04 #@! TO.N,Net-(U1-Pad3)*
X54610000Y-36195000D02*
X54610000Y-33655000D01*
G04 #@! TD*
D19*
G04 #@! TO.N,GND*
G36*
X102160001Y-72950000D02*
X48970000Y-72950000D01*
X48970000Y-58514700D01*
X52565112Y-58514700D01*
X52580001Y-58589552D01*
X52580000Y-62790153D01*
X52565112Y-62865000D01*
X52580000Y-62939847D01*
X52580000Y-62939851D01*
X52624096Y-63161536D01*
X52792071Y-63412929D01*
X52855530Y-63455331D01*
X53168791Y-63768592D01*
X53095908Y-64135000D01*
X53211161Y-64714418D01*
X53539375Y-65205625D01*
X53837761Y-65405000D01*
X53539375Y-65604375D01*
X53211161Y-66095582D01*
X53095908Y-66675000D01*
X53211161Y-67254418D01*
X53539375Y-67745625D01*
X54030582Y-68073839D01*
X54463744Y-68160000D01*
X54756256Y-68160000D01*
X55189418Y-68073839D01*
X55680625Y-67745625D01*
X55892474Y-67428571D01*
X56081837Y-67390904D01*
X56333229Y-67222929D01*
X56375631Y-67159470D01*
X56511062Y-67024039D01*
X65283096Y-67024039D01*
X65443959Y-67412423D01*
X65819866Y-67827389D01*
X66325959Y-68066914D01*
X66548000Y-67945629D01*
X66548000Y-66802000D01*
X66802000Y-66802000D01*
X66802000Y-67945629D01*
X67024041Y-68066914D01*
X67530134Y-67827389D01*
X67906041Y-67412423D01*
X68066904Y-67024039D01*
X72903096Y-67024039D01*
X73063959Y-67412423D01*
X73439866Y-67827389D01*
X73945959Y-68066914D01*
X74168000Y-67945629D01*
X74168000Y-66802000D01*
X74422000Y-66802000D01*
X74422000Y-67945629D01*
X74644041Y-68066914D01*
X75150134Y-67827389D01*
X75526041Y-67412423D01*
X75686904Y-67024039D01*
X81158096Y-67024039D01*
X81318959Y-67412423D01*
X81694866Y-67827389D01*
X82200959Y-68066914D01*
X82423000Y-67945629D01*
X82423000Y-66802000D01*
X82677000Y-66802000D01*
X82677000Y-67945629D01*
X82899041Y-68066914D01*
X83405134Y-67827389D01*
X83781041Y-67412423D01*
X83941904Y-67024039D01*
X88778096Y-67024039D01*
X88938959Y-67412423D01*
X89314866Y-67827389D01*
X89820959Y-68066914D01*
X90043000Y-67945629D01*
X90043000Y-66802000D01*
X90297000Y-66802000D01*
X90297000Y-67945629D01*
X90519041Y-68066914D01*
X91025134Y-67827389D01*
X91401041Y-67412423D01*
X91561904Y-67024039D01*
X91439915Y-66802000D01*
X90297000Y-66802000D01*
X90043000Y-66802000D01*
X88900085Y-66802000D01*
X88778096Y-67024039D01*
X83941904Y-67024039D01*
X83819915Y-66802000D01*
X82677000Y-66802000D01*
X82423000Y-66802000D01*
X81280085Y-66802000D01*
X81158096Y-67024039D01*
X75686904Y-67024039D01*
X75564915Y-66802000D01*
X74422000Y-66802000D01*
X74168000Y-66802000D01*
X73025085Y-66802000D01*
X72903096Y-67024039D01*
X68066904Y-67024039D01*
X67944915Y-66802000D01*
X66802000Y-66802000D01*
X66548000Y-66802000D01*
X65405085Y-66802000D01*
X65283096Y-67024039D01*
X56511062Y-67024039D01*
X57275402Y-66259700D01*
X65310540Y-66259700D01*
X65283096Y-66325961D01*
X65405085Y-66548000D01*
X66548000Y-66548000D01*
X66548000Y-66528000D01*
X66802000Y-66528000D01*
X66802000Y-66548000D01*
X67944915Y-66548000D01*
X68066904Y-66325961D01*
X68039460Y-66259700D01*
X69190153Y-66259700D01*
X69265000Y-66274588D01*
X69339847Y-66259700D01*
X69339852Y-66259700D01*
X69561537Y-66215604D01*
X69812929Y-66047629D01*
X69855331Y-65984170D01*
X71355462Y-64484039D01*
X72903096Y-64484039D01*
X73063959Y-64872423D01*
X73439866Y-65287389D01*
X73688367Y-65405000D01*
X73439866Y-65522611D01*
X73063959Y-65937577D01*
X72903096Y-66325961D01*
X73025085Y-66548000D01*
X74168000Y-66548000D01*
X74168000Y-64262000D01*
X74422000Y-64262000D01*
X74422000Y-66548000D01*
X75564915Y-66548000D01*
X75686904Y-66325961D01*
X75526041Y-65937577D01*
X75150134Y-65522611D01*
X74901633Y-65405000D01*
X75150134Y-65287389D01*
X75526041Y-64872423D01*
X75686904Y-64484039D01*
X75564915Y-64262000D01*
X74422000Y-64262000D01*
X74168000Y-64262000D01*
X73025085Y-64262000D01*
X72903096Y-64484039D01*
X71355462Y-64484039D01*
X73240196Y-62599306D01*
X73260423Y-62629577D01*
X73644108Y-62885947D01*
X73439866Y-62982611D01*
X73063959Y-63397577D01*
X72903096Y-63785961D01*
X73025085Y-64008000D01*
X74168000Y-64008000D01*
X74168000Y-63988000D01*
X74422000Y-63988000D01*
X74422000Y-64008000D01*
X75564915Y-64008000D01*
X75686904Y-63785961D01*
X75526041Y-63397577D01*
X75150134Y-62982611D01*
X74945892Y-62885947D01*
X75329577Y-62629577D01*
X75646740Y-62154909D01*
X75758113Y-61595000D01*
X75646740Y-61035091D01*
X75329577Y-60560423D01*
X74977242Y-60325000D01*
X75329577Y-60089577D01*
X75646740Y-59614909D01*
X75758113Y-59055000D01*
X75646740Y-58495091D01*
X75329577Y-58020423D01*
X74977242Y-57785000D01*
X75329577Y-57549577D01*
X75646740Y-57074909D01*
X75758113Y-56515000D01*
X75646740Y-55955091D01*
X75329577Y-55480423D01*
X74977242Y-55245000D01*
X75329577Y-55009577D01*
X75646740Y-54534909D01*
X75758113Y-53975000D01*
X75646740Y-53415091D01*
X75329577Y-52940423D01*
X74945892Y-52684053D01*
X75150134Y-52587389D01*
X75526041Y-52172423D01*
X75686904Y-51784039D01*
X75564915Y-51562000D01*
X74422000Y-51562000D01*
X74422000Y-51582000D01*
X74168000Y-51582000D01*
X74168000Y-51562000D01*
X73025085Y-51562000D01*
X72903096Y-51784039D01*
X73063959Y-52172423D01*
X73439866Y-52587389D01*
X73644108Y-52684053D01*
X73260423Y-52940423D01*
X72943260Y-53415091D01*
X72831887Y-53975000D01*
X72896312Y-54298886D01*
X68137595Y-59057604D01*
X68138113Y-59055000D01*
X68026740Y-58495091D01*
X67709577Y-58020423D01*
X67357242Y-57785000D01*
X67709577Y-57549577D01*
X68026740Y-57074909D01*
X68138113Y-56515000D01*
X68026740Y-55955091D01*
X67709577Y-55480423D01*
X67357242Y-55245000D01*
X67709577Y-55009577D01*
X68026740Y-54534909D01*
X68138113Y-53975000D01*
X68026740Y-53415091D01*
X67709577Y-52940423D01*
X67357242Y-52705000D01*
X67709577Y-52469577D01*
X68026740Y-51994909D01*
X68138113Y-51435000D01*
X68026740Y-50875091D01*
X67709577Y-50400423D01*
X67603082Y-50329265D01*
X67834698Y-50233327D01*
X68013327Y-50054699D01*
X68110000Y-49821310D01*
X68110000Y-49180750D01*
X67951250Y-49022000D01*
X66802000Y-49022000D01*
X66802000Y-49042000D01*
X66548000Y-49042000D01*
X66548000Y-49022000D01*
X66528000Y-49022000D01*
X66528000Y-48768000D01*
X66548000Y-48768000D01*
X66548000Y-47618750D01*
X66802000Y-47618750D01*
X66802000Y-48768000D01*
X67951250Y-48768000D01*
X68110000Y-48609250D01*
X68110000Y-47968690D01*
X68013327Y-47735301D01*
X67834698Y-47556673D01*
X67601309Y-47460000D01*
X66960750Y-47460000D01*
X66802000Y-47618750D01*
X66548000Y-47618750D01*
X66389250Y-47460000D01*
X65748691Y-47460000D01*
X65515302Y-47556673D01*
X65336673Y-47735301D01*
X65276000Y-47881778D01*
X65276000Y-42196812D01*
X72490534Y-49411347D01*
X72535723Y-49478977D01*
X72603352Y-49524165D01*
X72803653Y-49658003D01*
X73119700Y-49720868D01*
X73120819Y-49720645D01*
X73260423Y-49929577D01*
X73644108Y-50185947D01*
X73439866Y-50282611D01*
X73063959Y-50697577D01*
X72903096Y-51085961D01*
X73025085Y-51308000D01*
X74168000Y-51308000D01*
X74168000Y-51288000D01*
X74422000Y-51288000D01*
X74422000Y-51308000D01*
X75564915Y-51308000D01*
X75686904Y-51085961D01*
X75526041Y-50697577D01*
X75150134Y-50282611D01*
X74945892Y-50185947D01*
X75329577Y-49929577D01*
X75646740Y-49454909D01*
X75739446Y-48988847D01*
X78082400Y-51331802D01*
X78082401Y-57964144D01*
X78082400Y-57964149D01*
X78082401Y-58811237D01*
X78082400Y-60352553D01*
X78067512Y-60427400D01*
X78082400Y-60502247D01*
X78082400Y-60502251D01*
X78126496Y-60723936D01*
X78294471Y-60975329D01*
X78357930Y-61017731D01*
X81151312Y-63811114D01*
X81086887Y-64135000D01*
X81198260Y-64694909D01*
X81515423Y-65169577D01*
X81899108Y-65425947D01*
X81694866Y-65522611D01*
X81318959Y-65937577D01*
X81158096Y-66325961D01*
X81280085Y-66548000D01*
X82423000Y-66548000D01*
X82423000Y-66528000D01*
X82677000Y-66528000D01*
X82677000Y-66548000D01*
X83819915Y-66548000D01*
X83941904Y-66325961D01*
X83781041Y-65937577D01*
X83405134Y-65522611D01*
X83200892Y-65425947D01*
X83584577Y-65169577D01*
X83901740Y-64694909D01*
X83943684Y-64484039D01*
X88778096Y-64484039D01*
X88938959Y-64872423D01*
X89314866Y-65287389D01*
X89563367Y-65405000D01*
X89314866Y-65522611D01*
X88938959Y-65937577D01*
X88778096Y-66325961D01*
X88900085Y-66548000D01*
X90043000Y-66548000D01*
X90043000Y-64262000D01*
X90297000Y-64262000D01*
X90297000Y-66548000D01*
X91439915Y-66548000D01*
X91561904Y-66325961D01*
X91401041Y-65937577D01*
X91025134Y-65522611D01*
X90776633Y-65405000D01*
X91025134Y-65287389D01*
X91401041Y-64872423D01*
X91561904Y-64484039D01*
X91439915Y-64262000D01*
X90297000Y-64262000D01*
X90043000Y-64262000D01*
X88900085Y-64262000D01*
X88778096Y-64484039D01*
X83943684Y-64484039D01*
X84013113Y-64135000D01*
X83948688Y-63811114D01*
X84812473Y-62947329D01*
X84875929Y-62904929D01*
X84961409Y-62777000D01*
X85043904Y-62653538D01*
X85064923Y-62547868D01*
X85088000Y-62431852D01*
X85088000Y-62431848D01*
X85102888Y-62357000D01*
X85088000Y-62282152D01*
X85088000Y-61015101D01*
X88902347Y-57200754D01*
X89135423Y-57549577D01*
X89487758Y-57785000D01*
X89135423Y-58020423D01*
X88818260Y-58495091D01*
X88706887Y-59055000D01*
X88818260Y-59614909D01*
X89135423Y-60089577D01*
X89487758Y-60325000D01*
X89135423Y-60560423D01*
X88818260Y-61035091D01*
X88706887Y-61595000D01*
X88818260Y-62154909D01*
X89135423Y-62629577D01*
X89519108Y-62885947D01*
X89314866Y-62982611D01*
X88938959Y-63397577D01*
X88778096Y-63785961D01*
X88900085Y-64008000D01*
X90043000Y-64008000D01*
X90043000Y-63988000D01*
X90297000Y-63988000D01*
X90297000Y-64008000D01*
X91439915Y-64008000D01*
X91561904Y-63785961D01*
X91401041Y-63397577D01*
X91025134Y-62982611D01*
X90820892Y-62885947D01*
X91204577Y-62629577D01*
X91521740Y-62154909D01*
X91633113Y-61595000D01*
X91521740Y-61035091D01*
X91204577Y-60560423D01*
X90852242Y-60325000D01*
X91204577Y-60089577D01*
X91521740Y-59614909D01*
X91633113Y-59055000D01*
X91521740Y-58495091D01*
X91204577Y-58020423D01*
X90852242Y-57785000D01*
X91204577Y-57549577D01*
X91521740Y-57074909D01*
X91633113Y-56515000D01*
X91521740Y-55955091D01*
X91274312Y-55584789D01*
X94736432Y-52122670D01*
X94740161Y-52141418D01*
X95068375Y-52632625D01*
X95329000Y-52806769D01*
X95329001Y-52857231D01*
X95068375Y-53031375D01*
X94740161Y-53522582D01*
X94624908Y-54102000D01*
X94740161Y-54681418D01*
X95068375Y-55172625D01*
X95329001Y-55346769D01*
X95329000Y-55397231D01*
X95068375Y-55571375D01*
X94740161Y-56062582D01*
X94624908Y-56642000D01*
X94740161Y-57221418D01*
X95068375Y-57712625D01*
X95329001Y-57886769D01*
X95329000Y-57937231D01*
X95068375Y-58111375D01*
X94740161Y-58602582D01*
X94624908Y-59182000D01*
X94740161Y-59761418D01*
X95068375Y-60252625D01*
X95329001Y-60426769D01*
X95329000Y-60477231D01*
X95068375Y-60651375D01*
X94740161Y-61142582D01*
X94624908Y-61722000D01*
X94740161Y-62301418D01*
X95068375Y-62792625D01*
X95329000Y-62966769D01*
X95329001Y-63017231D01*
X95068375Y-63191375D01*
X94740161Y-63682582D01*
X94624908Y-64262000D01*
X94740161Y-64841418D01*
X95068375Y-65332625D01*
X95329000Y-65506769D01*
X95329001Y-65557231D01*
X95068375Y-65731375D01*
X94740161Y-66222582D01*
X94624908Y-66802000D01*
X94740161Y-67381418D01*
X95068375Y-67872625D01*
X95559582Y-68200839D01*
X95992744Y-68287000D01*
X96285256Y-68287000D01*
X96718418Y-68200839D01*
X97209625Y-67872625D01*
X97537839Y-67381418D01*
X97653092Y-66802000D01*
X97537839Y-66222582D01*
X97209625Y-65731375D01*
X96949000Y-65557231D01*
X96949000Y-65506769D01*
X97209625Y-65332625D01*
X97537839Y-64841418D01*
X97653092Y-64262000D01*
X97537839Y-63682582D01*
X97209625Y-63191375D01*
X96949000Y-63017231D01*
X96949000Y-62966769D01*
X97209625Y-62792625D01*
X97537839Y-62301418D01*
X97653092Y-61722000D01*
X97537839Y-61142582D01*
X97209625Y-60651375D01*
X96949000Y-60477231D01*
X96949000Y-60426769D01*
X97209625Y-60252625D01*
X97537839Y-59761418D01*
X97653092Y-59182000D01*
X97537839Y-58602582D01*
X97209625Y-58111375D01*
X96949000Y-57937231D01*
X96949000Y-57886769D01*
X97209625Y-57712625D01*
X97537839Y-57221418D01*
X97653092Y-56642000D01*
X97537839Y-56062582D01*
X97209625Y-55571375D01*
X96949000Y-55397231D01*
X96949000Y-55346769D01*
X97209625Y-55172625D01*
X97537839Y-54681418D01*
X97653092Y-54102000D01*
X97537839Y-53522582D01*
X97209625Y-53031375D01*
X96949000Y-52857231D01*
X96949000Y-52806769D01*
X97209625Y-52632625D01*
X97537839Y-52141418D01*
X97653092Y-51562000D01*
X97537839Y-50982582D01*
X97209625Y-50491375D01*
X96949000Y-50317231D01*
X96949000Y-50266769D01*
X97209625Y-50092625D01*
X97537839Y-49601418D01*
X97653092Y-49022000D01*
X97537839Y-48442582D01*
X97209625Y-47951375D01*
X96911239Y-47752000D01*
X97209625Y-47552625D01*
X97537839Y-47061418D01*
X97653092Y-46482000D01*
X97537839Y-45902582D01*
X97292658Y-45535643D01*
X97798773Y-45029529D01*
X97862229Y-44987129D01*
X98030204Y-44735737D01*
X98074300Y-44514052D01*
X98074300Y-44514048D01*
X98089188Y-44439201D01*
X98074300Y-44364354D01*
X98074300Y-40920046D01*
X98089188Y-40845199D01*
X98074300Y-40770352D01*
X98074300Y-40770348D01*
X98030204Y-40548663D01*
X97862229Y-40297271D01*
X97798773Y-40254871D01*
X97316531Y-39772629D01*
X97537839Y-39441418D01*
X97653092Y-38862000D01*
X97537839Y-38282582D01*
X97209625Y-37791375D01*
X96911239Y-37592000D01*
X97209625Y-37392625D01*
X97537839Y-36901418D01*
X97653092Y-36322000D01*
X97537839Y-35742582D01*
X97209625Y-35251375D01*
X96911239Y-35052000D01*
X97209625Y-34852625D01*
X97537839Y-34361418D01*
X97653092Y-33782000D01*
X97537839Y-33202582D01*
X97299988Y-32846613D01*
X97798773Y-32347829D01*
X97862229Y-32305429D01*
X98030204Y-32054037D01*
X98074300Y-31832352D01*
X98074300Y-31832348D01*
X98089188Y-31757501D01*
X98074300Y-31682654D01*
X98074300Y-30760046D01*
X98089188Y-30685199D01*
X98074300Y-30610352D01*
X98074300Y-30610348D01*
X98030204Y-30388663D01*
X97862229Y-30137271D01*
X97798773Y-30094871D01*
X97553715Y-29849814D01*
X97587157Y-29799765D01*
X97636440Y-29552000D01*
X97636440Y-27852000D01*
X97587157Y-27604235D01*
X97446809Y-27394191D01*
X97236765Y-27253843D01*
X96989000Y-27204560D01*
X95289000Y-27204560D01*
X95041235Y-27253843D01*
X94831191Y-27394191D01*
X94690843Y-27604235D01*
X94641560Y-27852000D01*
X94641560Y-29552000D01*
X94690843Y-29799765D01*
X94831191Y-30009809D01*
X95041235Y-30150157D01*
X95086619Y-30159184D01*
X95068375Y-30171375D01*
X94860822Y-30482000D01*
X93927846Y-30482000D01*
X93852999Y-30467112D01*
X93778152Y-30482000D01*
X93778148Y-30482000D01*
X93556463Y-30526096D01*
X93556461Y-30526097D01*
X93556462Y-30526097D01*
X93368526Y-30651671D01*
X93368524Y-30651673D01*
X93305071Y-30694071D01*
X93262673Y-30757524D01*
X91821000Y-32199197D01*
X91821000Y-32056596D01*
X91569650Y-31449784D01*
X91105216Y-30985350D01*
X90498404Y-30734000D01*
X89841596Y-30734000D01*
X89234784Y-30985350D01*
X88900000Y-31320134D01*
X88565216Y-30985350D01*
X88390000Y-30912773D01*
X88390000Y-29793043D01*
X88664577Y-29609577D01*
X88735734Y-29503083D01*
X88831673Y-29734699D01*
X89010302Y-29913327D01*
X89243691Y-30010000D01*
X89884250Y-30010000D01*
X90043000Y-29851250D01*
X90043000Y-28702000D01*
X90297000Y-28702000D01*
X90297000Y-29851250D01*
X90455750Y-30010000D01*
X91096309Y-30010000D01*
X91329698Y-29913327D01*
X91508327Y-29734699D01*
X91605000Y-29501310D01*
X91605000Y-28860750D01*
X91446250Y-28702000D01*
X90297000Y-28702000D01*
X90043000Y-28702000D01*
X90023000Y-28702000D01*
X90023000Y-28448000D01*
X90043000Y-28448000D01*
X90043000Y-27298750D01*
X90297000Y-27298750D01*
X90297000Y-28448000D01*
X91446250Y-28448000D01*
X91605000Y-28289250D01*
X91605000Y-27648690D01*
X91508327Y-27415301D01*
X91329698Y-27236673D01*
X91096309Y-27140000D01*
X90455750Y-27140000D01*
X90297000Y-27298750D01*
X90043000Y-27298750D01*
X89884250Y-27140000D01*
X89243691Y-27140000D01*
X89010302Y-27236673D01*
X88831673Y-27415301D01*
X88735734Y-27646917D01*
X88664577Y-27540423D01*
X88189909Y-27223260D01*
X87771333Y-27140000D01*
X87488667Y-27140000D01*
X87070091Y-27223260D01*
X86595423Y-27540423D01*
X86360000Y-27892758D01*
X86124577Y-27540423D01*
X85649909Y-27223260D01*
X85231333Y-27140000D01*
X84948667Y-27140000D01*
X84530091Y-27223260D01*
X84055423Y-27540423D01*
X83820000Y-27892758D01*
X83584577Y-27540423D01*
X83109909Y-27223260D01*
X82691333Y-27140000D01*
X82408667Y-27140000D01*
X81990091Y-27223260D01*
X81515423Y-27540423D01*
X81280000Y-27892758D01*
X81044577Y-27540423D01*
X80569909Y-27223260D01*
X80151333Y-27140000D01*
X79868667Y-27140000D01*
X79450091Y-27223260D01*
X78975423Y-27540423D01*
X78740000Y-27892758D01*
X78504577Y-27540423D01*
X78029909Y-27223260D01*
X77611333Y-27140000D01*
X77328667Y-27140000D01*
X76910091Y-27223260D01*
X76435423Y-27540423D01*
X76200000Y-27892758D01*
X75964577Y-27540423D01*
X75489909Y-27223260D01*
X75071333Y-27140000D01*
X74788667Y-27140000D01*
X74370091Y-27223260D01*
X73895423Y-27540423D01*
X73660000Y-27892758D01*
X73424577Y-27540423D01*
X72949909Y-27223260D01*
X72531333Y-27140000D01*
X72248667Y-27140000D01*
X71830091Y-27223260D01*
X71355423Y-27540423D01*
X71120000Y-27892758D01*
X70884577Y-27540423D01*
X70409909Y-27223260D01*
X69991333Y-27140000D01*
X69708667Y-27140000D01*
X69290091Y-27223260D01*
X68815423Y-27540423D01*
X68498260Y-28015091D01*
X68386887Y-28575000D01*
X68498260Y-29134909D01*
X68815423Y-29609577D01*
X69090000Y-29793044D01*
X69090001Y-30912773D01*
X68914784Y-30985350D01*
X68580000Y-31320134D01*
X68245216Y-30985350D01*
X67638404Y-30734000D01*
X66981596Y-30734000D01*
X66374784Y-30985350D01*
X65910350Y-31449784D01*
X65659000Y-32056596D01*
X65659000Y-32713404D01*
X65910350Y-33320216D01*
X66374784Y-33784650D01*
X66981596Y-34036000D01*
X67638404Y-34036000D01*
X68245216Y-33784650D01*
X68580000Y-33449866D01*
X68914784Y-33784650D01*
X69521596Y-34036000D01*
X70178404Y-34036000D01*
X70785216Y-33784650D01*
X71120000Y-33449866D01*
X71454784Y-33784650D01*
X72061596Y-34036000D01*
X72718404Y-34036000D01*
X73325216Y-33784650D01*
X73660000Y-33449866D01*
X73994784Y-33784650D01*
X74601596Y-34036000D01*
X75258404Y-34036000D01*
X75865216Y-33784650D01*
X76200000Y-33449866D01*
X76534784Y-33784650D01*
X77141596Y-34036000D01*
X77798404Y-34036000D01*
X78405216Y-33784650D01*
X78740000Y-33449866D01*
X79074784Y-33784650D01*
X79681596Y-34036000D01*
X80338404Y-34036000D01*
X80945216Y-33784650D01*
X81280000Y-33449866D01*
X81614784Y-33784650D01*
X82221596Y-34036000D01*
X82878404Y-34036000D01*
X83485216Y-33784650D01*
X83820000Y-33449866D01*
X84154784Y-33784650D01*
X84761596Y-34036000D01*
X85418404Y-34036000D01*
X86025216Y-33784650D01*
X86360000Y-33449866D01*
X86694784Y-33784650D01*
X87301596Y-34036000D01*
X87958404Y-34036000D01*
X88565216Y-33784650D01*
X88900000Y-33449866D01*
X89234784Y-33784650D01*
X89841596Y-34036000D01*
X89984198Y-34036000D01*
X85593621Y-38426577D01*
X85418404Y-38354000D01*
X84761596Y-38354000D01*
X84154784Y-38605350D01*
X83820000Y-38940134D01*
X83485216Y-38605350D01*
X82878404Y-38354000D01*
X82221596Y-38354000D01*
X81614784Y-38605350D01*
X81280000Y-38940134D01*
X80945216Y-38605350D01*
X80338404Y-38354000D01*
X79681596Y-38354000D01*
X79074784Y-38605350D01*
X78740000Y-38940134D01*
X78405216Y-38605350D01*
X77798404Y-38354000D01*
X77141596Y-38354000D01*
X76534784Y-38605350D01*
X76200000Y-38940134D01*
X75865216Y-38605350D01*
X75258404Y-38354000D01*
X74601596Y-38354000D01*
X73994784Y-38605350D01*
X73660000Y-38940134D01*
X73325216Y-38605350D01*
X72718404Y-38354000D01*
X72061596Y-38354000D01*
X71454784Y-38605350D01*
X71120000Y-38940134D01*
X70785216Y-38605350D01*
X70178404Y-38354000D01*
X69521596Y-38354000D01*
X68914784Y-38605350D01*
X68865975Y-38654159D01*
X68783809Y-38531191D01*
X68573765Y-38390843D01*
X68326000Y-38341560D01*
X66294000Y-38341560D01*
X66046235Y-38390843D01*
X65836191Y-38531191D01*
X65695843Y-38741235D01*
X65646560Y-38989000D01*
X65646560Y-40276348D01*
X64404600Y-39034388D01*
X64404600Y-30019373D01*
X64420468Y-29939600D01*
X64385392Y-29763260D01*
X64357603Y-29623554D01*
X64178577Y-29355623D01*
X64110947Y-29310434D01*
X63640420Y-28839907D01*
X63693113Y-28575000D01*
X63581740Y-28015091D01*
X63264577Y-27540423D01*
X62789909Y-27223260D01*
X62371333Y-27140000D01*
X62088667Y-27140000D01*
X61670091Y-27223260D01*
X61195423Y-27540423D01*
X60878260Y-28015091D01*
X60766887Y-28575000D01*
X60878260Y-29134909D01*
X61195423Y-29609577D01*
X61547758Y-29845000D01*
X61195423Y-30080423D01*
X60878260Y-30555091D01*
X60766887Y-31115000D01*
X60878260Y-31674909D01*
X61195423Y-32149577D01*
X61547758Y-32385000D01*
X61195423Y-32620423D01*
X60878260Y-33095091D01*
X60766887Y-33655000D01*
X60878260Y-34214909D01*
X61195423Y-34689577D01*
X61547758Y-34925000D01*
X61195423Y-35160423D01*
X60878260Y-35635091D01*
X60766887Y-36195000D01*
X60767405Y-36197603D01*
X56008688Y-31438887D01*
X56073113Y-31115000D01*
X55961740Y-30555091D01*
X55644577Y-30080423D01*
X55523894Y-29999785D01*
X55657765Y-29973157D01*
X55867809Y-29832809D01*
X56008157Y-29622765D01*
X56057440Y-29375000D01*
X56057440Y-27775000D01*
X56008157Y-27527235D01*
X55867809Y-27317191D01*
X55657765Y-27176843D01*
X55410000Y-27127560D01*
X53810000Y-27127560D01*
X53562235Y-27176843D01*
X53352191Y-27317191D01*
X53211843Y-27527235D01*
X53162560Y-27775000D01*
X53162560Y-29375000D01*
X53211843Y-29622765D01*
X53352191Y-29832809D01*
X53562235Y-29973157D01*
X53696106Y-29999785D01*
X53575423Y-30080423D01*
X53258260Y-30555091D01*
X53146887Y-31115000D01*
X53258260Y-31674909D01*
X53575423Y-32149577D01*
X53927758Y-32385000D01*
X53575423Y-32620423D01*
X53258260Y-33095091D01*
X53146887Y-33655000D01*
X53258260Y-34214909D01*
X53575423Y-34689577D01*
X53850001Y-34873044D01*
X53850000Y-34976956D01*
X53575423Y-35160423D01*
X53258260Y-35635091D01*
X53146887Y-36195000D01*
X53258260Y-36754909D01*
X53575423Y-37229577D01*
X53927758Y-37465000D01*
X53575423Y-37700423D01*
X53258260Y-38175091D01*
X53146887Y-38735000D01*
X53258260Y-39294909D01*
X53575423Y-39769577D01*
X53927758Y-40005000D01*
X53575423Y-40240423D01*
X53258260Y-40715091D01*
X53146887Y-41275000D01*
X53211312Y-41598887D01*
X52950230Y-41859969D01*
X52886771Y-41902371D01*
X52718796Y-42153764D01*
X52674700Y-42375449D01*
X52674700Y-42375453D01*
X52659812Y-42450300D01*
X52674700Y-42525147D01*
X52674701Y-58142429D01*
X52624097Y-58218163D01*
X52565112Y-58514700D01*
X48970000Y-58514700D01*
X48970000Y-22935000D01*
X102160000Y-22935000D01*
X102160001Y-72950000D01*
X102160001Y-72950000D01*
G37*
X102160001Y-72950000D02*
X48970000Y-72950000D01*
X48970000Y-58514700D01*
X52565112Y-58514700D01*
X52580001Y-58589552D01*
X52580000Y-62790153D01*
X52565112Y-62865000D01*
X52580000Y-62939847D01*
X52580000Y-62939851D01*
X52624096Y-63161536D01*
X52792071Y-63412929D01*
X52855530Y-63455331D01*
X53168791Y-63768592D01*
X53095908Y-64135000D01*
X53211161Y-64714418D01*
X53539375Y-65205625D01*
X53837761Y-65405000D01*
X53539375Y-65604375D01*
X53211161Y-66095582D01*
X53095908Y-66675000D01*
X53211161Y-67254418D01*
X53539375Y-67745625D01*
X54030582Y-68073839D01*
X54463744Y-68160000D01*
X54756256Y-68160000D01*
X55189418Y-68073839D01*
X55680625Y-67745625D01*
X55892474Y-67428571D01*
X56081837Y-67390904D01*
X56333229Y-67222929D01*
X56375631Y-67159470D01*
X56511062Y-67024039D01*
X65283096Y-67024039D01*
X65443959Y-67412423D01*
X65819866Y-67827389D01*
X66325959Y-68066914D01*
X66548000Y-67945629D01*
X66548000Y-66802000D01*
X66802000Y-66802000D01*
X66802000Y-67945629D01*
X67024041Y-68066914D01*
X67530134Y-67827389D01*
X67906041Y-67412423D01*
X68066904Y-67024039D01*
X72903096Y-67024039D01*
X73063959Y-67412423D01*
X73439866Y-67827389D01*
X73945959Y-68066914D01*
X74168000Y-67945629D01*
X74168000Y-66802000D01*
X74422000Y-66802000D01*
X74422000Y-67945629D01*
X74644041Y-68066914D01*
X75150134Y-67827389D01*
X75526041Y-67412423D01*
X75686904Y-67024039D01*
X81158096Y-67024039D01*
X81318959Y-67412423D01*
X81694866Y-67827389D01*
X82200959Y-68066914D01*
X82423000Y-67945629D01*
X82423000Y-66802000D01*
X82677000Y-66802000D01*
X82677000Y-67945629D01*
X82899041Y-68066914D01*
X83405134Y-67827389D01*
X83781041Y-67412423D01*
X83941904Y-67024039D01*
X88778096Y-67024039D01*
X88938959Y-67412423D01*
X89314866Y-67827389D01*
X89820959Y-68066914D01*
X90043000Y-67945629D01*
X90043000Y-66802000D01*
X90297000Y-66802000D01*
X90297000Y-67945629D01*
X90519041Y-68066914D01*
X91025134Y-67827389D01*
X91401041Y-67412423D01*
X91561904Y-67024039D01*
X91439915Y-66802000D01*
X90297000Y-66802000D01*
X90043000Y-66802000D01*
X88900085Y-66802000D01*
X88778096Y-67024039D01*
X83941904Y-67024039D01*
X83819915Y-66802000D01*
X82677000Y-66802000D01*
X82423000Y-66802000D01*
X81280085Y-66802000D01*
X81158096Y-67024039D01*
X75686904Y-67024039D01*
X75564915Y-66802000D01*
X74422000Y-66802000D01*
X74168000Y-66802000D01*
X73025085Y-66802000D01*
X72903096Y-67024039D01*
X68066904Y-67024039D01*
X67944915Y-66802000D01*
X66802000Y-66802000D01*
X66548000Y-66802000D01*
X65405085Y-66802000D01*
X65283096Y-67024039D01*
X56511062Y-67024039D01*
X57275402Y-66259700D01*
X65310540Y-66259700D01*
X65283096Y-66325961D01*
X65405085Y-66548000D01*
X66548000Y-66548000D01*
X66548000Y-66528000D01*
X66802000Y-66528000D01*
X66802000Y-66548000D01*
X67944915Y-66548000D01*
X68066904Y-66325961D01*
X68039460Y-66259700D01*
X69190153Y-66259700D01*
X69265000Y-66274588D01*
X69339847Y-66259700D01*
X69339852Y-66259700D01*
X69561537Y-66215604D01*
X69812929Y-66047629D01*
X69855331Y-65984170D01*
X71355462Y-64484039D01*
X72903096Y-64484039D01*
X73063959Y-64872423D01*
X73439866Y-65287389D01*
X73688367Y-65405000D01*
X73439866Y-65522611D01*
X73063959Y-65937577D01*
X72903096Y-66325961D01*
X73025085Y-66548000D01*
X74168000Y-66548000D01*
X74168000Y-64262000D01*
X74422000Y-64262000D01*
X74422000Y-66548000D01*
X75564915Y-66548000D01*
X75686904Y-66325961D01*
X75526041Y-65937577D01*
X75150134Y-65522611D01*
X74901633Y-65405000D01*
X75150134Y-65287389D01*
X75526041Y-64872423D01*
X75686904Y-64484039D01*
X75564915Y-64262000D01*
X74422000Y-64262000D01*
X74168000Y-64262000D01*
X73025085Y-64262000D01*
X72903096Y-64484039D01*
X71355462Y-64484039D01*
X73240196Y-62599306D01*
X73260423Y-62629577D01*
X73644108Y-62885947D01*
X73439866Y-62982611D01*
X73063959Y-63397577D01*
X72903096Y-63785961D01*
X73025085Y-64008000D01*
X74168000Y-64008000D01*
X74168000Y-63988000D01*
X74422000Y-63988000D01*
X74422000Y-64008000D01*
X75564915Y-64008000D01*
X75686904Y-63785961D01*
X75526041Y-63397577D01*
X75150134Y-62982611D01*
X74945892Y-62885947D01*
X75329577Y-62629577D01*
X75646740Y-62154909D01*
X75758113Y-61595000D01*
X75646740Y-61035091D01*
X75329577Y-60560423D01*
X74977242Y-60325000D01*
X75329577Y-60089577D01*
X75646740Y-59614909D01*
X75758113Y-59055000D01*
X75646740Y-58495091D01*
X75329577Y-58020423D01*
X74977242Y-57785000D01*
X75329577Y-57549577D01*
X75646740Y-57074909D01*
X75758113Y-56515000D01*
X75646740Y-55955091D01*
X75329577Y-55480423D01*
X74977242Y-55245000D01*
X75329577Y-55009577D01*
X75646740Y-54534909D01*
X75758113Y-53975000D01*
X75646740Y-53415091D01*
X75329577Y-52940423D01*
X74945892Y-52684053D01*
X75150134Y-52587389D01*
X75526041Y-52172423D01*
X75686904Y-51784039D01*
X75564915Y-51562000D01*
X74422000Y-51562000D01*
X74422000Y-51582000D01*
X74168000Y-51582000D01*
X74168000Y-51562000D01*
X73025085Y-51562000D01*
X72903096Y-51784039D01*
X73063959Y-52172423D01*
X73439866Y-52587389D01*
X73644108Y-52684053D01*
X73260423Y-52940423D01*
X72943260Y-53415091D01*
X72831887Y-53975000D01*
X72896312Y-54298886D01*
X68137595Y-59057604D01*
X68138113Y-59055000D01*
X68026740Y-58495091D01*
X67709577Y-58020423D01*
X67357242Y-57785000D01*
X67709577Y-57549577D01*
X68026740Y-57074909D01*
X68138113Y-56515000D01*
X68026740Y-55955091D01*
X67709577Y-55480423D01*
X67357242Y-55245000D01*
X67709577Y-55009577D01*
X68026740Y-54534909D01*
X68138113Y-53975000D01*
X68026740Y-53415091D01*
X67709577Y-52940423D01*
X67357242Y-52705000D01*
X67709577Y-52469577D01*
X68026740Y-51994909D01*
X68138113Y-51435000D01*
X68026740Y-50875091D01*
X67709577Y-50400423D01*
X67603082Y-50329265D01*
X67834698Y-50233327D01*
X68013327Y-50054699D01*
X68110000Y-49821310D01*
X68110000Y-49180750D01*
X67951250Y-49022000D01*
X66802000Y-49022000D01*
X66802000Y-49042000D01*
X66548000Y-49042000D01*
X66548000Y-49022000D01*
X66528000Y-49022000D01*
X66528000Y-48768000D01*
X66548000Y-48768000D01*
X66548000Y-47618750D01*
X66802000Y-47618750D01*
X66802000Y-48768000D01*
X67951250Y-48768000D01*
X68110000Y-48609250D01*
X68110000Y-47968690D01*
X68013327Y-47735301D01*
X67834698Y-47556673D01*
X67601309Y-47460000D01*
X66960750Y-47460000D01*
X66802000Y-47618750D01*
X66548000Y-47618750D01*
X66389250Y-47460000D01*
X65748691Y-47460000D01*
X65515302Y-47556673D01*
X65336673Y-47735301D01*
X65276000Y-47881778D01*
X65276000Y-42196812D01*
X72490534Y-49411347D01*
X72535723Y-49478977D01*
X72603352Y-49524165D01*
X72803653Y-49658003D01*
X73119700Y-49720868D01*
X73120819Y-49720645D01*
X73260423Y-49929577D01*
X73644108Y-50185947D01*
X73439866Y-50282611D01*
X73063959Y-50697577D01*
X72903096Y-51085961D01*
X73025085Y-51308000D01*
X74168000Y-51308000D01*
X74168000Y-51288000D01*
X74422000Y-51288000D01*
X74422000Y-51308000D01*
X75564915Y-51308000D01*
X75686904Y-51085961D01*
X75526041Y-50697577D01*
X75150134Y-50282611D01*
X74945892Y-50185947D01*
X75329577Y-49929577D01*
X75646740Y-49454909D01*
X75739446Y-48988847D01*
X78082400Y-51331802D01*
X78082401Y-57964144D01*
X78082400Y-57964149D01*
X78082401Y-58811237D01*
X78082400Y-60352553D01*
X78067512Y-60427400D01*
X78082400Y-60502247D01*
X78082400Y-60502251D01*
X78126496Y-60723936D01*
X78294471Y-60975329D01*
X78357930Y-61017731D01*
X81151312Y-63811114D01*
X81086887Y-64135000D01*
X81198260Y-64694909D01*
X81515423Y-65169577D01*
X81899108Y-65425947D01*
X81694866Y-65522611D01*
X81318959Y-65937577D01*
X81158096Y-66325961D01*
X81280085Y-66548000D01*
X82423000Y-66548000D01*
X82423000Y-66528000D01*
X82677000Y-66528000D01*
X82677000Y-66548000D01*
X83819915Y-66548000D01*
X83941904Y-66325961D01*
X83781041Y-65937577D01*
X83405134Y-65522611D01*
X83200892Y-65425947D01*
X83584577Y-65169577D01*
X83901740Y-64694909D01*
X83943684Y-64484039D01*
X88778096Y-64484039D01*
X88938959Y-64872423D01*
X89314866Y-65287389D01*
X89563367Y-65405000D01*
X89314866Y-65522611D01*
X88938959Y-65937577D01*
X88778096Y-66325961D01*
X88900085Y-66548000D01*
X90043000Y-66548000D01*
X90043000Y-64262000D01*
X90297000Y-64262000D01*
X90297000Y-66548000D01*
X91439915Y-66548000D01*
X91561904Y-66325961D01*
X91401041Y-65937577D01*
X91025134Y-65522611D01*
X90776633Y-65405000D01*
X91025134Y-65287389D01*
X91401041Y-64872423D01*
X91561904Y-64484039D01*
X91439915Y-64262000D01*
X90297000Y-64262000D01*
X90043000Y-64262000D01*
X88900085Y-64262000D01*
X88778096Y-64484039D01*
X83943684Y-64484039D01*
X84013113Y-64135000D01*
X83948688Y-63811114D01*
X84812473Y-62947329D01*
X84875929Y-62904929D01*
X84961409Y-62777000D01*
X85043904Y-62653538D01*
X85064923Y-62547868D01*
X85088000Y-62431852D01*
X85088000Y-62431848D01*
X85102888Y-62357000D01*
X85088000Y-62282152D01*
X85088000Y-61015101D01*
X88902347Y-57200754D01*
X89135423Y-57549577D01*
X89487758Y-57785000D01*
X89135423Y-58020423D01*
X88818260Y-58495091D01*
X88706887Y-59055000D01*
X88818260Y-59614909D01*
X89135423Y-60089577D01*
X89487758Y-60325000D01*
X89135423Y-60560423D01*
X88818260Y-61035091D01*
X88706887Y-61595000D01*
X88818260Y-62154909D01*
X89135423Y-62629577D01*
X89519108Y-62885947D01*
X89314866Y-62982611D01*
X88938959Y-63397577D01*
X88778096Y-63785961D01*
X88900085Y-64008000D01*
X90043000Y-64008000D01*
X90043000Y-63988000D01*
X90297000Y-63988000D01*
X90297000Y-64008000D01*
X91439915Y-64008000D01*
X91561904Y-63785961D01*
X91401041Y-63397577D01*
X91025134Y-62982611D01*
X90820892Y-62885947D01*
X91204577Y-62629577D01*
X91521740Y-62154909D01*
X91633113Y-61595000D01*
X91521740Y-61035091D01*
X91204577Y-60560423D01*
X90852242Y-60325000D01*
X91204577Y-60089577D01*
X91521740Y-59614909D01*
X91633113Y-59055000D01*
X91521740Y-58495091D01*
X91204577Y-58020423D01*
X90852242Y-57785000D01*
X91204577Y-57549577D01*
X91521740Y-57074909D01*
X91633113Y-56515000D01*
X91521740Y-55955091D01*
X91274312Y-55584789D01*
X94736432Y-52122670D01*
X94740161Y-52141418D01*
X95068375Y-52632625D01*
X95329000Y-52806769D01*
X95329001Y-52857231D01*
X95068375Y-53031375D01*
X94740161Y-53522582D01*
X94624908Y-54102000D01*
X94740161Y-54681418D01*
X95068375Y-55172625D01*
X95329001Y-55346769D01*
X95329000Y-55397231D01*
X95068375Y-55571375D01*
X94740161Y-56062582D01*
X94624908Y-56642000D01*
X94740161Y-57221418D01*
X95068375Y-57712625D01*
X95329001Y-57886769D01*
X95329000Y-57937231D01*
X95068375Y-58111375D01*
X94740161Y-58602582D01*
X94624908Y-59182000D01*
X94740161Y-59761418D01*
X95068375Y-60252625D01*
X95329001Y-60426769D01*
X95329000Y-60477231D01*
X95068375Y-60651375D01*
X94740161Y-61142582D01*
X94624908Y-61722000D01*
X94740161Y-62301418D01*
X95068375Y-62792625D01*
X95329000Y-62966769D01*
X95329001Y-63017231D01*
X95068375Y-63191375D01*
X94740161Y-63682582D01*
X94624908Y-64262000D01*
X94740161Y-64841418D01*
X95068375Y-65332625D01*
X95329000Y-65506769D01*
X95329001Y-65557231D01*
X95068375Y-65731375D01*
X94740161Y-66222582D01*
X94624908Y-66802000D01*
X94740161Y-67381418D01*
X95068375Y-67872625D01*
X95559582Y-68200839D01*
X95992744Y-68287000D01*
X96285256Y-68287000D01*
X96718418Y-68200839D01*
X97209625Y-67872625D01*
X97537839Y-67381418D01*
X97653092Y-66802000D01*
X97537839Y-66222582D01*
X97209625Y-65731375D01*
X96949000Y-65557231D01*
X96949000Y-65506769D01*
X97209625Y-65332625D01*
X97537839Y-64841418D01*
X97653092Y-64262000D01*
X97537839Y-63682582D01*
X97209625Y-63191375D01*
X96949000Y-63017231D01*
X96949000Y-62966769D01*
X97209625Y-62792625D01*
X97537839Y-62301418D01*
X97653092Y-61722000D01*
X97537839Y-61142582D01*
X97209625Y-60651375D01*
X96949000Y-60477231D01*
X96949000Y-60426769D01*
X97209625Y-60252625D01*
X97537839Y-59761418D01*
X97653092Y-59182000D01*
X97537839Y-58602582D01*
X97209625Y-58111375D01*
X96949000Y-57937231D01*
X96949000Y-57886769D01*
X97209625Y-57712625D01*
X97537839Y-57221418D01*
X97653092Y-56642000D01*
X97537839Y-56062582D01*
X97209625Y-55571375D01*
X96949000Y-55397231D01*
X96949000Y-55346769D01*
X97209625Y-55172625D01*
X97537839Y-54681418D01*
X97653092Y-54102000D01*
X97537839Y-53522582D01*
X97209625Y-53031375D01*
X96949000Y-52857231D01*
X96949000Y-52806769D01*
X97209625Y-52632625D01*
X97537839Y-52141418D01*
X97653092Y-51562000D01*
X97537839Y-50982582D01*
X97209625Y-50491375D01*
X96949000Y-50317231D01*
X96949000Y-50266769D01*
X97209625Y-50092625D01*
X97537839Y-49601418D01*
X97653092Y-49022000D01*
X97537839Y-48442582D01*
X97209625Y-47951375D01*
X96911239Y-47752000D01*
X97209625Y-47552625D01*
X97537839Y-47061418D01*
X97653092Y-46482000D01*
X97537839Y-45902582D01*
X97292658Y-45535643D01*
X97798773Y-45029529D01*
X97862229Y-44987129D01*
X98030204Y-44735737D01*
X98074300Y-44514052D01*
X98074300Y-44514048D01*
X98089188Y-44439201D01*
X98074300Y-44364354D01*
X98074300Y-40920046D01*
X98089188Y-40845199D01*
X98074300Y-40770352D01*
X98074300Y-40770348D01*
X98030204Y-40548663D01*
X97862229Y-40297271D01*
X97798773Y-40254871D01*
X97316531Y-39772629D01*
X97537839Y-39441418D01*
X97653092Y-38862000D01*
X97537839Y-38282582D01*
X97209625Y-37791375D01*
X96911239Y-37592000D01*
X97209625Y-37392625D01*
X97537839Y-36901418D01*
X97653092Y-36322000D01*
X97537839Y-35742582D01*
X97209625Y-35251375D01*
X96911239Y-35052000D01*
X97209625Y-34852625D01*
X97537839Y-34361418D01*
X97653092Y-33782000D01*
X97537839Y-33202582D01*
X97299988Y-32846613D01*
X97798773Y-32347829D01*
X97862229Y-32305429D01*
X98030204Y-32054037D01*
X98074300Y-31832352D01*
X98074300Y-31832348D01*
X98089188Y-31757501D01*
X98074300Y-31682654D01*
X98074300Y-30760046D01*
X98089188Y-30685199D01*
X98074300Y-30610352D01*
X98074300Y-30610348D01*
X98030204Y-30388663D01*
X97862229Y-30137271D01*
X97798773Y-30094871D01*
X97553715Y-29849814D01*
X97587157Y-29799765D01*
X97636440Y-29552000D01*
X97636440Y-27852000D01*
X97587157Y-27604235D01*
X97446809Y-27394191D01*
X97236765Y-27253843D01*
X96989000Y-27204560D01*
X95289000Y-27204560D01*
X95041235Y-27253843D01*
X94831191Y-27394191D01*
X94690843Y-27604235D01*
X94641560Y-27852000D01*
X94641560Y-29552000D01*
X94690843Y-29799765D01*
X94831191Y-30009809D01*
X95041235Y-30150157D01*
X95086619Y-30159184D01*
X95068375Y-30171375D01*
X94860822Y-30482000D01*
X93927846Y-30482000D01*
X93852999Y-30467112D01*
X93778152Y-30482000D01*
X93778148Y-30482000D01*
X93556463Y-30526096D01*
X93556461Y-30526097D01*
X93556462Y-30526097D01*
X93368526Y-30651671D01*
X93368524Y-30651673D01*
X93305071Y-30694071D01*
X93262673Y-30757524D01*
X91821000Y-32199197D01*
X91821000Y-32056596D01*
X91569650Y-31449784D01*
X91105216Y-30985350D01*
X90498404Y-30734000D01*
X89841596Y-30734000D01*
X89234784Y-30985350D01*
X88900000Y-31320134D01*
X88565216Y-30985350D01*
X88390000Y-30912773D01*
X88390000Y-29793043D01*
X88664577Y-29609577D01*
X88735734Y-29503083D01*
X88831673Y-29734699D01*
X89010302Y-29913327D01*
X89243691Y-30010000D01*
X89884250Y-30010000D01*
X90043000Y-29851250D01*
X90043000Y-28702000D01*
X90297000Y-28702000D01*
X90297000Y-29851250D01*
X90455750Y-30010000D01*
X91096309Y-30010000D01*
X91329698Y-29913327D01*
X91508327Y-29734699D01*
X91605000Y-29501310D01*
X91605000Y-28860750D01*
X91446250Y-28702000D01*
X90297000Y-28702000D01*
X90043000Y-28702000D01*
X90023000Y-28702000D01*
X90023000Y-28448000D01*
X90043000Y-28448000D01*
X90043000Y-27298750D01*
X90297000Y-27298750D01*
X90297000Y-28448000D01*
X91446250Y-28448000D01*
X91605000Y-28289250D01*
X91605000Y-27648690D01*
X91508327Y-27415301D01*
X91329698Y-27236673D01*
X91096309Y-27140000D01*
X90455750Y-27140000D01*
X90297000Y-27298750D01*
X90043000Y-27298750D01*
X89884250Y-27140000D01*
X89243691Y-27140000D01*
X89010302Y-27236673D01*
X88831673Y-27415301D01*
X88735734Y-27646917D01*
X88664577Y-27540423D01*
X88189909Y-27223260D01*
X87771333Y-27140000D01*
X87488667Y-27140000D01*
X87070091Y-27223260D01*
X86595423Y-27540423D01*
X86360000Y-27892758D01*
X86124577Y-27540423D01*
X85649909Y-27223260D01*
X85231333Y-27140000D01*
X84948667Y-27140000D01*
X84530091Y-27223260D01*
X84055423Y-27540423D01*
X83820000Y-27892758D01*
X83584577Y-27540423D01*
X83109909Y-27223260D01*
X82691333Y-27140000D01*
X82408667Y-27140000D01*
X81990091Y-27223260D01*
X81515423Y-27540423D01*
X81280000Y-27892758D01*
X81044577Y-27540423D01*
X80569909Y-27223260D01*
X80151333Y-27140000D01*
X79868667Y-27140000D01*
X79450091Y-27223260D01*
X78975423Y-27540423D01*
X78740000Y-27892758D01*
X78504577Y-27540423D01*
X78029909Y-27223260D01*
X77611333Y-27140000D01*
X77328667Y-27140000D01*
X76910091Y-27223260D01*
X76435423Y-27540423D01*
X76200000Y-27892758D01*
X75964577Y-27540423D01*
X75489909Y-27223260D01*
X75071333Y-27140000D01*
X74788667Y-27140000D01*
X74370091Y-27223260D01*
X73895423Y-27540423D01*
X73660000Y-27892758D01*
X73424577Y-27540423D01*
X72949909Y-27223260D01*
X72531333Y-27140000D01*
X72248667Y-27140000D01*
X71830091Y-27223260D01*
X71355423Y-27540423D01*
X71120000Y-27892758D01*
X70884577Y-27540423D01*
X70409909Y-27223260D01*
X69991333Y-27140000D01*
X69708667Y-27140000D01*
X69290091Y-27223260D01*
X68815423Y-27540423D01*
X68498260Y-28015091D01*
X68386887Y-28575000D01*
X68498260Y-29134909D01*
X68815423Y-29609577D01*
X69090000Y-29793044D01*
X69090001Y-30912773D01*
X68914784Y-30985350D01*
X68580000Y-31320134D01*
X68245216Y-30985350D01*
X67638404Y-30734000D01*
X66981596Y-30734000D01*
X66374784Y-30985350D01*
X65910350Y-31449784D01*
X65659000Y-32056596D01*
X65659000Y-32713404D01*
X65910350Y-33320216D01*
X66374784Y-33784650D01*
X66981596Y-34036000D01*
X67638404Y-34036000D01*
X68245216Y-33784650D01*
X68580000Y-33449866D01*
X68914784Y-33784650D01*
X69521596Y-34036000D01*
X70178404Y-34036000D01*
X70785216Y-33784650D01*
X71120000Y-33449866D01*
X71454784Y-33784650D01*
X72061596Y-34036000D01*
X72718404Y-34036000D01*
X73325216Y-33784650D01*
X73660000Y-33449866D01*
X73994784Y-33784650D01*
X74601596Y-34036000D01*
X75258404Y-34036000D01*
X75865216Y-33784650D01*
X76200000Y-33449866D01*
X76534784Y-33784650D01*
X77141596Y-34036000D01*
X77798404Y-34036000D01*
X78405216Y-33784650D01*
X78740000Y-33449866D01*
X79074784Y-33784650D01*
X79681596Y-34036000D01*
X80338404Y-34036000D01*
X80945216Y-33784650D01*
X81280000Y-33449866D01*
X81614784Y-33784650D01*
X82221596Y-34036000D01*
X82878404Y-34036000D01*
X83485216Y-33784650D01*
X83820000Y-33449866D01*
X84154784Y-33784650D01*
X84761596Y-34036000D01*
X85418404Y-34036000D01*
X86025216Y-33784650D01*
X86360000Y-33449866D01*
X86694784Y-33784650D01*
X87301596Y-34036000D01*
X87958404Y-34036000D01*
X88565216Y-33784650D01*
X88900000Y-33449866D01*
X89234784Y-33784650D01*
X89841596Y-34036000D01*
X89984198Y-34036000D01*
X85593621Y-38426577D01*
X85418404Y-38354000D01*
X84761596Y-38354000D01*
X84154784Y-38605350D01*
X83820000Y-38940134D01*
X83485216Y-38605350D01*
X82878404Y-38354000D01*
X82221596Y-38354000D01*
X81614784Y-38605350D01*
X81280000Y-38940134D01*
X80945216Y-38605350D01*
X80338404Y-38354000D01*
X79681596Y-38354000D01*
X79074784Y-38605350D01*
X78740000Y-38940134D01*
X78405216Y-38605350D01*
X77798404Y-38354000D01*
X77141596Y-38354000D01*
X76534784Y-38605350D01*
X76200000Y-38940134D01*
X75865216Y-38605350D01*
X75258404Y-38354000D01*
X74601596Y-38354000D01*
X73994784Y-38605350D01*
X73660000Y-38940134D01*
X73325216Y-38605350D01*
X72718404Y-38354000D01*
X72061596Y-38354000D01*
X71454784Y-38605350D01*
X71120000Y-38940134D01*
X70785216Y-38605350D01*
X70178404Y-38354000D01*
X69521596Y-38354000D01*
X68914784Y-38605350D01*
X68865975Y-38654159D01*
X68783809Y-38531191D01*
X68573765Y-38390843D01*
X68326000Y-38341560D01*
X66294000Y-38341560D01*
X66046235Y-38390843D01*
X65836191Y-38531191D01*
X65695843Y-38741235D01*
X65646560Y-38989000D01*
X65646560Y-40276348D01*
X64404600Y-39034388D01*
X64404600Y-30019373D01*
X64420468Y-29939600D01*
X64385392Y-29763260D01*
X64357603Y-29623554D01*
X64178577Y-29355623D01*
X64110947Y-29310434D01*
X63640420Y-28839907D01*
X63693113Y-28575000D01*
X63581740Y-28015091D01*
X63264577Y-27540423D01*
X62789909Y-27223260D01*
X62371333Y-27140000D01*
X62088667Y-27140000D01*
X61670091Y-27223260D01*
X61195423Y-27540423D01*
X60878260Y-28015091D01*
X60766887Y-28575000D01*
X60878260Y-29134909D01*
X61195423Y-29609577D01*
X61547758Y-29845000D01*
X61195423Y-30080423D01*
X60878260Y-30555091D01*
X60766887Y-31115000D01*
X60878260Y-31674909D01*
X61195423Y-32149577D01*
X61547758Y-32385000D01*
X61195423Y-32620423D01*
X60878260Y-33095091D01*
X60766887Y-33655000D01*
X60878260Y-34214909D01*
X61195423Y-34689577D01*
X61547758Y-34925000D01*
X61195423Y-35160423D01*
X60878260Y-35635091D01*
X60766887Y-36195000D01*
X60767405Y-36197603D01*
X56008688Y-31438887D01*
X56073113Y-31115000D01*
X55961740Y-30555091D01*
X55644577Y-30080423D01*
X55523894Y-29999785D01*
X55657765Y-29973157D01*
X55867809Y-29832809D01*
X56008157Y-29622765D01*
X56057440Y-29375000D01*
X56057440Y-27775000D01*
X56008157Y-27527235D01*
X55867809Y-27317191D01*
X55657765Y-27176843D01*
X55410000Y-27127560D01*
X53810000Y-27127560D01*
X53562235Y-27176843D01*
X53352191Y-27317191D01*
X53211843Y-27527235D01*
X53162560Y-27775000D01*
X53162560Y-29375000D01*
X53211843Y-29622765D01*
X53352191Y-29832809D01*
X53562235Y-29973157D01*
X53696106Y-29999785D01*
X53575423Y-30080423D01*
X53258260Y-30555091D01*
X53146887Y-31115000D01*
X53258260Y-31674909D01*
X53575423Y-32149577D01*
X53927758Y-32385000D01*
X53575423Y-32620423D01*
X53258260Y-33095091D01*
X53146887Y-33655000D01*
X53258260Y-34214909D01*
X53575423Y-34689577D01*
X53850001Y-34873044D01*
X53850000Y-34976956D01*
X53575423Y-35160423D01*
X53258260Y-35635091D01*
X53146887Y-36195000D01*
X53258260Y-36754909D01*
X53575423Y-37229577D01*
X53927758Y-37465000D01*
X53575423Y-37700423D01*
X53258260Y-38175091D01*
X53146887Y-38735000D01*
X53258260Y-39294909D01*
X53575423Y-39769577D01*
X53927758Y-40005000D01*
X53575423Y-40240423D01*
X53258260Y-40715091D01*
X53146887Y-41275000D01*
X53211312Y-41598887D01*
X52950230Y-41859969D01*
X52886771Y-41902371D01*
X52718796Y-42153764D01*
X52674700Y-42375449D01*
X52674700Y-42375453D01*
X52659812Y-42450300D01*
X52674700Y-42525147D01*
X52674701Y-58142429D01*
X52624097Y-58218163D01*
X52565112Y-58514700D01*
X48970000Y-58514700D01*
X48970000Y-22935000D01*
X102160000Y-22935000D01*
X102160001Y-72950000D01*
G36*
X94624908Y-46482000D02*
X94697791Y-46848408D01*
X93876530Y-47669669D01*
X93813071Y-47712071D01*
X93645096Y-47963464D01*
X93601000Y-48185149D01*
X93601000Y-48185153D01*
X93586112Y-48260000D01*
X93601000Y-48334847D01*
X93601001Y-51108497D01*
X91430683Y-53278815D01*
X91204577Y-52940423D01*
X90820892Y-52684053D01*
X91025134Y-52587389D01*
X91401041Y-52172423D01*
X91561904Y-51784039D01*
X91439915Y-51562000D01*
X90297000Y-51562000D01*
X90297000Y-51582000D01*
X90043000Y-51582000D01*
X90043000Y-51562000D01*
X88900085Y-51562000D01*
X88778096Y-51784039D01*
X88938959Y-52172423D01*
X89314866Y-52587389D01*
X89519108Y-52684053D01*
X89135423Y-52940423D01*
X88818260Y-53415091D01*
X88706887Y-53975000D01*
X88818260Y-54534909D01*
X89058718Y-54894780D01*
X83843528Y-60109971D01*
X83780072Y-60152371D01*
X83737672Y-60215827D01*
X83737671Y-60215828D01*
X83612097Y-60403763D01*
X83581363Y-60558275D01*
X83232242Y-60325000D01*
X83584577Y-60089577D01*
X83901740Y-59614909D01*
X84013113Y-59055000D01*
X83901740Y-58495091D01*
X83584577Y-58020423D01*
X83232242Y-57785000D01*
X83584577Y-57549577D01*
X83901740Y-57074909D01*
X84013113Y-56515000D01*
X83901740Y-55955091D01*
X83584577Y-55480423D01*
X83232242Y-55245000D01*
X83584577Y-55009577D01*
X83799984Y-54687198D01*
X84045829Y-54522929D01*
X84088231Y-54459470D01*
X88928223Y-49619480D01*
X89135423Y-49929577D01*
X89519108Y-50185947D01*
X89314866Y-50282611D01*
X88938959Y-50697577D01*
X88778096Y-51085961D01*
X88900085Y-51308000D01*
X90043000Y-51308000D01*
X90043000Y-51288000D01*
X90297000Y-51288000D01*
X90297000Y-51308000D01*
X91439915Y-51308000D01*
X91561904Y-51085961D01*
X91401041Y-50697577D01*
X91025134Y-50282611D01*
X90820892Y-50185947D01*
X91204577Y-49929577D01*
X91521740Y-49454909D01*
X91633113Y-48895000D01*
X91521740Y-48335091D01*
X91204577Y-47860423D01*
X90894480Y-47653223D01*
X92575703Y-45972000D01*
X94726353Y-45972000D01*
X94624908Y-46482000D01*
X94624908Y-46482000D01*
G37*
X94624908Y-46482000D02*
X94697791Y-46848408D01*
X93876530Y-47669669D01*
X93813071Y-47712071D01*
X93645096Y-47963464D01*
X93601000Y-48185149D01*
X93601000Y-48185153D01*
X93586112Y-48260000D01*
X93601000Y-48334847D01*
X93601001Y-51108497D01*
X91430683Y-53278815D01*
X91204577Y-52940423D01*
X90820892Y-52684053D01*
X91025134Y-52587389D01*
X91401041Y-52172423D01*
X91561904Y-51784039D01*
X91439915Y-51562000D01*
X90297000Y-51562000D01*
X90297000Y-51582000D01*
X90043000Y-51582000D01*
X90043000Y-51562000D01*
X88900085Y-51562000D01*
X88778096Y-51784039D01*
X88938959Y-52172423D01*
X89314866Y-52587389D01*
X89519108Y-52684053D01*
X89135423Y-52940423D01*
X88818260Y-53415091D01*
X88706887Y-53975000D01*
X88818260Y-54534909D01*
X89058718Y-54894780D01*
X83843528Y-60109971D01*
X83780072Y-60152371D01*
X83737672Y-60215827D01*
X83737671Y-60215828D01*
X83612097Y-60403763D01*
X83581363Y-60558275D01*
X83232242Y-60325000D01*
X83584577Y-60089577D01*
X83901740Y-59614909D01*
X84013113Y-59055000D01*
X83901740Y-58495091D01*
X83584577Y-58020423D01*
X83232242Y-57785000D01*
X83584577Y-57549577D01*
X83901740Y-57074909D01*
X84013113Y-56515000D01*
X83901740Y-55955091D01*
X83584577Y-55480423D01*
X83232242Y-55245000D01*
X83584577Y-55009577D01*
X83799984Y-54687198D01*
X84045829Y-54522929D01*
X84088231Y-54459470D01*
X88928223Y-49619480D01*
X89135423Y-49929577D01*
X89519108Y-50185947D01*
X89314866Y-50282611D01*
X88938959Y-50697577D01*
X88778096Y-51085961D01*
X88900085Y-51308000D01*
X90043000Y-51308000D01*
X90043000Y-51288000D01*
X90297000Y-51288000D01*
X90297000Y-51308000D01*
X91439915Y-51308000D01*
X91561904Y-51085961D01*
X91401041Y-50697577D01*
X91025134Y-50282611D01*
X90820892Y-50185947D01*
X91204577Y-49929577D01*
X91521740Y-49454909D01*
X91633113Y-48895000D01*
X91521740Y-48335091D01*
X91204577Y-47860423D01*
X90894480Y-47653223D01*
X92575703Y-45972000D01*
X94726353Y-45972000D01*
X94624908Y-46482000D01*
G36*
X57025000Y-42224802D02*
X57025001Y-50090148D01*
X57010112Y-50165000D01*
X57069097Y-50461537D01*
X57185003Y-50635002D01*
X57237072Y-50712929D01*
X57300528Y-50755329D01*
X60475527Y-53930329D01*
X60475530Y-53930331D01*
X65276312Y-58731114D01*
X65211887Y-59055000D01*
X65313332Y-59565000D01*
X57370102Y-59565000D01*
X56375631Y-58570530D01*
X56333229Y-58507071D01*
X56081837Y-58339096D01*
X55892474Y-58301429D01*
X55680625Y-57984375D01*
X55382239Y-57785000D01*
X55680625Y-57585625D01*
X56008839Y-57094418D01*
X56124092Y-56515000D01*
X56008839Y-55935582D01*
X55680625Y-55444375D01*
X55658967Y-55429904D01*
X55819698Y-55363327D01*
X55998327Y-55184699D01*
X56095000Y-54951310D01*
X56095000Y-54260750D01*
X55936250Y-54102000D01*
X54737000Y-54102000D01*
X54737000Y-54122000D01*
X54483000Y-54122000D01*
X54483000Y-54102000D01*
X54463000Y-54102000D01*
X54463000Y-53848000D01*
X54483000Y-53848000D01*
X54483000Y-52648750D01*
X54737000Y-52648750D01*
X54737000Y-53848000D01*
X55936250Y-53848000D01*
X56095000Y-53689250D01*
X56095000Y-52998690D01*
X55998327Y-52765301D01*
X55819698Y-52586673D01*
X55586309Y-52490000D01*
X54895750Y-52490000D01*
X54737000Y-52648750D01*
X54483000Y-52648750D01*
X54324250Y-52490000D01*
X54194700Y-52490000D01*
X54194700Y-45175555D01*
X54260959Y-45206914D01*
X54483000Y-45085629D01*
X54483000Y-43942000D01*
X54737000Y-43942000D01*
X54737000Y-45085629D01*
X54959041Y-45206914D01*
X55465134Y-44967389D01*
X55841041Y-44552423D01*
X56001904Y-44164039D01*
X55879915Y-43942000D01*
X54737000Y-43942000D01*
X54483000Y-43942000D01*
X54463000Y-43942000D01*
X54463000Y-43688000D01*
X54483000Y-43688000D01*
X54483000Y-43668000D01*
X54737000Y-43668000D01*
X54737000Y-43688000D01*
X55879915Y-43688000D01*
X56001904Y-43465961D01*
X55841041Y-43077577D01*
X55465134Y-42662611D01*
X55260892Y-42565947D01*
X55644577Y-42309577D01*
X55961740Y-41834909D01*
X56073113Y-41275000D01*
X56072595Y-41272397D01*
X57025000Y-42224802D01*
X57025000Y-42224802D01*
G37*
X57025000Y-42224802D02*
X57025001Y-50090148D01*
X57010112Y-50165000D01*
X57069097Y-50461537D01*
X57185003Y-50635002D01*
X57237072Y-50712929D01*
X57300528Y-50755329D01*
X60475527Y-53930329D01*
X60475530Y-53930331D01*
X65276312Y-58731114D01*
X65211887Y-59055000D01*
X65313332Y-59565000D01*
X57370102Y-59565000D01*
X56375631Y-58570530D01*
X56333229Y-58507071D01*
X56081837Y-58339096D01*
X55892474Y-58301429D01*
X55680625Y-57984375D01*
X55382239Y-57785000D01*
X55680625Y-57585625D01*
X56008839Y-57094418D01*
X56124092Y-56515000D01*
X56008839Y-55935582D01*
X55680625Y-55444375D01*
X55658967Y-55429904D01*
X55819698Y-55363327D01*
X55998327Y-55184699D01*
X56095000Y-54951310D01*
X56095000Y-54260750D01*
X55936250Y-54102000D01*
X54737000Y-54102000D01*
X54737000Y-54122000D01*
X54483000Y-54122000D01*
X54483000Y-54102000D01*
X54463000Y-54102000D01*
X54463000Y-53848000D01*
X54483000Y-53848000D01*
X54483000Y-52648750D01*
X54737000Y-52648750D01*
X54737000Y-53848000D01*
X55936250Y-53848000D01*
X56095000Y-53689250D01*
X56095000Y-52998690D01*
X55998327Y-52765301D01*
X55819698Y-52586673D01*
X55586309Y-52490000D01*
X54895750Y-52490000D01*
X54737000Y-52648750D01*
X54483000Y-52648750D01*
X54324250Y-52490000D01*
X54194700Y-52490000D01*
X54194700Y-45175555D01*
X54260959Y-45206914D01*
X54483000Y-45085629D01*
X54483000Y-43942000D01*
X54737000Y-43942000D01*
X54737000Y-45085629D01*
X54959041Y-45206914D01*
X55465134Y-44967389D01*
X55841041Y-44552423D01*
X56001904Y-44164039D01*
X55879915Y-43942000D01*
X54737000Y-43942000D01*
X54483000Y-43942000D01*
X54463000Y-43942000D01*
X54463000Y-43688000D01*
X54483000Y-43688000D01*
X54483000Y-43668000D01*
X54737000Y-43668000D01*
X54737000Y-43688000D01*
X55879915Y-43688000D01*
X56001904Y-43465961D01*
X55841041Y-43077577D01*
X55465134Y-42662611D01*
X55260892Y-42565947D01*
X55644577Y-42309577D01*
X55961740Y-41834909D01*
X56073113Y-41275000D01*
X56072595Y-41272397D01*
X57025000Y-42224802D01*
G36*
X76534784Y-41404650D02*
X77141596Y-41656000D01*
X77798404Y-41656000D01*
X77973621Y-41583423D01*
X78725071Y-42334873D01*
X78767471Y-42398329D01*
X78830927Y-42440729D01*
X79018862Y-42566304D01*
X79050158Y-42572529D01*
X79240548Y-42610400D01*
X79240552Y-42610400D01*
X79315400Y-42625288D01*
X79390248Y-42610400D01*
X90819699Y-42610400D01*
X89824430Y-43605669D01*
X89824427Y-43605671D01*
X83985000Y-49445099D01*
X83985000Y-49180750D01*
X83826250Y-49022000D01*
X82677000Y-49022000D01*
X82677000Y-49042000D01*
X82423000Y-49042000D01*
X82423000Y-49022000D01*
X81273750Y-49022000D01*
X81242776Y-49052974D01*
X80158492Y-47968690D01*
X81115000Y-47968690D01*
X81115000Y-48609250D01*
X81273750Y-48768000D01*
X82423000Y-48768000D01*
X82423000Y-47618750D01*
X82677000Y-47618750D01*
X82677000Y-48768000D01*
X83826250Y-48768000D01*
X83985000Y-48609250D01*
X83985000Y-47968690D01*
X83888327Y-47735301D01*
X83709698Y-47556673D01*
X83476309Y-47460000D01*
X82835750Y-47460000D01*
X82677000Y-47618750D01*
X82423000Y-47618750D01*
X82264250Y-47460000D01*
X81623691Y-47460000D01*
X81390302Y-47556673D01*
X81211673Y-47735301D01*
X81115000Y-47968690D01*
X80158492Y-47968690D01*
X75690000Y-43500199D01*
X75690000Y-41477227D01*
X75865216Y-41404650D01*
X76200000Y-41069866D01*
X76534784Y-41404650D01*
X76534784Y-41404650D01*
G37*
X76534784Y-41404650D02*
X77141596Y-41656000D01*
X77798404Y-41656000D01*
X77973621Y-41583423D01*
X78725071Y-42334873D01*
X78767471Y-42398329D01*
X78830927Y-42440729D01*
X79018862Y-42566304D01*
X79050158Y-42572529D01*
X79240548Y-42610400D01*
X79240552Y-42610400D01*
X79315400Y-42625288D01*
X79390248Y-42610400D01*
X90819699Y-42610400D01*
X89824430Y-43605669D01*
X89824427Y-43605671D01*
X83985000Y-49445099D01*
X83985000Y-49180750D01*
X83826250Y-49022000D01*
X82677000Y-49022000D01*
X82677000Y-49042000D01*
X82423000Y-49042000D01*
X82423000Y-49022000D01*
X81273750Y-49022000D01*
X81242776Y-49052974D01*
X80158492Y-47968690D01*
X81115000Y-47968690D01*
X81115000Y-48609250D01*
X81273750Y-48768000D01*
X82423000Y-48768000D01*
X82423000Y-47618750D01*
X82677000Y-47618750D01*
X82677000Y-48768000D01*
X83826250Y-48768000D01*
X83985000Y-48609250D01*
X83985000Y-47968690D01*
X83888327Y-47735301D01*
X83709698Y-47556673D01*
X83476309Y-47460000D01*
X82835750Y-47460000D01*
X82677000Y-47618750D01*
X82423000Y-47618750D01*
X82264250Y-47460000D01*
X81623691Y-47460000D01*
X81390302Y-47556673D01*
X81211673Y-47735301D01*
X81115000Y-47968690D01*
X80158492Y-47968690D01*
X75690000Y-43500199D01*
X75690000Y-41477227D01*
X75865216Y-41404650D01*
X76200000Y-41069866D01*
X76534784Y-41404650D01*
G04 #@! TD*
M02*
