M48
;DRILL file {KiCad 5.0.2+dfsg1-1} date vr 02 aug 2019 16:38:27 CEST
;FORMAT={-:-/ absolute / inch / decimal}
FMAT,2
INCH,TZ
T1C0.0315
T2C0.0360
T3C0.0394
%
G90
G05
T1
X3.775Y-1.125
X3.775Y-1.225
X3.775Y-1.325
X3.775Y-1.425
X3.775Y-1.525
X3.775Y-1.625
X3.775Y-1.725
X3.775Y-1.825
X3.775Y-1.925
X3.775Y-2.025
X4.075Y-1.125
X4.075Y-1.225
X4.075Y-1.325
X4.075Y-1.425
X4.075Y-1.525
X4.075Y-1.625
X4.075Y-1.725
X4.075Y-1.825
X4.075Y-1.925
X4.075Y-2.025
X2.725Y-1.125
X2.825Y-1.125
X2.925Y-1.125
X3.025Y-1.125
X3.125Y-1.125
X3.225Y-1.125
X3.325Y-1.125
X3.425Y-1.125
X3.525Y-1.125
X2.625Y-1.925
X2.625Y-2.025
X2.625Y-2.125
X2.625Y-2.225
X2.625Y-2.325
X2.625Y-2.425
X2.625Y-2.525
X2.625Y-2.625
X2.925Y-1.925
X2.925Y-2.025
X2.925Y-2.125
X2.925Y-2.225
X2.925Y-2.325
X2.925Y-2.425
X2.925Y-2.525
X2.925Y-2.625
X4.325Y-1.125
X4.325Y-1.225
X4.325Y-1.325
X4.325Y-1.425
X4.325Y-1.525
X4.325Y-1.625
X4.325Y-1.725
X4.325Y-1.825
X4.325Y-1.925
X4.325Y-2.025
X4.625Y-1.125
X4.625Y-1.225
X4.625Y-1.325
X4.625Y-1.425
X4.625Y-1.525
X4.625Y-1.625
X4.625Y-1.725
X4.625Y-1.825
X4.625Y-1.925
X4.625Y-2.025
X3.2Y-1.925
X3.2Y-2.025
X3.2Y-2.125
X3.2Y-2.225
X3.2Y-2.325
X3.2Y-2.425
X3.2Y-2.525
X3.2Y-2.625
X3.5Y-1.925
X3.5Y-2.025
X3.5Y-2.125
X3.5Y-2.225
X3.5Y-2.325
X3.5Y-2.425
X3.5Y-2.525
X3.5Y-2.625
X2.15Y-1.125
X2.15Y-1.225
X2.15Y-1.325
X2.15Y-1.425
X2.15Y-1.525
X2.15Y-1.625
X2.15Y-1.725
X2.45Y-1.125
X2.45Y-1.225
X2.45Y-1.325
X2.45Y-1.425
X2.45Y-1.525
X2.45Y-1.625
X2.45Y-1.725
T2
X2.625Y-1.275
X2.625Y-1.575
X2.725Y-1.275
X2.725Y-1.575
X2.825Y-1.275
X2.825Y-1.575
X2.925Y-1.275
X2.925Y-1.575
X3.025Y-1.275
X3.025Y-1.575
X3.125Y-1.275
X3.125Y-1.575
X3.225Y-1.275
X3.225Y-1.575
X3.325Y-1.275
X3.325Y-1.575
X3.425Y-1.275
X3.425Y-1.575
X3.525Y-1.275
X3.525Y-1.575
T3
X2.15Y-2.025
X2.15Y-2.125
X2.15Y-2.225
X2.15Y-2.325
X2.15Y-2.425
X2.15Y-2.525
X2.15Y-2.625
X4.875Y-1.125
X4.875Y-1.225
X4.875Y-1.325
X4.875Y-1.425
X4.875Y-1.525
X4.875Y-1.625
X4.875Y-1.725
X4.875Y-1.825
X4.875Y-1.925
X4.875Y-2.025
X4.875Y-2.125
X4.875Y-2.225
X4.875Y-2.325
X4.875Y-2.425
X4.875Y-2.525
X4.875Y-2.625
T0
M30
