G04 #@! TF.GenerationSoftware,KiCad,Pcbnew,5.0.2+dfsg1-1*
G04 #@! TF.CreationDate,2019-07-26T12:14:53+02:00*
G04 #@! TF.ProjectId,Stack-Pointer,53746163-6b2d-4506-9f69-6e7465722e6b,rev?*
G04 #@! TF.SameCoordinates,Original*
G04 #@! TF.FileFunction,Copper,L1,Top*
G04 #@! TF.FilePolarity,Positive*
%FSLAX46Y46*%
G04 Gerber Fmt 4.6, Leading zero omitted, Abs format (unit mm)*
G04 Created by KiCad (PCBNEW 5.0.2+dfsg1-1) date vr 26 jul 2019 12:14:53 CEST*
%MOMM*%
%LPD*%
G01*
G04 APERTURE LIST*
G04 #@! TA.AperFunction,ComponentPad*
%ADD10R,1.700000X1.700000*%
G04 #@! TD*
G04 #@! TA.AperFunction,ComponentPad*
%ADD11O,1.700000X1.700000*%
G04 #@! TD*
G04 #@! TA.AperFunction,ComponentPad*
%ADD12R,2.032000X2.032000*%
G04 #@! TD*
G04 #@! TA.AperFunction,ComponentPad*
%ADD13C,2.032000*%
G04 #@! TD*
G04 #@! TA.AperFunction,ComponentPad*
%ADD14R,1.600000X1.600000*%
G04 #@! TD*
G04 #@! TA.AperFunction,ComponentPad*
%ADD15O,1.600000X1.600000*%
G04 #@! TD*
G04 #@! TA.AperFunction,ViaPad*
%ADD16C,0.800000*%
G04 #@! TD*
G04 #@! TA.AperFunction,Conductor*
%ADD17C,0.350000*%
G04 #@! TD*
G04 #@! TA.AperFunction,Conductor*
%ADD18C,0.250000*%
G04 #@! TD*
G04 APERTURE END LIST*
D10*
G04 #@! TO.P,J1,1*
G04 #@! TO.N,GND*
X54610000Y-53975000D03*
D11*
G04 #@! TO.P,J1,2*
G04 #@! TO.N,+5V*
X54610000Y-56515000D03*
G04 #@! TO.P,J1,3*
G04 #@! TO.N,CLOCK*
X54610000Y-59055000D03*
G04 #@! TO.P,J1,4*
G04 #@! TO.N,STK_INC*
X54610000Y-61595000D03*
G04 #@! TO.P,J1,5*
G04 #@! TO.N,STK_DEC*
X54610000Y-64135000D03*
G04 #@! TO.P,J1,6*
G04 #@! TO.N,~STK_RESET*
X54610000Y-66675000D03*
G04 #@! TD*
D10*
G04 #@! TO.P,J2,1*
G04 #@! TO.N,Net-(BAR1-Pad9)*
X96139000Y-28702000D03*
D11*
G04 #@! TO.P,J2,2*
G04 #@! TO.N,Net-(BAR1-Pad8)*
X96139000Y-31242000D03*
G04 #@! TO.P,J2,3*
G04 #@! TO.N,Net-(BAR1-Pad7)*
X96139000Y-33782000D03*
G04 #@! TO.P,J2,4*
G04 #@! TO.N,Net-(BAR1-Pad6)*
X96139000Y-36322000D03*
G04 #@! TO.P,J2,5*
G04 #@! TO.N,Net-(BAR1-Pad5)*
X96139000Y-38862000D03*
G04 #@! TO.P,J2,6*
G04 #@! TO.N,Net-(BAR1-Pad4)*
X96139000Y-41402000D03*
G04 #@! TO.P,J2,7*
G04 #@! TO.N,Net-(BAR1-Pad3)*
X96139000Y-43942000D03*
G04 #@! TO.P,J2,8*
G04 #@! TO.N,Net-(BAR1-Pad2)*
X96139000Y-46482000D03*
G04 #@! TO.P,J2,9*
G04 #@! TO.N,+5V*
X96139000Y-49022000D03*
G04 #@! TO.P,J2,10*
X96139000Y-51562000D03*
G04 #@! TO.P,J2,11*
X96139000Y-54102000D03*
G04 #@! TO.P,J2,12*
X96139000Y-56642000D03*
G04 #@! TO.P,J2,13*
X96139000Y-59182000D03*
G04 #@! TO.P,J2,14*
X96139000Y-61722000D03*
G04 #@! TO.P,J2,15*
X96139000Y-64262000D03*
G04 #@! TO.P,J2,16*
X96139000Y-66802000D03*
G04 #@! TD*
D12*
G04 #@! TO.P,BAR1,1*
G04 #@! TO.N,Net-(BAR1-Pad1)*
X67310000Y-40005000D03*
D13*
G04 #@! TO.P,BAR1,2*
G04 #@! TO.N,Net-(BAR1-Pad2)*
X69850000Y-40005000D03*
G04 #@! TO.P,BAR1,3*
G04 #@! TO.N,Net-(BAR1-Pad3)*
X72390000Y-40005000D03*
G04 #@! TO.P,BAR1,4*
G04 #@! TO.N,Net-(BAR1-Pad4)*
X74930000Y-40005000D03*
G04 #@! TO.P,BAR1,13*
G04 #@! TO.N,Net-(BAR1-Pad13)*
X85090000Y-32385000D03*
G04 #@! TO.P,BAR1,14*
G04 #@! TO.N,Net-(BAR1-Pad14)*
X82550000Y-32385000D03*
G04 #@! TO.P,BAR1,15*
G04 #@! TO.N,Net-(BAR1-Pad15)*
X80010000Y-32385000D03*
G04 #@! TO.P,BAR1,16*
G04 #@! TO.N,Net-(BAR1-Pad16)*
X77470000Y-32385000D03*
G04 #@! TO.P,BAR1,5*
G04 #@! TO.N,Net-(BAR1-Pad5)*
X77470000Y-40005000D03*
G04 #@! TO.P,BAR1,6*
G04 #@! TO.N,Net-(BAR1-Pad6)*
X80010000Y-40005000D03*
G04 #@! TO.P,BAR1,7*
G04 #@! TO.N,Net-(BAR1-Pad7)*
X82550000Y-40005000D03*
G04 #@! TO.P,BAR1,8*
G04 #@! TO.N,Net-(BAR1-Pad8)*
X85090000Y-40005000D03*
G04 #@! TO.P,BAR1,12*
G04 #@! TO.N,Net-(BAR1-Pad12)*
X87630000Y-32385000D03*
G04 #@! TO.P,BAR1,11*
G04 #@! TO.N,Net-(BAR1-Pad11)*
X90170000Y-32385000D03*
G04 #@! TO.P,BAR1,10*
G04 #@! TO.N,Net-(BAR1-Pad10)*
X90170000Y-40005000D03*
G04 #@! TO.P,BAR1,9*
G04 #@! TO.N,Net-(BAR1-Pad9)*
X87630000Y-40005000D03*
G04 #@! TO.P,BAR1,17*
G04 #@! TO.N,Net-(BAR1-Pad17)*
X74930000Y-32385000D03*
G04 #@! TO.P,BAR1,18*
G04 #@! TO.N,Net-(BAR1-Pad18)*
X72390000Y-32385000D03*
G04 #@! TO.P,BAR1,19*
G04 #@! TO.N,Net-(BAR1-Pad19)*
X69850000Y-32385000D03*
G04 #@! TO.P,BAR1,20*
G04 #@! TO.N,Net-(BAR1-Pad20)*
X67310000Y-32385000D03*
G04 #@! TD*
D14*
G04 #@! TO.P,U1,1*
G04 #@! TO.N,DOWN_~UP*
X54610000Y-28575000D03*
D15*
G04 #@! TO.P,U1,8*
G04 #@! TO.N,STK_INC*
X62230000Y-43815000D03*
G04 #@! TO.P,U1,2*
X54610000Y-31115000D03*
G04 #@! TO.P,U1,9*
G04 #@! TO.N,STK_DEC*
X62230000Y-41275000D03*
G04 #@! TO.P,U1,3*
G04 #@! TO.N,Net-(U1-Pad3)*
X54610000Y-33655000D03*
G04 #@! TO.P,U1,10*
G04 #@! TO.N,~CLK_EN*
X62230000Y-38735000D03*
G04 #@! TO.P,U1,4*
G04 #@! TO.N,Net-(U1-Pad3)*
X54610000Y-36195000D03*
G04 #@! TO.P,U1,11*
G04 #@! TO.N,N/C*
X62230000Y-36195000D03*
G04 #@! TO.P,U1,5*
G04 #@! TO.N,DOWN_~UP*
X54610000Y-38735000D03*
G04 #@! TO.P,U1,12*
G04 #@! TO.N,N/C*
X62230000Y-33655000D03*
G04 #@! TO.P,U1,6*
G04 #@! TO.N,STK_DEC*
X54610000Y-41275000D03*
G04 #@! TO.P,U1,13*
G04 #@! TO.N,N/C*
X62230000Y-31115000D03*
G04 #@! TO.P,U1,7*
G04 #@! TO.N,GND*
X54610000Y-43815000D03*
G04 #@! TO.P,U1,14*
G04 #@! TO.N,+5V*
X62230000Y-28575000D03*
G04 #@! TD*
G04 #@! TO.P,U3,16*
G04 #@! TO.N,+5V*
X90170000Y-48895000D03*
G04 #@! TO.P,U3,8*
G04 #@! TO.N,GND*
X82550000Y-66675000D03*
G04 #@! TO.P,U3,15*
X90170000Y-51435000D03*
G04 #@! TO.P,U3,7*
G04 #@! TO.N,Net-(BAR1-Pad2)*
X82550000Y-64135000D03*
G04 #@! TO.P,U3,14*
G04 #@! TO.N,Net-(U2-Pad13)*
X90170000Y-53975000D03*
G04 #@! TO.P,U3,6*
G04 #@! TO.N,Net-(BAR1-Pad3)*
X82550000Y-61595000D03*
G04 #@! TO.P,U3,13*
G04 #@! TO.N,Net-(U3-Pad13)*
X90170000Y-56515000D03*
G04 #@! TO.P,U3,5*
G04 #@! TO.N,DOWN_~UP*
X82550000Y-59055000D03*
G04 #@! TO.P,U3,12*
G04 #@! TO.N,Net-(U3-Pad12)*
X90170000Y-59055000D03*
G04 #@! TO.P,U3,4*
G04 #@! TO.N,~CLK_EN*
X82550000Y-56515000D03*
G04 #@! TO.P,U3,11*
G04 #@! TO.N,~STK_RESET*
X90170000Y-61595000D03*
G04 #@! TO.P,U3,3*
G04 #@! TO.N,Net-(BAR1-Pad5)*
X82550000Y-53975000D03*
G04 #@! TO.P,U3,10*
G04 #@! TO.N,GND*
X90170000Y-64135000D03*
G04 #@! TO.P,U3,2*
G04 #@! TO.N,Net-(BAR1-Pad4)*
X82550000Y-51435000D03*
G04 #@! TO.P,U3,9*
G04 #@! TO.N,GND*
X90170000Y-66675000D03*
D14*
G04 #@! TO.P,U3,1*
X82550000Y-48895000D03*
G04 #@! TD*
G04 #@! TO.P,U2,1*
G04 #@! TO.N,GND*
X66675000Y-48895000D03*
D15*
G04 #@! TO.P,U2,9*
X74295000Y-66675000D03*
G04 #@! TO.P,U2,2*
G04 #@! TO.N,Net-(BAR1-Pad8)*
X66675000Y-51435000D03*
G04 #@! TO.P,U2,10*
G04 #@! TO.N,GND*
X74295000Y-64135000D03*
G04 #@! TO.P,U2,3*
G04 #@! TO.N,Net-(BAR1-Pad9)*
X66675000Y-53975000D03*
G04 #@! TO.P,U2,11*
G04 #@! TO.N,~STK_RESET*
X74295000Y-61595000D03*
G04 #@! TO.P,U2,4*
G04 #@! TO.N,~CLK_EN*
X66675000Y-56515000D03*
G04 #@! TO.P,U2,12*
G04 #@! TO.N,Net-(U2-Pad12)*
X74295000Y-59055000D03*
G04 #@! TO.P,U2,5*
G04 #@! TO.N,DOWN_~UP*
X66675000Y-59055000D03*
G04 #@! TO.P,U2,13*
G04 #@! TO.N,Net-(U2-Pad13)*
X74295000Y-56515000D03*
G04 #@! TO.P,U2,6*
G04 #@! TO.N,Net-(BAR1-Pad7)*
X66675000Y-61595000D03*
G04 #@! TO.P,U2,14*
G04 #@! TO.N,CLOCK*
X74295000Y-53975000D03*
G04 #@! TO.P,U2,7*
G04 #@! TO.N,Net-(BAR1-Pad6)*
X66675000Y-64135000D03*
G04 #@! TO.P,U2,15*
G04 #@! TO.N,GND*
X74295000Y-51435000D03*
G04 #@! TO.P,U2,8*
X66675000Y-66675000D03*
G04 #@! TO.P,U2,16*
G04 #@! TO.N,+5V*
X74295000Y-48895000D03*
G04 #@! TD*
D14*
G04 #@! TO.P,RN1,1*
G04 #@! TO.N,GND*
X90170000Y-28575000D03*
D15*
G04 #@! TO.P,RN1,2*
G04 #@! TO.N,Net-(BAR1-Pad12)*
X87630000Y-28575000D03*
G04 #@! TO.P,RN1,3*
G04 #@! TO.N,Net-(BAR1-Pad13)*
X85090000Y-28575000D03*
G04 #@! TO.P,RN1,4*
G04 #@! TO.N,Net-(BAR1-Pad14)*
X82550000Y-28575000D03*
G04 #@! TO.P,RN1,5*
G04 #@! TO.N,Net-(BAR1-Pad15)*
X80010000Y-28575000D03*
G04 #@! TO.P,RN1,6*
G04 #@! TO.N,Net-(BAR1-Pad16)*
X77470000Y-28575000D03*
G04 #@! TO.P,RN1,7*
G04 #@! TO.N,Net-(BAR1-Pad17)*
X74930000Y-28575000D03*
G04 #@! TO.P,RN1,8*
G04 #@! TO.N,Net-(BAR1-Pad18)*
X72390000Y-28575000D03*
G04 #@! TO.P,RN1,9*
G04 #@! TO.N,Net-(BAR1-Pad19)*
X69850000Y-28575000D03*
G04 #@! TD*
D16*
G04 #@! TO.N,GND*
X54864000Y-47879000D03*
X51943000Y-47879000D03*
X92456000Y-47625000D03*
X88392000Y-43561000D03*
X92329000Y-51308000D03*
X93218000Y-54991000D03*
G04 #@! TD*
D17*
G04 #@! TO.N,GND*
X51943000Y-47879000D02*
X54864000Y-47879000D01*
X92456000Y-47625000D02*
X88392000Y-43561000D01*
X88392000Y-43561000D02*
X88392000Y-43561000D01*
X92329000Y-54102000D02*
X93218000Y-54991000D01*
X92329000Y-51308000D02*
X92329000Y-54102000D01*
D18*
G04 #@! TO.N,Net-(BAR1-Pad8)*
X66675000Y-51435000D02*
X69364100Y-51435000D01*
X69364100Y-51435000D02*
X78740100Y-42059000D01*
X78740100Y-42059000D02*
X83036000Y-42059000D01*
X83036000Y-42059000D02*
X85090000Y-40005000D01*
G04 #@! TO.N,Net-(BAR1-Pad9)*
X81382600Y-46252400D02*
X87630000Y-40005000D01*
X75287200Y-46252400D02*
X81382600Y-46252400D01*
X68364599Y-53175001D02*
X75287200Y-46252400D01*
X67474999Y-53175001D02*
X68364599Y-53175001D01*
X66675000Y-53975000D02*
X67474999Y-53175001D01*
G04 #@! TO.N,~STK_RESET*
X90170000Y-61595000D02*
X89044700Y-61595000D01*
X74295000Y-61595000D02*
X75420300Y-61595000D01*
X75420300Y-61595000D02*
X76545600Y-62720300D01*
X76545600Y-62720300D02*
X87919400Y-62720300D01*
X87919400Y-62720300D02*
X89044700Y-61595000D01*
G04 #@! TO.N,~CLK_EN*
X82550000Y-56515000D02*
X81424700Y-56515000D01*
X66675000Y-56515000D02*
X67800300Y-56515000D01*
X67800300Y-56515000D02*
X68925600Y-57640300D01*
X68925600Y-57640300D02*
X80299400Y-57640300D01*
X80299400Y-57640300D02*
X81424700Y-56515000D01*
G04 #@! TO.N,DOWN_~UP*
X82550000Y-59055000D02*
X81424700Y-59055000D01*
X66675000Y-59055000D02*
X67800300Y-59055000D01*
X67800300Y-59055000D02*
X68925600Y-60180300D01*
X68925600Y-60180300D02*
X80299400Y-60180300D01*
X80299400Y-60180300D02*
X81424700Y-59055000D01*
X53484700Y-37609700D02*
X54610000Y-38735000D01*
X53484700Y-29319300D02*
X53484700Y-37609700D01*
X54229000Y-28575000D02*
X53484700Y-29319300D01*
X54610000Y-28575000D02*
X54229000Y-28575000D01*
G04 #@! TO.N,Net-(U2-Pad13)*
X90170000Y-53975000D02*
X89044700Y-53975000D01*
X74295000Y-56515000D02*
X75420300Y-56515000D01*
X75420300Y-56515000D02*
X76835000Y-55100300D01*
X76835000Y-55100300D02*
X87919400Y-55100300D01*
X87919400Y-55100300D02*
X89044700Y-53975000D01*
G04 #@! TO.N,Net-(BAR1-Pad7)*
X65542500Y-50924600D02*
X66446700Y-50020400D01*
X66446700Y-50020400D02*
X69994600Y-50020400D01*
X69994600Y-50020400D02*
X78406400Y-41608600D01*
X78406400Y-41608600D02*
X80946400Y-41608600D01*
X80946400Y-41608600D02*
X82550000Y-40005000D01*
X65549999Y-57538499D02*
X65542500Y-57531000D01*
X65549999Y-60469999D02*
X65549999Y-57538499D01*
X66675000Y-61595000D02*
X65549999Y-60469999D01*
X65542500Y-57531000D02*
X65542500Y-50924600D01*
G04 #@! TO.N,Net-(BAR1-Pad6)*
X80010000Y-40005000D02*
X83693000Y-36322000D01*
X83693000Y-36322000D02*
X96139000Y-36322000D01*
X79367100Y-40005000D02*
X80010000Y-40005000D01*
X66675000Y-64135000D02*
X65082700Y-62542700D01*
X72107100Y-41380500D02*
X77991600Y-41380500D01*
X65082700Y-48404900D02*
X72107100Y-41380500D01*
X65082700Y-62542700D02*
X65082700Y-48404900D01*
X77991600Y-41380500D02*
X79367100Y-40005000D01*
D17*
G04 #@! TO.N,+5V*
X90170000Y-48895000D02*
X88994700Y-48895000D01*
X74295000Y-48895000D02*
X75470300Y-48895000D01*
X75470300Y-48895000D02*
X76645700Y-50070400D01*
X76645700Y-50070400D02*
X87819300Y-50070400D01*
X87819300Y-50070400D02*
X88994700Y-48895000D01*
X62230000Y-28575000D02*
X63881000Y-30226000D01*
X63881000Y-47244000D02*
X54610000Y-56515000D01*
X63881000Y-30226000D02*
X63881000Y-47244000D01*
X90297000Y-49022000D02*
X90170000Y-48895000D01*
X96139000Y-49022000D02*
X90297000Y-49022000D01*
D18*
G04 #@! TO.N,STK_INC*
X53434700Y-52610300D02*
X62230000Y-43815000D01*
X53434700Y-60419700D02*
X53434700Y-52610300D01*
X54610000Y-61595000D02*
X53434700Y-60419700D01*
G04 #@! TO.N,STK_DEC*
X54610000Y-41275000D02*
X62230000Y-41275000D01*
G04 #@! TD*
M02*
