G04 #@! TF.GenerationSoftware,KiCad,Pcbnew,5.0.2+dfsg1-1*
G04 #@! TF.CreationDate,2019-08-03T19:47:52+02:00*
G04 #@! TF.ProjectId,Stack-Pointer,53746163-6b2d-4506-9f69-6e7465722e6b,rev?*
G04 #@! TF.SameCoordinates,Original*
G04 #@! TF.FileFunction,Copper,L2,Bot*
G04 #@! TF.FilePolarity,Positive*
%FSLAX46Y46*%
G04 Gerber Fmt 4.6, Leading zero omitted, Abs format (unit mm)*
G04 Created by KiCad (PCBNEW 5.0.2+dfsg1-1) date za 03 aug 2019 19:47:52 CEST*
%MOMM*%
%LPD*%
G01*
G04 APERTURE LIST*
G04 #@! TA.AperFunction,ComponentPad*
%ADD10R,1.700000X1.700000*%
G04 #@! TD*
G04 #@! TA.AperFunction,ComponentPad*
%ADD11O,1.700000X1.700000*%
G04 #@! TD*
G04 #@! TA.AperFunction,ComponentPad*
%ADD12O,1.600000X1.600000*%
G04 #@! TD*
G04 #@! TA.AperFunction,ComponentPad*
%ADD13R,1.600000X1.600000*%
G04 #@! TD*
G04 #@! TA.AperFunction,ComponentPad*
%ADD14R,2.032000X2.032000*%
G04 #@! TD*
G04 #@! TA.AperFunction,ComponentPad*
%ADD15C,2.032000*%
G04 #@! TD*
G04 #@! TA.AperFunction,Conductor*
%ADD16C,0.350000*%
G04 #@! TD*
G04 #@! TA.AperFunction,Conductor*
%ADD17C,0.250000*%
G04 #@! TD*
G04 #@! TA.AperFunction,Conductor*
%ADD18C,0.254000*%
G04 #@! TD*
G04 APERTURE END LIST*
D10*
G04 #@! TO.P,J1,1*
G04 #@! TO.N,GND*
X54610000Y-51435000D03*
D11*
G04 #@! TO.P,J1,2*
G04 #@! TO.N,+5V*
X54610000Y-53975000D03*
G04 #@! TO.P,J1,3*
G04 #@! TO.N,CLOCK*
X54610000Y-56515000D03*
G04 #@! TO.P,J1,4*
G04 #@! TO.N,STK_INC*
X54610000Y-59055000D03*
G04 #@! TO.P,J1,5*
G04 #@! TO.N,STK_DEC*
X54610000Y-61595000D03*
G04 #@! TO.P,J1,6*
G04 #@! TO.N,~STK_RESET*
X54610000Y-64135000D03*
G04 #@! TO.P,J1,7*
G04 #@! TO.N,~STK_OUT*
X54610000Y-66675000D03*
G04 #@! TD*
D12*
G04 #@! TO.P,U5,20*
G04 #@! TO.N,+5V*
X117475000Y-28575000D03*
G04 #@! TO.P,U5,10*
G04 #@! TO.N,GND*
X109855000Y-51435000D03*
G04 #@! TO.P,U5,19*
G04 #@! TO.N,~STK_OUT*
X117475000Y-31115000D03*
G04 #@! TO.P,U5,9*
G04 #@! TO.N,+5V*
X109855000Y-48895000D03*
G04 #@! TO.P,U5,18*
G04 #@! TO.N,Net-(J2-Pad9)*
X117475000Y-33655000D03*
G04 #@! TO.P,U5,8*
G04 #@! TO.N,+5V*
X109855000Y-46355000D03*
G04 #@! TO.P,U5,17*
G04 #@! TO.N,Net-(J2-Pad10)*
X117475000Y-36195000D03*
G04 #@! TO.P,U5,7*
G04 #@! TO.N,+5V*
X109855000Y-43815000D03*
G04 #@! TO.P,U5,16*
G04 #@! TO.N,Net-(J2-Pad11)*
X117475000Y-38735000D03*
G04 #@! TO.P,U5,6*
G04 #@! TO.N,+5V*
X109855000Y-41275000D03*
G04 #@! TO.P,U5,15*
G04 #@! TO.N,Net-(J2-Pad12)*
X117475000Y-41275000D03*
G04 #@! TO.P,U5,5*
G04 #@! TO.N,+5V*
X109855000Y-38735000D03*
G04 #@! TO.P,U5,14*
G04 #@! TO.N,Net-(J2-Pad13)*
X117475000Y-43815000D03*
G04 #@! TO.P,U5,4*
G04 #@! TO.N,+5V*
X109855000Y-36195000D03*
G04 #@! TO.P,U5,13*
G04 #@! TO.N,Net-(J2-Pad14)*
X117475000Y-46355000D03*
G04 #@! TO.P,U5,3*
G04 #@! TO.N,+5V*
X109855000Y-33655000D03*
G04 #@! TO.P,U5,12*
G04 #@! TO.N,Net-(J2-Pad15)*
X117475000Y-48895000D03*
G04 #@! TO.P,U5,2*
G04 #@! TO.N,+5V*
X109855000Y-31115000D03*
G04 #@! TO.P,U5,11*
G04 #@! TO.N,Net-(J2-Pad16)*
X117475000Y-51435000D03*
D13*
G04 #@! TO.P,U5,1*
G04 #@! TO.N,+5V*
X109855000Y-28575000D03*
G04 #@! TD*
G04 #@! TO.P,U4,1*
G04 #@! TO.N,+5V*
X95885000Y-28575000D03*
D12*
G04 #@! TO.P,U4,11*
G04 #@! TO.N,Net-(J2-Pad8)*
X103505000Y-51435000D03*
G04 #@! TO.P,U4,2*
G04 #@! TO.N,Net-(BAR1-Pad9)*
X95885000Y-31115000D03*
G04 #@! TO.P,U4,12*
G04 #@! TO.N,Net-(J2-Pad7)*
X103505000Y-48895000D03*
G04 #@! TO.P,U4,3*
G04 #@! TO.N,Net-(BAR1-Pad8)*
X95885000Y-33655000D03*
G04 #@! TO.P,U4,13*
G04 #@! TO.N,Net-(J2-Pad6)*
X103505000Y-46355000D03*
G04 #@! TO.P,U4,4*
G04 #@! TO.N,Net-(BAR1-Pad7)*
X95885000Y-36195000D03*
G04 #@! TO.P,U4,14*
G04 #@! TO.N,Net-(J2-Pad5)*
X103505000Y-43815000D03*
G04 #@! TO.P,U4,5*
G04 #@! TO.N,Net-(BAR1-Pad6)*
X95885000Y-38735000D03*
G04 #@! TO.P,U4,15*
G04 #@! TO.N,Net-(J2-Pad4)*
X103505000Y-41275000D03*
G04 #@! TO.P,U4,6*
G04 #@! TO.N,Net-(BAR1-Pad5)*
X95885000Y-41275000D03*
G04 #@! TO.P,U4,16*
G04 #@! TO.N,Net-(J2-Pad3)*
X103505000Y-38735000D03*
G04 #@! TO.P,U4,7*
G04 #@! TO.N,Net-(BAR1-Pad4)*
X95885000Y-43815000D03*
G04 #@! TO.P,U4,17*
G04 #@! TO.N,Net-(J2-Pad2)*
X103505000Y-36195000D03*
G04 #@! TO.P,U4,8*
G04 #@! TO.N,Net-(BAR1-Pad3)*
X95885000Y-46355000D03*
G04 #@! TO.P,U4,18*
G04 #@! TO.N,Net-(J2-Pad1)*
X103505000Y-33655000D03*
G04 #@! TO.P,U4,9*
G04 #@! TO.N,Net-(BAR1-Pad2)*
X95885000Y-48895000D03*
G04 #@! TO.P,U4,19*
G04 #@! TO.N,~STK_OUT*
X103505000Y-31115000D03*
G04 #@! TO.P,U4,10*
G04 #@! TO.N,GND*
X95885000Y-51435000D03*
G04 #@! TO.P,U4,20*
G04 #@! TO.N,+5V*
X103505000Y-28575000D03*
G04 #@! TD*
D10*
G04 #@! TO.P,J2,1*
G04 #@! TO.N,Net-(J2-Pad1)*
X123190000Y-28575000D03*
D11*
G04 #@! TO.P,J2,2*
G04 #@! TO.N,Net-(J2-Pad2)*
X123190000Y-31115000D03*
G04 #@! TO.P,J2,3*
G04 #@! TO.N,Net-(J2-Pad3)*
X123190000Y-33655000D03*
G04 #@! TO.P,J2,4*
G04 #@! TO.N,Net-(J2-Pad4)*
X123190000Y-36195000D03*
G04 #@! TO.P,J2,5*
G04 #@! TO.N,Net-(J2-Pad5)*
X123190000Y-38735000D03*
G04 #@! TO.P,J2,6*
G04 #@! TO.N,Net-(J2-Pad6)*
X123190000Y-41275000D03*
G04 #@! TO.P,J2,7*
G04 #@! TO.N,Net-(J2-Pad7)*
X123190000Y-43815000D03*
G04 #@! TO.P,J2,8*
G04 #@! TO.N,Net-(J2-Pad8)*
X123190000Y-46355000D03*
G04 #@! TO.P,J2,9*
G04 #@! TO.N,Net-(J2-Pad9)*
X123190000Y-48895000D03*
G04 #@! TO.P,J2,10*
G04 #@! TO.N,Net-(J2-Pad10)*
X123190000Y-51435000D03*
G04 #@! TO.P,J2,11*
G04 #@! TO.N,Net-(J2-Pad11)*
X123190000Y-53975000D03*
G04 #@! TO.P,J2,12*
G04 #@! TO.N,Net-(J2-Pad12)*
X123190000Y-56515000D03*
G04 #@! TO.P,J2,13*
G04 #@! TO.N,Net-(J2-Pad13)*
X123190000Y-59055000D03*
G04 #@! TO.P,J2,14*
G04 #@! TO.N,Net-(J2-Pad14)*
X123190000Y-61595000D03*
G04 #@! TO.P,J2,15*
G04 #@! TO.N,Net-(J2-Pad15)*
X123190000Y-64135000D03*
G04 #@! TO.P,J2,16*
G04 #@! TO.N,Net-(J2-Pad16)*
X123190000Y-66675000D03*
G04 #@! TD*
D14*
G04 #@! TO.P,BAR1,1*
G04 #@! TO.N,Net-(BAR1-Pad1)*
X66675000Y-40005000D03*
D15*
G04 #@! TO.P,BAR1,2*
G04 #@! TO.N,Net-(BAR1-Pad2)*
X69215000Y-40005000D03*
G04 #@! TO.P,BAR1,3*
G04 #@! TO.N,Net-(BAR1-Pad3)*
X71755000Y-40005000D03*
G04 #@! TO.P,BAR1,4*
G04 #@! TO.N,Net-(BAR1-Pad4)*
X74295000Y-40005000D03*
G04 #@! TO.P,BAR1,13*
G04 #@! TO.N,Net-(BAR1-Pad13)*
X84455000Y-32385000D03*
G04 #@! TO.P,BAR1,14*
G04 #@! TO.N,Net-(BAR1-Pad14)*
X81915000Y-32385000D03*
G04 #@! TO.P,BAR1,15*
G04 #@! TO.N,Net-(BAR1-Pad15)*
X79375000Y-32385000D03*
G04 #@! TO.P,BAR1,16*
G04 #@! TO.N,Net-(BAR1-Pad16)*
X76835000Y-32385000D03*
G04 #@! TO.P,BAR1,5*
G04 #@! TO.N,Net-(BAR1-Pad5)*
X76835000Y-40005000D03*
G04 #@! TO.P,BAR1,6*
G04 #@! TO.N,Net-(BAR1-Pad6)*
X79375000Y-40005000D03*
G04 #@! TO.P,BAR1,7*
G04 #@! TO.N,Net-(BAR1-Pad7)*
X81915000Y-40005000D03*
G04 #@! TO.P,BAR1,8*
G04 #@! TO.N,Net-(BAR1-Pad8)*
X84455000Y-40005000D03*
G04 #@! TO.P,BAR1,12*
G04 #@! TO.N,Net-(BAR1-Pad12)*
X86995000Y-32385000D03*
G04 #@! TO.P,BAR1,11*
G04 #@! TO.N,Net-(BAR1-Pad11)*
X89535000Y-32385000D03*
G04 #@! TO.P,BAR1,10*
G04 #@! TO.N,Net-(BAR1-Pad10)*
X89535000Y-40005000D03*
G04 #@! TO.P,BAR1,9*
G04 #@! TO.N,Net-(BAR1-Pad9)*
X86995000Y-40005000D03*
G04 #@! TO.P,BAR1,17*
G04 #@! TO.N,Net-(BAR1-Pad17)*
X74295000Y-32385000D03*
G04 #@! TO.P,BAR1,18*
G04 #@! TO.N,Net-(BAR1-Pad18)*
X71755000Y-32385000D03*
G04 #@! TO.P,BAR1,19*
G04 #@! TO.N,Net-(BAR1-Pad19)*
X69215000Y-32385000D03*
G04 #@! TO.P,BAR1,20*
G04 #@! TO.N,Net-(BAR1-Pad20)*
X66675000Y-32385000D03*
G04 #@! TD*
D13*
G04 #@! TO.P,U1,1*
G04 #@! TO.N,DOWN_~UP*
X54610000Y-28575000D03*
D12*
G04 #@! TO.P,U1,8*
G04 #@! TO.N,STK_INC*
X62230000Y-43815000D03*
G04 #@! TO.P,U1,2*
X54610000Y-31115000D03*
G04 #@! TO.P,U1,9*
G04 #@! TO.N,STK_DEC*
X62230000Y-41275000D03*
G04 #@! TO.P,U1,3*
G04 #@! TO.N,Net-(U1-Pad3)*
X54610000Y-33655000D03*
G04 #@! TO.P,U1,10*
G04 #@! TO.N,~CLK_EN*
X62230000Y-38735000D03*
G04 #@! TO.P,U1,4*
G04 #@! TO.N,Net-(U1-Pad3)*
X54610000Y-36195000D03*
G04 #@! TO.P,U1,11*
G04 #@! TO.N,N/C*
X62230000Y-36195000D03*
G04 #@! TO.P,U1,5*
G04 #@! TO.N,DOWN_~UP*
X54610000Y-38735000D03*
G04 #@! TO.P,U1,12*
G04 #@! TO.N,N/C*
X62230000Y-33655000D03*
G04 #@! TO.P,U1,6*
G04 #@! TO.N,STK_DEC*
X54610000Y-41275000D03*
G04 #@! TO.P,U1,13*
G04 #@! TO.N,N/C*
X62230000Y-31115000D03*
G04 #@! TO.P,U1,7*
G04 #@! TO.N,GND*
X54610000Y-43815000D03*
G04 #@! TO.P,U1,14*
G04 #@! TO.N,+5V*
X62230000Y-28575000D03*
G04 #@! TD*
G04 #@! TO.P,U3,16*
G04 #@! TO.N,+5V*
X88900000Y-48895000D03*
G04 #@! TO.P,U3,8*
G04 #@! TO.N,GND*
X81280000Y-66675000D03*
G04 #@! TO.P,U3,15*
X88900000Y-51435000D03*
G04 #@! TO.P,U3,7*
G04 #@! TO.N,Net-(BAR1-Pad2)*
X81280000Y-64135000D03*
G04 #@! TO.P,U3,14*
G04 #@! TO.N,Net-(U2-Pad13)*
X88900000Y-53975000D03*
G04 #@! TO.P,U3,6*
G04 #@! TO.N,Net-(BAR1-Pad3)*
X81280000Y-61595000D03*
G04 #@! TO.P,U3,13*
G04 #@! TO.N,Net-(U3-Pad13)*
X88900000Y-56515000D03*
G04 #@! TO.P,U3,5*
G04 #@! TO.N,DOWN_~UP*
X81280000Y-59055000D03*
G04 #@! TO.P,U3,12*
G04 #@! TO.N,Net-(U3-Pad12)*
X88900000Y-59055000D03*
G04 #@! TO.P,U3,4*
G04 #@! TO.N,~CLK_EN*
X81280000Y-56515000D03*
G04 #@! TO.P,U3,11*
G04 #@! TO.N,~STK_RESET*
X88900000Y-61595000D03*
G04 #@! TO.P,U3,3*
G04 #@! TO.N,Net-(BAR1-Pad5)*
X81280000Y-53975000D03*
G04 #@! TO.P,U3,10*
G04 #@! TO.N,GND*
X88900000Y-64135000D03*
G04 #@! TO.P,U3,2*
G04 #@! TO.N,Net-(BAR1-Pad4)*
X81280000Y-51435000D03*
G04 #@! TO.P,U3,9*
G04 #@! TO.N,GND*
X88900000Y-66675000D03*
D13*
G04 #@! TO.P,U3,1*
X81280000Y-48895000D03*
G04 #@! TD*
G04 #@! TO.P,U2,1*
G04 #@! TO.N,GND*
X66675000Y-48895000D03*
D12*
G04 #@! TO.P,U2,9*
X74295000Y-66675000D03*
G04 #@! TO.P,U2,2*
G04 #@! TO.N,Net-(BAR1-Pad8)*
X66675000Y-51435000D03*
G04 #@! TO.P,U2,10*
G04 #@! TO.N,GND*
X74295000Y-64135000D03*
G04 #@! TO.P,U2,3*
G04 #@! TO.N,Net-(BAR1-Pad9)*
X66675000Y-53975000D03*
G04 #@! TO.P,U2,11*
G04 #@! TO.N,~STK_RESET*
X74295000Y-61595000D03*
G04 #@! TO.P,U2,4*
G04 #@! TO.N,~CLK_EN*
X66675000Y-56515000D03*
G04 #@! TO.P,U2,12*
G04 #@! TO.N,Net-(U2-Pad12)*
X74295000Y-59055000D03*
G04 #@! TO.P,U2,5*
G04 #@! TO.N,DOWN_~UP*
X66675000Y-59055000D03*
G04 #@! TO.P,U2,13*
G04 #@! TO.N,Net-(U2-Pad13)*
X74295000Y-56515000D03*
G04 #@! TO.P,U2,6*
G04 #@! TO.N,Net-(BAR1-Pad7)*
X66675000Y-61595000D03*
G04 #@! TO.P,U2,14*
G04 #@! TO.N,CLOCK*
X74295000Y-53975000D03*
G04 #@! TO.P,U2,7*
G04 #@! TO.N,Net-(BAR1-Pad6)*
X66675000Y-64135000D03*
G04 #@! TO.P,U2,15*
G04 #@! TO.N,GND*
X74295000Y-51435000D03*
G04 #@! TO.P,U2,8*
X66675000Y-66675000D03*
G04 #@! TO.P,U2,16*
G04 #@! TO.N,+5V*
X74295000Y-48895000D03*
G04 #@! TD*
D13*
G04 #@! TO.P,RN1,1*
G04 #@! TO.N,GND*
X89535000Y-28575000D03*
D12*
G04 #@! TO.P,RN1,2*
G04 #@! TO.N,Net-(BAR1-Pad12)*
X86995000Y-28575000D03*
G04 #@! TO.P,RN1,3*
G04 #@! TO.N,Net-(BAR1-Pad13)*
X84455000Y-28575000D03*
G04 #@! TO.P,RN1,4*
G04 #@! TO.N,Net-(BAR1-Pad14)*
X81915000Y-28575000D03*
G04 #@! TO.P,RN1,5*
G04 #@! TO.N,Net-(BAR1-Pad15)*
X79375000Y-28575000D03*
G04 #@! TO.P,RN1,6*
G04 #@! TO.N,Net-(BAR1-Pad16)*
X76835000Y-28575000D03*
G04 #@! TO.P,RN1,7*
G04 #@! TO.N,Net-(BAR1-Pad17)*
X74295000Y-28575000D03*
G04 #@! TO.P,RN1,8*
G04 #@! TO.N,Net-(BAR1-Pad18)*
X71755000Y-28575000D03*
G04 #@! TO.P,RN1,9*
G04 #@! TO.N,Net-(BAR1-Pad19)*
X69215000Y-28575000D03*
G04 #@! TD*
D16*
G04 #@! TO.N,GND*
X88900000Y-51435000D02*
X87724700Y-51435000D01*
X87724700Y-51435000D02*
X85184700Y-48895000D01*
X85184700Y-48895000D02*
X81280000Y-48895000D01*
X88900000Y-66675000D02*
X88900000Y-64135000D01*
X90710300Y-28575000D02*
X89535000Y-28575000D01*
X95885000Y-51435000D02*
X97060400Y-50259600D01*
X97060400Y-50259600D02*
X97060400Y-30544100D01*
X97060400Y-30544100D02*
X96266600Y-29750300D01*
X96266600Y-29750300D02*
X91885600Y-29750300D01*
X91885600Y-29750300D02*
X90710300Y-28575000D01*
D17*
G04 #@! TO.N,Net-(BAR1-Pad12)*
X86995000Y-28575000D02*
X86995000Y-32385000D01*
G04 #@! TO.N,Net-(BAR1-Pad13)*
X84455000Y-28575000D02*
X84455000Y-32385000D01*
G04 #@! TO.N,Net-(BAR1-Pad14)*
X81915000Y-28575000D02*
X81915000Y-32385000D01*
G04 #@! TO.N,Net-(BAR1-Pad15)*
X79375000Y-28575000D02*
X79375000Y-32385000D01*
G04 #@! TO.N,Net-(BAR1-Pad16)*
X76835000Y-28575000D02*
X76835000Y-32385000D01*
G04 #@! TO.N,Net-(BAR1-Pad17)*
X74295000Y-28575000D02*
X74295000Y-32385000D01*
G04 #@! TO.N,Net-(BAR1-Pad18)*
X71755000Y-28575000D02*
X71755000Y-32385000D01*
G04 #@! TO.N,Net-(BAR1-Pad19)*
X69215000Y-28575000D02*
X69215000Y-32385000D01*
G04 #@! TO.N,Net-(BAR1-Pad8)*
X85828900Y-41378900D02*
X84455000Y-40005000D01*
X90079400Y-41378900D02*
X85828900Y-41378900D01*
X94361000Y-37097300D02*
X90079400Y-41378900D01*
X94361000Y-35179000D02*
X94361000Y-37097300D01*
X95885000Y-33655000D02*
X94361000Y-35179000D01*
X83112800Y-38662800D02*
X84455000Y-40005000D01*
X65312400Y-38867500D02*
X65517100Y-38662800D01*
X65312400Y-50072400D02*
X65312400Y-38867500D01*
X65517100Y-38662800D02*
X83112800Y-38662800D01*
X66675000Y-51435000D02*
X65312400Y-50072400D01*
G04 #@! TO.N,Net-(BAR1-Pad9)*
X95085001Y-31914999D02*
X86995000Y-40005000D01*
X95885000Y-31115000D02*
X95085001Y-31914999D01*
X85174200Y-38184200D02*
X86995000Y-40005000D01*
X65343800Y-38184200D02*
X85174200Y-38184200D01*
X64853200Y-52153200D02*
X64853200Y-38674800D01*
X64853200Y-38674800D02*
X65343800Y-38184200D01*
X66675000Y-53975000D02*
X64853200Y-52153200D01*
G04 #@! TO.N,~CLK_EN*
X63542000Y-40047000D02*
X62230000Y-38735000D01*
X63542000Y-53382000D02*
X63542000Y-40047000D01*
X66675000Y-56515000D02*
X63542000Y-53382000D01*
G04 #@! TO.N,DOWN_~UP*
X55735300Y-39860300D02*
X54610000Y-38735000D01*
X55735300Y-48115300D02*
X55735300Y-39860300D01*
X66675000Y-59055000D02*
X55735300Y-48115300D01*
G04 #@! TO.N,Net-(U2-Pad13)*
X88900000Y-53975000D02*
X87774700Y-53975000D01*
X74295000Y-56515000D02*
X75420300Y-56515000D01*
X75420300Y-56515000D02*
X76835000Y-55100300D01*
X76835000Y-55100300D02*
X86649400Y-55100300D01*
X86649400Y-55100300D02*
X87774700Y-53975000D01*
G04 #@! TO.N,Net-(BAR1-Pad7)*
X81915000Y-41830700D02*
X81915000Y-40005000D01*
X66675000Y-61595000D02*
X65510200Y-62759800D01*
X65510200Y-62759800D02*
X65510200Y-64618600D01*
X65510200Y-64618600D02*
X66212100Y-65320500D01*
X66212100Y-65320500D02*
X67104700Y-65320500D01*
X67104700Y-65320500D02*
X72026000Y-60399200D01*
X72026000Y-60399200D02*
X72026000Y-54616900D01*
X72026000Y-54616900D02*
X73937900Y-52705000D01*
X73937900Y-52705000D02*
X74654400Y-52705000D01*
X74654400Y-52705000D02*
X81915000Y-45444400D01*
X81915000Y-45444400D02*
X81915000Y-41830700D01*
X90341800Y-41830700D02*
X81915000Y-41830700D01*
X95085001Y-37087499D02*
X90341800Y-41830700D01*
X95085001Y-36994999D02*
X95085001Y-37087499D01*
X95885000Y-36195000D02*
X95085001Y-36994999D01*
G04 #@! TO.N,Net-(BAR1-Pad6)*
X67800300Y-51579700D02*
X79375000Y-40005000D01*
X67800300Y-63009700D02*
X67800300Y-51579700D01*
X66675000Y-64135000D02*
X67800300Y-63009700D01*
D16*
G04 #@! TO.N,+5V*
X109855000Y-28575000D02*
X104680300Y-28575000D01*
X103505000Y-28575000D02*
X104680300Y-28575000D01*
X109855000Y-28575000D02*
X109855000Y-31115000D01*
X62230000Y-28575000D02*
X63405300Y-28575000D01*
X95885000Y-28575000D02*
X94709700Y-28575000D01*
X94709700Y-28575000D02*
X93499500Y-27364800D01*
X93499500Y-27364800D02*
X64615500Y-27364800D01*
X64615500Y-27364800D02*
X63405300Y-28575000D01*
X109855000Y-46355000D02*
X109855000Y-48895000D01*
X109855000Y-43815000D02*
X109855000Y-46355000D01*
X109855000Y-41275000D02*
X109855000Y-43815000D01*
X109855000Y-38735000D02*
X109855000Y-41275000D01*
X109855000Y-36195000D02*
X109855000Y-38735000D01*
X109855000Y-33655000D02*
X109855000Y-36195000D01*
X109855000Y-31115000D02*
X109855000Y-33655000D01*
D17*
G04 #@! TO.N,Net-(BAR1-Pad2)*
X94622500Y-50157500D02*
X95885000Y-48895000D01*
X94622500Y-52399200D02*
X94622500Y-50157500D01*
X87630000Y-57785000D02*
X89236700Y-57785000D01*
X89236700Y-57785000D02*
X94622500Y-52399200D01*
X81280000Y-64135000D02*
X87630000Y-57785000D01*
G04 #@! TO.N,Net-(BAR1-Pad3)*
X95885000Y-47486370D02*
X95885000Y-46355000D01*
X95735170Y-47636200D02*
X95885000Y-47486370D01*
X95504000Y-47636200D02*
X95735170Y-47636200D01*
X81280000Y-61595000D02*
X87485400Y-55389600D01*
X87485400Y-55389600D02*
X89077000Y-55389600D01*
X89077000Y-55389600D02*
X92252900Y-52213700D01*
X92252900Y-52213700D02*
X92252900Y-50887300D01*
X92252900Y-50887300D02*
X95504000Y-47636200D01*
G04 #@! TO.N,Net-(BAR1-Pad5)*
X94759700Y-41275000D02*
X95885000Y-41275000D01*
X81280000Y-53975000D02*
X80154600Y-52849600D01*
X80154600Y-47944100D02*
X85698400Y-42400300D01*
X80154600Y-52849600D02*
X80154600Y-47944100D01*
X93634400Y-42400300D02*
X94759700Y-41275000D01*
X85698400Y-42400300D02*
X93634400Y-42400300D01*
G04 #@! TO.N,Net-(BAR1-Pad4)*
X82405300Y-51435000D02*
X81280000Y-51435000D01*
X95885000Y-43815000D02*
X94759700Y-44940300D01*
X94759700Y-44940300D02*
X94759700Y-47176900D01*
X83554700Y-52584400D02*
X82405300Y-51435000D01*
X94759700Y-47176900D02*
X89352200Y-52584400D01*
X89352200Y-52584400D02*
X83554700Y-52584400D01*
G04 #@! TO.N,STK_INC*
X55741370Y-31115000D02*
X54610000Y-31115000D01*
X59436000Y-34809630D02*
X55741370Y-31115000D01*
X59436000Y-41021000D02*
X59436000Y-34809630D01*
X62230000Y-43815000D02*
X59436000Y-41021000D01*
G04 #@! TO.N,STK_DEC*
X53434700Y-42450300D02*
X54610000Y-41275000D01*
X53434700Y-60419700D02*
X53434700Y-42450300D01*
X54610000Y-61595000D02*
X53434700Y-60419700D01*
G04 #@! TO.N,Net-(U1-Pad3)*
X54610000Y-36195000D02*
X54610000Y-33655000D01*
G04 #@! TO.N,~STK_OUT*
X54610000Y-66675000D02*
X55785300Y-66675000D01*
X103505000Y-31115000D02*
X103505000Y-32240300D01*
X103505000Y-32240300D02*
X103223600Y-32240300D01*
X103223600Y-32240300D02*
X102379700Y-33084200D01*
X102379700Y-33084200D02*
X102379700Y-47196500D01*
X102379700Y-47196500D02*
X89251200Y-60325000D01*
X89251200Y-60325000D02*
X87258100Y-60325000D01*
X87258100Y-60325000D02*
X82065600Y-65517500D01*
X82065600Y-65517500D02*
X71048300Y-65517500D01*
X71048300Y-65517500D02*
X68764200Y-67801600D01*
X68764200Y-67801600D02*
X56911900Y-67801600D01*
X56911900Y-67801600D02*
X55785300Y-66675000D01*
G04 #@! TO.N,Net-(J2-Pad9)*
X123190000Y-48895000D02*
X122301000Y-48006000D01*
X121989010Y-38169010D02*
X118274999Y-34454999D01*
X121989010Y-47694010D02*
X121989010Y-38169010D01*
X118274999Y-34454999D02*
X117475000Y-33655000D01*
X123190000Y-48895000D02*
X121989010Y-47694010D01*
G04 #@! TO.N,Net-(J2-Pad10)*
X123190000Y-51435000D02*
X122340001Y-50585001D01*
X122340001Y-50585001D02*
X121793000Y-50038000D01*
X121793000Y-50038000D02*
X121539000Y-49784000D01*
X121412000Y-40132000D02*
X121158000Y-39878000D01*
X121793000Y-50038000D02*
X121412000Y-49657000D01*
X121412000Y-49657000D02*
X121412000Y-40132000D01*
X121285000Y-40005000D02*
X121158000Y-39878000D01*
X121158000Y-39878000D02*
X117475000Y-36195000D01*
G04 #@! TO.N,Net-(J2-Pad11)*
X123190000Y-53975000D02*
X121031000Y-51816000D01*
X120396000Y-41656000D02*
X117475000Y-38735000D01*
X123190000Y-53975000D02*
X120904000Y-51689000D01*
X120904000Y-51689000D02*
X120904000Y-51562000D01*
X120904000Y-42164000D02*
X120650000Y-41910000D01*
X120904000Y-42545000D02*
X120904000Y-42164000D01*
X120904000Y-42545000D02*
X120904000Y-42291000D01*
X120904000Y-51562000D02*
X120904000Y-42545000D01*
X120650000Y-41910000D02*
X120396000Y-41656000D01*
G04 #@! TO.N,Net-(J2-Pad12)*
X123190000Y-56515000D02*
X120396000Y-53721000D01*
X120396000Y-44196000D02*
X120142000Y-43942000D01*
X120396000Y-53721000D02*
X120396000Y-44196000D01*
X120142000Y-43942000D02*
X117475000Y-41275000D01*
G04 #@! TO.N,Net-(J2-Pad13)*
X119722200Y-46062200D02*
X117475000Y-43815000D01*
X119722200Y-55587200D02*
X119722200Y-53975000D01*
X123190000Y-59055000D02*
X119722200Y-55587200D01*
X119722200Y-54952200D02*
X119722200Y-53975000D01*
X119722200Y-53975000D02*
X119722200Y-46062200D01*
G04 #@! TO.N,Net-(J2-Pad14)*
X119170300Y-48050300D02*
X117475000Y-46355000D01*
X123190000Y-61595000D02*
X119170300Y-57575300D01*
X119170300Y-57575300D02*
X119170300Y-56515000D01*
X119170300Y-56940300D02*
X119170300Y-56515000D01*
X119170300Y-56515000D02*
X119170300Y-48050300D01*
G04 #@! TO.N,Net-(J2-Pad15)*
X118600300Y-50020300D02*
X117475000Y-48895000D01*
X118600300Y-59545300D02*
X118600300Y-58420000D01*
X123190000Y-64135000D02*
X118600300Y-59545300D01*
X118600300Y-58910300D02*
X118600300Y-58420000D01*
X118600300Y-58420000D02*
X118600300Y-50020300D01*
G04 #@! TO.N,Net-(J2-Pad16)*
X117475000Y-60325000D02*
X117475000Y-58801000D01*
X123190000Y-66675000D02*
X117475000Y-60960000D01*
X117475000Y-60960000D02*
X117475000Y-58166000D01*
X117475000Y-58801000D02*
X117475000Y-58166000D01*
X117475000Y-58166000D02*
X117475000Y-51435000D01*
G04 #@! TD*
D18*
G04 #@! TO.N,GND*
G36*
X128830001Y-72315000D02*
X48970000Y-72315000D01*
X48970000Y-42450300D01*
X52659812Y-42450300D01*
X52674701Y-42525152D01*
X52674700Y-60344853D01*
X52659812Y-60419700D01*
X52674700Y-60494547D01*
X52674700Y-60494551D01*
X52718796Y-60716236D01*
X52886771Y-60967629D01*
X52950230Y-61010031D01*
X53168791Y-61228592D01*
X53095908Y-61595000D01*
X53211161Y-62174418D01*
X53539375Y-62665625D01*
X53837761Y-62865000D01*
X53539375Y-63064375D01*
X53211161Y-63555582D01*
X53095908Y-64135000D01*
X53211161Y-64714418D01*
X53539375Y-65205625D01*
X53837761Y-65405000D01*
X53539375Y-65604375D01*
X53211161Y-66095582D01*
X53095908Y-66675000D01*
X53211161Y-67254418D01*
X53539375Y-67745625D01*
X54030582Y-68073839D01*
X54463744Y-68160000D01*
X54756256Y-68160000D01*
X55189418Y-68073839D01*
X55680625Y-67745625D01*
X55720879Y-67685381D01*
X56321571Y-68286073D01*
X56363971Y-68349529D01*
X56615363Y-68517504D01*
X56837048Y-68561600D01*
X56837053Y-68561600D01*
X56911900Y-68576488D01*
X56986747Y-68561600D01*
X68689353Y-68561600D01*
X68764200Y-68576488D01*
X68839047Y-68561600D01*
X68839052Y-68561600D01*
X69060737Y-68517504D01*
X69312129Y-68349529D01*
X69354531Y-68286070D01*
X70616562Y-67024039D01*
X72903096Y-67024039D01*
X73063959Y-67412423D01*
X73439866Y-67827389D01*
X73945959Y-68066914D01*
X74168000Y-67945629D01*
X74168000Y-66802000D01*
X74422000Y-66802000D01*
X74422000Y-67945629D01*
X74644041Y-68066914D01*
X75150134Y-67827389D01*
X75526041Y-67412423D01*
X75686904Y-67024039D01*
X79888096Y-67024039D01*
X80048959Y-67412423D01*
X80424866Y-67827389D01*
X80930959Y-68066914D01*
X81153000Y-67945629D01*
X81153000Y-66802000D01*
X81407000Y-66802000D01*
X81407000Y-67945629D01*
X81629041Y-68066914D01*
X82135134Y-67827389D01*
X82511041Y-67412423D01*
X82671904Y-67024039D01*
X87508096Y-67024039D01*
X87668959Y-67412423D01*
X88044866Y-67827389D01*
X88550959Y-68066914D01*
X88773000Y-67945629D01*
X88773000Y-66802000D01*
X89027000Y-66802000D01*
X89027000Y-67945629D01*
X89249041Y-68066914D01*
X89755134Y-67827389D01*
X90131041Y-67412423D01*
X90291904Y-67024039D01*
X90169915Y-66802000D01*
X89027000Y-66802000D01*
X88773000Y-66802000D01*
X87630085Y-66802000D01*
X87508096Y-67024039D01*
X82671904Y-67024039D01*
X82549915Y-66802000D01*
X81407000Y-66802000D01*
X81153000Y-66802000D01*
X80010085Y-66802000D01*
X79888096Y-67024039D01*
X75686904Y-67024039D01*
X75564915Y-66802000D01*
X74422000Y-66802000D01*
X74168000Y-66802000D01*
X73025085Y-66802000D01*
X72903096Y-67024039D01*
X70616562Y-67024039D01*
X71363102Y-66277500D01*
X72923168Y-66277500D01*
X72903096Y-66325961D01*
X73025085Y-66548000D01*
X74168000Y-66548000D01*
X74168000Y-66528000D01*
X74422000Y-66528000D01*
X74422000Y-66548000D01*
X75564915Y-66548000D01*
X75686904Y-66325961D01*
X75666832Y-66277500D01*
X79908168Y-66277500D01*
X79888096Y-66325961D01*
X80010085Y-66548000D01*
X81153000Y-66548000D01*
X81153000Y-66528000D01*
X81407000Y-66528000D01*
X81407000Y-66548000D01*
X82549915Y-66548000D01*
X82671904Y-66325961D01*
X82574732Y-66091352D01*
X82613529Y-66065429D01*
X82655931Y-66001970D01*
X84173862Y-64484039D01*
X87508096Y-64484039D01*
X87668959Y-64872423D01*
X88044866Y-65287389D01*
X88293367Y-65405000D01*
X88044866Y-65522611D01*
X87668959Y-65937577D01*
X87508096Y-66325961D01*
X87630085Y-66548000D01*
X88773000Y-66548000D01*
X88773000Y-64262000D01*
X89027000Y-64262000D01*
X89027000Y-66548000D01*
X90169915Y-66548000D01*
X90291904Y-66325961D01*
X90131041Y-65937577D01*
X89755134Y-65522611D01*
X89506633Y-65405000D01*
X89755134Y-65287389D01*
X90131041Y-64872423D01*
X90291904Y-64484039D01*
X90169915Y-64262000D01*
X89027000Y-64262000D01*
X88773000Y-64262000D01*
X87630085Y-64262000D01*
X87508096Y-64484039D01*
X84173862Y-64484039D01*
X87529749Y-61128153D01*
X87436887Y-61595000D01*
X87548260Y-62154909D01*
X87865423Y-62629577D01*
X88249108Y-62885947D01*
X88044866Y-62982611D01*
X87668959Y-63397577D01*
X87508096Y-63785961D01*
X87630085Y-64008000D01*
X88773000Y-64008000D01*
X88773000Y-63988000D01*
X89027000Y-63988000D01*
X89027000Y-64008000D01*
X90169915Y-64008000D01*
X90291904Y-63785961D01*
X90131041Y-63397577D01*
X89755134Y-62982611D01*
X89550892Y-62885947D01*
X89934577Y-62629577D01*
X90251740Y-62154909D01*
X90363113Y-61595000D01*
X90251740Y-61035091D01*
X89997062Y-60653939D01*
X102112873Y-48538129D01*
X102041887Y-48895000D01*
X102153260Y-49454909D01*
X102470423Y-49929577D01*
X102822758Y-50165000D01*
X102470423Y-50400423D01*
X102153260Y-50875091D01*
X102041887Y-51435000D01*
X102153260Y-51994909D01*
X102470423Y-52469577D01*
X102945091Y-52786740D01*
X103363667Y-52870000D01*
X103646333Y-52870000D01*
X104064909Y-52786740D01*
X104539577Y-52469577D01*
X104856740Y-51994909D01*
X104898684Y-51784039D01*
X108463096Y-51784039D01*
X108623959Y-52172423D01*
X108999866Y-52587389D01*
X109505959Y-52826914D01*
X109728000Y-52705629D01*
X109728000Y-51562000D01*
X109982000Y-51562000D01*
X109982000Y-52705629D01*
X110204041Y-52826914D01*
X110710134Y-52587389D01*
X111086041Y-52172423D01*
X111246904Y-51784039D01*
X111124915Y-51562000D01*
X109982000Y-51562000D01*
X109728000Y-51562000D01*
X108585085Y-51562000D01*
X108463096Y-51784039D01*
X104898684Y-51784039D01*
X104968113Y-51435000D01*
X104856740Y-50875091D01*
X104539577Y-50400423D01*
X104187242Y-50165000D01*
X104539577Y-49929577D01*
X104856740Y-49454909D01*
X104968113Y-48895000D01*
X104856740Y-48335091D01*
X104539577Y-47860423D01*
X104187242Y-47625000D01*
X104539577Y-47389577D01*
X104856740Y-46914909D01*
X104968113Y-46355000D01*
X104856740Y-45795091D01*
X104539577Y-45320423D01*
X104187242Y-45085000D01*
X104539577Y-44849577D01*
X104856740Y-44374909D01*
X104968113Y-43815000D01*
X104856740Y-43255091D01*
X104539577Y-42780423D01*
X104187242Y-42545000D01*
X104539577Y-42309577D01*
X104856740Y-41834909D01*
X104968113Y-41275000D01*
X104856740Y-40715091D01*
X104539577Y-40240423D01*
X104187242Y-40005000D01*
X104539577Y-39769577D01*
X104856740Y-39294909D01*
X104968113Y-38735000D01*
X104856740Y-38175091D01*
X104539577Y-37700423D01*
X104187242Y-37465000D01*
X104539577Y-37229577D01*
X104856740Y-36754909D01*
X104968113Y-36195000D01*
X104856740Y-35635091D01*
X104539577Y-35160423D01*
X104187242Y-34925000D01*
X104539577Y-34689577D01*
X104856740Y-34214909D01*
X104968113Y-33655000D01*
X104856740Y-33095091D01*
X104539577Y-32620423D01*
X104243614Y-32422667D01*
X104260896Y-32335786D01*
X104539577Y-32149577D01*
X104856740Y-31674909D01*
X104968113Y-31115000D01*
X104856740Y-30555091D01*
X104539577Y-30080423D01*
X104187242Y-29845000D01*
X104539577Y-29609577D01*
X104689635Y-29385000D01*
X108409549Y-29385000D01*
X108456843Y-29622765D01*
X108597191Y-29832809D01*
X108807235Y-29973157D01*
X108941106Y-29999785D01*
X108820423Y-30080423D01*
X108503260Y-30555091D01*
X108391887Y-31115000D01*
X108503260Y-31674909D01*
X108820423Y-32149577D01*
X109045000Y-32299635D01*
X109045001Y-32470365D01*
X108820423Y-32620423D01*
X108503260Y-33095091D01*
X108391887Y-33655000D01*
X108503260Y-34214909D01*
X108820423Y-34689577D01*
X109045000Y-34839635D01*
X109045001Y-35010365D01*
X108820423Y-35160423D01*
X108503260Y-35635091D01*
X108391887Y-36195000D01*
X108503260Y-36754909D01*
X108820423Y-37229577D01*
X109045000Y-37379635D01*
X109045001Y-37550365D01*
X108820423Y-37700423D01*
X108503260Y-38175091D01*
X108391887Y-38735000D01*
X108503260Y-39294909D01*
X108820423Y-39769577D01*
X109045000Y-39919635D01*
X109045001Y-40090365D01*
X108820423Y-40240423D01*
X108503260Y-40715091D01*
X108391887Y-41275000D01*
X108503260Y-41834909D01*
X108820423Y-42309577D01*
X109045000Y-42459635D01*
X109045001Y-42630365D01*
X108820423Y-42780423D01*
X108503260Y-43255091D01*
X108391887Y-43815000D01*
X108503260Y-44374909D01*
X108820423Y-44849577D01*
X109045000Y-44999635D01*
X109045001Y-45170365D01*
X108820423Y-45320423D01*
X108503260Y-45795091D01*
X108391887Y-46355000D01*
X108503260Y-46914909D01*
X108820423Y-47389577D01*
X109045000Y-47539635D01*
X109045001Y-47710365D01*
X108820423Y-47860423D01*
X108503260Y-48335091D01*
X108391887Y-48895000D01*
X108503260Y-49454909D01*
X108820423Y-49929577D01*
X109204108Y-50185947D01*
X108999866Y-50282611D01*
X108623959Y-50697577D01*
X108463096Y-51085961D01*
X108585085Y-51308000D01*
X109728000Y-51308000D01*
X109728000Y-51288000D01*
X109982000Y-51288000D01*
X109982000Y-51308000D01*
X111124915Y-51308000D01*
X111246904Y-51085961D01*
X111086041Y-50697577D01*
X110710134Y-50282611D01*
X110505892Y-50185947D01*
X110889577Y-49929577D01*
X111206740Y-49454909D01*
X111318113Y-48895000D01*
X111206740Y-48335091D01*
X110889577Y-47860423D01*
X110665000Y-47710365D01*
X110665000Y-47539635D01*
X110889577Y-47389577D01*
X111206740Y-46914909D01*
X111318113Y-46355000D01*
X111206740Y-45795091D01*
X110889577Y-45320423D01*
X110665000Y-45170365D01*
X110665000Y-44999635D01*
X110889577Y-44849577D01*
X111206740Y-44374909D01*
X111318113Y-43815000D01*
X111206740Y-43255091D01*
X110889577Y-42780423D01*
X110665000Y-42630365D01*
X110665000Y-42459635D01*
X110889577Y-42309577D01*
X111206740Y-41834909D01*
X111318113Y-41275000D01*
X111206740Y-40715091D01*
X110889577Y-40240423D01*
X110665000Y-40090365D01*
X110665000Y-39919635D01*
X110889577Y-39769577D01*
X111206740Y-39294909D01*
X111318113Y-38735000D01*
X111206740Y-38175091D01*
X110889577Y-37700423D01*
X110665000Y-37550365D01*
X110665000Y-37379635D01*
X110889577Y-37229577D01*
X111206740Y-36754909D01*
X111318113Y-36195000D01*
X111206740Y-35635091D01*
X110889577Y-35160423D01*
X110665000Y-35010365D01*
X110665000Y-34839635D01*
X110889577Y-34689577D01*
X111206740Y-34214909D01*
X111318113Y-33655000D01*
X111206740Y-33095091D01*
X110889577Y-32620423D01*
X110665000Y-32470365D01*
X110665000Y-32299635D01*
X110889577Y-32149577D01*
X111206740Y-31674909D01*
X111318113Y-31115000D01*
X111206740Y-30555091D01*
X110889577Y-30080423D01*
X110768894Y-29999785D01*
X110902765Y-29973157D01*
X111112809Y-29832809D01*
X111253157Y-29622765D01*
X111302440Y-29375000D01*
X111302440Y-28575000D01*
X116011887Y-28575000D01*
X116123260Y-29134909D01*
X116440423Y-29609577D01*
X116792758Y-29845000D01*
X116440423Y-30080423D01*
X116123260Y-30555091D01*
X116011887Y-31115000D01*
X116123260Y-31674909D01*
X116440423Y-32149577D01*
X116792758Y-32385000D01*
X116440423Y-32620423D01*
X116123260Y-33095091D01*
X116011887Y-33655000D01*
X116123260Y-34214909D01*
X116440423Y-34689577D01*
X116792758Y-34925000D01*
X116440423Y-35160423D01*
X116123260Y-35635091D01*
X116011887Y-36195000D01*
X116123260Y-36754909D01*
X116440423Y-37229577D01*
X116792758Y-37465000D01*
X116440423Y-37700423D01*
X116123260Y-38175091D01*
X116011887Y-38735000D01*
X116123260Y-39294909D01*
X116440423Y-39769577D01*
X116792758Y-40005000D01*
X116440423Y-40240423D01*
X116123260Y-40715091D01*
X116011887Y-41275000D01*
X116123260Y-41834909D01*
X116440423Y-42309577D01*
X116792758Y-42545000D01*
X116440423Y-42780423D01*
X116123260Y-43255091D01*
X116011887Y-43815000D01*
X116123260Y-44374909D01*
X116440423Y-44849577D01*
X116792758Y-45085000D01*
X116440423Y-45320423D01*
X116123260Y-45795091D01*
X116011887Y-46355000D01*
X116123260Y-46914909D01*
X116440423Y-47389577D01*
X116792758Y-47625000D01*
X116440423Y-47860423D01*
X116123260Y-48335091D01*
X116011887Y-48895000D01*
X116123260Y-49454909D01*
X116440423Y-49929577D01*
X116792758Y-50165000D01*
X116440423Y-50400423D01*
X116123260Y-50875091D01*
X116011887Y-51435000D01*
X116123260Y-51994909D01*
X116440423Y-52469577D01*
X116715001Y-52653044D01*
X116715000Y-58091148D01*
X116715000Y-58875851D01*
X116715001Y-58875855D01*
X116715000Y-60885153D01*
X116700112Y-60960000D01*
X116715000Y-61034847D01*
X116715000Y-61034851D01*
X116759096Y-61256536D01*
X116927071Y-61507929D01*
X116990530Y-61550331D01*
X121748791Y-66308593D01*
X121675908Y-66675000D01*
X121791161Y-67254418D01*
X122119375Y-67745625D01*
X122610582Y-68073839D01*
X123043744Y-68160000D01*
X123336256Y-68160000D01*
X123769418Y-68073839D01*
X124260625Y-67745625D01*
X124588839Y-67254418D01*
X124704092Y-66675000D01*
X124588839Y-66095582D01*
X124260625Y-65604375D01*
X123962239Y-65405000D01*
X124260625Y-65205625D01*
X124588839Y-64714418D01*
X124704092Y-64135000D01*
X124588839Y-63555582D01*
X124260625Y-63064375D01*
X123962239Y-62865000D01*
X124260625Y-62665625D01*
X124588839Y-62174418D01*
X124704092Y-61595000D01*
X124588839Y-61015582D01*
X124260625Y-60524375D01*
X123962239Y-60325000D01*
X124260625Y-60125625D01*
X124588839Y-59634418D01*
X124704092Y-59055000D01*
X124588839Y-58475582D01*
X124260625Y-57984375D01*
X123962239Y-57785000D01*
X124260625Y-57585625D01*
X124588839Y-57094418D01*
X124704092Y-56515000D01*
X124588839Y-55935582D01*
X124260625Y-55444375D01*
X123962239Y-55245000D01*
X124260625Y-55045625D01*
X124588839Y-54554418D01*
X124704092Y-53975000D01*
X124588839Y-53395582D01*
X124260625Y-52904375D01*
X123962239Y-52705000D01*
X124260625Y-52505625D01*
X124588839Y-52014418D01*
X124704092Y-51435000D01*
X124588839Y-50855582D01*
X124260625Y-50364375D01*
X123962239Y-50165000D01*
X124260625Y-49965625D01*
X124588839Y-49474418D01*
X124704092Y-48895000D01*
X124588839Y-48315582D01*
X124260625Y-47824375D01*
X123962239Y-47625000D01*
X124260625Y-47425625D01*
X124588839Y-46934418D01*
X124704092Y-46355000D01*
X124588839Y-45775582D01*
X124260625Y-45284375D01*
X123962239Y-45085000D01*
X124260625Y-44885625D01*
X124588839Y-44394418D01*
X124704092Y-43815000D01*
X124588839Y-43235582D01*
X124260625Y-42744375D01*
X123962239Y-42545000D01*
X124260625Y-42345625D01*
X124588839Y-41854418D01*
X124704092Y-41275000D01*
X124588839Y-40695582D01*
X124260625Y-40204375D01*
X123962239Y-40005000D01*
X124260625Y-39805625D01*
X124588839Y-39314418D01*
X124704092Y-38735000D01*
X124588839Y-38155582D01*
X124260625Y-37664375D01*
X123962239Y-37465000D01*
X124260625Y-37265625D01*
X124588839Y-36774418D01*
X124704092Y-36195000D01*
X124588839Y-35615582D01*
X124260625Y-35124375D01*
X123962239Y-34925000D01*
X124260625Y-34725625D01*
X124588839Y-34234418D01*
X124704092Y-33655000D01*
X124588839Y-33075582D01*
X124260625Y-32584375D01*
X123962239Y-32385000D01*
X124260625Y-32185625D01*
X124588839Y-31694418D01*
X124704092Y-31115000D01*
X124588839Y-30535582D01*
X124260625Y-30044375D01*
X124242381Y-30032184D01*
X124287765Y-30023157D01*
X124497809Y-29882809D01*
X124638157Y-29672765D01*
X124687440Y-29425000D01*
X124687440Y-27725000D01*
X124638157Y-27477235D01*
X124497809Y-27267191D01*
X124287765Y-27126843D01*
X124040000Y-27077560D01*
X122340000Y-27077560D01*
X122092235Y-27126843D01*
X121882191Y-27267191D01*
X121741843Y-27477235D01*
X121692560Y-27725000D01*
X121692560Y-29425000D01*
X121741843Y-29672765D01*
X121882191Y-29882809D01*
X122092235Y-30023157D01*
X122137619Y-30032184D01*
X122119375Y-30044375D01*
X121791161Y-30535582D01*
X121675908Y-31115000D01*
X121791161Y-31694418D01*
X122119375Y-32185625D01*
X122417761Y-32385000D01*
X122119375Y-32584375D01*
X121791161Y-33075582D01*
X121675908Y-33655000D01*
X121791161Y-34234418D01*
X122119375Y-34725625D01*
X122417761Y-34925000D01*
X122119375Y-35124375D01*
X121791161Y-35615582D01*
X121675908Y-36195000D01*
X121791161Y-36774418D01*
X122036710Y-37141908D01*
X118873688Y-33978887D01*
X118938113Y-33655000D01*
X118826740Y-33095091D01*
X118509577Y-32620423D01*
X118157242Y-32385000D01*
X118509577Y-32149577D01*
X118826740Y-31674909D01*
X118938113Y-31115000D01*
X118826740Y-30555091D01*
X118509577Y-30080423D01*
X118157242Y-29845000D01*
X118509577Y-29609577D01*
X118826740Y-29134909D01*
X118938113Y-28575000D01*
X118826740Y-28015091D01*
X118509577Y-27540423D01*
X118034909Y-27223260D01*
X117616333Y-27140000D01*
X117333667Y-27140000D01*
X116915091Y-27223260D01*
X116440423Y-27540423D01*
X116123260Y-28015091D01*
X116011887Y-28575000D01*
X111302440Y-28575000D01*
X111302440Y-27775000D01*
X111253157Y-27527235D01*
X111112809Y-27317191D01*
X110902765Y-27176843D01*
X110655000Y-27127560D01*
X109055000Y-27127560D01*
X108807235Y-27176843D01*
X108597191Y-27317191D01*
X108456843Y-27527235D01*
X108409549Y-27765000D01*
X104689635Y-27765000D01*
X104539577Y-27540423D01*
X104064909Y-27223260D01*
X103646333Y-27140000D01*
X103363667Y-27140000D01*
X102945091Y-27223260D01*
X102470423Y-27540423D01*
X102153260Y-28015091D01*
X102041887Y-28575000D01*
X102153260Y-29134909D01*
X102470423Y-29609577D01*
X102822758Y-29845000D01*
X102470423Y-30080423D01*
X102153260Y-30555091D01*
X102041887Y-31115000D01*
X102153260Y-31674909D01*
X102377937Y-32011162D01*
X101895230Y-32493869D01*
X101831771Y-32536271D01*
X101663796Y-32787664D01*
X101619700Y-33009349D01*
X101619700Y-33009353D01*
X101604812Y-33084200D01*
X101619700Y-33159047D01*
X101619701Y-46881697D01*
X97193400Y-51307998D01*
X97154916Y-51307998D01*
X97276904Y-51085961D01*
X97116041Y-50697577D01*
X96740134Y-50282611D01*
X96535892Y-50185947D01*
X96919577Y-49929577D01*
X97236740Y-49454909D01*
X97348113Y-48895000D01*
X97236740Y-48335091D01*
X96919577Y-47860423D01*
X96624680Y-47663379D01*
X96642288Y-47574855D01*
X96919577Y-47389577D01*
X97236740Y-46914909D01*
X97348113Y-46355000D01*
X97236740Y-45795091D01*
X96919577Y-45320423D01*
X96567242Y-45085000D01*
X96919577Y-44849577D01*
X97236740Y-44374909D01*
X97348113Y-43815000D01*
X97236740Y-43255091D01*
X96919577Y-42780423D01*
X96567242Y-42545000D01*
X96919577Y-42309577D01*
X97236740Y-41834909D01*
X97348113Y-41275000D01*
X97236740Y-40715091D01*
X96919577Y-40240423D01*
X96567242Y-40005000D01*
X96919577Y-39769577D01*
X97236740Y-39294909D01*
X97348113Y-38735000D01*
X97236740Y-38175091D01*
X96919577Y-37700423D01*
X96567242Y-37465000D01*
X96919577Y-37229577D01*
X97236740Y-36754909D01*
X97348113Y-36195000D01*
X97236740Y-35635091D01*
X96919577Y-35160423D01*
X96567242Y-34925000D01*
X96919577Y-34689577D01*
X97236740Y-34214909D01*
X97348113Y-33655000D01*
X97236740Y-33095091D01*
X96919577Y-32620423D01*
X96567242Y-32385000D01*
X96919577Y-32149577D01*
X97236740Y-31674909D01*
X97348113Y-31115000D01*
X97236740Y-30555091D01*
X96919577Y-30080423D01*
X96798894Y-29999785D01*
X96932765Y-29973157D01*
X97142809Y-29832809D01*
X97283157Y-29622765D01*
X97332440Y-29375000D01*
X97332440Y-27775000D01*
X97283157Y-27527235D01*
X97142809Y-27317191D01*
X96932765Y-27176843D01*
X96685000Y-27127560D01*
X95085000Y-27127560D01*
X94837235Y-27176843D01*
X94627191Y-27317191D01*
X94615260Y-27335047D01*
X94128668Y-26848456D01*
X94083477Y-26780823D01*
X93815546Y-26601797D01*
X93579274Y-26554800D01*
X93579273Y-26554800D01*
X93499500Y-26538932D01*
X93419727Y-26554800D01*
X64695272Y-26554800D01*
X64615499Y-26538932D01*
X64535726Y-26554800D01*
X64299454Y-26601797D01*
X64031523Y-26780823D01*
X63986334Y-26848453D01*
X63276508Y-27558279D01*
X63264577Y-27540423D01*
X62789909Y-27223260D01*
X62371333Y-27140000D01*
X62088667Y-27140000D01*
X61670091Y-27223260D01*
X61195423Y-27540423D01*
X60878260Y-28015091D01*
X60766887Y-28575000D01*
X60878260Y-29134909D01*
X61195423Y-29609577D01*
X61547758Y-29845000D01*
X61195423Y-30080423D01*
X60878260Y-30555091D01*
X60766887Y-31115000D01*
X60878260Y-31674909D01*
X61195423Y-32149577D01*
X61547758Y-32385000D01*
X61195423Y-32620423D01*
X60878260Y-33095091D01*
X60766887Y-33655000D01*
X60878260Y-34214909D01*
X61195423Y-34689577D01*
X61547758Y-34925000D01*
X61195423Y-35160423D01*
X60878260Y-35635091D01*
X60766887Y-36195000D01*
X60878260Y-36754909D01*
X61195423Y-37229577D01*
X61547758Y-37465000D01*
X61195423Y-37700423D01*
X60878260Y-38175091D01*
X60766887Y-38735000D01*
X60878260Y-39294909D01*
X61195423Y-39769577D01*
X61547758Y-40005000D01*
X61195423Y-40240423D01*
X60878260Y-40715091D01*
X60766887Y-41275000D01*
X60767405Y-41277604D01*
X60196000Y-40706199D01*
X60196000Y-34884477D01*
X60210888Y-34809630D01*
X60196000Y-34734783D01*
X60196000Y-34734778D01*
X60151904Y-34513093D01*
X59983929Y-34261701D01*
X59920473Y-34219301D01*
X56331701Y-30630530D01*
X56289299Y-30567071D01*
X56037907Y-30399096D01*
X55829855Y-30357712D01*
X55644577Y-30080423D01*
X55523894Y-29999785D01*
X55657765Y-29973157D01*
X55867809Y-29832809D01*
X56008157Y-29622765D01*
X56057440Y-29375000D01*
X56057440Y-27775000D01*
X56008157Y-27527235D01*
X55867809Y-27317191D01*
X55657765Y-27176843D01*
X55410000Y-27127560D01*
X53810000Y-27127560D01*
X53562235Y-27176843D01*
X53352191Y-27317191D01*
X53211843Y-27527235D01*
X53162560Y-27775000D01*
X53162560Y-29375000D01*
X53211843Y-29622765D01*
X53352191Y-29832809D01*
X53562235Y-29973157D01*
X53696106Y-29999785D01*
X53575423Y-30080423D01*
X53258260Y-30555091D01*
X53146887Y-31115000D01*
X53258260Y-31674909D01*
X53575423Y-32149577D01*
X53927758Y-32385000D01*
X53575423Y-32620423D01*
X53258260Y-33095091D01*
X53146887Y-33655000D01*
X53258260Y-34214909D01*
X53575423Y-34689577D01*
X53850001Y-34873044D01*
X53850000Y-34976956D01*
X53575423Y-35160423D01*
X53258260Y-35635091D01*
X53146887Y-36195000D01*
X53258260Y-36754909D01*
X53575423Y-37229577D01*
X53927758Y-37465000D01*
X53575423Y-37700423D01*
X53258260Y-38175091D01*
X53146887Y-38735000D01*
X53258260Y-39294909D01*
X53575423Y-39769577D01*
X53927758Y-40005000D01*
X53575423Y-40240423D01*
X53258260Y-40715091D01*
X53146887Y-41275000D01*
X53211312Y-41598887D01*
X52950228Y-41859971D01*
X52886772Y-41902371D01*
X52844372Y-41965827D01*
X52844371Y-41965828D01*
X52718797Y-42153763D01*
X52659812Y-42450300D01*
X48970000Y-42450300D01*
X48970000Y-22935000D01*
X128830000Y-22935000D01*
X128830001Y-72315000D01*
X128830001Y-72315000D01*
G37*
X128830001Y-72315000D02*
X48970000Y-72315000D01*
X48970000Y-42450300D01*
X52659812Y-42450300D01*
X52674701Y-42525152D01*
X52674700Y-60344853D01*
X52659812Y-60419700D01*
X52674700Y-60494547D01*
X52674700Y-60494551D01*
X52718796Y-60716236D01*
X52886771Y-60967629D01*
X52950230Y-61010031D01*
X53168791Y-61228592D01*
X53095908Y-61595000D01*
X53211161Y-62174418D01*
X53539375Y-62665625D01*
X53837761Y-62865000D01*
X53539375Y-63064375D01*
X53211161Y-63555582D01*
X53095908Y-64135000D01*
X53211161Y-64714418D01*
X53539375Y-65205625D01*
X53837761Y-65405000D01*
X53539375Y-65604375D01*
X53211161Y-66095582D01*
X53095908Y-66675000D01*
X53211161Y-67254418D01*
X53539375Y-67745625D01*
X54030582Y-68073839D01*
X54463744Y-68160000D01*
X54756256Y-68160000D01*
X55189418Y-68073839D01*
X55680625Y-67745625D01*
X55720879Y-67685381D01*
X56321571Y-68286073D01*
X56363971Y-68349529D01*
X56615363Y-68517504D01*
X56837048Y-68561600D01*
X56837053Y-68561600D01*
X56911900Y-68576488D01*
X56986747Y-68561600D01*
X68689353Y-68561600D01*
X68764200Y-68576488D01*
X68839047Y-68561600D01*
X68839052Y-68561600D01*
X69060737Y-68517504D01*
X69312129Y-68349529D01*
X69354531Y-68286070D01*
X70616562Y-67024039D01*
X72903096Y-67024039D01*
X73063959Y-67412423D01*
X73439866Y-67827389D01*
X73945959Y-68066914D01*
X74168000Y-67945629D01*
X74168000Y-66802000D01*
X74422000Y-66802000D01*
X74422000Y-67945629D01*
X74644041Y-68066914D01*
X75150134Y-67827389D01*
X75526041Y-67412423D01*
X75686904Y-67024039D01*
X79888096Y-67024039D01*
X80048959Y-67412423D01*
X80424866Y-67827389D01*
X80930959Y-68066914D01*
X81153000Y-67945629D01*
X81153000Y-66802000D01*
X81407000Y-66802000D01*
X81407000Y-67945629D01*
X81629041Y-68066914D01*
X82135134Y-67827389D01*
X82511041Y-67412423D01*
X82671904Y-67024039D01*
X87508096Y-67024039D01*
X87668959Y-67412423D01*
X88044866Y-67827389D01*
X88550959Y-68066914D01*
X88773000Y-67945629D01*
X88773000Y-66802000D01*
X89027000Y-66802000D01*
X89027000Y-67945629D01*
X89249041Y-68066914D01*
X89755134Y-67827389D01*
X90131041Y-67412423D01*
X90291904Y-67024039D01*
X90169915Y-66802000D01*
X89027000Y-66802000D01*
X88773000Y-66802000D01*
X87630085Y-66802000D01*
X87508096Y-67024039D01*
X82671904Y-67024039D01*
X82549915Y-66802000D01*
X81407000Y-66802000D01*
X81153000Y-66802000D01*
X80010085Y-66802000D01*
X79888096Y-67024039D01*
X75686904Y-67024039D01*
X75564915Y-66802000D01*
X74422000Y-66802000D01*
X74168000Y-66802000D01*
X73025085Y-66802000D01*
X72903096Y-67024039D01*
X70616562Y-67024039D01*
X71363102Y-66277500D01*
X72923168Y-66277500D01*
X72903096Y-66325961D01*
X73025085Y-66548000D01*
X74168000Y-66548000D01*
X74168000Y-66528000D01*
X74422000Y-66528000D01*
X74422000Y-66548000D01*
X75564915Y-66548000D01*
X75686904Y-66325961D01*
X75666832Y-66277500D01*
X79908168Y-66277500D01*
X79888096Y-66325961D01*
X80010085Y-66548000D01*
X81153000Y-66548000D01*
X81153000Y-66528000D01*
X81407000Y-66528000D01*
X81407000Y-66548000D01*
X82549915Y-66548000D01*
X82671904Y-66325961D01*
X82574732Y-66091352D01*
X82613529Y-66065429D01*
X82655931Y-66001970D01*
X84173862Y-64484039D01*
X87508096Y-64484039D01*
X87668959Y-64872423D01*
X88044866Y-65287389D01*
X88293367Y-65405000D01*
X88044866Y-65522611D01*
X87668959Y-65937577D01*
X87508096Y-66325961D01*
X87630085Y-66548000D01*
X88773000Y-66548000D01*
X88773000Y-64262000D01*
X89027000Y-64262000D01*
X89027000Y-66548000D01*
X90169915Y-66548000D01*
X90291904Y-66325961D01*
X90131041Y-65937577D01*
X89755134Y-65522611D01*
X89506633Y-65405000D01*
X89755134Y-65287389D01*
X90131041Y-64872423D01*
X90291904Y-64484039D01*
X90169915Y-64262000D01*
X89027000Y-64262000D01*
X88773000Y-64262000D01*
X87630085Y-64262000D01*
X87508096Y-64484039D01*
X84173862Y-64484039D01*
X87529749Y-61128153D01*
X87436887Y-61595000D01*
X87548260Y-62154909D01*
X87865423Y-62629577D01*
X88249108Y-62885947D01*
X88044866Y-62982611D01*
X87668959Y-63397577D01*
X87508096Y-63785961D01*
X87630085Y-64008000D01*
X88773000Y-64008000D01*
X88773000Y-63988000D01*
X89027000Y-63988000D01*
X89027000Y-64008000D01*
X90169915Y-64008000D01*
X90291904Y-63785961D01*
X90131041Y-63397577D01*
X89755134Y-62982611D01*
X89550892Y-62885947D01*
X89934577Y-62629577D01*
X90251740Y-62154909D01*
X90363113Y-61595000D01*
X90251740Y-61035091D01*
X89997062Y-60653939D01*
X102112873Y-48538129D01*
X102041887Y-48895000D01*
X102153260Y-49454909D01*
X102470423Y-49929577D01*
X102822758Y-50165000D01*
X102470423Y-50400423D01*
X102153260Y-50875091D01*
X102041887Y-51435000D01*
X102153260Y-51994909D01*
X102470423Y-52469577D01*
X102945091Y-52786740D01*
X103363667Y-52870000D01*
X103646333Y-52870000D01*
X104064909Y-52786740D01*
X104539577Y-52469577D01*
X104856740Y-51994909D01*
X104898684Y-51784039D01*
X108463096Y-51784039D01*
X108623959Y-52172423D01*
X108999866Y-52587389D01*
X109505959Y-52826914D01*
X109728000Y-52705629D01*
X109728000Y-51562000D01*
X109982000Y-51562000D01*
X109982000Y-52705629D01*
X110204041Y-52826914D01*
X110710134Y-52587389D01*
X111086041Y-52172423D01*
X111246904Y-51784039D01*
X111124915Y-51562000D01*
X109982000Y-51562000D01*
X109728000Y-51562000D01*
X108585085Y-51562000D01*
X108463096Y-51784039D01*
X104898684Y-51784039D01*
X104968113Y-51435000D01*
X104856740Y-50875091D01*
X104539577Y-50400423D01*
X104187242Y-50165000D01*
X104539577Y-49929577D01*
X104856740Y-49454909D01*
X104968113Y-48895000D01*
X104856740Y-48335091D01*
X104539577Y-47860423D01*
X104187242Y-47625000D01*
X104539577Y-47389577D01*
X104856740Y-46914909D01*
X104968113Y-46355000D01*
X104856740Y-45795091D01*
X104539577Y-45320423D01*
X104187242Y-45085000D01*
X104539577Y-44849577D01*
X104856740Y-44374909D01*
X104968113Y-43815000D01*
X104856740Y-43255091D01*
X104539577Y-42780423D01*
X104187242Y-42545000D01*
X104539577Y-42309577D01*
X104856740Y-41834909D01*
X104968113Y-41275000D01*
X104856740Y-40715091D01*
X104539577Y-40240423D01*
X104187242Y-40005000D01*
X104539577Y-39769577D01*
X104856740Y-39294909D01*
X104968113Y-38735000D01*
X104856740Y-38175091D01*
X104539577Y-37700423D01*
X104187242Y-37465000D01*
X104539577Y-37229577D01*
X104856740Y-36754909D01*
X104968113Y-36195000D01*
X104856740Y-35635091D01*
X104539577Y-35160423D01*
X104187242Y-34925000D01*
X104539577Y-34689577D01*
X104856740Y-34214909D01*
X104968113Y-33655000D01*
X104856740Y-33095091D01*
X104539577Y-32620423D01*
X104243614Y-32422667D01*
X104260896Y-32335786D01*
X104539577Y-32149577D01*
X104856740Y-31674909D01*
X104968113Y-31115000D01*
X104856740Y-30555091D01*
X104539577Y-30080423D01*
X104187242Y-29845000D01*
X104539577Y-29609577D01*
X104689635Y-29385000D01*
X108409549Y-29385000D01*
X108456843Y-29622765D01*
X108597191Y-29832809D01*
X108807235Y-29973157D01*
X108941106Y-29999785D01*
X108820423Y-30080423D01*
X108503260Y-30555091D01*
X108391887Y-31115000D01*
X108503260Y-31674909D01*
X108820423Y-32149577D01*
X109045000Y-32299635D01*
X109045001Y-32470365D01*
X108820423Y-32620423D01*
X108503260Y-33095091D01*
X108391887Y-33655000D01*
X108503260Y-34214909D01*
X108820423Y-34689577D01*
X109045000Y-34839635D01*
X109045001Y-35010365D01*
X108820423Y-35160423D01*
X108503260Y-35635091D01*
X108391887Y-36195000D01*
X108503260Y-36754909D01*
X108820423Y-37229577D01*
X109045000Y-37379635D01*
X109045001Y-37550365D01*
X108820423Y-37700423D01*
X108503260Y-38175091D01*
X108391887Y-38735000D01*
X108503260Y-39294909D01*
X108820423Y-39769577D01*
X109045000Y-39919635D01*
X109045001Y-40090365D01*
X108820423Y-40240423D01*
X108503260Y-40715091D01*
X108391887Y-41275000D01*
X108503260Y-41834909D01*
X108820423Y-42309577D01*
X109045000Y-42459635D01*
X109045001Y-42630365D01*
X108820423Y-42780423D01*
X108503260Y-43255091D01*
X108391887Y-43815000D01*
X108503260Y-44374909D01*
X108820423Y-44849577D01*
X109045000Y-44999635D01*
X109045001Y-45170365D01*
X108820423Y-45320423D01*
X108503260Y-45795091D01*
X108391887Y-46355000D01*
X108503260Y-46914909D01*
X108820423Y-47389577D01*
X109045000Y-47539635D01*
X109045001Y-47710365D01*
X108820423Y-47860423D01*
X108503260Y-48335091D01*
X108391887Y-48895000D01*
X108503260Y-49454909D01*
X108820423Y-49929577D01*
X109204108Y-50185947D01*
X108999866Y-50282611D01*
X108623959Y-50697577D01*
X108463096Y-51085961D01*
X108585085Y-51308000D01*
X109728000Y-51308000D01*
X109728000Y-51288000D01*
X109982000Y-51288000D01*
X109982000Y-51308000D01*
X111124915Y-51308000D01*
X111246904Y-51085961D01*
X111086041Y-50697577D01*
X110710134Y-50282611D01*
X110505892Y-50185947D01*
X110889577Y-49929577D01*
X111206740Y-49454909D01*
X111318113Y-48895000D01*
X111206740Y-48335091D01*
X110889577Y-47860423D01*
X110665000Y-47710365D01*
X110665000Y-47539635D01*
X110889577Y-47389577D01*
X111206740Y-46914909D01*
X111318113Y-46355000D01*
X111206740Y-45795091D01*
X110889577Y-45320423D01*
X110665000Y-45170365D01*
X110665000Y-44999635D01*
X110889577Y-44849577D01*
X111206740Y-44374909D01*
X111318113Y-43815000D01*
X111206740Y-43255091D01*
X110889577Y-42780423D01*
X110665000Y-42630365D01*
X110665000Y-42459635D01*
X110889577Y-42309577D01*
X111206740Y-41834909D01*
X111318113Y-41275000D01*
X111206740Y-40715091D01*
X110889577Y-40240423D01*
X110665000Y-40090365D01*
X110665000Y-39919635D01*
X110889577Y-39769577D01*
X111206740Y-39294909D01*
X111318113Y-38735000D01*
X111206740Y-38175091D01*
X110889577Y-37700423D01*
X110665000Y-37550365D01*
X110665000Y-37379635D01*
X110889577Y-37229577D01*
X111206740Y-36754909D01*
X111318113Y-36195000D01*
X111206740Y-35635091D01*
X110889577Y-35160423D01*
X110665000Y-35010365D01*
X110665000Y-34839635D01*
X110889577Y-34689577D01*
X111206740Y-34214909D01*
X111318113Y-33655000D01*
X111206740Y-33095091D01*
X110889577Y-32620423D01*
X110665000Y-32470365D01*
X110665000Y-32299635D01*
X110889577Y-32149577D01*
X111206740Y-31674909D01*
X111318113Y-31115000D01*
X111206740Y-30555091D01*
X110889577Y-30080423D01*
X110768894Y-29999785D01*
X110902765Y-29973157D01*
X111112809Y-29832809D01*
X111253157Y-29622765D01*
X111302440Y-29375000D01*
X111302440Y-28575000D01*
X116011887Y-28575000D01*
X116123260Y-29134909D01*
X116440423Y-29609577D01*
X116792758Y-29845000D01*
X116440423Y-30080423D01*
X116123260Y-30555091D01*
X116011887Y-31115000D01*
X116123260Y-31674909D01*
X116440423Y-32149577D01*
X116792758Y-32385000D01*
X116440423Y-32620423D01*
X116123260Y-33095091D01*
X116011887Y-33655000D01*
X116123260Y-34214909D01*
X116440423Y-34689577D01*
X116792758Y-34925000D01*
X116440423Y-35160423D01*
X116123260Y-35635091D01*
X116011887Y-36195000D01*
X116123260Y-36754909D01*
X116440423Y-37229577D01*
X116792758Y-37465000D01*
X116440423Y-37700423D01*
X116123260Y-38175091D01*
X116011887Y-38735000D01*
X116123260Y-39294909D01*
X116440423Y-39769577D01*
X116792758Y-40005000D01*
X116440423Y-40240423D01*
X116123260Y-40715091D01*
X116011887Y-41275000D01*
X116123260Y-41834909D01*
X116440423Y-42309577D01*
X116792758Y-42545000D01*
X116440423Y-42780423D01*
X116123260Y-43255091D01*
X116011887Y-43815000D01*
X116123260Y-44374909D01*
X116440423Y-44849577D01*
X116792758Y-45085000D01*
X116440423Y-45320423D01*
X116123260Y-45795091D01*
X116011887Y-46355000D01*
X116123260Y-46914909D01*
X116440423Y-47389577D01*
X116792758Y-47625000D01*
X116440423Y-47860423D01*
X116123260Y-48335091D01*
X116011887Y-48895000D01*
X116123260Y-49454909D01*
X116440423Y-49929577D01*
X116792758Y-50165000D01*
X116440423Y-50400423D01*
X116123260Y-50875091D01*
X116011887Y-51435000D01*
X116123260Y-51994909D01*
X116440423Y-52469577D01*
X116715001Y-52653044D01*
X116715000Y-58091148D01*
X116715000Y-58875851D01*
X116715001Y-58875855D01*
X116715000Y-60885153D01*
X116700112Y-60960000D01*
X116715000Y-61034847D01*
X116715000Y-61034851D01*
X116759096Y-61256536D01*
X116927071Y-61507929D01*
X116990530Y-61550331D01*
X121748791Y-66308593D01*
X121675908Y-66675000D01*
X121791161Y-67254418D01*
X122119375Y-67745625D01*
X122610582Y-68073839D01*
X123043744Y-68160000D01*
X123336256Y-68160000D01*
X123769418Y-68073839D01*
X124260625Y-67745625D01*
X124588839Y-67254418D01*
X124704092Y-66675000D01*
X124588839Y-66095582D01*
X124260625Y-65604375D01*
X123962239Y-65405000D01*
X124260625Y-65205625D01*
X124588839Y-64714418D01*
X124704092Y-64135000D01*
X124588839Y-63555582D01*
X124260625Y-63064375D01*
X123962239Y-62865000D01*
X124260625Y-62665625D01*
X124588839Y-62174418D01*
X124704092Y-61595000D01*
X124588839Y-61015582D01*
X124260625Y-60524375D01*
X123962239Y-60325000D01*
X124260625Y-60125625D01*
X124588839Y-59634418D01*
X124704092Y-59055000D01*
X124588839Y-58475582D01*
X124260625Y-57984375D01*
X123962239Y-57785000D01*
X124260625Y-57585625D01*
X124588839Y-57094418D01*
X124704092Y-56515000D01*
X124588839Y-55935582D01*
X124260625Y-55444375D01*
X123962239Y-55245000D01*
X124260625Y-55045625D01*
X124588839Y-54554418D01*
X124704092Y-53975000D01*
X124588839Y-53395582D01*
X124260625Y-52904375D01*
X123962239Y-52705000D01*
X124260625Y-52505625D01*
X124588839Y-52014418D01*
X124704092Y-51435000D01*
X124588839Y-50855582D01*
X124260625Y-50364375D01*
X123962239Y-50165000D01*
X124260625Y-49965625D01*
X124588839Y-49474418D01*
X124704092Y-48895000D01*
X124588839Y-48315582D01*
X124260625Y-47824375D01*
X123962239Y-47625000D01*
X124260625Y-47425625D01*
X124588839Y-46934418D01*
X124704092Y-46355000D01*
X124588839Y-45775582D01*
X124260625Y-45284375D01*
X123962239Y-45085000D01*
X124260625Y-44885625D01*
X124588839Y-44394418D01*
X124704092Y-43815000D01*
X124588839Y-43235582D01*
X124260625Y-42744375D01*
X123962239Y-42545000D01*
X124260625Y-42345625D01*
X124588839Y-41854418D01*
X124704092Y-41275000D01*
X124588839Y-40695582D01*
X124260625Y-40204375D01*
X123962239Y-40005000D01*
X124260625Y-39805625D01*
X124588839Y-39314418D01*
X124704092Y-38735000D01*
X124588839Y-38155582D01*
X124260625Y-37664375D01*
X123962239Y-37465000D01*
X124260625Y-37265625D01*
X124588839Y-36774418D01*
X124704092Y-36195000D01*
X124588839Y-35615582D01*
X124260625Y-35124375D01*
X123962239Y-34925000D01*
X124260625Y-34725625D01*
X124588839Y-34234418D01*
X124704092Y-33655000D01*
X124588839Y-33075582D01*
X124260625Y-32584375D01*
X123962239Y-32385000D01*
X124260625Y-32185625D01*
X124588839Y-31694418D01*
X124704092Y-31115000D01*
X124588839Y-30535582D01*
X124260625Y-30044375D01*
X124242381Y-30032184D01*
X124287765Y-30023157D01*
X124497809Y-29882809D01*
X124638157Y-29672765D01*
X124687440Y-29425000D01*
X124687440Y-27725000D01*
X124638157Y-27477235D01*
X124497809Y-27267191D01*
X124287765Y-27126843D01*
X124040000Y-27077560D01*
X122340000Y-27077560D01*
X122092235Y-27126843D01*
X121882191Y-27267191D01*
X121741843Y-27477235D01*
X121692560Y-27725000D01*
X121692560Y-29425000D01*
X121741843Y-29672765D01*
X121882191Y-29882809D01*
X122092235Y-30023157D01*
X122137619Y-30032184D01*
X122119375Y-30044375D01*
X121791161Y-30535582D01*
X121675908Y-31115000D01*
X121791161Y-31694418D01*
X122119375Y-32185625D01*
X122417761Y-32385000D01*
X122119375Y-32584375D01*
X121791161Y-33075582D01*
X121675908Y-33655000D01*
X121791161Y-34234418D01*
X122119375Y-34725625D01*
X122417761Y-34925000D01*
X122119375Y-35124375D01*
X121791161Y-35615582D01*
X121675908Y-36195000D01*
X121791161Y-36774418D01*
X122036710Y-37141908D01*
X118873688Y-33978887D01*
X118938113Y-33655000D01*
X118826740Y-33095091D01*
X118509577Y-32620423D01*
X118157242Y-32385000D01*
X118509577Y-32149577D01*
X118826740Y-31674909D01*
X118938113Y-31115000D01*
X118826740Y-30555091D01*
X118509577Y-30080423D01*
X118157242Y-29845000D01*
X118509577Y-29609577D01*
X118826740Y-29134909D01*
X118938113Y-28575000D01*
X118826740Y-28015091D01*
X118509577Y-27540423D01*
X118034909Y-27223260D01*
X117616333Y-27140000D01*
X117333667Y-27140000D01*
X116915091Y-27223260D01*
X116440423Y-27540423D01*
X116123260Y-28015091D01*
X116011887Y-28575000D01*
X111302440Y-28575000D01*
X111302440Y-27775000D01*
X111253157Y-27527235D01*
X111112809Y-27317191D01*
X110902765Y-27176843D01*
X110655000Y-27127560D01*
X109055000Y-27127560D01*
X108807235Y-27176843D01*
X108597191Y-27317191D01*
X108456843Y-27527235D01*
X108409549Y-27765000D01*
X104689635Y-27765000D01*
X104539577Y-27540423D01*
X104064909Y-27223260D01*
X103646333Y-27140000D01*
X103363667Y-27140000D01*
X102945091Y-27223260D01*
X102470423Y-27540423D01*
X102153260Y-28015091D01*
X102041887Y-28575000D01*
X102153260Y-29134909D01*
X102470423Y-29609577D01*
X102822758Y-29845000D01*
X102470423Y-30080423D01*
X102153260Y-30555091D01*
X102041887Y-31115000D01*
X102153260Y-31674909D01*
X102377937Y-32011162D01*
X101895230Y-32493869D01*
X101831771Y-32536271D01*
X101663796Y-32787664D01*
X101619700Y-33009349D01*
X101619700Y-33009353D01*
X101604812Y-33084200D01*
X101619700Y-33159047D01*
X101619701Y-46881697D01*
X97193400Y-51307998D01*
X97154916Y-51307998D01*
X97276904Y-51085961D01*
X97116041Y-50697577D01*
X96740134Y-50282611D01*
X96535892Y-50185947D01*
X96919577Y-49929577D01*
X97236740Y-49454909D01*
X97348113Y-48895000D01*
X97236740Y-48335091D01*
X96919577Y-47860423D01*
X96624680Y-47663379D01*
X96642288Y-47574855D01*
X96919577Y-47389577D01*
X97236740Y-46914909D01*
X97348113Y-46355000D01*
X97236740Y-45795091D01*
X96919577Y-45320423D01*
X96567242Y-45085000D01*
X96919577Y-44849577D01*
X97236740Y-44374909D01*
X97348113Y-43815000D01*
X97236740Y-43255091D01*
X96919577Y-42780423D01*
X96567242Y-42545000D01*
X96919577Y-42309577D01*
X97236740Y-41834909D01*
X97348113Y-41275000D01*
X97236740Y-40715091D01*
X96919577Y-40240423D01*
X96567242Y-40005000D01*
X96919577Y-39769577D01*
X97236740Y-39294909D01*
X97348113Y-38735000D01*
X97236740Y-38175091D01*
X96919577Y-37700423D01*
X96567242Y-37465000D01*
X96919577Y-37229577D01*
X97236740Y-36754909D01*
X97348113Y-36195000D01*
X97236740Y-35635091D01*
X96919577Y-35160423D01*
X96567242Y-34925000D01*
X96919577Y-34689577D01*
X97236740Y-34214909D01*
X97348113Y-33655000D01*
X97236740Y-33095091D01*
X96919577Y-32620423D01*
X96567242Y-32385000D01*
X96919577Y-32149577D01*
X97236740Y-31674909D01*
X97348113Y-31115000D01*
X97236740Y-30555091D01*
X96919577Y-30080423D01*
X96798894Y-29999785D01*
X96932765Y-29973157D01*
X97142809Y-29832809D01*
X97283157Y-29622765D01*
X97332440Y-29375000D01*
X97332440Y-27775000D01*
X97283157Y-27527235D01*
X97142809Y-27317191D01*
X96932765Y-27176843D01*
X96685000Y-27127560D01*
X95085000Y-27127560D01*
X94837235Y-27176843D01*
X94627191Y-27317191D01*
X94615260Y-27335047D01*
X94128668Y-26848456D01*
X94083477Y-26780823D01*
X93815546Y-26601797D01*
X93579274Y-26554800D01*
X93579273Y-26554800D01*
X93499500Y-26538932D01*
X93419727Y-26554800D01*
X64695272Y-26554800D01*
X64615499Y-26538932D01*
X64535726Y-26554800D01*
X64299454Y-26601797D01*
X64031523Y-26780823D01*
X63986334Y-26848453D01*
X63276508Y-27558279D01*
X63264577Y-27540423D01*
X62789909Y-27223260D01*
X62371333Y-27140000D01*
X62088667Y-27140000D01*
X61670091Y-27223260D01*
X61195423Y-27540423D01*
X60878260Y-28015091D01*
X60766887Y-28575000D01*
X60878260Y-29134909D01*
X61195423Y-29609577D01*
X61547758Y-29845000D01*
X61195423Y-30080423D01*
X60878260Y-30555091D01*
X60766887Y-31115000D01*
X60878260Y-31674909D01*
X61195423Y-32149577D01*
X61547758Y-32385000D01*
X61195423Y-32620423D01*
X60878260Y-33095091D01*
X60766887Y-33655000D01*
X60878260Y-34214909D01*
X61195423Y-34689577D01*
X61547758Y-34925000D01*
X61195423Y-35160423D01*
X60878260Y-35635091D01*
X60766887Y-36195000D01*
X60878260Y-36754909D01*
X61195423Y-37229577D01*
X61547758Y-37465000D01*
X61195423Y-37700423D01*
X60878260Y-38175091D01*
X60766887Y-38735000D01*
X60878260Y-39294909D01*
X61195423Y-39769577D01*
X61547758Y-40005000D01*
X61195423Y-40240423D01*
X60878260Y-40715091D01*
X60766887Y-41275000D01*
X60767405Y-41277604D01*
X60196000Y-40706199D01*
X60196000Y-34884477D01*
X60210888Y-34809630D01*
X60196000Y-34734783D01*
X60196000Y-34734778D01*
X60151904Y-34513093D01*
X59983929Y-34261701D01*
X59920473Y-34219301D01*
X56331701Y-30630530D01*
X56289299Y-30567071D01*
X56037907Y-30399096D01*
X55829855Y-30357712D01*
X55644577Y-30080423D01*
X55523894Y-29999785D01*
X55657765Y-29973157D01*
X55867809Y-29832809D01*
X56008157Y-29622765D01*
X56057440Y-29375000D01*
X56057440Y-27775000D01*
X56008157Y-27527235D01*
X55867809Y-27317191D01*
X55657765Y-27176843D01*
X55410000Y-27127560D01*
X53810000Y-27127560D01*
X53562235Y-27176843D01*
X53352191Y-27317191D01*
X53211843Y-27527235D01*
X53162560Y-27775000D01*
X53162560Y-29375000D01*
X53211843Y-29622765D01*
X53352191Y-29832809D01*
X53562235Y-29973157D01*
X53696106Y-29999785D01*
X53575423Y-30080423D01*
X53258260Y-30555091D01*
X53146887Y-31115000D01*
X53258260Y-31674909D01*
X53575423Y-32149577D01*
X53927758Y-32385000D01*
X53575423Y-32620423D01*
X53258260Y-33095091D01*
X53146887Y-33655000D01*
X53258260Y-34214909D01*
X53575423Y-34689577D01*
X53850001Y-34873044D01*
X53850000Y-34976956D01*
X53575423Y-35160423D01*
X53258260Y-35635091D01*
X53146887Y-36195000D01*
X53258260Y-36754909D01*
X53575423Y-37229577D01*
X53927758Y-37465000D01*
X53575423Y-37700423D01*
X53258260Y-38175091D01*
X53146887Y-38735000D01*
X53258260Y-39294909D01*
X53575423Y-39769577D01*
X53927758Y-40005000D01*
X53575423Y-40240423D01*
X53258260Y-40715091D01*
X53146887Y-41275000D01*
X53211312Y-41598887D01*
X52950228Y-41859971D01*
X52886772Y-41902371D01*
X52844372Y-41965827D01*
X52844371Y-41965828D01*
X52718797Y-42153763D01*
X52659812Y-42450300D01*
X48970000Y-42450300D01*
X48970000Y-22935000D01*
X128830000Y-22935000D01*
X128830001Y-72315000D01*
G36*
X54737000Y-43688000D02*
X54757000Y-43688000D01*
X54757000Y-43942000D01*
X54737000Y-43942000D01*
X54737000Y-45085629D01*
X54959041Y-45206914D01*
X54975300Y-45199219D01*
X54975300Y-48040453D01*
X54960412Y-48115300D01*
X54975300Y-48190147D01*
X54975300Y-48190151D01*
X55019396Y-48411836D01*
X55187371Y-48663229D01*
X55250830Y-48705631D01*
X65276312Y-58731114D01*
X65211887Y-59055000D01*
X65323260Y-59614909D01*
X65640423Y-60089577D01*
X65992758Y-60325000D01*
X65640423Y-60560423D01*
X65323260Y-61035091D01*
X65211887Y-61595000D01*
X65276312Y-61918887D01*
X65025730Y-62169469D01*
X64962271Y-62211871D01*
X64794296Y-62463264D01*
X64750200Y-62684949D01*
X64750200Y-62684953D01*
X64735312Y-62759800D01*
X64750200Y-62834647D01*
X64750201Y-64543748D01*
X64735312Y-64618600D01*
X64794297Y-64915137D01*
X64867012Y-65023962D01*
X64962272Y-65166529D01*
X65025727Y-65208928D01*
X65591501Y-65774704D01*
X65443959Y-65937577D01*
X65283096Y-66325961D01*
X65405085Y-66548000D01*
X66548000Y-66548000D01*
X66548000Y-66528000D01*
X66802000Y-66528000D01*
X66802000Y-66548000D01*
X67944915Y-66548000D01*
X68066904Y-66325961D01*
X67906041Y-65937577D01*
X67742718Y-65757283D01*
X72510473Y-60989529D01*
X72573929Y-60947129D01*
X72741904Y-60695737D01*
X72786000Y-60474052D01*
X72786000Y-60474048D01*
X72800888Y-60399201D01*
X72786000Y-60324354D01*
X72786000Y-54931701D01*
X73039203Y-54678498D01*
X73260423Y-55009577D01*
X73612758Y-55245000D01*
X73260423Y-55480423D01*
X72943260Y-55955091D01*
X72831887Y-56515000D01*
X72943260Y-57074909D01*
X73260423Y-57549577D01*
X73612758Y-57785000D01*
X73260423Y-58020423D01*
X72943260Y-58495091D01*
X72831887Y-59055000D01*
X72943260Y-59614909D01*
X73260423Y-60089577D01*
X73612758Y-60325000D01*
X73260423Y-60560423D01*
X72943260Y-61035091D01*
X72831887Y-61595000D01*
X72943260Y-62154909D01*
X73260423Y-62629577D01*
X73644108Y-62885947D01*
X73439866Y-62982611D01*
X73063959Y-63397577D01*
X72903096Y-63785961D01*
X73025085Y-64008000D01*
X74168000Y-64008000D01*
X74168000Y-63988000D01*
X74422000Y-63988000D01*
X74422000Y-64008000D01*
X75564915Y-64008000D01*
X75686904Y-63785961D01*
X75526041Y-63397577D01*
X75150134Y-62982611D01*
X74945892Y-62885947D01*
X75329577Y-62629577D01*
X75646740Y-62154909D01*
X75758113Y-61595000D01*
X75646740Y-61035091D01*
X75329577Y-60560423D01*
X74977242Y-60325000D01*
X75329577Y-60089577D01*
X75646740Y-59614909D01*
X75758113Y-59055000D01*
X75646740Y-58495091D01*
X75329577Y-58020423D01*
X74977242Y-57785000D01*
X75329577Y-57549577D01*
X75515786Y-57270896D01*
X75716837Y-57230904D01*
X75968229Y-57062929D01*
X76010631Y-56999470D01*
X77149802Y-55860300D01*
X79991597Y-55860300D01*
X79928260Y-55955091D01*
X79816887Y-56515000D01*
X79928260Y-57074909D01*
X80245423Y-57549577D01*
X80597758Y-57785000D01*
X80245423Y-58020423D01*
X79928260Y-58495091D01*
X79816887Y-59055000D01*
X79928260Y-59614909D01*
X80245423Y-60089577D01*
X80597758Y-60325000D01*
X80245423Y-60560423D01*
X79928260Y-61035091D01*
X79816887Y-61595000D01*
X79928260Y-62154909D01*
X80245423Y-62629577D01*
X80597758Y-62865000D01*
X80245423Y-63100423D01*
X79928260Y-63575091D01*
X79816887Y-64135000D01*
X79928260Y-64694909D01*
X79970082Y-64757500D01*
X75573640Y-64757500D01*
X75686904Y-64484039D01*
X75564915Y-64262000D01*
X74422000Y-64262000D01*
X74422000Y-64282000D01*
X74168000Y-64282000D01*
X74168000Y-64262000D01*
X73025085Y-64262000D01*
X72903096Y-64484039D01*
X73016360Y-64757500D01*
X71123146Y-64757500D01*
X71048299Y-64742612D01*
X70973452Y-64757500D01*
X70973448Y-64757500D01*
X70751763Y-64801596D01*
X70500371Y-64969571D01*
X70457971Y-65033027D01*
X68449399Y-67041600D01*
X68059630Y-67041600D01*
X68066904Y-67024039D01*
X67944915Y-66802000D01*
X66802000Y-66802000D01*
X66802000Y-66822000D01*
X66548000Y-66822000D01*
X66548000Y-66802000D01*
X65405085Y-66802000D01*
X65283096Y-67024039D01*
X65290370Y-67041600D01*
X57226702Y-67041600D01*
X56375631Y-66190530D01*
X56333229Y-66127071D01*
X56081837Y-65959096D01*
X55892474Y-65921429D01*
X55680625Y-65604375D01*
X55382239Y-65405000D01*
X55680625Y-65205625D01*
X56008839Y-64714418D01*
X56124092Y-64135000D01*
X56008839Y-63555582D01*
X55680625Y-63064375D01*
X55382239Y-62865000D01*
X55680625Y-62665625D01*
X56008839Y-62174418D01*
X56124092Y-61595000D01*
X56008839Y-61015582D01*
X55680625Y-60524375D01*
X55382239Y-60325000D01*
X55680625Y-60125625D01*
X56008839Y-59634418D01*
X56124092Y-59055000D01*
X56008839Y-58475582D01*
X55680625Y-57984375D01*
X55382239Y-57785000D01*
X55680625Y-57585625D01*
X56008839Y-57094418D01*
X56124092Y-56515000D01*
X56008839Y-55935582D01*
X55680625Y-55444375D01*
X55382239Y-55245000D01*
X55680625Y-55045625D01*
X56008839Y-54554418D01*
X56124092Y-53975000D01*
X56008839Y-53395582D01*
X55680625Y-52904375D01*
X55658967Y-52889904D01*
X55819698Y-52823327D01*
X55998327Y-52644699D01*
X56095000Y-52411310D01*
X56095000Y-51720750D01*
X55936250Y-51562000D01*
X54737000Y-51562000D01*
X54737000Y-51582000D01*
X54483000Y-51582000D01*
X54483000Y-51562000D01*
X54463000Y-51562000D01*
X54463000Y-51308000D01*
X54483000Y-51308000D01*
X54483000Y-50108750D01*
X54737000Y-50108750D01*
X54737000Y-51308000D01*
X55936250Y-51308000D01*
X56095000Y-51149250D01*
X56095000Y-50458690D01*
X55998327Y-50225301D01*
X55819698Y-50046673D01*
X55586309Y-49950000D01*
X54895750Y-49950000D01*
X54737000Y-50108750D01*
X54483000Y-50108750D01*
X54324250Y-49950000D01*
X54194700Y-49950000D01*
X54194700Y-45175555D01*
X54260959Y-45206914D01*
X54483000Y-45085629D01*
X54483000Y-43942000D01*
X54463000Y-43942000D01*
X54463000Y-43688000D01*
X54483000Y-43688000D01*
X54483000Y-43668000D01*
X54737000Y-43668000D01*
X54737000Y-43688000D01*
X54737000Y-43688000D01*
G37*
X54737000Y-43688000D02*
X54757000Y-43688000D01*
X54757000Y-43942000D01*
X54737000Y-43942000D01*
X54737000Y-45085629D01*
X54959041Y-45206914D01*
X54975300Y-45199219D01*
X54975300Y-48040453D01*
X54960412Y-48115300D01*
X54975300Y-48190147D01*
X54975300Y-48190151D01*
X55019396Y-48411836D01*
X55187371Y-48663229D01*
X55250830Y-48705631D01*
X65276312Y-58731114D01*
X65211887Y-59055000D01*
X65323260Y-59614909D01*
X65640423Y-60089577D01*
X65992758Y-60325000D01*
X65640423Y-60560423D01*
X65323260Y-61035091D01*
X65211887Y-61595000D01*
X65276312Y-61918887D01*
X65025730Y-62169469D01*
X64962271Y-62211871D01*
X64794296Y-62463264D01*
X64750200Y-62684949D01*
X64750200Y-62684953D01*
X64735312Y-62759800D01*
X64750200Y-62834647D01*
X64750201Y-64543748D01*
X64735312Y-64618600D01*
X64794297Y-64915137D01*
X64867012Y-65023962D01*
X64962272Y-65166529D01*
X65025727Y-65208928D01*
X65591501Y-65774704D01*
X65443959Y-65937577D01*
X65283096Y-66325961D01*
X65405085Y-66548000D01*
X66548000Y-66548000D01*
X66548000Y-66528000D01*
X66802000Y-66528000D01*
X66802000Y-66548000D01*
X67944915Y-66548000D01*
X68066904Y-66325961D01*
X67906041Y-65937577D01*
X67742718Y-65757283D01*
X72510473Y-60989529D01*
X72573929Y-60947129D01*
X72741904Y-60695737D01*
X72786000Y-60474052D01*
X72786000Y-60474048D01*
X72800888Y-60399201D01*
X72786000Y-60324354D01*
X72786000Y-54931701D01*
X73039203Y-54678498D01*
X73260423Y-55009577D01*
X73612758Y-55245000D01*
X73260423Y-55480423D01*
X72943260Y-55955091D01*
X72831887Y-56515000D01*
X72943260Y-57074909D01*
X73260423Y-57549577D01*
X73612758Y-57785000D01*
X73260423Y-58020423D01*
X72943260Y-58495091D01*
X72831887Y-59055000D01*
X72943260Y-59614909D01*
X73260423Y-60089577D01*
X73612758Y-60325000D01*
X73260423Y-60560423D01*
X72943260Y-61035091D01*
X72831887Y-61595000D01*
X72943260Y-62154909D01*
X73260423Y-62629577D01*
X73644108Y-62885947D01*
X73439866Y-62982611D01*
X73063959Y-63397577D01*
X72903096Y-63785961D01*
X73025085Y-64008000D01*
X74168000Y-64008000D01*
X74168000Y-63988000D01*
X74422000Y-63988000D01*
X74422000Y-64008000D01*
X75564915Y-64008000D01*
X75686904Y-63785961D01*
X75526041Y-63397577D01*
X75150134Y-62982611D01*
X74945892Y-62885947D01*
X75329577Y-62629577D01*
X75646740Y-62154909D01*
X75758113Y-61595000D01*
X75646740Y-61035091D01*
X75329577Y-60560423D01*
X74977242Y-60325000D01*
X75329577Y-60089577D01*
X75646740Y-59614909D01*
X75758113Y-59055000D01*
X75646740Y-58495091D01*
X75329577Y-58020423D01*
X74977242Y-57785000D01*
X75329577Y-57549577D01*
X75515786Y-57270896D01*
X75716837Y-57230904D01*
X75968229Y-57062929D01*
X76010631Y-56999470D01*
X77149802Y-55860300D01*
X79991597Y-55860300D01*
X79928260Y-55955091D01*
X79816887Y-56515000D01*
X79928260Y-57074909D01*
X80245423Y-57549577D01*
X80597758Y-57785000D01*
X80245423Y-58020423D01*
X79928260Y-58495091D01*
X79816887Y-59055000D01*
X79928260Y-59614909D01*
X80245423Y-60089577D01*
X80597758Y-60325000D01*
X80245423Y-60560423D01*
X79928260Y-61035091D01*
X79816887Y-61595000D01*
X79928260Y-62154909D01*
X80245423Y-62629577D01*
X80597758Y-62865000D01*
X80245423Y-63100423D01*
X79928260Y-63575091D01*
X79816887Y-64135000D01*
X79928260Y-64694909D01*
X79970082Y-64757500D01*
X75573640Y-64757500D01*
X75686904Y-64484039D01*
X75564915Y-64262000D01*
X74422000Y-64262000D01*
X74422000Y-64282000D01*
X74168000Y-64282000D01*
X74168000Y-64262000D01*
X73025085Y-64262000D01*
X72903096Y-64484039D01*
X73016360Y-64757500D01*
X71123146Y-64757500D01*
X71048299Y-64742612D01*
X70973452Y-64757500D01*
X70973448Y-64757500D01*
X70751763Y-64801596D01*
X70500371Y-64969571D01*
X70457971Y-65033027D01*
X68449399Y-67041600D01*
X68059630Y-67041600D01*
X68066904Y-67024039D01*
X67944915Y-66802000D01*
X66802000Y-66802000D01*
X66802000Y-66822000D01*
X66548000Y-66822000D01*
X66548000Y-66802000D01*
X65405085Y-66802000D01*
X65283096Y-67024039D01*
X65290370Y-67041600D01*
X57226702Y-67041600D01*
X56375631Y-66190530D01*
X56333229Y-66127071D01*
X56081837Y-65959096D01*
X55892474Y-65921429D01*
X55680625Y-65604375D01*
X55382239Y-65405000D01*
X55680625Y-65205625D01*
X56008839Y-64714418D01*
X56124092Y-64135000D01*
X56008839Y-63555582D01*
X55680625Y-63064375D01*
X55382239Y-62865000D01*
X55680625Y-62665625D01*
X56008839Y-62174418D01*
X56124092Y-61595000D01*
X56008839Y-61015582D01*
X55680625Y-60524375D01*
X55382239Y-60325000D01*
X55680625Y-60125625D01*
X56008839Y-59634418D01*
X56124092Y-59055000D01*
X56008839Y-58475582D01*
X55680625Y-57984375D01*
X55382239Y-57785000D01*
X55680625Y-57585625D01*
X56008839Y-57094418D01*
X56124092Y-56515000D01*
X56008839Y-55935582D01*
X55680625Y-55444375D01*
X55382239Y-55245000D01*
X55680625Y-55045625D01*
X56008839Y-54554418D01*
X56124092Y-53975000D01*
X56008839Y-53395582D01*
X55680625Y-52904375D01*
X55658967Y-52889904D01*
X55819698Y-52823327D01*
X55998327Y-52644699D01*
X56095000Y-52411310D01*
X56095000Y-51720750D01*
X55936250Y-51562000D01*
X54737000Y-51562000D01*
X54737000Y-51582000D01*
X54483000Y-51582000D01*
X54483000Y-51562000D01*
X54463000Y-51562000D01*
X54463000Y-51308000D01*
X54483000Y-51308000D01*
X54483000Y-50108750D01*
X54737000Y-50108750D01*
X54737000Y-51308000D01*
X55936250Y-51308000D01*
X56095000Y-51149250D01*
X56095000Y-50458690D01*
X55998327Y-50225301D01*
X55819698Y-50046673D01*
X55586309Y-49950000D01*
X54895750Y-49950000D01*
X54737000Y-50108750D01*
X54483000Y-50108750D01*
X54324250Y-49950000D01*
X54194700Y-49950000D01*
X54194700Y-45175555D01*
X54260959Y-45206914D01*
X54483000Y-45085629D01*
X54483000Y-43942000D01*
X54463000Y-43942000D01*
X54463000Y-43688000D01*
X54483000Y-43688000D01*
X54483000Y-43668000D01*
X54737000Y-43668000D01*
X54737000Y-43688000D01*
G36*
X80979784Y-41404650D02*
X81155000Y-41477227D01*
X81155000Y-41755848D01*
X81140111Y-41830700D01*
X81155001Y-41905557D01*
X81155000Y-45129598D01*
X75543901Y-50740698D01*
X75526041Y-50697577D01*
X75150134Y-50282611D01*
X74945892Y-50185947D01*
X75329577Y-49929577D01*
X75646740Y-49454909D01*
X75758113Y-48895000D01*
X75646740Y-48335091D01*
X75329577Y-47860423D01*
X74854909Y-47543260D01*
X74436333Y-47460000D01*
X74153667Y-47460000D01*
X73735091Y-47543260D01*
X73260423Y-47860423D01*
X72943260Y-48335091D01*
X72831887Y-48895000D01*
X72943260Y-49454909D01*
X73260423Y-49929577D01*
X73644108Y-50185947D01*
X73439866Y-50282611D01*
X73063959Y-50697577D01*
X72903096Y-51085961D01*
X73025085Y-51308000D01*
X74168000Y-51308000D01*
X74168000Y-51288000D01*
X74422000Y-51288000D01*
X74422000Y-51308000D01*
X74442000Y-51308000D01*
X74442000Y-51562000D01*
X74422000Y-51562000D01*
X74422000Y-51582000D01*
X74168000Y-51582000D01*
X74168000Y-51562000D01*
X73025085Y-51562000D01*
X72903096Y-51784039D01*
X73063959Y-52172423D01*
X73221626Y-52346472D01*
X71541528Y-54026571D01*
X71478072Y-54068971D01*
X71435672Y-54132427D01*
X71435671Y-54132428D01*
X71310097Y-54320363D01*
X71286916Y-54436904D01*
X71251112Y-54616900D01*
X71266001Y-54691752D01*
X71266000Y-60084398D01*
X68560300Y-62790099D01*
X68560300Y-51894501D01*
X78871379Y-41583423D01*
X79046596Y-41656000D01*
X79703404Y-41656000D01*
X80310216Y-41404650D01*
X80645000Y-41069866D01*
X80979784Y-41404650D01*
X80979784Y-41404650D01*
G37*
X80979784Y-41404650D02*
X81155000Y-41477227D01*
X81155000Y-41755848D01*
X81140111Y-41830700D01*
X81155001Y-41905557D01*
X81155000Y-45129598D01*
X75543901Y-50740698D01*
X75526041Y-50697577D01*
X75150134Y-50282611D01*
X74945892Y-50185947D01*
X75329577Y-49929577D01*
X75646740Y-49454909D01*
X75758113Y-48895000D01*
X75646740Y-48335091D01*
X75329577Y-47860423D01*
X74854909Y-47543260D01*
X74436333Y-47460000D01*
X74153667Y-47460000D01*
X73735091Y-47543260D01*
X73260423Y-47860423D01*
X72943260Y-48335091D01*
X72831887Y-48895000D01*
X72943260Y-49454909D01*
X73260423Y-49929577D01*
X73644108Y-50185947D01*
X73439866Y-50282611D01*
X73063959Y-50697577D01*
X72903096Y-51085961D01*
X73025085Y-51308000D01*
X74168000Y-51308000D01*
X74168000Y-51288000D01*
X74422000Y-51288000D01*
X74422000Y-51308000D01*
X74442000Y-51308000D01*
X74442000Y-51562000D01*
X74422000Y-51562000D01*
X74422000Y-51582000D01*
X74168000Y-51582000D01*
X74168000Y-51562000D01*
X73025085Y-51562000D01*
X72903096Y-51784039D01*
X73063959Y-52172423D01*
X73221626Y-52346472D01*
X71541528Y-54026571D01*
X71478072Y-54068971D01*
X71435672Y-54132427D01*
X71435671Y-54132428D01*
X71310097Y-54320363D01*
X71286916Y-54436904D01*
X71251112Y-54616900D01*
X71266001Y-54691752D01*
X71266000Y-60084398D01*
X68560300Y-62790099D01*
X68560300Y-51894501D01*
X78871379Y-41583423D01*
X79046596Y-41656000D01*
X79703404Y-41656000D01*
X80310216Y-41404650D01*
X80645000Y-41069866D01*
X80979784Y-41404650D01*
G36*
X94850423Y-42309577D02*
X95202758Y-42545000D01*
X94850423Y-42780423D01*
X94533260Y-43255091D01*
X94421887Y-43815000D01*
X94486312Y-44138887D01*
X94275230Y-44349969D01*
X94211771Y-44392371D01*
X94043796Y-44643764D01*
X93999700Y-44865449D01*
X93999700Y-44865453D01*
X93984812Y-44940300D01*
X93999700Y-45015147D01*
X93999701Y-46862097D01*
X90140759Y-50721040D01*
X90131041Y-50697577D01*
X89755134Y-50282611D01*
X89550892Y-50185947D01*
X89934577Y-49929577D01*
X90251740Y-49454909D01*
X90363113Y-48895000D01*
X90251740Y-48335091D01*
X89934577Y-47860423D01*
X89459909Y-47543260D01*
X89041333Y-47460000D01*
X88758667Y-47460000D01*
X88340091Y-47543260D01*
X87865423Y-47860423D01*
X87548260Y-48335091D01*
X87436887Y-48895000D01*
X87548260Y-49454909D01*
X87865423Y-49929577D01*
X88249108Y-50185947D01*
X88044866Y-50282611D01*
X87668959Y-50697577D01*
X87508096Y-51085961D01*
X87630085Y-51308000D01*
X88773000Y-51308000D01*
X88773000Y-51288000D01*
X89027000Y-51288000D01*
X89027000Y-51308000D01*
X89047000Y-51308000D01*
X89047000Y-51562000D01*
X89027000Y-51562000D01*
X89027000Y-51582000D01*
X88773000Y-51582000D01*
X88773000Y-51562000D01*
X87630085Y-51562000D01*
X87508096Y-51784039D01*
X87524813Y-51824400D01*
X83869502Y-51824400D01*
X82995631Y-50950530D01*
X82953229Y-50887071D01*
X82701837Y-50719096D01*
X82500786Y-50679104D01*
X82314577Y-50400423D01*
X82208082Y-50329265D01*
X82439698Y-50233327D01*
X82618327Y-50054699D01*
X82715000Y-49821310D01*
X82715000Y-49180750D01*
X82556250Y-49022000D01*
X81407000Y-49022000D01*
X81407000Y-49042000D01*
X81153000Y-49042000D01*
X81153000Y-49022000D01*
X81133000Y-49022000D01*
X81133000Y-48768000D01*
X81153000Y-48768000D01*
X81153000Y-48748000D01*
X81407000Y-48748000D01*
X81407000Y-48768000D01*
X82556250Y-48768000D01*
X82715000Y-48609250D01*
X82715000Y-47968690D01*
X82618327Y-47735301D01*
X82439698Y-47556673D01*
X82206309Y-47460000D01*
X81713501Y-47460000D01*
X86013202Y-43160300D01*
X93559553Y-43160300D01*
X93634400Y-43175188D01*
X93709247Y-43160300D01*
X93709252Y-43160300D01*
X93930937Y-43116204D01*
X94182329Y-42948229D01*
X94224731Y-42884770D01*
X94830196Y-42279305D01*
X94850423Y-42309577D01*
X94850423Y-42309577D01*
G37*
X94850423Y-42309577D02*
X95202758Y-42545000D01*
X94850423Y-42780423D01*
X94533260Y-43255091D01*
X94421887Y-43815000D01*
X94486312Y-44138887D01*
X94275230Y-44349969D01*
X94211771Y-44392371D01*
X94043796Y-44643764D01*
X93999700Y-44865449D01*
X93999700Y-44865453D01*
X93984812Y-44940300D01*
X93999700Y-45015147D01*
X93999701Y-46862097D01*
X90140759Y-50721040D01*
X90131041Y-50697577D01*
X89755134Y-50282611D01*
X89550892Y-50185947D01*
X89934577Y-49929577D01*
X90251740Y-49454909D01*
X90363113Y-48895000D01*
X90251740Y-48335091D01*
X89934577Y-47860423D01*
X89459909Y-47543260D01*
X89041333Y-47460000D01*
X88758667Y-47460000D01*
X88340091Y-47543260D01*
X87865423Y-47860423D01*
X87548260Y-48335091D01*
X87436887Y-48895000D01*
X87548260Y-49454909D01*
X87865423Y-49929577D01*
X88249108Y-50185947D01*
X88044866Y-50282611D01*
X87668959Y-50697577D01*
X87508096Y-51085961D01*
X87630085Y-51308000D01*
X88773000Y-51308000D01*
X88773000Y-51288000D01*
X89027000Y-51288000D01*
X89027000Y-51308000D01*
X89047000Y-51308000D01*
X89047000Y-51562000D01*
X89027000Y-51562000D01*
X89027000Y-51582000D01*
X88773000Y-51582000D01*
X88773000Y-51562000D01*
X87630085Y-51562000D01*
X87508096Y-51784039D01*
X87524813Y-51824400D01*
X83869502Y-51824400D01*
X82995631Y-50950530D01*
X82953229Y-50887071D01*
X82701837Y-50719096D01*
X82500786Y-50679104D01*
X82314577Y-50400423D01*
X82208082Y-50329265D01*
X82439698Y-50233327D01*
X82618327Y-50054699D01*
X82715000Y-49821310D01*
X82715000Y-49180750D01*
X82556250Y-49022000D01*
X81407000Y-49022000D01*
X81407000Y-49042000D01*
X81153000Y-49042000D01*
X81153000Y-49022000D01*
X81133000Y-49022000D01*
X81133000Y-48768000D01*
X81153000Y-48768000D01*
X81153000Y-48748000D01*
X81407000Y-48748000D01*
X81407000Y-48768000D01*
X82556250Y-48768000D01*
X82715000Y-48609250D01*
X82715000Y-47968690D01*
X82618327Y-47735301D01*
X82439698Y-47556673D01*
X82206309Y-47460000D01*
X81713501Y-47460000D01*
X86013202Y-43160300D01*
X93559553Y-43160300D01*
X93634400Y-43175188D01*
X93709247Y-43160300D01*
X93709252Y-43160300D01*
X93930937Y-43116204D01*
X94182329Y-42948229D01*
X94224731Y-42884770D01*
X94830196Y-42279305D01*
X94850423Y-42309577D01*
G36*
X96012000Y-51308000D02*
X96032000Y-51308000D01*
X96032000Y-51562000D01*
X96012000Y-51562000D01*
X96012000Y-51582000D01*
X95758000Y-51582000D01*
X95758000Y-51562000D01*
X95738000Y-51562000D01*
X95738000Y-51308000D01*
X95758000Y-51308000D01*
X95758000Y-51288000D01*
X96012000Y-51288000D01*
X96012000Y-51308000D01*
X96012000Y-51308000D01*
G37*
X96012000Y-51308000D02*
X96032000Y-51308000D01*
X96032000Y-51562000D01*
X96012000Y-51562000D01*
X96012000Y-51582000D01*
X95758000Y-51582000D01*
X95758000Y-51562000D01*
X95738000Y-51562000D01*
X95738000Y-51308000D01*
X95758000Y-51308000D01*
X95758000Y-51288000D01*
X96012000Y-51288000D01*
X96012000Y-51308000D01*
G36*
X75899784Y-41404650D02*
X76506596Y-41656000D01*
X76649198Y-41656000D01*
X67787763Y-50517436D01*
X67709577Y-50400423D01*
X67603082Y-50329265D01*
X67834698Y-50233327D01*
X68013327Y-50054699D01*
X68110000Y-49821310D01*
X68110000Y-49180750D01*
X67951250Y-49022000D01*
X66802000Y-49022000D01*
X66802000Y-49042000D01*
X66548000Y-49042000D01*
X66548000Y-49022000D01*
X66528000Y-49022000D01*
X66528000Y-48768000D01*
X66548000Y-48768000D01*
X66548000Y-47618750D01*
X66802000Y-47618750D01*
X66802000Y-48768000D01*
X67951250Y-48768000D01*
X68110000Y-48609250D01*
X68110000Y-47968690D01*
X68013327Y-47735301D01*
X67834698Y-47556673D01*
X67601309Y-47460000D01*
X66960750Y-47460000D01*
X66802000Y-47618750D01*
X66548000Y-47618750D01*
X66389250Y-47460000D01*
X66072400Y-47460000D01*
X66072400Y-41668440D01*
X67691000Y-41668440D01*
X67938765Y-41619157D01*
X68148809Y-41478809D01*
X68230975Y-41355841D01*
X68279784Y-41404650D01*
X68886596Y-41656000D01*
X69543404Y-41656000D01*
X70150216Y-41404650D01*
X70485000Y-41069866D01*
X70819784Y-41404650D01*
X71426596Y-41656000D01*
X72083404Y-41656000D01*
X72690216Y-41404650D01*
X73025000Y-41069866D01*
X73359784Y-41404650D01*
X73966596Y-41656000D01*
X74623404Y-41656000D01*
X75230216Y-41404650D01*
X75565000Y-41069866D01*
X75899784Y-41404650D01*
X75899784Y-41404650D01*
G37*
X75899784Y-41404650D02*
X76506596Y-41656000D01*
X76649198Y-41656000D01*
X67787763Y-50517436D01*
X67709577Y-50400423D01*
X67603082Y-50329265D01*
X67834698Y-50233327D01*
X68013327Y-50054699D01*
X68110000Y-49821310D01*
X68110000Y-49180750D01*
X67951250Y-49022000D01*
X66802000Y-49022000D01*
X66802000Y-49042000D01*
X66548000Y-49042000D01*
X66548000Y-49022000D01*
X66528000Y-49022000D01*
X66528000Y-48768000D01*
X66548000Y-48768000D01*
X66548000Y-47618750D01*
X66802000Y-47618750D01*
X66802000Y-48768000D01*
X67951250Y-48768000D01*
X68110000Y-48609250D01*
X68110000Y-47968690D01*
X68013327Y-47735301D01*
X67834698Y-47556673D01*
X67601309Y-47460000D01*
X66960750Y-47460000D01*
X66802000Y-47618750D01*
X66548000Y-47618750D01*
X66389250Y-47460000D01*
X66072400Y-47460000D01*
X66072400Y-41668440D01*
X67691000Y-41668440D01*
X67938765Y-41619157D01*
X68148809Y-41478809D01*
X68230975Y-41355841D01*
X68279784Y-41404650D01*
X68886596Y-41656000D01*
X69543404Y-41656000D01*
X70150216Y-41404650D01*
X70485000Y-41069866D01*
X70819784Y-41404650D01*
X71426596Y-41656000D01*
X72083404Y-41656000D01*
X72690216Y-41404650D01*
X73025000Y-41069866D01*
X73359784Y-41404650D01*
X73966596Y-41656000D01*
X74623404Y-41656000D01*
X75230216Y-41404650D01*
X75565000Y-41069866D01*
X75899784Y-41404650D01*
G36*
X67751887Y-28575000D02*
X67863260Y-29134909D01*
X68180423Y-29609577D01*
X68455000Y-29793044D01*
X68455001Y-30912773D01*
X68279784Y-30985350D01*
X67945000Y-31320134D01*
X67610216Y-30985350D01*
X67003404Y-30734000D01*
X66346596Y-30734000D01*
X65739784Y-30985350D01*
X65275350Y-31449784D01*
X65024000Y-32056596D01*
X65024000Y-32713404D01*
X65275350Y-33320216D01*
X65739784Y-33784650D01*
X66346596Y-34036000D01*
X67003404Y-34036000D01*
X67610216Y-33784650D01*
X67945000Y-33449866D01*
X68279784Y-33784650D01*
X68886596Y-34036000D01*
X69543404Y-34036000D01*
X70150216Y-33784650D01*
X70485000Y-33449866D01*
X70819784Y-33784650D01*
X71426596Y-34036000D01*
X72083404Y-34036000D01*
X72690216Y-33784650D01*
X73025000Y-33449866D01*
X73359784Y-33784650D01*
X73966596Y-34036000D01*
X74623404Y-34036000D01*
X75230216Y-33784650D01*
X75565000Y-33449866D01*
X75899784Y-33784650D01*
X76506596Y-34036000D01*
X77163404Y-34036000D01*
X77770216Y-33784650D01*
X78105000Y-33449866D01*
X78439784Y-33784650D01*
X79046596Y-34036000D01*
X79703404Y-34036000D01*
X80310216Y-33784650D01*
X80645000Y-33449866D01*
X80979784Y-33784650D01*
X81586596Y-34036000D01*
X82243404Y-34036000D01*
X82850216Y-33784650D01*
X83185000Y-33449866D01*
X83519784Y-33784650D01*
X84126596Y-34036000D01*
X84783404Y-34036000D01*
X85390216Y-33784650D01*
X85725000Y-33449866D01*
X86059784Y-33784650D01*
X86666596Y-34036000D01*
X87323404Y-34036000D01*
X87930216Y-33784650D01*
X88265000Y-33449866D01*
X88599784Y-33784650D01*
X89206596Y-34036000D01*
X89863404Y-34036000D01*
X90470216Y-33784650D01*
X90934650Y-33320216D01*
X91186000Y-32713404D01*
X91186000Y-32056596D01*
X90934650Y-31449784D01*
X90470216Y-30985350D01*
X89863404Y-30734000D01*
X89206596Y-30734000D01*
X88599784Y-30985350D01*
X88265000Y-31320134D01*
X87930216Y-30985350D01*
X87755000Y-30912773D01*
X87755000Y-29793043D01*
X88029577Y-29609577D01*
X88100734Y-29503083D01*
X88196673Y-29734699D01*
X88375302Y-29913327D01*
X88608691Y-30010000D01*
X89249250Y-30010000D01*
X89408000Y-29851250D01*
X89408000Y-28702000D01*
X89662000Y-28702000D01*
X89662000Y-29851250D01*
X89820750Y-30010000D01*
X90461309Y-30010000D01*
X90694698Y-29913327D01*
X90873327Y-29734699D01*
X90970000Y-29501310D01*
X90970000Y-28860750D01*
X90811250Y-28702000D01*
X89662000Y-28702000D01*
X89408000Y-28702000D01*
X89388000Y-28702000D01*
X89388000Y-28448000D01*
X89408000Y-28448000D01*
X89408000Y-28428000D01*
X89662000Y-28428000D01*
X89662000Y-28448000D01*
X90811250Y-28448000D01*
X90970000Y-28289250D01*
X90970000Y-28174800D01*
X93163988Y-28174800D01*
X94080534Y-29091347D01*
X94125723Y-29158977D01*
X94393654Y-29338003D01*
X94437560Y-29346736D01*
X94437560Y-29375000D01*
X94486843Y-29622765D01*
X94627191Y-29832809D01*
X94837235Y-29973157D01*
X94971106Y-29999785D01*
X94850423Y-30080423D01*
X94533260Y-30555091D01*
X94421887Y-31115000D01*
X94486312Y-31438886D01*
X87498621Y-38426577D01*
X87323404Y-38354000D01*
X86666596Y-38354000D01*
X86491379Y-38426577D01*
X85764531Y-37699730D01*
X85722129Y-37636271D01*
X85470737Y-37468296D01*
X85249052Y-37424200D01*
X85249047Y-37424200D01*
X85174200Y-37409312D01*
X85099353Y-37424200D01*
X65418646Y-37424200D01*
X65343799Y-37409312D01*
X65268952Y-37424200D01*
X65268948Y-37424200D01*
X65047263Y-37468296D01*
X64795871Y-37636271D01*
X64753471Y-37699728D01*
X64368727Y-38084471D01*
X64305272Y-38126871D01*
X64137297Y-38378263D01*
X64098967Y-38570963D01*
X64078312Y-38674800D01*
X64093201Y-38749652D01*
X64093201Y-39503968D01*
X64089929Y-39499071D01*
X64026473Y-39456671D01*
X63628688Y-39058886D01*
X63693113Y-38735000D01*
X63581740Y-38175091D01*
X63264577Y-37700423D01*
X62912242Y-37465000D01*
X63264577Y-37229577D01*
X63581740Y-36754909D01*
X63693113Y-36195000D01*
X63581740Y-35635091D01*
X63264577Y-35160423D01*
X62912242Y-34925000D01*
X63264577Y-34689577D01*
X63581740Y-34214909D01*
X63693113Y-33655000D01*
X63581740Y-33095091D01*
X63264577Y-32620423D01*
X62912242Y-32385000D01*
X63264577Y-32149577D01*
X63581740Y-31674909D01*
X63693113Y-31115000D01*
X63581740Y-30555091D01*
X63264577Y-30080423D01*
X62912242Y-29845000D01*
X63264577Y-29609577D01*
X63404181Y-29400645D01*
X63405300Y-29400868D01*
X63485073Y-29385000D01*
X63485074Y-29385000D01*
X63721346Y-29338003D01*
X63989277Y-29158977D01*
X64034468Y-29091344D01*
X64951013Y-28174800D01*
X67831492Y-28174800D01*
X67751887Y-28575000D01*
X67751887Y-28575000D01*
G37*
X67751887Y-28575000D02*
X67863260Y-29134909D01*
X68180423Y-29609577D01*
X68455000Y-29793044D01*
X68455001Y-30912773D01*
X68279784Y-30985350D01*
X67945000Y-31320134D01*
X67610216Y-30985350D01*
X67003404Y-30734000D01*
X66346596Y-30734000D01*
X65739784Y-30985350D01*
X65275350Y-31449784D01*
X65024000Y-32056596D01*
X65024000Y-32713404D01*
X65275350Y-33320216D01*
X65739784Y-33784650D01*
X66346596Y-34036000D01*
X67003404Y-34036000D01*
X67610216Y-33784650D01*
X67945000Y-33449866D01*
X68279784Y-33784650D01*
X68886596Y-34036000D01*
X69543404Y-34036000D01*
X70150216Y-33784650D01*
X70485000Y-33449866D01*
X70819784Y-33784650D01*
X71426596Y-34036000D01*
X72083404Y-34036000D01*
X72690216Y-33784650D01*
X73025000Y-33449866D01*
X73359784Y-33784650D01*
X73966596Y-34036000D01*
X74623404Y-34036000D01*
X75230216Y-33784650D01*
X75565000Y-33449866D01*
X75899784Y-33784650D01*
X76506596Y-34036000D01*
X77163404Y-34036000D01*
X77770216Y-33784650D01*
X78105000Y-33449866D01*
X78439784Y-33784650D01*
X79046596Y-34036000D01*
X79703404Y-34036000D01*
X80310216Y-33784650D01*
X80645000Y-33449866D01*
X80979784Y-33784650D01*
X81586596Y-34036000D01*
X82243404Y-34036000D01*
X82850216Y-33784650D01*
X83185000Y-33449866D01*
X83519784Y-33784650D01*
X84126596Y-34036000D01*
X84783404Y-34036000D01*
X85390216Y-33784650D01*
X85725000Y-33449866D01*
X86059784Y-33784650D01*
X86666596Y-34036000D01*
X87323404Y-34036000D01*
X87930216Y-33784650D01*
X88265000Y-33449866D01*
X88599784Y-33784650D01*
X89206596Y-34036000D01*
X89863404Y-34036000D01*
X90470216Y-33784650D01*
X90934650Y-33320216D01*
X91186000Y-32713404D01*
X91186000Y-32056596D01*
X90934650Y-31449784D01*
X90470216Y-30985350D01*
X89863404Y-30734000D01*
X89206596Y-30734000D01*
X88599784Y-30985350D01*
X88265000Y-31320134D01*
X87930216Y-30985350D01*
X87755000Y-30912773D01*
X87755000Y-29793043D01*
X88029577Y-29609577D01*
X88100734Y-29503083D01*
X88196673Y-29734699D01*
X88375302Y-29913327D01*
X88608691Y-30010000D01*
X89249250Y-30010000D01*
X89408000Y-29851250D01*
X89408000Y-28702000D01*
X89662000Y-28702000D01*
X89662000Y-29851250D01*
X89820750Y-30010000D01*
X90461309Y-30010000D01*
X90694698Y-29913327D01*
X90873327Y-29734699D01*
X90970000Y-29501310D01*
X90970000Y-28860750D01*
X90811250Y-28702000D01*
X89662000Y-28702000D01*
X89408000Y-28702000D01*
X89388000Y-28702000D01*
X89388000Y-28448000D01*
X89408000Y-28448000D01*
X89408000Y-28428000D01*
X89662000Y-28428000D01*
X89662000Y-28448000D01*
X90811250Y-28448000D01*
X90970000Y-28289250D01*
X90970000Y-28174800D01*
X93163988Y-28174800D01*
X94080534Y-29091347D01*
X94125723Y-29158977D01*
X94393654Y-29338003D01*
X94437560Y-29346736D01*
X94437560Y-29375000D01*
X94486843Y-29622765D01*
X94627191Y-29832809D01*
X94837235Y-29973157D01*
X94971106Y-29999785D01*
X94850423Y-30080423D01*
X94533260Y-30555091D01*
X94421887Y-31115000D01*
X94486312Y-31438886D01*
X87498621Y-38426577D01*
X87323404Y-38354000D01*
X86666596Y-38354000D01*
X86491379Y-38426577D01*
X85764531Y-37699730D01*
X85722129Y-37636271D01*
X85470737Y-37468296D01*
X85249052Y-37424200D01*
X85249047Y-37424200D01*
X85174200Y-37409312D01*
X85099353Y-37424200D01*
X65418646Y-37424200D01*
X65343799Y-37409312D01*
X65268952Y-37424200D01*
X65268948Y-37424200D01*
X65047263Y-37468296D01*
X64795871Y-37636271D01*
X64753471Y-37699728D01*
X64368727Y-38084471D01*
X64305272Y-38126871D01*
X64137297Y-38378263D01*
X64098967Y-38570963D01*
X64078312Y-38674800D01*
X64093201Y-38749652D01*
X64093201Y-39503968D01*
X64089929Y-39499071D01*
X64026473Y-39456671D01*
X63628688Y-39058886D01*
X63693113Y-38735000D01*
X63581740Y-38175091D01*
X63264577Y-37700423D01*
X62912242Y-37465000D01*
X63264577Y-37229577D01*
X63581740Y-36754909D01*
X63693113Y-36195000D01*
X63581740Y-35635091D01*
X63264577Y-35160423D01*
X62912242Y-34925000D01*
X63264577Y-34689577D01*
X63581740Y-34214909D01*
X63693113Y-33655000D01*
X63581740Y-33095091D01*
X63264577Y-32620423D01*
X62912242Y-32385000D01*
X63264577Y-32149577D01*
X63581740Y-31674909D01*
X63693113Y-31115000D01*
X63581740Y-30555091D01*
X63264577Y-30080423D01*
X62912242Y-29845000D01*
X63264577Y-29609577D01*
X63404181Y-29400645D01*
X63405300Y-29400868D01*
X63485073Y-29385000D01*
X63485074Y-29385000D01*
X63721346Y-29338003D01*
X63989277Y-29158977D01*
X64034468Y-29091344D01*
X64951013Y-28174800D01*
X67831492Y-28174800D01*
X67751887Y-28575000D01*
G04 #@! TD*
M02*
