G04 #@! TF.GenerationSoftware,KiCad,Pcbnew,5.0.2+dfsg1-1*
G04 #@! TF.CreationDate,2019-08-02T16:39:56+02:00*
G04 #@! TF.ProjectId,Stack-Pointer,53746163-6b2d-4506-9f69-6e7465722e6b,rev?*
G04 #@! TF.SameCoordinates,Original*
G04 #@! TF.FileFunction,Soldermask,Bot*
G04 #@! TF.FilePolarity,Negative*
%FSLAX46Y46*%
G04 Gerber Fmt 4.6, Leading zero omitted, Abs format (unit mm)*
G04 Created by KiCad (PCBNEW 5.0.2+dfsg1-1) date vr 02 aug 2019 16:39:56 CEST*
%MOMM*%
%LPD*%
G01*
G04 APERTURE LIST*
%ADD10C,0.100000*%
G04 APERTURE END LIST*
D10*
G36*
X123935443Y-65780519D02*
X124001627Y-65787037D01*
X124114853Y-65821384D01*
X124171467Y-65838557D01*
X124258311Y-65884977D01*
X124327991Y-65922222D01*
X124363729Y-65951552D01*
X124465186Y-66034814D01*
X124548448Y-66136271D01*
X124577778Y-66172009D01*
X124577779Y-66172011D01*
X124661443Y-66328533D01*
X124678616Y-66385147D01*
X124712963Y-66498373D01*
X124730359Y-66675000D01*
X124712963Y-66851627D01*
X124678616Y-66964853D01*
X124661443Y-67021467D01*
X124592698Y-67150078D01*
X124577778Y-67177991D01*
X124548448Y-67213729D01*
X124465186Y-67315186D01*
X124363729Y-67398448D01*
X124327991Y-67427778D01*
X124327989Y-67427779D01*
X124171467Y-67511443D01*
X124164069Y-67513687D01*
X124001627Y-67562963D01*
X123935443Y-67569481D01*
X123869260Y-67576000D01*
X123780740Y-67576000D01*
X123714557Y-67569481D01*
X123648373Y-67562963D01*
X123485931Y-67513687D01*
X123478533Y-67511443D01*
X123322011Y-67427779D01*
X123322009Y-67427778D01*
X123286271Y-67398448D01*
X123184814Y-67315186D01*
X123101552Y-67213729D01*
X123072222Y-67177991D01*
X123057302Y-67150078D01*
X122988557Y-67021467D01*
X122971384Y-66964853D01*
X122937037Y-66851627D01*
X122919641Y-66675000D01*
X122937037Y-66498373D01*
X122971384Y-66385147D01*
X122988557Y-66328533D01*
X123072221Y-66172011D01*
X123072222Y-66172009D01*
X123101552Y-66136271D01*
X123184814Y-66034814D01*
X123286271Y-65951552D01*
X123322009Y-65922222D01*
X123391689Y-65884977D01*
X123478533Y-65838557D01*
X123535147Y-65821384D01*
X123648373Y-65787037D01*
X123714557Y-65780519D01*
X123780740Y-65774000D01*
X123869260Y-65774000D01*
X123935443Y-65780519D01*
X123935443Y-65780519D01*
G37*
G36*
X54720443Y-65780519D02*
X54786627Y-65787037D01*
X54899853Y-65821384D01*
X54956467Y-65838557D01*
X55043311Y-65884977D01*
X55112991Y-65922222D01*
X55148729Y-65951552D01*
X55250186Y-66034814D01*
X55333448Y-66136271D01*
X55362778Y-66172009D01*
X55362779Y-66172011D01*
X55446443Y-66328533D01*
X55463616Y-66385147D01*
X55497963Y-66498373D01*
X55515359Y-66675000D01*
X55497963Y-66851627D01*
X55463616Y-66964853D01*
X55446443Y-67021467D01*
X55377698Y-67150078D01*
X55362778Y-67177991D01*
X55333448Y-67213729D01*
X55250186Y-67315186D01*
X55148729Y-67398448D01*
X55112991Y-67427778D01*
X55112989Y-67427779D01*
X54956467Y-67511443D01*
X54949069Y-67513687D01*
X54786627Y-67562963D01*
X54720443Y-67569481D01*
X54654260Y-67576000D01*
X54565740Y-67576000D01*
X54499557Y-67569481D01*
X54433373Y-67562963D01*
X54270931Y-67513687D01*
X54263533Y-67511443D01*
X54107011Y-67427779D01*
X54107009Y-67427778D01*
X54071271Y-67398448D01*
X53969814Y-67315186D01*
X53886552Y-67213729D01*
X53857222Y-67177991D01*
X53842302Y-67150078D01*
X53773557Y-67021467D01*
X53756384Y-66964853D01*
X53722037Y-66851627D01*
X53704641Y-66675000D01*
X53722037Y-66498373D01*
X53756384Y-66385147D01*
X53773557Y-66328533D01*
X53857221Y-66172011D01*
X53857222Y-66172009D01*
X53886552Y-66136271D01*
X53969814Y-66034814D01*
X54071271Y-65951552D01*
X54107009Y-65922222D01*
X54176689Y-65884977D01*
X54263533Y-65838557D01*
X54320147Y-65821384D01*
X54433373Y-65787037D01*
X54499557Y-65780519D01*
X54565740Y-65774000D01*
X54654260Y-65774000D01*
X54720443Y-65780519D01*
X54720443Y-65780519D01*
G37*
G36*
X66841821Y-65836313D02*
X66841824Y-65836314D01*
X66841825Y-65836314D01*
X67002239Y-65884975D01*
X67002241Y-65884976D01*
X67002244Y-65884977D01*
X67150078Y-65963995D01*
X67279659Y-66070341D01*
X67386005Y-66199922D01*
X67465023Y-66347756D01*
X67465024Y-66347759D01*
X67465025Y-66347761D01*
X67510713Y-66498375D01*
X67513687Y-66508179D01*
X67530117Y-66675000D01*
X67513687Y-66841821D01*
X67513686Y-66841824D01*
X67513686Y-66841825D01*
X67510713Y-66851627D01*
X67465023Y-67002244D01*
X67386005Y-67150078D01*
X67279659Y-67279659D01*
X67150078Y-67386005D01*
X67002244Y-67465023D01*
X67002241Y-67465024D01*
X67002239Y-67465025D01*
X66841825Y-67513686D01*
X66841824Y-67513686D01*
X66841821Y-67513687D01*
X66716804Y-67526000D01*
X66633196Y-67526000D01*
X66508179Y-67513687D01*
X66508176Y-67513686D01*
X66508175Y-67513686D01*
X66347761Y-67465025D01*
X66347759Y-67465024D01*
X66347756Y-67465023D01*
X66199922Y-67386005D01*
X66070341Y-67279659D01*
X65963995Y-67150078D01*
X65884977Y-67002244D01*
X65839288Y-66851627D01*
X65836314Y-66841825D01*
X65836314Y-66841824D01*
X65836313Y-66841821D01*
X65819883Y-66675000D01*
X65836313Y-66508179D01*
X65839287Y-66498375D01*
X65884975Y-66347761D01*
X65884976Y-66347759D01*
X65884977Y-66347756D01*
X65963995Y-66199922D01*
X66070341Y-66070341D01*
X66199922Y-65963995D01*
X66347756Y-65884977D01*
X66347759Y-65884976D01*
X66347761Y-65884975D01*
X66508175Y-65836314D01*
X66508176Y-65836314D01*
X66508179Y-65836313D01*
X66633196Y-65824000D01*
X66716804Y-65824000D01*
X66841821Y-65836313D01*
X66841821Y-65836313D01*
G37*
G36*
X74461821Y-65836313D02*
X74461824Y-65836314D01*
X74461825Y-65836314D01*
X74622239Y-65884975D01*
X74622241Y-65884976D01*
X74622244Y-65884977D01*
X74770078Y-65963995D01*
X74899659Y-66070341D01*
X75006005Y-66199922D01*
X75085023Y-66347756D01*
X75085024Y-66347759D01*
X75085025Y-66347761D01*
X75130713Y-66498375D01*
X75133687Y-66508179D01*
X75150117Y-66675000D01*
X75133687Y-66841821D01*
X75133686Y-66841824D01*
X75133686Y-66841825D01*
X75130713Y-66851627D01*
X75085023Y-67002244D01*
X75006005Y-67150078D01*
X74899659Y-67279659D01*
X74770078Y-67386005D01*
X74622244Y-67465023D01*
X74622241Y-67465024D01*
X74622239Y-67465025D01*
X74461825Y-67513686D01*
X74461824Y-67513686D01*
X74461821Y-67513687D01*
X74336804Y-67526000D01*
X74253196Y-67526000D01*
X74128179Y-67513687D01*
X74128176Y-67513686D01*
X74128175Y-67513686D01*
X73967761Y-67465025D01*
X73967759Y-67465024D01*
X73967756Y-67465023D01*
X73819922Y-67386005D01*
X73690341Y-67279659D01*
X73583995Y-67150078D01*
X73504977Y-67002244D01*
X73459288Y-66851627D01*
X73456314Y-66841825D01*
X73456314Y-66841824D01*
X73456313Y-66841821D01*
X73439883Y-66675000D01*
X73456313Y-66508179D01*
X73459287Y-66498375D01*
X73504975Y-66347761D01*
X73504976Y-66347759D01*
X73504977Y-66347756D01*
X73583995Y-66199922D01*
X73690341Y-66070341D01*
X73819922Y-65963995D01*
X73967756Y-65884977D01*
X73967759Y-65884976D01*
X73967761Y-65884975D01*
X74128175Y-65836314D01*
X74128176Y-65836314D01*
X74128179Y-65836313D01*
X74253196Y-65824000D01*
X74336804Y-65824000D01*
X74461821Y-65836313D01*
X74461821Y-65836313D01*
G37*
G36*
X89066821Y-65836313D02*
X89066824Y-65836314D01*
X89066825Y-65836314D01*
X89227239Y-65884975D01*
X89227241Y-65884976D01*
X89227244Y-65884977D01*
X89375078Y-65963995D01*
X89504659Y-66070341D01*
X89611005Y-66199922D01*
X89690023Y-66347756D01*
X89690024Y-66347759D01*
X89690025Y-66347761D01*
X89735713Y-66498375D01*
X89738687Y-66508179D01*
X89755117Y-66675000D01*
X89738687Y-66841821D01*
X89738686Y-66841824D01*
X89738686Y-66841825D01*
X89735713Y-66851627D01*
X89690023Y-67002244D01*
X89611005Y-67150078D01*
X89504659Y-67279659D01*
X89375078Y-67386005D01*
X89227244Y-67465023D01*
X89227241Y-67465024D01*
X89227239Y-67465025D01*
X89066825Y-67513686D01*
X89066824Y-67513686D01*
X89066821Y-67513687D01*
X88941804Y-67526000D01*
X88858196Y-67526000D01*
X88733179Y-67513687D01*
X88733176Y-67513686D01*
X88733175Y-67513686D01*
X88572761Y-67465025D01*
X88572759Y-67465024D01*
X88572756Y-67465023D01*
X88424922Y-67386005D01*
X88295341Y-67279659D01*
X88188995Y-67150078D01*
X88109977Y-67002244D01*
X88064288Y-66851627D01*
X88061314Y-66841825D01*
X88061314Y-66841824D01*
X88061313Y-66841821D01*
X88044883Y-66675000D01*
X88061313Y-66508179D01*
X88064287Y-66498375D01*
X88109975Y-66347761D01*
X88109976Y-66347759D01*
X88109977Y-66347756D01*
X88188995Y-66199922D01*
X88295341Y-66070341D01*
X88424922Y-65963995D01*
X88572756Y-65884977D01*
X88572759Y-65884976D01*
X88572761Y-65884975D01*
X88733175Y-65836314D01*
X88733176Y-65836314D01*
X88733179Y-65836313D01*
X88858196Y-65824000D01*
X88941804Y-65824000D01*
X89066821Y-65836313D01*
X89066821Y-65836313D01*
G37*
G36*
X81446821Y-65836313D02*
X81446824Y-65836314D01*
X81446825Y-65836314D01*
X81607239Y-65884975D01*
X81607241Y-65884976D01*
X81607244Y-65884977D01*
X81755078Y-65963995D01*
X81884659Y-66070341D01*
X81991005Y-66199922D01*
X82070023Y-66347756D01*
X82070024Y-66347759D01*
X82070025Y-66347761D01*
X82115713Y-66498375D01*
X82118687Y-66508179D01*
X82135117Y-66675000D01*
X82118687Y-66841821D01*
X82118686Y-66841824D01*
X82118686Y-66841825D01*
X82115713Y-66851627D01*
X82070023Y-67002244D01*
X81991005Y-67150078D01*
X81884659Y-67279659D01*
X81755078Y-67386005D01*
X81607244Y-67465023D01*
X81607241Y-67465024D01*
X81607239Y-67465025D01*
X81446825Y-67513686D01*
X81446824Y-67513686D01*
X81446821Y-67513687D01*
X81321804Y-67526000D01*
X81238196Y-67526000D01*
X81113179Y-67513687D01*
X81113176Y-67513686D01*
X81113175Y-67513686D01*
X80952761Y-67465025D01*
X80952759Y-67465024D01*
X80952756Y-67465023D01*
X80804922Y-67386005D01*
X80675341Y-67279659D01*
X80568995Y-67150078D01*
X80489977Y-67002244D01*
X80444288Y-66851627D01*
X80441314Y-66841825D01*
X80441314Y-66841824D01*
X80441313Y-66841821D01*
X80424883Y-66675000D01*
X80441313Y-66508179D01*
X80444287Y-66498375D01*
X80489975Y-66347761D01*
X80489976Y-66347759D01*
X80489977Y-66347756D01*
X80568995Y-66199922D01*
X80675341Y-66070341D01*
X80804922Y-65963995D01*
X80952756Y-65884977D01*
X80952759Y-65884976D01*
X80952761Y-65884975D01*
X81113175Y-65836314D01*
X81113176Y-65836314D01*
X81113179Y-65836313D01*
X81238196Y-65824000D01*
X81321804Y-65824000D01*
X81446821Y-65836313D01*
X81446821Y-65836313D01*
G37*
G36*
X123935443Y-63240519D02*
X124001627Y-63247037D01*
X124114853Y-63281384D01*
X124171467Y-63298557D01*
X124258311Y-63344977D01*
X124327991Y-63382222D01*
X124363729Y-63411552D01*
X124465186Y-63494814D01*
X124548448Y-63596271D01*
X124577778Y-63632009D01*
X124577779Y-63632011D01*
X124661443Y-63788533D01*
X124678616Y-63845147D01*
X124712963Y-63958373D01*
X124730359Y-64135000D01*
X124712963Y-64311627D01*
X124678616Y-64424853D01*
X124661443Y-64481467D01*
X124592698Y-64610078D01*
X124577778Y-64637991D01*
X124548448Y-64673729D01*
X124465186Y-64775186D01*
X124363729Y-64858448D01*
X124327991Y-64887778D01*
X124327989Y-64887779D01*
X124171467Y-64971443D01*
X124164069Y-64973687D01*
X124001627Y-65022963D01*
X123935442Y-65029482D01*
X123869260Y-65036000D01*
X123780740Y-65036000D01*
X123714558Y-65029482D01*
X123648373Y-65022963D01*
X123485931Y-64973687D01*
X123478533Y-64971443D01*
X123322011Y-64887779D01*
X123322009Y-64887778D01*
X123286271Y-64858448D01*
X123184814Y-64775186D01*
X123101552Y-64673729D01*
X123072222Y-64637991D01*
X123057302Y-64610078D01*
X122988557Y-64481467D01*
X122971384Y-64424853D01*
X122937037Y-64311627D01*
X122919641Y-64135000D01*
X122937037Y-63958373D01*
X122971384Y-63845147D01*
X122988557Y-63788533D01*
X123072221Y-63632011D01*
X123072222Y-63632009D01*
X123101552Y-63596271D01*
X123184814Y-63494814D01*
X123286271Y-63411552D01*
X123322009Y-63382222D01*
X123391689Y-63344977D01*
X123478533Y-63298557D01*
X123535147Y-63281384D01*
X123648373Y-63247037D01*
X123714557Y-63240519D01*
X123780740Y-63234000D01*
X123869260Y-63234000D01*
X123935443Y-63240519D01*
X123935443Y-63240519D01*
G37*
G36*
X54720443Y-63240519D02*
X54786627Y-63247037D01*
X54899853Y-63281384D01*
X54956467Y-63298557D01*
X55043311Y-63344977D01*
X55112991Y-63382222D01*
X55148729Y-63411552D01*
X55250186Y-63494814D01*
X55333448Y-63596271D01*
X55362778Y-63632009D01*
X55362779Y-63632011D01*
X55446443Y-63788533D01*
X55463616Y-63845147D01*
X55497963Y-63958373D01*
X55515359Y-64135000D01*
X55497963Y-64311627D01*
X55463616Y-64424853D01*
X55446443Y-64481467D01*
X55377698Y-64610078D01*
X55362778Y-64637991D01*
X55333448Y-64673729D01*
X55250186Y-64775186D01*
X55148729Y-64858448D01*
X55112991Y-64887778D01*
X55112989Y-64887779D01*
X54956467Y-64971443D01*
X54949069Y-64973687D01*
X54786627Y-65022963D01*
X54720442Y-65029482D01*
X54654260Y-65036000D01*
X54565740Y-65036000D01*
X54499558Y-65029482D01*
X54433373Y-65022963D01*
X54270931Y-64973687D01*
X54263533Y-64971443D01*
X54107011Y-64887779D01*
X54107009Y-64887778D01*
X54071271Y-64858448D01*
X53969814Y-64775186D01*
X53886552Y-64673729D01*
X53857222Y-64637991D01*
X53842302Y-64610078D01*
X53773557Y-64481467D01*
X53756384Y-64424853D01*
X53722037Y-64311627D01*
X53704641Y-64135000D01*
X53722037Y-63958373D01*
X53756384Y-63845147D01*
X53773557Y-63788533D01*
X53857221Y-63632011D01*
X53857222Y-63632009D01*
X53886552Y-63596271D01*
X53969814Y-63494814D01*
X54071271Y-63411552D01*
X54107009Y-63382222D01*
X54176689Y-63344977D01*
X54263533Y-63298557D01*
X54320147Y-63281384D01*
X54433373Y-63247037D01*
X54499557Y-63240519D01*
X54565740Y-63234000D01*
X54654260Y-63234000D01*
X54720443Y-63240519D01*
X54720443Y-63240519D01*
G37*
G36*
X81446821Y-63296313D02*
X81446824Y-63296314D01*
X81446825Y-63296314D01*
X81607239Y-63344975D01*
X81607241Y-63344976D01*
X81607244Y-63344977D01*
X81755078Y-63423995D01*
X81884659Y-63530341D01*
X81991005Y-63659922D01*
X82070023Y-63807756D01*
X82070024Y-63807759D01*
X82070025Y-63807761D01*
X82115713Y-63958375D01*
X82118687Y-63968179D01*
X82135117Y-64135000D01*
X82118687Y-64301821D01*
X82118686Y-64301824D01*
X82118686Y-64301825D01*
X82115713Y-64311627D01*
X82070023Y-64462244D01*
X81991005Y-64610078D01*
X81884659Y-64739659D01*
X81755078Y-64846005D01*
X81607244Y-64925023D01*
X81607241Y-64925024D01*
X81607239Y-64925025D01*
X81446825Y-64973686D01*
X81446824Y-64973686D01*
X81446821Y-64973687D01*
X81321804Y-64986000D01*
X81238196Y-64986000D01*
X81113179Y-64973687D01*
X81113176Y-64973686D01*
X81113175Y-64973686D01*
X80952761Y-64925025D01*
X80952759Y-64925024D01*
X80952756Y-64925023D01*
X80804922Y-64846005D01*
X80675341Y-64739659D01*
X80568995Y-64610078D01*
X80489977Y-64462244D01*
X80444288Y-64311627D01*
X80441314Y-64301825D01*
X80441314Y-64301824D01*
X80441313Y-64301821D01*
X80424883Y-64135000D01*
X80441313Y-63968179D01*
X80444287Y-63958375D01*
X80489975Y-63807761D01*
X80489976Y-63807759D01*
X80489977Y-63807756D01*
X80568995Y-63659922D01*
X80675341Y-63530341D01*
X80804922Y-63423995D01*
X80952756Y-63344977D01*
X80952759Y-63344976D01*
X80952761Y-63344975D01*
X81113175Y-63296314D01*
X81113176Y-63296314D01*
X81113179Y-63296313D01*
X81238196Y-63284000D01*
X81321804Y-63284000D01*
X81446821Y-63296313D01*
X81446821Y-63296313D01*
G37*
G36*
X74461821Y-63296313D02*
X74461824Y-63296314D01*
X74461825Y-63296314D01*
X74622239Y-63344975D01*
X74622241Y-63344976D01*
X74622244Y-63344977D01*
X74770078Y-63423995D01*
X74899659Y-63530341D01*
X75006005Y-63659922D01*
X75085023Y-63807756D01*
X75085024Y-63807759D01*
X75085025Y-63807761D01*
X75130713Y-63958375D01*
X75133687Y-63968179D01*
X75150117Y-64135000D01*
X75133687Y-64301821D01*
X75133686Y-64301824D01*
X75133686Y-64301825D01*
X75130713Y-64311627D01*
X75085023Y-64462244D01*
X75006005Y-64610078D01*
X74899659Y-64739659D01*
X74770078Y-64846005D01*
X74622244Y-64925023D01*
X74622241Y-64925024D01*
X74622239Y-64925025D01*
X74461825Y-64973686D01*
X74461824Y-64973686D01*
X74461821Y-64973687D01*
X74336804Y-64986000D01*
X74253196Y-64986000D01*
X74128179Y-64973687D01*
X74128176Y-64973686D01*
X74128175Y-64973686D01*
X73967761Y-64925025D01*
X73967759Y-64925024D01*
X73967756Y-64925023D01*
X73819922Y-64846005D01*
X73690341Y-64739659D01*
X73583995Y-64610078D01*
X73504977Y-64462244D01*
X73459288Y-64311627D01*
X73456314Y-64301825D01*
X73456314Y-64301824D01*
X73456313Y-64301821D01*
X73439883Y-64135000D01*
X73456313Y-63968179D01*
X73459287Y-63958375D01*
X73504975Y-63807761D01*
X73504976Y-63807759D01*
X73504977Y-63807756D01*
X73583995Y-63659922D01*
X73690341Y-63530341D01*
X73819922Y-63423995D01*
X73967756Y-63344977D01*
X73967759Y-63344976D01*
X73967761Y-63344975D01*
X74128175Y-63296314D01*
X74128176Y-63296314D01*
X74128179Y-63296313D01*
X74253196Y-63284000D01*
X74336804Y-63284000D01*
X74461821Y-63296313D01*
X74461821Y-63296313D01*
G37*
G36*
X89066821Y-63296313D02*
X89066824Y-63296314D01*
X89066825Y-63296314D01*
X89227239Y-63344975D01*
X89227241Y-63344976D01*
X89227244Y-63344977D01*
X89375078Y-63423995D01*
X89504659Y-63530341D01*
X89611005Y-63659922D01*
X89690023Y-63807756D01*
X89690024Y-63807759D01*
X89690025Y-63807761D01*
X89735713Y-63958375D01*
X89738687Y-63968179D01*
X89755117Y-64135000D01*
X89738687Y-64301821D01*
X89738686Y-64301824D01*
X89738686Y-64301825D01*
X89735713Y-64311627D01*
X89690023Y-64462244D01*
X89611005Y-64610078D01*
X89504659Y-64739659D01*
X89375078Y-64846005D01*
X89227244Y-64925023D01*
X89227241Y-64925024D01*
X89227239Y-64925025D01*
X89066825Y-64973686D01*
X89066824Y-64973686D01*
X89066821Y-64973687D01*
X88941804Y-64986000D01*
X88858196Y-64986000D01*
X88733179Y-64973687D01*
X88733176Y-64973686D01*
X88733175Y-64973686D01*
X88572761Y-64925025D01*
X88572759Y-64925024D01*
X88572756Y-64925023D01*
X88424922Y-64846005D01*
X88295341Y-64739659D01*
X88188995Y-64610078D01*
X88109977Y-64462244D01*
X88064288Y-64311627D01*
X88061314Y-64301825D01*
X88061314Y-64301824D01*
X88061313Y-64301821D01*
X88044883Y-64135000D01*
X88061313Y-63968179D01*
X88064287Y-63958375D01*
X88109975Y-63807761D01*
X88109976Y-63807759D01*
X88109977Y-63807756D01*
X88188995Y-63659922D01*
X88295341Y-63530341D01*
X88424922Y-63423995D01*
X88572756Y-63344977D01*
X88572759Y-63344976D01*
X88572761Y-63344975D01*
X88733175Y-63296314D01*
X88733176Y-63296314D01*
X88733179Y-63296313D01*
X88858196Y-63284000D01*
X88941804Y-63284000D01*
X89066821Y-63296313D01*
X89066821Y-63296313D01*
G37*
G36*
X66841821Y-63296313D02*
X66841824Y-63296314D01*
X66841825Y-63296314D01*
X67002239Y-63344975D01*
X67002241Y-63344976D01*
X67002244Y-63344977D01*
X67150078Y-63423995D01*
X67279659Y-63530341D01*
X67386005Y-63659922D01*
X67465023Y-63807756D01*
X67465024Y-63807759D01*
X67465025Y-63807761D01*
X67510713Y-63958375D01*
X67513687Y-63968179D01*
X67530117Y-64135000D01*
X67513687Y-64301821D01*
X67513686Y-64301824D01*
X67513686Y-64301825D01*
X67510713Y-64311627D01*
X67465023Y-64462244D01*
X67386005Y-64610078D01*
X67279659Y-64739659D01*
X67150078Y-64846005D01*
X67002244Y-64925023D01*
X67002241Y-64925024D01*
X67002239Y-64925025D01*
X66841825Y-64973686D01*
X66841824Y-64973686D01*
X66841821Y-64973687D01*
X66716804Y-64986000D01*
X66633196Y-64986000D01*
X66508179Y-64973687D01*
X66508176Y-64973686D01*
X66508175Y-64973686D01*
X66347761Y-64925025D01*
X66347759Y-64925024D01*
X66347756Y-64925023D01*
X66199922Y-64846005D01*
X66070341Y-64739659D01*
X65963995Y-64610078D01*
X65884977Y-64462244D01*
X65839288Y-64311627D01*
X65836314Y-64301825D01*
X65836314Y-64301824D01*
X65836313Y-64301821D01*
X65819883Y-64135000D01*
X65836313Y-63968179D01*
X65839287Y-63958375D01*
X65884975Y-63807761D01*
X65884976Y-63807759D01*
X65884977Y-63807756D01*
X65963995Y-63659922D01*
X66070341Y-63530341D01*
X66199922Y-63423995D01*
X66347756Y-63344977D01*
X66347759Y-63344976D01*
X66347761Y-63344975D01*
X66508175Y-63296314D01*
X66508176Y-63296314D01*
X66508179Y-63296313D01*
X66633196Y-63284000D01*
X66716804Y-63284000D01*
X66841821Y-63296313D01*
X66841821Y-63296313D01*
G37*
G36*
X123935443Y-60700519D02*
X124001627Y-60707037D01*
X124114853Y-60741384D01*
X124171467Y-60758557D01*
X124258311Y-60804977D01*
X124327991Y-60842222D01*
X124363729Y-60871552D01*
X124465186Y-60954814D01*
X124548448Y-61056271D01*
X124577778Y-61092009D01*
X124577779Y-61092011D01*
X124661443Y-61248533D01*
X124678616Y-61305147D01*
X124712963Y-61418373D01*
X124730359Y-61595000D01*
X124712963Y-61771627D01*
X124678616Y-61884853D01*
X124661443Y-61941467D01*
X124592698Y-62070078D01*
X124577778Y-62097991D01*
X124548448Y-62133729D01*
X124465186Y-62235186D01*
X124363729Y-62318448D01*
X124327991Y-62347778D01*
X124327989Y-62347779D01*
X124171467Y-62431443D01*
X124164069Y-62433687D01*
X124001627Y-62482963D01*
X123935443Y-62489481D01*
X123869260Y-62496000D01*
X123780740Y-62496000D01*
X123714557Y-62489481D01*
X123648373Y-62482963D01*
X123485931Y-62433687D01*
X123478533Y-62431443D01*
X123322011Y-62347779D01*
X123322009Y-62347778D01*
X123286271Y-62318448D01*
X123184814Y-62235186D01*
X123101552Y-62133729D01*
X123072222Y-62097991D01*
X123057302Y-62070078D01*
X122988557Y-61941467D01*
X122971384Y-61884853D01*
X122937037Y-61771627D01*
X122919641Y-61595000D01*
X122937037Y-61418373D01*
X122971384Y-61305147D01*
X122988557Y-61248533D01*
X123072221Y-61092011D01*
X123072222Y-61092009D01*
X123101552Y-61056271D01*
X123184814Y-60954814D01*
X123286271Y-60871552D01*
X123322009Y-60842222D01*
X123391689Y-60804977D01*
X123478533Y-60758557D01*
X123535147Y-60741384D01*
X123648373Y-60707037D01*
X123714557Y-60700519D01*
X123780740Y-60694000D01*
X123869260Y-60694000D01*
X123935443Y-60700519D01*
X123935443Y-60700519D01*
G37*
G36*
X54720443Y-60700519D02*
X54786627Y-60707037D01*
X54899853Y-60741384D01*
X54956467Y-60758557D01*
X55043311Y-60804977D01*
X55112991Y-60842222D01*
X55148729Y-60871552D01*
X55250186Y-60954814D01*
X55333448Y-61056271D01*
X55362778Y-61092009D01*
X55362779Y-61092011D01*
X55446443Y-61248533D01*
X55463616Y-61305147D01*
X55497963Y-61418373D01*
X55515359Y-61595000D01*
X55497963Y-61771627D01*
X55463616Y-61884853D01*
X55446443Y-61941467D01*
X55377698Y-62070078D01*
X55362778Y-62097991D01*
X55333448Y-62133729D01*
X55250186Y-62235186D01*
X55148729Y-62318448D01*
X55112991Y-62347778D01*
X55112989Y-62347779D01*
X54956467Y-62431443D01*
X54949069Y-62433687D01*
X54786627Y-62482963D01*
X54720443Y-62489481D01*
X54654260Y-62496000D01*
X54565740Y-62496000D01*
X54499557Y-62489481D01*
X54433373Y-62482963D01*
X54270931Y-62433687D01*
X54263533Y-62431443D01*
X54107011Y-62347779D01*
X54107009Y-62347778D01*
X54071271Y-62318448D01*
X53969814Y-62235186D01*
X53886552Y-62133729D01*
X53857222Y-62097991D01*
X53842302Y-62070078D01*
X53773557Y-61941467D01*
X53756384Y-61884853D01*
X53722037Y-61771627D01*
X53704641Y-61595000D01*
X53722037Y-61418373D01*
X53756384Y-61305147D01*
X53773557Y-61248533D01*
X53857221Y-61092011D01*
X53857222Y-61092009D01*
X53886552Y-61056271D01*
X53969814Y-60954814D01*
X54071271Y-60871552D01*
X54107009Y-60842222D01*
X54176689Y-60804977D01*
X54263533Y-60758557D01*
X54320147Y-60741384D01*
X54433373Y-60707037D01*
X54499557Y-60700519D01*
X54565740Y-60694000D01*
X54654260Y-60694000D01*
X54720443Y-60700519D01*
X54720443Y-60700519D01*
G37*
G36*
X81446821Y-60756313D02*
X81446824Y-60756314D01*
X81446825Y-60756314D01*
X81607239Y-60804975D01*
X81607241Y-60804976D01*
X81607244Y-60804977D01*
X81755078Y-60883995D01*
X81884659Y-60990341D01*
X81991005Y-61119922D01*
X82070023Y-61267756D01*
X82070024Y-61267759D01*
X82070025Y-61267761D01*
X82115713Y-61418375D01*
X82118687Y-61428179D01*
X82135117Y-61595000D01*
X82118687Y-61761821D01*
X82118686Y-61761824D01*
X82118686Y-61761825D01*
X82115713Y-61771627D01*
X82070023Y-61922244D01*
X81991005Y-62070078D01*
X81884659Y-62199659D01*
X81755078Y-62306005D01*
X81607244Y-62385023D01*
X81607241Y-62385024D01*
X81607239Y-62385025D01*
X81446825Y-62433686D01*
X81446824Y-62433686D01*
X81446821Y-62433687D01*
X81321804Y-62446000D01*
X81238196Y-62446000D01*
X81113179Y-62433687D01*
X81113176Y-62433686D01*
X81113175Y-62433686D01*
X80952761Y-62385025D01*
X80952759Y-62385024D01*
X80952756Y-62385023D01*
X80804922Y-62306005D01*
X80675341Y-62199659D01*
X80568995Y-62070078D01*
X80489977Y-61922244D01*
X80444288Y-61771627D01*
X80441314Y-61761825D01*
X80441314Y-61761824D01*
X80441313Y-61761821D01*
X80424883Y-61595000D01*
X80441313Y-61428179D01*
X80444287Y-61418375D01*
X80489975Y-61267761D01*
X80489976Y-61267759D01*
X80489977Y-61267756D01*
X80568995Y-61119922D01*
X80675341Y-60990341D01*
X80804922Y-60883995D01*
X80952756Y-60804977D01*
X80952759Y-60804976D01*
X80952761Y-60804975D01*
X81113175Y-60756314D01*
X81113176Y-60756314D01*
X81113179Y-60756313D01*
X81238196Y-60744000D01*
X81321804Y-60744000D01*
X81446821Y-60756313D01*
X81446821Y-60756313D01*
G37*
G36*
X89066821Y-60756313D02*
X89066824Y-60756314D01*
X89066825Y-60756314D01*
X89227239Y-60804975D01*
X89227241Y-60804976D01*
X89227244Y-60804977D01*
X89375078Y-60883995D01*
X89504659Y-60990341D01*
X89611005Y-61119922D01*
X89690023Y-61267756D01*
X89690024Y-61267759D01*
X89690025Y-61267761D01*
X89735713Y-61418375D01*
X89738687Y-61428179D01*
X89755117Y-61595000D01*
X89738687Y-61761821D01*
X89738686Y-61761824D01*
X89738686Y-61761825D01*
X89735713Y-61771627D01*
X89690023Y-61922244D01*
X89611005Y-62070078D01*
X89504659Y-62199659D01*
X89375078Y-62306005D01*
X89227244Y-62385023D01*
X89227241Y-62385024D01*
X89227239Y-62385025D01*
X89066825Y-62433686D01*
X89066824Y-62433686D01*
X89066821Y-62433687D01*
X88941804Y-62446000D01*
X88858196Y-62446000D01*
X88733179Y-62433687D01*
X88733176Y-62433686D01*
X88733175Y-62433686D01*
X88572761Y-62385025D01*
X88572759Y-62385024D01*
X88572756Y-62385023D01*
X88424922Y-62306005D01*
X88295341Y-62199659D01*
X88188995Y-62070078D01*
X88109977Y-61922244D01*
X88064288Y-61771627D01*
X88061314Y-61761825D01*
X88061314Y-61761824D01*
X88061313Y-61761821D01*
X88044883Y-61595000D01*
X88061313Y-61428179D01*
X88064287Y-61418375D01*
X88109975Y-61267761D01*
X88109976Y-61267759D01*
X88109977Y-61267756D01*
X88188995Y-61119922D01*
X88295341Y-60990341D01*
X88424922Y-60883995D01*
X88572756Y-60804977D01*
X88572759Y-60804976D01*
X88572761Y-60804975D01*
X88733175Y-60756314D01*
X88733176Y-60756314D01*
X88733179Y-60756313D01*
X88858196Y-60744000D01*
X88941804Y-60744000D01*
X89066821Y-60756313D01*
X89066821Y-60756313D01*
G37*
G36*
X74461821Y-60756313D02*
X74461824Y-60756314D01*
X74461825Y-60756314D01*
X74622239Y-60804975D01*
X74622241Y-60804976D01*
X74622244Y-60804977D01*
X74770078Y-60883995D01*
X74899659Y-60990341D01*
X75006005Y-61119922D01*
X75085023Y-61267756D01*
X75085024Y-61267759D01*
X75085025Y-61267761D01*
X75130713Y-61418375D01*
X75133687Y-61428179D01*
X75150117Y-61595000D01*
X75133687Y-61761821D01*
X75133686Y-61761824D01*
X75133686Y-61761825D01*
X75130713Y-61771627D01*
X75085023Y-61922244D01*
X75006005Y-62070078D01*
X74899659Y-62199659D01*
X74770078Y-62306005D01*
X74622244Y-62385023D01*
X74622241Y-62385024D01*
X74622239Y-62385025D01*
X74461825Y-62433686D01*
X74461824Y-62433686D01*
X74461821Y-62433687D01*
X74336804Y-62446000D01*
X74253196Y-62446000D01*
X74128179Y-62433687D01*
X74128176Y-62433686D01*
X74128175Y-62433686D01*
X73967761Y-62385025D01*
X73967759Y-62385024D01*
X73967756Y-62385023D01*
X73819922Y-62306005D01*
X73690341Y-62199659D01*
X73583995Y-62070078D01*
X73504977Y-61922244D01*
X73459288Y-61771627D01*
X73456314Y-61761825D01*
X73456314Y-61761824D01*
X73456313Y-61761821D01*
X73439883Y-61595000D01*
X73456313Y-61428179D01*
X73459287Y-61418375D01*
X73504975Y-61267761D01*
X73504976Y-61267759D01*
X73504977Y-61267756D01*
X73583995Y-61119922D01*
X73690341Y-60990341D01*
X73819922Y-60883995D01*
X73967756Y-60804977D01*
X73967759Y-60804976D01*
X73967761Y-60804975D01*
X74128175Y-60756314D01*
X74128176Y-60756314D01*
X74128179Y-60756313D01*
X74253196Y-60744000D01*
X74336804Y-60744000D01*
X74461821Y-60756313D01*
X74461821Y-60756313D01*
G37*
G36*
X66841821Y-60756313D02*
X66841824Y-60756314D01*
X66841825Y-60756314D01*
X67002239Y-60804975D01*
X67002241Y-60804976D01*
X67002244Y-60804977D01*
X67150078Y-60883995D01*
X67279659Y-60990341D01*
X67386005Y-61119922D01*
X67465023Y-61267756D01*
X67465024Y-61267759D01*
X67465025Y-61267761D01*
X67510713Y-61418375D01*
X67513687Y-61428179D01*
X67530117Y-61595000D01*
X67513687Y-61761821D01*
X67513686Y-61761824D01*
X67513686Y-61761825D01*
X67510713Y-61771627D01*
X67465023Y-61922244D01*
X67386005Y-62070078D01*
X67279659Y-62199659D01*
X67150078Y-62306005D01*
X67002244Y-62385023D01*
X67002241Y-62385024D01*
X67002239Y-62385025D01*
X66841825Y-62433686D01*
X66841824Y-62433686D01*
X66841821Y-62433687D01*
X66716804Y-62446000D01*
X66633196Y-62446000D01*
X66508179Y-62433687D01*
X66508176Y-62433686D01*
X66508175Y-62433686D01*
X66347761Y-62385025D01*
X66347759Y-62385024D01*
X66347756Y-62385023D01*
X66199922Y-62306005D01*
X66070341Y-62199659D01*
X65963995Y-62070078D01*
X65884977Y-61922244D01*
X65839288Y-61771627D01*
X65836314Y-61761825D01*
X65836314Y-61761824D01*
X65836313Y-61761821D01*
X65819883Y-61595000D01*
X65836313Y-61428179D01*
X65839287Y-61418375D01*
X65884975Y-61267761D01*
X65884976Y-61267759D01*
X65884977Y-61267756D01*
X65963995Y-61119922D01*
X66070341Y-60990341D01*
X66199922Y-60883995D01*
X66347756Y-60804977D01*
X66347759Y-60804976D01*
X66347761Y-60804975D01*
X66508175Y-60756314D01*
X66508176Y-60756314D01*
X66508179Y-60756313D01*
X66633196Y-60744000D01*
X66716804Y-60744000D01*
X66841821Y-60756313D01*
X66841821Y-60756313D01*
G37*
G36*
X123935442Y-58160518D02*
X124001627Y-58167037D01*
X124114853Y-58201384D01*
X124171467Y-58218557D01*
X124258311Y-58264977D01*
X124327991Y-58302222D01*
X124363729Y-58331552D01*
X124465186Y-58414814D01*
X124548448Y-58516271D01*
X124577778Y-58552009D01*
X124577779Y-58552011D01*
X124661443Y-58708533D01*
X124678616Y-58765147D01*
X124712963Y-58878373D01*
X124730359Y-59055000D01*
X124712963Y-59231627D01*
X124678616Y-59344853D01*
X124661443Y-59401467D01*
X124592698Y-59530078D01*
X124577778Y-59557991D01*
X124548448Y-59593729D01*
X124465186Y-59695186D01*
X124363729Y-59778448D01*
X124327991Y-59807778D01*
X124327989Y-59807779D01*
X124171467Y-59891443D01*
X124164069Y-59893687D01*
X124001627Y-59942963D01*
X123935442Y-59949482D01*
X123869260Y-59956000D01*
X123780740Y-59956000D01*
X123714558Y-59949482D01*
X123648373Y-59942963D01*
X123485931Y-59893687D01*
X123478533Y-59891443D01*
X123322011Y-59807779D01*
X123322009Y-59807778D01*
X123286271Y-59778448D01*
X123184814Y-59695186D01*
X123101552Y-59593729D01*
X123072222Y-59557991D01*
X123057302Y-59530078D01*
X122988557Y-59401467D01*
X122971384Y-59344853D01*
X122937037Y-59231627D01*
X122919641Y-59055000D01*
X122937037Y-58878373D01*
X122971384Y-58765147D01*
X122988557Y-58708533D01*
X123072221Y-58552011D01*
X123072222Y-58552009D01*
X123101552Y-58516271D01*
X123184814Y-58414814D01*
X123286271Y-58331552D01*
X123322009Y-58302222D01*
X123391689Y-58264977D01*
X123478533Y-58218557D01*
X123535147Y-58201384D01*
X123648373Y-58167037D01*
X123714558Y-58160518D01*
X123780740Y-58154000D01*
X123869260Y-58154000D01*
X123935442Y-58160518D01*
X123935442Y-58160518D01*
G37*
G36*
X54720442Y-58160518D02*
X54786627Y-58167037D01*
X54899853Y-58201384D01*
X54956467Y-58218557D01*
X55043311Y-58264977D01*
X55112991Y-58302222D01*
X55148729Y-58331552D01*
X55250186Y-58414814D01*
X55333448Y-58516271D01*
X55362778Y-58552009D01*
X55362779Y-58552011D01*
X55446443Y-58708533D01*
X55463616Y-58765147D01*
X55497963Y-58878373D01*
X55515359Y-59055000D01*
X55497963Y-59231627D01*
X55463616Y-59344853D01*
X55446443Y-59401467D01*
X55377698Y-59530078D01*
X55362778Y-59557991D01*
X55333448Y-59593729D01*
X55250186Y-59695186D01*
X55148729Y-59778448D01*
X55112991Y-59807778D01*
X55112989Y-59807779D01*
X54956467Y-59891443D01*
X54949069Y-59893687D01*
X54786627Y-59942963D01*
X54720442Y-59949482D01*
X54654260Y-59956000D01*
X54565740Y-59956000D01*
X54499558Y-59949482D01*
X54433373Y-59942963D01*
X54270931Y-59893687D01*
X54263533Y-59891443D01*
X54107011Y-59807779D01*
X54107009Y-59807778D01*
X54071271Y-59778448D01*
X53969814Y-59695186D01*
X53886552Y-59593729D01*
X53857222Y-59557991D01*
X53842302Y-59530078D01*
X53773557Y-59401467D01*
X53756384Y-59344853D01*
X53722037Y-59231627D01*
X53704641Y-59055000D01*
X53722037Y-58878373D01*
X53756384Y-58765147D01*
X53773557Y-58708533D01*
X53857221Y-58552011D01*
X53857222Y-58552009D01*
X53886552Y-58516271D01*
X53969814Y-58414814D01*
X54071271Y-58331552D01*
X54107009Y-58302222D01*
X54176689Y-58264977D01*
X54263533Y-58218557D01*
X54320147Y-58201384D01*
X54433373Y-58167037D01*
X54499558Y-58160518D01*
X54565740Y-58154000D01*
X54654260Y-58154000D01*
X54720442Y-58160518D01*
X54720442Y-58160518D01*
G37*
G36*
X66841821Y-58216313D02*
X66841824Y-58216314D01*
X66841825Y-58216314D01*
X67002239Y-58264975D01*
X67002241Y-58264976D01*
X67002244Y-58264977D01*
X67150078Y-58343995D01*
X67279659Y-58450341D01*
X67386005Y-58579922D01*
X67465023Y-58727756D01*
X67465024Y-58727759D01*
X67465025Y-58727761D01*
X67510713Y-58878375D01*
X67513687Y-58888179D01*
X67530117Y-59055000D01*
X67513687Y-59221821D01*
X67513686Y-59221824D01*
X67513686Y-59221825D01*
X67510713Y-59231627D01*
X67465023Y-59382244D01*
X67386005Y-59530078D01*
X67279659Y-59659659D01*
X67150078Y-59766005D01*
X67002244Y-59845023D01*
X67002241Y-59845024D01*
X67002239Y-59845025D01*
X66841825Y-59893686D01*
X66841824Y-59893686D01*
X66841821Y-59893687D01*
X66716804Y-59906000D01*
X66633196Y-59906000D01*
X66508179Y-59893687D01*
X66508176Y-59893686D01*
X66508175Y-59893686D01*
X66347761Y-59845025D01*
X66347759Y-59845024D01*
X66347756Y-59845023D01*
X66199922Y-59766005D01*
X66070341Y-59659659D01*
X65963995Y-59530078D01*
X65884977Y-59382244D01*
X65839288Y-59231627D01*
X65836314Y-59221825D01*
X65836314Y-59221824D01*
X65836313Y-59221821D01*
X65819883Y-59055000D01*
X65836313Y-58888179D01*
X65839287Y-58878375D01*
X65884975Y-58727761D01*
X65884976Y-58727759D01*
X65884977Y-58727756D01*
X65963995Y-58579922D01*
X66070341Y-58450341D01*
X66199922Y-58343995D01*
X66347756Y-58264977D01*
X66347759Y-58264976D01*
X66347761Y-58264975D01*
X66508175Y-58216314D01*
X66508176Y-58216314D01*
X66508179Y-58216313D01*
X66633196Y-58204000D01*
X66716804Y-58204000D01*
X66841821Y-58216313D01*
X66841821Y-58216313D01*
G37*
G36*
X89066821Y-58216313D02*
X89066824Y-58216314D01*
X89066825Y-58216314D01*
X89227239Y-58264975D01*
X89227241Y-58264976D01*
X89227244Y-58264977D01*
X89375078Y-58343995D01*
X89504659Y-58450341D01*
X89611005Y-58579922D01*
X89690023Y-58727756D01*
X89690024Y-58727759D01*
X89690025Y-58727761D01*
X89735713Y-58878375D01*
X89738687Y-58888179D01*
X89755117Y-59055000D01*
X89738687Y-59221821D01*
X89738686Y-59221824D01*
X89738686Y-59221825D01*
X89735713Y-59231627D01*
X89690023Y-59382244D01*
X89611005Y-59530078D01*
X89504659Y-59659659D01*
X89375078Y-59766005D01*
X89227244Y-59845023D01*
X89227241Y-59845024D01*
X89227239Y-59845025D01*
X89066825Y-59893686D01*
X89066824Y-59893686D01*
X89066821Y-59893687D01*
X88941804Y-59906000D01*
X88858196Y-59906000D01*
X88733179Y-59893687D01*
X88733176Y-59893686D01*
X88733175Y-59893686D01*
X88572761Y-59845025D01*
X88572759Y-59845024D01*
X88572756Y-59845023D01*
X88424922Y-59766005D01*
X88295341Y-59659659D01*
X88188995Y-59530078D01*
X88109977Y-59382244D01*
X88064288Y-59231627D01*
X88061314Y-59221825D01*
X88061314Y-59221824D01*
X88061313Y-59221821D01*
X88044883Y-59055000D01*
X88061313Y-58888179D01*
X88064287Y-58878375D01*
X88109975Y-58727761D01*
X88109976Y-58727759D01*
X88109977Y-58727756D01*
X88188995Y-58579922D01*
X88295341Y-58450341D01*
X88424922Y-58343995D01*
X88572756Y-58264977D01*
X88572759Y-58264976D01*
X88572761Y-58264975D01*
X88733175Y-58216314D01*
X88733176Y-58216314D01*
X88733179Y-58216313D01*
X88858196Y-58204000D01*
X88941804Y-58204000D01*
X89066821Y-58216313D01*
X89066821Y-58216313D01*
G37*
G36*
X81446821Y-58216313D02*
X81446824Y-58216314D01*
X81446825Y-58216314D01*
X81607239Y-58264975D01*
X81607241Y-58264976D01*
X81607244Y-58264977D01*
X81755078Y-58343995D01*
X81884659Y-58450341D01*
X81991005Y-58579922D01*
X82070023Y-58727756D01*
X82070024Y-58727759D01*
X82070025Y-58727761D01*
X82115713Y-58878375D01*
X82118687Y-58888179D01*
X82135117Y-59055000D01*
X82118687Y-59221821D01*
X82118686Y-59221824D01*
X82118686Y-59221825D01*
X82115713Y-59231627D01*
X82070023Y-59382244D01*
X81991005Y-59530078D01*
X81884659Y-59659659D01*
X81755078Y-59766005D01*
X81607244Y-59845023D01*
X81607241Y-59845024D01*
X81607239Y-59845025D01*
X81446825Y-59893686D01*
X81446824Y-59893686D01*
X81446821Y-59893687D01*
X81321804Y-59906000D01*
X81238196Y-59906000D01*
X81113179Y-59893687D01*
X81113176Y-59893686D01*
X81113175Y-59893686D01*
X80952761Y-59845025D01*
X80952759Y-59845024D01*
X80952756Y-59845023D01*
X80804922Y-59766005D01*
X80675341Y-59659659D01*
X80568995Y-59530078D01*
X80489977Y-59382244D01*
X80444288Y-59231627D01*
X80441314Y-59221825D01*
X80441314Y-59221824D01*
X80441313Y-59221821D01*
X80424883Y-59055000D01*
X80441313Y-58888179D01*
X80444287Y-58878375D01*
X80489975Y-58727761D01*
X80489976Y-58727759D01*
X80489977Y-58727756D01*
X80568995Y-58579922D01*
X80675341Y-58450341D01*
X80804922Y-58343995D01*
X80952756Y-58264977D01*
X80952759Y-58264976D01*
X80952761Y-58264975D01*
X81113175Y-58216314D01*
X81113176Y-58216314D01*
X81113179Y-58216313D01*
X81238196Y-58204000D01*
X81321804Y-58204000D01*
X81446821Y-58216313D01*
X81446821Y-58216313D01*
G37*
G36*
X74461821Y-58216313D02*
X74461824Y-58216314D01*
X74461825Y-58216314D01*
X74622239Y-58264975D01*
X74622241Y-58264976D01*
X74622244Y-58264977D01*
X74770078Y-58343995D01*
X74899659Y-58450341D01*
X75006005Y-58579922D01*
X75085023Y-58727756D01*
X75085024Y-58727759D01*
X75085025Y-58727761D01*
X75130713Y-58878375D01*
X75133687Y-58888179D01*
X75150117Y-59055000D01*
X75133687Y-59221821D01*
X75133686Y-59221824D01*
X75133686Y-59221825D01*
X75130713Y-59231627D01*
X75085023Y-59382244D01*
X75006005Y-59530078D01*
X74899659Y-59659659D01*
X74770078Y-59766005D01*
X74622244Y-59845023D01*
X74622241Y-59845024D01*
X74622239Y-59845025D01*
X74461825Y-59893686D01*
X74461824Y-59893686D01*
X74461821Y-59893687D01*
X74336804Y-59906000D01*
X74253196Y-59906000D01*
X74128179Y-59893687D01*
X74128176Y-59893686D01*
X74128175Y-59893686D01*
X73967761Y-59845025D01*
X73967759Y-59845024D01*
X73967756Y-59845023D01*
X73819922Y-59766005D01*
X73690341Y-59659659D01*
X73583995Y-59530078D01*
X73504977Y-59382244D01*
X73459288Y-59231627D01*
X73456314Y-59221825D01*
X73456314Y-59221824D01*
X73456313Y-59221821D01*
X73439883Y-59055000D01*
X73456313Y-58888179D01*
X73459287Y-58878375D01*
X73504975Y-58727761D01*
X73504976Y-58727759D01*
X73504977Y-58727756D01*
X73583995Y-58579922D01*
X73690341Y-58450341D01*
X73819922Y-58343995D01*
X73967756Y-58264977D01*
X73967759Y-58264976D01*
X73967761Y-58264975D01*
X74128175Y-58216314D01*
X74128176Y-58216314D01*
X74128179Y-58216313D01*
X74253196Y-58204000D01*
X74336804Y-58204000D01*
X74461821Y-58216313D01*
X74461821Y-58216313D01*
G37*
G36*
X54720443Y-55620519D02*
X54786627Y-55627037D01*
X54899853Y-55661384D01*
X54956467Y-55678557D01*
X55043311Y-55724977D01*
X55112991Y-55762222D01*
X55148729Y-55791552D01*
X55250186Y-55874814D01*
X55333448Y-55976271D01*
X55362778Y-56012009D01*
X55362779Y-56012011D01*
X55446443Y-56168533D01*
X55463616Y-56225147D01*
X55497963Y-56338373D01*
X55515359Y-56515000D01*
X55497963Y-56691627D01*
X55463616Y-56804853D01*
X55446443Y-56861467D01*
X55377698Y-56990078D01*
X55362778Y-57017991D01*
X55333448Y-57053729D01*
X55250186Y-57155186D01*
X55148729Y-57238448D01*
X55112991Y-57267778D01*
X55112989Y-57267779D01*
X54956467Y-57351443D01*
X54949069Y-57353687D01*
X54786627Y-57402963D01*
X54720443Y-57409481D01*
X54654260Y-57416000D01*
X54565740Y-57416000D01*
X54499557Y-57409481D01*
X54433373Y-57402963D01*
X54270931Y-57353687D01*
X54263533Y-57351443D01*
X54107011Y-57267779D01*
X54107009Y-57267778D01*
X54071271Y-57238448D01*
X53969814Y-57155186D01*
X53886552Y-57053729D01*
X53857222Y-57017991D01*
X53842302Y-56990078D01*
X53773557Y-56861467D01*
X53756384Y-56804853D01*
X53722037Y-56691627D01*
X53704641Y-56515000D01*
X53722037Y-56338373D01*
X53756384Y-56225147D01*
X53773557Y-56168533D01*
X53857221Y-56012011D01*
X53857222Y-56012009D01*
X53886552Y-55976271D01*
X53969814Y-55874814D01*
X54071271Y-55791552D01*
X54107009Y-55762222D01*
X54176689Y-55724977D01*
X54263533Y-55678557D01*
X54320147Y-55661384D01*
X54433373Y-55627037D01*
X54499557Y-55620519D01*
X54565740Y-55614000D01*
X54654260Y-55614000D01*
X54720443Y-55620519D01*
X54720443Y-55620519D01*
G37*
G36*
X123935443Y-55620519D02*
X124001627Y-55627037D01*
X124114853Y-55661384D01*
X124171467Y-55678557D01*
X124258311Y-55724977D01*
X124327991Y-55762222D01*
X124363729Y-55791552D01*
X124465186Y-55874814D01*
X124548448Y-55976271D01*
X124577778Y-56012009D01*
X124577779Y-56012011D01*
X124661443Y-56168533D01*
X124678616Y-56225147D01*
X124712963Y-56338373D01*
X124730359Y-56515000D01*
X124712963Y-56691627D01*
X124678616Y-56804853D01*
X124661443Y-56861467D01*
X124592698Y-56990078D01*
X124577778Y-57017991D01*
X124548448Y-57053729D01*
X124465186Y-57155186D01*
X124363729Y-57238448D01*
X124327991Y-57267778D01*
X124327989Y-57267779D01*
X124171467Y-57351443D01*
X124164069Y-57353687D01*
X124001627Y-57402963D01*
X123935443Y-57409481D01*
X123869260Y-57416000D01*
X123780740Y-57416000D01*
X123714557Y-57409481D01*
X123648373Y-57402963D01*
X123485931Y-57353687D01*
X123478533Y-57351443D01*
X123322011Y-57267779D01*
X123322009Y-57267778D01*
X123286271Y-57238448D01*
X123184814Y-57155186D01*
X123101552Y-57053729D01*
X123072222Y-57017991D01*
X123057302Y-56990078D01*
X122988557Y-56861467D01*
X122971384Y-56804853D01*
X122937037Y-56691627D01*
X122919641Y-56515000D01*
X122937037Y-56338373D01*
X122971384Y-56225147D01*
X122988557Y-56168533D01*
X123072221Y-56012011D01*
X123072222Y-56012009D01*
X123101552Y-55976271D01*
X123184814Y-55874814D01*
X123286271Y-55791552D01*
X123322009Y-55762222D01*
X123391689Y-55724977D01*
X123478533Y-55678557D01*
X123535147Y-55661384D01*
X123648373Y-55627037D01*
X123714557Y-55620519D01*
X123780740Y-55614000D01*
X123869260Y-55614000D01*
X123935443Y-55620519D01*
X123935443Y-55620519D01*
G37*
G36*
X81446821Y-55676313D02*
X81446824Y-55676314D01*
X81446825Y-55676314D01*
X81607239Y-55724975D01*
X81607241Y-55724976D01*
X81607244Y-55724977D01*
X81755078Y-55803995D01*
X81884659Y-55910341D01*
X81991005Y-56039922D01*
X82070023Y-56187756D01*
X82070024Y-56187759D01*
X82070025Y-56187761D01*
X82115713Y-56338375D01*
X82118687Y-56348179D01*
X82135117Y-56515000D01*
X82118687Y-56681821D01*
X82118686Y-56681824D01*
X82118686Y-56681825D01*
X82115713Y-56691627D01*
X82070023Y-56842244D01*
X81991005Y-56990078D01*
X81884659Y-57119659D01*
X81755078Y-57226005D01*
X81607244Y-57305023D01*
X81607241Y-57305024D01*
X81607239Y-57305025D01*
X81446825Y-57353686D01*
X81446824Y-57353686D01*
X81446821Y-57353687D01*
X81321804Y-57366000D01*
X81238196Y-57366000D01*
X81113179Y-57353687D01*
X81113176Y-57353686D01*
X81113175Y-57353686D01*
X80952761Y-57305025D01*
X80952759Y-57305024D01*
X80952756Y-57305023D01*
X80804922Y-57226005D01*
X80675341Y-57119659D01*
X80568995Y-56990078D01*
X80489977Y-56842244D01*
X80444288Y-56691627D01*
X80441314Y-56681825D01*
X80441314Y-56681824D01*
X80441313Y-56681821D01*
X80424883Y-56515000D01*
X80441313Y-56348179D01*
X80444287Y-56338375D01*
X80489975Y-56187761D01*
X80489976Y-56187759D01*
X80489977Y-56187756D01*
X80568995Y-56039922D01*
X80675341Y-55910341D01*
X80804922Y-55803995D01*
X80952756Y-55724977D01*
X80952759Y-55724976D01*
X80952761Y-55724975D01*
X81113175Y-55676314D01*
X81113176Y-55676314D01*
X81113179Y-55676313D01*
X81238196Y-55664000D01*
X81321804Y-55664000D01*
X81446821Y-55676313D01*
X81446821Y-55676313D01*
G37*
G36*
X89066821Y-55676313D02*
X89066824Y-55676314D01*
X89066825Y-55676314D01*
X89227239Y-55724975D01*
X89227241Y-55724976D01*
X89227244Y-55724977D01*
X89375078Y-55803995D01*
X89504659Y-55910341D01*
X89611005Y-56039922D01*
X89690023Y-56187756D01*
X89690024Y-56187759D01*
X89690025Y-56187761D01*
X89735713Y-56338375D01*
X89738687Y-56348179D01*
X89755117Y-56515000D01*
X89738687Y-56681821D01*
X89738686Y-56681824D01*
X89738686Y-56681825D01*
X89735713Y-56691627D01*
X89690023Y-56842244D01*
X89611005Y-56990078D01*
X89504659Y-57119659D01*
X89375078Y-57226005D01*
X89227244Y-57305023D01*
X89227241Y-57305024D01*
X89227239Y-57305025D01*
X89066825Y-57353686D01*
X89066824Y-57353686D01*
X89066821Y-57353687D01*
X88941804Y-57366000D01*
X88858196Y-57366000D01*
X88733179Y-57353687D01*
X88733176Y-57353686D01*
X88733175Y-57353686D01*
X88572761Y-57305025D01*
X88572759Y-57305024D01*
X88572756Y-57305023D01*
X88424922Y-57226005D01*
X88295341Y-57119659D01*
X88188995Y-56990078D01*
X88109977Y-56842244D01*
X88064288Y-56691627D01*
X88061314Y-56681825D01*
X88061314Y-56681824D01*
X88061313Y-56681821D01*
X88044883Y-56515000D01*
X88061313Y-56348179D01*
X88064287Y-56338375D01*
X88109975Y-56187761D01*
X88109976Y-56187759D01*
X88109977Y-56187756D01*
X88188995Y-56039922D01*
X88295341Y-55910341D01*
X88424922Y-55803995D01*
X88572756Y-55724977D01*
X88572759Y-55724976D01*
X88572761Y-55724975D01*
X88733175Y-55676314D01*
X88733176Y-55676314D01*
X88733179Y-55676313D01*
X88858196Y-55664000D01*
X88941804Y-55664000D01*
X89066821Y-55676313D01*
X89066821Y-55676313D01*
G37*
G36*
X74461821Y-55676313D02*
X74461824Y-55676314D01*
X74461825Y-55676314D01*
X74622239Y-55724975D01*
X74622241Y-55724976D01*
X74622244Y-55724977D01*
X74770078Y-55803995D01*
X74899659Y-55910341D01*
X75006005Y-56039922D01*
X75085023Y-56187756D01*
X75085024Y-56187759D01*
X75085025Y-56187761D01*
X75130713Y-56338375D01*
X75133687Y-56348179D01*
X75150117Y-56515000D01*
X75133687Y-56681821D01*
X75133686Y-56681824D01*
X75133686Y-56681825D01*
X75130713Y-56691627D01*
X75085023Y-56842244D01*
X75006005Y-56990078D01*
X74899659Y-57119659D01*
X74770078Y-57226005D01*
X74622244Y-57305023D01*
X74622241Y-57305024D01*
X74622239Y-57305025D01*
X74461825Y-57353686D01*
X74461824Y-57353686D01*
X74461821Y-57353687D01*
X74336804Y-57366000D01*
X74253196Y-57366000D01*
X74128179Y-57353687D01*
X74128176Y-57353686D01*
X74128175Y-57353686D01*
X73967761Y-57305025D01*
X73967759Y-57305024D01*
X73967756Y-57305023D01*
X73819922Y-57226005D01*
X73690341Y-57119659D01*
X73583995Y-56990078D01*
X73504977Y-56842244D01*
X73459288Y-56691627D01*
X73456314Y-56681825D01*
X73456314Y-56681824D01*
X73456313Y-56681821D01*
X73439883Y-56515000D01*
X73456313Y-56348179D01*
X73459287Y-56338375D01*
X73504975Y-56187761D01*
X73504976Y-56187759D01*
X73504977Y-56187756D01*
X73583995Y-56039922D01*
X73690341Y-55910341D01*
X73819922Y-55803995D01*
X73967756Y-55724977D01*
X73967759Y-55724976D01*
X73967761Y-55724975D01*
X74128175Y-55676314D01*
X74128176Y-55676314D01*
X74128179Y-55676313D01*
X74253196Y-55664000D01*
X74336804Y-55664000D01*
X74461821Y-55676313D01*
X74461821Y-55676313D01*
G37*
G36*
X66841821Y-55676313D02*
X66841824Y-55676314D01*
X66841825Y-55676314D01*
X67002239Y-55724975D01*
X67002241Y-55724976D01*
X67002244Y-55724977D01*
X67150078Y-55803995D01*
X67279659Y-55910341D01*
X67386005Y-56039922D01*
X67465023Y-56187756D01*
X67465024Y-56187759D01*
X67465025Y-56187761D01*
X67510713Y-56338375D01*
X67513687Y-56348179D01*
X67530117Y-56515000D01*
X67513687Y-56681821D01*
X67513686Y-56681824D01*
X67513686Y-56681825D01*
X67510713Y-56691627D01*
X67465023Y-56842244D01*
X67386005Y-56990078D01*
X67279659Y-57119659D01*
X67150078Y-57226005D01*
X67002244Y-57305023D01*
X67002241Y-57305024D01*
X67002239Y-57305025D01*
X66841825Y-57353686D01*
X66841824Y-57353686D01*
X66841821Y-57353687D01*
X66716804Y-57366000D01*
X66633196Y-57366000D01*
X66508179Y-57353687D01*
X66508176Y-57353686D01*
X66508175Y-57353686D01*
X66347761Y-57305025D01*
X66347759Y-57305024D01*
X66347756Y-57305023D01*
X66199922Y-57226005D01*
X66070341Y-57119659D01*
X65963995Y-56990078D01*
X65884977Y-56842244D01*
X65839288Y-56691627D01*
X65836314Y-56681825D01*
X65836314Y-56681824D01*
X65836313Y-56681821D01*
X65819883Y-56515000D01*
X65836313Y-56348179D01*
X65839287Y-56338375D01*
X65884975Y-56187761D01*
X65884976Y-56187759D01*
X65884977Y-56187756D01*
X65963995Y-56039922D01*
X66070341Y-55910341D01*
X66199922Y-55803995D01*
X66347756Y-55724977D01*
X66347759Y-55724976D01*
X66347761Y-55724975D01*
X66508175Y-55676314D01*
X66508176Y-55676314D01*
X66508179Y-55676313D01*
X66633196Y-55664000D01*
X66716804Y-55664000D01*
X66841821Y-55676313D01*
X66841821Y-55676313D01*
G37*
G36*
X123935442Y-53080518D02*
X124001627Y-53087037D01*
X124114853Y-53121384D01*
X124171467Y-53138557D01*
X124258311Y-53184977D01*
X124327991Y-53222222D01*
X124363729Y-53251552D01*
X124465186Y-53334814D01*
X124548448Y-53436271D01*
X124577778Y-53472009D01*
X124577779Y-53472011D01*
X124661443Y-53628533D01*
X124678616Y-53685147D01*
X124712963Y-53798373D01*
X124730359Y-53975000D01*
X124712963Y-54151627D01*
X124678616Y-54264853D01*
X124661443Y-54321467D01*
X124592698Y-54450078D01*
X124577778Y-54477991D01*
X124548448Y-54513729D01*
X124465186Y-54615186D01*
X124363729Y-54698448D01*
X124327991Y-54727778D01*
X124327989Y-54727779D01*
X124171467Y-54811443D01*
X124164069Y-54813687D01*
X124001627Y-54862963D01*
X123935443Y-54869481D01*
X123869260Y-54876000D01*
X123780740Y-54876000D01*
X123714557Y-54869481D01*
X123648373Y-54862963D01*
X123485931Y-54813687D01*
X123478533Y-54811443D01*
X123322011Y-54727779D01*
X123322009Y-54727778D01*
X123286271Y-54698448D01*
X123184814Y-54615186D01*
X123101552Y-54513729D01*
X123072222Y-54477991D01*
X123057302Y-54450078D01*
X122988557Y-54321467D01*
X122971384Y-54264853D01*
X122937037Y-54151627D01*
X122919641Y-53975000D01*
X122937037Y-53798373D01*
X122971384Y-53685147D01*
X122988557Y-53628533D01*
X123072221Y-53472011D01*
X123072222Y-53472009D01*
X123101552Y-53436271D01*
X123184814Y-53334814D01*
X123286271Y-53251552D01*
X123322009Y-53222222D01*
X123391689Y-53184977D01*
X123478533Y-53138557D01*
X123535147Y-53121384D01*
X123648373Y-53087037D01*
X123714558Y-53080518D01*
X123780740Y-53074000D01*
X123869260Y-53074000D01*
X123935442Y-53080518D01*
X123935442Y-53080518D01*
G37*
G36*
X54720442Y-53080518D02*
X54786627Y-53087037D01*
X54899853Y-53121384D01*
X54956467Y-53138557D01*
X55043311Y-53184977D01*
X55112991Y-53222222D01*
X55148729Y-53251552D01*
X55250186Y-53334814D01*
X55333448Y-53436271D01*
X55362778Y-53472009D01*
X55362779Y-53472011D01*
X55446443Y-53628533D01*
X55463616Y-53685147D01*
X55497963Y-53798373D01*
X55515359Y-53975000D01*
X55497963Y-54151627D01*
X55463616Y-54264853D01*
X55446443Y-54321467D01*
X55377698Y-54450078D01*
X55362778Y-54477991D01*
X55333448Y-54513729D01*
X55250186Y-54615186D01*
X55148729Y-54698448D01*
X55112991Y-54727778D01*
X55112989Y-54727779D01*
X54956467Y-54811443D01*
X54949069Y-54813687D01*
X54786627Y-54862963D01*
X54720443Y-54869481D01*
X54654260Y-54876000D01*
X54565740Y-54876000D01*
X54499557Y-54869481D01*
X54433373Y-54862963D01*
X54270931Y-54813687D01*
X54263533Y-54811443D01*
X54107011Y-54727779D01*
X54107009Y-54727778D01*
X54071271Y-54698448D01*
X53969814Y-54615186D01*
X53886552Y-54513729D01*
X53857222Y-54477991D01*
X53842302Y-54450078D01*
X53773557Y-54321467D01*
X53756384Y-54264853D01*
X53722037Y-54151627D01*
X53704641Y-53975000D01*
X53722037Y-53798373D01*
X53756384Y-53685147D01*
X53773557Y-53628533D01*
X53857221Y-53472011D01*
X53857222Y-53472009D01*
X53886552Y-53436271D01*
X53969814Y-53334814D01*
X54071271Y-53251552D01*
X54107009Y-53222222D01*
X54176689Y-53184977D01*
X54263533Y-53138557D01*
X54320147Y-53121384D01*
X54433373Y-53087037D01*
X54499558Y-53080518D01*
X54565740Y-53074000D01*
X54654260Y-53074000D01*
X54720442Y-53080518D01*
X54720442Y-53080518D01*
G37*
G36*
X66841821Y-53136313D02*
X66841824Y-53136314D01*
X66841825Y-53136314D01*
X67002239Y-53184975D01*
X67002241Y-53184976D01*
X67002244Y-53184977D01*
X67150078Y-53263995D01*
X67279659Y-53370341D01*
X67386005Y-53499922D01*
X67465023Y-53647756D01*
X67465024Y-53647759D01*
X67465025Y-53647761D01*
X67510713Y-53798375D01*
X67513687Y-53808179D01*
X67530117Y-53975000D01*
X67513687Y-54141821D01*
X67513686Y-54141824D01*
X67513686Y-54141825D01*
X67510713Y-54151627D01*
X67465023Y-54302244D01*
X67386005Y-54450078D01*
X67279659Y-54579659D01*
X67150078Y-54686005D01*
X67002244Y-54765023D01*
X67002241Y-54765024D01*
X67002239Y-54765025D01*
X66841825Y-54813686D01*
X66841824Y-54813686D01*
X66841821Y-54813687D01*
X66716804Y-54826000D01*
X66633196Y-54826000D01*
X66508179Y-54813687D01*
X66508176Y-54813686D01*
X66508175Y-54813686D01*
X66347761Y-54765025D01*
X66347759Y-54765024D01*
X66347756Y-54765023D01*
X66199922Y-54686005D01*
X66070341Y-54579659D01*
X65963995Y-54450078D01*
X65884977Y-54302244D01*
X65839288Y-54151627D01*
X65836314Y-54141825D01*
X65836314Y-54141824D01*
X65836313Y-54141821D01*
X65819883Y-53975000D01*
X65836313Y-53808179D01*
X65839287Y-53798375D01*
X65884975Y-53647761D01*
X65884976Y-53647759D01*
X65884977Y-53647756D01*
X65963995Y-53499922D01*
X66070341Y-53370341D01*
X66199922Y-53263995D01*
X66347756Y-53184977D01*
X66347759Y-53184976D01*
X66347761Y-53184975D01*
X66508175Y-53136314D01*
X66508176Y-53136314D01*
X66508179Y-53136313D01*
X66633196Y-53124000D01*
X66716804Y-53124000D01*
X66841821Y-53136313D01*
X66841821Y-53136313D01*
G37*
G36*
X74461821Y-53136313D02*
X74461824Y-53136314D01*
X74461825Y-53136314D01*
X74622239Y-53184975D01*
X74622241Y-53184976D01*
X74622244Y-53184977D01*
X74770078Y-53263995D01*
X74899659Y-53370341D01*
X75006005Y-53499922D01*
X75085023Y-53647756D01*
X75085024Y-53647759D01*
X75085025Y-53647761D01*
X75130713Y-53798375D01*
X75133687Y-53808179D01*
X75150117Y-53975000D01*
X75133687Y-54141821D01*
X75133686Y-54141824D01*
X75133686Y-54141825D01*
X75130713Y-54151627D01*
X75085023Y-54302244D01*
X75006005Y-54450078D01*
X74899659Y-54579659D01*
X74770078Y-54686005D01*
X74622244Y-54765023D01*
X74622241Y-54765024D01*
X74622239Y-54765025D01*
X74461825Y-54813686D01*
X74461824Y-54813686D01*
X74461821Y-54813687D01*
X74336804Y-54826000D01*
X74253196Y-54826000D01*
X74128179Y-54813687D01*
X74128176Y-54813686D01*
X74128175Y-54813686D01*
X73967761Y-54765025D01*
X73967759Y-54765024D01*
X73967756Y-54765023D01*
X73819922Y-54686005D01*
X73690341Y-54579659D01*
X73583995Y-54450078D01*
X73504977Y-54302244D01*
X73459288Y-54151627D01*
X73456314Y-54141825D01*
X73456314Y-54141824D01*
X73456313Y-54141821D01*
X73439883Y-53975000D01*
X73456313Y-53808179D01*
X73459287Y-53798375D01*
X73504975Y-53647761D01*
X73504976Y-53647759D01*
X73504977Y-53647756D01*
X73583995Y-53499922D01*
X73690341Y-53370341D01*
X73819922Y-53263995D01*
X73967756Y-53184977D01*
X73967759Y-53184976D01*
X73967761Y-53184975D01*
X74128175Y-53136314D01*
X74128176Y-53136314D01*
X74128179Y-53136313D01*
X74253196Y-53124000D01*
X74336804Y-53124000D01*
X74461821Y-53136313D01*
X74461821Y-53136313D01*
G37*
G36*
X89066821Y-53136313D02*
X89066824Y-53136314D01*
X89066825Y-53136314D01*
X89227239Y-53184975D01*
X89227241Y-53184976D01*
X89227244Y-53184977D01*
X89375078Y-53263995D01*
X89504659Y-53370341D01*
X89611005Y-53499922D01*
X89690023Y-53647756D01*
X89690024Y-53647759D01*
X89690025Y-53647761D01*
X89735713Y-53798375D01*
X89738687Y-53808179D01*
X89755117Y-53975000D01*
X89738687Y-54141821D01*
X89738686Y-54141824D01*
X89738686Y-54141825D01*
X89735713Y-54151627D01*
X89690023Y-54302244D01*
X89611005Y-54450078D01*
X89504659Y-54579659D01*
X89375078Y-54686005D01*
X89227244Y-54765023D01*
X89227241Y-54765024D01*
X89227239Y-54765025D01*
X89066825Y-54813686D01*
X89066824Y-54813686D01*
X89066821Y-54813687D01*
X88941804Y-54826000D01*
X88858196Y-54826000D01*
X88733179Y-54813687D01*
X88733176Y-54813686D01*
X88733175Y-54813686D01*
X88572761Y-54765025D01*
X88572759Y-54765024D01*
X88572756Y-54765023D01*
X88424922Y-54686005D01*
X88295341Y-54579659D01*
X88188995Y-54450078D01*
X88109977Y-54302244D01*
X88064288Y-54151627D01*
X88061314Y-54141825D01*
X88061314Y-54141824D01*
X88061313Y-54141821D01*
X88044883Y-53975000D01*
X88061313Y-53808179D01*
X88064287Y-53798375D01*
X88109975Y-53647761D01*
X88109976Y-53647759D01*
X88109977Y-53647756D01*
X88188995Y-53499922D01*
X88295341Y-53370341D01*
X88424922Y-53263995D01*
X88572756Y-53184977D01*
X88572759Y-53184976D01*
X88572761Y-53184975D01*
X88733175Y-53136314D01*
X88733176Y-53136314D01*
X88733179Y-53136313D01*
X88858196Y-53124000D01*
X88941804Y-53124000D01*
X89066821Y-53136313D01*
X89066821Y-53136313D01*
G37*
G36*
X81446821Y-53136313D02*
X81446824Y-53136314D01*
X81446825Y-53136314D01*
X81607239Y-53184975D01*
X81607241Y-53184976D01*
X81607244Y-53184977D01*
X81755078Y-53263995D01*
X81884659Y-53370341D01*
X81991005Y-53499922D01*
X82070023Y-53647756D01*
X82070024Y-53647759D01*
X82070025Y-53647761D01*
X82115713Y-53798375D01*
X82118687Y-53808179D01*
X82135117Y-53975000D01*
X82118687Y-54141821D01*
X82118686Y-54141824D01*
X82118686Y-54141825D01*
X82115713Y-54151627D01*
X82070023Y-54302244D01*
X81991005Y-54450078D01*
X81884659Y-54579659D01*
X81755078Y-54686005D01*
X81607244Y-54765023D01*
X81607241Y-54765024D01*
X81607239Y-54765025D01*
X81446825Y-54813686D01*
X81446824Y-54813686D01*
X81446821Y-54813687D01*
X81321804Y-54826000D01*
X81238196Y-54826000D01*
X81113179Y-54813687D01*
X81113176Y-54813686D01*
X81113175Y-54813686D01*
X80952761Y-54765025D01*
X80952759Y-54765024D01*
X80952756Y-54765023D01*
X80804922Y-54686005D01*
X80675341Y-54579659D01*
X80568995Y-54450078D01*
X80489977Y-54302244D01*
X80444288Y-54151627D01*
X80441314Y-54141825D01*
X80441314Y-54141824D01*
X80441313Y-54141821D01*
X80424883Y-53975000D01*
X80441313Y-53808179D01*
X80444287Y-53798375D01*
X80489975Y-53647761D01*
X80489976Y-53647759D01*
X80489977Y-53647756D01*
X80568995Y-53499922D01*
X80675341Y-53370341D01*
X80804922Y-53263995D01*
X80952756Y-53184977D01*
X80952759Y-53184976D01*
X80952761Y-53184975D01*
X81113175Y-53136314D01*
X81113176Y-53136314D01*
X81113179Y-53136313D01*
X81238196Y-53124000D01*
X81321804Y-53124000D01*
X81446821Y-53136313D01*
X81446821Y-53136313D01*
G37*
G36*
X55511000Y-52336000D02*
X53709000Y-52336000D01*
X53709000Y-50534000D01*
X55511000Y-50534000D01*
X55511000Y-52336000D01*
X55511000Y-52336000D01*
G37*
G36*
X123935442Y-50540518D02*
X124001627Y-50547037D01*
X124114853Y-50581384D01*
X124171467Y-50598557D01*
X124258311Y-50644977D01*
X124327991Y-50682222D01*
X124363729Y-50711552D01*
X124465186Y-50794814D01*
X124548448Y-50896271D01*
X124577778Y-50932009D01*
X124577779Y-50932011D01*
X124661443Y-51088533D01*
X124678616Y-51145147D01*
X124712963Y-51258373D01*
X124730359Y-51435000D01*
X124712963Y-51611627D01*
X124678616Y-51724853D01*
X124661443Y-51781467D01*
X124592698Y-51910078D01*
X124577778Y-51937991D01*
X124548448Y-51973729D01*
X124465186Y-52075186D01*
X124363729Y-52158448D01*
X124327991Y-52187778D01*
X124327989Y-52187779D01*
X124171467Y-52271443D01*
X124164069Y-52273687D01*
X124001627Y-52322963D01*
X123935443Y-52329481D01*
X123869260Y-52336000D01*
X123780740Y-52336000D01*
X123714558Y-52329482D01*
X123648373Y-52322963D01*
X123485931Y-52273687D01*
X123478533Y-52271443D01*
X123322011Y-52187779D01*
X123322009Y-52187778D01*
X123286271Y-52158448D01*
X123184814Y-52075186D01*
X123101552Y-51973729D01*
X123072222Y-51937991D01*
X123057302Y-51910078D01*
X122988557Y-51781467D01*
X122971384Y-51724853D01*
X122937037Y-51611627D01*
X122919641Y-51435000D01*
X122937037Y-51258373D01*
X122971384Y-51145147D01*
X122988557Y-51088533D01*
X123072221Y-50932011D01*
X123072222Y-50932009D01*
X123101552Y-50896271D01*
X123184814Y-50794814D01*
X123286271Y-50711552D01*
X123322009Y-50682222D01*
X123391689Y-50644977D01*
X123478533Y-50598557D01*
X123535147Y-50581384D01*
X123648373Y-50547037D01*
X123714558Y-50540518D01*
X123780740Y-50534000D01*
X123869260Y-50534000D01*
X123935442Y-50540518D01*
X123935442Y-50540518D01*
G37*
G36*
X89066821Y-50596313D02*
X89066824Y-50596314D01*
X89066825Y-50596314D01*
X89227239Y-50644975D01*
X89227241Y-50644976D01*
X89227244Y-50644977D01*
X89375078Y-50723995D01*
X89504659Y-50830341D01*
X89611005Y-50959922D01*
X89690023Y-51107756D01*
X89690024Y-51107759D01*
X89690025Y-51107761D01*
X89735713Y-51258375D01*
X89738687Y-51268179D01*
X89755117Y-51435000D01*
X89738687Y-51601821D01*
X89738686Y-51601824D01*
X89738686Y-51601825D01*
X89735713Y-51611627D01*
X89690023Y-51762244D01*
X89611005Y-51910078D01*
X89504659Y-52039659D01*
X89375078Y-52146005D01*
X89227244Y-52225023D01*
X89227241Y-52225024D01*
X89227239Y-52225025D01*
X89066825Y-52273686D01*
X89066824Y-52273686D01*
X89066821Y-52273687D01*
X88941804Y-52286000D01*
X88858196Y-52286000D01*
X88733179Y-52273687D01*
X88733176Y-52273686D01*
X88733175Y-52273686D01*
X88572761Y-52225025D01*
X88572759Y-52225024D01*
X88572756Y-52225023D01*
X88424922Y-52146005D01*
X88295341Y-52039659D01*
X88188995Y-51910078D01*
X88109977Y-51762244D01*
X88064288Y-51611627D01*
X88061314Y-51601825D01*
X88061314Y-51601824D01*
X88061313Y-51601821D01*
X88044883Y-51435000D01*
X88061313Y-51268179D01*
X88064287Y-51258375D01*
X88109975Y-51107761D01*
X88109976Y-51107759D01*
X88109977Y-51107756D01*
X88188995Y-50959922D01*
X88295341Y-50830341D01*
X88424922Y-50723995D01*
X88572756Y-50644977D01*
X88572759Y-50644976D01*
X88572761Y-50644975D01*
X88733175Y-50596314D01*
X88733176Y-50596314D01*
X88733179Y-50596313D01*
X88858196Y-50584000D01*
X88941804Y-50584000D01*
X89066821Y-50596313D01*
X89066821Y-50596313D01*
G37*
G36*
X81446821Y-50596313D02*
X81446824Y-50596314D01*
X81446825Y-50596314D01*
X81607239Y-50644975D01*
X81607241Y-50644976D01*
X81607244Y-50644977D01*
X81755078Y-50723995D01*
X81884659Y-50830341D01*
X81991005Y-50959922D01*
X82070023Y-51107756D01*
X82070024Y-51107759D01*
X82070025Y-51107761D01*
X82115713Y-51258375D01*
X82118687Y-51268179D01*
X82135117Y-51435000D01*
X82118687Y-51601821D01*
X82118686Y-51601824D01*
X82118686Y-51601825D01*
X82115713Y-51611627D01*
X82070023Y-51762244D01*
X81991005Y-51910078D01*
X81884659Y-52039659D01*
X81755078Y-52146005D01*
X81607244Y-52225023D01*
X81607241Y-52225024D01*
X81607239Y-52225025D01*
X81446825Y-52273686D01*
X81446824Y-52273686D01*
X81446821Y-52273687D01*
X81321804Y-52286000D01*
X81238196Y-52286000D01*
X81113179Y-52273687D01*
X81113176Y-52273686D01*
X81113175Y-52273686D01*
X80952761Y-52225025D01*
X80952759Y-52225024D01*
X80952756Y-52225023D01*
X80804922Y-52146005D01*
X80675341Y-52039659D01*
X80568995Y-51910078D01*
X80489977Y-51762244D01*
X80444288Y-51611627D01*
X80441314Y-51601825D01*
X80441314Y-51601824D01*
X80441313Y-51601821D01*
X80424883Y-51435000D01*
X80441313Y-51268179D01*
X80444287Y-51258375D01*
X80489975Y-51107761D01*
X80489976Y-51107759D01*
X80489977Y-51107756D01*
X80568995Y-50959922D01*
X80675341Y-50830341D01*
X80804922Y-50723995D01*
X80952756Y-50644977D01*
X80952759Y-50644976D01*
X80952761Y-50644975D01*
X81113175Y-50596314D01*
X81113176Y-50596314D01*
X81113179Y-50596313D01*
X81238196Y-50584000D01*
X81321804Y-50584000D01*
X81446821Y-50596313D01*
X81446821Y-50596313D01*
G37*
G36*
X110021821Y-50596313D02*
X110021824Y-50596314D01*
X110021825Y-50596314D01*
X110182239Y-50644975D01*
X110182241Y-50644976D01*
X110182244Y-50644977D01*
X110330078Y-50723995D01*
X110459659Y-50830341D01*
X110566005Y-50959922D01*
X110645023Y-51107756D01*
X110645024Y-51107759D01*
X110645025Y-51107761D01*
X110690713Y-51258375D01*
X110693687Y-51268179D01*
X110710117Y-51435000D01*
X110693687Y-51601821D01*
X110693686Y-51601824D01*
X110693686Y-51601825D01*
X110690713Y-51611627D01*
X110645023Y-51762244D01*
X110566005Y-51910078D01*
X110459659Y-52039659D01*
X110330078Y-52146005D01*
X110182244Y-52225023D01*
X110182241Y-52225024D01*
X110182239Y-52225025D01*
X110021825Y-52273686D01*
X110021824Y-52273686D01*
X110021821Y-52273687D01*
X109896804Y-52286000D01*
X109813196Y-52286000D01*
X109688179Y-52273687D01*
X109688176Y-52273686D01*
X109688175Y-52273686D01*
X109527761Y-52225025D01*
X109527759Y-52225024D01*
X109527756Y-52225023D01*
X109379922Y-52146005D01*
X109250341Y-52039659D01*
X109143995Y-51910078D01*
X109064977Y-51762244D01*
X109019288Y-51611627D01*
X109016314Y-51601825D01*
X109016314Y-51601824D01*
X109016313Y-51601821D01*
X108999883Y-51435000D01*
X109016313Y-51268179D01*
X109019287Y-51258375D01*
X109064975Y-51107761D01*
X109064976Y-51107759D01*
X109064977Y-51107756D01*
X109143995Y-50959922D01*
X109250341Y-50830341D01*
X109379922Y-50723995D01*
X109527756Y-50644977D01*
X109527759Y-50644976D01*
X109527761Y-50644975D01*
X109688175Y-50596314D01*
X109688176Y-50596314D01*
X109688179Y-50596313D01*
X109813196Y-50584000D01*
X109896804Y-50584000D01*
X110021821Y-50596313D01*
X110021821Y-50596313D01*
G37*
G36*
X96051821Y-50596313D02*
X96051824Y-50596314D01*
X96051825Y-50596314D01*
X96212239Y-50644975D01*
X96212241Y-50644976D01*
X96212244Y-50644977D01*
X96360078Y-50723995D01*
X96489659Y-50830341D01*
X96596005Y-50959922D01*
X96675023Y-51107756D01*
X96675024Y-51107759D01*
X96675025Y-51107761D01*
X96720713Y-51258375D01*
X96723687Y-51268179D01*
X96740117Y-51435000D01*
X96723687Y-51601821D01*
X96723686Y-51601824D01*
X96723686Y-51601825D01*
X96720713Y-51611627D01*
X96675023Y-51762244D01*
X96596005Y-51910078D01*
X96489659Y-52039659D01*
X96360078Y-52146005D01*
X96212244Y-52225023D01*
X96212241Y-52225024D01*
X96212239Y-52225025D01*
X96051825Y-52273686D01*
X96051824Y-52273686D01*
X96051821Y-52273687D01*
X95926804Y-52286000D01*
X95843196Y-52286000D01*
X95718179Y-52273687D01*
X95718176Y-52273686D01*
X95718175Y-52273686D01*
X95557761Y-52225025D01*
X95557759Y-52225024D01*
X95557756Y-52225023D01*
X95409922Y-52146005D01*
X95280341Y-52039659D01*
X95173995Y-51910078D01*
X95094977Y-51762244D01*
X95049288Y-51611627D01*
X95046314Y-51601825D01*
X95046314Y-51601824D01*
X95046313Y-51601821D01*
X95029883Y-51435000D01*
X95046313Y-51268179D01*
X95049287Y-51258375D01*
X95094975Y-51107761D01*
X95094976Y-51107759D01*
X95094977Y-51107756D01*
X95173995Y-50959922D01*
X95280341Y-50830341D01*
X95409922Y-50723995D01*
X95557756Y-50644977D01*
X95557759Y-50644976D01*
X95557761Y-50644975D01*
X95718175Y-50596314D01*
X95718176Y-50596314D01*
X95718179Y-50596313D01*
X95843196Y-50584000D01*
X95926804Y-50584000D01*
X96051821Y-50596313D01*
X96051821Y-50596313D01*
G37*
G36*
X66841821Y-50596313D02*
X66841824Y-50596314D01*
X66841825Y-50596314D01*
X67002239Y-50644975D01*
X67002241Y-50644976D01*
X67002244Y-50644977D01*
X67150078Y-50723995D01*
X67279659Y-50830341D01*
X67386005Y-50959922D01*
X67465023Y-51107756D01*
X67465024Y-51107759D01*
X67465025Y-51107761D01*
X67510713Y-51258375D01*
X67513687Y-51268179D01*
X67530117Y-51435000D01*
X67513687Y-51601821D01*
X67513686Y-51601824D01*
X67513686Y-51601825D01*
X67510713Y-51611627D01*
X67465023Y-51762244D01*
X67386005Y-51910078D01*
X67279659Y-52039659D01*
X67150078Y-52146005D01*
X67002244Y-52225023D01*
X67002241Y-52225024D01*
X67002239Y-52225025D01*
X66841825Y-52273686D01*
X66841824Y-52273686D01*
X66841821Y-52273687D01*
X66716804Y-52286000D01*
X66633196Y-52286000D01*
X66508179Y-52273687D01*
X66508176Y-52273686D01*
X66508175Y-52273686D01*
X66347761Y-52225025D01*
X66347759Y-52225024D01*
X66347756Y-52225023D01*
X66199922Y-52146005D01*
X66070341Y-52039659D01*
X65963995Y-51910078D01*
X65884977Y-51762244D01*
X65839288Y-51611627D01*
X65836314Y-51601825D01*
X65836314Y-51601824D01*
X65836313Y-51601821D01*
X65819883Y-51435000D01*
X65836313Y-51268179D01*
X65839287Y-51258375D01*
X65884975Y-51107761D01*
X65884976Y-51107759D01*
X65884977Y-51107756D01*
X65963995Y-50959922D01*
X66070341Y-50830341D01*
X66199922Y-50723995D01*
X66347756Y-50644977D01*
X66347759Y-50644976D01*
X66347761Y-50644975D01*
X66508175Y-50596314D01*
X66508176Y-50596314D01*
X66508179Y-50596313D01*
X66633196Y-50584000D01*
X66716804Y-50584000D01*
X66841821Y-50596313D01*
X66841821Y-50596313D01*
G37*
G36*
X103671821Y-50596313D02*
X103671824Y-50596314D01*
X103671825Y-50596314D01*
X103832239Y-50644975D01*
X103832241Y-50644976D01*
X103832244Y-50644977D01*
X103980078Y-50723995D01*
X104109659Y-50830341D01*
X104216005Y-50959922D01*
X104295023Y-51107756D01*
X104295024Y-51107759D01*
X104295025Y-51107761D01*
X104340713Y-51258375D01*
X104343687Y-51268179D01*
X104360117Y-51435000D01*
X104343687Y-51601821D01*
X104343686Y-51601824D01*
X104343686Y-51601825D01*
X104340713Y-51611627D01*
X104295023Y-51762244D01*
X104216005Y-51910078D01*
X104109659Y-52039659D01*
X103980078Y-52146005D01*
X103832244Y-52225023D01*
X103832241Y-52225024D01*
X103832239Y-52225025D01*
X103671825Y-52273686D01*
X103671824Y-52273686D01*
X103671821Y-52273687D01*
X103546804Y-52286000D01*
X103463196Y-52286000D01*
X103338179Y-52273687D01*
X103338176Y-52273686D01*
X103338175Y-52273686D01*
X103177761Y-52225025D01*
X103177759Y-52225024D01*
X103177756Y-52225023D01*
X103029922Y-52146005D01*
X102900341Y-52039659D01*
X102793995Y-51910078D01*
X102714977Y-51762244D01*
X102669288Y-51611627D01*
X102666314Y-51601825D01*
X102666314Y-51601824D01*
X102666313Y-51601821D01*
X102649883Y-51435000D01*
X102666313Y-51268179D01*
X102669287Y-51258375D01*
X102714975Y-51107761D01*
X102714976Y-51107759D01*
X102714977Y-51107756D01*
X102793995Y-50959922D01*
X102900341Y-50830341D01*
X103029922Y-50723995D01*
X103177756Y-50644977D01*
X103177759Y-50644976D01*
X103177761Y-50644975D01*
X103338175Y-50596314D01*
X103338176Y-50596314D01*
X103338179Y-50596313D01*
X103463196Y-50584000D01*
X103546804Y-50584000D01*
X103671821Y-50596313D01*
X103671821Y-50596313D01*
G37*
G36*
X74461821Y-50596313D02*
X74461824Y-50596314D01*
X74461825Y-50596314D01*
X74622239Y-50644975D01*
X74622241Y-50644976D01*
X74622244Y-50644977D01*
X74770078Y-50723995D01*
X74899659Y-50830341D01*
X75006005Y-50959922D01*
X75085023Y-51107756D01*
X75085024Y-51107759D01*
X75085025Y-51107761D01*
X75130713Y-51258375D01*
X75133687Y-51268179D01*
X75150117Y-51435000D01*
X75133687Y-51601821D01*
X75133686Y-51601824D01*
X75133686Y-51601825D01*
X75130713Y-51611627D01*
X75085023Y-51762244D01*
X75006005Y-51910078D01*
X74899659Y-52039659D01*
X74770078Y-52146005D01*
X74622244Y-52225023D01*
X74622241Y-52225024D01*
X74622239Y-52225025D01*
X74461825Y-52273686D01*
X74461824Y-52273686D01*
X74461821Y-52273687D01*
X74336804Y-52286000D01*
X74253196Y-52286000D01*
X74128179Y-52273687D01*
X74128176Y-52273686D01*
X74128175Y-52273686D01*
X73967761Y-52225025D01*
X73967759Y-52225024D01*
X73967756Y-52225023D01*
X73819922Y-52146005D01*
X73690341Y-52039659D01*
X73583995Y-51910078D01*
X73504977Y-51762244D01*
X73459288Y-51611627D01*
X73456314Y-51601825D01*
X73456314Y-51601824D01*
X73456313Y-51601821D01*
X73439883Y-51435000D01*
X73456313Y-51268179D01*
X73459287Y-51258375D01*
X73504975Y-51107761D01*
X73504976Y-51107759D01*
X73504977Y-51107756D01*
X73583995Y-50959922D01*
X73690341Y-50830341D01*
X73819922Y-50723995D01*
X73967756Y-50644977D01*
X73967759Y-50644976D01*
X73967761Y-50644975D01*
X74128175Y-50596314D01*
X74128176Y-50596314D01*
X74128179Y-50596313D01*
X74253196Y-50584000D01*
X74336804Y-50584000D01*
X74461821Y-50596313D01*
X74461821Y-50596313D01*
G37*
G36*
X117641821Y-50596313D02*
X117641824Y-50596314D01*
X117641825Y-50596314D01*
X117802239Y-50644975D01*
X117802241Y-50644976D01*
X117802244Y-50644977D01*
X117950078Y-50723995D01*
X118079659Y-50830341D01*
X118186005Y-50959922D01*
X118265023Y-51107756D01*
X118265024Y-51107759D01*
X118265025Y-51107761D01*
X118310713Y-51258375D01*
X118313687Y-51268179D01*
X118330117Y-51435000D01*
X118313687Y-51601821D01*
X118313686Y-51601824D01*
X118313686Y-51601825D01*
X118310713Y-51611627D01*
X118265023Y-51762244D01*
X118186005Y-51910078D01*
X118079659Y-52039659D01*
X117950078Y-52146005D01*
X117802244Y-52225023D01*
X117802241Y-52225024D01*
X117802239Y-52225025D01*
X117641825Y-52273686D01*
X117641824Y-52273686D01*
X117641821Y-52273687D01*
X117516804Y-52286000D01*
X117433196Y-52286000D01*
X117308179Y-52273687D01*
X117308176Y-52273686D01*
X117308175Y-52273686D01*
X117147761Y-52225025D01*
X117147759Y-52225024D01*
X117147756Y-52225023D01*
X116999922Y-52146005D01*
X116870341Y-52039659D01*
X116763995Y-51910078D01*
X116684977Y-51762244D01*
X116639288Y-51611627D01*
X116636314Y-51601825D01*
X116636314Y-51601824D01*
X116636313Y-51601821D01*
X116619883Y-51435000D01*
X116636313Y-51268179D01*
X116639287Y-51258375D01*
X116684975Y-51107761D01*
X116684976Y-51107759D01*
X116684977Y-51107756D01*
X116763995Y-50959922D01*
X116870341Y-50830341D01*
X116999922Y-50723995D01*
X117147756Y-50644977D01*
X117147759Y-50644976D01*
X117147761Y-50644975D01*
X117308175Y-50596314D01*
X117308176Y-50596314D01*
X117308179Y-50596313D01*
X117433196Y-50584000D01*
X117516804Y-50584000D01*
X117641821Y-50596313D01*
X117641821Y-50596313D01*
G37*
G36*
X123935442Y-48000518D02*
X124001627Y-48007037D01*
X124114853Y-48041384D01*
X124171467Y-48058557D01*
X124258311Y-48104977D01*
X124327991Y-48142222D01*
X124363729Y-48171552D01*
X124465186Y-48254814D01*
X124548448Y-48356271D01*
X124577778Y-48392009D01*
X124577779Y-48392011D01*
X124661443Y-48548533D01*
X124678616Y-48605147D01*
X124712963Y-48718373D01*
X124730359Y-48895000D01*
X124712963Y-49071627D01*
X124678616Y-49184853D01*
X124661443Y-49241467D01*
X124592698Y-49370078D01*
X124577778Y-49397991D01*
X124548448Y-49433729D01*
X124465186Y-49535186D01*
X124363729Y-49618448D01*
X124327991Y-49647778D01*
X124327989Y-49647779D01*
X124171467Y-49731443D01*
X124164069Y-49733687D01*
X124001627Y-49782963D01*
X123935443Y-49789481D01*
X123869260Y-49796000D01*
X123780740Y-49796000D01*
X123714557Y-49789481D01*
X123648373Y-49782963D01*
X123485931Y-49733687D01*
X123478533Y-49731443D01*
X123322011Y-49647779D01*
X123322009Y-49647778D01*
X123286271Y-49618448D01*
X123184814Y-49535186D01*
X123101552Y-49433729D01*
X123072222Y-49397991D01*
X123057302Y-49370078D01*
X122988557Y-49241467D01*
X122971384Y-49184853D01*
X122937037Y-49071627D01*
X122919641Y-48895000D01*
X122937037Y-48718373D01*
X122971384Y-48605147D01*
X122988557Y-48548533D01*
X123072221Y-48392011D01*
X123072222Y-48392009D01*
X123101552Y-48356271D01*
X123184814Y-48254814D01*
X123286271Y-48171552D01*
X123322009Y-48142222D01*
X123391689Y-48104977D01*
X123478533Y-48058557D01*
X123535147Y-48041384D01*
X123648373Y-48007037D01*
X123714557Y-48000519D01*
X123780740Y-47994000D01*
X123869260Y-47994000D01*
X123935442Y-48000518D01*
X123935442Y-48000518D01*
G37*
G36*
X67526000Y-49746000D02*
X65824000Y-49746000D01*
X65824000Y-48044000D01*
X67526000Y-48044000D01*
X67526000Y-49746000D01*
X67526000Y-49746000D01*
G37*
G36*
X82131000Y-49746000D02*
X80429000Y-49746000D01*
X80429000Y-48044000D01*
X82131000Y-48044000D01*
X82131000Y-49746000D01*
X82131000Y-49746000D01*
G37*
G36*
X74461821Y-48056313D02*
X74461824Y-48056314D01*
X74461825Y-48056314D01*
X74622239Y-48104975D01*
X74622241Y-48104976D01*
X74622244Y-48104977D01*
X74770078Y-48183995D01*
X74899659Y-48290341D01*
X75006005Y-48419922D01*
X75085023Y-48567756D01*
X75085024Y-48567759D01*
X75085025Y-48567761D01*
X75130713Y-48718375D01*
X75133687Y-48728179D01*
X75150117Y-48895000D01*
X75133687Y-49061821D01*
X75133686Y-49061824D01*
X75133686Y-49061825D01*
X75130713Y-49071627D01*
X75085023Y-49222244D01*
X75006005Y-49370078D01*
X74899659Y-49499659D01*
X74770078Y-49606005D01*
X74622244Y-49685023D01*
X74622241Y-49685024D01*
X74622239Y-49685025D01*
X74461825Y-49733686D01*
X74461824Y-49733686D01*
X74461821Y-49733687D01*
X74336804Y-49746000D01*
X74253196Y-49746000D01*
X74128179Y-49733687D01*
X74128176Y-49733686D01*
X74128175Y-49733686D01*
X73967761Y-49685025D01*
X73967759Y-49685024D01*
X73967756Y-49685023D01*
X73819922Y-49606005D01*
X73690341Y-49499659D01*
X73583995Y-49370078D01*
X73504977Y-49222244D01*
X73459288Y-49071627D01*
X73456314Y-49061825D01*
X73456314Y-49061824D01*
X73456313Y-49061821D01*
X73439883Y-48895000D01*
X73456313Y-48728179D01*
X73459287Y-48718375D01*
X73504975Y-48567761D01*
X73504976Y-48567759D01*
X73504977Y-48567756D01*
X73583995Y-48419922D01*
X73690341Y-48290341D01*
X73819922Y-48183995D01*
X73967756Y-48104977D01*
X73967759Y-48104976D01*
X73967761Y-48104975D01*
X74128175Y-48056314D01*
X74128176Y-48056314D01*
X74128179Y-48056313D01*
X74253196Y-48044000D01*
X74336804Y-48044000D01*
X74461821Y-48056313D01*
X74461821Y-48056313D01*
G37*
G36*
X117641821Y-48056313D02*
X117641824Y-48056314D01*
X117641825Y-48056314D01*
X117802239Y-48104975D01*
X117802241Y-48104976D01*
X117802244Y-48104977D01*
X117950078Y-48183995D01*
X118079659Y-48290341D01*
X118186005Y-48419922D01*
X118265023Y-48567756D01*
X118265024Y-48567759D01*
X118265025Y-48567761D01*
X118310713Y-48718375D01*
X118313687Y-48728179D01*
X118330117Y-48895000D01*
X118313687Y-49061821D01*
X118313686Y-49061824D01*
X118313686Y-49061825D01*
X118310713Y-49071627D01*
X118265023Y-49222244D01*
X118186005Y-49370078D01*
X118079659Y-49499659D01*
X117950078Y-49606005D01*
X117802244Y-49685023D01*
X117802241Y-49685024D01*
X117802239Y-49685025D01*
X117641825Y-49733686D01*
X117641824Y-49733686D01*
X117641821Y-49733687D01*
X117516804Y-49746000D01*
X117433196Y-49746000D01*
X117308179Y-49733687D01*
X117308176Y-49733686D01*
X117308175Y-49733686D01*
X117147761Y-49685025D01*
X117147759Y-49685024D01*
X117147756Y-49685023D01*
X116999922Y-49606005D01*
X116870341Y-49499659D01*
X116763995Y-49370078D01*
X116684977Y-49222244D01*
X116639288Y-49071627D01*
X116636314Y-49061825D01*
X116636314Y-49061824D01*
X116636313Y-49061821D01*
X116619883Y-48895000D01*
X116636313Y-48728179D01*
X116639287Y-48718375D01*
X116684975Y-48567761D01*
X116684976Y-48567759D01*
X116684977Y-48567756D01*
X116763995Y-48419922D01*
X116870341Y-48290341D01*
X116999922Y-48183995D01*
X117147756Y-48104977D01*
X117147759Y-48104976D01*
X117147761Y-48104975D01*
X117308175Y-48056314D01*
X117308176Y-48056314D01*
X117308179Y-48056313D01*
X117433196Y-48044000D01*
X117516804Y-48044000D01*
X117641821Y-48056313D01*
X117641821Y-48056313D01*
G37*
G36*
X89066821Y-48056313D02*
X89066824Y-48056314D01*
X89066825Y-48056314D01*
X89227239Y-48104975D01*
X89227241Y-48104976D01*
X89227244Y-48104977D01*
X89375078Y-48183995D01*
X89504659Y-48290341D01*
X89611005Y-48419922D01*
X89690023Y-48567756D01*
X89690024Y-48567759D01*
X89690025Y-48567761D01*
X89735713Y-48718375D01*
X89738687Y-48728179D01*
X89755117Y-48895000D01*
X89738687Y-49061821D01*
X89738686Y-49061824D01*
X89738686Y-49061825D01*
X89735713Y-49071627D01*
X89690023Y-49222244D01*
X89611005Y-49370078D01*
X89504659Y-49499659D01*
X89375078Y-49606005D01*
X89227244Y-49685023D01*
X89227241Y-49685024D01*
X89227239Y-49685025D01*
X89066825Y-49733686D01*
X89066824Y-49733686D01*
X89066821Y-49733687D01*
X88941804Y-49746000D01*
X88858196Y-49746000D01*
X88733179Y-49733687D01*
X88733176Y-49733686D01*
X88733175Y-49733686D01*
X88572761Y-49685025D01*
X88572759Y-49685024D01*
X88572756Y-49685023D01*
X88424922Y-49606005D01*
X88295341Y-49499659D01*
X88188995Y-49370078D01*
X88109977Y-49222244D01*
X88064288Y-49071627D01*
X88061314Y-49061825D01*
X88061314Y-49061824D01*
X88061313Y-49061821D01*
X88044883Y-48895000D01*
X88061313Y-48728179D01*
X88064287Y-48718375D01*
X88109975Y-48567761D01*
X88109976Y-48567759D01*
X88109977Y-48567756D01*
X88188995Y-48419922D01*
X88295341Y-48290341D01*
X88424922Y-48183995D01*
X88572756Y-48104977D01*
X88572759Y-48104976D01*
X88572761Y-48104975D01*
X88733175Y-48056314D01*
X88733176Y-48056314D01*
X88733179Y-48056313D01*
X88858196Y-48044000D01*
X88941804Y-48044000D01*
X89066821Y-48056313D01*
X89066821Y-48056313D01*
G37*
G36*
X103671821Y-48056313D02*
X103671824Y-48056314D01*
X103671825Y-48056314D01*
X103832239Y-48104975D01*
X103832241Y-48104976D01*
X103832244Y-48104977D01*
X103980078Y-48183995D01*
X104109659Y-48290341D01*
X104216005Y-48419922D01*
X104295023Y-48567756D01*
X104295024Y-48567759D01*
X104295025Y-48567761D01*
X104340713Y-48718375D01*
X104343687Y-48728179D01*
X104360117Y-48895000D01*
X104343687Y-49061821D01*
X104343686Y-49061824D01*
X104343686Y-49061825D01*
X104340713Y-49071627D01*
X104295023Y-49222244D01*
X104216005Y-49370078D01*
X104109659Y-49499659D01*
X103980078Y-49606005D01*
X103832244Y-49685023D01*
X103832241Y-49685024D01*
X103832239Y-49685025D01*
X103671825Y-49733686D01*
X103671824Y-49733686D01*
X103671821Y-49733687D01*
X103546804Y-49746000D01*
X103463196Y-49746000D01*
X103338179Y-49733687D01*
X103338176Y-49733686D01*
X103338175Y-49733686D01*
X103177761Y-49685025D01*
X103177759Y-49685024D01*
X103177756Y-49685023D01*
X103029922Y-49606005D01*
X102900341Y-49499659D01*
X102793995Y-49370078D01*
X102714977Y-49222244D01*
X102669288Y-49071627D01*
X102666314Y-49061825D01*
X102666314Y-49061824D01*
X102666313Y-49061821D01*
X102649883Y-48895000D01*
X102666313Y-48728179D01*
X102669287Y-48718375D01*
X102714975Y-48567761D01*
X102714976Y-48567759D01*
X102714977Y-48567756D01*
X102793995Y-48419922D01*
X102900341Y-48290341D01*
X103029922Y-48183995D01*
X103177756Y-48104977D01*
X103177759Y-48104976D01*
X103177761Y-48104975D01*
X103338175Y-48056314D01*
X103338176Y-48056314D01*
X103338179Y-48056313D01*
X103463196Y-48044000D01*
X103546804Y-48044000D01*
X103671821Y-48056313D01*
X103671821Y-48056313D01*
G37*
G36*
X110021821Y-48056313D02*
X110021824Y-48056314D01*
X110021825Y-48056314D01*
X110182239Y-48104975D01*
X110182241Y-48104976D01*
X110182244Y-48104977D01*
X110330078Y-48183995D01*
X110459659Y-48290341D01*
X110566005Y-48419922D01*
X110645023Y-48567756D01*
X110645024Y-48567759D01*
X110645025Y-48567761D01*
X110690713Y-48718375D01*
X110693687Y-48728179D01*
X110710117Y-48895000D01*
X110693687Y-49061821D01*
X110693686Y-49061824D01*
X110693686Y-49061825D01*
X110690713Y-49071627D01*
X110645023Y-49222244D01*
X110566005Y-49370078D01*
X110459659Y-49499659D01*
X110330078Y-49606005D01*
X110182244Y-49685023D01*
X110182241Y-49685024D01*
X110182239Y-49685025D01*
X110021825Y-49733686D01*
X110021824Y-49733686D01*
X110021821Y-49733687D01*
X109896804Y-49746000D01*
X109813196Y-49746000D01*
X109688179Y-49733687D01*
X109688176Y-49733686D01*
X109688175Y-49733686D01*
X109527761Y-49685025D01*
X109527759Y-49685024D01*
X109527756Y-49685023D01*
X109379922Y-49606005D01*
X109250341Y-49499659D01*
X109143995Y-49370078D01*
X109064977Y-49222244D01*
X109019288Y-49071627D01*
X109016314Y-49061825D01*
X109016314Y-49061824D01*
X109016313Y-49061821D01*
X108999883Y-48895000D01*
X109016313Y-48728179D01*
X109019287Y-48718375D01*
X109064975Y-48567761D01*
X109064976Y-48567759D01*
X109064977Y-48567756D01*
X109143995Y-48419922D01*
X109250341Y-48290341D01*
X109379922Y-48183995D01*
X109527756Y-48104977D01*
X109527759Y-48104976D01*
X109527761Y-48104975D01*
X109688175Y-48056314D01*
X109688176Y-48056314D01*
X109688179Y-48056313D01*
X109813196Y-48044000D01*
X109896804Y-48044000D01*
X110021821Y-48056313D01*
X110021821Y-48056313D01*
G37*
G36*
X96051821Y-48056313D02*
X96051824Y-48056314D01*
X96051825Y-48056314D01*
X96212239Y-48104975D01*
X96212241Y-48104976D01*
X96212244Y-48104977D01*
X96360078Y-48183995D01*
X96489659Y-48290341D01*
X96596005Y-48419922D01*
X96675023Y-48567756D01*
X96675024Y-48567759D01*
X96675025Y-48567761D01*
X96720713Y-48718375D01*
X96723687Y-48728179D01*
X96740117Y-48895000D01*
X96723687Y-49061821D01*
X96723686Y-49061824D01*
X96723686Y-49061825D01*
X96720713Y-49071627D01*
X96675023Y-49222244D01*
X96596005Y-49370078D01*
X96489659Y-49499659D01*
X96360078Y-49606005D01*
X96212244Y-49685023D01*
X96212241Y-49685024D01*
X96212239Y-49685025D01*
X96051825Y-49733686D01*
X96051824Y-49733686D01*
X96051821Y-49733687D01*
X95926804Y-49746000D01*
X95843196Y-49746000D01*
X95718179Y-49733687D01*
X95718176Y-49733686D01*
X95718175Y-49733686D01*
X95557761Y-49685025D01*
X95557759Y-49685024D01*
X95557756Y-49685023D01*
X95409922Y-49606005D01*
X95280341Y-49499659D01*
X95173995Y-49370078D01*
X95094977Y-49222244D01*
X95049288Y-49071627D01*
X95046314Y-49061825D01*
X95046314Y-49061824D01*
X95046313Y-49061821D01*
X95029883Y-48895000D01*
X95046313Y-48728179D01*
X95049287Y-48718375D01*
X95094975Y-48567761D01*
X95094976Y-48567759D01*
X95094977Y-48567756D01*
X95173995Y-48419922D01*
X95280341Y-48290341D01*
X95409922Y-48183995D01*
X95557756Y-48104977D01*
X95557759Y-48104976D01*
X95557761Y-48104975D01*
X95718175Y-48056314D01*
X95718176Y-48056314D01*
X95718179Y-48056313D01*
X95843196Y-48044000D01*
X95926804Y-48044000D01*
X96051821Y-48056313D01*
X96051821Y-48056313D01*
G37*
G36*
X123935443Y-45460519D02*
X124001627Y-45467037D01*
X124114853Y-45501384D01*
X124171467Y-45518557D01*
X124258311Y-45564977D01*
X124327991Y-45602222D01*
X124363729Y-45631552D01*
X124465186Y-45714814D01*
X124548448Y-45816271D01*
X124577778Y-45852009D01*
X124577779Y-45852011D01*
X124661443Y-46008533D01*
X124678616Y-46065147D01*
X124712963Y-46178373D01*
X124730359Y-46355000D01*
X124712963Y-46531627D01*
X124678616Y-46644853D01*
X124661443Y-46701467D01*
X124592698Y-46830078D01*
X124577778Y-46857991D01*
X124548448Y-46893729D01*
X124465186Y-46995186D01*
X124363729Y-47078448D01*
X124327991Y-47107778D01*
X124327989Y-47107779D01*
X124171467Y-47191443D01*
X124164069Y-47193687D01*
X124001627Y-47242963D01*
X123935442Y-47249482D01*
X123869260Y-47256000D01*
X123780740Y-47256000D01*
X123714558Y-47249482D01*
X123648373Y-47242963D01*
X123485931Y-47193687D01*
X123478533Y-47191443D01*
X123322011Y-47107779D01*
X123322009Y-47107778D01*
X123286271Y-47078448D01*
X123184814Y-46995186D01*
X123101552Y-46893729D01*
X123072222Y-46857991D01*
X123057302Y-46830078D01*
X122988557Y-46701467D01*
X122971384Y-46644853D01*
X122937037Y-46531627D01*
X122919641Y-46355000D01*
X122937037Y-46178373D01*
X122971384Y-46065147D01*
X122988557Y-46008533D01*
X123072221Y-45852011D01*
X123072222Y-45852009D01*
X123101552Y-45816271D01*
X123184814Y-45714814D01*
X123286271Y-45631552D01*
X123322009Y-45602222D01*
X123391689Y-45564977D01*
X123478533Y-45518557D01*
X123535147Y-45501384D01*
X123648373Y-45467037D01*
X123714557Y-45460519D01*
X123780740Y-45454000D01*
X123869260Y-45454000D01*
X123935443Y-45460519D01*
X123935443Y-45460519D01*
G37*
G36*
X110021821Y-45516313D02*
X110021824Y-45516314D01*
X110021825Y-45516314D01*
X110182239Y-45564975D01*
X110182241Y-45564976D01*
X110182244Y-45564977D01*
X110330078Y-45643995D01*
X110459659Y-45750341D01*
X110566005Y-45879922D01*
X110645023Y-46027756D01*
X110645024Y-46027759D01*
X110645025Y-46027761D01*
X110690713Y-46178375D01*
X110693687Y-46188179D01*
X110710117Y-46355000D01*
X110693687Y-46521821D01*
X110693686Y-46521824D01*
X110693686Y-46521825D01*
X110690713Y-46531627D01*
X110645023Y-46682244D01*
X110566005Y-46830078D01*
X110459659Y-46959659D01*
X110330078Y-47066005D01*
X110182244Y-47145023D01*
X110182241Y-47145024D01*
X110182239Y-47145025D01*
X110021825Y-47193686D01*
X110021824Y-47193686D01*
X110021821Y-47193687D01*
X109896804Y-47206000D01*
X109813196Y-47206000D01*
X109688179Y-47193687D01*
X109688176Y-47193686D01*
X109688175Y-47193686D01*
X109527761Y-47145025D01*
X109527759Y-47145024D01*
X109527756Y-47145023D01*
X109379922Y-47066005D01*
X109250341Y-46959659D01*
X109143995Y-46830078D01*
X109064977Y-46682244D01*
X109019288Y-46531627D01*
X109016314Y-46521825D01*
X109016314Y-46521824D01*
X109016313Y-46521821D01*
X108999883Y-46355000D01*
X109016313Y-46188179D01*
X109019287Y-46178375D01*
X109064975Y-46027761D01*
X109064976Y-46027759D01*
X109064977Y-46027756D01*
X109143995Y-45879922D01*
X109250341Y-45750341D01*
X109379922Y-45643995D01*
X109527756Y-45564977D01*
X109527759Y-45564976D01*
X109527761Y-45564975D01*
X109688175Y-45516314D01*
X109688176Y-45516314D01*
X109688179Y-45516313D01*
X109813196Y-45504000D01*
X109896804Y-45504000D01*
X110021821Y-45516313D01*
X110021821Y-45516313D01*
G37*
G36*
X117641821Y-45516313D02*
X117641824Y-45516314D01*
X117641825Y-45516314D01*
X117802239Y-45564975D01*
X117802241Y-45564976D01*
X117802244Y-45564977D01*
X117950078Y-45643995D01*
X118079659Y-45750341D01*
X118186005Y-45879922D01*
X118265023Y-46027756D01*
X118265024Y-46027759D01*
X118265025Y-46027761D01*
X118310713Y-46178375D01*
X118313687Y-46188179D01*
X118330117Y-46355000D01*
X118313687Y-46521821D01*
X118313686Y-46521824D01*
X118313686Y-46521825D01*
X118310713Y-46531627D01*
X118265023Y-46682244D01*
X118186005Y-46830078D01*
X118079659Y-46959659D01*
X117950078Y-47066005D01*
X117802244Y-47145023D01*
X117802241Y-47145024D01*
X117802239Y-47145025D01*
X117641825Y-47193686D01*
X117641824Y-47193686D01*
X117641821Y-47193687D01*
X117516804Y-47206000D01*
X117433196Y-47206000D01*
X117308179Y-47193687D01*
X117308176Y-47193686D01*
X117308175Y-47193686D01*
X117147761Y-47145025D01*
X117147759Y-47145024D01*
X117147756Y-47145023D01*
X116999922Y-47066005D01*
X116870341Y-46959659D01*
X116763995Y-46830078D01*
X116684977Y-46682244D01*
X116639288Y-46531627D01*
X116636314Y-46521825D01*
X116636314Y-46521824D01*
X116636313Y-46521821D01*
X116619883Y-46355000D01*
X116636313Y-46188179D01*
X116639287Y-46178375D01*
X116684975Y-46027761D01*
X116684976Y-46027759D01*
X116684977Y-46027756D01*
X116763995Y-45879922D01*
X116870341Y-45750341D01*
X116999922Y-45643995D01*
X117147756Y-45564977D01*
X117147759Y-45564976D01*
X117147761Y-45564975D01*
X117308175Y-45516314D01*
X117308176Y-45516314D01*
X117308179Y-45516313D01*
X117433196Y-45504000D01*
X117516804Y-45504000D01*
X117641821Y-45516313D01*
X117641821Y-45516313D01*
G37*
G36*
X103671821Y-45516313D02*
X103671824Y-45516314D01*
X103671825Y-45516314D01*
X103832239Y-45564975D01*
X103832241Y-45564976D01*
X103832244Y-45564977D01*
X103980078Y-45643995D01*
X104109659Y-45750341D01*
X104216005Y-45879922D01*
X104295023Y-46027756D01*
X104295024Y-46027759D01*
X104295025Y-46027761D01*
X104340713Y-46178375D01*
X104343687Y-46188179D01*
X104360117Y-46355000D01*
X104343687Y-46521821D01*
X104343686Y-46521824D01*
X104343686Y-46521825D01*
X104340713Y-46531627D01*
X104295023Y-46682244D01*
X104216005Y-46830078D01*
X104109659Y-46959659D01*
X103980078Y-47066005D01*
X103832244Y-47145023D01*
X103832241Y-47145024D01*
X103832239Y-47145025D01*
X103671825Y-47193686D01*
X103671824Y-47193686D01*
X103671821Y-47193687D01*
X103546804Y-47206000D01*
X103463196Y-47206000D01*
X103338179Y-47193687D01*
X103338176Y-47193686D01*
X103338175Y-47193686D01*
X103177761Y-47145025D01*
X103177759Y-47145024D01*
X103177756Y-47145023D01*
X103029922Y-47066005D01*
X102900341Y-46959659D01*
X102793995Y-46830078D01*
X102714977Y-46682244D01*
X102669288Y-46531627D01*
X102666314Y-46521825D01*
X102666314Y-46521824D01*
X102666313Y-46521821D01*
X102649883Y-46355000D01*
X102666313Y-46188179D01*
X102669287Y-46178375D01*
X102714975Y-46027761D01*
X102714976Y-46027759D01*
X102714977Y-46027756D01*
X102793995Y-45879922D01*
X102900341Y-45750341D01*
X103029922Y-45643995D01*
X103177756Y-45564977D01*
X103177759Y-45564976D01*
X103177761Y-45564975D01*
X103338175Y-45516314D01*
X103338176Y-45516314D01*
X103338179Y-45516313D01*
X103463196Y-45504000D01*
X103546804Y-45504000D01*
X103671821Y-45516313D01*
X103671821Y-45516313D01*
G37*
G36*
X96051821Y-45516313D02*
X96051824Y-45516314D01*
X96051825Y-45516314D01*
X96212239Y-45564975D01*
X96212241Y-45564976D01*
X96212244Y-45564977D01*
X96360078Y-45643995D01*
X96489659Y-45750341D01*
X96596005Y-45879922D01*
X96675023Y-46027756D01*
X96675024Y-46027759D01*
X96675025Y-46027761D01*
X96720713Y-46178375D01*
X96723687Y-46188179D01*
X96740117Y-46355000D01*
X96723687Y-46521821D01*
X96723686Y-46521824D01*
X96723686Y-46521825D01*
X96720713Y-46531627D01*
X96675023Y-46682244D01*
X96596005Y-46830078D01*
X96489659Y-46959659D01*
X96360078Y-47066005D01*
X96212244Y-47145023D01*
X96212241Y-47145024D01*
X96212239Y-47145025D01*
X96051825Y-47193686D01*
X96051824Y-47193686D01*
X96051821Y-47193687D01*
X95926804Y-47206000D01*
X95843196Y-47206000D01*
X95718179Y-47193687D01*
X95718176Y-47193686D01*
X95718175Y-47193686D01*
X95557761Y-47145025D01*
X95557759Y-47145024D01*
X95557756Y-47145023D01*
X95409922Y-47066005D01*
X95280341Y-46959659D01*
X95173995Y-46830078D01*
X95094977Y-46682244D01*
X95049288Y-46531627D01*
X95046314Y-46521825D01*
X95046314Y-46521824D01*
X95046313Y-46521821D01*
X95029883Y-46355000D01*
X95046313Y-46188179D01*
X95049287Y-46178375D01*
X95094975Y-46027761D01*
X95094976Y-46027759D01*
X95094977Y-46027756D01*
X95173995Y-45879922D01*
X95280341Y-45750341D01*
X95409922Y-45643995D01*
X95557756Y-45564977D01*
X95557759Y-45564976D01*
X95557761Y-45564975D01*
X95718175Y-45516314D01*
X95718176Y-45516314D01*
X95718179Y-45516313D01*
X95843196Y-45504000D01*
X95926804Y-45504000D01*
X96051821Y-45516313D01*
X96051821Y-45516313D01*
G37*
G36*
X123935443Y-42920519D02*
X124001627Y-42927037D01*
X124114853Y-42961384D01*
X124171467Y-42978557D01*
X124258311Y-43024977D01*
X124327991Y-43062222D01*
X124363729Y-43091552D01*
X124465186Y-43174814D01*
X124548448Y-43276271D01*
X124577778Y-43312009D01*
X124577779Y-43312011D01*
X124661443Y-43468533D01*
X124678616Y-43525147D01*
X124712963Y-43638373D01*
X124730359Y-43815000D01*
X124712963Y-43991627D01*
X124678616Y-44104853D01*
X124661443Y-44161467D01*
X124592698Y-44290078D01*
X124577778Y-44317991D01*
X124548448Y-44353729D01*
X124465186Y-44455186D01*
X124363729Y-44538448D01*
X124327991Y-44567778D01*
X124327989Y-44567779D01*
X124171467Y-44651443D01*
X124164069Y-44653687D01*
X124001627Y-44702963D01*
X123935443Y-44709481D01*
X123869260Y-44716000D01*
X123780740Y-44716000D01*
X123714557Y-44709481D01*
X123648373Y-44702963D01*
X123485931Y-44653687D01*
X123478533Y-44651443D01*
X123322011Y-44567779D01*
X123322009Y-44567778D01*
X123286271Y-44538448D01*
X123184814Y-44455186D01*
X123101552Y-44353729D01*
X123072222Y-44317991D01*
X123057302Y-44290078D01*
X122988557Y-44161467D01*
X122971384Y-44104853D01*
X122937037Y-43991627D01*
X122919641Y-43815000D01*
X122937037Y-43638373D01*
X122971384Y-43525147D01*
X122988557Y-43468533D01*
X123072221Y-43312011D01*
X123072222Y-43312009D01*
X123101552Y-43276271D01*
X123184814Y-43174814D01*
X123286271Y-43091552D01*
X123322009Y-43062222D01*
X123391689Y-43024977D01*
X123478533Y-42978557D01*
X123535147Y-42961384D01*
X123648373Y-42927037D01*
X123714557Y-42920519D01*
X123780740Y-42914000D01*
X123869260Y-42914000D01*
X123935443Y-42920519D01*
X123935443Y-42920519D01*
G37*
G36*
X54776821Y-42976313D02*
X54776824Y-42976314D01*
X54776825Y-42976314D01*
X54937239Y-43024975D01*
X54937241Y-43024976D01*
X54937244Y-43024977D01*
X55085078Y-43103995D01*
X55214659Y-43210341D01*
X55321005Y-43339922D01*
X55400023Y-43487756D01*
X55400024Y-43487759D01*
X55400025Y-43487761D01*
X55445713Y-43638375D01*
X55448687Y-43648179D01*
X55465117Y-43815000D01*
X55448687Y-43981821D01*
X55448686Y-43981824D01*
X55448686Y-43981825D01*
X55445713Y-43991627D01*
X55400023Y-44142244D01*
X55321005Y-44290078D01*
X55214659Y-44419659D01*
X55085078Y-44526005D01*
X54937244Y-44605023D01*
X54937241Y-44605024D01*
X54937239Y-44605025D01*
X54776825Y-44653686D01*
X54776824Y-44653686D01*
X54776821Y-44653687D01*
X54651804Y-44666000D01*
X54568196Y-44666000D01*
X54443179Y-44653687D01*
X54443176Y-44653686D01*
X54443175Y-44653686D01*
X54282761Y-44605025D01*
X54282759Y-44605024D01*
X54282756Y-44605023D01*
X54134922Y-44526005D01*
X54005341Y-44419659D01*
X53898995Y-44290078D01*
X53819977Y-44142244D01*
X53774288Y-43991627D01*
X53771314Y-43981825D01*
X53771314Y-43981824D01*
X53771313Y-43981821D01*
X53754883Y-43815000D01*
X53771313Y-43648179D01*
X53774287Y-43638375D01*
X53819975Y-43487761D01*
X53819976Y-43487759D01*
X53819977Y-43487756D01*
X53898995Y-43339922D01*
X54005341Y-43210341D01*
X54134922Y-43103995D01*
X54282756Y-43024977D01*
X54282759Y-43024976D01*
X54282761Y-43024975D01*
X54443175Y-42976314D01*
X54443176Y-42976314D01*
X54443179Y-42976313D01*
X54568196Y-42964000D01*
X54651804Y-42964000D01*
X54776821Y-42976313D01*
X54776821Y-42976313D01*
G37*
G36*
X62396821Y-42976313D02*
X62396824Y-42976314D01*
X62396825Y-42976314D01*
X62557239Y-43024975D01*
X62557241Y-43024976D01*
X62557244Y-43024977D01*
X62705078Y-43103995D01*
X62834659Y-43210341D01*
X62941005Y-43339922D01*
X63020023Y-43487756D01*
X63020024Y-43487759D01*
X63020025Y-43487761D01*
X63065713Y-43638375D01*
X63068687Y-43648179D01*
X63085117Y-43815000D01*
X63068687Y-43981821D01*
X63068686Y-43981824D01*
X63068686Y-43981825D01*
X63065713Y-43991627D01*
X63020023Y-44142244D01*
X62941005Y-44290078D01*
X62834659Y-44419659D01*
X62705078Y-44526005D01*
X62557244Y-44605023D01*
X62557241Y-44605024D01*
X62557239Y-44605025D01*
X62396825Y-44653686D01*
X62396824Y-44653686D01*
X62396821Y-44653687D01*
X62271804Y-44666000D01*
X62188196Y-44666000D01*
X62063179Y-44653687D01*
X62063176Y-44653686D01*
X62063175Y-44653686D01*
X61902761Y-44605025D01*
X61902759Y-44605024D01*
X61902756Y-44605023D01*
X61754922Y-44526005D01*
X61625341Y-44419659D01*
X61518995Y-44290078D01*
X61439977Y-44142244D01*
X61394288Y-43991627D01*
X61391314Y-43981825D01*
X61391314Y-43981824D01*
X61391313Y-43981821D01*
X61374883Y-43815000D01*
X61391313Y-43648179D01*
X61394287Y-43638375D01*
X61439975Y-43487761D01*
X61439976Y-43487759D01*
X61439977Y-43487756D01*
X61518995Y-43339922D01*
X61625341Y-43210341D01*
X61754922Y-43103995D01*
X61902756Y-43024977D01*
X61902759Y-43024976D01*
X61902761Y-43024975D01*
X62063175Y-42976314D01*
X62063176Y-42976314D01*
X62063179Y-42976313D01*
X62188196Y-42964000D01*
X62271804Y-42964000D01*
X62396821Y-42976313D01*
X62396821Y-42976313D01*
G37*
G36*
X103671821Y-42976313D02*
X103671824Y-42976314D01*
X103671825Y-42976314D01*
X103832239Y-43024975D01*
X103832241Y-43024976D01*
X103832244Y-43024977D01*
X103980078Y-43103995D01*
X104109659Y-43210341D01*
X104216005Y-43339922D01*
X104295023Y-43487756D01*
X104295024Y-43487759D01*
X104295025Y-43487761D01*
X104340713Y-43638375D01*
X104343687Y-43648179D01*
X104360117Y-43815000D01*
X104343687Y-43981821D01*
X104343686Y-43981824D01*
X104343686Y-43981825D01*
X104340713Y-43991627D01*
X104295023Y-44142244D01*
X104216005Y-44290078D01*
X104109659Y-44419659D01*
X103980078Y-44526005D01*
X103832244Y-44605023D01*
X103832241Y-44605024D01*
X103832239Y-44605025D01*
X103671825Y-44653686D01*
X103671824Y-44653686D01*
X103671821Y-44653687D01*
X103546804Y-44666000D01*
X103463196Y-44666000D01*
X103338179Y-44653687D01*
X103338176Y-44653686D01*
X103338175Y-44653686D01*
X103177761Y-44605025D01*
X103177759Y-44605024D01*
X103177756Y-44605023D01*
X103029922Y-44526005D01*
X102900341Y-44419659D01*
X102793995Y-44290078D01*
X102714977Y-44142244D01*
X102669288Y-43991627D01*
X102666314Y-43981825D01*
X102666314Y-43981824D01*
X102666313Y-43981821D01*
X102649883Y-43815000D01*
X102666313Y-43648179D01*
X102669287Y-43638375D01*
X102714975Y-43487761D01*
X102714976Y-43487759D01*
X102714977Y-43487756D01*
X102793995Y-43339922D01*
X102900341Y-43210341D01*
X103029922Y-43103995D01*
X103177756Y-43024977D01*
X103177759Y-43024976D01*
X103177761Y-43024975D01*
X103338175Y-42976314D01*
X103338176Y-42976314D01*
X103338179Y-42976313D01*
X103463196Y-42964000D01*
X103546804Y-42964000D01*
X103671821Y-42976313D01*
X103671821Y-42976313D01*
G37*
G36*
X96051821Y-42976313D02*
X96051824Y-42976314D01*
X96051825Y-42976314D01*
X96212239Y-43024975D01*
X96212241Y-43024976D01*
X96212244Y-43024977D01*
X96360078Y-43103995D01*
X96489659Y-43210341D01*
X96596005Y-43339922D01*
X96675023Y-43487756D01*
X96675024Y-43487759D01*
X96675025Y-43487761D01*
X96720713Y-43638375D01*
X96723687Y-43648179D01*
X96740117Y-43815000D01*
X96723687Y-43981821D01*
X96723686Y-43981824D01*
X96723686Y-43981825D01*
X96720713Y-43991627D01*
X96675023Y-44142244D01*
X96596005Y-44290078D01*
X96489659Y-44419659D01*
X96360078Y-44526005D01*
X96212244Y-44605023D01*
X96212241Y-44605024D01*
X96212239Y-44605025D01*
X96051825Y-44653686D01*
X96051824Y-44653686D01*
X96051821Y-44653687D01*
X95926804Y-44666000D01*
X95843196Y-44666000D01*
X95718179Y-44653687D01*
X95718176Y-44653686D01*
X95718175Y-44653686D01*
X95557761Y-44605025D01*
X95557759Y-44605024D01*
X95557756Y-44605023D01*
X95409922Y-44526005D01*
X95280341Y-44419659D01*
X95173995Y-44290078D01*
X95094977Y-44142244D01*
X95049288Y-43991627D01*
X95046314Y-43981825D01*
X95046314Y-43981824D01*
X95046313Y-43981821D01*
X95029883Y-43815000D01*
X95046313Y-43648179D01*
X95049287Y-43638375D01*
X95094975Y-43487761D01*
X95094976Y-43487759D01*
X95094977Y-43487756D01*
X95173995Y-43339922D01*
X95280341Y-43210341D01*
X95409922Y-43103995D01*
X95557756Y-43024977D01*
X95557759Y-43024976D01*
X95557761Y-43024975D01*
X95718175Y-42976314D01*
X95718176Y-42976314D01*
X95718179Y-42976313D01*
X95843196Y-42964000D01*
X95926804Y-42964000D01*
X96051821Y-42976313D01*
X96051821Y-42976313D01*
G37*
G36*
X110021821Y-42976313D02*
X110021824Y-42976314D01*
X110021825Y-42976314D01*
X110182239Y-43024975D01*
X110182241Y-43024976D01*
X110182244Y-43024977D01*
X110330078Y-43103995D01*
X110459659Y-43210341D01*
X110566005Y-43339922D01*
X110645023Y-43487756D01*
X110645024Y-43487759D01*
X110645025Y-43487761D01*
X110690713Y-43638375D01*
X110693687Y-43648179D01*
X110710117Y-43815000D01*
X110693687Y-43981821D01*
X110693686Y-43981824D01*
X110693686Y-43981825D01*
X110690713Y-43991627D01*
X110645023Y-44142244D01*
X110566005Y-44290078D01*
X110459659Y-44419659D01*
X110330078Y-44526005D01*
X110182244Y-44605023D01*
X110182241Y-44605024D01*
X110182239Y-44605025D01*
X110021825Y-44653686D01*
X110021824Y-44653686D01*
X110021821Y-44653687D01*
X109896804Y-44666000D01*
X109813196Y-44666000D01*
X109688179Y-44653687D01*
X109688176Y-44653686D01*
X109688175Y-44653686D01*
X109527761Y-44605025D01*
X109527759Y-44605024D01*
X109527756Y-44605023D01*
X109379922Y-44526005D01*
X109250341Y-44419659D01*
X109143995Y-44290078D01*
X109064977Y-44142244D01*
X109019288Y-43991627D01*
X109016314Y-43981825D01*
X109016314Y-43981824D01*
X109016313Y-43981821D01*
X108999883Y-43815000D01*
X109016313Y-43648179D01*
X109019287Y-43638375D01*
X109064975Y-43487761D01*
X109064976Y-43487759D01*
X109064977Y-43487756D01*
X109143995Y-43339922D01*
X109250341Y-43210341D01*
X109379922Y-43103995D01*
X109527756Y-43024977D01*
X109527759Y-43024976D01*
X109527761Y-43024975D01*
X109688175Y-42976314D01*
X109688176Y-42976314D01*
X109688179Y-42976313D01*
X109813196Y-42964000D01*
X109896804Y-42964000D01*
X110021821Y-42976313D01*
X110021821Y-42976313D01*
G37*
G36*
X117641821Y-42976313D02*
X117641824Y-42976314D01*
X117641825Y-42976314D01*
X117802239Y-43024975D01*
X117802241Y-43024976D01*
X117802244Y-43024977D01*
X117950078Y-43103995D01*
X118079659Y-43210341D01*
X118186005Y-43339922D01*
X118265023Y-43487756D01*
X118265024Y-43487759D01*
X118265025Y-43487761D01*
X118310713Y-43638375D01*
X118313687Y-43648179D01*
X118330117Y-43815000D01*
X118313687Y-43981821D01*
X118313686Y-43981824D01*
X118313686Y-43981825D01*
X118310713Y-43991627D01*
X118265023Y-44142244D01*
X118186005Y-44290078D01*
X118079659Y-44419659D01*
X117950078Y-44526005D01*
X117802244Y-44605023D01*
X117802241Y-44605024D01*
X117802239Y-44605025D01*
X117641825Y-44653686D01*
X117641824Y-44653686D01*
X117641821Y-44653687D01*
X117516804Y-44666000D01*
X117433196Y-44666000D01*
X117308179Y-44653687D01*
X117308176Y-44653686D01*
X117308175Y-44653686D01*
X117147761Y-44605025D01*
X117147759Y-44605024D01*
X117147756Y-44605023D01*
X116999922Y-44526005D01*
X116870341Y-44419659D01*
X116763995Y-44290078D01*
X116684977Y-44142244D01*
X116639288Y-43991627D01*
X116636314Y-43981825D01*
X116636314Y-43981824D01*
X116636313Y-43981821D01*
X116619883Y-43815000D01*
X116636313Y-43648179D01*
X116639287Y-43638375D01*
X116684975Y-43487761D01*
X116684976Y-43487759D01*
X116684977Y-43487756D01*
X116763995Y-43339922D01*
X116870341Y-43210341D01*
X116999922Y-43103995D01*
X117147756Y-43024977D01*
X117147759Y-43024976D01*
X117147761Y-43024975D01*
X117308175Y-42976314D01*
X117308176Y-42976314D01*
X117308179Y-42976313D01*
X117433196Y-42964000D01*
X117516804Y-42964000D01*
X117641821Y-42976313D01*
X117641821Y-42976313D01*
G37*
G36*
X123935443Y-40380519D02*
X124001627Y-40387037D01*
X124114853Y-40421384D01*
X124171467Y-40438557D01*
X124258311Y-40484977D01*
X124327991Y-40522222D01*
X124363729Y-40551552D01*
X124465186Y-40634814D01*
X124548448Y-40736271D01*
X124577778Y-40772009D01*
X124577779Y-40772011D01*
X124661443Y-40928533D01*
X124678616Y-40985147D01*
X124712963Y-41098373D01*
X124730359Y-41275000D01*
X124712963Y-41451627D01*
X124678616Y-41564853D01*
X124661443Y-41621467D01*
X124592698Y-41750078D01*
X124577778Y-41777991D01*
X124548448Y-41813729D01*
X124465186Y-41915186D01*
X124363729Y-41998448D01*
X124327991Y-42027778D01*
X124327989Y-42027779D01*
X124171467Y-42111443D01*
X124164069Y-42113687D01*
X124001627Y-42162963D01*
X123935443Y-42169481D01*
X123869260Y-42176000D01*
X123780740Y-42176000D01*
X123714557Y-42169481D01*
X123648373Y-42162963D01*
X123485931Y-42113687D01*
X123478533Y-42111443D01*
X123322011Y-42027779D01*
X123322009Y-42027778D01*
X123286271Y-41998448D01*
X123184814Y-41915186D01*
X123101552Y-41813729D01*
X123072222Y-41777991D01*
X123057302Y-41750078D01*
X122988557Y-41621467D01*
X122971384Y-41564853D01*
X122937037Y-41451627D01*
X122919641Y-41275000D01*
X122937037Y-41098373D01*
X122971384Y-40985147D01*
X122988557Y-40928533D01*
X123072221Y-40772011D01*
X123072222Y-40772009D01*
X123101552Y-40736271D01*
X123184814Y-40634814D01*
X123286271Y-40551552D01*
X123322009Y-40522222D01*
X123391689Y-40484977D01*
X123478533Y-40438557D01*
X123535147Y-40421384D01*
X123648373Y-40387037D01*
X123714557Y-40380519D01*
X123780740Y-40374000D01*
X123869260Y-40374000D01*
X123935443Y-40380519D01*
X123935443Y-40380519D01*
G37*
G36*
X103671821Y-40436313D02*
X103671824Y-40436314D01*
X103671825Y-40436314D01*
X103832239Y-40484975D01*
X103832241Y-40484976D01*
X103832244Y-40484977D01*
X103980078Y-40563995D01*
X104109659Y-40670341D01*
X104216005Y-40799922D01*
X104295023Y-40947756D01*
X104295024Y-40947759D01*
X104295025Y-40947761D01*
X104340713Y-41098375D01*
X104343687Y-41108179D01*
X104360117Y-41275000D01*
X104343687Y-41441821D01*
X104343686Y-41441824D01*
X104343686Y-41441825D01*
X104340713Y-41451627D01*
X104295023Y-41602244D01*
X104216005Y-41750078D01*
X104109659Y-41879659D01*
X103980078Y-41986005D01*
X103832244Y-42065023D01*
X103832241Y-42065024D01*
X103832239Y-42065025D01*
X103671825Y-42113686D01*
X103671824Y-42113686D01*
X103671821Y-42113687D01*
X103546804Y-42126000D01*
X103463196Y-42126000D01*
X103338179Y-42113687D01*
X103338176Y-42113686D01*
X103338175Y-42113686D01*
X103177761Y-42065025D01*
X103177759Y-42065024D01*
X103177756Y-42065023D01*
X103029922Y-41986005D01*
X102900341Y-41879659D01*
X102793995Y-41750078D01*
X102714977Y-41602244D01*
X102669288Y-41451627D01*
X102666314Y-41441825D01*
X102666314Y-41441824D01*
X102666313Y-41441821D01*
X102649883Y-41275000D01*
X102666313Y-41108179D01*
X102669287Y-41098375D01*
X102714975Y-40947761D01*
X102714976Y-40947759D01*
X102714977Y-40947756D01*
X102793995Y-40799922D01*
X102900341Y-40670341D01*
X103029922Y-40563995D01*
X103177756Y-40484977D01*
X103177759Y-40484976D01*
X103177761Y-40484975D01*
X103338175Y-40436314D01*
X103338176Y-40436314D01*
X103338179Y-40436313D01*
X103463196Y-40424000D01*
X103546804Y-40424000D01*
X103671821Y-40436313D01*
X103671821Y-40436313D01*
G37*
G36*
X96051821Y-40436313D02*
X96051824Y-40436314D01*
X96051825Y-40436314D01*
X96212239Y-40484975D01*
X96212241Y-40484976D01*
X96212244Y-40484977D01*
X96360078Y-40563995D01*
X96489659Y-40670341D01*
X96596005Y-40799922D01*
X96675023Y-40947756D01*
X96675024Y-40947759D01*
X96675025Y-40947761D01*
X96720713Y-41098375D01*
X96723687Y-41108179D01*
X96740117Y-41275000D01*
X96723687Y-41441821D01*
X96723686Y-41441824D01*
X96723686Y-41441825D01*
X96720713Y-41451627D01*
X96675023Y-41602244D01*
X96596005Y-41750078D01*
X96489659Y-41879659D01*
X96360078Y-41986005D01*
X96212244Y-42065023D01*
X96212241Y-42065024D01*
X96212239Y-42065025D01*
X96051825Y-42113686D01*
X96051824Y-42113686D01*
X96051821Y-42113687D01*
X95926804Y-42126000D01*
X95843196Y-42126000D01*
X95718179Y-42113687D01*
X95718176Y-42113686D01*
X95718175Y-42113686D01*
X95557761Y-42065025D01*
X95557759Y-42065024D01*
X95557756Y-42065023D01*
X95409922Y-41986005D01*
X95280341Y-41879659D01*
X95173995Y-41750078D01*
X95094977Y-41602244D01*
X95049288Y-41451627D01*
X95046314Y-41441825D01*
X95046314Y-41441824D01*
X95046313Y-41441821D01*
X95029883Y-41275000D01*
X95046313Y-41108179D01*
X95049287Y-41098375D01*
X95094975Y-40947761D01*
X95094976Y-40947759D01*
X95094977Y-40947756D01*
X95173995Y-40799922D01*
X95280341Y-40670341D01*
X95409922Y-40563995D01*
X95557756Y-40484977D01*
X95557759Y-40484976D01*
X95557761Y-40484975D01*
X95718175Y-40436314D01*
X95718176Y-40436314D01*
X95718179Y-40436313D01*
X95843196Y-40424000D01*
X95926804Y-40424000D01*
X96051821Y-40436313D01*
X96051821Y-40436313D01*
G37*
G36*
X54776821Y-40436313D02*
X54776824Y-40436314D01*
X54776825Y-40436314D01*
X54937239Y-40484975D01*
X54937241Y-40484976D01*
X54937244Y-40484977D01*
X55085078Y-40563995D01*
X55214659Y-40670341D01*
X55321005Y-40799922D01*
X55400023Y-40947756D01*
X55400024Y-40947759D01*
X55400025Y-40947761D01*
X55445713Y-41098375D01*
X55448687Y-41108179D01*
X55465117Y-41275000D01*
X55448687Y-41441821D01*
X55448686Y-41441824D01*
X55448686Y-41441825D01*
X55445713Y-41451627D01*
X55400023Y-41602244D01*
X55321005Y-41750078D01*
X55214659Y-41879659D01*
X55085078Y-41986005D01*
X54937244Y-42065023D01*
X54937241Y-42065024D01*
X54937239Y-42065025D01*
X54776825Y-42113686D01*
X54776824Y-42113686D01*
X54776821Y-42113687D01*
X54651804Y-42126000D01*
X54568196Y-42126000D01*
X54443179Y-42113687D01*
X54443176Y-42113686D01*
X54443175Y-42113686D01*
X54282761Y-42065025D01*
X54282759Y-42065024D01*
X54282756Y-42065023D01*
X54134922Y-41986005D01*
X54005341Y-41879659D01*
X53898995Y-41750078D01*
X53819977Y-41602244D01*
X53774288Y-41451627D01*
X53771314Y-41441825D01*
X53771314Y-41441824D01*
X53771313Y-41441821D01*
X53754883Y-41275000D01*
X53771313Y-41108179D01*
X53774287Y-41098375D01*
X53819975Y-40947761D01*
X53819976Y-40947759D01*
X53819977Y-40947756D01*
X53898995Y-40799922D01*
X54005341Y-40670341D01*
X54134922Y-40563995D01*
X54282756Y-40484977D01*
X54282759Y-40484976D01*
X54282761Y-40484975D01*
X54443175Y-40436314D01*
X54443176Y-40436314D01*
X54443179Y-40436313D01*
X54568196Y-40424000D01*
X54651804Y-40424000D01*
X54776821Y-40436313D01*
X54776821Y-40436313D01*
G37*
G36*
X62396821Y-40436313D02*
X62396824Y-40436314D01*
X62396825Y-40436314D01*
X62557239Y-40484975D01*
X62557241Y-40484976D01*
X62557244Y-40484977D01*
X62705078Y-40563995D01*
X62834659Y-40670341D01*
X62941005Y-40799922D01*
X63020023Y-40947756D01*
X63020024Y-40947759D01*
X63020025Y-40947761D01*
X63065713Y-41098375D01*
X63068687Y-41108179D01*
X63085117Y-41275000D01*
X63068687Y-41441821D01*
X63068686Y-41441824D01*
X63068686Y-41441825D01*
X63065713Y-41451627D01*
X63020023Y-41602244D01*
X62941005Y-41750078D01*
X62834659Y-41879659D01*
X62705078Y-41986005D01*
X62557244Y-42065023D01*
X62557241Y-42065024D01*
X62557239Y-42065025D01*
X62396825Y-42113686D01*
X62396824Y-42113686D01*
X62396821Y-42113687D01*
X62271804Y-42126000D01*
X62188196Y-42126000D01*
X62063179Y-42113687D01*
X62063176Y-42113686D01*
X62063175Y-42113686D01*
X61902761Y-42065025D01*
X61902759Y-42065024D01*
X61902756Y-42065023D01*
X61754922Y-41986005D01*
X61625341Y-41879659D01*
X61518995Y-41750078D01*
X61439977Y-41602244D01*
X61394288Y-41451627D01*
X61391314Y-41441825D01*
X61391314Y-41441824D01*
X61391313Y-41441821D01*
X61374883Y-41275000D01*
X61391313Y-41108179D01*
X61394287Y-41098375D01*
X61439975Y-40947761D01*
X61439976Y-40947759D01*
X61439977Y-40947756D01*
X61518995Y-40799922D01*
X61625341Y-40670341D01*
X61754922Y-40563995D01*
X61902756Y-40484977D01*
X61902759Y-40484976D01*
X61902761Y-40484975D01*
X62063175Y-40436314D01*
X62063176Y-40436314D01*
X62063179Y-40436313D01*
X62188196Y-40424000D01*
X62271804Y-40424000D01*
X62396821Y-40436313D01*
X62396821Y-40436313D01*
G37*
G36*
X110021821Y-40436313D02*
X110021824Y-40436314D01*
X110021825Y-40436314D01*
X110182239Y-40484975D01*
X110182241Y-40484976D01*
X110182244Y-40484977D01*
X110330078Y-40563995D01*
X110459659Y-40670341D01*
X110566005Y-40799922D01*
X110645023Y-40947756D01*
X110645024Y-40947759D01*
X110645025Y-40947761D01*
X110690713Y-41098375D01*
X110693687Y-41108179D01*
X110710117Y-41275000D01*
X110693687Y-41441821D01*
X110693686Y-41441824D01*
X110693686Y-41441825D01*
X110690713Y-41451627D01*
X110645023Y-41602244D01*
X110566005Y-41750078D01*
X110459659Y-41879659D01*
X110330078Y-41986005D01*
X110182244Y-42065023D01*
X110182241Y-42065024D01*
X110182239Y-42065025D01*
X110021825Y-42113686D01*
X110021824Y-42113686D01*
X110021821Y-42113687D01*
X109896804Y-42126000D01*
X109813196Y-42126000D01*
X109688179Y-42113687D01*
X109688176Y-42113686D01*
X109688175Y-42113686D01*
X109527761Y-42065025D01*
X109527759Y-42065024D01*
X109527756Y-42065023D01*
X109379922Y-41986005D01*
X109250341Y-41879659D01*
X109143995Y-41750078D01*
X109064977Y-41602244D01*
X109019288Y-41451627D01*
X109016314Y-41441825D01*
X109016314Y-41441824D01*
X109016313Y-41441821D01*
X108999883Y-41275000D01*
X109016313Y-41108179D01*
X109019287Y-41098375D01*
X109064975Y-40947761D01*
X109064976Y-40947759D01*
X109064977Y-40947756D01*
X109143995Y-40799922D01*
X109250341Y-40670341D01*
X109379922Y-40563995D01*
X109527756Y-40484977D01*
X109527759Y-40484976D01*
X109527761Y-40484975D01*
X109688175Y-40436314D01*
X109688176Y-40436314D01*
X109688179Y-40436313D01*
X109813196Y-40424000D01*
X109896804Y-40424000D01*
X110021821Y-40436313D01*
X110021821Y-40436313D01*
G37*
G36*
X117641821Y-40436313D02*
X117641824Y-40436314D01*
X117641825Y-40436314D01*
X117802239Y-40484975D01*
X117802241Y-40484976D01*
X117802244Y-40484977D01*
X117950078Y-40563995D01*
X118079659Y-40670341D01*
X118186005Y-40799922D01*
X118265023Y-40947756D01*
X118265024Y-40947759D01*
X118265025Y-40947761D01*
X118310713Y-41098375D01*
X118313687Y-41108179D01*
X118330117Y-41275000D01*
X118313687Y-41441821D01*
X118313686Y-41441824D01*
X118313686Y-41441825D01*
X118310713Y-41451627D01*
X118265023Y-41602244D01*
X118186005Y-41750078D01*
X118079659Y-41879659D01*
X117950078Y-41986005D01*
X117802244Y-42065023D01*
X117802241Y-42065024D01*
X117802239Y-42065025D01*
X117641825Y-42113686D01*
X117641824Y-42113686D01*
X117641821Y-42113687D01*
X117516804Y-42126000D01*
X117433196Y-42126000D01*
X117308179Y-42113687D01*
X117308176Y-42113686D01*
X117308175Y-42113686D01*
X117147761Y-42065025D01*
X117147759Y-42065024D01*
X117147756Y-42065023D01*
X116999922Y-41986005D01*
X116870341Y-41879659D01*
X116763995Y-41750078D01*
X116684977Y-41602244D01*
X116639288Y-41451627D01*
X116636314Y-41441825D01*
X116636314Y-41441824D01*
X116636313Y-41441821D01*
X116619883Y-41275000D01*
X116636313Y-41108179D01*
X116639287Y-41098375D01*
X116684975Y-40947761D01*
X116684976Y-40947759D01*
X116684977Y-40947756D01*
X116763995Y-40799922D01*
X116870341Y-40670341D01*
X116999922Y-40563995D01*
X117147756Y-40484977D01*
X117147759Y-40484976D01*
X117147761Y-40484975D01*
X117308175Y-40436314D01*
X117308176Y-40436314D01*
X117308179Y-40436313D01*
X117433196Y-40424000D01*
X117516804Y-40424000D01*
X117641821Y-40436313D01*
X117641821Y-40436313D01*
G37*
G36*
X79686231Y-38979003D02*
X79880415Y-39059437D01*
X80055176Y-39176209D01*
X80203791Y-39324824D01*
X80320563Y-39499585D01*
X80400997Y-39693769D01*
X80442000Y-39899908D01*
X80442000Y-40110092D01*
X80400997Y-40316231D01*
X80320563Y-40510415D01*
X80203791Y-40685176D01*
X80055176Y-40833791D01*
X79880415Y-40950563D01*
X79686231Y-41030997D01*
X79480092Y-41072000D01*
X79269908Y-41072000D01*
X79063769Y-41030997D01*
X78869585Y-40950563D01*
X78694824Y-40833791D01*
X78546209Y-40685176D01*
X78429437Y-40510415D01*
X78349003Y-40316231D01*
X78308000Y-40110092D01*
X78308000Y-39899908D01*
X78349003Y-39693769D01*
X78429437Y-39499585D01*
X78546209Y-39324824D01*
X78694824Y-39176209D01*
X78869585Y-39059437D01*
X79063769Y-38979003D01*
X79269908Y-38938000D01*
X79480092Y-38938000D01*
X79686231Y-38979003D01*
X79686231Y-38979003D01*
G37*
G36*
X74606231Y-38979003D02*
X74800415Y-39059437D01*
X74975176Y-39176209D01*
X75123791Y-39324824D01*
X75240563Y-39499585D01*
X75320997Y-39693769D01*
X75362000Y-39899908D01*
X75362000Y-40110092D01*
X75320997Y-40316231D01*
X75240563Y-40510415D01*
X75123791Y-40685176D01*
X74975176Y-40833791D01*
X74800415Y-40950563D01*
X74606231Y-41030997D01*
X74400092Y-41072000D01*
X74189908Y-41072000D01*
X73983769Y-41030997D01*
X73789585Y-40950563D01*
X73614824Y-40833791D01*
X73466209Y-40685176D01*
X73349437Y-40510415D01*
X73269003Y-40316231D01*
X73228000Y-40110092D01*
X73228000Y-39899908D01*
X73269003Y-39693769D01*
X73349437Y-39499585D01*
X73466209Y-39324824D01*
X73614824Y-39176209D01*
X73789585Y-39059437D01*
X73983769Y-38979003D01*
X74189908Y-38938000D01*
X74400092Y-38938000D01*
X74606231Y-38979003D01*
X74606231Y-38979003D01*
G37*
G36*
X72066231Y-38979003D02*
X72260415Y-39059437D01*
X72435176Y-39176209D01*
X72583791Y-39324824D01*
X72700563Y-39499585D01*
X72780997Y-39693769D01*
X72822000Y-39899908D01*
X72822000Y-40110092D01*
X72780997Y-40316231D01*
X72700563Y-40510415D01*
X72583791Y-40685176D01*
X72435176Y-40833791D01*
X72260415Y-40950563D01*
X72066231Y-41030997D01*
X71860092Y-41072000D01*
X71649908Y-41072000D01*
X71443769Y-41030997D01*
X71249585Y-40950563D01*
X71074824Y-40833791D01*
X70926209Y-40685176D01*
X70809437Y-40510415D01*
X70729003Y-40316231D01*
X70688000Y-40110092D01*
X70688000Y-39899908D01*
X70729003Y-39693769D01*
X70809437Y-39499585D01*
X70926209Y-39324824D01*
X71074824Y-39176209D01*
X71249585Y-39059437D01*
X71443769Y-38979003D01*
X71649908Y-38938000D01*
X71860092Y-38938000D01*
X72066231Y-38979003D01*
X72066231Y-38979003D01*
G37*
G36*
X69526231Y-38979003D02*
X69720415Y-39059437D01*
X69895176Y-39176209D01*
X70043791Y-39324824D01*
X70160563Y-39499585D01*
X70240997Y-39693769D01*
X70282000Y-39899908D01*
X70282000Y-40110092D01*
X70240997Y-40316231D01*
X70160563Y-40510415D01*
X70043791Y-40685176D01*
X69895176Y-40833791D01*
X69720415Y-40950563D01*
X69526231Y-41030997D01*
X69320092Y-41072000D01*
X69109908Y-41072000D01*
X68903769Y-41030997D01*
X68709585Y-40950563D01*
X68534824Y-40833791D01*
X68386209Y-40685176D01*
X68269437Y-40510415D01*
X68189003Y-40316231D01*
X68148000Y-40110092D01*
X68148000Y-39899908D01*
X68189003Y-39693769D01*
X68269437Y-39499585D01*
X68386209Y-39324824D01*
X68534824Y-39176209D01*
X68709585Y-39059437D01*
X68903769Y-38979003D01*
X69109908Y-38938000D01*
X69320092Y-38938000D01*
X69526231Y-38979003D01*
X69526231Y-38979003D01*
G37*
G36*
X67742000Y-41072000D02*
X65608000Y-41072000D01*
X65608000Y-38938000D01*
X67742000Y-38938000D01*
X67742000Y-41072000D01*
X67742000Y-41072000D01*
G37*
G36*
X82226231Y-38979003D02*
X82420415Y-39059437D01*
X82595176Y-39176209D01*
X82743791Y-39324824D01*
X82860563Y-39499585D01*
X82940997Y-39693769D01*
X82982000Y-39899908D01*
X82982000Y-40110092D01*
X82940997Y-40316231D01*
X82860563Y-40510415D01*
X82743791Y-40685176D01*
X82595176Y-40833791D01*
X82420415Y-40950563D01*
X82226231Y-41030997D01*
X82020092Y-41072000D01*
X81809908Y-41072000D01*
X81603769Y-41030997D01*
X81409585Y-40950563D01*
X81234824Y-40833791D01*
X81086209Y-40685176D01*
X80969437Y-40510415D01*
X80889003Y-40316231D01*
X80848000Y-40110092D01*
X80848000Y-39899908D01*
X80889003Y-39693769D01*
X80969437Y-39499585D01*
X81086209Y-39324824D01*
X81234824Y-39176209D01*
X81409585Y-39059437D01*
X81603769Y-38979003D01*
X81809908Y-38938000D01*
X82020092Y-38938000D01*
X82226231Y-38979003D01*
X82226231Y-38979003D01*
G37*
G36*
X84766231Y-38979003D02*
X84960415Y-39059437D01*
X85135176Y-39176209D01*
X85283791Y-39324824D01*
X85400563Y-39499585D01*
X85480997Y-39693769D01*
X85522000Y-39899908D01*
X85522000Y-40110092D01*
X85480997Y-40316231D01*
X85400563Y-40510415D01*
X85283791Y-40685176D01*
X85135176Y-40833791D01*
X84960415Y-40950563D01*
X84766231Y-41030997D01*
X84560092Y-41072000D01*
X84349908Y-41072000D01*
X84143769Y-41030997D01*
X83949585Y-40950563D01*
X83774824Y-40833791D01*
X83626209Y-40685176D01*
X83509437Y-40510415D01*
X83429003Y-40316231D01*
X83388000Y-40110092D01*
X83388000Y-39899908D01*
X83429003Y-39693769D01*
X83509437Y-39499585D01*
X83626209Y-39324824D01*
X83774824Y-39176209D01*
X83949585Y-39059437D01*
X84143769Y-38979003D01*
X84349908Y-38938000D01*
X84560092Y-38938000D01*
X84766231Y-38979003D01*
X84766231Y-38979003D01*
G37*
G36*
X89846231Y-38979003D02*
X90040415Y-39059437D01*
X90215176Y-39176209D01*
X90363791Y-39324824D01*
X90480563Y-39499585D01*
X90560997Y-39693769D01*
X90602000Y-39899908D01*
X90602000Y-40110092D01*
X90560997Y-40316231D01*
X90480563Y-40510415D01*
X90363791Y-40685176D01*
X90215176Y-40833791D01*
X90040415Y-40950563D01*
X89846231Y-41030997D01*
X89640092Y-41072000D01*
X89429908Y-41072000D01*
X89223769Y-41030997D01*
X89029585Y-40950563D01*
X88854824Y-40833791D01*
X88706209Y-40685176D01*
X88589437Y-40510415D01*
X88509003Y-40316231D01*
X88468000Y-40110092D01*
X88468000Y-39899908D01*
X88509003Y-39693769D01*
X88589437Y-39499585D01*
X88706209Y-39324824D01*
X88854824Y-39176209D01*
X89029585Y-39059437D01*
X89223769Y-38979003D01*
X89429908Y-38938000D01*
X89640092Y-38938000D01*
X89846231Y-38979003D01*
X89846231Y-38979003D01*
G37*
G36*
X87306231Y-38979003D02*
X87500415Y-39059437D01*
X87675176Y-39176209D01*
X87823791Y-39324824D01*
X87940563Y-39499585D01*
X88020997Y-39693769D01*
X88062000Y-39899908D01*
X88062000Y-40110092D01*
X88020997Y-40316231D01*
X87940563Y-40510415D01*
X87823791Y-40685176D01*
X87675176Y-40833791D01*
X87500415Y-40950563D01*
X87306231Y-41030997D01*
X87100092Y-41072000D01*
X86889908Y-41072000D01*
X86683769Y-41030997D01*
X86489585Y-40950563D01*
X86314824Y-40833791D01*
X86166209Y-40685176D01*
X86049437Y-40510415D01*
X85969003Y-40316231D01*
X85928000Y-40110092D01*
X85928000Y-39899908D01*
X85969003Y-39693769D01*
X86049437Y-39499585D01*
X86166209Y-39324824D01*
X86314824Y-39176209D01*
X86489585Y-39059437D01*
X86683769Y-38979003D01*
X86889908Y-38938000D01*
X87100092Y-38938000D01*
X87306231Y-38979003D01*
X87306231Y-38979003D01*
G37*
G36*
X77146231Y-38979003D02*
X77340415Y-39059437D01*
X77515176Y-39176209D01*
X77663791Y-39324824D01*
X77780563Y-39499585D01*
X77860997Y-39693769D01*
X77902000Y-39899908D01*
X77902000Y-40110092D01*
X77860997Y-40316231D01*
X77780563Y-40510415D01*
X77663791Y-40685176D01*
X77515176Y-40833791D01*
X77340415Y-40950563D01*
X77146231Y-41030997D01*
X76940092Y-41072000D01*
X76729908Y-41072000D01*
X76523769Y-41030997D01*
X76329585Y-40950563D01*
X76154824Y-40833791D01*
X76006209Y-40685176D01*
X75889437Y-40510415D01*
X75809003Y-40316231D01*
X75768000Y-40110092D01*
X75768000Y-39899908D01*
X75809003Y-39693769D01*
X75889437Y-39499585D01*
X76006209Y-39324824D01*
X76154824Y-39176209D01*
X76329585Y-39059437D01*
X76523769Y-38979003D01*
X76729908Y-38938000D01*
X76940092Y-38938000D01*
X77146231Y-38979003D01*
X77146231Y-38979003D01*
G37*
G36*
X123935443Y-37840519D02*
X124001627Y-37847037D01*
X124114853Y-37881384D01*
X124171467Y-37898557D01*
X124258311Y-37944977D01*
X124327991Y-37982222D01*
X124363729Y-38011552D01*
X124465186Y-38094814D01*
X124548448Y-38196271D01*
X124577778Y-38232009D01*
X124577779Y-38232011D01*
X124661443Y-38388533D01*
X124678616Y-38445147D01*
X124712963Y-38558373D01*
X124730359Y-38735000D01*
X124712963Y-38911627D01*
X124692525Y-38979003D01*
X124661443Y-39081467D01*
X124592698Y-39210078D01*
X124577778Y-39237991D01*
X124548448Y-39273729D01*
X124465186Y-39375186D01*
X124363729Y-39458448D01*
X124327991Y-39487778D01*
X124327989Y-39487779D01*
X124171467Y-39571443D01*
X124164069Y-39573687D01*
X124001627Y-39622963D01*
X123935442Y-39629482D01*
X123869260Y-39636000D01*
X123780740Y-39636000D01*
X123714558Y-39629482D01*
X123648373Y-39622963D01*
X123485931Y-39573687D01*
X123478533Y-39571443D01*
X123322011Y-39487779D01*
X123322009Y-39487778D01*
X123286271Y-39458448D01*
X123184814Y-39375186D01*
X123101552Y-39273729D01*
X123072222Y-39237991D01*
X123057302Y-39210078D01*
X122988557Y-39081467D01*
X122957475Y-38979003D01*
X122937037Y-38911627D01*
X122919641Y-38735000D01*
X122937037Y-38558373D01*
X122971384Y-38445147D01*
X122988557Y-38388533D01*
X123072221Y-38232011D01*
X123072222Y-38232009D01*
X123101552Y-38196271D01*
X123184814Y-38094814D01*
X123286271Y-38011552D01*
X123322009Y-37982222D01*
X123391689Y-37944977D01*
X123478533Y-37898557D01*
X123535147Y-37881384D01*
X123648373Y-37847037D01*
X123714557Y-37840519D01*
X123780740Y-37834000D01*
X123869260Y-37834000D01*
X123935443Y-37840519D01*
X123935443Y-37840519D01*
G37*
G36*
X117641821Y-37896313D02*
X117641824Y-37896314D01*
X117641825Y-37896314D01*
X117802239Y-37944975D01*
X117802241Y-37944976D01*
X117802244Y-37944977D01*
X117950078Y-38023995D01*
X118079659Y-38130341D01*
X118186005Y-38259922D01*
X118265023Y-38407756D01*
X118265024Y-38407759D01*
X118265025Y-38407761D01*
X118310713Y-38558375D01*
X118313687Y-38568179D01*
X118330117Y-38735000D01*
X118313687Y-38901821D01*
X118313686Y-38901824D01*
X118313686Y-38901825D01*
X118265875Y-39059437D01*
X118265023Y-39062244D01*
X118186005Y-39210078D01*
X118079659Y-39339659D01*
X117950078Y-39446005D01*
X117802244Y-39525023D01*
X117802241Y-39525024D01*
X117802239Y-39525025D01*
X117641825Y-39573686D01*
X117641824Y-39573686D01*
X117641821Y-39573687D01*
X117516804Y-39586000D01*
X117433196Y-39586000D01*
X117308179Y-39573687D01*
X117308176Y-39573686D01*
X117308175Y-39573686D01*
X117147761Y-39525025D01*
X117147759Y-39525024D01*
X117147756Y-39525023D01*
X116999922Y-39446005D01*
X116870341Y-39339659D01*
X116763995Y-39210078D01*
X116684977Y-39062244D01*
X116684126Y-39059437D01*
X116636314Y-38901825D01*
X116636314Y-38901824D01*
X116636313Y-38901821D01*
X116619883Y-38735000D01*
X116636313Y-38568179D01*
X116639287Y-38558375D01*
X116684975Y-38407761D01*
X116684976Y-38407759D01*
X116684977Y-38407756D01*
X116763995Y-38259922D01*
X116870341Y-38130341D01*
X116999922Y-38023995D01*
X117147756Y-37944977D01*
X117147759Y-37944976D01*
X117147761Y-37944975D01*
X117308175Y-37896314D01*
X117308176Y-37896314D01*
X117308179Y-37896313D01*
X117433196Y-37884000D01*
X117516804Y-37884000D01*
X117641821Y-37896313D01*
X117641821Y-37896313D01*
G37*
G36*
X54776821Y-37896313D02*
X54776824Y-37896314D01*
X54776825Y-37896314D01*
X54937239Y-37944975D01*
X54937241Y-37944976D01*
X54937244Y-37944977D01*
X55085078Y-38023995D01*
X55214659Y-38130341D01*
X55321005Y-38259922D01*
X55400023Y-38407756D01*
X55400024Y-38407759D01*
X55400025Y-38407761D01*
X55445713Y-38558375D01*
X55448687Y-38568179D01*
X55465117Y-38735000D01*
X55448687Y-38901821D01*
X55448686Y-38901824D01*
X55448686Y-38901825D01*
X55400875Y-39059437D01*
X55400023Y-39062244D01*
X55321005Y-39210078D01*
X55214659Y-39339659D01*
X55085078Y-39446005D01*
X54937244Y-39525023D01*
X54937241Y-39525024D01*
X54937239Y-39525025D01*
X54776825Y-39573686D01*
X54776824Y-39573686D01*
X54776821Y-39573687D01*
X54651804Y-39586000D01*
X54568196Y-39586000D01*
X54443179Y-39573687D01*
X54443176Y-39573686D01*
X54443175Y-39573686D01*
X54282761Y-39525025D01*
X54282759Y-39525024D01*
X54282756Y-39525023D01*
X54134922Y-39446005D01*
X54005341Y-39339659D01*
X53898995Y-39210078D01*
X53819977Y-39062244D01*
X53819126Y-39059437D01*
X53771314Y-38901825D01*
X53771314Y-38901824D01*
X53771313Y-38901821D01*
X53754883Y-38735000D01*
X53771313Y-38568179D01*
X53774287Y-38558375D01*
X53819975Y-38407761D01*
X53819976Y-38407759D01*
X53819977Y-38407756D01*
X53898995Y-38259922D01*
X54005341Y-38130341D01*
X54134922Y-38023995D01*
X54282756Y-37944977D01*
X54282759Y-37944976D01*
X54282761Y-37944975D01*
X54443175Y-37896314D01*
X54443176Y-37896314D01*
X54443179Y-37896313D01*
X54568196Y-37884000D01*
X54651804Y-37884000D01*
X54776821Y-37896313D01*
X54776821Y-37896313D01*
G37*
G36*
X62396821Y-37896313D02*
X62396824Y-37896314D01*
X62396825Y-37896314D01*
X62557239Y-37944975D01*
X62557241Y-37944976D01*
X62557244Y-37944977D01*
X62705078Y-38023995D01*
X62834659Y-38130341D01*
X62941005Y-38259922D01*
X63020023Y-38407756D01*
X63020024Y-38407759D01*
X63020025Y-38407761D01*
X63065713Y-38558375D01*
X63068687Y-38568179D01*
X63085117Y-38735000D01*
X63068687Y-38901821D01*
X63068686Y-38901824D01*
X63068686Y-38901825D01*
X63020875Y-39059437D01*
X63020023Y-39062244D01*
X62941005Y-39210078D01*
X62834659Y-39339659D01*
X62705078Y-39446005D01*
X62557244Y-39525023D01*
X62557241Y-39525024D01*
X62557239Y-39525025D01*
X62396825Y-39573686D01*
X62396824Y-39573686D01*
X62396821Y-39573687D01*
X62271804Y-39586000D01*
X62188196Y-39586000D01*
X62063179Y-39573687D01*
X62063176Y-39573686D01*
X62063175Y-39573686D01*
X61902761Y-39525025D01*
X61902759Y-39525024D01*
X61902756Y-39525023D01*
X61754922Y-39446005D01*
X61625341Y-39339659D01*
X61518995Y-39210078D01*
X61439977Y-39062244D01*
X61439126Y-39059437D01*
X61391314Y-38901825D01*
X61391314Y-38901824D01*
X61391313Y-38901821D01*
X61374883Y-38735000D01*
X61391313Y-38568179D01*
X61394287Y-38558375D01*
X61439975Y-38407761D01*
X61439976Y-38407759D01*
X61439977Y-38407756D01*
X61518995Y-38259922D01*
X61625341Y-38130341D01*
X61754922Y-38023995D01*
X61902756Y-37944977D01*
X61902759Y-37944976D01*
X61902761Y-37944975D01*
X62063175Y-37896314D01*
X62063176Y-37896314D01*
X62063179Y-37896313D01*
X62188196Y-37884000D01*
X62271804Y-37884000D01*
X62396821Y-37896313D01*
X62396821Y-37896313D01*
G37*
G36*
X96051821Y-37896313D02*
X96051824Y-37896314D01*
X96051825Y-37896314D01*
X96212239Y-37944975D01*
X96212241Y-37944976D01*
X96212244Y-37944977D01*
X96360078Y-38023995D01*
X96489659Y-38130341D01*
X96596005Y-38259922D01*
X96675023Y-38407756D01*
X96675024Y-38407759D01*
X96675025Y-38407761D01*
X96720713Y-38558375D01*
X96723687Y-38568179D01*
X96740117Y-38735000D01*
X96723687Y-38901821D01*
X96723686Y-38901824D01*
X96723686Y-38901825D01*
X96675875Y-39059437D01*
X96675023Y-39062244D01*
X96596005Y-39210078D01*
X96489659Y-39339659D01*
X96360078Y-39446005D01*
X96212244Y-39525023D01*
X96212241Y-39525024D01*
X96212239Y-39525025D01*
X96051825Y-39573686D01*
X96051824Y-39573686D01*
X96051821Y-39573687D01*
X95926804Y-39586000D01*
X95843196Y-39586000D01*
X95718179Y-39573687D01*
X95718176Y-39573686D01*
X95718175Y-39573686D01*
X95557761Y-39525025D01*
X95557759Y-39525024D01*
X95557756Y-39525023D01*
X95409922Y-39446005D01*
X95280341Y-39339659D01*
X95173995Y-39210078D01*
X95094977Y-39062244D01*
X95094126Y-39059437D01*
X95046314Y-38901825D01*
X95046314Y-38901824D01*
X95046313Y-38901821D01*
X95029883Y-38735000D01*
X95046313Y-38568179D01*
X95049287Y-38558375D01*
X95094975Y-38407761D01*
X95094976Y-38407759D01*
X95094977Y-38407756D01*
X95173995Y-38259922D01*
X95280341Y-38130341D01*
X95409922Y-38023995D01*
X95557756Y-37944977D01*
X95557759Y-37944976D01*
X95557761Y-37944975D01*
X95718175Y-37896314D01*
X95718176Y-37896314D01*
X95718179Y-37896313D01*
X95843196Y-37884000D01*
X95926804Y-37884000D01*
X96051821Y-37896313D01*
X96051821Y-37896313D01*
G37*
G36*
X103671821Y-37896313D02*
X103671824Y-37896314D01*
X103671825Y-37896314D01*
X103832239Y-37944975D01*
X103832241Y-37944976D01*
X103832244Y-37944977D01*
X103980078Y-38023995D01*
X104109659Y-38130341D01*
X104216005Y-38259922D01*
X104295023Y-38407756D01*
X104295024Y-38407759D01*
X104295025Y-38407761D01*
X104340713Y-38558375D01*
X104343687Y-38568179D01*
X104360117Y-38735000D01*
X104343687Y-38901821D01*
X104343686Y-38901824D01*
X104343686Y-38901825D01*
X104295875Y-39059437D01*
X104295023Y-39062244D01*
X104216005Y-39210078D01*
X104109659Y-39339659D01*
X103980078Y-39446005D01*
X103832244Y-39525023D01*
X103832241Y-39525024D01*
X103832239Y-39525025D01*
X103671825Y-39573686D01*
X103671824Y-39573686D01*
X103671821Y-39573687D01*
X103546804Y-39586000D01*
X103463196Y-39586000D01*
X103338179Y-39573687D01*
X103338176Y-39573686D01*
X103338175Y-39573686D01*
X103177761Y-39525025D01*
X103177759Y-39525024D01*
X103177756Y-39525023D01*
X103029922Y-39446005D01*
X102900341Y-39339659D01*
X102793995Y-39210078D01*
X102714977Y-39062244D01*
X102714126Y-39059437D01*
X102666314Y-38901825D01*
X102666314Y-38901824D01*
X102666313Y-38901821D01*
X102649883Y-38735000D01*
X102666313Y-38568179D01*
X102669287Y-38558375D01*
X102714975Y-38407761D01*
X102714976Y-38407759D01*
X102714977Y-38407756D01*
X102793995Y-38259922D01*
X102900341Y-38130341D01*
X103029922Y-38023995D01*
X103177756Y-37944977D01*
X103177759Y-37944976D01*
X103177761Y-37944975D01*
X103338175Y-37896314D01*
X103338176Y-37896314D01*
X103338179Y-37896313D01*
X103463196Y-37884000D01*
X103546804Y-37884000D01*
X103671821Y-37896313D01*
X103671821Y-37896313D01*
G37*
G36*
X110021821Y-37896313D02*
X110021824Y-37896314D01*
X110021825Y-37896314D01*
X110182239Y-37944975D01*
X110182241Y-37944976D01*
X110182244Y-37944977D01*
X110330078Y-38023995D01*
X110459659Y-38130341D01*
X110566005Y-38259922D01*
X110645023Y-38407756D01*
X110645024Y-38407759D01*
X110645025Y-38407761D01*
X110690713Y-38558375D01*
X110693687Y-38568179D01*
X110710117Y-38735000D01*
X110693687Y-38901821D01*
X110693686Y-38901824D01*
X110693686Y-38901825D01*
X110645875Y-39059437D01*
X110645023Y-39062244D01*
X110566005Y-39210078D01*
X110459659Y-39339659D01*
X110330078Y-39446005D01*
X110182244Y-39525023D01*
X110182241Y-39525024D01*
X110182239Y-39525025D01*
X110021825Y-39573686D01*
X110021824Y-39573686D01*
X110021821Y-39573687D01*
X109896804Y-39586000D01*
X109813196Y-39586000D01*
X109688179Y-39573687D01*
X109688176Y-39573686D01*
X109688175Y-39573686D01*
X109527761Y-39525025D01*
X109527759Y-39525024D01*
X109527756Y-39525023D01*
X109379922Y-39446005D01*
X109250341Y-39339659D01*
X109143995Y-39210078D01*
X109064977Y-39062244D01*
X109064126Y-39059437D01*
X109016314Y-38901825D01*
X109016314Y-38901824D01*
X109016313Y-38901821D01*
X108999883Y-38735000D01*
X109016313Y-38568179D01*
X109019287Y-38558375D01*
X109064975Y-38407761D01*
X109064976Y-38407759D01*
X109064977Y-38407756D01*
X109143995Y-38259922D01*
X109250341Y-38130341D01*
X109379922Y-38023995D01*
X109527756Y-37944977D01*
X109527759Y-37944976D01*
X109527761Y-37944975D01*
X109688175Y-37896314D01*
X109688176Y-37896314D01*
X109688179Y-37896313D01*
X109813196Y-37884000D01*
X109896804Y-37884000D01*
X110021821Y-37896313D01*
X110021821Y-37896313D01*
G37*
G36*
X123935442Y-35300518D02*
X124001627Y-35307037D01*
X124114853Y-35341384D01*
X124171467Y-35358557D01*
X124258311Y-35404977D01*
X124327991Y-35442222D01*
X124363729Y-35471552D01*
X124465186Y-35554814D01*
X124548448Y-35656271D01*
X124577778Y-35692009D01*
X124577779Y-35692011D01*
X124661443Y-35848533D01*
X124678616Y-35905147D01*
X124712963Y-36018373D01*
X124730359Y-36195000D01*
X124712963Y-36371627D01*
X124678616Y-36484853D01*
X124661443Y-36541467D01*
X124592698Y-36670078D01*
X124577778Y-36697991D01*
X124548448Y-36733729D01*
X124465186Y-36835186D01*
X124363729Y-36918448D01*
X124327991Y-36947778D01*
X124327989Y-36947779D01*
X124171467Y-37031443D01*
X124164069Y-37033687D01*
X124001627Y-37082963D01*
X123935443Y-37089481D01*
X123869260Y-37096000D01*
X123780740Y-37096000D01*
X123714557Y-37089481D01*
X123648373Y-37082963D01*
X123485931Y-37033687D01*
X123478533Y-37031443D01*
X123322011Y-36947779D01*
X123322009Y-36947778D01*
X123286271Y-36918448D01*
X123184814Y-36835186D01*
X123101552Y-36733729D01*
X123072222Y-36697991D01*
X123057302Y-36670078D01*
X122988557Y-36541467D01*
X122971384Y-36484853D01*
X122937037Y-36371627D01*
X122919641Y-36195000D01*
X122937037Y-36018373D01*
X122971384Y-35905147D01*
X122988557Y-35848533D01*
X123072221Y-35692011D01*
X123072222Y-35692009D01*
X123101552Y-35656271D01*
X123184814Y-35554814D01*
X123286271Y-35471552D01*
X123322009Y-35442222D01*
X123391689Y-35404977D01*
X123478533Y-35358557D01*
X123535147Y-35341384D01*
X123648373Y-35307037D01*
X123714558Y-35300518D01*
X123780740Y-35294000D01*
X123869260Y-35294000D01*
X123935442Y-35300518D01*
X123935442Y-35300518D01*
G37*
G36*
X96051821Y-35356313D02*
X96051824Y-35356314D01*
X96051825Y-35356314D01*
X96212239Y-35404975D01*
X96212241Y-35404976D01*
X96212244Y-35404977D01*
X96360078Y-35483995D01*
X96489659Y-35590341D01*
X96596005Y-35719922D01*
X96675023Y-35867756D01*
X96675024Y-35867759D01*
X96675025Y-35867761D01*
X96720713Y-36018375D01*
X96723687Y-36028179D01*
X96740117Y-36195000D01*
X96723687Y-36361821D01*
X96723686Y-36361824D01*
X96723686Y-36361825D01*
X96720713Y-36371627D01*
X96675023Y-36522244D01*
X96596005Y-36670078D01*
X96489659Y-36799659D01*
X96360078Y-36906005D01*
X96212244Y-36985023D01*
X96212241Y-36985024D01*
X96212239Y-36985025D01*
X96051825Y-37033686D01*
X96051824Y-37033686D01*
X96051821Y-37033687D01*
X95926804Y-37046000D01*
X95843196Y-37046000D01*
X95718179Y-37033687D01*
X95718176Y-37033686D01*
X95718175Y-37033686D01*
X95557761Y-36985025D01*
X95557759Y-36985024D01*
X95557756Y-36985023D01*
X95409922Y-36906005D01*
X95280341Y-36799659D01*
X95173995Y-36670078D01*
X95094977Y-36522244D01*
X95049288Y-36371627D01*
X95046314Y-36361825D01*
X95046314Y-36361824D01*
X95046313Y-36361821D01*
X95029883Y-36195000D01*
X95046313Y-36028179D01*
X95049287Y-36018375D01*
X95094975Y-35867761D01*
X95094976Y-35867759D01*
X95094977Y-35867756D01*
X95173995Y-35719922D01*
X95280341Y-35590341D01*
X95409922Y-35483995D01*
X95557756Y-35404977D01*
X95557759Y-35404976D01*
X95557761Y-35404975D01*
X95718175Y-35356314D01*
X95718176Y-35356314D01*
X95718179Y-35356313D01*
X95843196Y-35344000D01*
X95926804Y-35344000D01*
X96051821Y-35356313D01*
X96051821Y-35356313D01*
G37*
G36*
X103671821Y-35356313D02*
X103671824Y-35356314D01*
X103671825Y-35356314D01*
X103832239Y-35404975D01*
X103832241Y-35404976D01*
X103832244Y-35404977D01*
X103980078Y-35483995D01*
X104109659Y-35590341D01*
X104216005Y-35719922D01*
X104295023Y-35867756D01*
X104295024Y-35867759D01*
X104295025Y-35867761D01*
X104340713Y-36018375D01*
X104343687Y-36028179D01*
X104360117Y-36195000D01*
X104343687Y-36361821D01*
X104343686Y-36361824D01*
X104343686Y-36361825D01*
X104340713Y-36371627D01*
X104295023Y-36522244D01*
X104216005Y-36670078D01*
X104109659Y-36799659D01*
X103980078Y-36906005D01*
X103832244Y-36985023D01*
X103832241Y-36985024D01*
X103832239Y-36985025D01*
X103671825Y-37033686D01*
X103671824Y-37033686D01*
X103671821Y-37033687D01*
X103546804Y-37046000D01*
X103463196Y-37046000D01*
X103338179Y-37033687D01*
X103338176Y-37033686D01*
X103338175Y-37033686D01*
X103177761Y-36985025D01*
X103177759Y-36985024D01*
X103177756Y-36985023D01*
X103029922Y-36906005D01*
X102900341Y-36799659D01*
X102793995Y-36670078D01*
X102714977Y-36522244D01*
X102669288Y-36371627D01*
X102666314Y-36361825D01*
X102666314Y-36361824D01*
X102666313Y-36361821D01*
X102649883Y-36195000D01*
X102666313Y-36028179D01*
X102669287Y-36018375D01*
X102714975Y-35867761D01*
X102714976Y-35867759D01*
X102714977Y-35867756D01*
X102793995Y-35719922D01*
X102900341Y-35590341D01*
X103029922Y-35483995D01*
X103177756Y-35404977D01*
X103177759Y-35404976D01*
X103177761Y-35404975D01*
X103338175Y-35356314D01*
X103338176Y-35356314D01*
X103338179Y-35356313D01*
X103463196Y-35344000D01*
X103546804Y-35344000D01*
X103671821Y-35356313D01*
X103671821Y-35356313D01*
G37*
G36*
X62396821Y-35356313D02*
X62396824Y-35356314D01*
X62396825Y-35356314D01*
X62557239Y-35404975D01*
X62557241Y-35404976D01*
X62557244Y-35404977D01*
X62705078Y-35483995D01*
X62834659Y-35590341D01*
X62941005Y-35719922D01*
X63020023Y-35867756D01*
X63020024Y-35867759D01*
X63020025Y-35867761D01*
X63065713Y-36018375D01*
X63068687Y-36028179D01*
X63085117Y-36195000D01*
X63068687Y-36361821D01*
X63068686Y-36361824D01*
X63068686Y-36361825D01*
X63065713Y-36371627D01*
X63020023Y-36522244D01*
X62941005Y-36670078D01*
X62834659Y-36799659D01*
X62705078Y-36906005D01*
X62557244Y-36985023D01*
X62557241Y-36985024D01*
X62557239Y-36985025D01*
X62396825Y-37033686D01*
X62396824Y-37033686D01*
X62396821Y-37033687D01*
X62271804Y-37046000D01*
X62188196Y-37046000D01*
X62063179Y-37033687D01*
X62063176Y-37033686D01*
X62063175Y-37033686D01*
X61902761Y-36985025D01*
X61902759Y-36985024D01*
X61902756Y-36985023D01*
X61754922Y-36906005D01*
X61625341Y-36799659D01*
X61518995Y-36670078D01*
X61439977Y-36522244D01*
X61394288Y-36371627D01*
X61391314Y-36361825D01*
X61391314Y-36361824D01*
X61391313Y-36361821D01*
X61374883Y-36195000D01*
X61391313Y-36028179D01*
X61394287Y-36018375D01*
X61439975Y-35867761D01*
X61439976Y-35867759D01*
X61439977Y-35867756D01*
X61518995Y-35719922D01*
X61625341Y-35590341D01*
X61754922Y-35483995D01*
X61902756Y-35404977D01*
X61902759Y-35404976D01*
X61902761Y-35404975D01*
X62063175Y-35356314D01*
X62063176Y-35356314D01*
X62063179Y-35356313D01*
X62188196Y-35344000D01*
X62271804Y-35344000D01*
X62396821Y-35356313D01*
X62396821Y-35356313D01*
G37*
G36*
X54776821Y-35356313D02*
X54776824Y-35356314D01*
X54776825Y-35356314D01*
X54937239Y-35404975D01*
X54937241Y-35404976D01*
X54937244Y-35404977D01*
X55085078Y-35483995D01*
X55214659Y-35590341D01*
X55321005Y-35719922D01*
X55400023Y-35867756D01*
X55400024Y-35867759D01*
X55400025Y-35867761D01*
X55445713Y-36018375D01*
X55448687Y-36028179D01*
X55465117Y-36195000D01*
X55448687Y-36361821D01*
X55448686Y-36361824D01*
X55448686Y-36361825D01*
X55445713Y-36371627D01*
X55400023Y-36522244D01*
X55321005Y-36670078D01*
X55214659Y-36799659D01*
X55085078Y-36906005D01*
X54937244Y-36985023D01*
X54937241Y-36985024D01*
X54937239Y-36985025D01*
X54776825Y-37033686D01*
X54776824Y-37033686D01*
X54776821Y-37033687D01*
X54651804Y-37046000D01*
X54568196Y-37046000D01*
X54443179Y-37033687D01*
X54443176Y-37033686D01*
X54443175Y-37033686D01*
X54282761Y-36985025D01*
X54282759Y-36985024D01*
X54282756Y-36985023D01*
X54134922Y-36906005D01*
X54005341Y-36799659D01*
X53898995Y-36670078D01*
X53819977Y-36522244D01*
X53774288Y-36371627D01*
X53771314Y-36361825D01*
X53771314Y-36361824D01*
X53771313Y-36361821D01*
X53754883Y-36195000D01*
X53771313Y-36028179D01*
X53774287Y-36018375D01*
X53819975Y-35867761D01*
X53819976Y-35867759D01*
X53819977Y-35867756D01*
X53898995Y-35719922D01*
X54005341Y-35590341D01*
X54134922Y-35483995D01*
X54282756Y-35404977D01*
X54282759Y-35404976D01*
X54282761Y-35404975D01*
X54443175Y-35356314D01*
X54443176Y-35356314D01*
X54443179Y-35356313D01*
X54568196Y-35344000D01*
X54651804Y-35344000D01*
X54776821Y-35356313D01*
X54776821Y-35356313D01*
G37*
G36*
X110021821Y-35356313D02*
X110021824Y-35356314D01*
X110021825Y-35356314D01*
X110182239Y-35404975D01*
X110182241Y-35404976D01*
X110182244Y-35404977D01*
X110330078Y-35483995D01*
X110459659Y-35590341D01*
X110566005Y-35719922D01*
X110645023Y-35867756D01*
X110645024Y-35867759D01*
X110645025Y-35867761D01*
X110690713Y-36018375D01*
X110693687Y-36028179D01*
X110710117Y-36195000D01*
X110693687Y-36361821D01*
X110693686Y-36361824D01*
X110693686Y-36361825D01*
X110690713Y-36371627D01*
X110645023Y-36522244D01*
X110566005Y-36670078D01*
X110459659Y-36799659D01*
X110330078Y-36906005D01*
X110182244Y-36985023D01*
X110182241Y-36985024D01*
X110182239Y-36985025D01*
X110021825Y-37033686D01*
X110021824Y-37033686D01*
X110021821Y-37033687D01*
X109896804Y-37046000D01*
X109813196Y-37046000D01*
X109688179Y-37033687D01*
X109688176Y-37033686D01*
X109688175Y-37033686D01*
X109527761Y-36985025D01*
X109527759Y-36985024D01*
X109527756Y-36985023D01*
X109379922Y-36906005D01*
X109250341Y-36799659D01*
X109143995Y-36670078D01*
X109064977Y-36522244D01*
X109019288Y-36371627D01*
X109016314Y-36361825D01*
X109016314Y-36361824D01*
X109016313Y-36361821D01*
X108999883Y-36195000D01*
X109016313Y-36028179D01*
X109019287Y-36018375D01*
X109064975Y-35867761D01*
X109064976Y-35867759D01*
X109064977Y-35867756D01*
X109143995Y-35719922D01*
X109250341Y-35590341D01*
X109379922Y-35483995D01*
X109527756Y-35404977D01*
X109527759Y-35404976D01*
X109527761Y-35404975D01*
X109688175Y-35356314D01*
X109688176Y-35356314D01*
X109688179Y-35356313D01*
X109813196Y-35344000D01*
X109896804Y-35344000D01*
X110021821Y-35356313D01*
X110021821Y-35356313D01*
G37*
G36*
X117641821Y-35356313D02*
X117641824Y-35356314D01*
X117641825Y-35356314D01*
X117802239Y-35404975D01*
X117802241Y-35404976D01*
X117802244Y-35404977D01*
X117950078Y-35483995D01*
X118079659Y-35590341D01*
X118186005Y-35719922D01*
X118265023Y-35867756D01*
X118265024Y-35867759D01*
X118265025Y-35867761D01*
X118310713Y-36018375D01*
X118313687Y-36028179D01*
X118330117Y-36195000D01*
X118313687Y-36361821D01*
X118313686Y-36361824D01*
X118313686Y-36361825D01*
X118310713Y-36371627D01*
X118265023Y-36522244D01*
X118186005Y-36670078D01*
X118079659Y-36799659D01*
X117950078Y-36906005D01*
X117802244Y-36985023D01*
X117802241Y-36985024D01*
X117802239Y-36985025D01*
X117641825Y-37033686D01*
X117641824Y-37033686D01*
X117641821Y-37033687D01*
X117516804Y-37046000D01*
X117433196Y-37046000D01*
X117308179Y-37033687D01*
X117308176Y-37033686D01*
X117308175Y-37033686D01*
X117147761Y-36985025D01*
X117147759Y-36985024D01*
X117147756Y-36985023D01*
X116999922Y-36906005D01*
X116870341Y-36799659D01*
X116763995Y-36670078D01*
X116684977Y-36522244D01*
X116639288Y-36371627D01*
X116636314Y-36361825D01*
X116636314Y-36361824D01*
X116636313Y-36361821D01*
X116619883Y-36195000D01*
X116636313Y-36028179D01*
X116639287Y-36018375D01*
X116684975Y-35867761D01*
X116684976Y-35867759D01*
X116684977Y-35867756D01*
X116763995Y-35719922D01*
X116870341Y-35590341D01*
X116999922Y-35483995D01*
X117147756Y-35404977D01*
X117147759Y-35404976D01*
X117147761Y-35404975D01*
X117308175Y-35356314D01*
X117308176Y-35356314D01*
X117308179Y-35356313D01*
X117433196Y-35344000D01*
X117516804Y-35344000D01*
X117641821Y-35356313D01*
X117641821Y-35356313D01*
G37*
G36*
X123935443Y-32760519D02*
X124001627Y-32767037D01*
X124114853Y-32801384D01*
X124171467Y-32818557D01*
X124258311Y-32864977D01*
X124327991Y-32902222D01*
X124363729Y-32931552D01*
X124465186Y-33014814D01*
X124548448Y-33116271D01*
X124577778Y-33152009D01*
X124577779Y-33152011D01*
X124661443Y-33308533D01*
X124678616Y-33365147D01*
X124712963Y-33478373D01*
X124730359Y-33655000D01*
X124712963Y-33831627D01*
X124678616Y-33944853D01*
X124661443Y-34001467D01*
X124592698Y-34130078D01*
X124577778Y-34157991D01*
X124548448Y-34193729D01*
X124465186Y-34295186D01*
X124363729Y-34378448D01*
X124327991Y-34407778D01*
X124327989Y-34407779D01*
X124171467Y-34491443D01*
X124164069Y-34493687D01*
X124001627Y-34542963D01*
X123935442Y-34549482D01*
X123869260Y-34556000D01*
X123780740Y-34556000D01*
X123714558Y-34549482D01*
X123648373Y-34542963D01*
X123485931Y-34493687D01*
X123478533Y-34491443D01*
X123322011Y-34407779D01*
X123322009Y-34407778D01*
X123286271Y-34378448D01*
X123184814Y-34295186D01*
X123101552Y-34193729D01*
X123072222Y-34157991D01*
X123057302Y-34130078D01*
X122988557Y-34001467D01*
X122971384Y-33944853D01*
X122937037Y-33831627D01*
X122919641Y-33655000D01*
X122937037Y-33478373D01*
X122971384Y-33365147D01*
X122988557Y-33308533D01*
X123072221Y-33152011D01*
X123072222Y-33152009D01*
X123101552Y-33116271D01*
X123184814Y-33014814D01*
X123286271Y-32931552D01*
X123322009Y-32902222D01*
X123391689Y-32864977D01*
X123478533Y-32818557D01*
X123535147Y-32801384D01*
X123648373Y-32767037D01*
X123714557Y-32760519D01*
X123780740Y-32754000D01*
X123869260Y-32754000D01*
X123935443Y-32760519D01*
X123935443Y-32760519D01*
G37*
G36*
X103671821Y-32816313D02*
X103671824Y-32816314D01*
X103671825Y-32816314D01*
X103832239Y-32864975D01*
X103832241Y-32864976D01*
X103832244Y-32864977D01*
X103980078Y-32943995D01*
X104109659Y-33050341D01*
X104216005Y-33179922D01*
X104295023Y-33327756D01*
X104295024Y-33327759D01*
X104295025Y-33327761D01*
X104340713Y-33478375D01*
X104343687Y-33488179D01*
X104360117Y-33655000D01*
X104343687Y-33821821D01*
X104343686Y-33821824D01*
X104343686Y-33821825D01*
X104340713Y-33831627D01*
X104295023Y-33982244D01*
X104216005Y-34130078D01*
X104109659Y-34259659D01*
X103980078Y-34366005D01*
X103832244Y-34445023D01*
X103832241Y-34445024D01*
X103832239Y-34445025D01*
X103671825Y-34493686D01*
X103671824Y-34493686D01*
X103671821Y-34493687D01*
X103546804Y-34506000D01*
X103463196Y-34506000D01*
X103338179Y-34493687D01*
X103338176Y-34493686D01*
X103338175Y-34493686D01*
X103177761Y-34445025D01*
X103177759Y-34445024D01*
X103177756Y-34445023D01*
X103029922Y-34366005D01*
X102900341Y-34259659D01*
X102793995Y-34130078D01*
X102714977Y-33982244D01*
X102669288Y-33831627D01*
X102666314Y-33821825D01*
X102666314Y-33821824D01*
X102666313Y-33821821D01*
X102649883Y-33655000D01*
X102666313Y-33488179D01*
X102669287Y-33478375D01*
X102714975Y-33327761D01*
X102714976Y-33327759D01*
X102714977Y-33327756D01*
X102793995Y-33179922D01*
X102900341Y-33050341D01*
X103029922Y-32943995D01*
X103177756Y-32864977D01*
X103177759Y-32864976D01*
X103177761Y-32864975D01*
X103338175Y-32816314D01*
X103338176Y-32816314D01*
X103338179Y-32816313D01*
X103463196Y-32804000D01*
X103546804Y-32804000D01*
X103671821Y-32816313D01*
X103671821Y-32816313D01*
G37*
G36*
X117641821Y-32816313D02*
X117641824Y-32816314D01*
X117641825Y-32816314D01*
X117802239Y-32864975D01*
X117802241Y-32864976D01*
X117802244Y-32864977D01*
X117950078Y-32943995D01*
X118079659Y-33050341D01*
X118186005Y-33179922D01*
X118265023Y-33327756D01*
X118265024Y-33327759D01*
X118265025Y-33327761D01*
X118310713Y-33478375D01*
X118313687Y-33488179D01*
X118330117Y-33655000D01*
X118313687Y-33821821D01*
X118313686Y-33821824D01*
X118313686Y-33821825D01*
X118310713Y-33831627D01*
X118265023Y-33982244D01*
X118186005Y-34130078D01*
X118079659Y-34259659D01*
X117950078Y-34366005D01*
X117802244Y-34445023D01*
X117802241Y-34445024D01*
X117802239Y-34445025D01*
X117641825Y-34493686D01*
X117641824Y-34493686D01*
X117641821Y-34493687D01*
X117516804Y-34506000D01*
X117433196Y-34506000D01*
X117308179Y-34493687D01*
X117308176Y-34493686D01*
X117308175Y-34493686D01*
X117147761Y-34445025D01*
X117147759Y-34445024D01*
X117147756Y-34445023D01*
X116999922Y-34366005D01*
X116870341Y-34259659D01*
X116763995Y-34130078D01*
X116684977Y-33982244D01*
X116639288Y-33831627D01*
X116636314Y-33821825D01*
X116636314Y-33821824D01*
X116636313Y-33821821D01*
X116619883Y-33655000D01*
X116636313Y-33488179D01*
X116639287Y-33478375D01*
X116684975Y-33327761D01*
X116684976Y-33327759D01*
X116684977Y-33327756D01*
X116763995Y-33179922D01*
X116870341Y-33050341D01*
X116999922Y-32943995D01*
X117147756Y-32864977D01*
X117147759Y-32864976D01*
X117147761Y-32864975D01*
X117308175Y-32816314D01*
X117308176Y-32816314D01*
X117308179Y-32816313D01*
X117433196Y-32804000D01*
X117516804Y-32804000D01*
X117641821Y-32816313D01*
X117641821Y-32816313D01*
G37*
G36*
X96051821Y-32816313D02*
X96051824Y-32816314D01*
X96051825Y-32816314D01*
X96212239Y-32864975D01*
X96212241Y-32864976D01*
X96212244Y-32864977D01*
X96360078Y-32943995D01*
X96489659Y-33050341D01*
X96596005Y-33179922D01*
X96675023Y-33327756D01*
X96675024Y-33327759D01*
X96675025Y-33327761D01*
X96720713Y-33478375D01*
X96723687Y-33488179D01*
X96740117Y-33655000D01*
X96723687Y-33821821D01*
X96723686Y-33821824D01*
X96723686Y-33821825D01*
X96720713Y-33831627D01*
X96675023Y-33982244D01*
X96596005Y-34130078D01*
X96489659Y-34259659D01*
X96360078Y-34366005D01*
X96212244Y-34445023D01*
X96212241Y-34445024D01*
X96212239Y-34445025D01*
X96051825Y-34493686D01*
X96051824Y-34493686D01*
X96051821Y-34493687D01*
X95926804Y-34506000D01*
X95843196Y-34506000D01*
X95718179Y-34493687D01*
X95718176Y-34493686D01*
X95718175Y-34493686D01*
X95557761Y-34445025D01*
X95557759Y-34445024D01*
X95557756Y-34445023D01*
X95409922Y-34366005D01*
X95280341Y-34259659D01*
X95173995Y-34130078D01*
X95094977Y-33982244D01*
X95049288Y-33831627D01*
X95046314Y-33821825D01*
X95046314Y-33821824D01*
X95046313Y-33821821D01*
X95029883Y-33655000D01*
X95046313Y-33488179D01*
X95049287Y-33478375D01*
X95094975Y-33327761D01*
X95094976Y-33327759D01*
X95094977Y-33327756D01*
X95173995Y-33179922D01*
X95280341Y-33050341D01*
X95409922Y-32943995D01*
X95557756Y-32864977D01*
X95557759Y-32864976D01*
X95557761Y-32864975D01*
X95718175Y-32816314D01*
X95718176Y-32816314D01*
X95718179Y-32816313D01*
X95843196Y-32804000D01*
X95926804Y-32804000D01*
X96051821Y-32816313D01*
X96051821Y-32816313D01*
G37*
G36*
X110021821Y-32816313D02*
X110021824Y-32816314D01*
X110021825Y-32816314D01*
X110182239Y-32864975D01*
X110182241Y-32864976D01*
X110182244Y-32864977D01*
X110330078Y-32943995D01*
X110459659Y-33050341D01*
X110566005Y-33179922D01*
X110645023Y-33327756D01*
X110645024Y-33327759D01*
X110645025Y-33327761D01*
X110690713Y-33478375D01*
X110693687Y-33488179D01*
X110710117Y-33655000D01*
X110693687Y-33821821D01*
X110693686Y-33821824D01*
X110693686Y-33821825D01*
X110690713Y-33831627D01*
X110645023Y-33982244D01*
X110566005Y-34130078D01*
X110459659Y-34259659D01*
X110330078Y-34366005D01*
X110182244Y-34445023D01*
X110182241Y-34445024D01*
X110182239Y-34445025D01*
X110021825Y-34493686D01*
X110021824Y-34493686D01*
X110021821Y-34493687D01*
X109896804Y-34506000D01*
X109813196Y-34506000D01*
X109688179Y-34493687D01*
X109688176Y-34493686D01*
X109688175Y-34493686D01*
X109527761Y-34445025D01*
X109527759Y-34445024D01*
X109527756Y-34445023D01*
X109379922Y-34366005D01*
X109250341Y-34259659D01*
X109143995Y-34130078D01*
X109064977Y-33982244D01*
X109019288Y-33831627D01*
X109016314Y-33821825D01*
X109016314Y-33821824D01*
X109016313Y-33821821D01*
X108999883Y-33655000D01*
X109016313Y-33488179D01*
X109019287Y-33478375D01*
X109064975Y-33327761D01*
X109064976Y-33327759D01*
X109064977Y-33327756D01*
X109143995Y-33179922D01*
X109250341Y-33050341D01*
X109379922Y-32943995D01*
X109527756Y-32864977D01*
X109527759Y-32864976D01*
X109527761Y-32864975D01*
X109688175Y-32816314D01*
X109688176Y-32816314D01*
X109688179Y-32816313D01*
X109813196Y-32804000D01*
X109896804Y-32804000D01*
X110021821Y-32816313D01*
X110021821Y-32816313D01*
G37*
G36*
X54776821Y-32816313D02*
X54776824Y-32816314D01*
X54776825Y-32816314D01*
X54937239Y-32864975D01*
X54937241Y-32864976D01*
X54937244Y-32864977D01*
X55085078Y-32943995D01*
X55214659Y-33050341D01*
X55321005Y-33179922D01*
X55400023Y-33327756D01*
X55400024Y-33327759D01*
X55400025Y-33327761D01*
X55445713Y-33478375D01*
X55448687Y-33488179D01*
X55465117Y-33655000D01*
X55448687Y-33821821D01*
X55448686Y-33821824D01*
X55448686Y-33821825D01*
X55445713Y-33831627D01*
X55400023Y-33982244D01*
X55321005Y-34130078D01*
X55214659Y-34259659D01*
X55085078Y-34366005D01*
X54937244Y-34445023D01*
X54937241Y-34445024D01*
X54937239Y-34445025D01*
X54776825Y-34493686D01*
X54776824Y-34493686D01*
X54776821Y-34493687D01*
X54651804Y-34506000D01*
X54568196Y-34506000D01*
X54443179Y-34493687D01*
X54443176Y-34493686D01*
X54443175Y-34493686D01*
X54282761Y-34445025D01*
X54282759Y-34445024D01*
X54282756Y-34445023D01*
X54134922Y-34366005D01*
X54005341Y-34259659D01*
X53898995Y-34130078D01*
X53819977Y-33982244D01*
X53774288Y-33831627D01*
X53771314Y-33821825D01*
X53771314Y-33821824D01*
X53771313Y-33821821D01*
X53754883Y-33655000D01*
X53771313Y-33488179D01*
X53774287Y-33478375D01*
X53819975Y-33327761D01*
X53819976Y-33327759D01*
X53819977Y-33327756D01*
X53898995Y-33179922D01*
X54005341Y-33050341D01*
X54134922Y-32943995D01*
X54282756Y-32864977D01*
X54282759Y-32864976D01*
X54282761Y-32864975D01*
X54443175Y-32816314D01*
X54443176Y-32816314D01*
X54443179Y-32816313D01*
X54568196Y-32804000D01*
X54651804Y-32804000D01*
X54776821Y-32816313D01*
X54776821Y-32816313D01*
G37*
G36*
X62396821Y-32816313D02*
X62396824Y-32816314D01*
X62396825Y-32816314D01*
X62557239Y-32864975D01*
X62557241Y-32864976D01*
X62557244Y-32864977D01*
X62705078Y-32943995D01*
X62834659Y-33050341D01*
X62941005Y-33179922D01*
X63020023Y-33327756D01*
X63020024Y-33327759D01*
X63020025Y-33327761D01*
X63065713Y-33478375D01*
X63068687Y-33488179D01*
X63085117Y-33655000D01*
X63068687Y-33821821D01*
X63068686Y-33821824D01*
X63068686Y-33821825D01*
X63065713Y-33831627D01*
X63020023Y-33982244D01*
X62941005Y-34130078D01*
X62834659Y-34259659D01*
X62705078Y-34366005D01*
X62557244Y-34445023D01*
X62557241Y-34445024D01*
X62557239Y-34445025D01*
X62396825Y-34493686D01*
X62396824Y-34493686D01*
X62396821Y-34493687D01*
X62271804Y-34506000D01*
X62188196Y-34506000D01*
X62063179Y-34493687D01*
X62063176Y-34493686D01*
X62063175Y-34493686D01*
X61902761Y-34445025D01*
X61902759Y-34445024D01*
X61902756Y-34445023D01*
X61754922Y-34366005D01*
X61625341Y-34259659D01*
X61518995Y-34130078D01*
X61439977Y-33982244D01*
X61394288Y-33831627D01*
X61391314Y-33821825D01*
X61391314Y-33821824D01*
X61391313Y-33821821D01*
X61374883Y-33655000D01*
X61391313Y-33488179D01*
X61394287Y-33478375D01*
X61439975Y-33327761D01*
X61439976Y-33327759D01*
X61439977Y-33327756D01*
X61518995Y-33179922D01*
X61625341Y-33050341D01*
X61754922Y-32943995D01*
X61902756Y-32864977D01*
X61902759Y-32864976D01*
X61902761Y-32864975D01*
X62063175Y-32816314D01*
X62063176Y-32816314D01*
X62063179Y-32816313D01*
X62188196Y-32804000D01*
X62271804Y-32804000D01*
X62396821Y-32816313D01*
X62396821Y-32816313D01*
G37*
G36*
X77146231Y-31359003D02*
X77340415Y-31439437D01*
X77515176Y-31556209D01*
X77663791Y-31704824D01*
X77780563Y-31879585D01*
X77860997Y-32073769D01*
X77902000Y-32279908D01*
X77902000Y-32490092D01*
X77860997Y-32696231D01*
X77780563Y-32890415D01*
X77663791Y-33065176D01*
X77515176Y-33213791D01*
X77340415Y-33330563D01*
X77146231Y-33410997D01*
X76940092Y-33452000D01*
X76729908Y-33452000D01*
X76523769Y-33410997D01*
X76329585Y-33330563D01*
X76154824Y-33213791D01*
X76006209Y-33065176D01*
X75889437Y-32890415D01*
X75809003Y-32696231D01*
X75768000Y-32490092D01*
X75768000Y-32279908D01*
X75809003Y-32073769D01*
X75889437Y-31879585D01*
X76006209Y-31704824D01*
X76154824Y-31556209D01*
X76329585Y-31439437D01*
X76523769Y-31359003D01*
X76729908Y-31318000D01*
X76940092Y-31318000D01*
X77146231Y-31359003D01*
X77146231Y-31359003D01*
G37*
G36*
X72066231Y-31359003D02*
X72260415Y-31439437D01*
X72435176Y-31556209D01*
X72583791Y-31704824D01*
X72700563Y-31879585D01*
X72780997Y-32073769D01*
X72822000Y-32279908D01*
X72822000Y-32490092D01*
X72780997Y-32696231D01*
X72700563Y-32890415D01*
X72583791Y-33065176D01*
X72435176Y-33213791D01*
X72260415Y-33330563D01*
X72066231Y-33410997D01*
X71860092Y-33452000D01*
X71649908Y-33452000D01*
X71443769Y-33410997D01*
X71249585Y-33330563D01*
X71074824Y-33213791D01*
X70926209Y-33065176D01*
X70809437Y-32890415D01*
X70729003Y-32696231D01*
X70688000Y-32490092D01*
X70688000Y-32279908D01*
X70729003Y-32073769D01*
X70809437Y-31879585D01*
X70926209Y-31704824D01*
X71074824Y-31556209D01*
X71249585Y-31439437D01*
X71443769Y-31359003D01*
X71649908Y-31318000D01*
X71860092Y-31318000D01*
X72066231Y-31359003D01*
X72066231Y-31359003D01*
G37*
G36*
X69526231Y-31359003D02*
X69720415Y-31439437D01*
X69895176Y-31556209D01*
X70043791Y-31704824D01*
X70160563Y-31879585D01*
X70240997Y-32073769D01*
X70282000Y-32279908D01*
X70282000Y-32490092D01*
X70240997Y-32696231D01*
X70160563Y-32890415D01*
X70043791Y-33065176D01*
X69895176Y-33213791D01*
X69720415Y-33330563D01*
X69526231Y-33410997D01*
X69320092Y-33452000D01*
X69109908Y-33452000D01*
X68903769Y-33410997D01*
X68709585Y-33330563D01*
X68534824Y-33213791D01*
X68386209Y-33065176D01*
X68269437Y-32890415D01*
X68189003Y-32696231D01*
X68148000Y-32490092D01*
X68148000Y-32279908D01*
X68189003Y-32073769D01*
X68269437Y-31879585D01*
X68386209Y-31704824D01*
X68534824Y-31556209D01*
X68709585Y-31439437D01*
X68903769Y-31359003D01*
X69109908Y-31318000D01*
X69320092Y-31318000D01*
X69526231Y-31359003D01*
X69526231Y-31359003D01*
G37*
G36*
X74606231Y-31359003D02*
X74800415Y-31439437D01*
X74975176Y-31556209D01*
X75123791Y-31704824D01*
X75240563Y-31879585D01*
X75320997Y-32073769D01*
X75362000Y-32279908D01*
X75362000Y-32490092D01*
X75320997Y-32696231D01*
X75240563Y-32890415D01*
X75123791Y-33065176D01*
X74975176Y-33213791D01*
X74800415Y-33330563D01*
X74606231Y-33410997D01*
X74400092Y-33452000D01*
X74189908Y-33452000D01*
X73983769Y-33410997D01*
X73789585Y-33330563D01*
X73614824Y-33213791D01*
X73466209Y-33065176D01*
X73349437Y-32890415D01*
X73269003Y-32696231D01*
X73228000Y-32490092D01*
X73228000Y-32279908D01*
X73269003Y-32073769D01*
X73349437Y-31879585D01*
X73466209Y-31704824D01*
X73614824Y-31556209D01*
X73789585Y-31439437D01*
X73983769Y-31359003D01*
X74189908Y-31318000D01*
X74400092Y-31318000D01*
X74606231Y-31359003D01*
X74606231Y-31359003D01*
G37*
G36*
X66986231Y-31359003D02*
X67180415Y-31439437D01*
X67355176Y-31556209D01*
X67503791Y-31704824D01*
X67620563Y-31879585D01*
X67700997Y-32073769D01*
X67742000Y-32279908D01*
X67742000Y-32490092D01*
X67700997Y-32696231D01*
X67620563Y-32890415D01*
X67503791Y-33065176D01*
X67355176Y-33213791D01*
X67180415Y-33330563D01*
X66986231Y-33410997D01*
X66780092Y-33452000D01*
X66569908Y-33452000D01*
X66363769Y-33410997D01*
X66169585Y-33330563D01*
X65994824Y-33213791D01*
X65846209Y-33065176D01*
X65729437Y-32890415D01*
X65649003Y-32696231D01*
X65608000Y-32490092D01*
X65608000Y-32279908D01*
X65649003Y-32073769D01*
X65729437Y-31879585D01*
X65846209Y-31704824D01*
X65994824Y-31556209D01*
X66169585Y-31439437D01*
X66363769Y-31359003D01*
X66569908Y-31318000D01*
X66780092Y-31318000D01*
X66986231Y-31359003D01*
X66986231Y-31359003D01*
G37*
G36*
X79686231Y-31359003D02*
X79880415Y-31439437D01*
X80055176Y-31556209D01*
X80203791Y-31704824D01*
X80320563Y-31879585D01*
X80400997Y-32073769D01*
X80442000Y-32279908D01*
X80442000Y-32490092D01*
X80400997Y-32696231D01*
X80320563Y-32890415D01*
X80203791Y-33065176D01*
X80055176Y-33213791D01*
X79880415Y-33330563D01*
X79686231Y-33410997D01*
X79480092Y-33452000D01*
X79269908Y-33452000D01*
X79063769Y-33410997D01*
X78869585Y-33330563D01*
X78694824Y-33213791D01*
X78546209Y-33065176D01*
X78429437Y-32890415D01*
X78349003Y-32696231D01*
X78308000Y-32490092D01*
X78308000Y-32279908D01*
X78349003Y-32073769D01*
X78429437Y-31879585D01*
X78546209Y-31704824D01*
X78694824Y-31556209D01*
X78869585Y-31439437D01*
X79063769Y-31359003D01*
X79269908Y-31318000D01*
X79480092Y-31318000D01*
X79686231Y-31359003D01*
X79686231Y-31359003D01*
G37*
G36*
X89846231Y-31359003D02*
X90040415Y-31439437D01*
X90215176Y-31556209D01*
X90363791Y-31704824D01*
X90480563Y-31879585D01*
X90560997Y-32073769D01*
X90602000Y-32279908D01*
X90602000Y-32490092D01*
X90560997Y-32696231D01*
X90480563Y-32890415D01*
X90363791Y-33065176D01*
X90215176Y-33213791D01*
X90040415Y-33330563D01*
X89846231Y-33410997D01*
X89640092Y-33452000D01*
X89429908Y-33452000D01*
X89223769Y-33410997D01*
X89029585Y-33330563D01*
X88854824Y-33213791D01*
X88706209Y-33065176D01*
X88589437Y-32890415D01*
X88509003Y-32696231D01*
X88468000Y-32490092D01*
X88468000Y-32279908D01*
X88509003Y-32073769D01*
X88589437Y-31879585D01*
X88706209Y-31704824D01*
X88854824Y-31556209D01*
X89029585Y-31439437D01*
X89223769Y-31359003D01*
X89429908Y-31318000D01*
X89640092Y-31318000D01*
X89846231Y-31359003D01*
X89846231Y-31359003D01*
G37*
G36*
X87306231Y-31359003D02*
X87500415Y-31439437D01*
X87675176Y-31556209D01*
X87823791Y-31704824D01*
X87940563Y-31879585D01*
X88020997Y-32073769D01*
X88062000Y-32279908D01*
X88062000Y-32490092D01*
X88020997Y-32696231D01*
X87940563Y-32890415D01*
X87823791Y-33065176D01*
X87675176Y-33213791D01*
X87500415Y-33330563D01*
X87306231Y-33410997D01*
X87100092Y-33452000D01*
X86889908Y-33452000D01*
X86683769Y-33410997D01*
X86489585Y-33330563D01*
X86314824Y-33213791D01*
X86166209Y-33065176D01*
X86049437Y-32890415D01*
X85969003Y-32696231D01*
X85928000Y-32490092D01*
X85928000Y-32279908D01*
X85969003Y-32073769D01*
X86049437Y-31879585D01*
X86166209Y-31704824D01*
X86314824Y-31556209D01*
X86489585Y-31439437D01*
X86683769Y-31359003D01*
X86889908Y-31318000D01*
X87100092Y-31318000D01*
X87306231Y-31359003D01*
X87306231Y-31359003D01*
G37*
G36*
X84766231Y-31359003D02*
X84960415Y-31439437D01*
X85135176Y-31556209D01*
X85283791Y-31704824D01*
X85400563Y-31879585D01*
X85480997Y-32073769D01*
X85522000Y-32279908D01*
X85522000Y-32490092D01*
X85480997Y-32696231D01*
X85400563Y-32890415D01*
X85283791Y-33065176D01*
X85135176Y-33213791D01*
X84960415Y-33330563D01*
X84766231Y-33410997D01*
X84560092Y-33452000D01*
X84349908Y-33452000D01*
X84143769Y-33410997D01*
X83949585Y-33330563D01*
X83774824Y-33213791D01*
X83626209Y-33065176D01*
X83509437Y-32890415D01*
X83429003Y-32696231D01*
X83388000Y-32490092D01*
X83388000Y-32279908D01*
X83429003Y-32073769D01*
X83509437Y-31879585D01*
X83626209Y-31704824D01*
X83774824Y-31556209D01*
X83949585Y-31439437D01*
X84143769Y-31359003D01*
X84349908Y-31318000D01*
X84560092Y-31318000D01*
X84766231Y-31359003D01*
X84766231Y-31359003D01*
G37*
G36*
X82226231Y-31359003D02*
X82420415Y-31439437D01*
X82595176Y-31556209D01*
X82743791Y-31704824D01*
X82860563Y-31879585D01*
X82940997Y-32073769D01*
X82982000Y-32279908D01*
X82982000Y-32490092D01*
X82940997Y-32696231D01*
X82860563Y-32890415D01*
X82743791Y-33065176D01*
X82595176Y-33213791D01*
X82420415Y-33330563D01*
X82226231Y-33410997D01*
X82020092Y-33452000D01*
X81809908Y-33452000D01*
X81603769Y-33410997D01*
X81409585Y-33330563D01*
X81234824Y-33213791D01*
X81086209Y-33065176D01*
X80969437Y-32890415D01*
X80889003Y-32696231D01*
X80848000Y-32490092D01*
X80848000Y-32279908D01*
X80889003Y-32073769D01*
X80969437Y-31879585D01*
X81086209Y-31704824D01*
X81234824Y-31556209D01*
X81409585Y-31439437D01*
X81603769Y-31359003D01*
X81809908Y-31318000D01*
X82020092Y-31318000D01*
X82226231Y-31359003D01*
X82226231Y-31359003D01*
G37*
G36*
X123935442Y-30220518D02*
X124001627Y-30227037D01*
X124114853Y-30261384D01*
X124171467Y-30278557D01*
X124258311Y-30324977D01*
X124327991Y-30362222D01*
X124363729Y-30391552D01*
X124465186Y-30474814D01*
X124548448Y-30576271D01*
X124577778Y-30612009D01*
X124577779Y-30612011D01*
X124661443Y-30768533D01*
X124678616Y-30825147D01*
X124712963Y-30938373D01*
X124730359Y-31115000D01*
X124712963Y-31291627D01*
X124692525Y-31359003D01*
X124661443Y-31461467D01*
X124592698Y-31590078D01*
X124577778Y-31617991D01*
X124548448Y-31653729D01*
X124465186Y-31755186D01*
X124363729Y-31838448D01*
X124327991Y-31867778D01*
X124327989Y-31867779D01*
X124171467Y-31951443D01*
X124164069Y-31953687D01*
X124001627Y-32002963D01*
X123935443Y-32009481D01*
X123869260Y-32016000D01*
X123780740Y-32016000D01*
X123714557Y-32009481D01*
X123648373Y-32002963D01*
X123485931Y-31953687D01*
X123478533Y-31951443D01*
X123322011Y-31867779D01*
X123322009Y-31867778D01*
X123286271Y-31838448D01*
X123184814Y-31755186D01*
X123101552Y-31653729D01*
X123072222Y-31617991D01*
X123057302Y-31590078D01*
X122988557Y-31461467D01*
X122957475Y-31359003D01*
X122937037Y-31291627D01*
X122919641Y-31115000D01*
X122937037Y-30938373D01*
X122971384Y-30825147D01*
X122988557Y-30768533D01*
X123072221Y-30612011D01*
X123072222Y-30612009D01*
X123101552Y-30576271D01*
X123184814Y-30474814D01*
X123286271Y-30391552D01*
X123322009Y-30362222D01*
X123391689Y-30324977D01*
X123478533Y-30278557D01*
X123535147Y-30261384D01*
X123648373Y-30227037D01*
X123714558Y-30220518D01*
X123780740Y-30214000D01*
X123869260Y-30214000D01*
X123935442Y-30220518D01*
X123935442Y-30220518D01*
G37*
G36*
X110021821Y-30276313D02*
X110021824Y-30276314D01*
X110021825Y-30276314D01*
X110182239Y-30324975D01*
X110182241Y-30324976D01*
X110182244Y-30324977D01*
X110330078Y-30403995D01*
X110459659Y-30510341D01*
X110566005Y-30639922D01*
X110645023Y-30787756D01*
X110645024Y-30787759D01*
X110645025Y-30787761D01*
X110690713Y-30938375D01*
X110693687Y-30948179D01*
X110710117Y-31115000D01*
X110693687Y-31281821D01*
X110693686Y-31281824D01*
X110693686Y-31281825D01*
X110645875Y-31439437D01*
X110645023Y-31442244D01*
X110566005Y-31590078D01*
X110459659Y-31719659D01*
X110330078Y-31826005D01*
X110182244Y-31905023D01*
X110182241Y-31905024D01*
X110182239Y-31905025D01*
X110021825Y-31953686D01*
X110021824Y-31953686D01*
X110021821Y-31953687D01*
X109896804Y-31966000D01*
X109813196Y-31966000D01*
X109688179Y-31953687D01*
X109688176Y-31953686D01*
X109688175Y-31953686D01*
X109527761Y-31905025D01*
X109527759Y-31905024D01*
X109527756Y-31905023D01*
X109379922Y-31826005D01*
X109250341Y-31719659D01*
X109143995Y-31590078D01*
X109064977Y-31442244D01*
X109064126Y-31439437D01*
X109016314Y-31281825D01*
X109016314Y-31281824D01*
X109016313Y-31281821D01*
X108999883Y-31115000D01*
X109016313Y-30948179D01*
X109019287Y-30938375D01*
X109064975Y-30787761D01*
X109064976Y-30787759D01*
X109064977Y-30787756D01*
X109143995Y-30639922D01*
X109250341Y-30510341D01*
X109379922Y-30403995D01*
X109527756Y-30324977D01*
X109527759Y-30324976D01*
X109527761Y-30324975D01*
X109688175Y-30276314D01*
X109688176Y-30276314D01*
X109688179Y-30276313D01*
X109813196Y-30264000D01*
X109896804Y-30264000D01*
X110021821Y-30276313D01*
X110021821Y-30276313D01*
G37*
G36*
X54776821Y-30276313D02*
X54776824Y-30276314D01*
X54776825Y-30276314D01*
X54937239Y-30324975D01*
X54937241Y-30324976D01*
X54937244Y-30324977D01*
X55085078Y-30403995D01*
X55214659Y-30510341D01*
X55321005Y-30639922D01*
X55400023Y-30787756D01*
X55400024Y-30787759D01*
X55400025Y-30787761D01*
X55445713Y-30938375D01*
X55448687Y-30948179D01*
X55465117Y-31115000D01*
X55448687Y-31281821D01*
X55448686Y-31281824D01*
X55448686Y-31281825D01*
X55400875Y-31439437D01*
X55400023Y-31442244D01*
X55321005Y-31590078D01*
X55214659Y-31719659D01*
X55085078Y-31826005D01*
X54937244Y-31905023D01*
X54937241Y-31905024D01*
X54937239Y-31905025D01*
X54776825Y-31953686D01*
X54776824Y-31953686D01*
X54776821Y-31953687D01*
X54651804Y-31966000D01*
X54568196Y-31966000D01*
X54443179Y-31953687D01*
X54443176Y-31953686D01*
X54443175Y-31953686D01*
X54282761Y-31905025D01*
X54282759Y-31905024D01*
X54282756Y-31905023D01*
X54134922Y-31826005D01*
X54005341Y-31719659D01*
X53898995Y-31590078D01*
X53819977Y-31442244D01*
X53819126Y-31439437D01*
X53771314Y-31281825D01*
X53771314Y-31281824D01*
X53771313Y-31281821D01*
X53754883Y-31115000D01*
X53771313Y-30948179D01*
X53774287Y-30938375D01*
X53819975Y-30787761D01*
X53819976Y-30787759D01*
X53819977Y-30787756D01*
X53898995Y-30639922D01*
X54005341Y-30510341D01*
X54134922Y-30403995D01*
X54282756Y-30324977D01*
X54282759Y-30324976D01*
X54282761Y-30324975D01*
X54443175Y-30276314D01*
X54443176Y-30276314D01*
X54443179Y-30276313D01*
X54568196Y-30264000D01*
X54651804Y-30264000D01*
X54776821Y-30276313D01*
X54776821Y-30276313D01*
G37*
G36*
X117641821Y-30276313D02*
X117641824Y-30276314D01*
X117641825Y-30276314D01*
X117802239Y-30324975D01*
X117802241Y-30324976D01*
X117802244Y-30324977D01*
X117950078Y-30403995D01*
X118079659Y-30510341D01*
X118186005Y-30639922D01*
X118265023Y-30787756D01*
X118265024Y-30787759D01*
X118265025Y-30787761D01*
X118310713Y-30938375D01*
X118313687Y-30948179D01*
X118330117Y-31115000D01*
X118313687Y-31281821D01*
X118313686Y-31281824D01*
X118313686Y-31281825D01*
X118265875Y-31439437D01*
X118265023Y-31442244D01*
X118186005Y-31590078D01*
X118079659Y-31719659D01*
X117950078Y-31826005D01*
X117802244Y-31905023D01*
X117802241Y-31905024D01*
X117802239Y-31905025D01*
X117641825Y-31953686D01*
X117641824Y-31953686D01*
X117641821Y-31953687D01*
X117516804Y-31966000D01*
X117433196Y-31966000D01*
X117308179Y-31953687D01*
X117308176Y-31953686D01*
X117308175Y-31953686D01*
X117147761Y-31905025D01*
X117147759Y-31905024D01*
X117147756Y-31905023D01*
X116999922Y-31826005D01*
X116870341Y-31719659D01*
X116763995Y-31590078D01*
X116684977Y-31442244D01*
X116684126Y-31439437D01*
X116636314Y-31281825D01*
X116636314Y-31281824D01*
X116636313Y-31281821D01*
X116619883Y-31115000D01*
X116636313Y-30948179D01*
X116639287Y-30938375D01*
X116684975Y-30787761D01*
X116684976Y-30787759D01*
X116684977Y-30787756D01*
X116763995Y-30639922D01*
X116870341Y-30510341D01*
X116999922Y-30403995D01*
X117147756Y-30324977D01*
X117147759Y-30324976D01*
X117147761Y-30324975D01*
X117308175Y-30276314D01*
X117308176Y-30276314D01*
X117308179Y-30276313D01*
X117433196Y-30264000D01*
X117516804Y-30264000D01*
X117641821Y-30276313D01*
X117641821Y-30276313D01*
G37*
G36*
X103671821Y-30276313D02*
X103671824Y-30276314D01*
X103671825Y-30276314D01*
X103832239Y-30324975D01*
X103832241Y-30324976D01*
X103832244Y-30324977D01*
X103980078Y-30403995D01*
X104109659Y-30510341D01*
X104216005Y-30639922D01*
X104295023Y-30787756D01*
X104295024Y-30787759D01*
X104295025Y-30787761D01*
X104340713Y-30938375D01*
X104343687Y-30948179D01*
X104360117Y-31115000D01*
X104343687Y-31281821D01*
X104343686Y-31281824D01*
X104343686Y-31281825D01*
X104295875Y-31439437D01*
X104295023Y-31442244D01*
X104216005Y-31590078D01*
X104109659Y-31719659D01*
X103980078Y-31826005D01*
X103832244Y-31905023D01*
X103832241Y-31905024D01*
X103832239Y-31905025D01*
X103671825Y-31953686D01*
X103671824Y-31953686D01*
X103671821Y-31953687D01*
X103546804Y-31966000D01*
X103463196Y-31966000D01*
X103338179Y-31953687D01*
X103338176Y-31953686D01*
X103338175Y-31953686D01*
X103177761Y-31905025D01*
X103177759Y-31905024D01*
X103177756Y-31905023D01*
X103029922Y-31826005D01*
X102900341Y-31719659D01*
X102793995Y-31590078D01*
X102714977Y-31442244D01*
X102714126Y-31439437D01*
X102666314Y-31281825D01*
X102666314Y-31281824D01*
X102666313Y-31281821D01*
X102649883Y-31115000D01*
X102666313Y-30948179D01*
X102669287Y-30938375D01*
X102714975Y-30787761D01*
X102714976Y-30787759D01*
X102714977Y-30787756D01*
X102793995Y-30639922D01*
X102900341Y-30510341D01*
X103029922Y-30403995D01*
X103177756Y-30324977D01*
X103177759Y-30324976D01*
X103177761Y-30324975D01*
X103338175Y-30276314D01*
X103338176Y-30276314D01*
X103338179Y-30276313D01*
X103463196Y-30264000D01*
X103546804Y-30264000D01*
X103671821Y-30276313D01*
X103671821Y-30276313D01*
G37*
G36*
X96051821Y-30276313D02*
X96051824Y-30276314D01*
X96051825Y-30276314D01*
X96212239Y-30324975D01*
X96212241Y-30324976D01*
X96212244Y-30324977D01*
X96360078Y-30403995D01*
X96489659Y-30510341D01*
X96596005Y-30639922D01*
X96675023Y-30787756D01*
X96675024Y-30787759D01*
X96675025Y-30787761D01*
X96720713Y-30938375D01*
X96723687Y-30948179D01*
X96740117Y-31115000D01*
X96723687Y-31281821D01*
X96723686Y-31281824D01*
X96723686Y-31281825D01*
X96675875Y-31439437D01*
X96675023Y-31442244D01*
X96596005Y-31590078D01*
X96489659Y-31719659D01*
X96360078Y-31826005D01*
X96212244Y-31905023D01*
X96212241Y-31905024D01*
X96212239Y-31905025D01*
X96051825Y-31953686D01*
X96051824Y-31953686D01*
X96051821Y-31953687D01*
X95926804Y-31966000D01*
X95843196Y-31966000D01*
X95718179Y-31953687D01*
X95718176Y-31953686D01*
X95718175Y-31953686D01*
X95557761Y-31905025D01*
X95557759Y-31905024D01*
X95557756Y-31905023D01*
X95409922Y-31826005D01*
X95280341Y-31719659D01*
X95173995Y-31590078D01*
X95094977Y-31442244D01*
X95094126Y-31439437D01*
X95046314Y-31281825D01*
X95046314Y-31281824D01*
X95046313Y-31281821D01*
X95029883Y-31115000D01*
X95046313Y-30948179D01*
X95049287Y-30938375D01*
X95094975Y-30787761D01*
X95094976Y-30787759D01*
X95094977Y-30787756D01*
X95173995Y-30639922D01*
X95280341Y-30510341D01*
X95409922Y-30403995D01*
X95557756Y-30324977D01*
X95557759Y-30324976D01*
X95557761Y-30324975D01*
X95718175Y-30276314D01*
X95718176Y-30276314D01*
X95718179Y-30276313D01*
X95843196Y-30264000D01*
X95926804Y-30264000D01*
X96051821Y-30276313D01*
X96051821Y-30276313D01*
G37*
G36*
X62396821Y-30276313D02*
X62396824Y-30276314D01*
X62396825Y-30276314D01*
X62557239Y-30324975D01*
X62557241Y-30324976D01*
X62557244Y-30324977D01*
X62705078Y-30403995D01*
X62834659Y-30510341D01*
X62941005Y-30639922D01*
X63020023Y-30787756D01*
X63020024Y-30787759D01*
X63020025Y-30787761D01*
X63065713Y-30938375D01*
X63068687Y-30948179D01*
X63085117Y-31115000D01*
X63068687Y-31281821D01*
X63068686Y-31281824D01*
X63068686Y-31281825D01*
X63020875Y-31439437D01*
X63020023Y-31442244D01*
X62941005Y-31590078D01*
X62834659Y-31719659D01*
X62705078Y-31826005D01*
X62557244Y-31905023D01*
X62557241Y-31905024D01*
X62557239Y-31905025D01*
X62396825Y-31953686D01*
X62396824Y-31953686D01*
X62396821Y-31953687D01*
X62271804Y-31966000D01*
X62188196Y-31966000D01*
X62063179Y-31953687D01*
X62063176Y-31953686D01*
X62063175Y-31953686D01*
X61902761Y-31905025D01*
X61902759Y-31905024D01*
X61902756Y-31905023D01*
X61754922Y-31826005D01*
X61625341Y-31719659D01*
X61518995Y-31590078D01*
X61439977Y-31442244D01*
X61439126Y-31439437D01*
X61391314Y-31281825D01*
X61391314Y-31281824D01*
X61391313Y-31281821D01*
X61374883Y-31115000D01*
X61391313Y-30948179D01*
X61394287Y-30938375D01*
X61439975Y-30787761D01*
X61439976Y-30787759D01*
X61439977Y-30787756D01*
X61518995Y-30639922D01*
X61625341Y-30510341D01*
X61754922Y-30403995D01*
X61902756Y-30324977D01*
X61902759Y-30324976D01*
X61902761Y-30324975D01*
X62063175Y-30276314D01*
X62063176Y-30276314D01*
X62063179Y-30276313D01*
X62188196Y-30264000D01*
X62271804Y-30264000D01*
X62396821Y-30276313D01*
X62396821Y-30276313D01*
G37*
G36*
X124726000Y-29476000D02*
X122924000Y-29476000D01*
X122924000Y-27674000D01*
X124726000Y-27674000D01*
X124726000Y-29476000D01*
X124726000Y-29476000D01*
G37*
G36*
X103671821Y-27736313D02*
X103671824Y-27736314D01*
X103671825Y-27736314D01*
X103832239Y-27784975D01*
X103832241Y-27784976D01*
X103832244Y-27784977D01*
X103980078Y-27863995D01*
X104109659Y-27970341D01*
X104216005Y-28099922D01*
X104295023Y-28247756D01*
X104343687Y-28408179D01*
X104360117Y-28575000D01*
X104343687Y-28741821D01*
X104295023Y-28902244D01*
X104216005Y-29050078D01*
X104109659Y-29179659D01*
X103980078Y-29286005D01*
X103832244Y-29365023D01*
X103832241Y-29365024D01*
X103832239Y-29365025D01*
X103671825Y-29413686D01*
X103671824Y-29413686D01*
X103671821Y-29413687D01*
X103546804Y-29426000D01*
X103463196Y-29426000D01*
X103338179Y-29413687D01*
X103338176Y-29413686D01*
X103338175Y-29413686D01*
X103177761Y-29365025D01*
X103177759Y-29365024D01*
X103177756Y-29365023D01*
X103029922Y-29286005D01*
X102900341Y-29179659D01*
X102793995Y-29050078D01*
X102714977Y-28902244D01*
X102666313Y-28741821D01*
X102649883Y-28575000D01*
X102666313Y-28408179D01*
X102714977Y-28247756D01*
X102793995Y-28099922D01*
X102900341Y-27970341D01*
X103029922Y-27863995D01*
X103177756Y-27784977D01*
X103177759Y-27784976D01*
X103177761Y-27784975D01*
X103338175Y-27736314D01*
X103338176Y-27736314D01*
X103338179Y-27736313D01*
X103463196Y-27724000D01*
X103546804Y-27724000D01*
X103671821Y-27736313D01*
X103671821Y-27736313D01*
G37*
G36*
X62396821Y-27736313D02*
X62396824Y-27736314D01*
X62396825Y-27736314D01*
X62557239Y-27784975D01*
X62557241Y-27784976D01*
X62557244Y-27784977D01*
X62705078Y-27863995D01*
X62834659Y-27970341D01*
X62941005Y-28099922D01*
X63020023Y-28247756D01*
X63068687Y-28408179D01*
X63085117Y-28575000D01*
X63068687Y-28741821D01*
X63020023Y-28902244D01*
X62941005Y-29050078D01*
X62834659Y-29179659D01*
X62705078Y-29286005D01*
X62557244Y-29365023D01*
X62557241Y-29365024D01*
X62557239Y-29365025D01*
X62396825Y-29413686D01*
X62396824Y-29413686D01*
X62396821Y-29413687D01*
X62271804Y-29426000D01*
X62188196Y-29426000D01*
X62063179Y-29413687D01*
X62063176Y-29413686D01*
X62063175Y-29413686D01*
X61902761Y-29365025D01*
X61902759Y-29365024D01*
X61902756Y-29365023D01*
X61754922Y-29286005D01*
X61625341Y-29179659D01*
X61518995Y-29050078D01*
X61439977Y-28902244D01*
X61391313Y-28741821D01*
X61374883Y-28575000D01*
X61391313Y-28408179D01*
X61439977Y-28247756D01*
X61518995Y-28099922D01*
X61625341Y-27970341D01*
X61754922Y-27863995D01*
X61902756Y-27784977D01*
X61902759Y-27784976D01*
X61902761Y-27784975D01*
X62063175Y-27736314D01*
X62063176Y-27736314D01*
X62063179Y-27736313D01*
X62188196Y-27724000D01*
X62271804Y-27724000D01*
X62396821Y-27736313D01*
X62396821Y-27736313D01*
G37*
G36*
X69381821Y-27736313D02*
X69381824Y-27736314D01*
X69381825Y-27736314D01*
X69542239Y-27784975D01*
X69542241Y-27784976D01*
X69542244Y-27784977D01*
X69690078Y-27863995D01*
X69819659Y-27970341D01*
X69926005Y-28099922D01*
X70005023Y-28247756D01*
X70053687Y-28408179D01*
X70070117Y-28575000D01*
X70053687Y-28741821D01*
X70005023Y-28902244D01*
X69926005Y-29050078D01*
X69819659Y-29179659D01*
X69690078Y-29286005D01*
X69542244Y-29365023D01*
X69542241Y-29365024D01*
X69542239Y-29365025D01*
X69381825Y-29413686D01*
X69381824Y-29413686D01*
X69381821Y-29413687D01*
X69256804Y-29426000D01*
X69173196Y-29426000D01*
X69048179Y-29413687D01*
X69048176Y-29413686D01*
X69048175Y-29413686D01*
X68887761Y-29365025D01*
X68887759Y-29365024D01*
X68887756Y-29365023D01*
X68739922Y-29286005D01*
X68610341Y-29179659D01*
X68503995Y-29050078D01*
X68424977Y-28902244D01*
X68376313Y-28741821D01*
X68359883Y-28575000D01*
X68376313Y-28408179D01*
X68424977Y-28247756D01*
X68503995Y-28099922D01*
X68610341Y-27970341D01*
X68739922Y-27863995D01*
X68887756Y-27784977D01*
X68887759Y-27784976D01*
X68887761Y-27784975D01*
X69048175Y-27736314D01*
X69048176Y-27736314D01*
X69048179Y-27736313D01*
X69173196Y-27724000D01*
X69256804Y-27724000D01*
X69381821Y-27736313D01*
X69381821Y-27736313D01*
G37*
G36*
X74461821Y-27736313D02*
X74461824Y-27736314D01*
X74461825Y-27736314D01*
X74622239Y-27784975D01*
X74622241Y-27784976D01*
X74622244Y-27784977D01*
X74770078Y-27863995D01*
X74899659Y-27970341D01*
X75006005Y-28099922D01*
X75085023Y-28247756D01*
X75133687Y-28408179D01*
X75150117Y-28575000D01*
X75133687Y-28741821D01*
X75085023Y-28902244D01*
X75006005Y-29050078D01*
X74899659Y-29179659D01*
X74770078Y-29286005D01*
X74622244Y-29365023D01*
X74622241Y-29365024D01*
X74622239Y-29365025D01*
X74461825Y-29413686D01*
X74461824Y-29413686D01*
X74461821Y-29413687D01*
X74336804Y-29426000D01*
X74253196Y-29426000D01*
X74128179Y-29413687D01*
X74128176Y-29413686D01*
X74128175Y-29413686D01*
X73967761Y-29365025D01*
X73967759Y-29365024D01*
X73967756Y-29365023D01*
X73819922Y-29286005D01*
X73690341Y-29179659D01*
X73583995Y-29050078D01*
X73504977Y-28902244D01*
X73456313Y-28741821D01*
X73439883Y-28575000D01*
X73456313Y-28408179D01*
X73504977Y-28247756D01*
X73583995Y-28099922D01*
X73690341Y-27970341D01*
X73819922Y-27863995D01*
X73967756Y-27784977D01*
X73967759Y-27784976D01*
X73967761Y-27784975D01*
X74128175Y-27736314D01*
X74128176Y-27736314D01*
X74128179Y-27736313D01*
X74253196Y-27724000D01*
X74336804Y-27724000D01*
X74461821Y-27736313D01*
X74461821Y-27736313D01*
G37*
G36*
X77001821Y-27736313D02*
X77001824Y-27736314D01*
X77001825Y-27736314D01*
X77162239Y-27784975D01*
X77162241Y-27784976D01*
X77162244Y-27784977D01*
X77310078Y-27863995D01*
X77439659Y-27970341D01*
X77546005Y-28099922D01*
X77625023Y-28247756D01*
X77673687Y-28408179D01*
X77690117Y-28575000D01*
X77673687Y-28741821D01*
X77625023Y-28902244D01*
X77546005Y-29050078D01*
X77439659Y-29179659D01*
X77310078Y-29286005D01*
X77162244Y-29365023D01*
X77162241Y-29365024D01*
X77162239Y-29365025D01*
X77001825Y-29413686D01*
X77001824Y-29413686D01*
X77001821Y-29413687D01*
X76876804Y-29426000D01*
X76793196Y-29426000D01*
X76668179Y-29413687D01*
X76668176Y-29413686D01*
X76668175Y-29413686D01*
X76507761Y-29365025D01*
X76507759Y-29365024D01*
X76507756Y-29365023D01*
X76359922Y-29286005D01*
X76230341Y-29179659D01*
X76123995Y-29050078D01*
X76044977Y-28902244D01*
X75996313Y-28741821D01*
X75979883Y-28575000D01*
X75996313Y-28408179D01*
X76044977Y-28247756D01*
X76123995Y-28099922D01*
X76230341Y-27970341D01*
X76359922Y-27863995D01*
X76507756Y-27784977D01*
X76507759Y-27784976D01*
X76507761Y-27784975D01*
X76668175Y-27736314D01*
X76668176Y-27736314D01*
X76668179Y-27736313D01*
X76793196Y-27724000D01*
X76876804Y-27724000D01*
X77001821Y-27736313D01*
X77001821Y-27736313D01*
G37*
G36*
X79541821Y-27736313D02*
X79541824Y-27736314D01*
X79541825Y-27736314D01*
X79702239Y-27784975D01*
X79702241Y-27784976D01*
X79702244Y-27784977D01*
X79850078Y-27863995D01*
X79979659Y-27970341D01*
X80086005Y-28099922D01*
X80165023Y-28247756D01*
X80213687Y-28408179D01*
X80230117Y-28575000D01*
X80213687Y-28741821D01*
X80165023Y-28902244D01*
X80086005Y-29050078D01*
X79979659Y-29179659D01*
X79850078Y-29286005D01*
X79702244Y-29365023D01*
X79702241Y-29365024D01*
X79702239Y-29365025D01*
X79541825Y-29413686D01*
X79541824Y-29413686D01*
X79541821Y-29413687D01*
X79416804Y-29426000D01*
X79333196Y-29426000D01*
X79208179Y-29413687D01*
X79208176Y-29413686D01*
X79208175Y-29413686D01*
X79047761Y-29365025D01*
X79047759Y-29365024D01*
X79047756Y-29365023D01*
X78899922Y-29286005D01*
X78770341Y-29179659D01*
X78663995Y-29050078D01*
X78584977Y-28902244D01*
X78536313Y-28741821D01*
X78519883Y-28575000D01*
X78536313Y-28408179D01*
X78584977Y-28247756D01*
X78663995Y-28099922D01*
X78770341Y-27970341D01*
X78899922Y-27863995D01*
X79047756Y-27784977D01*
X79047759Y-27784976D01*
X79047761Y-27784975D01*
X79208175Y-27736314D01*
X79208176Y-27736314D01*
X79208179Y-27736313D01*
X79333196Y-27724000D01*
X79416804Y-27724000D01*
X79541821Y-27736313D01*
X79541821Y-27736313D01*
G37*
G36*
X82081821Y-27736313D02*
X82081824Y-27736314D01*
X82081825Y-27736314D01*
X82242239Y-27784975D01*
X82242241Y-27784976D01*
X82242244Y-27784977D01*
X82390078Y-27863995D01*
X82519659Y-27970341D01*
X82626005Y-28099922D01*
X82705023Y-28247756D01*
X82753687Y-28408179D01*
X82770117Y-28575000D01*
X82753687Y-28741821D01*
X82705023Y-28902244D01*
X82626005Y-29050078D01*
X82519659Y-29179659D01*
X82390078Y-29286005D01*
X82242244Y-29365023D01*
X82242241Y-29365024D01*
X82242239Y-29365025D01*
X82081825Y-29413686D01*
X82081824Y-29413686D01*
X82081821Y-29413687D01*
X81956804Y-29426000D01*
X81873196Y-29426000D01*
X81748179Y-29413687D01*
X81748176Y-29413686D01*
X81748175Y-29413686D01*
X81587761Y-29365025D01*
X81587759Y-29365024D01*
X81587756Y-29365023D01*
X81439922Y-29286005D01*
X81310341Y-29179659D01*
X81203995Y-29050078D01*
X81124977Y-28902244D01*
X81076313Y-28741821D01*
X81059883Y-28575000D01*
X81076313Y-28408179D01*
X81124977Y-28247756D01*
X81203995Y-28099922D01*
X81310341Y-27970341D01*
X81439922Y-27863995D01*
X81587756Y-27784977D01*
X81587759Y-27784976D01*
X81587761Y-27784975D01*
X81748175Y-27736314D01*
X81748176Y-27736314D01*
X81748179Y-27736313D01*
X81873196Y-27724000D01*
X81956804Y-27724000D01*
X82081821Y-27736313D01*
X82081821Y-27736313D01*
G37*
G36*
X84621821Y-27736313D02*
X84621824Y-27736314D01*
X84621825Y-27736314D01*
X84782239Y-27784975D01*
X84782241Y-27784976D01*
X84782244Y-27784977D01*
X84930078Y-27863995D01*
X85059659Y-27970341D01*
X85166005Y-28099922D01*
X85245023Y-28247756D01*
X85293687Y-28408179D01*
X85310117Y-28575000D01*
X85293687Y-28741821D01*
X85245023Y-28902244D01*
X85166005Y-29050078D01*
X85059659Y-29179659D01*
X84930078Y-29286005D01*
X84782244Y-29365023D01*
X84782241Y-29365024D01*
X84782239Y-29365025D01*
X84621825Y-29413686D01*
X84621824Y-29413686D01*
X84621821Y-29413687D01*
X84496804Y-29426000D01*
X84413196Y-29426000D01*
X84288179Y-29413687D01*
X84288176Y-29413686D01*
X84288175Y-29413686D01*
X84127761Y-29365025D01*
X84127759Y-29365024D01*
X84127756Y-29365023D01*
X83979922Y-29286005D01*
X83850341Y-29179659D01*
X83743995Y-29050078D01*
X83664977Y-28902244D01*
X83616313Y-28741821D01*
X83599883Y-28575000D01*
X83616313Y-28408179D01*
X83664977Y-28247756D01*
X83743995Y-28099922D01*
X83850341Y-27970341D01*
X83979922Y-27863995D01*
X84127756Y-27784977D01*
X84127759Y-27784976D01*
X84127761Y-27784975D01*
X84288175Y-27736314D01*
X84288176Y-27736314D01*
X84288179Y-27736313D01*
X84413196Y-27724000D01*
X84496804Y-27724000D01*
X84621821Y-27736313D01*
X84621821Y-27736313D01*
G37*
G36*
X87161821Y-27736313D02*
X87161824Y-27736314D01*
X87161825Y-27736314D01*
X87322239Y-27784975D01*
X87322241Y-27784976D01*
X87322244Y-27784977D01*
X87470078Y-27863995D01*
X87599659Y-27970341D01*
X87706005Y-28099922D01*
X87785023Y-28247756D01*
X87833687Y-28408179D01*
X87850117Y-28575000D01*
X87833687Y-28741821D01*
X87785023Y-28902244D01*
X87706005Y-29050078D01*
X87599659Y-29179659D01*
X87470078Y-29286005D01*
X87322244Y-29365023D01*
X87322241Y-29365024D01*
X87322239Y-29365025D01*
X87161825Y-29413686D01*
X87161824Y-29413686D01*
X87161821Y-29413687D01*
X87036804Y-29426000D01*
X86953196Y-29426000D01*
X86828179Y-29413687D01*
X86828176Y-29413686D01*
X86828175Y-29413686D01*
X86667761Y-29365025D01*
X86667759Y-29365024D01*
X86667756Y-29365023D01*
X86519922Y-29286005D01*
X86390341Y-29179659D01*
X86283995Y-29050078D01*
X86204977Y-28902244D01*
X86156313Y-28741821D01*
X86139883Y-28575000D01*
X86156313Y-28408179D01*
X86204977Y-28247756D01*
X86283995Y-28099922D01*
X86390341Y-27970341D01*
X86519922Y-27863995D01*
X86667756Y-27784977D01*
X86667759Y-27784976D01*
X86667761Y-27784975D01*
X86828175Y-27736314D01*
X86828176Y-27736314D01*
X86828179Y-27736313D01*
X86953196Y-27724000D01*
X87036804Y-27724000D01*
X87161821Y-27736313D01*
X87161821Y-27736313D01*
G37*
G36*
X110706000Y-29426000D02*
X109004000Y-29426000D01*
X109004000Y-27724000D01*
X110706000Y-27724000D01*
X110706000Y-29426000D01*
X110706000Y-29426000D01*
G37*
G36*
X71921821Y-27736313D02*
X71921824Y-27736314D01*
X71921825Y-27736314D01*
X72082239Y-27784975D01*
X72082241Y-27784976D01*
X72082244Y-27784977D01*
X72230078Y-27863995D01*
X72359659Y-27970341D01*
X72466005Y-28099922D01*
X72545023Y-28247756D01*
X72593687Y-28408179D01*
X72610117Y-28575000D01*
X72593687Y-28741821D01*
X72545023Y-28902244D01*
X72466005Y-29050078D01*
X72359659Y-29179659D01*
X72230078Y-29286005D01*
X72082244Y-29365023D01*
X72082241Y-29365024D01*
X72082239Y-29365025D01*
X71921825Y-29413686D01*
X71921824Y-29413686D01*
X71921821Y-29413687D01*
X71796804Y-29426000D01*
X71713196Y-29426000D01*
X71588179Y-29413687D01*
X71588176Y-29413686D01*
X71588175Y-29413686D01*
X71427761Y-29365025D01*
X71427759Y-29365024D01*
X71427756Y-29365023D01*
X71279922Y-29286005D01*
X71150341Y-29179659D01*
X71043995Y-29050078D01*
X70964977Y-28902244D01*
X70916313Y-28741821D01*
X70899883Y-28575000D01*
X70916313Y-28408179D01*
X70964977Y-28247756D01*
X71043995Y-28099922D01*
X71150341Y-27970341D01*
X71279922Y-27863995D01*
X71427756Y-27784977D01*
X71427759Y-27784976D01*
X71427761Y-27784975D01*
X71588175Y-27736314D01*
X71588176Y-27736314D01*
X71588179Y-27736313D01*
X71713196Y-27724000D01*
X71796804Y-27724000D01*
X71921821Y-27736313D01*
X71921821Y-27736313D01*
G37*
G36*
X96736000Y-29426000D02*
X95034000Y-29426000D01*
X95034000Y-27724000D01*
X96736000Y-27724000D01*
X96736000Y-29426000D01*
X96736000Y-29426000D01*
G37*
G36*
X117641821Y-27736313D02*
X117641824Y-27736314D01*
X117641825Y-27736314D01*
X117802239Y-27784975D01*
X117802241Y-27784976D01*
X117802244Y-27784977D01*
X117950078Y-27863995D01*
X118079659Y-27970341D01*
X118186005Y-28099922D01*
X118265023Y-28247756D01*
X118313687Y-28408179D01*
X118330117Y-28575000D01*
X118313687Y-28741821D01*
X118265023Y-28902244D01*
X118186005Y-29050078D01*
X118079659Y-29179659D01*
X117950078Y-29286005D01*
X117802244Y-29365023D01*
X117802241Y-29365024D01*
X117802239Y-29365025D01*
X117641825Y-29413686D01*
X117641824Y-29413686D01*
X117641821Y-29413687D01*
X117516804Y-29426000D01*
X117433196Y-29426000D01*
X117308179Y-29413687D01*
X117308176Y-29413686D01*
X117308175Y-29413686D01*
X117147761Y-29365025D01*
X117147759Y-29365024D01*
X117147756Y-29365023D01*
X116999922Y-29286005D01*
X116870341Y-29179659D01*
X116763995Y-29050078D01*
X116684977Y-28902244D01*
X116636313Y-28741821D01*
X116619883Y-28575000D01*
X116636313Y-28408179D01*
X116684977Y-28247756D01*
X116763995Y-28099922D01*
X116870341Y-27970341D01*
X116999922Y-27863995D01*
X117147756Y-27784977D01*
X117147759Y-27784976D01*
X117147761Y-27784975D01*
X117308175Y-27736314D01*
X117308176Y-27736314D01*
X117308179Y-27736313D01*
X117433196Y-27724000D01*
X117516804Y-27724000D01*
X117641821Y-27736313D01*
X117641821Y-27736313D01*
G37*
G36*
X55461000Y-29426000D02*
X53759000Y-29426000D01*
X53759000Y-27724000D01*
X55461000Y-27724000D01*
X55461000Y-29426000D01*
X55461000Y-29426000D01*
G37*
G36*
X90386000Y-29426000D02*
X88684000Y-29426000D01*
X88684000Y-27724000D01*
X90386000Y-27724000D01*
X90386000Y-29426000D01*
X90386000Y-29426000D01*
G37*
M02*
