M48
;DRILL file {KiCad 5.0.2+dfsg1-1} date ma 29 jul 2019 21:32:44 CEST
;FORMAT={-:-/ absolute / inch / decimal}
FMAT,2
INCH,TZ
T1C0.0157
T2C0.0315
T3C0.0360
T4C0.0394
%
G90
G05
T1
X2.045Y-1.885
X2.16Y-1.885
X2.75Y-2.45
X2.8Y-2.6
X3.2052Y-1.8372
X3.375Y-1.925
X3.725Y-2.1
T2
X2.15Y-1.125
X2.15Y-1.225
X2.15Y-1.325
X2.15Y-1.425
X2.15Y-1.525
X2.15Y-1.625
X2.15Y-1.725
X2.45Y-1.125
X2.45Y-1.225
X2.45Y-1.325
X2.45Y-1.425
X2.45Y-1.525
X2.45Y-1.625
X2.45Y-1.725
X3.25Y-1.925
X3.25Y-2.025
X3.25Y-2.125
X3.25Y-2.225
X3.25Y-2.325
X3.25Y-2.425
X3.25Y-2.525
X3.25Y-2.625
X3.55Y-1.925
X3.55Y-2.025
X3.55Y-2.125
X3.55Y-2.225
X3.55Y-2.325
X3.55Y-2.425
X3.55Y-2.525
X3.55Y-2.625
X2.75Y-1.125
X2.85Y-1.125
X2.95Y-1.125
X3.05Y-1.125
X3.15Y-1.125
X3.25Y-1.125
X3.35Y-1.125
X3.45Y-1.125
X3.55Y-1.125
X2.625Y-1.925
X2.625Y-2.025
X2.625Y-2.125
X2.625Y-2.225
X2.625Y-2.325
X2.625Y-2.425
X2.625Y-2.525
X2.625Y-2.625
X2.925Y-1.925
X2.925Y-2.025
X2.925Y-2.125
X2.925Y-2.225
X2.925Y-2.325
X2.925Y-2.425
X2.925Y-2.525
X2.925Y-2.625
T3
X2.65Y-1.275
X2.65Y-1.575
X2.75Y-1.275
X2.75Y-1.575
X2.85Y-1.275
X2.85Y-1.575
X2.95Y-1.275
X2.95Y-1.575
X3.05Y-1.275
X3.05Y-1.575
X3.15Y-1.275
X3.15Y-1.575
X3.25Y-1.275
X3.25Y-1.575
X3.35Y-1.275
X3.35Y-1.575
X3.45Y-1.275
X3.45Y-1.575
X3.55Y-1.275
X3.55Y-1.575
T4
X2.15Y-2.125
X2.15Y-2.225
X2.15Y-2.325
X2.15Y-2.425
X2.15Y-2.525
X2.15Y-2.625
X3.85Y-1.125
X3.85Y-1.225
X3.85Y-1.325
X3.85Y-1.425
X3.85Y-1.525
X3.85Y-1.625
X3.85Y-1.725
X3.85Y-1.825
X3.85Y-1.925
X3.85Y-2.025
X3.85Y-2.125
X3.85Y-2.225
X3.85Y-2.325
X3.85Y-2.425
X3.85Y-2.525
X3.85Y-2.625
T0
M30
