G04 #@! TF.GenerationSoftware,KiCad,Pcbnew,5.0.2+dfsg1-1*
G04 #@! TF.CreationDate,2019-08-03T19:47:52+02:00*
G04 #@! TF.ProjectId,Stack-Pointer,53746163-6b2d-4506-9f69-6e7465722e6b,rev?*
G04 #@! TF.SameCoordinates,Original*
G04 #@! TF.FileFunction,Copper,L1,Top*
G04 #@! TF.FilePolarity,Positive*
%FSLAX46Y46*%
G04 Gerber Fmt 4.6, Leading zero omitted, Abs format (unit mm)*
G04 Created by KiCad (PCBNEW 5.0.2+dfsg1-1) date za 03 aug 2019 19:47:52 CEST*
%MOMM*%
%LPD*%
G01*
G04 APERTURE LIST*
G04 #@! TA.AperFunction,ComponentPad*
%ADD10R,1.700000X1.700000*%
G04 #@! TD*
G04 #@! TA.AperFunction,ComponentPad*
%ADD11O,1.700000X1.700000*%
G04 #@! TD*
G04 #@! TA.AperFunction,ComponentPad*
%ADD12O,1.600000X1.600000*%
G04 #@! TD*
G04 #@! TA.AperFunction,ComponentPad*
%ADD13R,1.600000X1.600000*%
G04 #@! TD*
G04 #@! TA.AperFunction,ComponentPad*
%ADD14R,2.032000X2.032000*%
G04 #@! TD*
G04 #@! TA.AperFunction,ComponentPad*
%ADD15C,2.032000*%
G04 #@! TD*
G04 #@! TA.AperFunction,Conductor*
%ADD16C,0.350000*%
G04 #@! TD*
G04 #@! TA.AperFunction,Conductor*
%ADD17C,0.250000*%
G04 #@! TD*
G04 APERTURE END LIST*
D10*
G04 #@! TO.P,J1,1*
G04 #@! TO.N,GND*
X54610000Y-51435000D03*
D11*
G04 #@! TO.P,J1,2*
G04 #@! TO.N,+5V*
X54610000Y-53975000D03*
G04 #@! TO.P,J1,3*
G04 #@! TO.N,CLOCK*
X54610000Y-56515000D03*
G04 #@! TO.P,J1,4*
G04 #@! TO.N,STK_INC*
X54610000Y-59055000D03*
G04 #@! TO.P,J1,5*
G04 #@! TO.N,STK_DEC*
X54610000Y-61595000D03*
G04 #@! TO.P,J1,6*
G04 #@! TO.N,~STK_RESET*
X54610000Y-64135000D03*
G04 #@! TO.P,J1,7*
G04 #@! TO.N,~STK_OUT*
X54610000Y-66675000D03*
G04 #@! TD*
D12*
G04 #@! TO.P,U5,20*
G04 #@! TO.N,+5V*
X117475000Y-28575000D03*
G04 #@! TO.P,U5,10*
G04 #@! TO.N,GND*
X109855000Y-51435000D03*
G04 #@! TO.P,U5,19*
G04 #@! TO.N,~STK_OUT*
X117475000Y-31115000D03*
G04 #@! TO.P,U5,9*
G04 #@! TO.N,+5V*
X109855000Y-48895000D03*
G04 #@! TO.P,U5,18*
G04 #@! TO.N,Net-(J2-Pad9)*
X117475000Y-33655000D03*
G04 #@! TO.P,U5,8*
G04 #@! TO.N,+5V*
X109855000Y-46355000D03*
G04 #@! TO.P,U5,17*
G04 #@! TO.N,Net-(J2-Pad10)*
X117475000Y-36195000D03*
G04 #@! TO.P,U5,7*
G04 #@! TO.N,+5V*
X109855000Y-43815000D03*
G04 #@! TO.P,U5,16*
G04 #@! TO.N,Net-(J2-Pad11)*
X117475000Y-38735000D03*
G04 #@! TO.P,U5,6*
G04 #@! TO.N,+5V*
X109855000Y-41275000D03*
G04 #@! TO.P,U5,15*
G04 #@! TO.N,Net-(J2-Pad12)*
X117475000Y-41275000D03*
G04 #@! TO.P,U5,5*
G04 #@! TO.N,+5V*
X109855000Y-38735000D03*
G04 #@! TO.P,U5,14*
G04 #@! TO.N,Net-(J2-Pad13)*
X117475000Y-43815000D03*
G04 #@! TO.P,U5,4*
G04 #@! TO.N,+5V*
X109855000Y-36195000D03*
G04 #@! TO.P,U5,13*
G04 #@! TO.N,Net-(J2-Pad14)*
X117475000Y-46355000D03*
G04 #@! TO.P,U5,3*
G04 #@! TO.N,+5V*
X109855000Y-33655000D03*
G04 #@! TO.P,U5,12*
G04 #@! TO.N,Net-(J2-Pad15)*
X117475000Y-48895000D03*
G04 #@! TO.P,U5,2*
G04 #@! TO.N,+5V*
X109855000Y-31115000D03*
G04 #@! TO.P,U5,11*
G04 #@! TO.N,Net-(J2-Pad16)*
X117475000Y-51435000D03*
D13*
G04 #@! TO.P,U5,1*
G04 #@! TO.N,+5V*
X109855000Y-28575000D03*
G04 #@! TD*
G04 #@! TO.P,U4,1*
G04 #@! TO.N,+5V*
X95885000Y-28575000D03*
D12*
G04 #@! TO.P,U4,11*
G04 #@! TO.N,Net-(J2-Pad8)*
X103505000Y-51435000D03*
G04 #@! TO.P,U4,2*
G04 #@! TO.N,Net-(BAR1-Pad9)*
X95885000Y-31115000D03*
G04 #@! TO.P,U4,12*
G04 #@! TO.N,Net-(J2-Pad7)*
X103505000Y-48895000D03*
G04 #@! TO.P,U4,3*
G04 #@! TO.N,Net-(BAR1-Pad8)*
X95885000Y-33655000D03*
G04 #@! TO.P,U4,13*
G04 #@! TO.N,Net-(J2-Pad6)*
X103505000Y-46355000D03*
G04 #@! TO.P,U4,4*
G04 #@! TO.N,Net-(BAR1-Pad7)*
X95885000Y-36195000D03*
G04 #@! TO.P,U4,14*
G04 #@! TO.N,Net-(J2-Pad5)*
X103505000Y-43815000D03*
G04 #@! TO.P,U4,5*
G04 #@! TO.N,Net-(BAR1-Pad6)*
X95885000Y-38735000D03*
G04 #@! TO.P,U4,15*
G04 #@! TO.N,Net-(J2-Pad4)*
X103505000Y-41275000D03*
G04 #@! TO.P,U4,6*
G04 #@! TO.N,Net-(BAR1-Pad5)*
X95885000Y-41275000D03*
G04 #@! TO.P,U4,16*
G04 #@! TO.N,Net-(J2-Pad3)*
X103505000Y-38735000D03*
G04 #@! TO.P,U4,7*
G04 #@! TO.N,Net-(BAR1-Pad4)*
X95885000Y-43815000D03*
G04 #@! TO.P,U4,17*
G04 #@! TO.N,Net-(J2-Pad2)*
X103505000Y-36195000D03*
G04 #@! TO.P,U4,8*
G04 #@! TO.N,Net-(BAR1-Pad3)*
X95885000Y-46355000D03*
G04 #@! TO.P,U4,18*
G04 #@! TO.N,Net-(J2-Pad1)*
X103505000Y-33655000D03*
G04 #@! TO.P,U4,9*
G04 #@! TO.N,Net-(BAR1-Pad2)*
X95885000Y-48895000D03*
G04 #@! TO.P,U4,19*
G04 #@! TO.N,~STK_OUT*
X103505000Y-31115000D03*
G04 #@! TO.P,U4,10*
G04 #@! TO.N,GND*
X95885000Y-51435000D03*
G04 #@! TO.P,U4,20*
G04 #@! TO.N,+5V*
X103505000Y-28575000D03*
G04 #@! TD*
D10*
G04 #@! TO.P,J2,1*
G04 #@! TO.N,Net-(J2-Pad1)*
X123190000Y-28575000D03*
D11*
G04 #@! TO.P,J2,2*
G04 #@! TO.N,Net-(J2-Pad2)*
X123190000Y-31115000D03*
G04 #@! TO.P,J2,3*
G04 #@! TO.N,Net-(J2-Pad3)*
X123190000Y-33655000D03*
G04 #@! TO.P,J2,4*
G04 #@! TO.N,Net-(J2-Pad4)*
X123190000Y-36195000D03*
G04 #@! TO.P,J2,5*
G04 #@! TO.N,Net-(J2-Pad5)*
X123190000Y-38735000D03*
G04 #@! TO.P,J2,6*
G04 #@! TO.N,Net-(J2-Pad6)*
X123190000Y-41275000D03*
G04 #@! TO.P,J2,7*
G04 #@! TO.N,Net-(J2-Pad7)*
X123190000Y-43815000D03*
G04 #@! TO.P,J2,8*
G04 #@! TO.N,Net-(J2-Pad8)*
X123190000Y-46355000D03*
G04 #@! TO.P,J2,9*
G04 #@! TO.N,Net-(J2-Pad9)*
X123190000Y-48895000D03*
G04 #@! TO.P,J2,10*
G04 #@! TO.N,Net-(J2-Pad10)*
X123190000Y-51435000D03*
G04 #@! TO.P,J2,11*
G04 #@! TO.N,Net-(J2-Pad11)*
X123190000Y-53975000D03*
G04 #@! TO.P,J2,12*
G04 #@! TO.N,Net-(J2-Pad12)*
X123190000Y-56515000D03*
G04 #@! TO.P,J2,13*
G04 #@! TO.N,Net-(J2-Pad13)*
X123190000Y-59055000D03*
G04 #@! TO.P,J2,14*
G04 #@! TO.N,Net-(J2-Pad14)*
X123190000Y-61595000D03*
G04 #@! TO.P,J2,15*
G04 #@! TO.N,Net-(J2-Pad15)*
X123190000Y-64135000D03*
G04 #@! TO.P,J2,16*
G04 #@! TO.N,Net-(J2-Pad16)*
X123190000Y-66675000D03*
G04 #@! TD*
D14*
G04 #@! TO.P,BAR1,1*
G04 #@! TO.N,Net-(BAR1-Pad1)*
X66675000Y-40005000D03*
D15*
G04 #@! TO.P,BAR1,2*
G04 #@! TO.N,Net-(BAR1-Pad2)*
X69215000Y-40005000D03*
G04 #@! TO.P,BAR1,3*
G04 #@! TO.N,Net-(BAR1-Pad3)*
X71755000Y-40005000D03*
G04 #@! TO.P,BAR1,4*
G04 #@! TO.N,Net-(BAR1-Pad4)*
X74295000Y-40005000D03*
G04 #@! TO.P,BAR1,13*
G04 #@! TO.N,Net-(BAR1-Pad13)*
X84455000Y-32385000D03*
G04 #@! TO.P,BAR1,14*
G04 #@! TO.N,Net-(BAR1-Pad14)*
X81915000Y-32385000D03*
G04 #@! TO.P,BAR1,15*
G04 #@! TO.N,Net-(BAR1-Pad15)*
X79375000Y-32385000D03*
G04 #@! TO.P,BAR1,16*
G04 #@! TO.N,Net-(BAR1-Pad16)*
X76835000Y-32385000D03*
G04 #@! TO.P,BAR1,5*
G04 #@! TO.N,Net-(BAR1-Pad5)*
X76835000Y-40005000D03*
G04 #@! TO.P,BAR1,6*
G04 #@! TO.N,Net-(BAR1-Pad6)*
X79375000Y-40005000D03*
G04 #@! TO.P,BAR1,7*
G04 #@! TO.N,Net-(BAR1-Pad7)*
X81915000Y-40005000D03*
G04 #@! TO.P,BAR1,8*
G04 #@! TO.N,Net-(BAR1-Pad8)*
X84455000Y-40005000D03*
G04 #@! TO.P,BAR1,12*
G04 #@! TO.N,Net-(BAR1-Pad12)*
X86995000Y-32385000D03*
G04 #@! TO.P,BAR1,11*
G04 #@! TO.N,Net-(BAR1-Pad11)*
X89535000Y-32385000D03*
G04 #@! TO.P,BAR1,10*
G04 #@! TO.N,Net-(BAR1-Pad10)*
X89535000Y-40005000D03*
G04 #@! TO.P,BAR1,9*
G04 #@! TO.N,Net-(BAR1-Pad9)*
X86995000Y-40005000D03*
G04 #@! TO.P,BAR1,17*
G04 #@! TO.N,Net-(BAR1-Pad17)*
X74295000Y-32385000D03*
G04 #@! TO.P,BAR1,18*
G04 #@! TO.N,Net-(BAR1-Pad18)*
X71755000Y-32385000D03*
G04 #@! TO.P,BAR1,19*
G04 #@! TO.N,Net-(BAR1-Pad19)*
X69215000Y-32385000D03*
G04 #@! TO.P,BAR1,20*
G04 #@! TO.N,Net-(BAR1-Pad20)*
X66675000Y-32385000D03*
G04 #@! TD*
D13*
G04 #@! TO.P,U1,1*
G04 #@! TO.N,DOWN_~UP*
X54610000Y-28575000D03*
D12*
G04 #@! TO.P,U1,8*
G04 #@! TO.N,STK_INC*
X62230000Y-43815000D03*
G04 #@! TO.P,U1,2*
X54610000Y-31115000D03*
G04 #@! TO.P,U1,9*
G04 #@! TO.N,STK_DEC*
X62230000Y-41275000D03*
G04 #@! TO.P,U1,3*
G04 #@! TO.N,Net-(U1-Pad3)*
X54610000Y-33655000D03*
G04 #@! TO.P,U1,10*
G04 #@! TO.N,~CLK_EN*
X62230000Y-38735000D03*
G04 #@! TO.P,U1,4*
G04 #@! TO.N,Net-(U1-Pad3)*
X54610000Y-36195000D03*
G04 #@! TO.P,U1,11*
G04 #@! TO.N,N/C*
X62230000Y-36195000D03*
G04 #@! TO.P,U1,5*
G04 #@! TO.N,DOWN_~UP*
X54610000Y-38735000D03*
G04 #@! TO.P,U1,12*
G04 #@! TO.N,N/C*
X62230000Y-33655000D03*
G04 #@! TO.P,U1,6*
G04 #@! TO.N,STK_DEC*
X54610000Y-41275000D03*
G04 #@! TO.P,U1,13*
G04 #@! TO.N,N/C*
X62230000Y-31115000D03*
G04 #@! TO.P,U1,7*
G04 #@! TO.N,GND*
X54610000Y-43815000D03*
G04 #@! TO.P,U1,14*
G04 #@! TO.N,+5V*
X62230000Y-28575000D03*
G04 #@! TD*
G04 #@! TO.P,U3,16*
G04 #@! TO.N,+5V*
X88900000Y-48895000D03*
G04 #@! TO.P,U3,8*
G04 #@! TO.N,GND*
X81280000Y-66675000D03*
G04 #@! TO.P,U3,15*
X88900000Y-51435000D03*
G04 #@! TO.P,U3,7*
G04 #@! TO.N,Net-(BAR1-Pad2)*
X81280000Y-64135000D03*
G04 #@! TO.P,U3,14*
G04 #@! TO.N,Net-(U2-Pad13)*
X88900000Y-53975000D03*
G04 #@! TO.P,U3,6*
G04 #@! TO.N,Net-(BAR1-Pad3)*
X81280000Y-61595000D03*
G04 #@! TO.P,U3,13*
G04 #@! TO.N,Net-(U3-Pad13)*
X88900000Y-56515000D03*
G04 #@! TO.P,U3,5*
G04 #@! TO.N,DOWN_~UP*
X81280000Y-59055000D03*
G04 #@! TO.P,U3,12*
G04 #@! TO.N,Net-(U3-Pad12)*
X88900000Y-59055000D03*
G04 #@! TO.P,U3,4*
G04 #@! TO.N,~CLK_EN*
X81280000Y-56515000D03*
G04 #@! TO.P,U3,11*
G04 #@! TO.N,~STK_RESET*
X88900000Y-61595000D03*
G04 #@! TO.P,U3,3*
G04 #@! TO.N,Net-(BAR1-Pad5)*
X81280000Y-53975000D03*
G04 #@! TO.P,U3,10*
G04 #@! TO.N,GND*
X88900000Y-64135000D03*
G04 #@! TO.P,U3,2*
G04 #@! TO.N,Net-(BAR1-Pad4)*
X81280000Y-51435000D03*
G04 #@! TO.P,U3,9*
G04 #@! TO.N,GND*
X88900000Y-66675000D03*
D13*
G04 #@! TO.P,U3,1*
X81280000Y-48895000D03*
G04 #@! TD*
G04 #@! TO.P,U2,1*
G04 #@! TO.N,GND*
X66675000Y-48895000D03*
D12*
G04 #@! TO.P,U2,9*
X74295000Y-66675000D03*
G04 #@! TO.P,U2,2*
G04 #@! TO.N,Net-(BAR1-Pad8)*
X66675000Y-51435000D03*
G04 #@! TO.P,U2,10*
G04 #@! TO.N,GND*
X74295000Y-64135000D03*
G04 #@! TO.P,U2,3*
G04 #@! TO.N,Net-(BAR1-Pad9)*
X66675000Y-53975000D03*
G04 #@! TO.P,U2,11*
G04 #@! TO.N,~STK_RESET*
X74295000Y-61595000D03*
G04 #@! TO.P,U2,4*
G04 #@! TO.N,~CLK_EN*
X66675000Y-56515000D03*
G04 #@! TO.P,U2,12*
G04 #@! TO.N,Net-(U2-Pad12)*
X74295000Y-59055000D03*
G04 #@! TO.P,U2,5*
G04 #@! TO.N,DOWN_~UP*
X66675000Y-59055000D03*
G04 #@! TO.P,U2,13*
G04 #@! TO.N,Net-(U2-Pad13)*
X74295000Y-56515000D03*
G04 #@! TO.P,U2,6*
G04 #@! TO.N,Net-(BAR1-Pad7)*
X66675000Y-61595000D03*
G04 #@! TO.P,U2,14*
G04 #@! TO.N,CLOCK*
X74295000Y-53975000D03*
G04 #@! TO.P,U2,7*
G04 #@! TO.N,Net-(BAR1-Pad6)*
X66675000Y-64135000D03*
G04 #@! TO.P,U2,15*
G04 #@! TO.N,GND*
X74295000Y-51435000D03*
G04 #@! TO.P,U2,8*
X66675000Y-66675000D03*
G04 #@! TO.P,U2,16*
G04 #@! TO.N,+5V*
X74295000Y-48895000D03*
G04 #@! TD*
D13*
G04 #@! TO.P,RN1,1*
G04 #@! TO.N,GND*
X89535000Y-28575000D03*
D12*
G04 #@! TO.P,RN1,2*
G04 #@! TO.N,Net-(BAR1-Pad12)*
X86995000Y-28575000D03*
G04 #@! TO.P,RN1,3*
G04 #@! TO.N,Net-(BAR1-Pad13)*
X84455000Y-28575000D03*
G04 #@! TO.P,RN1,4*
G04 #@! TO.N,Net-(BAR1-Pad14)*
X81915000Y-28575000D03*
G04 #@! TO.P,RN1,5*
G04 #@! TO.N,Net-(BAR1-Pad15)*
X79375000Y-28575000D03*
G04 #@! TO.P,RN1,6*
G04 #@! TO.N,Net-(BAR1-Pad16)*
X76835000Y-28575000D03*
G04 #@! TO.P,RN1,7*
G04 #@! TO.N,Net-(BAR1-Pad17)*
X74295000Y-28575000D03*
G04 #@! TO.P,RN1,8*
G04 #@! TO.N,Net-(BAR1-Pad18)*
X71755000Y-28575000D03*
G04 #@! TO.P,RN1,9*
G04 #@! TO.N,Net-(BAR1-Pad19)*
X69215000Y-28575000D03*
G04 #@! TD*
D16*
G04 #@! TO.N,GND*
X88900000Y-66675000D02*
X81280000Y-66675000D01*
X81280000Y-48895000D02*
X77130300Y-48895000D01*
X77130300Y-48895000D02*
X75927600Y-47692300D01*
X75927600Y-47692300D02*
X73835300Y-47692300D01*
X73835300Y-47692300D02*
X73119600Y-48408000D01*
X73119600Y-48408000D02*
X73119600Y-48895000D01*
X73119600Y-48895000D02*
X67850300Y-48895000D01*
X66675000Y-48895000D02*
X67850300Y-48895000D01*
X90103800Y-51435000D02*
X95885000Y-51435000D01*
X88900000Y-51435000D02*
X90103800Y-51435000D01*
X58375300Y-48895000D02*
X55835300Y-51435000D01*
X66675000Y-48895000D02*
X58375300Y-48895000D01*
X54610000Y-43815000D02*
X54610000Y-45129700D01*
X54610000Y-45129700D02*
X58375300Y-48895000D01*
X54610000Y-51435000D02*
X55835300Y-51435000D01*
X95885000Y-51435000D02*
X97060300Y-51435000D01*
X97060300Y-51435000D02*
X98237400Y-52612100D01*
X98237400Y-52612100D02*
X107502600Y-52612100D01*
X107502600Y-52612100D02*
X108679700Y-51435000D01*
X109855000Y-51435000D02*
X108679700Y-51435000D01*
X74295000Y-66675000D02*
X80104700Y-66675000D01*
X81280000Y-66675000D02*
X80104700Y-66675000D01*
X74295000Y-64135000D02*
X74295000Y-66675000D01*
X66675000Y-66675000D02*
X74295000Y-66675000D01*
X73119600Y-50259600D02*
X73119600Y-48895000D01*
X74295000Y-51435000D02*
X73119600Y-50259600D01*
X90103800Y-62931200D02*
X90103800Y-60960000D01*
X88900000Y-64135000D02*
X90103800Y-62931200D01*
X90103800Y-51435000D02*
X90103800Y-60960000D01*
D17*
G04 #@! TO.N,~STK_RESET*
X88900000Y-61595000D02*
X87774700Y-61595000D01*
X74295000Y-61595000D02*
X75420300Y-61595000D01*
X75420300Y-61595000D02*
X76545600Y-62720300D01*
X76545600Y-62720300D02*
X86649400Y-62720300D01*
X86649400Y-62720300D02*
X87774700Y-61595000D01*
X73732400Y-61595000D02*
X74295000Y-61595000D01*
X73732400Y-61595000D02*
X73169700Y-61595000D01*
X54610000Y-64135000D02*
X55785300Y-64135000D01*
X73169700Y-61595000D02*
X71805000Y-62959700D01*
X71805000Y-62959700D02*
X56960600Y-62959700D01*
X56960600Y-62959700D02*
X55785300Y-64135000D01*
G04 #@! TO.N,~CLK_EN*
X81280000Y-56515000D02*
X80154700Y-56515000D01*
X66675000Y-56515000D02*
X67800300Y-56515000D01*
X67800300Y-56515000D02*
X68925600Y-57640300D01*
X68925600Y-57640300D02*
X79029400Y-57640300D01*
X79029400Y-57640300D02*
X80154700Y-56515000D01*
G04 #@! TO.N,DOWN_~UP*
X81280000Y-59055000D02*
X80154700Y-59055000D01*
X66675000Y-59055000D02*
X67800300Y-59055000D01*
X67800300Y-59055000D02*
X68925600Y-60180300D01*
X68925600Y-60180300D02*
X79029400Y-60180300D01*
X79029400Y-60180300D02*
X80154700Y-59055000D01*
X53484700Y-29700300D02*
X54610000Y-28575000D01*
X53484700Y-37609700D02*
X53484700Y-29700300D01*
X54610000Y-38735000D02*
X53484700Y-37609700D01*
G04 #@! TO.N,CLOCK*
X54610000Y-56515000D02*
X55785300Y-56515000D01*
X74295000Y-53975000D02*
X73169700Y-53975000D01*
X73169700Y-53975000D02*
X71805000Y-55339700D01*
X71805000Y-55339700D02*
X56960600Y-55339700D01*
X56960600Y-55339700D02*
X55785300Y-56515000D01*
G04 #@! TO.N,Net-(BAR1-Pad6)*
X95885000Y-38735000D02*
X94759700Y-38735000D01*
X79375000Y-40005000D02*
X80722500Y-38657500D01*
X80722500Y-38657500D02*
X94682200Y-38657500D01*
X94682200Y-38657500D02*
X94759700Y-38735000D01*
D16*
G04 #@! TO.N,+5V*
X76645700Y-50070400D02*
X86549300Y-50070400D01*
X86549300Y-50070400D02*
X87724700Y-48895000D01*
X75470300Y-48895000D02*
X76645700Y-50070400D01*
X76645700Y-50070400D02*
X76645700Y-50784000D01*
X76645700Y-50784000D02*
X74724700Y-52705000D01*
X74724700Y-52705000D02*
X57105300Y-52705000D01*
X57105300Y-52705000D02*
X55835300Y-53975000D01*
X54610000Y-53975000D02*
X55835300Y-53975000D01*
X88900000Y-48895000D02*
X87724700Y-48895000D01*
X74295000Y-48895000D02*
X75470300Y-48895000D01*
X95885000Y-28575000D02*
X103505000Y-28575000D01*
X109855000Y-28575000D02*
X117475000Y-28575000D01*
X109855000Y-48895000D02*
X108679700Y-48895000D01*
X88900000Y-48895000D02*
X90075300Y-48895000D01*
X90075300Y-48895000D02*
X91265900Y-50085600D01*
X91265900Y-50085600D02*
X107489100Y-50085600D01*
X107489100Y-50085600D02*
X108679700Y-48895000D01*
D17*
G04 #@! TO.N,Net-(BAR1-Pad2)*
X95885000Y-48895000D02*
X94759700Y-48895000D01*
X94759700Y-48895000D02*
X93084000Y-47219300D01*
X93084000Y-47219300D02*
X76429300Y-47219300D01*
X76429300Y-47219300D02*
X69215000Y-40005000D01*
G04 #@! TO.N,Net-(BAR1-Pad3)*
X94759700Y-46355000D02*
X78105000Y-46355000D01*
X78105000Y-46355000D02*
X71755000Y-40005000D01*
X95885000Y-46355000D02*
X94759700Y-46355000D01*
G04 #@! TO.N,Net-(BAR1-Pad5)*
X95885000Y-41275000D02*
X94759700Y-41275000D01*
X94759700Y-41275000D02*
X94665500Y-41369200D01*
X94665500Y-41369200D02*
X78199200Y-41369200D01*
X78199200Y-41369200D02*
X76835000Y-40005000D01*
G04 #@! TO.N,Net-(BAR1-Pad4)*
X74295000Y-40005000D02*
X78105000Y-43815000D01*
X78105000Y-43815000D02*
X95885000Y-43815000D01*
G04 #@! TO.N,STK_INC*
X54610000Y-59055000D02*
X53434700Y-57879700D01*
X53434700Y-57879700D02*
X53434700Y-43368000D01*
X53434700Y-43368000D02*
X54154800Y-42647900D01*
X61104700Y-43815000D02*
X62230000Y-43815000D01*
X54154800Y-42647900D02*
X59937600Y-42647900D01*
X59937600Y-42647900D02*
X61104700Y-43815000D01*
G04 #@! TO.N,STK_DEC*
X54610000Y-41275000D02*
X62230000Y-41275000D01*
G04 #@! TO.N,Net-(J2-Pad8)*
X123825000Y-46355000D02*
X122649700Y-46355000D01*
X109295200Y-50020400D02*
X107880600Y-51435000D01*
X107880600Y-51435000D02*
X103505000Y-51435000D01*
X119524600Y-50020400D02*
X118237000Y-50020400D01*
X123190000Y-46355000D02*
X119524600Y-50020400D01*
X118984300Y-50020400D02*
X118237000Y-50020400D01*
X118237000Y-50020400D02*
X109295200Y-50020400D01*
G04 #@! TO.N,Net-(J2-Pad7)*
X103505000Y-48895000D02*
X104630300Y-48895000D01*
X123825000Y-43815000D02*
X122649700Y-43815000D01*
X105755600Y-47769700D02*
X104630300Y-48895000D01*
X119235300Y-47769700D02*
X118364000Y-47769700D01*
X123190000Y-43815000D02*
X119235300Y-47769700D01*
X118695000Y-47769700D02*
X118364000Y-47769700D01*
X118364000Y-47769700D02*
X105755600Y-47769700D01*
G04 #@! TO.N,Net-(J2-Pad6)*
X103505000Y-46355000D02*
X104630300Y-46355000D01*
X123825000Y-41275000D02*
X122649700Y-41275000D01*
X105755600Y-45229700D02*
X104630300Y-46355000D01*
X119235300Y-45229700D02*
X118364000Y-45229700D01*
X123190000Y-41275000D02*
X119235300Y-45229700D01*
X118695000Y-45229700D02*
X118364000Y-45229700D01*
X118364000Y-45229700D02*
X105755600Y-45229700D01*
G04 #@! TO.N,Net-(J2-Pad5)*
X103505000Y-43815000D02*
X104630300Y-43815000D01*
X123825000Y-38735000D02*
X122649700Y-38735000D01*
X105755600Y-42689700D02*
X104630300Y-43815000D01*
X123190000Y-38735000D02*
X119235300Y-42689700D01*
X119235300Y-42689700D02*
X118237000Y-42689700D01*
X118695000Y-42689700D02*
X118237000Y-42689700D01*
X118237000Y-42689700D02*
X105755600Y-42689700D01*
G04 #@! TO.N,Net-(J2-Pad4)*
X103505000Y-41275000D02*
X104630300Y-41275000D01*
X123825000Y-36195000D02*
X122649700Y-36195000D01*
X105755600Y-40149700D02*
X104630300Y-41275000D01*
X123190000Y-36195000D02*
X119235300Y-40149700D01*
X118695000Y-40149700D02*
X118618000Y-40149700D01*
X119235300Y-40149700D02*
X118618000Y-40149700D01*
X118618000Y-40149700D02*
X105755600Y-40149700D01*
G04 #@! TO.N,Net-(J2-Pad3)*
X103505000Y-38735000D02*
X104630300Y-38735000D01*
X123825000Y-33655000D02*
X122649700Y-33655000D01*
X105755600Y-37609700D02*
X104630300Y-38735000D01*
X123190000Y-33655000D02*
X119235300Y-37609700D01*
X118695000Y-37609700D02*
X118491000Y-37609700D01*
X119235300Y-37609700D02*
X118491000Y-37609700D01*
X118491000Y-37609700D02*
X105755600Y-37609700D01*
G04 #@! TO.N,Net-(J2-Pad2)*
X123825000Y-31115000D02*
X122649700Y-31115000D01*
X105755600Y-35069700D02*
X104630300Y-36195000D01*
X103505000Y-36195000D02*
X104630300Y-36195000D01*
X123190000Y-31115000D02*
X119235300Y-35069700D01*
X118695000Y-35069700D02*
X118237000Y-35069700D01*
X119235300Y-35069700D02*
X118237000Y-35069700D01*
X118237000Y-35069700D02*
X105755600Y-35069700D01*
G04 #@! TO.N,Net-(J2-Pad1)*
X103505000Y-33655000D02*
X104630300Y-33655000D01*
X123825000Y-28575000D02*
X122649700Y-28575000D01*
X105755600Y-32529700D02*
X104630300Y-33655000D01*
X118135300Y-32529700D02*
X117475000Y-32529700D01*
X122090000Y-28575000D02*
X118135300Y-32529700D01*
X123190000Y-28575000D02*
X122090000Y-28575000D01*
X117475000Y-32529700D02*
X105755600Y-32529700D01*
G04 #@! TO.N,~STK_OUT*
X103505000Y-31115000D02*
X104630300Y-31115000D01*
X104630300Y-31115000D02*
X105755600Y-29989700D01*
X115224400Y-29989700D02*
X116349700Y-31115000D01*
X105755600Y-29989700D02*
X115224400Y-29989700D01*
X117475000Y-31115000D02*
X116349700Y-31115000D01*
G04 #@! TD*
M02*
