G04 #@! TF.GenerationSoftware,KiCad,Pcbnew,(5.1.2)-2*
G04 #@! TF.CreationDate,2019-08-11T20:37:08+02:00*
G04 #@! TF.ProjectId,Instruction-Register,496e7374-7275-4637-9469-6f6e2d526567,rev?*
G04 #@! TF.SameCoordinates,Original*
G04 #@! TF.FileFunction,Soldermask,Top*
G04 #@! TF.FilePolarity,Negative*
%FSLAX46Y46*%
G04 Gerber Fmt 4.6, Leading zero omitted, Abs format (unit mm)*
G04 Created by KiCad (PCBNEW (5.1.2)-2) date 2019-08-11 20:37:08*
%MOMM*%
%LPD*%
G04 APERTURE LIST*
%ADD10C,0.100000*%
G04 APERTURE END LIST*
D10*
G36*
X33765442Y-60065518D02*
G01*
X33831627Y-60072037D01*
X34001466Y-60123557D01*
X34157991Y-60207222D01*
X34193729Y-60236552D01*
X34295186Y-60319814D01*
X34378448Y-60421271D01*
X34407778Y-60457009D01*
X34491443Y-60613534D01*
X34542963Y-60783373D01*
X34560359Y-60960000D01*
X34542963Y-61136627D01*
X34491443Y-61306466D01*
X34407778Y-61462991D01*
X34378448Y-61498729D01*
X34295186Y-61600186D01*
X34193729Y-61683448D01*
X34157991Y-61712778D01*
X34001466Y-61796443D01*
X33831627Y-61847963D01*
X33765443Y-61854481D01*
X33699260Y-61861000D01*
X33610740Y-61861000D01*
X33544557Y-61854481D01*
X33478373Y-61847963D01*
X33308534Y-61796443D01*
X33152009Y-61712778D01*
X33116271Y-61683448D01*
X33014814Y-61600186D01*
X32931552Y-61498729D01*
X32902222Y-61462991D01*
X32818557Y-61306466D01*
X32767037Y-61136627D01*
X32749641Y-60960000D01*
X32767037Y-60783373D01*
X32818557Y-60613534D01*
X32902222Y-60457009D01*
X32931552Y-60421271D01*
X33014814Y-60319814D01*
X33116271Y-60236552D01*
X33152009Y-60207222D01*
X33308534Y-60123557D01*
X33478373Y-60072037D01*
X33544558Y-60065518D01*
X33610740Y-60059000D01*
X33699260Y-60059000D01*
X33765442Y-60065518D01*
X33765442Y-60065518D01*
G37*
G36*
X66206823Y-60121313D02*
G01*
X66367242Y-60169976D01*
X66436922Y-60207221D01*
X66515078Y-60248996D01*
X66644659Y-60355341D01*
X66751004Y-60484922D01*
X66751005Y-60484924D01*
X66830024Y-60632758D01*
X66878687Y-60793177D01*
X66895117Y-60960000D01*
X66878687Y-61126823D01*
X66830024Y-61287242D01*
X66819747Y-61306468D01*
X66751004Y-61435078D01*
X66644659Y-61564659D01*
X66515078Y-61671004D01*
X66515076Y-61671005D01*
X66367242Y-61750024D01*
X66206823Y-61798687D01*
X66081804Y-61811000D01*
X65998196Y-61811000D01*
X65873177Y-61798687D01*
X65712758Y-61750024D01*
X65564924Y-61671005D01*
X65564922Y-61671004D01*
X65435341Y-61564659D01*
X65328996Y-61435078D01*
X65260253Y-61306468D01*
X65249976Y-61287242D01*
X65201313Y-61126823D01*
X65184883Y-60960000D01*
X65201313Y-60793177D01*
X65249976Y-60632758D01*
X65328995Y-60484924D01*
X65328996Y-60484922D01*
X65435341Y-60355341D01*
X65564922Y-60248996D01*
X65643078Y-60207221D01*
X65712758Y-60169976D01*
X65873177Y-60121313D01*
X65998196Y-60109000D01*
X66081804Y-60109000D01*
X66206823Y-60121313D01*
X66206823Y-60121313D01*
G37*
G36*
X63666823Y-60121313D02*
G01*
X63827242Y-60169976D01*
X63896922Y-60207221D01*
X63975078Y-60248996D01*
X64104659Y-60355341D01*
X64211004Y-60484922D01*
X64211005Y-60484924D01*
X64290024Y-60632758D01*
X64338687Y-60793177D01*
X64355117Y-60960000D01*
X64338687Y-61126823D01*
X64290024Y-61287242D01*
X64279747Y-61306468D01*
X64211004Y-61435078D01*
X64104659Y-61564659D01*
X63975078Y-61671004D01*
X63975076Y-61671005D01*
X63827242Y-61750024D01*
X63666823Y-61798687D01*
X63541804Y-61811000D01*
X63458196Y-61811000D01*
X63333177Y-61798687D01*
X63172758Y-61750024D01*
X63024924Y-61671005D01*
X63024922Y-61671004D01*
X62895341Y-61564659D01*
X62788996Y-61435078D01*
X62720253Y-61306468D01*
X62709976Y-61287242D01*
X62661313Y-61126823D01*
X62644883Y-60960000D01*
X62661313Y-60793177D01*
X62709976Y-60632758D01*
X62788995Y-60484924D01*
X62788996Y-60484922D01*
X62895341Y-60355341D01*
X63024922Y-60248996D01*
X63103078Y-60207221D01*
X63172758Y-60169976D01*
X63333177Y-60121313D01*
X63458196Y-60109000D01*
X63541804Y-60109000D01*
X63666823Y-60121313D01*
X63666823Y-60121313D01*
G37*
G36*
X61126823Y-60121313D02*
G01*
X61287242Y-60169976D01*
X61356922Y-60207221D01*
X61435078Y-60248996D01*
X61564659Y-60355341D01*
X61671004Y-60484922D01*
X61671005Y-60484924D01*
X61750024Y-60632758D01*
X61798687Y-60793177D01*
X61815117Y-60960000D01*
X61798687Y-61126823D01*
X61750024Y-61287242D01*
X61739747Y-61306468D01*
X61671004Y-61435078D01*
X61564659Y-61564659D01*
X61435078Y-61671004D01*
X61435076Y-61671005D01*
X61287242Y-61750024D01*
X61126823Y-61798687D01*
X61001804Y-61811000D01*
X60918196Y-61811000D01*
X60793177Y-61798687D01*
X60632758Y-61750024D01*
X60484924Y-61671005D01*
X60484922Y-61671004D01*
X60355341Y-61564659D01*
X60248996Y-61435078D01*
X60180253Y-61306468D01*
X60169976Y-61287242D01*
X60121313Y-61126823D01*
X60104883Y-60960000D01*
X60121313Y-60793177D01*
X60169976Y-60632758D01*
X60248995Y-60484924D01*
X60248996Y-60484922D01*
X60355341Y-60355341D01*
X60484922Y-60248996D01*
X60563078Y-60207221D01*
X60632758Y-60169976D01*
X60793177Y-60121313D01*
X60918196Y-60109000D01*
X61001804Y-60109000D01*
X61126823Y-60121313D01*
X61126823Y-60121313D01*
G37*
G36*
X58586823Y-60121313D02*
G01*
X58747242Y-60169976D01*
X58816922Y-60207221D01*
X58895078Y-60248996D01*
X59024659Y-60355341D01*
X59131004Y-60484922D01*
X59131005Y-60484924D01*
X59210024Y-60632758D01*
X59258687Y-60793177D01*
X59275117Y-60960000D01*
X59258687Y-61126823D01*
X59210024Y-61287242D01*
X59199747Y-61306468D01*
X59131004Y-61435078D01*
X59024659Y-61564659D01*
X58895078Y-61671004D01*
X58895076Y-61671005D01*
X58747242Y-61750024D01*
X58586823Y-61798687D01*
X58461804Y-61811000D01*
X58378196Y-61811000D01*
X58253177Y-61798687D01*
X58092758Y-61750024D01*
X57944924Y-61671005D01*
X57944922Y-61671004D01*
X57815341Y-61564659D01*
X57708996Y-61435078D01*
X57640253Y-61306468D01*
X57629976Y-61287242D01*
X57581313Y-61126823D01*
X57564883Y-60960000D01*
X57581313Y-60793177D01*
X57629976Y-60632758D01*
X57708995Y-60484924D01*
X57708996Y-60484922D01*
X57815341Y-60355341D01*
X57944922Y-60248996D01*
X58023078Y-60207221D01*
X58092758Y-60169976D01*
X58253177Y-60121313D01*
X58378196Y-60109000D01*
X58461804Y-60109000D01*
X58586823Y-60121313D01*
X58586823Y-60121313D01*
G37*
G36*
X56046823Y-60121313D02*
G01*
X56207242Y-60169976D01*
X56276922Y-60207221D01*
X56355078Y-60248996D01*
X56484659Y-60355341D01*
X56591004Y-60484922D01*
X56591005Y-60484924D01*
X56670024Y-60632758D01*
X56718687Y-60793177D01*
X56735117Y-60960000D01*
X56718687Y-61126823D01*
X56670024Y-61287242D01*
X56659747Y-61306468D01*
X56591004Y-61435078D01*
X56484659Y-61564659D01*
X56355078Y-61671004D01*
X56355076Y-61671005D01*
X56207242Y-61750024D01*
X56046823Y-61798687D01*
X55921804Y-61811000D01*
X55838196Y-61811000D01*
X55713177Y-61798687D01*
X55552758Y-61750024D01*
X55404924Y-61671005D01*
X55404922Y-61671004D01*
X55275341Y-61564659D01*
X55168996Y-61435078D01*
X55100253Y-61306468D01*
X55089976Y-61287242D01*
X55041313Y-61126823D01*
X55024883Y-60960000D01*
X55041313Y-60793177D01*
X55089976Y-60632758D01*
X55168995Y-60484924D01*
X55168996Y-60484922D01*
X55275341Y-60355341D01*
X55404922Y-60248996D01*
X55483078Y-60207221D01*
X55552758Y-60169976D01*
X55713177Y-60121313D01*
X55838196Y-60109000D01*
X55921804Y-60109000D01*
X56046823Y-60121313D01*
X56046823Y-60121313D01*
G37*
G36*
X50966823Y-60121313D02*
G01*
X51127242Y-60169976D01*
X51196922Y-60207221D01*
X51275078Y-60248996D01*
X51404659Y-60355341D01*
X51511004Y-60484922D01*
X51511005Y-60484924D01*
X51590024Y-60632758D01*
X51638687Y-60793177D01*
X51655117Y-60960000D01*
X51638687Y-61126823D01*
X51590024Y-61287242D01*
X51579747Y-61306468D01*
X51511004Y-61435078D01*
X51404659Y-61564659D01*
X51275078Y-61671004D01*
X51275076Y-61671005D01*
X51127242Y-61750024D01*
X50966823Y-61798687D01*
X50841804Y-61811000D01*
X50758196Y-61811000D01*
X50633177Y-61798687D01*
X50472758Y-61750024D01*
X50324924Y-61671005D01*
X50324922Y-61671004D01*
X50195341Y-61564659D01*
X50088996Y-61435078D01*
X50020253Y-61306468D01*
X50009976Y-61287242D01*
X49961313Y-61126823D01*
X49944883Y-60960000D01*
X49961313Y-60793177D01*
X50009976Y-60632758D01*
X50088995Y-60484924D01*
X50088996Y-60484922D01*
X50195341Y-60355341D01*
X50324922Y-60248996D01*
X50403078Y-60207221D01*
X50472758Y-60169976D01*
X50633177Y-60121313D01*
X50758196Y-60109000D01*
X50841804Y-60109000D01*
X50966823Y-60121313D01*
X50966823Y-60121313D01*
G37*
G36*
X53506823Y-60121313D02*
G01*
X53667242Y-60169976D01*
X53736922Y-60207221D01*
X53815078Y-60248996D01*
X53944659Y-60355341D01*
X54051004Y-60484922D01*
X54051005Y-60484924D01*
X54130024Y-60632758D01*
X54178687Y-60793177D01*
X54195117Y-60960000D01*
X54178687Y-61126823D01*
X54130024Y-61287242D01*
X54119747Y-61306468D01*
X54051004Y-61435078D01*
X53944659Y-61564659D01*
X53815078Y-61671004D01*
X53815076Y-61671005D01*
X53667242Y-61750024D01*
X53506823Y-61798687D01*
X53381804Y-61811000D01*
X53298196Y-61811000D01*
X53173177Y-61798687D01*
X53012758Y-61750024D01*
X52864924Y-61671005D01*
X52864922Y-61671004D01*
X52735341Y-61564659D01*
X52628996Y-61435078D01*
X52560253Y-61306468D01*
X52549976Y-61287242D01*
X52501313Y-61126823D01*
X52484883Y-60960000D01*
X52501313Y-60793177D01*
X52549976Y-60632758D01*
X52628995Y-60484924D01*
X52628996Y-60484922D01*
X52735341Y-60355341D01*
X52864922Y-60248996D01*
X52943078Y-60207221D01*
X53012758Y-60169976D01*
X53173177Y-60121313D01*
X53298196Y-60109000D01*
X53381804Y-60109000D01*
X53506823Y-60121313D01*
X53506823Y-60121313D01*
G37*
G36*
X44031000Y-61811000D02*
G01*
X42329000Y-61811000D01*
X42329000Y-60109000D01*
X44031000Y-60109000D01*
X44031000Y-61811000D01*
X44031000Y-61811000D01*
G37*
G36*
X48426823Y-60121313D02*
G01*
X48587242Y-60169976D01*
X48656922Y-60207221D01*
X48735078Y-60248996D01*
X48864659Y-60355341D01*
X48971004Y-60484922D01*
X48971005Y-60484924D01*
X49050024Y-60632758D01*
X49098687Y-60793177D01*
X49115117Y-60960000D01*
X49098687Y-61126823D01*
X49050024Y-61287242D01*
X49039747Y-61306468D01*
X48971004Y-61435078D01*
X48864659Y-61564659D01*
X48735078Y-61671004D01*
X48735076Y-61671005D01*
X48587242Y-61750024D01*
X48426823Y-61798687D01*
X48301804Y-61811000D01*
X48218196Y-61811000D01*
X48093177Y-61798687D01*
X47932758Y-61750024D01*
X47784924Y-61671005D01*
X47784922Y-61671004D01*
X47655341Y-61564659D01*
X47548996Y-61435078D01*
X47480253Y-61306468D01*
X47469976Y-61287242D01*
X47421313Y-61126823D01*
X47404883Y-60960000D01*
X47421313Y-60793177D01*
X47469976Y-60632758D01*
X47548995Y-60484924D01*
X47548996Y-60484922D01*
X47655341Y-60355341D01*
X47784922Y-60248996D01*
X47863078Y-60207221D01*
X47932758Y-60169976D01*
X48093177Y-60121313D01*
X48218196Y-60109000D01*
X48301804Y-60109000D01*
X48426823Y-60121313D01*
X48426823Y-60121313D01*
G37*
G36*
X45886823Y-60121313D02*
G01*
X46047242Y-60169976D01*
X46116922Y-60207221D01*
X46195078Y-60248996D01*
X46324659Y-60355341D01*
X46431004Y-60484922D01*
X46431005Y-60484924D01*
X46510024Y-60632758D01*
X46558687Y-60793177D01*
X46575117Y-60960000D01*
X46558687Y-61126823D01*
X46510024Y-61287242D01*
X46499747Y-61306468D01*
X46431004Y-61435078D01*
X46324659Y-61564659D01*
X46195078Y-61671004D01*
X46195076Y-61671005D01*
X46047242Y-61750024D01*
X45886823Y-61798687D01*
X45761804Y-61811000D01*
X45678196Y-61811000D01*
X45553177Y-61798687D01*
X45392758Y-61750024D01*
X45244924Y-61671005D01*
X45244922Y-61671004D01*
X45115341Y-61564659D01*
X45008996Y-61435078D01*
X44940253Y-61306468D01*
X44929976Y-61287242D01*
X44881313Y-61126823D01*
X44864883Y-60960000D01*
X44881313Y-60793177D01*
X44929976Y-60632758D01*
X45008995Y-60484924D01*
X45008996Y-60484922D01*
X45115341Y-60355341D01*
X45244922Y-60248996D01*
X45323078Y-60207221D01*
X45392758Y-60169976D01*
X45553177Y-60121313D01*
X45678196Y-60109000D01*
X45761804Y-60109000D01*
X45886823Y-60121313D01*
X45886823Y-60121313D01*
G37*
G36*
X33765443Y-57525519D02*
G01*
X33831627Y-57532037D01*
X34001466Y-57583557D01*
X34157991Y-57667222D01*
X34193729Y-57696552D01*
X34295186Y-57779814D01*
X34378448Y-57881271D01*
X34407778Y-57917009D01*
X34491443Y-58073534D01*
X34542963Y-58243373D01*
X34560359Y-58420000D01*
X34542963Y-58596627D01*
X34491443Y-58766466D01*
X34407778Y-58922991D01*
X34378448Y-58958729D01*
X34295186Y-59060186D01*
X34193729Y-59143448D01*
X34157991Y-59172778D01*
X34001466Y-59256443D01*
X33831627Y-59307963D01*
X33765442Y-59314482D01*
X33699260Y-59321000D01*
X33610740Y-59321000D01*
X33544558Y-59314482D01*
X33478373Y-59307963D01*
X33308534Y-59256443D01*
X33152009Y-59172778D01*
X33116271Y-59143448D01*
X33014814Y-59060186D01*
X32931552Y-58958729D01*
X32902222Y-58922991D01*
X32818557Y-58766466D01*
X32767037Y-58596627D01*
X32749641Y-58420000D01*
X32767037Y-58243373D01*
X32818557Y-58073534D01*
X32902222Y-57917009D01*
X32931552Y-57881271D01*
X33014814Y-57779814D01*
X33116271Y-57696552D01*
X33152009Y-57667222D01*
X33308534Y-57583557D01*
X33478373Y-57532037D01*
X33544557Y-57525519D01*
X33610740Y-57519000D01*
X33699260Y-57519000D01*
X33765443Y-57525519D01*
X33765443Y-57525519D01*
G37*
G36*
X33765443Y-54985519D02*
G01*
X33831627Y-54992037D01*
X34001466Y-55043557D01*
X34157991Y-55127222D01*
X34193729Y-55156552D01*
X34295186Y-55239814D01*
X34378448Y-55341271D01*
X34407778Y-55377009D01*
X34491443Y-55533534D01*
X34542963Y-55703373D01*
X34560359Y-55880000D01*
X34542963Y-56056627D01*
X34491443Y-56226466D01*
X34407778Y-56382991D01*
X34378448Y-56418729D01*
X34295186Y-56520186D01*
X34193729Y-56603448D01*
X34157991Y-56632778D01*
X34001466Y-56716443D01*
X33831627Y-56767963D01*
X33765443Y-56774481D01*
X33699260Y-56781000D01*
X33610740Y-56781000D01*
X33544557Y-56774481D01*
X33478373Y-56767963D01*
X33308534Y-56716443D01*
X33152009Y-56632778D01*
X33116271Y-56603448D01*
X33014814Y-56520186D01*
X32931552Y-56418729D01*
X32902222Y-56382991D01*
X32818557Y-56226466D01*
X32767037Y-56056627D01*
X32749641Y-55880000D01*
X32767037Y-55703373D01*
X32818557Y-55533534D01*
X32902222Y-55377009D01*
X32931552Y-55341271D01*
X33014814Y-55239814D01*
X33116271Y-55156552D01*
X33152009Y-55127222D01*
X33308534Y-55043557D01*
X33478373Y-54992037D01*
X33544557Y-54985519D01*
X33610740Y-54979000D01*
X33699260Y-54979000D01*
X33765443Y-54985519D01*
X33765443Y-54985519D01*
G37*
G36*
X33765443Y-52445519D02*
G01*
X33831627Y-52452037D01*
X34001466Y-52503557D01*
X34157991Y-52587222D01*
X34193729Y-52616552D01*
X34295186Y-52699814D01*
X34378448Y-52801271D01*
X34407778Y-52837009D01*
X34491443Y-52993534D01*
X34542963Y-53163373D01*
X34560359Y-53340000D01*
X34542963Y-53516627D01*
X34491443Y-53686466D01*
X34407778Y-53842991D01*
X34378448Y-53878729D01*
X34295186Y-53980186D01*
X34193729Y-54063448D01*
X34157991Y-54092778D01*
X34001466Y-54176443D01*
X33831627Y-54227963D01*
X33765442Y-54234482D01*
X33699260Y-54241000D01*
X33610740Y-54241000D01*
X33544558Y-54234482D01*
X33478373Y-54227963D01*
X33308534Y-54176443D01*
X33152009Y-54092778D01*
X33116271Y-54063448D01*
X33014814Y-53980186D01*
X32931552Y-53878729D01*
X32902222Y-53842991D01*
X32818557Y-53686466D01*
X32767037Y-53516627D01*
X32749641Y-53340000D01*
X32767037Y-53163373D01*
X32818557Y-52993534D01*
X32902222Y-52837009D01*
X32931552Y-52801271D01*
X33014814Y-52699814D01*
X33116271Y-52616552D01*
X33152009Y-52587222D01*
X33308534Y-52503557D01*
X33478373Y-52452037D01*
X33544558Y-52445518D01*
X33610740Y-52439000D01*
X33699260Y-52439000D01*
X33765443Y-52445519D01*
X33765443Y-52445519D01*
G37*
G36*
X48426823Y-52501313D02*
G01*
X48587242Y-52549976D01*
X48656922Y-52587221D01*
X48735078Y-52628996D01*
X48864659Y-52735341D01*
X48971004Y-52864922D01*
X48971005Y-52864924D01*
X49050024Y-53012758D01*
X49098687Y-53173177D01*
X49115117Y-53340000D01*
X49098687Y-53506823D01*
X49050024Y-53667242D01*
X49039747Y-53686468D01*
X48971004Y-53815078D01*
X48864659Y-53944659D01*
X48735078Y-54051004D01*
X48735076Y-54051005D01*
X48587242Y-54130024D01*
X48426823Y-54178687D01*
X48301804Y-54191000D01*
X48218196Y-54191000D01*
X48093177Y-54178687D01*
X47932758Y-54130024D01*
X47784924Y-54051005D01*
X47784922Y-54051004D01*
X47655341Y-53944659D01*
X47548996Y-53815078D01*
X47480253Y-53686468D01*
X47469976Y-53667242D01*
X47421313Y-53506823D01*
X47404883Y-53340000D01*
X47421313Y-53173177D01*
X47469976Y-53012758D01*
X47548995Y-52864924D01*
X47548996Y-52864922D01*
X47655341Y-52735341D01*
X47784922Y-52628996D01*
X47863078Y-52587221D01*
X47932758Y-52549976D01*
X48093177Y-52501313D01*
X48218196Y-52489000D01*
X48301804Y-52489000D01*
X48426823Y-52501313D01*
X48426823Y-52501313D01*
G37*
G36*
X63666823Y-52501313D02*
G01*
X63827242Y-52549976D01*
X63896922Y-52587221D01*
X63975078Y-52628996D01*
X64104659Y-52735341D01*
X64211004Y-52864922D01*
X64211005Y-52864924D01*
X64290024Y-53012758D01*
X64338687Y-53173177D01*
X64355117Y-53340000D01*
X64338687Y-53506823D01*
X64290024Y-53667242D01*
X64279747Y-53686468D01*
X64211004Y-53815078D01*
X64104659Y-53944659D01*
X63975078Y-54051004D01*
X63975076Y-54051005D01*
X63827242Y-54130024D01*
X63666823Y-54178687D01*
X63541804Y-54191000D01*
X63458196Y-54191000D01*
X63333177Y-54178687D01*
X63172758Y-54130024D01*
X63024924Y-54051005D01*
X63024922Y-54051004D01*
X62895341Y-53944659D01*
X62788996Y-53815078D01*
X62720253Y-53686468D01*
X62709976Y-53667242D01*
X62661313Y-53506823D01*
X62644883Y-53340000D01*
X62661313Y-53173177D01*
X62709976Y-53012758D01*
X62788995Y-52864924D01*
X62788996Y-52864922D01*
X62895341Y-52735341D01*
X63024922Y-52628996D01*
X63103078Y-52587221D01*
X63172758Y-52549976D01*
X63333177Y-52501313D01*
X63458196Y-52489000D01*
X63541804Y-52489000D01*
X63666823Y-52501313D01*
X63666823Y-52501313D01*
G37*
G36*
X61126823Y-52501313D02*
G01*
X61287242Y-52549976D01*
X61356922Y-52587221D01*
X61435078Y-52628996D01*
X61564659Y-52735341D01*
X61671004Y-52864922D01*
X61671005Y-52864924D01*
X61750024Y-53012758D01*
X61798687Y-53173177D01*
X61815117Y-53340000D01*
X61798687Y-53506823D01*
X61750024Y-53667242D01*
X61739747Y-53686468D01*
X61671004Y-53815078D01*
X61564659Y-53944659D01*
X61435078Y-54051004D01*
X61435076Y-54051005D01*
X61287242Y-54130024D01*
X61126823Y-54178687D01*
X61001804Y-54191000D01*
X60918196Y-54191000D01*
X60793177Y-54178687D01*
X60632758Y-54130024D01*
X60484924Y-54051005D01*
X60484922Y-54051004D01*
X60355341Y-53944659D01*
X60248996Y-53815078D01*
X60180253Y-53686468D01*
X60169976Y-53667242D01*
X60121313Y-53506823D01*
X60104883Y-53340000D01*
X60121313Y-53173177D01*
X60169976Y-53012758D01*
X60248995Y-52864924D01*
X60248996Y-52864922D01*
X60355341Y-52735341D01*
X60484922Y-52628996D01*
X60563078Y-52587221D01*
X60632758Y-52549976D01*
X60793177Y-52501313D01*
X60918196Y-52489000D01*
X61001804Y-52489000D01*
X61126823Y-52501313D01*
X61126823Y-52501313D01*
G37*
G36*
X58586823Y-52501313D02*
G01*
X58747242Y-52549976D01*
X58816922Y-52587221D01*
X58895078Y-52628996D01*
X59024659Y-52735341D01*
X59131004Y-52864922D01*
X59131005Y-52864924D01*
X59210024Y-53012758D01*
X59258687Y-53173177D01*
X59275117Y-53340000D01*
X59258687Y-53506823D01*
X59210024Y-53667242D01*
X59199747Y-53686468D01*
X59131004Y-53815078D01*
X59024659Y-53944659D01*
X58895078Y-54051004D01*
X58895076Y-54051005D01*
X58747242Y-54130024D01*
X58586823Y-54178687D01*
X58461804Y-54191000D01*
X58378196Y-54191000D01*
X58253177Y-54178687D01*
X58092758Y-54130024D01*
X57944924Y-54051005D01*
X57944922Y-54051004D01*
X57815341Y-53944659D01*
X57708996Y-53815078D01*
X57640253Y-53686468D01*
X57629976Y-53667242D01*
X57581313Y-53506823D01*
X57564883Y-53340000D01*
X57581313Y-53173177D01*
X57629976Y-53012758D01*
X57708995Y-52864924D01*
X57708996Y-52864922D01*
X57815341Y-52735341D01*
X57944922Y-52628996D01*
X58023078Y-52587221D01*
X58092758Y-52549976D01*
X58253177Y-52501313D01*
X58378196Y-52489000D01*
X58461804Y-52489000D01*
X58586823Y-52501313D01*
X58586823Y-52501313D01*
G37*
G36*
X56046823Y-52501313D02*
G01*
X56207242Y-52549976D01*
X56276922Y-52587221D01*
X56355078Y-52628996D01*
X56484659Y-52735341D01*
X56591004Y-52864922D01*
X56591005Y-52864924D01*
X56670024Y-53012758D01*
X56718687Y-53173177D01*
X56735117Y-53340000D01*
X56718687Y-53506823D01*
X56670024Y-53667242D01*
X56659747Y-53686468D01*
X56591004Y-53815078D01*
X56484659Y-53944659D01*
X56355078Y-54051004D01*
X56355076Y-54051005D01*
X56207242Y-54130024D01*
X56046823Y-54178687D01*
X55921804Y-54191000D01*
X55838196Y-54191000D01*
X55713177Y-54178687D01*
X55552758Y-54130024D01*
X55404924Y-54051005D01*
X55404922Y-54051004D01*
X55275341Y-53944659D01*
X55168996Y-53815078D01*
X55100253Y-53686468D01*
X55089976Y-53667242D01*
X55041313Y-53506823D01*
X55024883Y-53340000D01*
X55041313Y-53173177D01*
X55089976Y-53012758D01*
X55168995Y-52864924D01*
X55168996Y-52864922D01*
X55275341Y-52735341D01*
X55404922Y-52628996D01*
X55483078Y-52587221D01*
X55552758Y-52549976D01*
X55713177Y-52501313D01*
X55838196Y-52489000D01*
X55921804Y-52489000D01*
X56046823Y-52501313D01*
X56046823Y-52501313D01*
G37*
G36*
X53506823Y-52501313D02*
G01*
X53667242Y-52549976D01*
X53736922Y-52587221D01*
X53815078Y-52628996D01*
X53944659Y-52735341D01*
X54051004Y-52864922D01*
X54051005Y-52864924D01*
X54130024Y-53012758D01*
X54178687Y-53173177D01*
X54195117Y-53340000D01*
X54178687Y-53506823D01*
X54130024Y-53667242D01*
X54119747Y-53686468D01*
X54051004Y-53815078D01*
X53944659Y-53944659D01*
X53815078Y-54051004D01*
X53815076Y-54051005D01*
X53667242Y-54130024D01*
X53506823Y-54178687D01*
X53381804Y-54191000D01*
X53298196Y-54191000D01*
X53173177Y-54178687D01*
X53012758Y-54130024D01*
X52864924Y-54051005D01*
X52864922Y-54051004D01*
X52735341Y-53944659D01*
X52628996Y-53815078D01*
X52560253Y-53686468D01*
X52549976Y-53667242D01*
X52501313Y-53506823D01*
X52484883Y-53340000D01*
X52501313Y-53173177D01*
X52549976Y-53012758D01*
X52628995Y-52864924D01*
X52628996Y-52864922D01*
X52735341Y-52735341D01*
X52864922Y-52628996D01*
X52943078Y-52587221D01*
X53012758Y-52549976D01*
X53173177Y-52501313D01*
X53298196Y-52489000D01*
X53381804Y-52489000D01*
X53506823Y-52501313D01*
X53506823Y-52501313D01*
G37*
G36*
X50966823Y-52501313D02*
G01*
X51127242Y-52549976D01*
X51196922Y-52587221D01*
X51275078Y-52628996D01*
X51404659Y-52735341D01*
X51511004Y-52864922D01*
X51511005Y-52864924D01*
X51590024Y-53012758D01*
X51638687Y-53173177D01*
X51655117Y-53340000D01*
X51638687Y-53506823D01*
X51590024Y-53667242D01*
X51579747Y-53686468D01*
X51511004Y-53815078D01*
X51404659Y-53944659D01*
X51275078Y-54051004D01*
X51275076Y-54051005D01*
X51127242Y-54130024D01*
X50966823Y-54178687D01*
X50841804Y-54191000D01*
X50758196Y-54191000D01*
X50633177Y-54178687D01*
X50472758Y-54130024D01*
X50324924Y-54051005D01*
X50324922Y-54051004D01*
X50195341Y-53944659D01*
X50088996Y-53815078D01*
X50020253Y-53686468D01*
X50009976Y-53667242D01*
X49961313Y-53506823D01*
X49944883Y-53340000D01*
X49961313Y-53173177D01*
X50009976Y-53012758D01*
X50088995Y-52864924D01*
X50088996Y-52864922D01*
X50195341Y-52735341D01*
X50324922Y-52628996D01*
X50403078Y-52587221D01*
X50472758Y-52549976D01*
X50633177Y-52501313D01*
X50758196Y-52489000D01*
X50841804Y-52489000D01*
X50966823Y-52501313D01*
X50966823Y-52501313D01*
G37*
G36*
X66206823Y-52501313D02*
G01*
X66367242Y-52549976D01*
X66436922Y-52587221D01*
X66515078Y-52628996D01*
X66644659Y-52735341D01*
X66751004Y-52864922D01*
X66751005Y-52864924D01*
X66830024Y-53012758D01*
X66878687Y-53173177D01*
X66895117Y-53340000D01*
X66878687Y-53506823D01*
X66830024Y-53667242D01*
X66819747Y-53686468D01*
X66751004Y-53815078D01*
X66644659Y-53944659D01*
X66515078Y-54051004D01*
X66515076Y-54051005D01*
X66367242Y-54130024D01*
X66206823Y-54178687D01*
X66081804Y-54191000D01*
X65998196Y-54191000D01*
X65873177Y-54178687D01*
X65712758Y-54130024D01*
X65564924Y-54051005D01*
X65564922Y-54051004D01*
X65435341Y-53944659D01*
X65328996Y-53815078D01*
X65260253Y-53686468D01*
X65249976Y-53667242D01*
X65201313Y-53506823D01*
X65184883Y-53340000D01*
X65201313Y-53173177D01*
X65249976Y-53012758D01*
X65328995Y-52864924D01*
X65328996Y-52864922D01*
X65435341Y-52735341D01*
X65564922Y-52628996D01*
X65643078Y-52587221D01*
X65712758Y-52549976D01*
X65873177Y-52501313D01*
X65998196Y-52489000D01*
X66081804Y-52489000D01*
X66206823Y-52501313D01*
X66206823Y-52501313D01*
G37*
G36*
X43346823Y-52501313D02*
G01*
X43507242Y-52549976D01*
X43576922Y-52587221D01*
X43655078Y-52628996D01*
X43784659Y-52735341D01*
X43891004Y-52864922D01*
X43891005Y-52864924D01*
X43970024Y-53012758D01*
X44018687Y-53173177D01*
X44035117Y-53340000D01*
X44018687Y-53506823D01*
X43970024Y-53667242D01*
X43959747Y-53686468D01*
X43891004Y-53815078D01*
X43784659Y-53944659D01*
X43655078Y-54051004D01*
X43655076Y-54051005D01*
X43507242Y-54130024D01*
X43346823Y-54178687D01*
X43221804Y-54191000D01*
X43138196Y-54191000D01*
X43013177Y-54178687D01*
X42852758Y-54130024D01*
X42704924Y-54051005D01*
X42704922Y-54051004D01*
X42575341Y-53944659D01*
X42468996Y-53815078D01*
X42400253Y-53686468D01*
X42389976Y-53667242D01*
X42341313Y-53506823D01*
X42324883Y-53340000D01*
X42341313Y-53173177D01*
X42389976Y-53012758D01*
X42468995Y-52864924D01*
X42468996Y-52864922D01*
X42575341Y-52735341D01*
X42704922Y-52628996D01*
X42783078Y-52587221D01*
X42852758Y-52549976D01*
X43013177Y-52501313D01*
X43138196Y-52489000D01*
X43221804Y-52489000D01*
X43346823Y-52501313D01*
X43346823Y-52501313D01*
G37*
G36*
X45886823Y-52501313D02*
G01*
X46047242Y-52549976D01*
X46116922Y-52587221D01*
X46195078Y-52628996D01*
X46324659Y-52735341D01*
X46431004Y-52864922D01*
X46431005Y-52864924D01*
X46510024Y-53012758D01*
X46558687Y-53173177D01*
X46575117Y-53340000D01*
X46558687Y-53506823D01*
X46510024Y-53667242D01*
X46499747Y-53686468D01*
X46431004Y-53815078D01*
X46324659Y-53944659D01*
X46195078Y-54051004D01*
X46195076Y-54051005D01*
X46047242Y-54130024D01*
X45886823Y-54178687D01*
X45761804Y-54191000D01*
X45678196Y-54191000D01*
X45553177Y-54178687D01*
X45392758Y-54130024D01*
X45244924Y-54051005D01*
X45244922Y-54051004D01*
X45115341Y-53944659D01*
X45008996Y-53815078D01*
X44940253Y-53686468D01*
X44929976Y-53667242D01*
X44881313Y-53506823D01*
X44864883Y-53340000D01*
X44881313Y-53173177D01*
X44929976Y-53012758D01*
X45008995Y-52864924D01*
X45008996Y-52864922D01*
X45115341Y-52735341D01*
X45244922Y-52628996D01*
X45323078Y-52587221D01*
X45392758Y-52549976D01*
X45553177Y-52501313D01*
X45678196Y-52489000D01*
X45761804Y-52489000D01*
X45886823Y-52501313D01*
X45886823Y-52501313D01*
G37*
G36*
X33765442Y-49905518D02*
G01*
X33831627Y-49912037D01*
X34001466Y-49963557D01*
X34157991Y-50047222D01*
X34193729Y-50076552D01*
X34295186Y-50159814D01*
X34378448Y-50261271D01*
X34407778Y-50297009D01*
X34491443Y-50453534D01*
X34542963Y-50623373D01*
X34560359Y-50800000D01*
X34542963Y-50976627D01*
X34491443Y-51146466D01*
X34407778Y-51302991D01*
X34378448Y-51338729D01*
X34295186Y-51440186D01*
X34193729Y-51523448D01*
X34157991Y-51552778D01*
X34001466Y-51636443D01*
X33831627Y-51687963D01*
X33765442Y-51694482D01*
X33699260Y-51701000D01*
X33610740Y-51701000D01*
X33544558Y-51694482D01*
X33478373Y-51687963D01*
X33308534Y-51636443D01*
X33152009Y-51552778D01*
X33116271Y-51523448D01*
X33014814Y-51440186D01*
X32931552Y-51338729D01*
X32902222Y-51302991D01*
X32818557Y-51146466D01*
X32767037Y-50976627D01*
X32749641Y-50800000D01*
X32767037Y-50623373D01*
X32818557Y-50453534D01*
X32902222Y-50297009D01*
X32931552Y-50261271D01*
X33014814Y-50159814D01*
X33116271Y-50076552D01*
X33152009Y-50047222D01*
X33308534Y-49963557D01*
X33478373Y-49912037D01*
X33544557Y-49905519D01*
X33610740Y-49899000D01*
X33699260Y-49899000D01*
X33765442Y-49905518D01*
X33765442Y-49905518D01*
G37*
G36*
X33765443Y-47365519D02*
G01*
X33831627Y-47372037D01*
X34001466Y-47423557D01*
X34157991Y-47507222D01*
X34193729Y-47536552D01*
X34295186Y-47619814D01*
X34378448Y-47721271D01*
X34407778Y-47757009D01*
X34491443Y-47913534D01*
X34542963Y-48083373D01*
X34560359Y-48260000D01*
X34542963Y-48436627D01*
X34491443Y-48606466D01*
X34407778Y-48762991D01*
X34378448Y-48798729D01*
X34295186Y-48900186D01*
X34193729Y-48983448D01*
X34157991Y-49012778D01*
X34001466Y-49096443D01*
X33831627Y-49147963D01*
X33765443Y-49154481D01*
X33699260Y-49161000D01*
X33610740Y-49161000D01*
X33544557Y-49154481D01*
X33478373Y-49147963D01*
X33308534Y-49096443D01*
X33152009Y-49012778D01*
X33116271Y-48983448D01*
X33014814Y-48900186D01*
X32931552Y-48798729D01*
X32902222Y-48762991D01*
X32818557Y-48606466D01*
X32767037Y-48436627D01*
X32749641Y-48260000D01*
X32767037Y-48083373D01*
X32818557Y-47913534D01*
X32902222Y-47757009D01*
X32931552Y-47721271D01*
X33014814Y-47619814D01*
X33116271Y-47536552D01*
X33152009Y-47507222D01*
X33308534Y-47423557D01*
X33478373Y-47372037D01*
X33544557Y-47365519D01*
X33610740Y-47359000D01*
X33699260Y-47359000D01*
X33765443Y-47365519D01*
X33765443Y-47365519D01*
G37*
G36*
X44031000Y-47841000D02*
G01*
X42329000Y-47841000D01*
X42329000Y-46139000D01*
X44031000Y-46139000D01*
X44031000Y-47841000D01*
X44031000Y-47841000D01*
G37*
G36*
X45886823Y-46151313D02*
G01*
X46047242Y-46199976D01*
X46179906Y-46270886D01*
X46195078Y-46278996D01*
X46324659Y-46385341D01*
X46431004Y-46514922D01*
X46431005Y-46514924D01*
X46510024Y-46662758D01*
X46558687Y-46823177D01*
X46575117Y-46990000D01*
X46558687Y-47156823D01*
X46510024Y-47317242D01*
X46480735Y-47372037D01*
X46431004Y-47465078D01*
X46324659Y-47594659D01*
X46195078Y-47701004D01*
X46195076Y-47701005D01*
X46047242Y-47780024D01*
X45886823Y-47828687D01*
X45761804Y-47841000D01*
X45678196Y-47841000D01*
X45553177Y-47828687D01*
X45392758Y-47780024D01*
X45244924Y-47701005D01*
X45244922Y-47701004D01*
X45115341Y-47594659D01*
X45008996Y-47465078D01*
X44959265Y-47372037D01*
X44929976Y-47317242D01*
X44881313Y-47156823D01*
X44864883Y-46990000D01*
X44881313Y-46823177D01*
X44929976Y-46662758D01*
X45008995Y-46514924D01*
X45008996Y-46514922D01*
X45115341Y-46385341D01*
X45244922Y-46278996D01*
X45260094Y-46270886D01*
X45392758Y-46199976D01*
X45553177Y-46151313D01*
X45678196Y-46139000D01*
X45761804Y-46139000D01*
X45886823Y-46151313D01*
X45886823Y-46151313D01*
G37*
G36*
X50966823Y-46151313D02*
G01*
X51127242Y-46199976D01*
X51259906Y-46270886D01*
X51275078Y-46278996D01*
X51404659Y-46385341D01*
X51511004Y-46514922D01*
X51511005Y-46514924D01*
X51590024Y-46662758D01*
X51638687Y-46823177D01*
X51655117Y-46990000D01*
X51638687Y-47156823D01*
X51590024Y-47317242D01*
X51560735Y-47372037D01*
X51511004Y-47465078D01*
X51404659Y-47594659D01*
X51275078Y-47701004D01*
X51275076Y-47701005D01*
X51127242Y-47780024D01*
X50966823Y-47828687D01*
X50841804Y-47841000D01*
X50758196Y-47841000D01*
X50633177Y-47828687D01*
X50472758Y-47780024D01*
X50324924Y-47701005D01*
X50324922Y-47701004D01*
X50195341Y-47594659D01*
X50088996Y-47465078D01*
X50039265Y-47372037D01*
X50009976Y-47317242D01*
X49961313Y-47156823D01*
X49944883Y-46990000D01*
X49961313Y-46823177D01*
X50009976Y-46662758D01*
X50088995Y-46514924D01*
X50088996Y-46514922D01*
X50195341Y-46385341D01*
X50324922Y-46278996D01*
X50340094Y-46270886D01*
X50472758Y-46199976D01*
X50633177Y-46151313D01*
X50758196Y-46139000D01*
X50841804Y-46139000D01*
X50966823Y-46151313D01*
X50966823Y-46151313D01*
G37*
G36*
X53506823Y-46151313D02*
G01*
X53667242Y-46199976D01*
X53799906Y-46270886D01*
X53815078Y-46278996D01*
X53944659Y-46385341D01*
X54051004Y-46514922D01*
X54051005Y-46514924D01*
X54130024Y-46662758D01*
X54178687Y-46823177D01*
X54195117Y-46990000D01*
X54178687Y-47156823D01*
X54130024Y-47317242D01*
X54100735Y-47372037D01*
X54051004Y-47465078D01*
X53944659Y-47594659D01*
X53815078Y-47701004D01*
X53815076Y-47701005D01*
X53667242Y-47780024D01*
X53506823Y-47828687D01*
X53381804Y-47841000D01*
X53298196Y-47841000D01*
X53173177Y-47828687D01*
X53012758Y-47780024D01*
X52864924Y-47701005D01*
X52864922Y-47701004D01*
X52735341Y-47594659D01*
X52628996Y-47465078D01*
X52579265Y-47372037D01*
X52549976Y-47317242D01*
X52501313Y-47156823D01*
X52484883Y-46990000D01*
X52501313Y-46823177D01*
X52549976Y-46662758D01*
X52628995Y-46514924D01*
X52628996Y-46514922D01*
X52735341Y-46385341D01*
X52864922Y-46278996D01*
X52880094Y-46270886D01*
X53012758Y-46199976D01*
X53173177Y-46151313D01*
X53298196Y-46139000D01*
X53381804Y-46139000D01*
X53506823Y-46151313D01*
X53506823Y-46151313D01*
G37*
G36*
X56046823Y-46151313D02*
G01*
X56207242Y-46199976D01*
X56339906Y-46270886D01*
X56355078Y-46278996D01*
X56484659Y-46385341D01*
X56591004Y-46514922D01*
X56591005Y-46514924D01*
X56670024Y-46662758D01*
X56718687Y-46823177D01*
X56735117Y-46990000D01*
X56718687Y-47156823D01*
X56670024Y-47317242D01*
X56640735Y-47372037D01*
X56591004Y-47465078D01*
X56484659Y-47594659D01*
X56355078Y-47701004D01*
X56355076Y-47701005D01*
X56207242Y-47780024D01*
X56046823Y-47828687D01*
X55921804Y-47841000D01*
X55838196Y-47841000D01*
X55713177Y-47828687D01*
X55552758Y-47780024D01*
X55404924Y-47701005D01*
X55404922Y-47701004D01*
X55275341Y-47594659D01*
X55168996Y-47465078D01*
X55119265Y-47372037D01*
X55089976Y-47317242D01*
X55041313Y-47156823D01*
X55024883Y-46990000D01*
X55041313Y-46823177D01*
X55089976Y-46662758D01*
X55168995Y-46514924D01*
X55168996Y-46514922D01*
X55275341Y-46385341D01*
X55404922Y-46278996D01*
X55420094Y-46270886D01*
X55552758Y-46199976D01*
X55713177Y-46151313D01*
X55838196Y-46139000D01*
X55921804Y-46139000D01*
X56046823Y-46151313D01*
X56046823Y-46151313D01*
G37*
G36*
X58586823Y-46151313D02*
G01*
X58747242Y-46199976D01*
X58879906Y-46270886D01*
X58895078Y-46278996D01*
X59024659Y-46385341D01*
X59131004Y-46514922D01*
X59131005Y-46514924D01*
X59210024Y-46662758D01*
X59258687Y-46823177D01*
X59275117Y-46990000D01*
X59258687Y-47156823D01*
X59210024Y-47317242D01*
X59180735Y-47372037D01*
X59131004Y-47465078D01*
X59024659Y-47594659D01*
X58895078Y-47701004D01*
X58895076Y-47701005D01*
X58747242Y-47780024D01*
X58586823Y-47828687D01*
X58461804Y-47841000D01*
X58378196Y-47841000D01*
X58253177Y-47828687D01*
X58092758Y-47780024D01*
X57944924Y-47701005D01*
X57944922Y-47701004D01*
X57815341Y-47594659D01*
X57708996Y-47465078D01*
X57659265Y-47372037D01*
X57629976Y-47317242D01*
X57581313Y-47156823D01*
X57564883Y-46990000D01*
X57581313Y-46823177D01*
X57629976Y-46662758D01*
X57708995Y-46514924D01*
X57708996Y-46514922D01*
X57815341Y-46385341D01*
X57944922Y-46278996D01*
X57960094Y-46270886D01*
X58092758Y-46199976D01*
X58253177Y-46151313D01*
X58378196Y-46139000D01*
X58461804Y-46139000D01*
X58586823Y-46151313D01*
X58586823Y-46151313D01*
G37*
G36*
X61126823Y-46151313D02*
G01*
X61287242Y-46199976D01*
X61419906Y-46270886D01*
X61435078Y-46278996D01*
X61564659Y-46385341D01*
X61671004Y-46514922D01*
X61671005Y-46514924D01*
X61750024Y-46662758D01*
X61798687Y-46823177D01*
X61815117Y-46990000D01*
X61798687Y-47156823D01*
X61750024Y-47317242D01*
X61720735Y-47372037D01*
X61671004Y-47465078D01*
X61564659Y-47594659D01*
X61435078Y-47701004D01*
X61435076Y-47701005D01*
X61287242Y-47780024D01*
X61126823Y-47828687D01*
X61001804Y-47841000D01*
X60918196Y-47841000D01*
X60793177Y-47828687D01*
X60632758Y-47780024D01*
X60484924Y-47701005D01*
X60484922Y-47701004D01*
X60355341Y-47594659D01*
X60248996Y-47465078D01*
X60199265Y-47372037D01*
X60169976Y-47317242D01*
X60121313Y-47156823D01*
X60104883Y-46990000D01*
X60121313Y-46823177D01*
X60169976Y-46662758D01*
X60248995Y-46514924D01*
X60248996Y-46514922D01*
X60355341Y-46385341D01*
X60484922Y-46278996D01*
X60500094Y-46270886D01*
X60632758Y-46199976D01*
X60793177Y-46151313D01*
X60918196Y-46139000D01*
X61001804Y-46139000D01*
X61126823Y-46151313D01*
X61126823Y-46151313D01*
G37*
G36*
X63666823Y-46151313D02*
G01*
X63827242Y-46199976D01*
X63959906Y-46270886D01*
X63975078Y-46278996D01*
X64104659Y-46385341D01*
X64211004Y-46514922D01*
X64211005Y-46514924D01*
X64290024Y-46662758D01*
X64338687Y-46823177D01*
X64355117Y-46990000D01*
X64338687Y-47156823D01*
X64290024Y-47317242D01*
X64260735Y-47372037D01*
X64211004Y-47465078D01*
X64104659Y-47594659D01*
X63975078Y-47701004D01*
X63975076Y-47701005D01*
X63827242Y-47780024D01*
X63666823Y-47828687D01*
X63541804Y-47841000D01*
X63458196Y-47841000D01*
X63333177Y-47828687D01*
X63172758Y-47780024D01*
X63024924Y-47701005D01*
X63024922Y-47701004D01*
X62895341Y-47594659D01*
X62788996Y-47465078D01*
X62739265Y-47372037D01*
X62709976Y-47317242D01*
X62661313Y-47156823D01*
X62644883Y-46990000D01*
X62661313Y-46823177D01*
X62709976Y-46662758D01*
X62788995Y-46514924D01*
X62788996Y-46514922D01*
X62895341Y-46385341D01*
X63024922Y-46278996D01*
X63040094Y-46270886D01*
X63172758Y-46199976D01*
X63333177Y-46151313D01*
X63458196Y-46139000D01*
X63541804Y-46139000D01*
X63666823Y-46151313D01*
X63666823Y-46151313D01*
G37*
G36*
X66206823Y-46151313D02*
G01*
X66367242Y-46199976D01*
X66499906Y-46270886D01*
X66515078Y-46278996D01*
X66644659Y-46385341D01*
X66751004Y-46514922D01*
X66751005Y-46514924D01*
X66830024Y-46662758D01*
X66878687Y-46823177D01*
X66895117Y-46990000D01*
X66878687Y-47156823D01*
X66830024Y-47317242D01*
X66800735Y-47372037D01*
X66751004Y-47465078D01*
X66644659Y-47594659D01*
X66515078Y-47701004D01*
X66515076Y-47701005D01*
X66367242Y-47780024D01*
X66206823Y-47828687D01*
X66081804Y-47841000D01*
X65998196Y-47841000D01*
X65873177Y-47828687D01*
X65712758Y-47780024D01*
X65564924Y-47701005D01*
X65564922Y-47701004D01*
X65435341Y-47594659D01*
X65328996Y-47465078D01*
X65279265Y-47372037D01*
X65249976Y-47317242D01*
X65201313Y-47156823D01*
X65184883Y-46990000D01*
X65201313Y-46823177D01*
X65249976Y-46662758D01*
X65328995Y-46514924D01*
X65328996Y-46514922D01*
X65435341Y-46385341D01*
X65564922Y-46278996D01*
X65580094Y-46270886D01*
X65712758Y-46199976D01*
X65873177Y-46151313D01*
X65998196Y-46139000D01*
X66081804Y-46139000D01*
X66206823Y-46151313D01*
X66206823Y-46151313D01*
G37*
G36*
X48426823Y-46151313D02*
G01*
X48587242Y-46199976D01*
X48719906Y-46270886D01*
X48735078Y-46278996D01*
X48864659Y-46385341D01*
X48971004Y-46514922D01*
X48971005Y-46514924D01*
X49050024Y-46662758D01*
X49098687Y-46823177D01*
X49115117Y-46990000D01*
X49098687Y-47156823D01*
X49050024Y-47317242D01*
X49020735Y-47372037D01*
X48971004Y-47465078D01*
X48864659Y-47594659D01*
X48735078Y-47701004D01*
X48735076Y-47701005D01*
X48587242Y-47780024D01*
X48426823Y-47828687D01*
X48301804Y-47841000D01*
X48218196Y-47841000D01*
X48093177Y-47828687D01*
X47932758Y-47780024D01*
X47784924Y-47701005D01*
X47784922Y-47701004D01*
X47655341Y-47594659D01*
X47548996Y-47465078D01*
X47499265Y-47372037D01*
X47469976Y-47317242D01*
X47421313Y-47156823D01*
X47404883Y-46990000D01*
X47421313Y-46823177D01*
X47469976Y-46662758D01*
X47548995Y-46514924D01*
X47548996Y-46514922D01*
X47655341Y-46385341D01*
X47784922Y-46278996D01*
X47800094Y-46270886D01*
X47932758Y-46199976D01*
X48093177Y-46151313D01*
X48218196Y-46139000D01*
X48301804Y-46139000D01*
X48426823Y-46151313D01*
X48426823Y-46151313D01*
G37*
G36*
X33765442Y-44825518D02*
G01*
X33831627Y-44832037D01*
X34001466Y-44883557D01*
X34157991Y-44967222D01*
X34193729Y-44996552D01*
X34295186Y-45079814D01*
X34378448Y-45181271D01*
X34407778Y-45217009D01*
X34491443Y-45373534D01*
X34542963Y-45543373D01*
X34560359Y-45720000D01*
X34542963Y-45896627D01*
X34491443Y-46066466D01*
X34407778Y-46222991D01*
X34378448Y-46258729D01*
X34295186Y-46360186D01*
X34193729Y-46443448D01*
X34157991Y-46472778D01*
X34001466Y-46556443D01*
X33831627Y-46607963D01*
X33765442Y-46614482D01*
X33699260Y-46621000D01*
X33610740Y-46621000D01*
X33544558Y-46614482D01*
X33478373Y-46607963D01*
X33308534Y-46556443D01*
X33152009Y-46472778D01*
X33116271Y-46443448D01*
X33014814Y-46360186D01*
X32931552Y-46258729D01*
X32902222Y-46222991D01*
X32818557Y-46066466D01*
X32767037Y-45896627D01*
X32749641Y-45720000D01*
X32767037Y-45543373D01*
X32818557Y-45373534D01*
X32902222Y-45217009D01*
X32931552Y-45181271D01*
X33014814Y-45079814D01*
X33116271Y-44996552D01*
X33152009Y-44967222D01*
X33308534Y-44883557D01*
X33478373Y-44832037D01*
X33544558Y-44825518D01*
X33610740Y-44819000D01*
X33699260Y-44819000D01*
X33765442Y-44825518D01*
X33765442Y-44825518D01*
G37*
G36*
X33765442Y-42285518D02*
G01*
X33831627Y-42292037D01*
X34001466Y-42343557D01*
X34157991Y-42427222D01*
X34193729Y-42456552D01*
X34295186Y-42539814D01*
X34378448Y-42641271D01*
X34407778Y-42677009D01*
X34491443Y-42833534D01*
X34542963Y-43003373D01*
X34560359Y-43180000D01*
X34542963Y-43356627D01*
X34491443Y-43526466D01*
X34407778Y-43682991D01*
X34378448Y-43718729D01*
X34295186Y-43820186D01*
X34193729Y-43903448D01*
X34157991Y-43932778D01*
X34001466Y-44016443D01*
X33831627Y-44067963D01*
X33765443Y-44074481D01*
X33699260Y-44081000D01*
X33610740Y-44081000D01*
X33544557Y-44074481D01*
X33478373Y-44067963D01*
X33308534Y-44016443D01*
X33152009Y-43932778D01*
X33116271Y-43903448D01*
X33014814Y-43820186D01*
X32931552Y-43718729D01*
X32902222Y-43682991D01*
X32818557Y-43526466D01*
X32767037Y-43356627D01*
X32749641Y-43180000D01*
X32767037Y-43003373D01*
X32818557Y-42833534D01*
X32902222Y-42677009D01*
X32931552Y-42641271D01*
X33014814Y-42539814D01*
X33116271Y-42456552D01*
X33152009Y-42427222D01*
X33308534Y-42343557D01*
X33478373Y-42292037D01*
X33544558Y-42285518D01*
X33610740Y-42279000D01*
X33699260Y-42279000D01*
X33765442Y-42285518D01*
X33765442Y-42285518D01*
G37*
G36*
X33765442Y-39745518D02*
G01*
X33831627Y-39752037D01*
X34001466Y-39803557D01*
X34157991Y-39887222D01*
X34193729Y-39916552D01*
X34295186Y-39999814D01*
X34378448Y-40101271D01*
X34407778Y-40137009D01*
X34491443Y-40293534D01*
X34542963Y-40463373D01*
X34560359Y-40640000D01*
X34542963Y-40816627D01*
X34491443Y-40986466D01*
X34407778Y-41142991D01*
X34378448Y-41178729D01*
X34295186Y-41280186D01*
X34193729Y-41363448D01*
X34157991Y-41392778D01*
X34001466Y-41476443D01*
X33831627Y-41527963D01*
X33765442Y-41534482D01*
X33699260Y-41541000D01*
X33610740Y-41541000D01*
X33544558Y-41534482D01*
X33478373Y-41527963D01*
X33308534Y-41476443D01*
X33152009Y-41392778D01*
X33116271Y-41363448D01*
X33014814Y-41280186D01*
X32931552Y-41178729D01*
X32902222Y-41142991D01*
X32818557Y-40986466D01*
X32767037Y-40816627D01*
X32749641Y-40640000D01*
X32767037Y-40463373D01*
X32818557Y-40293534D01*
X32902222Y-40137009D01*
X32931552Y-40101271D01*
X33014814Y-39999814D01*
X33116271Y-39916552D01*
X33152009Y-39887222D01*
X33308534Y-39803557D01*
X33478373Y-39752037D01*
X33544558Y-39745518D01*
X33610740Y-39739000D01*
X33699260Y-39739000D01*
X33765442Y-39745518D01*
X33765442Y-39745518D01*
G37*
G36*
X74405443Y-38475519D02*
G01*
X74471627Y-38482037D01*
X74641466Y-38533557D01*
X74797991Y-38617222D01*
X74833729Y-38646552D01*
X74935186Y-38729814D01*
X75018448Y-38831271D01*
X75047778Y-38867009D01*
X75131443Y-39023534D01*
X75182963Y-39193373D01*
X75200359Y-39370000D01*
X75182963Y-39546627D01*
X75131443Y-39716466D01*
X75047778Y-39872991D01*
X75018448Y-39908729D01*
X74935186Y-40010186D01*
X74833729Y-40093448D01*
X74797991Y-40122778D01*
X74641466Y-40206443D01*
X74471627Y-40257963D01*
X74405443Y-40264481D01*
X74339260Y-40271000D01*
X74250740Y-40271000D01*
X74184557Y-40264481D01*
X74118373Y-40257963D01*
X73948534Y-40206443D01*
X73792009Y-40122778D01*
X73756271Y-40093448D01*
X73654814Y-40010186D01*
X73571552Y-39908729D01*
X73542222Y-39872991D01*
X73458557Y-39716466D01*
X73407037Y-39546627D01*
X73389641Y-39370000D01*
X73407037Y-39193373D01*
X73458557Y-39023534D01*
X73542222Y-38867009D01*
X73571552Y-38831271D01*
X73654814Y-38729814D01*
X73756271Y-38646552D01*
X73792009Y-38617222D01*
X73948534Y-38533557D01*
X74118373Y-38482037D01*
X74184557Y-38475519D01*
X74250740Y-38469000D01*
X74339260Y-38469000D01*
X74405443Y-38475519D01*
X74405443Y-38475519D01*
G37*
G36*
X43346823Y-38531313D02*
G01*
X43507242Y-38579976D01*
X43576922Y-38617221D01*
X43655078Y-38658996D01*
X43784659Y-38765341D01*
X43891004Y-38894922D01*
X43891005Y-38894924D01*
X43970024Y-39042758D01*
X44018687Y-39203177D01*
X44035117Y-39370000D01*
X44018687Y-39536823D01*
X43970024Y-39697242D01*
X43940735Y-39752037D01*
X43891004Y-39845078D01*
X43784659Y-39974659D01*
X43655078Y-40081004D01*
X43655076Y-40081005D01*
X43507242Y-40160024D01*
X43346823Y-40208687D01*
X43221804Y-40221000D01*
X43138196Y-40221000D01*
X43013177Y-40208687D01*
X42852758Y-40160024D01*
X42704924Y-40081005D01*
X42704922Y-40081004D01*
X42575341Y-39974659D01*
X42468996Y-39845078D01*
X42419265Y-39752037D01*
X42389976Y-39697242D01*
X42341313Y-39536823D01*
X42324883Y-39370000D01*
X42341313Y-39203177D01*
X42389976Y-39042758D01*
X42468995Y-38894924D01*
X42468996Y-38894922D01*
X42575341Y-38765341D01*
X42704922Y-38658996D01*
X42783078Y-38617221D01*
X42852758Y-38579976D01*
X43013177Y-38531313D01*
X43138196Y-38519000D01*
X43221804Y-38519000D01*
X43346823Y-38531313D01*
X43346823Y-38531313D01*
G37*
G36*
X45886823Y-38531313D02*
G01*
X46047242Y-38579976D01*
X46116922Y-38617221D01*
X46195078Y-38658996D01*
X46324659Y-38765341D01*
X46431004Y-38894922D01*
X46431005Y-38894924D01*
X46510024Y-39042758D01*
X46558687Y-39203177D01*
X46575117Y-39370000D01*
X46558687Y-39536823D01*
X46510024Y-39697242D01*
X46480735Y-39752037D01*
X46431004Y-39845078D01*
X46324659Y-39974659D01*
X46195078Y-40081004D01*
X46195076Y-40081005D01*
X46047242Y-40160024D01*
X45886823Y-40208687D01*
X45761804Y-40221000D01*
X45678196Y-40221000D01*
X45553177Y-40208687D01*
X45392758Y-40160024D01*
X45244924Y-40081005D01*
X45244922Y-40081004D01*
X45115341Y-39974659D01*
X45008996Y-39845078D01*
X44959265Y-39752037D01*
X44929976Y-39697242D01*
X44881313Y-39536823D01*
X44864883Y-39370000D01*
X44881313Y-39203177D01*
X44929976Y-39042758D01*
X45008995Y-38894924D01*
X45008996Y-38894922D01*
X45115341Y-38765341D01*
X45244922Y-38658996D01*
X45323078Y-38617221D01*
X45392758Y-38579976D01*
X45553177Y-38531313D01*
X45678196Y-38519000D01*
X45761804Y-38519000D01*
X45886823Y-38531313D01*
X45886823Y-38531313D01*
G37*
G36*
X48426823Y-38531313D02*
G01*
X48587242Y-38579976D01*
X48656922Y-38617221D01*
X48735078Y-38658996D01*
X48864659Y-38765341D01*
X48971004Y-38894922D01*
X48971005Y-38894924D01*
X49050024Y-39042758D01*
X49098687Y-39203177D01*
X49115117Y-39370000D01*
X49098687Y-39536823D01*
X49050024Y-39697242D01*
X49020735Y-39752037D01*
X48971004Y-39845078D01*
X48864659Y-39974659D01*
X48735078Y-40081004D01*
X48735076Y-40081005D01*
X48587242Y-40160024D01*
X48426823Y-40208687D01*
X48301804Y-40221000D01*
X48218196Y-40221000D01*
X48093177Y-40208687D01*
X47932758Y-40160024D01*
X47784924Y-40081005D01*
X47784922Y-40081004D01*
X47655341Y-39974659D01*
X47548996Y-39845078D01*
X47499265Y-39752037D01*
X47469976Y-39697242D01*
X47421313Y-39536823D01*
X47404883Y-39370000D01*
X47421313Y-39203177D01*
X47469976Y-39042758D01*
X47548995Y-38894924D01*
X47548996Y-38894922D01*
X47655341Y-38765341D01*
X47784922Y-38658996D01*
X47863078Y-38617221D01*
X47932758Y-38579976D01*
X48093177Y-38531313D01*
X48218196Y-38519000D01*
X48301804Y-38519000D01*
X48426823Y-38531313D01*
X48426823Y-38531313D01*
G37*
G36*
X50966823Y-38531313D02*
G01*
X51127242Y-38579976D01*
X51196922Y-38617221D01*
X51275078Y-38658996D01*
X51404659Y-38765341D01*
X51511004Y-38894922D01*
X51511005Y-38894924D01*
X51590024Y-39042758D01*
X51638687Y-39203177D01*
X51655117Y-39370000D01*
X51638687Y-39536823D01*
X51590024Y-39697242D01*
X51560735Y-39752037D01*
X51511004Y-39845078D01*
X51404659Y-39974659D01*
X51275078Y-40081004D01*
X51275076Y-40081005D01*
X51127242Y-40160024D01*
X50966823Y-40208687D01*
X50841804Y-40221000D01*
X50758196Y-40221000D01*
X50633177Y-40208687D01*
X50472758Y-40160024D01*
X50324924Y-40081005D01*
X50324922Y-40081004D01*
X50195341Y-39974659D01*
X50088996Y-39845078D01*
X50039265Y-39752037D01*
X50009976Y-39697242D01*
X49961313Y-39536823D01*
X49944883Y-39370000D01*
X49961313Y-39203177D01*
X50009976Y-39042758D01*
X50088995Y-38894924D01*
X50088996Y-38894922D01*
X50195341Y-38765341D01*
X50324922Y-38658996D01*
X50403078Y-38617221D01*
X50472758Y-38579976D01*
X50633177Y-38531313D01*
X50758196Y-38519000D01*
X50841804Y-38519000D01*
X50966823Y-38531313D01*
X50966823Y-38531313D01*
G37*
G36*
X66206823Y-38531313D02*
G01*
X66367242Y-38579976D01*
X66436922Y-38617221D01*
X66515078Y-38658996D01*
X66644659Y-38765341D01*
X66751004Y-38894922D01*
X66751005Y-38894924D01*
X66830024Y-39042758D01*
X66878687Y-39203177D01*
X66895117Y-39370000D01*
X66878687Y-39536823D01*
X66830024Y-39697242D01*
X66800735Y-39752037D01*
X66751004Y-39845078D01*
X66644659Y-39974659D01*
X66515078Y-40081004D01*
X66515076Y-40081005D01*
X66367242Y-40160024D01*
X66206823Y-40208687D01*
X66081804Y-40221000D01*
X65998196Y-40221000D01*
X65873177Y-40208687D01*
X65712758Y-40160024D01*
X65564924Y-40081005D01*
X65564922Y-40081004D01*
X65435341Y-39974659D01*
X65328996Y-39845078D01*
X65279265Y-39752037D01*
X65249976Y-39697242D01*
X65201313Y-39536823D01*
X65184883Y-39370000D01*
X65201313Y-39203177D01*
X65249976Y-39042758D01*
X65328995Y-38894924D01*
X65328996Y-38894922D01*
X65435341Y-38765341D01*
X65564922Y-38658996D01*
X65643078Y-38617221D01*
X65712758Y-38579976D01*
X65873177Y-38531313D01*
X65998196Y-38519000D01*
X66081804Y-38519000D01*
X66206823Y-38531313D01*
X66206823Y-38531313D01*
G37*
G36*
X56046823Y-38531313D02*
G01*
X56207242Y-38579976D01*
X56276922Y-38617221D01*
X56355078Y-38658996D01*
X56484659Y-38765341D01*
X56591004Y-38894922D01*
X56591005Y-38894924D01*
X56670024Y-39042758D01*
X56718687Y-39203177D01*
X56735117Y-39370000D01*
X56718687Y-39536823D01*
X56670024Y-39697242D01*
X56640735Y-39752037D01*
X56591004Y-39845078D01*
X56484659Y-39974659D01*
X56355078Y-40081004D01*
X56355076Y-40081005D01*
X56207242Y-40160024D01*
X56046823Y-40208687D01*
X55921804Y-40221000D01*
X55838196Y-40221000D01*
X55713177Y-40208687D01*
X55552758Y-40160024D01*
X55404924Y-40081005D01*
X55404922Y-40081004D01*
X55275341Y-39974659D01*
X55168996Y-39845078D01*
X55119265Y-39752037D01*
X55089976Y-39697242D01*
X55041313Y-39536823D01*
X55024883Y-39370000D01*
X55041313Y-39203177D01*
X55089976Y-39042758D01*
X55168995Y-38894924D01*
X55168996Y-38894922D01*
X55275341Y-38765341D01*
X55404922Y-38658996D01*
X55483078Y-38617221D01*
X55552758Y-38579976D01*
X55713177Y-38531313D01*
X55838196Y-38519000D01*
X55921804Y-38519000D01*
X56046823Y-38531313D01*
X56046823Y-38531313D01*
G37*
G36*
X53506823Y-38531313D02*
G01*
X53667242Y-38579976D01*
X53736922Y-38617221D01*
X53815078Y-38658996D01*
X53944659Y-38765341D01*
X54051004Y-38894922D01*
X54051005Y-38894924D01*
X54130024Y-39042758D01*
X54178687Y-39203177D01*
X54195117Y-39370000D01*
X54178687Y-39536823D01*
X54130024Y-39697242D01*
X54100735Y-39752037D01*
X54051004Y-39845078D01*
X53944659Y-39974659D01*
X53815078Y-40081004D01*
X53815076Y-40081005D01*
X53667242Y-40160024D01*
X53506823Y-40208687D01*
X53381804Y-40221000D01*
X53298196Y-40221000D01*
X53173177Y-40208687D01*
X53012758Y-40160024D01*
X52864924Y-40081005D01*
X52864922Y-40081004D01*
X52735341Y-39974659D01*
X52628996Y-39845078D01*
X52579265Y-39752037D01*
X52549976Y-39697242D01*
X52501313Y-39536823D01*
X52484883Y-39370000D01*
X52501313Y-39203177D01*
X52549976Y-39042758D01*
X52628995Y-38894924D01*
X52628996Y-38894922D01*
X52735341Y-38765341D01*
X52864922Y-38658996D01*
X52943078Y-38617221D01*
X53012758Y-38579976D01*
X53173177Y-38531313D01*
X53298196Y-38519000D01*
X53381804Y-38519000D01*
X53506823Y-38531313D01*
X53506823Y-38531313D01*
G37*
G36*
X58586823Y-38531313D02*
G01*
X58747242Y-38579976D01*
X58816922Y-38617221D01*
X58895078Y-38658996D01*
X59024659Y-38765341D01*
X59131004Y-38894922D01*
X59131005Y-38894924D01*
X59210024Y-39042758D01*
X59258687Y-39203177D01*
X59275117Y-39370000D01*
X59258687Y-39536823D01*
X59210024Y-39697242D01*
X59180735Y-39752037D01*
X59131004Y-39845078D01*
X59024659Y-39974659D01*
X58895078Y-40081004D01*
X58895076Y-40081005D01*
X58747242Y-40160024D01*
X58586823Y-40208687D01*
X58461804Y-40221000D01*
X58378196Y-40221000D01*
X58253177Y-40208687D01*
X58092758Y-40160024D01*
X57944924Y-40081005D01*
X57944922Y-40081004D01*
X57815341Y-39974659D01*
X57708996Y-39845078D01*
X57659265Y-39752037D01*
X57629976Y-39697242D01*
X57581313Y-39536823D01*
X57564883Y-39370000D01*
X57581313Y-39203177D01*
X57629976Y-39042758D01*
X57708995Y-38894924D01*
X57708996Y-38894922D01*
X57815341Y-38765341D01*
X57944922Y-38658996D01*
X58023078Y-38617221D01*
X58092758Y-38579976D01*
X58253177Y-38531313D01*
X58378196Y-38519000D01*
X58461804Y-38519000D01*
X58586823Y-38531313D01*
X58586823Y-38531313D01*
G37*
G36*
X63666823Y-38531313D02*
G01*
X63827242Y-38579976D01*
X63896922Y-38617221D01*
X63975078Y-38658996D01*
X64104659Y-38765341D01*
X64211004Y-38894922D01*
X64211005Y-38894924D01*
X64290024Y-39042758D01*
X64338687Y-39203177D01*
X64355117Y-39370000D01*
X64338687Y-39536823D01*
X64290024Y-39697242D01*
X64260735Y-39752037D01*
X64211004Y-39845078D01*
X64104659Y-39974659D01*
X63975078Y-40081004D01*
X63975076Y-40081005D01*
X63827242Y-40160024D01*
X63666823Y-40208687D01*
X63541804Y-40221000D01*
X63458196Y-40221000D01*
X63333177Y-40208687D01*
X63172758Y-40160024D01*
X63024924Y-40081005D01*
X63024922Y-40081004D01*
X62895341Y-39974659D01*
X62788996Y-39845078D01*
X62739265Y-39752037D01*
X62709976Y-39697242D01*
X62661313Y-39536823D01*
X62644883Y-39370000D01*
X62661313Y-39203177D01*
X62709976Y-39042758D01*
X62788995Y-38894924D01*
X62788996Y-38894922D01*
X62895341Y-38765341D01*
X63024922Y-38658996D01*
X63103078Y-38617221D01*
X63172758Y-38579976D01*
X63333177Y-38531313D01*
X63458196Y-38519000D01*
X63541804Y-38519000D01*
X63666823Y-38531313D01*
X63666823Y-38531313D01*
G37*
G36*
X61126823Y-38531313D02*
G01*
X61287242Y-38579976D01*
X61356922Y-38617221D01*
X61435078Y-38658996D01*
X61564659Y-38765341D01*
X61671004Y-38894922D01*
X61671005Y-38894924D01*
X61750024Y-39042758D01*
X61798687Y-39203177D01*
X61815117Y-39370000D01*
X61798687Y-39536823D01*
X61750024Y-39697242D01*
X61720735Y-39752037D01*
X61671004Y-39845078D01*
X61564659Y-39974659D01*
X61435078Y-40081004D01*
X61435076Y-40081005D01*
X61287242Y-40160024D01*
X61126823Y-40208687D01*
X61001804Y-40221000D01*
X60918196Y-40221000D01*
X60793177Y-40208687D01*
X60632758Y-40160024D01*
X60484924Y-40081005D01*
X60484922Y-40081004D01*
X60355341Y-39974659D01*
X60248996Y-39845078D01*
X60199265Y-39752037D01*
X60169976Y-39697242D01*
X60121313Y-39536823D01*
X60104883Y-39370000D01*
X60121313Y-39203177D01*
X60169976Y-39042758D01*
X60248995Y-38894924D01*
X60248996Y-38894922D01*
X60355341Y-38765341D01*
X60484922Y-38658996D01*
X60563078Y-38617221D01*
X60632758Y-38579976D01*
X60793177Y-38531313D01*
X60918196Y-38519000D01*
X61001804Y-38519000D01*
X61126823Y-38531313D01*
X61126823Y-38531313D01*
G37*
G36*
X33765442Y-37205518D02*
G01*
X33831627Y-37212037D01*
X34001466Y-37263557D01*
X34157991Y-37347222D01*
X34193729Y-37376552D01*
X34295186Y-37459814D01*
X34378448Y-37561271D01*
X34407778Y-37597009D01*
X34491443Y-37753534D01*
X34542963Y-37923373D01*
X34560359Y-38100000D01*
X34542963Y-38276627D01*
X34491443Y-38446466D01*
X34407778Y-38602991D01*
X34378448Y-38638729D01*
X34295186Y-38740186D01*
X34193729Y-38823448D01*
X34157991Y-38852778D01*
X34001466Y-38936443D01*
X33831627Y-38987963D01*
X33765443Y-38994481D01*
X33699260Y-39001000D01*
X33610740Y-39001000D01*
X33544557Y-38994481D01*
X33478373Y-38987963D01*
X33308534Y-38936443D01*
X33152009Y-38852778D01*
X33116271Y-38823448D01*
X33014814Y-38740186D01*
X32931552Y-38638729D01*
X32902222Y-38602991D01*
X32818557Y-38446466D01*
X32767037Y-38276627D01*
X32749641Y-38100000D01*
X32767037Y-37923373D01*
X32818557Y-37753534D01*
X32902222Y-37597009D01*
X32931552Y-37561271D01*
X33014814Y-37459814D01*
X33116271Y-37376552D01*
X33152009Y-37347222D01*
X33308534Y-37263557D01*
X33478373Y-37212037D01*
X33544558Y-37205518D01*
X33610740Y-37199000D01*
X33699260Y-37199000D01*
X33765442Y-37205518D01*
X33765442Y-37205518D01*
G37*
G36*
X74405442Y-35935518D02*
G01*
X74471627Y-35942037D01*
X74641466Y-35993557D01*
X74797991Y-36077222D01*
X74833729Y-36106552D01*
X74935186Y-36189814D01*
X75018448Y-36291271D01*
X75047778Y-36327009D01*
X75131443Y-36483534D01*
X75182963Y-36653373D01*
X75200359Y-36830000D01*
X75182963Y-37006627D01*
X75131443Y-37176466D01*
X75047778Y-37332991D01*
X75018448Y-37368729D01*
X74935186Y-37470186D01*
X74833729Y-37553448D01*
X74797991Y-37582778D01*
X74641466Y-37666443D01*
X74471627Y-37717963D01*
X74405443Y-37724481D01*
X74339260Y-37731000D01*
X74250740Y-37731000D01*
X74184557Y-37724481D01*
X74118373Y-37717963D01*
X73948534Y-37666443D01*
X73792009Y-37582778D01*
X73756271Y-37553448D01*
X73654814Y-37470186D01*
X73571552Y-37368729D01*
X73542222Y-37332991D01*
X73458557Y-37176466D01*
X73407037Y-37006627D01*
X73389641Y-36830000D01*
X73407037Y-36653373D01*
X73458557Y-36483534D01*
X73542222Y-36327009D01*
X73571552Y-36291271D01*
X73654814Y-36189814D01*
X73756271Y-36106552D01*
X73792009Y-36077222D01*
X73948534Y-35993557D01*
X74118373Y-35942037D01*
X74184558Y-35935518D01*
X74250740Y-35929000D01*
X74339260Y-35929000D01*
X74405442Y-35935518D01*
X74405442Y-35935518D01*
G37*
G36*
X33765443Y-34665519D02*
G01*
X33831627Y-34672037D01*
X34001466Y-34723557D01*
X34157991Y-34807222D01*
X34193729Y-34836552D01*
X34295186Y-34919814D01*
X34378448Y-35021271D01*
X34407778Y-35057009D01*
X34491443Y-35213534D01*
X34542963Y-35383373D01*
X34560359Y-35560000D01*
X34542963Y-35736627D01*
X34491443Y-35906466D01*
X34407778Y-36062991D01*
X34378448Y-36098729D01*
X34295186Y-36200186D01*
X34193729Y-36283448D01*
X34157991Y-36312778D01*
X34001466Y-36396443D01*
X33831627Y-36447963D01*
X33765442Y-36454482D01*
X33699260Y-36461000D01*
X33610740Y-36461000D01*
X33544558Y-36454482D01*
X33478373Y-36447963D01*
X33308534Y-36396443D01*
X33152009Y-36312778D01*
X33116271Y-36283448D01*
X33014814Y-36200186D01*
X32931552Y-36098729D01*
X32902222Y-36062991D01*
X32818557Y-35906466D01*
X32767037Y-35736627D01*
X32749641Y-35560000D01*
X32767037Y-35383373D01*
X32818557Y-35213534D01*
X32902222Y-35057009D01*
X32931552Y-35021271D01*
X33014814Y-34919814D01*
X33116271Y-34836552D01*
X33152009Y-34807222D01*
X33308534Y-34723557D01*
X33478373Y-34672037D01*
X33544557Y-34665519D01*
X33610740Y-34659000D01*
X33699260Y-34659000D01*
X33765443Y-34665519D01*
X33765443Y-34665519D01*
G37*
G36*
X74405442Y-33395518D02*
G01*
X74471627Y-33402037D01*
X74641466Y-33453557D01*
X74797991Y-33537222D01*
X74833729Y-33566552D01*
X74935186Y-33649814D01*
X75018448Y-33751271D01*
X75047778Y-33787009D01*
X75131443Y-33943534D01*
X75182963Y-34113373D01*
X75200359Y-34290000D01*
X75182963Y-34466627D01*
X75131443Y-34636466D01*
X75047778Y-34792991D01*
X75018448Y-34828729D01*
X74935186Y-34930186D01*
X74833729Y-35013448D01*
X74797991Y-35042778D01*
X74641466Y-35126443D01*
X74471627Y-35177963D01*
X74405442Y-35184482D01*
X74339260Y-35191000D01*
X74250740Y-35191000D01*
X74184558Y-35184482D01*
X74118373Y-35177963D01*
X73948534Y-35126443D01*
X73792009Y-35042778D01*
X73756271Y-35013448D01*
X73654814Y-34930186D01*
X73571552Y-34828729D01*
X73542222Y-34792991D01*
X73458557Y-34636466D01*
X73407037Y-34466627D01*
X73389641Y-34290000D01*
X73407037Y-34113373D01*
X73458557Y-33943534D01*
X73542222Y-33787009D01*
X73571552Y-33751271D01*
X73654814Y-33649814D01*
X73756271Y-33566552D01*
X73792009Y-33537222D01*
X73948534Y-33453557D01*
X74118373Y-33402037D01*
X74184558Y-33395518D01*
X74250740Y-33389000D01*
X74339260Y-33389000D01*
X74405442Y-33395518D01*
X74405442Y-33395518D01*
G37*
G36*
X48571231Y-31994003D02*
G01*
X48765412Y-32074436D01*
X48765414Y-32074437D01*
X48940173Y-32191207D01*
X49088793Y-32339827D01*
X49205563Y-32514586D01*
X49205564Y-32514588D01*
X49285997Y-32708769D01*
X49327000Y-32914908D01*
X49327000Y-33125092D01*
X49285997Y-33331231D01*
X49235327Y-33453558D01*
X49205563Y-33525414D01*
X49088793Y-33700173D01*
X48940173Y-33848793D01*
X48765414Y-33965563D01*
X48765413Y-33965564D01*
X48765412Y-33965564D01*
X48571231Y-34045997D01*
X48365092Y-34087000D01*
X48154908Y-34087000D01*
X47948769Y-34045997D01*
X47754588Y-33965564D01*
X47754587Y-33965564D01*
X47754586Y-33965563D01*
X47579827Y-33848793D01*
X47431207Y-33700173D01*
X47314437Y-33525414D01*
X47284673Y-33453558D01*
X47234003Y-33331231D01*
X47193000Y-33125092D01*
X47193000Y-32914908D01*
X47234003Y-32708769D01*
X47314436Y-32514588D01*
X47314437Y-32514586D01*
X47431207Y-32339827D01*
X47579827Y-32191207D01*
X47754586Y-32074437D01*
X47754588Y-32074436D01*
X47948769Y-31994003D01*
X48154908Y-31953000D01*
X48365092Y-31953000D01*
X48571231Y-31994003D01*
X48571231Y-31994003D01*
G37*
G36*
X61271231Y-31994003D02*
G01*
X61465412Y-32074436D01*
X61465414Y-32074437D01*
X61640173Y-32191207D01*
X61788793Y-32339827D01*
X61905563Y-32514586D01*
X61905564Y-32514588D01*
X61985997Y-32708769D01*
X62027000Y-32914908D01*
X62027000Y-33125092D01*
X61985997Y-33331231D01*
X61935327Y-33453558D01*
X61905563Y-33525414D01*
X61788793Y-33700173D01*
X61640173Y-33848793D01*
X61465414Y-33965563D01*
X61465413Y-33965564D01*
X61465412Y-33965564D01*
X61271231Y-34045997D01*
X61065092Y-34087000D01*
X60854908Y-34087000D01*
X60648769Y-34045997D01*
X60454588Y-33965564D01*
X60454587Y-33965564D01*
X60454586Y-33965563D01*
X60279827Y-33848793D01*
X60131207Y-33700173D01*
X60014437Y-33525414D01*
X59984673Y-33453558D01*
X59934003Y-33331231D01*
X59893000Y-33125092D01*
X59893000Y-32914908D01*
X59934003Y-32708769D01*
X60014436Y-32514588D01*
X60014437Y-32514586D01*
X60131207Y-32339827D01*
X60279827Y-32191207D01*
X60454586Y-32074437D01*
X60454588Y-32074436D01*
X60648769Y-31994003D01*
X60854908Y-31953000D01*
X61065092Y-31953000D01*
X61271231Y-31994003D01*
X61271231Y-31994003D01*
G37*
G36*
X58731231Y-31994003D02*
G01*
X58925412Y-32074436D01*
X58925414Y-32074437D01*
X59100173Y-32191207D01*
X59248793Y-32339827D01*
X59365563Y-32514586D01*
X59365564Y-32514588D01*
X59445997Y-32708769D01*
X59487000Y-32914908D01*
X59487000Y-33125092D01*
X59445997Y-33331231D01*
X59395327Y-33453558D01*
X59365563Y-33525414D01*
X59248793Y-33700173D01*
X59100173Y-33848793D01*
X58925414Y-33965563D01*
X58925413Y-33965564D01*
X58925412Y-33965564D01*
X58731231Y-34045997D01*
X58525092Y-34087000D01*
X58314908Y-34087000D01*
X58108769Y-34045997D01*
X57914588Y-33965564D01*
X57914587Y-33965564D01*
X57914586Y-33965563D01*
X57739827Y-33848793D01*
X57591207Y-33700173D01*
X57474437Y-33525414D01*
X57444673Y-33453558D01*
X57394003Y-33331231D01*
X57353000Y-33125092D01*
X57353000Y-32914908D01*
X57394003Y-32708769D01*
X57474436Y-32514588D01*
X57474437Y-32514586D01*
X57591207Y-32339827D01*
X57739827Y-32191207D01*
X57914586Y-32074437D01*
X57914588Y-32074436D01*
X58108769Y-31994003D01*
X58314908Y-31953000D01*
X58525092Y-31953000D01*
X58731231Y-31994003D01*
X58731231Y-31994003D01*
G37*
G36*
X56191231Y-31994003D02*
G01*
X56385412Y-32074436D01*
X56385414Y-32074437D01*
X56560173Y-32191207D01*
X56708793Y-32339827D01*
X56825563Y-32514586D01*
X56825564Y-32514588D01*
X56905997Y-32708769D01*
X56947000Y-32914908D01*
X56947000Y-33125092D01*
X56905997Y-33331231D01*
X56855327Y-33453558D01*
X56825563Y-33525414D01*
X56708793Y-33700173D01*
X56560173Y-33848793D01*
X56385414Y-33965563D01*
X56385413Y-33965564D01*
X56385412Y-33965564D01*
X56191231Y-34045997D01*
X55985092Y-34087000D01*
X55774908Y-34087000D01*
X55568769Y-34045997D01*
X55374588Y-33965564D01*
X55374587Y-33965564D01*
X55374586Y-33965563D01*
X55199827Y-33848793D01*
X55051207Y-33700173D01*
X54934437Y-33525414D01*
X54904673Y-33453558D01*
X54854003Y-33331231D01*
X54813000Y-33125092D01*
X54813000Y-32914908D01*
X54854003Y-32708769D01*
X54934436Y-32514588D01*
X54934437Y-32514586D01*
X55051207Y-32339827D01*
X55199827Y-32191207D01*
X55374586Y-32074437D01*
X55374588Y-32074436D01*
X55568769Y-31994003D01*
X55774908Y-31953000D01*
X55985092Y-31953000D01*
X56191231Y-31994003D01*
X56191231Y-31994003D01*
G37*
G36*
X53651231Y-31994003D02*
G01*
X53845412Y-32074436D01*
X53845414Y-32074437D01*
X54020173Y-32191207D01*
X54168793Y-32339827D01*
X54285563Y-32514586D01*
X54285564Y-32514588D01*
X54365997Y-32708769D01*
X54407000Y-32914908D01*
X54407000Y-33125092D01*
X54365997Y-33331231D01*
X54315327Y-33453558D01*
X54285563Y-33525414D01*
X54168793Y-33700173D01*
X54020173Y-33848793D01*
X53845414Y-33965563D01*
X53845413Y-33965564D01*
X53845412Y-33965564D01*
X53651231Y-34045997D01*
X53445092Y-34087000D01*
X53234908Y-34087000D01*
X53028769Y-34045997D01*
X52834588Y-33965564D01*
X52834587Y-33965564D01*
X52834586Y-33965563D01*
X52659827Y-33848793D01*
X52511207Y-33700173D01*
X52394437Y-33525414D01*
X52364673Y-33453558D01*
X52314003Y-33331231D01*
X52273000Y-33125092D01*
X52273000Y-32914908D01*
X52314003Y-32708769D01*
X52394436Y-32514588D01*
X52394437Y-32514586D01*
X52511207Y-32339827D01*
X52659827Y-32191207D01*
X52834586Y-32074437D01*
X52834588Y-32074436D01*
X53028769Y-31994003D01*
X53234908Y-31953000D01*
X53445092Y-31953000D01*
X53651231Y-31994003D01*
X53651231Y-31994003D01*
G37*
G36*
X51111231Y-31994003D02*
G01*
X51305412Y-32074436D01*
X51305414Y-32074437D01*
X51480173Y-32191207D01*
X51628793Y-32339827D01*
X51745563Y-32514586D01*
X51745564Y-32514588D01*
X51825997Y-32708769D01*
X51867000Y-32914908D01*
X51867000Y-33125092D01*
X51825997Y-33331231D01*
X51775327Y-33453558D01*
X51745563Y-33525414D01*
X51628793Y-33700173D01*
X51480173Y-33848793D01*
X51305414Y-33965563D01*
X51305413Y-33965564D01*
X51305412Y-33965564D01*
X51111231Y-34045997D01*
X50905092Y-34087000D01*
X50694908Y-34087000D01*
X50488769Y-34045997D01*
X50294588Y-33965564D01*
X50294587Y-33965564D01*
X50294586Y-33965563D01*
X50119827Y-33848793D01*
X49971207Y-33700173D01*
X49854437Y-33525414D01*
X49824673Y-33453558D01*
X49774003Y-33331231D01*
X49733000Y-33125092D01*
X49733000Y-32914908D01*
X49774003Y-32708769D01*
X49854436Y-32514588D01*
X49854437Y-32514586D01*
X49971207Y-32339827D01*
X50119827Y-32191207D01*
X50294586Y-32074437D01*
X50294588Y-32074436D01*
X50488769Y-31994003D01*
X50694908Y-31953000D01*
X50905092Y-31953000D01*
X51111231Y-31994003D01*
X51111231Y-31994003D01*
G37*
G36*
X46031231Y-31994003D02*
G01*
X46225412Y-32074436D01*
X46225414Y-32074437D01*
X46400173Y-32191207D01*
X46548793Y-32339827D01*
X46665563Y-32514586D01*
X46665564Y-32514588D01*
X46745997Y-32708769D01*
X46787000Y-32914908D01*
X46787000Y-33125092D01*
X46745997Y-33331231D01*
X46695327Y-33453558D01*
X46665563Y-33525414D01*
X46548793Y-33700173D01*
X46400173Y-33848793D01*
X46225414Y-33965563D01*
X46225413Y-33965564D01*
X46225412Y-33965564D01*
X46031231Y-34045997D01*
X45825092Y-34087000D01*
X45614908Y-34087000D01*
X45408769Y-34045997D01*
X45214588Y-33965564D01*
X45214587Y-33965564D01*
X45214586Y-33965563D01*
X45039827Y-33848793D01*
X44891207Y-33700173D01*
X44774437Y-33525414D01*
X44744673Y-33453558D01*
X44694003Y-33331231D01*
X44653000Y-33125092D01*
X44653000Y-32914908D01*
X44694003Y-32708769D01*
X44774436Y-32514588D01*
X44774437Y-32514586D01*
X44891207Y-32339827D01*
X45039827Y-32191207D01*
X45214586Y-32074437D01*
X45214588Y-32074436D01*
X45408769Y-31994003D01*
X45614908Y-31953000D01*
X45825092Y-31953000D01*
X46031231Y-31994003D01*
X46031231Y-31994003D01*
G37*
G36*
X66351231Y-31994003D02*
G01*
X66545412Y-32074436D01*
X66545414Y-32074437D01*
X66720173Y-32191207D01*
X66868793Y-32339827D01*
X66985563Y-32514586D01*
X66985564Y-32514588D01*
X67065997Y-32708769D01*
X67107000Y-32914908D01*
X67107000Y-33125092D01*
X67065997Y-33331231D01*
X67015327Y-33453558D01*
X66985563Y-33525414D01*
X66868793Y-33700173D01*
X66720173Y-33848793D01*
X66545414Y-33965563D01*
X66545413Y-33965564D01*
X66545412Y-33965564D01*
X66351231Y-34045997D01*
X66145092Y-34087000D01*
X65934908Y-34087000D01*
X65728769Y-34045997D01*
X65534588Y-33965564D01*
X65534587Y-33965564D01*
X65534586Y-33965563D01*
X65359827Y-33848793D01*
X65211207Y-33700173D01*
X65094437Y-33525414D01*
X65064673Y-33453558D01*
X65014003Y-33331231D01*
X64973000Y-33125092D01*
X64973000Y-32914908D01*
X65014003Y-32708769D01*
X65094436Y-32514588D01*
X65094437Y-32514586D01*
X65211207Y-32339827D01*
X65359827Y-32191207D01*
X65534586Y-32074437D01*
X65534588Y-32074436D01*
X65728769Y-31994003D01*
X65934908Y-31953000D01*
X66145092Y-31953000D01*
X66351231Y-31994003D01*
X66351231Y-31994003D01*
G37*
G36*
X44247000Y-34087000D02*
G01*
X42113000Y-34087000D01*
X42113000Y-31953000D01*
X44247000Y-31953000D01*
X44247000Y-34087000D01*
X44247000Y-34087000D01*
G37*
G36*
X63811231Y-31994003D02*
G01*
X64005412Y-32074436D01*
X64005414Y-32074437D01*
X64180173Y-32191207D01*
X64328793Y-32339827D01*
X64445563Y-32514586D01*
X64445564Y-32514588D01*
X64525997Y-32708769D01*
X64567000Y-32914908D01*
X64567000Y-33125092D01*
X64525997Y-33331231D01*
X64475327Y-33453558D01*
X64445563Y-33525414D01*
X64328793Y-33700173D01*
X64180173Y-33848793D01*
X64005414Y-33965563D01*
X64005413Y-33965564D01*
X64005412Y-33965564D01*
X63811231Y-34045997D01*
X63605092Y-34087000D01*
X63394908Y-34087000D01*
X63188769Y-34045997D01*
X62994588Y-33965564D01*
X62994587Y-33965564D01*
X62994586Y-33965563D01*
X62819827Y-33848793D01*
X62671207Y-33700173D01*
X62554437Y-33525414D01*
X62524673Y-33453558D01*
X62474003Y-33331231D01*
X62433000Y-33125092D01*
X62433000Y-32914908D01*
X62474003Y-32708769D01*
X62554436Y-32514588D01*
X62554437Y-32514586D01*
X62671207Y-32339827D01*
X62819827Y-32191207D01*
X62994586Y-32074437D01*
X62994588Y-32074436D01*
X63188769Y-31994003D01*
X63394908Y-31953000D01*
X63605092Y-31953000D01*
X63811231Y-31994003D01*
X63811231Y-31994003D01*
G37*
G36*
X34556000Y-33921000D02*
G01*
X32754000Y-33921000D01*
X32754000Y-32119000D01*
X34556000Y-32119000D01*
X34556000Y-33921000D01*
X34556000Y-33921000D01*
G37*
G36*
X74405443Y-30855519D02*
G01*
X74471627Y-30862037D01*
X74641466Y-30913557D01*
X74797991Y-30997222D01*
X74833729Y-31026552D01*
X74935186Y-31109814D01*
X75018448Y-31211271D01*
X75047778Y-31247009D01*
X75131443Y-31403534D01*
X75182963Y-31573373D01*
X75200359Y-31750000D01*
X75182963Y-31926627D01*
X75131443Y-32096466D01*
X75047778Y-32252991D01*
X75018448Y-32288729D01*
X74935186Y-32390186D01*
X74833729Y-32473448D01*
X74797991Y-32502778D01*
X74641466Y-32586443D01*
X74471627Y-32637963D01*
X74405442Y-32644482D01*
X74339260Y-32651000D01*
X74250740Y-32651000D01*
X74184558Y-32644482D01*
X74118373Y-32637963D01*
X73948534Y-32586443D01*
X73792009Y-32502778D01*
X73756271Y-32473448D01*
X73654814Y-32390186D01*
X73571552Y-32288729D01*
X73542222Y-32252991D01*
X73458557Y-32096466D01*
X73407037Y-31926627D01*
X73389641Y-31750000D01*
X73407037Y-31573373D01*
X73458557Y-31403534D01*
X73542222Y-31247009D01*
X73571552Y-31211271D01*
X73654814Y-31109814D01*
X73756271Y-31026552D01*
X73792009Y-30997222D01*
X73948534Y-30913557D01*
X74118373Y-30862037D01*
X74184557Y-30855519D01*
X74250740Y-30849000D01*
X74339260Y-30849000D01*
X74405443Y-30855519D01*
X74405443Y-30855519D01*
G37*
G36*
X74405442Y-28315518D02*
G01*
X74471627Y-28322037D01*
X74641466Y-28373557D01*
X74797991Y-28457222D01*
X74833729Y-28486552D01*
X74935186Y-28569814D01*
X75018448Y-28671271D01*
X75047778Y-28707009D01*
X75131443Y-28863534D01*
X75182963Y-29033373D01*
X75200359Y-29210000D01*
X75182963Y-29386627D01*
X75131443Y-29556466D01*
X75047778Y-29712991D01*
X75018448Y-29748729D01*
X74935186Y-29850186D01*
X74833729Y-29933448D01*
X74797991Y-29962778D01*
X74641466Y-30046443D01*
X74471627Y-30097963D01*
X74405442Y-30104482D01*
X74339260Y-30111000D01*
X74250740Y-30111000D01*
X74184558Y-30104482D01*
X74118373Y-30097963D01*
X73948534Y-30046443D01*
X73792009Y-29962778D01*
X73756271Y-29933448D01*
X73654814Y-29850186D01*
X73571552Y-29748729D01*
X73542222Y-29712991D01*
X73458557Y-29556466D01*
X73407037Y-29386627D01*
X73389641Y-29210000D01*
X73407037Y-29033373D01*
X73458557Y-28863534D01*
X73542222Y-28707009D01*
X73571552Y-28671271D01*
X73654814Y-28569814D01*
X73756271Y-28486552D01*
X73792009Y-28457222D01*
X73948534Y-28373557D01*
X74118373Y-28322037D01*
X74184558Y-28315518D01*
X74250740Y-28309000D01*
X74339260Y-28309000D01*
X74405442Y-28315518D01*
X74405442Y-28315518D01*
G37*
G36*
X74405442Y-25775518D02*
G01*
X74471627Y-25782037D01*
X74641466Y-25833557D01*
X74797991Y-25917222D01*
X74833729Y-25946552D01*
X74935186Y-26029814D01*
X75018448Y-26131271D01*
X75047778Y-26167009D01*
X75131443Y-26323534D01*
X75182963Y-26493373D01*
X75200359Y-26670000D01*
X75182963Y-26846627D01*
X75131443Y-27016466D01*
X75047778Y-27172991D01*
X75018448Y-27208729D01*
X74935186Y-27310186D01*
X74833729Y-27393448D01*
X74797991Y-27422778D01*
X74641466Y-27506443D01*
X74471627Y-27557963D01*
X74405442Y-27564482D01*
X74339260Y-27571000D01*
X74250740Y-27571000D01*
X74184558Y-27564482D01*
X74118373Y-27557963D01*
X73948534Y-27506443D01*
X73792009Y-27422778D01*
X73756271Y-27393448D01*
X73654814Y-27310186D01*
X73571552Y-27208729D01*
X73542222Y-27172991D01*
X73458557Y-27016466D01*
X73407037Y-26846627D01*
X73389641Y-26670000D01*
X73407037Y-26493373D01*
X73458557Y-26323534D01*
X73542222Y-26167009D01*
X73571552Y-26131271D01*
X73654814Y-26029814D01*
X73756271Y-25946552D01*
X73792009Y-25917222D01*
X73948534Y-25833557D01*
X74118373Y-25782037D01*
X74184557Y-25775519D01*
X74250740Y-25769000D01*
X74339260Y-25769000D01*
X74405442Y-25775518D01*
X74405442Y-25775518D01*
G37*
G36*
X48571231Y-24374003D02*
G01*
X48765412Y-24454436D01*
X48765414Y-24454437D01*
X48940173Y-24571207D01*
X49088793Y-24719827D01*
X49205563Y-24894586D01*
X49205564Y-24894588D01*
X49285997Y-25088769D01*
X49327000Y-25294908D01*
X49327000Y-25505092D01*
X49285997Y-25711231D01*
X49235327Y-25833558D01*
X49205563Y-25905414D01*
X49088793Y-26080173D01*
X48940173Y-26228793D01*
X48765414Y-26345563D01*
X48765413Y-26345564D01*
X48765412Y-26345564D01*
X48571231Y-26425997D01*
X48365092Y-26467000D01*
X48154908Y-26467000D01*
X47948769Y-26425997D01*
X47754588Y-26345564D01*
X47754587Y-26345564D01*
X47754586Y-26345563D01*
X47579827Y-26228793D01*
X47431207Y-26080173D01*
X47314437Y-25905414D01*
X47284673Y-25833558D01*
X47234003Y-25711231D01*
X47193000Y-25505092D01*
X47193000Y-25294908D01*
X47234003Y-25088769D01*
X47314436Y-24894588D01*
X47314437Y-24894586D01*
X47431207Y-24719827D01*
X47579827Y-24571207D01*
X47754586Y-24454437D01*
X47754588Y-24454436D01*
X47948769Y-24374003D01*
X48154908Y-24333000D01*
X48365092Y-24333000D01*
X48571231Y-24374003D01*
X48571231Y-24374003D01*
G37*
G36*
X53651231Y-24374003D02*
G01*
X53845412Y-24454436D01*
X53845414Y-24454437D01*
X54020173Y-24571207D01*
X54168793Y-24719827D01*
X54285563Y-24894586D01*
X54285564Y-24894588D01*
X54365997Y-25088769D01*
X54407000Y-25294908D01*
X54407000Y-25505092D01*
X54365997Y-25711231D01*
X54315327Y-25833558D01*
X54285563Y-25905414D01*
X54168793Y-26080173D01*
X54020173Y-26228793D01*
X53845414Y-26345563D01*
X53845413Y-26345564D01*
X53845412Y-26345564D01*
X53651231Y-26425997D01*
X53445092Y-26467000D01*
X53234908Y-26467000D01*
X53028769Y-26425997D01*
X52834588Y-26345564D01*
X52834587Y-26345564D01*
X52834586Y-26345563D01*
X52659827Y-26228793D01*
X52511207Y-26080173D01*
X52394437Y-25905414D01*
X52364673Y-25833558D01*
X52314003Y-25711231D01*
X52273000Y-25505092D01*
X52273000Y-25294908D01*
X52314003Y-25088769D01*
X52394436Y-24894588D01*
X52394437Y-24894586D01*
X52511207Y-24719827D01*
X52659827Y-24571207D01*
X52834586Y-24454437D01*
X52834588Y-24454436D01*
X53028769Y-24374003D01*
X53234908Y-24333000D01*
X53445092Y-24333000D01*
X53651231Y-24374003D01*
X53651231Y-24374003D01*
G37*
G36*
X56191231Y-24374003D02*
G01*
X56385412Y-24454436D01*
X56385414Y-24454437D01*
X56560173Y-24571207D01*
X56708793Y-24719827D01*
X56825563Y-24894586D01*
X56825564Y-24894588D01*
X56905997Y-25088769D01*
X56947000Y-25294908D01*
X56947000Y-25505092D01*
X56905997Y-25711231D01*
X56855327Y-25833558D01*
X56825563Y-25905414D01*
X56708793Y-26080173D01*
X56560173Y-26228793D01*
X56385414Y-26345563D01*
X56385413Y-26345564D01*
X56385412Y-26345564D01*
X56191231Y-26425997D01*
X55985092Y-26467000D01*
X55774908Y-26467000D01*
X55568769Y-26425997D01*
X55374588Y-26345564D01*
X55374587Y-26345564D01*
X55374586Y-26345563D01*
X55199827Y-26228793D01*
X55051207Y-26080173D01*
X54934437Y-25905414D01*
X54904673Y-25833558D01*
X54854003Y-25711231D01*
X54813000Y-25505092D01*
X54813000Y-25294908D01*
X54854003Y-25088769D01*
X54934436Y-24894588D01*
X54934437Y-24894586D01*
X55051207Y-24719827D01*
X55199827Y-24571207D01*
X55374586Y-24454437D01*
X55374588Y-24454436D01*
X55568769Y-24374003D01*
X55774908Y-24333000D01*
X55985092Y-24333000D01*
X56191231Y-24374003D01*
X56191231Y-24374003D01*
G37*
G36*
X58731231Y-24374003D02*
G01*
X58925412Y-24454436D01*
X58925414Y-24454437D01*
X59100173Y-24571207D01*
X59248793Y-24719827D01*
X59365563Y-24894586D01*
X59365564Y-24894588D01*
X59445997Y-25088769D01*
X59487000Y-25294908D01*
X59487000Y-25505092D01*
X59445997Y-25711231D01*
X59395327Y-25833558D01*
X59365563Y-25905414D01*
X59248793Y-26080173D01*
X59100173Y-26228793D01*
X58925414Y-26345563D01*
X58925413Y-26345564D01*
X58925412Y-26345564D01*
X58731231Y-26425997D01*
X58525092Y-26467000D01*
X58314908Y-26467000D01*
X58108769Y-26425997D01*
X57914588Y-26345564D01*
X57914587Y-26345564D01*
X57914586Y-26345563D01*
X57739827Y-26228793D01*
X57591207Y-26080173D01*
X57474437Y-25905414D01*
X57444673Y-25833558D01*
X57394003Y-25711231D01*
X57353000Y-25505092D01*
X57353000Y-25294908D01*
X57394003Y-25088769D01*
X57474436Y-24894588D01*
X57474437Y-24894586D01*
X57591207Y-24719827D01*
X57739827Y-24571207D01*
X57914586Y-24454437D01*
X57914588Y-24454436D01*
X58108769Y-24374003D01*
X58314908Y-24333000D01*
X58525092Y-24333000D01*
X58731231Y-24374003D01*
X58731231Y-24374003D01*
G37*
G36*
X46031231Y-24374003D02*
G01*
X46225412Y-24454436D01*
X46225414Y-24454437D01*
X46400173Y-24571207D01*
X46548793Y-24719827D01*
X46665563Y-24894586D01*
X46665564Y-24894588D01*
X46745997Y-25088769D01*
X46787000Y-25294908D01*
X46787000Y-25505092D01*
X46745997Y-25711231D01*
X46695327Y-25833558D01*
X46665563Y-25905414D01*
X46548793Y-26080173D01*
X46400173Y-26228793D01*
X46225414Y-26345563D01*
X46225413Y-26345564D01*
X46225412Y-26345564D01*
X46031231Y-26425997D01*
X45825092Y-26467000D01*
X45614908Y-26467000D01*
X45408769Y-26425997D01*
X45214588Y-26345564D01*
X45214587Y-26345564D01*
X45214586Y-26345563D01*
X45039827Y-26228793D01*
X44891207Y-26080173D01*
X44774437Y-25905414D01*
X44744673Y-25833558D01*
X44694003Y-25711231D01*
X44653000Y-25505092D01*
X44653000Y-25294908D01*
X44694003Y-25088769D01*
X44774436Y-24894588D01*
X44774437Y-24894586D01*
X44891207Y-24719827D01*
X45039827Y-24571207D01*
X45214586Y-24454437D01*
X45214588Y-24454436D01*
X45408769Y-24374003D01*
X45614908Y-24333000D01*
X45825092Y-24333000D01*
X46031231Y-24374003D01*
X46031231Y-24374003D01*
G37*
G36*
X61271231Y-24374003D02*
G01*
X61465412Y-24454436D01*
X61465414Y-24454437D01*
X61640173Y-24571207D01*
X61788793Y-24719827D01*
X61905563Y-24894586D01*
X61905564Y-24894588D01*
X61985997Y-25088769D01*
X62027000Y-25294908D01*
X62027000Y-25505092D01*
X61985997Y-25711231D01*
X61935327Y-25833558D01*
X61905563Y-25905414D01*
X61788793Y-26080173D01*
X61640173Y-26228793D01*
X61465414Y-26345563D01*
X61465413Y-26345564D01*
X61465412Y-26345564D01*
X61271231Y-26425997D01*
X61065092Y-26467000D01*
X60854908Y-26467000D01*
X60648769Y-26425997D01*
X60454588Y-26345564D01*
X60454587Y-26345564D01*
X60454586Y-26345563D01*
X60279827Y-26228793D01*
X60131207Y-26080173D01*
X60014437Y-25905414D01*
X59984673Y-25833558D01*
X59934003Y-25711231D01*
X59893000Y-25505092D01*
X59893000Y-25294908D01*
X59934003Y-25088769D01*
X60014436Y-24894588D01*
X60014437Y-24894586D01*
X60131207Y-24719827D01*
X60279827Y-24571207D01*
X60454586Y-24454437D01*
X60454588Y-24454436D01*
X60648769Y-24374003D01*
X60854908Y-24333000D01*
X61065092Y-24333000D01*
X61271231Y-24374003D01*
X61271231Y-24374003D01*
G37*
G36*
X43491231Y-24374003D02*
G01*
X43685412Y-24454436D01*
X43685414Y-24454437D01*
X43860173Y-24571207D01*
X44008793Y-24719827D01*
X44125563Y-24894586D01*
X44125564Y-24894588D01*
X44205997Y-25088769D01*
X44247000Y-25294908D01*
X44247000Y-25505092D01*
X44205997Y-25711231D01*
X44155327Y-25833558D01*
X44125563Y-25905414D01*
X44008793Y-26080173D01*
X43860173Y-26228793D01*
X43685414Y-26345563D01*
X43685413Y-26345564D01*
X43685412Y-26345564D01*
X43491231Y-26425997D01*
X43285092Y-26467000D01*
X43074908Y-26467000D01*
X42868769Y-26425997D01*
X42674588Y-26345564D01*
X42674587Y-26345564D01*
X42674586Y-26345563D01*
X42499827Y-26228793D01*
X42351207Y-26080173D01*
X42234437Y-25905414D01*
X42204673Y-25833558D01*
X42154003Y-25711231D01*
X42113000Y-25505092D01*
X42113000Y-25294908D01*
X42154003Y-25088769D01*
X42234436Y-24894588D01*
X42234437Y-24894586D01*
X42351207Y-24719827D01*
X42499827Y-24571207D01*
X42674586Y-24454437D01*
X42674588Y-24454436D01*
X42868769Y-24374003D01*
X43074908Y-24333000D01*
X43285092Y-24333000D01*
X43491231Y-24374003D01*
X43491231Y-24374003D01*
G37*
G36*
X63811231Y-24374003D02*
G01*
X64005412Y-24454436D01*
X64005414Y-24454437D01*
X64180173Y-24571207D01*
X64328793Y-24719827D01*
X64445563Y-24894586D01*
X64445564Y-24894588D01*
X64525997Y-25088769D01*
X64567000Y-25294908D01*
X64567000Y-25505092D01*
X64525997Y-25711231D01*
X64475327Y-25833558D01*
X64445563Y-25905414D01*
X64328793Y-26080173D01*
X64180173Y-26228793D01*
X64005414Y-26345563D01*
X64005413Y-26345564D01*
X64005412Y-26345564D01*
X63811231Y-26425997D01*
X63605092Y-26467000D01*
X63394908Y-26467000D01*
X63188769Y-26425997D01*
X62994588Y-26345564D01*
X62994587Y-26345564D01*
X62994586Y-26345563D01*
X62819827Y-26228793D01*
X62671207Y-26080173D01*
X62554437Y-25905414D01*
X62524673Y-25833558D01*
X62474003Y-25711231D01*
X62433000Y-25505092D01*
X62433000Y-25294908D01*
X62474003Y-25088769D01*
X62554436Y-24894588D01*
X62554437Y-24894586D01*
X62671207Y-24719827D01*
X62819827Y-24571207D01*
X62994586Y-24454437D01*
X62994588Y-24454436D01*
X63188769Y-24374003D01*
X63394908Y-24333000D01*
X63605092Y-24333000D01*
X63811231Y-24374003D01*
X63811231Y-24374003D01*
G37*
G36*
X66351231Y-24374003D02*
G01*
X66545412Y-24454436D01*
X66545414Y-24454437D01*
X66720173Y-24571207D01*
X66868793Y-24719827D01*
X66985563Y-24894586D01*
X66985564Y-24894588D01*
X67065997Y-25088769D01*
X67107000Y-25294908D01*
X67107000Y-25505092D01*
X67065997Y-25711231D01*
X67015327Y-25833558D01*
X66985563Y-25905414D01*
X66868793Y-26080173D01*
X66720173Y-26228793D01*
X66545414Y-26345563D01*
X66545413Y-26345564D01*
X66545412Y-26345564D01*
X66351231Y-26425997D01*
X66145092Y-26467000D01*
X65934908Y-26467000D01*
X65728769Y-26425997D01*
X65534588Y-26345564D01*
X65534587Y-26345564D01*
X65534586Y-26345563D01*
X65359827Y-26228793D01*
X65211207Y-26080173D01*
X65094437Y-25905414D01*
X65064673Y-25833558D01*
X65014003Y-25711231D01*
X64973000Y-25505092D01*
X64973000Y-25294908D01*
X65014003Y-25088769D01*
X65094436Y-24894588D01*
X65094437Y-24894586D01*
X65211207Y-24719827D01*
X65359827Y-24571207D01*
X65534586Y-24454437D01*
X65534588Y-24454436D01*
X65728769Y-24374003D01*
X65934908Y-24333000D01*
X66145092Y-24333000D01*
X66351231Y-24374003D01*
X66351231Y-24374003D01*
G37*
G36*
X51111231Y-24374003D02*
G01*
X51305412Y-24454436D01*
X51305414Y-24454437D01*
X51480173Y-24571207D01*
X51628793Y-24719827D01*
X51745563Y-24894586D01*
X51745564Y-24894588D01*
X51825997Y-25088769D01*
X51867000Y-25294908D01*
X51867000Y-25505092D01*
X51825997Y-25711231D01*
X51775327Y-25833558D01*
X51745563Y-25905414D01*
X51628793Y-26080173D01*
X51480173Y-26228793D01*
X51305414Y-26345563D01*
X51305413Y-26345564D01*
X51305412Y-26345564D01*
X51111231Y-26425997D01*
X50905092Y-26467000D01*
X50694908Y-26467000D01*
X50488769Y-26425997D01*
X50294588Y-26345564D01*
X50294587Y-26345564D01*
X50294586Y-26345563D01*
X50119827Y-26228793D01*
X49971207Y-26080173D01*
X49854437Y-25905414D01*
X49824673Y-25833558D01*
X49774003Y-25711231D01*
X49733000Y-25505092D01*
X49733000Y-25294908D01*
X49774003Y-25088769D01*
X49854436Y-24894588D01*
X49854437Y-24894586D01*
X49971207Y-24719827D01*
X50119827Y-24571207D01*
X50294586Y-24454437D01*
X50294588Y-24454436D01*
X50488769Y-24374003D01*
X50694908Y-24333000D01*
X50905092Y-24333000D01*
X51111231Y-24374003D01*
X51111231Y-24374003D01*
G37*
G36*
X74405442Y-23235518D02*
G01*
X74471627Y-23242037D01*
X74641466Y-23293557D01*
X74797991Y-23377222D01*
X74833729Y-23406552D01*
X74935186Y-23489814D01*
X75018448Y-23591271D01*
X75047778Y-23627009D01*
X75131443Y-23783534D01*
X75182963Y-23953373D01*
X75200359Y-24130000D01*
X75182963Y-24306627D01*
X75131443Y-24476466D01*
X75047778Y-24632991D01*
X75018448Y-24668729D01*
X74935186Y-24770186D01*
X74833729Y-24853448D01*
X74797991Y-24882778D01*
X74641466Y-24966443D01*
X74471627Y-25017963D01*
X74405443Y-25024481D01*
X74339260Y-25031000D01*
X74250740Y-25031000D01*
X74184557Y-25024481D01*
X74118373Y-25017963D01*
X73948534Y-24966443D01*
X73792009Y-24882778D01*
X73756271Y-24853448D01*
X73654814Y-24770186D01*
X73571552Y-24668729D01*
X73542222Y-24632991D01*
X73458557Y-24476466D01*
X73407037Y-24306627D01*
X73389641Y-24130000D01*
X73407037Y-23953373D01*
X73458557Y-23783534D01*
X73542222Y-23627009D01*
X73571552Y-23591271D01*
X73654814Y-23489814D01*
X73756271Y-23406552D01*
X73792009Y-23377222D01*
X73948534Y-23293557D01*
X74118373Y-23242037D01*
X74184558Y-23235518D01*
X74250740Y-23229000D01*
X74339260Y-23229000D01*
X74405442Y-23235518D01*
X74405442Y-23235518D01*
G37*
G36*
X75196000Y-22491000D02*
G01*
X73394000Y-22491000D01*
X73394000Y-20689000D01*
X75196000Y-20689000D01*
X75196000Y-22491000D01*
X75196000Y-22491000D01*
G37*
G36*
X63666823Y-20751313D02*
G01*
X63827242Y-20799976D01*
X63959906Y-20870886D01*
X63975078Y-20878996D01*
X64104659Y-20985341D01*
X64211004Y-21114922D01*
X64211005Y-21114924D01*
X64290024Y-21262758D01*
X64338687Y-21423177D01*
X64355117Y-21590000D01*
X64338687Y-21756823D01*
X64290024Y-21917242D01*
X64219114Y-22049906D01*
X64211004Y-22065078D01*
X64104659Y-22194659D01*
X63975078Y-22301004D01*
X63975076Y-22301005D01*
X63827242Y-22380024D01*
X63666823Y-22428687D01*
X63541804Y-22441000D01*
X63458196Y-22441000D01*
X63333177Y-22428687D01*
X63172758Y-22380024D01*
X63024924Y-22301005D01*
X63024922Y-22301004D01*
X62895341Y-22194659D01*
X62788996Y-22065078D01*
X62780886Y-22049906D01*
X62709976Y-21917242D01*
X62661313Y-21756823D01*
X62644883Y-21590000D01*
X62661313Y-21423177D01*
X62709976Y-21262758D01*
X62788995Y-21114924D01*
X62788996Y-21114922D01*
X62895341Y-20985341D01*
X63024922Y-20878996D01*
X63040094Y-20870886D01*
X63172758Y-20799976D01*
X63333177Y-20751313D01*
X63458196Y-20739000D01*
X63541804Y-20739000D01*
X63666823Y-20751313D01*
X63666823Y-20751313D01*
G37*
G36*
X44031000Y-22441000D02*
G01*
X42329000Y-22441000D01*
X42329000Y-20739000D01*
X44031000Y-20739000D01*
X44031000Y-22441000D01*
X44031000Y-22441000D01*
G37*
G36*
X45886823Y-20751313D02*
G01*
X46047242Y-20799976D01*
X46179906Y-20870886D01*
X46195078Y-20878996D01*
X46324659Y-20985341D01*
X46431004Y-21114922D01*
X46431005Y-21114924D01*
X46510024Y-21262758D01*
X46558687Y-21423177D01*
X46575117Y-21590000D01*
X46558687Y-21756823D01*
X46510024Y-21917242D01*
X46439114Y-22049906D01*
X46431004Y-22065078D01*
X46324659Y-22194659D01*
X46195078Y-22301004D01*
X46195076Y-22301005D01*
X46047242Y-22380024D01*
X45886823Y-22428687D01*
X45761804Y-22441000D01*
X45678196Y-22441000D01*
X45553177Y-22428687D01*
X45392758Y-22380024D01*
X45244924Y-22301005D01*
X45244922Y-22301004D01*
X45115341Y-22194659D01*
X45008996Y-22065078D01*
X45000886Y-22049906D01*
X44929976Y-21917242D01*
X44881313Y-21756823D01*
X44864883Y-21590000D01*
X44881313Y-21423177D01*
X44929976Y-21262758D01*
X45008995Y-21114924D01*
X45008996Y-21114922D01*
X45115341Y-20985341D01*
X45244922Y-20878996D01*
X45260094Y-20870886D01*
X45392758Y-20799976D01*
X45553177Y-20751313D01*
X45678196Y-20739000D01*
X45761804Y-20739000D01*
X45886823Y-20751313D01*
X45886823Y-20751313D01*
G37*
G36*
X48426823Y-20751313D02*
G01*
X48587242Y-20799976D01*
X48719906Y-20870886D01*
X48735078Y-20878996D01*
X48864659Y-20985341D01*
X48971004Y-21114922D01*
X48971005Y-21114924D01*
X49050024Y-21262758D01*
X49098687Y-21423177D01*
X49115117Y-21590000D01*
X49098687Y-21756823D01*
X49050024Y-21917242D01*
X48979114Y-22049906D01*
X48971004Y-22065078D01*
X48864659Y-22194659D01*
X48735078Y-22301004D01*
X48735076Y-22301005D01*
X48587242Y-22380024D01*
X48426823Y-22428687D01*
X48301804Y-22441000D01*
X48218196Y-22441000D01*
X48093177Y-22428687D01*
X47932758Y-22380024D01*
X47784924Y-22301005D01*
X47784922Y-22301004D01*
X47655341Y-22194659D01*
X47548996Y-22065078D01*
X47540886Y-22049906D01*
X47469976Y-21917242D01*
X47421313Y-21756823D01*
X47404883Y-21590000D01*
X47421313Y-21423177D01*
X47469976Y-21262758D01*
X47548995Y-21114924D01*
X47548996Y-21114922D01*
X47655341Y-20985341D01*
X47784922Y-20878996D01*
X47800094Y-20870886D01*
X47932758Y-20799976D01*
X48093177Y-20751313D01*
X48218196Y-20739000D01*
X48301804Y-20739000D01*
X48426823Y-20751313D01*
X48426823Y-20751313D01*
G37*
G36*
X50966823Y-20751313D02*
G01*
X51127242Y-20799976D01*
X51259906Y-20870886D01*
X51275078Y-20878996D01*
X51404659Y-20985341D01*
X51511004Y-21114922D01*
X51511005Y-21114924D01*
X51590024Y-21262758D01*
X51638687Y-21423177D01*
X51655117Y-21590000D01*
X51638687Y-21756823D01*
X51590024Y-21917242D01*
X51519114Y-22049906D01*
X51511004Y-22065078D01*
X51404659Y-22194659D01*
X51275078Y-22301004D01*
X51275076Y-22301005D01*
X51127242Y-22380024D01*
X50966823Y-22428687D01*
X50841804Y-22441000D01*
X50758196Y-22441000D01*
X50633177Y-22428687D01*
X50472758Y-22380024D01*
X50324924Y-22301005D01*
X50324922Y-22301004D01*
X50195341Y-22194659D01*
X50088996Y-22065078D01*
X50080886Y-22049906D01*
X50009976Y-21917242D01*
X49961313Y-21756823D01*
X49944883Y-21590000D01*
X49961313Y-21423177D01*
X50009976Y-21262758D01*
X50088995Y-21114924D01*
X50088996Y-21114922D01*
X50195341Y-20985341D01*
X50324922Y-20878996D01*
X50340094Y-20870886D01*
X50472758Y-20799976D01*
X50633177Y-20751313D01*
X50758196Y-20739000D01*
X50841804Y-20739000D01*
X50966823Y-20751313D01*
X50966823Y-20751313D01*
G37*
G36*
X53506823Y-20751313D02*
G01*
X53667242Y-20799976D01*
X53799906Y-20870886D01*
X53815078Y-20878996D01*
X53944659Y-20985341D01*
X54051004Y-21114922D01*
X54051005Y-21114924D01*
X54130024Y-21262758D01*
X54178687Y-21423177D01*
X54195117Y-21590000D01*
X54178687Y-21756823D01*
X54130024Y-21917242D01*
X54059114Y-22049906D01*
X54051004Y-22065078D01*
X53944659Y-22194659D01*
X53815078Y-22301004D01*
X53815076Y-22301005D01*
X53667242Y-22380024D01*
X53506823Y-22428687D01*
X53381804Y-22441000D01*
X53298196Y-22441000D01*
X53173177Y-22428687D01*
X53012758Y-22380024D01*
X52864924Y-22301005D01*
X52864922Y-22301004D01*
X52735341Y-22194659D01*
X52628996Y-22065078D01*
X52620886Y-22049906D01*
X52549976Y-21917242D01*
X52501313Y-21756823D01*
X52484883Y-21590000D01*
X52501313Y-21423177D01*
X52549976Y-21262758D01*
X52628995Y-21114924D01*
X52628996Y-21114922D01*
X52735341Y-20985341D01*
X52864922Y-20878996D01*
X52880094Y-20870886D01*
X53012758Y-20799976D01*
X53173177Y-20751313D01*
X53298196Y-20739000D01*
X53381804Y-20739000D01*
X53506823Y-20751313D01*
X53506823Y-20751313D01*
G37*
G36*
X56046823Y-20751313D02*
G01*
X56207242Y-20799976D01*
X56339906Y-20870886D01*
X56355078Y-20878996D01*
X56484659Y-20985341D01*
X56591004Y-21114922D01*
X56591005Y-21114924D01*
X56670024Y-21262758D01*
X56718687Y-21423177D01*
X56735117Y-21590000D01*
X56718687Y-21756823D01*
X56670024Y-21917242D01*
X56599114Y-22049906D01*
X56591004Y-22065078D01*
X56484659Y-22194659D01*
X56355078Y-22301004D01*
X56355076Y-22301005D01*
X56207242Y-22380024D01*
X56046823Y-22428687D01*
X55921804Y-22441000D01*
X55838196Y-22441000D01*
X55713177Y-22428687D01*
X55552758Y-22380024D01*
X55404924Y-22301005D01*
X55404922Y-22301004D01*
X55275341Y-22194659D01*
X55168996Y-22065078D01*
X55160886Y-22049906D01*
X55089976Y-21917242D01*
X55041313Y-21756823D01*
X55024883Y-21590000D01*
X55041313Y-21423177D01*
X55089976Y-21262758D01*
X55168995Y-21114924D01*
X55168996Y-21114922D01*
X55275341Y-20985341D01*
X55404922Y-20878996D01*
X55420094Y-20870886D01*
X55552758Y-20799976D01*
X55713177Y-20751313D01*
X55838196Y-20739000D01*
X55921804Y-20739000D01*
X56046823Y-20751313D01*
X56046823Y-20751313D01*
G37*
G36*
X58586823Y-20751313D02*
G01*
X58747242Y-20799976D01*
X58879906Y-20870886D01*
X58895078Y-20878996D01*
X59024659Y-20985341D01*
X59131004Y-21114922D01*
X59131005Y-21114924D01*
X59210024Y-21262758D01*
X59258687Y-21423177D01*
X59275117Y-21590000D01*
X59258687Y-21756823D01*
X59210024Y-21917242D01*
X59139114Y-22049906D01*
X59131004Y-22065078D01*
X59024659Y-22194659D01*
X58895078Y-22301004D01*
X58895076Y-22301005D01*
X58747242Y-22380024D01*
X58586823Y-22428687D01*
X58461804Y-22441000D01*
X58378196Y-22441000D01*
X58253177Y-22428687D01*
X58092758Y-22380024D01*
X57944924Y-22301005D01*
X57944922Y-22301004D01*
X57815341Y-22194659D01*
X57708996Y-22065078D01*
X57700886Y-22049906D01*
X57629976Y-21917242D01*
X57581313Y-21756823D01*
X57564883Y-21590000D01*
X57581313Y-21423177D01*
X57629976Y-21262758D01*
X57708995Y-21114924D01*
X57708996Y-21114922D01*
X57815341Y-20985341D01*
X57944922Y-20878996D01*
X57960094Y-20870886D01*
X58092758Y-20799976D01*
X58253177Y-20751313D01*
X58378196Y-20739000D01*
X58461804Y-20739000D01*
X58586823Y-20751313D01*
X58586823Y-20751313D01*
G37*
G36*
X61126823Y-20751313D02*
G01*
X61287242Y-20799976D01*
X61419906Y-20870886D01*
X61435078Y-20878996D01*
X61564659Y-20985341D01*
X61671004Y-21114922D01*
X61671005Y-21114924D01*
X61750024Y-21262758D01*
X61798687Y-21423177D01*
X61815117Y-21590000D01*
X61798687Y-21756823D01*
X61750024Y-21917242D01*
X61679114Y-22049906D01*
X61671004Y-22065078D01*
X61564659Y-22194659D01*
X61435078Y-22301004D01*
X61435076Y-22301005D01*
X61287242Y-22380024D01*
X61126823Y-22428687D01*
X61001804Y-22441000D01*
X60918196Y-22441000D01*
X60793177Y-22428687D01*
X60632758Y-22380024D01*
X60484924Y-22301005D01*
X60484922Y-22301004D01*
X60355341Y-22194659D01*
X60248996Y-22065078D01*
X60240886Y-22049906D01*
X60169976Y-21917242D01*
X60121313Y-21756823D01*
X60104883Y-21590000D01*
X60121313Y-21423177D01*
X60169976Y-21262758D01*
X60248995Y-21114924D01*
X60248996Y-21114922D01*
X60355341Y-20985341D01*
X60484922Y-20878996D01*
X60500094Y-20870886D01*
X60632758Y-20799976D01*
X60793177Y-20751313D01*
X60918196Y-20739000D01*
X61001804Y-20739000D01*
X61126823Y-20751313D01*
X61126823Y-20751313D01*
G37*
M02*
