G04 #@! TF.GenerationSoftware,KiCad,Pcbnew,(5.1.2)-2*
G04 #@! TF.CreationDate,2019-08-11T20:37:08+02:00*
G04 #@! TF.ProjectId,Instruction-Register,496e7374-7275-4637-9469-6f6e2d526567,rev?*
G04 #@! TF.SameCoordinates,Original*
G04 #@! TF.FileFunction,Copper,L1,Top*
G04 #@! TF.FilePolarity,Positive*
%FSLAX46Y46*%
G04 Gerber Fmt 4.6, Leading zero omitted, Abs format (unit mm)*
G04 Created by KiCad (PCBNEW (5.1.2)-2) date 2019-08-11 20:37:08*
%MOMM*%
%LPD*%
G04 APERTURE LIST*
%ADD10O,1.700000X1.700000*%
%ADD11R,1.700000X1.700000*%
%ADD12R,2.032000X2.032000*%
%ADD13C,2.032000*%
%ADD14O,1.600000X1.600000*%
%ADD15R,1.600000X1.600000*%
%ADD16C,0.250000*%
%ADD17C,0.350000*%
G04 APERTURE END LIST*
D10*
X74295000Y-39370000D03*
X74295000Y-36830000D03*
X74295000Y-34290000D03*
X74295000Y-31750000D03*
X74295000Y-29210000D03*
X74295000Y-26670000D03*
X74295000Y-24130000D03*
D11*
X74295000Y-21590000D03*
D10*
X33655000Y-60960000D03*
X33655000Y-58420000D03*
X33655000Y-55880000D03*
X33655000Y-53340000D03*
X33655000Y-50800000D03*
X33655000Y-48260000D03*
X33655000Y-45720000D03*
X33655000Y-43180000D03*
X33655000Y-40640000D03*
X33655000Y-38100000D03*
X33655000Y-35560000D03*
D11*
X33655000Y-33020000D03*
D12*
X43180000Y-33020000D03*
D13*
X45720000Y-33020000D03*
X48260000Y-33020000D03*
X50800000Y-33020000D03*
X60960000Y-25400000D03*
X58420000Y-25400000D03*
X55880000Y-25400000D03*
X53340000Y-25400000D03*
X53340000Y-33020000D03*
X55880000Y-33020000D03*
X58420000Y-33020000D03*
X60960000Y-33020000D03*
X63500000Y-25400000D03*
X66040000Y-25400000D03*
X66040000Y-33020000D03*
X63500000Y-33020000D03*
X50800000Y-25400000D03*
X48260000Y-25400000D03*
X45720000Y-25400000D03*
X43180000Y-25400000D03*
D14*
X43180000Y-39370000D03*
X66040000Y-46990000D03*
X45720000Y-39370000D03*
X63500000Y-46990000D03*
X48260000Y-39370000D03*
X60960000Y-46990000D03*
X50800000Y-39370000D03*
X58420000Y-46990000D03*
X53340000Y-39370000D03*
X55880000Y-46990000D03*
X55880000Y-39370000D03*
X53340000Y-46990000D03*
X58420000Y-39370000D03*
X50800000Y-46990000D03*
X60960000Y-39370000D03*
X48260000Y-46990000D03*
X63500000Y-39370000D03*
X45720000Y-46990000D03*
X66040000Y-39370000D03*
D15*
X43180000Y-46990000D03*
X43180000Y-60960000D03*
D14*
X66040000Y-53340000D03*
X45720000Y-60960000D03*
X63500000Y-53340000D03*
X48260000Y-60960000D03*
X60960000Y-53340000D03*
X50800000Y-60960000D03*
X58420000Y-53340000D03*
X53340000Y-60960000D03*
X55880000Y-53340000D03*
X55880000Y-60960000D03*
X53340000Y-53340000D03*
X58420000Y-60960000D03*
X50800000Y-53340000D03*
X60960000Y-60960000D03*
X48260000Y-53340000D03*
X63500000Y-60960000D03*
X45720000Y-53340000D03*
X66040000Y-60960000D03*
X43180000Y-53340000D03*
D15*
X43180000Y-21590000D03*
D14*
X45720000Y-21590000D03*
X48260000Y-21590000D03*
X50800000Y-21590000D03*
X53340000Y-21590000D03*
X55880000Y-21590000D03*
X58420000Y-21590000D03*
X60960000Y-21590000D03*
X63500000Y-21590000D03*
D16*
X63101200Y-33020000D02*
X63500000Y-33020000D01*
X57150000Y-39703600D02*
X57150000Y-38971200D01*
X56186700Y-40666900D02*
X57150000Y-39703600D01*
X45720000Y-46990000D02*
X46860500Y-48130500D01*
X48727000Y-48130500D02*
X49418100Y-47439400D01*
X57150000Y-38971200D02*
X63101200Y-33020000D01*
X49418100Y-47439400D02*
X49418100Y-46755500D01*
X49418100Y-46755500D02*
X55506700Y-40666900D01*
X46860500Y-48130500D02*
X48727000Y-48130500D01*
X55506700Y-40666900D02*
X56186700Y-40666900D01*
X73119700Y-31750000D02*
X72988900Y-31619200D01*
X72988900Y-31619200D02*
X54740800Y-31619200D01*
X54740800Y-31619200D02*
X53340000Y-33020000D01*
X74295000Y-31750000D02*
X73119700Y-31750000D01*
X34830300Y-45720000D02*
X33655000Y-45720000D01*
X40055000Y-40495300D02*
X34830300Y-45720000D01*
X47134700Y-40495300D02*
X40055000Y-40495300D01*
X48260000Y-39370000D02*
X47134700Y-40495300D01*
X31966000Y-57569000D02*
X33655000Y-55880000D01*
X58420000Y-53340000D02*
X52889600Y-58870400D01*
X52889600Y-58870400D02*
X38555200Y-58870400D01*
X38555200Y-58870400D02*
X35275300Y-62150300D01*
X35275300Y-62150300D02*
X33163100Y-62150300D01*
X33163100Y-62150300D02*
X31966000Y-60953200D01*
X31966000Y-60953200D02*
X31966000Y-57569000D01*
X34830300Y-48260000D02*
X33655000Y-48260000D01*
X42025100Y-41065200D02*
X34830300Y-48260000D01*
X49104800Y-41065200D02*
X42025100Y-41065200D01*
X50800000Y-39370000D02*
X49104800Y-41065200D01*
X50800000Y-52889900D02*
X50800000Y-53340000D01*
X50800000Y-52889900D02*
X50800000Y-52214700D01*
X54610000Y-46564000D02*
X54610000Y-48404700D01*
X54610000Y-48404700D02*
X50800000Y-52214700D01*
X56843370Y-44618000D02*
X56556000Y-44618000D01*
X60960000Y-40501370D02*
X56843370Y-44618000D01*
X60960000Y-39370000D02*
X60960000Y-40501370D01*
X56556000Y-44618000D02*
X54610000Y-46564000D01*
X45720000Y-58420000D02*
X44069000Y-58420000D01*
X50800000Y-53340000D02*
X45720000Y-58420000D01*
X44069000Y-58420000D02*
X33655000Y-58420000D01*
X60585500Y-33020000D02*
X60960000Y-33020000D01*
X54610000Y-38995500D02*
X60585500Y-33020000D01*
X54610000Y-39796000D02*
X54610000Y-38995500D01*
X49059999Y-45346001D02*
X54610000Y-39796000D01*
X49059999Y-46190001D02*
X49059999Y-45346001D01*
X48260000Y-46990000D02*
X49059999Y-46190001D01*
X74295000Y-34290000D02*
X73119700Y-34290000D01*
X63579650Y-41830350D02*
X65579350Y-41830350D01*
X58420000Y-46990000D02*
X63579650Y-41830350D01*
X65579350Y-41830350D02*
X73119700Y-34290000D01*
X54732000Y-54488000D02*
X55880000Y-53340000D01*
X58420000Y-46990000D02*
X57620001Y-47789999D01*
X57620001Y-47789999D02*
X57277901Y-47789999D01*
X57277901Y-47789999D02*
X52167400Y-52900500D01*
X52167400Y-52900500D02*
X52167400Y-53795500D01*
X52167400Y-53795500D02*
X52859900Y-54488000D01*
X52859900Y-54488000D02*
X54732000Y-54488000D01*
X76558600Y-28933600D02*
X74295000Y-26670000D01*
X55880000Y-60960000D02*
X62230000Y-54610000D01*
X62230000Y-54610000D02*
X62230000Y-52998100D01*
X64939500Y-50288600D02*
X65918000Y-50288600D01*
X65918000Y-50288600D02*
X76558600Y-39648000D01*
X62230000Y-52998100D02*
X64939500Y-50288600D01*
X76558600Y-39648000D02*
X76558600Y-28933600D01*
X71988100Y-36830000D02*
X74295000Y-36830000D01*
X65521550Y-43296550D02*
X71988100Y-36830000D01*
X64653450Y-43296550D02*
X65521550Y-43296550D01*
X60960000Y-46990000D02*
X64653450Y-43296550D01*
X53340000Y-53340000D02*
X57426550Y-49253450D01*
X58696550Y-49253450D02*
X57426550Y-49253450D01*
X60960000Y-46990000D02*
X58696550Y-49253450D01*
X34830300Y-50800000D02*
X33655000Y-50800000D01*
X40194200Y-45436100D02*
X34830300Y-50800000D01*
X47273900Y-45436100D02*
X40194200Y-45436100D01*
X53340000Y-39370000D02*
X47273900Y-45436100D01*
X31065300Y-53389700D02*
X33655000Y-50800000D01*
X31065300Y-61326300D02*
X31065300Y-53389700D01*
X32790000Y-63051000D02*
X31065300Y-61326300D01*
X58869000Y-63051000D02*
X32790000Y-63051000D01*
X60960000Y-60960000D02*
X58869000Y-63051000D01*
X48260000Y-52214700D02*
X48260000Y-52777300D01*
X52070000Y-48404700D02*
X48260000Y-52214700D01*
X52070000Y-46585300D02*
X52070000Y-48404700D01*
X54087500Y-44567800D02*
X52070000Y-46585300D01*
X63500000Y-39370000D02*
X62374700Y-38244700D01*
X62374700Y-38244700D02*
X60492100Y-38244700D01*
X60492100Y-38244700D02*
X59689300Y-39047500D01*
X59689300Y-39047500D02*
X59689300Y-39697300D01*
X48260000Y-52777300D02*
X48260000Y-53340000D01*
X59689300Y-39697300D02*
X54818800Y-44567800D01*
X54818800Y-44567800D02*
X54087500Y-44567800D01*
X32468600Y-59773600D02*
X33655000Y-60960000D01*
X32468600Y-57943200D02*
X32468600Y-59773600D01*
X33261800Y-57150000D02*
X32468600Y-57943200D01*
X44450000Y-57150000D02*
X33261800Y-57150000D01*
X48260000Y-53340000D02*
X44450000Y-57150000D01*
X31515600Y-55479400D02*
X33655000Y-53340000D01*
X31515600Y-61139700D02*
X31515600Y-55479400D01*
X32976600Y-62600700D02*
X31515600Y-61139700D01*
X60960000Y-53340000D02*
X54838300Y-59461700D01*
X54838300Y-59461700D02*
X50641600Y-59461700D01*
X50641600Y-59461700D02*
X49530000Y-60573300D01*
X49530000Y-60573300D02*
X49530000Y-61310700D01*
X49530000Y-61310700D02*
X48240000Y-62600700D01*
X48240000Y-62600700D02*
X32976600Y-62600700D01*
X48171500Y-30568500D02*
X45720000Y-33020000D01*
X74850800Y-30568500D02*
X48171500Y-30568500D01*
X75470300Y-31188000D02*
X74850800Y-30568500D01*
X75470300Y-38194700D02*
X75470300Y-31188000D01*
X74295000Y-39370000D02*
X75470300Y-38194700D01*
X71120000Y-39370000D02*
X72771000Y-39370000D01*
X63500000Y-46990000D02*
X71120000Y-39370000D01*
X72771000Y-39370000D02*
X74295000Y-39370000D01*
D17*
X43180000Y-39370000D02*
X42004700Y-39370000D01*
X42004700Y-39370000D02*
X38194700Y-35560000D01*
X38194700Y-35560000D02*
X33655000Y-35560000D01*
M02*
