G04 #@! TF.GenerationSoftware,KiCad,Pcbnew,(5.1.2)-2*
G04 #@! TF.CreationDate,2019-08-11T20:37:08+02:00*
G04 #@! TF.ProjectId,Instruction-Register,496e7374-7275-4637-9469-6f6e2d526567,rev?*
G04 #@! TF.SameCoordinates,Original*
G04 #@! TF.FileFunction,Copper,L2,Bot*
G04 #@! TF.FilePolarity,Positive*
%FSLAX46Y46*%
G04 Gerber Fmt 4.6, Leading zero omitted, Abs format (unit mm)*
G04 Created by KiCad (PCBNEW (5.1.2)-2) date 2019-08-11 20:37:08*
%MOMM*%
%LPD*%
G04 APERTURE LIST*
%ADD10O,1.700000X1.700000*%
%ADD11R,1.700000X1.700000*%
%ADD12R,2.032000X2.032000*%
%ADD13C,2.032000*%
%ADD14O,1.600000X1.600000*%
%ADD15R,1.600000X1.600000*%
%ADD16C,0.250000*%
%ADD17C,0.350000*%
%ADD18C,0.254000*%
G04 APERTURE END LIST*
D10*
X74295000Y-39370000D03*
X74295000Y-36830000D03*
X74295000Y-34290000D03*
X74295000Y-31750000D03*
X74295000Y-29210000D03*
X74295000Y-26670000D03*
X74295000Y-24130000D03*
D11*
X74295000Y-21590000D03*
D10*
X33655000Y-60960000D03*
X33655000Y-58420000D03*
X33655000Y-55880000D03*
X33655000Y-53340000D03*
X33655000Y-50800000D03*
X33655000Y-48260000D03*
X33655000Y-45720000D03*
X33655000Y-43180000D03*
X33655000Y-40640000D03*
X33655000Y-38100000D03*
X33655000Y-35560000D03*
D11*
X33655000Y-33020000D03*
D12*
X43180000Y-33020000D03*
D13*
X45720000Y-33020000D03*
X48260000Y-33020000D03*
X50800000Y-33020000D03*
X60960000Y-25400000D03*
X58420000Y-25400000D03*
X55880000Y-25400000D03*
X53340000Y-25400000D03*
X53340000Y-33020000D03*
X55880000Y-33020000D03*
X58420000Y-33020000D03*
X60960000Y-33020000D03*
X63500000Y-25400000D03*
X66040000Y-25400000D03*
X66040000Y-33020000D03*
X63500000Y-33020000D03*
X50800000Y-25400000D03*
X48260000Y-25400000D03*
X45720000Y-25400000D03*
X43180000Y-25400000D03*
D14*
X43180000Y-39370000D03*
X66040000Y-46990000D03*
X45720000Y-39370000D03*
X63500000Y-46990000D03*
X48260000Y-39370000D03*
X60960000Y-46990000D03*
X50800000Y-39370000D03*
X58420000Y-46990000D03*
X53340000Y-39370000D03*
X55880000Y-46990000D03*
X55880000Y-39370000D03*
X53340000Y-46990000D03*
X58420000Y-39370000D03*
X50800000Y-46990000D03*
X60960000Y-39370000D03*
X48260000Y-46990000D03*
X63500000Y-39370000D03*
X45720000Y-46990000D03*
X66040000Y-39370000D03*
D15*
X43180000Y-46990000D03*
X43180000Y-60960000D03*
D14*
X66040000Y-53340000D03*
X45720000Y-60960000D03*
X63500000Y-53340000D03*
X48260000Y-60960000D03*
X60960000Y-53340000D03*
X50800000Y-60960000D03*
X58420000Y-53340000D03*
X53340000Y-60960000D03*
X55880000Y-53340000D03*
X55880000Y-60960000D03*
X53340000Y-53340000D03*
X58420000Y-60960000D03*
X50800000Y-53340000D03*
X60960000Y-60960000D03*
X48260000Y-53340000D03*
X63500000Y-60960000D03*
X45720000Y-53340000D03*
X66040000Y-60960000D03*
X43180000Y-53340000D03*
D15*
X43180000Y-21590000D03*
D14*
X45720000Y-21590000D03*
X48260000Y-21590000D03*
X50800000Y-21590000D03*
X53340000Y-21590000D03*
X55880000Y-21590000D03*
X58420000Y-21590000D03*
X60960000Y-21590000D03*
X63500000Y-21590000D03*
D16*
X45720000Y-21590000D02*
X45720000Y-25400000D01*
X48260000Y-21590000D02*
X48260000Y-25400000D01*
X50800000Y-21590000D02*
X50800000Y-25400000D01*
X53340000Y-21590000D02*
X53340000Y-25400000D01*
X55880000Y-21590000D02*
X55880000Y-25400000D01*
X58420000Y-21590000D02*
X58420000Y-25400000D01*
X60960000Y-21590000D02*
X60960000Y-25400000D01*
X63500000Y-21590000D02*
X63500000Y-25400000D01*
X43180000Y-59834700D02*
X43180000Y-60960000D01*
X36243100Y-52897800D02*
X43180000Y-59834700D01*
X36243100Y-43228100D02*
X36243100Y-52897800D01*
X33655000Y-40640000D02*
X36243100Y-43228100D01*
X64914700Y-55590600D02*
X66040000Y-54465300D01*
X32027100Y-39727900D02*
X32027100Y-61697000D01*
X32027100Y-61697000D02*
X33834000Y-63503900D01*
X66040000Y-54465300D02*
X66040000Y-53340000D01*
X33834000Y-63503900D02*
X62568300Y-63503900D01*
X33655000Y-38100000D02*
X32027100Y-39727900D01*
X62568300Y-63503900D02*
X64914700Y-61157500D01*
X64914700Y-61157500D02*
X64914700Y-55590600D01*
X45720000Y-46990000D02*
X45720000Y-48115300D01*
X45720000Y-60960000D02*
X45720000Y-59834700D01*
X45720000Y-59834700D02*
X46845300Y-58709400D01*
X46845300Y-58709400D02*
X46845300Y-49240600D01*
X46845300Y-49240600D02*
X45720000Y-48115300D01*
X63500000Y-31583160D02*
X63500000Y-33020000D01*
X63500000Y-31285000D02*
X63500000Y-31583160D01*
X73195000Y-21590000D02*
X63500000Y-31285000D01*
X74295000Y-21590000D02*
X73195000Y-21590000D01*
X55880000Y-46990000D02*
X55880000Y-45864700D01*
X55880000Y-45864700D02*
X54754700Y-44739400D01*
X54754700Y-44739400D02*
X54754700Y-34434700D01*
X54754700Y-34434700D02*
X53340000Y-33020000D01*
X64625300Y-52214700D02*
X63500000Y-53340000D01*
X64625300Y-44469300D02*
X64625300Y-52214700D01*
X73119700Y-35974900D02*
X64625300Y-44469300D01*
X73119700Y-32925300D02*
X73119700Y-35974900D01*
X74295000Y-31750000D02*
X73119700Y-32925300D01*
X34830300Y-46895300D02*
X33655000Y-45720000D01*
X34830300Y-55317300D02*
X34830300Y-46895300D01*
X42071800Y-62558800D02*
X34830300Y-55317300D01*
X49201200Y-62558800D02*
X42071800Y-62558800D01*
X50800000Y-60960000D02*
X49201200Y-62558800D01*
X58420000Y-39370000D02*
X58420000Y-40495300D01*
X58420000Y-53340000D02*
X58420000Y-52214700D01*
X58420000Y-52214700D02*
X59545300Y-51089400D01*
X59545300Y-51089400D02*
X59545300Y-41620600D01*
X59545300Y-41620600D02*
X58420000Y-40495300D01*
X32479700Y-49435300D02*
X33655000Y-48260000D01*
X32479700Y-61450000D02*
X32479700Y-49435300D01*
X34043100Y-63013400D02*
X32479700Y-61450000D01*
X56366600Y-63013400D02*
X34043100Y-63013400D01*
X58420000Y-60960000D02*
X56366600Y-63013400D01*
X48260000Y-46990000D02*
X48260000Y-48115300D01*
X53340000Y-60960000D02*
X53340000Y-59834700D01*
X53340000Y-59834700D02*
X49385300Y-55880000D01*
X49385300Y-55880000D02*
X49385300Y-49240600D01*
X49385300Y-49240600D02*
X48260000Y-48115300D01*
X62310600Y-34370600D02*
X60960000Y-33020000D01*
X66604800Y-34370600D02*
X62310600Y-34370600D01*
X72669400Y-28306000D02*
X66604800Y-34370600D01*
X72669400Y-25755600D02*
X72669400Y-28306000D01*
X74295000Y-24130000D02*
X72669400Y-25755600D01*
X55880000Y-53340000D02*
X55880000Y-48592400D01*
X55880000Y-48592400D02*
X54610000Y-47322400D01*
X54610000Y-47322400D02*
X54610000Y-46170200D01*
X54610000Y-46170200D02*
X51998600Y-43558800D01*
X51998600Y-43558800D02*
X51998600Y-34218600D01*
X51998600Y-34218600D02*
X50800000Y-33020000D01*
X50800000Y-46990000D02*
X50800000Y-48115300D01*
X55880000Y-60960000D02*
X55880000Y-59834700D01*
X55880000Y-59834700D02*
X51925300Y-55880000D01*
X51925300Y-55880000D02*
X51925300Y-49240600D01*
X51925300Y-49240600D02*
X50800000Y-48115300D01*
X60236700Y-34836700D02*
X58420000Y-33020000D01*
X66856100Y-34836700D02*
X60236700Y-34836700D01*
X73445001Y-28247799D02*
X66856100Y-34836700D01*
X73445001Y-27519999D02*
X73445001Y-28247799D01*
X74295000Y-26670000D02*
X73445001Y-27519999D01*
X48260000Y-33020000D02*
X49530000Y-34290000D01*
X49530000Y-34290000D02*
X49530000Y-42702400D01*
X49530000Y-42702400D02*
X51925400Y-45097800D01*
X51925400Y-45097800D02*
X51925400Y-47337600D01*
X51925400Y-47337600D02*
X53340000Y-48752200D01*
X53340000Y-48752200D02*
X53340000Y-53340000D01*
X55880000Y-40495300D02*
X55880000Y-39370000D01*
X57005300Y-41620600D02*
X55880000Y-40495300D01*
X57005300Y-53530000D02*
X57005300Y-41620600D01*
X57950100Y-54474800D02*
X57005300Y-53530000D01*
X59825200Y-54474800D02*
X57950100Y-54474800D01*
X60960000Y-53340000D02*
X59825200Y-54474800D01*
X62117400Y-54925100D02*
X62117400Y-38932700D01*
X63500000Y-59834700D02*
X62117400Y-58452100D01*
X62117400Y-58452100D02*
X62117400Y-54925100D01*
X53340000Y-48115300D02*
X54610000Y-49385300D01*
X54610000Y-49385300D02*
X54610000Y-53669000D01*
X54610000Y-53669000D02*
X55866100Y-54925100D01*
X55866100Y-54925100D02*
X62117400Y-54925100D01*
X53340000Y-46990000D02*
X53340000Y-48115300D01*
X63500000Y-60960000D02*
X63500000Y-59834700D01*
X62117400Y-38932700D02*
X56204700Y-33020000D01*
X56204700Y-33020000D02*
X55880000Y-33020000D01*
X73119700Y-29210000D02*
X65195300Y-37134400D01*
X65195300Y-37134400D02*
X63915700Y-37134400D01*
X63915700Y-37134400D02*
X62117400Y-38932700D01*
X74295000Y-29210000D02*
X73119700Y-29210000D01*
X44521400Y-34218600D02*
X45720000Y-33020000D01*
X44521400Y-52141400D02*
X44521400Y-34218600D01*
X45720000Y-53340000D02*
X44521400Y-52141400D01*
D17*
X43180000Y-53340000D02*
X43180000Y-46990000D01*
X43180000Y-46990000D02*
X43180000Y-39370000D01*
D16*
X35470900Y-44995900D02*
X33655000Y-43180000D01*
X35470900Y-55321000D02*
X35470900Y-44995900D01*
X42235300Y-62085400D02*
X35470900Y-55321000D01*
X47134600Y-62085400D02*
X42235300Y-62085400D01*
X48260000Y-60960000D02*
X47134600Y-62085400D01*
D18*
G36*
X79935001Y-66600000D02*
G01*
X28015000Y-66600000D01*
X28015000Y-39727900D01*
X31263424Y-39727900D01*
X31267100Y-39765222D01*
X31267101Y-61659667D01*
X31263424Y-61697000D01*
X31267101Y-61734333D01*
X31272895Y-61793154D01*
X31278098Y-61845985D01*
X31321554Y-61989246D01*
X31392126Y-62121276D01*
X31423030Y-62158932D01*
X31487100Y-62237001D01*
X31516098Y-62260799D01*
X33270205Y-64014908D01*
X33293999Y-64043901D01*
X33322992Y-64067695D01*
X33322996Y-64067699D01*
X33393685Y-64125711D01*
X33409724Y-64138874D01*
X33541753Y-64209446D01*
X33685014Y-64252903D01*
X33796667Y-64263900D01*
X33796676Y-64263900D01*
X33833999Y-64267576D01*
X33871322Y-64263900D01*
X62530978Y-64263900D01*
X62568300Y-64267576D01*
X62605622Y-64263900D01*
X62605633Y-64263900D01*
X62717286Y-64252903D01*
X62860547Y-64209446D01*
X62992576Y-64138874D01*
X63108301Y-64043901D01*
X63132104Y-64014897D01*
X65103519Y-62043483D01*
X65302580Y-62191037D01*
X65556913Y-62311246D01*
X65690961Y-62351904D01*
X65913000Y-62229915D01*
X65913000Y-61087000D01*
X66167000Y-61087000D01*
X66167000Y-62229915D01*
X66389039Y-62351904D01*
X66523087Y-62311246D01*
X66777420Y-62191037D01*
X67003414Y-62023519D01*
X67192385Y-61815131D01*
X67337070Y-61573881D01*
X67431909Y-61309040D01*
X67310624Y-61087000D01*
X66167000Y-61087000D01*
X65913000Y-61087000D01*
X65893000Y-61087000D01*
X65893000Y-60833000D01*
X65913000Y-60833000D01*
X65913000Y-59690085D01*
X66167000Y-59690085D01*
X66167000Y-60833000D01*
X67310624Y-60833000D01*
X67431909Y-60610960D01*
X67337070Y-60346119D01*
X67192385Y-60104869D01*
X67003414Y-59896481D01*
X66777420Y-59728963D01*
X66523087Y-59608754D01*
X66389039Y-59568096D01*
X66167000Y-59690085D01*
X65913000Y-59690085D01*
X65690961Y-59568096D01*
X65674700Y-59573028D01*
X65674700Y-55905401D01*
X66551004Y-55029098D01*
X66580001Y-55005301D01*
X66674974Y-54889576D01*
X66745546Y-54757547D01*
X66789003Y-54614286D01*
X66793942Y-54564139D01*
X66841101Y-54538932D01*
X67059608Y-54359608D01*
X67238932Y-54141101D01*
X67372182Y-53891808D01*
X67454236Y-53621309D01*
X67481943Y-53340000D01*
X67454236Y-53058691D01*
X67372182Y-52788192D01*
X67238932Y-52538899D01*
X67059608Y-52320392D01*
X66841101Y-52141068D01*
X66591808Y-52007818D01*
X66321309Y-51925764D01*
X66110492Y-51905000D01*
X65969508Y-51905000D01*
X65758691Y-51925764D01*
X65488192Y-52007818D01*
X65385300Y-52062815D01*
X65385300Y-48260134D01*
X65556913Y-48341246D01*
X65690961Y-48381904D01*
X65913000Y-48259915D01*
X65913000Y-47117000D01*
X66167000Y-47117000D01*
X66167000Y-48259915D01*
X66389039Y-48381904D01*
X66523087Y-48341246D01*
X66777420Y-48221037D01*
X67003414Y-48053519D01*
X67192385Y-47845131D01*
X67337070Y-47603881D01*
X67431909Y-47339040D01*
X67310624Y-47117000D01*
X66167000Y-47117000D01*
X65913000Y-47117000D01*
X65893000Y-47117000D01*
X65893000Y-46863000D01*
X65913000Y-46863000D01*
X65913000Y-45720085D01*
X66167000Y-45720085D01*
X66167000Y-46863000D01*
X67310624Y-46863000D01*
X67431909Y-46640960D01*
X67337070Y-46376119D01*
X67192385Y-46134869D01*
X67003414Y-45926481D01*
X66777420Y-45758963D01*
X66523087Y-45638754D01*
X66389039Y-45598096D01*
X66167000Y-45720085D01*
X65913000Y-45720085D01*
X65690961Y-45598096D01*
X65556913Y-45638754D01*
X65385300Y-45719866D01*
X65385300Y-44784101D01*
X72881947Y-37287455D01*
X72916401Y-37401034D01*
X73054294Y-37659014D01*
X73239866Y-37885134D01*
X73465986Y-38070706D01*
X73520791Y-38100000D01*
X73465986Y-38129294D01*
X73239866Y-38314866D01*
X73054294Y-38540986D01*
X72916401Y-38798966D01*
X72831487Y-39078889D01*
X72802815Y-39370000D01*
X72831487Y-39661111D01*
X72916401Y-39941034D01*
X73054294Y-40199014D01*
X73239866Y-40425134D01*
X73465986Y-40610706D01*
X73723966Y-40748599D01*
X74003889Y-40833513D01*
X74222050Y-40855000D01*
X74367950Y-40855000D01*
X74586111Y-40833513D01*
X74866034Y-40748599D01*
X75124014Y-40610706D01*
X75350134Y-40425134D01*
X75535706Y-40199014D01*
X75673599Y-39941034D01*
X75758513Y-39661111D01*
X75787185Y-39370000D01*
X75758513Y-39078889D01*
X75673599Y-38798966D01*
X75535706Y-38540986D01*
X75350134Y-38314866D01*
X75124014Y-38129294D01*
X75069209Y-38100000D01*
X75124014Y-38070706D01*
X75350134Y-37885134D01*
X75535706Y-37659014D01*
X75673599Y-37401034D01*
X75758513Y-37121111D01*
X75787185Y-36830000D01*
X75758513Y-36538889D01*
X75673599Y-36258966D01*
X75535706Y-36000986D01*
X75350134Y-35774866D01*
X75124014Y-35589294D01*
X75069209Y-35560000D01*
X75124014Y-35530706D01*
X75350134Y-35345134D01*
X75535706Y-35119014D01*
X75673599Y-34861034D01*
X75758513Y-34581111D01*
X75787185Y-34290000D01*
X75758513Y-33998889D01*
X75673599Y-33718966D01*
X75535706Y-33460986D01*
X75350134Y-33234866D01*
X75124014Y-33049294D01*
X75069209Y-33020000D01*
X75124014Y-32990706D01*
X75350134Y-32805134D01*
X75535706Y-32579014D01*
X75673599Y-32321034D01*
X75758513Y-32041111D01*
X75787185Y-31750000D01*
X75758513Y-31458889D01*
X75673599Y-31178966D01*
X75535706Y-30920986D01*
X75350134Y-30694866D01*
X75124014Y-30509294D01*
X75069209Y-30480000D01*
X75124014Y-30450706D01*
X75350134Y-30265134D01*
X75535706Y-30039014D01*
X75673599Y-29781034D01*
X75758513Y-29501111D01*
X75787185Y-29210000D01*
X75758513Y-28918889D01*
X75673599Y-28638966D01*
X75535706Y-28380986D01*
X75350134Y-28154866D01*
X75124014Y-27969294D01*
X75069209Y-27940000D01*
X75124014Y-27910706D01*
X75350134Y-27725134D01*
X75535706Y-27499014D01*
X75673599Y-27241034D01*
X75758513Y-26961111D01*
X75787185Y-26670000D01*
X75758513Y-26378889D01*
X75673599Y-26098966D01*
X75535706Y-25840986D01*
X75350134Y-25614866D01*
X75124014Y-25429294D01*
X75069209Y-25400000D01*
X75124014Y-25370706D01*
X75350134Y-25185134D01*
X75535706Y-24959014D01*
X75673599Y-24701034D01*
X75758513Y-24421111D01*
X75787185Y-24130000D01*
X75758513Y-23838889D01*
X75673599Y-23558966D01*
X75535706Y-23300986D01*
X75350134Y-23074866D01*
X75320313Y-23050393D01*
X75389180Y-23029502D01*
X75499494Y-22970537D01*
X75596185Y-22891185D01*
X75675537Y-22794494D01*
X75734502Y-22684180D01*
X75770812Y-22564482D01*
X75783072Y-22440000D01*
X75783072Y-20740000D01*
X75770812Y-20615518D01*
X75734502Y-20495820D01*
X75675537Y-20385506D01*
X75596185Y-20288815D01*
X75499494Y-20209463D01*
X75389180Y-20150498D01*
X75269482Y-20114188D01*
X75145000Y-20101928D01*
X73445000Y-20101928D01*
X73320518Y-20114188D01*
X73200820Y-20150498D01*
X73090506Y-20209463D01*
X72993815Y-20288815D01*
X72914463Y-20385506D01*
X72855498Y-20495820D01*
X72819188Y-20615518D01*
X72806928Y-20740000D01*
X72806928Y-20935674D01*
X72770724Y-20955026D01*
X72770722Y-20955027D01*
X72770723Y-20955027D01*
X72683996Y-21026201D01*
X72683992Y-21026205D01*
X72654999Y-21049999D01*
X72631205Y-21078992D01*
X67452636Y-26257562D01*
X67503097Y-26182042D01*
X67627553Y-25881579D01*
X67691000Y-25562609D01*
X67691000Y-25237391D01*
X67627553Y-24918421D01*
X67503097Y-24617958D01*
X67322415Y-24347549D01*
X67092451Y-24117585D01*
X66822042Y-23936903D01*
X66521579Y-23812447D01*
X66202609Y-23749000D01*
X65877391Y-23749000D01*
X65558421Y-23812447D01*
X65257958Y-23936903D01*
X64987549Y-24117585D01*
X64770000Y-24335134D01*
X64552451Y-24117585D01*
X64282042Y-23936903D01*
X64260000Y-23927773D01*
X64260000Y-22810901D01*
X64301101Y-22788932D01*
X64519608Y-22609608D01*
X64698932Y-22391101D01*
X64832182Y-22141808D01*
X64914236Y-21871309D01*
X64941943Y-21590000D01*
X64914236Y-21308691D01*
X64832182Y-21038192D01*
X64698932Y-20788899D01*
X64519608Y-20570392D01*
X64301101Y-20391068D01*
X64051808Y-20257818D01*
X63781309Y-20175764D01*
X63570492Y-20155000D01*
X63429508Y-20155000D01*
X63218691Y-20175764D01*
X62948192Y-20257818D01*
X62698899Y-20391068D01*
X62480392Y-20570392D01*
X62301068Y-20788899D01*
X62230000Y-20921858D01*
X62158932Y-20788899D01*
X61979608Y-20570392D01*
X61761101Y-20391068D01*
X61511808Y-20257818D01*
X61241309Y-20175764D01*
X61030492Y-20155000D01*
X60889508Y-20155000D01*
X60678691Y-20175764D01*
X60408192Y-20257818D01*
X60158899Y-20391068D01*
X59940392Y-20570392D01*
X59761068Y-20788899D01*
X59690000Y-20921858D01*
X59618932Y-20788899D01*
X59439608Y-20570392D01*
X59221101Y-20391068D01*
X58971808Y-20257818D01*
X58701309Y-20175764D01*
X58490492Y-20155000D01*
X58349508Y-20155000D01*
X58138691Y-20175764D01*
X57868192Y-20257818D01*
X57618899Y-20391068D01*
X57400392Y-20570392D01*
X57221068Y-20788899D01*
X57150000Y-20921858D01*
X57078932Y-20788899D01*
X56899608Y-20570392D01*
X56681101Y-20391068D01*
X56431808Y-20257818D01*
X56161309Y-20175764D01*
X55950492Y-20155000D01*
X55809508Y-20155000D01*
X55598691Y-20175764D01*
X55328192Y-20257818D01*
X55078899Y-20391068D01*
X54860392Y-20570392D01*
X54681068Y-20788899D01*
X54610000Y-20921858D01*
X54538932Y-20788899D01*
X54359608Y-20570392D01*
X54141101Y-20391068D01*
X53891808Y-20257818D01*
X53621309Y-20175764D01*
X53410492Y-20155000D01*
X53269508Y-20155000D01*
X53058691Y-20175764D01*
X52788192Y-20257818D01*
X52538899Y-20391068D01*
X52320392Y-20570392D01*
X52141068Y-20788899D01*
X52070000Y-20921858D01*
X51998932Y-20788899D01*
X51819608Y-20570392D01*
X51601101Y-20391068D01*
X51351808Y-20257818D01*
X51081309Y-20175764D01*
X50870492Y-20155000D01*
X50729508Y-20155000D01*
X50518691Y-20175764D01*
X50248192Y-20257818D01*
X49998899Y-20391068D01*
X49780392Y-20570392D01*
X49601068Y-20788899D01*
X49530000Y-20921858D01*
X49458932Y-20788899D01*
X49279608Y-20570392D01*
X49061101Y-20391068D01*
X48811808Y-20257818D01*
X48541309Y-20175764D01*
X48330492Y-20155000D01*
X48189508Y-20155000D01*
X47978691Y-20175764D01*
X47708192Y-20257818D01*
X47458899Y-20391068D01*
X47240392Y-20570392D01*
X47061068Y-20788899D01*
X46990000Y-20921858D01*
X46918932Y-20788899D01*
X46739608Y-20570392D01*
X46521101Y-20391068D01*
X46271808Y-20257818D01*
X46001309Y-20175764D01*
X45790492Y-20155000D01*
X45649508Y-20155000D01*
X45438691Y-20175764D01*
X45168192Y-20257818D01*
X44918899Y-20391068D01*
X44700392Y-20570392D01*
X44607581Y-20683482D01*
X44605812Y-20665518D01*
X44569502Y-20545820D01*
X44510537Y-20435506D01*
X44431185Y-20338815D01*
X44334494Y-20259463D01*
X44224180Y-20200498D01*
X44104482Y-20164188D01*
X43980000Y-20151928D01*
X43465750Y-20155000D01*
X43307000Y-20313750D01*
X43307000Y-21463000D01*
X43327000Y-21463000D01*
X43327000Y-21717000D01*
X43307000Y-21717000D01*
X43307000Y-22866250D01*
X43465750Y-23025000D01*
X43980000Y-23028072D01*
X44104482Y-23015812D01*
X44224180Y-22979502D01*
X44334494Y-22920537D01*
X44431185Y-22841185D01*
X44510537Y-22744494D01*
X44569502Y-22634180D01*
X44605812Y-22514482D01*
X44607581Y-22496518D01*
X44700392Y-22609608D01*
X44918899Y-22788932D01*
X44960000Y-22810901D01*
X44960001Y-23927773D01*
X44937958Y-23936903D01*
X44667549Y-24117585D01*
X44450000Y-24335134D01*
X44232451Y-24117585D01*
X43962042Y-23936903D01*
X43661579Y-23812447D01*
X43342609Y-23749000D01*
X43017391Y-23749000D01*
X42698421Y-23812447D01*
X42397958Y-23936903D01*
X42127549Y-24117585D01*
X41897585Y-24347549D01*
X41716903Y-24617958D01*
X41592447Y-24918421D01*
X41529000Y-25237391D01*
X41529000Y-25562609D01*
X41592447Y-25881579D01*
X41716903Y-26182042D01*
X41897585Y-26452451D01*
X42127549Y-26682415D01*
X42397958Y-26863097D01*
X42698421Y-26987553D01*
X43017391Y-27051000D01*
X43342609Y-27051000D01*
X43661579Y-26987553D01*
X43962042Y-26863097D01*
X44232451Y-26682415D01*
X44450000Y-26464866D01*
X44667549Y-26682415D01*
X44937958Y-26863097D01*
X45238421Y-26987553D01*
X45557391Y-27051000D01*
X45882609Y-27051000D01*
X46201579Y-26987553D01*
X46502042Y-26863097D01*
X46772451Y-26682415D01*
X46990000Y-26464866D01*
X47207549Y-26682415D01*
X47477958Y-26863097D01*
X47778421Y-26987553D01*
X48097391Y-27051000D01*
X48422609Y-27051000D01*
X48741579Y-26987553D01*
X49042042Y-26863097D01*
X49312451Y-26682415D01*
X49530000Y-26464866D01*
X49747549Y-26682415D01*
X50017958Y-26863097D01*
X50318421Y-26987553D01*
X50637391Y-27051000D01*
X50962609Y-27051000D01*
X51281579Y-26987553D01*
X51582042Y-26863097D01*
X51852451Y-26682415D01*
X52070000Y-26464866D01*
X52287549Y-26682415D01*
X52557958Y-26863097D01*
X52858421Y-26987553D01*
X53177391Y-27051000D01*
X53502609Y-27051000D01*
X53821579Y-26987553D01*
X54122042Y-26863097D01*
X54392451Y-26682415D01*
X54610000Y-26464866D01*
X54827549Y-26682415D01*
X55097958Y-26863097D01*
X55398421Y-26987553D01*
X55717391Y-27051000D01*
X56042609Y-27051000D01*
X56361579Y-26987553D01*
X56662042Y-26863097D01*
X56932451Y-26682415D01*
X57150000Y-26464866D01*
X57367549Y-26682415D01*
X57637958Y-26863097D01*
X57938421Y-26987553D01*
X58257391Y-27051000D01*
X58582609Y-27051000D01*
X58901579Y-26987553D01*
X59202042Y-26863097D01*
X59472451Y-26682415D01*
X59690000Y-26464866D01*
X59907549Y-26682415D01*
X60177958Y-26863097D01*
X60478421Y-26987553D01*
X60797391Y-27051000D01*
X61122609Y-27051000D01*
X61441579Y-26987553D01*
X61742042Y-26863097D01*
X62012451Y-26682415D01*
X62230000Y-26464866D01*
X62447549Y-26682415D01*
X62717958Y-26863097D01*
X63018421Y-26987553D01*
X63337391Y-27051000D01*
X63662609Y-27051000D01*
X63981579Y-26987553D01*
X64282042Y-26863097D01*
X64552451Y-26682415D01*
X64770000Y-26464866D01*
X64987549Y-26682415D01*
X65257958Y-26863097D01*
X65558421Y-26987553D01*
X65877391Y-27051000D01*
X66202609Y-27051000D01*
X66521579Y-26987553D01*
X66822042Y-26863097D01*
X66897563Y-26812636D01*
X62989003Y-30721196D01*
X62959999Y-30744999D01*
X62904871Y-30812174D01*
X62865026Y-30860724D01*
X62832815Y-30920986D01*
X62794454Y-30992754D01*
X62750997Y-31136015D01*
X62740000Y-31247668D01*
X62740000Y-31247678D01*
X62736324Y-31285000D01*
X62740000Y-31322322D01*
X62740000Y-31547773D01*
X62717958Y-31556903D01*
X62447549Y-31737585D01*
X62230000Y-31955134D01*
X62012451Y-31737585D01*
X61742042Y-31556903D01*
X61441579Y-31432447D01*
X61122609Y-31369000D01*
X60797391Y-31369000D01*
X60478421Y-31432447D01*
X60177958Y-31556903D01*
X59907549Y-31737585D01*
X59690000Y-31955134D01*
X59472451Y-31737585D01*
X59202042Y-31556903D01*
X58901579Y-31432447D01*
X58582609Y-31369000D01*
X58257391Y-31369000D01*
X57938421Y-31432447D01*
X57637958Y-31556903D01*
X57367549Y-31737585D01*
X57150000Y-31955134D01*
X56932451Y-31737585D01*
X56662042Y-31556903D01*
X56361579Y-31432447D01*
X56042609Y-31369000D01*
X55717391Y-31369000D01*
X55398421Y-31432447D01*
X55097958Y-31556903D01*
X54827549Y-31737585D01*
X54610000Y-31955134D01*
X54392451Y-31737585D01*
X54122042Y-31556903D01*
X53821579Y-31432447D01*
X53502609Y-31369000D01*
X53177391Y-31369000D01*
X52858421Y-31432447D01*
X52557958Y-31556903D01*
X52287549Y-31737585D01*
X52070000Y-31955134D01*
X51852451Y-31737585D01*
X51582042Y-31556903D01*
X51281579Y-31432447D01*
X50962609Y-31369000D01*
X50637391Y-31369000D01*
X50318421Y-31432447D01*
X50017958Y-31556903D01*
X49747549Y-31737585D01*
X49530000Y-31955134D01*
X49312451Y-31737585D01*
X49042042Y-31556903D01*
X48741579Y-31432447D01*
X48422609Y-31369000D01*
X48097391Y-31369000D01*
X47778421Y-31432447D01*
X47477958Y-31556903D01*
X47207549Y-31737585D01*
X46990000Y-31955134D01*
X46772451Y-31737585D01*
X46502042Y-31556903D01*
X46201579Y-31432447D01*
X45882609Y-31369000D01*
X45557391Y-31369000D01*
X45238421Y-31432447D01*
X44937958Y-31556903D01*
X44745704Y-31685364D01*
X44726537Y-31649506D01*
X44647185Y-31552815D01*
X44550494Y-31473463D01*
X44440180Y-31414498D01*
X44320482Y-31378188D01*
X44196000Y-31365928D01*
X42164000Y-31365928D01*
X42039518Y-31378188D01*
X41919820Y-31414498D01*
X41809506Y-31473463D01*
X41712815Y-31552815D01*
X41633463Y-31649506D01*
X41574498Y-31759820D01*
X41538188Y-31879518D01*
X41525928Y-32004000D01*
X41525928Y-34036000D01*
X41538188Y-34160482D01*
X41574498Y-34280180D01*
X41633463Y-34390494D01*
X41712815Y-34487185D01*
X41809506Y-34566537D01*
X41919820Y-34625502D01*
X42039518Y-34661812D01*
X42164000Y-34674072D01*
X43761401Y-34674072D01*
X43761401Y-38053636D01*
X43731808Y-38037818D01*
X43461309Y-37955764D01*
X43250492Y-37935000D01*
X43109508Y-37935000D01*
X42898691Y-37955764D01*
X42628192Y-38037818D01*
X42378899Y-38171068D01*
X42160392Y-38350392D01*
X41981068Y-38568899D01*
X41847818Y-38818192D01*
X41765764Y-39088691D01*
X41738057Y-39370000D01*
X41765764Y-39651309D01*
X41847818Y-39921808D01*
X41981068Y-40171101D01*
X42160392Y-40389608D01*
X42370001Y-40561629D01*
X42370000Y-45552913D01*
X42255518Y-45564188D01*
X42135820Y-45600498D01*
X42025506Y-45659463D01*
X41928815Y-45738815D01*
X41849463Y-45835506D01*
X41790498Y-45945820D01*
X41754188Y-46065518D01*
X41741928Y-46190000D01*
X41741928Y-47790000D01*
X41754188Y-47914482D01*
X41790498Y-48034180D01*
X41849463Y-48144494D01*
X41928815Y-48241185D01*
X42025506Y-48320537D01*
X42135820Y-48379502D01*
X42255518Y-48415812D01*
X42370001Y-48427087D01*
X42370000Y-52148371D01*
X42160392Y-52320392D01*
X41981068Y-52538899D01*
X41847818Y-52788192D01*
X41765764Y-53058691D01*
X41738057Y-53340000D01*
X41765764Y-53621309D01*
X41847818Y-53891808D01*
X41981068Y-54141101D01*
X42160392Y-54359608D01*
X42378899Y-54538932D01*
X42628192Y-54672182D01*
X42898691Y-54754236D01*
X43109508Y-54775000D01*
X43250492Y-54775000D01*
X43461309Y-54754236D01*
X43731808Y-54672182D01*
X43981101Y-54538932D01*
X44199608Y-54359608D01*
X44378932Y-54141101D01*
X44450000Y-54008142D01*
X44521068Y-54141101D01*
X44700392Y-54359608D01*
X44918899Y-54538932D01*
X45168192Y-54672182D01*
X45438691Y-54754236D01*
X45649508Y-54775000D01*
X45790492Y-54775000D01*
X46001309Y-54754236D01*
X46085300Y-54728758D01*
X46085300Y-58394598D01*
X45208998Y-59270901D01*
X45180000Y-59294699D01*
X45156203Y-59323696D01*
X45156201Y-59323698D01*
X45085026Y-59410424D01*
X45014454Y-59542454D01*
X45002640Y-59581401D01*
X44970998Y-59685714D01*
X44968723Y-59708815D01*
X44966059Y-59735860D01*
X44918899Y-59761068D01*
X44700392Y-59940392D01*
X44607581Y-60053482D01*
X44605812Y-60035518D01*
X44569502Y-59915820D01*
X44510537Y-59805506D01*
X44431185Y-59708815D01*
X44334494Y-59629463D01*
X44224180Y-59570498D01*
X44104482Y-59534188D01*
X43980000Y-59521928D01*
X43874575Y-59521928D01*
X43840620Y-59458403D01*
X43814974Y-59410423D01*
X43743799Y-59323697D01*
X43743798Y-59323696D01*
X43720001Y-59294699D01*
X43691004Y-59270902D01*
X37003100Y-52582999D01*
X37003100Y-43265422D01*
X37006776Y-43228099D01*
X37003100Y-43190776D01*
X37003100Y-43190767D01*
X36992103Y-43079114D01*
X36948646Y-42935853D01*
X36922936Y-42887754D01*
X36878074Y-42803823D01*
X36806899Y-42717097D01*
X36783101Y-42688099D01*
X36754104Y-42664302D01*
X35095797Y-41005996D01*
X35118513Y-40931111D01*
X35147185Y-40640000D01*
X35118513Y-40348889D01*
X35033599Y-40068966D01*
X34895706Y-39810986D01*
X34710134Y-39584866D01*
X34484014Y-39399294D01*
X34429209Y-39370000D01*
X34484014Y-39340706D01*
X34710134Y-39155134D01*
X34895706Y-38929014D01*
X35033599Y-38671034D01*
X35118513Y-38391111D01*
X35147185Y-38100000D01*
X35118513Y-37808889D01*
X35033599Y-37528966D01*
X34895706Y-37270986D01*
X34710134Y-37044866D01*
X34484014Y-36859294D01*
X34429209Y-36830000D01*
X34484014Y-36800706D01*
X34710134Y-36615134D01*
X34895706Y-36389014D01*
X35033599Y-36131034D01*
X35118513Y-35851111D01*
X35147185Y-35560000D01*
X35118513Y-35268889D01*
X35033599Y-34988966D01*
X34895706Y-34730986D01*
X34710134Y-34504866D01*
X34680313Y-34480393D01*
X34749180Y-34459502D01*
X34859494Y-34400537D01*
X34956185Y-34321185D01*
X35035537Y-34224494D01*
X35094502Y-34114180D01*
X35130812Y-33994482D01*
X35143072Y-33870000D01*
X35140000Y-33305750D01*
X34981250Y-33147000D01*
X33782000Y-33147000D01*
X33782000Y-33167000D01*
X33528000Y-33167000D01*
X33528000Y-33147000D01*
X32328750Y-33147000D01*
X32170000Y-33305750D01*
X32166928Y-33870000D01*
X32179188Y-33994482D01*
X32215498Y-34114180D01*
X32274463Y-34224494D01*
X32353815Y-34321185D01*
X32450506Y-34400537D01*
X32560820Y-34459502D01*
X32629687Y-34480393D01*
X32599866Y-34504866D01*
X32414294Y-34730986D01*
X32276401Y-34988966D01*
X32191487Y-35268889D01*
X32162815Y-35560000D01*
X32191487Y-35851111D01*
X32276401Y-36131034D01*
X32414294Y-36389014D01*
X32599866Y-36615134D01*
X32825986Y-36800706D01*
X32880791Y-36830000D01*
X32825986Y-36859294D01*
X32599866Y-37044866D01*
X32414294Y-37270986D01*
X32276401Y-37528966D01*
X32191487Y-37808889D01*
X32162815Y-38100000D01*
X32191487Y-38391111D01*
X32214203Y-38465996D01*
X31516103Y-39164096D01*
X31487099Y-39187899D01*
X31459922Y-39221015D01*
X31392126Y-39303624D01*
X31363609Y-39356976D01*
X31321554Y-39435654D01*
X31278097Y-39578915D01*
X31267100Y-39690568D01*
X31267100Y-39690578D01*
X31263424Y-39727900D01*
X28015000Y-39727900D01*
X28015000Y-32170000D01*
X32166928Y-32170000D01*
X32170000Y-32734250D01*
X32328750Y-32893000D01*
X33528000Y-32893000D01*
X33528000Y-31693750D01*
X33782000Y-31693750D01*
X33782000Y-32893000D01*
X34981250Y-32893000D01*
X35140000Y-32734250D01*
X35143072Y-32170000D01*
X35130812Y-32045518D01*
X35094502Y-31925820D01*
X35035537Y-31815506D01*
X34956185Y-31718815D01*
X34859494Y-31639463D01*
X34749180Y-31580498D01*
X34629482Y-31544188D01*
X34505000Y-31531928D01*
X33940750Y-31535000D01*
X33782000Y-31693750D01*
X33528000Y-31693750D01*
X33369250Y-31535000D01*
X32805000Y-31531928D01*
X32680518Y-31544188D01*
X32560820Y-31580498D01*
X32450506Y-31639463D01*
X32353815Y-31718815D01*
X32274463Y-31815506D01*
X32215498Y-31925820D01*
X32179188Y-32045518D01*
X32166928Y-32170000D01*
X28015000Y-32170000D01*
X28015000Y-22390000D01*
X41741928Y-22390000D01*
X41754188Y-22514482D01*
X41790498Y-22634180D01*
X41849463Y-22744494D01*
X41928815Y-22841185D01*
X42025506Y-22920537D01*
X42135820Y-22979502D01*
X42255518Y-23015812D01*
X42380000Y-23028072D01*
X42894250Y-23025000D01*
X43053000Y-22866250D01*
X43053000Y-21717000D01*
X41903750Y-21717000D01*
X41745000Y-21875750D01*
X41741928Y-22390000D01*
X28015000Y-22390000D01*
X28015000Y-20790000D01*
X41741928Y-20790000D01*
X41745000Y-21304250D01*
X41903750Y-21463000D01*
X43053000Y-21463000D01*
X43053000Y-20313750D01*
X42894250Y-20155000D01*
X42380000Y-20151928D01*
X42255518Y-20164188D01*
X42135820Y-20200498D01*
X42025506Y-20259463D01*
X41928815Y-20338815D01*
X41849463Y-20435506D01*
X41790498Y-20545820D01*
X41754188Y-20665518D01*
X41741928Y-20790000D01*
X28015000Y-20790000D01*
X28015000Y-15950000D01*
X79935000Y-15950000D01*
X79935001Y-66600000D01*
X79935001Y-66600000D01*
G37*
X79935001Y-66600000D02*
X28015000Y-66600000D01*
X28015000Y-39727900D01*
X31263424Y-39727900D01*
X31267100Y-39765222D01*
X31267101Y-61659667D01*
X31263424Y-61697000D01*
X31267101Y-61734333D01*
X31272895Y-61793154D01*
X31278098Y-61845985D01*
X31321554Y-61989246D01*
X31392126Y-62121276D01*
X31423030Y-62158932D01*
X31487100Y-62237001D01*
X31516098Y-62260799D01*
X33270205Y-64014908D01*
X33293999Y-64043901D01*
X33322992Y-64067695D01*
X33322996Y-64067699D01*
X33393685Y-64125711D01*
X33409724Y-64138874D01*
X33541753Y-64209446D01*
X33685014Y-64252903D01*
X33796667Y-64263900D01*
X33796676Y-64263900D01*
X33833999Y-64267576D01*
X33871322Y-64263900D01*
X62530978Y-64263900D01*
X62568300Y-64267576D01*
X62605622Y-64263900D01*
X62605633Y-64263900D01*
X62717286Y-64252903D01*
X62860547Y-64209446D01*
X62992576Y-64138874D01*
X63108301Y-64043901D01*
X63132104Y-64014897D01*
X65103519Y-62043483D01*
X65302580Y-62191037D01*
X65556913Y-62311246D01*
X65690961Y-62351904D01*
X65913000Y-62229915D01*
X65913000Y-61087000D01*
X66167000Y-61087000D01*
X66167000Y-62229915D01*
X66389039Y-62351904D01*
X66523087Y-62311246D01*
X66777420Y-62191037D01*
X67003414Y-62023519D01*
X67192385Y-61815131D01*
X67337070Y-61573881D01*
X67431909Y-61309040D01*
X67310624Y-61087000D01*
X66167000Y-61087000D01*
X65913000Y-61087000D01*
X65893000Y-61087000D01*
X65893000Y-60833000D01*
X65913000Y-60833000D01*
X65913000Y-59690085D01*
X66167000Y-59690085D01*
X66167000Y-60833000D01*
X67310624Y-60833000D01*
X67431909Y-60610960D01*
X67337070Y-60346119D01*
X67192385Y-60104869D01*
X67003414Y-59896481D01*
X66777420Y-59728963D01*
X66523087Y-59608754D01*
X66389039Y-59568096D01*
X66167000Y-59690085D01*
X65913000Y-59690085D01*
X65690961Y-59568096D01*
X65674700Y-59573028D01*
X65674700Y-55905401D01*
X66551004Y-55029098D01*
X66580001Y-55005301D01*
X66674974Y-54889576D01*
X66745546Y-54757547D01*
X66789003Y-54614286D01*
X66793942Y-54564139D01*
X66841101Y-54538932D01*
X67059608Y-54359608D01*
X67238932Y-54141101D01*
X67372182Y-53891808D01*
X67454236Y-53621309D01*
X67481943Y-53340000D01*
X67454236Y-53058691D01*
X67372182Y-52788192D01*
X67238932Y-52538899D01*
X67059608Y-52320392D01*
X66841101Y-52141068D01*
X66591808Y-52007818D01*
X66321309Y-51925764D01*
X66110492Y-51905000D01*
X65969508Y-51905000D01*
X65758691Y-51925764D01*
X65488192Y-52007818D01*
X65385300Y-52062815D01*
X65385300Y-48260134D01*
X65556913Y-48341246D01*
X65690961Y-48381904D01*
X65913000Y-48259915D01*
X65913000Y-47117000D01*
X66167000Y-47117000D01*
X66167000Y-48259915D01*
X66389039Y-48381904D01*
X66523087Y-48341246D01*
X66777420Y-48221037D01*
X67003414Y-48053519D01*
X67192385Y-47845131D01*
X67337070Y-47603881D01*
X67431909Y-47339040D01*
X67310624Y-47117000D01*
X66167000Y-47117000D01*
X65913000Y-47117000D01*
X65893000Y-47117000D01*
X65893000Y-46863000D01*
X65913000Y-46863000D01*
X65913000Y-45720085D01*
X66167000Y-45720085D01*
X66167000Y-46863000D01*
X67310624Y-46863000D01*
X67431909Y-46640960D01*
X67337070Y-46376119D01*
X67192385Y-46134869D01*
X67003414Y-45926481D01*
X66777420Y-45758963D01*
X66523087Y-45638754D01*
X66389039Y-45598096D01*
X66167000Y-45720085D01*
X65913000Y-45720085D01*
X65690961Y-45598096D01*
X65556913Y-45638754D01*
X65385300Y-45719866D01*
X65385300Y-44784101D01*
X72881947Y-37287455D01*
X72916401Y-37401034D01*
X73054294Y-37659014D01*
X73239866Y-37885134D01*
X73465986Y-38070706D01*
X73520791Y-38100000D01*
X73465986Y-38129294D01*
X73239866Y-38314866D01*
X73054294Y-38540986D01*
X72916401Y-38798966D01*
X72831487Y-39078889D01*
X72802815Y-39370000D01*
X72831487Y-39661111D01*
X72916401Y-39941034D01*
X73054294Y-40199014D01*
X73239866Y-40425134D01*
X73465986Y-40610706D01*
X73723966Y-40748599D01*
X74003889Y-40833513D01*
X74222050Y-40855000D01*
X74367950Y-40855000D01*
X74586111Y-40833513D01*
X74866034Y-40748599D01*
X75124014Y-40610706D01*
X75350134Y-40425134D01*
X75535706Y-40199014D01*
X75673599Y-39941034D01*
X75758513Y-39661111D01*
X75787185Y-39370000D01*
X75758513Y-39078889D01*
X75673599Y-38798966D01*
X75535706Y-38540986D01*
X75350134Y-38314866D01*
X75124014Y-38129294D01*
X75069209Y-38100000D01*
X75124014Y-38070706D01*
X75350134Y-37885134D01*
X75535706Y-37659014D01*
X75673599Y-37401034D01*
X75758513Y-37121111D01*
X75787185Y-36830000D01*
X75758513Y-36538889D01*
X75673599Y-36258966D01*
X75535706Y-36000986D01*
X75350134Y-35774866D01*
X75124014Y-35589294D01*
X75069209Y-35560000D01*
X75124014Y-35530706D01*
X75350134Y-35345134D01*
X75535706Y-35119014D01*
X75673599Y-34861034D01*
X75758513Y-34581111D01*
X75787185Y-34290000D01*
X75758513Y-33998889D01*
X75673599Y-33718966D01*
X75535706Y-33460986D01*
X75350134Y-33234866D01*
X75124014Y-33049294D01*
X75069209Y-33020000D01*
X75124014Y-32990706D01*
X75350134Y-32805134D01*
X75535706Y-32579014D01*
X75673599Y-32321034D01*
X75758513Y-32041111D01*
X75787185Y-31750000D01*
X75758513Y-31458889D01*
X75673599Y-31178966D01*
X75535706Y-30920986D01*
X75350134Y-30694866D01*
X75124014Y-30509294D01*
X75069209Y-30480000D01*
X75124014Y-30450706D01*
X75350134Y-30265134D01*
X75535706Y-30039014D01*
X75673599Y-29781034D01*
X75758513Y-29501111D01*
X75787185Y-29210000D01*
X75758513Y-28918889D01*
X75673599Y-28638966D01*
X75535706Y-28380986D01*
X75350134Y-28154866D01*
X75124014Y-27969294D01*
X75069209Y-27940000D01*
X75124014Y-27910706D01*
X75350134Y-27725134D01*
X75535706Y-27499014D01*
X75673599Y-27241034D01*
X75758513Y-26961111D01*
X75787185Y-26670000D01*
X75758513Y-26378889D01*
X75673599Y-26098966D01*
X75535706Y-25840986D01*
X75350134Y-25614866D01*
X75124014Y-25429294D01*
X75069209Y-25400000D01*
X75124014Y-25370706D01*
X75350134Y-25185134D01*
X75535706Y-24959014D01*
X75673599Y-24701034D01*
X75758513Y-24421111D01*
X75787185Y-24130000D01*
X75758513Y-23838889D01*
X75673599Y-23558966D01*
X75535706Y-23300986D01*
X75350134Y-23074866D01*
X75320313Y-23050393D01*
X75389180Y-23029502D01*
X75499494Y-22970537D01*
X75596185Y-22891185D01*
X75675537Y-22794494D01*
X75734502Y-22684180D01*
X75770812Y-22564482D01*
X75783072Y-22440000D01*
X75783072Y-20740000D01*
X75770812Y-20615518D01*
X75734502Y-20495820D01*
X75675537Y-20385506D01*
X75596185Y-20288815D01*
X75499494Y-20209463D01*
X75389180Y-20150498D01*
X75269482Y-20114188D01*
X75145000Y-20101928D01*
X73445000Y-20101928D01*
X73320518Y-20114188D01*
X73200820Y-20150498D01*
X73090506Y-20209463D01*
X72993815Y-20288815D01*
X72914463Y-20385506D01*
X72855498Y-20495820D01*
X72819188Y-20615518D01*
X72806928Y-20740000D01*
X72806928Y-20935674D01*
X72770724Y-20955026D01*
X72770722Y-20955027D01*
X72770723Y-20955027D01*
X72683996Y-21026201D01*
X72683992Y-21026205D01*
X72654999Y-21049999D01*
X72631205Y-21078992D01*
X67452636Y-26257562D01*
X67503097Y-26182042D01*
X67627553Y-25881579D01*
X67691000Y-25562609D01*
X67691000Y-25237391D01*
X67627553Y-24918421D01*
X67503097Y-24617958D01*
X67322415Y-24347549D01*
X67092451Y-24117585D01*
X66822042Y-23936903D01*
X66521579Y-23812447D01*
X66202609Y-23749000D01*
X65877391Y-23749000D01*
X65558421Y-23812447D01*
X65257958Y-23936903D01*
X64987549Y-24117585D01*
X64770000Y-24335134D01*
X64552451Y-24117585D01*
X64282042Y-23936903D01*
X64260000Y-23927773D01*
X64260000Y-22810901D01*
X64301101Y-22788932D01*
X64519608Y-22609608D01*
X64698932Y-22391101D01*
X64832182Y-22141808D01*
X64914236Y-21871309D01*
X64941943Y-21590000D01*
X64914236Y-21308691D01*
X64832182Y-21038192D01*
X64698932Y-20788899D01*
X64519608Y-20570392D01*
X64301101Y-20391068D01*
X64051808Y-20257818D01*
X63781309Y-20175764D01*
X63570492Y-20155000D01*
X63429508Y-20155000D01*
X63218691Y-20175764D01*
X62948192Y-20257818D01*
X62698899Y-20391068D01*
X62480392Y-20570392D01*
X62301068Y-20788899D01*
X62230000Y-20921858D01*
X62158932Y-20788899D01*
X61979608Y-20570392D01*
X61761101Y-20391068D01*
X61511808Y-20257818D01*
X61241309Y-20175764D01*
X61030492Y-20155000D01*
X60889508Y-20155000D01*
X60678691Y-20175764D01*
X60408192Y-20257818D01*
X60158899Y-20391068D01*
X59940392Y-20570392D01*
X59761068Y-20788899D01*
X59690000Y-20921858D01*
X59618932Y-20788899D01*
X59439608Y-20570392D01*
X59221101Y-20391068D01*
X58971808Y-20257818D01*
X58701309Y-20175764D01*
X58490492Y-20155000D01*
X58349508Y-20155000D01*
X58138691Y-20175764D01*
X57868192Y-20257818D01*
X57618899Y-20391068D01*
X57400392Y-20570392D01*
X57221068Y-20788899D01*
X57150000Y-20921858D01*
X57078932Y-20788899D01*
X56899608Y-20570392D01*
X56681101Y-20391068D01*
X56431808Y-20257818D01*
X56161309Y-20175764D01*
X55950492Y-20155000D01*
X55809508Y-20155000D01*
X55598691Y-20175764D01*
X55328192Y-20257818D01*
X55078899Y-20391068D01*
X54860392Y-20570392D01*
X54681068Y-20788899D01*
X54610000Y-20921858D01*
X54538932Y-20788899D01*
X54359608Y-20570392D01*
X54141101Y-20391068D01*
X53891808Y-20257818D01*
X53621309Y-20175764D01*
X53410492Y-20155000D01*
X53269508Y-20155000D01*
X53058691Y-20175764D01*
X52788192Y-20257818D01*
X52538899Y-20391068D01*
X52320392Y-20570392D01*
X52141068Y-20788899D01*
X52070000Y-20921858D01*
X51998932Y-20788899D01*
X51819608Y-20570392D01*
X51601101Y-20391068D01*
X51351808Y-20257818D01*
X51081309Y-20175764D01*
X50870492Y-20155000D01*
X50729508Y-20155000D01*
X50518691Y-20175764D01*
X50248192Y-20257818D01*
X49998899Y-20391068D01*
X49780392Y-20570392D01*
X49601068Y-20788899D01*
X49530000Y-20921858D01*
X49458932Y-20788899D01*
X49279608Y-20570392D01*
X49061101Y-20391068D01*
X48811808Y-20257818D01*
X48541309Y-20175764D01*
X48330492Y-20155000D01*
X48189508Y-20155000D01*
X47978691Y-20175764D01*
X47708192Y-20257818D01*
X47458899Y-20391068D01*
X47240392Y-20570392D01*
X47061068Y-20788899D01*
X46990000Y-20921858D01*
X46918932Y-20788899D01*
X46739608Y-20570392D01*
X46521101Y-20391068D01*
X46271808Y-20257818D01*
X46001309Y-20175764D01*
X45790492Y-20155000D01*
X45649508Y-20155000D01*
X45438691Y-20175764D01*
X45168192Y-20257818D01*
X44918899Y-20391068D01*
X44700392Y-20570392D01*
X44607581Y-20683482D01*
X44605812Y-20665518D01*
X44569502Y-20545820D01*
X44510537Y-20435506D01*
X44431185Y-20338815D01*
X44334494Y-20259463D01*
X44224180Y-20200498D01*
X44104482Y-20164188D01*
X43980000Y-20151928D01*
X43465750Y-20155000D01*
X43307000Y-20313750D01*
X43307000Y-21463000D01*
X43327000Y-21463000D01*
X43327000Y-21717000D01*
X43307000Y-21717000D01*
X43307000Y-22866250D01*
X43465750Y-23025000D01*
X43980000Y-23028072D01*
X44104482Y-23015812D01*
X44224180Y-22979502D01*
X44334494Y-22920537D01*
X44431185Y-22841185D01*
X44510537Y-22744494D01*
X44569502Y-22634180D01*
X44605812Y-22514482D01*
X44607581Y-22496518D01*
X44700392Y-22609608D01*
X44918899Y-22788932D01*
X44960000Y-22810901D01*
X44960001Y-23927773D01*
X44937958Y-23936903D01*
X44667549Y-24117585D01*
X44450000Y-24335134D01*
X44232451Y-24117585D01*
X43962042Y-23936903D01*
X43661579Y-23812447D01*
X43342609Y-23749000D01*
X43017391Y-23749000D01*
X42698421Y-23812447D01*
X42397958Y-23936903D01*
X42127549Y-24117585D01*
X41897585Y-24347549D01*
X41716903Y-24617958D01*
X41592447Y-24918421D01*
X41529000Y-25237391D01*
X41529000Y-25562609D01*
X41592447Y-25881579D01*
X41716903Y-26182042D01*
X41897585Y-26452451D01*
X42127549Y-26682415D01*
X42397958Y-26863097D01*
X42698421Y-26987553D01*
X43017391Y-27051000D01*
X43342609Y-27051000D01*
X43661579Y-26987553D01*
X43962042Y-26863097D01*
X44232451Y-26682415D01*
X44450000Y-26464866D01*
X44667549Y-26682415D01*
X44937958Y-26863097D01*
X45238421Y-26987553D01*
X45557391Y-27051000D01*
X45882609Y-27051000D01*
X46201579Y-26987553D01*
X46502042Y-26863097D01*
X46772451Y-26682415D01*
X46990000Y-26464866D01*
X47207549Y-26682415D01*
X47477958Y-26863097D01*
X47778421Y-26987553D01*
X48097391Y-27051000D01*
X48422609Y-27051000D01*
X48741579Y-26987553D01*
X49042042Y-26863097D01*
X49312451Y-26682415D01*
X49530000Y-26464866D01*
X49747549Y-26682415D01*
X50017958Y-26863097D01*
X50318421Y-26987553D01*
X50637391Y-27051000D01*
X50962609Y-27051000D01*
X51281579Y-26987553D01*
X51582042Y-26863097D01*
X51852451Y-26682415D01*
X52070000Y-26464866D01*
X52287549Y-26682415D01*
X52557958Y-26863097D01*
X52858421Y-26987553D01*
X53177391Y-27051000D01*
X53502609Y-27051000D01*
X53821579Y-26987553D01*
X54122042Y-26863097D01*
X54392451Y-26682415D01*
X54610000Y-26464866D01*
X54827549Y-26682415D01*
X55097958Y-26863097D01*
X55398421Y-26987553D01*
X55717391Y-27051000D01*
X56042609Y-27051000D01*
X56361579Y-26987553D01*
X56662042Y-26863097D01*
X56932451Y-26682415D01*
X57150000Y-26464866D01*
X57367549Y-26682415D01*
X57637958Y-26863097D01*
X57938421Y-26987553D01*
X58257391Y-27051000D01*
X58582609Y-27051000D01*
X58901579Y-26987553D01*
X59202042Y-26863097D01*
X59472451Y-26682415D01*
X59690000Y-26464866D01*
X59907549Y-26682415D01*
X60177958Y-26863097D01*
X60478421Y-26987553D01*
X60797391Y-27051000D01*
X61122609Y-27051000D01*
X61441579Y-26987553D01*
X61742042Y-26863097D01*
X62012451Y-26682415D01*
X62230000Y-26464866D01*
X62447549Y-26682415D01*
X62717958Y-26863097D01*
X63018421Y-26987553D01*
X63337391Y-27051000D01*
X63662609Y-27051000D01*
X63981579Y-26987553D01*
X64282042Y-26863097D01*
X64552451Y-26682415D01*
X64770000Y-26464866D01*
X64987549Y-26682415D01*
X65257958Y-26863097D01*
X65558421Y-26987553D01*
X65877391Y-27051000D01*
X66202609Y-27051000D01*
X66521579Y-26987553D01*
X66822042Y-26863097D01*
X66897563Y-26812636D01*
X62989003Y-30721196D01*
X62959999Y-30744999D01*
X62904871Y-30812174D01*
X62865026Y-30860724D01*
X62832815Y-30920986D01*
X62794454Y-30992754D01*
X62750997Y-31136015D01*
X62740000Y-31247668D01*
X62740000Y-31247678D01*
X62736324Y-31285000D01*
X62740000Y-31322322D01*
X62740000Y-31547773D01*
X62717958Y-31556903D01*
X62447549Y-31737585D01*
X62230000Y-31955134D01*
X62012451Y-31737585D01*
X61742042Y-31556903D01*
X61441579Y-31432447D01*
X61122609Y-31369000D01*
X60797391Y-31369000D01*
X60478421Y-31432447D01*
X60177958Y-31556903D01*
X59907549Y-31737585D01*
X59690000Y-31955134D01*
X59472451Y-31737585D01*
X59202042Y-31556903D01*
X58901579Y-31432447D01*
X58582609Y-31369000D01*
X58257391Y-31369000D01*
X57938421Y-31432447D01*
X57637958Y-31556903D01*
X57367549Y-31737585D01*
X57150000Y-31955134D01*
X56932451Y-31737585D01*
X56662042Y-31556903D01*
X56361579Y-31432447D01*
X56042609Y-31369000D01*
X55717391Y-31369000D01*
X55398421Y-31432447D01*
X55097958Y-31556903D01*
X54827549Y-31737585D01*
X54610000Y-31955134D01*
X54392451Y-31737585D01*
X54122042Y-31556903D01*
X53821579Y-31432447D01*
X53502609Y-31369000D01*
X53177391Y-31369000D01*
X52858421Y-31432447D01*
X52557958Y-31556903D01*
X52287549Y-31737585D01*
X52070000Y-31955134D01*
X51852451Y-31737585D01*
X51582042Y-31556903D01*
X51281579Y-31432447D01*
X50962609Y-31369000D01*
X50637391Y-31369000D01*
X50318421Y-31432447D01*
X50017958Y-31556903D01*
X49747549Y-31737585D01*
X49530000Y-31955134D01*
X49312451Y-31737585D01*
X49042042Y-31556903D01*
X48741579Y-31432447D01*
X48422609Y-31369000D01*
X48097391Y-31369000D01*
X47778421Y-31432447D01*
X47477958Y-31556903D01*
X47207549Y-31737585D01*
X46990000Y-31955134D01*
X46772451Y-31737585D01*
X46502042Y-31556903D01*
X46201579Y-31432447D01*
X45882609Y-31369000D01*
X45557391Y-31369000D01*
X45238421Y-31432447D01*
X44937958Y-31556903D01*
X44745704Y-31685364D01*
X44726537Y-31649506D01*
X44647185Y-31552815D01*
X44550494Y-31473463D01*
X44440180Y-31414498D01*
X44320482Y-31378188D01*
X44196000Y-31365928D01*
X42164000Y-31365928D01*
X42039518Y-31378188D01*
X41919820Y-31414498D01*
X41809506Y-31473463D01*
X41712815Y-31552815D01*
X41633463Y-31649506D01*
X41574498Y-31759820D01*
X41538188Y-31879518D01*
X41525928Y-32004000D01*
X41525928Y-34036000D01*
X41538188Y-34160482D01*
X41574498Y-34280180D01*
X41633463Y-34390494D01*
X41712815Y-34487185D01*
X41809506Y-34566537D01*
X41919820Y-34625502D01*
X42039518Y-34661812D01*
X42164000Y-34674072D01*
X43761401Y-34674072D01*
X43761401Y-38053636D01*
X43731808Y-38037818D01*
X43461309Y-37955764D01*
X43250492Y-37935000D01*
X43109508Y-37935000D01*
X42898691Y-37955764D01*
X42628192Y-38037818D01*
X42378899Y-38171068D01*
X42160392Y-38350392D01*
X41981068Y-38568899D01*
X41847818Y-38818192D01*
X41765764Y-39088691D01*
X41738057Y-39370000D01*
X41765764Y-39651309D01*
X41847818Y-39921808D01*
X41981068Y-40171101D01*
X42160392Y-40389608D01*
X42370001Y-40561629D01*
X42370000Y-45552913D01*
X42255518Y-45564188D01*
X42135820Y-45600498D01*
X42025506Y-45659463D01*
X41928815Y-45738815D01*
X41849463Y-45835506D01*
X41790498Y-45945820D01*
X41754188Y-46065518D01*
X41741928Y-46190000D01*
X41741928Y-47790000D01*
X41754188Y-47914482D01*
X41790498Y-48034180D01*
X41849463Y-48144494D01*
X41928815Y-48241185D01*
X42025506Y-48320537D01*
X42135820Y-48379502D01*
X42255518Y-48415812D01*
X42370001Y-48427087D01*
X42370000Y-52148371D01*
X42160392Y-52320392D01*
X41981068Y-52538899D01*
X41847818Y-52788192D01*
X41765764Y-53058691D01*
X41738057Y-53340000D01*
X41765764Y-53621309D01*
X41847818Y-53891808D01*
X41981068Y-54141101D01*
X42160392Y-54359608D01*
X42378899Y-54538932D01*
X42628192Y-54672182D01*
X42898691Y-54754236D01*
X43109508Y-54775000D01*
X43250492Y-54775000D01*
X43461309Y-54754236D01*
X43731808Y-54672182D01*
X43981101Y-54538932D01*
X44199608Y-54359608D01*
X44378932Y-54141101D01*
X44450000Y-54008142D01*
X44521068Y-54141101D01*
X44700392Y-54359608D01*
X44918899Y-54538932D01*
X45168192Y-54672182D01*
X45438691Y-54754236D01*
X45649508Y-54775000D01*
X45790492Y-54775000D01*
X46001309Y-54754236D01*
X46085300Y-54728758D01*
X46085300Y-58394598D01*
X45208998Y-59270901D01*
X45180000Y-59294699D01*
X45156203Y-59323696D01*
X45156201Y-59323698D01*
X45085026Y-59410424D01*
X45014454Y-59542454D01*
X45002640Y-59581401D01*
X44970998Y-59685714D01*
X44968723Y-59708815D01*
X44966059Y-59735860D01*
X44918899Y-59761068D01*
X44700392Y-59940392D01*
X44607581Y-60053482D01*
X44605812Y-60035518D01*
X44569502Y-59915820D01*
X44510537Y-59805506D01*
X44431185Y-59708815D01*
X44334494Y-59629463D01*
X44224180Y-59570498D01*
X44104482Y-59534188D01*
X43980000Y-59521928D01*
X43874575Y-59521928D01*
X43840620Y-59458403D01*
X43814974Y-59410423D01*
X43743799Y-59323697D01*
X43743798Y-59323696D01*
X43720001Y-59294699D01*
X43691004Y-59270902D01*
X37003100Y-52582999D01*
X37003100Y-43265422D01*
X37006776Y-43228099D01*
X37003100Y-43190776D01*
X37003100Y-43190767D01*
X36992103Y-43079114D01*
X36948646Y-42935853D01*
X36922936Y-42887754D01*
X36878074Y-42803823D01*
X36806899Y-42717097D01*
X36783101Y-42688099D01*
X36754104Y-42664302D01*
X35095797Y-41005996D01*
X35118513Y-40931111D01*
X35147185Y-40640000D01*
X35118513Y-40348889D01*
X35033599Y-40068966D01*
X34895706Y-39810986D01*
X34710134Y-39584866D01*
X34484014Y-39399294D01*
X34429209Y-39370000D01*
X34484014Y-39340706D01*
X34710134Y-39155134D01*
X34895706Y-38929014D01*
X35033599Y-38671034D01*
X35118513Y-38391111D01*
X35147185Y-38100000D01*
X35118513Y-37808889D01*
X35033599Y-37528966D01*
X34895706Y-37270986D01*
X34710134Y-37044866D01*
X34484014Y-36859294D01*
X34429209Y-36830000D01*
X34484014Y-36800706D01*
X34710134Y-36615134D01*
X34895706Y-36389014D01*
X35033599Y-36131034D01*
X35118513Y-35851111D01*
X35147185Y-35560000D01*
X35118513Y-35268889D01*
X35033599Y-34988966D01*
X34895706Y-34730986D01*
X34710134Y-34504866D01*
X34680313Y-34480393D01*
X34749180Y-34459502D01*
X34859494Y-34400537D01*
X34956185Y-34321185D01*
X35035537Y-34224494D01*
X35094502Y-34114180D01*
X35130812Y-33994482D01*
X35143072Y-33870000D01*
X35140000Y-33305750D01*
X34981250Y-33147000D01*
X33782000Y-33147000D01*
X33782000Y-33167000D01*
X33528000Y-33167000D01*
X33528000Y-33147000D01*
X32328750Y-33147000D01*
X32170000Y-33305750D01*
X32166928Y-33870000D01*
X32179188Y-33994482D01*
X32215498Y-34114180D01*
X32274463Y-34224494D01*
X32353815Y-34321185D01*
X32450506Y-34400537D01*
X32560820Y-34459502D01*
X32629687Y-34480393D01*
X32599866Y-34504866D01*
X32414294Y-34730986D01*
X32276401Y-34988966D01*
X32191487Y-35268889D01*
X32162815Y-35560000D01*
X32191487Y-35851111D01*
X32276401Y-36131034D01*
X32414294Y-36389014D01*
X32599866Y-36615134D01*
X32825986Y-36800706D01*
X32880791Y-36830000D01*
X32825986Y-36859294D01*
X32599866Y-37044866D01*
X32414294Y-37270986D01*
X32276401Y-37528966D01*
X32191487Y-37808889D01*
X32162815Y-38100000D01*
X32191487Y-38391111D01*
X32214203Y-38465996D01*
X31516103Y-39164096D01*
X31487099Y-39187899D01*
X31459922Y-39221015D01*
X31392126Y-39303624D01*
X31363609Y-39356976D01*
X31321554Y-39435654D01*
X31278097Y-39578915D01*
X31267100Y-39690568D01*
X31267100Y-39690578D01*
X31263424Y-39727900D01*
X28015000Y-39727900D01*
X28015000Y-32170000D01*
X32166928Y-32170000D01*
X32170000Y-32734250D01*
X32328750Y-32893000D01*
X33528000Y-32893000D01*
X33528000Y-31693750D01*
X33782000Y-31693750D01*
X33782000Y-32893000D01*
X34981250Y-32893000D01*
X35140000Y-32734250D01*
X35143072Y-32170000D01*
X35130812Y-32045518D01*
X35094502Y-31925820D01*
X35035537Y-31815506D01*
X34956185Y-31718815D01*
X34859494Y-31639463D01*
X34749180Y-31580498D01*
X34629482Y-31544188D01*
X34505000Y-31531928D01*
X33940750Y-31535000D01*
X33782000Y-31693750D01*
X33528000Y-31693750D01*
X33369250Y-31535000D01*
X32805000Y-31531928D01*
X32680518Y-31544188D01*
X32560820Y-31580498D01*
X32450506Y-31639463D01*
X32353815Y-31718815D01*
X32274463Y-31815506D01*
X32215498Y-31925820D01*
X32179188Y-32045518D01*
X32166928Y-32170000D01*
X28015000Y-32170000D01*
X28015000Y-22390000D01*
X41741928Y-22390000D01*
X41754188Y-22514482D01*
X41790498Y-22634180D01*
X41849463Y-22744494D01*
X41928815Y-22841185D01*
X42025506Y-22920537D01*
X42135820Y-22979502D01*
X42255518Y-23015812D01*
X42380000Y-23028072D01*
X42894250Y-23025000D01*
X43053000Y-22866250D01*
X43053000Y-21717000D01*
X41903750Y-21717000D01*
X41745000Y-21875750D01*
X41741928Y-22390000D01*
X28015000Y-22390000D01*
X28015000Y-20790000D01*
X41741928Y-20790000D01*
X41745000Y-21304250D01*
X41903750Y-21463000D01*
X43053000Y-21463000D01*
X43053000Y-20313750D01*
X42894250Y-20155000D01*
X42380000Y-20151928D01*
X42255518Y-20164188D01*
X42135820Y-20200498D01*
X42025506Y-20259463D01*
X41928815Y-20338815D01*
X41849463Y-20435506D01*
X41790498Y-20545820D01*
X41754188Y-20665518D01*
X41741928Y-20790000D01*
X28015000Y-20790000D01*
X28015000Y-15950000D01*
X79935000Y-15950000D01*
X79935001Y-66600000D01*
M02*
