M48
; DRILL file {KiCad (5.1.2)-2} date 08/11/19 20:37:10
; FORMAT={-:-/ absolute / inch / decimal}
; #@! TF.CreationDate,2019-08-11T20:37:10+02:00
; #@! TF.GenerationSoftware,Kicad,Pcbnew,(5.1.2)-2
; #@! TF.FileFunction,Plated,1,2,PTH
FMAT,2
INCH
T1C0.0315
T2C0.0360
T3C0.0394
%
G90
G05
T1
X1.7Y-0.85
X1.8Y-0.85
X1.9Y-0.85
X2.0Y-0.85
X2.1Y-0.85
X2.2Y-0.85
X2.3Y-0.85
X2.4Y-0.85
X2.5Y-0.85
X1.7Y-1.55
X1.7Y-1.85
X1.8Y-1.55
X1.8Y-1.85
X1.9Y-1.55
X1.9Y-1.85
X2.0Y-1.55
X2.0Y-1.85
X2.1Y-1.55
X2.1Y-1.85
X2.2Y-1.55
X2.2Y-1.85
X2.3Y-1.55
X2.3Y-1.85
X2.4Y-1.55
X2.4Y-1.85
X2.5Y-1.55
X2.5Y-1.85
X2.6Y-1.55
X2.6Y-1.85
X1.7Y-2.1
X1.7Y-2.4
X1.8Y-2.1
X1.8Y-2.4
X1.9Y-2.1
X1.9Y-2.4
X2.0Y-2.1
X2.0Y-2.4
X2.1Y-2.1
X2.1Y-2.4
X2.2Y-2.1
X2.2Y-2.4
X2.3Y-2.1
X2.3Y-2.4
X2.4Y-2.1
X2.4Y-2.4
X2.5Y-2.1
X2.5Y-2.4
X2.6Y-2.1
X2.6Y-2.4
T2
X1.7Y-1.0
X1.7Y-1.3
X1.8Y-1.0
X1.8Y-1.3
X1.9Y-1.0
X1.9Y-1.3
X2.0Y-1.0
X2.0Y-1.3
X2.1Y-1.0
X2.1Y-1.3
X2.2Y-1.0
X2.2Y-1.3
X2.3Y-1.0
X2.3Y-1.3
X2.4Y-1.0
X2.4Y-1.3
X2.5Y-1.0
X2.5Y-1.3
X2.6Y-1.0
X2.6Y-1.3
T3
X2.925Y-0.85
X2.925Y-0.95
X2.925Y-1.05
X2.925Y-1.15
X2.925Y-1.25
X2.925Y-1.35
X2.925Y-1.45
X2.925Y-1.55
X1.325Y-1.3
X1.325Y-1.4
X1.325Y-1.5
X1.325Y-1.6
X1.325Y-1.7
X1.325Y-1.8
X1.325Y-1.9
X1.325Y-2.0
X1.325Y-2.1
X1.325Y-2.2
X1.325Y-2.3
X1.325Y-2.4
T0
M30
