M48
; DRILL file {KiCad (5.1.2)-2} date 08/11/19 10:56:04
; FORMAT={-:-/ absolute / inch / decimal}
; #@! TF.CreationDate,2019-08-11T10:56:04+02:00
; #@! TF.GenerationSoftware,Kicad,Pcbnew,(5.1.2)-2
; #@! TF.FileFunction,Plated,1,2,PTH
FMAT,2
INCH
T1C0.0157
T2C0.0276
T3C0.0300
T4C0.0315
T5C0.0354
T6C0.0360
T7C0.0394
T8C0.0433
%
G90
G05
T1
X2.15Y-2.6277
X2.978Y-2.5193
X3.35Y-2.1967
X4.2196Y-3.386
X4.4257Y-2.1077
X4.4263Y-3.2907
X4.5866Y-3.078
X4.7418Y-2.3816
X4.8554Y-2.9568
X5.0597Y-2.7017
X5.0939Y-3.2426
X5.1456Y-2.2948
X5.1502Y-4.1643
X5.1654Y-2.4976
X5.1727Y-3.5124
X5.2066Y-2.497
X5.4067Y-4.1678
X5.7Y-2.3647
X5.7292Y-2.1189
X5.8019Y-2.4147
X5.8121Y-2.8163
X5.8696Y-2.3886
X5.8941Y-4.2184
X5.9639Y-1.9512
X6.2078Y-2.3347
X6.2147Y-4.2124
T2
X3.22Y-1.375
X3.22Y-1.575
X3.3Y-1.375
X3.3Y-1.575
X3.38Y-1.375
X3.38Y-1.575
T3
X3.15Y-4.025
X3.15Y-4.125
X3.35Y-3.925
X3.35Y-4.025
X3.35Y-4.125
X4.8Y-4.025
X4.8Y-4.125
X5.0Y-3.925
X5.0Y-4.025
X5.0Y-4.125
X5.9Y-4.025
X5.9Y-4.125
X6.1Y-3.925
X6.1Y-4.025
X6.1Y-4.125
X4.8Y-4.975
X4.8Y-5.075
X5.0Y-4.875
X5.0Y-4.975
X5.0Y-5.075
X5.35Y-4.975
X5.35Y-5.075
X5.55Y-4.875
X5.55Y-4.975
X5.55Y-5.075
X5.9Y-4.975
X5.9Y-5.075
X6.1Y-4.875
X6.1Y-4.975
X6.1Y-5.075
X2.05Y-4.025
X2.05Y-4.125
X2.25Y-3.925
X2.25Y-4.025
X2.25Y-4.125
X2.05Y-4.975
X2.05Y-5.075
X2.25Y-4.875
X2.25Y-4.975
X2.25Y-5.075
X3.7Y-4.975
X3.7Y-5.075
X3.9Y-4.875
X3.9Y-4.975
X3.9Y-5.075
X2.6Y-4.975
X2.6Y-5.075
X2.8Y-4.875
X2.8Y-4.975
X2.8Y-5.075
X4.25Y-4.025
X4.25Y-4.125
X4.45Y-3.925
X4.45Y-4.025
X4.45Y-4.125
X3.7Y-4.025
X3.7Y-4.125
X3.9Y-3.925
X3.9Y-4.025
X3.9Y-4.125
X5.35Y-4.025
X5.35Y-4.125
X5.55Y-3.925
X5.55Y-4.025
X5.55Y-4.125
X4.25Y-4.975
X4.25Y-5.075
X4.45Y-4.875
X4.45Y-4.975
X4.45Y-5.075
X2.6Y-4.025
X2.6Y-4.125
X2.8Y-3.925
X2.8Y-4.025
X2.8Y-4.125
X3.15Y-4.975
X3.15Y-5.075
X3.35Y-4.875
X3.35Y-4.975
X3.35Y-5.075
T4
X5.9Y-4.875
X4.27Y-2.9
X4.27Y-3.2
X4.37Y-2.9
X4.37Y-3.2
X4.47Y-2.9
X4.47Y-3.2
X4.57Y-2.9
X4.57Y-3.2
X4.67Y-2.9
X4.67Y-3.2
X4.77Y-2.9
X4.77Y-3.2
X4.87Y-2.9
X4.87Y-3.2
X4.97Y-2.9
X4.97Y-3.2
X2.05Y-3.925
X4.27Y-2.25
X4.27Y-2.55
X4.37Y-2.25
X4.37Y-2.55
X4.47Y-2.25
X4.47Y-2.55
X4.57Y-2.25
X4.57Y-2.55
X4.67Y-2.25
X4.67Y-2.55
X4.77Y-2.25
X4.77Y-2.55
X4.87Y-2.25
X4.87Y-2.55
X4.97Y-2.25
X4.97Y-2.55
X1.95Y-1.375
X1.95Y-1.675
X2.05Y-1.375
X2.05Y-1.675
X2.15Y-1.375
X2.15Y-1.675
X2.25Y-1.375
X2.25Y-1.675
X2.35Y-1.375
X2.35Y-1.675
X2.45Y-1.375
X2.45Y-1.675
X2.55Y-1.375
X2.55Y-1.675
X2.05Y-4.875
X3.7Y-4.875
X1.95Y-2.475
X1.95Y-2.575
X1.95Y-2.675
X1.95Y-2.775
X1.95Y-2.875
X1.95Y-2.975
X1.95Y-3.075
X1.95Y-3.175
X1.95Y-3.275
X1.95Y-3.375
X2.25Y-2.475
X2.25Y-2.575
X2.25Y-2.675
X2.25Y-2.775
X2.25Y-2.875
X2.25Y-2.975
X2.25Y-3.075
X2.25Y-3.175
X2.25Y-3.275
X2.25Y-3.375
X2.6Y-4.875
X4.25Y-3.925
X3.7Y-3.925
X5.5Y-2.25
X5.5Y-2.55
X5.6Y-2.25
X5.6Y-2.55
X5.7Y-2.25
X5.7Y-2.55
X5.8Y-2.25
X5.8Y-2.55
X5.9Y-2.25
X5.9Y-2.55
X6.0Y-2.25
X6.0Y-2.55
X6.1Y-2.25
X6.1Y-2.55
X6.2Y-2.25
X6.2Y-2.55
X3.1Y-1.925
X3.1Y-2.225
X3.2Y-1.925
X3.2Y-2.225
X3.3Y-1.925
X3.3Y-2.225
X3.4Y-1.925
X3.4Y-2.225
X3.5Y-1.925
X3.5Y-2.225
X3.6Y-1.925
X3.6Y-2.225
X3.7Y-1.925
X3.7Y-2.225
X3.8Y-1.925
X3.8Y-2.225
X3.9Y-1.925
X3.9Y-2.225
X4.0Y-1.925
X4.0Y-2.225
X3.65Y-1.625
X3.95Y-1.625
X4.475Y-1.375
X4.575Y-1.375
X4.675Y-1.375
X4.775Y-1.375
X4.875Y-1.375
X4.975Y-1.375
X5.075Y-1.375
X5.175Y-1.375
X5.275Y-1.375
X5.35Y-3.925
X2.75Y-2.475
X2.75Y-2.575
X2.75Y-2.675
X2.75Y-2.775
X2.75Y-2.875
X2.75Y-2.975
X2.75Y-3.075
X2.75Y-3.175
X2.75Y-3.275
X2.75Y-3.375
X3.05Y-2.475
X3.05Y-2.575
X3.05Y-2.675
X3.05Y-2.775
X3.05Y-2.875
X3.05Y-2.975
X3.05Y-3.075
X3.05Y-3.175
X3.05Y-3.275
X3.05Y-3.375
X4.25Y-4.875
X2.5Y-2.575
X2.5Y-2.675
X2.5Y-2.775
X2.5Y-2.875
X2.5Y-2.975
X2.5Y-3.075
X2.5Y-3.175
X2.5Y-3.275
X2.5Y-3.375
X3.55Y-2.475
X3.55Y-2.575
X3.55Y-2.675
X3.55Y-2.775
X3.55Y-2.875
X3.55Y-2.975
X3.55Y-3.075
X3.55Y-3.175
X3.55Y-3.275
X3.55Y-3.375
X3.85Y-2.475
X3.85Y-2.575
X3.85Y-2.675
X3.85Y-2.775
X3.85Y-2.875
X3.85Y-2.975
X3.85Y-3.075
X3.85Y-3.175
X3.85Y-3.275
X3.85Y-3.375
X2.6Y-3.925
X3.15Y-4.875
X3.15Y-3.925
X4.8Y-3.925
X1.95Y-1.925
X1.95Y-2.225
X2.05Y-1.925
X2.05Y-2.225
X2.15Y-1.925
X2.15Y-2.225
X2.25Y-1.925
X2.25Y-2.225
X2.35Y-1.925
X2.35Y-2.225
X2.45Y-1.925
X2.45Y-2.225
X2.55Y-1.925
X2.55Y-2.225
X2.65Y-1.925
X2.65Y-2.225
X2.75Y-1.925
X2.75Y-2.225
X2.85Y-1.925
X2.85Y-2.225
X3.3Y-2.575
X3.3Y-2.675
X3.3Y-2.775
X3.3Y-2.875
X3.3Y-2.975
X3.3Y-3.075
X3.3Y-3.175
X3.3Y-3.275
X3.3Y-3.375
X5.9Y-3.925
X5.4Y-1.375
X5.5Y-1.375
X5.6Y-1.375
X5.7Y-1.375
X5.8Y-1.375
X5.9Y-1.375
X6.0Y-1.375
X6.1Y-1.375
X6.2Y-1.375
X4.8Y-4.875
X5.5Y-2.9
X5.5Y-3.2
X5.6Y-2.9
X5.6Y-3.2
X5.7Y-2.9
X5.7Y-3.2
X5.8Y-2.9
X5.8Y-3.2
X5.9Y-2.9
X5.9Y-3.2
X6.0Y-2.9
X6.0Y-3.2
X6.1Y-2.9
X6.1Y-3.2
X6.2Y-2.9
X6.2Y-3.2
X5.35Y-4.875
T5
X3.65Y-1.375
X3.65Y-1.475
T6
X5.3Y-1.525
X5.3Y-1.825
X5.4Y-1.525
X5.4Y-1.825
X5.5Y-1.525
X5.5Y-1.825
X5.6Y-1.525
X5.6Y-1.825
X5.7Y-1.525
X5.7Y-1.825
X5.8Y-1.525
X5.8Y-1.825
X5.9Y-1.525
X5.9Y-1.825
X6.0Y-1.525
X6.0Y-1.825
X6.1Y-1.525
X6.1Y-1.825
X6.2Y-1.525
X6.2Y-1.825
X4.275Y-1.525
X4.275Y-1.825
X4.375Y-1.525
X4.375Y-1.825
X4.475Y-1.525
X4.475Y-1.825
X4.575Y-1.525
X4.575Y-1.825
X4.675Y-1.525
X4.675Y-1.825
X4.775Y-1.525
X4.775Y-1.825
X4.875Y-1.525
X4.875Y-1.825
X4.975Y-1.525
X4.975Y-1.825
X5.075Y-1.525
X5.075Y-1.825
X5.175Y-1.525
X5.175Y-1.825
T7
X1.475Y-3.875
X1.475Y-3.975
X1.475Y-4.075
X1.475Y-4.175
X1.475Y-4.275
X1.475Y-4.375
X1.475Y-4.475
X1.475Y-4.575
X1.475Y-4.675
X1.475Y-4.775
X1.475Y-4.875
X1.475Y-4.975
X1.475Y-5.075
X1.475Y-5.175
X1.475Y-5.275
X1.475Y-5.375
X6.675Y-3.875
X6.675Y-3.975
X6.675Y-4.075
X6.675Y-4.175
X6.675Y-4.275
X6.675Y-4.375
X6.675Y-4.475
X6.675Y-4.575
X6.675Y-4.675
X6.675Y-4.775
X6.675Y-4.875
X6.675Y-4.975
X6.675Y-5.075
X6.675Y-5.175
X6.675Y-5.275
X6.675Y-5.375
X1.475Y-1.375
X1.475Y-1.475
X1.475Y-1.575
X1.475Y-1.675
X1.475Y-1.775
X1.475Y-1.875
X1.475Y-1.975
X1.475Y-2.075
X1.475Y-2.175
X1.475Y-2.275
X1.475Y-2.375
X1.475Y-2.475
X1.475Y-2.575
X1.475Y-2.675
X1.475Y-2.775
X1.475Y-2.875
X6.675Y-1.375
X6.675Y-1.475
X6.675Y-1.575
X6.675Y-1.675
X6.675Y-1.775
X6.675Y-1.875
X6.675Y-1.975
X6.675Y-2.075
X6.675Y-2.175
X6.675Y-2.275
X6.675Y-2.375
X6.675Y-2.475
X6.675Y-2.575
X6.675Y-2.675
X6.675Y-2.775
X6.675Y-2.875
T8
X2.495Y-4.58
X2.495Y-5.37
X2.905Y-4.58
X2.905Y-5.37
X4.145Y-3.63
X4.145Y-4.42
X4.555Y-3.63
X4.555Y-4.42
X3.595Y-3.63
X3.595Y-4.42
X4.005Y-3.63
X4.005Y-4.42
X5.245Y-3.63
X5.245Y-4.42
X5.655Y-3.63
X5.655Y-4.42
X4.145Y-4.58
X4.145Y-5.37
X4.555Y-4.58
X4.555Y-5.37
X2.495Y-3.63
X2.495Y-4.42
X2.905Y-3.63
X2.905Y-4.42
X3.045Y-4.58
X3.045Y-5.37
X3.455Y-4.58
X3.455Y-5.37
X3.045Y-3.63
X3.045Y-4.42
X3.455Y-3.63
X3.455Y-4.42
X4.695Y-3.63
X4.695Y-4.42
X5.105Y-3.63
X5.105Y-4.42
X5.795Y-3.63
X5.795Y-4.42
X6.205Y-3.63
X6.205Y-4.42
X4.695Y-4.58
X4.695Y-5.37
X5.105Y-4.58
X5.105Y-5.37
X5.245Y-4.58
X5.245Y-5.37
X5.655Y-4.58
X5.655Y-5.37
X5.795Y-4.58
X5.795Y-5.37
X6.205Y-4.58
X6.205Y-5.37
X1.945Y-3.63
X1.945Y-4.42
X2.355Y-3.63
X2.355Y-4.42
X1.945Y-4.58
X1.945Y-5.37
X2.355Y-4.58
X2.355Y-5.37
X3.595Y-4.58
X3.595Y-5.37
X4.005Y-4.58
X4.005Y-5.37
T0
M30
