G04 #@! TF.GenerationSoftware,KiCad,Pcbnew,(5.1.2)-2*
G04 #@! TF.CreationDate,2019-08-11T10:56:01+02:00*
G04 #@! TF.ProjectId,Memory-Access-Register,4d656d6f-7279-42d4-9163-636573732d52,rev?*
G04 #@! TF.SameCoordinates,Original*
G04 #@! TF.FileFunction,Copper,L1,Top*
G04 #@! TF.FilePolarity,Positive*
%FSLAX46Y46*%
G04 Gerber Fmt 4.6, Leading zero omitted, Abs format (unit mm)*
G04 Created by KiCad (PCBNEW (5.1.2)-2) date 2019-08-11 10:56:01*
%MOMM*%
%LPD*%
G04 APERTURE LIST*
%ADD10R,1.700000X1.700000*%
%ADD11O,1.700000X1.700000*%
%ADD12C,2.200000*%
%ADD13C,1.600000*%
%ADD14C,1.524000*%
%ADD15C,1.400000*%
%ADD16C,2.032000*%
%ADD17R,2.032000X2.032000*%
%ADD18C,1.800000*%
%ADD19R,1.800000X1.800000*%
%ADD20R,1.600000X1.600000*%
%ADD21O,1.600000X1.600000*%
%ADD22C,0.800000*%
%ADD23C,0.350000*%
%ADD24C,0.250000*%
G04 APERTURE END LIST*
D10*
X169545000Y-98425000D03*
D11*
X169545000Y-100965000D03*
X169545000Y-103505000D03*
X169545000Y-106045000D03*
X169545000Y-108585000D03*
X169545000Y-111125000D03*
X169545000Y-113665000D03*
X169545000Y-116205000D03*
X169545000Y-118745000D03*
X169545000Y-121285000D03*
X169545000Y-123825000D03*
X169545000Y-126365000D03*
X169545000Y-128905000D03*
X169545000Y-131445000D03*
X169545000Y-133985000D03*
X169545000Y-136525000D03*
D12*
X119253000Y-116332000D03*
X119253000Y-136398000D03*
X129667000Y-136398000D03*
X129667000Y-116332000D03*
D13*
X121920000Y-123825000D03*
D14*
X121920000Y-126365000D03*
X121920000Y-128905000D03*
X127000000Y-123825000D03*
X127000000Y-126365000D03*
X127000000Y-128905000D03*
D11*
X169545000Y-73025000D03*
X169545000Y-70485000D03*
X169545000Y-67945000D03*
X169545000Y-65405000D03*
X169545000Y-62865000D03*
X169545000Y-60325000D03*
X169545000Y-57785000D03*
X169545000Y-55245000D03*
X169545000Y-52705000D03*
X169545000Y-50165000D03*
X169545000Y-47625000D03*
X169545000Y-45085000D03*
X169545000Y-42545000D03*
X169545000Y-40005000D03*
X169545000Y-37465000D03*
D10*
X169545000Y-34925000D03*
D14*
X113030000Y-104775000D03*
X113030000Y-102235000D03*
X113030000Y-99695000D03*
X107950000Y-104775000D03*
X107950000Y-102235000D03*
D13*
X107950000Y-99695000D03*
D12*
X115697000Y-92202000D03*
X115697000Y-112268000D03*
X105283000Y-112268000D03*
X105283000Y-92202000D03*
X91313000Y-92202000D03*
X91313000Y-112268000D03*
X101727000Y-112268000D03*
X101727000Y-92202000D03*
D13*
X93980000Y-99695000D03*
D14*
X93980000Y-102235000D03*
X93980000Y-104775000D03*
X99060000Y-99695000D03*
X99060000Y-102235000D03*
X99060000Y-104775000D03*
X85090000Y-104775000D03*
X85090000Y-102235000D03*
X85090000Y-99695000D03*
X80010000Y-104775000D03*
X80010000Y-102235000D03*
D13*
X80010000Y-99695000D03*
D12*
X87757000Y-92202000D03*
X87757000Y-112268000D03*
X77343000Y-112268000D03*
X77343000Y-92202000D03*
X63373000Y-92202000D03*
X63373000Y-112268000D03*
X73787000Y-112268000D03*
X73787000Y-92202000D03*
D13*
X66040000Y-99695000D03*
D14*
X66040000Y-102235000D03*
X66040000Y-104775000D03*
X71120000Y-99695000D03*
X71120000Y-102235000D03*
X71120000Y-104775000D03*
X57150000Y-104775000D03*
X57150000Y-102235000D03*
X57150000Y-99695000D03*
X52070000Y-104775000D03*
X52070000Y-102235000D03*
D13*
X52070000Y-99695000D03*
D12*
X59817000Y-92202000D03*
X59817000Y-112268000D03*
X49403000Y-112268000D03*
X49403000Y-92202000D03*
X63373000Y-116332000D03*
X63373000Y-136398000D03*
X73787000Y-136398000D03*
X73787000Y-116332000D03*
D13*
X66040000Y-123825000D03*
D14*
X66040000Y-126365000D03*
X66040000Y-128905000D03*
X71120000Y-123825000D03*
X71120000Y-126365000D03*
X71120000Y-128905000D03*
X85090000Y-128905000D03*
X85090000Y-126365000D03*
X85090000Y-123825000D03*
X80010000Y-128905000D03*
X80010000Y-126365000D03*
D13*
X80010000Y-123825000D03*
D12*
X87757000Y-116332000D03*
X87757000Y-136398000D03*
X77343000Y-136398000D03*
X77343000Y-116332000D03*
X91313000Y-116332000D03*
X91313000Y-136398000D03*
X101727000Y-136398000D03*
X101727000Y-116332000D03*
D13*
X93980000Y-123825000D03*
D14*
X93980000Y-126365000D03*
X93980000Y-128905000D03*
X99060000Y-123825000D03*
X99060000Y-126365000D03*
X99060000Y-128905000D03*
X113030000Y-128905000D03*
X113030000Y-126365000D03*
X113030000Y-123825000D03*
X107950000Y-128905000D03*
X107950000Y-126365000D03*
D13*
X107950000Y-123825000D03*
D12*
X115697000Y-116332000D03*
X115697000Y-136398000D03*
X105283000Y-136398000D03*
X105283000Y-116332000D03*
D14*
X140970000Y-128905000D03*
X140970000Y-126365000D03*
X140970000Y-123825000D03*
X135890000Y-128905000D03*
X135890000Y-126365000D03*
D13*
X135890000Y-123825000D03*
D12*
X143637000Y-116332000D03*
X143637000Y-136398000D03*
X133223000Y-136398000D03*
X133223000Y-116332000D03*
X147193000Y-116332000D03*
X147193000Y-136398000D03*
X157607000Y-136398000D03*
X157607000Y-116332000D03*
D13*
X149860000Y-123825000D03*
D14*
X149860000Y-126365000D03*
X149860000Y-128905000D03*
X154940000Y-123825000D03*
X154940000Y-126365000D03*
X154940000Y-128905000D03*
X127000000Y-104775000D03*
X127000000Y-102235000D03*
X127000000Y-99695000D03*
X121920000Y-104775000D03*
X121920000Y-102235000D03*
D13*
X121920000Y-99695000D03*
D12*
X129667000Y-92202000D03*
X129667000Y-112268000D03*
X119253000Y-112268000D03*
X119253000Y-92202000D03*
X133223000Y-92202000D03*
X133223000Y-112268000D03*
X143637000Y-112268000D03*
X143637000Y-92202000D03*
D13*
X135890000Y-99695000D03*
D14*
X135890000Y-102235000D03*
X135890000Y-104775000D03*
X140970000Y-99695000D03*
X140970000Y-102235000D03*
X140970000Y-104775000D03*
X154940000Y-104775000D03*
X154940000Y-102235000D03*
X154940000Y-99695000D03*
X149860000Y-104775000D03*
X149860000Y-102235000D03*
D13*
X149860000Y-99695000D03*
D12*
X157607000Y-92202000D03*
X157607000Y-112268000D03*
X147193000Y-112268000D03*
X147193000Y-92202000D03*
X49403000Y-116332000D03*
X49403000Y-136398000D03*
X59817000Y-136398000D03*
X59817000Y-116332000D03*
D13*
X52070000Y-123825000D03*
D14*
X52070000Y-126365000D03*
X52070000Y-128905000D03*
X57150000Y-123825000D03*
X57150000Y-126365000D03*
X57150000Y-128905000D03*
D15*
X85852000Y-34925000D03*
X83820000Y-34925000D03*
X81788000Y-34925000D03*
X81788000Y-40005000D03*
X85852000Y-40005000D03*
X83820000Y-40005000D03*
D10*
X37465000Y-34925000D03*
D11*
X37465000Y-37465000D03*
X37465000Y-40005000D03*
X37465000Y-42545000D03*
X37465000Y-45085000D03*
X37465000Y-47625000D03*
X37465000Y-50165000D03*
X37465000Y-52705000D03*
X37465000Y-55245000D03*
X37465000Y-57785000D03*
X37465000Y-60325000D03*
X37465000Y-62865000D03*
X37465000Y-65405000D03*
X37465000Y-67945000D03*
X37465000Y-70485000D03*
X37465000Y-73025000D03*
X37465000Y-136525000D03*
X37465000Y-133985000D03*
X37465000Y-131445000D03*
X37465000Y-128905000D03*
X37465000Y-126365000D03*
X37465000Y-123825000D03*
X37465000Y-121285000D03*
X37465000Y-118745000D03*
X37465000Y-116205000D03*
X37465000Y-113665000D03*
X37465000Y-111125000D03*
X37465000Y-108585000D03*
X37465000Y-106045000D03*
X37465000Y-103505000D03*
X37465000Y-100965000D03*
D10*
X37465000Y-98425000D03*
D16*
X134620000Y-38735000D03*
X137160000Y-38735000D03*
X139700000Y-38735000D03*
X142240000Y-38735000D03*
X154940000Y-46355000D03*
X157480000Y-46355000D03*
X157480000Y-38735000D03*
X154940000Y-38735000D03*
X152400000Y-46355000D03*
X149860000Y-46355000D03*
X147320000Y-46355000D03*
X144780000Y-46355000D03*
X144780000Y-38735000D03*
X147320000Y-38735000D03*
X149860000Y-38735000D03*
X152400000Y-38735000D03*
X142240000Y-46355000D03*
X139700000Y-46355000D03*
X137160000Y-46355000D03*
D17*
X134620000Y-46355000D03*
X108585000Y-46355000D03*
D16*
X111125000Y-46355000D03*
X113665000Y-46355000D03*
X116205000Y-46355000D03*
X126365000Y-38735000D03*
X123825000Y-38735000D03*
X121285000Y-38735000D03*
X118745000Y-38735000D03*
X118745000Y-46355000D03*
X121285000Y-46355000D03*
X123825000Y-46355000D03*
X126365000Y-46355000D03*
X128905000Y-38735000D03*
X131445000Y-38735000D03*
X131445000Y-46355000D03*
X128905000Y-46355000D03*
X116205000Y-38735000D03*
X113665000Y-38735000D03*
X111125000Y-38735000D03*
X108585000Y-38735000D03*
D18*
X92710000Y-34925000D03*
D19*
X92710000Y-37465000D03*
D20*
X49530000Y-42545000D03*
D21*
X64770000Y-34925000D03*
X52070000Y-42545000D03*
X62230000Y-34925000D03*
X54610000Y-42545000D03*
X59690000Y-34925000D03*
X57150000Y-42545000D03*
X57150000Y-34925000D03*
X59690000Y-42545000D03*
X54610000Y-34925000D03*
X62230000Y-42545000D03*
X52070000Y-34925000D03*
X64770000Y-42545000D03*
X49530000Y-34925000D03*
X139700000Y-73660000D03*
X157480000Y-81280000D03*
X142240000Y-73660000D03*
X154940000Y-81280000D03*
X144780000Y-73660000D03*
X152400000Y-81280000D03*
X147320000Y-73660000D03*
X149860000Y-81280000D03*
X149860000Y-73660000D03*
X147320000Y-81280000D03*
X152400000Y-73660000D03*
X144780000Y-81280000D03*
X154940000Y-73660000D03*
X142240000Y-81280000D03*
X157480000Y-73660000D03*
D20*
X139700000Y-81280000D03*
X108458000Y-81280000D03*
D21*
X126238000Y-73660000D03*
X110998000Y-81280000D03*
X123698000Y-73660000D03*
X113538000Y-81280000D03*
X121158000Y-73660000D03*
X116078000Y-81280000D03*
X118618000Y-73660000D03*
X118618000Y-81280000D03*
X116078000Y-73660000D03*
X121158000Y-81280000D03*
X113538000Y-73660000D03*
X123698000Y-81280000D03*
X110998000Y-73660000D03*
X126238000Y-81280000D03*
X108458000Y-73660000D03*
X139700000Y-57150000D03*
X157480000Y-64770000D03*
X142240000Y-57150000D03*
X154940000Y-64770000D03*
X144780000Y-57150000D03*
X152400000Y-64770000D03*
X147320000Y-57150000D03*
X149860000Y-64770000D03*
X149860000Y-57150000D03*
X147320000Y-64770000D03*
X152400000Y-57150000D03*
X144780000Y-64770000D03*
X154940000Y-57150000D03*
X142240000Y-64770000D03*
X157480000Y-57150000D03*
D20*
X139700000Y-64770000D03*
X108458000Y-64770000D03*
D21*
X126238000Y-57150000D03*
X110998000Y-64770000D03*
X123698000Y-57150000D03*
X113538000Y-64770000D03*
X121158000Y-57150000D03*
X116078000Y-64770000D03*
X118618000Y-57150000D03*
X118618000Y-64770000D03*
X116078000Y-57150000D03*
X121158000Y-64770000D03*
X113538000Y-57150000D03*
X123698000Y-64770000D03*
X110998000Y-57150000D03*
X126238000Y-64770000D03*
X108458000Y-57150000D03*
D20*
X78740000Y-56515000D03*
D21*
X101600000Y-48895000D03*
X81280000Y-56515000D03*
X99060000Y-48895000D03*
X83820000Y-56515000D03*
X96520000Y-48895000D03*
X86360000Y-56515000D03*
X93980000Y-48895000D03*
X88900000Y-56515000D03*
X91440000Y-48895000D03*
X91440000Y-56515000D03*
X88900000Y-48895000D03*
X93980000Y-56515000D03*
X86360000Y-48895000D03*
X96520000Y-56515000D03*
X83820000Y-48895000D03*
X99060000Y-56515000D03*
X81280000Y-48895000D03*
X101600000Y-56515000D03*
X78740000Y-48895000D03*
X49530000Y-48895000D03*
X72390000Y-56515000D03*
X52070000Y-48895000D03*
X69850000Y-56515000D03*
X54610000Y-48895000D03*
X67310000Y-56515000D03*
X57150000Y-48895000D03*
X64770000Y-56515000D03*
X59690000Y-48895000D03*
X62230000Y-56515000D03*
X62230000Y-48895000D03*
X59690000Y-56515000D03*
X64770000Y-48895000D03*
X57150000Y-56515000D03*
X67310000Y-48895000D03*
X54610000Y-56515000D03*
X69850000Y-48895000D03*
X52070000Y-56515000D03*
X72390000Y-48895000D03*
D20*
X49530000Y-56515000D03*
X90170000Y-62865000D03*
D21*
X97790000Y-85725000D03*
X90170000Y-65405000D03*
X97790000Y-83185000D03*
X90170000Y-67945000D03*
X97790000Y-80645000D03*
X90170000Y-70485000D03*
X97790000Y-78105000D03*
X90170000Y-73025000D03*
X97790000Y-75565000D03*
X90170000Y-75565000D03*
X97790000Y-73025000D03*
X90170000Y-78105000D03*
X97790000Y-70485000D03*
X90170000Y-80645000D03*
X97790000Y-67945000D03*
X90170000Y-83185000D03*
X97790000Y-65405000D03*
X90170000Y-85725000D03*
X97790000Y-62865000D03*
X77470000Y-62865000D03*
X69850000Y-85725000D03*
X77470000Y-65405000D03*
X69850000Y-83185000D03*
X77470000Y-67945000D03*
X69850000Y-80645000D03*
X77470000Y-70485000D03*
X69850000Y-78105000D03*
X77470000Y-73025000D03*
X69850000Y-75565000D03*
X77470000Y-75565000D03*
X69850000Y-73025000D03*
X77470000Y-78105000D03*
X69850000Y-70485000D03*
X77470000Y-80645000D03*
X69850000Y-67945000D03*
X77470000Y-83185000D03*
X69850000Y-65405000D03*
X77470000Y-85725000D03*
D20*
X69850000Y-62865000D03*
X49530000Y-62865000D03*
D21*
X57150000Y-85725000D03*
X49530000Y-65405000D03*
X57150000Y-83185000D03*
X49530000Y-67945000D03*
X57150000Y-80645000D03*
X49530000Y-70485000D03*
X57150000Y-78105000D03*
X49530000Y-73025000D03*
X57150000Y-75565000D03*
X49530000Y-75565000D03*
X57150000Y-73025000D03*
X49530000Y-78105000D03*
X57150000Y-70485000D03*
X49530000Y-80645000D03*
X57150000Y-67945000D03*
X49530000Y-83185000D03*
X57150000Y-65405000D03*
X49530000Y-85725000D03*
X57150000Y-62865000D03*
X137160000Y-34925000D03*
X139700000Y-34925000D03*
X142240000Y-34925000D03*
X144780000Y-34925000D03*
X147320000Y-34925000D03*
X149860000Y-34925000D03*
X152400000Y-34925000D03*
X154940000Y-34925000D03*
D20*
X157480000Y-34925000D03*
X83820000Y-65405000D03*
D21*
X83820000Y-67945000D03*
X83820000Y-70485000D03*
X83820000Y-73025000D03*
X83820000Y-75565000D03*
X83820000Y-78105000D03*
X83820000Y-80645000D03*
X83820000Y-83185000D03*
X83820000Y-85725000D03*
X113665000Y-34925000D03*
X116205000Y-34925000D03*
X118745000Y-34925000D03*
X121285000Y-34925000D03*
X123825000Y-34925000D03*
X126365000Y-34925000D03*
X128905000Y-34925000D03*
X131445000Y-34925000D03*
D20*
X133985000Y-34925000D03*
X63500000Y-65405000D03*
D21*
X63500000Y-67945000D03*
X63500000Y-70485000D03*
X63500000Y-73025000D03*
X63500000Y-75565000D03*
X63500000Y-78105000D03*
X63500000Y-80645000D03*
X63500000Y-83185000D03*
X63500000Y-85725000D03*
D13*
X100330000Y-41275000D03*
D21*
X92710000Y-41275000D03*
D22*
X54610000Y-66743600D03*
X112412700Y-53535400D03*
X75641700Y-63990400D03*
X107178900Y-86005300D03*
X147368400Y-61334400D03*
X85090000Y-55797400D03*
X144780000Y-60063500D03*
X128517500Y-68622900D03*
X132247900Y-63423400D03*
X130699400Y-58289100D03*
X131202300Y-63438100D03*
X157853500Y-106994000D03*
X145521000Y-53821300D03*
X147627600Y-71533800D03*
X131387700Y-89215000D03*
X157677400Y-59300700D03*
X123327000Y-75102900D03*
X129386100Y-82361500D03*
X137330400Y-105862400D03*
X151483900Y-49560800D03*
X116500200Y-78181000D03*
X112428300Y-83584700D03*
X130814700Y-105772300D03*
X149087600Y-60669300D03*
X149711300Y-107148100D03*
X120441700Y-60492500D03*
D23*
X66040000Y-99695000D02*
X64849400Y-100885600D01*
X149860000Y-98551900D02*
X149860000Y-99695000D01*
X149860000Y-98551900D02*
X137033100Y-98551900D01*
X137033100Y-98551900D02*
X135890000Y-99695000D01*
X64849400Y-100885600D02*
X53260600Y-100885600D01*
X53260600Y-100885600D02*
X52070000Y-99695000D01*
X76284600Y-103420400D02*
X65604000Y-103420400D01*
X80010000Y-99695000D02*
X76284600Y-103420400D01*
X65604000Y-103420400D02*
X64849400Y-102665800D01*
X64849400Y-102665800D02*
X64849400Y-100885600D01*
X81147400Y-124962400D02*
X80010000Y-123825000D01*
X92842600Y-124962400D02*
X81147400Y-124962400D01*
X93980000Y-123825000D02*
X92842600Y-124962400D01*
X121920000Y-123825000D02*
X120782600Y-124962400D01*
X109087400Y-124962400D02*
X107950000Y-123825000D01*
X120782600Y-124962400D02*
X109087400Y-124962400D01*
X120729400Y-100885600D02*
X109140600Y-100885600D01*
X109140600Y-100885600D02*
X107950000Y-99695000D01*
X121920000Y-99695000D02*
X120729400Y-100885600D01*
X157480000Y-81280000D02*
X157480000Y-82455300D01*
X149860000Y-90075300D02*
X149860000Y-98551900D01*
X157480000Y-82455300D02*
X149860000Y-90075300D01*
X90170000Y-65405000D02*
X83820000Y-65405000D01*
X110998000Y-74835300D02*
X110998000Y-73660000D01*
X115200100Y-79037400D02*
X110998000Y-74835300D01*
X123995400Y-79037400D02*
X115200100Y-79037400D01*
X126238000Y-81280000D02*
X123995400Y-79037400D01*
X127413300Y-81280000D02*
X126238000Y-81280000D01*
X131912400Y-76780900D02*
X127413300Y-81280000D01*
X139119100Y-76780900D02*
X131912400Y-76780900D01*
X142240000Y-73660000D02*
X139119100Y-76780900D01*
D24*
X57150000Y-67945000D02*
X56024700Y-67945000D01*
X56024700Y-67945000D02*
X54823300Y-66743600D01*
X54823300Y-66743600D02*
X54610000Y-66743600D01*
X63500000Y-67945000D02*
X57150000Y-67945000D01*
X63500000Y-70485000D02*
X57150000Y-70485000D01*
X56024700Y-70485000D02*
X57150000Y-70485000D01*
X54852600Y-69312900D02*
X56024700Y-70485000D01*
X49090200Y-69312900D02*
X54852600Y-69312900D01*
X38640300Y-79762800D02*
X49090200Y-69312900D01*
X38640300Y-99789700D02*
X38640300Y-79762800D01*
X37465000Y-100965000D02*
X38640300Y-99789700D01*
X63500000Y-73025000D02*
X57150000Y-73025000D01*
X56024700Y-73025000D02*
X57150000Y-73025000D01*
X54884100Y-71884400D02*
X56024700Y-73025000D01*
X49062200Y-71884400D02*
X54884100Y-71884400D01*
X39635900Y-81310700D02*
X49062200Y-71884400D01*
X39635900Y-101334100D02*
X39635900Y-81310700D01*
X37465000Y-103505000D02*
X39635900Y-101334100D01*
X63500000Y-75565000D02*
X57150000Y-75565000D01*
X63500000Y-78105000D02*
X57150000Y-78105000D01*
X63500000Y-80645000D02*
X57150000Y-80645000D01*
X63500000Y-83185000D02*
X57150000Y-83185000D01*
X51407000Y-83185000D02*
X57150000Y-83185000D01*
X50227500Y-82005500D02*
X51407000Y-83185000D01*
X49112700Y-82005500D02*
X50227500Y-82005500D01*
X40150300Y-90967900D02*
X49112700Y-82005500D01*
X40150300Y-110979700D02*
X40150300Y-90967900D01*
X37465000Y-113665000D02*
X40150300Y-110979700D01*
X63500000Y-85725000D02*
X57150000Y-85725000D01*
X57150000Y-89063800D02*
X57150000Y-85725000D01*
X41566900Y-104646900D02*
X57150000Y-89063800D01*
X41566900Y-112103100D02*
X41566900Y-104646900D01*
X37465000Y-116205000D02*
X41566900Y-112103100D01*
X84945300Y-67945000D02*
X86102700Y-66787600D01*
X86102700Y-66787600D02*
X93450200Y-66787600D01*
X93450200Y-66787600D02*
X94607600Y-67945000D01*
X94607600Y-67945000D02*
X97790000Y-67945000D01*
X83820000Y-67945000D02*
X84945300Y-67945000D01*
X77470000Y-67945000D02*
X83820000Y-67945000D01*
X77188600Y-69070300D02*
X77470000Y-69070300D01*
X76344700Y-78286500D02*
X76344700Y-69914200D01*
X70176200Y-84455000D02*
X76344700Y-78286500D01*
X37465000Y-118745000D02*
X48875100Y-107334900D01*
X77470000Y-69070300D02*
X77470000Y-67945000D01*
X48875100Y-107334900D02*
X48875100Y-100568500D01*
X48875100Y-100568500D02*
X59361900Y-90081700D01*
X59361900Y-90081700D02*
X63809600Y-90081700D01*
X76344700Y-69914200D02*
X77188600Y-69070300D01*
X63809600Y-90081700D02*
X69436300Y-84455000D01*
X69436300Y-84455000D02*
X70176200Y-84455000D01*
X97790000Y-70485000D02*
X96664700Y-70485000D01*
X83820000Y-70485000D02*
X84945300Y-70485000D01*
X84945300Y-70485000D02*
X86070600Y-69359700D01*
X86070600Y-69359700D02*
X95539400Y-69359700D01*
X95539400Y-69359700D02*
X96664700Y-70485000D01*
X97790000Y-73025000D02*
X96664700Y-73025000D01*
X83820000Y-73025000D02*
X84945300Y-73025000D01*
X84945300Y-73025000D02*
X86070600Y-71899700D01*
X86070600Y-71899700D02*
X95539400Y-71899700D01*
X95539400Y-71899700D02*
X96664700Y-73025000D01*
X77470000Y-73025000D02*
X83820000Y-73025000D01*
X84945300Y-75565000D02*
X86070600Y-74439700D01*
X86070600Y-74439700D02*
X95539400Y-74439700D01*
X95539400Y-74439700D02*
X96664700Y-75565000D01*
X97790000Y-75565000D02*
X96664700Y-75565000D01*
X83820000Y-75565000D02*
X84945300Y-75565000D01*
X77470000Y-75565000D02*
X83820000Y-75565000D01*
X97790000Y-78105000D02*
X96664700Y-78105000D01*
X83820000Y-78105000D02*
X84945300Y-78105000D01*
X84945300Y-78105000D02*
X86070600Y-76979700D01*
X86070600Y-76979700D02*
X95539400Y-76979700D01*
X95539400Y-76979700D02*
X96664700Y-78105000D01*
X77470000Y-78105000D02*
X83820000Y-78105000D01*
X97790000Y-80645000D02*
X96664700Y-80645000D01*
X83820000Y-80645000D02*
X84945300Y-80645000D01*
X84945300Y-80645000D02*
X86070600Y-79519700D01*
X86070600Y-79519700D02*
X95539400Y-79519700D01*
X95539400Y-79519700D02*
X96664700Y-80645000D01*
X77470000Y-80645000D02*
X83820000Y-80645000D01*
X97790000Y-83185000D02*
X96664700Y-83185000D01*
X83820000Y-83185000D02*
X84945300Y-83185000D01*
X84945300Y-83185000D02*
X86070600Y-82059700D01*
X86070600Y-82059700D02*
X95539400Y-82059700D01*
X95539400Y-82059700D02*
X96664700Y-83185000D01*
X77470000Y-83185000D02*
X83820000Y-83185000D01*
X97790000Y-85725000D02*
X96664700Y-85725000D01*
X83820000Y-85725000D02*
X84945300Y-85725000D01*
X84945300Y-85725000D02*
X86070600Y-84599700D01*
X86070600Y-84599700D02*
X95539400Y-84599700D01*
X95539400Y-84599700D02*
X96664700Y-85725000D01*
X77470000Y-85725000D02*
X83820000Y-85725000D01*
D23*
X135890000Y-104775000D02*
X137080600Y-103584400D01*
X137080600Y-103584400D02*
X148669400Y-103584400D01*
X148669400Y-103584400D02*
X149860000Y-104775000D01*
X121920000Y-104775000D02*
X123057400Y-105912400D01*
X123057400Y-105912400D02*
X129578200Y-105912400D01*
X129578200Y-105912400D02*
X130715600Y-104775000D01*
X130715600Y-104775000D02*
X135890000Y-104775000D01*
X66040000Y-128905000D02*
X64888000Y-127753000D01*
X64888000Y-127753000D02*
X53222000Y-127753000D01*
X53222000Y-127753000D02*
X52070000Y-128905000D01*
X80010000Y-128905000D02*
X78871500Y-127766500D01*
X78871500Y-127766500D02*
X67178500Y-127766500D01*
X67178500Y-127766500D02*
X66040000Y-128905000D01*
X37465000Y-37465000D02*
X38690300Y-37465000D01*
X49530000Y-34925000D02*
X41230300Y-34925000D01*
X41230300Y-34925000D02*
X38690300Y-37465000D01*
X78645300Y-62865000D02*
X88994700Y-62865000D01*
X80010000Y-104775000D02*
X81147400Y-105912400D01*
X81147400Y-105912400D02*
X92842600Y-105912400D01*
X92842600Y-105912400D02*
X93980000Y-104775000D01*
X80010000Y-104775000D02*
X78872600Y-105912400D01*
X78872600Y-105912400D02*
X67177400Y-105912400D01*
X67177400Y-105912400D02*
X66040000Y-104775000D01*
X93980000Y-128905000D02*
X92828200Y-127753200D01*
X92828200Y-127753200D02*
X81161800Y-127753200D01*
X81161800Y-127753200D02*
X80010000Y-128905000D01*
X93980000Y-128905000D02*
X95117400Y-127767600D01*
X95117400Y-127767600D02*
X106812600Y-127767600D01*
X106812600Y-127767600D02*
X107950000Y-128905000D01*
X69850000Y-62865000D02*
X71025300Y-62865000D01*
X77470000Y-62865000D02*
X76294700Y-62865000D01*
X76294700Y-62865000D02*
X71025300Y-62865000D01*
X121920000Y-128905000D02*
X123057400Y-127767600D01*
X123057400Y-127767600D02*
X134752600Y-127767600D01*
X134752600Y-127767600D02*
X135890000Y-128905000D01*
X77470000Y-62865000D02*
X78645300Y-62865000D01*
X90170000Y-62865000D02*
X88994700Y-62865000D01*
X121920000Y-104775000D02*
X120782600Y-105912400D01*
X120782600Y-105912400D02*
X109087400Y-105912400D01*
X109087400Y-105912400D02*
X107950000Y-104775000D01*
X107950000Y-104775000D02*
X106812600Y-105912400D01*
X106812600Y-105912400D02*
X95117400Y-105912400D01*
X95117400Y-105912400D02*
X93980000Y-104775000D01*
X52070000Y-104775000D02*
X53207400Y-105912400D01*
X53207400Y-105912400D02*
X64902600Y-105912400D01*
X64902600Y-105912400D02*
X66040000Y-104775000D01*
X149860000Y-128905000D02*
X148722600Y-127767600D01*
X148722600Y-127767600D02*
X137027400Y-127767600D01*
X137027400Y-127767600D02*
X135890000Y-128905000D01*
X97790000Y-62865000D02*
X90170000Y-62865000D01*
X57150000Y-62865000D02*
X50705300Y-62865000D01*
X69850000Y-62865000D02*
X57150000Y-62865000D01*
X49530000Y-62865000D02*
X50705300Y-62865000D01*
D24*
X49530000Y-65405000D02*
X50655300Y-65405000D01*
X69850000Y-65405000D02*
X68724700Y-65405000D01*
X68724700Y-65405000D02*
X67599400Y-64279700D01*
X67599400Y-64279700D02*
X51780600Y-64279700D01*
X51780600Y-64279700D02*
X50655300Y-65405000D01*
X69850000Y-67945000D02*
X68724700Y-67945000D01*
X68724700Y-67945000D02*
X67551200Y-69118500D01*
X67551200Y-69118500D02*
X55959100Y-69118500D01*
X55959100Y-69118500D02*
X54785600Y-67945000D01*
X54785600Y-67945000D02*
X49530000Y-67945000D01*
X69850000Y-70485000D02*
X68724700Y-70485000D01*
X68724700Y-70485000D02*
X67542900Y-71666800D01*
X67542900Y-71666800D02*
X56569600Y-71666800D01*
X56569600Y-71666800D02*
X55387800Y-70485000D01*
X55387800Y-70485000D02*
X49530000Y-70485000D01*
X49530000Y-73025000D02*
X50655300Y-73025000D01*
X69850000Y-73025000D02*
X68724700Y-73025000D01*
X68724700Y-73025000D02*
X67599400Y-74150300D01*
X67599400Y-74150300D02*
X51780600Y-74150300D01*
X51780600Y-74150300D02*
X50655300Y-73025000D01*
X49530000Y-75565000D02*
X50655300Y-75565000D01*
X69850000Y-75565000D02*
X68724700Y-75565000D01*
X68724700Y-75565000D02*
X67599400Y-76690300D01*
X67599400Y-76690300D02*
X51780600Y-76690300D01*
X51780600Y-76690300D02*
X50655300Y-75565000D01*
X49530000Y-78105000D02*
X50655300Y-78105000D01*
X69850000Y-78105000D02*
X68724700Y-78105000D01*
X68724700Y-78105000D02*
X67599400Y-79230300D01*
X67599400Y-79230300D02*
X51780600Y-79230300D01*
X51780600Y-79230300D02*
X50655300Y-78105000D01*
X49530000Y-80645000D02*
X50655300Y-80645000D01*
X69850000Y-80645000D02*
X68724700Y-80645000D01*
X68724700Y-80645000D02*
X67599400Y-81770300D01*
X67599400Y-81770300D02*
X51780600Y-81770300D01*
X51780600Y-81770300D02*
X50655300Y-80645000D01*
X49530000Y-83185000D02*
X50655300Y-83185000D01*
X69850000Y-83185000D02*
X68724700Y-83185000D01*
X68724700Y-83185000D02*
X67599400Y-84310300D01*
X67599400Y-84310300D02*
X51780600Y-84310300D01*
X51780600Y-84310300D02*
X50655300Y-83185000D01*
X49530000Y-42545000D02*
X48404700Y-42545000D01*
X37465000Y-42952200D02*
X47997500Y-42952200D01*
X47997500Y-42952200D02*
X48404700Y-42545000D01*
X37465000Y-42545000D02*
X37465000Y-42952200D01*
X51066400Y-66535600D02*
X52197000Y-65405000D01*
X49066200Y-66535600D02*
X51066400Y-66535600D01*
X52197000Y-65405000D02*
X57150000Y-65405000D01*
X38753900Y-56223300D02*
X49066200Y-66535600D01*
X36289700Y-43720300D02*
X36289700Y-48206900D01*
X36289700Y-48206900D02*
X36977800Y-48895000D01*
X36977800Y-48895000D02*
X37862800Y-48895000D01*
X37465000Y-42545000D02*
X36289700Y-43720300D01*
X37862800Y-48895000D02*
X38753900Y-49786100D01*
X38753900Y-49786100D02*
X38753900Y-56223300D01*
X54610000Y-45085000D02*
X53213000Y-45085000D01*
X57150000Y-42545000D02*
X54610000Y-45085000D01*
X53213000Y-45085000D02*
X37465000Y-45085000D01*
X38667081Y-47625000D02*
X37465000Y-47625000D01*
X39231381Y-47060700D02*
X38667081Y-47625000D01*
X55174300Y-47060700D02*
X39231381Y-47060700D01*
X59690000Y-42545000D02*
X55174300Y-47060700D01*
X51579500Y-61739500D02*
X37465000Y-47625000D01*
X97790000Y-65405000D02*
X98930500Y-64264500D01*
X98930500Y-64264500D02*
X98930500Y-62361900D01*
X98930500Y-62361900D02*
X98308200Y-61739600D01*
X98308200Y-61739600D02*
X52681400Y-61739600D01*
X52681400Y-61739600D02*
X52681300Y-61739500D01*
X52681300Y-61739500D02*
X51579500Y-61739500D01*
X72821600Y-53535400D02*
X112412700Y-53535400D01*
X52070000Y-48895000D02*
X53195400Y-47769600D01*
X53195400Y-47769600D02*
X55468400Y-47769600D01*
X55468400Y-47769600D02*
X55918700Y-47319300D01*
X68580000Y-49293800D02*
X72821600Y-53535400D01*
X55918700Y-47319300D02*
X67332200Y-47319300D01*
X67332200Y-47319300D02*
X68580000Y-48567100D01*
X68580000Y-48567100D02*
X68580000Y-49293800D01*
X71292900Y-55072100D02*
X69850000Y-56515000D01*
X111460100Y-55072100D02*
X71292900Y-55072100D01*
X113538000Y-57150000D02*
X111460100Y-55072100D01*
X98443000Y-60454400D02*
X109714800Y-71726200D01*
X59690000Y-48895000D02*
X58564700Y-50020300D01*
X58564700Y-50020300D02*
X56931500Y-50020300D01*
X119224200Y-71726200D02*
X121158000Y-73660000D01*
X56931500Y-50020300D02*
X50944100Y-56007700D01*
X50944100Y-56007700D02*
X50944100Y-57005200D01*
X109714800Y-71726200D02*
X119224200Y-71726200D01*
X50944100Y-57005200D02*
X54393300Y-60454400D01*
X54393300Y-60454400D02*
X98443000Y-60454400D01*
X64123200Y-54621800D02*
X62230000Y-56515000D01*
X118629800Y-54621800D02*
X64123200Y-54621800D01*
X121158000Y-57150000D02*
X118629800Y-54621800D01*
X117461000Y-82437000D02*
X118618000Y-81280000D01*
X51132000Y-53970500D02*
X49984500Y-53970500D01*
X55880000Y-48504700D02*
X55880000Y-49222500D01*
X114808000Y-81676100D02*
X115568900Y-82437000D01*
X62230000Y-48895000D02*
X61104600Y-47769600D01*
X61104600Y-47769600D02*
X56615100Y-47769600D01*
X49984500Y-53970500D02*
X48391200Y-55563800D01*
X56615100Y-47769600D02*
X55880000Y-48504700D01*
X48391200Y-57449400D02*
X52231000Y-61289200D01*
X55880000Y-49222500D02*
X51132000Y-53970500D01*
X52231000Y-61289200D02*
X98534400Y-61289200D01*
X98534400Y-61289200D02*
X109740100Y-72494900D01*
X48391200Y-55563800D02*
X48391200Y-57449400D01*
X109740100Y-72494900D02*
X109740100Y-75829800D01*
X114808000Y-80897700D02*
X114808000Y-81676100D01*
X109740100Y-75829800D02*
X114808000Y-80897700D01*
X115568900Y-82437000D02*
X117461000Y-82437000D01*
X114448800Y-60600800D02*
X118618000Y-64770000D01*
X100420300Y-60600800D02*
X114448800Y-60600800D01*
X99307500Y-59488000D02*
X100420300Y-60600800D01*
X62663000Y-59488000D02*
X99307500Y-59488000D01*
X59690000Y-56515000D02*
X62663000Y-59488000D01*
X75641700Y-63990400D02*
X91366900Y-63990400D01*
X91366900Y-63990400D02*
X94051500Y-66675000D01*
X94051500Y-66675000D02*
X98112400Y-66675000D01*
X98112400Y-66675000D02*
X110998000Y-79560600D01*
X110998000Y-79560600D02*
X110998000Y-81280000D01*
X108979300Y-62751300D02*
X110998000Y-64770000D01*
X101933900Y-62751300D02*
X108979300Y-62751300D01*
X99120900Y-59938300D02*
X101933900Y-62751300D01*
X55493300Y-59938300D02*
X99120900Y-59938300D01*
X52070000Y-56515000D02*
X55493300Y-59938300D01*
X37465000Y-40005000D02*
X61354400Y-40005000D01*
X61354400Y-40005000D02*
X63500000Y-42150600D01*
X63500000Y-42150600D02*
X63500000Y-42931700D01*
X63500000Y-42931700D02*
X66587400Y-46019100D01*
X66587400Y-46019100D02*
X70639400Y-46019100D01*
X70639400Y-46019100D02*
X72390000Y-47769700D01*
X72390000Y-48895000D02*
X72390000Y-47769700D01*
X101600000Y-48895000D02*
X100474700Y-47769700D01*
X100474700Y-47769700D02*
X99169300Y-47769700D01*
X72390000Y-47769700D02*
X99169300Y-47769700D01*
X83802700Y-59037700D02*
X81280000Y-56515000D01*
X142240000Y-64770000D02*
X140168100Y-62698100D01*
X140168100Y-62698100D02*
X120984700Y-62698100D01*
X120984700Y-62698100D02*
X118437100Y-60150500D01*
X118437100Y-60150500D02*
X100606900Y-60150500D01*
X100606900Y-60150500D02*
X99494100Y-59037700D01*
X99494100Y-59037700D02*
X83802700Y-59037700D01*
X137514700Y-86005300D02*
X136551300Y-86005300D01*
X142240000Y-81280000D02*
X137514700Y-86005300D01*
X107178900Y-86005300D02*
X136551300Y-86005300D01*
X90522100Y-58137100D02*
X88900000Y-56515000D01*
X99867300Y-58137100D02*
X90522100Y-58137100D01*
X100980100Y-59249900D02*
X99867300Y-58137100D01*
X149860000Y-64770000D02*
X147730700Y-62640700D01*
X147730700Y-62640700D02*
X146782300Y-62640700D01*
X146782300Y-62640700D02*
X145488800Y-61347200D01*
X145488800Y-61347200D02*
X123545500Y-61347200D01*
X123545500Y-61347200D02*
X121448200Y-59249900D01*
X121448200Y-59249900D02*
X100980100Y-59249900D01*
X150997400Y-80142600D02*
X149860000Y-81280000D01*
X153743900Y-80995900D02*
X152890600Y-80142600D01*
X154492500Y-82432700D02*
X153743900Y-81684100D01*
X153743900Y-81684100D02*
X153743900Y-80995900D01*
X155379000Y-82432700D02*
X154492500Y-82432700D01*
X152890600Y-80142600D02*
X150997400Y-80142600D01*
X159580600Y-77379200D02*
X156210000Y-80749800D01*
X91440000Y-48895000D02*
X92565300Y-50020300D01*
X92565300Y-50020300D02*
X102083900Y-50020300D01*
X156210000Y-81601700D02*
X155379000Y-82432700D01*
X102083900Y-50020300D02*
X108081300Y-44022900D01*
X108081300Y-44022900D02*
X157728300Y-44022900D01*
X156210000Y-80749800D02*
X156210000Y-81601700D01*
X157728300Y-44022900D02*
X159580600Y-45875200D01*
X159580600Y-45875200D02*
X159580600Y-77379200D01*
X146930900Y-60896900D02*
X147368400Y-61334400D01*
X91440000Y-56515000D02*
X92611800Y-57686800D01*
X92611800Y-57686800D02*
X100053900Y-57686800D01*
X100053900Y-57686800D02*
X101166700Y-58799600D01*
X101166700Y-58799600D02*
X123244500Y-58799600D01*
X123244500Y-58799600D02*
X125341800Y-60896900D01*
X125341800Y-60896900D02*
X146930900Y-60896900D01*
X144780000Y-72534700D02*
X143654700Y-71409400D01*
X143654700Y-71409400D02*
X143654700Y-64574700D01*
X143654700Y-64574700D02*
X141327800Y-62247800D01*
X141327800Y-62247800D02*
X121171300Y-62247800D01*
X121171300Y-62247800D02*
X118623700Y-59700200D01*
X118623700Y-59700200D02*
X100793500Y-59700200D01*
X100793500Y-59700200D02*
X99680700Y-58587400D01*
X99680700Y-58587400D02*
X86800100Y-58587400D01*
X86800100Y-58587400D02*
X85090000Y-56877300D01*
X85090000Y-56877300D02*
X85090000Y-55797400D01*
X144780000Y-73660000D02*
X144780000Y-72534700D01*
X130425100Y-60063500D02*
X144780000Y-60063500D01*
X128637000Y-58275400D02*
X130425100Y-60063500D01*
X101664300Y-58275400D02*
X128637000Y-58275400D01*
X99903900Y-56515000D02*
X101664300Y-58275400D01*
X99060000Y-56515000D02*
X99903900Y-56515000D01*
X152400000Y-72534700D02*
X152400000Y-73660000D01*
X151274700Y-71409400D02*
X152400000Y-72534700D01*
X88900000Y-48895000D02*
X91973100Y-51968100D01*
X91973100Y-51968100D02*
X125404200Y-51968100D01*
X125404200Y-51968100D02*
X132770100Y-59334000D01*
X132770100Y-59334000D02*
X146393800Y-59334000D01*
X146393800Y-59334000D02*
X151274700Y-64214900D01*
X151274700Y-64214900D02*
X151274700Y-71409400D01*
X92710000Y-34925000D02*
X88900000Y-34925000D01*
X88900000Y-34925000D02*
X83820000Y-40005000D01*
X138574700Y-64770000D02*
X139700000Y-64770000D01*
X133994500Y-69350200D02*
X138574700Y-64770000D01*
X111988200Y-69350200D02*
X133994500Y-69350200D01*
X108458000Y-65820000D02*
X111988200Y-69350200D01*
X108458000Y-64770000D02*
X108458000Y-65820000D01*
X117390900Y-68622900D02*
X118787900Y-68622900D01*
X113538000Y-64770000D02*
X117390900Y-68622900D01*
X118787900Y-68622900D02*
X128517500Y-68622900D01*
X129765400Y-65905900D02*
X132247900Y-63423400D01*
X117213900Y-65905900D02*
X129765400Y-65905900D01*
X116078000Y-64770000D02*
X117213900Y-65905900D01*
X126238000Y-57150000D02*
X129560300Y-57150000D01*
X129560300Y-57150000D02*
X130699400Y-58289100D01*
X125029900Y-63438100D02*
X126299900Y-63438100D01*
X123698000Y-64770000D02*
X125029900Y-63438100D01*
X126299900Y-63438100D02*
X131202300Y-63438100D01*
X128905000Y-46355000D02*
X137096600Y-54546600D01*
X137096600Y-54546600D02*
X148866100Y-54546600D01*
X148866100Y-54546600D02*
X151130000Y-56810500D01*
X151130000Y-56810500D02*
X151130000Y-59834700D01*
X151130000Y-59834700D02*
X154940000Y-63644700D01*
X154940000Y-64770000D02*
X154940000Y-63644700D01*
X157853500Y-106994000D02*
X157853500Y-108450500D01*
X157853500Y-109593500D02*
X157853500Y-108973500D01*
X169545000Y-121285000D02*
X157853500Y-109593500D01*
X157853500Y-109466500D02*
X157853500Y-108973500D01*
X157853500Y-108973500D02*
X157853500Y-108450500D01*
X154940000Y-57150000D02*
X154940000Y-58275300D01*
X154940000Y-58275300D02*
X158613100Y-61948400D01*
X158613100Y-61948400D02*
X158613100Y-74126700D01*
X158613100Y-74126700D02*
X156981100Y-75758700D01*
X156981100Y-75758700D02*
X153788100Y-75758700D01*
X153788100Y-75758700D02*
X148590000Y-80956800D01*
X148590000Y-80956800D02*
X148590000Y-81681200D01*
X148590000Y-81681200D02*
X129450800Y-100820400D01*
X129450800Y-100820400D02*
X123334600Y-100820400D01*
X123334600Y-100820400D02*
X121920000Y-102235000D01*
X127723000Y-44997000D02*
X126365000Y-46355000D01*
X157480000Y-57150000D02*
X152576300Y-52246300D01*
X152576300Y-52246300D02*
X137973200Y-52246300D01*
X137973200Y-52246300D02*
X133191800Y-47464900D01*
X133191800Y-47464900D02*
X133191800Y-46162600D01*
X133191800Y-46162600D02*
X132026200Y-44997000D01*
X132026200Y-44997000D02*
X127723000Y-44997000D01*
X145521000Y-53821300D02*
X138911300Y-53821300D01*
X138911300Y-53821300D02*
X131445000Y-46355000D01*
X144780000Y-64770000D02*
X144780000Y-68686200D01*
X144780000Y-68686200D02*
X147627600Y-71533800D01*
X131387700Y-89215000D02*
X116614400Y-89215000D01*
X116614400Y-89215000D02*
X106800600Y-99028800D01*
X106800600Y-99028800D02*
X106800600Y-101085600D01*
X106800600Y-101085600D02*
X107950000Y-102235000D01*
X133387900Y-55917900D02*
X123825000Y-46355000D01*
X148627900Y-55917900D02*
X133387900Y-55917900D01*
X149860000Y-57150000D02*
X148627900Y-55917900D01*
X134620000Y-46355000D02*
X138551100Y-50286100D01*
X138551100Y-50286100D02*
X152219400Y-50286100D01*
X152219400Y-50286100D02*
X158605400Y-56672100D01*
X158605400Y-56672100D02*
X158605400Y-58372700D01*
X158605400Y-58372700D02*
X157677400Y-59300700D01*
X120060900Y-75102900D02*
X121493100Y-75102900D01*
X118618000Y-73660000D02*
X120060900Y-75102900D01*
X121493100Y-75102900D02*
X123327000Y-75102900D01*
X157060500Y-105806100D02*
X157004200Y-105862400D01*
X157004200Y-105862400D02*
X137330400Y-105862400D01*
X169672000Y-108585000D02*
X168496700Y-108585000D01*
X129335200Y-82412400D02*
X129386100Y-82361500D01*
X117205800Y-80152200D02*
X121668200Y-80152200D01*
X121668200Y-80152200D02*
X122428000Y-80912000D01*
X116078000Y-81280000D02*
X117205800Y-80152200D01*
X122428000Y-80912000D02*
X122428000Y-81658700D01*
X122428000Y-81658700D02*
X123181700Y-82412400D01*
X123181700Y-82412400D02*
X129335200Y-82412400D01*
X165564019Y-105806100D02*
X164703900Y-105806100D01*
X168342919Y-108585000D02*
X165564019Y-105806100D01*
X169545000Y-108585000D02*
X168342919Y-108585000D01*
X164703900Y-105806100D02*
X157060500Y-105806100D01*
X137160000Y-46355000D02*
X140365800Y-49560800D01*
X140365800Y-49560800D02*
X151483900Y-49560800D01*
X123698000Y-73660000D02*
X124052900Y-74014900D01*
X124052900Y-74014900D02*
X124052900Y-75488400D01*
X124052900Y-75488400D02*
X121360300Y-78181000D01*
X121360300Y-78181000D02*
X116500200Y-78181000D01*
X118853300Y-83584700D02*
X117456300Y-83584700D01*
X121158000Y-81280000D02*
X118853300Y-83584700D01*
X117456300Y-83584700D02*
X112428300Y-83584700D01*
X169672000Y-111125000D02*
X168496700Y-111125000D01*
X130814700Y-105772300D02*
X131630200Y-106587800D01*
X131630200Y-106587800D02*
X143213000Y-106587800D01*
X143213000Y-106587800D02*
X143466000Y-106334800D01*
X143466000Y-106334800D02*
X157168700Y-106334800D01*
X157168700Y-106334800D02*
X157234900Y-106268600D01*
X163486519Y-106268600D02*
X163164600Y-106268600D01*
X168342919Y-111125000D02*
X163486519Y-106268600D01*
X169545000Y-111125000D02*
X168342919Y-111125000D01*
X157234900Y-106268600D02*
X163164600Y-106268600D01*
X154940000Y-81280000D02*
X154940000Y-80154700D01*
X154940000Y-80154700D02*
X159128700Y-75966000D01*
X159128700Y-75966000D02*
X159128700Y-46060500D01*
X159128700Y-46060500D02*
X157576800Y-44508600D01*
X157576800Y-44508600D02*
X120591400Y-44508600D01*
X120591400Y-44508600D02*
X118745000Y-46355000D01*
X129489800Y-103346200D02*
X81121200Y-103346200D01*
X81121200Y-103346200D02*
X80010000Y-102235000D01*
X143551000Y-90129000D02*
X142707000Y-90129000D01*
X152400000Y-81280000D02*
X143551000Y-90129000D01*
X142707000Y-90129000D02*
X129489800Y-103346200D01*
X71118900Y-97156100D02*
X66040000Y-102235000D01*
X105559200Y-85195200D02*
X93598300Y-97156100D01*
X154940000Y-73660000D02*
X154140001Y-74459999D01*
X154140001Y-74459999D02*
X153296001Y-74459999D01*
X153296001Y-74459999D02*
X149928600Y-77827400D01*
X149928600Y-77827400D02*
X137087800Y-77827400D01*
X93598300Y-97156100D02*
X71118900Y-97156100D01*
X137087800Y-77827400D02*
X129720000Y-85195200D01*
X129720000Y-85195200D02*
X105559200Y-85195200D01*
X149087600Y-60669300D02*
X147301900Y-58883600D01*
X147301900Y-58883600D02*
X133176100Y-58883600D01*
X133176100Y-58883600D02*
X122826800Y-48534300D01*
X122826800Y-48534300D02*
X118384300Y-48534300D01*
X118384300Y-48534300D02*
X116205000Y-46355000D01*
X147320000Y-81280000D02*
X153440700Y-75159300D01*
X153440700Y-75159300D02*
X155097800Y-75159300D01*
X155097800Y-75159300D02*
X156071000Y-74186100D01*
X156071000Y-74186100D02*
X156071000Y-71125700D01*
X156071000Y-71125700D02*
X153670000Y-68724700D01*
X153670000Y-68724700D02*
X153670000Y-64225900D01*
X153670000Y-64225900D02*
X147877400Y-58433300D01*
X147877400Y-58433300D02*
X133363300Y-58433300D01*
X133363300Y-58433300D02*
X121285000Y-46355000D01*
X149711300Y-107148100D02*
X156863200Y-114300000D01*
X156863200Y-114300000D02*
X157676700Y-114300000D01*
X157676700Y-114300000D02*
X167928850Y-124552150D01*
X167928850Y-127288850D02*
X167928850Y-124933150D01*
X169545000Y-128905000D02*
X167928850Y-127288850D01*
X167928850Y-127161850D02*
X167928850Y-124933150D01*
X167928850Y-124933150D02*
X167928850Y-124552150D01*
X169672000Y-128905000D02*
X167928850Y-127161850D01*
X95394600Y-100820400D02*
X93980000Y-102235000D01*
X101281400Y-100820400D02*
X95394600Y-100820400D01*
X114723300Y-87378500D02*
X101281400Y-100820400D01*
X138681500Y-87378500D02*
X114723300Y-87378500D01*
X144780000Y-81280000D02*
X138681500Y-87378500D01*
X52980200Y-97156100D02*
X50920600Y-99215700D01*
X65658300Y-97156100D02*
X52980200Y-97156100D01*
X50920600Y-101085600D02*
X52070000Y-102235000D01*
X72350600Y-90463800D02*
X65658300Y-97156100D01*
X147320000Y-73660000D02*
X143602900Y-77377100D01*
X143602900Y-77377100D02*
X135593400Y-77377100D01*
X135593400Y-77377100D02*
X128225600Y-84744900D01*
X128225600Y-84744900D02*
X100467400Y-84744900D01*
X50920600Y-99215700D02*
X50920600Y-101085600D01*
X100467400Y-84744900D02*
X94748500Y-90463800D01*
X94748500Y-90463800D02*
X72350600Y-90463800D01*
X149860000Y-72534700D02*
X146050000Y-68724700D01*
X146050000Y-68724700D02*
X146050000Y-64359500D01*
X146050000Y-64359500D02*
X143488000Y-61797500D01*
X143488000Y-61797500D02*
X121746700Y-61797500D01*
X121746700Y-61797500D02*
X120441700Y-60492500D01*
X149860000Y-73660000D02*
X149860000Y-72534700D01*
X57150000Y-34925000D02*
X59690000Y-34925000D01*
M02*
