M48
; DRILL file {KiCad (5.1.2)-2} date 08/11/19 20:12:37
; FORMAT={-:-/ absolute / inch / decimal}
; #@! TF.CreationDate,2019-08-11T20:12:37+02:00
; #@! TF.GenerationSoftware,Kicad,Pcbnew,(5.1.2)-2
; #@! TF.FileFunction,Plated,1,2,PTH
FMAT,2
INCH
T1C0.0315
T2C0.0360
T3C0.0394
%
G90
G05
T1
X2.55Y-1.595
X2.55Y-1.695
X2.55Y-1.795
X2.55Y-1.895
X2.55Y-1.995
X2.55Y-2.095
X2.55Y-2.195
X2.55Y-2.295
X2.55Y-2.395
X2.55Y-2.495
X2.85Y-1.595
X2.85Y-1.695
X2.85Y-1.795
X2.85Y-1.895
X2.85Y-1.995
X2.85Y-2.095
X2.85Y-2.195
X2.85Y-2.295
X2.85Y-2.395
X2.85Y-2.495
X1.95Y-0.95
X2.05Y-0.95
X2.15Y-0.95
X2.25Y-0.95
X2.35Y-0.95
X2.45Y-0.95
X2.55Y-0.95
X2.65Y-0.95
X2.75Y-0.95
X1.65Y-1.595
X1.65Y-1.695
X1.65Y-1.795
X1.65Y-1.895
X1.65Y-1.995
X1.65Y-2.095
X1.65Y-2.195
X1.65Y-2.295
X1.65Y-2.395
X1.65Y-2.495
X1.95Y-1.595
X1.95Y-1.695
X1.95Y-1.795
X1.95Y-1.895
X1.95Y-1.995
X1.95Y-2.095
X1.95Y-2.195
X1.95Y-2.295
X1.95Y-2.395
X1.95Y-2.495
T2
X1.95Y-1.1
X1.95Y-1.4
X2.05Y-1.1
X2.05Y-1.4
X2.15Y-1.1
X2.15Y-1.4
X2.25Y-1.1
X2.25Y-1.4
X2.35Y-1.1
X2.35Y-1.4
X2.45Y-1.1
X2.45Y-1.4
X2.55Y-1.1
X2.55Y-1.4
X2.65Y-1.1
X2.65Y-1.4
X2.75Y-1.1
X2.75Y-1.4
X2.85Y-1.1
X2.85Y-1.4
T3
X3.025Y-1.0
X3.025Y-1.1
X1.325Y-1.3
X1.325Y-1.4
X1.325Y-1.5
X1.325Y-1.6
X1.325Y-1.7
X1.325Y-1.8
X1.325Y-1.9
X1.325Y-2.0
X1.325Y-2.1
X1.325Y-2.2
X1.325Y-2.3
X1.325Y-2.4
X1.325Y-2.5
X3.025Y-2.4
X3.025Y-2.5
T0
M30
