G04 #@! TF.GenerationSoftware,KiCad,Pcbnew,(5.1.2)-2*
G04 #@! TF.CreationDate,2019-08-11T20:12:25+02:00*
G04 #@! TF.ProjectId,Register,52656769-7374-4657-922e-6b696361645f,rev?*
G04 #@! TF.SameCoordinates,Original*
G04 #@! TF.FileFunction,Copper,L2,Bot*
G04 #@! TF.FilePolarity,Positive*
%FSLAX46Y46*%
G04 Gerber Fmt 4.6, Leading zero omitted, Abs format (unit mm)*
G04 Created by KiCad (PCBNEW (5.1.2)-2) date 2019-08-11 20:12:25*
%MOMM*%
%LPD*%
G04 APERTURE LIST*
%ADD10O,1.700000X1.700000*%
%ADD11R,1.700000X1.700000*%
%ADD12R,2.032000X2.032000*%
%ADD13C,2.032000*%
%ADD14O,1.600000X1.600000*%
%ADD15R,1.600000X1.600000*%
%ADD16C,0.350000*%
%ADD17C,0.250000*%
%ADD18C,0.254000*%
G04 APERTURE END LIST*
D10*
X76835000Y-27940000D03*
D11*
X76835000Y-25400000D03*
X76835000Y-60960000D03*
D10*
X76835000Y-63500000D03*
D11*
X33655000Y-33020000D03*
D10*
X33655000Y-35560000D03*
X33655000Y-38100000D03*
X33655000Y-40640000D03*
X33655000Y-43180000D03*
X33655000Y-45720000D03*
X33655000Y-48260000D03*
X33655000Y-50800000D03*
X33655000Y-53340000D03*
X33655000Y-55880000D03*
X33655000Y-58420000D03*
X33655000Y-60960000D03*
X33655000Y-63500000D03*
D12*
X49530000Y-35560000D03*
D13*
X52070000Y-35560000D03*
X54610000Y-35560000D03*
X57150000Y-35560000D03*
X67310000Y-27940000D03*
X64770000Y-27940000D03*
X62230000Y-27940000D03*
X59690000Y-27940000D03*
X59690000Y-35560000D03*
X62230000Y-35560000D03*
X64770000Y-35560000D03*
X67310000Y-35560000D03*
X69850000Y-27940000D03*
X72390000Y-27940000D03*
X72390000Y-35560000D03*
X69850000Y-35560000D03*
X57150000Y-27940000D03*
X54610000Y-27940000D03*
X52070000Y-27940000D03*
X49530000Y-27940000D03*
D14*
X72390000Y-40513000D03*
X64770000Y-63373000D03*
X72390000Y-43053000D03*
X64770000Y-60833000D03*
X72390000Y-45593000D03*
X64770000Y-58293000D03*
X72390000Y-48133000D03*
X64770000Y-55753000D03*
X72390000Y-50673000D03*
X64770000Y-53213000D03*
X72390000Y-53213000D03*
X64770000Y-50673000D03*
X72390000Y-55753000D03*
X64770000Y-48133000D03*
X72390000Y-58293000D03*
X64770000Y-45593000D03*
X72390000Y-60833000D03*
X64770000Y-43053000D03*
X72390000Y-63373000D03*
D15*
X64770000Y-40513000D03*
X41910000Y-40513000D03*
D14*
X49530000Y-63373000D03*
X41910000Y-43053000D03*
X49530000Y-60833000D03*
X41910000Y-45593000D03*
X49530000Y-58293000D03*
X41910000Y-48133000D03*
X49530000Y-55753000D03*
X41910000Y-50673000D03*
X49530000Y-53213000D03*
X41910000Y-53213000D03*
X49530000Y-50673000D03*
X41910000Y-55753000D03*
X49530000Y-48133000D03*
X41910000Y-58293000D03*
X49530000Y-45593000D03*
X41910000Y-60833000D03*
X49530000Y-43053000D03*
X41910000Y-63373000D03*
X49530000Y-40513000D03*
D15*
X49530000Y-24130000D03*
D14*
X52070000Y-24130000D03*
X54610000Y-24130000D03*
X57150000Y-24130000D03*
X59690000Y-24130000D03*
X62230000Y-24130000D03*
X64770000Y-24130000D03*
X67310000Y-24130000D03*
X69850000Y-24130000D03*
D16*
X40545400Y-55936100D02*
X34139300Y-49530000D01*
X32422700Y-35018100D02*
X33655000Y-33785800D01*
X33655000Y-33785800D02*
X33655000Y-33020000D01*
X33186400Y-49530000D02*
X32422700Y-48766300D01*
X40545400Y-62008400D02*
X40545400Y-55936100D01*
X41910000Y-63373000D02*
X40545400Y-62008400D01*
X32422700Y-48766300D02*
X32422700Y-35018100D01*
X34139300Y-49530000D02*
X33186400Y-49530000D01*
D17*
X52070000Y-24130000D02*
X52070000Y-27940000D01*
X54610000Y-24130000D02*
X54610000Y-27940000D01*
X57150000Y-24130000D02*
X57150000Y-27940000D01*
X59690000Y-24130000D02*
X59690000Y-27940000D01*
X62230000Y-24130000D02*
X62230000Y-27940000D01*
X64770000Y-24130000D02*
X64770000Y-27940000D01*
X67310000Y-24130000D02*
X67310000Y-27940000D01*
X69850000Y-24130000D02*
X69850000Y-27940000D01*
X34830300Y-38100000D02*
X33655000Y-38100000D01*
X41053300Y-44323000D02*
X34830300Y-38100000D01*
X42286800Y-44323000D02*
X41053300Y-44323000D01*
X47053800Y-49090000D02*
X42286800Y-44323000D01*
X47053800Y-60896800D02*
X47053800Y-49090000D01*
X49530000Y-63373000D02*
X47053800Y-60896800D01*
X69850000Y-37973000D02*
X69850000Y-36703000D01*
X64770000Y-43053000D02*
X69850000Y-37973000D01*
X69850000Y-36703000D02*
X69850000Y-35560000D01*
X59690000Y-48133000D02*
X59690000Y-47117000D01*
X64770000Y-53213000D02*
X59690000Y-48133000D01*
X59690000Y-47117000D02*
X59690000Y-35560000D01*
X41783000Y-45720000D02*
X41910000Y-45593000D01*
X33655000Y-45720000D02*
X41783000Y-45720000D01*
X50655300Y-58293000D02*
X49530000Y-58293000D01*
X72390000Y-55753000D02*
X73518400Y-56881400D01*
X73518400Y-58827700D02*
X72919800Y-59426300D01*
X72919800Y-59426300D02*
X62556300Y-59426300D01*
X73518400Y-56881400D02*
X73518400Y-58827700D01*
X62556300Y-59426300D02*
X61423000Y-58293000D01*
X61423000Y-58293000D02*
X50655300Y-58293000D01*
X41783000Y-48260000D02*
X41910000Y-48133000D01*
X33655000Y-48260000D02*
X41783000Y-48260000D01*
X43035300Y-49258300D02*
X41910000Y-48133000D01*
X72390000Y-48133000D02*
X74019500Y-49762500D01*
X74019500Y-49762500D02*
X74019500Y-60803200D01*
X74019500Y-60803200D02*
X72719700Y-62103000D01*
X72719700Y-62103000D02*
X62310200Y-62103000D01*
X43035300Y-58474000D02*
X43035300Y-49258300D01*
X62310200Y-62103000D02*
X59893800Y-64519400D01*
X49080700Y-64519400D02*
X43035300Y-58474000D01*
X59893800Y-64519400D02*
X49080700Y-64519400D01*
X71264700Y-58293000D02*
X70139400Y-57167700D01*
X70139400Y-57167700D02*
X52070000Y-57167700D01*
X52070000Y-57167700D02*
X50655300Y-55753000D01*
X72390000Y-58293000D02*
X71264700Y-58293000D01*
X49530000Y-55753000D02*
X50655300Y-55753000D01*
X63623800Y-39246200D02*
X67310000Y-35560000D01*
X63623800Y-44446800D02*
X63623800Y-39246200D01*
X64770000Y-45593000D02*
X63623800Y-44446800D01*
X56587300Y-48695600D02*
X63644700Y-55753000D01*
X50655300Y-53213000D02*
X55172700Y-48695600D01*
X55172700Y-48695600D02*
X56587300Y-48695600D01*
X56587300Y-48695600D02*
X57150000Y-48132900D01*
X57150000Y-48132900D02*
X57150000Y-35560000D01*
X49530000Y-53213000D02*
X50655300Y-53213000D01*
X64770000Y-55753000D02*
X63644700Y-55753000D01*
X63173500Y-37156500D02*
X64770000Y-35560000D01*
X63173500Y-46536500D02*
X63173500Y-37156500D01*
X64770000Y-48133000D02*
X63173500Y-46536500D01*
X54610000Y-45593000D02*
X54610000Y-44450000D01*
X49530000Y-50673000D02*
X54610000Y-45593000D01*
X54610000Y-44450000D02*
X54610000Y-35560000D01*
X63644700Y-58293000D02*
X64770000Y-58293000D01*
X49530000Y-50673000D02*
X48404700Y-51798300D01*
X48404700Y-51798300D02*
X48404700Y-56259300D01*
X48404700Y-56259300D02*
X49168400Y-57023000D01*
X49168400Y-57023000D02*
X50060200Y-57023000D01*
X63194300Y-57842600D02*
X63644700Y-58293000D01*
X50060200Y-57023000D02*
X50879800Y-57842600D01*
X50879800Y-57842600D02*
X63194300Y-57842600D01*
X72390000Y-63373000D02*
X71264700Y-63373000D01*
X33655000Y-63500000D02*
X34830300Y-63500000D01*
X34830300Y-63500000D02*
X36302000Y-64971700D01*
X36302000Y-64971700D02*
X69666000Y-64971700D01*
X69666000Y-64971700D02*
X71264700Y-63373000D01*
X62230000Y-48133000D02*
X62230000Y-46736000D01*
X64770000Y-50673000D02*
X62230000Y-48133000D01*
X62230000Y-46736000D02*
X62230000Y-35560000D01*
X63644700Y-60833000D02*
X64770000Y-60833000D01*
X49530000Y-43053000D02*
X47954300Y-44628700D01*
X47954300Y-44628700D02*
X47954300Y-58332200D01*
X47954300Y-58332200D02*
X49329800Y-59707700D01*
X49329800Y-59707700D02*
X61882500Y-59707700D01*
X61882500Y-59707700D02*
X63007800Y-60833000D01*
X63007800Y-60833000D02*
X63644700Y-60833000D01*
X52070000Y-40513000D02*
X52070000Y-38989000D01*
X49530000Y-43053000D02*
X52070000Y-40513000D01*
X52070000Y-38989000D02*
X52070000Y-35560000D01*
D18*
G36*
X82475001Y-69140000D02*
G01*
X28015000Y-69140000D01*
X28015000Y-35560000D01*
X32162815Y-35560000D01*
X32191487Y-35851111D01*
X32276401Y-36131034D01*
X32414294Y-36389014D01*
X32599866Y-36615134D01*
X32825986Y-36800706D01*
X32880791Y-36830000D01*
X32825986Y-36859294D01*
X32599866Y-37044866D01*
X32414294Y-37270986D01*
X32276401Y-37528966D01*
X32191487Y-37808889D01*
X32162815Y-38100000D01*
X32191487Y-38391111D01*
X32276401Y-38671034D01*
X32414294Y-38929014D01*
X32599866Y-39155134D01*
X32825986Y-39340706D01*
X32880791Y-39370000D01*
X32825986Y-39399294D01*
X32599866Y-39584866D01*
X32414294Y-39810986D01*
X32276401Y-40068966D01*
X32191487Y-40348889D01*
X32162815Y-40640000D01*
X32191487Y-40931111D01*
X32276401Y-41211034D01*
X32414294Y-41469014D01*
X32599866Y-41695134D01*
X32825986Y-41880706D01*
X32880791Y-41910000D01*
X32825986Y-41939294D01*
X32599866Y-42124866D01*
X32414294Y-42350986D01*
X32276401Y-42608966D01*
X32191487Y-42888889D01*
X32162815Y-43180000D01*
X32191487Y-43471111D01*
X32276401Y-43751034D01*
X32414294Y-44009014D01*
X32599866Y-44235134D01*
X32825986Y-44420706D01*
X32880791Y-44450000D01*
X32825986Y-44479294D01*
X32599866Y-44664866D01*
X32414294Y-44890986D01*
X32276401Y-45148966D01*
X32191487Y-45428889D01*
X32162815Y-45720000D01*
X32191487Y-46011111D01*
X32276401Y-46291034D01*
X32414294Y-46549014D01*
X32599866Y-46775134D01*
X32825986Y-46960706D01*
X32880791Y-46990000D01*
X32825986Y-47019294D01*
X32599866Y-47204866D01*
X32414294Y-47430986D01*
X32276401Y-47688966D01*
X32191487Y-47968889D01*
X32162815Y-48260000D01*
X32191487Y-48551111D01*
X32276401Y-48831034D01*
X32414294Y-49089014D01*
X32599866Y-49315134D01*
X32825986Y-49500706D01*
X32880791Y-49530000D01*
X32825986Y-49559294D01*
X32599866Y-49744866D01*
X32414294Y-49970986D01*
X32276401Y-50228966D01*
X32191487Y-50508889D01*
X32162815Y-50800000D01*
X32191487Y-51091111D01*
X32276401Y-51371034D01*
X32414294Y-51629014D01*
X32599866Y-51855134D01*
X32825986Y-52040706D01*
X32880791Y-52070000D01*
X32825986Y-52099294D01*
X32599866Y-52284866D01*
X32414294Y-52510986D01*
X32276401Y-52768966D01*
X32191487Y-53048889D01*
X32162815Y-53340000D01*
X32191487Y-53631111D01*
X32276401Y-53911034D01*
X32414294Y-54169014D01*
X32599866Y-54395134D01*
X32825986Y-54580706D01*
X32880791Y-54610000D01*
X32825986Y-54639294D01*
X32599866Y-54824866D01*
X32414294Y-55050986D01*
X32276401Y-55308966D01*
X32191487Y-55588889D01*
X32162815Y-55880000D01*
X32191487Y-56171111D01*
X32276401Y-56451034D01*
X32414294Y-56709014D01*
X32599866Y-56935134D01*
X32825986Y-57120706D01*
X32880791Y-57150000D01*
X32825986Y-57179294D01*
X32599866Y-57364866D01*
X32414294Y-57590986D01*
X32276401Y-57848966D01*
X32191487Y-58128889D01*
X32162815Y-58420000D01*
X32191487Y-58711111D01*
X32276401Y-58991034D01*
X32414294Y-59249014D01*
X32599866Y-59475134D01*
X32825986Y-59660706D01*
X32880791Y-59690000D01*
X32825986Y-59719294D01*
X32599866Y-59904866D01*
X32414294Y-60130986D01*
X32276401Y-60388966D01*
X32191487Y-60668889D01*
X32162815Y-60960000D01*
X32191487Y-61251111D01*
X32276401Y-61531034D01*
X32414294Y-61789014D01*
X32599866Y-62015134D01*
X32825986Y-62200706D01*
X32880791Y-62230000D01*
X32825986Y-62259294D01*
X32599866Y-62444866D01*
X32414294Y-62670986D01*
X32276401Y-62928966D01*
X32191487Y-63208889D01*
X32162815Y-63500000D01*
X32191487Y-63791111D01*
X32276401Y-64071034D01*
X32414294Y-64329014D01*
X32599866Y-64555134D01*
X32825986Y-64740706D01*
X33083966Y-64878599D01*
X33363889Y-64963513D01*
X33582050Y-64985000D01*
X33727950Y-64985000D01*
X33946111Y-64963513D01*
X34226034Y-64878599D01*
X34484014Y-64740706D01*
X34710134Y-64555134D01*
X34755434Y-64499936D01*
X35738201Y-65482703D01*
X35761999Y-65511701D01*
X35790997Y-65535499D01*
X35877723Y-65606674D01*
X36009753Y-65677246D01*
X36153014Y-65720703D01*
X36264667Y-65731700D01*
X36264676Y-65731700D01*
X36301999Y-65735376D01*
X36339322Y-65731700D01*
X69628678Y-65731700D01*
X69666000Y-65735376D01*
X69703322Y-65731700D01*
X69703333Y-65731700D01*
X69814986Y-65720703D01*
X69958247Y-65677246D01*
X70090276Y-65606674D01*
X70206001Y-65511701D01*
X70229804Y-65482697D01*
X71347630Y-64364872D01*
X71370392Y-64392608D01*
X71588899Y-64571932D01*
X71838192Y-64705182D01*
X72108691Y-64787236D01*
X72319508Y-64808000D01*
X72460492Y-64808000D01*
X72671309Y-64787236D01*
X72941808Y-64705182D01*
X73191101Y-64571932D01*
X73409608Y-64392608D01*
X73588932Y-64174101D01*
X73722182Y-63924808D01*
X73804236Y-63654309D01*
X73819434Y-63500000D01*
X75342815Y-63500000D01*
X75371487Y-63791111D01*
X75456401Y-64071034D01*
X75594294Y-64329014D01*
X75779866Y-64555134D01*
X76005986Y-64740706D01*
X76263966Y-64878599D01*
X76543889Y-64963513D01*
X76762050Y-64985000D01*
X76907950Y-64985000D01*
X77126111Y-64963513D01*
X77406034Y-64878599D01*
X77664014Y-64740706D01*
X77890134Y-64555134D01*
X78075706Y-64329014D01*
X78213599Y-64071034D01*
X78298513Y-63791111D01*
X78327185Y-63500000D01*
X78298513Y-63208889D01*
X78213599Y-62928966D01*
X78075706Y-62670986D01*
X77890134Y-62444866D01*
X77860313Y-62420393D01*
X77929180Y-62399502D01*
X78039494Y-62340537D01*
X78136185Y-62261185D01*
X78215537Y-62164494D01*
X78274502Y-62054180D01*
X78310812Y-61934482D01*
X78323072Y-61810000D01*
X78323072Y-60110000D01*
X78310812Y-59985518D01*
X78274502Y-59865820D01*
X78215537Y-59755506D01*
X78136185Y-59658815D01*
X78039494Y-59579463D01*
X77929180Y-59520498D01*
X77809482Y-59484188D01*
X77685000Y-59471928D01*
X75985000Y-59471928D01*
X75860518Y-59484188D01*
X75740820Y-59520498D01*
X75630506Y-59579463D01*
X75533815Y-59658815D01*
X75454463Y-59755506D01*
X75395498Y-59865820D01*
X75359188Y-59985518D01*
X75346928Y-60110000D01*
X75346928Y-61810000D01*
X75359188Y-61934482D01*
X75395498Y-62054180D01*
X75454463Y-62164494D01*
X75533815Y-62261185D01*
X75630506Y-62340537D01*
X75740820Y-62399502D01*
X75809687Y-62420393D01*
X75779866Y-62444866D01*
X75594294Y-62670986D01*
X75456401Y-62928966D01*
X75371487Y-63208889D01*
X75342815Y-63500000D01*
X73819434Y-63500000D01*
X73831943Y-63373000D01*
X73804236Y-63091691D01*
X73722182Y-62821192D01*
X73588932Y-62571899D01*
X73470235Y-62427266D01*
X74530503Y-61366999D01*
X74559501Y-61343201D01*
X74654474Y-61227476D01*
X74725046Y-61095447D01*
X74768503Y-60952186D01*
X74779500Y-60840533D01*
X74779500Y-60840525D01*
X74783176Y-60803200D01*
X74779500Y-60765875D01*
X74779500Y-49799822D01*
X74783176Y-49762500D01*
X74779500Y-49725177D01*
X74779500Y-49725167D01*
X74768503Y-49613514D01*
X74725046Y-49470253D01*
X74654475Y-49338225D01*
X74654474Y-49338223D01*
X74583299Y-49251497D01*
X74559501Y-49222499D01*
X74530504Y-49198702D01*
X73790708Y-48458906D01*
X73804236Y-48414309D01*
X73831943Y-48133000D01*
X73804236Y-47851691D01*
X73722182Y-47581192D01*
X73588932Y-47331899D01*
X73409608Y-47113392D01*
X73191101Y-46934068D01*
X73058142Y-46863000D01*
X73191101Y-46791932D01*
X73409608Y-46612608D01*
X73588932Y-46394101D01*
X73722182Y-46144808D01*
X73804236Y-45874309D01*
X73831943Y-45593000D01*
X73804236Y-45311691D01*
X73722182Y-45041192D01*
X73588932Y-44791899D01*
X73409608Y-44573392D01*
X73191101Y-44394068D01*
X73058142Y-44323000D01*
X73191101Y-44251932D01*
X73409608Y-44072608D01*
X73588932Y-43854101D01*
X73722182Y-43604808D01*
X73804236Y-43334309D01*
X73831943Y-43053000D01*
X73804236Y-42771691D01*
X73722182Y-42501192D01*
X73588932Y-42251899D01*
X73409608Y-42033392D01*
X73191101Y-41854068D01*
X73058142Y-41783000D01*
X73191101Y-41711932D01*
X73409608Y-41532608D01*
X73588932Y-41314101D01*
X73722182Y-41064808D01*
X73804236Y-40794309D01*
X73831943Y-40513000D01*
X73804236Y-40231691D01*
X73722182Y-39961192D01*
X73588932Y-39711899D01*
X73409608Y-39493392D01*
X73191101Y-39314068D01*
X72941808Y-39180818D01*
X72671309Y-39098764D01*
X72460492Y-39078000D01*
X72319508Y-39078000D01*
X72108691Y-39098764D01*
X71838192Y-39180818D01*
X71588899Y-39314068D01*
X71370392Y-39493392D01*
X71191068Y-39711899D01*
X71057818Y-39961192D01*
X70975764Y-40231691D01*
X70948057Y-40513000D01*
X70975764Y-40794309D01*
X71057818Y-41064808D01*
X71191068Y-41314101D01*
X71370392Y-41532608D01*
X71588899Y-41711932D01*
X71721858Y-41783000D01*
X71588899Y-41854068D01*
X71370392Y-42033392D01*
X71191068Y-42251899D01*
X71057818Y-42501192D01*
X70975764Y-42771691D01*
X70948057Y-43053000D01*
X70975764Y-43334309D01*
X71057818Y-43604808D01*
X71191068Y-43854101D01*
X71370392Y-44072608D01*
X71588899Y-44251932D01*
X71721858Y-44323000D01*
X71588899Y-44394068D01*
X71370392Y-44573392D01*
X71191068Y-44791899D01*
X71057818Y-45041192D01*
X70975764Y-45311691D01*
X70948057Y-45593000D01*
X70975764Y-45874309D01*
X71057818Y-46144808D01*
X71191068Y-46394101D01*
X71370392Y-46612608D01*
X71588899Y-46791932D01*
X71721858Y-46863000D01*
X71588899Y-46934068D01*
X71370392Y-47113392D01*
X71191068Y-47331899D01*
X71057818Y-47581192D01*
X70975764Y-47851691D01*
X70948057Y-48133000D01*
X70975764Y-48414309D01*
X71057818Y-48684808D01*
X71191068Y-48934101D01*
X71370392Y-49152608D01*
X71588899Y-49331932D01*
X71721858Y-49403000D01*
X71588899Y-49474068D01*
X71370392Y-49653392D01*
X71191068Y-49871899D01*
X71057818Y-50121192D01*
X70975764Y-50391691D01*
X70948057Y-50673000D01*
X70975764Y-50954309D01*
X71057818Y-51224808D01*
X71191068Y-51474101D01*
X71370392Y-51692608D01*
X71588899Y-51871932D01*
X71721858Y-51943000D01*
X71588899Y-52014068D01*
X71370392Y-52193392D01*
X71191068Y-52411899D01*
X71057818Y-52661192D01*
X70975764Y-52931691D01*
X70948057Y-53213000D01*
X70975764Y-53494309D01*
X71057818Y-53764808D01*
X71191068Y-54014101D01*
X71370392Y-54232608D01*
X71588899Y-54411932D01*
X71721858Y-54483000D01*
X71588899Y-54554068D01*
X71370392Y-54733392D01*
X71191068Y-54951899D01*
X71057818Y-55201192D01*
X70975764Y-55471691D01*
X70948057Y-55753000D01*
X70975764Y-56034309D01*
X71057818Y-56304808D01*
X71191068Y-56554101D01*
X71370392Y-56772608D01*
X71588899Y-56951932D01*
X71721858Y-57023000D01*
X71588899Y-57094068D01*
X71370392Y-57273392D01*
X71347630Y-57301128D01*
X70703204Y-56656702D01*
X70679401Y-56627699D01*
X70563676Y-56532726D01*
X70431647Y-56462154D01*
X70288386Y-56418697D01*
X70176733Y-56407700D01*
X70176722Y-56407700D01*
X70139400Y-56404024D01*
X70102078Y-56407700D01*
X66047185Y-56407700D01*
X66102182Y-56304808D01*
X66184236Y-56034309D01*
X66211943Y-55753000D01*
X66184236Y-55471691D01*
X66102182Y-55201192D01*
X65968932Y-54951899D01*
X65789608Y-54733392D01*
X65571101Y-54554068D01*
X65438142Y-54483000D01*
X65571101Y-54411932D01*
X65789608Y-54232608D01*
X65968932Y-54014101D01*
X66102182Y-53764808D01*
X66184236Y-53494309D01*
X66211943Y-53213000D01*
X66184236Y-52931691D01*
X66102182Y-52661192D01*
X65968932Y-52411899D01*
X65789608Y-52193392D01*
X65571101Y-52014068D01*
X65438142Y-51943000D01*
X65571101Y-51871932D01*
X65789608Y-51692608D01*
X65968932Y-51474101D01*
X66102182Y-51224808D01*
X66184236Y-50954309D01*
X66211943Y-50673000D01*
X66184236Y-50391691D01*
X66102182Y-50121192D01*
X65968932Y-49871899D01*
X65789608Y-49653392D01*
X65571101Y-49474068D01*
X65438142Y-49403000D01*
X65571101Y-49331932D01*
X65789608Y-49152608D01*
X65968932Y-48934101D01*
X66102182Y-48684808D01*
X66184236Y-48414309D01*
X66211943Y-48133000D01*
X66184236Y-47851691D01*
X66102182Y-47581192D01*
X65968932Y-47331899D01*
X65789608Y-47113392D01*
X65571101Y-46934068D01*
X65438142Y-46863000D01*
X65571101Y-46791932D01*
X65789608Y-46612608D01*
X65968932Y-46394101D01*
X66102182Y-46144808D01*
X66184236Y-45874309D01*
X66211943Y-45593000D01*
X66184236Y-45311691D01*
X66102182Y-45041192D01*
X65968932Y-44791899D01*
X65789608Y-44573392D01*
X65571101Y-44394068D01*
X65438142Y-44323000D01*
X65571101Y-44251932D01*
X65789608Y-44072608D01*
X65968932Y-43854101D01*
X66102182Y-43604808D01*
X66184236Y-43334309D01*
X66211943Y-43053000D01*
X66184236Y-42771691D01*
X66170708Y-42727094D01*
X70361004Y-38536798D01*
X70390001Y-38513001D01*
X70442526Y-38448999D01*
X70484974Y-38397277D01*
X70555546Y-38265247D01*
X70563205Y-38239997D01*
X70599003Y-38121986D01*
X70610000Y-38010333D01*
X70610000Y-38010323D01*
X70613676Y-37973000D01*
X70610000Y-37935677D01*
X70610000Y-37032227D01*
X70632042Y-37023097D01*
X70902451Y-36842415D01*
X71120000Y-36624866D01*
X71337549Y-36842415D01*
X71607958Y-37023097D01*
X71908421Y-37147553D01*
X72227391Y-37211000D01*
X72552609Y-37211000D01*
X72871579Y-37147553D01*
X73172042Y-37023097D01*
X73442451Y-36842415D01*
X73672415Y-36612451D01*
X73853097Y-36342042D01*
X73977553Y-36041579D01*
X74041000Y-35722609D01*
X74041000Y-35397391D01*
X73977553Y-35078421D01*
X73853097Y-34777958D01*
X73672415Y-34507549D01*
X73442451Y-34277585D01*
X73172042Y-34096903D01*
X72871579Y-33972447D01*
X72552609Y-33909000D01*
X72227391Y-33909000D01*
X71908421Y-33972447D01*
X71607958Y-34096903D01*
X71337549Y-34277585D01*
X71120000Y-34495134D01*
X70902451Y-34277585D01*
X70632042Y-34096903D01*
X70331579Y-33972447D01*
X70012609Y-33909000D01*
X69687391Y-33909000D01*
X69368421Y-33972447D01*
X69067958Y-34096903D01*
X68797549Y-34277585D01*
X68580000Y-34495134D01*
X68362451Y-34277585D01*
X68092042Y-34096903D01*
X67791579Y-33972447D01*
X67472609Y-33909000D01*
X67147391Y-33909000D01*
X66828421Y-33972447D01*
X66527958Y-34096903D01*
X66257549Y-34277585D01*
X66040000Y-34495134D01*
X65822451Y-34277585D01*
X65552042Y-34096903D01*
X65251579Y-33972447D01*
X64932609Y-33909000D01*
X64607391Y-33909000D01*
X64288421Y-33972447D01*
X63987958Y-34096903D01*
X63717549Y-34277585D01*
X63500000Y-34495134D01*
X63282451Y-34277585D01*
X63012042Y-34096903D01*
X62711579Y-33972447D01*
X62392609Y-33909000D01*
X62067391Y-33909000D01*
X61748421Y-33972447D01*
X61447958Y-34096903D01*
X61177549Y-34277585D01*
X60960000Y-34495134D01*
X60742451Y-34277585D01*
X60472042Y-34096903D01*
X60171579Y-33972447D01*
X59852609Y-33909000D01*
X59527391Y-33909000D01*
X59208421Y-33972447D01*
X58907958Y-34096903D01*
X58637549Y-34277585D01*
X58420000Y-34495134D01*
X58202451Y-34277585D01*
X57932042Y-34096903D01*
X57631579Y-33972447D01*
X57312609Y-33909000D01*
X56987391Y-33909000D01*
X56668421Y-33972447D01*
X56367958Y-34096903D01*
X56097549Y-34277585D01*
X55880000Y-34495134D01*
X55662451Y-34277585D01*
X55392042Y-34096903D01*
X55091579Y-33972447D01*
X54772609Y-33909000D01*
X54447391Y-33909000D01*
X54128421Y-33972447D01*
X53827958Y-34096903D01*
X53557549Y-34277585D01*
X53340000Y-34495134D01*
X53122451Y-34277585D01*
X52852042Y-34096903D01*
X52551579Y-33972447D01*
X52232609Y-33909000D01*
X51907391Y-33909000D01*
X51588421Y-33972447D01*
X51287958Y-34096903D01*
X51095704Y-34225364D01*
X51076537Y-34189506D01*
X50997185Y-34092815D01*
X50900494Y-34013463D01*
X50790180Y-33954498D01*
X50670482Y-33918188D01*
X50546000Y-33905928D01*
X48514000Y-33905928D01*
X48389518Y-33918188D01*
X48269820Y-33954498D01*
X48159506Y-34013463D01*
X48062815Y-34092815D01*
X47983463Y-34189506D01*
X47924498Y-34299820D01*
X47888188Y-34419518D01*
X47875928Y-34544000D01*
X47875928Y-36576000D01*
X47888188Y-36700482D01*
X47924498Y-36820180D01*
X47983463Y-36930494D01*
X48062815Y-37027185D01*
X48159506Y-37106537D01*
X48269820Y-37165502D01*
X48389518Y-37201812D01*
X48514000Y-37214072D01*
X50546000Y-37214072D01*
X50670482Y-37201812D01*
X50790180Y-37165502D01*
X50900494Y-37106537D01*
X50997185Y-37027185D01*
X51076537Y-36930494D01*
X51095704Y-36894636D01*
X51287958Y-37023097D01*
X51310001Y-37032227D01*
X51310000Y-39026332D01*
X51310001Y-39026342D01*
X51310000Y-40198197D01*
X50969402Y-40538795D01*
X50971943Y-40513000D01*
X50944236Y-40231691D01*
X50862182Y-39961192D01*
X50728932Y-39711899D01*
X50549608Y-39493392D01*
X50331101Y-39314068D01*
X50081808Y-39180818D01*
X49811309Y-39098764D01*
X49600492Y-39078000D01*
X49459508Y-39078000D01*
X49248691Y-39098764D01*
X48978192Y-39180818D01*
X48728899Y-39314068D01*
X48510392Y-39493392D01*
X48331068Y-39711899D01*
X48197818Y-39961192D01*
X48115764Y-40231691D01*
X48088057Y-40513000D01*
X48115764Y-40794309D01*
X48197818Y-41064808D01*
X48331068Y-41314101D01*
X48510392Y-41532608D01*
X48728899Y-41711932D01*
X48861858Y-41783000D01*
X48728899Y-41854068D01*
X48510392Y-42033392D01*
X48331068Y-42251899D01*
X48197818Y-42501192D01*
X48115764Y-42771691D01*
X48088057Y-43053000D01*
X48115764Y-43334309D01*
X48129292Y-43378906D01*
X47443303Y-44064896D01*
X47414299Y-44088699D01*
X47360254Y-44154554D01*
X47319326Y-44204424D01*
X47291498Y-44256487D01*
X47248754Y-44336454D01*
X47205297Y-44479715D01*
X47194300Y-44591368D01*
X47194300Y-44591378D01*
X47190624Y-44628700D01*
X47194300Y-44666022D01*
X47194300Y-48155698D01*
X43011465Y-43972864D01*
X43108932Y-43854101D01*
X43242182Y-43604808D01*
X43324236Y-43334309D01*
X43351943Y-43053000D01*
X43324236Y-42771691D01*
X43242182Y-42501192D01*
X43108932Y-42251899D01*
X42929608Y-42033392D01*
X42816518Y-41940581D01*
X42834482Y-41938812D01*
X42954180Y-41902502D01*
X43064494Y-41843537D01*
X43161185Y-41764185D01*
X43240537Y-41667494D01*
X43299502Y-41557180D01*
X43335812Y-41437482D01*
X43348072Y-41313000D01*
X43348072Y-39713000D01*
X43335812Y-39588518D01*
X43299502Y-39468820D01*
X43240537Y-39358506D01*
X43161185Y-39261815D01*
X43064494Y-39182463D01*
X42954180Y-39123498D01*
X42834482Y-39087188D01*
X42710000Y-39074928D01*
X41110000Y-39074928D01*
X40985518Y-39087188D01*
X40865820Y-39123498D01*
X40755506Y-39182463D01*
X40658815Y-39261815D01*
X40579463Y-39358506D01*
X40520498Y-39468820D01*
X40484188Y-39588518D01*
X40471928Y-39713000D01*
X40471928Y-41313000D01*
X40484188Y-41437482D01*
X40520498Y-41557180D01*
X40579463Y-41667494D01*
X40658815Y-41764185D01*
X40755506Y-41843537D01*
X40865820Y-41902502D01*
X40985518Y-41938812D01*
X41003482Y-41940581D01*
X40890392Y-42033392D01*
X40711068Y-42251899D01*
X40577818Y-42501192D01*
X40514623Y-42709521D01*
X35394104Y-37589003D01*
X35370301Y-37559999D01*
X35254576Y-37465026D01*
X35122547Y-37394454D01*
X34979286Y-37350997D01*
X34936205Y-37346754D01*
X34895706Y-37270986D01*
X34710134Y-37044866D01*
X34484014Y-36859294D01*
X34429209Y-36830000D01*
X34484014Y-36800706D01*
X34710134Y-36615134D01*
X34895706Y-36389014D01*
X35033599Y-36131034D01*
X35118513Y-35851111D01*
X35147185Y-35560000D01*
X35118513Y-35268889D01*
X35033599Y-34988966D01*
X34895706Y-34730986D01*
X34710134Y-34504866D01*
X34680313Y-34480393D01*
X34749180Y-34459502D01*
X34859494Y-34400537D01*
X34956185Y-34321185D01*
X35035537Y-34224494D01*
X35094502Y-34114180D01*
X35130812Y-33994482D01*
X35143072Y-33870000D01*
X35140000Y-33305750D01*
X34981250Y-33147000D01*
X33782000Y-33147000D01*
X33782000Y-33167000D01*
X33528000Y-33167000D01*
X33528000Y-33147000D01*
X32328750Y-33147000D01*
X32170000Y-33305750D01*
X32166928Y-33870000D01*
X32179188Y-33994482D01*
X32215498Y-34114180D01*
X32274463Y-34224494D01*
X32353815Y-34321185D01*
X32450506Y-34400537D01*
X32560820Y-34459502D01*
X32629687Y-34480393D01*
X32599866Y-34504866D01*
X32414294Y-34730986D01*
X32276401Y-34988966D01*
X32191487Y-35268889D01*
X32162815Y-35560000D01*
X28015000Y-35560000D01*
X28015000Y-32170000D01*
X32166928Y-32170000D01*
X32170000Y-32734250D01*
X32328750Y-32893000D01*
X33528000Y-32893000D01*
X33528000Y-31693750D01*
X33782000Y-31693750D01*
X33782000Y-32893000D01*
X34981250Y-32893000D01*
X35140000Y-32734250D01*
X35143072Y-32170000D01*
X35130812Y-32045518D01*
X35094502Y-31925820D01*
X35035537Y-31815506D01*
X34956185Y-31718815D01*
X34859494Y-31639463D01*
X34749180Y-31580498D01*
X34629482Y-31544188D01*
X34505000Y-31531928D01*
X33940750Y-31535000D01*
X33782000Y-31693750D01*
X33528000Y-31693750D01*
X33369250Y-31535000D01*
X32805000Y-31531928D01*
X32680518Y-31544188D01*
X32560820Y-31580498D01*
X32450506Y-31639463D01*
X32353815Y-31718815D01*
X32274463Y-31815506D01*
X32215498Y-31925820D01*
X32179188Y-32045518D01*
X32166928Y-32170000D01*
X28015000Y-32170000D01*
X28015000Y-27777391D01*
X47879000Y-27777391D01*
X47879000Y-28102609D01*
X47942447Y-28421579D01*
X48066903Y-28722042D01*
X48247585Y-28992451D01*
X48477549Y-29222415D01*
X48747958Y-29403097D01*
X49048421Y-29527553D01*
X49367391Y-29591000D01*
X49692609Y-29591000D01*
X50011579Y-29527553D01*
X50312042Y-29403097D01*
X50582451Y-29222415D01*
X50800000Y-29004866D01*
X51017549Y-29222415D01*
X51287958Y-29403097D01*
X51588421Y-29527553D01*
X51907391Y-29591000D01*
X52232609Y-29591000D01*
X52551579Y-29527553D01*
X52852042Y-29403097D01*
X53122451Y-29222415D01*
X53340000Y-29004866D01*
X53557549Y-29222415D01*
X53827958Y-29403097D01*
X54128421Y-29527553D01*
X54447391Y-29591000D01*
X54772609Y-29591000D01*
X55091579Y-29527553D01*
X55392042Y-29403097D01*
X55662451Y-29222415D01*
X55880000Y-29004866D01*
X56097549Y-29222415D01*
X56367958Y-29403097D01*
X56668421Y-29527553D01*
X56987391Y-29591000D01*
X57312609Y-29591000D01*
X57631579Y-29527553D01*
X57932042Y-29403097D01*
X58202451Y-29222415D01*
X58420000Y-29004866D01*
X58637549Y-29222415D01*
X58907958Y-29403097D01*
X59208421Y-29527553D01*
X59527391Y-29591000D01*
X59852609Y-29591000D01*
X60171579Y-29527553D01*
X60472042Y-29403097D01*
X60742451Y-29222415D01*
X60960000Y-29004866D01*
X61177549Y-29222415D01*
X61447958Y-29403097D01*
X61748421Y-29527553D01*
X62067391Y-29591000D01*
X62392609Y-29591000D01*
X62711579Y-29527553D01*
X63012042Y-29403097D01*
X63282451Y-29222415D01*
X63500000Y-29004866D01*
X63717549Y-29222415D01*
X63987958Y-29403097D01*
X64288421Y-29527553D01*
X64607391Y-29591000D01*
X64932609Y-29591000D01*
X65251579Y-29527553D01*
X65552042Y-29403097D01*
X65822451Y-29222415D01*
X66040000Y-29004866D01*
X66257549Y-29222415D01*
X66527958Y-29403097D01*
X66828421Y-29527553D01*
X67147391Y-29591000D01*
X67472609Y-29591000D01*
X67791579Y-29527553D01*
X68092042Y-29403097D01*
X68362451Y-29222415D01*
X68580000Y-29004866D01*
X68797549Y-29222415D01*
X69067958Y-29403097D01*
X69368421Y-29527553D01*
X69687391Y-29591000D01*
X70012609Y-29591000D01*
X70331579Y-29527553D01*
X70632042Y-29403097D01*
X70902451Y-29222415D01*
X71120000Y-29004866D01*
X71337549Y-29222415D01*
X71607958Y-29403097D01*
X71908421Y-29527553D01*
X72227391Y-29591000D01*
X72552609Y-29591000D01*
X72871579Y-29527553D01*
X73172042Y-29403097D01*
X73442451Y-29222415D01*
X73672415Y-28992451D01*
X73853097Y-28722042D01*
X73977553Y-28421579D01*
X74041000Y-28102609D01*
X74041000Y-27940000D01*
X75342815Y-27940000D01*
X75371487Y-28231111D01*
X75456401Y-28511034D01*
X75594294Y-28769014D01*
X75779866Y-28995134D01*
X76005986Y-29180706D01*
X76263966Y-29318599D01*
X76543889Y-29403513D01*
X76762050Y-29425000D01*
X76907950Y-29425000D01*
X77126111Y-29403513D01*
X77406034Y-29318599D01*
X77664014Y-29180706D01*
X77890134Y-28995134D01*
X78075706Y-28769014D01*
X78213599Y-28511034D01*
X78298513Y-28231111D01*
X78327185Y-27940000D01*
X78298513Y-27648889D01*
X78213599Y-27368966D01*
X78075706Y-27110986D01*
X77890134Y-26884866D01*
X77860313Y-26860393D01*
X77929180Y-26839502D01*
X78039494Y-26780537D01*
X78136185Y-26701185D01*
X78215537Y-26604494D01*
X78274502Y-26494180D01*
X78310812Y-26374482D01*
X78323072Y-26250000D01*
X78323072Y-24550000D01*
X78310812Y-24425518D01*
X78274502Y-24305820D01*
X78215537Y-24195506D01*
X78136185Y-24098815D01*
X78039494Y-24019463D01*
X77929180Y-23960498D01*
X77809482Y-23924188D01*
X77685000Y-23911928D01*
X75985000Y-23911928D01*
X75860518Y-23924188D01*
X75740820Y-23960498D01*
X75630506Y-24019463D01*
X75533815Y-24098815D01*
X75454463Y-24195506D01*
X75395498Y-24305820D01*
X75359188Y-24425518D01*
X75346928Y-24550000D01*
X75346928Y-26250000D01*
X75359188Y-26374482D01*
X75395498Y-26494180D01*
X75454463Y-26604494D01*
X75533815Y-26701185D01*
X75630506Y-26780537D01*
X75740820Y-26839502D01*
X75809687Y-26860393D01*
X75779866Y-26884866D01*
X75594294Y-27110986D01*
X75456401Y-27368966D01*
X75371487Y-27648889D01*
X75342815Y-27940000D01*
X74041000Y-27940000D01*
X74041000Y-27777391D01*
X73977553Y-27458421D01*
X73853097Y-27157958D01*
X73672415Y-26887549D01*
X73442451Y-26657585D01*
X73172042Y-26476903D01*
X72871579Y-26352447D01*
X72552609Y-26289000D01*
X72227391Y-26289000D01*
X71908421Y-26352447D01*
X71607958Y-26476903D01*
X71337549Y-26657585D01*
X71120000Y-26875134D01*
X70902451Y-26657585D01*
X70632042Y-26476903D01*
X70610000Y-26467773D01*
X70610000Y-25350901D01*
X70651101Y-25328932D01*
X70869608Y-25149608D01*
X71048932Y-24931101D01*
X71182182Y-24681808D01*
X71264236Y-24411309D01*
X71291943Y-24130000D01*
X71264236Y-23848691D01*
X71182182Y-23578192D01*
X71048932Y-23328899D01*
X70869608Y-23110392D01*
X70651101Y-22931068D01*
X70401808Y-22797818D01*
X70131309Y-22715764D01*
X69920492Y-22695000D01*
X69779508Y-22695000D01*
X69568691Y-22715764D01*
X69298192Y-22797818D01*
X69048899Y-22931068D01*
X68830392Y-23110392D01*
X68651068Y-23328899D01*
X68580000Y-23461858D01*
X68508932Y-23328899D01*
X68329608Y-23110392D01*
X68111101Y-22931068D01*
X67861808Y-22797818D01*
X67591309Y-22715764D01*
X67380492Y-22695000D01*
X67239508Y-22695000D01*
X67028691Y-22715764D01*
X66758192Y-22797818D01*
X66508899Y-22931068D01*
X66290392Y-23110392D01*
X66111068Y-23328899D01*
X66040000Y-23461858D01*
X65968932Y-23328899D01*
X65789608Y-23110392D01*
X65571101Y-22931068D01*
X65321808Y-22797818D01*
X65051309Y-22715764D01*
X64840492Y-22695000D01*
X64699508Y-22695000D01*
X64488691Y-22715764D01*
X64218192Y-22797818D01*
X63968899Y-22931068D01*
X63750392Y-23110392D01*
X63571068Y-23328899D01*
X63500000Y-23461858D01*
X63428932Y-23328899D01*
X63249608Y-23110392D01*
X63031101Y-22931068D01*
X62781808Y-22797818D01*
X62511309Y-22715764D01*
X62300492Y-22695000D01*
X62159508Y-22695000D01*
X61948691Y-22715764D01*
X61678192Y-22797818D01*
X61428899Y-22931068D01*
X61210392Y-23110392D01*
X61031068Y-23328899D01*
X60960000Y-23461858D01*
X60888932Y-23328899D01*
X60709608Y-23110392D01*
X60491101Y-22931068D01*
X60241808Y-22797818D01*
X59971309Y-22715764D01*
X59760492Y-22695000D01*
X59619508Y-22695000D01*
X59408691Y-22715764D01*
X59138192Y-22797818D01*
X58888899Y-22931068D01*
X58670392Y-23110392D01*
X58491068Y-23328899D01*
X58420000Y-23461858D01*
X58348932Y-23328899D01*
X58169608Y-23110392D01*
X57951101Y-22931068D01*
X57701808Y-22797818D01*
X57431309Y-22715764D01*
X57220492Y-22695000D01*
X57079508Y-22695000D01*
X56868691Y-22715764D01*
X56598192Y-22797818D01*
X56348899Y-22931068D01*
X56130392Y-23110392D01*
X55951068Y-23328899D01*
X55880000Y-23461858D01*
X55808932Y-23328899D01*
X55629608Y-23110392D01*
X55411101Y-22931068D01*
X55161808Y-22797818D01*
X54891309Y-22715764D01*
X54680492Y-22695000D01*
X54539508Y-22695000D01*
X54328691Y-22715764D01*
X54058192Y-22797818D01*
X53808899Y-22931068D01*
X53590392Y-23110392D01*
X53411068Y-23328899D01*
X53340000Y-23461858D01*
X53268932Y-23328899D01*
X53089608Y-23110392D01*
X52871101Y-22931068D01*
X52621808Y-22797818D01*
X52351309Y-22715764D01*
X52140492Y-22695000D01*
X51999508Y-22695000D01*
X51788691Y-22715764D01*
X51518192Y-22797818D01*
X51268899Y-22931068D01*
X51050392Y-23110392D01*
X50957581Y-23223482D01*
X50955812Y-23205518D01*
X50919502Y-23085820D01*
X50860537Y-22975506D01*
X50781185Y-22878815D01*
X50684494Y-22799463D01*
X50574180Y-22740498D01*
X50454482Y-22704188D01*
X50330000Y-22691928D01*
X49815750Y-22695000D01*
X49657000Y-22853750D01*
X49657000Y-24003000D01*
X49677000Y-24003000D01*
X49677000Y-24257000D01*
X49657000Y-24257000D01*
X49657000Y-25406250D01*
X49815750Y-25565000D01*
X50330000Y-25568072D01*
X50454482Y-25555812D01*
X50574180Y-25519502D01*
X50684494Y-25460537D01*
X50781185Y-25381185D01*
X50860537Y-25284494D01*
X50919502Y-25174180D01*
X50955812Y-25054482D01*
X50957581Y-25036518D01*
X51050392Y-25149608D01*
X51268899Y-25328932D01*
X51310000Y-25350901D01*
X51310001Y-26467773D01*
X51287958Y-26476903D01*
X51017549Y-26657585D01*
X50800000Y-26875134D01*
X50582451Y-26657585D01*
X50312042Y-26476903D01*
X50011579Y-26352447D01*
X49692609Y-26289000D01*
X49367391Y-26289000D01*
X49048421Y-26352447D01*
X48747958Y-26476903D01*
X48477549Y-26657585D01*
X48247585Y-26887549D01*
X48066903Y-27157958D01*
X47942447Y-27458421D01*
X47879000Y-27777391D01*
X28015000Y-27777391D01*
X28015000Y-24930000D01*
X48091928Y-24930000D01*
X48104188Y-25054482D01*
X48140498Y-25174180D01*
X48199463Y-25284494D01*
X48278815Y-25381185D01*
X48375506Y-25460537D01*
X48485820Y-25519502D01*
X48605518Y-25555812D01*
X48730000Y-25568072D01*
X49244250Y-25565000D01*
X49403000Y-25406250D01*
X49403000Y-24257000D01*
X48253750Y-24257000D01*
X48095000Y-24415750D01*
X48091928Y-24930000D01*
X28015000Y-24930000D01*
X28015000Y-23330000D01*
X48091928Y-23330000D01*
X48095000Y-23844250D01*
X48253750Y-24003000D01*
X49403000Y-24003000D01*
X49403000Y-22853750D01*
X49244250Y-22695000D01*
X48730000Y-22691928D01*
X48605518Y-22704188D01*
X48485820Y-22740498D01*
X48375506Y-22799463D01*
X48278815Y-22878815D01*
X48199463Y-22975506D01*
X48140498Y-23085820D01*
X48104188Y-23205518D01*
X48091928Y-23330000D01*
X28015000Y-23330000D01*
X28015000Y-18490000D01*
X82475000Y-18490000D01*
X82475001Y-69140000D01*
X82475001Y-69140000D01*
G37*
X82475001Y-69140000D02*
X28015000Y-69140000D01*
X28015000Y-35560000D01*
X32162815Y-35560000D01*
X32191487Y-35851111D01*
X32276401Y-36131034D01*
X32414294Y-36389014D01*
X32599866Y-36615134D01*
X32825986Y-36800706D01*
X32880791Y-36830000D01*
X32825986Y-36859294D01*
X32599866Y-37044866D01*
X32414294Y-37270986D01*
X32276401Y-37528966D01*
X32191487Y-37808889D01*
X32162815Y-38100000D01*
X32191487Y-38391111D01*
X32276401Y-38671034D01*
X32414294Y-38929014D01*
X32599866Y-39155134D01*
X32825986Y-39340706D01*
X32880791Y-39370000D01*
X32825986Y-39399294D01*
X32599866Y-39584866D01*
X32414294Y-39810986D01*
X32276401Y-40068966D01*
X32191487Y-40348889D01*
X32162815Y-40640000D01*
X32191487Y-40931111D01*
X32276401Y-41211034D01*
X32414294Y-41469014D01*
X32599866Y-41695134D01*
X32825986Y-41880706D01*
X32880791Y-41910000D01*
X32825986Y-41939294D01*
X32599866Y-42124866D01*
X32414294Y-42350986D01*
X32276401Y-42608966D01*
X32191487Y-42888889D01*
X32162815Y-43180000D01*
X32191487Y-43471111D01*
X32276401Y-43751034D01*
X32414294Y-44009014D01*
X32599866Y-44235134D01*
X32825986Y-44420706D01*
X32880791Y-44450000D01*
X32825986Y-44479294D01*
X32599866Y-44664866D01*
X32414294Y-44890986D01*
X32276401Y-45148966D01*
X32191487Y-45428889D01*
X32162815Y-45720000D01*
X32191487Y-46011111D01*
X32276401Y-46291034D01*
X32414294Y-46549014D01*
X32599866Y-46775134D01*
X32825986Y-46960706D01*
X32880791Y-46990000D01*
X32825986Y-47019294D01*
X32599866Y-47204866D01*
X32414294Y-47430986D01*
X32276401Y-47688966D01*
X32191487Y-47968889D01*
X32162815Y-48260000D01*
X32191487Y-48551111D01*
X32276401Y-48831034D01*
X32414294Y-49089014D01*
X32599866Y-49315134D01*
X32825986Y-49500706D01*
X32880791Y-49530000D01*
X32825986Y-49559294D01*
X32599866Y-49744866D01*
X32414294Y-49970986D01*
X32276401Y-50228966D01*
X32191487Y-50508889D01*
X32162815Y-50800000D01*
X32191487Y-51091111D01*
X32276401Y-51371034D01*
X32414294Y-51629014D01*
X32599866Y-51855134D01*
X32825986Y-52040706D01*
X32880791Y-52070000D01*
X32825986Y-52099294D01*
X32599866Y-52284866D01*
X32414294Y-52510986D01*
X32276401Y-52768966D01*
X32191487Y-53048889D01*
X32162815Y-53340000D01*
X32191487Y-53631111D01*
X32276401Y-53911034D01*
X32414294Y-54169014D01*
X32599866Y-54395134D01*
X32825986Y-54580706D01*
X32880791Y-54610000D01*
X32825986Y-54639294D01*
X32599866Y-54824866D01*
X32414294Y-55050986D01*
X32276401Y-55308966D01*
X32191487Y-55588889D01*
X32162815Y-55880000D01*
X32191487Y-56171111D01*
X32276401Y-56451034D01*
X32414294Y-56709014D01*
X32599866Y-56935134D01*
X32825986Y-57120706D01*
X32880791Y-57150000D01*
X32825986Y-57179294D01*
X32599866Y-57364866D01*
X32414294Y-57590986D01*
X32276401Y-57848966D01*
X32191487Y-58128889D01*
X32162815Y-58420000D01*
X32191487Y-58711111D01*
X32276401Y-58991034D01*
X32414294Y-59249014D01*
X32599866Y-59475134D01*
X32825986Y-59660706D01*
X32880791Y-59690000D01*
X32825986Y-59719294D01*
X32599866Y-59904866D01*
X32414294Y-60130986D01*
X32276401Y-60388966D01*
X32191487Y-60668889D01*
X32162815Y-60960000D01*
X32191487Y-61251111D01*
X32276401Y-61531034D01*
X32414294Y-61789014D01*
X32599866Y-62015134D01*
X32825986Y-62200706D01*
X32880791Y-62230000D01*
X32825986Y-62259294D01*
X32599866Y-62444866D01*
X32414294Y-62670986D01*
X32276401Y-62928966D01*
X32191487Y-63208889D01*
X32162815Y-63500000D01*
X32191487Y-63791111D01*
X32276401Y-64071034D01*
X32414294Y-64329014D01*
X32599866Y-64555134D01*
X32825986Y-64740706D01*
X33083966Y-64878599D01*
X33363889Y-64963513D01*
X33582050Y-64985000D01*
X33727950Y-64985000D01*
X33946111Y-64963513D01*
X34226034Y-64878599D01*
X34484014Y-64740706D01*
X34710134Y-64555134D01*
X34755434Y-64499936D01*
X35738201Y-65482703D01*
X35761999Y-65511701D01*
X35790997Y-65535499D01*
X35877723Y-65606674D01*
X36009753Y-65677246D01*
X36153014Y-65720703D01*
X36264667Y-65731700D01*
X36264676Y-65731700D01*
X36301999Y-65735376D01*
X36339322Y-65731700D01*
X69628678Y-65731700D01*
X69666000Y-65735376D01*
X69703322Y-65731700D01*
X69703333Y-65731700D01*
X69814986Y-65720703D01*
X69958247Y-65677246D01*
X70090276Y-65606674D01*
X70206001Y-65511701D01*
X70229804Y-65482697D01*
X71347630Y-64364872D01*
X71370392Y-64392608D01*
X71588899Y-64571932D01*
X71838192Y-64705182D01*
X72108691Y-64787236D01*
X72319508Y-64808000D01*
X72460492Y-64808000D01*
X72671309Y-64787236D01*
X72941808Y-64705182D01*
X73191101Y-64571932D01*
X73409608Y-64392608D01*
X73588932Y-64174101D01*
X73722182Y-63924808D01*
X73804236Y-63654309D01*
X73819434Y-63500000D01*
X75342815Y-63500000D01*
X75371487Y-63791111D01*
X75456401Y-64071034D01*
X75594294Y-64329014D01*
X75779866Y-64555134D01*
X76005986Y-64740706D01*
X76263966Y-64878599D01*
X76543889Y-64963513D01*
X76762050Y-64985000D01*
X76907950Y-64985000D01*
X77126111Y-64963513D01*
X77406034Y-64878599D01*
X77664014Y-64740706D01*
X77890134Y-64555134D01*
X78075706Y-64329014D01*
X78213599Y-64071034D01*
X78298513Y-63791111D01*
X78327185Y-63500000D01*
X78298513Y-63208889D01*
X78213599Y-62928966D01*
X78075706Y-62670986D01*
X77890134Y-62444866D01*
X77860313Y-62420393D01*
X77929180Y-62399502D01*
X78039494Y-62340537D01*
X78136185Y-62261185D01*
X78215537Y-62164494D01*
X78274502Y-62054180D01*
X78310812Y-61934482D01*
X78323072Y-61810000D01*
X78323072Y-60110000D01*
X78310812Y-59985518D01*
X78274502Y-59865820D01*
X78215537Y-59755506D01*
X78136185Y-59658815D01*
X78039494Y-59579463D01*
X77929180Y-59520498D01*
X77809482Y-59484188D01*
X77685000Y-59471928D01*
X75985000Y-59471928D01*
X75860518Y-59484188D01*
X75740820Y-59520498D01*
X75630506Y-59579463D01*
X75533815Y-59658815D01*
X75454463Y-59755506D01*
X75395498Y-59865820D01*
X75359188Y-59985518D01*
X75346928Y-60110000D01*
X75346928Y-61810000D01*
X75359188Y-61934482D01*
X75395498Y-62054180D01*
X75454463Y-62164494D01*
X75533815Y-62261185D01*
X75630506Y-62340537D01*
X75740820Y-62399502D01*
X75809687Y-62420393D01*
X75779866Y-62444866D01*
X75594294Y-62670986D01*
X75456401Y-62928966D01*
X75371487Y-63208889D01*
X75342815Y-63500000D01*
X73819434Y-63500000D01*
X73831943Y-63373000D01*
X73804236Y-63091691D01*
X73722182Y-62821192D01*
X73588932Y-62571899D01*
X73470235Y-62427266D01*
X74530503Y-61366999D01*
X74559501Y-61343201D01*
X74654474Y-61227476D01*
X74725046Y-61095447D01*
X74768503Y-60952186D01*
X74779500Y-60840533D01*
X74779500Y-60840525D01*
X74783176Y-60803200D01*
X74779500Y-60765875D01*
X74779500Y-49799822D01*
X74783176Y-49762500D01*
X74779500Y-49725177D01*
X74779500Y-49725167D01*
X74768503Y-49613514D01*
X74725046Y-49470253D01*
X74654475Y-49338225D01*
X74654474Y-49338223D01*
X74583299Y-49251497D01*
X74559501Y-49222499D01*
X74530504Y-49198702D01*
X73790708Y-48458906D01*
X73804236Y-48414309D01*
X73831943Y-48133000D01*
X73804236Y-47851691D01*
X73722182Y-47581192D01*
X73588932Y-47331899D01*
X73409608Y-47113392D01*
X73191101Y-46934068D01*
X73058142Y-46863000D01*
X73191101Y-46791932D01*
X73409608Y-46612608D01*
X73588932Y-46394101D01*
X73722182Y-46144808D01*
X73804236Y-45874309D01*
X73831943Y-45593000D01*
X73804236Y-45311691D01*
X73722182Y-45041192D01*
X73588932Y-44791899D01*
X73409608Y-44573392D01*
X73191101Y-44394068D01*
X73058142Y-44323000D01*
X73191101Y-44251932D01*
X73409608Y-44072608D01*
X73588932Y-43854101D01*
X73722182Y-43604808D01*
X73804236Y-43334309D01*
X73831943Y-43053000D01*
X73804236Y-42771691D01*
X73722182Y-42501192D01*
X73588932Y-42251899D01*
X73409608Y-42033392D01*
X73191101Y-41854068D01*
X73058142Y-41783000D01*
X73191101Y-41711932D01*
X73409608Y-41532608D01*
X73588932Y-41314101D01*
X73722182Y-41064808D01*
X73804236Y-40794309D01*
X73831943Y-40513000D01*
X73804236Y-40231691D01*
X73722182Y-39961192D01*
X73588932Y-39711899D01*
X73409608Y-39493392D01*
X73191101Y-39314068D01*
X72941808Y-39180818D01*
X72671309Y-39098764D01*
X72460492Y-39078000D01*
X72319508Y-39078000D01*
X72108691Y-39098764D01*
X71838192Y-39180818D01*
X71588899Y-39314068D01*
X71370392Y-39493392D01*
X71191068Y-39711899D01*
X71057818Y-39961192D01*
X70975764Y-40231691D01*
X70948057Y-40513000D01*
X70975764Y-40794309D01*
X71057818Y-41064808D01*
X71191068Y-41314101D01*
X71370392Y-41532608D01*
X71588899Y-41711932D01*
X71721858Y-41783000D01*
X71588899Y-41854068D01*
X71370392Y-42033392D01*
X71191068Y-42251899D01*
X71057818Y-42501192D01*
X70975764Y-42771691D01*
X70948057Y-43053000D01*
X70975764Y-43334309D01*
X71057818Y-43604808D01*
X71191068Y-43854101D01*
X71370392Y-44072608D01*
X71588899Y-44251932D01*
X71721858Y-44323000D01*
X71588899Y-44394068D01*
X71370392Y-44573392D01*
X71191068Y-44791899D01*
X71057818Y-45041192D01*
X70975764Y-45311691D01*
X70948057Y-45593000D01*
X70975764Y-45874309D01*
X71057818Y-46144808D01*
X71191068Y-46394101D01*
X71370392Y-46612608D01*
X71588899Y-46791932D01*
X71721858Y-46863000D01*
X71588899Y-46934068D01*
X71370392Y-47113392D01*
X71191068Y-47331899D01*
X71057818Y-47581192D01*
X70975764Y-47851691D01*
X70948057Y-48133000D01*
X70975764Y-48414309D01*
X71057818Y-48684808D01*
X71191068Y-48934101D01*
X71370392Y-49152608D01*
X71588899Y-49331932D01*
X71721858Y-49403000D01*
X71588899Y-49474068D01*
X71370392Y-49653392D01*
X71191068Y-49871899D01*
X71057818Y-50121192D01*
X70975764Y-50391691D01*
X70948057Y-50673000D01*
X70975764Y-50954309D01*
X71057818Y-51224808D01*
X71191068Y-51474101D01*
X71370392Y-51692608D01*
X71588899Y-51871932D01*
X71721858Y-51943000D01*
X71588899Y-52014068D01*
X71370392Y-52193392D01*
X71191068Y-52411899D01*
X71057818Y-52661192D01*
X70975764Y-52931691D01*
X70948057Y-53213000D01*
X70975764Y-53494309D01*
X71057818Y-53764808D01*
X71191068Y-54014101D01*
X71370392Y-54232608D01*
X71588899Y-54411932D01*
X71721858Y-54483000D01*
X71588899Y-54554068D01*
X71370392Y-54733392D01*
X71191068Y-54951899D01*
X71057818Y-55201192D01*
X70975764Y-55471691D01*
X70948057Y-55753000D01*
X70975764Y-56034309D01*
X71057818Y-56304808D01*
X71191068Y-56554101D01*
X71370392Y-56772608D01*
X71588899Y-56951932D01*
X71721858Y-57023000D01*
X71588899Y-57094068D01*
X71370392Y-57273392D01*
X71347630Y-57301128D01*
X70703204Y-56656702D01*
X70679401Y-56627699D01*
X70563676Y-56532726D01*
X70431647Y-56462154D01*
X70288386Y-56418697D01*
X70176733Y-56407700D01*
X70176722Y-56407700D01*
X70139400Y-56404024D01*
X70102078Y-56407700D01*
X66047185Y-56407700D01*
X66102182Y-56304808D01*
X66184236Y-56034309D01*
X66211943Y-55753000D01*
X66184236Y-55471691D01*
X66102182Y-55201192D01*
X65968932Y-54951899D01*
X65789608Y-54733392D01*
X65571101Y-54554068D01*
X65438142Y-54483000D01*
X65571101Y-54411932D01*
X65789608Y-54232608D01*
X65968932Y-54014101D01*
X66102182Y-53764808D01*
X66184236Y-53494309D01*
X66211943Y-53213000D01*
X66184236Y-52931691D01*
X66102182Y-52661192D01*
X65968932Y-52411899D01*
X65789608Y-52193392D01*
X65571101Y-52014068D01*
X65438142Y-51943000D01*
X65571101Y-51871932D01*
X65789608Y-51692608D01*
X65968932Y-51474101D01*
X66102182Y-51224808D01*
X66184236Y-50954309D01*
X66211943Y-50673000D01*
X66184236Y-50391691D01*
X66102182Y-50121192D01*
X65968932Y-49871899D01*
X65789608Y-49653392D01*
X65571101Y-49474068D01*
X65438142Y-49403000D01*
X65571101Y-49331932D01*
X65789608Y-49152608D01*
X65968932Y-48934101D01*
X66102182Y-48684808D01*
X66184236Y-48414309D01*
X66211943Y-48133000D01*
X66184236Y-47851691D01*
X66102182Y-47581192D01*
X65968932Y-47331899D01*
X65789608Y-47113392D01*
X65571101Y-46934068D01*
X65438142Y-46863000D01*
X65571101Y-46791932D01*
X65789608Y-46612608D01*
X65968932Y-46394101D01*
X66102182Y-46144808D01*
X66184236Y-45874309D01*
X66211943Y-45593000D01*
X66184236Y-45311691D01*
X66102182Y-45041192D01*
X65968932Y-44791899D01*
X65789608Y-44573392D01*
X65571101Y-44394068D01*
X65438142Y-44323000D01*
X65571101Y-44251932D01*
X65789608Y-44072608D01*
X65968932Y-43854101D01*
X66102182Y-43604808D01*
X66184236Y-43334309D01*
X66211943Y-43053000D01*
X66184236Y-42771691D01*
X66170708Y-42727094D01*
X70361004Y-38536798D01*
X70390001Y-38513001D01*
X70442526Y-38448999D01*
X70484974Y-38397277D01*
X70555546Y-38265247D01*
X70563205Y-38239997D01*
X70599003Y-38121986D01*
X70610000Y-38010333D01*
X70610000Y-38010323D01*
X70613676Y-37973000D01*
X70610000Y-37935677D01*
X70610000Y-37032227D01*
X70632042Y-37023097D01*
X70902451Y-36842415D01*
X71120000Y-36624866D01*
X71337549Y-36842415D01*
X71607958Y-37023097D01*
X71908421Y-37147553D01*
X72227391Y-37211000D01*
X72552609Y-37211000D01*
X72871579Y-37147553D01*
X73172042Y-37023097D01*
X73442451Y-36842415D01*
X73672415Y-36612451D01*
X73853097Y-36342042D01*
X73977553Y-36041579D01*
X74041000Y-35722609D01*
X74041000Y-35397391D01*
X73977553Y-35078421D01*
X73853097Y-34777958D01*
X73672415Y-34507549D01*
X73442451Y-34277585D01*
X73172042Y-34096903D01*
X72871579Y-33972447D01*
X72552609Y-33909000D01*
X72227391Y-33909000D01*
X71908421Y-33972447D01*
X71607958Y-34096903D01*
X71337549Y-34277585D01*
X71120000Y-34495134D01*
X70902451Y-34277585D01*
X70632042Y-34096903D01*
X70331579Y-33972447D01*
X70012609Y-33909000D01*
X69687391Y-33909000D01*
X69368421Y-33972447D01*
X69067958Y-34096903D01*
X68797549Y-34277585D01*
X68580000Y-34495134D01*
X68362451Y-34277585D01*
X68092042Y-34096903D01*
X67791579Y-33972447D01*
X67472609Y-33909000D01*
X67147391Y-33909000D01*
X66828421Y-33972447D01*
X66527958Y-34096903D01*
X66257549Y-34277585D01*
X66040000Y-34495134D01*
X65822451Y-34277585D01*
X65552042Y-34096903D01*
X65251579Y-33972447D01*
X64932609Y-33909000D01*
X64607391Y-33909000D01*
X64288421Y-33972447D01*
X63987958Y-34096903D01*
X63717549Y-34277585D01*
X63500000Y-34495134D01*
X63282451Y-34277585D01*
X63012042Y-34096903D01*
X62711579Y-33972447D01*
X62392609Y-33909000D01*
X62067391Y-33909000D01*
X61748421Y-33972447D01*
X61447958Y-34096903D01*
X61177549Y-34277585D01*
X60960000Y-34495134D01*
X60742451Y-34277585D01*
X60472042Y-34096903D01*
X60171579Y-33972447D01*
X59852609Y-33909000D01*
X59527391Y-33909000D01*
X59208421Y-33972447D01*
X58907958Y-34096903D01*
X58637549Y-34277585D01*
X58420000Y-34495134D01*
X58202451Y-34277585D01*
X57932042Y-34096903D01*
X57631579Y-33972447D01*
X57312609Y-33909000D01*
X56987391Y-33909000D01*
X56668421Y-33972447D01*
X56367958Y-34096903D01*
X56097549Y-34277585D01*
X55880000Y-34495134D01*
X55662451Y-34277585D01*
X55392042Y-34096903D01*
X55091579Y-33972447D01*
X54772609Y-33909000D01*
X54447391Y-33909000D01*
X54128421Y-33972447D01*
X53827958Y-34096903D01*
X53557549Y-34277585D01*
X53340000Y-34495134D01*
X53122451Y-34277585D01*
X52852042Y-34096903D01*
X52551579Y-33972447D01*
X52232609Y-33909000D01*
X51907391Y-33909000D01*
X51588421Y-33972447D01*
X51287958Y-34096903D01*
X51095704Y-34225364D01*
X51076537Y-34189506D01*
X50997185Y-34092815D01*
X50900494Y-34013463D01*
X50790180Y-33954498D01*
X50670482Y-33918188D01*
X50546000Y-33905928D01*
X48514000Y-33905928D01*
X48389518Y-33918188D01*
X48269820Y-33954498D01*
X48159506Y-34013463D01*
X48062815Y-34092815D01*
X47983463Y-34189506D01*
X47924498Y-34299820D01*
X47888188Y-34419518D01*
X47875928Y-34544000D01*
X47875928Y-36576000D01*
X47888188Y-36700482D01*
X47924498Y-36820180D01*
X47983463Y-36930494D01*
X48062815Y-37027185D01*
X48159506Y-37106537D01*
X48269820Y-37165502D01*
X48389518Y-37201812D01*
X48514000Y-37214072D01*
X50546000Y-37214072D01*
X50670482Y-37201812D01*
X50790180Y-37165502D01*
X50900494Y-37106537D01*
X50997185Y-37027185D01*
X51076537Y-36930494D01*
X51095704Y-36894636D01*
X51287958Y-37023097D01*
X51310001Y-37032227D01*
X51310000Y-39026332D01*
X51310001Y-39026342D01*
X51310000Y-40198197D01*
X50969402Y-40538795D01*
X50971943Y-40513000D01*
X50944236Y-40231691D01*
X50862182Y-39961192D01*
X50728932Y-39711899D01*
X50549608Y-39493392D01*
X50331101Y-39314068D01*
X50081808Y-39180818D01*
X49811309Y-39098764D01*
X49600492Y-39078000D01*
X49459508Y-39078000D01*
X49248691Y-39098764D01*
X48978192Y-39180818D01*
X48728899Y-39314068D01*
X48510392Y-39493392D01*
X48331068Y-39711899D01*
X48197818Y-39961192D01*
X48115764Y-40231691D01*
X48088057Y-40513000D01*
X48115764Y-40794309D01*
X48197818Y-41064808D01*
X48331068Y-41314101D01*
X48510392Y-41532608D01*
X48728899Y-41711932D01*
X48861858Y-41783000D01*
X48728899Y-41854068D01*
X48510392Y-42033392D01*
X48331068Y-42251899D01*
X48197818Y-42501192D01*
X48115764Y-42771691D01*
X48088057Y-43053000D01*
X48115764Y-43334309D01*
X48129292Y-43378906D01*
X47443303Y-44064896D01*
X47414299Y-44088699D01*
X47360254Y-44154554D01*
X47319326Y-44204424D01*
X47291498Y-44256487D01*
X47248754Y-44336454D01*
X47205297Y-44479715D01*
X47194300Y-44591368D01*
X47194300Y-44591378D01*
X47190624Y-44628700D01*
X47194300Y-44666022D01*
X47194300Y-48155698D01*
X43011465Y-43972864D01*
X43108932Y-43854101D01*
X43242182Y-43604808D01*
X43324236Y-43334309D01*
X43351943Y-43053000D01*
X43324236Y-42771691D01*
X43242182Y-42501192D01*
X43108932Y-42251899D01*
X42929608Y-42033392D01*
X42816518Y-41940581D01*
X42834482Y-41938812D01*
X42954180Y-41902502D01*
X43064494Y-41843537D01*
X43161185Y-41764185D01*
X43240537Y-41667494D01*
X43299502Y-41557180D01*
X43335812Y-41437482D01*
X43348072Y-41313000D01*
X43348072Y-39713000D01*
X43335812Y-39588518D01*
X43299502Y-39468820D01*
X43240537Y-39358506D01*
X43161185Y-39261815D01*
X43064494Y-39182463D01*
X42954180Y-39123498D01*
X42834482Y-39087188D01*
X42710000Y-39074928D01*
X41110000Y-39074928D01*
X40985518Y-39087188D01*
X40865820Y-39123498D01*
X40755506Y-39182463D01*
X40658815Y-39261815D01*
X40579463Y-39358506D01*
X40520498Y-39468820D01*
X40484188Y-39588518D01*
X40471928Y-39713000D01*
X40471928Y-41313000D01*
X40484188Y-41437482D01*
X40520498Y-41557180D01*
X40579463Y-41667494D01*
X40658815Y-41764185D01*
X40755506Y-41843537D01*
X40865820Y-41902502D01*
X40985518Y-41938812D01*
X41003482Y-41940581D01*
X40890392Y-42033392D01*
X40711068Y-42251899D01*
X40577818Y-42501192D01*
X40514623Y-42709521D01*
X35394104Y-37589003D01*
X35370301Y-37559999D01*
X35254576Y-37465026D01*
X35122547Y-37394454D01*
X34979286Y-37350997D01*
X34936205Y-37346754D01*
X34895706Y-37270986D01*
X34710134Y-37044866D01*
X34484014Y-36859294D01*
X34429209Y-36830000D01*
X34484014Y-36800706D01*
X34710134Y-36615134D01*
X34895706Y-36389014D01*
X35033599Y-36131034D01*
X35118513Y-35851111D01*
X35147185Y-35560000D01*
X35118513Y-35268889D01*
X35033599Y-34988966D01*
X34895706Y-34730986D01*
X34710134Y-34504866D01*
X34680313Y-34480393D01*
X34749180Y-34459502D01*
X34859494Y-34400537D01*
X34956185Y-34321185D01*
X35035537Y-34224494D01*
X35094502Y-34114180D01*
X35130812Y-33994482D01*
X35143072Y-33870000D01*
X35140000Y-33305750D01*
X34981250Y-33147000D01*
X33782000Y-33147000D01*
X33782000Y-33167000D01*
X33528000Y-33167000D01*
X33528000Y-33147000D01*
X32328750Y-33147000D01*
X32170000Y-33305750D01*
X32166928Y-33870000D01*
X32179188Y-33994482D01*
X32215498Y-34114180D01*
X32274463Y-34224494D01*
X32353815Y-34321185D01*
X32450506Y-34400537D01*
X32560820Y-34459502D01*
X32629687Y-34480393D01*
X32599866Y-34504866D01*
X32414294Y-34730986D01*
X32276401Y-34988966D01*
X32191487Y-35268889D01*
X32162815Y-35560000D01*
X28015000Y-35560000D01*
X28015000Y-32170000D01*
X32166928Y-32170000D01*
X32170000Y-32734250D01*
X32328750Y-32893000D01*
X33528000Y-32893000D01*
X33528000Y-31693750D01*
X33782000Y-31693750D01*
X33782000Y-32893000D01*
X34981250Y-32893000D01*
X35140000Y-32734250D01*
X35143072Y-32170000D01*
X35130812Y-32045518D01*
X35094502Y-31925820D01*
X35035537Y-31815506D01*
X34956185Y-31718815D01*
X34859494Y-31639463D01*
X34749180Y-31580498D01*
X34629482Y-31544188D01*
X34505000Y-31531928D01*
X33940750Y-31535000D01*
X33782000Y-31693750D01*
X33528000Y-31693750D01*
X33369250Y-31535000D01*
X32805000Y-31531928D01*
X32680518Y-31544188D01*
X32560820Y-31580498D01*
X32450506Y-31639463D01*
X32353815Y-31718815D01*
X32274463Y-31815506D01*
X32215498Y-31925820D01*
X32179188Y-32045518D01*
X32166928Y-32170000D01*
X28015000Y-32170000D01*
X28015000Y-27777391D01*
X47879000Y-27777391D01*
X47879000Y-28102609D01*
X47942447Y-28421579D01*
X48066903Y-28722042D01*
X48247585Y-28992451D01*
X48477549Y-29222415D01*
X48747958Y-29403097D01*
X49048421Y-29527553D01*
X49367391Y-29591000D01*
X49692609Y-29591000D01*
X50011579Y-29527553D01*
X50312042Y-29403097D01*
X50582451Y-29222415D01*
X50800000Y-29004866D01*
X51017549Y-29222415D01*
X51287958Y-29403097D01*
X51588421Y-29527553D01*
X51907391Y-29591000D01*
X52232609Y-29591000D01*
X52551579Y-29527553D01*
X52852042Y-29403097D01*
X53122451Y-29222415D01*
X53340000Y-29004866D01*
X53557549Y-29222415D01*
X53827958Y-29403097D01*
X54128421Y-29527553D01*
X54447391Y-29591000D01*
X54772609Y-29591000D01*
X55091579Y-29527553D01*
X55392042Y-29403097D01*
X55662451Y-29222415D01*
X55880000Y-29004866D01*
X56097549Y-29222415D01*
X56367958Y-29403097D01*
X56668421Y-29527553D01*
X56987391Y-29591000D01*
X57312609Y-29591000D01*
X57631579Y-29527553D01*
X57932042Y-29403097D01*
X58202451Y-29222415D01*
X58420000Y-29004866D01*
X58637549Y-29222415D01*
X58907958Y-29403097D01*
X59208421Y-29527553D01*
X59527391Y-29591000D01*
X59852609Y-29591000D01*
X60171579Y-29527553D01*
X60472042Y-29403097D01*
X60742451Y-29222415D01*
X60960000Y-29004866D01*
X61177549Y-29222415D01*
X61447958Y-29403097D01*
X61748421Y-29527553D01*
X62067391Y-29591000D01*
X62392609Y-29591000D01*
X62711579Y-29527553D01*
X63012042Y-29403097D01*
X63282451Y-29222415D01*
X63500000Y-29004866D01*
X63717549Y-29222415D01*
X63987958Y-29403097D01*
X64288421Y-29527553D01*
X64607391Y-29591000D01*
X64932609Y-29591000D01*
X65251579Y-29527553D01*
X65552042Y-29403097D01*
X65822451Y-29222415D01*
X66040000Y-29004866D01*
X66257549Y-29222415D01*
X66527958Y-29403097D01*
X66828421Y-29527553D01*
X67147391Y-29591000D01*
X67472609Y-29591000D01*
X67791579Y-29527553D01*
X68092042Y-29403097D01*
X68362451Y-29222415D01*
X68580000Y-29004866D01*
X68797549Y-29222415D01*
X69067958Y-29403097D01*
X69368421Y-29527553D01*
X69687391Y-29591000D01*
X70012609Y-29591000D01*
X70331579Y-29527553D01*
X70632042Y-29403097D01*
X70902451Y-29222415D01*
X71120000Y-29004866D01*
X71337549Y-29222415D01*
X71607958Y-29403097D01*
X71908421Y-29527553D01*
X72227391Y-29591000D01*
X72552609Y-29591000D01*
X72871579Y-29527553D01*
X73172042Y-29403097D01*
X73442451Y-29222415D01*
X73672415Y-28992451D01*
X73853097Y-28722042D01*
X73977553Y-28421579D01*
X74041000Y-28102609D01*
X74041000Y-27940000D01*
X75342815Y-27940000D01*
X75371487Y-28231111D01*
X75456401Y-28511034D01*
X75594294Y-28769014D01*
X75779866Y-28995134D01*
X76005986Y-29180706D01*
X76263966Y-29318599D01*
X76543889Y-29403513D01*
X76762050Y-29425000D01*
X76907950Y-29425000D01*
X77126111Y-29403513D01*
X77406034Y-29318599D01*
X77664014Y-29180706D01*
X77890134Y-28995134D01*
X78075706Y-28769014D01*
X78213599Y-28511034D01*
X78298513Y-28231111D01*
X78327185Y-27940000D01*
X78298513Y-27648889D01*
X78213599Y-27368966D01*
X78075706Y-27110986D01*
X77890134Y-26884866D01*
X77860313Y-26860393D01*
X77929180Y-26839502D01*
X78039494Y-26780537D01*
X78136185Y-26701185D01*
X78215537Y-26604494D01*
X78274502Y-26494180D01*
X78310812Y-26374482D01*
X78323072Y-26250000D01*
X78323072Y-24550000D01*
X78310812Y-24425518D01*
X78274502Y-24305820D01*
X78215537Y-24195506D01*
X78136185Y-24098815D01*
X78039494Y-24019463D01*
X77929180Y-23960498D01*
X77809482Y-23924188D01*
X77685000Y-23911928D01*
X75985000Y-23911928D01*
X75860518Y-23924188D01*
X75740820Y-23960498D01*
X75630506Y-24019463D01*
X75533815Y-24098815D01*
X75454463Y-24195506D01*
X75395498Y-24305820D01*
X75359188Y-24425518D01*
X75346928Y-24550000D01*
X75346928Y-26250000D01*
X75359188Y-26374482D01*
X75395498Y-26494180D01*
X75454463Y-26604494D01*
X75533815Y-26701185D01*
X75630506Y-26780537D01*
X75740820Y-26839502D01*
X75809687Y-26860393D01*
X75779866Y-26884866D01*
X75594294Y-27110986D01*
X75456401Y-27368966D01*
X75371487Y-27648889D01*
X75342815Y-27940000D01*
X74041000Y-27940000D01*
X74041000Y-27777391D01*
X73977553Y-27458421D01*
X73853097Y-27157958D01*
X73672415Y-26887549D01*
X73442451Y-26657585D01*
X73172042Y-26476903D01*
X72871579Y-26352447D01*
X72552609Y-26289000D01*
X72227391Y-26289000D01*
X71908421Y-26352447D01*
X71607958Y-26476903D01*
X71337549Y-26657585D01*
X71120000Y-26875134D01*
X70902451Y-26657585D01*
X70632042Y-26476903D01*
X70610000Y-26467773D01*
X70610000Y-25350901D01*
X70651101Y-25328932D01*
X70869608Y-25149608D01*
X71048932Y-24931101D01*
X71182182Y-24681808D01*
X71264236Y-24411309D01*
X71291943Y-24130000D01*
X71264236Y-23848691D01*
X71182182Y-23578192D01*
X71048932Y-23328899D01*
X70869608Y-23110392D01*
X70651101Y-22931068D01*
X70401808Y-22797818D01*
X70131309Y-22715764D01*
X69920492Y-22695000D01*
X69779508Y-22695000D01*
X69568691Y-22715764D01*
X69298192Y-22797818D01*
X69048899Y-22931068D01*
X68830392Y-23110392D01*
X68651068Y-23328899D01*
X68580000Y-23461858D01*
X68508932Y-23328899D01*
X68329608Y-23110392D01*
X68111101Y-22931068D01*
X67861808Y-22797818D01*
X67591309Y-22715764D01*
X67380492Y-22695000D01*
X67239508Y-22695000D01*
X67028691Y-22715764D01*
X66758192Y-22797818D01*
X66508899Y-22931068D01*
X66290392Y-23110392D01*
X66111068Y-23328899D01*
X66040000Y-23461858D01*
X65968932Y-23328899D01*
X65789608Y-23110392D01*
X65571101Y-22931068D01*
X65321808Y-22797818D01*
X65051309Y-22715764D01*
X64840492Y-22695000D01*
X64699508Y-22695000D01*
X64488691Y-22715764D01*
X64218192Y-22797818D01*
X63968899Y-22931068D01*
X63750392Y-23110392D01*
X63571068Y-23328899D01*
X63500000Y-23461858D01*
X63428932Y-23328899D01*
X63249608Y-23110392D01*
X63031101Y-22931068D01*
X62781808Y-22797818D01*
X62511309Y-22715764D01*
X62300492Y-22695000D01*
X62159508Y-22695000D01*
X61948691Y-22715764D01*
X61678192Y-22797818D01*
X61428899Y-22931068D01*
X61210392Y-23110392D01*
X61031068Y-23328899D01*
X60960000Y-23461858D01*
X60888932Y-23328899D01*
X60709608Y-23110392D01*
X60491101Y-22931068D01*
X60241808Y-22797818D01*
X59971309Y-22715764D01*
X59760492Y-22695000D01*
X59619508Y-22695000D01*
X59408691Y-22715764D01*
X59138192Y-22797818D01*
X58888899Y-22931068D01*
X58670392Y-23110392D01*
X58491068Y-23328899D01*
X58420000Y-23461858D01*
X58348932Y-23328899D01*
X58169608Y-23110392D01*
X57951101Y-22931068D01*
X57701808Y-22797818D01*
X57431309Y-22715764D01*
X57220492Y-22695000D01*
X57079508Y-22695000D01*
X56868691Y-22715764D01*
X56598192Y-22797818D01*
X56348899Y-22931068D01*
X56130392Y-23110392D01*
X55951068Y-23328899D01*
X55880000Y-23461858D01*
X55808932Y-23328899D01*
X55629608Y-23110392D01*
X55411101Y-22931068D01*
X55161808Y-22797818D01*
X54891309Y-22715764D01*
X54680492Y-22695000D01*
X54539508Y-22695000D01*
X54328691Y-22715764D01*
X54058192Y-22797818D01*
X53808899Y-22931068D01*
X53590392Y-23110392D01*
X53411068Y-23328899D01*
X53340000Y-23461858D01*
X53268932Y-23328899D01*
X53089608Y-23110392D01*
X52871101Y-22931068D01*
X52621808Y-22797818D01*
X52351309Y-22715764D01*
X52140492Y-22695000D01*
X51999508Y-22695000D01*
X51788691Y-22715764D01*
X51518192Y-22797818D01*
X51268899Y-22931068D01*
X51050392Y-23110392D01*
X50957581Y-23223482D01*
X50955812Y-23205518D01*
X50919502Y-23085820D01*
X50860537Y-22975506D01*
X50781185Y-22878815D01*
X50684494Y-22799463D01*
X50574180Y-22740498D01*
X50454482Y-22704188D01*
X50330000Y-22691928D01*
X49815750Y-22695000D01*
X49657000Y-22853750D01*
X49657000Y-24003000D01*
X49677000Y-24003000D01*
X49677000Y-24257000D01*
X49657000Y-24257000D01*
X49657000Y-25406250D01*
X49815750Y-25565000D01*
X50330000Y-25568072D01*
X50454482Y-25555812D01*
X50574180Y-25519502D01*
X50684494Y-25460537D01*
X50781185Y-25381185D01*
X50860537Y-25284494D01*
X50919502Y-25174180D01*
X50955812Y-25054482D01*
X50957581Y-25036518D01*
X51050392Y-25149608D01*
X51268899Y-25328932D01*
X51310000Y-25350901D01*
X51310001Y-26467773D01*
X51287958Y-26476903D01*
X51017549Y-26657585D01*
X50800000Y-26875134D01*
X50582451Y-26657585D01*
X50312042Y-26476903D01*
X50011579Y-26352447D01*
X49692609Y-26289000D01*
X49367391Y-26289000D01*
X49048421Y-26352447D01*
X48747958Y-26476903D01*
X48477549Y-26657585D01*
X48247585Y-26887549D01*
X48066903Y-27157958D01*
X47942447Y-27458421D01*
X47879000Y-27777391D01*
X28015000Y-27777391D01*
X28015000Y-24930000D01*
X48091928Y-24930000D01*
X48104188Y-25054482D01*
X48140498Y-25174180D01*
X48199463Y-25284494D01*
X48278815Y-25381185D01*
X48375506Y-25460537D01*
X48485820Y-25519502D01*
X48605518Y-25555812D01*
X48730000Y-25568072D01*
X49244250Y-25565000D01*
X49403000Y-25406250D01*
X49403000Y-24257000D01*
X48253750Y-24257000D01*
X48095000Y-24415750D01*
X48091928Y-24930000D01*
X28015000Y-24930000D01*
X28015000Y-23330000D01*
X48091928Y-23330000D01*
X48095000Y-23844250D01*
X48253750Y-24003000D01*
X49403000Y-24003000D01*
X49403000Y-22853750D01*
X49244250Y-22695000D01*
X48730000Y-22691928D01*
X48605518Y-22704188D01*
X48485820Y-22740498D01*
X48375506Y-22799463D01*
X48278815Y-22878815D01*
X48199463Y-22975506D01*
X48140498Y-23085820D01*
X48104188Y-23205518D01*
X48091928Y-23330000D01*
X28015000Y-23330000D01*
X28015000Y-18490000D01*
X82475000Y-18490000D01*
X82475001Y-69140000D01*
G36*
X40890392Y-49152608D02*
G01*
X41108899Y-49331932D01*
X41241858Y-49403000D01*
X41108899Y-49474068D01*
X40890392Y-49653392D01*
X40711068Y-49871899D01*
X40577818Y-50121192D01*
X40495764Y-50391691D01*
X40468057Y-50673000D01*
X40495764Y-50954309D01*
X40577818Y-51224808D01*
X40711068Y-51474101D01*
X40890392Y-51692608D01*
X41108899Y-51871932D01*
X41241858Y-51943000D01*
X41108899Y-52014068D01*
X40890392Y-52193392D01*
X40711068Y-52411899D01*
X40577818Y-52661192D01*
X40495764Y-52931691D01*
X40468057Y-53213000D01*
X40495764Y-53494309D01*
X40577818Y-53764808D01*
X40711068Y-54014101D01*
X40890392Y-54232608D01*
X41108899Y-54411932D01*
X41241858Y-54483000D01*
X41108899Y-54554068D01*
X40890392Y-54733392D01*
X40711068Y-54951899D01*
X40577818Y-55201192D01*
X40495764Y-55471691D01*
X40468057Y-55753000D01*
X40495764Y-56034309D01*
X40577818Y-56304808D01*
X40711068Y-56554101D01*
X40890392Y-56772608D01*
X41108899Y-56951932D01*
X41241858Y-57023000D01*
X41108899Y-57094068D01*
X40890392Y-57273392D01*
X40711068Y-57491899D01*
X40577818Y-57741192D01*
X40495764Y-58011691D01*
X40468057Y-58293000D01*
X40495764Y-58574309D01*
X40577818Y-58844808D01*
X40711068Y-59094101D01*
X40890392Y-59312608D01*
X41108899Y-59491932D01*
X41241858Y-59563000D01*
X41108899Y-59634068D01*
X40890392Y-59813392D01*
X40711068Y-60031899D01*
X40577818Y-60281192D01*
X40495764Y-60551691D01*
X40468057Y-60833000D01*
X40495764Y-61114309D01*
X40577818Y-61384808D01*
X40711068Y-61634101D01*
X40890392Y-61852608D01*
X41108899Y-62031932D01*
X41246682Y-62105579D01*
X41054869Y-62220615D01*
X40846481Y-62409586D01*
X40678963Y-62635580D01*
X40558754Y-62889913D01*
X40518096Y-63023961D01*
X40640085Y-63246000D01*
X41783000Y-63246000D01*
X41783000Y-63226000D01*
X42037000Y-63226000D01*
X42037000Y-63246000D01*
X43179915Y-63246000D01*
X43301904Y-63023961D01*
X43261246Y-62889913D01*
X43141037Y-62635580D01*
X42973519Y-62409586D01*
X42765131Y-62220615D01*
X42573318Y-62105579D01*
X42711101Y-62031932D01*
X42929608Y-61852608D01*
X43108932Y-61634101D01*
X43242182Y-61384808D01*
X43324236Y-61114309D01*
X43351943Y-60833000D01*
X43324236Y-60551691D01*
X43242182Y-60281192D01*
X43108932Y-60031899D01*
X42929608Y-59813392D01*
X42711101Y-59634068D01*
X42578142Y-59563000D01*
X42711101Y-59491932D01*
X42857931Y-59371432D01*
X47698198Y-64211700D01*
X43065963Y-64211700D01*
X43141037Y-64110420D01*
X43261246Y-63856087D01*
X43301904Y-63722039D01*
X43179915Y-63500000D01*
X42037000Y-63500000D01*
X42037000Y-63520000D01*
X41783000Y-63520000D01*
X41783000Y-63500000D01*
X40640085Y-63500000D01*
X40518096Y-63722039D01*
X40558754Y-63856087D01*
X40678963Y-64110420D01*
X40754037Y-64211700D01*
X36616802Y-64211700D01*
X35394104Y-62989003D01*
X35370301Y-62959999D01*
X35254576Y-62865026D01*
X35122547Y-62794454D01*
X34979286Y-62750997D01*
X34936205Y-62746754D01*
X34895706Y-62670986D01*
X34710134Y-62444866D01*
X34484014Y-62259294D01*
X34429209Y-62230000D01*
X34484014Y-62200706D01*
X34710134Y-62015134D01*
X34895706Y-61789014D01*
X35033599Y-61531034D01*
X35118513Y-61251111D01*
X35147185Y-60960000D01*
X35118513Y-60668889D01*
X35033599Y-60388966D01*
X34895706Y-60130986D01*
X34710134Y-59904866D01*
X34484014Y-59719294D01*
X34429209Y-59690000D01*
X34484014Y-59660706D01*
X34710134Y-59475134D01*
X34895706Y-59249014D01*
X35033599Y-58991034D01*
X35118513Y-58711111D01*
X35147185Y-58420000D01*
X35118513Y-58128889D01*
X35033599Y-57848966D01*
X34895706Y-57590986D01*
X34710134Y-57364866D01*
X34484014Y-57179294D01*
X34429209Y-57150000D01*
X34484014Y-57120706D01*
X34710134Y-56935134D01*
X34895706Y-56709014D01*
X35033599Y-56451034D01*
X35118513Y-56171111D01*
X35147185Y-55880000D01*
X35118513Y-55588889D01*
X35033599Y-55308966D01*
X34895706Y-55050986D01*
X34710134Y-54824866D01*
X34484014Y-54639294D01*
X34429209Y-54610000D01*
X34484014Y-54580706D01*
X34710134Y-54395134D01*
X34895706Y-54169014D01*
X35033599Y-53911034D01*
X35118513Y-53631111D01*
X35147185Y-53340000D01*
X35118513Y-53048889D01*
X35033599Y-52768966D01*
X34895706Y-52510986D01*
X34710134Y-52284866D01*
X34484014Y-52099294D01*
X34429209Y-52070000D01*
X34484014Y-52040706D01*
X34710134Y-51855134D01*
X34895706Y-51629014D01*
X35033599Y-51371034D01*
X35118513Y-51091111D01*
X35147185Y-50800000D01*
X35118513Y-50508889D01*
X35033599Y-50228966D01*
X34895706Y-49970986D01*
X34710134Y-49744866D01*
X34484014Y-49559294D01*
X34429209Y-49530000D01*
X34484014Y-49500706D01*
X34710134Y-49315134D01*
X34895706Y-49089014D01*
X34932595Y-49020000D01*
X40781563Y-49020000D01*
X40890392Y-49152608D01*
X40890392Y-49152608D01*
G37*
X40890392Y-49152608D02*
X41108899Y-49331932D01*
X41241858Y-49403000D01*
X41108899Y-49474068D01*
X40890392Y-49653392D01*
X40711068Y-49871899D01*
X40577818Y-50121192D01*
X40495764Y-50391691D01*
X40468057Y-50673000D01*
X40495764Y-50954309D01*
X40577818Y-51224808D01*
X40711068Y-51474101D01*
X40890392Y-51692608D01*
X41108899Y-51871932D01*
X41241858Y-51943000D01*
X41108899Y-52014068D01*
X40890392Y-52193392D01*
X40711068Y-52411899D01*
X40577818Y-52661192D01*
X40495764Y-52931691D01*
X40468057Y-53213000D01*
X40495764Y-53494309D01*
X40577818Y-53764808D01*
X40711068Y-54014101D01*
X40890392Y-54232608D01*
X41108899Y-54411932D01*
X41241858Y-54483000D01*
X41108899Y-54554068D01*
X40890392Y-54733392D01*
X40711068Y-54951899D01*
X40577818Y-55201192D01*
X40495764Y-55471691D01*
X40468057Y-55753000D01*
X40495764Y-56034309D01*
X40577818Y-56304808D01*
X40711068Y-56554101D01*
X40890392Y-56772608D01*
X41108899Y-56951932D01*
X41241858Y-57023000D01*
X41108899Y-57094068D01*
X40890392Y-57273392D01*
X40711068Y-57491899D01*
X40577818Y-57741192D01*
X40495764Y-58011691D01*
X40468057Y-58293000D01*
X40495764Y-58574309D01*
X40577818Y-58844808D01*
X40711068Y-59094101D01*
X40890392Y-59312608D01*
X41108899Y-59491932D01*
X41241858Y-59563000D01*
X41108899Y-59634068D01*
X40890392Y-59813392D01*
X40711068Y-60031899D01*
X40577818Y-60281192D01*
X40495764Y-60551691D01*
X40468057Y-60833000D01*
X40495764Y-61114309D01*
X40577818Y-61384808D01*
X40711068Y-61634101D01*
X40890392Y-61852608D01*
X41108899Y-62031932D01*
X41246682Y-62105579D01*
X41054869Y-62220615D01*
X40846481Y-62409586D01*
X40678963Y-62635580D01*
X40558754Y-62889913D01*
X40518096Y-63023961D01*
X40640085Y-63246000D01*
X41783000Y-63246000D01*
X41783000Y-63226000D01*
X42037000Y-63226000D01*
X42037000Y-63246000D01*
X43179915Y-63246000D01*
X43301904Y-63023961D01*
X43261246Y-62889913D01*
X43141037Y-62635580D01*
X42973519Y-62409586D01*
X42765131Y-62220615D01*
X42573318Y-62105579D01*
X42711101Y-62031932D01*
X42929608Y-61852608D01*
X43108932Y-61634101D01*
X43242182Y-61384808D01*
X43324236Y-61114309D01*
X43351943Y-60833000D01*
X43324236Y-60551691D01*
X43242182Y-60281192D01*
X43108932Y-60031899D01*
X42929608Y-59813392D01*
X42711101Y-59634068D01*
X42578142Y-59563000D01*
X42711101Y-59491932D01*
X42857931Y-59371432D01*
X47698198Y-64211700D01*
X43065963Y-64211700D01*
X43141037Y-64110420D01*
X43261246Y-63856087D01*
X43301904Y-63722039D01*
X43179915Y-63500000D01*
X42037000Y-63500000D01*
X42037000Y-63520000D01*
X41783000Y-63520000D01*
X41783000Y-63500000D01*
X40640085Y-63500000D01*
X40518096Y-63722039D01*
X40558754Y-63856087D01*
X40678963Y-64110420D01*
X40754037Y-64211700D01*
X36616802Y-64211700D01*
X35394104Y-62989003D01*
X35370301Y-62959999D01*
X35254576Y-62865026D01*
X35122547Y-62794454D01*
X34979286Y-62750997D01*
X34936205Y-62746754D01*
X34895706Y-62670986D01*
X34710134Y-62444866D01*
X34484014Y-62259294D01*
X34429209Y-62230000D01*
X34484014Y-62200706D01*
X34710134Y-62015134D01*
X34895706Y-61789014D01*
X35033599Y-61531034D01*
X35118513Y-61251111D01*
X35147185Y-60960000D01*
X35118513Y-60668889D01*
X35033599Y-60388966D01*
X34895706Y-60130986D01*
X34710134Y-59904866D01*
X34484014Y-59719294D01*
X34429209Y-59690000D01*
X34484014Y-59660706D01*
X34710134Y-59475134D01*
X34895706Y-59249014D01*
X35033599Y-58991034D01*
X35118513Y-58711111D01*
X35147185Y-58420000D01*
X35118513Y-58128889D01*
X35033599Y-57848966D01*
X34895706Y-57590986D01*
X34710134Y-57364866D01*
X34484014Y-57179294D01*
X34429209Y-57150000D01*
X34484014Y-57120706D01*
X34710134Y-56935134D01*
X34895706Y-56709014D01*
X35033599Y-56451034D01*
X35118513Y-56171111D01*
X35147185Y-55880000D01*
X35118513Y-55588889D01*
X35033599Y-55308966D01*
X34895706Y-55050986D01*
X34710134Y-54824866D01*
X34484014Y-54639294D01*
X34429209Y-54610000D01*
X34484014Y-54580706D01*
X34710134Y-54395134D01*
X34895706Y-54169014D01*
X35033599Y-53911034D01*
X35118513Y-53631111D01*
X35147185Y-53340000D01*
X35118513Y-53048889D01*
X35033599Y-52768966D01*
X34895706Y-52510986D01*
X34710134Y-52284866D01*
X34484014Y-52099294D01*
X34429209Y-52070000D01*
X34484014Y-52040706D01*
X34710134Y-51855134D01*
X34895706Y-51629014D01*
X35033599Y-51371034D01*
X35118513Y-51091111D01*
X35147185Y-50800000D01*
X35118513Y-50508889D01*
X35033599Y-50228966D01*
X34895706Y-49970986D01*
X34710134Y-49744866D01*
X34484014Y-49559294D01*
X34429209Y-49530000D01*
X34484014Y-49500706D01*
X34710134Y-49315134D01*
X34895706Y-49089014D01*
X34932595Y-49020000D01*
X40781563Y-49020000D01*
X40890392Y-49152608D01*
G36*
X63418754Y-62889913D02*
G01*
X63378096Y-63023961D01*
X63500085Y-63246000D01*
X64643000Y-63246000D01*
X64643000Y-63226000D01*
X64897000Y-63226000D01*
X64897000Y-63246000D01*
X66039915Y-63246000D01*
X66161904Y-63023961D01*
X66121246Y-62889913D01*
X66108526Y-62863000D01*
X70699898Y-62863000D01*
X69351199Y-64211700D01*
X65925963Y-64211700D01*
X66001037Y-64110420D01*
X66121246Y-63856087D01*
X66161904Y-63722039D01*
X66039915Y-63500000D01*
X64897000Y-63500000D01*
X64897000Y-63520000D01*
X64643000Y-63520000D01*
X64643000Y-63500000D01*
X63500085Y-63500000D01*
X63378096Y-63722039D01*
X63418754Y-63856087D01*
X63538963Y-64110420D01*
X63614037Y-64211700D01*
X61276301Y-64211700D01*
X62625002Y-62863000D01*
X63431474Y-62863000D01*
X63418754Y-62889913D01*
X63418754Y-62889913D01*
G37*
X63418754Y-62889913D02*
X63378096Y-63023961D01*
X63500085Y-63246000D01*
X64643000Y-63246000D01*
X64643000Y-63226000D01*
X64897000Y-63226000D01*
X64897000Y-63246000D01*
X66039915Y-63246000D01*
X66161904Y-63023961D01*
X66121246Y-62889913D01*
X66108526Y-62863000D01*
X70699898Y-62863000D01*
X69351199Y-64211700D01*
X65925963Y-64211700D01*
X66001037Y-64110420D01*
X66121246Y-63856087D01*
X66161904Y-63722039D01*
X66039915Y-63500000D01*
X64897000Y-63500000D01*
X64897000Y-63520000D01*
X64643000Y-63520000D01*
X64643000Y-63500000D01*
X63500085Y-63500000D01*
X63378096Y-63722039D01*
X63418754Y-63856087D01*
X63538963Y-64110420D01*
X63614037Y-64211700D01*
X61276301Y-64211700D01*
X62625002Y-62863000D01*
X63431474Y-62863000D01*
X63418754Y-62889913D01*
M02*
