M48
;DRILL file {KiCad 5.0.2+dfsg1-1} date ma 29 jul 2019 21:31:33 CEST
;FORMAT={-:-/ absolute / inch / decimal}
FMAT,2
INCH,TZ
T1C0.0157
T2C0.0315
T3C0.0360
T4C0.0394
%
G90
G05
T1
X1.4Y-1.55
X1.575Y-1.9443
X1.65Y-1.465
X1.725Y-2.0443
X1.75Y-2.525
X1.825Y-2.4443
X1.875Y-2.095
X1.875Y-2.1443
X2.Y-2.575
X2.015Y-1.995
X2.015Y-2.095
X2.05Y-1.53
X2.05Y-1.6
X2.05Y-1.795
X2.05Y-2.3443
X2.065Y-1.885
X2.15Y-1.53
X2.15Y-1.6
X2.15Y-1.995
X2.25Y-1.53
X2.25Y-1.6
X2.25Y-2.095
X2.25Y-2.5
X2.25Y-2.65
X2.35Y-1.53
X2.35Y-1.6
X2.45Y-1.53
X2.45Y-1.6
X2.63Y-1.56
X2.63Y-1.63
X2.63Y-1.78
X2.68Y-1.56
X2.68Y-1.63
X2.73Y-1.56
X2.75Y-1.78
T2
X1.95Y-0.95
X2.05Y-0.95
X2.15Y-0.95
X2.25Y-0.95
X2.35Y-0.95
X2.45Y-0.95
X2.55Y-0.95
X2.65Y-0.95
X2.75Y-0.95
X1.65Y-1.595
X1.65Y-1.695
X1.65Y-1.795
X1.65Y-1.895
X1.65Y-1.995
X1.65Y-2.095
X1.65Y-2.195
X1.65Y-2.295
X1.65Y-2.395
X1.65Y-2.495
X1.95Y-1.595
X1.95Y-1.695
X1.95Y-1.795
X1.95Y-1.895
X1.95Y-1.995
X1.95Y-2.095
X1.95Y-2.195
X1.95Y-2.295
X1.95Y-2.395
X1.95Y-2.495
X2.55Y-1.595
X2.55Y-1.695
X2.55Y-1.795
X2.55Y-1.895
X2.55Y-1.995
X2.55Y-2.095
X2.55Y-2.195
X2.55Y-2.295
X2.55Y-2.395
X2.55Y-2.495
X2.85Y-1.595
X2.85Y-1.695
X2.85Y-1.795
X2.85Y-1.895
X2.85Y-1.995
X2.85Y-2.095
X2.85Y-2.195
X2.85Y-2.295
X2.85Y-2.395
X2.85Y-2.495
T3
X1.95Y-1.1
X1.95Y-1.4
X2.05Y-1.1
X2.05Y-1.4
X2.15Y-1.1
X2.15Y-1.4
X2.25Y-1.1
X2.25Y-1.4
X2.35Y-1.1
X2.35Y-1.4
X2.45Y-1.1
X2.45Y-1.4
X2.55Y-1.1
X2.55Y-1.4
X2.65Y-1.1
X2.65Y-1.4
X2.75Y-1.1
X2.75Y-1.4
X2.85Y-1.1
X2.85Y-1.4
T4
X3.025Y-2.4
X3.025Y-2.5
X1.325Y-1.3
X1.325Y-1.4
X1.325Y-1.5
X1.325Y-1.6
X1.325Y-1.7
X1.325Y-1.8
X1.325Y-1.9
X1.325Y-2.
X1.325Y-2.1
X1.325Y-2.2
X1.325Y-2.3
X1.325Y-2.4
X1.325Y-2.5
X3.025Y-0.95
X3.025Y-1.05
T0
M30
