G04 #@! TF.GenerationSoftware,KiCad,Pcbnew,(5.1.2)-2*
G04 #@! TF.CreationDate,2019-08-11T20:12:25+02:00*
G04 #@! TF.ProjectId,Register,52656769-7374-4657-922e-6b696361645f,rev?*
G04 #@! TF.SameCoordinates,Original*
G04 #@! TF.FileFunction,Copper,L1,Top*
G04 #@! TF.FilePolarity,Positive*
%FSLAX46Y46*%
G04 Gerber Fmt 4.6, Leading zero omitted, Abs format (unit mm)*
G04 Created by KiCad (PCBNEW (5.1.2)-2) date 2019-08-11 20:12:25*
%MOMM*%
%LPD*%
G04 APERTURE LIST*
%ADD10O,1.700000X1.700000*%
%ADD11R,1.700000X1.700000*%
%ADD12R,2.032000X2.032000*%
%ADD13C,2.032000*%
%ADD14O,1.600000X1.600000*%
%ADD15R,1.600000X1.600000*%
%ADD16C,0.350000*%
%ADD17C,0.250000*%
G04 APERTURE END LIST*
D10*
X76835000Y-27940000D03*
D11*
X76835000Y-25400000D03*
X76835000Y-60960000D03*
D10*
X76835000Y-63500000D03*
D11*
X33655000Y-33020000D03*
D10*
X33655000Y-35560000D03*
X33655000Y-38100000D03*
X33655000Y-40640000D03*
X33655000Y-43180000D03*
X33655000Y-45720000D03*
X33655000Y-48260000D03*
X33655000Y-50800000D03*
X33655000Y-53340000D03*
X33655000Y-55880000D03*
X33655000Y-58420000D03*
X33655000Y-60960000D03*
X33655000Y-63500000D03*
D12*
X49530000Y-35560000D03*
D13*
X52070000Y-35560000D03*
X54610000Y-35560000D03*
X57150000Y-35560000D03*
X67310000Y-27940000D03*
X64770000Y-27940000D03*
X62230000Y-27940000D03*
X59690000Y-27940000D03*
X59690000Y-35560000D03*
X62230000Y-35560000D03*
X64770000Y-35560000D03*
X67310000Y-35560000D03*
X69850000Y-27940000D03*
X72390000Y-27940000D03*
X72390000Y-35560000D03*
X69850000Y-35560000D03*
X57150000Y-27940000D03*
X54610000Y-27940000D03*
X52070000Y-27940000D03*
X49530000Y-27940000D03*
D14*
X72390000Y-40513000D03*
X64770000Y-63373000D03*
X72390000Y-43053000D03*
X64770000Y-60833000D03*
X72390000Y-45593000D03*
X64770000Y-58293000D03*
X72390000Y-48133000D03*
X64770000Y-55753000D03*
X72390000Y-50673000D03*
X64770000Y-53213000D03*
X72390000Y-53213000D03*
X64770000Y-50673000D03*
X72390000Y-55753000D03*
X64770000Y-48133000D03*
X72390000Y-58293000D03*
X64770000Y-45593000D03*
X72390000Y-60833000D03*
X64770000Y-43053000D03*
X72390000Y-63373000D03*
D15*
X64770000Y-40513000D03*
X41910000Y-40513000D03*
D14*
X49530000Y-63373000D03*
X41910000Y-43053000D03*
X49530000Y-60833000D03*
X41910000Y-45593000D03*
X49530000Y-58293000D03*
X41910000Y-48133000D03*
X49530000Y-55753000D03*
X41910000Y-50673000D03*
X49530000Y-53213000D03*
X41910000Y-53213000D03*
X49530000Y-50673000D03*
X41910000Y-55753000D03*
X49530000Y-48133000D03*
X41910000Y-58293000D03*
X49530000Y-45593000D03*
X41910000Y-60833000D03*
X49530000Y-43053000D03*
X41910000Y-63373000D03*
X49530000Y-40513000D03*
D15*
X49530000Y-24130000D03*
D14*
X52070000Y-24130000D03*
X54610000Y-24130000D03*
X57150000Y-24130000D03*
X59690000Y-24130000D03*
X62230000Y-24130000D03*
X64770000Y-24130000D03*
X67310000Y-24130000D03*
X69850000Y-24130000D03*
D16*
X43085300Y-63373000D02*
X44275900Y-62182400D01*
X44275900Y-62182400D02*
X62404100Y-62182400D01*
X62404100Y-62182400D02*
X63594700Y-63373000D01*
X64770000Y-63373000D02*
X63594700Y-63373000D01*
X41910000Y-63373000D02*
X43085300Y-63373000D01*
D17*
X41783000Y-40640000D02*
X41910000Y-40513000D01*
X33655000Y-40640000D02*
X41783000Y-40640000D01*
X64770000Y-43053000D02*
X63644700Y-43053000D01*
X41910000Y-43053000D02*
X43035300Y-43053000D01*
X43035300Y-43053000D02*
X44160600Y-41927700D01*
X44160600Y-41927700D02*
X62519400Y-41927700D01*
X62519400Y-41927700D02*
X63644700Y-43053000D01*
X64770000Y-53213000D02*
X63644700Y-53213000D01*
X49530000Y-60833000D02*
X56024700Y-60833000D01*
X56024700Y-60833000D02*
X63644700Y-53213000D01*
X72390000Y-45593000D02*
X71264700Y-45593000D01*
X41910000Y-45593000D02*
X43035300Y-45593000D01*
X43035300Y-45593000D02*
X44160600Y-44467700D01*
X44160600Y-44467700D02*
X70139400Y-44467700D01*
X70139400Y-44467700D02*
X71264700Y-45593000D01*
X33655000Y-55880000D02*
X34830300Y-55880000D01*
X49530000Y-58293000D02*
X48404700Y-58293000D01*
X48404700Y-58293000D02*
X47270800Y-59426900D01*
X47270800Y-59426900D02*
X38377200Y-59426900D01*
X38377200Y-59426900D02*
X34830300Y-55880000D01*
X48404700Y-55753000D02*
X49530000Y-55753000D01*
X47208600Y-56949100D02*
X48404700Y-55753000D01*
X33655000Y-58420000D02*
X32479700Y-57244700D01*
X32479700Y-57244700D02*
X32479700Y-52819300D01*
X32479700Y-52819300D02*
X33135300Y-52163700D01*
X35999200Y-52163700D02*
X40784600Y-56949100D01*
X33135300Y-52163700D02*
X35999200Y-52163700D01*
X40784600Y-56949100D02*
X47208600Y-56949100D01*
X41910000Y-50673000D02*
X43035300Y-50673000D01*
X64770000Y-45593000D02*
X63644700Y-45593000D01*
X43035300Y-50673000D02*
X46990000Y-46718300D01*
X46990000Y-46718300D02*
X62519400Y-46718300D01*
X62519400Y-46718300D02*
X63644700Y-45593000D01*
X64770000Y-48133000D02*
X63644700Y-48133000D01*
X41910000Y-53213000D02*
X45294000Y-53213000D01*
X45294000Y-53213000D02*
X49248700Y-49258300D01*
X49248700Y-49258300D02*
X62519400Y-49258300D01*
X62519400Y-49258300D02*
X63644700Y-48133000D01*
X41910000Y-55753000D02*
X43035300Y-55753000D01*
X71264700Y-50673000D02*
X70139400Y-49547700D01*
X70139400Y-49547700D02*
X63360000Y-49547700D01*
X63360000Y-49547700D02*
X61045100Y-51862600D01*
X61045100Y-51862600D02*
X47646300Y-51862600D01*
X47646300Y-51862600D02*
X43755900Y-55753000D01*
X43755900Y-55753000D02*
X43035300Y-55753000D01*
X72390000Y-50673000D02*
X71264700Y-50673000D01*
X41723600Y-55753000D02*
X41910000Y-55753000D01*
X41723600Y-55753000D02*
X40784700Y-55753000D01*
X40784700Y-55753000D02*
X35831700Y-50800000D01*
X35831700Y-50800000D02*
X33655000Y-50800000D01*
X48404700Y-48133000D02*
X49530000Y-48133000D01*
X33655000Y-60960000D02*
X32004700Y-59309700D01*
X32004700Y-59309700D02*
X32004700Y-50770200D01*
X44688800Y-51848900D02*
X48404700Y-48133000D01*
X32004700Y-50770200D02*
X33168900Y-49606000D01*
X33168900Y-49606000D02*
X35995500Y-49606000D01*
X35995500Y-49606000D02*
X38238400Y-51848900D01*
X38238400Y-51848900D02*
X44688800Y-51848900D01*
X62234700Y-48133000D02*
X49530000Y-48133000D01*
X63361200Y-47006500D02*
X62234700Y-48133000D01*
X72869900Y-47006500D02*
X63361200Y-47006500D01*
X73999100Y-48135700D02*
X72869900Y-47006500D01*
X73999100Y-59223900D02*
X73999100Y-48135700D01*
X72390000Y-60833000D02*
X73999100Y-59223900D01*
X41910000Y-58293000D02*
X39783300Y-58293000D01*
X39783300Y-58293000D02*
X34830300Y-53340000D01*
X41910000Y-58293000D02*
X47729800Y-58293000D01*
X47729800Y-58293000D02*
X48999800Y-57023000D01*
X48999800Y-57023000D02*
X58150600Y-57023000D01*
X58150600Y-57023000D02*
X63096900Y-52076700D01*
X63096900Y-52076700D02*
X65723400Y-52076700D01*
X65723400Y-52076700D02*
X66859700Y-53213000D01*
X66859700Y-53213000D02*
X72390000Y-53213000D01*
X33655000Y-53340000D02*
X34830300Y-53340000D01*
X45715300Y-45593000D02*
X49530000Y-45593000D01*
X44318300Y-46990000D02*
X45715300Y-45593000D01*
X33217400Y-46990000D02*
X44318300Y-46990000D01*
X31554300Y-48653100D02*
X33217400Y-46990000D01*
X31554300Y-61399300D02*
X31554300Y-48653100D01*
X33655000Y-63500000D02*
X31554300Y-61399300D01*
X67020600Y-51798300D02*
X65895300Y-50673000D01*
X72711700Y-54483000D02*
X73542700Y-53652000D01*
X71998000Y-54483000D02*
X72711700Y-54483000D01*
X73542700Y-52767800D02*
X72573200Y-51798300D01*
X68580000Y-57901000D02*
X71998000Y-54483000D01*
X73542700Y-53652000D02*
X73542700Y-52767800D01*
X41910000Y-60833000D02*
X40749900Y-61993100D01*
X72573200Y-51798300D02*
X67020600Y-51798300D01*
X40749900Y-61993100D02*
X40749900Y-63842100D01*
X65895300Y-50673000D02*
X64770000Y-50673000D01*
X40749900Y-63842100D02*
X41410300Y-64502500D01*
X65232700Y-64502500D02*
X68580000Y-61155200D01*
X41410300Y-64502500D02*
X65232700Y-64502500D01*
X68580000Y-61155200D02*
X68580000Y-57901000D01*
D16*
X49530000Y-40513000D02*
X48354700Y-40513000D01*
X48354700Y-40513000D02*
X43401700Y-35560000D01*
X43401700Y-35560000D02*
X33655000Y-35560000D01*
X64770000Y-40513000D02*
X49530000Y-40513000D01*
X64770000Y-40513000D02*
X72390000Y-40513000D01*
D17*
X32479700Y-42004700D02*
X33655000Y-43180000D01*
X33161800Y-34382500D02*
X32479700Y-35064600D01*
X73532000Y-41911000D02*
X73532000Y-39941500D01*
X73532000Y-39941500D02*
X71998600Y-38408100D01*
X71998600Y-38408100D02*
X48404600Y-38408100D01*
X32479700Y-35064600D02*
X32479700Y-42004700D01*
X48404600Y-38408100D02*
X44379000Y-34382500D01*
X72390000Y-43053000D02*
X73532000Y-41911000D01*
X44379000Y-34382500D02*
X33161800Y-34382500D01*
M02*
