G04 #@! TF.GenerationSoftware,KiCad,Pcbnew,5.0.2+dfsg1-1*
G04 #@! TF.CreationDate,2019-07-29T21:31:30+02:00*
G04 #@! TF.ProjectId,Register,52656769-7374-4657-922e-6b696361645f,rev?*
G04 #@! TF.SameCoordinates,Original*
G04 #@! TF.FileFunction,Soldermask,Top*
G04 #@! TF.FilePolarity,Negative*
%FSLAX46Y46*%
G04 Gerber Fmt 4.6, Leading zero omitted, Abs format (unit mm)*
G04 Created by KiCad (PCBNEW 5.0.2+dfsg1-1) date ma 29 jul 2019 21:31:30 CEST*
%MOMM*%
%LPD*%
G01*
G04 APERTURE LIST*
%ADD10C,0.100000*%
G04 APERTURE END LIST*
D10*
G36*
X76945442Y-62605518D02*
X77011627Y-62612037D01*
X77124853Y-62646384D01*
X77181467Y-62663557D01*
X77320087Y-62737652D01*
X77337991Y-62747222D01*
X77363724Y-62768341D01*
X77475186Y-62859814D01*
X77558448Y-62961271D01*
X77587778Y-62997009D01*
X77587779Y-62997011D01*
X77671443Y-63153533D01*
X77671443Y-63153534D01*
X77722963Y-63323373D01*
X77740359Y-63500000D01*
X77722963Y-63676627D01*
X77688616Y-63789853D01*
X77671443Y-63846467D01*
X77601318Y-63977659D01*
X77587778Y-64002991D01*
X77558448Y-64038729D01*
X77475186Y-64140186D01*
X77388060Y-64211687D01*
X77337991Y-64252778D01*
X77337989Y-64252779D01*
X77181467Y-64336443D01*
X77124853Y-64353616D01*
X77011627Y-64387963D01*
X76945442Y-64394482D01*
X76879260Y-64401000D01*
X76790740Y-64401000D01*
X76724558Y-64394482D01*
X76658373Y-64387963D01*
X76545147Y-64353616D01*
X76488533Y-64336443D01*
X76332011Y-64252779D01*
X76332009Y-64252778D01*
X76281940Y-64211687D01*
X76194814Y-64140186D01*
X76111552Y-64038729D01*
X76082222Y-64002991D01*
X76068682Y-63977659D01*
X75998557Y-63846467D01*
X75981384Y-63789853D01*
X75947037Y-63676627D01*
X75929641Y-63500000D01*
X75947037Y-63323373D01*
X75998557Y-63153534D01*
X75998557Y-63153533D01*
X76082221Y-62997011D01*
X76082222Y-62997009D01*
X76111552Y-62961271D01*
X76194814Y-62859814D01*
X76306276Y-62768341D01*
X76332009Y-62747222D01*
X76349913Y-62737652D01*
X76488533Y-62663557D01*
X76545147Y-62646384D01*
X76658373Y-62612037D01*
X76724558Y-62605518D01*
X76790740Y-62599000D01*
X76879260Y-62599000D01*
X76945442Y-62605518D01*
X76945442Y-62605518D01*
G37*
G36*
X33765442Y-62605518D02*
X33831627Y-62612037D01*
X33944853Y-62646384D01*
X34001467Y-62663557D01*
X34140087Y-62737652D01*
X34157991Y-62747222D01*
X34183724Y-62768341D01*
X34295186Y-62859814D01*
X34378448Y-62961271D01*
X34407778Y-62997009D01*
X34407779Y-62997011D01*
X34491443Y-63153533D01*
X34491443Y-63153534D01*
X34542963Y-63323373D01*
X34560359Y-63500000D01*
X34542963Y-63676627D01*
X34508616Y-63789853D01*
X34491443Y-63846467D01*
X34421318Y-63977659D01*
X34407778Y-64002991D01*
X34378448Y-64038729D01*
X34295186Y-64140186D01*
X34208060Y-64211687D01*
X34157991Y-64252778D01*
X34157989Y-64252779D01*
X34001467Y-64336443D01*
X33944853Y-64353616D01*
X33831627Y-64387963D01*
X33765442Y-64394482D01*
X33699260Y-64401000D01*
X33610740Y-64401000D01*
X33544558Y-64394482D01*
X33478373Y-64387963D01*
X33365147Y-64353616D01*
X33308533Y-64336443D01*
X33152011Y-64252779D01*
X33152009Y-64252778D01*
X33101940Y-64211687D01*
X33014814Y-64140186D01*
X32931552Y-64038729D01*
X32902222Y-64002991D01*
X32888682Y-63977659D01*
X32818557Y-63846467D01*
X32801384Y-63789853D01*
X32767037Y-63676627D01*
X32749641Y-63500000D01*
X32767037Y-63323373D01*
X32818557Y-63153534D01*
X32818557Y-63153533D01*
X32902221Y-62997011D01*
X32902222Y-62997009D01*
X32931552Y-62961271D01*
X33014814Y-62859814D01*
X33126276Y-62768341D01*
X33152009Y-62747222D01*
X33169913Y-62737652D01*
X33308533Y-62663557D01*
X33365147Y-62646384D01*
X33478373Y-62612037D01*
X33544558Y-62605518D01*
X33610740Y-62599000D01*
X33699260Y-62599000D01*
X33765442Y-62605518D01*
X33765442Y-62605518D01*
G37*
G36*
X64936821Y-62534313D02*
X64936824Y-62534314D01*
X64936825Y-62534314D01*
X65097239Y-62582975D01*
X65097241Y-62582976D01*
X65097244Y-62582977D01*
X65245078Y-62661995D01*
X65374659Y-62768341D01*
X65481005Y-62897922D01*
X65560023Y-63045756D01*
X65560024Y-63045759D01*
X65560025Y-63045761D01*
X65608686Y-63206175D01*
X65608687Y-63206179D01*
X65625117Y-63373000D01*
X65608687Y-63539821D01*
X65608686Y-63539824D01*
X65608686Y-63539825D01*
X65567188Y-63676627D01*
X65560023Y-63700244D01*
X65481005Y-63848078D01*
X65374659Y-63977659D01*
X65245078Y-64084005D01*
X65097244Y-64163023D01*
X65097241Y-64163024D01*
X65097239Y-64163025D01*
X64936825Y-64211686D01*
X64936824Y-64211686D01*
X64936821Y-64211687D01*
X64811804Y-64224000D01*
X64728196Y-64224000D01*
X64603179Y-64211687D01*
X64603176Y-64211686D01*
X64603175Y-64211686D01*
X64442761Y-64163025D01*
X64442759Y-64163024D01*
X64442756Y-64163023D01*
X64294922Y-64084005D01*
X64165341Y-63977659D01*
X64058995Y-63848078D01*
X63979977Y-63700244D01*
X63972813Y-63676627D01*
X63931314Y-63539825D01*
X63931314Y-63539824D01*
X63931313Y-63539821D01*
X63914883Y-63373000D01*
X63931313Y-63206179D01*
X63931314Y-63206175D01*
X63979975Y-63045761D01*
X63979976Y-63045759D01*
X63979977Y-63045756D01*
X64058995Y-62897922D01*
X64165341Y-62768341D01*
X64294922Y-62661995D01*
X64442756Y-62582977D01*
X64442759Y-62582976D01*
X64442761Y-62582975D01*
X64603175Y-62534314D01*
X64603176Y-62534314D01*
X64603179Y-62534313D01*
X64728196Y-62522000D01*
X64811804Y-62522000D01*
X64936821Y-62534313D01*
X64936821Y-62534313D01*
G37*
G36*
X72556821Y-62534313D02*
X72556824Y-62534314D01*
X72556825Y-62534314D01*
X72717239Y-62582975D01*
X72717241Y-62582976D01*
X72717244Y-62582977D01*
X72865078Y-62661995D01*
X72994659Y-62768341D01*
X73101005Y-62897922D01*
X73180023Y-63045756D01*
X73180024Y-63045759D01*
X73180025Y-63045761D01*
X73228686Y-63206175D01*
X73228687Y-63206179D01*
X73245117Y-63373000D01*
X73228687Y-63539821D01*
X73228686Y-63539824D01*
X73228686Y-63539825D01*
X73187188Y-63676627D01*
X73180023Y-63700244D01*
X73101005Y-63848078D01*
X72994659Y-63977659D01*
X72865078Y-64084005D01*
X72717244Y-64163023D01*
X72717241Y-64163024D01*
X72717239Y-64163025D01*
X72556825Y-64211686D01*
X72556824Y-64211686D01*
X72556821Y-64211687D01*
X72431804Y-64224000D01*
X72348196Y-64224000D01*
X72223179Y-64211687D01*
X72223176Y-64211686D01*
X72223175Y-64211686D01*
X72062761Y-64163025D01*
X72062759Y-64163024D01*
X72062756Y-64163023D01*
X71914922Y-64084005D01*
X71785341Y-63977659D01*
X71678995Y-63848078D01*
X71599977Y-63700244D01*
X71592813Y-63676627D01*
X71551314Y-63539825D01*
X71551314Y-63539824D01*
X71551313Y-63539821D01*
X71534883Y-63373000D01*
X71551313Y-63206179D01*
X71551314Y-63206175D01*
X71599975Y-63045761D01*
X71599976Y-63045759D01*
X71599977Y-63045756D01*
X71678995Y-62897922D01*
X71785341Y-62768341D01*
X71914922Y-62661995D01*
X72062756Y-62582977D01*
X72062759Y-62582976D01*
X72062761Y-62582975D01*
X72223175Y-62534314D01*
X72223176Y-62534314D01*
X72223179Y-62534313D01*
X72348196Y-62522000D01*
X72431804Y-62522000D01*
X72556821Y-62534313D01*
X72556821Y-62534313D01*
G37*
G36*
X49696821Y-62534313D02*
X49696824Y-62534314D01*
X49696825Y-62534314D01*
X49857239Y-62582975D01*
X49857241Y-62582976D01*
X49857244Y-62582977D01*
X50005078Y-62661995D01*
X50134659Y-62768341D01*
X50241005Y-62897922D01*
X50320023Y-63045756D01*
X50320024Y-63045759D01*
X50320025Y-63045761D01*
X50368686Y-63206175D01*
X50368687Y-63206179D01*
X50385117Y-63373000D01*
X50368687Y-63539821D01*
X50368686Y-63539824D01*
X50368686Y-63539825D01*
X50327188Y-63676627D01*
X50320023Y-63700244D01*
X50241005Y-63848078D01*
X50134659Y-63977659D01*
X50005078Y-64084005D01*
X49857244Y-64163023D01*
X49857241Y-64163024D01*
X49857239Y-64163025D01*
X49696825Y-64211686D01*
X49696824Y-64211686D01*
X49696821Y-64211687D01*
X49571804Y-64224000D01*
X49488196Y-64224000D01*
X49363179Y-64211687D01*
X49363176Y-64211686D01*
X49363175Y-64211686D01*
X49202761Y-64163025D01*
X49202759Y-64163024D01*
X49202756Y-64163023D01*
X49054922Y-64084005D01*
X48925341Y-63977659D01*
X48818995Y-63848078D01*
X48739977Y-63700244D01*
X48732813Y-63676627D01*
X48691314Y-63539825D01*
X48691314Y-63539824D01*
X48691313Y-63539821D01*
X48674883Y-63373000D01*
X48691313Y-63206179D01*
X48691314Y-63206175D01*
X48739975Y-63045761D01*
X48739976Y-63045759D01*
X48739977Y-63045756D01*
X48818995Y-62897922D01*
X48925341Y-62768341D01*
X49054922Y-62661995D01*
X49202756Y-62582977D01*
X49202759Y-62582976D01*
X49202761Y-62582975D01*
X49363175Y-62534314D01*
X49363176Y-62534314D01*
X49363179Y-62534313D01*
X49488196Y-62522000D01*
X49571804Y-62522000D01*
X49696821Y-62534313D01*
X49696821Y-62534313D01*
G37*
G36*
X42076821Y-62534313D02*
X42076824Y-62534314D01*
X42076825Y-62534314D01*
X42237239Y-62582975D01*
X42237241Y-62582976D01*
X42237244Y-62582977D01*
X42385078Y-62661995D01*
X42514659Y-62768341D01*
X42621005Y-62897922D01*
X42700023Y-63045756D01*
X42700024Y-63045759D01*
X42700025Y-63045761D01*
X42748686Y-63206175D01*
X42748687Y-63206179D01*
X42765117Y-63373000D01*
X42748687Y-63539821D01*
X42748686Y-63539824D01*
X42748686Y-63539825D01*
X42707188Y-63676627D01*
X42700023Y-63700244D01*
X42621005Y-63848078D01*
X42514659Y-63977659D01*
X42385078Y-64084005D01*
X42237244Y-64163023D01*
X42237241Y-64163024D01*
X42237239Y-64163025D01*
X42076825Y-64211686D01*
X42076824Y-64211686D01*
X42076821Y-64211687D01*
X41951804Y-64224000D01*
X41868196Y-64224000D01*
X41743179Y-64211687D01*
X41743176Y-64211686D01*
X41743175Y-64211686D01*
X41582761Y-64163025D01*
X41582759Y-64163024D01*
X41582756Y-64163023D01*
X41434922Y-64084005D01*
X41305341Y-63977659D01*
X41198995Y-63848078D01*
X41119977Y-63700244D01*
X41112813Y-63676627D01*
X41071314Y-63539825D01*
X41071314Y-63539824D01*
X41071313Y-63539821D01*
X41054883Y-63373000D01*
X41071313Y-63206179D01*
X41071314Y-63206175D01*
X41119975Y-63045761D01*
X41119976Y-63045759D01*
X41119977Y-63045756D01*
X41198995Y-62897922D01*
X41305341Y-62768341D01*
X41434922Y-62661995D01*
X41582756Y-62582977D01*
X41582759Y-62582976D01*
X41582761Y-62582975D01*
X41743175Y-62534314D01*
X41743176Y-62534314D01*
X41743179Y-62534313D01*
X41868196Y-62522000D01*
X41951804Y-62522000D01*
X42076821Y-62534313D01*
X42076821Y-62534313D01*
G37*
G36*
X77736000Y-61861000D02*
X75934000Y-61861000D01*
X75934000Y-60059000D01*
X77736000Y-60059000D01*
X77736000Y-61861000D01*
X77736000Y-61861000D01*
G37*
G36*
X33765442Y-60065518D02*
X33831627Y-60072037D01*
X33944853Y-60106384D01*
X34001467Y-60123557D01*
X34140087Y-60197652D01*
X34157991Y-60207222D01*
X34183724Y-60228341D01*
X34295186Y-60319814D01*
X34378448Y-60421271D01*
X34407778Y-60457009D01*
X34407779Y-60457011D01*
X34491443Y-60613533D01*
X34491443Y-60613534D01*
X34542963Y-60783373D01*
X34560359Y-60960000D01*
X34542963Y-61136627D01*
X34508616Y-61249853D01*
X34491443Y-61306467D01*
X34421318Y-61437659D01*
X34407778Y-61462991D01*
X34378448Y-61498729D01*
X34295186Y-61600186D01*
X34208060Y-61671687D01*
X34157991Y-61712778D01*
X34157989Y-61712779D01*
X34001467Y-61796443D01*
X33944853Y-61813616D01*
X33831627Y-61847963D01*
X33765443Y-61854481D01*
X33699260Y-61861000D01*
X33610740Y-61861000D01*
X33544557Y-61854481D01*
X33478373Y-61847963D01*
X33365147Y-61813616D01*
X33308533Y-61796443D01*
X33152011Y-61712779D01*
X33152009Y-61712778D01*
X33101940Y-61671687D01*
X33014814Y-61600186D01*
X32931552Y-61498729D01*
X32902222Y-61462991D01*
X32888682Y-61437659D01*
X32818557Y-61306467D01*
X32801384Y-61249853D01*
X32767037Y-61136627D01*
X32749641Y-60960000D01*
X32767037Y-60783373D01*
X32818557Y-60613534D01*
X32818557Y-60613533D01*
X32902221Y-60457011D01*
X32902222Y-60457009D01*
X32931552Y-60421271D01*
X33014814Y-60319814D01*
X33126276Y-60228341D01*
X33152009Y-60207222D01*
X33169913Y-60197652D01*
X33308533Y-60123557D01*
X33365147Y-60106384D01*
X33478373Y-60072037D01*
X33544558Y-60065518D01*
X33610740Y-60059000D01*
X33699260Y-60059000D01*
X33765442Y-60065518D01*
X33765442Y-60065518D01*
G37*
G36*
X64936821Y-59994313D02*
X64936824Y-59994314D01*
X64936825Y-59994314D01*
X65097239Y-60042975D01*
X65097241Y-60042976D01*
X65097244Y-60042977D01*
X65245078Y-60121995D01*
X65374659Y-60228341D01*
X65481005Y-60357922D01*
X65560023Y-60505756D01*
X65560024Y-60505759D01*
X65560025Y-60505761D01*
X65608686Y-60666175D01*
X65608687Y-60666179D01*
X65625117Y-60833000D01*
X65608687Y-60999821D01*
X65608686Y-60999824D01*
X65608686Y-60999825D01*
X65567188Y-61136627D01*
X65560023Y-61160244D01*
X65481005Y-61308078D01*
X65374659Y-61437659D01*
X65245078Y-61544005D01*
X65097244Y-61623023D01*
X65097241Y-61623024D01*
X65097239Y-61623025D01*
X64936825Y-61671686D01*
X64936824Y-61671686D01*
X64936821Y-61671687D01*
X64811804Y-61684000D01*
X64728196Y-61684000D01*
X64603179Y-61671687D01*
X64603176Y-61671686D01*
X64603175Y-61671686D01*
X64442761Y-61623025D01*
X64442759Y-61623024D01*
X64442756Y-61623023D01*
X64294922Y-61544005D01*
X64165341Y-61437659D01*
X64058995Y-61308078D01*
X63979977Y-61160244D01*
X63972813Y-61136627D01*
X63931314Y-60999825D01*
X63931314Y-60999824D01*
X63931313Y-60999821D01*
X63914883Y-60833000D01*
X63931313Y-60666179D01*
X63931314Y-60666175D01*
X63979975Y-60505761D01*
X63979976Y-60505759D01*
X63979977Y-60505756D01*
X64058995Y-60357922D01*
X64165341Y-60228341D01*
X64294922Y-60121995D01*
X64442756Y-60042977D01*
X64442759Y-60042976D01*
X64442761Y-60042975D01*
X64603175Y-59994314D01*
X64603176Y-59994314D01*
X64603179Y-59994313D01*
X64728196Y-59982000D01*
X64811804Y-59982000D01*
X64936821Y-59994313D01*
X64936821Y-59994313D01*
G37*
G36*
X42076821Y-59994313D02*
X42076824Y-59994314D01*
X42076825Y-59994314D01*
X42237239Y-60042975D01*
X42237241Y-60042976D01*
X42237244Y-60042977D01*
X42385078Y-60121995D01*
X42514659Y-60228341D01*
X42621005Y-60357922D01*
X42700023Y-60505756D01*
X42700024Y-60505759D01*
X42700025Y-60505761D01*
X42748686Y-60666175D01*
X42748687Y-60666179D01*
X42765117Y-60833000D01*
X42748687Y-60999821D01*
X42748686Y-60999824D01*
X42748686Y-60999825D01*
X42707188Y-61136627D01*
X42700023Y-61160244D01*
X42621005Y-61308078D01*
X42514659Y-61437659D01*
X42385078Y-61544005D01*
X42237244Y-61623023D01*
X42237241Y-61623024D01*
X42237239Y-61623025D01*
X42076825Y-61671686D01*
X42076824Y-61671686D01*
X42076821Y-61671687D01*
X41951804Y-61684000D01*
X41868196Y-61684000D01*
X41743179Y-61671687D01*
X41743176Y-61671686D01*
X41743175Y-61671686D01*
X41582761Y-61623025D01*
X41582759Y-61623024D01*
X41582756Y-61623023D01*
X41434922Y-61544005D01*
X41305341Y-61437659D01*
X41198995Y-61308078D01*
X41119977Y-61160244D01*
X41112813Y-61136627D01*
X41071314Y-60999825D01*
X41071314Y-60999824D01*
X41071313Y-60999821D01*
X41054883Y-60833000D01*
X41071313Y-60666179D01*
X41071314Y-60666175D01*
X41119975Y-60505761D01*
X41119976Y-60505759D01*
X41119977Y-60505756D01*
X41198995Y-60357922D01*
X41305341Y-60228341D01*
X41434922Y-60121995D01*
X41582756Y-60042977D01*
X41582759Y-60042976D01*
X41582761Y-60042975D01*
X41743175Y-59994314D01*
X41743176Y-59994314D01*
X41743179Y-59994313D01*
X41868196Y-59982000D01*
X41951804Y-59982000D01*
X42076821Y-59994313D01*
X42076821Y-59994313D01*
G37*
G36*
X72556821Y-59994313D02*
X72556824Y-59994314D01*
X72556825Y-59994314D01*
X72717239Y-60042975D01*
X72717241Y-60042976D01*
X72717244Y-60042977D01*
X72865078Y-60121995D01*
X72994659Y-60228341D01*
X73101005Y-60357922D01*
X73180023Y-60505756D01*
X73180024Y-60505759D01*
X73180025Y-60505761D01*
X73228686Y-60666175D01*
X73228687Y-60666179D01*
X73245117Y-60833000D01*
X73228687Y-60999821D01*
X73228686Y-60999824D01*
X73228686Y-60999825D01*
X73187188Y-61136627D01*
X73180023Y-61160244D01*
X73101005Y-61308078D01*
X72994659Y-61437659D01*
X72865078Y-61544005D01*
X72717244Y-61623023D01*
X72717241Y-61623024D01*
X72717239Y-61623025D01*
X72556825Y-61671686D01*
X72556824Y-61671686D01*
X72556821Y-61671687D01*
X72431804Y-61684000D01*
X72348196Y-61684000D01*
X72223179Y-61671687D01*
X72223176Y-61671686D01*
X72223175Y-61671686D01*
X72062761Y-61623025D01*
X72062759Y-61623024D01*
X72062756Y-61623023D01*
X71914922Y-61544005D01*
X71785341Y-61437659D01*
X71678995Y-61308078D01*
X71599977Y-61160244D01*
X71592813Y-61136627D01*
X71551314Y-60999825D01*
X71551314Y-60999824D01*
X71551313Y-60999821D01*
X71534883Y-60833000D01*
X71551313Y-60666179D01*
X71551314Y-60666175D01*
X71599975Y-60505761D01*
X71599976Y-60505759D01*
X71599977Y-60505756D01*
X71678995Y-60357922D01*
X71785341Y-60228341D01*
X71914922Y-60121995D01*
X72062756Y-60042977D01*
X72062759Y-60042976D01*
X72062761Y-60042975D01*
X72223175Y-59994314D01*
X72223176Y-59994314D01*
X72223179Y-59994313D01*
X72348196Y-59982000D01*
X72431804Y-59982000D01*
X72556821Y-59994313D01*
X72556821Y-59994313D01*
G37*
G36*
X49696821Y-59994313D02*
X49696824Y-59994314D01*
X49696825Y-59994314D01*
X49857239Y-60042975D01*
X49857241Y-60042976D01*
X49857244Y-60042977D01*
X50005078Y-60121995D01*
X50134659Y-60228341D01*
X50241005Y-60357922D01*
X50320023Y-60505756D01*
X50320024Y-60505759D01*
X50320025Y-60505761D01*
X50368686Y-60666175D01*
X50368687Y-60666179D01*
X50385117Y-60833000D01*
X50368687Y-60999821D01*
X50368686Y-60999824D01*
X50368686Y-60999825D01*
X50327188Y-61136627D01*
X50320023Y-61160244D01*
X50241005Y-61308078D01*
X50134659Y-61437659D01*
X50005078Y-61544005D01*
X49857244Y-61623023D01*
X49857241Y-61623024D01*
X49857239Y-61623025D01*
X49696825Y-61671686D01*
X49696824Y-61671686D01*
X49696821Y-61671687D01*
X49571804Y-61684000D01*
X49488196Y-61684000D01*
X49363179Y-61671687D01*
X49363176Y-61671686D01*
X49363175Y-61671686D01*
X49202761Y-61623025D01*
X49202759Y-61623024D01*
X49202756Y-61623023D01*
X49054922Y-61544005D01*
X48925341Y-61437659D01*
X48818995Y-61308078D01*
X48739977Y-61160244D01*
X48732813Y-61136627D01*
X48691314Y-60999825D01*
X48691314Y-60999824D01*
X48691313Y-60999821D01*
X48674883Y-60833000D01*
X48691313Y-60666179D01*
X48691314Y-60666175D01*
X48739975Y-60505761D01*
X48739976Y-60505759D01*
X48739977Y-60505756D01*
X48818995Y-60357922D01*
X48925341Y-60228341D01*
X49054922Y-60121995D01*
X49202756Y-60042977D01*
X49202759Y-60042976D01*
X49202761Y-60042975D01*
X49363175Y-59994314D01*
X49363176Y-59994314D01*
X49363179Y-59994313D01*
X49488196Y-59982000D01*
X49571804Y-59982000D01*
X49696821Y-59994313D01*
X49696821Y-59994313D01*
G37*
G36*
X33765443Y-57525519D02*
X33831627Y-57532037D01*
X33944853Y-57566384D01*
X34001467Y-57583557D01*
X34140087Y-57657652D01*
X34157991Y-57667222D01*
X34183724Y-57688341D01*
X34295186Y-57779814D01*
X34378448Y-57881271D01*
X34407778Y-57917009D01*
X34407779Y-57917011D01*
X34491443Y-58073533D01*
X34491443Y-58073534D01*
X34542963Y-58243373D01*
X34560359Y-58420000D01*
X34542963Y-58596627D01*
X34508616Y-58709853D01*
X34491443Y-58766467D01*
X34421318Y-58897659D01*
X34407778Y-58922991D01*
X34378448Y-58958729D01*
X34295186Y-59060186D01*
X34208060Y-59131687D01*
X34157991Y-59172778D01*
X34157989Y-59172779D01*
X34001467Y-59256443D01*
X33944853Y-59273616D01*
X33831627Y-59307963D01*
X33765442Y-59314482D01*
X33699260Y-59321000D01*
X33610740Y-59321000D01*
X33544558Y-59314482D01*
X33478373Y-59307963D01*
X33365147Y-59273616D01*
X33308533Y-59256443D01*
X33152011Y-59172779D01*
X33152009Y-59172778D01*
X33101940Y-59131687D01*
X33014814Y-59060186D01*
X32931552Y-58958729D01*
X32902222Y-58922991D01*
X32888682Y-58897659D01*
X32818557Y-58766467D01*
X32801384Y-58709853D01*
X32767037Y-58596627D01*
X32749641Y-58420000D01*
X32767037Y-58243373D01*
X32818557Y-58073534D01*
X32818557Y-58073533D01*
X32902221Y-57917011D01*
X32902222Y-57917009D01*
X32931552Y-57881271D01*
X33014814Y-57779814D01*
X33126276Y-57688341D01*
X33152009Y-57667222D01*
X33169913Y-57657652D01*
X33308533Y-57583557D01*
X33365147Y-57566384D01*
X33478373Y-57532037D01*
X33544557Y-57525519D01*
X33610740Y-57519000D01*
X33699260Y-57519000D01*
X33765443Y-57525519D01*
X33765443Y-57525519D01*
G37*
G36*
X49696821Y-57454313D02*
X49696824Y-57454314D01*
X49696825Y-57454314D01*
X49857239Y-57502975D01*
X49857241Y-57502976D01*
X49857244Y-57502977D01*
X50005078Y-57581995D01*
X50134659Y-57688341D01*
X50241005Y-57817922D01*
X50320023Y-57965756D01*
X50320024Y-57965759D01*
X50320025Y-57965761D01*
X50368686Y-58126175D01*
X50368687Y-58126179D01*
X50385117Y-58293000D01*
X50368687Y-58459821D01*
X50368686Y-58459824D01*
X50368686Y-58459825D01*
X50327188Y-58596627D01*
X50320023Y-58620244D01*
X50241005Y-58768078D01*
X50134659Y-58897659D01*
X50005078Y-59004005D01*
X49857244Y-59083023D01*
X49857241Y-59083024D01*
X49857239Y-59083025D01*
X49696825Y-59131686D01*
X49696824Y-59131686D01*
X49696821Y-59131687D01*
X49571804Y-59144000D01*
X49488196Y-59144000D01*
X49363179Y-59131687D01*
X49363176Y-59131686D01*
X49363175Y-59131686D01*
X49202761Y-59083025D01*
X49202759Y-59083024D01*
X49202756Y-59083023D01*
X49054922Y-59004005D01*
X48925341Y-58897659D01*
X48818995Y-58768078D01*
X48739977Y-58620244D01*
X48732813Y-58596627D01*
X48691314Y-58459825D01*
X48691314Y-58459824D01*
X48691313Y-58459821D01*
X48674883Y-58293000D01*
X48691313Y-58126179D01*
X48691314Y-58126175D01*
X48739975Y-57965761D01*
X48739976Y-57965759D01*
X48739977Y-57965756D01*
X48818995Y-57817922D01*
X48925341Y-57688341D01*
X49054922Y-57581995D01*
X49202756Y-57502977D01*
X49202759Y-57502976D01*
X49202761Y-57502975D01*
X49363175Y-57454314D01*
X49363176Y-57454314D01*
X49363179Y-57454313D01*
X49488196Y-57442000D01*
X49571804Y-57442000D01*
X49696821Y-57454313D01*
X49696821Y-57454313D01*
G37*
G36*
X72556821Y-57454313D02*
X72556824Y-57454314D01*
X72556825Y-57454314D01*
X72717239Y-57502975D01*
X72717241Y-57502976D01*
X72717244Y-57502977D01*
X72865078Y-57581995D01*
X72994659Y-57688341D01*
X73101005Y-57817922D01*
X73180023Y-57965756D01*
X73180024Y-57965759D01*
X73180025Y-57965761D01*
X73228686Y-58126175D01*
X73228687Y-58126179D01*
X73245117Y-58293000D01*
X73228687Y-58459821D01*
X73228686Y-58459824D01*
X73228686Y-58459825D01*
X73187188Y-58596627D01*
X73180023Y-58620244D01*
X73101005Y-58768078D01*
X72994659Y-58897659D01*
X72865078Y-59004005D01*
X72717244Y-59083023D01*
X72717241Y-59083024D01*
X72717239Y-59083025D01*
X72556825Y-59131686D01*
X72556824Y-59131686D01*
X72556821Y-59131687D01*
X72431804Y-59144000D01*
X72348196Y-59144000D01*
X72223179Y-59131687D01*
X72223176Y-59131686D01*
X72223175Y-59131686D01*
X72062761Y-59083025D01*
X72062759Y-59083024D01*
X72062756Y-59083023D01*
X71914922Y-59004005D01*
X71785341Y-58897659D01*
X71678995Y-58768078D01*
X71599977Y-58620244D01*
X71592813Y-58596627D01*
X71551314Y-58459825D01*
X71551314Y-58459824D01*
X71551313Y-58459821D01*
X71534883Y-58293000D01*
X71551313Y-58126179D01*
X71551314Y-58126175D01*
X71599975Y-57965761D01*
X71599976Y-57965759D01*
X71599977Y-57965756D01*
X71678995Y-57817922D01*
X71785341Y-57688341D01*
X71914922Y-57581995D01*
X72062756Y-57502977D01*
X72062759Y-57502976D01*
X72062761Y-57502975D01*
X72223175Y-57454314D01*
X72223176Y-57454314D01*
X72223179Y-57454313D01*
X72348196Y-57442000D01*
X72431804Y-57442000D01*
X72556821Y-57454313D01*
X72556821Y-57454313D01*
G37*
G36*
X42076821Y-57454313D02*
X42076824Y-57454314D01*
X42076825Y-57454314D01*
X42237239Y-57502975D01*
X42237241Y-57502976D01*
X42237244Y-57502977D01*
X42385078Y-57581995D01*
X42514659Y-57688341D01*
X42621005Y-57817922D01*
X42700023Y-57965756D01*
X42700024Y-57965759D01*
X42700025Y-57965761D01*
X42748686Y-58126175D01*
X42748687Y-58126179D01*
X42765117Y-58293000D01*
X42748687Y-58459821D01*
X42748686Y-58459824D01*
X42748686Y-58459825D01*
X42707188Y-58596627D01*
X42700023Y-58620244D01*
X42621005Y-58768078D01*
X42514659Y-58897659D01*
X42385078Y-59004005D01*
X42237244Y-59083023D01*
X42237241Y-59083024D01*
X42237239Y-59083025D01*
X42076825Y-59131686D01*
X42076824Y-59131686D01*
X42076821Y-59131687D01*
X41951804Y-59144000D01*
X41868196Y-59144000D01*
X41743179Y-59131687D01*
X41743176Y-59131686D01*
X41743175Y-59131686D01*
X41582761Y-59083025D01*
X41582759Y-59083024D01*
X41582756Y-59083023D01*
X41434922Y-59004005D01*
X41305341Y-58897659D01*
X41198995Y-58768078D01*
X41119977Y-58620244D01*
X41112813Y-58596627D01*
X41071314Y-58459825D01*
X41071314Y-58459824D01*
X41071313Y-58459821D01*
X41054883Y-58293000D01*
X41071313Y-58126179D01*
X41071314Y-58126175D01*
X41119975Y-57965761D01*
X41119976Y-57965759D01*
X41119977Y-57965756D01*
X41198995Y-57817922D01*
X41305341Y-57688341D01*
X41434922Y-57581995D01*
X41582756Y-57502977D01*
X41582759Y-57502976D01*
X41582761Y-57502975D01*
X41743175Y-57454314D01*
X41743176Y-57454314D01*
X41743179Y-57454313D01*
X41868196Y-57442000D01*
X41951804Y-57442000D01*
X42076821Y-57454313D01*
X42076821Y-57454313D01*
G37*
G36*
X64936821Y-57454313D02*
X64936824Y-57454314D01*
X64936825Y-57454314D01*
X65097239Y-57502975D01*
X65097241Y-57502976D01*
X65097244Y-57502977D01*
X65245078Y-57581995D01*
X65374659Y-57688341D01*
X65481005Y-57817922D01*
X65560023Y-57965756D01*
X65560024Y-57965759D01*
X65560025Y-57965761D01*
X65608686Y-58126175D01*
X65608687Y-58126179D01*
X65625117Y-58293000D01*
X65608687Y-58459821D01*
X65608686Y-58459824D01*
X65608686Y-58459825D01*
X65567188Y-58596627D01*
X65560023Y-58620244D01*
X65481005Y-58768078D01*
X65374659Y-58897659D01*
X65245078Y-59004005D01*
X65097244Y-59083023D01*
X65097241Y-59083024D01*
X65097239Y-59083025D01*
X64936825Y-59131686D01*
X64936824Y-59131686D01*
X64936821Y-59131687D01*
X64811804Y-59144000D01*
X64728196Y-59144000D01*
X64603179Y-59131687D01*
X64603176Y-59131686D01*
X64603175Y-59131686D01*
X64442761Y-59083025D01*
X64442759Y-59083024D01*
X64442756Y-59083023D01*
X64294922Y-59004005D01*
X64165341Y-58897659D01*
X64058995Y-58768078D01*
X63979977Y-58620244D01*
X63972813Y-58596627D01*
X63931314Y-58459825D01*
X63931314Y-58459824D01*
X63931313Y-58459821D01*
X63914883Y-58293000D01*
X63931313Y-58126179D01*
X63931314Y-58126175D01*
X63979975Y-57965761D01*
X63979976Y-57965759D01*
X63979977Y-57965756D01*
X64058995Y-57817922D01*
X64165341Y-57688341D01*
X64294922Y-57581995D01*
X64442756Y-57502977D01*
X64442759Y-57502976D01*
X64442761Y-57502975D01*
X64603175Y-57454314D01*
X64603176Y-57454314D01*
X64603179Y-57454313D01*
X64728196Y-57442000D01*
X64811804Y-57442000D01*
X64936821Y-57454313D01*
X64936821Y-57454313D01*
G37*
G36*
X33765443Y-54985519D02*
X33831627Y-54992037D01*
X33944853Y-55026384D01*
X34001467Y-55043557D01*
X34140087Y-55117652D01*
X34157991Y-55127222D01*
X34183724Y-55148341D01*
X34295186Y-55239814D01*
X34378448Y-55341271D01*
X34407778Y-55377009D01*
X34407779Y-55377011D01*
X34491443Y-55533533D01*
X34491443Y-55533534D01*
X34542963Y-55703373D01*
X34560359Y-55880000D01*
X34542963Y-56056627D01*
X34508616Y-56169853D01*
X34491443Y-56226467D01*
X34421318Y-56357659D01*
X34407778Y-56382991D01*
X34378448Y-56418729D01*
X34295186Y-56520186D01*
X34208060Y-56591687D01*
X34157991Y-56632778D01*
X34157989Y-56632779D01*
X34001467Y-56716443D01*
X33944853Y-56733616D01*
X33831627Y-56767963D01*
X33765443Y-56774481D01*
X33699260Y-56781000D01*
X33610740Y-56781000D01*
X33544557Y-56774481D01*
X33478373Y-56767963D01*
X33365147Y-56733616D01*
X33308533Y-56716443D01*
X33152011Y-56632779D01*
X33152009Y-56632778D01*
X33101940Y-56591687D01*
X33014814Y-56520186D01*
X32931552Y-56418729D01*
X32902222Y-56382991D01*
X32888682Y-56357659D01*
X32818557Y-56226467D01*
X32801384Y-56169853D01*
X32767037Y-56056627D01*
X32749641Y-55880000D01*
X32767037Y-55703373D01*
X32818557Y-55533534D01*
X32818557Y-55533533D01*
X32902221Y-55377011D01*
X32902222Y-55377009D01*
X32931552Y-55341271D01*
X33014814Y-55239814D01*
X33126276Y-55148341D01*
X33152009Y-55127222D01*
X33169913Y-55117652D01*
X33308533Y-55043557D01*
X33365147Y-55026384D01*
X33478373Y-54992037D01*
X33544557Y-54985519D01*
X33610740Y-54979000D01*
X33699260Y-54979000D01*
X33765443Y-54985519D01*
X33765443Y-54985519D01*
G37*
G36*
X49696821Y-54914313D02*
X49696824Y-54914314D01*
X49696825Y-54914314D01*
X49857239Y-54962975D01*
X49857241Y-54962976D01*
X49857244Y-54962977D01*
X50005078Y-55041995D01*
X50134659Y-55148341D01*
X50241005Y-55277922D01*
X50320023Y-55425756D01*
X50320024Y-55425759D01*
X50320025Y-55425761D01*
X50368686Y-55586175D01*
X50368687Y-55586179D01*
X50385117Y-55753000D01*
X50368687Y-55919821D01*
X50368686Y-55919824D01*
X50368686Y-55919825D01*
X50327188Y-56056627D01*
X50320023Y-56080244D01*
X50241005Y-56228078D01*
X50134659Y-56357659D01*
X50005078Y-56464005D01*
X49857244Y-56543023D01*
X49857241Y-56543024D01*
X49857239Y-56543025D01*
X49696825Y-56591686D01*
X49696824Y-56591686D01*
X49696821Y-56591687D01*
X49571804Y-56604000D01*
X49488196Y-56604000D01*
X49363179Y-56591687D01*
X49363176Y-56591686D01*
X49363175Y-56591686D01*
X49202761Y-56543025D01*
X49202759Y-56543024D01*
X49202756Y-56543023D01*
X49054922Y-56464005D01*
X48925341Y-56357659D01*
X48818995Y-56228078D01*
X48739977Y-56080244D01*
X48732813Y-56056627D01*
X48691314Y-55919825D01*
X48691314Y-55919824D01*
X48691313Y-55919821D01*
X48674883Y-55753000D01*
X48691313Y-55586179D01*
X48691314Y-55586175D01*
X48739975Y-55425761D01*
X48739976Y-55425759D01*
X48739977Y-55425756D01*
X48818995Y-55277922D01*
X48925341Y-55148341D01*
X49054922Y-55041995D01*
X49202756Y-54962977D01*
X49202759Y-54962976D01*
X49202761Y-54962975D01*
X49363175Y-54914314D01*
X49363176Y-54914314D01*
X49363179Y-54914313D01*
X49488196Y-54902000D01*
X49571804Y-54902000D01*
X49696821Y-54914313D01*
X49696821Y-54914313D01*
G37*
G36*
X42076821Y-54914313D02*
X42076824Y-54914314D01*
X42076825Y-54914314D01*
X42237239Y-54962975D01*
X42237241Y-54962976D01*
X42237244Y-54962977D01*
X42385078Y-55041995D01*
X42514659Y-55148341D01*
X42621005Y-55277922D01*
X42700023Y-55425756D01*
X42700024Y-55425759D01*
X42700025Y-55425761D01*
X42748686Y-55586175D01*
X42748687Y-55586179D01*
X42765117Y-55753000D01*
X42748687Y-55919821D01*
X42748686Y-55919824D01*
X42748686Y-55919825D01*
X42707188Y-56056627D01*
X42700023Y-56080244D01*
X42621005Y-56228078D01*
X42514659Y-56357659D01*
X42385078Y-56464005D01*
X42237244Y-56543023D01*
X42237241Y-56543024D01*
X42237239Y-56543025D01*
X42076825Y-56591686D01*
X42076824Y-56591686D01*
X42076821Y-56591687D01*
X41951804Y-56604000D01*
X41868196Y-56604000D01*
X41743179Y-56591687D01*
X41743176Y-56591686D01*
X41743175Y-56591686D01*
X41582761Y-56543025D01*
X41582759Y-56543024D01*
X41582756Y-56543023D01*
X41434922Y-56464005D01*
X41305341Y-56357659D01*
X41198995Y-56228078D01*
X41119977Y-56080244D01*
X41112813Y-56056627D01*
X41071314Y-55919825D01*
X41071314Y-55919824D01*
X41071313Y-55919821D01*
X41054883Y-55753000D01*
X41071313Y-55586179D01*
X41071314Y-55586175D01*
X41119975Y-55425761D01*
X41119976Y-55425759D01*
X41119977Y-55425756D01*
X41198995Y-55277922D01*
X41305341Y-55148341D01*
X41434922Y-55041995D01*
X41582756Y-54962977D01*
X41582759Y-54962976D01*
X41582761Y-54962975D01*
X41743175Y-54914314D01*
X41743176Y-54914314D01*
X41743179Y-54914313D01*
X41868196Y-54902000D01*
X41951804Y-54902000D01*
X42076821Y-54914313D01*
X42076821Y-54914313D01*
G37*
G36*
X64936821Y-54914313D02*
X64936824Y-54914314D01*
X64936825Y-54914314D01*
X65097239Y-54962975D01*
X65097241Y-54962976D01*
X65097244Y-54962977D01*
X65245078Y-55041995D01*
X65374659Y-55148341D01*
X65481005Y-55277922D01*
X65560023Y-55425756D01*
X65560024Y-55425759D01*
X65560025Y-55425761D01*
X65608686Y-55586175D01*
X65608687Y-55586179D01*
X65625117Y-55753000D01*
X65608687Y-55919821D01*
X65608686Y-55919824D01*
X65608686Y-55919825D01*
X65567188Y-56056627D01*
X65560023Y-56080244D01*
X65481005Y-56228078D01*
X65374659Y-56357659D01*
X65245078Y-56464005D01*
X65097244Y-56543023D01*
X65097241Y-56543024D01*
X65097239Y-56543025D01*
X64936825Y-56591686D01*
X64936824Y-56591686D01*
X64936821Y-56591687D01*
X64811804Y-56604000D01*
X64728196Y-56604000D01*
X64603179Y-56591687D01*
X64603176Y-56591686D01*
X64603175Y-56591686D01*
X64442761Y-56543025D01*
X64442759Y-56543024D01*
X64442756Y-56543023D01*
X64294922Y-56464005D01*
X64165341Y-56357659D01*
X64058995Y-56228078D01*
X63979977Y-56080244D01*
X63972813Y-56056627D01*
X63931314Y-55919825D01*
X63931314Y-55919824D01*
X63931313Y-55919821D01*
X63914883Y-55753000D01*
X63931313Y-55586179D01*
X63931314Y-55586175D01*
X63979975Y-55425761D01*
X63979976Y-55425759D01*
X63979977Y-55425756D01*
X64058995Y-55277922D01*
X64165341Y-55148341D01*
X64294922Y-55041995D01*
X64442756Y-54962977D01*
X64442759Y-54962976D01*
X64442761Y-54962975D01*
X64603175Y-54914314D01*
X64603176Y-54914314D01*
X64603179Y-54914313D01*
X64728196Y-54902000D01*
X64811804Y-54902000D01*
X64936821Y-54914313D01*
X64936821Y-54914313D01*
G37*
G36*
X72556821Y-54914313D02*
X72556824Y-54914314D01*
X72556825Y-54914314D01*
X72717239Y-54962975D01*
X72717241Y-54962976D01*
X72717244Y-54962977D01*
X72865078Y-55041995D01*
X72994659Y-55148341D01*
X73101005Y-55277922D01*
X73180023Y-55425756D01*
X73180024Y-55425759D01*
X73180025Y-55425761D01*
X73228686Y-55586175D01*
X73228687Y-55586179D01*
X73245117Y-55753000D01*
X73228687Y-55919821D01*
X73228686Y-55919824D01*
X73228686Y-55919825D01*
X73187188Y-56056627D01*
X73180023Y-56080244D01*
X73101005Y-56228078D01*
X72994659Y-56357659D01*
X72865078Y-56464005D01*
X72717244Y-56543023D01*
X72717241Y-56543024D01*
X72717239Y-56543025D01*
X72556825Y-56591686D01*
X72556824Y-56591686D01*
X72556821Y-56591687D01*
X72431804Y-56604000D01*
X72348196Y-56604000D01*
X72223179Y-56591687D01*
X72223176Y-56591686D01*
X72223175Y-56591686D01*
X72062761Y-56543025D01*
X72062759Y-56543024D01*
X72062756Y-56543023D01*
X71914922Y-56464005D01*
X71785341Y-56357659D01*
X71678995Y-56228078D01*
X71599977Y-56080244D01*
X71592813Y-56056627D01*
X71551314Y-55919825D01*
X71551314Y-55919824D01*
X71551313Y-55919821D01*
X71534883Y-55753000D01*
X71551313Y-55586179D01*
X71551314Y-55586175D01*
X71599975Y-55425761D01*
X71599976Y-55425759D01*
X71599977Y-55425756D01*
X71678995Y-55277922D01*
X71785341Y-55148341D01*
X71914922Y-55041995D01*
X72062756Y-54962977D01*
X72062759Y-54962976D01*
X72062761Y-54962975D01*
X72223175Y-54914314D01*
X72223176Y-54914314D01*
X72223179Y-54914313D01*
X72348196Y-54902000D01*
X72431804Y-54902000D01*
X72556821Y-54914313D01*
X72556821Y-54914313D01*
G37*
G36*
X33765443Y-52445519D02*
X33831627Y-52452037D01*
X33944853Y-52486384D01*
X34001467Y-52503557D01*
X34140087Y-52577652D01*
X34157991Y-52587222D01*
X34183724Y-52608341D01*
X34295186Y-52699814D01*
X34378448Y-52801271D01*
X34407778Y-52837009D01*
X34407779Y-52837011D01*
X34491443Y-52993533D01*
X34491443Y-52993534D01*
X34542963Y-53163373D01*
X34560359Y-53340000D01*
X34542963Y-53516627D01*
X34508616Y-53629853D01*
X34491443Y-53686467D01*
X34421318Y-53817659D01*
X34407778Y-53842991D01*
X34378448Y-53878729D01*
X34295186Y-53980186D01*
X34208060Y-54051687D01*
X34157991Y-54092778D01*
X34157989Y-54092779D01*
X34001467Y-54176443D01*
X33944853Y-54193616D01*
X33831627Y-54227963D01*
X33765442Y-54234482D01*
X33699260Y-54241000D01*
X33610740Y-54241000D01*
X33544558Y-54234482D01*
X33478373Y-54227963D01*
X33365147Y-54193616D01*
X33308533Y-54176443D01*
X33152011Y-54092779D01*
X33152009Y-54092778D01*
X33101940Y-54051687D01*
X33014814Y-53980186D01*
X32931552Y-53878729D01*
X32902222Y-53842991D01*
X32888682Y-53817659D01*
X32818557Y-53686467D01*
X32801384Y-53629853D01*
X32767037Y-53516627D01*
X32749641Y-53340000D01*
X32767037Y-53163373D01*
X32818557Y-52993534D01*
X32818557Y-52993533D01*
X32902221Y-52837011D01*
X32902222Y-52837009D01*
X32931552Y-52801271D01*
X33014814Y-52699814D01*
X33126276Y-52608341D01*
X33152009Y-52587222D01*
X33169913Y-52577652D01*
X33308533Y-52503557D01*
X33365147Y-52486384D01*
X33478373Y-52452037D01*
X33544558Y-52445518D01*
X33610740Y-52439000D01*
X33699260Y-52439000D01*
X33765443Y-52445519D01*
X33765443Y-52445519D01*
G37*
G36*
X72556821Y-52374313D02*
X72556824Y-52374314D01*
X72556825Y-52374314D01*
X72717239Y-52422975D01*
X72717241Y-52422976D01*
X72717244Y-52422977D01*
X72865078Y-52501995D01*
X72994659Y-52608341D01*
X73101005Y-52737922D01*
X73180023Y-52885756D01*
X73180024Y-52885759D01*
X73180025Y-52885761D01*
X73228686Y-53046175D01*
X73228687Y-53046179D01*
X73245117Y-53213000D01*
X73228687Y-53379821D01*
X73228686Y-53379824D01*
X73228686Y-53379825D01*
X73187188Y-53516627D01*
X73180023Y-53540244D01*
X73101005Y-53688078D01*
X72994659Y-53817659D01*
X72865078Y-53924005D01*
X72717244Y-54003023D01*
X72717241Y-54003024D01*
X72717239Y-54003025D01*
X72556825Y-54051686D01*
X72556824Y-54051686D01*
X72556821Y-54051687D01*
X72431804Y-54064000D01*
X72348196Y-54064000D01*
X72223179Y-54051687D01*
X72223176Y-54051686D01*
X72223175Y-54051686D01*
X72062761Y-54003025D01*
X72062759Y-54003024D01*
X72062756Y-54003023D01*
X71914922Y-53924005D01*
X71785341Y-53817659D01*
X71678995Y-53688078D01*
X71599977Y-53540244D01*
X71592813Y-53516627D01*
X71551314Y-53379825D01*
X71551314Y-53379824D01*
X71551313Y-53379821D01*
X71534883Y-53213000D01*
X71551313Y-53046179D01*
X71551314Y-53046175D01*
X71599975Y-52885761D01*
X71599976Y-52885759D01*
X71599977Y-52885756D01*
X71678995Y-52737922D01*
X71785341Y-52608341D01*
X71914922Y-52501995D01*
X72062756Y-52422977D01*
X72062759Y-52422976D01*
X72062761Y-52422975D01*
X72223175Y-52374314D01*
X72223176Y-52374314D01*
X72223179Y-52374313D01*
X72348196Y-52362000D01*
X72431804Y-52362000D01*
X72556821Y-52374313D01*
X72556821Y-52374313D01*
G37*
G36*
X64936821Y-52374313D02*
X64936824Y-52374314D01*
X64936825Y-52374314D01*
X65097239Y-52422975D01*
X65097241Y-52422976D01*
X65097244Y-52422977D01*
X65245078Y-52501995D01*
X65374659Y-52608341D01*
X65481005Y-52737922D01*
X65560023Y-52885756D01*
X65560024Y-52885759D01*
X65560025Y-52885761D01*
X65608686Y-53046175D01*
X65608687Y-53046179D01*
X65625117Y-53213000D01*
X65608687Y-53379821D01*
X65608686Y-53379824D01*
X65608686Y-53379825D01*
X65567188Y-53516627D01*
X65560023Y-53540244D01*
X65481005Y-53688078D01*
X65374659Y-53817659D01*
X65245078Y-53924005D01*
X65097244Y-54003023D01*
X65097241Y-54003024D01*
X65097239Y-54003025D01*
X64936825Y-54051686D01*
X64936824Y-54051686D01*
X64936821Y-54051687D01*
X64811804Y-54064000D01*
X64728196Y-54064000D01*
X64603179Y-54051687D01*
X64603176Y-54051686D01*
X64603175Y-54051686D01*
X64442761Y-54003025D01*
X64442759Y-54003024D01*
X64442756Y-54003023D01*
X64294922Y-53924005D01*
X64165341Y-53817659D01*
X64058995Y-53688078D01*
X63979977Y-53540244D01*
X63972813Y-53516627D01*
X63931314Y-53379825D01*
X63931314Y-53379824D01*
X63931313Y-53379821D01*
X63914883Y-53213000D01*
X63931313Y-53046179D01*
X63931314Y-53046175D01*
X63979975Y-52885761D01*
X63979976Y-52885759D01*
X63979977Y-52885756D01*
X64058995Y-52737922D01*
X64165341Y-52608341D01*
X64294922Y-52501995D01*
X64442756Y-52422977D01*
X64442759Y-52422976D01*
X64442761Y-52422975D01*
X64603175Y-52374314D01*
X64603176Y-52374314D01*
X64603179Y-52374313D01*
X64728196Y-52362000D01*
X64811804Y-52362000D01*
X64936821Y-52374313D01*
X64936821Y-52374313D01*
G37*
G36*
X49696821Y-52374313D02*
X49696824Y-52374314D01*
X49696825Y-52374314D01*
X49857239Y-52422975D01*
X49857241Y-52422976D01*
X49857244Y-52422977D01*
X50005078Y-52501995D01*
X50134659Y-52608341D01*
X50241005Y-52737922D01*
X50320023Y-52885756D01*
X50320024Y-52885759D01*
X50320025Y-52885761D01*
X50368686Y-53046175D01*
X50368687Y-53046179D01*
X50385117Y-53213000D01*
X50368687Y-53379821D01*
X50368686Y-53379824D01*
X50368686Y-53379825D01*
X50327188Y-53516627D01*
X50320023Y-53540244D01*
X50241005Y-53688078D01*
X50134659Y-53817659D01*
X50005078Y-53924005D01*
X49857244Y-54003023D01*
X49857241Y-54003024D01*
X49857239Y-54003025D01*
X49696825Y-54051686D01*
X49696824Y-54051686D01*
X49696821Y-54051687D01*
X49571804Y-54064000D01*
X49488196Y-54064000D01*
X49363179Y-54051687D01*
X49363176Y-54051686D01*
X49363175Y-54051686D01*
X49202761Y-54003025D01*
X49202759Y-54003024D01*
X49202756Y-54003023D01*
X49054922Y-53924005D01*
X48925341Y-53817659D01*
X48818995Y-53688078D01*
X48739977Y-53540244D01*
X48732813Y-53516627D01*
X48691314Y-53379825D01*
X48691314Y-53379824D01*
X48691313Y-53379821D01*
X48674883Y-53213000D01*
X48691313Y-53046179D01*
X48691314Y-53046175D01*
X48739975Y-52885761D01*
X48739976Y-52885759D01*
X48739977Y-52885756D01*
X48818995Y-52737922D01*
X48925341Y-52608341D01*
X49054922Y-52501995D01*
X49202756Y-52422977D01*
X49202759Y-52422976D01*
X49202761Y-52422975D01*
X49363175Y-52374314D01*
X49363176Y-52374314D01*
X49363179Y-52374313D01*
X49488196Y-52362000D01*
X49571804Y-52362000D01*
X49696821Y-52374313D01*
X49696821Y-52374313D01*
G37*
G36*
X42076821Y-52374313D02*
X42076824Y-52374314D01*
X42076825Y-52374314D01*
X42237239Y-52422975D01*
X42237241Y-52422976D01*
X42237244Y-52422977D01*
X42385078Y-52501995D01*
X42514659Y-52608341D01*
X42621005Y-52737922D01*
X42700023Y-52885756D01*
X42700024Y-52885759D01*
X42700025Y-52885761D01*
X42748686Y-53046175D01*
X42748687Y-53046179D01*
X42765117Y-53213000D01*
X42748687Y-53379821D01*
X42748686Y-53379824D01*
X42748686Y-53379825D01*
X42707188Y-53516627D01*
X42700023Y-53540244D01*
X42621005Y-53688078D01*
X42514659Y-53817659D01*
X42385078Y-53924005D01*
X42237244Y-54003023D01*
X42237241Y-54003024D01*
X42237239Y-54003025D01*
X42076825Y-54051686D01*
X42076824Y-54051686D01*
X42076821Y-54051687D01*
X41951804Y-54064000D01*
X41868196Y-54064000D01*
X41743179Y-54051687D01*
X41743176Y-54051686D01*
X41743175Y-54051686D01*
X41582761Y-54003025D01*
X41582759Y-54003024D01*
X41582756Y-54003023D01*
X41434922Y-53924005D01*
X41305341Y-53817659D01*
X41198995Y-53688078D01*
X41119977Y-53540244D01*
X41112813Y-53516627D01*
X41071314Y-53379825D01*
X41071314Y-53379824D01*
X41071313Y-53379821D01*
X41054883Y-53213000D01*
X41071313Y-53046179D01*
X41071314Y-53046175D01*
X41119975Y-52885761D01*
X41119976Y-52885759D01*
X41119977Y-52885756D01*
X41198995Y-52737922D01*
X41305341Y-52608341D01*
X41434922Y-52501995D01*
X41582756Y-52422977D01*
X41582759Y-52422976D01*
X41582761Y-52422975D01*
X41743175Y-52374314D01*
X41743176Y-52374314D01*
X41743179Y-52374313D01*
X41868196Y-52362000D01*
X41951804Y-52362000D01*
X42076821Y-52374313D01*
X42076821Y-52374313D01*
G37*
G36*
X33765442Y-49905518D02*
X33831627Y-49912037D01*
X33944853Y-49946384D01*
X34001467Y-49963557D01*
X34140087Y-50037652D01*
X34157991Y-50047222D01*
X34183724Y-50068341D01*
X34295186Y-50159814D01*
X34378448Y-50261271D01*
X34407778Y-50297009D01*
X34407779Y-50297011D01*
X34491443Y-50453533D01*
X34491443Y-50453534D01*
X34542963Y-50623373D01*
X34560359Y-50800000D01*
X34542963Y-50976627D01*
X34508616Y-51089853D01*
X34491443Y-51146467D01*
X34421318Y-51277659D01*
X34407778Y-51302991D01*
X34378448Y-51338729D01*
X34295186Y-51440186D01*
X34208060Y-51511687D01*
X34157991Y-51552778D01*
X34157989Y-51552779D01*
X34001467Y-51636443D01*
X33944853Y-51653616D01*
X33831627Y-51687963D01*
X33765442Y-51694482D01*
X33699260Y-51701000D01*
X33610740Y-51701000D01*
X33544558Y-51694482D01*
X33478373Y-51687963D01*
X33365147Y-51653616D01*
X33308533Y-51636443D01*
X33152011Y-51552779D01*
X33152009Y-51552778D01*
X33101940Y-51511687D01*
X33014814Y-51440186D01*
X32931552Y-51338729D01*
X32902222Y-51302991D01*
X32888682Y-51277659D01*
X32818557Y-51146467D01*
X32801384Y-51089853D01*
X32767037Y-50976627D01*
X32749641Y-50800000D01*
X32767037Y-50623373D01*
X32818557Y-50453534D01*
X32818557Y-50453533D01*
X32902221Y-50297011D01*
X32902222Y-50297009D01*
X32931552Y-50261271D01*
X33014814Y-50159814D01*
X33126276Y-50068341D01*
X33152009Y-50047222D01*
X33169913Y-50037652D01*
X33308533Y-49963557D01*
X33365147Y-49946384D01*
X33478373Y-49912037D01*
X33544557Y-49905519D01*
X33610740Y-49899000D01*
X33699260Y-49899000D01*
X33765442Y-49905518D01*
X33765442Y-49905518D01*
G37*
G36*
X72556821Y-49834313D02*
X72556824Y-49834314D01*
X72556825Y-49834314D01*
X72717239Y-49882975D01*
X72717241Y-49882976D01*
X72717244Y-49882977D01*
X72865078Y-49961995D01*
X72994659Y-50068341D01*
X73101005Y-50197922D01*
X73180023Y-50345756D01*
X73180024Y-50345759D01*
X73180025Y-50345761D01*
X73228686Y-50506175D01*
X73228687Y-50506179D01*
X73245117Y-50673000D01*
X73228687Y-50839821D01*
X73228686Y-50839824D01*
X73228686Y-50839825D01*
X73187188Y-50976627D01*
X73180023Y-51000244D01*
X73101005Y-51148078D01*
X72994659Y-51277659D01*
X72865078Y-51384005D01*
X72717244Y-51463023D01*
X72717241Y-51463024D01*
X72717239Y-51463025D01*
X72556825Y-51511686D01*
X72556824Y-51511686D01*
X72556821Y-51511687D01*
X72431804Y-51524000D01*
X72348196Y-51524000D01*
X72223179Y-51511687D01*
X72223176Y-51511686D01*
X72223175Y-51511686D01*
X72062761Y-51463025D01*
X72062759Y-51463024D01*
X72062756Y-51463023D01*
X71914922Y-51384005D01*
X71785341Y-51277659D01*
X71678995Y-51148078D01*
X71599977Y-51000244D01*
X71592813Y-50976627D01*
X71551314Y-50839825D01*
X71551314Y-50839824D01*
X71551313Y-50839821D01*
X71534883Y-50673000D01*
X71551313Y-50506179D01*
X71551314Y-50506175D01*
X71599975Y-50345761D01*
X71599976Y-50345759D01*
X71599977Y-50345756D01*
X71678995Y-50197922D01*
X71785341Y-50068341D01*
X71914922Y-49961995D01*
X72062756Y-49882977D01*
X72062759Y-49882976D01*
X72062761Y-49882975D01*
X72223175Y-49834314D01*
X72223176Y-49834314D01*
X72223179Y-49834313D01*
X72348196Y-49822000D01*
X72431804Y-49822000D01*
X72556821Y-49834313D01*
X72556821Y-49834313D01*
G37*
G36*
X64936821Y-49834313D02*
X64936824Y-49834314D01*
X64936825Y-49834314D01*
X65097239Y-49882975D01*
X65097241Y-49882976D01*
X65097244Y-49882977D01*
X65245078Y-49961995D01*
X65374659Y-50068341D01*
X65481005Y-50197922D01*
X65560023Y-50345756D01*
X65560024Y-50345759D01*
X65560025Y-50345761D01*
X65608686Y-50506175D01*
X65608687Y-50506179D01*
X65625117Y-50673000D01*
X65608687Y-50839821D01*
X65608686Y-50839824D01*
X65608686Y-50839825D01*
X65567188Y-50976627D01*
X65560023Y-51000244D01*
X65481005Y-51148078D01*
X65374659Y-51277659D01*
X65245078Y-51384005D01*
X65097244Y-51463023D01*
X65097241Y-51463024D01*
X65097239Y-51463025D01*
X64936825Y-51511686D01*
X64936824Y-51511686D01*
X64936821Y-51511687D01*
X64811804Y-51524000D01*
X64728196Y-51524000D01*
X64603179Y-51511687D01*
X64603176Y-51511686D01*
X64603175Y-51511686D01*
X64442761Y-51463025D01*
X64442759Y-51463024D01*
X64442756Y-51463023D01*
X64294922Y-51384005D01*
X64165341Y-51277659D01*
X64058995Y-51148078D01*
X63979977Y-51000244D01*
X63972813Y-50976627D01*
X63931314Y-50839825D01*
X63931314Y-50839824D01*
X63931313Y-50839821D01*
X63914883Y-50673000D01*
X63931313Y-50506179D01*
X63931314Y-50506175D01*
X63979975Y-50345761D01*
X63979976Y-50345759D01*
X63979977Y-50345756D01*
X64058995Y-50197922D01*
X64165341Y-50068341D01*
X64294922Y-49961995D01*
X64442756Y-49882977D01*
X64442759Y-49882976D01*
X64442761Y-49882975D01*
X64603175Y-49834314D01*
X64603176Y-49834314D01*
X64603179Y-49834313D01*
X64728196Y-49822000D01*
X64811804Y-49822000D01*
X64936821Y-49834313D01*
X64936821Y-49834313D01*
G37*
G36*
X49696821Y-49834313D02*
X49696824Y-49834314D01*
X49696825Y-49834314D01*
X49857239Y-49882975D01*
X49857241Y-49882976D01*
X49857244Y-49882977D01*
X50005078Y-49961995D01*
X50134659Y-50068341D01*
X50241005Y-50197922D01*
X50320023Y-50345756D01*
X50320024Y-50345759D01*
X50320025Y-50345761D01*
X50368686Y-50506175D01*
X50368687Y-50506179D01*
X50385117Y-50673000D01*
X50368687Y-50839821D01*
X50368686Y-50839824D01*
X50368686Y-50839825D01*
X50327188Y-50976627D01*
X50320023Y-51000244D01*
X50241005Y-51148078D01*
X50134659Y-51277659D01*
X50005078Y-51384005D01*
X49857244Y-51463023D01*
X49857241Y-51463024D01*
X49857239Y-51463025D01*
X49696825Y-51511686D01*
X49696824Y-51511686D01*
X49696821Y-51511687D01*
X49571804Y-51524000D01*
X49488196Y-51524000D01*
X49363179Y-51511687D01*
X49363176Y-51511686D01*
X49363175Y-51511686D01*
X49202761Y-51463025D01*
X49202759Y-51463024D01*
X49202756Y-51463023D01*
X49054922Y-51384005D01*
X48925341Y-51277659D01*
X48818995Y-51148078D01*
X48739977Y-51000244D01*
X48732813Y-50976627D01*
X48691314Y-50839825D01*
X48691314Y-50839824D01*
X48691313Y-50839821D01*
X48674883Y-50673000D01*
X48691313Y-50506179D01*
X48691314Y-50506175D01*
X48739975Y-50345761D01*
X48739976Y-50345759D01*
X48739977Y-50345756D01*
X48818995Y-50197922D01*
X48925341Y-50068341D01*
X49054922Y-49961995D01*
X49202756Y-49882977D01*
X49202759Y-49882976D01*
X49202761Y-49882975D01*
X49363175Y-49834314D01*
X49363176Y-49834314D01*
X49363179Y-49834313D01*
X49488196Y-49822000D01*
X49571804Y-49822000D01*
X49696821Y-49834313D01*
X49696821Y-49834313D01*
G37*
G36*
X42076821Y-49834313D02*
X42076824Y-49834314D01*
X42076825Y-49834314D01*
X42237239Y-49882975D01*
X42237241Y-49882976D01*
X42237244Y-49882977D01*
X42385078Y-49961995D01*
X42514659Y-50068341D01*
X42621005Y-50197922D01*
X42700023Y-50345756D01*
X42700024Y-50345759D01*
X42700025Y-50345761D01*
X42748686Y-50506175D01*
X42748687Y-50506179D01*
X42765117Y-50673000D01*
X42748687Y-50839821D01*
X42748686Y-50839824D01*
X42748686Y-50839825D01*
X42707188Y-50976627D01*
X42700023Y-51000244D01*
X42621005Y-51148078D01*
X42514659Y-51277659D01*
X42385078Y-51384005D01*
X42237244Y-51463023D01*
X42237241Y-51463024D01*
X42237239Y-51463025D01*
X42076825Y-51511686D01*
X42076824Y-51511686D01*
X42076821Y-51511687D01*
X41951804Y-51524000D01*
X41868196Y-51524000D01*
X41743179Y-51511687D01*
X41743176Y-51511686D01*
X41743175Y-51511686D01*
X41582761Y-51463025D01*
X41582759Y-51463024D01*
X41582756Y-51463023D01*
X41434922Y-51384005D01*
X41305341Y-51277659D01*
X41198995Y-51148078D01*
X41119977Y-51000244D01*
X41112813Y-50976627D01*
X41071314Y-50839825D01*
X41071314Y-50839824D01*
X41071313Y-50839821D01*
X41054883Y-50673000D01*
X41071313Y-50506179D01*
X41071314Y-50506175D01*
X41119975Y-50345761D01*
X41119976Y-50345759D01*
X41119977Y-50345756D01*
X41198995Y-50197922D01*
X41305341Y-50068341D01*
X41434922Y-49961995D01*
X41582756Y-49882977D01*
X41582759Y-49882976D01*
X41582761Y-49882975D01*
X41743175Y-49834314D01*
X41743176Y-49834314D01*
X41743179Y-49834313D01*
X41868196Y-49822000D01*
X41951804Y-49822000D01*
X42076821Y-49834313D01*
X42076821Y-49834313D01*
G37*
G36*
X33765443Y-47365519D02*
X33831627Y-47372037D01*
X33944853Y-47406384D01*
X34001467Y-47423557D01*
X34140087Y-47497652D01*
X34157991Y-47507222D01*
X34183724Y-47528341D01*
X34295186Y-47619814D01*
X34378448Y-47721271D01*
X34407778Y-47757009D01*
X34407779Y-47757011D01*
X34491443Y-47913533D01*
X34491443Y-47913534D01*
X34542963Y-48083373D01*
X34560359Y-48260000D01*
X34542963Y-48436627D01*
X34508616Y-48549853D01*
X34491443Y-48606467D01*
X34421318Y-48737659D01*
X34407778Y-48762991D01*
X34378448Y-48798729D01*
X34295186Y-48900186D01*
X34208060Y-48971687D01*
X34157991Y-49012778D01*
X34157989Y-49012779D01*
X34001467Y-49096443D01*
X33944853Y-49113616D01*
X33831627Y-49147963D01*
X33765443Y-49154481D01*
X33699260Y-49161000D01*
X33610740Y-49161000D01*
X33544557Y-49154481D01*
X33478373Y-49147963D01*
X33365147Y-49113616D01*
X33308533Y-49096443D01*
X33152011Y-49012779D01*
X33152009Y-49012778D01*
X33101940Y-48971687D01*
X33014814Y-48900186D01*
X32931552Y-48798729D01*
X32902222Y-48762991D01*
X32888682Y-48737659D01*
X32818557Y-48606467D01*
X32801384Y-48549853D01*
X32767037Y-48436627D01*
X32749641Y-48260000D01*
X32767037Y-48083373D01*
X32818557Y-47913534D01*
X32818557Y-47913533D01*
X32902221Y-47757011D01*
X32902222Y-47757009D01*
X32931552Y-47721271D01*
X33014814Y-47619814D01*
X33126276Y-47528341D01*
X33152009Y-47507222D01*
X33169913Y-47497652D01*
X33308533Y-47423557D01*
X33365147Y-47406384D01*
X33478373Y-47372037D01*
X33544557Y-47365519D01*
X33610740Y-47359000D01*
X33699260Y-47359000D01*
X33765443Y-47365519D01*
X33765443Y-47365519D01*
G37*
G36*
X64936821Y-47294313D02*
X64936824Y-47294314D01*
X64936825Y-47294314D01*
X65097239Y-47342975D01*
X65097241Y-47342976D01*
X65097244Y-47342977D01*
X65245078Y-47421995D01*
X65374659Y-47528341D01*
X65481005Y-47657922D01*
X65560023Y-47805756D01*
X65560024Y-47805759D01*
X65560025Y-47805761D01*
X65608686Y-47966175D01*
X65608687Y-47966179D01*
X65625117Y-48133000D01*
X65608687Y-48299821D01*
X65608686Y-48299824D01*
X65608686Y-48299825D01*
X65567188Y-48436627D01*
X65560023Y-48460244D01*
X65481005Y-48608078D01*
X65374659Y-48737659D01*
X65245078Y-48844005D01*
X65097244Y-48923023D01*
X65097241Y-48923024D01*
X65097239Y-48923025D01*
X64936825Y-48971686D01*
X64936824Y-48971686D01*
X64936821Y-48971687D01*
X64811804Y-48984000D01*
X64728196Y-48984000D01*
X64603179Y-48971687D01*
X64603176Y-48971686D01*
X64603175Y-48971686D01*
X64442761Y-48923025D01*
X64442759Y-48923024D01*
X64442756Y-48923023D01*
X64294922Y-48844005D01*
X64165341Y-48737659D01*
X64058995Y-48608078D01*
X63979977Y-48460244D01*
X63972813Y-48436627D01*
X63931314Y-48299825D01*
X63931314Y-48299824D01*
X63931313Y-48299821D01*
X63914883Y-48133000D01*
X63931313Y-47966179D01*
X63931314Y-47966175D01*
X63979975Y-47805761D01*
X63979976Y-47805759D01*
X63979977Y-47805756D01*
X64058995Y-47657922D01*
X64165341Y-47528341D01*
X64294922Y-47421995D01*
X64442756Y-47342977D01*
X64442759Y-47342976D01*
X64442761Y-47342975D01*
X64603175Y-47294314D01*
X64603176Y-47294314D01*
X64603179Y-47294313D01*
X64728196Y-47282000D01*
X64811804Y-47282000D01*
X64936821Y-47294313D01*
X64936821Y-47294313D01*
G37*
G36*
X72556821Y-47294313D02*
X72556824Y-47294314D01*
X72556825Y-47294314D01*
X72717239Y-47342975D01*
X72717241Y-47342976D01*
X72717244Y-47342977D01*
X72865078Y-47421995D01*
X72994659Y-47528341D01*
X73101005Y-47657922D01*
X73180023Y-47805756D01*
X73180024Y-47805759D01*
X73180025Y-47805761D01*
X73228686Y-47966175D01*
X73228687Y-47966179D01*
X73245117Y-48133000D01*
X73228687Y-48299821D01*
X73228686Y-48299824D01*
X73228686Y-48299825D01*
X73187188Y-48436627D01*
X73180023Y-48460244D01*
X73101005Y-48608078D01*
X72994659Y-48737659D01*
X72865078Y-48844005D01*
X72717244Y-48923023D01*
X72717241Y-48923024D01*
X72717239Y-48923025D01*
X72556825Y-48971686D01*
X72556824Y-48971686D01*
X72556821Y-48971687D01*
X72431804Y-48984000D01*
X72348196Y-48984000D01*
X72223179Y-48971687D01*
X72223176Y-48971686D01*
X72223175Y-48971686D01*
X72062761Y-48923025D01*
X72062759Y-48923024D01*
X72062756Y-48923023D01*
X71914922Y-48844005D01*
X71785341Y-48737659D01*
X71678995Y-48608078D01*
X71599977Y-48460244D01*
X71592813Y-48436627D01*
X71551314Y-48299825D01*
X71551314Y-48299824D01*
X71551313Y-48299821D01*
X71534883Y-48133000D01*
X71551313Y-47966179D01*
X71551314Y-47966175D01*
X71599975Y-47805761D01*
X71599976Y-47805759D01*
X71599977Y-47805756D01*
X71678995Y-47657922D01*
X71785341Y-47528341D01*
X71914922Y-47421995D01*
X72062756Y-47342977D01*
X72062759Y-47342976D01*
X72062761Y-47342975D01*
X72223175Y-47294314D01*
X72223176Y-47294314D01*
X72223179Y-47294313D01*
X72348196Y-47282000D01*
X72431804Y-47282000D01*
X72556821Y-47294313D01*
X72556821Y-47294313D01*
G37*
G36*
X49696821Y-47294313D02*
X49696824Y-47294314D01*
X49696825Y-47294314D01*
X49857239Y-47342975D01*
X49857241Y-47342976D01*
X49857244Y-47342977D01*
X50005078Y-47421995D01*
X50134659Y-47528341D01*
X50241005Y-47657922D01*
X50320023Y-47805756D01*
X50320024Y-47805759D01*
X50320025Y-47805761D01*
X50368686Y-47966175D01*
X50368687Y-47966179D01*
X50385117Y-48133000D01*
X50368687Y-48299821D01*
X50368686Y-48299824D01*
X50368686Y-48299825D01*
X50327188Y-48436627D01*
X50320023Y-48460244D01*
X50241005Y-48608078D01*
X50134659Y-48737659D01*
X50005078Y-48844005D01*
X49857244Y-48923023D01*
X49857241Y-48923024D01*
X49857239Y-48923025D01*
X49696825Y-48971686D01*
X49696824Y-48971686D01*
X49696821Y-48971687D01*
X49571804Y-48984000D01*
X49488196Y-48984000D01*
X49363179Y-48971687D01*
X49363176Y-48971686D01*
X49363175Y-48971686D01*
X49202761Y-48923025D01*
X49202759Y-48923024D01*
X49202756Y-48923023D01*
X49054922Y-48844005D01*
X48925341Y-48737659D01*
X48818995Y-48608078D01*
X48739977Y-48460244D01*
X48732813Y-48436627D01*
X48691314Y-48299825D01*
X48691314Y-48299824D01*
X48691313Y-48299821D01*
X48674883Y-48133000D01*
X48691313Y-47966179D01*
X48691314Y-47966175D01*
X48739975Y-47805761D01*
X48739976Y-47805759D01*
X48739977Y-47805756D01*
X48818995Y-47657922D01*
X48925341Y-47528341D01*
X49054922Y-47421995D01*
X49202756Y-47342977D01*
X49202759Y-47342976D01*
X49202761Y-47342975D01*
X49363175Y-47294314D01*
X49363176Y-47294314D01*
X49363179Y-47294313D01*
X49488196Y-47282000D01*
X49571804Y-47282000D01*
X49696821Y-47294313D01*
X49696821Y-47294313D01*
G37*
G36*
X42076821Y-47294313D02*
X42076824Y-47294314D01*
X42076825Y-47294314D01*
X42237239Y-47342975D01*
X42237241Y-47342976D01*
X42237244Y-47342977D01*
X42385078Y-47421995D01*
X42514659Y-47528341D01*
X42621005Y-47657922D01*
X42700023Y-47805756D01*
X42700024Y-47805759D01*
X42700025Y-47805761D01*
X42748686Y-47966175D01*
X42748687Y-47966179D01*
X42765117Y-48133000D01*
X42748687Y-48299821D01*
X42748686Y-48299824D01*
X42748686Y-48299825D01*
X42707188Y-48436627D01*
X42700023Y-48460244D01*
X42621005Y-48608078D01*
X42514659Y-48737659D01*
X42385078Y-48844005D01*
X42237244Y-48923023D01*
X42237241Y-48923024D01*
X42237239Y-48923025D01*
X42076825Y-48971686D01*
X42076824Y-48971686D01*
X42076821Y-48971687D01*
X41951804Y-48984000D01*
X41868196Y-48984000D01*
X41743179Y-48971687D01*
X41743176Y-48971686D01*
X41743175Y-48971686D01*
X41582761Y-48923025D01*
X41582759Y-48923024D01*
X41582756Y-48923023D01*
X41434922Y-48844005D01*
X41305341Y-48737659D01*
X41198995Y-48608078D01*
X41119977Y-48460244D01*
X41112813Y-48436627D01*
X41071314Y-48299825D01*
X41071314Y-48299824D01*
X41071313Y-48299821D01*
X41054883Y-48133000D01*
X41071313Y-47966179D01*
X41071314Y-47966175D01*
X41119975Y-47805761D01*
X41119976Y-47805759D01*
X41119977Y-47805756D01*
X41198995Y-47657922D01*
X41305341Y-47528341D01*
X41434922Y-47421995D01*
X41582756Y-47342977D01*
X41582759Y-47342976D01*
X41582761Y-47342975D01*
X41743175Y-47294314D01*
X41743176Y-47294314D01*
X41743179Y-47294313D01*
X41868196Y-47282000D01*
X41951804Y-47282000D01*
X42076821Y-47294313D01*
X42076821Y-47294313D01*
G37*
G36*
X33765442Y-44825518D02*
X33831627Y-44832037D01*
X33944853Y-44866384D01*
X34001467Y-44883557D01*
X34140087Y-44957652D01*
X34157991Y-44967222D01*
X34183724Y-44988341D01*
X34295186Y-45079814D01*
X34378448Y-45181271D01*
X34407778Y-45217009D01*
X34407779Y-45217011D01*
X34491443Y-45373533D01*
X34491443Y-45373534D01*
X34542963Y-45543373D01*
X34560359Y-45720000D01*
X34542963Y-45896627D01*
X34508616Y-46009853D01*
X34491443Y-46066467D01*
X34421318Y-46197659D01*
X34407778Y-46222991D01*
X34378448Y-46258729D01*
X34295186Y-46360186D01*
X34208060Y-46431687D01*
X34157991Y-46472778D01*
X34157989Y-46472779D01*
X34001467Y-46556443D01*
X33944853Y-46573616D01*
X33831627Y-46607963D01*
X33765442Y-46614482D01*
X33699260Y-46621000D01*
X33610740Y-46621000D01*
X33544558Y-46614482D01*
X33478373Y-46607963D01*
X33365147Y-46573616D01*
X33308533Y-46556443D01*
X33152011Y-46472779D01*
X33152009Y-46472778D01*
X33101940Y-46431687D01*
X33014814Y-46360186D01*
X32931552Y-46258729D01*
X32902222Y-46222991D01*
X32888682Y-46197659D01*
X32818557Y-46066467D01*
X32801384Y-46009853D01*
X32767037Y-45896627D01*
X32749641Y-45720000D01*
X32767037Y-45543373D01*
X32818557Y-45373534D01*
X32818557Y-45373533D01*
X32902221Y-45217011D01*
X32902222Y-45217009D01*
X32931552Y-45181271D01*
X33014814Y-45079814D01*
X33126276Y-44988341D01*
X33152009Y-44967222D01*
X33169913Y-44957652D01*
X33308533Y-44883557D01*
X33365147Y-44866384D01*
X33478373Y-44832037D01*
X33544558Y-44825518D01*
X33610740Y-44819000D01*
X33699260Y-44819000D01*
X33765442Y-44825518D01*
X33765442Y-44825518D01*
G37*
G36*
X72556821Y-44754313D02*
X72556824Y-44754314D01*
X72556825Y-44754314D01*
X72717239Y-44802975D01*
X72717241Y-44802976D01*
X72717244Y-44802977D01*
X72865078Y-44881995D01*
X72994659Y-44988341D01*
X73101005Y-45117922D01*
X73180023Y-45265756D01*
X73180024Y-45265759D01*
X73180025Y-45265761D01*
X73228686Y-45426175D01*
X73228687Y-45426179D01*
X73245117Y-45593000D01*
X73228687Y-45759821D01*
X73228686Y-45759824D01*
X73228686Y-45759825D01*
X73187188Y-45896627D01*
X73180023Y-45920244D01*
X73101005Y-46068078D01*
X72994659Y-46197659D01*
X72865078Y-46304005D01*
X72717244Y-46383023D01*
X72717241Y-46383024D01*
X72717239Y-46383025D01*
X72556825Y-46431686D01*
X72556824Y-46431686D01*
X72556821Y-46431687D01*
X72431804Y-46444000D01*
X72348196Y-46444000D01*
X72223179Y-46431687D01*
X72223176Y-46431686D01*
X72223175Y-46431686D01*
X72062761Y-46383025D01*
X72062759Y-46383024D01*
X72062756Y-46383023D01*
X71914922Y-46304005D01*
X71785341Y-46197659D01*
X71678995Y-46068078D01*
X71599977Y-45920244D01*
X71592813Y-45896627D01*
X71551314Y-45759825D01*
X71551314Y-45759824D01*
X71551313Y-45759821D01*
X71534883Y-45593000D01*
X71551313Y-45426179D01*
X71551314Y-45426175D01*
X71599975Y-45265761D01*
X71599976Y-45265759D01*
X71599977Y-45265756D01*
X71678995Y-45117922D01*
X71785341Y-44988341D01*
X71914922Y-44881995D01*
X72062756Y-44802977D01*
X72062759Y-44802976D01*
X72062761Y-44802975D01*
X72223175Y-44754314D01*
X72223176Y-44754314D01*
X72223179Y-44754313D01*
X72348196Y-44742000D01*
X72431804Y-44742000D01*
X72556821Y-44754313D01*
X72556821Y-44754313D01*
G37*
G36*
X64936821Y-44754313D02*
X64936824Y-44754314D01*
X64936825Y-44754314D01*
X65097239Y-44802975D01*
X65097241Y-44802976D01*
X65097244Y-44802977D01*
X65245078Y-44881995D01*
X65374659Y-44988341D01*
X65481005Y-45117922D01*
X65560023Y-45265756D01*
X65560024Y-45265759D01*
X65560025Y-45265761D01*
X65608686Y-45426175D01*
X65608687Y-45426179D01*
X65625117Y-45593000D01*
X65608687Y-45759821D01*
X65608686Y-45759824D01*
X65608686Y-45759825D01*
X65567188Y-45896627D01*
X65560023Y-45920244D01*
X65481005Y-46068078D01*
X65374659Y-46197659D01*
X65245078Y-46304005D01*
X65097244Y-46383023D01*
X65097241Y-46383024D01*
X65097239Y-46383025D01*
X64936825Y-46431686D01*
X64936824Y-46431686D01*
X64936821Y-46431687D01*
X64811804Y-46444000D01*
X64728196Y-46444000D01*
X64603179Y-46431687D01*
X64603176Y-46431686D01*
X64603175Y-46431686D01*
X64442761Y-46383025D01*
X64442759Y-46383024D01*
X64442756Y-46383023D01*
X64294922Y-46304005D01*
X64165341Y-46197659D01*
X64058995Y-46068078D01*
X63979977Y-45920244D01*
X63972813Y-45896627D01*
X63931314Y-45759825D01*
X63931314Y-45759824D01*
X63931313Y-45759821D01*
X63914883Y-45593000D01*
X63931313Y-45426179D01*
X63931314Y-45426175D01*
X63979975Y-45265761D01*
X63979976Y-45265759D01*
X63979977Y-45265756D01*
X64058995Y-45117922D01*
X64165341Y-44988341D01*
X64294922Y-44881995D01*
X64442756Y-44802977D01*
X64442759Y-44802976D01*
X64442761Y-44802975D01*
X64603175Y-44754314D01*
X64603176Y-44754314D01*
X64603179Y-44754313D01*
X64728196Y-44742000D01*
X64811804Y-44742000D01*
X64936821Y-44754313D01*
X64936821Y-44754313D01*
G37*
G36*
X42076821Y-44754313D02*
X42076824Y-44754314D01*
X42076825Y-44754314D01*
X42237239Y-44802975D01*
X42237241Y-44802976D01*
X42237244Y-44802977D01*
X42385078Y-44881995D01*
X42514659Y-44988341D01*
X42621005Y-45117922D01*
X42700023Y-45265756D01*
X42700024Y-45265759D01*
X42700025Y-45265761D01*
X42748686Y-45426175D01*
X42748687Y-45426179D01*
X42765117Y-45593000D01*
X42748687Y-45759821D01*
X42748686Y-45759824D01*
X42748686Y-45759825D01*
X42707188Y-45896627D01*
X42700023Y-45920244D01*
X42621005Y-46068078D01*
X42514659Y-46197659D01*
X42385078Y-46304005D01*
X42237244Y-46383023D01*
X42237241Y-46383024D01*
X42237239Y-46383025D01*
X42076825Y-46431686D01*
X42076824Y-46431686D01*
X42076821Y-46431687D01*
X41951804Y-46444000D01*
X41868196Y-46444000D01*
X41743179Y-46431687D01*
X41743176Y-46431686D01*
X41743175Y-46431686D01*
X41582761Y-46383025D01*
X41582759Y-46383024D01*
X41582756Y-46383023D01*
X41434922Y-46304005D01*
X41305341Y-46197659D01*
X41198995Y-46068078D01*
X41119977Y-45920244D01*
X41112813Y-45896627D01*
X41071314Y-45759825D01*
X41071314Y-45759824D01*
X41071313Y-45759821D01*
X41054883Y-45593000D01*
X41071313Y-45426179D01*
X41071314Y-45426175D01*
X41119975Y-45265761D01*
X41119976Y-45265759D01*
X41119977Y-45265756D01*
X41198995Y-45117922D01*
X41305341Y-44988341D01*
X41434922Y-44881995D01*
X41582756Y-44802977D01*
X41582759Y-44802976D01*
X41582761Y-44802975D01*
X41743175Y-44754314D01*
X41743176Y-44754314D01*
X41743179Y-44754313D01*
X41868196Y-44742000D01*
X41951804Y-44742000D01*
X42076821Y-44754313D01*
X42076821Y-44754313D01*
G37*
G36*
X49696821Y-44754313D02*
X49696824Y-44754314D01*
X49696825Y-44754314D01*
X49857239Y-44802975D01*
X49857241Y-44802976D01*
X49857244Y-44802977D01*
X50005078Y-44881995D01*
X50134659Y-44988341D01*
X50241005Y-45117922D01*
X50320023Y-45265756D01*
X50320024Y-45265759D01*
X50320025Y-45265761D01*
X50368686Y-45426175D01*
X50368687Y-45426179D01*
X50385117Y-45593000D01*
X50368687Y-45759821D01*
X50368686Y-45759824D01*
X50368686Y-45759825D01*
X50327188Y-45896627D01*
X50320023Y-45920244D01*
X50241005Y-46068078D01*
X50134659Y-46197659D01*
X50005078Y-46304005D01*
X49857244Y-46383023D01*
X49857241Y-46383024D01*
X49857239Y-46383025D01*
X49696825Y-46431686D01*
X49696824Y-46431686D01*
X49696821Y-46431687D01*
X49571804Y-46444000D01*
X49488196Y-46444000D01*
X49363179Y-46431687D01*
X49363176Y-46431686D01*
X49363175Y-46431686D01*
X49202761Y-46383025D01*
X49202759Y-46383024D01*
X49202756Y-46383023D01*
X49054922Y-46304005D01*
X48925341Y-46197659D01*
X48818995Y-46068078D01*
X48739977Y-45920244D01*
X48732813Y-45896627D01*
X48691314Y-45759825D01*
X48691314Y-45759824D01*
X48691313Y-45759821D01*
X48674883Y-45593000D01*
X48691313Y-45426179D01*
X48691314Y-45426175D01*
X48739975Y-45265761D01*
X48739976Y-45265759D01*
X48739977Y-45265756D01*
X48818995Y-45117922D01*
X48925341Y-44988341D01*
X49054922Y-44881995D01*
X49202756Y-44802977D01*
X49202759Y-44802976D01*
X49202761Y-44802975D01*
X49363175Y-44754314D01*
X49363176Y-44754314D01*
X49363179Y-44754313D01*
X49488196Y-44742000D01*
X49571804Y-44742000D01*
X49696821Y-44754313D01*
X49696821Y-44754313D01*
G37*
G36*
X33765442Y-42285518D02*
X33831627Y-42292037D01*
X33944853Y-42326384D01*
X34001467Y-42343557D01*
X34140087Y-42417652D01*
X34157991Y-42427222D01*
X34183724Y-42448341D01*
X34295186Y-42539814D01*
X34378448Y-42641271D01*
X34407778Y-42677009D01*
X34407779Y-42677011D01*
X34491443Y-42833533D01*
X34491443Y-42833534D01*
X34542963Y-43003373D01*
X34560359Y-43180000D01*
X34542963Y-43356627D01*
X34508616Y-43469853D01*
X34491443Y-43526467D01*
X34421318Y-43657659D01*
X34407778Y-43682991D01*
X34378448Y-43718729D01*
X34295186Y-43820186D01*
X34208060Y-43891687D01*
X34157991Y-43932778D01*
X34157989Y-43932779D01*
X34001467Y-44016443D01*
X33944853Y-44033616D01*
X33831627Y-44067963D01*
X33765443Y-44074481D01*
X33699260Y-44081000D01*
X33610740Y-44081000D01*
X33544557Y-44074481D01*
X33478373Y-44067963D01*
X33365147Y-44033616D01*
X33308533Y-44016443D01*
X33152011Y-43932779D01*
X33152009Y-43932778D01*
X33101940Y-43891687D01*
X33014814Y-43820186D01*
X32931552Y-43718729D01*
X32902222Y-43682991D01*
X32888682Y-43657659D01*
X32818557Y-43526467D01*
X32801384Y-43469853D01*
X32767037Y-43356627D01*
X32749641Y-43180000D01*
X32767037Y-43003373D01*
X32818557Y-42833534D01*
X32818557Y-42833533D01*
X32902221Y-42677011D01*
X32902222Y-42677009D01*
X32931552Y-42641271D01*
X33014814Y-42539814D01*
X33126276Y-42448341D01*
X33152009Y-42427222D01*
X33169913Y-42417652D01*
X33308533Y-42343557D01*
X33365147Y-42326384D01*
X33478373Y-42292037D01*
X33544558Y-42285518D01*
X33610740Y-42279000D01*
X33699260Y-42279000D01*
X33765442Y-42285518D01*
X33765442Y-42285518D01*
G37*
G36*
X42076821Y-42214313D02*
X42076824Y-42214314D01*
X42076825Y-42214314D01*
X42237239Y-42262975D01*
X42237241Y-42262976D01*
X42237244Y-42262977D01*
X42385078Y-42341995D01*
X42514659Y-42448341D01*
X42621005Y-42577922D01*
X42700023Y-42725756D01*
X42700024Y-42725759D01*
X42700025Y-42725761D01*
X42748686Y-42886175D01*
X42748687Y-42886179D01*
X42765117Y-43053000D01*
X42748687Y-43219821D01*
X42748686Y-43219824D01*
X42748686Y-43219825D01*
X42707188Y-43356627D01*
X42700023Y-43380244D01*
X42621005Y-43528078D01*
X42514659Y-43657659D01*
X42385078Y-43764005D01*
X42237244Y-43843023D01*
X42237241Y-43843024D01*
X42237239Y-43843025D01*
X42076825Y-43891686D01*
X42076824Y-43891686D01*
X42076821Y-43891687D01*
X41951804Y-43904000D01*
X41868196Y-43904000D01*
X41743179Y-43891687D01*
X41743176Y-43891686D01*
X41743175Y-43891686D01*
X41582761Y-43843025D01*
X41582759Y-43843024D01*
X41582756Y-43843023D01*
X41434922Y-43764005D01*
X41305341Y-43657659D01*
X41198995Y-43528078D01*
X41119977Y-43380244D01*
X41112813Y-43356627D01*
X41071314Y-43219825D01*
X41071314Y-43219824D01*
X41071313Y-43219821D01*
X41054883Y-43053000D01*
X41071313Y-42886179D01*
X41071314Y-42886175D01*
X41119975Y-42725761D01*
X41119976Y-42725759D01*
X41119977Y-42725756D01*
X41198995Y-42577922D01*
X41305341Y-42448341D01*
X41434922Y-42341995D01*
X41582756Y-42262977D01*
X41582759Y-42262976D01*
X41582761Y-42262975D01*
X41743175Y-42214314D01*
X41743176Y-42214314D01*
X41743179Y-42214313D01*
X41868196Y-42202000D01*
X41951804Y-42202000D01*
X42076821Y-42214313D01*
X42076821Y-42214313D01*
G37*
G36*
X49696821Y-42214313D02*
X49696824Y-42214314D01*
X49696825Y-42214314D01*
X49857239Y-42262975D01*
X49857241Y-42262976D01*
X49857244Y-42262977D01*
X50005078Y-42341995D01*
X50134659Y-42448341D01*
X50241005Y-42577922D01*
X50320023Y-42725756D01*
X50320024Y-42725759D01*
X50320025Y-42725761D01*
X50368686Y-42886175D01*
X50368687Y-42886179D01*
X50385117Y-43053000D01*
X50368687Y-43219821D01*
X50368686Y-43219824D01*
X50368686Y-43219825D01*
X50327188Y-43356627D01*
X50320023Y-43380244D01*
X50241005Y-43528078D01*
X50134659Y-43657659D01*
X50005078Y-43764005D01*
X49857244Y-43843023D01*
X49857241Y-43843024D01*
X49857239Y-43843025D01*
X49696825Y-43891686D01*
X49696824Y-43891686D01*
X49696821Y-43891687D01*
X49571804Y-43904000D01*
X49488196Y-43904000D01*
X49363179Y-43891687D01*
X49363176Y-43891686D01*
X49363175Y-43891686D01*
X49202761Y-43843025D01*
X49202759Y-43843024D01*
X49202756Y-43843023D01*
X49054922Y-43764005D01*
X48925341Y-43657659D01*
X48818995Y-43528078D01*
X48739977Y-43380244D01*
X48732813Y-43356627D01*
X48691314Y-43219825D01*
X48691314Y-43219824D01*
X48691313Y-43219821D01*
X48674883Y-43053000D01*
X48691313Y-42886179D01*
X48691314Y-42886175D01*
X48739975Y-42725761D01*
X48739976Y-42725759D01*
X48739977Y-42725756D01*
X48818995Y-42577922D01*
X48925341Y-42448341D01*
X49054922Y-42341995D01*
X49202756Y-42262977D01*
X49202759Y-42262976D01*
X49202761Y-42262975D01*
X49363175Y-42214314D01*
X49363176Y-42214314D01*
X49363179Y-42214313D01*
X49488196Y-42202000D01*
X49571804Y-42202000D01*
X49696821Y-42214313D01*
X49696821Y-42214313D01*
G37*
G36*
X72556821Y-42214313D02*
X72556824Y-42214314D01*
X72556825Y-42214314D01*
X72717239Y-42262975D01*
X72717241Y-42262976D01*
X72717244Y-42262977D01*
X72865078Y-42341995D01*
X72994659Y-42448341D01*
X73101005Y-42577922D01*
X73180023Y-42725756D01*
X73180024Y-42725759D01*
X73180025Y-42725761D01*
X73228686Y-42886175D01*
X73228687Y-42886179D01*
X73245117Y-43053000D01*
X73228687Y-43219821D01*
X73228686Y-43219824D01*
X73228686Y-43219825D01*
X73187188Y-43356627D01*
X73180023Y-43380244D01*
X73101005Y-43528078D01*
X72994659Y-43657659D01*
X72865078Y-43764005D01*
X72717244Y-43843023D01*
X72717241Y-43843024D01*
X72717239Y-43843025D01*
X72556825Y-43891686D01*
X72556824Y-43891686D01*
X72556821Y-43891687D01*
X72431804Y-43904000D01*
X72348196Y-43904000D01*
X72223179Y-43891687D01*
X72223176Y-43891686D01*
X72223175Y-43891686D01*
X72062761Y-43843025D01*
X72062759Y-43843024D01*
X72062756Y-43843023D01*
X71914922Y-43764005D01*
X71785341Y-43657659D01*
X71678995Y-43528078D01*
X71599977Y-43380244D01*
X71592813Y-43356627D01*
X71551314Y-43219825D01*
X71551314Y-43219824D01*
X71551313Y-43219821D01*
X71534883Y-43053000D01*
X71551313Y-42886179D01*
X71551314Y-42886175D01*
X71599975Y-42725761D01*
X71599976Y-42725759D01*
X71599977Y-42725756D01*
X71678995Y-42577922D01*
X71785341Y-42448341D01*
X71914922Y-42341995D01*
X72062756Y-42262977D01*
X72062759Y-42262976D01*
X72062761Y-42262975D01*
X72223175Y-42214314D01*
X72223176Y-42214314D01*
X72223179Y-42214313D01*
X72348196Y-42202000D01*
X72431804Y-42202000D01*
X72556821Y-42214313D01*
X72556821Y-42214313D01*
G37*
G36*
X64936821Y-42214313D02*
X64936824Y-42214314D01*
X64936825Y-42214314D01*
X65097239Y-42262975D01*
X65097241Y-42262976D01*
X65097244Y-42262977D01*
X65245078Y-42341995D01*
X65374659Y-42448341D01*
X65481005Y-42577922D01*
X65560023Y-42725756D01*
X65560024Y-42725759D01*
X65560025Y-42725761D01*
X65608686Y-42886175D01*
X65608687Y-42886179D01*
X65625117Y-43053000D01*
X65608687Y-43219821D01*
X65608686Y-43219824D01*
X65608686Y-43219825D01*
X65567188Y-43356627D01*
X65560023Y-43380244D01*
X65481005Y-43528078D01*
X65374659Y-43657659D01*
X65245078Y-43764005D01*
X65097244Y-43843023D01*
X65097241Y-43843024D01*
X65097239Y-43843025D01*
X64936825Y-43891686D01*
X64936824Y-43891686D01*
X64936821Y-43891687D01*
X64811804Y-43904000D01*
X64728196Y-43904000D01*
X64603179Y-43891687D01*
X64603176Y-43891686D01*
X64603175Y-43891686D01*
X64442761Y-43843025D01*
X64442759Y-43843024D01*
X64442756Y-43843023D01*
X64294922Y-43764005D01*
X64165341Y-43657659D01*
X64058995Y-43528078D01*
X63979977Y-43380244D01*
X63972813Y-43356627D01*
X63931314Y-43219825D01*
X63931314Y-43219824D01*
X63931313Y-43219821D01*
X63914883Y-43053000D01*
X63931313Y-42886179D01*
X63931314Y-42886175D01*
X63979975Y-42725761D01*
X63979976Y-42725759D01*
X63979977Y-42725756D01*
X64058995Y-42577922D01*
X64165341Y-42448341D01*
X64294922Y-42341995D01*
X64442756Y-42262977D01*
X64442759Y-42262976D01*
X64442761Y-42262975D01*
X64603175Y-42214314D01*
X64603176Y-42214314D01*
X64603179Y-42214313D01*
X64728196Y-42202000D01*
X64811804Y-42202000D01*
X64936821Y-42214313D01*
X64936821Y-42214313D01*
G37*
G36*
X33765442Y-39745518D02*
X33831627Y-39752037D01*
X33944853Y-39786384D01*
X34001467Y-39803557D01*
X34140087Y-39877652D01*
X34157991Y-39887222D01*
X34183724Y-39908341D01*
X34295186Y-39999814D01*
X34378448Y-40101271D01*
X34407778Y-40137009D01*
X34407779Y-40137011D01*
X34491443Y-40293533D01*
X34491443Y-40293534D01*
X34542963Y-40463373D01*
X34560359Y-40640000D01*
X34542963Y-40816627D01*
X34508616Y-40929853D01*
X34491443Y-40986467D01*
X34421318Y-41117659D01*
X34407778Y-41142991D01*
X34378448Y-41178729D01*
X34295186Y-41280186D01*
X34208060Y-41351687D01*
X34157991Y-41392778D01*
X34157989Y-41392779D01*
X34001467Y-41476443D01*
X33944853Y-41493616D01*
X33831627Y-41527963D01*
X33765442Y-41534482D01*
X33699260Y-41541000D01*
X33610740Y-41541000D01*
X33544558Y-41534482D01*
X33478373Y-41527963D01*
X33365147Y-41493616D01*
X33308533Y-41476443D01*
X33152011Y-41392779D01*
X33152009Y-41392778D01*
X33101940Y-41351687D01*
X33014814Y-41280186D01*
X32931552Y-41178729D01*
X32902222Y-41142991D01*
X32888682Y-41117659D01*
X32818557Y-40986467D01*
X32801384Y-40929853D01*
X32767037Y-40816627D01*
X32749641Y-40640000D01*
X32767037Y-40463373D01*
X32818557Y-40293534D01*
X32818557Y-40293533D01*
X32902221Y-40137011D01*
X32902222Y-40137009D01*
X32931552Y-40101271D01*
X33014814Y-39999814D01*
X33126276Y-39908341D01*
X33152009Y-39887222D01*
X33169913Y-39877652D01*
X33308533Y-39803557D01*
X33365147Y-39786384D01*
X33478373Y-39752037D01*
X33544558Y-39745518D01*
X33610740Y-39739000D01*
X33699260Y-39739000D01*
X33765442Y-39745518D01*
X33765442Y-39745518D01*
G37*
G36*
X42761000Y-41364000D02*
X41059000Y-41364000D01*
X41059000Y-39662000D01*
X42761000Y-39662000D01*
X42761000Y-41364000D01*
X42761000Y-41364000D01*
G37*
G36*
X65621000Y-41364000D02*
X63919000Y-41364000D01*
X63919000Y-39662000D01*
X65621000Y-39662000D01*
X65621000Y-41364000D01*
X65621000Y-41364000D01*
G37*
G36*
X72556821Y-39674313D02*
X72556824Y-39674314D01*
X72556825Y-39674314D01*
X72717239Y-39722975D01*
X72717241Y-39722976D01*
X72717244Y-39722977D01*
X72865078Y-39801995D01*
X72994659Y-39908341D01*
X73101005Y-40037922D01*
X73180023Y-40185756D01*
X73180024Y-40185759D01*
X73180025Y-40185761D01*
X73228686Y-40346175D01*
X73228687Y-40346179D01*
X73245117Y-40513000D01*
X73228687Y-40679821D01*
X73228686Y-40679824D01*
X73228686Y-40679825D01*
X73187188Y-40816627D01*
X73180023Y-40840244D01*
X73101005Y-40988078D01*
X72994659Y-41117659D01*
X72865078Y-41224005D01*
X72717244Y-41303023D01*
X72717241Y-41303024D01*
X72717239Y-41303025D01*
X72556825Y-41351686D01*
X72556824Y-41351686D01*
X72556821Y-41351687D01*
X72431804Y-41364000D01*
X72348196Y-41364000D01*
X72223179Y-41351687D01*
X72223176Y-41351686D01*
X72223175Y-41351686D01*
X72062761Y-41303025D01*
X72062759Y-41303024D01*
X72062756Y-41303023D01*
X71914922Y-41224005D01*
X71785341Y-41117659D01*
X71678995Y-40988078D01*
X71599977Y-40840244D01*
X71592813Y-40816627D01*
X71551314Y-40679825D01*
X71551314Y-40679824D01*
X71551313Y-40679821D01*
X71534883Y-40513000D01*
X71551313Y-40346179D01*
X71551314Y-40346175D01*
X71599975Y-40185761D01*
X71599976Y-40185759D01*
X71599977Y-40185756D01*
X71678995Y-40037922D01*
X71785341Y-39908341D01*
X71914922Y-39801995D01*
X72062756Y-39722977D01*
X72062759Y-39722976D01*
X72062761Y-39722975D01*
X72223175Y-39674314D01*
X72223176Y-39674314D01*
X72223179Y-39674313D01*
X72348196Y-39662000D01*
X72431804Y-39662000D01*
X72556821Y-39674313D01*
X72556821Y-39674313D01*
G37*
G36*
X49696821Y-39674313D02*
X49696824Y-39674314D01*
X49696825Y-39674314D01*
X49857239Y-39722975D01*
X49857241Y-39722976D01*
X49857244Y-39722977D01*
X50005078Y-39801995D01*
X50134659Y-39908341D01*
X50241005Y-40037922D01*
X50320023Y-40185756D01*
X50320024Y-40185759D01*
X50320025Y-40185761D01*
X50368686Y-40346175D01*
X50368687Y-40346179D01*
X50385117Y-40513000D01*
X50368687Y-40679821D01*
X50368686Y-40679824D01*
X50368686Y-40679825D01*
X50327188Y-40816627D01*
X50320023Y-40840244D01*
X50241005Y-40988078D01*
X50134659Y-41117659D01*
X50005078Y-41224005D01*
X49857244Y-41303023D01*
X49857241Y-41303024D01*
X49857239Y-41303025D01*
X49696825Y-41351686D01*
X49696824Y-41351686D01*
X49696821Y-41351687D01*
X49571804Y-41364000D01*
X49488196Y-41364000D01*
X49363179Y-41351687D01*
X49363176Y-41351686D01*
X49363175Y-41351686D01*
X49202761Y-41303025D01*
X49202759Y-41303024D01*
X49202756Y-41303023D01*
X49054922Y-41224005D01*
X48925341Y-41117659D01*
X48818995Y-40988078D01*
X48739977Y-40840244D01*
X48732813Y-40816627D01*
X48691314Y-40679825D01*
X48691314Y-40679824D01*
X48691313Y-40679821D01*
X48674883Y-40513000D01*
X48691313Y-40346179D01*
X48691314Y-40346175D01*
X48739975Y-40185761D01*
X48739976Y-40185759D01*
X48739977Y-40185756D01*
X48818995Y-40037922D01*
X48925341Y-39908341D01*
X49054922Y-39801995D01*
X49202756Y-39722977D01*
X49202759Y-39722976D01*
X49202761Y-39722975D01*
X49363175Y-39674314D01*
X49363176Y-39674314D01*
X49363179Y-39674313D01*
X49488196Y-39662000D01*
X49571804Y-39662000D01*
X49696821Y-39674313D01*
X49696821Y-39674313D01*
G37*
G36*
X33765442Y-37205518D02*
X33831627Y-37212037D01*
X33944853Y-37246384D01*
X34001467Y-37263557D01*
X34140087Y-37337652D01*
X34157991Y-37347222D01*
X34193729Y-37376552D01*
X34295186Y-37459814D01*
X34378448Y-37561271D01*
X34407778Y-37597009D01*
X34407779Y-37597011D01*
X34491443Y-37753533D01*
X34491443Y-37753534D01*
X34542963Y-37923373D01*
X34560359Y-38100000D01*
X34542963Y-38276627D01*
X34508616Y-38389853D01*
X34491443Y-38446467D01*
X34417348Y-38585087D01*
X34407778Y-38602991D01*
X34378448Y-38638729D01*
X34295186Y-38740186D01*
X34193729Y-38823448D01*
X34157991Y-38852778D01*
X34157989Y-38852779D01*
X34001467Y-38936443D01*
X33944853Y-38953616D01*
X33831627Y-38987963D01*
X33765443Y-38994481D01*
X33699260Y-39001000D01*
X33610740Y-39001000D01*
X33544557Y-38994481D01*
X33478373Y-38987963D01*
X33365147Y-38953616D01*
X33308533Y-38936443D01*
X33152011Y-38852779D01*
X33152009Y-38852778D01*
X33116271Y-38823448D01*
X33014814Y-38740186D01*
X32931552Y-38638729D01*
X32902222Y-38602991D01*
X32892652Y-38585087D01*
X32818557Y-38446467D01*
X32801384Y-38389853D01*
X32767037Y-38276627D01*
X32749641Y-38100000D01*
X32767037Y-37923373D01*
X32818557Y-37753534D01*
X32818557Y-37753533D01*
X32902221Y-37597011D01*
X32902222Y-37597009D01*
X32931552Y-37561271D01*
X33014814Y-37459814D01*
X33116271Y-37376552D01*
X33152009Y-37347222D01*
X33169913Y-37337652D01*
X33308533Y-37263557D01*
X33365147Y-37246384D01*
X33478373Y-37212037D01*
X33544558Y-37205518D01*
X33610740Y-37199000D01*
X33699260Y-37199000D01*
X33765442Y-37205518D01*
X33765442Y-37205518D01*
G37*
G36*
X62541231Y-34534003D02*
X62735415Y-34614437D01*
X62910176Y-34731209D01*
X63058791Y-34879824D01*
X63175563Y-35054585D01*
X63255997Y-35248769D01*
X63297000Y-35454908D01*
X63297000Y-35665092D01*
X63255997Y-35871231D01*
X63175563Y-36065415D01*
X63058791Y-36240176D01*
X62910176Y-36388791D01*
X62735415Y-36505563D01*
X62541231Y-36585997D01*
X62335092Y-36627000D01*
X62124908Y-36627000D01*
X61918769Y-36585997D01*
X61724585Y-36505563D01*
X61549824Y-36388791D01*
X61401209Y-36240176D01*
X61284437Y-36065415D01*
X61204003Y-35871231D01*
X61163000Y-35665092D01*
X61163000Y-35454908D01*
X61204003Y-35248769D01*
X61284437Y-35054585D01*
X61401209Y-34879824D01*
X61549824Y-34731209D01*
X61724585Y-34614437D01*
X61918769Y-34534003D01*
X62124908Y-34493000D01*
X62335092Y-34493000D01*
X62541231Y-34534003D01*
X62541231Y-34534003D01*
G37*
G36*
X50597000Y-36627000D02*
X48463000Y-36627000D01*
X48463000Y-34493000D01*
X50597000Y-34493000D01*
X50597000Y-36627000D01*
X50597000Y-36627000D01*
G37*
G36*
X60001231Y-34534003D02*
X60195415Y-34614437D01*
X60370176Y-34731209D01*
X60518791Y-34879824D01*
X60635563Y-35054585D01*
X60715997Y-35248769D01*
X60757000Y-35454908D01*
X60757000Y-35665092D01*
X60715997Y-35871231D01*
X60635563Y-36065415D01*
X60518791Y-36240176D01*
X60370176Y-36388791D01*
X60195415Y-36505563D01*
X60001231Y-36585997D01*
X59795092Y-36627000D01*
X59584908Y-36627000D01*
X59378769Y-36585997D01*
X59184585Y-36505563D01*
X59009824Y-36388791D01*
X58861209Y-36240176D01*
X58744437Y-36065415D01*
X58664003Y-35871231D01*
X58623000Y-35665092D01*
X58623000Y-35454908D01*
X58664003Y-35248769D01*
X58744437Y-35054585D01*
X58861209Y-34879824D01*
X59009824Y-34731209D01*
X59184585Y-34614437D01*
X59378769Y-34534003D01*
X59584908Y-34493000D01*
X59795092Y-34493000D01*
X60001231Y-34534003D01*
X60001231Y-34534003D01*
G37*
G36*
X65081231Y-34534003D02*
X65275415Y-34614437D01*
X65450176Y-34731209D01*
X65598791Y-34879824D01*
X65715563Y-35054585D01*
X65795997Y-35248769D01*
X65837000Y-35454908D01*
X65837000Y-35665092D01*
X65795997Y-35871231D01*
X65715563Y-36065415D01*
X65598791Y-36240176D01*
X65450176Y-36388791D01*
X65275415Y-36505563D01*
X65081231Y-36585997D01*
X64875092Y-36627000D01*
X64664908Y-36627000D01*
X64458769Y-36585997D01*
X64264585Y-36505563D01*
X64089824Y-36388791D01*
X63941209Y-36240176D01*
X63824437Y-36065415D01*
X63744003Y-35871231D01*
X63703000Y-35665092D01*
X63703000Y-35454908D01*
X63744003Y-35248769D01*
X63824437Y-35054585D01*
X63941209Y-34879824D01*
X64089824Y-34731209D01*
X64264585Y-34614437D01*
X64458769Y-34534003D01*
X64664908Y-34493000D01*
X64875092Y-34493000D01*
X65081231Y-34534003D01*
X65081231Y-34534003D01*
G37*
G36*
X57461231Y-34534003D02*
X57655415Y-34614437D01*
X57830176Y-34731209D01*
X57978791Y-34879824D01*
X58095563Y-35054585D01*
X58175997Y-35248769D01*
X58217000Y-35454908D01*
X58217000Y-35665092D01*
X58175997Y-35871231D01*
X58095563Y-36065415D01*
X57978791Y-36240176D01*
X57830176Y-36388791D01*
X57655415Y-36505563D01*
X57461231Y-36585997D01*
X57255092Y-36627000D01*
X57044908Y-36627000D01*
X56838769Y-36585997D01*
X56644585Y-36505563D01*
X56469824Y-36388791D01*
X56321209Y-36240176D01*
X56204437Y-36065415D01*
X56124003Y-35871231D01*
X56083000Y-35665092D01*
X56083000Y-35454908D01*
X56124003Y-35248769D01*
X56204437Y-35054585D01*
X56321209Y-34879824D01*
X56469824Y-34731209D01*
X56644585Y-34614437D01*
X56838769Y-34534003D01*
X57044908Y-34493000D01*
X57255092Y-34493000D01*
X57461231Y-34534003D01*
X57461231Y-34534003D01*
G37*
G36*
X54921231Y-34534003D02*
X55115415Y-34614437D01*
X55290176Y-34731209D01*
X55438791Y-34879824D01*
X55555563Y-35054585D01*
X55635997Y-35248769D01*
X55677000Y-35454908D01*
X55677000Y-35665092D01*
X55635997Y-35871231D01*
X55555563Y-36065415D01*
X55438791Y-36240176D01*
X55290176Y-36388791D01*
X55115415Y-36505563D01*
X54921231Y-36585997D01*
X54715092Y-36627000D01*
X54504908Y-36627000D01*
X54298769Y-36585997D01*
X54104585Y-36505563D01*
X53929824Y-36388791D01*
X53781209Y-36240176D01*
X53664437Y-36065415D01*
X53584003Y-35871231D01*
X53543000Y-35665092D01*
X53543000Y-35454908D01*
X53584003Y-35248769D01*
X53664437Y-35054585D01*
X53781209Y-34879824D01*
X53929824Y-34731209D01*
X54104585Y-34614437D01*
X54298769Y-34534003D01*
X54504908Y-34493000D01*
X54715092Y-34493000D01*
X54921231Y-34534003D01*
X54921231Y-34534003D01*
G37*
G36*
X67621231Y-34534003D02*
X67815415Y-34614437D01*
X67990176Y-34731209D01*
X68138791Y-34879824D01*
X68255563Y-35054585D01*
X68335997Y-35248769D01*
X68377000Y-35454908D01*
X68377000Y-35665092D01*
X68335997Y-35871231D01*
X68255563Y-36065415D01*
X68138791Y-36240176D01*
X67990176Y-36388791D01*
X67815415Y-36505563D01*
X67621231Y-36585997D01*
X67415092Y-36627000D01*
X67204908Y-36627000D01*
X66998769Y-36585997D01*
X66804585Y-36505563D01*
X66629824Y-36388791D01*
X66481209Y-36240176D01*
X66364437Y-36065415D01*
X66284003Y-35871231D01*
X66243000Y-35665092D01*
X66243000Y-35454908D01*
X66284003Y-35248769D01*
X66364437Y-35054585D01*
X66481209Y-34879824D01*
X66629824Y-34731209D01*
X66804585Y-34614437D01*
X66998769Y-34534003D01*
X67204908Y-34493000D01*
X67415092Y-34493000D01*
X67621231Y-34534003D01*
X67621231Y-34534003D01*
G37*
G36*
X52381231Y-34534003D02*
X52575415Y-34614437D01*
X52750176Y-34731209D01*
X52898791Y-34879824D01*
X53015563Y-35054585D01*
X53095997Y-35248769D01*
X53137000Y-35454908D01*
X53137000Y-35665092D01*
X53095997Y-35871231D01*
X53015563Y-36065415D01*
X52898791Y-36240176D01*
X52750176Y-36388791D01*
X52575415Y-36505563D01*
X52381231Y-36585997D01*
X52175092Y-36627000D01*
X51964908Y-36627000D01*
X51758769Y-36585997D01*
X51564585Y-36505563D01*
X51389824Y-36388791D01*
X51241209Y-36240176D01*
X51124437Y-36065415D01*
X51044003Y-35871231D01*
X51003000Y-35665092D01*
X51003000Y-35454908D01*
X51044003Y-35248769D01*
X51124437Y-35054585D01*
X51241209Y-34879824D01*
X51389824Y-34731209D01*
X51564585Y-34614437D01*
X51758769Y-34534003D01*
X51964908Y-34493000D01*
X52175092Y-34493000D01*
X52381231Y-34534003D01*
X52381231Y-34534003D01*
G37*
G36*
X72701231Y-34534003D02*
X72895415Y-34614437D01*
X73070176Y-34731209D01*
X73218791Y-34879824D01*
X73335563Y-35054585D01*
X73415997Y-35248769D01*
X73457000Y-35454908D01*
X73457000Y-35665092D01*
X73415997Y-35871231D01*
X73335563Y-36065415D01*
X73218791Y-36240176D01*
X73070176Y-36388791D01*
X72895415Y-36505563D01*
X72701231Y-36585997D01*
X72495092Y-36627000D01*
X72284908Y-36627000D01*
X72078769Y-36585997D01*
X71884585Y-36505563D01*
X71709824Y-36388791D01*
X71561209Y-36240176D01*
X71444437Y-36065415D01*
X71364003Y-35871231D01*
X71323000Y-35665092D01*
X71323000Y-35454908D01*
X71364003Y-35248769D01*
X71444437Y-35054585D01*
X71561209Y-34879824D01*
X71709824Y-34731209D01*
X71884585Y-34614437D01*
X72078769Y-34534003D01*
X72284908Y-34493000D01*
X72495092Y-34493000D01*
X72701231Y-34534003D01*
X72701231Y-34534003D01*
G37*
G36*
X70161231Y-34534003D02*
X70355415Y-34614437D01*
X70530176Y-34731209D01*
X70678791Y-34879824D01*
X70795563Y-35054585D01*
X70875997Y-35248769D01*
X70917000Y-35454908D01*
X70917000Y-35665092D01*
X70875997Y-35871231D01*
X70795563Y-36065415D01*
X70678791Y-36240176D01*
X70530176Y-36388791D01*
X70355415Y-36505563D01*
X70161231Y-36585997D01*
X69955092Y-36627000D01*
X69744908Y-36627000D01*
X69538769Y-36585997D01*
X69344585Y-36505563D01*
X69169824Y-36388791D01*
X69021209Y-36240176D01*
X68904437Y-36065415D01*
X68824003Y-35871231D01*
X68783000Y-35665092D01*
X68783000Y-35454908D01*
X68824003Y-35248769D01*
X68904437Y-35054585D01*
X69021209Y-34879824D01*
X69169824Y-34731209D01*
X69344585Y-34614437D01*
X69538769Y-34534003D01*
X69744908Y-34493000D01*
X69955092Y-34493000D01*
X70161231Y-34534003D01*
X70161231Y-34534003D01*
G37*
G36*
X33765443Y-34665519D02*
X33831627Y-34672037D01*
X33944853Y-34706384D01*
X34001467Y-34723557D01*
X34140087Y-34797652D01*
X34157991Y-34807222D01*
X34193729Y-34836552D01*
X34295186Y-34919814D01*
X34378448Y-35021271D01*
X34407778Y-35057009D01*
X34407779Y-35057011D01*
X34491443Y-35213533D01*
X34508616Y-35270147D01*
X34542963Y-35383373D01*
X34560359Y-35560000D01*
X34542963Y-35736627D01*
X34508616Y-35849853D01*
X34491443Y-35906467D01*
X34417348Y-36045087D01*
X34407778Y-36062991D01*
X34378448Y-36098729D01*
X34295186Y-36200186D01*
X34193729Y-36283448D01*
X34157991Y-36312778D01*
X34157989Y-36312779D01*
X34001467Y-36396443D01*
X33944853Y-36413616D01*
X33831627Y-36447963D01*
X33765442Y-36454482D01*
X33699260Y-36461000D01*
X33610740Y-36461000D01*
X33544558Y-36454482D01*
X33478373Y-36447963D01*
X33365147Y-36413616D01*
X33308533Y-36396443D01*
X33152011Y-36312779D01*
X33152009Y-36312778D01*
X33116271Y-36283448D01*
X33014814Y-36200186D01*
X32931552Y-36098729D01*
X32902222Y-36062991D01*
X32892652Y-36045087D01*
X32818557Y-35906467D01*
X32801384Y-35849853D01*
X32767037Y-35736627D01*
X32749641Y-35560000D01*
X32767037Y-35383373D01*
X32801384Y-35270147D01*
X32818557Y-35213533D01*
X32902221Y-35057011D01*
X32902222Y-35057009D01*
X32931552Y-35021271D01*
X33014814Y-34919814D01*
X33116271Y-34836552D01*
X33152009Y-34807222D01*
X33169913Y-34797652D01*
X33308533Y-34723557D01*
X33365147Y-34706384D01*
X33478373Y-34672037D01*
X33544557Y-34665519D01*
X33610740Y-34659000D01*
X33699260Y-34659000D01*
X33765443Y-34665519D01*
X33765443Y-34665519D01*
G37*
G36*
X34556000Y-33921000D02*
X32754000Y-33921000D01*
X32754000Y-32119000D01*
X34556000Y-32119000D01*
X34556000Y-33921000D01*
X34556000Y-33921000D01*
G37*
G36*
X70161231Y-26914003D02*
X70355415Y-26994437D01*
X70530176Y-27111209D01*
X70678791Y-27259824D01*
X70795563Y-27434585D01*
X70875997Y-27628769D01*
X70917000Y-27834908D01*
X70917000Y-28045092D01*
X70875997Y-28251231D01*
X70795563Y-28445415D01*
X70678791Y-28620176D01*
X70530176Y-28768791D01*
X70355415Y-28885563D01*
X70161231Y-28965997D01*
X69955092Y-29007000D01*
X69744908Y-29007000D01*
X69538769Y-28965997D01*
X69344585Y-28885563D01*
X69169824Y-28768791D01*
X69021209Y-28620176D01*
X68904437Y-28445415D01*
X68824003Y-28251231D01*
X68783000Y-28045092D01*
X68783000Y-27834908D01*
X68824003Y-27628769D01*
X68904437Y-27434585D01*
X69021209Y-27259824D01*
X69169824Y-27111209D01*
X69344585Y-26994437D01*
X69538769Y-26914003D01*
X69744908Y-26873000D01*
X69955092Y-26873000D01*
X70161231Y-26914003D01*
X70161231Y-26914003D01*
G37*
G36*
X72701231Y-26914003D02*
X72895415Y-26994437D01*
X73070176Y-27111209D01*
X73218791Y-27259824D01*
X73335563Y-27434585D01*
X73415997Y-27628769D01*
X73457000Y-27834908D01*
X73457000Y-28045092D01*
X73415997Y-28251231D01*
X73335563Y-28445415D01*
X73218791Y-28620176D01*
X73070176Y-28768791D01*
X72895415Y-28885563D01*
X72701231Y-28965997D01*
X72495092Y-29007000D01*
X72284908Y-29007000D01*
X72078769Y-28965997D01*
X71884585Y-28885563D01*
X71709824Y-28768791D01*
X71561209Y-28620176D01*
X71444437Y-28445415D01*
X71364003Y-28251231D01*
X71323000Y-28045092D01*
X71323000Y-27834908D01*
X71364003Y-27628769D01*
X71444437Y-27434585D01*
X71561209Y-27259824D01*
X71709824Y-27111209D01*
X71884585Y-26994437D01*
X72078769Y-26914003D01*
X72284908Y-26873000D01*
X72495092Y-26873000D01*
X72701231Y-26914003D01*
X72701231Y-26914003D01*
G37*
G36*
X67621231Y-26914003D02*
X67815415Y-26994437D01*
X67990176Y-27111209D01*
X68138791Y-27259824D01*
X68255563Y-27434585D01*
X68335997Y-27628769D01*
X68377000Y-27834908D01*
X68377000Y-28045092D01*
X68335997Y-28251231D01*
X68255563Y-28445415D01*
X68138791Y-28620176D01*
X67990176Y-28768791D01*
X67815415Y-28885563D01*
X67621231Y-28965997D01*
X67415092Y-29007000D01*
X67204908Y-29007000D01*
X66998769Y-28965997D01*
X66804585Y-28885563D01*
X66629824Y-28768791D01*
X66481209Y-28620176D01*
X66364437Y-28445415D01*
X66284003Y-28251231D01*
X66243000Y-28045092D01*
X66243000Y-27834908D01*
X66284003Y-27628769D01*
X66364437Y-27434585D01*
X66481209Y-27259824D01*
X66629824Y-27111209D01*
X66804585Y-26994437D01*
X66998769Y-26914003D01*
X67204908Y-26873000D01*
X67415092Y-26873000D01*
X67621231Y-26914003D01*
X67621231Y-26914003D01*
G37*
G36*
X65081231Y-26914003D02*
X65275415Y-26994437D01*
X65450176Y-27111209D01*
X65598791Y-27259824D01*
X65715563Y-27434585D01*
X65795997Y-27628769D01*
X65837000Y-27834908D01*
X65837000Y-28045092D01*
X65795997Y-28251231D01*
X65715563Y-28445415D01*
X65598791Y-28620176D01*
X65450176Y-28768791D01*
X65275415Y-28885563D01*
X65081231Y-28965997D01*
X64875092Y-29007000D01*
X64664908Y-29007000D01*
X64458769Y-28965997D01*
X64264585Y-28885563D01*
X64089824Y-28768791D01*
X63941209Y-28620176D01*
X63824437Y-28445415D01*
X63744003Y-28251231D01*
X63703000Y-28045092D01*
X63703000Y-27834908D01*
X63744003Y-27628769D01*
X63824437Y-27434585D01*
X63941209Y-27259824D01*
X64089824Y-27111209D01*
X64264585Y-26994437D01*
X64458769Y-26914003D01*
X64664908Y-26873000D01*
X64875092Y-26873000D01*
X65081231Y-26914003D01*
X65081231Y-26914003D01*
G37*
G36*
X62541231Y-26914003D02*
X62735415Y-26994437D01*
X62910176Y-27111209D01*
X63058791Y-27259824D01*
X63175563Y-27434585D01*
X63255997Y-27628769D01*
X63297000Y-27834908D01*
X63297000Y-28045092D01*
X63255997Y-28251231D01*
X63175563Y-28445415D01*
X63058791Y-28620176D01*
X62910176Y-28768791D01*
X62735415Y-28885563D01*
X62541231Y-28965997D01*
X62335092Y-29007000D01*
X62124908Y-29007000D01*
X61918769Y-28965997D01*
X61724585Y-28885563D01*
X61549824Y-28768791D01*
X61401209Y-28620176D01*
X61284437Y-28445415D01*
X61204003Y-28251231D01*
X61163000Y-28045092D01*
X61163000Y-27834908D01*
X61204003Y-27628769D01*
X61284437Y-27434585D01*
X61401209Y-27259824D01*
X61549824Y-27111209D01*
X61724585Y-26994437D01*
X61918769Y-26914003D01*
X62124908Y-26873000D01*
X62335092Y-26873000D01*
X62541231Y-26914003D01*
X62541231Y-26914003D01*
G37*
G36*
X60001231Y-26914003D02*
X60195415Y-26994437D01*
X60370176Y-27111209D01*
X60518791Y-27259824D01*
X60635563Y-27434585D01*
X60715997Y-27628769D01*
X60757000Y-27834908D01*
X60757000Y-28045092D01*
X60715997Y-28251231D01*
X60635563Y-28445415D01*
X60518791Y-28620176D01*
X60370176Y-28768791D01*
X60195415Y-28885563D01*
X60001231Y-28965997D01*
X59795092Y-29007000D01*
X59584908Y-29007000D01*
X59378769Y-28965997D01*
X59184585Y-28885563D01*
X59009824Y-28768791D01*
X58861209Y-28620176D01*
X58744437Y-28445415D01*
X58664003Y-28251231D01*
X58623000Y-28045092D01*
X58623000Y-27834908D01*
X58664003Y-27628769D01*
X58744437Y-27434585D01*
X58861209Y-27259824D01*
X59009824Y-27111209D01*
X59184585Y-26994437D01*
X59378769Y-26914003D01*
X59584908Y-26873000D01*
X59795092Y-26873000D01*
X60001231Y-26914003D01*
X60001231Y-26914003D01*
G37*
G36*
X57461231Y-26914003D02*
X57655415Y-26994437D01*
X57830176Y-27111209D01*
X57978791Y-27259824D01*
X58095563Y-27434585D01*
X58175997Y-27628769D01*
X58217000Y-27834908D01*
X58217000Y-28045092D01*
X58175997Y-28251231D01*
X58095563Y-28445415D01*
X57978791Y-28620176D01*
X57830176Y-28768791D01*
X57655415Y-28885563D01*
X57461231Y-28965997D01*
X57255092Y-29007000D01*
X57044908Y-29007000D01*
X56838769Y-28965997D01*
X56644585Y-28885563D01*
X56469824Y-28768791D01*
X56321209Y-28620176D01*
X56204437Y-28445415D01*
X56124003Y-28251231D01*
X56083000Y-28045092D01*
X56083000Y-27834908D01*
X56124003Y-27628769D01*
X56204437Y-27434585D01*
X56321209Y-27259824D01*
X56469824Y-27111209D01*
X56644585Y-26994437D01*
X56838769Y-26914003D01*
X57044908Y-26873000D01*
X57255092Y-26873000D01*
X57461231Y-26914003D01*
X57461231Y-26914003D01*
G37*
G36*
X54921231Y-26914003D02*
X55115415Y-26994437D01*
X55290176Y-27111209D01*
X55438791Y-27259824D01*
X55555563Y-27434585D01*
X55635997Y-27628769D01*
X55677000Y-27834908D01*
X55677000Y-28045092D01*
X55635997Y-28251231D01*
X55555563Y-28445415D01*
X55438791Y-28620176D01*
X55290176Y-28768791D01*
X55115415Y-28885563D01*
X54921231Y-28965997D01*
X54715092Y-29007000D01*
X54504908Y-29007000D01*
X54298769Y-28965997D01*
X54104585Y-28885563D01*
X53929824Y-28768791D01*
X53781209Y-28620176D01*
X53664437Y-28445415D01*
X53584003Y-28251231D01*
X53543000Y-28045092D01*
X53543000Y-27834908D01*
X53584003Y-27628769D01*
X53664437Y-27434585D01*
X53781209Y-27259824D01*
X53929824Y-27111209D01*
X54104585Y-26994437D01*
X54298769Y-26914003D01*
X54504908Y-26873000D01*
X54715092Y-26873000D01*
X54921231Y-26914003D01*
X54921231Y-26914003D01*
G37*
G36*
X49841231Y-26914003D02*
X50035415Y-26994437D01*
X50210176Y-27111209D01*
X50358791Y-27259824D01*
X50475563Y-27434585D01*
X50555997Y-27628769D01*
X50597000Y-27834908D01*
X50597000Y-28045092D01*
X50555997Y-28251231D01*
X50475563Y-28445415D01*
X50358791Y-28620176D01*
X50210176Y-28768791D01*
X50035415Y-28885563D01*
X49841231Y-28965997D01*
X49635092Y-29007000D01*
X49424908Y-29007000D01*
X49218769Y-28965997D01*
X49024585Y-28885563D01*
X48849824Y-28768791D01*
X48701209Y-28620176D01*
X48584437Y-28445415D01*
X48504003Y-28251231D01*
X48463000Y-28045092D01*
X48463000Y-27834908D01*
X48504003Y-27628769D01*
X48584437Y-27434585D01*
X48701209Y-27259824D01*
X48849824Y-27111209D01*
X49024585Y-26994437D01*
X49218769Y-26914003D01*
X49424908Y-26873000D01*
X49635092Y-26873000D01*
X49841231Y-26914003D01*
X49841231Y-26914003D01*
G37*
G36*
X52381231Y-26914003D02*
X52575415Y-26994437D01*
X52750176Y-27111209D01*
X52898791Y-27259824D01*
X53015563Y-27434585D01*
X53095997Y-27628769D01*
X53137000Y-27834908D01*
X53137000Y-28045092D01*
X53095997Y-28251231D01*
X53015563Y-28445415D01*
X52898791Y-28620176D01*
X52750176Y-28768791D01*
X52575415Y-28885563D01*
X52381231Y-28965997D01*
X52175092Y-29007000D01*
X51964908Y-29007000D01*
X51758769Y-28965997D01*
X51564585Y-28885563D01*
X51389824Y-28768791D01*
X51241209Y-28620176D01*
X51124437Y-28445415D01*
X51044003Y-28251231D01*
X51003000Y-28045092D01*
X51003000Y-27834908D01*
X51044003Y-27628769D01*
X51124437Y-27434585D01*
X51241209Y-27259824D01*
X51389824Y-27111209D01*
X51564585Y-26994437D01*
X51758769Y-26914003D01*
X51964908Y-26873000D01*
X52175092Y-26873000D01*
X52381231Y-26914003D01*
X52381231Y-26914003D01*
G37*
G36*
X76945442Y-25775518D02*
X77011627Y-25782037D01*
X77124853Y-25816384D01*
X77181467Y-25833557D01*
X77320087Y-25907652D01*
X77337991Y-25917222D01*
X77373729Y-25946552D01*
X77475186Y-26029814D01*
X77558448Y-26131271D01*
X77587778Y-26167009D01*
X77587779Y-26167011D01*
X77671443Y-26323533D01*
X77671443Y-26323534D01*
X77722963Y-26493373D01*
X77740359Y-26670000D01*
X77722963Y-26846627D01*
X77702525Y-26914003D01*
X77671443Y-27016467D01*
X77597348Y-27155087D01*
X77587778Y-27172991D01*
X77558448Y-27208729D01*
X77475186Y-27310186D01*
X77373729Y-27393448D01*
X77337991Y-27422778D01*
X77337989Y-27422779D01*
X77181467Y-27506443D01*
X77124853Y-27523616D01*
X77011627Y-27557963D01*
X76945442Y-27564482D01*
X76879260Y-27571000D01*
X76790740Y-27571000D01*
X76724558Y-27564482D01*
X76658373Y-27557963D01*
X76545147Y-27523616D01*
X76488533Y-27506443D01*
X76332011Y-27422779D01*
X76332009Y-27422778D01*
X76296271Y-27393448D01*
X76194814Y-27310186D01*
X76111552Y-27208729D01*
X76082222Y-27172991D01*
X76072652Y-27155087D01*
X75998557Y-27016467D01*
X75967475Y-26914003D01*
X75947037Y-26846627D01*
X75929641Y-26670000D01*
X75947037Y-26493373D01*
X75998557Y-26323534D01*
X75998557Y-26323533D01*
X76082221Y-26167011D01*
X76082222Y-26167009D01*
X76111552Y-26131271D01*
X76194814Y-26029814D01*
X76296271Y-25946552D01*
X76332009Y-25917222D01*
X76349913Y-25907652D01*
X76488533Y-25833557D01*
X76545147Y-25816384D01*
X76658373Y-25782037D01*
X76724557Y-25775519D01*
X76790740Y-25769000D01*
X76879260Y-25769000D01*
X76945442Y-25775518D01*
X76945442Y-25775518D01*
G37*
G36*
X77736000Y-25031000D02*
X75934000Y-25031000D01*
X75934000Y-23229000D01*
X77736000Y-23229000D01*
X77736000Y-25031000D01*
X77736000Y-25031000D01*
G37*
G36*
X70016821Y-23291313D02*
X70016824Y-23291314D01*
X70016825Y-23291314D01*
X70177239Y-23339975D01*
X70177241Y-23339976D01*
X70177244Y-23339977D01*
X70325078Y-23418995D01*
X70454659Y-23525341D01*
X70561005Y-23654922D01*
X70640023Y-23802756D01*
X70688687Y-23963179D01*
X70705117Y-24130000D01*
X70688687Y-24296821D01*
X70640023Y-24457244D01*
X70561005Y-24605078D01*
X70454659Y-24734659D01*
X70325078Y-24841005D01*
X70177244Y-24920023D01*
X70177241Y-24920024D01*
X70177239Y-24920025D01*
X70016825Y-24968686D01*
X70016824Y-24968686D01*
X70016821Y-24968687D01*
X69891804Y-24981000D01*
X69808196Y-24981000D01*
X69683179Y-24968687D01*
X69683176Y-24968686D01*
X69683175Y-24968686D01*
X69522761Y-24920025D01*
X69522759Y-24920024D01*
X69522756Y-24920023D01*
X69374922Y-24841005D01*
X69245341Y-24734659D01*
X69138995Y-24605078D01*
X69059977Y-24457244D01*
X69011313Y-24296821D01*
X68994883Y-24130000D01*
X69011313Y-23963179D01*
X69059977Y-23802756D01*
X69138995Y-23654922D01*
X69245341Y-23525341D01*
X69374922Y-23418995D01*
X69522756Y-23339977D01*
X69522759Y-23339976D01*
X69522761Y-23339975D01*
X69683175Y-23291314D01*
X69683176Y-23291314D01*
X69683179Y-23291313D01*
X69808196Y-23279000D01*
X69891804Y-23279000D01*
X70016821Y-23291313D01*
X70016821Y-23291313D01*
G37*
G36*
X67476821Y-23291313D02*
X67476824Y-23291314D01*
X67476825Y-23291314D01*
X67637239Y-23339975D01*
X67637241Y-23339976D01*
X67637244Y-23339977D01*
X67785078Y-23418995D01*
X67914659Y-23525341D01*
X68021005Y-23654922D01*
X68100023Y-23802756D01*
X68148687Y-23963179D01*
X68165117Y-24130000D01*
X68148687Y-24296821D01*
X68100023Y-24457244D01*
X68021005Y-24605078D01*
X67914659Y-24734659D01*
X67785078Y-24841005D01*
X67637244Y-24920023D01*
X67637241Y-24920024D01*
X67637239Y-24920025D01*
X67476825Y-24968686D01*
X67476824Y-24968686D01*
X67476821Y-24968687D01*
X67351804Y-24981000D01*
X67268196Y-24981000D01*
X67143179Y-24968687D01*
X67143176Y-24968686D01*
X67143175Y-24968686D01*
X66982761Y-24920025D01*
X66982759Y-24920024D01*
X66982756Y-24920023D01*
X66834922Y-24841005D01*
X66705341Y-24734659D01*
X66598995Y-24605078D01*
X66519977Y-24457244D01*
X66471313Y-24296821D01*
X66454883Y-24130000D01*
X66471313Y-23963179D01*
X66519977Y-23802756D01*
X66598995Y-23654922D01*
X66705341Y-23525341D01*
X66834922Y-23418995D01*
X66982756Y-23339977D01*
X66982759Y-23339976D01*
X66982761Y-23339975D01*
X67143175Y-23291314D01*
X67143176Y-23291314D01*
X67143179Y-23291313D01*
X67268196Y-23279000D01*
X67351804Y-23279000D01*
X67476821Y-23291313D01*
X67476821Y-23291313D01*
G37*
G36*
X64936821Y-23291313D02*
X64936824Y-23291314D01*
X64936825Y-23291314D01*
X65097239Y-23339975D01*
X65097241Y-23339976D01*
X65097244Y-23339977D01*
X65245078Y-23418995D01*
X65374659Y-23525341D01*
X65481005Y-23654922D01*
X65560023Y-23802756D01*
X65608687Y-23963179D01*
X65625117Y-24130000D01*
X65608687Y-24296821D01*
X65560023Y-24457244D01*
X65481005Y-24605078D01*
X65374659Y-24734659D01*
X65245078Y-24841005D01*
X65097244Y-24920023D01*
X65097241Y-24920024D01*
X65097239Y-24920025D01*
X64936825Y-24968686D01*
X64936824Y-24968686D01*
X64936821Y-24968687D01*
X64811804Y-24981000D01*
X64728196Y-24981000D01*
X64603179Y-24968687D01*
X64603176Y-24968686D01*
X64603175Y-24968686D01*
X64442761Y-24920025D01*
X64442759Y-24920024D01*
X64442756Y-24920023D01*
X64294922Y-24841005D01*
X64165341Y-24734659D01*
X64058995Y-24605078D01*
X63979977Y-24457244D01*
X63931313Y-24296821D01*
X63914883Y-24130000D01*
X63931313Y-23963179D01*
X63979977Y-23802756D01*
X64058995Y-23654922D01*
X64165341Y-23525341D01*
X64294922Y-23418995D01*
X64442756Y-23339977D01*
X64442759Y-23339976D01*
X64442761Y-23339975D01*
X64603175Y-23291314D01*
X64603176Y-23291314D01*
X64603179Y-23291313D01*
X64728196Y-23279000D01*
X64811804Y-23279000D01*
X64936821Y-23291313D01*
X64936821Y-23291313D01*
G37*
G36*
X62396821Y-23291313D02*
X62396824Y-23291314D01*
X62396825Y-23291314D01*
X62557239Y-23339975D01*
X62557241Y-23339976D01*
X62557244Y-23339977D01*
X62705078Y-23418995D01*
X62834659Y-23525341D01*
X62941005Y-23654922D01*
X63020023Y-23802756D01*
X63068687Y-23963179D01*
X63085117Y-24130000D01*
X63068687Y-24296821D01*
X63020023Y-24457244D01*
X62941005Y-24605078D01*
X62834659Y-24734659D01*
X62705078Y-24841005D01*
X62557244Y-24920023D01*
X62557241Y-24920024D01*
X62557239Y-24920025D01*
X62396825Y-24968686D01*
X62396824Y-24968686D01*
X62396821Y-24968687D01*
X62271804Y-24981000D01*
X62188196Y-24981000D01*
X62063179Y-24968687D01*
X62063176Y-24968686D01*
X62063175Y-24968686D01*
X61902761Y-24920025D01*
X61902759Y-24920024D01*
X61902756Y-24920023D01*
X61754922Y-24841005D01*
X61625341Y-24734659D01*
X61518995Y-24605078D01*
X61439977Y-24457244D01*
X61391313Y-24296821D01*
X61374883Y-24130000D01*
X61391313Y-23963179D01*
X61439977Y-23802756D01*
X61518995Y-23654922D01*
X61625341Y-23525341D01*
X61754922Y-23418995D01*
X61902756Y-23339977D01*
X61902759Y-23339976D01*
X61902761Y-23339975D01*
X62063175Y-23291314D01*
X62063176Y-23291314D01*
X62063179Y-23291313D01*
X62188196Y-23279000D01*
X62271804Y-23279000D01*
X62396821Y-23291313D01*
X62396821Y-23291313D01*
G37*
G36*
X59856821Y-23291313D02*
X59856824Y-23291314D01*
X59856825Y-23291314D01*
X60017239Y-23339975D01*
X60017241Y-23339976D01*
X60017244Y-23339977D01*
X60165078Y-23418995D01*
X60294659Y-23525341D01*
X60401005Y-23654922D01*
X60480023Y-23802756D01*
X60528687Y-23963179D01*
X60545117Y-24130000D01*
X60528687Y-24296821D01*
X60480023Y-24457244D01*
X60401005Y-24605078D01*
X60294659Y-24734659D01*
X60165078Y-24841005D01*
X60017244Y-24920023D01*
X60017241Y-24920024D01*
X60017239Y-24920025D01*
X59856825Y-24968686D01*
X59856824Y-24968686D01*
X59856821Y-24968687D01*
X59731804Y-24981000D01*
X59648196Y-24981000D01*
X59523179Y-24968687D01*
X59523176Y-24968686D01*
X59523175Y-24968686D01*
X59362761Y-24920025D01*
X59362759Y-24920024D01*
X59362756Y-24920023D01*
X59214922Y-24841005D01*
X59085341Y-24734659D01*
X58978995Y-24605078D01*
X58899977Y-24457244D01*
X58851313Y-24296821D01*
X58834883Y-24130000D01*
X58851313Y-23963179D01*
X58899977Y-23802756D01*
X58978995Y-23654922D01*
X59085341Y-23525341D01*
X59214922Y-23418995D01*
X59362756Y-23339977D01*
X59362759Y-23339976D01*
X59362761Y-23339975D01*
X59523175Y-23291314D01*
X59523176Y-23291314D01*
X59523179Y-23291313D01*
X59648196Y-23279000D01*
X59731804Y-23279000D01*
X59856821Y-23291313D01*
X59856821Y-23291313D01*
G37*
G36*
X57316821Y-23291313D02*
X57316824Y-23291314D01*
X57316825Y-23291314D01*
X57477239Y-23339975D01*
X57477241Y-23339976D01*
X57477244Y-23339977D01*
X57625078Y-23418995D01*
X57754659Y-23525341D01*
X57861005Y-23654922D01*
X57940023Y-23802756D01*
X57988687Y-23963179D01*
X58005117Y-24130000D01*
X57988687Y-24296821D01*
X57940023Y-24457244D01*
X57861005Y-24605078D01*
X57754659Y-24734659D01*
X57625078Y-24841005D01*
X57477244Y-24920023D01*
X57477241Y-24920024D01*
X57477239Y-24920025D01*
X57316825Y-24968686D01*
X57316824Y-24968686D01*
X57316821Y-24968687D01*
X57191804Y-24981000D01*
X57108196Y-24981000D01*
X56983179Y-24968687D01*
X56983176Y-24968686D01*
X56983175Y-24968686D01*
X56822761Y-24920025D01*
X56822759Y-24920024D01*
X56822756Y-24920023D01*
X56674922Y-24841005D01*
X56545341Y-24734659D01*
X56438995Y-24605078D01*
X56359977Y-24457244D01*
X56311313Y-24296821D01*
X56294883Y-24130000D01*
X56311313Y-23963179D01*
X56359977Y-23802756D01*
X56438995Y-23654922D01*
X56545341Y-23525341D01*
X56674922Y-23418995D01*
X56822756Y-23339977D01*
X56822759Y-23339976D01*
X56822761Y-23339975D01*
X56983175Y-23291314D01*
X56983176Y-23291314D01*
X56983179Y-23291313D01*
X57108196Y-23279000D01*
X57191804Y-23279000D01*
X57316821Y-23291313D01*
X57316821Y-23291313D01*
G37*
G36*
X54776821Y-23291313D02*
X54776824Y-23291314D01*
X54776825Y-23291314D01*
X54937239Y-23339975D01*
X54937241Y-23339976D01*
X54937244Y-23339977D01*
X55085078Y-23418995D01*
X55214659Y-23525341D01*
X55321005Y-23654922D01*
X55400023Y-23802756D01*
X55448687Y-23963179D01*
X55465117Y-24130000D01*
X55448687Y-24296821D01*
X55400023Y-24457244D01*
X55321005Y-24605078D01*
X55214659Y-24734659D01*
X55085078Y-24841005D01*
X54937244Y-24920023D01*
X54937241Y-24920024D01*
X54937239Y-24920025D01*
X54776825Y-24968686D01*
X54776824Y-24968686D01*
X54776821Y-24968687D01*
X54651804Y-24981000D01*
X54568196Y-24981000D01*
X54443179Y-24968687D01*
X54443176Y-24968686D01*
X54443175Y-24968686D01*
X54282761Y-24920025D01*
X54282759Y-24920024D01*
X54282756Y-24920023D01*
X54134922Y-24841005D01*
X54005341Y-24734659D01*
X53898995Y-24605078D01*
X53819977Y-24457244D01*
X53771313Y-24296821D01*
X53754883Y-24130000D01*
X53771313Y-23963179D01*
X53819977Y-23802756D01*
X53898995Y-23654922D01*
X54005341Y-23525341D01*
X54134922Y-23418995D01*
X54282756Y-23339977D01*
X54282759Y-23339976D01*
X54282761Y-23339975D01*
X54443175Y-23291314D01*
X54443176Y-23291314D01*
X54443179Y-23291313D01*
X54568196Y-23279000D01*
X54651804Y-23279000D01*
X54776821Y-23291313D01*
X54776821Y-23291313D01*
G37*
G36*
X52236821Y-23291313D02*
X52236824Y-23291314D01*
X52236825Y-23291314D01*
X52397239Y-23339975D01*
X52397241Y-23339976D01*
X52397244Y-23339977D01*
X52545078Y-23418995D01*
X52674659Y-23525341D01*
X52781005Y-23654922D01*
X52860023Y-23802756D01*
X52908687Y-23963179D01*
X52925117Y-24130000D01*
X52908687Y-24296821D01*
X52860023Y-24457244D01*
X52781005Y-24605078D01*
X52674659Y-24734659D01*
X52545078Y-24841005D01*
X52397244Y-24920023D01*
X52397241Y-24920024D01*
X52397239Y-24920025D01*
X52236825Y-24968686D01*
X52236824Y-24968686D01*
X52236821Y-24968687D01*
X52111804Y-24981000D01*
X52028196Y-24981000D01*
X51903179Y-24968687D01*
X51903176Y-24968686D01*
X51903175Y-24968686D01*
X51742761Y-24920025D01*
X51742759Y-24920024D01*
X51742756Y-24920023D01*
X51594922Y-24841005D01*
X51465341Y-24734659D01*
X51358995Y-24605078D01*
X51279977Y-24457244D01*
X51231313Y-24296821D01*
X51214883Y-24130000D01*
X51231313Y-23963179D01*
X51279977Y-23802756D01*
X51358995Y-23654922D01*
X51465341Y-23525341D01*
X51594922Y-23418995D01*
X51742756Y-23339977D01*
X51742759Y-23339976D01*
X51742761Y-23339975D01*
X51903175Y-23291314D01*
X51903176Y-23291314D01*
X51903179Y-23291313D01*
X52028196Y-23279000D01*
X52111804Y-23279000D01*
X52236821Y-23291313D01*
X52236821Y-23291313D01*
G37*
G36*
X50381000Y-24981000D02*
X48679000Y-24981000D01*
X48679000Y-23279000D01*
X50381000Y-23279000D01*
X50381000Y-24981000D01*
X50381000Y-24981000D01*
G37*
M02*
