G04 #@! TF.GenerationSoftware,KiCad,Pcbnew,5.0.2+dfsg1-1*
G04 #@! TF.CreationDate,2019-07-26T08:48:25+02:00*
G04 #@! TF.ProjectId,Register,52656769-7374-4657-922e-6b696361645f,rev?*
G04 #@! TF.SameCoordinates,Original*
G04 #@! TF.FileFunction,Legend,Top*
G04 #@! TF.FilePolarity,Positive*
%FSLAX46Y46*%
G04 Gerber Fmt 4.6, Leading zero omitted, Abs format (unit mm)*
G04 Created by KiCad (PCBNEW 5.0.2+dfsg1-1) date vr 26 jul 2019 08:48:25 CEST*
%MOMM*%
%LPD*%
G01*
G04 APERTURE LIST*
%ADD10C,0.300000*%
%ADD11C,0.150000*%
%ADD12C,0.120000*%
G04 APERTURE END LIST*
D10*
X56828571Y-33035714D02*
X57257142Y-31892857D01*
X57685714Y-33035714D01*
X58328571Y-30821428D02*
X56185714Y-30821428D01*
D11*
X35201071Y-63839285D02*
X35201071Y-63089285D01*
X35379642Y-63089285D01*
X35486785Y-63125000D01*
X35558214Y-63196428D01*
X35593928Y-63267857D01*
X35629642Y-63410714D01*
X35629642Y-63517857D01*
X35593928Y-63660714D01*
X35558214Y-63732142D01*
X35486785Y-63803571D01*
X35379642Y-63839285D01*
X35201071Y-63839285D01*
X35879642Y-63089285D02*
X36379642Y-63089285D01*
X36058214Y-63839285D01*
X35201071Y-61299285D02*
X35201071Y-60549285D01*
X35379642Y-60549285D01*
X35486785Y-60585000D01*
X35558214Y-60656428D01*
X35593928Y-60727857D01*
X35629642Y-60870714D01*
X35629642Y-60977857D01*
X35593928Y-61120714D01*
X35558214Y-61192142D01*
X35486785Y-61263571D01*
X35379642Y-61299285D01*
X35201071Y-61299285D01*
X36272500Y-60549285D02*
X36129642Y-60549285D01*
X36058214Y-60585000D01*
X36022500Y-60620714D01*
X35951071Y-60727857D01*
X35915357Y-60870714D01*
X35915357Y-61156428D01*
X35951071Y-61227857D01*
X35986785Y-61263571D01*
X36058214Y-61299285D01*
X36201071Y-61299285D01*
X36272500Y-61263571D01*
X36308214Y-61227857D01*
X36343928Y-61156428D01*
X36343928Y-60977857D01*
X36308214Y-60906428D01*
X36272500Y-60870714D01*
X36201071Y-60835000D01*
X36058214Y-60835000D01*
X35986785Y-60870714D01*
X35951071Y-60906428D01*
X35915357Y-60977857D01*
X35201071Y-58759285D02*
X35201071Y-58009285D01*
X35379642Y-58009285D01*
X35486785Y-58045000D01*
X35558214Y-58116428D01*
X35593928Y-58187857D01*
X35629642Y-58330714D01*
X35629642Y-58437857D01*
X35593928Y-58580714D01*
X35558214Y-58652142D01*
X35486785Y-58723571D01*
X35379642Y-58759285D01*
X35201071Y-58759285D01*
X36308214Y-58009285D02*
X35951071Y-58009285D01*
X35915357Y-58366428D01*
X35951071Y-58330714D01*
X36022500Y-58295000D01*
X36201071Y-58295000D01*
X36272500Y-58330714D01*
X36308214Y-58366428D01*
X36343928Y-58437857D01*
X36343928Y-58616428D01*
X36308214Y-58687857D01*
X36272500Y-58723571D01*
X36201071Y-58759285D01*
X36022500Y-58759285D01*
X35951071Y-58723571D01*
X35915357Y-58687857D01*
X35201071Y-56219285D02*
X35201071Y-55469285D01*
X35379642Y-55469285D01*
X35486785Y-55505000D01*
X35558214Y-55576428D01*
X35593928Y-55647857D01*
X35629642Y-55790714D01*
X35629642Y-55897857D01*
X35593928Y-56040714D01*
X35558214Y-56112142D01*
X35486785Y-56183571D01*
X35379642Y-56219285D01*
X35201071Y-56219285D01*
X36272500Y-55719285D02*
X36272500Y-56219285D01*
X36093928Y-55433571D02*
X35915357Y-55969285D01*
X36379642Y-55969285D01*
X35201071Y-53679285D02*
X35201071Y-52929285D01*
X35379642Y-52929285D01*
X35486785Y-52965000D01*
X35558214Y-53036428D01*
X35593928Y-53107857D01*
X35629642Y-53250714D01*
X35629642Y-53357857D01*
X35593928Y-53500714D01*
X35558214Y-53572142D01*
X35486785Y-53643571D01*
X35379642Y-53679285D01*
X35201071Y-53679285D01*
X35879642Y-52929285D02*
X36343928Y-52929285D01*
X36093928Y-53215000D01*
X36201071Y-53215000D01*
X36272500Y-53250714D01*
X36308214Y-53286428D01*
X36343928Y-53357857D01*
X36343928Y-53536428D01*
X36308214Y-53607857D01*
X36272500Y-53643571D01*
X36201071Y-53679285D01*
X35986785Y-53679285D01*
X35915357Y-53643571D01*
X35879642Y-53607857D01*
X35201071Y-51139285D02*
X35201071Y-50389285D01*
X35379642Y-50389285D01*
X35486785Y-50425000D01*
X35558214Y-50496428D01*
X35593928Y-50567857D01*
X35629642Y-50710714D01*
X35629642Y-50817857D01*
X35593928Y-50960714D01*
X35558214Y-51032142D01*
X35486785Y-51103571D01*
X35379642Y-51139285D01*
X35201071Y-51139285D01*
X35915357Y-50460714D02*
X35951071Y-50425000D01*
X36022500Y-50389285D01*
X36201071Y-50389285D01*
X36272500Y-50425000D01*
X36308214Y-50460714D01*
X36343928Y-50532142D01*
X36343928Y-50603571D01*
X36308214Y-50710714D01*
X35879642Y-51139285D01*
X36343928Y-51139285D01*
X35201071Y-48599285D02*
X35201071Y-47849285D01*
X35379642Y-47849285D01*
X35486785Y-47885000D01*
X35558214Y-47956428D01*
X35593928Y-48027857D01*
X35629642Y-48170714D01*
X35629642Y-48277857D01*
X35593928Y-48420714D01*
X35558214Y-48492142D01*
X35486785Y-48563571D01*
X35379642Y-48599285D01*
X35201071Y-48599285D01*
X36343928Y-48599285D02*
X35915357Y-48599285D01*
X36129642Y-48599285D02*
X36129642Y-47849285D01*
X36058214Y-47956428D01*
X35986785Y-48027857D01*
X35915357Y-48063571D01*
X35201071Y-46059285D02*
X35201071Y-45309285D01*
X35379642Y-45309285D01*
X35486785Y-45345000D01*
X35558214Y-45416428D01*
X35593928Y-45487857D01*
X35629642Y-45630714D01*
X35629642Y-45737857D01*
X35593928Y-45880714D01*
X35558214Y-45952142D01*
X35486785Y-46023571D01*
X35379642Y-46059285D01*
X35201071Y-46059285D01*
X36093928Y-45309285D02*
X36165357Y-45309285D01*
X36236785Y-45345000D01*
X36272500Y-45380714D01*
X36308214Y-45452142D01*
X36343928Y-45595000D01*
X36343928Y-45773571D01*
X36308214Y-45916428D01*
X36272500Y-45987857D01*
X36236785Y-46023571D01*
X36165357Y-46059285D01*
X36093928Y-46059285D01*
X36022500Y-46023571D01*
X35986785Y-45987857D01*
X35951071Y-45916428D01*
X35915357Y-45773571D01*
X35915357Y-45595000D01*
X35951071Y-45452142D01*
X35986785Y-45380714D01*
X36022500Y-45345000D01*
X36093928Y-45309285D01*
X35629642Y-38367857D02*
X35593928Y-38403571D01*
X35486785Y-38439285D01*
X35415357Y-38439285D01*
X35308214Y-38403571D01*
X35236785Y-38332142D01*
X35201071Y-38260714D01*
X35165357Y-38117857D01*
X35165357Y-38010714D01*
X35201071Y-37867857D01*
X35236785Y-37796428D01*
X35308214Y-37725000D01*
X35415357Y-37689285D01*
X35486785Y-37689285D01*
X35593928Y-37725000D01*
X35629642Y-37760714D01*
X36308214Y-38439285D02*
X35951071Y-38439285D01*
X35951071Y-37689285D01*
X36701071Y-37689285D02*
X36843928Y-37689285D01*
X36915357Y-37725000D01*
X36986785Y-37796428D01*
X37022500Y-37939285D01*
X37022500Y-38189285D01*
X36986785Y-38332142D01*
X36915357Y-38403571D01*
X36843928Y-38439285D01*
X36701071Y-38439285D01*
X36629642Y-38403571D01*
X36558214Y-38332142D01*
X36522500Y-38189285D01*
X36522500Y-37939285D01*
X36558214Y-37796428D01*
X36629642Y-37725000D01*
X36701071Y-37689285D01*
X37772500Y-38367857D02*
X37736785Y-38403571D01*
X37629642Y-38439285D01*
X37558214Y-38439285D01*
X37451071Y-38403571D01*
X37379642Y-38332142D01*
X37343928Y-38260714D01*
X37308214Y-38117857D01*
X37308214Y-38010714D01*
X37343928Y-37867857D01*
X37379642Y-37796428D01*
X37451071Y-37725000D01*
X37558214Y-37689285D01*
X37629642Y-37689285D01*
X37736785Y-37725000D01*
X37772500Y-37760714D01*
X38093928Y-38439285D02*
X38093928Y-37689285D01*
X38522500Y-38439285D02*
X38201071Y-38010714D01*
X38522500Y-37689285D02*
X38093928Y-38117857D01*
X35022500Y-39977000D02*
X35672500Y-39977000D01*
X35177261Y-40934047D02*
X35177261Y-40284047D01*
X35332023Y-40284047D01*
X35424880Y-40315000D01*
X35486785Y-40376904D01*
X35517738Y-40438809D01*
X35548690Y-40562619D01*
X35548690Y-40655476D01*
X35517738Y-40779285D01*
X35486785Y-40841190D01*
X35424880Y-40903095D01*
X35332023Y-40934047D01*
X35177261Y-40934047D01*
X35672500Y-39977000D02*
X36229642Y-39977000D01*
X35796309Y-40748333D02*
X36105833Y-40748333D01*
X35734404Y-40934047D02*
X35951071Y-40284047D01*
X36167738Y-40934047D01*
X36229642Y-39977000D02*
X36724880Y-39977000D01*
X36291547Y-40284047D02*
X36662976Y-40284047D01*
X36477261Y-40934047D02*
X36477261Y-40284047D01*
X36724880Y-39977000D02*
X37282023Y-39977000D01*
X36848690Y-40748333D02*
X37158214Y-40748333D01*
X36786785Y-40934047D02*
X37003452Y-40284047D01*
X37220119Y-40934047D01*
X37282023Y-39977000D02*
X37777261Y-39977000D01*
X37282023Y-40995952D02*
X37777261Y-40995952D01*
X37777261Y-39977000D02*
X38303452Y-39977000D01*
X38241547Y-40934047D02*
X37932023Y-40934047D01*
X37932023Y-40284047D01*
X38303452Y-39977000D02*
X38984404Y-39977000D01*
X38582023Y-40284047D02*
X38705833Y-40284047D01*
X38767738Y-40315000D01*
X38829642Y-40376904D01*
X38860595Y-40500714D01*
X38860595Y-40717380D01*
X38829642Y-40841190D01*
X38767738Y-40903095D01*
X38705833Y-40934047D01*
X38582023Y-40934047D01*
X38520119Y-40903095D01*
X38458214Y-40841190D01*
X38427261Y-40717380D01*
X38427261Y-40500714D01*
X38458214Y-40376904D01*
X38520119Y-40315000D01*
X38582023Y-40284047D01*
X38984404Y-39977000D02*
X39541547Y-39977000D01*
X39108214Y-40748333D02*
X39417738Y-40748333D01*
X39046309Y-40934047D02*
X39262976Y-40284047D01*
X39479642Y-40934047D01*
X39541547Y-39977000D02*
X40191547Y-39977000D01*
X39696309Y-40934047D02*
X39696309Y-40284047D01*
X39851071Y-40284047D01*
X39943928Y-40315000D01*
X40005833Y-40376904D01*
X40036785Y-40438809D01*
X40067738Y-40562619D01*
X40067738Y-40655476D01*
X40036785Y-40779285D01*
X40005833Y-40841190D01*
X39943928Y-40903095D01*
X39851071Y-40934047D01*
X39696309Y-40934047D01*
X35022500Y-42445000D02*
X35772500Y-42445000D01*
X35201071Y-43519285D02*
X35201071Y-42769285D01*
X35379642Y-42769285D01*
X35486785Y-42805000D01*
X35558214Y-42876428D01*
X35593928Y-42947857D01*
X35629642Y-43090714D01*
X35629642Y-43197857D01*
X35593928Y-43340714D01*
X35558214Y-43412142D01*
X35486785Y-43483571D01*
X35379642Y-43519285D01*
X35201071Y-43519285D01*
X35772500Y-42445000D02*
X36415357Y-42445000D01*
X35915357Y-43305000D02*
X36272500Y-43305000D01*
X35843928Y-43519285D02*
X36093928Y-42769285D01*
X36343928Y-43519285D01*
X36415357Y-42445000D02*
X36986785Y-42445000D01*
X36486785Y-42769285D02*
X36915357Y-42769285D01*
X36701071Y-43519285D02*
X36701071Y-42769285D01*
X36986785Y-42445000D02*
X37629642Y-42445000D01*
X37129642Y-43305000D02*
X37486785Y-43305000D01*
X37058214Y-43519285D02*
X37308214Y-42769285D01*
X37558214Y-43519285D01*
X37629642Y-42445000D02*
X38201071Y-42445000D01*
X37629642Y-43590714D02*
X38201071Y-43590714D01*
X38201071Y-42445000D02*
X38986785Y-42445000D01*
X38522500Y-42769285D02*
X38665357Y-42769285D01*
X38736785Y-42805000D01*
X38808214Y-42876428D01*
X38843928Y-43019285D01*
X38843928Y-43269285D01*
X38808214Y-43412142D01*
X38736785Y-43483571D01*
X38665357Y-43519285D01*
X38522500Y-43519285D01*
X38451071Y-43483571D01*
X38379642Y-43412142D01*
X38343928Y-43269285D01*
X38343928Y-43019285D01*
X38379642Y-42876428D01*
X38451071Y-42805000D01*
X38522500Y-42769285D01*
X38986785Y-42445000D02*
X39772500Y-42445000D01*
X39165357Y-42769285D02*
X39165357Y-43376428D01*
X39201071Y-43447857D01*
X39236785Y-43483571D01*
X39308214Y-43519285D01*
X39451071Y-43519285D01*
X39522500Y-43483571D01*
X39558214Y-43447857D01*
X39593928Y-43376428D01*
X39593928Y-42769285D01*
X39772500Y-42445000D02*
X40343928Y-42445000D01*
X39843928Y-42769285D02*
X40272500Y-42769285D01*
X40058214Y-43519285D02*
X40058214Y-42769285D01*
X35593928Y-32645000D02*
X35522500Y-32609285D01*
X35415357Y-32609285D01*
X35308214Y-32645000D01*
X35236785Y-32716428D01*
X35201071Y-32787857D01*
X35165357Y-32930714D01*
X35165357Y-33037857D01*
X35201071Y-33180714D01*
X35236785Y-33252142D01*
X35308214Y-33323571D01*
X35415357Y-33359285D01*
X35486785Y-33359285D01*
X35593928Y-33323571D01*
X35629642Y-33287857D01*
X35629642Y-33037857D01*
X35486785Y-33037857D01*
X35951071Y-33359285D02*
X35951071Y-32609285D01*
X36379642Y-33359285D01*
X36379642Y-32609285D01*
X36736785Y-33359285D02*
X36736785Y-32609285D01*
X36915357Y-32609285D01*
X37022500Y-32645000D01*
X37093928Y-32716428D01*
X37129642Y-32787857D01*
X37165357Y-32930714D01*
X37165357Y-33037857D01*
X37129642Y-33180714D01*
X37093928Y-33252142D01*
X37022500Y-33323571D01*
X36915357Y-33359285D01*
X36736785Y-33359285D01*
X35201071Y-35613571D02*
X35772500Y-35613571D01*
X35486785Y-35899285D02*
X35486785Y-35327857D01*
X36486785Y-35149285D02*
X36129642Y-35149285D01*
X36093928Y-35506428D01*
X36129642Y-35470714D01*
X36201071Y-35435000D01*
X36379642Y-35435000D01*
X36451071Y-35470714D01*
X36486785Y-35506428D01*
X36522500Y-35577857D01*
X36522500Y-35756428D01*
X36486785Y-35827857D01*
X36451071Y-35863571D01*
X36379642Y-35899285D01*
X36201071Y-35899285D01*
X36129642Y-35863571D01*
X36093928Y-35827857D01*
X36736785Y-35149285D02*
X36986785Y-35899285D01*
X37236785Y-35149285D01*
D12*
G04 #@! TO.C,J3*
X74870000Y-22800000D02*
X76200000Y-22800000D01*
X74870000Y-24130000D02*
X74870000Y-22800000D01*
X74870000Y-25400000D02*
X77530000Y-25400000D01*
X77530000Y-25400000D02*
X77530000Y-28000000D01*
X74870000Y-25400000D02*
X74870000Y-28000000D01*
X74870000Y-28000000D02*
X77530000Y-28000000D01*
G04 #@! TO.C,J2*
X74870000Y-64830000D02*
X77530000Y-64830000D01*
X74870000Y-62230000D02*
X74870000Y-64830000D01*
X77530000Y-62230000D02*
X77530000Y-64830000D01*
X74870000Y-62230000D02*
X77530000Y-62230000D01*
X74870000Y-60960000D02*
X74870000Y-59630000D01*
X74870000Y-59630000D02*
X76200000Y-59630000D01*
G04 #@! TO.C,J1*
X32325000Y-64830000D02*
X34985000Y-64830000D01*
X32325000Y-34290000D02*
X32325000Y-64830000D01*
X34985000Y-34290000D02*
X34985000Y-64830000D01*
X32325000Y-34290000D02*
X34985000Y-34290000D01*
X32325000Y-33020000D02*
X32325000Y-31690000D01*
X32325000Y-31690000D02*
X33655000Y-31690000D01*
G04 #@! TO.C,BAR1*
X47830000Y-35560000D02*
X47830000Y-37260000D01*
X47830000Y-37260000D02*
X49530000Y-37260000D01*
X73800000Y-26530000D02*
X73800000Y-36970000D01*
X73800000Y-36970000D02*
X48120000Y-36970000D01*
X48120000Y-36970000D02*
X48120000Y-26530000D01*
X48120000Y-26530000D02*
X73800000Y-26530000D01*
G04 #@! TO.C,U2*
X73720000Y-39123000D02*
X63440000Y-39123000D01*
X73720000Y-64763000D02*
X73720000Y-39123000D01*
X63440000Y-64763000D02*
X73720000Y-64763000D01*
X63440000Y-39123000D02*
X63440000Y-64763000D01*
X71230000Y-39183000D02*
X69580000Y-39183000D01*
X71230000Y-64703000D02*
X71230000Y-39183000D01*
X65930000Y-64703000D02*
X71230000Y-64703000D01*
X65930000Y-39183000D02*
X65930000Y-64703000D01*
X67580000Y-39183000D02*
X65930000Y-39183000D01*
X69580000Y-39183000D02*
G75*
G02X67580000Y-39183000I-1000000J0D01*
G01*
G04 #@! TO.C,U1*
X46720000Y-39183000D02*
G75*
G02X44720000Y-39183000I-1000000J0D01*
G01*
X44720000Y-39183000D02*
X43070000Y-39183000D01*
X43070000Y-39183000D02*
X43070000Y-64703000D01*
X43070000Y-64703000D02*
X48370000Y-64703000D01*
X48370000Y-64703000D02*
X48370000Y-39183000D01*
X48370000Y-39183000D02*
X46720000Y-39183000D01*
X40580000Y-39123000D02*
X40580000Y-64763000D01*
X40580000Y-64763000D02*
X50860000Y-64763000D01*
X50860000Y-64763000D02*
X50860000Y-39123000D01*
X50860000Y-39123000D02*
X40580000Y-39123000D01*
G04 #@! TO.C,RN1*
X48090000Y-22730000D02*
X48090000Y-25530000D01*
X48090000Y-25530000D02*
X71290000Y-25530000D01*
X71290000Y-25530000D02*
X71290000Y-22730000D01*
X71290000Y-22730000D02*
X48090000Y-22730000D01*
X50800000Y-22730000D02*
X50800000Y-25530000D01*
G04 #@! TO.C,J3*
D11*
X75866666Y-21252380D02*
X75866666Y-21966666D01*
X75819047Y-22109523D01*
X75723809Y-22204761D01*
X75580952Y-22252380D01*
X75485714Y-22252380D01*
X76247619Y-21252380D02*
X76866666Y-21252380D01*
X76533333Y-21633333D01*
X76676190Y-21633333D01*
X76771428Y-21680952D01*
X76819047Y-21728571D01*
X76866666Y-21823809D01*
X76866666Y-22061904D01*
X76819047Y-22157142D01*
X76771428Y-22204761D01*
X76676190Y-22252380D01*
X76390476Y-22252380D01*
X76295238Y-22204761D01*
X76247619Y-22157142D01*
G04 #@! TO.C,J2*
X75866666Y-58082380D02*
X75866666Y-58796666D01*
X75819047Y-58939523D01*
X75723809Y-59034761D01*
X75580952Y-59082380D01*
X75485714Y-59082380D01*
X76295238Y-58177619D02*
X76342857Y-58130000D01*
X76438095Y-58082380D01*
X76676190Y-58082380D01*
X76771428Y-58130000D01*
X76819047Y-58177619D01*
X76866666Y-58272857D01*
X76866666Y-58368095D01*
X76819047Y-58510952D01*
X76247619Y-59082380D01*
X76866666Y-59082380D01*
G04 #@! TO.C,J1*
X33321666Y-30142380D02*
X33321666Y-30856666D01*
X33274047Y-30999523D01*
X33178809Y-31094761D01*
X33035952Y-31142380D01*
X32940714Y-31142380D01*
X34321666Y-31142380D02*
X33750238Y-31142380D01*
X34035952Y-31142380D02*
X34035952Y-30142380D01*
X33940714Y-30285238D01*
X33845476Y-30380476D01*
X33750238Y-30428095D01*
G04 #@! TO.C,BAR1*
X60888571Y-33083333D02*
X60936190Y-32940476D01*
X60983809Y-32892857D01*
X61079047Y-32845238D01*
X61221904Y-32845238D01*
X61317142Y-32892857D01*
X61364761Y-32940476D01*
X61412380Y-33035714D01*
X61412380Y-33416666D01*
X60412380Y-33416666D01*
X60412380Y-33083333D01*
X60460000Y-32988095D01*
X60507619Y-32940476D01*
X60602857Y-32892857D01*
X60698095Y-32892857D01*
X60793333Y-32940476D01*
X60840952Y-32988095D01*
X60888571Y-33083333D01*
X60888571Y-33416666D01*
X61126666Y-32464285D02*
X61126666Y-31988095D01*
X61412380Y-32559523D02*
X60412380Y-32226190D01*
X61412380Y-31892857D01*
X61412380Y-30988095D02*
X60936190Y-31321428D01*
X61412380Y-31559523D02*
X60412380Y-31559523D01*
X60412380Y-31178571D01*
X60460000Y-31083333D01*
X60507619Y-31035714D01*
X60602857Y-30988095D01*
X60745714Y-30988095D01*
X60840952Y-31035714D01*
X60888571Y-31083333D01*
X60936190Y-31178571D01*
X60936190Y-31559523D01*
X61412380Y-30035714D02*
X61412380Y-30607142D01*
X61412380Y-30321428D02*
X60412380Y-30321428D01*
X60555238Y-30416666D01*
X60650476Y-30511904D01*
X60698095Y-30607142D01*
G04 #@! TO.C,U2*
X67818095Y-51395380D02*
X67818095Y-52204904D01*
X67865714Y-52300142D01*
X67913333Y-52347761D01*
X68008571Y-52395380D01*
X68199047Y-52395380D01*
X68294285Y-52347761D01*
X68341904Y-52300142D01*
X68389523Y-52204904D01*
X68389523Y-51395380D01*
X68818095Y-51490619D02*
X68865714Y-51443000D01*
X68960952Y-51395380D01*
X69199047Y-51395380D01*
X69294285Y-51443000D01*
X69341904Y-51490619D01*
X69389523Y-51585857D01*
X69389523Y-51681095D01*
X69341904Y-51823952D01*
X68770476Y-52395380D01*
X69389523Y-52395380D01*
X65460952Y-65155380D02*
X66127619Y-65155380D01*
X65699047Y-66155380D01*
X66937142Y-65488714D02*
X66937142Y-66155380D01*
X66699047Y-65107761D02*
X66460952Y-65822047D01*
X67080000Y-65822047D01*
X67937142Y-66155380D02*
X67460952Y-66155380D01*
X67460952Y-65155380D01*
X68222857Y-66107761D02*
X68365714Y-66155380D01*
X68603809Y-66155380D01*
X68699047Y-66107761D01*
X68746666Y-66060142D01*
X68794285Y-65964904D01*
X68794285Y-65869666D01*
X68746666Y-65774428D01*
X68699047Y-65726809D01*
X68603809Y-65679190D01*
X68413333Y-65631571D01*
X68318095Y-65583952D01*
X68270476Y-65536333D01*
X68222857Y-65441095D01*
X68222857Y-65345857D01*
X68270476Y-65250619D01*
X68318095Y-65203000D01*
X68413333Y-65155380D01*
X68651428Y-65155380D01*
X68794285Y-65203000D01*
X69175238Y-65250619D02*
X69222857Y-65203000D01*
X69318095Y-65155380D01*
X69556190Y-65155380D01*
X69651428Y-65203000D01*
X69699047Y-65250619D01*
X69746666Y-65345857D01*
X69746666Y-65441095D01*
X69699047Y-65583952D01*
X69127619Y-66155380D01*
X69746666Y-66155380D01*
X70603809Y-65488714D02*
X70603809Y-66155380D01*
X70365714Y-65107761D02*
X70127619Y-65822047D01*
X70746666Y-65822047D01*
X71603809Y-65155380D02*
X71127619Y-65155380D01*
X71080000Y-65631571D01*
X71127619Y-65583952D01*
X71222857Y-65536333D01*
X71460952Y-65536333D01*
X71556190Y-65583952D01*
X71603809Y-65631571D01*
X71651428Y-65726809D01*
X71651428Y-65964904D01*
X71603809Y-66060142D01*
X71556190Y-66107761D01*
X71460952Y-66155380D01*
X71222857Y-66155380D01*
X71127619Y-66107761D01*
X71080000Y-66060142D01*
G04 #@! TO.C,U1*
X44958095Y-51395380D02*
X44958095Y-52204904D01*
X45005714Y-52300142D01*
X45053333Y-52347761D01*
X45148571Y-52395380D01*
X45339047Y-52395380D01*
X45434285Y-52347761D01*
X45481904Y-52300142D01*
X45529523Y-52204904D01*
X45529523Y-51395380D01*
X46529523Y-52395380D02*
X45958095Y-52395380D01*
X46243809Y-52395380D02*
X46243809Y-51395380D01*
X46148571Y-51538238D01*
X46053333Y-51633476D01*
X45958095Y-51681095D01*
X42315238Y-65155380D02*
X42981904Y-65155380D01*
X42553333Y-66155380D01*
X43791428Y-65488714D02*
X43791428Y-66155380D01*
X43553333Y-65107761D02*
X43315238Y-65822047D01*
X43934285Y-65822047D01*
X44791428Y-66155380D02*
X44315238Y-66155380D01*
X44315238Y-65155380D01*
X45077142Y-66107761D02*
X45220000Y-66155380D01*
X45458095Y-66155380D01*
X45553333Y-66107761D01*
X45600952Y-66060142D01*
X45648571Y-65964904D01*
X45648571Y-65869666D01*
X45600952Y-65774428D01*
X45553333Y-65726809D01*
X45458095Y-65679190D01*
X45267619Y-65631571D01*
X45172380Y-65583952D01*
X45124761Y-65536333D01*
X45077142Y-65441095D01*
X45077142Y-65345857D01*
X45124761Y-65250619D01*
X45172380Y-65203000D01*
X45267619Y-65155380D01*
X45505714Y-65155380D01*
X45648571Y-65203000D01*
X45981904Y-65155380D02*
X46600952Y-65155380D01*
X46267619Y-65536333D01*
X46410476Y-65536333D01*
X46505714Y-65583952D01*
X46553333Y-65631571D01*
X46600952Y-65726809D01*
X46600952Y-65964904D01*
X46553333Y-66060142D01*
X46505714Y-66107761D01*
X46410476Y-66155380D01*
X46124761Y-66155380D01*
X46029523Y-66107761D01*
X45981904Y-66060142D01*
X46934285Y-65155380D02*
X47600952Y-65155380D01*
X47172380Y-66155380D01*
X47886666Y-65155380D02*
X48553333Y-65155380D01*
X48124761Y-66155380D01*
X48791428Y-65488714D02*
X49172380Y-65488714D01*
X48934285Y-66155380D02*
X48934285Y-65298238D01*
X48981904Y-65203000D01*
X49077142Y-65155380D01*
X49172380Y-65155380D01*
G04 #@! TO.C,RN1*
X60269523Y-22182380D02*
X59936190Y-21706190D01*
X59698095Y-22182380D02*
X59698095Y-21182380D01*
X60079047Y-21182380D01*
X60174285Y-21230000D01*
X60221904Y-21277619D01*
X60269523Y-21372857D01*
X60269523Y-21515714D01*
X60221904Y-21610952D01*
X60174285Y-21658571D01*
X60079047Y-21706190D01*
X59698095Y-21706190D01*
X60698095Y-22182380D02*
X60698095Y-21182380D01*
X61269523Y-22182380D01*
X61269523Y-21182380D01*
X62269523Y-22182380D02*
X61698095Y-22182380D01*
X61983809Y-22182380D02*
X61983809Y-21182380D01*
X61888571Y-21325238D01*
X61793333Y-21420476D01*
X61698095Y-21468095D01*
G04 #@! TD*
M02*
