G04 #@! TF.GenerationSoftware,KiCad,Pcbnew,5.0.2+dfsg1-1*
G04 #@! TF.CreationDate,2019-07-29T21:31:30+02:00*
G04 #@! TF.ProjectId,Register,52656769-7374-4657-922e-6b696361645f,rev?*
G04 #@! TF.SameCoordinates,Original*
G04 #@! TF.FileFunction,Copper,L2,Bot*
G04 #@! TF.FilePolarity,Positive*
%FSLAX46Y46*%
G04 Gerber Fmt 4.6, Leading zero omitted, Abs format (unit mm)*
G04 Created by KiCad (PCBNEW 5.0.2+dfsg1-1) date ma 29 jul 2019 21:31:30 CEST*
%MOMM*%
%LPD*%
G01*
G04 APERTURE LIST*
G04 #@! TA.AperFunction,ComponentPad*
%ADD10O,1.700000X1.700000*%
G04 #@! TD*
G04 #@! TA.AperFunction,ComponentPad*
%ADD11R,1.700000X1.700000*%
G04 #@! TD*
G04 #@! TA.AperFunction,ComponentPad*
%ADD12R,2.032000X2.032000*%
G04 #@! TD*
G04 #@! TA.AperFunction,ComponentPad*
%ADD13C,2.032000*%
G04 #@! TD*
G04 #@! TA.AperFunction,ComponentPad*
%ADD14O,1.600000X1.600000*%
G04 #@! TD*
G04 #@! TA.AperFunction,ComponentPad*
%ADD15R,1.600000X1.600000*%
G04 #@! TD*
G04 #@! TA.AperFunction,ViaPad*
%ADD16C,0.800000*%
G04 #@! TD*
G04 #@! TA.AperFunction,Conductor*
%ADD17C,0.250000*%
G04 #@! TD*
G04 #@! TA.AperFunction,Conductor*
%ADD18C,0.350000*%
G04 #@! TD*
G04 #@! TA.AperFunction,Conductor*
%ADD19C,0.254000*%
G04 #@! TD*
G04 APERTURE END LIST*
D10*
G04 #@! TO.P,J3,2*
G04 #@! TO.N,Net-(J3-Pad2)*
X76835000Y-26670000D03*
D11*
G04 #@! TO.P,J3,1*
G04 #@! TO.N,Net-(J3-Pad1)*
X76835000Y-24130000D03*
G04 #@! TD*
G04 #@! TO.P,J2,1*
G04 #@! TO.N,Net-(J2-Pad1)*
X76835000Y-60960000D03*
D10*
G04 #@! TO.P,J2,2*
G04 #@! TO.N,Net-(J2-Pad2)*
X76835000Y-63500000D03*
G04 #@! TD*
D11*
G04 #@! TO.P,J1,1*
G04 #@! TO.N,GND*
X33655000Y-33020000D03*
D10*
G04 #@! TO.P,J1,2*
G04 #@! TO.N,+5V*
X33655000Y-35560000D03*
G04 #@! TO.P,J1,3*
G04 #@! TO.N,CLOCK*
X33655000Y-38100000D03*
G04 #@! TO.P,J1,4*
G04 #@! TO.N,~DATA_LOAD*
X33655000Y-40640000D03*
G04 #@! TO.P,J1,5*
G04 #@! TO.N,~DATA_OUT*
X33655000Y-43180000D03*
G04 #@! TO.P,J1,6*
G04 #@! TO.N,Net-(J1-Pad6)*
X33655000Y-45720000D03*
G04 #@! TO.P,J1,7*
G04 #@! TO.N,Net-(J1-Pad7)*
X33655000Y-48260000D03*
G04 #@! TO.P,J1,8*
G04 #@! TO.N,Net-(J1-Pad8)*
X33655000Y-50800000D03*
G04 #@! TO.P,J1,9*
G04 #@! TO.N,Net-(J1-Pad9)*
X33655000Y-53340000D03*
G04 #@! TO.P,J1,10*
G04 #@! TO.N,Net-(J1-Pad10)*
X33655000Y-55880000D03*
G04 #@! TO.P,J1,11*
G04 #@! TO.N,Net-(J1-Pad11)*
X33655000Y-58420000D03*
G04 #@! TO.P,J1,12*
G04 #@! TO.N,Net-(J1-Pad12)*
X33655000Y-60960000D03*
G04 #@! TO.P,J1,13*
G04 #@! TO.N,Net-(J1-Pad13)*
X33655000Y-63500000D03*
G04 #@! TD*
D12*
G04 #@! TO.P,BAR1,1*
G04 #@! TO.N,Net-(BAR1-Pad1)*
X49530000Y-35560000D03*
D13*
G04 #@! TO.P,BAR1,2*
G04 #@! TO.N,Net-(BAR1-Pad2)*
X52070000Y-35560000D03*
G04 #@! TO.P,BAR1,3*
G04 #@! TO.N,Net-(BAR1-Pad3)*
X54610000Y-35560000D03*
G04 #@! TO.P,BAR1,4*
G04 #@! TO.N,Net-(BAR1-Pad4)*
X57150000Y-35560000D03*
G04 #@! TO.P,BAR1,13*
G04 #@! TO.N,Net-(BAR1-Pad13)*
X67310000Y-27940000D03*
G04 #@! TO.P,BAR1,14*
G04 #@! TO.N,Net-(BAR1-Pad14)*
X64770000Y-27940000D03*
G04 #@! TO.P,BAR1,15*
G04 #@! TO.N,Net-(BAR1-Pad15)*
X62230000Y-27940000D03*
G04 #@! TO.P,BAR1,16*
G04 #@! TO.N,Net-(BAR1-Pad16)*
X59690000Y-27940000D03*
G04 #@! TO.P,BAR1,5*
G04 #@! TO.N,Net-(BAR1-Pad5)*
X59690000Y-35560000D03*
G04 #@! TO.P,BAR1,6*
G04 #@! TO.N,Net-(BAR1-Pad6)*
X62230000Y-35560000D03*
G04 #@! TO.P,BAR1,7*
G04 #@! TO.N,Net-(BAR1-Pad7)*
X64770000Y-35560000D03*
G04 #@! TO.P,BAR1,8*
G04 #@! TO.N,Net-(BAR1-Pad8)*
X67310000Y-35560000D03*
G04 #@! TO.P,BAR1,12*
G04 #@! TO.N,Net-(BAR1-Pad12)*
X69850000Y-27940000D03*
G04 #@! TO.P,BAR1,11*
G04 #@! TO.N,Net-(BAR1-Pad11)*
X72390000Y-27940000D03*
G04 #@! TO.P,BAR1,10*
G04 #@! TO.N,Net-(BAR1-Pad10)*
X72390000Y-35560000D03*
G04 #@! TO.P,BAR1,9*
G04 #@! TO.N,Net-(BAR1-Pad9)*
X69850000Y-35560000D03*
G04 #@! TO.P,BAR1,17*
G04 #@! TO.N,Net-(BAR1-Pad17)*
X57150000Y-27940000D03*
G04 #@! TO.P,BAR1,18*
G04 #@! TO.N,Net-(BAR1-Pad18)*
X54610000Y-27940000D03*
G04 #@! TO.P,BAR1,19*
G04 #@! TO.N,Net-(BAR1-Pad19)*
X52070000Y-27940000D03*
G04 #@! TO.P,BAR1,20*
G04 #@! TO.N,Net-(BAR1-Pad20)*
X49530000Y-27940000D03*
G04 #@! TD*
D14*
G04 #@! TO.P,U2,20*
G04 #@! TO.N,+5V*
X72390000Y-40513000D03*
G04 #@! TO.P,U2,10*
G04 #@! TO.N,GND*
X64770000Y-63373000D03*
G04 #@! TO.P,U2,19*
G04 #@! TO.N,~DATA_OUT*
X72390000Y-43053000D03*
G04 #@! TO.P,U2,9*
G04 #@! TO.N,Net-(BAR1-Pad2)*
X64770000Y-60833000D03*
G04 #@! TO.P,U2,18*
G04 #@! TO.N,Net-(J1-Pad6)*
X72390000Y-45593000D03*
G04 #@! TO.P,U2,8*
G04 #@! TO.N,Net-(BAR1-Pad3)*
X64770000Y-58293000D03*
G04 #@! TO.P,U2,17*
G04 #@! TO.N,Net-(J1-Pad7)*
X72390000Y-48133000D03*
G04 #@! TO.P,U2,7*
G04 #@! TO.N,Net-(BAR1-Pad4)*
X64770000Y-55753000D03*
G04 #@! TO.P,U2,16*
G04 #@! TO.N,Net-(J1-Pad8)*
X72390000Y-50673000D03*
G04 #@! TO.P,U2,6*
G04 #@! TO.N,Net-(BAR1-Pad5)*
X64770000Y-53213000D03*
G04 #@! TO.P,U2,15*
G04 #@! TO.N,Net-(J1-Pad9)*
X72390000Y-53213000D03*
G04 #@! TO.P,U2,5*
G04 #@! TO.N,Net-(BAR1-Pad6)*
X64770000Y-50673000D03*
G04 #@! TO.P,U2,14*
G04 #@! TO.N,Net-(J1-Pad10)*
X72390000Y-55753000D03*
G04 #@! TO.P,U2,4*
G04 #@! TO.N,Net-(BAR1-Pad7)*
X64770000Y-48133000D03*
G04 #@! TO.P,U2,13*
G04 #@! TO.N,Net-(J1-Pad11)*
X72390000Y-58293000D03*
G04 #@! TO.P,U2,3*
G04 #@! TO.N,Net-(BAR1-Pad8)*
X64770000Y-45593000D03*
G04 #@! TO.P,U2,12*
G04 #@! TO.N,Net-(J1-Pad12)*
X72390000Y-60833000D03*
G04 #@! TO.P,U2,2*
G04 #@! TO.N,Net-(BAR1-Pad9)*
X64770000Y-43053000D03*
G04 #@! TO.P,U2,11*
G04 #@! TO.N,Net-(J1-Pad13)*
X72390000Y-63373000D03*
D15*
G04 #@! TO.P,U2,1*
G04 #@! TO.N,+5V*
X64770000Y-40513000D03*
G04 #@! TD*
G04 #@! TO.P,U1,1*
G04 #@! TO.N,~DATA_LOAD*
X41910000Y-40513000D03*
D14*
G04 #@! TO.P,U1,11*
G04 #@! TO.N,CLOCK*
X49530000Y-63373000D03*
G04 #@! TO.P,U1,2*
G04 #@! TO.N,Net-(BAR1-Pad9)*
X41910000Y-43053000D03*
G04 #@! TO.P,U1,12*
G04 #@! TO.N,Net-(BAR1-Pad5)*
X49530000Y-60833000D03*
G04 #@! TO.P,U1,3*
G04 #@! TO.N,Net-(J1-Pad6)*
X41910000Y-45593000D03*
G04 #@! TO.P,U1,13*
G04 #@! TO.N,Net-(J1-Pad10)*
X49530000Y-58293000D03*
G04 #@! TO.P,U1,4*
G04 #@! TO.N,Net-(J1-Pad7)*
X41910000Y-48133000D03*
G04 #@! TO.P,U1,14*
G04 #@! TO.N,Net-(J1-Pad11)*
X49530000Y-55753000D03*
G04 #@! TO.P,U1,5*
G04 #@! TO.N,Net-(BAR1-Pad8)*
X41910000Y-50673000D03*
G04 #@! TO.P,U1,15*
G04 #@! TO.N,Net-(BAR1-Pad4)*
X49530000Y-53213000D03*
G04 #@! TO.P,U1,6*
G04 #@! TO.N,Net-(BAR1-Pad7)*
X41910000Y-53213000D03*
G04 #@! TO.P,U1,16*
G04 #@! TO.N,Net-(BAR1-Pad3)*
X49530000Y-50673000D03*
G04 #@! TO.P,U1,7*
G04 #@! TO.N,Net-(J1-Pad8)*
X41910000Y-55753000D03*
G04 #@! TO.P,U1,17*
G04 #@! TO.N,Net-(J1-Pad12)*
X49530000Y-48133000D03*
G04 #@! TO.P,U1,8*
G04 #@! TO.N,Net-(J1-Pad9)*
X41910000Y-58293000D03*
G04 #@! TO.P,U1,18*
G04 #@! TO.N,Net-(J1-Pad13)*
X49530000Y-45593000D03*
G04 #@! TO.P,U1,9*
G04 #@! TO.N,Net-(BAR1-Pad6)*
X41910000Y-60833000D03*
G04 #@! TO.P,U1,19*
G04 #@! TO.N,Net-(BAR1-Pad2)*
X49530000Y-43053000D03*
G04 #@! TO.P,U1,10*
G04 #@! TO.N,GND*
X41910000Y-63373000D03*
G04 #@! TO.P,U1,20*
G04 #@! TO.N,+5V*
X49530000Y-40513000D03*
G04 #@! TD*
D15*
G04 #@! TO.P,RN1,1*
G04 #@! TO.N,GND*
X49530000Y-24130000D03*
D14*
G04 #@! TO.P,RN1,2*
G04 #@! TO.N,Net-(BAR1-Pad19)*
X52070000Y-24130000D03*
G04 #@! TO.P,RN1,3*
G04 #@! TO.N,Net-(BAR1-Pad18)*
X54610000Y-24130000D03*
G04 #@! TO.P,RN1,4*
G04 #@! TO.N,Net-(BAR1-Pad17)*
X57150000Y-24130000D03*
G04 #@! TO.P,RN1,5*
G04 #@! TO.N,Net-(BAR1-Pad16)*
X59690000Y-24130000D03*
G04 #@! TO.P,RN1,6*
G04 #@! TO.N,Net-(BAR1-Pad15)*
X62230000Y-24130000D03*
G04 #@! TO.P,RN1,7*
G04 #@! TO.N,Net-(BAR1-Pad14)*
X64770000Y-24130000D03*
G04 #@! TO.P,RN1,8*
G04 #@! TO.N,Net-(BAR1-Pad13)*
X67310000Y-24130000D03*
G04 #@! TO.P,RN1,9*
G04 #@! TO.N,Net-(BAR1-Pad12)*
X69850000Y-24130000D03*
G04 #@! TD*
D16*
G04 #@! TO.N,GND*
X41910000Y-37211000D03*
X57150000Y-63500000D03*
X57150000Y-67310000D03*
G04 #@! TO.N,Net-(BAR1-Pad9)*
X69342000Y-39624000D03*
G04 #@! TO.N,Net-(BAR1-Pad5)*
X59690000Y-38862000D03*
X59690000Y-40640000D03*
G04 #@! TO.N,Net-(J1-Pad10)*
X47625000Y-54465001D03*
G04 #@! TO.N,Net-(BAR1-Pad8)*
X52070000Y-45593000D03*
X68072000Y-39624000D03*
X68072000Y-41402000D03*
G04 #@! TO.N,Net-(BAR1-Pad4)*
X57150000Y-40640000D03*
X57150000Y-38862000D03*
X57150000Y-53213000D03*
X51181000Y-53213000D03*
G04 #@! TO.N,Net-(BAR1-Pad7)*
X66802000Y-45212000D03*
X52451000Y-47879000D03*
X47625000Y-53213000D03*
X66802000Y-39624000D03*
X66802000Y-41402000D03*
X69850000Y-45212000D03*
G04 #@! TO.N,Net-(BAR1-Pad3)*
X54610000Y-38862000D03*
X54610000Y-40640000D03*
X54610000Y-50673000D03*
X51181000Y-50673000D03*
G04 #@! TO.N,Net-(J1-Pad8)*
X40005000Y-49385001D03*
G04 #@! TO.N,Net-(J1-Pad12)*
X52070000Y-59545001D03*
G04 #@! TO.N,Net-(J1-Pad9)*
X43815000Y-51925001D03*
G04 #@! TO.N,Net-(J1-Pad13)*
X46355000Y-62085001D03*
G04 #@! TO.N,Net-(BAR1-Pad6)*
X62230000Y-38862000D03*
X62230000Y-40640000D03*
X50800000Y-65405000D03*
X44450000Y-64135000D03*
G04 #@! TO.N,Net-(BAR1-Pad2)*
X52070000Y-40640000D03*
X52070000Y-38862000D03*
G04 #@! TO.N,~DATA_OUT*
X35560000Y-39370000D03*
G04 #@! TD*
D17*
G04 #@! TO.N,CLOCK*
X49530000Y-64770000D02*
X49530000Y-63373000D01*
X48895000Y-65405000D02*
X49530000Y-64770000D01*
X35560000Y-38100000D02*
X36830000Y-39370000D01*
X36830000Y-64135000D02*
X38100000Y-65405000D01*
X33655000Y-38100000D02*
X35560000Y-38100000D01*
X38100000Y-65405000D02*
X48895000Y-65405000D01*
X36830000Y-44450000D02*
X36830000Y-45085000D01*
X36830000Y-39370000D02*
X36830000Y-45085000D01*
X36830000Y-45085000D02*
X36830000Y-64135000D01*
G04 #@! TO.N,Net-(BAR1-Pad9)*
X69850000Y-36996840D02*
X69342000Y-37504840D01*
X69850000Y-35560000D02*
X69850000Y-36996840D01*
X69342000Y-37504840D02*
X69342000Y-39624000D01*
G04 #@! TO.N,Net-(BAR1-Pad5)*
X67818000Y-53213000D02*
X64770000Y-53213000D01*
X68580000Y-53975000D02*
X67818000Y-53213000D01*
X56515000Y-60833000D02*
X57785000Y-62103000D01*
X57785000Y-62103000D02*
X68072000Y-62103000D01*
X68072000Y-62103000D02*
X68580000Y-61595000D01*
X49530000Y-60833000D02*
X56515000Y-60833000D01*
X68580000Y-61595000D02*
X68580000Y-53975000D01*
X59690000Y-38862000D02*
X59690000Y-35560000D01*
X60325000Y-53213000D02*
X64770000Y-53213000D01*
X59690000Y-40640000D02*
X59690000Y-52578000D01*
X59690000Y-52578000D02*
X60325000Y-53213000D01*
G04 #@! TO.N,Net-(J1-Pad10)*
X49530000Y-58293000D02*
X48387000Y-58293000D01*
X48387000Y-58293000D02*
X48133000Y-58293000D01*
X48133000Y-58293000D02*
X47625000Y-57785000D01*
X47625000Y-57785000D02*
X47625000Y-54610000D01*
G04 #@! TO.N,Net-(BAR1-Pad8)*
X43815000Y-49911000D02*
X43053000Y-50673000D01*
X50800000Y-44323000D02*
X45212000Y-44323000D01*
X52070000Y-45593000D02*
X50800000Y-44323000D01*
X43053000Y-50673000D02*
X41910000Y-50673000D01*
X45212000Y-44323000D02*
X43815000Y-45720000D01*
X43815000Y-45720000D02*
X43815000Y-49911000D01*
X67310000Y-36996840D02*
X68072000Y-37758840D01*
X67310000Y-35560000D02*
X67310000Y-36996840D01*
X68072000Y-37758840D02*
X68072000Y-39624000D01*
X68072000Y-45847000D02*
X68072000Y-44958000D01*
X67526001Y-46392999D02*
X68072000Y-45847000D01*
X68072000Y-44958000D02*
X68072000Y-41402000D01*
X65569999Y-46392999D02*
X67526001Y-46392999D01*
X64770000Y-45593000D02*
X65569999Y-46392999D01*
G04 #@! TO.N,Net-(BAR1-Pad4)*
X57150000Y-36996840D02*
X57150000Y-38862000D01*
X57150000Y-35560000D02*
X57150000Y-36996840D01*
X57150000Y-40640000D02*
X57150000Y-53213000D01*
X51181000Y-53213000D02*
X49530000Y-53213000D01*
X59690000Y-55753000D02*
X64770000Y-55753000D01*
X57150000Y-53213000D02*
X59690000Y-55753000D01*
G04 #@! TO.N,Net-(BAR1-Pad7)*
X47625000Y-47498000D02*
X47625000Y-53213000D01*
X48260000Y-46863000D02*
X47625000Y-47498000D01*
X52451000Y-47879000D02*
X51435000Y-46863000D01*
X51435000Y-46863000D02*
X48260000Y-46863000D01*
X64770000Y-37592000D02*
X66802000Y-39624000D01*
X64770000Y-35560000D02*
X64770000Y-37592000D01*
X66802000Y-41967685D02*
X66802000Y-45212000D01*
X66802000Y-41402000D02*
X66802000Y-41967685D01*
X64770000Y-48133000D02*
X68199000Y-48133000D01*
X68199000Y-48133000D02*
X69850000Y-46482000D01*
X69850000Y-46482000D02*
X69850000Y-45212000D01*
X69850000Y-45212000D02*
X69850000Y-45212000D01*
G04 #@! TO.N,Net-(BAR1-Pad3)*
X54610000Y-35560000D02*
X54610000Y-38862000D01*
X54610000Y-40640000D02*
X54610000Y-50673000D01*
X51181000Y-50673000D02*
X49530000Y-50673000D01*
X54610000Y-50673000D02*
X54610000Y-53721000D01*
X54610000Y-53721000D02*
X57912000Y-57023000D01*
X57912000Y-57023000D02*
X62103000Y-57023000D01*
X62103000Y-57023000D02*
X63373000Y-58293000D01*
X63373000Y-58293000D02*
X64770000Y-58293000D01*
G04 #@! TO.N,Net-(J1-Pad8)*
X41910000Y-55753000D02*
X40767000Y-55753000D01*
X40767000Y-55753000D02*
X40005000Y-54991000D01*
X40005000Y-54991000D02*
X40005000Y-49530000D01*
G04 #@! TO.N,Net-(J1-Pad12)*
X49530000Y-48133000D02*
X51308000Y-48133000D01*
X52070000Y-48895000D02*
X52070000Y-59545001D01*
X51308000Y-48133000D02*
X52070000Y-48895000D01*
G04 #@! TO.N,Net-(J1-Pad9)*
X41910000Y-58293000D02*
X43053000Y-58293000D01*
X43053000Y-58293000D02*
X43815000Y-57531000D01*
X43815000Y-57531000D02*
X43815000Y-52070000D01*
G04 #@! TO.N,Net-(J1-Pad13)*
X49530000Y-45593000D02*
X47752000Y-45593000D01*
X47752000Y-45593000D02*
X46899999Y-46445001D01*
X46899999Y-46445001D02*
X46355000Y-46990000D01*
X46355000Y-46990000D02*
X46355000Y-62230000D01*
G04 #@! TO.N,Net-(BAR1-Pad6)*
X62230000Y-38862000D02*
X62230000Y-35560000D01*
X62230000Y-40640000D02*
X62230000Y-50165000D01*
X62738000Y-50673000D02*
X64770000Y-50673000D01*
X62230000Y-50165000D02*
X62738000Y-50673000D01*
X64770000Y-50673000D02*
X67818000Y-50673000D01*
X67818000Y-50673000D02*
X69850000Y-52705000D01*
X69850000Y-52705000D02*
X69850000Y-60961410D01*
X69850000Y-60961410D02*
X69850000Y-63500000D01*
X69850000Y-63500000D02*
X67945000Y-65405000D01*
X67945000Y-65405000D02*
X50800000Y-65405000D01*
X50800000Y-65405000D02*
X50800000Y-65405000D01*
X43053000Y-60833000D02*
X41910000Y-60833000D01*
X44450000Y-64135000D02*
X44450000Y-62230000D01*
X44450000Y-62230000D02*
X43053000Y-60833000D01*
G04 #@! TO.N,Net-(BAR1-Pad2)*
X49530000Y-43053000D02*
X51562000Y-43053000D01*
X52070000Y-40640000D02*
X52070000Y-40640000D01*
X52070000Y-38735000D02*
X52070000Y-35560000D01*
X52070000Y-42291000D02*
X52070000Y-40640000D01*
X59817000Y-58420000D02*
X62230000Y-60833000D01*
X54610000Y-58420000D02*
X59817000Y-58420000D01*
X53340000Y-57150000D02*
X54610000Y-58420000D01*
X62230000Y-60833000D02*
X64770000Y-60833000D01*
X53340000Y-43561000D02*
X53340000Y-47244000D01*
X52832000Y-43053000D02*
X53340000Y-43561000D01*
X53340000Y-46990000D02*
X53340000Y-47244000D01*
X53340000Y-47244000D02*
X53340000Y-57150000D01*
X52070000Y-43053000D02*
X52832000Y-43053000D01*
X52070000Y-42418000D02*
X52070000Y-43053000D01*
X51562000Y-43053000D02*
X52070000Y-43053000D01*
X52070000Y-42418000D02*
X52070000Y-42291000D01*
X52070000Y-42545000D02*
X52070000Y-42418000D01*
D18*
G04 #@! TO.N,+5V*
X64770000Y-40513000D02*
X72390000Y-40513000D01*
X50329999Y-39713001D02*
X63208001Y-39713001D01*
X49530000Y-40513000D02*
X50329999Y-39713001D01*
X63208001Y-39713001D02*
X63500000Y-40005000D01*
X63500000Y-40393000D02*
X63620000Y-40513000D01*
X63620000Y-40513000D02*
X64770000Y-40513000D01*
X63500000Y-40005000D02*
X63500000Y-40393000D01*
X48387000Y-40513000D02*
X49530000Y-40513000D01*
X46990000Y-39116000D02*
X48387000Y-40513000D01*
X46990000Y-36830000D02*
X46990000Y-39116000D01*
X33655000Y-35560000D02*
X45720000Y-35560000D01*
X45720000Y-35560000D02*
X46990000Y-36830000D01*
D17*
G04 #@! TO.N,~DATA_OUT*
X34925000Y-43180000D02*
X33655000Y-43180000D01*
X35560000Y-39370000D02*
X35560000Y-42545000D01*
X35560000Y-42545000D02*
X34925000Y-43180000D01*
G04 #@! TD*
D19*
G04 #@! TO.N,GND*
G36*
X82475001Y-69140000D02*
X28015000Y-69140000D01*
X28015000Y-35560000D01*
X32140908Y-35560000D01*
X32256161Y-36139418D01*
X32584375Y-36630625D01*
X32882761Y-36830000D01*
X32584375Y-37029375D01*
X32256161Y-37520582D01*
X32140908Y-38100000D01*
X32256161Y-38679418D01*
X32584375Y-39170625D01*
X32882761Y-39370000D01*
X32584375Y-39569375D01*
X32256161Y-40060582D01*
X32140908Y-40640000D01*
X32256161Y-41219418D01*
X32584375Y-41710625D01*
X32882761Y-41910000D01*
X32584375Y-42109375D01*
X32256161Y-42600582D01*
X32140908Y-43180000D01*
X32256161Y-43759418D01*
X32584375Y-44250625D01*
X32882761Y-44450000D01*
X32584375Y-44649375D01*
X32256161Y-45140582D01*
X32140908Y-45720000D01*
X32256161Y-46299418D01*
X32584375Y-46790625D01*
X32882761Y-46990000D01*
X32584375Y-47189375D01*
X32256161Y-47680582D01*
X32140908Y-48260000D01*
X32256161Y-48839418D01*
X32584375Y-49330625D01*
X32882761Y-49530000D01*
X32584375Y-49729375D01*
X32256161Y-50220582D01*
X32140908Y-50800000D01*
X32256161Y-51379418D01*
X32584375Y-51870625D01*
X32882761Y-52070000D01*
X32584375Y-52269375D01*
X32256161Y-52760582D01*
X32140908Y-53340000D01*
X32256161Y-53919418D01*
X32584375Y-54410625D01*
X32882761Y-54610000D01*
X32584375Y-54809375D01*
X32256161Y-55300582D01*
X32140908Y-55880000D01*
X32256161Y-56459418D01*
X32584375Y-56950625D01*
X32882761Y-57150000D01*
X32584375Y-57349375D01*
X32256161Y-57840582D01*
X32140908Y-58420000D01*
X32256161Y-58999418D01*
X32584375Y-59490625D01*
X32882761Y-59690000D01*
X32584375Y-59889375D01*
X32256161Y-60380582D01*
X32140908Y-60960000D01*
X32256161Y-61539418D01*
X32584375Y-62030625D01*
X32882761Y-62230000D01*
X32584375Y-62429375D01*
X32256161Y-62920582D01*
X32140908Y-63500000D01*
X32256161Y-64079418D01*
X32584375Y-64570625D01*
X33075582Y-64898839D01*
X33508744Y-64985000D01*
X33801256Y-64985000D01*
X34234418Y-64898839D01*
X34725625Y-64570625D01*
X35053839Y-64079418D01*
X35169092Y-63500000D01*
X35053839Y-62920582D01*
X34725625Y-62429375D01*
X34427239Y-62230000D01*
X34725625Y-62030625D01*
X35053839Y-61539418D01*
X35169092Y-60960000D01*
X35053839Y-60380582D01*
X34725625Y-59889375D01*
X34427239Y-59690000D01*
X34725625Y-59490625D01*
X35053839Y-58999418D01*
X35169092Y-58420000D01*
X35053839Y-57840582D01*
X34725625Y-57349375D01*
X34427239Y-57150000D01*
X34725625Y-56950625D01*
X35053839Y-56459418D01*
X35169092Y-55880000D01*
X35053839Y-55300582D01*
X34725625Y-54809375D01*
X34427239Y-54610000D01*
X34725625Y-54410625D01*
X35053839Y-53919418D01*
X35169092Y-53340000D01*
X35053839Y-52760582D01*
X34725625Y-52269375D01*
X34427239Y-52070000D01*
X34725625Y-51870625D01*
X35053839Y-51379418D01*
X35169092Y-50800000D01*
X35053839Y-50220582D01*
X34725625Y-49729375D01*
X34427239Y-49530000D01*
X34725625Y-49330625D01*
X35053839Y-48839418D01*
X35169092Y-48260000D01*
X35053839Y-47680582D01*
X34725625Y-47189375D01*
X34427239Y-46990000D01*
X34725625Y-46790625D01*
X35053839Y-46299418D01*
X35169092Y-45720000D01*
X35053839Y-45140582D01*
X34725625Y-44649375D01*
X34427239Y-44450000D01*
X34725625Y-44250625D01*
X34923438Y-43954577D01*
X34925000Y-43954888D01*
X34999847Y-43940000D01*
X34999852Y-43940000D01*
X35221537Y-43895904D01*
X35472929Y-43727929D01*
X35515331Y-43664470D01*
X36044473Y-43135329D01*
X36070001Y-43118272D01*
X36070001Y-44375145D01*
X36070000Y-44375149D01*
X36070000Y-45010149D01*
X36070001Y-64060148D01*
X36055112Y-64135000D01*
X36070001Y-64209851D01*
X36070001Y-64209852D01*
X36109331Y-64407577D01*
X36114097Y-64431537D01*
X36178264Y-64527569D01*
X36282072Y-64682929D01*
X36345528Y-64725329D01*
X37509671Y-65889473D01*
X37552071Y-65952929D01*
X37803463Y-66120904D01*
X38025148Y-66165000D01*
X38025152Y-66165000D01*
X38099999Y-66179888D01*
X38174846Y-66165000D01*
X48820153Y-66165000D01*
X48895000Y-66179888D01*
X48969847Y-66165000D01*
X48969852Y-66165000D01*
X49191537Y-66120904D01*
X49442929Y-65952929D01*
X49485331Y-65889470D01*
X49765000Y-65609802D01*
X49765000Y-65610874D01*
X49922569Y-65991280D01*
X50213720Y-66282431D01*
X50594126Y-66440000D01*
X51005874Y-66440000D01*
X51386280Y-66282431D01*
X51503711Y-66165000D01*
X67870153Y-66165000D01*
X67945000Y-66179888D01*
X68019847Y-66165000D01*
X68019852Y-66165000D01*
X68241537Y-66120904D01*
X68492929Y-65952929D01*
X68535331Y-65889470D01*
X70334473Y-64090329D01*
X70397929Y-64047929D01*
X70537890Y-63838463D01*
X70565904Y-63796538D01*
X70607569Y-63587071D01*
X70610000Y-63574852D01*
X70610000Y-63574848D01*
X70624888Y-63500000D01*
X70610000Y-63425152D01*
X70610000Y-52779847D01*
X70624888Y-52705000D01*
X70610000Y-52630153D01*
X70610000Y-52630148D01*
X70565904Y-52408463D01*
X70397929Y-52157071D01*
X70334473Y-52114671D01*
X68408331Y-50188530D01*
X68365929Y-50125071D01*
X68114537Y-49957096D01*
X67892852Y-49913000D01*
X67892847Y-49913000D01*
X67818000Y-49898112D01*
X67743153Y-49913000D01*
X65988043Y-49913000D01*
X65804577Y-49638423D01*
X65452242Y-49403000D01*
X65804577Y-49167577D01*
X65988043Y-48893000D01*
X68124153Y-48893000D01*
X68199000Y-48907888D01*
X68273847Y-48893000D01*
X68273852Y-48893000D01*
X68495537Y-48848904D01*
X68746929Y-48680929D01*
X68789331Y-48617470D01*
X70334473Y-47072329D01*
X70397929Y-47029929D01*
X70565904Y-46778537D01*
X70610000Y-46556852D01*
X70610000Y-46556848D01*
X70624888Y-46482000D01*
X70610000Y-46407152D01*
X70610000Y-45915711D01*
X70727431Y-45798280D01*
X70885000Y-45417874D01*
X70885000Y-45006126D01*
X70727431Y-44625720D01*
X70436280Y-44334569D01*
X70055874Y-44177000D01*
X69644126Y-44177000D01*
X69263720Y-44334569D01*
X68972569Y-44625720D01*
X68832000Y-44965084D01*
X68832000Y-42105711D01*
X68949431Y-41988280D01*
X69107000Y-41607874D01*
X69107000Y-41323000D01*
X71205365Y-41323000D01*
X71355423Y-41547577D01*
X71707758Y-41783000D01*
X71355423Y-42018423D01*
X71038260Y-42493091D01*
X70926887Y-43053000D01*
X71038260Y-43612909D01*
X71355423Y-44087577D01*
X71707758Y-44323000D01*
X71355423Y-44558423D01*
X71038260Y-45033091D01*
X70926887Y-45593000D01*
X71038260Y-46152909D01*
X71355423Y-46627577D01*
X71707758Y-46863000D01*
X71355423Y-47098423D01*
X71038260Y-47573091D01*
X70926887Y-48133000D01*
X71038260Y-48692909D01*
X71355423Y-49167577D01*
X71707758Y-49403000D01*
X71355423Y-49638423D01*
X71038260Y-50113091D01*
X70926887Y-50673000D01*
X71038260Y-51232909D01*
X71355423Y-51707577D01*
X71707758Y-51943000D01*
X71355423Y-52178423D01*
X71038260Y-52653091D01*
X70926887Y-53213000D01*
X71038260Y-53772909D01*
X71355423Y-54247577D01*
X71707758Y-54483000D01*
X71355423Y-54718423D01*
X71038260Y-55193091D01*
X70926887Y-55753000D01*
X71038260Y-56312909D01*
X71355423Y-56787577D01*
X71707758Y-57023000D01*
X71355423Y-57258423D01*
X71038260Y-57733091D01*
X70926887Y-58293000D01*
X71038260Y-58852909D01*
X71355423Y-59327577D01*
X71707758Y-59563000D01*
X71355423Y-59798423D01*
X71038260Y-60273091D01*
X70926887Y-60833000D01*
X71038260Y-61392909D01*
X71355423Y-61867577D01*
X71707758Y-62103000D01*
X71355423Y-62338423D01*
X71038260Y-62813091D01*
X70926887Y-63373000D01*
X71038260Y-63932909D01*
X71355423Y-64407577D01*
X71830091Y-64724740D01*
X72248667Y-64808000D01*
X72531333Y-64808000D01*
X72949909Y-64724740D01*
X73424577Y-64407577D01*
X73741740Y-63932909D01*
X73827851Y-63500000D01*
X75320908Y-63500000D01*
X75436161Y-64079418D01*
X75764375Y-64570625D01*
X76255582Y-64898839D01*
X76688744Y-64985000D01*
X76981256Y-64985000D01*
X77414418Y-64898839D01*
X77905625Y-64570625D01*
X78233839Y-64079418D01*
X78349092Y-63500000D01*
X78233839Y-62920582D01*
X77905625Y-62429375D01*
X77887381Y-62417184D01*
X77932765Y-62408157D01*
X78142809Y-62267809D01*
X78283157Y-62057765D01*
X78332440Y-61810000D01*
X78332440Y-60110000D01*
X78283157Y-59862235D01*
X78142809Y-59652191D01*
X77932765Y-59511843D01*
X77685000Y-59462560D01*
X75985000Y-59462560D01*
X75737235Y-59511843D01*
X75527191Y-59652191D01*
X75386843Y-59862235D01*
X75337560Y-60110000D01*
X75337560Y-61810000D01*
X75386843Y-62057765D01*
X75527191Y-62267809D01*
X75737235Y-62408157D01*
X75782619Y-62417184D01*
X75764375Y-62429375D01*
X75436161Y-62920582D01*
X75320908Y-63500000D01*
X73827851Y-63500000D01*
X73853113Y-63373000D01*
X73741740Y-62813091D01*
X73424577Y-62338423D01*
X73072242Y-62103000D01*
X73424577Y-61867577D01*
X73741740Y-61392909D01*
X73853113Y-60833000D01*
X73741740Y-60273091D01*
X73424577Y-59798423D01*
X73072242Y-59563000D01*
X73424577Y-59327577D01*
X73741740Y-58852909D01*
X73853113Y-58293000D01*
X73741740Y-57733091D01*
X73424577Y-57258423D01*
X73072242Y-57023000D01*
X73424577Y-56787577D01*
X73741740Y-56312909D01*
X73853113Y-55753000D01*
X73741740Y-55193091D01*
X73424577Y-54718423D01*
X73072242Y-54483000D01*
X73424577Y-54247577D01*
X73741740Y-53772909D01*
X73853113Y-53213000D01*
X73741740Y-52653091D01*
X73424577Y-52178423D01*
X73072242Y-51943000D01*
X73424577Y-51707577D01*
X73741740Y-51232909D01*
X73853113Y-50673000D01*
X73741740Y-50113091D01*
X73424577Y-49638423D01*
X73072242Y-49403000D01*
X73424577Y-49167577D01*
X73741740Y-48692909D01*
X73853113Y-48133000D01*
X73741740Y-47573091D01*
X73424577Y-47098423D01*
X73072242Y-46863000D01*
X73424577Y-46627577D01*
X73741740Y-46152909D01*
X73853113Y-45593000D01*
X73741740Y-45033091D01*
X73424577Y-44558423D01*
X73072242Y-44323000D01*
X73424577Y-44087577D01*
X73741740Y-43612909D01*
X73853113Y-43053000D01*
X73741740Y-42493091D01*
X73424577Y-42018423D01*
X73072242Y-41783000D01*
X73424577Y-41547577D01*
X73741740Y-41072909D01*
X73853113Y-40513000D01*
X73741740Y-39953091D01*
X73424577Y-39478423D01*
X72949909Y-39161260D01*
X72531333Y-39078000D01*
X72248667Y-39078000D01*
X71830091Y-39161260D01*
X71355423Y-39478423D01*
X71205365Y-39703000D01*
X70377000Y-39703000D01*
X70377000Y-39418126D01*
X70219431Y-39037720D01*
X70102000Y-38920289D01*
X70102000Y-37819642D01*
X70334475Y-37587168D01*
X70397929Y-37544769D01*
X70440327Y-37481316D01*
X70440329Y-37481314D01*
X70565903Y-37293378D01*
X70565904Y-37293377D01*
X70610000Y-37071692D01*
X70610000Y-37071688D01*
X70618554Y-37028684D01*
X70785216Y-36959650D01*
X71120000Y-36624866D01*
X71454784Y-36959650D01*
X72061596Y-37211000D01*
X72718404Y-37211000D01*
X73325216Y-36959650D01*
X73789650Y-36495216D01*
X74041000Y-35888404D01*
X74041000Y-35231596D01*
X73789650Y-34624784D01*
X73325216Y-34160350D01*
X72718404Y-33909000D01*
X72061596Y-33909000D01*
X71454784Y-34160350D01*
X71120000Y-34495134D01*
X70785216Y-34160350D01*
X70178404Y-33909000D01*
X69521596Y-33909000D01*
X68914784Y-34160350D01*
X68580000Y-34495134D01*
X68245216Y-34160350D01*
X67638404Y-33909000D01*
X66981596Y-33909000D01*
X66374784Y-34160350D01*
X66040000Y-34495134D01*
X65705216Y-34160350D01*
X65098404Y-33909000D01*
X64441596Y-33909000D01*
X63834784Y-34160350D01*
X63500000Y-34495134D01*
X63165216Y-34160350D01*
X62558404Y-33909000D01*
X61901596Y-33909000D01*
X61294784Y-34160350D01*
X60960000Y-34495134D01*
X60625216Y-34160350D01*
X60018404Y-33909000D01*
X59361596Y-33909000D01*
X58754784Y-34160350D01*
X58420000Y-34495134D01*
X58085216Y-34160350D01*
X57478404Y-33909000D01*
X56821596Y-33909000D01*
X56214784Y-34160350D01*
X55880000Y-34495134D01*
X55545216Y-34160350D01*
X54938404Y-33909000D01*
X54281596Y-33909000D01*
X53674784Y-34160350D01*
X53340000Y-34495134D01*
X53005216Y-34160350D01*
X52398404Y-33909000D01*
X51741596Y-33909000D01*
X51134784Y-34160350D01*
X51085975Y-34209159D01*
X51003809Y-34086191D01*
X50793765Y-33945843D01*
X50546000Y-33896560D01*
X48514000Y-33896560D01*
X48266235Y-33945843D01*
X48056191Y-34086191D01*
X47915843Y-34296235D01*
X47866560Y-34544000D01*
X47866560Y-36576000D01*
X47915843Y-36823765D01*
X48056191Y-37033809D01*
X48266235Y-37174157D01*
X48514000Y-37223440D01*
X50546000Y-37223440D01*
X50793765Y-37174157D01*
X51003809Y-37033809D01*
X51085975Y-36910841D01*
X51134784Y-36959650D01*
X51310001Y-37032227D01*
X51310000Y-38158289D01*
X51192569Y-38275720D01*
X51035000Y-38656126D01*
X51035000Y-38903001D01*
X50409768Y-38903001D01*
X50329998Y-38887134D01*
X50250229Y-38903001D01*
X50250225Y-38903001D01*
X50013953Y-38949998D01*
X49787733Y-39101153D01*
X49671333Y-39078000D01*
X49388667Y-39078000D01*
X48970091Y-39161260D01*
X48496929Y-39477417D01*
X47800000Y-38780488D01*
X47800000Y-36909772D01*
X47815868Y-36829999D01*
X47773102Y-36615000D01*
X47753003Y-36513954D01*
X47573977Y-36246023D01*
X47506347Y-36200834D01*
X46349168Y-35043656D01*
X46303977Y-34976023D01*
X46036046Y-34796997D01*
X45799774Y-34750000D01*
X45799773Y-34750000D01*
X45720000Y-34734132D01*
X45640227Y-34750000D01*
X34899769Y-34750000D01*
X34725625Y-34489375D01*
X34703967Y-34474904D01*
X34864698Y-34408327D01*
X35043327Y-34229699D01*
X35140000Y-33996310D01*
X35140000Y-33305750D01*
X34981250Y-33147000D01*
X33782000Y-33147000D01*
X33782000Y-33167000D01*
X33528000Y-33167000D01*
X33528000Y-33147000D01*
X32328750Y-33147000D01*
X32170000Y-33305750D01*
X32170000Y-33996310D01*
X32266673Y-34229699D01*
X32445302Y-34408327D01*
X32606033Y-34474904D01*
X32584375Y-34489375D01*
X32256161Y-34980582D01*
X32140908Y-35560000D01*
X28015000Y-35560000D01*
X28015000Y-32043690D01*
X32170000Y-32043690D01*
X32170000Y-32734250D01*
X32328750Y-32893000D01*
X33528000Y-32893000D01*
X33528000Y-31693750D01*
X33782000Y-31693750D01*
X33782000Y-32893000D01*
X34981250Y-32893000D01*
X35140000Y-32734250D01*
X35140000Y-32043690D01*
X35043327Y-31810301D01*
X34864698Y-31631673D01*
X34631309Y-31535000D01*
X33940750Y-31535000D01*
X33782000Y-31693750D01*
X33528000Y-31693750D01*
X33369250Y-31535000D01*
X32678691Y-31535000D01*
X32445302Y-31631673D01*
X32266673Y-31810301D01*
X32170000Y-32043690D01*
X28015000Y-32043690D01*
X28015000Y-27611596D01*
X47879000Y-27611596D01*
X47879000Y-28268404D01*
X48130350Y-28875216D01*
X48594784Y-29339650D01*
X49201596Y-29591000D01*
X49858404Y-29591000D01*
X50465216Y-29339650D01*
X50800000Y-29004866D01*
X51134784Y-29339650D01*
X51741596Y-29591000D01*
X52398404Y-29591000D01*
X53005216Y-29339650D01*
X53340000Y-29004866D01*
X53674784Y-29339650D01*
X54281596Y-29591000D01*
X54938404Y-29591000D01*
X55545216Y-29339650D01*
X55880000Y-29004866D01*
X56214784Y-29339650D01*
X56821596Y-29591000D01*
X57478404Y-29591000D01*
X58085216Y-29339650D01*
X58420000Y-29004866D01*
X58754784Y-29339650D01*
X59361596Y-29591000D01*
X60018404Y-29591000D01*
X60625216Y-29339650D01*
X60960000Y-29004866D01*
X61294784Y-29339650D01*
X61901596Y-29591000D01*
X62558404Y-29591000D01*
X63165216Y-29339650D01*
X63500000Y-29004866D01*
X63834784Y-29339650D01*
X64441596Y-29591000D01*
X65098404Y-29591000D01*
X65705216Y-29339650D01*
X66040000Y-29004866D01*
X66374784Y-29339650D01*
X66981596Y-29591000D01*
X67638404Y-29591000D01*
X68245216Y-29339650D01*
X68580000Y-29004866D01*
X68914784Y-29339650D01*
X69521596Y-29591000D01*
X70178404Y-29591000D01*
X70785216Y-29339650D01*
X71120000Y-29004866D01*
X71454784Y-29339650D01*
X72061596Y-29591000D01*
X72718404Y-29591000D01*
X73325216Y-29339650D01*
X73789650Y-28875216D01*
X74041000Y-28268404D01*
X74041000Y-27611596D01*
X73789650Y-27004784D01*
X73454866Y-26670000D01*
X75320908Y-26670000D01*
X75436161Y-27249418D01*
X75764375Y-27740625D01*
X76255582Y-28068839D01*
X76688744Y-28155000D01*
X76981256Y-28155000D01*
X77414418Y-28068839D01*
X77905625Y-27740625D01*
X78233839Y-27249418D01*
X78349092Y-26670000D01*
X78233839Y-26090582D01*
X77905625Y-25599375D01*
X77887381Y-25587184D01*
X77932765Y-25578157D01*
X78142809Y-25437809D01*
X78283157Y-25227765D01*
X78332440Y-24980000D01*
X78332440Y-23280000D01*
X78283157Y-23032235D01*
X78142809Y-22822191D01*
X77932765Y-22681843D01*
X77685000Y-22632560D01*
X75985000Y-22632560D01*
X75737235Y-22681843D01*
X75527191Y-22822191D01*
X75386843Y-23032235D01*
X75337560Y-23280000D01*
X75337560Y-24980000D01*
X75386843Y-25227765D01*
X75527191Y-25437809D01*
X75737235Y-25578157D01*
X75782619Y-25587184D01*
X75764375Y-25599375D01*
X75436161Y-26090582D01*
X75320908Y-26670000D01*
X73454866Y-26670000D01*
X73325216Y-26540350D01*
X72718404Y-26289000D01*
X72061596Y-26289000D01*
X71454784Y-26540350D01*
X71120000Y-26875134D01*
X70785216Y-26540350D01*
X70178404Y-26289000D01*
X69521596Y-26289000D01*
X68914784Y-26540350D01*
X68580000Y-26875134D01*
X68245216Y-26540350D01*
X67638404Y-26289000D01*
X66981596Y-26289000D01*
X66374784Y-26540350D01*
X66040000Y-26875134D01*
X65705216Y-26540350D01*
X65098404Y-26289000D01*
X64441596Y-26289000D01*
X63834784Y-26540350D01*
X63500000Y-26875134D01*
X63165216Y-26540350D01*
X62558404Y-26289000D01*
X61901596Y-26289000D01*
X61294784Y-26540350D01*
X60960000Y-26875134D01*
X60625216Y-26540350D01*
X60018404Y-26289000D01*
X59361596Y-26289000D01*
X58754784Y-26540350D01*
X58420000Y-26875134D01*
X58085216Y-26540350D01*
X57478404Y-26289000D01*
X56821596Y-26289000D01*
X56214784Y-26540350D01*
X55880000Y-26875134D01*
X55545216Y-26540350D01*
X54938404Y-26289000D01*
X54281596Y-26289000D01*
X53674784Y-26540350D01*
X53340000Y-26875134D01*
X53005216Y-26540350D01*
X52398404Y-26289000D01*
X51741596Y-26289000D01*
X51134784Y-26540350D01*
X50800000Y-26875134D01*
X50465216Y-26540350D01*
X49858404Y-26289000D01*
X49201596Y-26289000D01*
X48594784Y-26540350D01*
X48130350Y-27004784D01*
X47879000Y-27611596D01*
X28015000Y-27611596D01*
X28015000Y-24415750D01*
X48095000Y-24415750D01*
X48095000Y-25056310D01*
X48191673Y-25289699D01*
X48370302Y-25468327D01*
X48603691Y-25565000D01*
X49244250Y-25565000D01*
X49403000Y-25406250D01*
X49403000Y-24257000D01*
X48253750Y-24257000D01*
X48095000Y-24415750D01*
X28015000Y-24415750D01*
X28015000Y-23203690D01*
X48095000Y-23203690D01*
X48095000Y-23844250D01*
X48253750Y-24003000D01*
X49403000Y-24003000D01*
X49403000Y-22853750D01*
X49657000Y-22853750D01*
X49657000Y-24003000D01*
X49677000Y-24003000D01*
X49677000Y-24257000D01*
X49657000Y-24257000D01*
X49657000Y-25406250D01*
X49815750Y-25565000D01*
X50456309Y-25565000D01*
X50689698Y-25468327D01*
X50868327Y-25289699D01*
X50964266Y-25058083D01*
X51035423Y-25164577D01*
X51510091Y-25481740D01*
X51928667Y-25565000D01*
X52211333Y-25565000D01*
X52629909Y-25481740D01*
X53104577Y-25164577D01*
X53340000Y-24812242D01*
X53575423Y-25164577D01*
X54050091Y-25481740D01*
X54468667Y-25565000D01*
X54751333Y-25565000D01*
X55169909Y-25481740D01*
X55644577Y-25164577D01*
X55880000Y-24812242D01*
X56115423Y-25164577D01*
X56590091Y-25481740D01*
X57008667Y-25565000D01*
X57291333Y-25565000D01*
X57709909Y-25481740D01*
X58184577Y-25164577D01*
X58420000Y-24812242D01*
X58655423Y-25164577D01*
X59130091Y-25481740D01*
X59548667Y-25565000D01*
X59831333Y-25565000D01*
X60249909Y-25481740D01*
X60724577Y-25164577D01*
X60960000Y-24812242D01*
X61195423Y-25164577D01*
X61670091Y-25481740D01*
X62088667Y-25565000D01*
X62371333Y-25565000D01*
X62789909Y-25481740D01*
X63264577Y-25164577D01*
X63500000Y-24812242D01*
X63735423Y-25164577D01*
X64210091Y-25481740D01*
X64628667Y-25565000D01*
X64911333Y-25565000D01*
X65329909Y-25481740D01*
X65804577Y-25164577D01*
X66040000Y-24812242D01*
X66275423Y-25164577D01*
X66750091Y-25481740D01*
X67168667Y-25565000D01*
X67451333Y-25565000D01*
X67869909Y-25481740D01*
X68344577Y-25164577D01*
X68580000Y-24812242D01*
X68815423Y-25164577D01*
X69290091Y-25481740D01*
X69708667Y-25565000D01*
X69991333Y-25565000D01*
X70409909Y-25481740D01*
X70884577Y-25164577D01*
X71201740Y-24689909D01*
X71313113Y-24130000D01*
X71201740Y-23570091D01*
X70884577Y-23095423D01*
X70409909Y-22778260D01*
X69991333Y-22695000D01*
X69708667Y-22695000D01*
X69290091Y-22778260D01*
X68815423Y-23095423D01*
X68580000Y-23447758D01*
X68344577Y-23095423D01*
X67869909Y-22778260D01*
X67451333Y-22695000D01*
X67168667Y-22695000D01*
X66750091Y-22778260D01*
X66275423Y-23095423D01*
X66040000Y-23447758D01*
X65804577Y-23095423D01*
X65329909Y-22778260D01*
X64911333Y-22695000D01*
X64628667Y-22695000D01*
X64210091Y-22778260D01*
X63735423Y-23095423D01*
X63500000Y-23447758D01*
X63264577Y-23095423D01*
X62789909Y-22778260D01*
X62371333Y-22695000D01*
X62088667Y-22695000D01*
X61670091Y-22778260D01*
X61195423Y-23095423D01*
X60960000Y-23447758D01*
X60724577Y-23095423D01*
X60249909Y-22778260D01*
X59831333Y-22695000D01*
X59548667Y-22695000D01*
X59130091Y-22778260D01*
X58655423Y-23095423D01*
X58420000Y-23447758D01*
X58184577Y-23095423D01*
X57709909Y-22778260D01*
X57291333Y-22695000D01*
X57008667Y-22695000D01*
X56590091Y-22778260D01*
X56115423Y-23095423D01*
X55880000Y-23447758D01*
X55644577Y-23095423D01*
X55169909Y-22778260D01*
X54751333Y-22695000D01*
X54468667Y-22695000D01*
X54050091Y-22778260D01*
X53575423Y-23095423D01*
X53340000Y-23447758D01*
X53104577Y-23095423D01*
X52629909Y-22778260D01*
X52211333Y-22695000D01*
X51928667Y-22695000D01*
X51510091Y-22778260D01*
X51035423Y-23095423D01*
X50964266Y-23201917D01*
X50868327Y-22970301D01*
X50689698Y-22791673D01*
X50456309Y-22695000D01*
X49815750Y-22695000D01*
X49657000Y-22853750D01*
X49403000Y-22853750D01*
X49244250Y-22695000D01*
X48603691Y-22695000D01*
X48370302Y-22791673D01*
X48191673Y-22970301D01*
X48095000Y-23203690D01*
X28015000Y-23203690D01*
X28015000Y-18490000D01*
X82475000Y-18490000D01*
X82475001Y-69140000D01*
X82475001Y-69140000D01*
G37*
X82475001Y-69140000D02*
X28015000Y-69140000D01*
X28015000Y-35560000D01*
X32140908Y-35560000D01*
X32256161Y-36139418D01*
X32584375Y-36630625D01*
X32882761Y-36830000D01*
X32584375Y-37029375D01*
X32256161Y-37520582D01*
X32140908Y-38100000D01*
X32256161Y-38679418D01*
X32584375Y-39170625D01*
X32882761Y-39370000D01*
X32584375Y-39569375D01*
X32256161Y-40060582D01*
X32140908Y-40640000D01*
X32256161Y-41219418D01*
X32584375Y-41710625D01*
X32882761Y-41910000D01*
X32584375Y-42109375D01*
X32256161Y-42600582D01*
X32140908Y-43180000D01*
X32256161Y-43759418D01*
X32584375Y-44250625D01*
X32882761Y-44450000D01*
X32584375Y-44649375D01*
X32256161Y-45140582D01*
X32140908Y-45720000D01*
X32256161Y-46299418D01*
X32584375Y-46790625D01*
X32882761Y-46990000D01*
X32584375Y-47189375D01*
X32256161Y-47680582D01*
X32140908Y-48260000D01*
X32256161Y-48839418D01*
X32584375Y-49330625D01*
X32882761Y-49530000D01*
X32584375Y-49729375D01*
X32256161Y-50220582D01*
X32140908Y-50800000D01*
X32256161Y-51379418D01*
X32584375Y-51870625D01*
X32882761Y-52070000D01*
X32584375Y-52269375D01*
X32256161Y-52760582D01*
X32140908Y-53340000D01*
X32256161Y-53919418D01*
X32584375Y-54410625D01*
X32882761Y-54610000D01*
X32584375Y-54809375D01*
X32256161Y-55300582D01*
X32140908Y-55880000D01*
X32256161Y-56459418D01*
X32584375Y-56950625D01*
X32882761Y-57150000D01*
X32584375Y-57349375D01*
X32256161Y-57840582D01*
X32140908Y-58420000D01*
X32256161Y-58999418D01*
X32584375Y-59490625D01*
X32882761Y-59690000D01*
X32584375Y-59889375D01*
X32256161Y-60380582D01*
X32140908Y-60960000D01*
X32256161Y-61539418D01*
X32584375Y-62030625D01*
X32882761Y-62230000D01*
X32584375Y-62429375D01*
X32256161Y-62920582D01*
X32140908Y-63500000D01*
X32256161Y-64079418D01*
X32584375Y-64570625D01*
X33075582Y-64898839D01*
X33508744Y-64985000D01*
X33801256Y-64985000D01*
X34234418Y-64898839D01*
X34725625Y-64570625D01*
X35053839Y-64079418D01*
X35169092Y-63500000D01*
X35053839Y-62920582D01*
X34725625Y-62429375D01*
X34427239Y-62230000D01*
X34725625Y-62030625D01*
X35053839Y-61539418D01*
X35169092Y-60960000D01*
X35053839Y-60380582D01*
X34725625Y-59889375D01*
X34427239Y-59690000D01*
X34725625Y-59490625D01*
X35053839Y-58999418D01*
X35169092Y-58420000D01*
X35053839Y-57840582D01*
X34725625Y-57349375D01*
X34427239Y-57150000D01*
X34725625Y-56950625D01*
X35053839Y-56459418D01*
X35169092Y-55880000D01*
X35053839Y-55300582D01*
X34725625Y-54809375D01*
X34427239Y-54610000D01*
X34725625Y-54410625D01*
X35053839Y-53919418D01*
X35169092Y-53340000D01*
X35053839Y-52760582D01*
X34725625Y-52269375D01*
X34427239Y-52070000D01*
X34725625Y-51870625D01*
X35053839Y-51379418D01*
X35169092Y-50800000D01*
X35053839Y-50220582D01*
X34725625Y-49729375D01*
X34427239Y-49530000D01*
X34725625Y-49330625D01*
X35053839Y-48839418D01*
X35169092Y-48260000D01*
X35053839Y-47680582D01*
X34725625Y-47189375D01*
X34427239Y-46990000D01*
X34725625Y-46790625D01*
X35053839Y-46299418D01*
X35169092Y-45720000D01*
X35053839Y-45140582D01*
X34725625Y-44649375D01*
X34427239Y-44450000D01*
X34725625Y-44250625D01*
X34923438Y-43954577D01*
X34925000Y-43954888D01*
X34999847Y-43940000D01*
X34999852Y-43940000D01*
X35221537Y-43895904D01*
X35472929Y-43727929D01*
X35515331Y-43664470D01*
X36044473Y-43135329D01*
X36070001Y-43118272D01*
X36070001Y-44375145D01*
X36070000Y-44375149D01*
X36070000Y-45010149D01*
X36070001Y-64060148D01*
X36055112Y-64135000D01*
X36070001Y-64209851D01*
X36070001Y-64209852D01*
X36109331Y-64407577D01*
X36114097Y-64431537D01*
X36178264Y-64527569D01*
X36282072Y-64682929D01*
X36345528Y-64725329D01*
X37509671Y-65889473D01*
X37552071Y-65952929D01*
X37803463Y-66120904D01*
X38025148Y-66165000D01*
X38025152Y-66165000D01*
X38099999Y-66179888D01*
X38174846Y-66165000D01*
X48820153Y-66165000D01*
X48895000Y-66179888D01*
X48969847Y-66165000D01*
X48969852Y-66165000D01*
X49191537Y-66120904D01*
X49442929Y-65952929D01*
X49485331Y-65889470D01*
X49765000Y-65609802D01*
X49765000Y-65610874D01*
X49922569Y-65991280D01*
X50213720Y-66282431D01*
X50594126Y-66440000D01*
X51005874Y-66440000D01*
X51386280Y-66282431D01*
X51503711Y-66165000D01*
X67870153Y-66165000D01*
X67945000Y-66179888D01*
X68019847Y-66165000D01*
X68019852Y-66165000D01*
X68241537Y-66120904D01*
X68492929Y-65952929D01*
X68535331Y-65889470D01*
X70334473Y-64090329D01*
X70397929Y-64047929D01*
X70537890Y-63838463D01*
X70565904Y-63796538D01*
X70607569Y-63587071D01*
X70610000Y-63574852D01*
X70610000Y-63574848D01*
X70624888Y-63500000D01*
X70610000Y-63425152D01*
X70610000Y-52779847D01*
X70624888Y-52705000D01*
X70610000Y-52630153D01*
X70610000Y-52630148D01*
X70565904Y-52408463D01*
X70397929Y-52157071D01*
X70334473Y-52114671D01*
X68408331Y-50188530D01*
X68365929Y-50125071D01*
X68114537Y-49957096D01*
X67892852Y-49913000D01*
X67892847Y-49913000D01*
X67818000Y-49898112D01*
X67743153Y-49913000D01*
X65988043Y-49913000D01*
X65804577Y-49638423D01*
X65452242Y-49403000D01*
X65804577Y-49167577D01*
X65988043Y-48893000D01*
X68124153Y-48893000D01*
X68199000Y-48907888D01*
X68273847Y-48893000D01*
X68273852Y-48893000D01*
X68495537Y-48848904D01*
X68746929Y-48680929D01*
X68789331Y-48617470D01*
X70334473Y-47072329D01*
X70397929Y-47029929D01*
X70565904Y-46778537D01*
X70610000Y-46556852D01*
X70610000Y-46556848D01*
X70624888Y-46482000D01*
X70610000Y-46407152D01*
X70610000Y-45915711D01*
X70727431Y-45798280D01*
X70885000Y-45417874D01*
X70885000Y-45006126D01*
X70727431Y-44625720D01*
X70436280Y-44334569D01*
X70055874Y-44177000D01*
X69644126Y-44177000D01*
X69263720Y-44334569D01*
X68972569Y-44625720D01*
X68832000Y-44965084D01*
X68832000Y-42105711D01*
X68949431Y-41988280D01*
X69107000Y-41607874D01*
X69107000Y-41323000D01*
X71205365Y-41323000D01*
X71355423Y-41547577D01*
X71707758Y-41783000D01*
X71355423Y-42018423D01*
X71038260Y-42493091D01*
X70926887Y-43053000D01*
X71038260Y-43612909D01*
X71355423Y-44087577D01*
X71707758Y-44323000D01*
X71355423Y-44558423D01*
X71038260Y-45033091D01*
X70926887Y-45593000D01*
X71038260Y-46152909D01*
X71355423Y-46627577D01*
X71707758Y-46863000D01*
X71355423Y-47098423D01*
X71038260Y-47573091D01*
X70926887Y-48133000D01*
X71038260Y-48692909D01*
X71355423Y-49167577D01*
X71707758Y-49403000D01*
X71355423Y-49638423D01*
X71038260Y-50113091D01*
X70926887Y-50673000D01*
X71038260Y-51232909D01*
X71355423Y-51707577D01*
X71707758Y-51943000D01*
X71355423Y-52178423D01*
X71038260Y-52653091D01*
X70926887Y-53213000D01*
X71038260Y-53772909D01*
X71355423Y-54247577D01*
X71707758Y-54483000D01*
X71355423Y-54718423D01*
X71038260Y-55193091D01*
X70926887Y-55753000D01*
X71038260Y-56312909D01*
X71355423Y-56787577D01*
X71707758Y-57023000D01*
X71355423Y-57258423D01*
X71038260Y-57733091D01*
X70926887Y-58293000D01*
X71038260Y-58852909D01*
X71355423Y-59327577D01*
X71707758Y-59563000D01*
X71355423Y-59798423D01*
X71038260Y-60273091D01*
X70926887Y-60833000D01*
X71038260Y-61392909D01*
X71355423Y-61867577D01*
X71707758Y-62103000D01*
X71355423Y-62338423D01*
X71038260Y-62813091D01*
X70926887Y-63373000D01*
X71038260Y-63932909D01*
X71355423Y-64407577D01*
X71830091Y-64724740D01*
X72248667Y-64808000D01*
X72531333Y-64808000D01*
X72949909Y-64724740D01*
X73424577Y-64407577D01*
X73741740Y-63932909D01*
X73827851Y-63500000D01*
X75320908Y-63500000D01*
X75436161Y-64079418D01*
X75764375Y-64570625D01*
X76255582Y-64898839D01*
X76688744Y-64985000D01*
X76981256Y-64985000D01*
X77414418Y-64898839D01*
X77905625Y-64570625D01*
X78233839Y-64079418D01*
X78349092Y-63500000D01*
X78233839Y-62920582D01*
X77905625Y-62429375D01*
X77887381Y-62417184D01*
X77932765Y-62408157D01*
X78142809Y-62267809D01*
X78283157Y-62057765D01*
X78332440Y-61810000D01*
X78332440Y-60110000D01*
X78283157Y-59862235D01*
X78142809Y-59652191D01*
X77932765Y-59511843D01*
X77685000Y-59462560D01*
X75985000Y-59462560D01*
X75737235Y-59511843D01*
X75527191Y-59652191D01*
X75386843Y-59862235D01*
X75337560Y-60110000D01*
X75337560Y-61810000D01*
X75386843Y-62057765D01*
X75527191Y-62267809D01*
X75737235Y-62408157D01*
X75782619Y-62417184D01*
X75764375Y-62429375D01*
X75436161Y-62920582D01*
X75320908Y-63500000D01*
X73827851Y-63500000D01*
X73853113Y-63373000D01*
X73741740Y-62813091D01*
X73424577Y-62338423D01*
X73072242Y-62103000D01*
X73424577Y-61867577D01*
X73741740Y-61392909D01*
X73853113Y-60833000D01*
X73741740Y-60273091D01*
X73424577Y-59798423D01*
X73072242Y-59563000D01*
X73424577Y-59327577D01*
X73741740Y-58852909D01*
X73853113Y-58293000D01*
X73741740Y-57733091D01*
X73424577Y-57258423D01*
X73072242Y-57023000D01*
X73424577Y-56787577D01*
X73741740Y-56312909D01*
X73853113Y-55753000D01*
X73741740Y-55193091D01*
X73424577Y-54718423D01*
X73072242Y-54483000D01*
X73424577Y-54247577D01*
X73741740Y-53772909D01*
X73853113Y-53213000D01*
X73741740Y-52653091D01*
X73424577Y-52178423D01*
X73072242Y-51943000D01*
X73424577Y-51707577D01*
X73741740Y-51232909D01*
X73853113Y-50673000D01*
X73741740Y-50113091D01*
X73424577Y-49638423D01*
X73072242Y-49403000D01*
X73424577Y-49167577D01*
X73741740Y-48692909D01*
X73853113Y-48133000D01*
X73741740Y-47573091D01*
X73424577Y-47098423D01*
X73072242Y-46863000D01*
X73424577Y-46627577D01*
X73741740Y-46152909D01*
X73853113Y-45593000D01*
X73741740Y-45033091D01*
X73424577Y-44558423D01*
X73072242Y-44323000D01*
X73424577Y-44087577D01*
X73741740Y-43612909D01*
X73853113Y-43053000D01*
X73741740Y-42493091D01*
X73424577Y-42018423D01*
X73072242Y-41783000D01*
X73424577Y-41547577D01*
X73741740Y-41072909D01*
X73853113Y-40513000D01*
X73741740Y-39953091D01*
X73424577Y-39478423D01*
X72949909Y-39161260D01*
X72531333Y-39078000D01*
X72248667Y-39078000D01*
X71830091Y-39161260D01*
X71355423Y-39478423D01*
X71205365Y-39703000D01*
X70377000Y-39703000D01*
X70377000Y-39418126D01*
X70219431Y-39037720D01*
X70102000Y-38920289D01*
X70102000Y-37819642D01*
X70334475Y-37587168D01*
X70397929Y-37544769D01*
X70440327Y-37481316D01*
X70440329Y-37481314D01*
X70565903Y-37293378D01*
X70565904Y-37293377D01*
X70610000Y-37071692D01*
X70610000Y-37071688D01*
X70618554Y-37028684D01*
X70785216Y-36959650D01*
X71120000Y-36624866D01*
X71454784Y-36959650D01*
X72061596Y-37211000D01*
X72718404Y-37211000D01*
X73325216Y-36959650D01*
X73789650Y-36495216D01*
X74041000Y-35888404D01*
X74041000Y-35231596D01*
X73789650Y-34624784D01*
X73325216Y-34160350D01*
X72718404Y-33909000D01*
X72061596Y-33909000D01*
X71454784Y-34160350D01*
X71120000Y-34495134D01*
X70785216Y-34160350D01*
X70178404Y-33909000D01*
X69521596Y-33909000D01*
X68914784Y-34160350D01*
X68580000Y-34495134D01*
X68245216Y-34160350D01*
X67638404Y-33909000D01*
X66981596Y-33909000D01*
X66374784Y-34160350D01*
X66040000Y-34495134D01*
X65705216Y-34160350D01*
X65098404Y-33909000D01*
X64441596Y-33909000D01*
X63834784Y-34160350D01*
X63500000Y-34495134D01*
X63165216Y-34160350D01*
X62558404Y-33909000D01*
X61901596Y-33909000D01*
X61294784Y-34160350D01*
X60960000Y-34495134D01*
X60625216Y-34160350D01*
X60018404Y-33909000D01*
X59361596Y-33909000D01*
X58754784Y-34160350D01*
X58420000Y-34495134D01*
X58085216Y-34160350D01*
X57478404Y-33909000D01*
X56821596Y-33909000D01*
X56214784Y-34160350D01*
X55880000Y-34495134D01*
X55545216Y-34160350D01*
X54938404Y-33909000D01*
X54281596Y-33909000D01*
X53674784Y-34160350D01*
X53340000Y-34495134D01*
X53005216Y-34160350D01*
X52398404Y-33909000D01*
X51741596Y-33909000D01*
X51134784Y-34160350D01*
X51085975Y-34209159D01*
X51003809Y-34086191D01*
X50793765Y-33945843D01*
X50546000Y-33896560D01*
X48514000Y-33896560D01*
X48266235Y-33945843D01*
X48056191Y-34086191D01*
X47915843Y-34296235D01*
X47866560Y-34544000D01*
X47866560Y-36576000D01*
X47915843Y-36823765D01*
X48056191Y-37033809D01*
X48266235Y-37174157D01*
X48514000Y-37223440D01*
X50546000Y-37223440D01*
X50793765Y-37174157D01*
X51003809Y-37033809D01*
X51085975Y-36910841D01*
X51134784Y-36959650D01*
X51310001Y-37032227D01*
X51310000Y-38158289D01*
X51192569Y-38275720D01*
X51035000Y-38656126D01*
X51035000Y-38903001D01*
X50409768Y-38903001D01*
X50329998Y-38887134D01*
X50250229Y-38903001D01*
X50250225Y-38903001D01*
X50013953Y-38949998D01*
X49787733Y-39101153D01*
X49671333Y-39078000D01*
X49388667Y-39078000D01*
X48970091Y-39161260D01*
X48496929Y-39477417D01*
X47800000Y-38780488D01*
X47800000Y-36909772D01*
X47815868Y-36829999D01*
X47773102Y-36615000D01*
X47753003Y-36513954D01*
X47573977Y-36246023D01*
X47506347Y-36200834D01*
X46349168Y-35043656D01*
X46303977Y-34976023D01*
X46036046Y-34796997D01*
X45799774Y-34750000D01*
X45799773Y-34750000D01*
X45720000Y-34734132D01*
X45640227Y-34750000D01*
X34899769Y-34750000D01*
X34725625Y-34489375D01*
X34703967Y-34474904D01*
X34864698Y-34408327D01*
X35043327Y-34229699D01*
X35140000Y-33996310D01*
X35140000Y-33305750D01*
X34981250Y-33147000D01*
X33782000Y-33147000D01*
X33782000Y-33167000D01*
X33528000Y-33167000D01*
X33528000Y-33147000D01*
X32328750Y-33147000D01*
X32170000Y-33305750D01*
X32170000Y-33996310D01*
X32266673Y-34229699D01*
X32445302Y-34408327D01*
X32606033Y-34474904D01*
X32584375Y-34489375D01*
X32256161Y-34980582D01*
X32140908Y-35560000D01*
X28015000Y-35560000D01*
X28015000Y-32043690D01*
X32170000Y-32043690D01*
X32170000Y-32734250D01*
X32328750Y-32893000D01*
X33528000Y-32893000D01*
X33528000Y-31693750D01*
X33782000Y-31693750D01*
X33782000Y-32893000D01*
X34981250Y-32893000D01*
X35140000Y-32734250D01*
X35140000Y-32043690D01*
X35043327Y-31810301D01*
X34864698Y-31631673D01*
X34631309Y-31535000D01*
X33940750Y-31535000D01*
X33782000Y-31693750D01*
X33528000Y-31693750D01*
X33369250Y-31535000D01*
X32678691Y-31535000D01*
X32445302Y-31631673D01*
X32266673Y-31810301D01*
X32170000Y-32043690D01*
X28015000Y-32043690D01*
X28015000Y-27611596D01*
X47879000Y-27611596D01*
X47879000Y-28268404D01*
X48130350Y-28875216D01*
X48594784Y-29339650D01*
X49201596Y-29591000D01*
X49858404Y-29591000D01*
X50465216Y-29339650D01*
X50800000Y-29004866D01*
X51134784Y-29339650D01*
X51741596Y-29591000D01*
X52398404Y-29591000D01*
X53005216Y-29339650D01*
X53340000Y-29004866D01*
X53674784Y-29339650D01*
X54281596Y-29591000D01*
X54938404Y-29591000D01*
X55545216Y-29339650D01*
X55880000Y-29004866D01*
X56214784Y-29339650D01*
X56821596Y-29591000D01*
X57478404Y-29591000D01*
X58085216Y-29339650D01*
X58420000Y-29004866D01*
X58754784Y-29339650D01*
X59361596Y-29591000D01*
X60018404Y-29591000D01*
X60625216Y-29339650D01*
X60960000Y-29004866D01*
X61294784Y-29339650D01*
X61901596Y-29591000D01*
X62558404Y-29591000D01*
X63165216Y-29339650D01*
X63500000Y-29004866D01*
X63834784Y-29339650D01*
X64441596Y-29591000D01*
X65098404Y-29591000D01*
X65705216Y-29339650D01*
X66040000Y-29004866D01*
X66374784Y-29339650D01*
X66981596Y-29591000D01*
X67638404Y-29591000D01*
X68245216Y-29339650D01*
X68580000Y-29004866D01*
X68914784Y-29339650D01*
X69521596Y-29591000D01*
X70178404Y-29591000D01*
X70785216Y-29339650D01*
X71120000Y-29004866D01*
X71454784Y-29339650D01*
X72061596Y-29591000D01*
X72718404Y-29591000D01*
X73325216Y-29339650D01*
X73789650Y-28875216D01*
X74041000Y-28268404D01*
X74041000Y-27611596D01*
X73789650Y-27004784D01*
X73454866Y-26670000D01*
X75320908Y-26670000D01*
X75436161Y-27249418D01*
X75764375Y-27740625D01*
X76255582Y-28068839D01*
X76688744Y-28155000D01*
X76981256Y-28155000D01*
X77414418Y-28068839D01*
X77905625Y-27740625D01*
X78233839Y-27249418D01*
X78349092Y-26670000D01*
X78233839Y-26090582D01*
X77905625Y-25599375D01*
X77887381Y-25587184D01*
X77932765Y-25578157D01*
X78142809Y-25437809D01*
X78283157Y-25227765D01*
X78332440Y-24980000D01*
X78332440Y-23280000D01*
X78283157Y-23032235D01*
X78142809Y-22822191D01*
X77932765Y-22681843D01*
X77685000Y-22632560D01*
X75985000Y-22632560D01*
X75737235Y-22681843D01*
X75527191Y-22822191D01*
X75386843Y-23032235D01*
X75337560Y-23280000D01*
X75337560Y-24980000D01*
X75386843Y-25227765D01*
X75527191Y-25437809D01*
X75737235Y-25578157D01*
X75782619Y-25587184D01*
X75764375Y-25599375D01*
X75436161Y-26090582D01*
X75320908Y-26670000D01*
X73454866Y-26670000D01*
X73325216Y-26540350D01*
X72718404Y-26289000D01*
X72061596Y-26289000D01*
X71454784Y-26540350D01*
X71120000Y-26875134D01*
X70785216Y-26540350D01*
X70178404Y-26289000D01*
X69521596Y-26289000D01*
X68914784Y-26540350D01*
X68580000Y-26875134D01*
X68245216Y-26540350D01*
X67638404Y-26289000D01*
X66981596Y-26289000D01*
X66374784Y-26540350D01*
X66040000Y-26875134D01*
X65705216Y-26540350D01*
X65098404Y-26289000D01*
X64441596Y-26289000D01*
X63834784Y-26540350D01*
X63500000Y-26875134D01*
X63165216Y-26540350D01*
X62558404Y-26289000D01*
X61901596Y-26289000D01*
X61294784Y-26540350D01*
X60960000Y-26875134D01*
X60625216Y-26540350D01*
X60018404Y-26289000D01*
X59361596Y-26289000D01*
X58754784Y-26540350D01*
X58420000Y-26875134D01*
X58085216Y-26540350D01*
X57478404Y-26289000D01*
X56821596Y-26289000D01*
X56214784Y-26540350D01*
X55880000Y-26875134D01*
X55545216Y-26540350D01*
X54938404Y-26289000D01*
X54281596Y-26289000D01*
X53674784Y-26540350D01*
X53340000Y-26875134D01*
X53005216Y-26540350D01*
X52398404Y-26289000D01*
X51741596Y-26289000D01*
X51134784Y-26540350D01*
X50800000Y-26875134D01*
X50465216Y-26540350D01*
X49858404Y-26289000D01*
X49201596Y-26289000D01*
X48594784Y-26540350D01*
X48130350Y-27004784D01*
X47879000Y-27611596D01*
X28015000Y-27611596D01*
X28015000Y-24415750D01*
X48095000Y-24415750D01*
X48095000Y-25056310D01*
X48191673Y-25289699D01*
X48370302Y-25468327D01*
X48603691Y-25565000D01*
X49244250Y-25565000D01*
X49403000Y-25406250D01*
X49403000Y-24257000D01*
X48253750Y-24257000D01*
X48095000Y-24415750D01*
X28015000Y-24415750D01*
X28015000Y-23203690D01*
X48095000Y-23203690D01*
X48095000Y-23844250D01*
X48253750Y-24003000D01*
X49403000Y-24003000D01*
X49403000Y-22853750D01*
X49657000Y-22853750D01*
X49657000Y-24003000D01*
X49677000Y-24003000D01*
X49677000Y-24257000D01*
X49657000Y-24257000D01*
X49657000Y-25406250D01*
X49815750Y-25565000D01*
X50456309Y-25565000D01*
X50689698Y-25468327D01*
X50868327Y-25289699D01*
X50964266Y-25058083D01*
X51035423Y-25164577D01*
X51510091Y-25481740D01*
X51928667Y-25565000D01*
X52211333Y-25565000D01*
X52629909Y-25481740D01*
X53104577Y-25164577D01*
X53340000Y-24812242D01*
X53575423Y-25164577D01*
X54050091Y-25481740D01*
X54468667Y-25565000D01*
X54751333Y-25565000D01*
X55169909Y-25481740D01*
X55644577Y-25164577D01*
X55880000Y-24812242D01*
X56115423Y-25164577D01*
X56590091Y-25481740D01*
X57008667Y-25565000D01*
X57291333Y-25565000D01*
X57709909Y-25481740D01*
X58184577Y-25164577D01*
X58420000Y-24812242D01*
X58655423Y-25164577D01*
X59130091Y-25481740D01*
X59548667Y-25565000D01*
X59831333Y-25565000D01*
X60249909Y-25481740D01*
X60724577Y-25164577D01*
X60960000Y-24812242D01*
X61195423Y-25164577D01*
X61670091Y-25481740D01*
X62088667Y-25565000D01*
X62371333Y-25565000D01*
X62789909Y-25481740D01*
X63264577Y-25164577D01*
X63500000Y-24812242D01*
X63735423Y-25164577D01*
X64210091Y-25481740D01*
X64628667Y-25565000D01*
X64911333Y-25565000D01*
X65329909Y-25481740D01*
X65804577Y-25164577D01*
X66040000Y-24812242D01*
X66275423Y-25164577D01*
X66750091Y-25481740D01*
X67168667Y-25565000D01*
X67451333Y-25565000D01*
X67869909Y-25481740D01*
X68344577Y-25164577D01*
X68580000Y-24812242D01*
X68815423Y-25164577D01*
X69290091Y-25481740D01*
X69708667Y-25565000D01*
X69991333Y-25565000D01*
X70409909Y-25481740D01*
X70884577Y-25164577D01*
X71201740Y-24689909D01*
X71313113Y-24130000D01*
X71201740Y-23570091D01*
X70884577Y-23095423D01*
X70409909Y-22778260D01*
X69991333Y-22695000D01*
X69708667Y-22695000D01*
X69290091Y-22778260D01*
X68815423Y-23095423D01*
X68580000Y-23447758D01*
X68344577Y-23095423D01*
X67869909Y-22778260D01*
X67451333Y-22695000D01*
X67168667Y-22695000D01*
X66750091Y-22778260D01*
X66275423Y-23095423D01*
X66040000Y-23447758D01*
X65804577Y-23095423D01*
X65329909Y-22778260D01*
X64911333Y-22695000D01*
X64628667Y-22695000D01*
X64210091Y-22778260D01*
X63735423Y-23095423D01*
X63500000Y-23447758D01*
X63264577Y-23095423D01*
X62789909Y-22778260D01*
X62371333Y-22695000D01*
X62088667Y-22695000D01*
X61670091Y-22778260D01*
X61195423Y-23095423D01*
X60960000Y-23447758D01*
X60724577Y-23095423D01*
X60249909Y-22778260D01*
X59831333Y-22695000D01*
X59548667Y-22695000D01*
X59130091Y-22778260D01*
X58655423Y-23095423D01*
X58420000Y-23447758D01*
X58184577Y-23095423D01*
X57709909Y-22778260D01*
X57291333Y-22695000D01*
X57008667Y-22695000D01*
X56590091Y-22778260D01*
X56115423Y-23095423D01*
X55880000Y-23447758D01*
X55644577Y-23095423D01*
X55169909Y-22778260D01*
X54751333Y-22695000D01*
X54468667Y-22695000D01*
X54050091Y-22778260D01*
X53575423Y-23095423D01*
X53340000Y-23447758D01*
X53104577Y-23095423D01*
X52629909Y-22778260D01*
X52211333Y-22695000D01*
X51928667Y-22695000D01*
X51510091Y-22778260D01*
X51035423Y-23095423D01*
X50964266Y-23201917D01*
X50868327Y-22970301D01*
X50689698Y-22791673D01*
X50456309Y-22695000D01*
X49815750Y-22695000D01*
X49657000Y-22853750D01*
X49403000Y-22853750D01*
X49244250Y-22695000D01*
X48603691Y-22695000D01*
X48370302Y-22791673D01*
X48191673Y-22970301D01*
X48095000Y-23203690D01*
X28015000Y-23203690D01*
X28015000Y-18490000D01*
X82475000Y-18490000D01*
X82475001Y-69140000D01*
G36*
X46180000Y-37165513D02*
X46180001Y-39036222D01*
X46164132Y-39116000D01*
X46206195Y-39327462D01*
X46226998Y-39432046D01*
X46406024Y-39699977D01*
X46473654Y-39745166D01*
X47757834Y-41029347D01*
X47803023Y-41096977D01*
X48070954Y-41276003D01*
X48307226Y-41323000D01*
X48307230Y-41323000D01*
X48351211Y-41331748D01*
X48495423Y-41547577D01*
X48847758Y-41783000D01*
X48495423Y-42018423D01*
X48178260Y-42493091D01*
X48066887Y-43053000D01*
X48168332Y-43563000D01*
X45286846Y-43563000D01*
X45211999Y-43548112D01*
X45137152Y-43563000D01*
X45137148Y-43563000D01*
X44915463Y-43607096D01*
X44852902Y-43648898D01*
X44727526Y-43732671D01*
X44727524Y-43732673D01*
X44664071Y-43775071D01*
X44621673Y-43838524D01*
X43330530Y-45129669D01*
X43286767Y-45158910D01*
X43261740Y-45033091D01*
X42944577Y-44558423D01*
X42592242Y-44323000D01*
X42944577Y-44087577D01*
X43261740Y-43612909D01*
X43373113Y-43053000D01*
X43261740Y-42493091D01*
X42944577Y-42018423D01*
X42823894Y-41937785D01*
X42957765Y-41911157D01*
X43167809Y-41770809D01*
X43308157Y-41560765D01*
X43357440Y-41313000D01*
X43357440Y-39713000D01*
X43308157Y-39465235D01*
X43167809Y-39255191D01*
X42957765Y-39114843D01*
X42710000Y-39065560D01*
X41110000Y-39065560D01*
X40862235Y-39114843D01*
X40652191Y-39255191D01*
X40511843Y-39465235D01*
X40462560Y-39713000D01*
X40462560Y-41313000D01*
X40511843Y-41560765D01*
X40652191Y-41770809D01*
X40862235Y-41911157D01*
X40996106Y-41937785D01*
X40875423Y-42018423D01*
X40558260Y-42493091D01*
X40446887Y-43053000D01*
X40558260Y-43612909D01*
X40875423Y-44087577D01*
X41227758Y-44323000D01*
X40875423Y-44558423D01*
X40558260Y-45033091D01*
X40446887Y-45593000D01*
X40558260Y-46152909D01*
X40875423Y-46627577D01*
X41227758Y-46863000D01*
X40875423Y-47098423D01*
X40558260Y-47573091D01*
X40446887Y-48133000D01*
X40515119Y-48476023D01*
X40210874Y-48350001D01*
X39799126Y-48350001D01*
X39418720Y-48507570D01*
X39127569Y-48798721D01*
X38970000Y-49179127D01*
X38970000Y-49590875D01*
X39127569Y-49971281D01*
X39245001Y-50088713D01*
X39245000Y-54916153D01*
X39230112Y-54991000D01*
X39245000Y-55065847D01*
X39245000Y-55065851D01*
X39289096Y-55287536D01*
X39457071Y-55538929D01*
X39520530Y-55581331D01*
X40176671Y-56237473D01*
X40219071Y-56300929D01*
X40282527Y-56343329D01*
X40470462Y-56468904D01*
X40518605Y-56478480D01*
X40691927Y-56512956D01*
X40875423Y-56787577D01*
X41227758Y-57023000D01*
X40875423Y-57258423D01*
X40558260Y-57733091D01*
X40446887Y-58293000D01*
X40558260Y-58852909D01*
X40875423Y-59327577D01*
X41227758Y-59563000D01*
X40875423Y-59798423D01*
X40558260Y-60273091D01*
X40446887Y-60833000D01*
X40558260Y-61392909D01*
X40875423Y-61867577D01*
X41259108Y-62123947D01*
X41054866Y-62220611D01*
X40678959Y-62635577D01*
X40518096Y-63023961D01*
X40640085Y-63246000D01*
X41783000Y-63246000D01*
X41783000Y-63226000D01*
X42037000Y-63226000D01*
X42037000Y-63246000D01*
X43179915Y-63246000D01*
X43301904Y-63023961D01*
X43141041Y-62635577D01*
X42765134Y-62220611D01*
X42560892Y-62123947D01*
X42944577Y-61867577D01*
X42971893Y-61826695D01*
X43690001Y-62544803D01*
X43690000Y-63431289D01*
X43572569Y-63548720D01*
X43415000Y-63929126D01*
X43415000Y-64340874D01*
X43540973Y-64645000D01*
X42512408Y-64645000D01*
X42765134Y-64525389D01*
X43141041Y-64110423D01*
X43301904Y-63722039D01*
X43179915Y-63500000D01*
X42037000Y-63500000D01*
X42037000Y-63520000D01*
X41783000Y-63520000D01*
X41783000Y-63500000D01*
X40640085Y-63500000D01*
X40518096Y-63722039D01*
X40678959Y-64110423D01*
X41054866Y-64525389D01*
X41307592Y-64645000D01*
X38414802Y-64645000D01*
X37590000Y-63820199D01*
X37590000Y-39444846D01*
X37604888Y-39369999D01*
X37590000Y-39295152D01*
X37590000Y-39295148D01*
X37545904Y-39073463D01*
X37377929Y-38822071D01*
X37314473Y-38779671D01*
X36150331Y-37615530D01*
X36107929Y-37552071D01*
X35856537Y-37384096D01*
X35634852Y-37340000D01*
X35634847Y-37340000D01*
X35560000Y-37325112D01*
X35485153Y-37340000D01*
X34933178Y-37340000D01*
X34725625Y-37029375D01*
X34427239Y-36830000D01*
X34725625Y-36630625D01*
X34899769Y-36370000D01*
X45384488Y-36370000D01*
X46180000Y-37165513D01*
X46180000Y-37165513D01*
G37*
X46180000Y-37165513D02*
X46180001Y-39036222D01*
X46164132Y-39116000D01*
X46206195Y-39327462D01*
X46226998Y-39432046D01*
X46406024Y-39699977D01*
X46473654Y-39745166D01*
X47757834Y-41029347D01*
X47803023Y-41096977D01*
X48070954Y-41276003D01*
X48307226Y-41323000D01*
X48307230Y-41323000D01*
X48351211Y-41331748D01*
X48495423Y-41547577D01*
X48847758Y-41783000D01*
X48495423Y-42018423D01*
X48178260Y-42493091D01*
X48066887Y-43053000D01*
X48168332Y-43563000D01*
X45286846Y-43563000D01*
X45211999Y-43548112D01*
X45137152Y-43563000D01*
X45137148Y-43563000D01*
X44915463Y-43607096D01*
X44852902Y-43648898D01*
X44727526Y-43732671D01*
X44727524Y-43732673D01*
X44664071Y-43775071D01*
X44621673Y-43838524D01*
X43330530Y-45129669D01*
X43286767Y-45158910D01*
X43261740Y-45033091D01*
X42944577Y-44558423D01*
X42592242Y-44323000D01*
X42944577Y-44087577D01*
X43261740Y-43612909D01*
X43373113Y-43053000D01*
X43261740Y-42493091D01*
X42944577Y-42018423D01*
X42823894Y-41937785D01*
X42957765Y-41911157D01*
X43167809Y-41770809D01*
X43308157Y-41560765D01*
X43357440Y-41313000D01*
X43357440Y-39713000D01*
X43308157Y-39465235D01*
X43167809Y-39255191D01*
X42957765Y-39114843D01*
X42710000Y-39065560D01*
X41110000Y-39065560D01*
X40862235Y-39114843D01*
X40652191Y-39255191D01*
X40511843Y-39465235D01*
X40462560Y-39713000D01*
X40462560Y-41313000D01*
X40511843Y-41560765D01*
X40652191Y-41770809D01*
X40862235Y-41911157D01*
X40996106Y-41937785D01*
X40875423Y-42018423D01*
X40558260Y-42493091D01*
X40446887Y-43053000D01*
X40558260Y-43612909D01*
X40875423Y-44087577D01*
X41227758Y-44323000D01*
X40875423Y-44558423D01*
X40558260Y-45033091D01*
X40446887Y-45593000D01*
X40558260Y-46152909D01*
X40875423Y-46627577D01*
X41227758Y-46863000D01*
X40875423Y-47098423D01*
X40558260Y-47573091D01*
X40446887Y-48133000D01*
X40515119Y-48476023D01*
X40210874Y-48350001D01*
X39799126Y-48350001D01*
X39418720Y-48507570D01*
X39127569Y-48798721D01*
X38970000Y-49179127D01*
X38970000Y-49590875D01*
X39127569Y-49971281D01*
X39245001Y-50088713D01*
X39245000Y-54916153D01*
X39230112Y-54991000D01*
X39245000Y-55065847D01*
X39245000Y-55065851D01*
X39289096Y-55287536D01*
X39457071Y-55538929D01*
X39520530Y-55581331D01*
X40176671Y-56237473D01*
X40219071Y-56300929D01*
X40282527Y-56343329D01*
X40470462Y-56468904D01*
X40518605Y-56478480D01*
X40691927Y-56512956D01*
X40875423Y-56787577D01*
X41227758Y-57023000D01*
X40875423Y-57258423D01*
X40558260Y-57733091D01*
X40446887Y-58293000D01*
X40558260Y-58852909D01*
X40875423Y-59327577D01*
X41227758Y-59563000D01*
X40875423Y-59798423D01*
X40558260Y-60273091D01*
X40446887Y-60833000D01*
X40558260Y-61392909D01*
X40875423Y-61867577D01*
X41259108Y-62123947D01*
X41054866Y-62220611D01*
X40678959Y-62635577D01*
X40518096Y-63023961D01*
X40640085Y-63246000D01*
X41783000Y-63246000D01*
X41783000Y-63226000D01*
X42037000Y-63226000D01*
X42037000Y-63246000D01*
X43179915Y-63246000D01*
X43301904Y-63023961D01*
X43141041Y-62635577D01*
X42765134Y-62220611D01*
X42560892Y-62123947D01*
X42944577Y-61867577D01*
X42971893Y-61826695D01*
X43690001Y-62544803D01*
X43690000Y-63431289D01*
X43572569Y-63548720D01*
X43415000Y-63929126D01*
X43415000Y-64340874D01*
X43540973Y-64645000D01*
X42512408Y-64645000D01*
X42765134Y-64525389D01*
X43141041Y-64110423D01*
X43301904Y-63722039D01*
X43179915Y-63500000D01*
X42037000Y-63500000D01*
X42037000Y-63520000D01*
X41783000Y-63520000D01*
X41783000Y-63500000D01*
X40640085Y-63500000D01*
X40518096Y-63722039D01*
X40678959Y-64110423D01*
X41054866Y-64525389D01*
X41307592Y-64645000D01*
X38414802Y-64645000D01*
X37590000Y-63820199D01*
X37590000Y-39444846D01*
X37604888Y-39369999D01*
X37590000Y-39295152D01*
X37590000Y-39295148D01*
X37545904Y-39073463D01*
X37377929Y-38822071D01*
X37314473Y-38779671D01*
X36150331Y-37615530D01*
X36107929Y-37552071D01*
X35856537Y-37384096D01*
X35634852Y-37340000D01*
X35634847Y-37340000D01*
X35560000Y-37325112D01*
X35485153Y-37340000D01*
X34933178Y-37340000D01*
X34725625Y-37029375D01*
X34427239Y-36830000D01*
X34725625Y-36630625D01*
X34899769Y-36370000D01*
X45384488Y-36370000D01*
X46180000Y-37165513D01*
G36*
X57194671Y-62587473D02*
X57237071Y-62650929D01*
X57488463Y-62818904D01*
X57710148Y-62863000D01*
X57710152Y-62863000D01*
X57784999Y-62877888D01*
X57859846Y-62863000D01*
X63444764Y-62863000D01*
X63378096Y-63023961D01*
X63500085Y-63246000D01*
X64643000Y-63246000D01*
X64643000Y-63226000D01*
X64897000Y-63226000D01*
X64897000Y-63246000D01*
X66039915Y-63246000D01*
X66161904Y-63023961D01*
X66095236Y-62863000D01*
X67997153Y-62863000D01*
X68072000Y-62877888D01*
X68146847Y-62863000D01*
X68146852Y-62863000D01*
X68368537Y-62818904D01*
X68619929Y-62650929D01*
X68662330Y-62587471D01*
X69064475Y-62185327D01*
X69090000Y-62168272D01*
X69090001Y-63185197D01*
X67630199Y-64645000D01*
X65372408Y-64645000D01*
X65625134Y-64525389D01*
X66001041Y-64110423D01*
X66161904Y-63722039D01*
X66039915Y-63500000D01*
X64897000Y-63500000D01*
X64897000Y-63520000D01*
X64643000Y-63520000D01*
X64643000Y-63500000D01*
X63500085Y-63500000D01*
X63378096Y-63722039D01*
X63538959Y-64110423D01*
X63914866Y-64525389D01*
X64167592Y-64645000D01*
X51503711Y-64645000D01*
X51386280Y-64527569D01*
X51005874Y-64370000D01*
X50594126Y-64370000D01*
X50587986Y-64372543D01*
X50881740Y-63932909D01*
X50993113Y-63373000D01*
X50881740Y-62813091D01*
X50564577Y-62338423D01*
X50212242Y-62103000D01*
X50564577Y-61867577D01*
X50748043Y-61593000D01*
X56200199Y-61593000D01*
X57194671Y-62587473D01*
X57194671Y-62587473D01*
G37*
X57194671Y-62587473D02*
X57237071Y-62650929D01*
X57488463Y-62818904D01*
X57710148Y-62863000D01*
X57710152Y-62863000D01*
X57784999Y-62877888D01*
X57859846Y-62863000D01*
X63444764Y-62863000D01*
X63378096Y-63023961D01*
X63500085Y-63246000D01*
X64643000Y-63246000D01*
X64643000Y-63226000D01*
X64897000Y-63226000D01*
X64897000Y-63246000D01*
X66039915Y-63246000D01*
X66161904Y-63023961D01*
X66095236Y-62863000D01*
X67997153Y-62863000D01*
X68072000Y-62877888D01*
X68146847Y-62863000D01*
X68146852Y-62863000D01*
X68368537Y-62818904D01*
X68619929Y-62650929D01*
X68662330Y-62587471D01*
X69064475Y-62185327D01*
X69090000Y-62168272D01*
X69090001Y-63185197D01*
X67630199Y-64645000D01*
X65372408Y-64645000D01*
X65625134Y-64525389D01*
X66001041Y-64110423D01*
X66161904Y-63722039D01*
X66039915Y-63500000D01*
X64897000Y-63500000D01*
X64897000Y-63520000D01*
X64643000Y-63520000D01*
X64643000Y-63500000D01*
X63500085Y-63500000D01*
X63378096Y-63722039D01*
X63538959Y-64110423D01*
X63914866Y-64525389D01*
X64167592Y-64645000D01*
X51503711Y-64645000D01*
X51386280Y-64527569D01*
X51005874Y-64370000D01*
X50594126Y-64370000D01*
X50587986Y-64372543D01*
X50881740Y-63932909D01*
X50993113Y-63373000D01*
X50881740Y-62813091D01*
X50564577Y-62338423D01*
X50212242Y-62103000D01*
X50564577Y-61867577D01*
X50748043Y-61593000D01*
X56200199Y-61593000D01*
X57194671Y-62587473D01*
G04 #@! TD*
M02*
