M48
; DRILL file {KiCad (5.1.2)-2} date 08/16/19 19:30:53
; FORMAT={-:-/ absolute / inch / decimal}
; #@! TF.CreationDate,2019-08-16T19:30:53+02:00
; #@! TF.GenerationSoftware,Kicad,Pcbnew,(5.1.2)-2
; #@! TF.FileFunction,Plated,1,2,PTH
FMAT,2
INCH
T1C0.0157
T2C0.0276
T3C0.0315
T4C0.0354
T5C0.0394
%
G90
G05
T1
X5.3032Y-13.3804
X5.3318Y-13.1398
X5.6991Y-18.8677
X5.7368Y-18.5169
X6.1515Y-14.9409
X6.329Y-15.2257
X7.3503Y-12.3674
X7.4456Y-12.3791
X7.9974Y-10.9539
X8.0263Y-12.8736
X8.0456Y-13.0028
X8.075Y-18.838
X8.3754Y-6.4457
X8.9834Y-15.4666
X9.2862Y-13.7049
X9.9575Y-6.0987
X11.3646Y-18.5952
X11.4689Y-18.7351
X11.6338Y-19.4833
X11.8766Y-19.6836
X12.7284Y-17.8353
T2
X6.555Y-16.5
X6.555Y-16.5984
X7.775Y-7.4
X7.775Y-7.4984
X11.41Y-6.12
X11.5084Y-6.12
X5.075Y-7.75
X5.075Y-7.8484
X5.825Y-3.445
X5.825Y-3.5434
X2.675Y-15.35
X2.675Y-15.4484
X4.235Y-6.345
X4.235Y-6.4434
X2.675Y-18.6
X2.675Y-18.6984
X7.6Y-12.5
X7.6Y-12.5984
X2.675Y-7.75
X2.675Y-7.8484
X2.675Y-10.3
X2.675Y-10.3984
X5.075Y-10.3
X5.075Y-10.3984
X5.425Y-3.4966
X5.425Y-3.595
X2.675Y-13.4
X2.675Y-13.4984
X3.275Y-6.305
X3.275Y-6.385
X3.275Y-6.465
X3.475Y-6.305
X3.475Y-6.385
X3.475Y-6.465
T3
X3.715Y-6.6
X4.015Y-6.6
X3.995Y-6.345
X3.995Y-6.4434
X6.375Y-3.445
X6.375Y-3.545
X6.375Y-3.645
X6.375Y-3.745
X6.375Y-3.845
X6.375Y-3.945
X6.375Y-4.045
X6.675Y-3.445
X6.675Y-3.545
X6.675Y-3.645
X6.675Y-3.745
X6.675Y-3.845
X6.675Y-3.945
X6.675Y-4.045
T4
X3.715Y-6.345
X3.715Y-6.445
T5
X2.7913Y-7.75
X2.7913Y-7.85
X2.7913Y-7.95
X2.7913Y-8.05
X2.7913Y-8.15
X2.7913Y-8.25
X2.7913Y-8.35
X2.7913Y-8.45
X2.7913Y-8.55
X2.7913Y-8.65
X2.7913Y-8.75
X2.7913Y-8.85
X2.7913Y-8.95
X10.75Y-5.245
X10.75Y-5.345
X10.75Y-5.445
X10.75Y-5.545
X10.75Y-5.645
X10.75Y-5.745
X10.75Y-5.845
X10.75Y-5.945
X10.75Y-6.045
X10.75Y-6.145
X10.75Y-6.245
X10.75Y-6.345
X10.75Y-6.445
X7.725Y-13.9
X7.725Y-14.0
X7.725Y-14.1
X7.725Y-14.2
X7.725Y-14.3
X7.725Y-14.4
X7.725Y-14.5
X7.725Y-14.6
X7.725Y-14.7
X7.725Y-14.8
X7.725Y-14.9
X7.725Y-15.0
X7.725Y-15.1
X7.725Y-15.2
X7.725Y-15.3
X7.725Y-15.4
X13.1Y-7.4
X13.1Y-7.5
X13.1Y-7.6
X13.1Y-7.7
X13.1Y-7.8
X13.1Y-7.9
X13.1Y-8.0
X13.1Y-8.1
X13.1Y-8.2
X13.1Y-8.3
X13.1Y-8.4
X13.1Y-8.5
X13.1Y-8.6
X13.1Y-8.7
X13.1Y-8.8
X13.1Y-8.9
X5.5Y-18.8
X5.5Y-18.9
X5.5Y-19.0
X5.5Y-19.1
X5.5Y-19.2
X5.5Y-19.3
X5.5Y-19.4
X5.5Y-19.5
X5.5Y-19.6
X5.5Y-19.7
X5.5Y-19.8
X5.5Y-19.9
X5.5Y-20.0
X5.5Y-20.1
X5.5Y-20.2
X5.5Y-20.3
X13.01Y-3.495
X13.11Y-3.495
X4.4913Y-10.0
X4.4913Y-10.1
X7.725Y-12.5
X7.725Y-12.6
X7.725Y-12.7
X7.725Y-12.8
X7.725Y-12.9
X7.725Y-13.0
X7.725Y-13.1
X7.725Y-13.2
X7.725Y-13.3
X7.725Y-13.4
X7.725Y-13.5
X7.725Y-13.6
X7.725Y-13.7
X12.68Y-18.0
X12.68Y-18.1
X12.68Y-18.2
X12.68Y-18.3
X12.68Y-18.4
X12.68Y-18.5
X12.68Y-18.6
X12.68Y-18.7
X12.68Y-18.8
X12.68Y-18.9
X12.68Y-19.0
X12.68Y-19.1
X12.68Y-19.2
X12.68Y-19.3
X12.68Y-19.4
X12.68Y-19.5
X12.68Y-19.6
X12.68Y-19.7
X12.68Y-19.8
X12.68Y-19.9
X12.68Y-20.0
X12.68Y-20.1
X12.68Y-20.2
X12.68Y-20.3
X6.8913Y-11.4
X6.8913Y-11.5
X2.8Y-18.6
X2.8Y-18.7
X2.8Y-18.8
X2.8Y-18.9
X2.8Y-19.0
X2.8Y-19.1
X2.8Y-19.2
X2.8Y-19.3
X2.8Y-19.4
X2.8Y-19.5
X2.8Y-19.6
X2.8Y-19.7
X2.8Y-19.8
X2.8Y-19.9
X2.8Y-20.0
X2.8Y-20.1
X2.8Y-20.2
X2.8Y-20.3
X2.8Y-5.595
X2.8Y-5.695
X11.41Y-5.995
X11.51Y-5.995
X11.61Y-5.995
X11.71Y-5.995
X11.81Y-5.995
X11.91Y-5.995
X12.01Y-5.995
X12.11Y-5.995
X12.21Y-5.995
X12.31Y-5.995
X12.41Y-5.995
X12.51Y-5.995
X12.61Y-5.995
X12.71Y-5.995
X12.81Y-5.995
X12.91Y-5.995
X13.01Y-5.995
X13.11Y-5.995
X2.7913Y-10.3
X2.7913Y-10.4
X2.7913Y-10.5
X2.7913Y-10.6
X2.7913Y-10.7
X2.7913Y-10.8
X2.7913Y-10.9
X2.7913Y-11.0
X2.7913Y-11.1
X2.7913Y-11.2
X2.7913Y-11.3
X2.7913Y-11.4
X2.7913Y-11.5
X5.95Y-3.445
X5.95Y-3.545
X5.95Y-3.645
X5.95Y-3.745
X5.95Y-3.845
X5.95Y-3.945
X5.95Y-4.045
X5.95Y-4.145
X5.95Y-4.245
X5.95Y-4.345
X5.95Y-4.445
X5.95Y-4.545
X5.95Y-4.645
X2.8Y-4.395
X2.8Y-4.495
X13.1Y-9.9
X13.1Y-10.0
X13.1Y-10.1
X13.1Y-10.2
X13.1Y-10.3
X13.1Y-10.4
X13.1Y-10.5
X13.1Y-10.6
X13.1Y-10.7
X13.1Y-10.8
X13.1Y-10.9
X13.1Y-11.0
X13.1Y-11.1
X13.1Y-11.2
X13.1Y-11.3
X13.1Y-11.4
X13.1Y-12.5
X13.1Y-12.6
X13.1Y-12.7
X13.1Y-12.8
X13.1Y-12.9
X13.1Y-13.0
X13.1Y-13.1
X13.1Y-13.2
X6.68Y-16.5
X6.68Y-16.6
X6.68Y-16.7
X6.68Y-16.8
X6.68Y-16.9
X6.68Y-17.0
X6.68Y-17.1
X6.68Y-17.2
X6.68Y-17.3
X6.68Y-17.4
X6.68Y-17.5
X6.68Y-17.6
X6.68Y-17.7
X6.68Y-17.8
X6.68Y-17.9
X4.4913Y-11.4
X4.4913Y-11.5
X4.4913Y-7.45
X4.4913Y-7.55
X12.88Y-18.0
X12.88Y-18.1
X12.88Y-18.2
X12.88Y-18.3
X12.88Y-18.4
X12.88Y-18.5
X12.88Y-18.6
X12.88Y-18.7
X12.88Y-18.8
X12.88Y-18.9
X12.88Y-19.0
X12.88Y-19.1
X12.88Y-19.2
X12.88Y-19.3
X12.88Y-19.4
X12.88Y-19.5
X12.88Y-19.6
X12.88Y-19.7
X12.88Y-19.8
X12.88Y-19.9
X12.88Y-20.0
X12.88Y-20.1
X12.88Y-20.2
X12.88Y-20.3
X5.1913Y-7.75
X5.1913Y-7.85
X5.1913Y-7.95
X5.1913Y-8.05
X5.1913Y-8.15
X5.1913Y-8.25
X5.1913Y-8.35
X5.1913Y-8.45
X5.1913Y-8.55
X5.1913Y-8.65
X5.1913Y-8.75
X5.1913Y-8.85
X5.1913Y-8.95
X6.8913Y-10.0
X6.8913Y-10.1
X11.41Y-3.495
X11.51Y-3.495
X5.1913Y-10.3
X5.1913Y-10.4
X5.1913Y-10.5
X5.1913Y-10.6
X5.1913Y-10.7
X5.1913Y-10.8
X5.1913Y-10.9
X5.1913Y-11.0
X5.1913Y-11.1
X5.1913Y-11.2
X5.1913Y-11.3
X5.1913Y-11.4
X5.1913Y-11.5
X5.495Y-12.495
X5.495Y-12.595
X5.495Y-12.695
X5.495Y-12.795
X5.495Y-12.895
X5.495Y-12.995
X5.495Y-13.095
X5.495Y-13.195
X5.495Y-13.295
X5.495Y-13.395
X5.495Y-13.495
X5.495Y-13.595
X5.495Y-13.695
X5.495Y-13.795
X5.495Y-13.895
X5.495Y-13.995
X2.7913Y-15.35
X2.7913Y-15.45
X2.7913Y-15.55
X2.7913Y-15.65
X2.7913Y-15.75
X2.7913Y-15.85
X2.7913Y-15.95
X2.7913Y-16.05
X2.7913Y-16.15
X2.7913Y-16.25
X2.7913Y-16.35
X2.7913Y-16.45
X2.7913Y-16.55
X6.8913Y-7.45
X6.8913Y-7.55
X5.3Y-5.595
X5.3Y-5.695
X7.9Y-9.9
X7.9Y-10.0
X7.9Y-10.1
X7.9Y-10.2
X7.9Y-10.3
X7.9Y-10.4
X7.9Y-10.5
X7.9Y-10.6
X7.9Y-10.7
X7.9Y-10.8
X7.9Y-10.9
X7.9Y-11.0
X7.9Y-11.1
X7.9Y-11.2
X7.9Y-11.3
X7.9Y-11.4
X13.1Y-14.7
X13.1Y-14.8
X13.1Y-14.9
X13.1Y-15.0
X13.1Y-15.1
X13.1Y-15.2
X13.1Y-15.3
X13.1Y-15.4
X7.9Y-7.4
X7.9Y-7.5
X7.9Y-7.6
X7.9Y-7.7
X7.9Y-7.8
X7.9Y-7.9
X7.9Y-8.0
X7.9Y-8.1
X7.9Y-8.2
X7.9Y-8.3
X7.9Y-8.4
X7.9Y-8.5
X7.9Y-8.6
X7.9Y-8.7
X7.9Y-8.8
X7.9Y-8.9
X6.8913Y-8.85
X6.8913Y-8.95
X2.795Y-13.395
X2.795Y-13.495
X2.795Y-13.595
X2.795Y-13.695
X2.795Y-13.795
X2.795Y-13.895
X2.795Y-13.995
X5.3Y-3.495
X5.3Y-3.595
X5.3Y-3.695
X5.3Y-3.795
X5.3Y-3.895
X4.3163Y-15.845
X4.3163Y-15.945
X4.3163Y-16.045
X4.3163Y-16.145
X4.3163Y-16.245
X4.3163Y-16.345
X4.3163Y-16.445
X4.3163Y-16.545
X4.4913Y-8.85
X4.4913Y-8.95
T5
G00X2.6638Y-6.3806
M15
G01X2.6638Y-6.4594
M16
G05
G00X2.7425Y-6.605
M15
G01X2.8213Y-6.605
M16
G05
G00X2.9Y-6.3806
M15
G01X2.9Y-6.4594
M16
G05
T0
M30
