G04 #@! TF.GenerationSoftware,KiCad,Pcbnew,5.0.2+dfsg1-1*
G04 #@! TF.CreationDate,2019-07-29T21:30:37+02:00*
G04 #@! TF.ProjectId,Flags-Register,466c6167-732d-4526-9567-69737465722e,rev?*
G04 #@! TF.SameCoordinates,Original*
G04 #@! TF.FileFunction,Copper,L1,Top*
G04 #@! TF.FilePolarity,Positive*
%FSLAX46Y46*%
G04 Gerber Fmt 4.6, Leading zero omitted, Abs format (unit mm)*
G04 Created by KiCad (PCBNEW 5.0.2+dfsg1-1) date ma 29 jul 2019 21:30:37 CEST*
%MOMM*%
%LPD*%
G01*
G04 APERTURE LIST*
G04 #@! TA.AperFunction,ComponentPad*
%ADD10O,1.700000X1.700000*%
G04 #@! TD*
G04 #@! TA.AperFunction,ComponentPad*
%ADD11R,1.700000X1.700000*%
G04 #@! TD*
G04 #@! TA.AperFunction,ComponentPad*
%ADD12R,1.800000X1.800000*%
G04 #@! TD*
G04 #@! TA.AperFunction,ComponentPad*
%ADD13C,1.800000*%
G04 #@! TD*
G04 #@! TA.AperFunction,ComponentPad*
%ADD14O,1.600000X1.600000*%
G04 #@! TD*
G04 #@! TA.AperFunction,ComponentPad*
%ADD15R,1.600000X1.600000*%
G04 #@! TD*
G04 #@! TA.AperFunction,ComponentPad*
%ADD16C,1.600000*%
G04 #@! TD*
G04 #@! TA.AperFunction,ViaPad*
%ADD17C,0.800000*%
G04 #@! TD*
G04 #@! TA.AperFunction,Conductor*
%ADD18C,0.250000*%
G04 #@! TD*
G04 #@! TA.AperFunction,Conductor*
%ADD19C,0.350000*%
G04 #@! TD*
G04 APERTURE END LIST*
D10*
G04 #@! TO.P,J2,2*
G04 #@! TO.N,Net-(J2-Pad2)*
X109220000Y-48260000D03*
D11*
G04 #@! TO.P,J2,1*
G04 #@! TO.N,Net-(J2-Pad1)*
X109220000Y-45720000D03*
G04 #@! TD*
G04 #@! TO.P,J3,1*
G04 #@! TO.N,Net-(J3-Pad1)*
X109220000Y-86360000D03*
D10*
G04 #@! TO.P,J3,2*
G04 #@! TO.N,Net-(J3-Pad2)*
X109220000Y-88900000D03*
G04 #@! TD*
D11*
G04 #@! TO.P,J1,1*
G04 #@! TO.N,GND*
X45720000Y-45720000D03*
D10*
G04 #@! TO.P,J1,2*
G04 #@! TO.N,+5V*
X45720000Y-48260000D03*
G04 #@! TO.P,J1,3*
G04 #@! TO.N,CLOCK*
X45720000Y-50800000D03*
G04 #@! TO.P,J1,4*
G04 #@! TO.N,Fc_LOAD*
X45720000Y-53340000D03*
G04 #@! TO.P,J1,5*
G04 #@! TO.N,Fz_LOAD*
X45720000Y-55880000D03*
G04 #@! TO.P,J1,6*
G04 #@! TO.N,Flt_LOAD*
X45720000Y-58420000D03*
G04 #@! TO.P,J1,7*
G04 #@! TO.N,Fgt_LOAD*
X45720000Y-60960000D03*
G04 #@! TO.P,J1,8*
G04 #@! TO.N,Feq_LOAD*
X45720000Y-63500000D03*
G04 #@! TO.P,J1,9*
G04 #@! TO.N,Fc_SET*
X45720000Y-66040000D03*
G04 #@! TO.P,J1,10*
G04 #@! TO.N,Fc_CLEAR*
X45720000Y-68580000D03*
G04 #@! TO.P,J1,11*
G04 #@! TO.N,Fc_IN*
X45720000Y-71120000D03*
G04 #@! TO.P,J1,12*
G04 #@! TO.N,Fz_IN*
X45720000Y-73660000D03*
G04 #@! TO.P,J1,13*
G04 #@! TO.N,Flt_IN*
X45720000Y-76200000D03*
G04 #@! TO.P,J1,14*
G04 #@! TO.N,Fgt_IN*
X45720000Y-78740000D03*
G04 #@! TO.P,J1,15*
G04 #@! TO.N,Feq_IN*
X45720000Y-81280000D03*
G04 #@! TO.P,J1,16*
G04 #@! TO.N,Fc_OUT*
X45720000Y-83820000D03*
G04 #@! TO.P,J1,17*
G04 #@! TO.N,Fz_OUT*
X45720000Y-86360000D03*
G04 #@! TO.P,J1,18*
G04 #@! TO.N,Fcmp_OUT*
X45720000Y-88900000D03*
G04 #@! TD*
D12*
G04 #@! TO.P,D3,1*
G04 #@! TO.N,Net-(D3-Pad1)*
X102235000Y-86995000D03*
D13*
G04 #@! TO.P,D3,2*
G04 #@! TO.N,Fcmp_OUT*
X104775000Y-86995000D03*
G04 #@! TD*
G04 #@! TO.P,D2,2*
G04 #@! TO.N,Fc_OUT*
X104775000Y-69215000D03*
D12*
G04 #@! TO.P,D2,1*
G04 #@! TO.N,Net-(D2-Pad1)*
X102235000Y-69215000D03*
G04 #@! TD*
G04 #@! TO.P,D1,1*
G04 #@! TO.N,Net-(D1-Pad1)*
X102235000Y-78105000D03*
D13*
G04 #@! TO.P,D1,2*
G04 #@! TO.N,Fz_OUT*
X104775000Y-78105000D03*
G04 #@! TD*
D14*
G04 #@! TO.P,U7,14*
G04 #@! TO.N,+5V*
X90805000Y-73660000D03*
G04 #@! TO.P,U7,7*
G04 #@! TO.N,GND*
X83185000Y-88900000D03*
G04 #@! TO.P,U7,13*
G04 #@! TO.N,N/C*
X90805000Y-76200000D03*
G04 #@! TO.P,U7,6*
G04 #@! TO.N,Net-(U7-Pad6)*
X83185000Y-86360000D03*
G04 #@! TO.P,U7,12*
G04 #@! TO.N,N/C*
X90805000Y-78740000D03*
G04 #@! TO.P,U7,5*
G04 #@! TO.N,Fc_OUT*
X83185000Y-83820000D03*
G04 #@! TO.P,U7,11*
G04 #@! TO.N,N/C*
X90805000Y-81280000D03*
G04 #@! TO.P,U7,4*
G04 #@! TO.N,Net-(U7-Pad4)*
X83185000Y-81280000D03*
G04 #@! TO.P,U7,10*
G04 #@! TO.N,N/C*
X90805000Y-83820000D03*
G04 #@! TO.P,U7,3*
G04 #@! TO.N,Net-(U2-Pad8)*
X83185000Y-78740000D03*
G04 #@! TO.P,U7,9*
G04 #@! TO.N,N/C*
X90805000Y-86360000D03*
G04 #@! TO.P,U7,2*
G04 #@! TO.N,Net-(U4-Pad11)*
X83185000Y-76200000D03*
G04 #@! TO.P,U7,8*
G04 #@! TO.N,N/C*
X90805000Y-88900000D03*
D15*
G04 #@! TO.P,U7,1*
G04 #@! TO.N,Net-(U5-Pad2)*
X83185000Y-73660000D03*
G04 #@! TD*
G04 #@! TO.P,U6,1*
G04 #@! TO.N,+5V*
X69215000Y-73660000D03*
D14*
G04 #@! TO.P,U6,8*
G04 #@! TO.N,Net-(U6-Pad8)*
X76835000Y-88900000D03*
G04 #@! TO.P,U6,2*
G04 #@! TO.N,Net-(U3-Pad8)*
X69215000Y-76200000D03*
G04 #@! TO.P,U6,9*
G04 #@! TO.N,Fz_OUT*
X76835000Y-86360000D03*
G04 #@! TO.P,U6,3*
G04 #@! TO.N,Net-(U2-Pad3)*
X69215000Y-78740000D03*
G04 #@! TO.P,U6,10*
G04 #@! TO.N,Net-(U6-Pad10)*
X76835000Y-83820000D03*
G04 #@! TO.P,U6,4*
G04 #@! TO.N,Net-(U6-Pad4)*
X69215000Y-81280000D03*
G04 #@! TO.P,U6,11*
G04 #@! TO.N,Net-(U2-Pad6)*
X76835000Y-81280000D03*
G04 #@! TO.P,U6,5*
G04 #@! TO.N,Fcmp_OUT*
X69215000Y-83820000D03*
G04 #@! TO.P,U6,12*
G04 #@! TO.N,Fz_IN*
X76835000Y-78740000D03*
G04 #@! TO.P,U6,6*
G04 #@! TO.N,Net-(U6-Pad6)*
X69215000Y-86360000D03*
G04 #@! TO.P,U6,13*
G04 #@! TO.N,+5V*
X76835000Y-76200000D03*
G04 #@! TO.P,U6,7*
G04 #@! TO.N,GND*
X69215000Y-88900000D03*
G04 #@! TO.P,U6,14*
G04 #@! TO.N,+5V*
X76835000Y-73660000D03*
G04 #@! TD*
G04 #@! TO.P,U5,14*
G04 #@! TO.N,+5V*
X62865000Y-73660000D03*
G04 #@! TO.P,U5,7*
G04 #@! TO.N,GND*
X55245000Y-88900000D03*
G04 #@! TO.P,U5,13*
G04 #@! TO.N,N/C*
X62865000Y-76200000D03*
G04 #@! TO.P,U5,6*
X55245000Y-86360000D03*
G04 #@! TO.P,U5,12*
X62865000Y-78740000D03*
G04 #@! TO.P,U5,5*
X55245000Y-83820000D03*
G04 #@! TO.P,U5,11*
X62865000Y-81280000D03*
G04 #@! TO.P,U5,4*
X55245000Y-81280000D03*
G04 #@! TO.P,U5,10*
X62865000Y-83820000D03*
G04 #@! TO.P,U5,3*
X55245000Y-78740000D03*
G04 #@! TO.P,U5,9*
X62865000Y-86360000D03*
G04 #@! TO.P,U5,2*
G04 #@! TO.N,Net-(U5-Pad2)*
X55245000Y-76200000D03*
G04 #@! TO.P,U5,8*
G04 #@! TO.N,N/C*
X62865000Y-88900000D03*
D15*
G04 #@! TO.P,U5,1*
G04 #@! TO.N,Fc_CLEAR*
X55245000Y-73660000D03*
G04 #@! TD*
G04 #@! TO.P,U4,1*
G04 #@! TO.N,Feq_LOAD*
X97155000Y-45720000D03*
D14*
G04 #@! TO.P,U4,8*
G04 #@! TO.N,Net-(U2-Pad9)*
X104775000Y-60960000D03*
G04 #@! TO.P,U4,2*
G04 #@! TO.N,Feq_LOAD*
X97155000Y-48260000D03*
G04 #@! TO.P,U4,9*
G04 #@! TO.N,Fc_LOAD*
X104775000Y-58420000D03*
G04 #@! TO.P,U4,3*
G04 #@! TO.N,Net-(U4-Pad3)*
X97155000Y-50800000D03*
G04 #@! TO.P,U4,10*
G04 #@! TO.N,Fc_SET*
X104775000Y-55880000D03*
G04 #@! TO.P,U4,4*
G04 #@! TO.N,Net-(U3-Pad11)*
X97155000Y-53340000D03*
G04 #@! TO.P,U4,11*
G04 #@! TO.N,Net-(U4-Pad11)*
X104775000Y-53340000D03*
G04 #@! TO.P,U4,5*
G04 #@! TO.N,Net-(U4-Pad3)*
X97155000Y-55880000D03*
G04 #@! TO.P,U4,12*
G04 #@! TO.N,Fc_SET*
X104775000Y-50800000D03*
G04 #@! TO.P,U4,6*
G04 #@! TO.N,Net-(U2-Pad2)*
X97155000Y-58420000D03*
G04 #@! TO.P,U4,13*
G04 #@! TO.N,Fc_IN*
X104775000Y-48260000D03*
G04 #@! TO.P,U4,7*
G04 #@! TO.N,GND*
X97155000Y-60960000D03*
G04 #@! TO.P,U4,14*
G04 #@! TO.N,+5V*
X104775000Y-45720000D03*
G04 #@! TD*
G04 #@! TO.P,U3,14*
G04 #@! TO.N,+5V*
X90805000Y-45720000D03*
G04 #@! TO.P,U3,7*
G04 #@! TO.N,GND*
X83185000Y-60960000D03*
G04 #@! TO.P,U3,13*
G04 #@! TO.N,Flt_LOAD*
X90805000Y-48260000D03*
G04 #@! TO.P,U3,6*
G04 #@! TO.N,Net-(U3-Pad10)*
X83185000Y-58420000D03*
G04 #@! TO.P,U3,12*
G04 #@! TO.N,Fgt_LOAD*
X90805000Y-50800000D03*
G04 #@! TO.P,U3,5*
G04 #@! TO.N,Net-(U1-Pad8)*
X83185000Y-55880000D03*
G04 #@! TO.P,U3,11*
G04 #@! TO.N,Net-(U3-Pad11)*
X90805000Y-53340000D03*
G04 #@! TO.P,U3,4*
G04 #@! TO.N,Net-(U1-Pad8)*
X83185000Y-53340000D03*
G04 #@! TO.P,U3,10*
G04 #@! TO.N,Net-(U3-Pad10)*
X90805000Y-55880000D03*
G04 #@! TO.P,U3,3*
G04 #@! TO.N,Net-(U3-Pad3)*
X83185000Y-50800000D03*
G04 #@! TO.P,U3,9*
X90805000Y-58420000D03*
G04 #@! TO.P,U3,2*
G04 #@! TO.N,Net-(U1-Pad6)*
X83185000Y-48260000D03*
G04 #@! TO.P,U3,8*
G04 #@! TO.N,Net-(U3-Pad8)*
X90805000Y-60960000D03*
D15*
G04 #@! TO.P,U3,1*
G04 #@! TO.N,Net-(U1-Pad3)*
X83185000Y-45720000D03*
G04 #@! TD*
G04 #@! TO.P,U2,1*
G04 #@! TO.N,CLOCK*
X69215000Y-45720000D03*
D14*
G04 #@! TO.P,U2,8*
G04 #@! TO.N,Net-(U2-Pad8)*
X76835000Y-60960000D03*
G04 #@! TO.P,U2,2*
G04 #@! TO.N,Net-(U2-Pad2)*
X69215000Y-48260000D03*
G04 #@! TO.P,U2,9*
G04 #@! TO.N,Net-(U2-Pad9)*
X76835000Y-58420000D03*
G04 #@! TO.P,U2,3*
G04 #@! TO.N,Net-(U2-Pad3)*
X69215000Y-50800000D03*
G04 #@! TO.P,U2,10*
G04 #@! TO.N,CLOCK*
X76835000Y-55880000D03*
G04 #@! TO.P,U2,4*
X69215000Y-53340000D03*
G04 #@! TO.P,U2,11*
G04 #@! TO.N,N/C*
X76835000Y-53340000D03*
G04 #@! TO.P,U2,5*
G04 #@! TO.N,Fz_LOAD*
X69215000Y-55880000D03*
G04 #@! TO.P,U2,12*
G04 #@! TO.N,N/C*
X76835000Y-50800000D03*
G04 #@! TO.P,U2,6*
G04 #@! TO.N,Net-(U2-Pad6)*
X69215000Y-58420000D03*
G04 #@! TO.P,U2,13*
G04 #@! TO.N,N/C*
X76835000Y-48260000D03*
G04 #@! TO.P,U2,7*
G04 #@! TO.N,GND*
X69215000Y-60960000D03*
G04 #@! TO.P,U2,14*
G04 #@! TO.N,+5V*
X76835000Y-45720000D03*
G04 #@! TD*
G04 #@! TO.P,U1,14*
G04 #@! TO.N,+5V*
X62865000Y-45720000D03*
G04 #@! TO.P,U1,7*
G04 #@! TO.N,GND*
X55245000Y-60960000D03*
G04 #@! TO.P,U1,13*
G04 #@! TO.N,N/C*
X62865000Y-48260000D03*
G04 #@! TO.P,U1,6*
G04 #@! TO.N,Net-(U1-Pad6)*
X55245000Y-58420000D03*
G04 #@! TO.P,U1,12*
G04 #@! TO.N,N/C*
X62865000Y-50800000D03*
G04 #@! TO.P,U1,5*
G04 #@! TO.N,Flt_LOAD*
X55245000Y-55880000D03*
G04 #@! TO.P,U1,11*
G04 #@! TO.N,N/C*
X62865000Y-53340000D03*
G04 #@! TO.P,U1,4*
G04 #@! TO.N,Flt_IN*
X55245000Y-53340000D03*
G04 #@! TO.P,U1,10*
G04 #@! TO.N,Feq_LOAD*
X62865000Y-55880000D03*
G04 #@! TO.P,U1,3*
G04 #@! TO.N,Net-(U1-Pad3)*
X55245000Y-50800000D03*
G04 #@! TO.P,U1,9*
G04 #@! TO.N,Feq_IN*
X62865000Y-58420000D03*
G04 #@! TO.P,U1,2*
G04 #@! TO.N,Fgt_LOAD*
X55245000Y-48260000D03*
G04 #@! TO.P,U1,8*
G04 #@! TO.N,Net-(U1-Pad8)*
X62865000Y-60960000D03*
D15*
G04 #@! TO.P,U1,1*
G04 #@! TO.N,Fgt_IN*
X55245000Y-45720000D03*
G04 #@! TD*
D16*
G04 #@! TO.P,R3,1*
G04 #@! TO.N,Net-(D3-Pad1)*
X97155000Y-88900000D03*
D14*
G04 #@! TO.P,R3,2*
G04 #@! TO.N,GND*
X97155000Y-81280000D03*
G04 #@! TD*
G04 #@! TO.P,R2,2*
G04 #@! TO.N,GND*
X89535000Y-66040000D03*
D16*
G04 #@! TO.P,R2,1*
G04 #@! TO.N,Net-(D2-Pad1)*
X97155000Y-66040000D03*
G04 #@! TD*
G04 #@! TO.P,R1,1*
G04 #@! TO.N,Net-(D1-Pad1)*
X97155000Y-78105000D03*
D14*
G04 #@! TO.P,R1,2*
G04 #@! TO.N,GND*
X97155000Y-70485000D03*
G04 #@! TD*
D17*
G04 #@! TO.N,GND*
X86487000Y-70104000D03*
X80010000Y-70104000D03*
X93853000Y-70104000D03*
X56261000Y-65532000D03*
X72771000Y-60960000D03*
X72771000Y-65532000D03*
G04 #@! TO.N,Feq_LOAD*
X78587600Y-59690000D03*
G04 #@! TO.N,Net-(U3-Pad8)*
X80615600Y-74733300D03*
G04 #@! TD*
D18*
G04 #@! TO.N,Net-(D1-Pad1)*
X97155000Y-78105000D02*
X102235000Y-78105000D01*
D19*
G04 #@! TO.N,GND*
X93853000Y-70104000D02*
X86487000Y-70104000D01*
X85921315Y-70104000D02*
X80010000Y-70104000D01*
X86487000Y-70104000D02*
X85921315Y-70104000D01*
X75438000Y-65532000D02*
X80010000Y-70104000D01*
X56261000Y-65532000D02*
X72644000Y-65532000D01*
X69215000Y-60960000D02*
X70346370Y-60960000D01*
X70346370Y-60960000D02*
X72771000Y-60960000D01*
X72771000Y-60960000D02*
X72771000Y-60960000D01*
X72644000Y-65532000D02*
X75438000Y-65532000D01*
D18*
G04 #@! TO.N,Net-(D2-Pad1)*
X102235000Y-69215000D02*
X101009700Y-69215000D01*
X97155000Y-66040000D02*
X97834700Y-66040000D01*
X97834700Y-66040000D02*
X101009700Y-69215000D01*
G04 #@! TO.N,Net-(D3-Pad1)*
X102235000Y-86995000D02*
X101009700Y-86995000D01*
X97155000Y-88900000D02*
X99104700Y-88900000D01*
X99104700Y-88900000D02*
X101009700Y-86995000D01*
G04 #@! TO.N,Net-(U1-Pad8)*
X83185000Y-55880000D02*
X82059700Y-55880000D01*
X62865000Y-60960000D02*
X63990300Y-60960000D01*
X63990300Y-60960000D02*
X67945000Y-57005300D01*
X67945000Y-57005300D02*
X80934400Y-57005300D01*
X80934400Y-57005300D02*
X82059700Y-55880000D01*
G04 #@! TO.N,Fgt_LOAD*
X90805000Y-50800000D02*
X89679700Y-50800000D01*
X55245000Y-48260000D02*
X56370300Y-48260000D01*
X56370300Y-48260000D02*
X57531000Y-47099300D01*
X57531000Y-47099300D02*
X85979000Y-47099300D01*
X85979000Y-47099300D02*
X89679700Y-50800000D01*
G04 #@! TO.N,Feq_LOAD*
X61726200Y-62151000D02*
X48244300Y-62151000D01*
X48244300Y-62151000D02*
X46895300Y-63500000D01*
X45720000Y-63500000D02*
X46895300Y-63500000D01*
X61726200Y-57018800D02*
X61726200Y-58420000D01*
X62865000Y-55880000D02*
X61726200Y-57018800D01*
X61726200Y-58420000D02*
X61726200Y-62151000D01*
X78587600Y-59690000D02*
X65935200Y-59690000D01*
X65935200Y-59690000D02*
X63474200Y-62151000D01*
X63474200Y-62151000D02*
X61726200Y-62151000D01*
G04 #@! TO.N,Flt_LOAD*
X45720000Y-58420000D02*
X46895300Y-58420000D01*
X55245000Y-55880000D02*
X49435300Y-55880000D01*
X49435300Y-55880000D02*
X46895300Y-58420000D01*
G04 #@! TO.N,Fc_IN*
X46895300Y-71120000D02*
X45720000Y-71120000D01*
X104775000Y-48260000D02*
X106817000Y-50302000D01*
X53614600Y-64400700D02*
X46895300Y-71120000D01*
X106817000Y-50302000D02*
X106817000Y-61850600D01*
X106817000Y-61850600D02*
X104266900Y-64400700D01*
X104266900Y-64400700D02*
X53614600Y-64400700D01*
G04 #@! TO.N,Fc_SET*
X50795100Y-66040000D02*
X45720000Y-66040000D01*
X104775000Y-55880000D02*
X106366600Y-57471600D01*
X106366600Y-61632700D02*
X104767300Y-63232000D01*
X106366600Y-57471600D02*
X106366600Y-61632700D01*
X104767300Y-63232000D02*
X53603100Y-63232000D01*
X53603100Y-63232000D02*
X50795100Y-66040000D01*
G04 #@! TO.N,Fc_LOAD*
X44544700Y-54515300D02*
X45720000Y-53340000D01*
X44544700Y-64012000D02*
X44544700Y-54515300D01*
X45218100Y-64685400D02*
X44544700Y-64012000D01*
X104775000Y-58420000D02*
X105911000Y-59556000D01*
X105911000Y-59556000D02*
X105911000Y-61451400D01*
X105911000Y-61451400D02*
X104635300Y-62727100D01*
X104635300Y-62727100D02*
X49029700Y-62727100D01*
X47071400Y-64685400D02*
X45218100Y-64685400D01*
X49029700Y-62727100D02*
X47071400Y-64685400D01*
G04 #@! TO.N,CLOCK*
X69215000Y-53340000D02*
X70340300Y-53340000D01*
X70340300Y-53340000D02*
X72880300Y-55880000D01*
X72880300Y-55880000D02*
X76835000Y-55880000D01*
X68652400Y-53340000D02*
X69215000Y-53340000D01*
X68652400Y-53340000D02*
X68089700Y-53340000D01*
X45720000Y-50800000D02*
X46895300Y-50800000D01*
X68089700Y-53340000D02*
X66725000Y-51975300D01*
X66725000Y-51975300D02*
X48070600Y-51975300D01*
X48070600Y-51975300D02*
X46895300Y-50800000D01*
G04 #@! TO.N,Fz_LOAD*
X45720000Y-55880000D02*
X46895300Y-55880000D01*
X69215000Y-55880000D02*
X68089700Y-55880000D01*
X68089700Y-55880000D02*
X66914400Y-54704700D01*
X66914400Y-54704700D02*
X48070600Y-54704700D01*
X48070600Y-54704700D02*
X46895300Y-55880000D01*
D19*
G04 #@! TO.N,+5V*
X62865000Y-45720000D02*
X64040300Y-45720000D01*
X76835000Y-45720000D02*
X75659700Y-45720000D01*
X75659700Y-45720000D02*
X74484300Y-44544600D01*
X74484300Y-44544600D02*
X65215700Y-44544600D01*
X65215700Y-44544600D02*
X64040300Y-45720000D01*
X77422700Y-45720000D02*
X76835000Y-45720000D01*
X45720000Y-48260000D02*
X46945300Y-48260000D01*
X62865000Y-45720000D02*
X58093900Y-45720000D01*
X58093900Y-45720000D02*
X56868500Y-46945400D01*
X56868500Y-46945400D02*
X48259900Y-46945400D01*
X48259900Y-46945400D02*
X46945300Y-48260000D01*
X77422700Y-45720000D02*
X78010300Y-45720000D01*
X90805000Y-45720000D02*
X89629700Y-45720000D01*
X78010300Y-45720000D02*
X79185700Y-44544600D01*
X79185700Y-44544600D02*
X88454300Y-44544600D01*
X88454300Y-44544600D02*
X89629700Y-45720000D01*
X76835000Y-73660000D02*
X78010300Y-73660000D01*
X78010300Y-73660000D02*
X81039400Y-73660000D01*
X81039400Y-73660000D02*
X82214800Y-74835400D01*
X82214800Y-74835400D02*
X88454300Y-74835400D01*
X88454300Y-74835400D02*
X89629700Y-73660000D01*
X76835000Y-73660000D02*
X69215000Y-73660000D01*
X90805000Y-73660000D02*
X89629700Y-73660000D01*
X69215000Y-73660000D02*
X68039700Y-73660000D01*
X62865000Y-73660000D02*
X64040300Y-73660000D01*
X64040300Y-73660000D02*
X68039700Y-73660000D01*
X90805000Y-45720000D02*
X91980300Y-45720000D01*
X104775000Y-45720000D02*
X103599700Y-45720000D01*
X103599700Y-45720000D02*
X102424300Y-46895400D01*
X102424300Y-46895400D02*
X93155700Y-46895400D01*
X93155700Y-46895400D02*
X91980300Y-45720000D01*
D18*
G04 #@! TO.N,Fz_IN*
X45720000Y-73660000D02*
X46895300Y-73660000D01*
X76835000Y-78740000D02*
X75709700Y-78740000D01*
X75709700Y-78740000D02*
X74584400Y-77614700D01*
X74584400Y-77614700D02*
X50850000Y-77614700D01*
X50850000Y-77614700D02*
X46895300Y-73660000D01*
G04 #@! TO.N,Fcmp_OUT*
X45720000Y-88900000D02*
X46895300Y-88900000D01*
X69215000Y-83820000D02*
X68089700Y-83820000D01*
X68089700Y-83820000D02*
X64185000Y-87724700D01*
X64185000Y-87724700D02*
X48070600Y-87724700D01*
X48070600Y-87724700D02*
X46895300Y-88900000D01*
G04 #@! TO.N,Fz_OUT*
X76835000Y-86360000D02*
X77960300Y-86360000D01*
X77960300Y-86360000D02*
X79085600Y-85234700D01*
X79085600Y-85234700D02*
X97645300Y-85234700D01*
X97645300Y-85234700D02*
X104775000Y-78105000D01*
G04 #@! TO.N,Fc_OUT*
X45720000Y-83820000D02*
X46895300Y-83820000D01*
X83185000Y-83820000D02*
X82059700Y-83820000D01*
X82059700Y-83820000D02*
X80884400Y-82644700D01*
X80884400Y-82644700D02*
X48070600Y-82644700D01*
X48070600Y-82644700D02*
X46895300Y-83820000D01*
G04 #@! TO.N,Fc_CLEAR*
X54119700Y-73660000D02*
X55245000Y-73660000D01*
X45720000Y-68580000D02*
X44544700Y-69755300D01*
X44544700Y-71635300D02*
X45299400Y-72390000D01*
X44544700Y-69755300D02*
X44544700Y-71635300D01*
X45299400Y-72390000D02*
X52849700Y-72390000D01*
X52849700Y-72390000D02*
X54119700Y-73660000D01*
G04 #@! TO.N,Net-(U3-Pad8)*
X70014999Y-75400001D02*
X69215000Y-76200000D01*
X79708216Y-75074999D02*
X70340001Y-75074999D01*
X70340001Y-75074999D02*
X70014999Y-75400001D01*
X80049915Y-74733300D02*
X79708216Y-75074999D01*
X80615600Y-74733300D02*
X80049915Y-74733300D01*
G04 #@! TO.N,Net-(U3-Pad11)*
X97155000Y-53340000D02*
X90805000Y-53340000D01*
G04 #@! TO.N,Net-(U2-Pad9)*
X103649700Y-60960000D02*
X102282000Y-59592300D01*
X104775000Y-60960000D02*
X103649700Y-60960000D01*
X76835000Y-58420000D02*
X77960300Y-58420000D01*
X81026000Y-59592300D02*
X79853700Y-58420000D01*
X79853700Y-58420000D02*
X76835000Y-58420000D01*
X102282000Y-59592300D02*
X81026000Y-59592300D01*
G04 #@! TO.N,Net-(U2-Pad2)*
X96029700Y-58420000D02*
X97155000Y-58420000D01*
X92219700Y-54610000D02*
X96029700Y-58420000D01*
X75565000Y-54610000D02*
X92219700Y-54610000D01*
X69215000Y-48260000D02*
X75565000Y-54610000D01*
G04 #@! TO.N,Net-(U3-Pad10)*
X90805000Y-55880000D02*
X89679700Y-55880000D01*
X89679700Y-55880000D02*
X87139700Y-58420000D01*
X87139700Y-58420000D02*
X83185000Y-58420000D01*
G04 #@! TO.N,Net-(U5-Pad2)*
X83185000Y-73660000D02*
X82059700Y-73660000D01*
X55245000Y-76200000D02*
X56370300Y-76200000D01*
X56370300Y-76200000D02*
X60035600Y-72534700D01*
X60035600Y-72534700D02*
X80934400Y-72534700D01*
X80934400Y-72534700D02*
X82059700Y-73660000D01*
G04 #@! TD*
M02*
