G04 #@! TF.GenerationSoftware,KiCad,Pcbnew,5.0.2+dfsg1-1*
G04 #@! TF.CreationDate,2019-07-27T20:03:22+02:00*
G04 #@! TF.ProjectId,Flags-Register,466c6167-732d-4526-9567-69737465722e,rev?*
G04 #@! TF.SameCoordinates,Original*
G04 #@! TF.FileFunction,Legend,Top*
G04 #@! TF.FilePolarity,Positive*
%FSLAX46Y46*%
G04 Gerber Fmt 4.6, Leading zero omitted, Abs format (unit mm)*
G04 Created by KiCad (PCBNEW 5.0.2+dfsg1-1) date za 27 jul 2019 20:03:22 CEST*
%MOMM*%
%LPD*%
G01*
G04 APERTURE LIST*
%ADD10C,0.200000*%
%ADD11C,0.150000*%
%ADD12C,0.120000*%
%ADD13C,0.250000*%
G04 APERTURE END LIST*
D10*
X90805000Y-50800000D02*
X97155000Y-50800000D01*
D11*
X48024071Y-88973428D02*
X47774071Y-88973428D01*
X47774071Y-89366285D02*
X47774071Y-88616285D01*
X48131214Y-88616285D01*
X48738357Y-89330571D02*
X48666928Y-89366285D01*
X48524071Y-89366285D01*
X48452642Y-89330571D01*
X48416928Y-89294857D01*
X48381214Y-89223428D01*
X48381214Y-89009142D01*
X48416928Y-88937714D01*
X48452642Y-88902000D01*
X48524071Y-88866285D01*
X48666928Y-88866285D01*
X48738357Y-88902000D01*
X49059785Y-89366285D02*
X49059785Y-88866285D01*
X49059785Y-88937714D02*
X49095500Y-88902000D01*
X49166928Y-88866285D01*
X49274071Y-88866285D01*
X49345500Y-88902000D01*
X49381214Y-88973428D01*
X49381214Y-89366285D01*
X49381214Y-88973428D02*
X49416928Y-88902000D01*
X49488357Y-88866285D01*
X49595500Y-88866285D01*
X49666928Y-88902000D01*
X49702642Y-88973428D01*
X49702642Y-89366285D01*
X50059785Y-88866285D02*
X50059785Y-89616285D01*
X50059785Y-88902000D02*
X50131214Y-88866285D01*
X50274071Y-88866285D01*
X50345500Y-88902000D01*
X50381214Y-88937714D01*
X50416928Y-89009142D01*
X50416928Y-89223428D01*
X50381214Y-89294857D01*
X50345500Y-89330571D01*
X50274071Y-89366285D01*
X50131214Y-89366285D01*
X50059785Y-89330571D01*
X50559785Y-89437714D02*
X51131214Y-89437714D01*
X51452642Y-88616285D02*
X51595500Y-88616285D01*
X51666928Y-88652000D01*
X51738357Y-88723428D01*
X51774071Y-88866285D01*
X51774071Y-89116285D01*
X51738357Y-89259142D01*
X51666928Y-89330571D01*
X51595500Y-89366285D01*
X51452642Y-89366285D01*
X51381214Y-89330571D01*
X51309785Y-89259142D01*
X51274071Y-89116285D01*
X51274071Y-88866285D01*
X51309785Y-88723428D01*
X51381214Y-88652000D01*
X51452642Y-88616285D01*
X52095500Y-88616285D02*
X52095500Y-89223428D01*
X52131214Y-89294857D01*
X52166928Y-89330571D01*
X52238357Y-89366285D01*
X52381214Y-89366285D01*
X52452642Y-89330571D01*
X52488357Y-89294857D01*
X52524071Y-89223428D01*
X52524071Y-88616285D01*
X52774071Y-88616285D02*
X53202642Y-88616285D01*
X52988357Y-89366285D02*
X52988357Y-88616285D01*
X48024071Y-53413428D02*
X47774071Y-53413428D01*
X47774071Y-53806285D02*
X47774071Y-53056285D01*
X48131214Y-53056285D01*
X48738357Y-53770571D02*
X48666928Y-53806285D01*
X48524071Y-53806285D01*
X48452642Y-53770571D01*
X48416928Y-53734857D01*
X48381214Y-53663428D01*
X48381214Y-53449142D01*
X48416928Y-53377714D01*
X48452642Y-53342000D01*
X48524071Y-53306285D01*
X48666928Y-53306285D01*
X48738357Y-53342000D01*
X48881214Y-53877714D02*
X49452642Y-53877714D01*
X49988357Y-53806285D02*
X49631214Y-53806285D01*
X49631214Y-53056285D01*
X50381214Y-53056285D02*
X50524071Y-53056285D01*
X50595500Y-53092000D01*
X50666928Y-53163428D01*
X50702642Y-53306285D01*
X50702642Y-53556285D01*
X50666928Y-53699142D01*
X50595500Y-53770571D01*
X50524071Y-53806285D01*
X50381214Y-53806285D01*
X50309785Y-53770571D01*
X50238357Y-53699142D01*
X50202642Y-53556285D01*
X50202642Y-53306285D01*
X50238357Y-53163428D01*
X50309785Y-53092000D01*
X50381214Y-53056285D01*
X50988357Y-53592000D02*
X51345500Y-53592000D01*
X50916928Y-53806285D02*
X51166928Y-53056285D01*
X51416928Y-53806285D01*
X51666928Y-53806285D02*
X51666928Y-53056285D01*
X51845500Y-53056285D01*
X51952642Y-53092000D01*
X52024071Y-53163428D01*
X52059785Y-53234857D01*
X52095500Y-53377714D01*
X52095500Y-53484857D01*
X52059785Y-53627714D01*
X52024071Y-53699142D01*
X51952642Y-53770571D01*
X51845500Y-53806285D01*
X51666928Y-53806285D01*
X48166928Y-45472000D02*
X48095500Y-45436285D01*
X47988357Y-45436285D01*
X47881214Y-45472000D01*
X47809785Y-45543428D01*
X47774071Y-45614857D01*
X47738357Y-45757714D01*
X47738357Y-45864857D01*
X47774071Y-46007714D01*
X47809785Y-46079142D01*
X47881214Y-46150571D01*
X47988357Y-46186285D01*
X48059785Y-46186285D01*
X48166928Y-46150571D01*
X48202642Y-46114857D01*
X48202642Y-45864857D01*
X48059785Y-45864857D01*
X48524071Y-46186285D02*
X48524071Y-45436285D01*
X48952642Y-46186285D01*
X48952642Y-45436285D01*
X49309785Y-46186285D02*
X49309785Y-45436285D01*
X49488357Y-45436285D01*
X49595500Y-45472000D01*
X49666928Y-45543428D01*
X49702642Y-45614857D01*
X49738357Y-45757714D01*
X49738357Y-45864857D01*
X49702642Y-46007714D01*
X49666928Y-46079142D01*
X49595500Y-46150571D01*
X49488357Y-46186285D01*
X49309785Y-46186285D01*
X47774071Y-48440571D02*
X48345500Y-48440571D01*
X48059785Y-48726285D02*
X48059785Y-48154857D01*
X49059785Y-47976285D02*
X48702642Y-47976285D01*
X48666928Y-48333428D01*
X48702642Y-48297714D01*
X48774071Y-48262000D01*
X48952642Y-48262000D01*
X49024071Y-48297714D01*
X49059785Y-48333428D01*
X49095500Y-48404857D01*
X49095500Y-48583428D01*
X49059785Y-48654857D01*
X49024071Y-48690571D01*
X48952642Y-48726285D01*
X48774071Y-48726285D01*
X48702642Y-48690571D01*
X48666928Y-48654857D01*
X49309785Y-47976285D02*
X49559785Y-48726285D01*
X49809785Y-47976285D01*
X48024071Y-86433428D02*
X47774071Y-86433428D01*
X47774071Y-86826285D02*
X47774071Y-86076285D01*
X48131214Y-86076285D01*
X48345500Y-86326285D02*
X48738357Y-86326285D01*
X48345500Y-86826285D01*
X48738357Y-86826285D01*
X48845500Y-86897714D02*
X49416928Y-86897714D01*
X49738357Y-86076285D02*
X49881214Y-86076285D01*
X49952642Y-86112000D01*
X50024071Y-86183428D01*
X50059785Y-86326285D01*
X50059785Y-86576285D01*
X50024071Y-86719142D01*
X49952642Y-86790571D01*
X49881214Y-86826285D01*
X49738357Y-86826285D01*
X49666928Y-86790571D01*
X49595500Y-86719142D01*
X49559785Y-86576285D01*
X49559785Y-86326285D01*
X49595500Y-86183428D01*
X49666928Y-86112000D01*
X49738357Y-86076285D01*
X50381214Y-86076285D02*
X50381214Y-86683428D01*
X50416928Y-86754857D01*
X50452642Y-86790571D01*
X50524071Y-86826285D01*
X50666928Y-86826285D01*
X50738357Y-86790571D01*
X50774071Y-86754857D01*
X50809785Y-86683428D01*
X50809785Y-86076285D01*
X51059785Y-86076285D02*
X51488357Y-86076285D01*
X51274071Y-86826285D02*
X51274071Y-86076285D01*
X48024071Y-83893428D02*
X47774071Y-83893428D01*
X47774071Y-84286285D02*
X47774071Y-83536285D01*
X48131214Y-83536285D01*
X48738357Y-84250571D02*
X48666928Y-84286285D01*
X48524071Y-84286285D01*
X48452642Y-84250571D01*
X48416928Y-84214857D01*
X48381214Y-84143428D01*
X48381214Y-83929142D01*
X48416928Y-83857714D01*
X48452642Y-83822000D01*
X48524071Y-83786285D01*
X48666928Y-83786285D01*
X48738357Y-83822000D01*
X48881214Y-84357714D02*
X49452642Y-84357714D01*
X49774071Y-83536285D02*
X49916928Y-83536285D01*
X49988357Y-83572000D01*
X50059785Y-83643428D01*
X50095500Y-83786285D01*
X50095500Y-84036285D01*
X50059785Y-84179142D01*
X49988357Y-84250571D01*
X49916928Y-84286285D01*
X49774071Y-84286285D01*
X49702642Y-84250571D01*
X49631214Y-84179142D01*
X49595500Y-84036285D01*
X49595500Y-83786285D01*
X49631214Y-83643428D01*
X49702642Y-83572000D01*
X49774071Y-83536285D01*
X50416928Y-83536285D02*
X50416928Y-84143428D01*
X50452642Y-84214857D01*
X50488357Y-84250571D01*
X50559785Y-84286285D01*
X50702642Y-84286285D01*
X50774071Y-84250571D01*
X50809785Y-84214857D01*
X50845500Y-84143428D01*
X50845500Y-83536285D01*
X51095500Y-83536285D02*
X51524071Y-83536285D01*
X51309785Y-84286285D02*
X51309785Y-83536285D01*
X48024071Y-81353428D02*
X47774071Y-81353428D01*
X47774071Y-81746285D02*
X47774071Y-80996285D01*
X48131214Y-80996285D01*
X48702642Y-81710571D02*
X48631214Y-81746285D01*
X48488357Y-81746285D01*
X48416928Y-81710571D01*
X48381214Y-81639142D01*
X48381214Y-81353428D01*
X48416928Y-81282000D01*
X48488357Y-81246285D01*
X48631214Y-81246285D01*
X48702642Y-81282000D01*
X48738357Y-81353428D01*
X48738357Y-81424857D01*
X48381214Y-81496285D01*
X49381214Y-81246285D02*
X49381214Y-81996285D01*
X49381214Y-81710571D02*
X49309785Y-81746285D01*
X49166928Y-81746285D01*
X49095500Y-81710571D01*
X49059785Y-81674857D01*
X49024071Y-81603428D01*
X49024071Y-81389142D01*
X49059785Y-81317714D01*
X49095500Y-81282000D01*
X49166928Y-81246285D01*
X49309785Y-81246285D01*
X49381214Y-81282000D01*
X49559785Y-81817714D02*
X50131214Y-81817714D01*
X50309785Y-81746285D02*
X50309785Y-80996285D01*
X50666928Y-81746285D02*
X50666928Y-80996285D01*
X51095500Y-81746285D01*
X51095500Y-80996285D01*
X48024071Y-78813428D02*
X47774071Y-78813428D01*
X47774071Y-79206285D02*
X47774071Y-78456285D01*
X48131214Y-78456285D01*
X48738357Y-78706285D02*
X48738357Y-79313428D01*
X48702642Y-79384857D01*
X48666928Y-79420571D01*
X48595500Y-79456285D01*
X48488357Y-79456285D01*
X48416928Y-79420571D01*
X48738357Y-79170571D02*
X48666928Y-79206285D01*
X48524071Y-79206285D01*
X48452642Y-79170571D01*
X48416928Y-79134857D01*
X48381214Y-79063428D01*
X48381214Y-78849142D01*
X48416928Y-78777714D01*
X48452642Y-78742000D01*
X48524071Y-78706285D01*
X48666928Y-78706285D01*
X48738357Y-78742000D01*
X48988357Y-78706285D02*
X49274071Y-78706285D01*
X49095500Y-78456285D02*
X49095500Y-79099142D01*
X49131214Y-79170571D01*
X49202642Y-79206285D01*
X49274071Y-79206285D01*
X49345500Y-79277714D02*
X49916928Y-79277714D01*
X50095500Y-79206285D02*
X50095500Y-78456285D01*
X50452642Y-79206285D02*
X50452642Y-78456285D01*
X50881214Y-79206285D01*
X50881214Y-78456285D01*
X48024071Y-76273428D02*
X47774071Y-76273428D01*
X47774071Y-76666285D02*
X47774071Y-75916285D01*
X48131214Y-75916285D01*
X48524071Y-76666285D02*
X48452642Y-76630571D01*
X48416928Y-76559142D01*
X48416928Y-75916285D01*
X48702642Y-76166285D02*
X48988357Y-76166285D01*
X48809785Y-75916285D02*
X48809785Y-76559142D01*
X48845500Y-76630571D01*
X48916928Y-76666285D01*
X48988357Y-76666285D01*
X49059785Y-76737714D02*
X49631214Y-76737714D01*
X49809785Y-76666285D02*
X49809785Y-75916285D01*
X50166928Y-76666285D02*
X50166928Y-75916285D01*
X50595500Y-76666285D01*
X50595500Y-75916285D01*
X48024071Y-73733428D02*
X47774071Y-73733428D01*
X47774071Y-74126285D02*
X47774071Y-73376285D01*
X48131214Y-73376285D01*
X48345500Y-73626285D02*
X48738357Y-73626285D01*
X48345500Y-74126285D01*
X48738357Y-74126285D01*
X48845500Y-74197714D02*
X49416928Y-74197714D01*
X49595500Y-74126285D02*
X49595500Y-73376285D01*
X49952642Y-74126285D02*
X49952642Y-73376285D01*
X50381214Y-74126285D01*
X50381214Y-73376285D01*
X48024071Y-71193428D02*
X47774071Y-71193428D01*
X47774071Y-71586285D02*
X47774071Y-70836285D01*
X48131214Y-70836285D01*
X48738357Y-71550571D02*
X48666928Y-71586285D01*
X48524071Y-71586285D01*
X48452642Y-71550571D01*
X48416928Y-71514857D01*
X48381214Y-71443428D01*
X48381214Y-71229142D01*
X48416928Y-71157714D01*
X48452642Y-71122000D01*
X48524071Y-71086285D01*
X48666928Y-71086285D01*
X48738357Y-71122000D01*
X48881214Y-71657714D02*
X49452642Y-71657714D01*
X49631214Y-71586285D02*
X49631214Y-70836285D01*
X49988357Y-71586285D02*
X49988357Y-70836285D01*
X50416928Y-71586285D01*
X50416928Y-70836285D01*
X48024071Y-68653428D02*
X47774071Y-68653428D01*
X47774071Y-69046285D02*
X47774071Y-68296285D01*
X48131214Y-68296285D01*
X48738357Y-69010571D02*
X48666928Y-69046285D01*
X48524071Y-69046285D01*
X48452642Y-69010571D01*
X48416928Y-68974857D01*
X48381214Y-68903428D01*
X48381214Y-68689142D01*
X48416928Y-68617714D01*
X48452642Y-68582000D01*
X48524071Y-68546285D01*
X48666928Y-68546285D01*
X48738357Y-68582000D01*
X48881214Y-69117714D02*
X49452642Y-69117714D01*
X50059785Y-68974857D02*
X50024071Y-69010571D01*
X49916928Y-69046285D01*
X49845500Y-69046285D01*
X49738357Y-69010571D01*
X49666928Y-68939142D01*
X49631214Y-68867714D01*
X49595500Y-68724857D01*
X49595500Y-68617714D01*
X49631214Y-68474857D01*
X49666928Y-68403428D01*
X49738357Y-68332000D01*
X49845500Y-68296285D01*
X49916928Y-68296285D01*
X50024071Y-68332000D01*
X50059785Y-68367714D01*
X50738357Y-69046285D02*
X50381214Y-69046285D01*
X50381214Y-68296285D01*
X50988357Y-68653428D02*
X51238357Y-68653428D01*
X51345500Y-69046285D02*
X50988357Y-69046285D01*
X50988357Y-68296285D01*
X51345500Y-68296285D01*
X51631214Y-68832000D02*
X51988357Y-68832000D01*
X51559785Y-69046285D02*
X51809785Y-68296285D01*
X52059785Y-69046285D01*
X52738357Y-69046285D02*
X52488357Y-68689142D01*
X52309785Y-69046285D02*
X52309785Y-68296285D01*
X52595500Y-68296285D01*
X52666928Y-68332000D01*
X52702642Y-68367714D01*
X52738357Y-68439142D01*
X52738357Y-68546285D01*
X52702642Y-68617714D01*
X52666928Y-68653428D01*
X52595500Y-68689142D01*
X52309785Y-68689142D01*
X48202642Y-51194857D02*
X48166928Y-51230571D01*
X48059785Y-51266285D01*
X47988357Y-51266285D01*
X47881214Y-51230571D01*
X47809785Y-51159142D01*
X47774071Y-51087714D01*
X47738357Y-50944857D01*
X47738357Y-50837714D01*
X47774071Y-50694857D01*
X47809785Y-50623428D01*
X47881214Y-50552000D01*
X47988357Y-50516285D01*
X48059785Y-50516285D01*
X48166928Y-50552000D01*
X48202642Y-50587714D01*
X48881214Y-51266285D02*
X48524071Y-51266285D01*
X48524071Y-50516285D01*
X49274071Y-50516285D02*
X49416928Y-50516285D01*
X49488357Y-50552000D01*
X49559785Y-50623428D01*
X49595500Y-50766285D01*
X49595500Y-51016285D01*
X49559785Y-51159142D01*
X49488357Y-51230571D01*
X49416928Y-51266285D01*
X49274071Y-51266285D01*
X49202642Y-51230571D01*
X49131214Y-51159142D01*
X49095500Y-51016285D01*
X49095500Y-50766285D01*
X49131214Y-50623428D01*
X49202642Y-50552000D01*
X49274071Y-50516285D01*
X50345500Y-51194857D02*
X50309785Y-51230571D01*
X50202642Y-51266285D01*
X50131214Y-51266285D01*
X50024071Y-51230571D01*
X49952642Y-51159142D01*
X49916928Y-51087714D01*
X49881214Y-50944857D01*
X49881214Y-50837714D01*
X49916928Y-50694857D01*
X49952642Y-50623428D01*
X50024071Y-50552000D01*
X50131214Y-50516285D01*
X50202642Y-50516285D01*
X50309785Y-50552000D01*
X50345500Y-50587714D01*
X50666928Y-51266285D02*
X50666928Y-50516285D01*
X51095500Y-51266285D02*
X50774071Y-50837714D01*
X51095500Y-50516285D02*
X50666928Y-50944857D01*
X48024071Y-55953428D02*
X47774071Y-55953428D01*
X47774071Y-56346285D02*
X47774071Y-55596285D01*
X48131214Y-55596285D01*
X48345500Y-55846285D02*
X48738357Y-55846285D01*
X48345500Y-56346285D01*
X48738357Y-56346285D01*
X48845500Y-56417714D02*
X49416928Y-56417714D01*
X49952642Y-56346285D02*
X49595500Y-56346285D01*
X49595500Y-55596285D01*
X50345500Y-55596285D02*
X50488357Y-55596285D01*
X50559785Y-55632000D01*
X50631214Y-55703428D01*
X50666928Y-55846285D01*
X50666928Y-56096285D01*
X50631214Y-56239142D01*
X50559785Y-56310571D01*
X50488357Y-56346285D01*
X50345500Y-56346285D01*
X50274071Y-56310571D01*
X50202642Y-56239142D01*
X50166928Y-56096285D01*
X50166928Y-55846285D01*
X50202642Y-55703428D01*
X50274071Y-55632000D01*
X50345500Y-55596285D01*
X50952642Y-56132000D02*
X51309785Y-56132000D01*
X50881214Y-56346285D02*
X51131214Y-55596285D01*
X51381214Y-56346285D01*
X51631214Y-56346285D02*
X51631214Y-55596285D01*
X51809785Y-55596285D01*
X51916928Y-55632000D01*
X51988357Y-55703428D01*
X52024071Y-55774857D01*
X52059785Y-55917714D01*
X52059785Y-56024857D01*
X52024071Y-56167714D01*
X51988357Y-56239142D01*
X51916928Y-56310571D01*
X51809785Y-56346285D01*
X51631214Y-56346285D01*
X48024071Y-58493428D02*
X47774071Y-58493428D01*
X47774071Y-58886285D02*
X47774071Y-58136285D01*
X48131214Y-58136285D01*
X48524071Y-58886285D02*
X48452642Y-58850571D01*
X48416928Y-58779142D01*
X48416928Y-58136285D01*
X48702642Y-58386285D02*
X48988357Y-58386285D01*
X48809785Y-58136285D02*
X48809785Y-58779142D01*
X48845500Y-58850571D01*
X48916928Y-58886285D01*
X48988357Y-58886285D01*
X49059785Y-58957714D02*
X49631214Y-58957714D01*
X50166928Y-58886285D02*
X49809785Y-58886285D01*
X49809785Y-58136285D01*
X50559785Y-58136285D02*
X50702642Y-58136285D01*
X50774071Y-58172000D01*
X50845500Y-58243428D01*
X50881214Y-58386285D01*
X50881214Y-58636285D01*
X50845500Y-58779142D01*
X50774071Y-58850571D01*
X50702642Y-58886285D01*
X50559785Y-58886285D01*
X50488357Y-58850571D01*
X50416928Y-58779142D01*
X50381214Y-58636285D01*
X50381214Y-58386285D01*
X50416928Y-58243428D01*
X50488357Y-58172000D01*
X50559785Y-58136285D01*
X51166928Y-58672000D02*
X51524071Y-58672000D01*
X51095500Y-58886285D02*
X51345500Y-58136285D01*
X51595500Y-58886285D01*
X51845500Y-58886285D02*
X51845500Y-58136285D01*
X52024071Y-58136285D01*
X52131214Y-58172000D01*
X52202642Y-58243428D01*
X52238357Y-58314857D01*
X52274071Y-58457714D01*
X52274071Y-58564857D01*
X52238357Y-58707714D01*
X52202642Y-58779142D01*
X52131214Y-58850571D01*
X52024071Y-58886285D01*
X51845500Y-58886285D01*
X48024071Y-61033428D02*
X47774071Y-61033428D01*
X47774071Y-61426285D02*
X47774071Y-60676285D01*
X48131214Y-60676285D01*
X48738357Y-60926285D02*
X48738357Y-61533428D01*
X48702642Y-61604857D01*
X48666928Y-61640571D01*
X48595500Y-61676285D01*
X48488357Y-61676285D01*
X48416928Y-61640571D01*
X48738357Y-61390571D02*
X48666928Y-61426285D01*
X48524071Y-61426285D01*
X48452642Y-61390571D01*
X48416928Y-61354857D01*
X48381214Y-61283428D01*
X48381214Y-61069142D01*
X48416928Y-60997714D01*
X48452642Y-60962000D01*
X48524071Y-60926285D01*
X48666928Y-60926285D01*
X48738357Y-60962000D01*
X48988357Y-60926285D02*
X49274071Y-60926285D01*
X49095500Y-60676285D02*
X49095500Y-61319142D01*
X49131214Y-61390571D01*
X49202642Y-61426285D01*
X49274071Y-61426285D01*
X49345500Y-61497714D02*
X49916928Y-61497714D01*
X50452642Y-61426285D02*
X50095500Y-61426285D01*
X50095500Y-60676285D01*
X50845500Y-60676285D02*
X50988357Y-60676285D01*
X51059785Y-60712000D01*
X51131214Y-60783428D01*
X51166928Y-60926285D01*
X51166928Y-61176285D01*
X51131214Y-61319142D01*
X51059785Y-61390571D01*
X50988357Y-61426285D01*
X50845500Y-61426285D01*
X50774071Y-61390571D01*
X50702642Y-61319142D01*
X50666928Y-61176285D01*
X50666928Y-60926285D01*
X50702642Y-60783428D01*
X50774071Y-60712000D01*
X50845500Y-60676285D01*
X51452642Y-61212000D02*
X51809785Y-61212000D01*
X51381214Y-61426285D02*
X51631214Y-60676285D01*
X51881214Y-61426285D01*
X52131214Y-61426285D02*
X52131214Y-60676285D01*
X52309785Y-60676285D01*
X52416928Y-60712000D01*
X52488357Y-60783428D01*
X52524071Y-60854857D01*
X52559785Y-60997714D01*
X52559785Y-61104857D01*
X52524071Y-61247714D01*
X52488357Y-61319142D01*
X52416928Y-61390571D01*
X52309785Y-61426285D01*
X52131214Y-61426285D01*
X48024071Y-63573428D02*
X47774071Y-63573428D01*
X47774071Y-63966285D02*
X47774071Y-63216285D01*
X48131214Y-63216285D01*
X48702642Y-63930571D02*
X48631214Y-63966285D01*
X48488357Y-63966285D01*
X48416928Y-63930571D01*
X48381214Y-63859142D01*
X48381214Y-63573428D01*
X48416928Y-63502000D01*
X48488357Y-63466285D01*
X48631214Y-63466285D01*
X48702642Y-63502000D01*
X48738357Y-63573428D01*
X48738357Y-63644857D01*
X48381214Y-63716285D01*
X49381214Y-63466285D02*
X49381214Y-64216285D01*
X49381214Y-63930571D02*
X49309785Y-63966285D01*
X49166928Y-63966285D01*
X49095500Y-63930571D01*
X49059785Y-63894857D01*
X49024071Y-63823428D01*
X49024071Y-63609142D01*
X49059785Y-63537714D01*
X49095500Y-63502000D01*
X49166928Y-63466285D01*
X49309785Y-63466285D01*
X49381214Y-63502000D01*
X49559785Y-64037714D02*
X50131214Y-64037714D01*
X50666928Y-63966285D02*
X50309785Y-63966285D01*
X50309785Y-63216285D01*
X51059785Y-63216285D02*
X51202642Y-63216285D01*
X51274071Y-63252000D01*
X51345500Y-63323428D01*
X51381214Y-63466285D01*
X51381214Y-63716285D01*
X51345500Y-63859142D01*
X51274071Y-63930571D01*
X51202642Y-63966285D01*
X51059785Y-63966285D01*
X50988357Y-63930571D01*
X50916928Y-63859142D01*
X50881214Y-63716285D01*
X50881214Y-63466285D01*
X50916928Y-63323428D01*
X50988357Y-63252000D01*
X51059785Y-63216285D01*
X51666928Y-63752000D02*
X52024071Y-63752000D01*
X51595500Y-63966285D02*
X51845500Y-63216285D01*
X52095500Y-63966285D01*
X52345500Y-63966285D02*
X52345500Y-63216285D01*
X52524071Y-63216285D01*
X52631214Y-63252000D01*
X52702642Y-63323428D01*
X52738357Y-63394857D01*
X52774071Y-63537714D01*
X52774071Y-63644857D01*
X52738357Y-63787714D01*
X52702642Y-63859142D01*
X52631214Y-63930571D01*
X52524071Y-63966285D01*
X52345500Y-63966285D01*
X48024071Y-66113428D02*
X47774071Y-66113428D01*
X47774071Y-66506285D02*
X47774071Y-65756285D01*
X48131214Y-65756285D01*
X48738357Y-66470571D02*
X48666928Y-66506285D01*
X48524071Y-66506285D01*
X48452642Y-66470571D01*
X48416928Y-66434857D01*
X48381214Y-66363428D01*
X48381214Y-66149142D01*
X48416928Y-66077714D01*
X48452642Y-66042000D01*
X48524071Y-66006285D01*
X48666928Y-66006285D01*
X48738357Y-66042000D01*
X48881214Y-66577714D02*
X49452642Y-66577714D01*
X49595500Y-66470571D02*
X49702642Y-66506285D01*
X49881214Y-66506285D01*
X49952642Y-66470571D01*
X49988357Y-66434857D01*
X50024071Y-66363428D01*
X50024071Y-66292000D01*
X49988357Y-66220571D01*
X49952642Y-66184857D01*
X49881214Y-66149142D01*
X49738357Y-66113428D01*
X49666928Y-66077714D01*
X49631214Y-66042000D01*
X49595500Y-65970571D01*
X49595500Y-65899142D01*
X49631214Y-65827714D01*
X49666928Y-65792000D01*
X49738357Y-65756285D01*
X49916928Y-65756285D01*
X50024071Y-65792000D01*
X50345500Y-66113428D02*
X50595500Y-66113428D01*
X50702642Y-66506285D02*
X50345500Y-66506285D01*
X50345500Y-65756285D01*
X50702642Y-65756285D01*
X50916928Y-65756285D02*
X51345500Y-65756285D01*
X51131214Y-66506285D02*
X51131214Y-65756285D01*
D12*
G04 #@! TO.C,J2*
X109160000Y-44390000D02*
X110490000Y-44390000D01*
X109160000Y-45720000D02*
X109160000Y-44390000D01*
X109160000Y-46990000D02*
X111820000Y-46990000D01*
X111820000Y-46990000D02*
X111820000Y-49590000D01*
X109160000Y-46990000D02*
X109160000Y-49590000D01*
X109160000Y-49590000D02*
X111820000Y-49590000D01*
G04 #@! TO.C,J3*
X109160000Y-90230000D02*
X111820000Y-90230000D01*
X109160000Y-87630000D02*
X109160000Y-90230000D01*
X111820000Y-87630000D02*
X111820000Y-90230000D01*
X109160000Y-87630000D02*
X111820000Y-87630000D01*
X109160000Y-86360000D02*
X109160000Y-85030000D01*
X109160000Y-85030000D02*
X110490000Y-85030000D01*
G04 #@! TO.C,J1*
X44390000Y-90230000D02*
X47050000Y-90230000D01*
X44390000Y-46990000D02*
X44390000Y-90230000D01*
X47050000Y-46990000D02*
X47050000Y-90230000D01*
X44390000Y-46990000D02*
X47050000Y-46990000D01*
X44390000Y-45720000D02*
X44390000Y-44390000D01*
X44390000Y-44390000D02*
X45720000Y-44390000D01*
G04 #@! TO.C,D3*
X106495000Y-86995462D02*
G75*
G03X100945000Y-85450170I-2990000J462D01*
G01*
X106495000Y-86994538D02*
G75*
G02X100945000Y-88539830I-2990000J-462D01*
G01*
X106005000Y-86995000D02*
G75*
G03X106005000Y-86995000I-2500000J0D01*
G01*
X100945000Y-85450000D02*
X100945000Y-88540000D01*
G04 #@! TO.C,D2*
X100945000Y-67670000D02*
X100945000Y-70760000D01*
X106005000Y-69215000D02*
G75*
G03X106005000Y-69215000I-2500000J0D01*
G01*
X106495000Y-69214538D02*
G75*
G02X100945000Y-70759830I-2990000J-462D01*
G01*
X106495000Y-69215462D02*
G75*
G03X100945000Y-67670170I-2990000J462D01*
G01*
G04 #@! TO.C,D1*
X106495000Y-78105462D02*
G75*
G03X100945000Y-76560170I-2990000J462D01*
G01*
X106495000Y-78104538D02*
G75*
G02X100945000Y-79649830I-2990000J-462D01*
G01*
X106005000Y-78105000D02*
G75*
G03X106005000Y-78105000I-2500000J0D01*
G01*
X100945000Y-76560000D02*
X100945000Y-79650000D01*
G04 #@! TO.C,U7*
X89645000Y-72330000D02*
X87995000Y-72330000D01*
X89645000Y-90230000D02*
X89645000Y-72330000D01*
X84345000Y-90230000D02*
X89645000Y-90230000D01*
X84345000Y-72330000D02*
X84345000Y-90230000D01*
X85995000Y-72330000D02*
X84345000Y-72330000D01*
X87995000Y-72330000D02*
G75*
G02X85995000Y-72330000I-1000000J0D01*
G01*
G04 #@! TO.C,U6*
X74025000Y-72330000D02*
G75*
G02X72025000Y-72330000I-1000000J0D01*
G01*
X72025000Y-72330000D02*
X70375000Y-72330000D01*
X70375000Y-72330000D02*
X70375000Y-90230000D01*
X70375000Y-90230000D02*
X75675000Y-90230000D01*
X75675000Y-90230000D02*
X75675000Y-72330000D01*
X75675000Y-72330000D02*
X74025000Y-72330000D01*
G04 #@! TO.C,U5*
X61705000Y-72330000D02*
X60055000Y-72330000D01*
X61705000Y-90230000D02*
X61705000Y-72330000D01*
X56405000Y-90230000D02*
X61705000Y-90230000D01*
X56405000Y-72330000D02*
X56405000Y-90230000D01*
X58055000Y-72330000D02*
X56405000Y-72330000D01*
X60055000Y-72330000D02*
G75*
G02X58055000Y-72330000I-1000000J0D01*
G01*
G04 #@! TO.C,U4*
X101965000Y-44390000D02*
G75*
G02X99965000Y-44390000I-1000000J0D01*
G01*
X99965000Y-44390000D02*
X98315000Y-44390000D01*
X98315000Y-44390000D02*
X98315000Y-62290000D01*
X98315000Y-62290000D02*
X103615000Y-62290000D01*
X103615000Y-62290000D02*
X103615000Y-44390000D01*
X103615000Y-44390000D02*
X101965000Y-44390000D01*
G04 #@! TO.C,U3*
X89645000Y-44390000D02*
X87995000Y-44390000D01*
X89645000Y-62290000D02*
X89645000Y-44390000D01*
X84345000Y-62290000D02*
X89645000Y-62290000D01*
X84345000Y-44390000D02*
X84345000Y-62290000D01*
X85995000Y-44390000D02*
X84345000Y-44390000D01*
X87995000Y-44390000D02*
G75*
G02X85995000Y-44390000I-1000000J0D01*
G01*
G04 #@! TO.C,U2*
X74025000Y-44390000D02*
G75*
G02X72025000Y-44390000I-1000000J0D01*
G01*
X72025000Y-44390000D02*
X70375000Y-44390000D01*
X70375000Y-44390000D02*
X70375000Y-62290000D01*
X70375000Y-62290000D02*
X75675000Y-62290000D01*
X75675000Y-62290000D02*
X75675000Y-44390000D01*
X75675000Y-44390000D02*
X74025000Y-44390000D01*
G04 #@! TO.C,U1*
X61705000Y-44390000D02*
X60055000Y-44390000D01*
X61705000Y-62290000D02*
X61705000Y-44390000D01*
X56405000Y-62290000D02*
X61705000Y-62290000D01*
X56405000Y-44390000D02*
X56405000Y-62290000D01*
X58055000Y-44390000D02*
X56405000Y-44390000D01*
X60055000Y-44390000D02*
G75*
G02X58055000Y-44390000I-1000000J0D01*
G01*
G04 #@! TO.C,R3*
X96115000Y-88360000D02*
X95785000Y-88360000D01*
X95785000Y-88360000D02*
X95785000Y-81820000D01*
X95785000Y-81820000D02*
X96115000Y-81820000D01*
X98195000Y-88360000D02*
X98525000Y-88360000D01*
X98525000Y-88360000D02*
X98525000Y-81820000D01*
X98525000Y-81820000D02*
X98195000Y-81820000D01*
G04 #@! TO.C,R2*
X90075000Y-64670000D02*
X90075000Y-65000000D01*
X96615000Y-64670000D02*
X90075000Y-64670000D01*
X96615000Y-65000000D02*
X96615000Y-64670000D01*
X90075000Y-67410000D02*
X90075000Y-67080000D01*
X96615000Y-67410000D02*
X90075000Y-67410000D01*
X96615000Y-67080000D02*
X96615000Y-67410000D01*
G04 #@! TO.C,R1*
X96115000Y-77565000D02*
X95785000Y-77565000D01*
X95785000Y-77565000D02*
X95785000Y-71025000D01*
X95785000Y-71025000D02*
X96115000Y-71025000D01*
X98195000Y-77565000D02*
X98525000Y-77565000D01*
X98525000Y-77565000D02*
X98525000Y-71025000D01*
X98525000Y-71025000D02*
X98195000Y-71025000D01*
G04 #@! TO.C,J2*
D11*
X110156666Y-42842380D02*
X110156666Y-43556666D01*
X110109047Y-43699523D01*
X110013809Y-43794761D01*
X109870952Y-43842380D01*
X109775714Y-43842380D01*
X110585238Y-42937619D02*
X110632857Y-42890000D01*
X110728095Y-42842380D01*
X110966190Y-42842380D01*
X111061428Y-42890000D01*
X111109047Y-42937619D01*
X111156666Y-43032857D01*
X111156666Y-43128095D01*
X111109047Y-43270952D01*
X110537619Y-43842380D01*
X111156666Y-43842380D01*
G04 #@! TO.C,J3*
X110156666Y-83482380D02*
X110156666Y-84196666D01*
X110109047Y-84339523D01*
X110013809Y-84434761D01*
X109870952Y-84482380D01*
X109775714Y-84482380D01*
X110537619Y-83482380D02*
X111156666Y-83482380D01*
X110823333Y-83863333D01*
X110966190Y-83863333D01*
X111061428Y-83910952D01*
X111109047Y-83958571D01*
X111156666Y-84053809D01*
X111156666Y-84291904D01*
X111109047Y-84387142D01*
X111061428Y-84434761D01*
X110966190Y-84482380D01*
X110680476Y-84482380D01*
X110585238Y-84434761D01*
X110537619Y-84387142D01*
G04 #@! TO.C,J1*
X45386666Y-42842380D02*
X45386666Y-43556666D01*
X45339047Y-43699523D01*
X45243809Y-43794761D01*
X45100952Y-43842380D01*
X45005714Y-43842380D01*
X46386666Y-43842380D02*
X45815238Y-43842380D01*
X46100952Y-43842380D02*
X46100952Y-42842380D01*
X46005714Y-42985238D01*
X45910476Y-43080476D01*
X45815238Y-43128095D01*
G04 #@! TO.C,D3*
X102766904Y-85542380D02*
X102766904Y-84542380D01*
X103005000Y-84542380D01*
X103147857Y-84590000D01*
X103243095Y-84685238D01*
X103290714Y-84780476D01*
X103338333Y-84970952D01*
X103338333Y-85113809D01*
X103290714Y-85304285D01*
X103243095Y-85399523D01*
X103147857Y-85494761D01*
X103005000Y-85542380D01*
X102766904Y-85542380D01*
X103671666Y-84542380D02*
X104290714Y-84542380D01*
X103957380Y-84923333D01*
X104100238Y-84923333D01*
X104195476Y-84970952D01*
X104243095Y-85018571D01*
X104290714Y-85113809D01*
X104290714Y-85351904D01*
X104243095Y-85447142D01*
X104195476Y-85494761D01*
X104100238Y-85542380D01*
X103814523Y-85542380D01*
X103719285Y-85494761D01*
X103671666Y-85447142D01*
D13*
X102743095Y-91312142D02*
X102695476Y-91359761D01*
X102552619Y-91407380D01*
X102457380Y-91407380D01*
X102314523Y-91359761D01*
X102219285Y-91264523D01*
X102171666Y-91169285D01*
X102124047Y-90978809D01*
X102124047Y-90835952D01*
X102171666Y-90645476D01*
X102219285Y-90550238D01*
X102314523Y-90455000D01*
X102457380Y-90407380D01*
X102552619Y-90407380D01*
X102695476Y-90455000D01*
X102743095Y-90502619D01*
X103171666Y-91407380D02*
X103171666Y-90407380D01*
X103505000Y-91121666D01*
X103838333Y-90407380D01*
X103838333Y-91407380D01*
X104314523Y-91407380D02*
X104314523Y-90407380D01*
X104695476Y-90407380D01*
X104790714Y-90455000D01*
X104838333Y-90502619D01*
X104885952Y-90597857D01*
X104885952Y-90740714D01*
X104838333Y-90835952D01*
X104790714Y-90883571D01*
X104695476Y-90931190D01*
X104314523Y-90931190D01*
G04 #@! TO.C,D2*
D11*
X102766904Y-67762380D02*
X102766904Y-66762380D01*
X103005000Y-66762380D01*
X103147857Y-66810000D01*
X103243095Y-66905238D01*
X103290714Y-67000476D01*
X103338333Y-67190952D01*
X103338333Y-67333809D01*
X103290714Y-67524285D01*
X103243095Y-67619523D01*
X103147857Y-67714761D01*
X103005000Y-67762380D01*
X102766904Y-67762380D01*
X103719285Y-66857619D02*
X103766904Y-66810000D01*
X103862142Y-66762380D01*
X104100238Y-66762380D01*
X104195476Y-66810000D01*
X104243095Y-66857619D01*
X104290714Y-66952857D01*
X104290714Y-67048095D01*
X104243095Y-67190952D01*
X103671666Y-67762380D01*
X104290714Y-67762380D01*
D13*
X103814523Y-73532142D02*
X103766904Y-73579761D01*
X103624047Y-73627380D01*
X103528809Y-73627380D01*
X103385952Y-73579761D01*
X103290714Y-73484523D01*
X103243095Y-73389285D01*
X103195476Y-73198809D01*
X103195476Y-73055952D01*
X103243095Y-72865476D01*
X103290714Y-72770238D01*
X103385952Y-72675000D01*
X103528809Y-72627380D01*
X103624047Y-72627380D01*
X103766904Y-72675000D01*
X103814523Y-72722619D01*
G04 #@! TO.C,D1*
D11*
X102766904Y-76652380D02*
X102766904Y-75652380D01*
X103005000Y-75652380D01*
X103147857Y-75700000D01*
X103243095Y-75795238D01*
X103290714Y-75890476D01*
X103338333Y-76080952D01*
X103338333Y-76223809D01*
X103290714Y-76414285D01*
X103243095Y-76509523D01*
X103147857Y-76604761D01*
X103005000Y-76652380D01*
X102766904Y-76652380D01*
X104290714Y-76652380D02*
X103719285Y-76652380D01*
X104005000Y-76652380D02*
X104005000Y-75652380D01*
X103909761Y-75795238D01*
X103814523Y-75890476D01*
X103719285Y-75938095D01*
D13*
X103171666Y-81517380D02*
X103838333Y-81517380D01*
X103171666Y-82517380D01*
X103838333Y-82517380D01*
G04 #@! TO.C,U7*
D11*
X86233095Y-80732380D02*
X86233095Y-81541904D01*
X86280714Y-81637142D01*
X86328333Y-81684761D01*
X86423571Y-81732380D01*
X86614047Y-81732380D01*
X86709285Y-81684761D01*
X86756904Y-81637142D01*
X86804523Y-81541904D01*
X86804523Y-80732380D01*
X87185476Y-80732380D02*
X87852142Y-80732380D01*
X87423571Y-81732380D01*
X84828333Y-90682380D02*
X85495000Y-90682380D01*
X85066428Y-91682380D01*
X86304523Y-91015714D02*
X86304523Y-91682380D01*
X86066428Y-90634761D02*
X85828333Y-91349047D01*
X86447380Y-91349047D01*
X86733095Y-91682380D02*
X87256904Y-91015714D01*
X86733095Y-91015714D02*
X87256904Y-91682380D01*
X87542619Y-90682380D02*
X88209285Y-90682380D01*
X87780714Y-91682380D01*
X89018809Y-91015714D02*
X89018809Y-91682380D01*
X88780714Y-90634761D02*
X88542619Y-91349047D01*
X89161666Y-91349047D01*
G04 #@! TO.C,U6*
X72263095Y-80732380D02*
X72263095Y-81541904D01*
X72310714Y-81637142D01*
X72358333Y-81684761D01*
X72453571Y-81732380D01*
X72644047Y-81732380D01*
X72739285Y-81684761D01*
X72786904Y-81637142D01*
X72834523Y-81541904D01*
X72834523Y-80732380D01*
X73739285Y-80732380D02*
X73548809Y-80732380D01*
X73453571Y-80780000D01*
X73405952Y-80827619D01*
X73310714Y-80970476D01*
X73263095Y-81160952D01*
X73263095Y-81541904D01*
X73310714Y-81637142D01*
X73358333Y-81684761D01*
X73453571Y-81732380D01*
X73644047Y-81732380D01*
X73739285Y-81684761D01*
X73786904Y-81637142D01*
X73834523Y-81541904D01*
X73834523Y-81303809D01*
X73786904Y-81208571D01*
X73739285Y-81160952D01*
X73644047Y-81113333D01*
X73453571Y-81113333D01*
X73358333Y-81160952D01*
X73310714Y-81208571D01*
X73263095Y-81303809D01*
X70858333Y-90682380D02*
X71525000Y-90682380D01*
X71096428Y-91682380D01*
X72334523Y-91015714D02*
X72334523Y-91682380D01*
X72096428Y-90634761D02*
X71858333Y-91349047D01*
X72477380Y-91349047D01*
X72763095Y-91682380D02*
X73286904Y-91015714D01*
X72763095Y-91015714D02*
X73286904Y-91682380D01*
X73572619Y-90682380D02*
X74239285Y-90682380D01*
X73810714Y-91682380D01*
X75048809Y-91015714D02*
X75048809Y-91682380D01*
X74810714Y-90634761D02*
X74572619Y-91349047D01*
X75191666Y-91349047D01*
G04 #@! TO.C,U5*
X58293095Y-80732380D02*
X58293095Y-81541904D01*
X58340714Y-81637142D01*
X58388333Y-81684761D01*
X58483571Y-81732380D01*
X58674047Y-81732380D01*
X58769285Y-81684761D01*
X58816904Y-81637142D01*
X58864523Y-81541904D01*
X58864523Y-80732380D01*
X59816904Y-80732380D02*
X59340714Y-80732380D01*
X59293095Y-81208571D01*
X59340714Y-81160952D01*
X59435952Y-81113333D01*
X59674047Y-81113333D01*
X59769285Y-81160952D01*
X59816904Y-81208571D01*
X59864523Y-81303809D01*
X59864523Y-81541904D01*
X59816904Y-81637142D01*
X59769285Y-81684761D01*
X59674047Y-81732380D01*
X59435952Y-81732380D01*
X59340714Y-81684761D01*
X59293095Y-81637142D01*
X56888333Y-90682380D02*
X57555000Y-90682380D01*
X57126428Y-91682380D01*
X58364523Y-91015714D02*
X58364523Y-91682380D01*
X58126428Y-90634761D02*
X57888333Y-91349047D01*
X58507380Y-91349047D01*
X58793095Y-91682380D02*
X59316904Y-91015714D01*
X58793095Y-91015714D02*
X59316904Y-91682380D01*
X59888333Y-90682380D02*
X59983571Y-90682380D01*
X60078809Y-90730000D01*
X60126428Y-90777619D01*
X60174047Y-90872857D01*
X60221666Y-91063333D01*
X60221666Y-91301428D01*
X60174047Y-91491904D01*
X60126428Y-91587142D01*
X60078809Y-91634761D01*
X59983571Y-91682380D01*
X59888333Y-91682380D01*
X59793095Y-91634761D01*
X59745476Y-91587142D01*
X59697857Y-91491904D01*
X59650238Y-91301428D01*
X59650238Y-91063333D01*
X59697857Y-90872857D01*
X59745476Y-90777619D01*
X59793095Y-90730000D01*
X59888333Y-90682380D01*
X61078809Y-91015714D02*
X61078809Y-91682380D01*
X60840714Y-90634761D02*
X60602619Y-91349047D01*
X61221666Y-91349047D01*
G04 #@! TO.C,U4*
X100203095Y-52995379D02*
X100203095Y-53804903D01*
X100250714Y-53900141D01*
X100298333Y-53947760D01*
X100393571Y-53995379D01*
X100584047Y-53995379D01*
X100679285Y-53947760D01*
X100726904Y-53900141D01*
X100774523Y-53804903D01*
X100774523Y-52995379D01*
X101679285Y-53328713D02*
X101679285Y-53995379D01*
X101441190Y-52947760D02*
X101203095Y-53662046D01*
X101822142Y-53662046D01*
X98798333Y-62742380D02*
X99465000Y-62742380D01*
X99036428Y-63742380D01*
X100274523Y-63075714D02*
X100274523Y-63742380D01*
X100036428Y-62694761D02*
X99798333Y-63409047D01*
X100417380Y-63409047D01*
X100703095Y-63742380D02*
X101226904Y-63075714D01*
X100703095Y-63075714D02*
X101226904Y-63742380D01*
X101512619Y-62742380D02*
X102131666Y-62742380D01*
X101798333Y-63123333D01*
X101941190Y-63123333D01*
X102036428Y-63170952D01*
X102084047Y-63218571D01*
X102131666Y-63313809D01*
X102131666Y-63551904D01*
X102084047Y-63647142D01*
X102036428Y-63694761D01*
X101941190Y-63742380D01*
X101655476Y-63742380D01*
X101560238Y-63694761D01*
X101512619Y-63647142D01*
X102512619Y-62837619D02*
X102560238Y-62790000D01*
X102655476Y-62742380D01*
X102893571Y-62742380D01*
X102988809Y-62790000D01*
X103036428Y-62837619D01*
X103084047Y-62932857D01*
X103084047Y-63028095D01*
X103036428Y-63170952D01*
X102465000Y-63742380D01*
X103084047Y-63742380D01*
G04 #@! TO.C,U3*
X86233095Y-52995379D02*
X86233095Y-53804903D01*
X86280714Y-53900141D01*
X86328333Y-53947760D01*
X86423571Y-53995379D01*
X86614047Y-53995379D01*
X86709285Y-53947760D01*
X86756904Y-53900141D01*
X86804523Y-53804903D01*
X86804523Y-52995379D01*
X87185476Y-52995379D02*
X87804523Y-52995379D01*
X87471190Y-53376332D01*
X87614047Y-53376332D01*
X87709285Y-53423951D01*
X87756904Y-53471570D01*
X87804523Y-53566808D01*
X87804523Y-53804903D01*
X87756904Y-53900141D01*
X87709285Y-53947760D01*
X87614047Y-53995379D01*
X87328333Y-53995379D01*
X87233095Y-53947760D01*
X87185476Y-53900141D01*
X84828333Y-62742380D02*
X85495000Y-62742380D01*
X85066428Y-63742380D01*
X86304523Y-63075714D02*
X86304523Y-63742380D01*
X86066428Y-62694761D02*
X85828333Y-63409047D01*
X86447380Y-63409047D01*
X86733095Y-63742380D02*
X87256904Y-63075714D01*
X86733095Y-63075714D02*
X87256904Y-63742380D01*
X87542619Y-62742380D02*
X88161666Y-62742380D01*
X87828333Y-63123333D01*
X87971190Y-63123333D01*
X88066428Y-63170952D01*
X88114047Y-63218571D01*
X88161666Y-63313809D01*
X88161666Y-63551904D01*
X88114047Y-63647142D01*
X88066428Y-63694761D01*
X87971190Y-63742380D01*
X87685476Y-63742380D01*
X87590238Y-63694761D01*
X87542619Y-63647142D01*
X88542619Y-62837619D02*
X88590238Y-62790000D01*
X88685476Y-62742380D01*
X88923571Y-62742380D01*
X89018809Y-62790000D01*
X89066428Y-62837619D01*
X89114047Y-62932857D01*
X89114047Y-63028095D01*
X89066428Y-63170952D01*
X88495000Y-63742380D01*
X89114047Y-63742380D01*
G04 #@! TO.C,U2*
X72263095Y-52792380D02*
X72263095Y-53601904D01*
X72310714Y-53697142D01*
X72358333Y-53744761D01*
X72453571Y-53792380D01*
X72644047Y-53792380D01*
X72739285Y-53744761D01*
X72786904Y-53697142D01*
X72834523Y-53601904D01*
X72834523Y-52792380D01*
X73263095Y-52887619D02*
X73310714Y-52840000D01*
X73405952Y-52792380D01*
X73644047Y-52792380D01*
X73739285Y-52840000D01*
X73786904Y-52887619D01*
X73834523Y-52982857D01*
X73834523Y-53078095D01*
X73786904Y-53220952D01*
X73215476Y-53792380D01*
X73834523Y-53792380D01*
X70858333Y-62742380D02*
X71525000Y-62742380D01*
X71096428Y-63742380D01*
X72334523Y-63075714D02*
X72334523Y-63742380D01*
X72096428Y-62694761D02*
X71858333Y-63409047D01*
X72477380Y-63409047D01*
X72763095Y-63742380D02*
X73286904Y-63075714D01*
X72763095Y-63075714D02*
X73286904Y-63742380D01*
X73858333Y-62742380D02*
X73953571Y-62742380D01*
X74048809Y-62790000D01*
X74096428Y-62837619D01*
X74144047Y-62932857D01*
X74191666Y-63123333D01*
X74191666Y-63361428D01*
X74144047Y-63551904D01*
X74096428Y-63647142D01*
X74048809Y-63694761D01*
X73953571Y-63742380D01*
X73858333Y-63742380D01*
X73763095Y-63694761D01*
X73715476Y-63647142D01*
X73667857Y-63551904D01*
X73620238Y-63361428D01*
X73620238Y-63123333D01*
X73667857Y-62932857D01*
X73715476Y-62837619D01*
X73763095Y-62790000D01*
X73858333Y-62742380D01*
X74763095Y-63170952D02*
X74667857Y-63123333D01*
X74620238Y-63075714D01*
X74572619Y-62980476D01*
X74572619Y-62932857D01*
X74620238Y-62837619D01*
X74667857Y-62790000D01*
X74763095Y-62742380D01*
X74953571Y-62742380D01*
X75048809Y-62790000D01*
X75096428Y-62837619D01*
X75144047Y-62932857D01*
X75144047Y-62980476D01*
X75096428Y-63075714D01*
X75048809Y-63123333D01*
X74953571Y-63170952D01*
X74763095Y-63170952D01*
X74667857Y-63218571D01*
X74620238Y-63266190D01*
X74572619Y-63361428D01*
X74572619Y-63551904D01*
X74620238Y-63647142D01*
X74667857Y-63694761D01*
X74763095Y-63742380D01*
X74953571Y-63742380D01*
X75048809Y-63694761D01*
X75096428Y-63647142D01*
X75144047Y-63551904D01*
X75144047Y-63361428D01*
X75096428Y-63266190D01*
X75048809Y-63218571D01*
X74953571Y-63170952D01*
G04 #@! TO.C,U1*
X58293095Y-52792380D02*
X58293095Y-53601904D01*
X58340714Y-53697142D01*
X58388333Y-53744761D01*
X58483571Y-53792380D01*
X58674047Y-53792380D01*
X58769285Y-53744761D01*
X58816904Y-53697142D01*
X58864523Y-53601904D01*
X58864523Y-52792380D01*
X59864523Y-53792380D02*
X59293095Y-53792380D01*
X59578809Y-53792380D02*
X59578809Y-52792380D01*
X59483571Y-52935238D01*
X59388333Y-53030476D01*
X59293095Y-53078095D01*
X56888333Y-62742380D02*
X57555000Y-62742380D01*
X57126428Y-63742380D01*
X58364523Y-63075714D02*
X58364523Y-63742380D01*
X58126428Y-62694761D02*
X57888333Y-63409047D01*
X58507380Y-63409047D01*
X58793095Y-63742380D02*
X59316904Y-63075714D01*
X58793095Y-63075714D02*
X59316904Y-63742380D01*
X59888333Y-62742380D02*
X59983571Y-62742380D01*
X60078809Y-62790000D01*
X60126428Y-62837619D01*
X60174047Y-62932857D01*
X60221666Y-63123333D01*
X60221666Y-63361428D01*
X60174047Y-63551904D01*
X60126428Y-63647142D01*
X60078809Y-63694761D01*
X59983571Y-63742380D01*
X59888333Y-63742380D01*
X59793095Y-63694761D01*
X59745476Y-63647142D01*
X59697857Y-63551904D01*
X59650238Y-63361428D01*
X59650238Y-63123333D01*
X59697857Y-62932857D01*
X59745476Y-62837619D01*
X59793095Y-62790000D01*
X59888333Y-62742380D01*
X60793095Y-63170952D02*
X60697857Y-63123333D01*
X60650238Y-63075714D01*
X60602619Y-62980476D01*
X60602619Y-62932857D01*
X60650238Y-62837619D01*
X60697857Y-62790000D01*
X60793095Y-62742380D01*
X60983571Y-62742380D01*
X61078809Y-62790000D01*
X61126428Y-62837619D01*
X61174047Y-62932857D01*
X61174047Y-62980476D01*
X61126428Y-63075714D01*
X61078809Y-63123333D01*
X60983571Y-63170952D01*
X60793095Y-63170952D01*
X60697857Y-63218571D01*
X60650238Y-63266190D01*
X60602619Y-63361428D01*
X60602619Y-63551904D01*
X60650238Y-63647142D01*
X60697857Y-63694761D01*
X60793095Y-63742380D01*
X60983571Y-63742380D01*
X61078809Y-63694761D01*
X61126428Y-63647142D01*
X61174047Y-63551904D01*
X61174047Y-63361428D01*
X61126428Y-63266190D01*
X61078809Y-63218571D01*
X60983571Y-63170952D01*
G04 #@! TO.C,R3*
X97632379Y-85256666D02*
X97156189Y-85590000D01*
X97632379Y-85828095D02*
X96632379Y-85828095D01*
X96632379Y-85447142D01*
X96679999Y-85351904D01*
X96727618Y-85304285D01*
X96822856Y-85256666D01*
X96965713Y-85256666D01*
X97060951Y-85304285D01*
X97108570Y-85351904D01*
X97156189Y-85447142D01*
X97156189Y-85828095D01*
X96632379Y-84923333D02*
X96632379Y-84304285D01*
X97013332Y-84637619D01*
X97013332Y-84494761D01*
X97060951Y-84399523D01*
X97108570Y-84351904D01*
X97203808Y-84304285D01*
X97441903Y-84304285D01*
X97537141Y-84351904D01*
X97584760Y-84399523D01*
X97632379Y-84494761D01*
X97632379Y-84780476D01*
X97584760Y-84875714D01*
X97537141Y-84923333D01*
G04 #@! TO.C,R2*
X93178333Y-66465381D02*
X92845000Y-65989191D01*
X92606904Y-66465381D02*
X92606904Y-65465381D01*
X92987857Y-65465381D01*
X93083095Y-65513001D01*
X93130714Y-65560620D01*
X93178333Y-65655858D01*
X93178333Y-65798715D01*
X93130714Y-65893953D01*
X93083095Y-65941572D01*
X92987857Y-65989191D01*
X92606904Y-65989191D01*
X93559285Y-65560620D02*
X93606904Y-65513001D01*
X93702142Y-65465381D01*
X93940238Y-65465381D01*
X94035476Y-65513001D01*
X94083095Y-65560620D01*
X94130714Y-65655858D01*
X94130714Y-65751096D01*
X94083095Y-65893953D01*
X93511666Y-66465381D01*
X94130714Y-66465381D01*
G04 #@! TO.C,R1*
X97636379Y-74461666D02*
X97160189Y-74795000D01*
X97636379Y-75033095D02*
X96636379Y-75033095D01*
X96636379Y-74652142D01*
X96683999Y-74556904D01*
X96731618Y-74509285D01*
X96826856Y-74461666D01*
X96969713Y-74461666D01*
X97064951Y-74509285D01*
X97112570Y-74556904D01*
X97160189Y-74652142D01*
X97160189Y-75033095D01*
X97636379Y-73509285D02*
X97636379Y-74080714D01*
X97636379Y-73795000D02*
X96636379Y-73795000D01*
X96779237Y-73890238D01*
X96874475Y-73985476D01*
X96922094Y-74080714D01*
G04 #@! TD*
M02*
