M48
;DRILL file {KiCad 5.0.2+dfsg1-1} date za 27 jul 2019 20:03:24 CEST
;FORMAT={-:-/ absolute / inch / decimal}
FMAT,2
INCH,TZ
T1C0.0157
T2C0.0315
T3C0.0354
T4C0.0394
%
G90
G05
T1
X2.215Y-2.58
X2.865Y-2.4
X2.865Y-2.58
X3.094Y-2.35
X3.15Y-2.76
X3.1738Y-2.9423
X3.405Y-2.76
X3.695Y-2.76
T2
X2.725Y-1.8
X2.725Y-1.9
X2.725Y-2.
X2.725Y-2.1
X2.725Y-2.2
X2.725Y-2.3
X2.725Y-2.4
X3.025Y-1.8
X3.025Y-1.9
X3.025Y-2.
X3.025Y-2.1
X3.025Y-2.2
X3.025Y-2.3
X3.025Y-2.4
X3.525Y-2.6
X3.825Y-2.6
X2.175Y-1.8
X2.175Y-1.9
X2.175Y-2.
X2.175Y-2.1
X2.175Y-2.2
X2.175Y-2.3
X2.175Y-2.4
X2.475Y-1.8
X2.475Y-1.9
X2.475Y-2.
X2.475Y-2.1
X2.475Y-2.2
X2.475Y-2.3
X2.475Y-2.4
X3.825Y-1.8
X3.825Y-1.9
X3.825Y-2.
X3.825Y-2.1
X3.825Y-2.2
X3.825Y-2.3
X3.825Y-2.4
X4.125Y-1.8
X4.125Y-1.9
X4.125Y-2.
X4.125Y-2.1
X4.125Y-2.2
X4.125Y-2.3
X4.125Y-2.4
X2.175Y-2.9
X2.175Y-3.
X2.175Y-3.1
X2.175Y-3.2
X2.175Y-3.3
X2.175Y-3.4
X2.175Y-3.5
X2.475Y-2.9
X2.475Y-3.
X2.475Y-3.1
X2.475Y-3.2
X2.475Y-3.3
X2.475Y-3.4
X2.475Y-3.5
X3.825Y-3.2
X3.825Y-3.5
X3.275Y-1.8
X3.275Y-1.9
X3.275Y-2.
X3.275Y-2.1
X3.275Y-2.2
X3.275Y-2.3
X3.275Y-2.4
X3.575Y-1.8
X3.575Y-1.9
X3.575Y-2.
X3.575Y-2.1
X3.575Y-2.2
X3.575Y-2.3
X3.575Y-2.4
X3.825Y-2.775
X3.825Y-3.075
X3.275Y-2.9
X3.275Y-3.
X3.275Y-3.1
X3.275Y-3.2
X3.275Y-3.3
X3.275Y-3.4
X3.275Y-3.5
X3.575Y-2.9
X3.575Y-3.
X3.575Y-3.1
X3.575Y-3.2
X3.575Y-3.3
X3.575Y-3.4
X3.575Y-3.5
X2.725Y-2.9
X2.725Y-3.
X2.725Y-3.1
X2.725Y-3.2
X2.725Y-3.3
X2.725Y-3.4
X2.725Y-3.5
X3.025Y-2.9
X3.025Y-3.
X3.025Y-3.1
X3.025Y-3.2
X3.025Y-3.3
X3.025Y-3.4
X3.025Y-3.5
T3
X4.025Y-3.075
X4.125Y-3.075
X4.025Y-2.725
X4.125Y-2.725
X4.025Y-3.425
X4.125Y-3.425
T4
X4.35Y-1.8
X4.35Y-1.9
X4.35Y-3.4
X4.35Y-3.5
X1.8Y-1.8
X1.8Y-1.9
X1.8Y-2.
X1.8Y-2.1
X1.8Y-2.2
X1.8Y-2.3
X1.8Y-2.4
X1.8Y-2.5
X1.8Y-2.6
X1.8Y-2.7
X1.8Y-2.8
X1.8Y-2.9
X1.8Y-3.
X1.8Y-3.1
X1.8Y-3.2
X1.8Y-3.3
X1.8Y-3.4
X1.8Y-3.5
T0
M30
