M48
; DRILL file {KiCad (5.1.2)-2} date 08/11/19 10:54:04
; FORMAT={-:-/ absolute / inch / decimal}
; #@! TF.CreationDate,2019-08-11T10:54:04+02:00
; #@! TF.GenerationSoftware,Kicad,Pcbnew,(5.1.2)-2
; #@! TF.FileFunction,Plated,1,2,PTH
FMAT,2
INCH
T1C0.0157
T2C0.0276
T3C0.0300
T4C0.0315
T5C0.0354
T6C0.0360
T7C0.0394
T8C0.0433
%
G90
G05
T1
X1.5688Y-3.0866
X1.6602Y-3.0686
X1.7439Y-3.0477
X1.7992Y-3.0329
X1.8688Y-3.0043
X2.6529Y-2.9084
X2.727Y-2.8713
X3.2139Y-3.0148
X3.7013Y-3.5889
X3.78Y-3.8963
X3.9354Y-3.5057
X3.9596Y-3.4041
X4.089Y-3.8777
X4.4792Y-4.2621
X4.5529Y-4.1479
T2
X6.125Y-5.055
X6.125Y-5.135
X6.125Y-5.215
X6.325Y-5.055
X6.325Y-5.135
X6.325Y-5.215
X6.1288Y-2.3313
X6.1288Y-2.4113
X6.1288Y-2.4913
X6.3288Y-2.3313
X6.3288Y-2.4113
X6.3288Y-2.4913
T3
X1.75Y-4.8
X1.75Y-4.9
X1.95Y-4.7
X1.95Y-4.8
X1.95Y-4.9
X3.95Y-4.8
X3.95Y-4.9
X4.15Y-4.7
X4.15Y-4.8
X4.15Y-4.9
X5.05Y-4.8
X5.05Y-4.9
X5.25Y-4.7
X5.25Y-4.8
X5.25Y-4.9
X2.3Y-4.8
X2.3Y-4.9
X2.5Y-4.7
X2.5Y-4.8
X2.5Y-4.9
X5.6Y-4.8
X5.6Y-4.9
X5.8Y-4.7
X5.8Y-4.8
X5.8Y-4.9
X3.4Y-4.8
X3.4Y-4.9
X3.6Y-4.7
X3.6Y-4.8
X3.6Y-4.9
X2.85Y-4.8
X2.85Y-4.9
X3.05Y-4.7
X3.05Y-4.8
X3.05Y-4.9
X4.5Y-4.8
X4.5Y-4.9
X4.7Y-4.7
X4.7Y-4.8
X4.7Y-4.9
T4
X3.15Y-2.325
X3.25Y-2.325
X3.35Y-2.325
X3.45Y-2.325
X3.55Y-2.325
X3.65Y-2.325
X3.75Y-2.325
X3.85Y-2.325
X3.95Y-2.325
X1.65Y-3.35
X1.65Y-3.45
X1.65Y-3.55
X1.65Y-3.65
X1.65Y-3.75
X1.65Y-3.85
X1.65Y-3.95
X1.95Y-3.35
X1.95Y-3.45
X1.95Y-3.55
X1.95Y-3.65
X1.95Y-3.75
X1.95Y-3.85
X1.95Y-3.95
X6.05Y-4.55
X6.35Y-4.55
X3.3Y-3.05
X3.3Y-3.15
X3.3Y-3.25
X3.3Y-3.35
X3.3Y-3.45
X3.3Y-3.55
X3.3Y-3.65
X3.3Y-3.75
X3.3Y-3.85
X3.3Y-3.95
X3.6Y-3.05
X3.6Y-3.15
X3.6Y-3.25
X3.6Y-3.35
X3.6Y-3.45
X3.6Y-3.55
X3.6Y-3.65
X3.6Y-3.75
X3.6Y-3.85
X3.6Y-3.95
X6.05Y-3.0
X6.35Y-3.0
X4.4Y-2.45
X4.4Y-2.55
X4.4Y-2.65
X4.4Y-2.75
X4.4Y-2.85
X4.4Y-2.95
X4.4Y-3.05
X4.4Y-3.15
X4.4Y-3.25
X4.4Y-3.35
X4.4Y-3.45
X4.4Y-3.55
X4.4Y-3.65
X4.4Y-3.75
X4.4Y-3.85
X4.4Y-3.95
X4.7Y-2.45
X4.7Y-2.55
X4.7Y-2.65
X4.7Y-2.75
X4.7Y-2.85
X4.7Y-2.95
X4.7Y-3.05
X4.7Y-3.15
X4.7Y-3.25
X4.7Y-3.35
X4.7Y-3.45
X4.7Y-3.55
X4.7Y-3.65
X4.7Y-3.75
X4.7Y-3.85
X4.7Y-3.95
X4.5Y-4.7
X2.2Y-3.35
X2.2Y-3.45
X2.2Y-3.55
X2.2Y-3.65
X2.2Y-3.75
X2.2Y-3.85
X2.2Y-3.95
X2.5Y-3.35
X2.5Y-3.45
X2.5Y-3.55
X2.5Y-3.65
X2.5Y-3.75
X2.5Y-3.85
X2.5Y-3.95
X1.65Y-2.325
X1.65Y-2.425
X1.65Y-2.525
X1.65Y-2.625
X1.65Y-2.725
X1.65Y-2.825
X1.65Y-2.925
X1.95Y-2.325
X1.95Y-2.425
X1.95Y-2.525
X1.95Y-2.625
X1.95Y-2.725
X1.95Y-2.825
X1.95Y-2.925
X1.75Y-4.7
X3.95Y-4.7
X5.175Y-2.6
X5.175Y-2.7
X5.175Y-2.8
X5.175Y-2.9
X5.175Y-3.0
X5.175Y-3.1
X5.175Y-3.2
X5.175Y-3.3
X5.175Y-3.4
X5.175Y-3.5
X5.175Y-3.6
X5.175Y-3.7
X5.175Y-3.8
X5.175Y-3.9
X5.775Y-2.6
X5.775Y-2.7
X5.775Y-2.8
X5.775Y-2.9
X5.775Y-3.0
X5.775Y-3.1
X5.775Y-3.2
X5.775Y-3.3
X5.775Y-3.4
X5.775Y-3.5
X5.775Y-3.6
X5.775Y-3.7
X5.775Y-3.8
X5.775Y-3.9
X2.2Y-2.325
X2.2Y-2.425
X2.2Y-2.525
X2.2Y-2.625
X2.2Y-2.725
X2.2Y-2.825
X2.2Y-2.925
X2.5Y-2.325
X2.5Y-2.425
X2.5Y-2.525
X2.5Y-2.625
X2.5Y-2.725
X2.5Y-2.825
X2.5Y-2.925
X5.05Y-4.7
X3.85Y-3.05
X3.85Y-3.15
X3.85Y-3.25
X3.85Y-3.35
X3.85Y-3.45
X3.85Y-3.55
X3.85Y-3.65
X3.85Y-3.75
X3.85Y-3.85
X3.85Y-3.95
X4.15Y-3.05
X4.15Y-3.15
X4.15Y-3.25
X4.15Y-3.35
X4.15Y-3.45
X4.15Y-3.55
X4.15Y-3.65
X4.15Y-3.75
X4.15Y-3.85
X4.15Y-3.95
X2.3Y-4.7
X2.75Y-3.05
X2.75Y-3.15
X2.75Y-3.25
X2.75Y-3.35
X2.75Y-3.45
X2.75Y-3.55
X2.75Y-3.65
X2.75Y-3.75
X2.75Y-3.85
X2.75Y-3.95
X3.05Y-3.05
X3.05Y-3.15
X3.05Y-3.25
X3.05Y-3.35
X3.05Y-3.45
X3.05Y-3.55
X3.05Y-3.65
X3.05Y-3.75
X3.05Y-3.85
X3.05Y-3.95
X5.6Y-4.7
X3.4Y-4.7
X2.85Y-4.7
T5
X6.225Y-2.775
X6.325Y-2.775
X6.25Y-4.775
X6.35Y-4.775
T6
X3.05Y-2.475
X3.05Y-2.775
X3.15Y-2.475
X3.15Y-2.775
X3.25Y-2.475
X3.25Y-2.775
X3.35Y-2.475
X3.35Y-2.775
X3.45Y-2.475
X3.45Y-2.775
X3.55Y-2.475
X3.55Y-2.775
X3.65Y-2.475
X3.65Y-2.775
X3.75Y-2.475
X3.75Y-2.775
X3.85Y-2.475
X3.85Y-2.775
X3.95Y-2.475
X3.95Y-2.775
T7
X1.175Y-3.725
X1.175Y-3.825
X1.175Y-3.925
X1.175Y-4.025
X1.175Y-4.125
X1.175Y-4.225
X1.175Y-4.325
X1.175Y-4.425
X1.175Y-4.525
X1.175Y-4.625
X1.175Y-4.725
X1.175Y-4.825
X1.175Y-4.925
X1.175Y-5.025
X1.175Y-5.125
X1.175Y-5.225
X6.55Y-2.325
X6.55Y-2.425
X6.55Y-2.525
X6.55Y-2.625
X6.55Y-2.725
X6.55Y-2.825
X6.55Y-2.925
X6.55Y-3.025
X1.175Y-2.325
X1.175Y-2.425
X1.175Y-2.525
X1.175Y-2.625
X1.175Y-2.725
X1.175Y-2.825
X1.175Y-2.925
X1.175Y-3.025
X1.175Y-3.125
X1.175Y-3.225
X1.175Y-3.325
X1.175Y-3.425
X1.175Y-3.525
X6.55Y-4.525
X6.55Y-4.625
X6.55Y-4.725
X6.55Y-4.825
X6.55Y-4.925
X6.55Y-5.025
X6.55Y-5.125
X6.55Y-5.225
T8
X1.645Y-4.405
X1.645Y-5.195
X2.055Y-4.405
X2.055Y-5.195
X3.845Y-4.405
X3.845Y-5.195
X4.255Y-4.405
X4.255Y-5.195
X4.945Y-4.405
X4.945Y-5.195
X5.355Y-4.405
X5.355Y-5.195
X2.195Y-4.405
X2.195Y-5.195
X2.605Y-4.405
X2.605Y-5.195
X5.495Y-4.405
X5.495Y-5.195
X5.905Y-4.405
X5.905Y-5.195
X3.295Y-4.405
X3.295Y-5.195
X3.705Y-4.405
X3.705Y-5.195
X2.745Y-4.405
X2.745Y-5.195
X3.155Y-4.405
X3.155Y-5.195
X4.395Y-4.405
X4.395Y-5.195
X4.805Y-4.405
X4.805Y-5.195
T0
M30
