G04 #@! TF.GenerationSoftware,KiCad,Pcbnew,(5.1.2)-2*
G04 #@! TF.CreationDate,2019-08-11T11:02:35+02:00*
G04 #@! TF.ProjectId,Memory,4d656d6f-7279-42e6-9b69-6361645f7063,rev?*
G04 #@! TF.SameCoordinates,Original*
G04 #@! TF.FileFunction,Legend,Top*
G04 #@! TF.FilePolarity,Positive*
%FSLAX46Y46*%
G04 Gerber Fmt 4.6, Leading zero omitted, Abs format (unit mm)*
G04 Created by KiCad (PCBNEW (5.1.2)-2) date 2019-08-11 11:02:35*
%MOMM*%
%LPD*%
G04 APERTURE LIST*
%ADD10C,0.250000*%
%ADD11C,0.150000*%
%ADD12C,0.120000*%
G04 APERTURE END LIST*
D10*
X144053857Y-135552571D02*
X144053857Y-134052571D01*
X144411000Y-134052571D01*
X144625285Y-134124000D01*
X144768142Y-134266857D01*
X144839571Y-134409714D01*
X144911000Y-134695428D01*
X144911000Y-134909714D01*
X144839571Y-135195428D01*
X144768142Y-135338285D01*
X144625285Y-135481142D01*
X144411000Y-135552571D01*
X144053857Y-135552571D01*
X145839571Y-134052571D02*
X145982428Y-134052571D01*
X146125285Y-134124000D01*
X146196714Y-134195428D01*
X146268142Y-134338285D01*
X146339571Y-134624000D01*
X146339571Y-134981142D01*
X146268142Y-135266857D01*
X146196714Y-135409714D01*
X146125285Y-135481142D01*
X145982428Y-135552571D01*
X145839571Y-135552571D01*
X145696714Y-135481142D01*
X145625285Y-135409714D01*
X145553857Y-135266857D01*
X145482428Y-134981142D01*
X145482428Y-134624000D01*
X145553857Y-134338285D01*
X145625285Y-134195428D01*
X145696714Y-134124000D01*
X145839571Y-134052571D01*
X88173857Y-135552571D02*
X88173857Y-134052571D01*
X88531000Y-134052571D01*
X88745285Y-134124000D01*
X88888142Y-134266857D01*
X88959571Y-134409714D01*
X89031000Y-134695428D01*
X89031000Y-134909714D01*
X88959571Y-135195428D01*
X88888142Y-135338285D01*
X88745285Y-135481142D01*
X88531000Y-135552571D01*
X88173857Y-135552571D01*
X90316714Y-134552571D02*
X90316714Y-135552571D01*
X89959571Y-133981142D02*
X89602428Y-135052571D01*
X90531000Y-135052571D01*
X46263857Y-135552571D02*
X46263857Y-134052571D01*
X46621000Y-134052571D01*
X46835285Y-134124000D01*
X46978142Y-134266857D01*
X47049571Y-134409714D01*
X47121000Y-134695428D01*
X47121000Y-134909714D01*
X47049571Y-135195428D01*
X46978142Y-135338285D01*
X46835285Y-135481142D01*
X46621000Y-135552571D01*
X46263857Y-135552571D01*
X47621000Y-134052571D02*
X48621000Y-134052571D01*
X47978142Y-135552571D01*
X60233857Y-135552571D02*
X60233857Y-134052571D01*
X60591000Y-134052571D01*
X60805285Y-134124000D01*
X60948142Y-134266857D01*
X61019571Y-134409714D01*
X61091000Y-134695428D01*
X61091000Y-134909714D01*
X61019571Y-135195428D01*
X60948142Y-135338285D01*
X60805285Y-135481142D01*
X60591000Y-135552571D01*
X60233857Y-135552571D01*
X62376714Y-134052571D02*
X62091000Y-134052571D01*
X61948142Y-134124000D01*
X61876714Y-134195428D01*
X61733857Y-134409714D01*
X61662428Y-134695428D01*
X61662428Y-135266857D01*
X61733857Y-135409714D01*
X61805285Y-135481142D01*
X61948142Y-135552571D01*
X62233857Y-135552571D01*
X62376714Y-135481142D01*
X62448142Y-135409714D01*
X62519571Y-135266857D01*
X62519571Y-134909714D01*
X62448142Y-134766857D01*
X62376714Y-134695428D01*
X62233857Y-134624000D01*
X61948142Y-134624000D01*
X61805285Y-134695428D01*
X61733857Y-134766857D01*
X61662428Y-134909714D01*
X130083857Y-135552571D02*
X130083857Y-134052571D01*
X130441000Y-134052571D01*
X130655285Y-134124000D01*
X130798142Y-134266857D01*
X130869571Y-134409714D01*
X130941000Y-134695428D01*
X130941000Y-134909714D01*
X130869571Y-135195428D01*
X130798142Y-135338285D01*
X130655285Y-135481142D01*
X130441000Y-135552571D01*
X130083857Y-135552571D01*
X132369571Y-135552571D02*
X131512428Y-135552571D01*
X131941000Y-135552571D02*
X131941000Y-134052571D01*
X131798142Y-134266857D01*
X131655285Y-134409714D01*
X131512428Y-134481142D01*
X116113857Y-135552571D02*
X116113857Y-134052571D01*
X116471000Y-134052571D01*
X116685285Y-134124000D01*
X116828142Y-134266857D01*
X116899571Y-134409714D01*
X116971000Y-134695428D01*
X116971000Y-134909714D01*
X116899571Y-135195428D01*
X116828142Y-135338285D01*
X116685285Y-135481142D01*
X116471000Y-135552571D01*
X116113857Y-135552571D01*
X117542428Y-134195428D02*
X117613857Y-134124000D01*
X117756714Y-134052571D01*
X118113857Y-134052571D01*
X118256714Y-134124000D01*
X118328142Y-134195428D01*
X118399571Y-134338285D01*
X118399571Y-134481142D01*
X118328142Y-134695428D01*
X117471000Y-135552571D01*
X118399571Y-135552571D01*
X102143857Y-135552571D02*
X102143857Y-134052571D01*
X102501000Y-134052571D01*
X102715285Y-134124000D01*
X102858142Y-134266857D01*
X102929571Y-134409714D01*
X103001000Y-134695428D01*
X103001000Y-134909714D01*
X102929571Y-135195428D01*
X102858142Y-135338285D01*
X102715285Y-135481142D01*
X102501000Y-135552571D01*
X102143857Y-135552571D01*
X103501000Y-134052571D02*
X104429571Y-134052571D01*
X103929571Y-134624000D01*
X104143857Y-134624000D01*
X104286714Y-134695428D01*
X104358142Y-134766857D01*
X104429571Y-134909714D01*
X104429571Y-135266857D01*
X104358142Y-135409714D01*
X104286714Y-135481142D01*
X104143857Y-135552571D01*
X103715285Y-135552571D01*
X103572428Y-135481142D01*
X103501000Y-135409714D01*
X74203857Y-135552571D02*
X74203857Y-134052571D01*
X74561000Y-134052571D01*
X74775285Y-134124000D01*
X74918142Y-134266857D01*
X74989571Y-134409714D01*
X75061000Y-134695428D01*
X75061000Y-134909714D01*
X74989571Y-135195428D01*
X74918142Y-135338285D01*
X74775285Y-135481142D01*
X74561000Y-135552571D01*
X74203857Y-135552571D01*
X76418142Y-134052571D02*
X75703857Y-134052571D01*
X75632428Y-134766857D01*
X75703857Y-134695428D01*
X75846714Y-134624000D01*
X76203857Y-134624000D01*
X76346714Y-134695428D01*
X76418142Y-134766857D01*
X76489571Y-134909714D01*
X76489571Y-135266857D01*
X76418142Y-135409714D01*
X76346714Y-135481142D01*
X76203857Y-135552571D01*
X75846714Y-135552571D01*
X75703857Y-135481142D01*
X75632428Y-135409714D01*
D11*
X27644285Y-117198928D02*
X26894285Y-117198928D01*
X27430000Y-116948928D01*
X26894285Y-116698928D01*
X27644285Y-116698928D01*
X27251428Y-116341785D02*
X27251428Y-116091785D01*
X27644285Y-115984642D02*
X27644285Y-116341785D01*
X26894285Y-116341785D01*
X26894285Y-115984642D01*
X27644285Y-115663214D02*
X26894285Y-115663214D01*
X27430000Y-115413214D01*
X26894285Y-115163214D01*
X27644285Y-115163214D01*
X26894285Y-114663214D02*
X26894285Y-114520357D01*
X26930000Y-114448928D01*
X27001428Y-114377500D01*
X27144285Y-114341785D01*
X27394285Y-114341785D01*
X27537142Y-114377500D01*
X27608571Y-114448928D01*
X27644285Y-114520357D01*
X27644285Y-114663214D01*
X27608571Y-114734642D01*
X27537142Y-114806071D01*
X27394285Y-114841785D01*
X27144285Y-114841785D01*
X27001428Y-114806071D01*
X26930000Y-114734642D01*
X26894285Y-114663214D01*
X27644285Y-113591785D02*
X27287142Y-113841785D01*
X27644285Y-114020357D02*
X26894285Y-114020357D01*
X26894285Y-113734642D01*
X26930000Y-113663214D01*
X26965714Y-113627500D01*
X27037142Y-113591785D01*
X27144285Y-113591785D01*
X27215714Y-113627500D01*
X27251428Y-113663214D01*
X27287142Y-113734642D01*
X27287142Y-114020357D01*
X27287142Y-113127500D02*
X27644285Y-113127500D01*
X26894285Y-113377500D02*
X27287142Y-113127500D01*
X26894285Y-112877500D01*
X27430000Y-112091785D02*
X27430000Y-111734642D01*
X27644285Y-112163214D02*
X26894285Y-111913214D01*
X27644285Y-111663214D01*
X27644285Y-111413214D02*
X26894285Y-111413214D01*
X26894285Y-111234642D01*
X26930000Y-111127500D01*
X27001428Y-111056071D01*
X27072857Y-111020357D01*
X27215714Y-110984642D01*
X27322857Y-110984642D01*
X27465714Y-111020357D01*
X27537142Y-111056071D01*
X27608571Y-111127500D01*
X27644285Y-111234642D01*
X27644285Y-111413214D01*
X27644285Y-110663214D02*
X26894285Y-110663214D01*
X26894285Y-110484642D01*
X26930000Y-110377500D01*
X27001428Y-110306071D01*
X27072857Y-110270357D01*
X27215714Y-110234642D01*
X27322857Y-110234642D01*
X27465714Y-110270357D01*
X27537142Y-110306071D01*
X27608571Y-110377500D01*
X27644285Y-110484642D01*
X27644285Y-110663214D01*
X27644285Y-109484642D02*
X27287142Y-109734642D01*
X27644285Y-109913214D02*
X26894285Y-109913214D01*
X26894285Y-109627500D01*
X26930000Y-109556071D01*
X26965714Y-109520357D01*
X27037142Y-109484642D01*
X27144285Y-109484642D01*
X27215714Y-109520357D01*
X27251428Y-109556071D01*
X27287142Y-109627500D01*
X27287142Y-109913214D01*
X27251428Y-109163214D02*
X27251428Y-108913214D01*
X27644285Y-108806071D02*
X27644285Y-109163214D01*
X26894285Y-109163214D01*
X26894285Y-108806071D01*
X27608571Y-108520357D02*
X27644285Y-108413214D01*
X27644285Y-108234642D01*
X27608571Y-108163214D01*
X27572857Y-108127500D01*
X27501428Y-108091785D01*
X27430000Y-108091785D01*
X27358571Y-108127500D01*
X27322857Y-108163214D01*
X27287142Y-108234642D01*
X27251428Y-108377500D01*
X27215714Y-108448928D01*
X27180000Y-108484642D01*
X27108571Y-108520357D01*
X27037142Y-108520357D01*
X26965714Y-108484642D01*
X26930000Y-108448928D01*
X26894285Y-108377500D01*
X26894285Y-108198928D01*
X26930000Y-108091785D01*
X27608571Y-107806071D02*
X27644285Y-107698928D01*
X27644285Y-107520357D01*
X27608571Y-107448928D01*
X27572857Y-107413214D01*
X27501428Y-107377500D01*
X27430000Y-107377500D01*
X27358571Y-107413214D01*
X27322857Y-107448928D01*
X27287142Y-107520357D01*
X27251428Y-107663214D01*
X27215714Y-107734642D01*
X27180000Y-107770357D01*
X27108571Y-107806071D01*
X27037142Y-107806071D01*
X26965714Y-107770357D01*
X26930000Y-107734642D01*
X26894285Y-107663214D01*
X26894285Y-107484642D01*
X26930000Y-107377500D01*
X31863357Y-117727000D02*
X32220500Y-117727000D01*
X31791928Y-117941285D02*
X32041928Y-117191285D01*
X32291928Y-117941285D01*
X32577642Y-117941285D02*
X32720500Y-117941285D01*
X32791928Y-117905571D01*
X32827642Y-117869857D01*
X32899071Y-117762714D01*
X32934785Y-117619857D01*
X32934785Y-117334142D01*
X32899071Y-117262714D01*
X32863357Y-117227000D01*
X32791928Y-117191285D01*
X32649071Y-117191285D01*
X32577642Y-117227000D01*
X32541928Y-117262714D01*
X32506214Y-117334142D01*
X32506214Y-117512714D01*
X32541928Y-117584142D01*
X32577642Y-117619857D01*
X32649071Y-117655571D01*
X32791928Y-117655571D01*
X32863357Y-117619857D01*
X32899071Y-117584142D01*
X32934785Y-117512714D01*
X31863357Y-130427000D02*
X32220500Y-130427000D01*
X31791928Y-130641285D02*
X32041928Y-129891285D01*
X32291928Y-130641285D01*
X32934785Y-130641285D02*
X32506214Y-130641285D01*
X32720500Y-130641285D02*
X32720500Y-129891285D01*
X32649071Y-129998428D01*
X32577642Y-130069857D01*
X32506214Y-130105571D01*
X33577642Y-130141285D02*
X33577642Y-130641285D01*
X33399071Y-129855571D02*
X33220500Y-130391285D01*
X33684785Y-130391285D01*
X31863357Y-107567000D02*
X32220500Y-107567000D01*
X31791928Y-107781285D02*
X32041928Y-107031285D01*
X32291928Y-107781285D01*
X32899071Y-107031285D02*
X32541928Y-107031285D01*
X32506214Y-107388428D01*
X32541928Y-107352714D01*
X32613357Y-107317000D01*
X32791928Y-107317000D01*
X32863357Y-107352714D01*
X32899071Y-107388428D01*
X32934785Y-107459857D01*
X32934785Y-107638428D01*
X32899071Y-107709857D01*
X32863357Y-107745571D01*
X32791928Y-107781285D01*
X32613357Y-107781285D01*
X32541928Y-107745571D01*
X32506214Y-107709857D01*
X31863357Y-122807000D02*
X32220500Y-122807000D01*
X31791928Y-123021285D02*
X32041928Y-122271285D01*
X32291928Y-123021285D01*
X32934785Y-123021285D02*
X32506214Y-123021285D01*
X32720500Y-123021285D02*
X32720500Y-122271285D01*
X32649071Y-122378428D01*
X32577642Y-122449857D01*
X32506214Y-122485571D01*
X33649071Y-123021285D02*
X33220500Y-123021285D01*
X33434785Y-123021285D02*
X33434785Y-122271285D01*
X33363357Y-122378428D01*
X33291928Y-122449857D01*
X33220500Y-122485571D01*
X31863357Y-94867000D02*
X32220500Y-94867000D01*
X31791928Y-95081285D02*
X32041928Y-94331285D01*
X32291928Y-95081285D01*
X32684785Y-94331285D02*
X32756214Y-94331285D01*
X32827642Y-94367000D01*
X32863357Y-94402714D01*
X32899071Y-94474142D01*
X32934785Y-94617000D01*
X32934785Y-94795571D01*
X32899071Y-94938428D01*
X32863357Y-95009857D01*
X32827642Y-95045571D01*
X32756214Y-95081285D01*
X32684785Y-95081285D01*
X32613357Y-95045571D01*
X32577642Y-95009857D01*
X32541928Y-94938428D01*
X32506214Y-94795571D01*
X32506214Y-94617000D01*
X32541928Y-94474142D01*
X32577642Y-94402714D01*
X32613357Y-94367000D01*
X32684785Y-94331285D01*
X31863357Y-132967000D02*
X32220500Y-132967000D01*
X31791928Y-133181285D02*
X32041928Y-132431285D01*
X32291928Y-133181285D01*
X32934785Y-133181285D02*
X32506214Y-133181285D01*
X32720500Y-133181285D02*
X32720500Y-132431285D01*
X32649071Y-132538428D01*
X32577642Y-132609857D01*
X32506214Y-132645571D01*
X33613357Y-132431285D02*
X33256214Y-132431285D01*
X33220500Y-132788428D01*
X33256214Y-132752714D01*
X33327642Y-132717000D01*
X33506214Y-132717000D01*
X33577642Y-132752714D01*
X33613357Y-132788428D01*
X33649071Y-132859857D01*
X33649071Y-133038428D01*
X33613357Y-133109857D01*
X33577642Y-133145571D01*
X33506214Y-133181285D01*
X33327642Y-133181285D01*
X33256214Y-133145571D01*
X33220500Y-133109857D01*
X31863357Y-97407000D02*
X32220500Y-97407000D01*
X31791928Y-97621285D02*
X32041928Y-96871285D01*
X32291928Y-97621285D01*
X32934785Y-97621285D02*
X32506214Y-97621285D01*
X32720500Y-97621285D02*
X32720500Y-96871285D01*
X32649071Y-96978428D01*
X32577642Y-97049857D01*
X32506214Y-97085571D01*
X31863357Y-99947000D02*
X32220500Y-99947000D01*
X31791928Y-100161285D02*
X32041928Y-99411285D01*
X32291928Y-100161285D01*
X32506214Y-99482714D02*
X32541928Y-99447000D01*
X32613357Y-99411285D01*
X32791928Y-99411285D01*
X32863357Y-99447000D01*
X32899071Y-99482714D01*
X32934785Y-99554142D01*
X32934785Y-99625571D01*
X32899071Y-99732714D01*
X32470500Y-100161285D01*
X32934785Y-100161285D01*
X31863357Y-112647000D02*
X32220500Y-112647000D01*
X31791928Y-112861285D02*
X32041928Y-112111285D01*
X32291928Y-112861285D01*
X32470500Y-112111285D02*
X32970500Y-112111285D01*
X32649071Y-112861285D01*
X31863357Y-115187000D02*
X32220500Y-115187000D01*
X31791928Y-115401285D02*
X32041928Y-114651285D01*
X32291928Y-115401285D01*
X32649071Y-114972714D02*
X32577642Y-114937000D01*
X32541928Y-114901285D01*
X32506214Y-114829857D01*
X32506214Y-114794142D01*
X32541928Y-114722714D01*
X32577642Y-114687000D01*
X32649071Y-114651285D01*
X32791928Y-114651285D01*
X32863357Y-114687000D01*
X32899071Y-114722714D01*
X32934785Y-114794142D01*
X32934785Y-114829857D01*
X32899071Y-114901285D01*
X32863357Y-114937000D01*
X32791928Y-114972714D01*
X32649071Y-114972714D01*
X32577642Y-115008428D01*
X32541928Y-115044142D01*
X32506214Y-115115571D01*
X32506214Y-115258428D01*
X32541928Y-115329857D01*
X32577642Y-115365571D01*
X32649071Y-115401285D01*
X32791928Y-115401285D01*
X32863357Y-115365571D01*
X32899071Y-115329857D01*
X32934785Y-115258428D01*
X32934785Y-115115571D01*
X32899071Y-115044142D01*
X32863357Y-115008428D01*
X32791928Y-114972714D01*
X31863357Y-102487000D02*
X32220500Y-102487000D01*
X31791928Y-102701285D02*
X32041928Y-101951285D01*
X32291928Y-102701285D01*
X32470500Y-101951285D02*
X32934785Y-101951285D01*
X32684785Y-102237000D01*
X32791928Y-102237000D01*
X32863357Y-102272714D01*
X32899071Y-102308428D01*
X32934785Y-102379857D01*
X32934785Y-102558428D01*
X32899071Y-102629857D01*
X32863357Y-102665571D01*
X32791928Y-102701285D01*
X32577642Y-102701285D01*
X32506214Y-102665571D01*
X32470500Y-102629857D01*
X31863357Y-125347000D02*
X32220500Y-125347000D01*
X31791928Y-125561285D02*
X32041928Y-124811285D01*
X32291928Y-125561285D01*
X32934785Y-125561285D02*
X32506214Y-125561285D01*
X32720500Y-125561285D02*
X32720500Y-124811285D01*
X32649071Y-124918428D01*
X32577642Y-124989857D01*
X32506214Y-125025571D01*
X33220500Y-124882714D02*
X33256214Y-124847000D01*
X33327642Y-124811285D01*
X33506214Y-124811285D01*
X33577642Y-124847000D01*
X33613357Y-124882714D01*
X33649071Y-124954142D01*
X33649071Y-125025571D01*
X33613357Y-125132714D01*
X33184785Y-125561285D01*
X33649071Y-125561285D01*
X31863357Y-105027000D02*
X32220500Y-105027000D01*
X31791928Y-105241285D02*
X32041928Y-104491285D01*
X32291928Y-105241285D01*
X32863357Y-104741285D02*
X32863357Y-105241285D01*
X32684785Y-104455571D02*
X32506214Y-104991285D01*
X32970500Y-104991285D01*
X31863357Y-127887000D02*
X32220500Y-127887000D01*
X31791928Y-128101285D02*
X32041928Y-127351285D01*
X32291928Y-128101285D01*
X32934785Y-128101285D02*
X32506214Y-128101285D01*
X32720500Y-128101285D02*
X32720500Y-127351285D01*
X32649071Y-127458428D01*
X32577642Y-127529857D01*
X32506214Y-127565571D01*
X33184785Y-127351285D02*
X33649071Y-127351285D01*
X33399071Y-127637000D01*
X33506214Y-127637000D01*
X33577642Y-127672714D01*
X33613357Y-127708428D01*
X33649071Y-127779857D01*
X33649071Y-127958428D01*
X33613357Y-128029857D01*
X33577642Y-128065571D01*
X33506214Y-128101285D01*
X33291928Y-128101285D01*
X33220500Y-128065571D01*
X33184785Y-128029857D01*
X31863357Y-110107000D02*
X32220500Y-110107000D01*
X31791928Y-110321285D02*
X32041928Y-109571285D01*
X32291928Y-110321285D01*
X32863357Y-109571285D02*
X32720500Y-109571285D01*
X32649071Y-109607000D01*
X32613357Y-109642714D01*
X32541928Y-109749857D01*
X32506214Y-109892714D01*
X32506214Y-110178428D01*
X32541928Y-110249857D01*
X32577642Y-110285571D01*
X32649071Y-110321285D01*
X32791928Y-110321285D01*
X32863357Y-110285571D01*
X32899071Y-110249857D01*
X32934785Y-110178428D01*
X32934785Y-109999857D01*
X32899071Y-109928428D01*
X32863357Y-109892714D01*
X32791928Y-109857000D01*
X32649071Y-109857000D01*
X32577642Y-109892714D01*
X32541928Y-109928428D01*
X32506214Y-109999857D01*
X31863357Y-120267000D02*
X32220500Y-120267000D01*
X31791928Y-120481285D02*
X32041928Y-119731285D01*
X32291928Y-120481285D01*
X32934785Y-120481285D02*
X32506214Y-120481285D01*
X32720500Y-120481285D02*
X32720500Y-119731285D01*
X32649071Y-119838428D01*
X32577642Y-119909857D01*
X32506214Y-119945571D01*
X33399071Y-119731285D02*
X33470500Y-119731285D01*
X33541928Y-119767000D01*
X33577642Y-119802714D01*
X33613357Y-119874142D01*
X33649071Y-120017000D01*
X33649071Y-120195571D01*
X33613357Y-120338428D01*
X33577642Y-120409857D01*
X33541928Y-120445571D01*
X33470500Y-120481285D01*
X33399071Y-120481285D01*
X33327642Y-120445571D01*
X33291928Y-120409857D01*
X33256214Y-120338428D01*
X33220500Y-120195571D01*
X33220500Y-120017000D01*
X33256214Y-119874142D01*
X33291928Y-119802714D01*
X33327642Y-119767000D01*
X33399071Y-119731285D01*
X31899071Y-87461285D02*
X31899071Y-86711285D01*
X32077642Y-86711285D01*
X32184785Y-86747000D01*
X32256214Y-86818428D01*
X32291928Y-86889857D01*
X32327642Y-87032714D01*
X32327642Y-87139857D01*
X32291928Y-87282714D01*
X32256214Y-87354142D01*
X32184785Y-87425571D01*
X32077642Y-87461285D01*
X31899071Y-87461285D01*
X32970500Y-86711285D02*
X32827642Y-86711285D01*
X32756214Y-86747000D01*
X32720500Y-86782714D01*
X32649071Y-86889857D01*
X32613357Y-87032714D01*
X32613357Y-87318428D01*
X32649071Y-87389857D01*
X32684785Y-87425571D01*
X32756214Y-87461285D01*
X32899071Y-87461285D01*
X32970500Y-87425571D01*
X33006214Y-87389857D01*
X33041928Y-87318428D01*
X33041928Y-87139857D01*
X33006214Y-87068428D01*
X32970500Y-87032714D01*
X32899071Y-86997000D01*
X32756214Y-86997000D01*
X32684785Y-87032714D01*
X32649071Y-87068428D01*
X32613357Y-87139857D01*
X31899071Y-90001285D02*
X31899071Y-89251285D01*
X32077642Y-89251285D01*
X32184785Y-89287000D01*
X32256214Y-89358428D01*
X32291928Y-89429857D01*
X32327642Y-89572714D01*
X32327642Y-89679857D01*
X32291928Y-89822714D01*
X32256214Y-89894142D01*
X32184785Y-89965571D01*
X32077642Y-90001285D01*
X31899071Y-90001285D01*
X32577642Y-89251285D02*
X33077642Y-89251285D01*
X32756214Y-90001285D01*
X31899071Y-84921285D02*
X31899071Y-84171285D01*
X32077642Y-84171285D01*
X32184785Y-84207000D01*
X32256214Y-84278428D01*
X32291928Y-84349857D01*
X32327642Y-84492714D01*
X32327642Y-84599857D01*
X32291928Y-84742714D01*
X32256214Y-84814142D01*
X32184785Y-84885571D01*
X32077642Y-84921285D01*
X31899071Y-84921285D01*
X33006214Y-84171285D02*
X32649071Y-84171285D01*
X32613357Y-84528428D01*
X32649071Y-84492714D01*
X32720500Y-84457000D01*
X32899071Y-84457000D01*
X32970500Y-84492714D01*
X33006214Y-84528428D01*
X33041928Y-84599857D01*
X33041928Y-84778428D01*
X33006214Y-84849857D01*
X32970500Y-84885571D01*
X32899071Y-84921285D01*
X32720500Y-84921285D01*
X32649071Y-84885571D01*
X32613357Y-84849857D01*
X31899071Y-61775571D02*
X32470500Y-61775571D01*
X32184785Y-62061285D02*
X32184785Y-61489857D01*
X33184785Y-61311285D02*
X32827642Y-61311285D01*
X32791928Y-61668428D01*
X32827642Y-61632714D01*
X32899071Y-61597000D01*
X33077642Y-61597000D01*
X33149071Y-61632714D01*
X33184785Y-61668428D01*
X33220500Y-61739857D01*
X33220500Y-61918428D01*
X33184785Y-61989857D01*
X33149071Y-62025571D01*
X33077642Y-62061285D01*
X32899071Y-62061285D01*
X32827642Y-62025571D01*
X32791928Y-61989857D01*
X33434785Y-61311285D02*
X33684785Y-62061285D01*
X33934785Y-61311285D01*
X31899071Y-74761285D02*
X31899071Y-74011285D01*
X32077642Y-74011285D01*
X32184785Y-74047000D01*
X32256214Y-74118428D01*
X32291928Y-74189857D01*
X32327642Y-74332714D01*
X32327642Y-74439857D01*
X32291928Y-74582714D01*
X32256214Y-74654142D01*
X32184785Y-74725571D01*
X32077642Y-74761285D01*
X31899071Y-74761285D01*
X33041928Y-74761285D02*
X32613357Y-74761285D01*
X32827642Y-74761285D02*
X32827642Y-74011285D01*
X32756214Y-74118428D01*
X32684785Y-74189857D01*
X32613357Y-74225571D01*
X32291928Y-58807000D02*
X32220500Y-58771285D01*
X32113357Y-58771285D01*
X32006214Y-58807000D01*
X31934785Y-58878428D01*
X31899071Y-58949857D01*
X31863357Y-59092714D01*
X31863357Y-59199857D01*
X31899071Y-59342714D01*
X31934785Y-59414142D01*
X32006214Y-59485571D01*
X32113357Y-59521285D01*
X32184785Y-59521285D01*
X32291928Y-59485571D01*
X32327642Y-59449857D01*
X32327642Y-59199857D01*
X32184785Y-59199857D01*
X32649071Y-59521285D02*
X32649071Y-58771285D01*
X33077642Y-59521285D01*
X33077642Y-58771285D01*
X33434785Y-59521285D02*
X33434785Y-58771285D01*
X33613357Y-58771285D01*
X33720500Y-58807000D01*
X33791928Y-58878428D01*
X33827642Y-58949857D01*
X33863357Y-59092714D01*
X33863357Y-59199857D01*
X33827642Y-59342714D01*
X33791928Y-59414142D01*
X33720500Y-59485571D01*
X33613357Y-59521285D01*
X33434785Y-59521285D01*
X31899071Y-79841285D02*
X31899071Y-79091285D01*
X32077642Y-79091285D01*
X32184785Y-79127000D01*
X32256214Y-79198428D01*
X32291928Y-79269857D01*
X32327642Y-79412714D01*
X32327642Y-79519857D01*
X32291928Y-79662714D01*
X32256214Y-79734142D01*
X32184785Y-79805571D01*
X32077642Y-79841285D01*
X31899071Y-79841285D01*
X32577642Y-79091285D02*
X33041928Y-79091285D01*
X32791928Y-79377000D01*
X32899071Y-79377000D01*
X32970500Y-79412714D01*
X33006214Y-79448428D01*
X33041928Y-79519857D01*
X33041928Y-79698428D01*
X33006214Y-79769857D01*
X32970500Y-79805571D01*
X32899071Y-79841285D01*
X32684785Y-79841285D01*
X32613357Y-79805571D01*
X32577642Y-79769857D01*
X31899071Y-72221285D02*
X31899071Y-71471285D01*
X32077642Y-71471285D01*
X32184785Y-71507000D01*
X32256214Y-71578428D01*
X32291928Y-71649857D01*
X32327642Y-71792714D01*
X32327642Y-71899857D01*
X32291928Y-72042714D01*
X32256214Y-72114142D01*
X32184785Y-72185571D01*
X32077642Y-72221285D01*
X31899071Y-72221285D01*
X32791928Y-71471285D02*
X32863357Y-71471285D01*
X32934785Y-71507000D01*
X32970500Y-71542714D01*
X33006214Y-71614142D01*
X33041928Y-71757000D01*
X33041928Y-71935571D01*
X33006214Y-72078428D01*
X32970500Y-72149857D01*
X32934785Y-72185571D01*
X32863357Y-72221285D01*
X32791928Y-72221285D01*
X32720500Y-72185571D01*
X32684785Y-72149857D01*
X32649071Y-72078428D01*
X32613357Y-71935571D01*
X32613357Y-71757000D01*
X32649071Y-71614142D01*
X32684785Y-71542714D01*
X32720500Y-71507000D01*
X32791928Y-71471285D01*
X31899071Y-77301285D02*
X31899071Y-76551285D01*
X32077642Y-76551285D01*
X32184785Y-76587000D01*
X32256214Y-76658428D01*
X32291928Y-76729857D01*
X32327642Y-76872714D01*
X32327642Y-76979857D01*
X32291928Y-77122714D01*
X32256214Y-77194142D01*
X32184785Y-77265571D01*
X32077642Y-77301285D01*
X31899071Y-77301285D01*
X32613357Y-76622714D02*
X32649071Y-76587000D01*
X32720500Y-76551285D01*
X32899071Y-76551285D01*
X32970500Y-76587000D01*
X33006214Y-76622714D01*
X33041928Y-76694142D01*
X33041928Y-76765571D01*
X33006214Y-76872714D01*
X32577642Y-77301285D01*
X33041928Y-77301285D01*
X31720500Y-66067000D02*
X32470500Y-66067000D01*
X32327642Y-67141285D02*
X32077642Y-66784142D01*
X31899071Y-67141285D02*
X31899071Y-66391285D01*
X32184785Y-66391285D01*
X32256214Y-66427000D01*
X32291928Y-66462714D01*
X32327642Y-66534142D01*
X32327642Y-66641285D01*
X32291928Y-66712714D01*
X32256214Y-66748428D01*
X32184785Y-66784142D01*
X31899071Y-66784142D01*
X32470500Y-66067000D02*
X33113357Y-66067000D01*
X32613357Y-66927000D02*
X32970500Y-66927000D01*
X32541928Y-67141285D02*
X32791928Y-66391285D01*
X33041928Y-67141285D01*
X33113357Y-66067000D02*
X33970500Y-66067000D01*
X33291928Y-67141285D02*
X33291928Y-66391285D01*
X33541928Y-66927000D01*
X33791928Y-66391285D01*
X33791928Y-67141285D01*
X33970500Y-66067000D02*
X34541928Y-66067000D01*
X33970500Y-67212714D02*
X34541928Y-67212714D01*
X34541928Y-66067000D02*
X35149071Y-66067000D01*
X35077642Y-67141285D02*
X34720500Y-67141285D01*
X34720500Y-66391285D01*
X35149071Y-66067000D02*
X35934785Y-66067000D01*
X35470500Y-66391285D02*
X35613357Y-66391285D01*
X35684785Y-66427000D01*
X35756214Y-66498428D01*
X35791928Y-66641285D01*
X35791928Y-66891285D01*
X35756214Y-67034142D01*
X35684785Y-67105571D01*
X35613357Y-67141285D01*
X35470500Y-67141285D01*
X35399071Y-67105571D01*
X35327642Y-67034142D01*
X35291928Y-66891285D01*
X35291928Y-66641285D01*
X35327642Y-66498428D01*
X35399071Y-66427000D01*
X35470500Y-66391285D01*
X35934785Y-66067000D02*
X36577642Y-66067000D01*
X36077642Y-66927000D02*
X36434785Y-66927000D01*
X36006214Y-67141285D02*
X36256214Y-66391285D01*
X36506214Y-67141285D01*
X36577642Y-66067000D02*
X37327642Y-66067000D01*
X36756214Y-67141285D02*
X36756214Y-66391285D01*
X36934785Y-66391285D01*
X37041928Y-66427000D01*
X37113357Y-66498428D01*
X37149071Y-66569857D01*
X37184785Y-66712714D01*
X37184785Y-66819857D01*
X37149071Y-66962714D01*
X37113357Y-67034142D01*
X37041928Y-67105571D01*
X36934785Y-67141285D01*
X36756214Y-67141285D01*
X31899071Y-82381285D02*
X31899071Y-81631285D01*
X32077642Y-81631285D01*
X32184785Y-81667000D01*
X32256214Y-81738428D01*
X32291928Y-81809857D01*
X32327642Y-81952714D01*
X32327642Y-82059857D01*
X32291928Y-82202714D01*
X32256214Y-82274142D01*
X32184785Y-82345571D01*
X32077642Y-82381285D01*
X31899071Y-82381285D01*
X32970500Y-81881285D02*
X32970500Y-82381285D01*
X32791928Y-81595571D02*
X32613357Y-82131285D01*
X33077642Y-82131285D01*
X31720500Y-68607000D02*
X32577642Y-68607000D01*
X31899071Y-69681285D02*
X31899071Y-68931285D01*
X32149071Y-69467000D01*
X32399071Y-68931285D01*
X32399071Y-69681285D01*
X32577642Y-68607000D02*
X33256214Y-68607000D01*
X32756214Y-69288428D02*
X33006214Y-69288428D01*
X33113357Y-69681285D02*
X32756214Y-69681285D01*
X32756214Y-68931285D01*
X33113357Y-68931285D01*
X33256214Y-68607000D02*
X34113357Y-68607000D01*
X33434785Y-69681285D02*
X33434785Y-68931285D01*
X33684785Y-69467000D01*
X33934785Y-68931285D01*
X33934785Y-69681285D01*
X34113357Y-68607000D02*
X34684785Y-68607000D01*
X34113357Y-69752714D02*
X34684785Y-69752714D01*
X34684785Y-68607000D02*
X35470500Y-68607000D01*
X35006214Y-68931285D02*
X35149071Y-68931285D01*
X35220500Y-68967000D01*
X35291928Y-69038428D01*
X35327642Y-69181285D01*
X35327642Y-69431285D01*
X35291928Y-69574142D01*
X35220500Y-69645571D01*
X35149071Y-69681285D01*
X35006214Y-69681285D01*
X34934785Y-69645571D01*
X34863357Y-69574142D01*
X34827642Y-69431285D01*
X34827642Y-69181285D01*
X34863357Y-69038428D01*
X34934785Y-68967000D01*
X35006214Y-68931285D01*
X35470500Y-68607000D02*
X36256214Y-68607000D01*
X35649071Y-68931285D02*
X35649071Y-69538428D01*
X35684785Y-69609857D01*
X35720500Y-69645571D01*
X35791928Y-69681285D01*
X35934785Y-69681285D01*
X36006214Y-69645571D01*
X36041928Y-69609857D01*
X36077642Y-69538428D01*
X36077642Y-68931285D01*
X36256214Y-68607000D02*
X36827642Y-68607000D01*
X36327642Y-68931285D02*
X36756214Y-68931285D01*
X36541928Y-69681285D02*
X36541928Y-68931285D01*
X32327642Y-64529857D02*
X32291928Y-64565571D01*
X32184785Y-64601285D01*
X32113357Y-64601285D01*
X32006214Y-64565571D01*
X31934785Y-64494142D01*
X31899071Y-64422714D01*
X31863357Y-64279857D01*
X31863357Y-64172714D01*
X31899071Y-64029857D01*
X31934785Y-63958428D01*
X32006214Y-63887000D01*
X32113357Y-63851285D01*
X32184785Y-63851285D01*
X32291928Y-63887000D01*
X32327642Y-63922714D01*
X33006214Y-64601285D02*
X32649071Y-64601285D01*
X32649071Y-63851285D01*
X33399071Y-63851285D02*
X33541928Y-63851285D01*
X33613357Y-63887000D01*
X33684785Y-63958428D01*
X33720500Y-64101285D01*
X33720500Y-64351285D01*
X33684785Y-64494142D01*
X33613357Y-64565571D01*
X33541928Y-64601285D01*
X33399071Y-64601285D01*
X33327642Y-64565571D01*
X33256214Y-64494142D01*
X33220500Y-64351285D01*
X33220500Y-64101285D01*
X33256214Y-63958428D01*
X33327642Y-63887000D01*
X33399071Y-63851285D01*
X34470500Y-64529857D02*
X34434785Y-64565571D01*
X34327642Y-64601285D01*
X34256214Y-64601285D01*
X34149071Y-64565571D01*
X34077642Y-64494142D01*
X34041928Y-64422714D01*
X34006214Y-64279857D01*
X34006214Y-64172714D01*
X34041928Y-64029857D01*
X34077642Y-63958428D01*
X34149071Y-63887000D01*
X34256214Y-63851285D01*
X34327642Y-63851285D01*
X34434785Y-63887000D01*
X34470500Y-63922714D01*
X34791928Y-64601285D02*
X34791928Y-63851285D01*
X35220500Y-64601285D02*
X34899071Y-64172714D01*
X35220500Y-63851285D02*
X34791928Y-64279857D01*
D10*
X152356428Y-57655000D02*
X153856428Y-57655000D01*
X153856428Y-58226428D01*
X153785000Y-58369285D01*
X153713571Y-58440714D01*
X153570714Y-58512142D01*
X153356428Y-58512142D01*
X153213571Y-58440714D01*
X153142142Y-58369285D01*
X153070714Y-58226428D01*
X153070714Y-57655000D01*
X152356428Y-60012142D02*
X153070714Y-59512142D01*
X152356428Y-59155000D02*
X153856428Y-59155000D01*
X153856428Y-59726428D01*
X153785000Y-59869285D01*
X153713571Y-59940714D01*
X153570714Y-60012142D01*
X153356428Y-60012142D01*
X153213571Y-59940714D01*
X153142142Y-59869285D01*
X153070714Y-59726428D01*
X153070714Y-59155000D01*
X153856428Y-60940714D02*
X153856428Y-61226428D01*
X153785000Y-61369285D01*
X153642142Y-61512142D01*
X153356428Y-61583571D01*
X152856428Y-61583571D01*
X152570714Y-61512142D01*
X152427857Y-61369285D01*
X152356428Y-61226428D01*
X152356428Y-60940714D01*
X152427857Y-60797857D01*
X152570714Y-60655000D01*
X152856428Y-60583571D01*
X153356428Y-60583571D01*
X153642142Y-60655000D01*
X153785000Y-60797857D01*
X153856428Y-60940714D01*
X153785000Y-63012142D02*
X153856428Y-62869285D01*
X153856428Y-62655000D01*
X153785000Y-62440714D01*
X153642142Y-62297857D01*
X153499285Y-62226428D01*
X153213571Y-62155000D01*
X152999285Y-62155000D01*
X152713571Y-62226428D01*
X152570714Y-62297857D01*
X152427857Y-62440714D01*
X152356428Y-62655000D01*
X152356428Y-62797857D01*
X152427857Y-63012142D01*
X152499285Y-63083571D01*
X152999285Y-63083571D01*
X152999285Y-62797857D01*
X152356428Y-64583571D02*
X153070714Y-64083571D01*
X152356428Y-63726428D02*
X153856428Y-63726428D01*
X153856428Y-64297857D01*
X153785000Y-64440714D01*
X153713571Y-64512142D01*
X153570714Y-64583571D01*
X153356428Y-64583571D01*
X153213571Y-64512142D01*
X153142142Y-64440714D01*
X153070714Y-64297857D01*
X153070714Y-63726428D01*
X152785000Y-65155000D02*
X152785000Y-65869285D01*
X152356428Y-65012142D02*
X153856428Y-65512142D01*
X152356428Y-66012142D01*
X152356428Y-66512142D02*
X153856428Y-66512142D01*
X152785000Y-67012142D01*
X153856428Y-67512142D01*
X152356428Y-67512142D01*
X152356428Y-70226428D02*
X153070714Y-69726428D01*
X152356428Y-69369285D02*
X153856428Y-69369285D01*
X153856428Y-69940714D01*
X153785000Y-70083571D01*
X153713571Y-70155000D01*
X153570714Y-70226428D01*
X153356428Y-70226428D01*
X153213571Y-70155000D01*
X153142142Y-70083571D01*
X153070714Y-69940714D01*
X153070714Y-69369285D01*
X152785000Y-70797857D02*
X152785000Y-71512142D01*
X152356428Y-70655000D02*
X153856428Y-71155000D01*
X152356428Y-71655000D01*
X152356428Y-72155000D02*
X153856428Y-72155000D01*
X152785000Y-72655000D01*
X153856428Y-73155000D01*
X152356428Y-73155000D01*
X153142142Y-123270000D02*
X153070714Y-123484285D01*
X152999285Y-123555714D01*
X152856428Y-123627142D01*
X152642142Y-123627142D01*
X152499285Y-123555714D01*
X152427857Y-123484285D01*
X152356428Y-123341428D01*
X152356428Y-122770000D01*
X153856428Y-122770000D01*
X153856428Y-123270000D01*
X153785000Y-123412857D01*
X153713571Y-123484285D01*
X153570714Y-123555714D01*
X153427857Y-123555714D01*
X153285000Y-123484285D01*
X153213571Y-123412857D01*
X153142142Y-123270000D01*
X153142142Y-122770000D01*
X153856428Y-124555714D02*
X153856428Y-124841428D01*
X153785000Y-124984285D01*
X153642142Y-125127142D01*
X153356428Y-125198571D01*
X152856428Y-125198571D01*
X152570714Y-125127142D01*
X152427857Y-124984285D01*
X152356428Y-124841428D01*
X152356428Y-124555714D01*
X152427857Y-124412857D01*
X152570714Y-124270000D01*
X152856428Y-124198571D01*
X153356428Y-124198571D01*
X153642142Y-124270000D01*
X153785000Y-124412857D01*
X153856428Y-124555714D01*
X153856428Y-126127142D02*
X153856428Y-126412857D01*
X153785000Y-126555714D01*
X153642142Y-126698571D01*
X153356428Y-126770000D01*
X152856428Y-126770000D01*
X152570714Y-126698571D01*
X152427857Y-126555714D01*
X152356428Y-126412857D01*
X152356428Y-126127142D01*
X152427857Y-125984285D01*
X152570714Y-125841428D01*
X152856428Y-125770000D01*
X153356428Y-125770000D01*
X153642142Y-125841428D01*
X153785000Y-125984285D01*
X153856428Y-126127142D01*
X153856428Y-127198571D02*
X153856428Y-128055714D01*
X152356428Y-127627142D02*
X153856428Y-127627142D01*
X152356428Y-130555714D02*
X153070714Y-130055714D01*
X152356428Y-129698571D02*
X153856428Y-129698571D01*
X153856428Y-130270000D01*
X153785000Y-130412857D01*
X153713571Y-130484285D01*
X153570714Y-130555714D01*
X153356428Y-130555714D01*
X153213571Y-130484285D01*
X153142142Y-130412857D01*
X153070714Y-130270000D01*
X153070714Y-129698571D01*
X153856428Y-131484285D02*
X153856428Y-131770000D01*
X153785000Y-131912857D01*
X153642142Y-132055714D01*
X153356428Y-132127142D01*
X152856428Y-132127142D01*
X152570714Y-132055714D01*
X152427857Y-131912857D01*
X152356428Y-131770000D01*
X152356428Y-131484285D01*
X152427857Y-131341428D01*
X152570714Y-131198571D01*
X152856428Y-131127142D01*
X153356428Y-131127142D01*
X153642142Y-131198571D01*
X153785000Y-131341428D01*
X153856428Y-131484285D01*
X152356428Y-132770000D02*
X153856428Y-132770000D01*
X152785000Y-133270000D01*
X153856428Y-133770000D01*
X152356428Y-133770000D01*
D12*
X148015000Y-64650000D02*
X130115000Y-64650000D01*
X148015000Y-100450000D02*
X148015000Y-64650000D01*
X130115000Y-100450000D02*
X148015000Y-100450000D01*
X130115000Y-64650000D02*
X130115000Y-100450000D01*
X145525000Y-64710000D02*
X140065000Y-64710000D01*
X145525000Y-100390000D02*
X145525000Y-64710000D01*
X132605000Y-100390000D02*
X145525000Y-100390000D01*
X132605000Y-64710000D02*
X132605000Y-100390000D01*
X138065000Y-64710000D02*
X132605000Y-64710000D01*
X140065000Y-64710000D02*
G75*
G02X138065000Y-64710000I-1000000J0D01*
G01*
D11*
X127635000Y-55880000D02*
X150495000Y-55880000D01*
X150495000Y-55880000D02*
X150495000Y-106045000D01*
X150495000Y-106045000D02*
X127635000Y-106045000D01*
X127635000Y-106045000D02*
X127635000Y-55880000D01*
D12*
X114570000Y-60840000D02*
X112800000Y-60840000D01*
X112800000Y-60840000D02*
X112800000Y-101720000D01*
X112800000Y-101720000D02*
X118340000Y-101720000D01*
X118340000Y-101720000D02*
X118340000Y-60840000D01*
X118340000Y-60840000D02*
X116570000Y-60840000D01*
X116570000Y-60840000D02*
G75*
G02X114570000Y-60840000I-1000000J0D01*
G01*
D11*
X97282000Y-110363000D02*
X97282000Y-133477000D01*
X97282000Y-133477000D02*
X108458000Y-133477000D01*
X108458000Y-133477000D02*
X108458000Y-110363000D01*
X108458000Y-110363000D02*
X97282000Y-110363000D01*
D12*
X165040000Y-113605000D02*
X166370000Y-113605000D01*
X165040000Y-114935000D02*
X165040000Y-113605000D01*
X165040000Y-116205000D02*
X167700000Y-116205000D01*
X167700000Y-116205000D02*
X167700000Y-134045000D01*
X165040000Y-116205000D02*
X165040000Y-134045000D01*
X165040000Y-134045000D02*
X167700000Y-134045000D01*
X165040000Y-57725000D02*
X166370000Y-57725000D01*
X165040000Y-59055000D02*
X165040000Y-57725000D01*
X165040000Y-60325000D02*
X167700000Y-60325000D01*
X167700000Y-60325000D02*
X167700000Y-78165000D01*
X165040000Y-60325000D02*
X165040000Y-78165000D01*
X165040000Y-78165000D02*
X167700000Y-78165000D01*
D11*
X150368000Y-110363000D02*
X139192000Y-110363000D01*
X150368000Y-133477000D02*
X150368000Y-110363000D01*
X139192000Y-133477000D02*
X150368000Y-133477000D01*
X139192000Y-110363000D02*
X139192000Y-133477000D01*
X125222000Y-110363000D02*
X125222000Y-133477000D01*
X125222000Y-133477000D02*
X136398000Y-133477000D01*
X136398000Y-133477000D02*
X136398000Y-110363000D01*
X136398000Y-110363000D02*
X125222000Y-110363000D01*
X122428000Y-110363000D02*
X111252000Y-110363000D01*
X122428000Y-133477000D02*
X122428000Y-110363000D01*
X111252000Y-133477000D02*
X122428000Y-133477000D01*
X111252000Y-110363000D02*
X111252000Y-133477000D01*
X52578000Y-110363000D02*
X41402000Y-110363000D01*
X52578000Y-133477000D02*
X52578000Y-110363000D01*
X41402000Y-133477000D02*
X52578000Y-133477000D01*
X41402000Y-110363000D02*
X41402000Y-133477000D01*
X55372000Y-110363000D02*
X55372000Y-133477000D01*
X55372000Y-133477000D02*
X66548000Y-133477000D01*
X66548000Y-133477000D02*
X66548000Y-110363000D01*
X66548000Y-110363000D02*
X55372000Y-110363000D01*
X80518000Y-110363000D02*
X69342000Y-110363000D01*
X80518000Y-133477000D02*
X80518000Y-110363000D01*
X69342000Y-133477000D02*
X80518000Y-133477000D01*
X69342000Y-110363000D02*
X69342000Y-133477000D01*
X83312000Y-110363000D02*
X83312000Y-133477000D01*
X83312000Y-133477000D02*
X94488000Y-133477000D01*
X94488000Y-133477000D02*
X94488000Y-110363000D01*
X94488000Y-110363000D02*
X83312000Y-110363000D01*
X154528000Y-57691000D02*
X161894000Y-57691000D01*
X154528000Y-64803000D02*
X154528000Y-57691000D01*
X161894000Y-64803000D02*
X154528000Y-64803000D01*
X161894000Y-57691000D02*
X161894000Y-64803000D01*
D12*
X159625214Y-61229787D02*
G75*
G03X159625214Y-61229787I-1414214J0D01*
G01*
X159529214Y-130411787D02*
G75*
G03X159529214Y-130411787I-1414214J0D01*
G01*
D11*
X161798000Y-126873000D02*
X161798000Y-133985000D01*
X161798000Y-133985000D02*
X154432000Y-133985000D01*
X154432000Y-133985000D02*
X154432000Y-126873000D01*
X154432000Y-126873000D02*
X161798000Y-126873000D01*
D12*
X28515000Y-90865000D02*
X31175000Y-90865000D01*
X28515000Y-60325000D02*
X28515000Y-90865000D01*
X31175000Y-60325000D02*
X31175000Y-90865000D01*
X28515000Y-60325000D02*
X31175000Y-60325000D01*
X28515000Y-59055000D02*
X28515000Y-57725000D01*
X28515000Y-57725000D02*
X29845000Y-57725000D01*
X28515000Y-134045000D02*
X31175000Y-134045000D01*
X28515000Y-95885000D02*
X28515000Y-134045000D01*
X31175000Y-95885000D02*
X31175000Y-134045000D01*
X28515000Y-95885000D02*
X31175000Y-95885000D01*
X28515000Y-94615000D02*
X28515000Y-93285000D01*
X28515000Y-93285000D02*
X29845000Y-93285000D01*
X75770000Y-70485000D02*
X75770000Y-72185000D01*
X75770000Y-72185000D02*
X77470000Y-72185000D01*
X101740000Y-61455000D02*
X101740000Y-71895000D01*
X101740000Y-71895000D02*
X76060000Y-71895000D01*
X76060000Y-71895000D02*
X76060000Y-61455000D01*
X76060000Y-61455000D02*
X101740000Y-61455000D01*
X156825000Y-68940000D02*
X156825000Y-72030000D01*
X161885000Y-70485000D02*
G75*
G03X161885000Y-70485000I-2500000J0D01*
G01*
X162375000Y-70484538D02*
G75*
G02X156825000Y-72029830I-2990000J-462D01*
G01*
X162375000Y-70485462D02*
G75*
G03X156825000Y-68940170I-2990000J462D01*
G01*
X163010000Y-121285462D02*
G75*
G03X157460000Y-119740170I-2990000J462D01*
G01*
X163010000Y-121284538D02*
G75*
G02X157460000Y-122829830I-2990000J-462D01*
G01*
X162520000Y-121285000D02*
G75*
G03X162520000Y-121285000I-2500000J0D01*
G01*
X157460000Y-119740000D02*
X157460000Y-122830000D01*
X48370000Y-57725000D02*
X46720000Y-57725000D01*
X48370000Y-75625000D02*
X48370000Y-57725000D01*
X43070000Y-75625000D02*
X48370000Y-75625000D01*
X43070000Y-57725000D02*
X43070000Y-75625000D01*
X44720000Y-57725000D02*
X43070000Y-57725000D01*
X46720000Y-57725000D02*
G75*
G02X44720000Y-57725000I-1000000J0D01*
G01*
X46720000Y-83760000D02*
G75*
G02X44720000Y-83760000I-1000000J0D01*
G01*
X44720000Y-83760000D02*
X43070000Y-83760000D01*
X43070000Y-83760000D02*
X43070000Y-101660000D01*
X43070000Y-101660000D02*
X48370000Y-101660000D01*
X48370000Y-101660000D02*
X48370000Y-83760000D01*
X48370000Y-83760000D02*
X46720000Y-83760000D01*
X62340000Y-57725000D02*
X60690000Y-57725000D01*
X62340000Y-75625000D02*
X62340000Y-57725000D01*
X57040000Y-75625000D02*
X62340000Y-75625000D01*
X57040000Y-57725000D02*
X57040000Y-75625000D01*
X58690000Y-57725000D02*
X57040000Y-57725000D01*
X60690000Y-57725000D02*
G75*
G02X58690000Y-57725000I-1000000J0D01*
G01*
X60690000Y-83760000D02*
G75*
G02X58690000Y-83760000I-1000000J0D01*
G01*
X58690000Y-83760000D02*
X57040000Y-83760000D01*
X57040000Y-83760000D02*
X57040000Y-101660000D01*
X57040000Y-101660000D02*
X62340000Y-101660000D01*
X62340000Y-101660000D02*
X62340000Y-83760000D01*
X62340000Y-83760000D02*
X60690000Y-83760000D01*
X74660000Y-76140000D02*
G75*
G02X72660000Y-76140000I-1000000J0D01*
G01*
X72660000Y-76140000D02*
X71010000Y-76140000D01*
X71010000Y-76140000D02*
X71010000Y-101660000D01*
X71010000Y-101660000D02*
X76310000Y-101660000D01*
X76310000Y-101660000D02*
X76310000Y-76140000D01*
X76310000Y-76140000D02*
X74660000Y-76140000D01*
X90280000Y-76140000D02*
X88630000Y-76140000D01*
X90280000Y-101660000D02*
X90280000Y-76140000D01*
X84980000Y-101660000D02*
X90280000Y-101660000D01*
X84980000Y-76140000D02*
X84980000Y-101660000D01*
X86630000Y-76140000D02*
X84980000Y-76140000D01*
X88630000Y-76140000D02*
G75*
G02X86630000Y-76140000I-1000000J0D01*
G01*
X102600000Y-76140000D02*
G75*
G02X100600000Y-76140000I-1000000J0D01*
G01*
X100600000Y-76140000D02*
X98950000Y-76140000D01*
X98950000Y-76140000D02*
X98950000Y-101660000D01*
X98950000Y-101660000D02*
X104250000Y-101660000D01*
X104250000Y-101660000D02*
X104250000Y-76140000D01*
X104250000Y-76140000D02*
X102600000Y-76140000D01*
X101770000Y-60455000D02*
X101770000Y-57655000D01*
X101770000Y-57655000D02*
X78570000Y-57655000D01*
X78570000Y-57655000D02*
X78570000Y-60455000D01*
X78570000Y-60455000D02*
X101770000Y-60455000D01*
X99060000Y-60455000D02*
X99060000Y-57655000D01*
X160750000Y-116940000D02*
X160750000Y-116610000D01*
X154210000Y-116940000D02*
X160750000Y-116940000D01*
X154210000Y-116610000D02*
X154210000Y-116940000D01*
X160750000Y-114200000D02*
X160750000Y-114530000D01*
X154210000Y-114200000D02*
X160750000Y-114200000D01*
X154210000Y-114530000D02*
X154210000Y-114200000D01*
X154210000Y-75160000D02*
X154210000Y-74830000D01*
X154210000Y-74830000D02*
X160750000Y-74830000D01*
X160750000Y-74830000D02*
X160750000Y-75160000D01*
X154210000Y-77240000D02*
X154210000Y-77570000D01*
X154210000Y-77570000D02*
X160750000Y-77570000D01*
X160750000Y-77570000D02*
X160750000Y-77240000D01*
D11*
X138303095Y-82002380D02*
X138303095Y-82811904D01*
X138350714Y-82907142D01*
X138398333Y-82954761D01*
X138493571Y-83002380D01*
X138684047Y-83002380D01*
X138779285Y-82954761D01*
X138826904Y-82907142D01*
X138874523Y-82811904D01*
X138874523Y-82002380D01*
X139779285Y-82002380D02*
X139588809Y-82002380D01*
X139493571Y-82050000D01*
X139445952Y-82097619D01*
X139350714Y-82240476D01*
X139303095Y-82430952D01*
X139303095Y-82811904D01*
X139350714Y-82907142D01*
X139398333Y-82954761D01*
X139493571Y-83002380D01*
X139684047Y-83002380D01*
X139779285Y-82954761D01*
X139826904Y-82907142D01*
X139874523Y-82811904D01*
X139874523Y-82573809D01*
X139826904Y-82478571D01*
X139779285Y-82430952D01*
X139684047Y-82383333D01*
X139493571Y-82383333D01*
X139398333Y-82430952D01*
X139350714Y-82478571D01*
X139303095Y-82573809D01*
X151312619Y-106195476D02*
X151265000Y-106147857D01*
X151217380Y-106052619D01*
X151217380Y-105814523D01*
X151265000Y-105719285D01*
X151312619Y-105671666D01*
X151407857Y-105624047D01*
X151503095Y-105624047D01*
X151645952Y-105671666D01*
X152217380Y-106243095D01*
X152217380Y-105624047D01*
X151217380Y-105290714D02*
X151217380Y-104624047D01*
X152217380Y-105052619D01*
X152122142Y-103671666D02*
X152169761Y-103719285D01*
X152217380Y-103862142D01*
X152217380Y-103957380D01*
X152169761Y-104100238D01*
X152074523Y-104195476D01*
X151979285Y-104243095D01*
X151788809Y-104290714D01*
X151645952Y-104290714D01*
X151455476Y-104243095D01*
X151360238Y-104195476D01*
X151265000Y-104100238D01*
X151217380Y-103957380D01*
X151217380Y-103862142D01*
X151265000Y-103719285D01*
X151312619Y-103671666D01*
X151217380Y-102766904D02*
X151217380Y-103243095D01*
X151693571Y-103290714D01*
X151645952Y-103243095D01*
X151598333Y-103147857D01*
X151598333Y-102909761D01*
X151645952Y-102814523D01*
X151693571Y-102766904D01*
X151788809Y-102719285D01*
X152026904Y-102719285D01*
X152122142Y-102766904D01*
X152169761Y-102814523D01*
X152217380Y-102909761D01*
X152217380Y-103147857D01*
X152169761Y-103243095D01*
X152122142Y-103290714D01*
X152217380Y-101766904D02*
X152217380Y-102338333D01*
X152217380Y-102052619D02*
X151217380Y-102052619D01*
X151360238Y-102147857D01*
X151455476Y-102243095D01*
X151503095Y-102338333D01*
X151312619Y-101385952D02*
X151265000Y-101338333D01*
X151217380Y-101243095D01*
X151217380Y-101005000D01*
X151265000Y-100909761D01*
X151312619Y-100862142D01*
X151407857Y-100814523D01*
X151503095Y-100814523D01*
X151645952Y-100862142D01*
X152217380Y-101433571D01*
X152217380Y-100814523D01*
X114808095Y-80732380D02*
X114808095Y-81541904D01*
X114855714Y-81637142D01*
X114903333Y-81684761D01*
X114998571Y-81732380D01*
X115189047Y-81732380D01*
X115284285Y-81684761D01*
X115331904Y-81637142D01*
X115379523Y-81541904D01*
X115379523Y-80732380D01*
X116331904Y-80732380D02*
X115855714Y-80732380D01*
X115808095Y-81208571D01*
X115855714Y-81160952D01*
X115950952Y-81113333D01*
X116189047Y-81113333D01*
X116284285Y-81160952D01*
X116331904Y-81208571D01*
X116379523Y-81303809D01*
X116379523Y-81541904D01*
X116331904Y-81637142D01*
X116284285Y-81684761D01*
X116189047Y-81732380D01*
X115950952Y-81732380D01*
X115855714Y-81684761D01*
X115808095Y-81637142D01*
X109831904Y-102172380D02*
X109831904Y-102981904D01*
X109879523Y-103077142D01*
X109927142Y-103124761D01*
X110022380Y-103172380D01*
X110212857Y-103172380D01*
X110308095Y-103124761D01*
X110355714Y-103077142D01*
X110403333Y-102981904D01*
X110403333Y-102172380D01*
X110879523Y-103172380D02*
X110879523Y-102172380D01*
X111212857Y-102886666D01*
X111546190Y-102172380D01*
X111546190Y-103172380D01*
X112450952Y-102172380D02*
X112260476Y-102172380D01*
X112165238Y-102220000D01*
X112117619Y-102267619D01*
X112022380Y-102410476D01*
X111974761Y-102600952D01*
X111974761Y-102981904D01*
X112022380Y-103077142D01*
X112070000Y-103124761D01*
X112165238Y-103172380D01*
X112355714Y-103172380D01*
X112450952Y-103124761D01*
X112498571Y-103077142D01*
X112546190Y-102981904D01*
X112546190Y-102743809D01*
X112498571Y-102648571D01*
X112450952Y-102600952D01*
X112355714Y-102553333D01*
X112165238Y-102553333D01*
X112070000Y-102600952D01*
X112022380Y-102648571D01*
X111974761Y-102743809D01*
X113498571Y-103172380D02*
X112927142Y-103172380D01*
X113212857Y-103172380D02*
X113212857Y-102172380D01*
X113117619Y-102315238D01*
X113022380Y-102410476D01*
X112927142Y-102458095D01*
X114403333Y-102172380D02*
X113927142Y-102172380D01*
X113879523Y-102648571D01*
X113927142Y-102600952D01*
X114022380Y-102553333D01*
X114260476Y-102553333D01*
X114355714Y-102600952D01*
X114403333Y-102648571D01*
X114450952Y-102743809D01*
X114450952Y-102981904D01*
X114403333Y-103077142D01*
X114355714Y-103124761D01*
X114260476Y-103172380D01*
X114022380Y-103172380D01*
X113927142Y-103124761D01*
X113879523Y-103077142D01*
X115403333Y-103172380D02*
X114831904Y-103172380D01*
X115117619Y-103172380D02*
X115117619Y-102172380D01*
X115022380Y-102315238D01*
X114927142Y-102410476D01*
X114831904Y-102458095D01*
X115784285Y-102267619D02*
X115831904Y-102220000D01*
X115927142Y-102172380D01*
X116165238Y-102172380D01*
X116260476Y-102220000D01*
X116308095Y-102267619D01*
X116355714Y-102362857D01*
X116355714Y-102458095D01*
X116308095Y-102600952D01*
X115736666Y-103172380D01*
X116355714Y-103172380D01*
X116736666Y-102886666D02*
X117212857Y-102886666D01*
X116641428Y-103172380D02*
X116974761Y-102172380D01*
X117308095Y-103172380D01*
X117641428Y-103172380D02*
X117641428Y-102172380D01*
X118212857Y-103172380D02*
X117784285Y-102600952D01*
X118212857Y-102172380D02*
X117641428Y-102743809D01*
X118641428Y-102791428D02*
X119403333Y-102791428D01*
X120403333Y-103172380D02*
X119831904Y-103172380D01*
X120117619Y-103172380D02*
X120117619Y-102172380D01*
X120022380Y-102315238D01*
X119927142Y-102410476D01*
X119831904Y-102458095D01*
X121308095Y-102172380D02*
X120831904Y-102172380D01*
X120784285Y-102648571D01*
X120831904Y-102600952D01*
X120927142Y-102553333D01*
X121165238Y-102553333D01*
X121260476Y-102600952D01*
X121308095Y-102648571D01*
X121355714Y-102743809D01*
X121355714Y-102981904D01*
X121308095Y-103077142D01*
X121260476Y-103124761D01*
X121165238Y-103172380D01*
X120927142Y-103172380D01*
X120831904Y-103124761D01*
X120784285Y-103077142D01*
X101790666Y-115847761D02*
X101933523Y-115895380D01*
X102171619Y-115895380D01*
X102266857Y-115847761D01*
X102314476Y-115800142D01*
X102362095Y-115704904D01*
X102362095Y-115609666D01*
X102314476Y-115514428D01*
X102266857Y-115466809D01*
X102171619Y-115419190D01*
X101981142Y-115371571D01*
X101885904Y-115323952D01*
X101838285Y-115276333D01*
X101790666Y-115181095D01*
X101790666Y-115085857D01*
X101838285Y-114990619D01*
X101885904Y-114943000D01*
X101981142Y-114895380D01*
X102219238Y-114895380D01*
X102362095Y-114943000D01*
X102695428Y-114895380D02*
X102933523Y-115895380D01*
X103124000Y-115181095D01*
X103314476Y-115895380D01*
X103552571Y-114895380D01*
X104362095Y-115228714D02*
X104362095Y-115895380D01*
X104124000Y-114847761D02*
X103885904Y-115562047D01*
X104504952Y-115562047D01*
X166036666Y-112057380D02*
X166036666Y-112771666D01*
X165989047Y-112914523D01*
X165893809Y-113009761D01*
X165750952Y-113057380D01*
X165655714Y-113057380D01*
X166941428Y-112390714D02*
X166941428Y-113057380D01*
X166703333Y-112009761D02*
X166465238Y-112724047D01*
X167084285Y-112724047D01*
X166036666Y-56177380D02*
X166036666Y-56891666D01*
X165989047Y-57034523D01*
X165893809Y-57129761D01*
X165750952Y-57177380D01*
X165655714Y-57177380D01*
X166417619Y-56177380D02*
X167036666Y-56177380D01*
X166703333Y-56558333D01*
X166846190Y-56558333D01*
X166941428Y-56605952D01*
X166989047Y-56653571D01*
X167036666Y-56748809D01*
X167036666Y-56986904D01*
X166989047Y-57082142D01*
X166941428Y-57129761D01*
X166846190Y-57177380D01*
X166560476Y-57177380D01*
X166465238Y-57129761D01*
X166417619Y-57082142D01*
X143700666Y-115847761D02*
X143843523Y-115895380D01*
X144081619Y-115895380D01*
X144176857Y-115847761D01*
X144224476Y-115800142D01*
X144272095Y-115704904D01*
X144272095Y-115609666D01*
X144224476Y-115514428D01*
X144176857Y-115466809D01*
X144081619Y-115419190D01*
X143891142Y-115371571D01*
X143795904Y-115323952D01*
X143748285Y-115276333D01*
X143700666Y-115181095D01*
X143700666Y-115085857D01*
X143748285Y-114990619D01*
X143795904Y-114943000D01*
X143891142Y-114895380D01*
X144129238Y-114895380D01*
X144272095Y-114943000D01*
X144605428Y-114895380D02*
X144843523Y-115895380D01*
X145034000Y-115181095D01*
X145224476Y-115895380D01*
X145462571Y-114895380D01*
X146367333Y-115895380D02*
X145795904Y-115895380D01*
X146081619Y-115895380D02*
X146081619Y-114895380D01*
X145986380Y-115038238D01*
X145891142Y-115133476D01*
X145795904Y-115181095D01*
X129730666Y-115847761D02*
X129873523Y-115895380D01*
X130111619Y-115895380D01*
X130206857Y-115847761D01*
X130254476Y-115800142D01*
X130302095Y-115704904D01*
X130302095Y-115609666D01*
X130254476Y-115514428D01*
X130206857Y-115466809D01*
X130111619Y-115419190D01*
X129921142Y-115371571D01*
X129825904Y-115323952D01*
X129778285Y-115276333D01*
X129730666Y-115181095D01*
X129730666Y-115085857D01*
X129778285Y-114990619D01*
X129825904Y-114943000D01*
X129921142Y-114895380D01*
X130159238Y-114895380D01*
X130302095Y-114943000D01*
X130635428Y-114895380D02*
X130873523Y-115895380D01*
X131064000Y-115181095D01*
X131254476Y-115895380D01*
X131492571Y-114895380D01*
X131825904Y-114990619D02*
X131873523Y-114943000D01*
X131968761Y-114895380D01*
X132206857Y-114895380D01*
X132302095Y-114943000D01*
X132349714Y-114990619D01*
X132397333Y-115085857D01*
X132397333Y-115181095D01*
X132349714Y-115323952D01*
X131778285Y-115895380D01*
X132397333Y-115895380D01*
X115760666Y-115847761D02*
X115903523Y-115895380D01*
X116141619Y-115895380D01*
X116236857Y-115847761D01*
X116284476Y-115800142D01*
X116332095Y-115704904D01*
X116332095Y-115609666D01*
X116284476Y-115514428D01*
X116236857Y-115466809D01*
X116141619Y-115419190D01*
X115951142Y-115371571D01*
X115855904Y-115323952D01*
X115808285Y-115276333D01*
X115760666Y-115181095D01*
X115760666Y-115085857D01*
X115808285Y-114990619D01*
X115855904Y-114943000D01*
X115951142Y-114895380D01*
X116189238Y-114895380D01*
X116332095Y-114943000D01*
X116665428Y-114895380D02*
X116903523Y-115895380D01*
X117094000Y-115181095D01*
X117284476Y-115895380D01*
X117522571Y-114895380D01*
X117808285Y-114895380D02*
X118427333Y-114895380D01*
X118094000Y-115276333D01*
X118236857Y-115276333D01*
X118332095Y-115323952D01*
X118379714Y-115371571D01*
X118427333Y-115466809D01*
X118427333Y-115704904D01*
X118379714Y-115800142D01*
X118332095Y-115847761D01*
X118236857Y-115895380D01*
X117951142Y-115895380D01*
X117855904Y-115847761D01*
X117808285Y-115800142D01*
X45910666Y-115847761D02*
X46053523Y-115895380D01*
X46291619Y-115895380D01*
X46386857Y-115847761D01*
X46434476Y-115800142D01*
X46482095Y-115704904D01*
X46482095Y-115609666D01*
X46434476Y-115514428D01*
X46386857Y-115466809D01*
X46291619Y-115419190D01*
X46101142Y-115371571D01*
X46005904Y-115323952D01*
X45958285Y-115276333D01*
X45910666Y-115181095D01*
X45910666Y-115085857D01*
X45958285Y-114990619D01*
X46005904Y-114943000D01*
X46101142Y-114895380D01*
X46339238Y-114895380D01*
X46482095Y-114943000D01*
X46815428Y-114895380D02*
X47053523Y-115895380D01*
X47244000Y-115181095D01*
X47434476Y-115895380D01*
X47672571Y-114895380D01*
X48196380Y-115323952D02*
X48101142Y-115276333D01*
X48053523Y-115228714D01*
X48005904Y-115133476D01*
X48005904Y-115085857D01*
X48053523Y-114990619D01*
X48101142Y-114943000D01*
X48196380Y-114895380D01*
X48386857Y-114895380D01*
X48482095Y-114943000D01*
X48529714Y-114990619D01*
X48577333Y-115085857D01*
X48577333Y-115133476D01*
X48529714Y-115228714D01*
X48482095Y-115276333D01*
X48386857Y-115323952D01*
X48196380Y-115323952D01*
X48101142Y-115371571D01*
X48053523Y-115419190D01*
X48005904Y-115514428D01*
X48005904Y-115704904D01*
X48053523Y-115800142D01*
X48101142Y-115847761D01*
X48196380Y-115895380D01*
X48386857Y-115895380D01*
X48482095Y-115847761D01*
X48529714Y-115800142D01*
X48577333Y-115704904D01*
X48577333Y-115514428D01*
X48529714Y-115419190D01*
X48482095Y-115371571D01*
X48386857Y-115323952D01*
X59880666Y-115847761D02*
X60023523Y-115895380D01*
X60261619Y-115895380D01*
X60356857Y-115847761D01*
X60404476Y-115800142D01*
X60452095Y-115704904D01*
X60452095Y-115609666D01*
X60404476Y-115514428D01*
X60356857Y-115466809D01*
X60261619Y-115419190D01*
X60071142Y-115371571D01*
X59975904Y-115323952D01*
X59928285Y-115276333D01*
X59880666Y-115181095D01*
X59880666Y-115085857D01*
X59928285Y-114990619D01*
X59975904Y-114943000D01*
X60071142Y-114895380D01*
X60309238Y-114895380D01*
X60452095Y-114943000D01*
X60785428Y-114895380D02*
X61023523Y-115895380D01*
X61214000Y-115181095D01*
X61404476Y-115895380D01*
X61642571Y-114895380D01*
X61928285Y-114895380D02*
X62594952Y-114895380D01*
X62166380Y-115895380D01*
X73850666Y-115847761D02*
X73993523Y-115895380D01*
X74231619Y-115895380D01*
X74326857Y-115847761D01*
X74374476Y-115800142D01*
X74422095Y-115704904D01*
X74422095Y-115609666D01*
X74374476Y-115514428D01*
X74326857Y-115466809D01*
X74231619Y-115419190D01*
X74041142Y-115371571D01*
X73945904Y-115323952D01*
X73898285Y-115276333D01*
X73850666Y-115181095D01*
X73850666Y-115085857D01*
X73898285Y-114990619D01*
X73945904Y-114943000D01*
X74041142Y-114895380D01*
X74279238Y-114895380D01*
X74422095Y-114943000D01*
X74755428Y-114895380D02*
X74993523Y-115895380D01*
X75184000Y-115181095D01*
X75374476Y-115895380D01*
X75612571Y-114895380D01*
X76422095Y-114895380D02*
X76231619Y-114895380D01*
X76136380Y-114943000D01*
X76088761Y-114990619D01*
X75993523Y-115133476D01*
X75945904Y-115323952D01*
X75945904Y-115704904D01*
X75993523Y-115800142D01*
X76041142Y-115847761D01*
X76136380Y-115895380D01*
X76326857Y-115895380D01*
X76422095Y-115847761D01*
X76469714Y-115800142D01*
X76517333Y-115704904D01*
X76517333Y-115466809D01*
X76469714Y-115371571D01*
X76422095Y-115323952D01*
X76326857Y-115276333D01*
X76136380Y-115276333D01*
X76041142Y-115323952D01*
X75993523Y-115371571D01*
X75945904Y-115466809D01*
X87820666Y-115847761D02*
X87963523Y-115895380D01*
X88201619Y-115895380D01*
X88296857Y-115847761D01*
X88344476Y-115800142D01*
X88392095Y-115704904D01*
X88392095Y-115609666D01*
X88344476Y-115514428D01*
X88296857Y-115466809D01*
X88201619Y-115419190D01*
X88011142Y-115371571D01*
X87915904Y-115323952D01*
X87868285Y-115276333D01*
X87820666Y-115181095D01*
X87820666Y-115085857D01*
X87868285Y-114990619D01*
X87915904Y-114943000D01*
X88011142Y-114895380D01*
X88249238Y-114895380D01*
X88392095Y-114943000D01*
X88725428Y-114895380D02*
X88963523Y-115895380D01*
X89154000Y-115181095D01*
X89344476Y-115895380D01*
X89582571Y-114895380D01*
X90439714Y-114895380D02*
X89963523Y-114895380D01*
X89915904Y-115371571D01*
X89963523Y-115323952D01*
X90058761Y-115276333D01*
X90296857Y-115276333D01*
X90392095Y-115323952D01*
X90439714Y-115371571D01*
X90487333Y-115466809D01*
X90487333Y-115704904D01*
X90439714Y-115800142D01*
X90392095Y-115847761D01*
X90296857Y-115895380D01*
X90058761Y-115895380D01*
X89963523Y-115847761D01*
X89915904Y-115800142D01*
X163060761Y-63056523D02*
X163108380Y-62913666D01*
X163108380Y-62675571D01*
X163060761Y-62580333D01*
X163013142Y-62532714D01*
X162917904Y-62485095D01*
X162822666Y-62485095D01*
X162727428Y-62532714D01*
X162679809Y-62580333D01*
X162632190Y-62675571D01*
X162584571Y-62866047D01*
X162536952Y-62961285D01*
X162489333Y-63008904D01*
X162394095Y-63056523D01*
X162298857Y-63056523D01*
X162203619Y-63008904D01*
X162156000Y-62961285D01*
X162108380Y-62866047D01*
X162108380Y-62627952D01*
X162156000Y-62485095D01*
X162108380Y-62151761D02*
X163108380Y-61913666D01*
X162394095Y-61723190D01*
X163108380Y-61532714D01*
X162108380Y-61294619D01*
X163108380Y-60389857D02*
X163108380Y-60961285D01*
X163108380Y-60675571D02*
X162108380Y-60675571D01*
X162251238Y-60770809D01*
X162346476Y-60866047D01*
X162394095Y-60961285D01*
X162108380Y-59770809D02*
X162108380Y-59675571D01*
X162156000Y-59580333D01*
X162203619Y-59532714D01*
X162298857Y-59485095D01*
X162489333Y-59437476D01*
X162727428Y-59437476D01*
X162917904Y-59485095D01*
X163013142Y-59532714D01*
X163060761Y-59580333D01*
X163108380Y-59675571D01*
X163108380Y-59770809D01*
X163060761Y-59866047D01*
X163013142Y-59913666D01*
X162917904Y-59961285D01*
X162727428Y-60008904D01*
X162489333Y-60008904D01*
X162298857Y-59961285D01*
X162203619Y-59913666D01*
X162156000Y-59866047D01*
X162108380Y-59770809D01*
X162964761Y-131762333D02*
X163012380Y-131619476D01*
X163012380Y-131381380D01*
X162964761Y-131286142D01*
X162917142Y-131238523D01*
X162821904Y-131190904D01*
X162726666Y-131190904D01*
X162631428Y-131238523D01*
X162583809Y-131286142D01*
X162536190Y-131381380D01*
X162488571Y-131571857D01*
X162440952Y-131667095D01*
X162393333Y-131714714D01*
X162298095Y-131762333D01*
X162202857Y-131762333D01*
X162107619Y-131714714D01*
X162060000Y-131667095D01*
X162012380Y-131571857D01*
X162012380Y-131333761D01*
X162060000Y-131190904D01*
X162012380Y-130857571D02*
X163012380Y-130619476D01*
X162298095Y-130429000D01*
X163012380Y-130238523D01*
X162012380Y-130000428D01*
X163012380Y-129571857D02*
X163012380Y-129381380D01*
X162964761Y-129286142D01*
X162917142Y-129238523D01*
X162774285Y-129143285D01*
X162583809Y-129095666D01*
X162202857Y-129095666D01*
X162107619Y-129143285D01*
X162060000Y-129190904D01*
X162012380Y-129286142D01*
X162012380Y-129476619D01*
X162060000Y-129571857D01*
X162107619Y-129619476D01*
X162202857Y-129667095D01*
X162440952Y-129667095D01*
X162536190Y-129619476D01*
X162583809Y-129571857D01*
X162631428Y-129476619D01*
X162631428Y-129286142D01*
X162583809Y-129190904D01*
X162536190Y-129143285D01*
X162440952Y-129095666D01*
X29511666Y-56177380D02*
X29511666Y-56891666D01*
X29464047Y-57034523D01*
X29368809Y-57129761D01*
X29225952Y-57177380D01*
X29130714Y-57177380D01*
X30511666Y-57177380D02*
X29940238Y-57177380D01*
X30225952Y-57177380D02*
X30225952Y-56177380D01*
X30130714Y-56320238D01*
X30035476Y-56415476D01*
X29940238Y-56463095D01*
X29511666Y-91737380D02*
X29511666Y-92451666D01*
X29464047Y-92594523D01*
X29368809Y-92689761D01*
X29225952Y-92737380D01*
X29130714Y-92737380D01*
X29940238Y-91832619D02*
X29987857Y-91785000D01*
X30083095Y-91737380D01*
X30321190Y-91737380D01*
X30416428Y-91785000D01*
X30464047Y-91832619D01*
X30511666Y-91927857D01*
X30511666Y-92023095D01*
X30464047Y-92165952D01*
X29892619Y-92737380D01*
X30511666Y-92737380D01*
X89463571Y-68008333D02*
X89511190Y-67865476D01*
X89558809Y-67817857D01*
X89654047Y-67770238D01*
X89796904Y-67770238D01*
X89892142Y-67817857D01*
X89939761Y-67865476D01*
X89987380Y-67960714D01*
X89987380Y-68341666D01*
X88987380Y-68341666D01*
X88987380Y-68008333D01*
X89035000Y-67913095D01*
X89082619Y-67865476D01*
X89177857Y-67817857D01*
X89273095Y-67817857D01*
X89368333Y-67865476D01*
X89415952Y-67913095D01*
X89463571Y-68008333D01*
X89463571Y-68341666D01*
X89701666Y-67389285D02*
X89701666Y-66913095D01*
X89987380Y-67484523D02*
X88987380Y-67151190D01*
X89987380Y-66817857D01*
X89987380Y-65913095D02*
X89511190Y-66246428D01*
X89987380Y-66484523D02*
X88987380Y-66484523D01*
X88987380Y-66103571D01*
X89035000Y-66008333D01*
X89082619Y-65960714D01*
X89177857Y-65913095D01*
X89320714Y-65913095D01*
X89415952Y-65960714D01*
X89463571Y-66008333D01*
X89511190Y-66103571D01*
X89511190Y-66484523D01*
X89987380Y-64960714D02*
X89987380Y-65532142D01*
X89987380Y-65246428D02*
X88987380Y-65246428D01*
X89130238Y-65341666D01*
X89225476Y-65436904D01*
X89273095Y-65532142D01*
X163012380Y-68048095D02*
X162012380Y-68048095D01*
X162012380Y-67810000D01*
X162060000Y-67667142D01*
X162155238Y-67571904D01*
X162250476Y-67524285D01*
X162440952Y-67476666D01*
X162583809Y-67476666D01*
X162774285Y-67524285D01*
X162869523Y-67571904D01*
X162964761Y-67667142D01*
X163012380Y-67810000D01*
X163012380Y-68048095D01*
X162107619Y-67095714D02*
X162060000Y-67048095D01*
X162012380Y-66952857D01*
X162012380Y-66714761D01*
X162060000Y-66619523D01*
X162107619Y-66571904D01*
X162202857Y-66524285D01*
X162298095Y-66524285D01*
X162440952Y-66571904D01*
X163012380Y-67143333D01*
X163012380Y-66524285D01*
X163647380Y-118848095D02*
X162647380Y-118848095D01*
X162647380Y-118610000D01*
X162695000Y-118467142D01*
X162790238Y-118371904D01*
X162885476Y-118324285D01*
X163075952Y-118276666D01*
X163218809Y-118276666D01*
X163409285Y-118324285D01*
X163504523Y-118371904D01*
X163599761Y-118467142D01*
X163647380Y-118610000D01*
X163647380Y-118848095D01*
X163647380Y-117324285D02*
X163647380Y-117895714D01*
X163647380Y-117610000D02*
X162647380Y-117610000D01*
X162790238Y-117705238D01*
X162885476Y-117800476D01*
X162933095Y-117895714D01*
X44958095Y-66127380D02*
X44958095Y-66936904D01*
X45005714Y-67032142D01*
X45053333Y-67079761D01*
X45148571Y-67127380D01*
X45339047Y-67127380D01*
X45434285Y-67079761D01*
X45481904Y-67032142D01*
X45529523Y-66936904D01*
X45529523Y-66127380D01*
X46529523Y-67127380D02*
X45958095Y-67127380D01*
X46243809Y-67127380D02*
X46243809Y-66127380D01*
X46148571Y-66270238D01*
X46053333Y-66365476D01*
X45958095Y-66413095D01*
X43553333Y-76077380D02*
X44220000Y-76077380D01*
X43791428Y-77077380D01*
X45029523Y-76410714D02*
X45029523Y-77077380D01*
X44791428Y-76029761D02*
X44553333Y-76744047D01*
X45172380Y-76744047D01*
X45458095Y-77077380D02*
X45981904Y-76410714D01*
X45458095Y-76410714D02*
X45981904Y-77077380D01*
X46553333Y-76077380D02*
X46648571Y-76077380D01*
X46743809Y-76125000D01*
X46791428Y-76172619D01*
X46839047Y-76267857D01*
X46886666Y-76458333D01*
X46886666Y-76696428D01*
X46839047Y-76886904D01*
X46791428Y-76982142D01*
X46743809Y-77029761D01*
X46648571Y-77077380D01*
X46553333Y-77077380D01*
X46458095Y-77029761D01*
X46410476Y-76982142D01*
X46362857Y-76886904D01*
X46315238Y-76696428D01*
X46315238Y-76458333D01*
X46362857Y-76267857D01*
X46410476Y-76172619D01*
X46458095Y-76125000D01*
X46553333Y-76077380D01*
X47743809Y-76410714D02*
X47743809Y-77077380D01*
X47505714Y-76029761D02*
X47267619Y-76744047D01*
X47886666Y-76744047D01*
X44958095Y-92162380D02*
X44958095Y-92971904D01*
X45005714Y-93067142D01*
X45053333Y-93114761D01*
X45148571Y-93162380D01*
X45339047Y-93162380D01*
X45434285Y-93114761D01*
X45481904Y-93067142D01*
X45529523Y-92971904D01*
X45529523Y-92162380D01*
X45958095Y-92257619D02*
X46005714Y-92210000D01*
X46100952Y-92162380D01*
X46339047Y-92162380D01*
X46434285Y-92210000D01*
X46481904Y-92257619D01*
X46529523Y-92352857D01*
X46529523Y-92448095D01*
X46481904Y-92590952D01*
X45910476Y-93162380D01*
X46529523Y-93162380D01*
X43553333Y-102112380D02*
X44220000Y-102112380D01*
X43791428Y-103112380D01*
X45029523Y-102445714D02*
X45029523Y-103112380D01*
X44791428Y-102064761D02*
X44553333Y-102779047D01*
X45172380Y-102779047D01*
X45458095Y-103112380D02*
X45981904Y-102445714D01*
X45458095Y-102445714D02*
X45981904Y-103112380D01*
X46553333Y-102112380D02*
X46648571Y-102112380D01*
X46743809Y-102160000D01*
X46791428Y-102207619D01*
X46839047Y-102302857D01*
X46886666Y-102493333D01*
X46886666Y-102731428D01*
X46839047Y-102921904D01*
X46791428Y-103017142D01*
X46743809Y-103064761D01*
X46648571Y-103112380D01*
X46553333Y-103112380D01*
X46458095Y-103064761D01*
X46410476Y-103017142D01*
X46362857Y-102921904D01*
X46315238Y-102731428D01*
X46315238Y-102493333D01*
X46362857Y-102302857D01*
X46410476Y-102207619D01*
X46458095Y-102160000D01*
X46553333Y-102112380D01*
X47505714Y-102112380D02*
X47600952Y-102112380D01*
X47696190Y-102160000D01*
X47743809Y-102207619D01*
X47791428Y-102302857D01*
X47839047Y-102493333D01*
X47839047Y-102731428D01*
X47791428Y-102921904D01*
X47743809Y-103017142D01*
X47696190Y-103064761D01*
X47600952Y-103112380D01*
X47505714Y-103112380D01*
X47410476Y-103064761D01*
X47362857Y-103017142D01*
X47315238Y-102921904D01*
X47267619Y-102731428D01*
X47267619Y-102493333D01*
X47315238Y-102302857D01*
X47362857Y-102207619D01*
X47410476Y-102160000D01*
X47505714Y-102112380D01*
X58928095Y-66127380D02*
X58928095Y-66936904D01*
X58975714Y-67032142D01*
X59023333Y-67079761D01*
X59118571Y-67127380D01*
X59309047Y-67127380D01*
X59404285Y-67079761D01*
X59451904Y-67032142D01*
X59499523Y-66936904D01*
X59499523Y-66127380D01*
X59880476Y-66127380D02*
X60499523Y-66127380D01*
X60166190Y-66508333D01*
X60309047Y-66508333D01*
X60404285Y-66555952D01*
X60451904Y-66603571D01*
X60499523Y-66698809D01*
X60499523Y-66936904D01*
X60451904Y-67032142D01*
X60404285Y-67079761D01*
X60309047Y-67127380D01*
X60023333Y-67127380D01*
X59928095Y-67079761D01*
X59880476Y-67032142D01*
X57523333Y-76077380D02*
X58190000Y-76077380D01*
X57761428Y-77077380D01*
X58999523Y-76410714D02*
X58999523Y-77077380D01*
X58761428Y-76029761D02*
X58523333Y-76744047D01*
X59142380Y-76744047D01*
X59428095Y-77077380D02*
X59951904Y-76410714D01*
X59428095Y-76410714D02*
X59951904Y-77077380D01*
X60523333Y-76077380D02*
X60618571Y-76077380D01*
X60713809Y-76125000D01*
X60761428Y-76172619D01*
X60809047Y-76267857D01*
X60856666Y-76458333D01*
X60856666Y-76696428D01*
X60809047Y-76886904D01*
X60761428Y-76982142D01*
X60713809Y-77029761D01*
X60618571Y-77077380D01*
X60523333Y-77077380D01*
X60428095Y-77029761D01*
X60380476Y-76982142D01*
X60332857Y-76886904D01*
X60285238Y-76696428D01*
X60285238Y-76458333D01*
X60332857Y-76267857D01*
X60380476Y-76172619D01*
X60428095Y-76125000D01*
X60523333Y-76077380D01*
X61237619Y-76172619D02*
X61285238Y-76125000D01*
X61380476Y-76077380D01*
X61618571Y-76077380D01*
X61713809Y-76125000D01*
X61761428Y-76172619D01*
X61809047Y-76267857D01*
X61809047Y-76363095D01*
X61761428Y-76505952D01*
X61190000Y-77077380D01*
X61809047Y-77077380D01*
X58928095Y-92162380D02*
X58928095Y-92971904D01*
X58975714Y-93067142D01*
X59023333Y-93114761D01*
X59118571Y-93162380D01*
X59309047Y-93162380D01*
X59404285Y-93114761D01*
X59451904Y-93067142D01*
X59499523Y-92971904D01*
X59499523Y-92162380D01*
X60404285Y-92495714D02*
X60404285Y-93162380D01*
X60166190Y-92114761D02*
X59928095Y-92829047D01*
X60547142Y-92829047D01*
X57523333Y-102112380D02*
X58190000Y-102112380D01*
X57761428Y-103112380D01*
X58999523Y-102445714D02*
X58999523Y-103112380D01*
X58761428Y-102064761D02*
X58523333Y-102779047D01*
X59142380Y-102779047D01*
X59428095Y-103112380D02*
X59951904Y-102445714D01*
X59428095Y-102445714D02*
X59951904Y-103112380D01*
X60237619Y-102112380D02*
X60856666Y-102112380D01*
X60523333Y-102493333D01*
X60666190Y-102493333D01*
X60761428Y-102540952D01*
X60809047Y-102588571D01*
X60856666Y-102683809D01*
X60856666Y-102921904D01*
X60809047Y-103017142D01*
X60761428Y-103064761D01*
X60666190Y-103112380D01*
X60380476Y-103112380D01*
X60285238Y-103064761D01*
X60237619Y-103017142D01*
X61237619Y-102207619D02*
X61285238Y-102160000D01*
X61380476Y-102112380D01*
X61618571Y-102112380D01*
X61713809Y-102160000D01*
X61761428Y-102207619D01*
X61809047Y-102302857D01*
X61809047Y-102398095D01*
X61761428Y-102540952D01*
X61190000Y-103112380D01*
X61809047Y-103112380D01*
X72898095Y-88352380D02*
X72898095Y-89161904D01*
X72945714Y-89257142D01*
X72993333Y-89304761D01*
X73088571Y-89352380D01*
X73279047Y-89352380D01*
X73374285Y-89304761D01*
X73421904Y-89257142D01*
X73469523Y-89161904D01*
X73469523Y-88352380D01*
X73850476Y-88352380D02*
X74517142Y-88352380D01*
X74088571Y-89352380D01*
X71017142Y-102112380D02*
X71683809Y-102112380D01*
X71255238Y-103112380D01*
X72493333Y-102445714D02*
X72493333Y-103112380D01*
X72255238Y-102064761D02*
X72017142Y-102779047D01*
X72636190Y-102779047D01*
X72921904Y-103112380D02*
X73445714Y-102445714D01*
X72921904Y-102445714D02*
X73445714Y-103112380D01*
X73779047Y-102207619D02*
X73826666Y-102160000D01*
X73921904Y-102112380D01*
X74160000Y-102112380D01*
X74255238Y-102160000D01*
X74302857Y-102207619D01*
X74350476Y-102302857D01*
X74350476Y-102398095D01*
X74302857Y-102540952D01*
X73731428Y-103112380D01*
X74350476Y-103112380D01*
X75207619Y-102445714D02*
X75207619Y-103112380D01*
X74969523Y-102064761D02*
X74731428Y-102779047D01*
X75350476Y-102779047D01*
X76207619Y-102112380D02*
X75731428Y-102112380D01*
X75683809Y-102588571D01*
X75731428Y-102540952D01*
X75826666Y-102493333D01*
X76064761Y-102493333D01*
X76160000Y-102540952D01*
X76207619Y-102588571D01*
X76255238Y-102683809D01*
X76255238Y-102921904D01*
X76207619Y-103017142D01*
X76160000Y-103064761D01*
X76064761Y-103112380D01*
X75826666Y-103112380D01*
X75731428Y-103064761D01*
X75683809Y-103017142D01*
X86868095Y-88352380D02*
X86868095Y-89161904D01*
X86915714Y-89257142D01*
X86963333Y-89304761D01*
X87058571Y-89352380D01*
X87249047Y-89352380D01*
X87344285Y-89304761D01*
X87391904Y-89257142D01*
X87439523Y-89161904D01*
X87439523Y-88352380D01*
X88058571Y-88780952D02*
X87963333Y-88733333D01*
X87915714Y-88685714D01*
X87868095Y-88590476D01*
X87868095Y-88542857D01*
X87915714Y-88447619D01*
X87963333Y-88400000D01*
X88058571Y-88352380D01*
X88249047Y-88352380D01*
X88344285Y-88400000D01*
X88391904Y-88447619D01*
X88439523Y-88542857D01*
X88439523Y-88590476D01*
X88391904Y-88685714D01*
X88344285Y-88733333D01*
X88249047Y-88780952D01*
X88058571Y-88780952D01*
X87963333Y-88828571D01*
X87915714Y-88876190D01*
X87868095Y-88971428D01*
X87868095Y-89161904D01*
X87915714Y-89257142D01*
X87963333Y-89304761D01*
X88058571Y-89352380D01*
X88249047Y-89352380D01*
X88344285Y-89304761D01*
X88391904Y-89257142D01*
X88439523Y-89161904D01*
X88439523Y-88971428D01*
X88391904Y-88876190D01*
X88344285Y-88828571D01*
X88249047Y-88780952D01*
X84987142Y-102112380D02*
X85653809Y-102112380D01*
X85225238Y-103112380D01*
X86463333Y-102445714D02*
X86463333Y-103112380D01*
X86225238Y-102064761D02*
X85987142Y-102779047D01*
X86606190Y-102779047D01*
X86891904Y-103112380D02*
X87415714Y-102445714D01*
X86891904Y-102445714D02*
X87415714Y-103112380D01*
X87749047Y-102207619D02*
X87796666Y-102160000D01*
X87891904Y-102112380D01*
X88130000Y-102112380D01*
X88225238Y-102160000D01*
X88272857Y-102207619D01*
X88320476Y-102302857D01*
X88320476Y-102398095D01*
X88272857Y-102540952D01*
X87701428Y-103112380D01*
X88320476Y-103112380D01*
X89177619Y-102445714D02*
X89177619Y-103112380D01*
X88939523Y-102064761D02*
X88701428Y-102779047D01*
X89320476Y-102779047D01*
X90177619Y-102112380D02*
X89701428Y-102112380D01*
X89653809Y-102588571D01*
X89701428Y-102540952D01*
X89796666Y-102493333D01*
X90034761Y-102493333D01*
X90130000Y-102540952D01*
X90177619Y-102588571D01*
X90225238Y-102683809D01*
X90225238Y-102921904D01*
X90177619Y-103017142D01*
X90130000Y-103064761D01*
X90034761Y-103112380D01*
X89796666Y-103112380D01*
X89701428Y-103064761D01*
X89653809Y-103017142D01*
X100838095Y-88352380D02*
X100838095Y-89161904D01*
X100885714Y-89257142D01*
X100933333Y-89304761D01*
X101028571Y-89352380D01*
X101219047Y-89352380D01*
X101314285Y-89304761D01*
X101361904Y-89257142D01*
X101409523Y-89161904D01*
X101409523Y-88352380D01*
X101933333Y-89352380D02*
X102123809Y-89352380D01*
X102219047Y-89304761D01*
X102266666Y-89257142D01*
X102361904Y-89114285D01*
X102409523Y-88923809D01*
X102409523Y-88542857D01*
X102361904Y-88447619D01*
X102314285Y-88400000D01*
X102219047Y-88352380D01*
X102028571Y-88352380D01*
X101933333Y-88400000D01*
X101885714Y-88447619D01*
X101838095Y-88542857D01*
X101838095Y-88780952D01*
X101885714Y-88876190D01*
X101933333Y-88923809D01*
X102028571Y-88971428D01*
X102219047Y-88971428D01*
X102314285Y-88923809D01*
X102361904Y-88876190D01*
X102409523Y-88780952D01*
X98957142Y-102112380D02*
X99623809Y-102112380D01*
X99195238Y-103112380D01*
X100433333Y-102445714D02*
X100433333Y-103112380D01*
X100195238Y-102064761D02*
X99957142Y-102779047D01*
X100576190Y-102779047D01*
X100861904Y-103112380D02*
X101385714Y-102445714D01*
X100861904Y-102445714D02*
X101385714Y-103112380D01*
X101719047Y-102207619D02*
X101766666Y-102160000D01*
X101861904Y-102112380D01*
X102100000Y-102112380D01*
X102195238Y-102160000D01*
X102242857Y-102207619D01*
X102290476Y-102302857D01*
X102290476Y-102398095D01*
X102242857Y-102540952D01*
X101671428Y-103112380D01*
X102290476Y-103112380D01*
X103147619Y-102445714D02*
X103147619Y-103112380D01*
X102909523Y-102064761D02*
X102671428Y-102779047D01*
X103290476Y-102779047D01*
X104147619Y-102112380D02*
X103671428Y-102112380D01*
X103623809Y-102588571D01*
X103671428Y-102540952D01*
X103766666Y-102493333D01*
X104004761Y-102493333D01*
X104100000Y-102540952D01*
X104147619Y-102588571D01*
X104195238Y-102683809D01*
X104195238Y-102921904D01*
X104147619Y-103017142D01*
X104100000Y-103064761D01*
X104004761Y-103112380D01*
X103766666Y-103112380D01*
X103671428Y-103064761D01*
X103623809Y-103017142D01*
X89479523Y-59507380D02*
X89146190Y-59031190D01*
X88908095Y-59507380D02*
X88908095Y-58507380D01*
X89289047Y-58507380D01*
X89384285Y-58555000D01*
X89431904Y-58602619D01*
X89479523Y-58697857D01*
X89479523Y-58840714D01*
X89431904Y-58935952D01*
X89384285Y-58983571D01*
X89289047Y-59031190D01*
X88908095Y-59031190D01*
X89908095Y-59507380D02*
X89908095Y-58507380D01*
X90479523Y-59507380D01*
X90479523Y-58507380D01*
X91479523Y-59507380D02*
X90908095Y-59507380D01*
X91193809Y-59507380D02*
X91193809Y-58507380D01*
X91098571Y-58650238D01*
X91003333Y-58745476D01*
X90908095Y-58793095D01*
X157313333Y-116022380D02*
X156980000Y-115546190D01*
X156741904Y-116022380D02*
X156741904Y-115022380D01*
X157122857Y-115022380D01*
X157218095Y-115070000D01*
X157265714Y-115117619D01*
X157313333Y-115212857D01*
X157313333Y-115355714D01*
X157265714Y-115450952D01*
X157218095Y-115498571D01*
X157122857Y-115546190D01*
X156741904Y-115546190D01*
X158265714Y-116022380D02*
X157694285Y-116022380D01*
X157980000Y-116022380D02*
X157980000Y-115022380D01*
X157884761Y-115165238D01*
X157789523Y-115260476D01*
X157694285Y-115308095D01*
X157313333Y-76652380D02*
X156980000Y-76176190D01*
X156741904Y-76652380D02*
X156741904Y-75652380D01*
X157122857Y-75652380D01*
X157218095Y-75700000D01*
X157265714Y-75747619D01*
X157313333Y-75842857D01*
X157313333Y-75985714D01*
X157265714Y-76080952D01*
X157218095Y-76128571D01*
X157122857Y-76176190D01*
X156741904Y-76176190D01*
X157694285Y-75747619D02*
X157741904Y-75700000D01*
X157837142Y-75652380D01*
X158075238Y-75652380D01*
X158170476Y-75700000D01*
X158218095Y-75747619D01*
X158265714Y-75842857D01*
X158265714Y-75938095D01*
X158218095Y-76080952D01*
X157646666Y-76652380D01*
X158265714Y-76652380D01*
M02*
