G04 #@! TF.GenerationSoftware,KiCad,Pcbnew,5.0.2+dfsg1-1*
G04 #@! TF.CreationDate,2019-07-29T21:28:13+02:00*
G04 #@! TF.ProjectId,Program-Counter,50726f67-7261-46d2-9d43-6f756e746572,rev?*
G04 #@! TF.SameCoordinates,Original*
G04 #@! TF.FileFunction,Copper,L2,Bot*
G04 #@! TF.FilePolarity,Positive*
%FSLAX46Y46*%
G04 Gerber Fmt 4.6, Leading zero omitted, Abs format (unit mm)*
G04 Created by KiCad (PCBNEW 5.0.2+dfsg1-1) date ma 29 jul 2019 21:28:13 CEST*
%MOMM*%
%LPD*%
G01*
G04 APERTURE LIST*
G04 #@! TA.AperFunction,ComponentPad*
%ADD10R,1.600000X1.600000*%
G04 #@! TD*
G04 #@! TA.AperFunction,ComponentPad*
%ADD11O,1.600000X1.600000*%
G04 #@! TD*
G04 #@! TA.AperFunction,ComponentPad*
%ADD12O,1.700000X1.700000*%
G04 #@! TD*
G04 #@! TA.AperFunction,ComponentPad*
%ADD13R,1.700000X1.700000*%
G04 #@! TD*
G04 #@! TA.AperFunction,ComponentPad*
%ADD14C,2.032000*%
G04 #@! TD*
G04 #@! TA.AperFunction,ComponentPad*
%ADD15R,2.032000X2.032000*%
G04 #@! TD*
G04 #@! TA.AperFunction,ViaPad*
%ADD16C,0.800000*%
G04 #@! TD*
G04 #@! TA.AperFunction,Conductor*
%ADD17C,0.350000*%
G04 #@! TD*
G04 #@! TA.AperFunction,Conductor*
%ADD18C,0.250000*%
G04 #@! TD*
G04 #@! TA.AperFunction,Conductor*
%ADD19C,0.254000*%
G04 #@! TD*
G04 APERTURE END LIST*
D10*
G04 #@! TO.P,U4,1*
G04 #@! TO.N,DATA_BUS1*
X62865000Y-46990000D03*
D11*
G04 #@! TO.P,U4,9*
G04 #@! TO.N,DATA_BUS3*
X70485000Y-64770000D03*
G04 #@! TO.P,U4,2*
G04 #@! TO.N,Net-(BAR1-Pad9)*
X62865000Y-49530000D03*
G04 #@! TO.P,U4,10*
G04 #@! TO.N,DATA_BUS2*
X70485000Y-62230000D03*
G04 #@! TO.P,U4,3*
G04 #@! TO.N,Net-(BAR1-Pad10)*
X62865000Y-52070000D03*
G04 #@! TO.P,U4,11*
G04 #@! TO.N,~PC_H_LOAD*
X70485000Y-59690000D03*
G04 #@! TO.P,U4,4*
G04 #@! TO.N,~CLK_EN*
X62865000Y-54610000D03*
G04 #@! TO.P,U4,12*
G04 #@! TO.N,Net-(U4-Pad12)*
X70485000Y-57150000D03*
G04 #@! TO.P,U4,5*
G04 #@! TO.N,DOWN_~UP*
X62865000Y-57150000D03*
G04 #@! TO.P,U4,13*
G04 #@! TO.N,Net-(U4-Pad13)*
X70485000Y-54610000D03*
G04 #@! TO.P,U4,6*
G04 #@! TO.N,Net-(BAR1-Pad8)*
X62865000Y-59690000D03*
G04 #@! TO.P,U4,14*
G04 #@! TO.N,Net-(U3-Pad13)*
X70485000Y-52070000D03*
G04 #@! TO.P,U4,7*
G04 #@! TO.N,Net-(BAR1-Pad7)*
X62865000Y-62230000D03*
G04 #@! TO.P,U4,15*
G04 #@! TO.N,DATA_BUS0*
X70485000Y-49530000D03*
G04 #@! TO.P,U4,8*
G04 #@! TO.N,GND*
X62865000Y-64770000D03*
G04 #@! TO.P,U4,16*
G04 #@! TO.N,+5V*
X70485000Y-46990000D03*
G04 #@! TD*
D12*
G04 #@! TO.P,J2,16*
G04 #@! TO.N,Net-(BAR1-Pad3)*
X79375000Y-90805000D03*
G04 #@! TO.P,J2,15*
G04 #@! TO.N,Net-(BAR1-Pad4)*
X79375000Y-88265000D03*
G04 #@! TO.P,J2,14*
G04 #@! TO.N,Net-(BAR1-Pad5)*
X79375000Y-85725000D03*
G04 #@! TO.P,J2,13*
G04 #@! TO.N,Net-(BAR1-Pad6)*
X79375000Y-83185000D03*
G04 #@! TO.P,J2,12*
G04 #@! TO.N,Net-(BAR1-Pad7)*
X79375000Y-80645000D03*
G04 #@! TO.P,J2,11*
G04 #@! TO.N,Net-(BAR1-Pad8)*
X79375000Y-78105000D03*
G04 #@! TO.P,J2,10*
G04 #@! TO.N,Net-(BAR1-Pad9)*
X79375000Y-75565000D03*
G04 #@! TO.P,J2,9*
G04 #@! TO.N,Net-(BAR1-Pad10)*
X79375000Y-73025000D03*
G04 #@! TO.P,J2,8*
G04 #@! TO.N,Net-(BAR2-Pad1)*
X79375000Y-70485000D03*
G04 #@! TO.P,J2,7*
G04 #@! TO.N,Net-(BAR2-Pad2)*
X79375000Y-67945000D03*
G04 #@! TO.P,J2,6*
G04 #@! TO.N,Net-(BAR2-Pad3)*
X79375000Y-65405000D03*
G04 #@! TO.P,J2,5*
G04 #@! TO.N,Net-(BAR2-Pad4)*
X79375000Y-62865000D03*
G04 #@! TO.P,J2,4*
G04 #@! TO.N,Net-(BAR2-Pad5)*
X79375000Y-60325000D03*
G04 #@! TO.P,J2,3*
G04 #@! TO.N,Net-(BAR2-Pad6)*
X79375000Y-57785000D03*
G04 #@! TO.P,J2,2*
G04 #@! TO.N,Net-(BAR2-Pad7)*
X79375000Y-55245000D03*
D13*
G04 #@! TO.P,J2,1*
G04 #@! TO.N,Net-(BAR2-Pad8)*
X79375000Y-52705000D03*
G04 #@! TD*
G04 #@! TO.P,J1,1*
G04 #@! TO.N,GND*
X33655000Y-50165000D03*
D12*
G04 #@! TO.P,J1,2*
G04 #@! TO.N,+5V*
X33655000Y-52705000D03*
G04 #@! TO.P,J1,3*
G04 #@! TO.N,CLOCK*
X33655000Y-55245000D03*
G04 #@! TO.P,J1,4*
G04 #@! TO.N,PC_INC*
X33655000Y-57785000D03*
G04 #@! TO.P,J1,5*
G04 #@! TO.N,PC_DEC*
X33655000Y-60325000D03*
G04 #@! TO.P,J1,6*
G04 #@! TO.N,~PC_L_LOAD*
X33655000Y-62865000D03*
G04 #@! TO.P,J1,7*
G04 #@! TO.N,~PC_H_LOAD*
X33655000Y-65405000D03*
G04 #@! TO.P,J1,8*
G04 #@! TO.N,~PC_L_OUT*
X33655000Y-67945000D03*
G04 #@! TO.P,J1,9*
G04 #@! TO.N,~PC_H_OUT*
X33655000Y-70485000D03*
G04 #@! TO.P,J1,10*
G04 #@! TO.N,DATA_BUS0*
X33655000Y-73025000D03*
G04 #@! TO.P,J1,11*
G04 #@! TO.N,DATA_BUS1*
X33655000Y-75565000D03*
G04 #@! TO.P,J1,12*
G04 #@! TO.N,DATA_BUS2*
X33655000Y-78105000D03*
G04 #@! TO.P,J1,13*
G04 #@! TO.N,DATA_BUS3*
X33655000Y-80645000D03*
G04 #@! TO.P,J1,14*
G04 #@! TO.N,DATA_BUS4*
X33655000Y-83185000D03*
G04 #@! TO.P,J1,15*
G04 #@! TO.N,DATA_BUS5*
X33655000Y-85725000D03*
G04 #@! TO.P,J1,16*
G04 #@! TO.N,DATA_BUS6*
X33655000Y-88265000D03*
G04 #@! TO.P,J1,17*
G04 #@! TO.N,DATA_BUS7*
X33655000Y-90805000D03*
G04 #@! TD*
D14*
G04 #@! TO.P,BAR2,20*
G04 #@! TO.N,Net-(BAR2-Pad20)*
X71755000Y-27305000D03*
G04 #@! TO.P,BAR2,19*
G04 #@! TO.N,Net-(BAR2-Pad19)*
X74295000Y-27305000D03*
G04 #@! TO.P,BAR2,18*
G04 #@! TO.N,Net-(BAR2-Pad18)*
X76835000Y-27305000D03*
G04 #@! TO.P,BAR2,17*
G04 #@! TO.N,Net-(BAR2-Pad17)*
X79375000Y-27305000D03*
G04 #@! TO.P,BAR2,9*
G04 #@! TO.N,Net-(BAR2-Pad9)*
X92075000Y-34925000D03*
G04 #@! TO.P,BAR2,10*
G04 #@! TO.N,Net-(BAR2-Pad10)*
X94615000Y-34925000D03*
G04 #@! TO.P,BAR2,11*
G04 #@! TO.N,Net-(BAR2-Pad11)*
X94615000Y-27305000D03*
G04 #@! TO.P,BAR2,12*
G04 #@! TO.N,Net-(BAR2-Pad12)*
X92075000Y-27305000D03*
G04 #@! TO.P,BAR2,8*
G04 #@! TO.N,Net-(BAR2-Pad8)*
X89535000Y-34925000D03*
G04 #@! TO.P,BAR2,7*
G04 #@! TO.N,Net-(BAR2-Pad7)*
X86995000Y-34925000D03*
G04 #@! TO.P,BAR2,6*
G04 #@! TO.N,Net-(BAR2-Pad6)*
X84455000Y-34925000D03*
G04 #@! TO.P,BAR2,5*
G04 #@! TO.N,Net-(BAR2-Pad5)*
X81915000Y-34925000D03*
G04 #@! TO.P,BAR2,16*
G04 #@! TO.N,Net-(BAR2-Pad16)*
X81915000Y-27305000D03*
G04 #@! TO.P,BAR2,15*
G04 #@! TO.N,Net-(BAR2-Pad15)*
X84455000Y-27305000D03*
G04 #@! TO.P,BAR2,14*
G04 #@! TO.N,Net-(BAR2-Pad14)*
X86995000Y-27305000D03*
G04 #@! TO.P,BAR2,13*
G04 #@! TO.N,Net-(BAR2-Pad13)*
X89535000Y-27305000D03*
G04 #@! TO.P,BAR2,4*
G04 #@! TO.N,Net-(BAR2-Pad4)*
X79375000Y-34925000D03*
G04 #@! TO.P,BAR2,3*
G04 #@! TO.N,Net-(BAR2-Pad3)*
X76835000Y-34925000D03*
G04 #@! TO.P,BAR2,2*
G04 #@! TO.N,Net-(BAR2-Pad2)*
X74295000Y-34925000D03*
D15*
G04 #@! TO.P,BAR2,1*
G04 #@! TO.N,Net-(BAR2-Pad1)*
X71755000Y-34925000D03*
G04 #@! TD*
G04 #@! TO.P,BAR1,1*
G04 #@! TO.N,Net-(BAR1-Pad1)*
X45720000Y-34925000D03*
D14*
G04 #@! TO.P,BAR1,2*
G04 #@! TO.N,Net-(BAR1-Pad2)*
X48260000Y-34925000D03*
G04 #@! TO.P,BAR1,3*
G04 #@! TO.N,Net-(BAR1-Pad3)*
X50800000Y-34925000D03*
G04 #@! TO.P,BAR1,4*
G04 #@! TO.N,Net-(BAR1-Pad4)*
X53340000Y-34925000D03*
G04 #@! TO.P,BAR1,13*
G04 #@! TO.N,Net-(BAR1-Pad13)*
X63500000Y-27305000D03*
G04 #@! TO.P,BAR1,14*
G04 #@! TO.N,Net-(BAR1-Pad14)*
X60960000Y-27305000D03*
G04 #@! TO.P,BAR1,15*
G04 #@! TO.N,Net-(BAR1-Pad15)*
X58420000Y-27305000D03*
G04 #@! TO.P,BAR1,16*
G04 #@! TO.N,Net-(BAR1-Pad16)*
X55880000Y-27305000D03*
G04 #@! TO.P,BAR1,5*
G04 #@! TO.N,Net-(BAR1-Pad5)*
X55880000Y-34925000D03*
G04 #@! TO.P,BAR1,6*
G04 #@! TO.N,Net-(BAR1-Pad6)*
X58420000Y-34925000D03*
G04 #@! TO.P,BAR1,7*
G04 #@! TO.N,Net-(BAR1-Pad7)*
X60960000Y-34925000D03*
G04 #@! TO.P,BAR1,8*
G04 #@! TO.N,Net-(BAR1-Pad8)*
X63500000Y-34925000D03*
G04 #@! TO.P,BAR1,12*
G04 #@! TO.N,Net-(BAR1-Pad12)*
X66040000Y-27305000D03*
G04 #@! TO.P,BAR1,11*
G04 #@! TO.N,Net-(BAR1-Pad11)*
X68580000Y-27305000D03*
G04 #@! TO.P,BAR1,10*
G04 #@! TO.N,Net-(BAR1-Pad10)*
X68580000Y-34925000D03*
G04 #@! TO.P,BAR1,9*
G04 #@! TO.N,Net-(BAR1-Pad9)*
X66040000Y-34925000D03*
G04 #@! TO.P,BAR1,17*
G04 #@! TO.N,Net-(BAR1-Pad17)*
X53340000Y-27305000D03*
G04 #@! TO.P,BAR1,18*
G04 #@! TO.N,Net-(BAR1-Pad18)*
X50800000Y-27305000D03*
G04 #@! TO.P,BAR1,19*
G04 #@! TO.N,Net-(BAR1-Pad19)*
X48260000Y-27305000D03*
G04 #@! TO.P,BAR1,20*
G04 #@! TO.N,Net-(BAR1-Pad20)*
X45720000Y-27305000D03*
G04 #@! TD*
D10*
G04 #@! TO.P,U1,1*
G04 #@! TO.N,DOWN_~UP*
X33655000Y-23495000D03*
D11*
G04 #@! TO.P,U1,8*
G04 #@! TO.N,PC_INC*
X41275000Y-38735000D03*
G04 #@! TO.P,U1,2*
X33655000Y-26035000D03*
G04 #@! TO.P,U1,9*
G04 #@! TO.N,PC_DEC*
X41275000Y-36195000D03*
G04 #@! TO.P,U1,3*
G04 #@! TO.N,Net-(U1-Pad3)*
X33655000Y-28575000D03*
G04 #@! TO.P,U1,10*
G04 #@! TO.N,~CLK_EN*
X41275000Y-33655000D03*
G04 #@! TO.P,U1,4*
G04 #@! TO.N,Net-(U1-Pad3)*
X33655000Y-31115000D03*
G04 #@! TO.P,U1,11*
G04 #@! TO.N,N/C*
X41275000Y-31115000D03*
G04 #@! TO.P,U1,5*
G04 #@! TO.N,DOWN_~UP*
X33655000Y-33655000D03*
G04 #@! TO.P,U1,12*
G04 #@! TO.N,N/C*
X41275000Y-28575000D03*
G04 #@! TO.P,U1,6*
G04 #@! TO.N,PC_DEC*
X33655000Y-36195000D03*
G04 #@! TO.P,U1,13*
G04 #@! TO.N,N/C*
X41275000Y-26035000D03*
G04 #@! TO.P,U1,7*
G04 #@! TO.N,GND*
X33655000Y-38735000D03*
G04 #@! TO.P,U1,14*
G04 #@! TO.N,+5V*
X41275000Y-23495000D03*
G04 #@! TD*
G04 #@! TO.P,U5,16*
G04 #@! TO.N,+5V*
X70485000Y-73025000D03*
G04 #@! TO.P,U5,8*
G04 #@! TO.N,GND*
X62865000Y-90805000D03*
G04 #@! TO.P,U5,15*
G04 #@! TO.N,DATA_BUS4*
X70485000Y-75565000D03*
G04 #@! TO.P,U5,7*
G04 #@! TO.N,Net-(BAR1-Pad3)*
X62865000Y-88265000D03*
G04 #@! TO.P,U5,14*
G04 #@! TO.N,Net-(U4-Pad13)*
X70485000Y-78105000D03*
G04 #@! TO.P,U5,6*
G04 #@! TO.N,Net-(BAR1-Pad4)*
X62865000Y-85725000D03*
G04 #@! TO.P,U5,13*
G04 #@! TO.N,Net-(U5-Pad13)*
X70485000Y-80645000D03*
G04 #@! TO.P,U5,5*
G04 #@! TO.N,DOWN_~UP*
X62865000Y-83185000D03*
G04 #@! TO.P,U5,12*
G04 #@! TO.N,Net-(U5-Pad12)*
X70485000Y-83185000D03*
G04 #@! TO.P,U5,4*
G04 #@! TO.N,~CLK_EN*
X62865000Y-80645000D03*
G04 #@! TO.P,U5,11*
G04 #@! TO.N,~PC_H_LOAD*
X70485000Y-85725000D03*
G04 #@! TO.P,U5,3*
G04 #@! TO.N,Net-(BAR1-Pad6)*
X62865000Y-78105000D03*
G04 #@! TO.P,U5,10*
G04 #@! TO.N,DATA_BUS6*
X70485000Y-88265000D03*
G04 #@! TO.P,U5,2*
G04 #@! TO.N,Net-(BAR1-Pad5)*
X62865000Y-75565000D03*
G04 #@! TO.P,U5,9*
G04 #@! TO.N,DATA_BUS7*
X70485000Y-90805000D03*
D10*
G04 #@! TO.P,U5,1*
G04 #@! TO.N,DATA_BUS5*
X62865000Y-73025000D03*
G04 #@! TD*
D11*
G04 #@! TO.P,U3,16*
G04 #@! TO.N,+5V*
X53340000Y-73025000D03*
G04 #@! TO.P,U3,8*
G04 #@! TO.N,GND*
X45720000Y-90805000D03*
G04 #@! TO.P,U3,15*
G04 #@! TO.N,DATA_BUS4*
X53340000Y-75565000D03*
G04 #@! TO.P,U3,7*
G04 #@! TO.N,Net-(BAR2-Pad1)*
X45720000Y-88265000D03*
G04 #@! TO.P,U3,14*
G04 #@! TO.N,Net-(U2-Pad13)*
X53340000Y-78105000D03*
G04 #@! TO.P,U3,6*
G04 #@! TO.N,Net-(BAR2-Pad2)*
X45720000Y-85725000D03*
G04 #@! TO.P,U3,13*
G04 #@! TO.N,Net-(U3-Pad13)*
X53340000Y-80645000D03*
G04 #@! TO.P,U3,5*
G04 #@! TO.N,DOWN_~UP*
X45720000Y-83185000D03*
G04 #@! TO.P,U3,12*
G04 #@! TO.N,Net-(U3-Pad12)*
X53340000Y-83185000D03*
G04 #@! TO.P,U3,4*
G04 #@! TO.N,~CLK_EN*
X45720000Y-80645000D03*
G04 #@! TO.P,U3,11*
G04 #@! TO.N,~PC_L_LOAD*
X53340000Y-85725000D03*
G04 #@! TO.P,U3,3*
G04 #@! TO.N,Net-(BAR2-Pad4)*
X45720000Y-78105000D03*
G04 #@! TO.P,U3,10*
G04 #@! TO.N,DATA_BUS6*
X53340000Y-88265000D03*
G04 #@! TO.P,U3,2*
G04 #@! TO.N,Net-(BAR2-Pad3)*
X45720000Y-75565000D03*
G04 #@! TO.P,U3,9*
G04 #@! TO.N,DATA_BUS7*
X53340000Y-90805000D03*
D10*
G04 #@! TO.P,U3,1*
G04 #@! TO.N,DATA_BUS5*
X45720000Y-73025000D03*
G04 #@! TD*
G04 #@! TO.P,U2,1*
G04 #@! TO.N,DATA_BUS1*
X45720000Y-46990000D03*
D11*
G04 #@! TO.P,U2,9*
G04 #@! TO.N,DATA_BUS3*
X53340000Y-64770000D03*
G04 #@! TO.P,U2,2*
G04 #@! TO.N,Net-(BAR2-Pad7)*
X45720000Y-49530000D03*
G04 #@! TO.P,U2,10*
G04 #@! TO.N,DATA_BUS2*
X53340000Y-62230000D03*
G04 #@! TO.P,U2,3*
G04 #@! TO.N,Net-(BAR2-Pad8)*
X45720000Y-52070000D03*
G04 #@! TO.P,U2,11*
G04 #@! TO.N,~PC_L_LOAD*
X53340000Y-59690000D03*
G04 #@! TO.P,U2,4*
G04 #@! TO.N,~CLK_EN*
X45720000Y-54610000D03*
G04 #@! TO.P,U2,12*
G04 #@! TO.N,Net-(U2-Pad12)*
X53340000Y-57150000D03*
G04 #@! TO.P,U2,5*
G04 #@! TO.N,DOWN_~UP*
X45720000Y-57150000D03*
G04 #@! TO.P,U2,13*
G04 #@! TO.N,Net-(U2-Pad13)*
X53340000Y-54610000D03*
G04 #@! TO.P,U2,6*
G04 #@! TO.N,Net-(BAR2-Pad6)*
X45720000Y-59690000D03*
G04 #@! TO.P,U2,14*
G04 #@! TO.N,CLOCK*
X53340000Y-52070000D03*
G04 #@! TO.P,U2,7*
G04 #@! TO.N,Net-(BAR2-Pad5)*
X45720000Y-62230000D03*
G04 #@! TO.P,U2,15*
G04 #@! TO.N,DATA_BUS0*
X53340000Y-49530000D03*
G04 #@! TO.P,U2,8*
G04 #@! TO.N,GND*
X45720000Y-64770000D03*
G04 #@! TO.P,U2,16*
G04 #@! TO.N,+5V*
X53340000Y-46990000D03*
G04 #@! TD*
G04 #@! TO.P,U7,20*
G04 #@! TO.N,+5V*
X94615000Y-67945000D03*
G04 #@! TO.P,U7,10*
G04 #@! TO.N,GND*
X86995000Y-90805000D03*
G04 #@! TO.P,U7,19*
G04 #@! TO.N,~PC_H_OUT*
X94615000Y-70485000D03*
G04 #@! TO.P,U7,9*
G04 #@! TO.N,Net-(BAR1-Pad3)*
X86995000Y-88265000D03*
G04 #@! TO.P,U7,18*
G04 #@! TO.N,DATA_BUS0*
X94615000Y-73025000D03*
G04 #@! TO.P,U7,8*
G04 #@! TO.N,Net-(BAR1-Pad4)*
X86995000Y-85725000D03*
G04 #@! TO.P,U7,17*
G04 #@! TO.N,DATA_BUS1*
X94615000Y-75565000D03*
G04 #@! TO.P,U7,7*
G04 #@! TO.N,Net-(BAR1-Pad5)*
X86995000Y-83185000D03*
G04 #@! TO.P,U7,16*
G04 #@! TO.N,DATA_BUS2*
X94615000Y-78105000D03*
G04 #@! TO.P,U7,6*
G04 #@! TO.N,Net-(BAR1-Pad6)*
X86995000Y-80645000D03*
G04 #@! TO.P,U7,15*
G04 #@! TO.N,DATA_BUS3*
X94615000Y-80645000D03*
G04 #@! TO.P,U7,5*
G04 #@! TO.N,Net-(BAR1-Pad7)*
X86995000Y-78105000D03*
G04 #@! TO.P,U7,14*
G04 #@! TO.N,DATA_BUS4*
X94615000Y-83185000D03*
G04 #@! TO.P,U7,4*
G04 #@! TO.N,Net-(BAR1-Pad8)*
X86995000Y-75565000D03*
G04 #@! TO.P,U7,13*
G04 #@! TO.N,DATA_BUS5*
X94615000Y-85725000D03*
G04 #@! TO.P,U7,3*
G04 #@! TO.N,Net-(BAR1-Pad9)*
X86995000Y-73025000D03*
G04 #@! TO.P,U7,12*
G04 #@! TO.N,DATA_BUS6*
X94615000Y-88265000D03*
G04 #@! TO.P,U7,2*
G04 #@! TO.N,Net-(BAR1-Pad10)*
X86995000Y-70485000D03*
G04 #@! TO.P,U7,11*
G04 #@! TO.N,DATA_BUS7*
X94615000Y-90805000D03*
D10*
G04 #@! TO.P,U7,1*
G04 #@! TO.N,+5V*
X86995000Y-67945000D03*
G04 #@! TD*
G04 #@! TO.P,U6,1*
G04 #@! TO.N,+5V*
X86995000Y-39370000D03*
D11*
G04 #@! TO.P,U6,11*
G04 #@! TO.N,DATA_BUS7*
X94615000Y-62230000D03*
G04 #@! TO.P,U6,2*
G04 #@! TO.N,Net-(BAR2-Pad8)*
X86995000Y-41910000D03*
G04 #@! TO.P,U6,12*
G04 #@! TO.N,DATA_BUS6*
X94615000Y-59690000D03*
G04 #@! TO.P,U6,3*
G04 #@! TO.N,Net-(BAR2-Pad7)*
X86995000Y-44450000D03*
G04 #@! TO.P,U6,13*
G04 #@! TO.N,DATA_BUS5*
X94615000Y-57150000D03*
G04 #@! TO.P,U6,4*
G04 #@! TO.N,Net-(BAR2-Pad6)*
X86995000Y-46990000D03*
G04 #@! TO.P,U6,14*
G04 #@! TO.N,DATA_BUS4*
X94615000Y-54610000D03*
G04 #@! TO.P,U6,5*
G04 #@! TO.N,Net-(BAR2-Pad5)*
X86995000Y-49530000D03*
G04 #@! TO.P,U6,15*
G04 #@! TO.N,DATA_BUS3*
X94615000Y-52070000D03*
G04 #@! TO.P,U6,6*
G04 #@! TO.N,Net-(BAR2-Pad4)*
X86995000Y-52070000D03*
G04 #@! TO.P,U6,16*
G04 #@! TO.N,DATA_BUS2*
X94615000Y-49530000D03*
G04 #@! TO.P,U6,7*
G04 #@! TO.N,Net-(BAR2-Pad3)*
X86995000Y-54610000D03*
G04 #@! TO.P,U6,17*
G04 #@! TO.N,DATA_BUS1*
X94615000Y-46990000D03*
G04 #@! TO.P,U6,8*
G04 #@! TO.N,Net-(BAR2-Pad2)*
X86995000Y-57150000D03*
G04 #@! TO.P,U6,18*
G04 #@! TO.N,DATA_BUS0*
X94615000Y-44450000D03*
G04 #@! TO.P,U6,9*
G04 #@! TO.N,Net-(BAR2-Pad1)*
X86995000Y-59690000D03*
G04 #@! TO.P,U6,19*
G04 #@! TO.N,~PC_L_OUT*
X94615000Y-41910000D03*
G04 #@! TO.P,U6,10*
G04 #@! TO.N,GND*
X86995000Y-62230000D03*
G04 #@! TO.P,U6,20*
G04 #@! TO.N,+5V*
X94615000Y-39370000D03*
G04 #@! TD*
G04 #@! TO.P,RN2,9*
G04 #@! TO.N,Net-(BAR2-Pad13)*
X89535000Y-23495000D03*
G04 #@! TO.P,RN2,8*
G04 #@! TO.N,Net-(BAR2-Pad14)*
X86995000Y-23495000D03*
G04 #@! TO.P,RN2,7*
G04 #@! TO.N,Net-(BAR2-Pad15)*
X84455000Y-23495000D03*
G04 #@! TO.P,RN2,6*
G04 #@! TO.N,Net-(BAR2-Pad16)*
X81915000Y-23495000D03*
G04 #@! TO.P,RN2,5*
G04 #@! TO.N,Net-(BAR2-Pad17)*
X79375000Y-23495000D03*
G04 #@! TO.P,RN2,4*
G04 #@! TO.N,Net-(BAR2-Pad18)*
X76835000Y-23495000D03*
G04 #@! TO.P,RN2,3*
G04 #@! TO.N,Net-(BAR2-Pad19)*
X74295000Y-23495000D03*
G04 #@! TO.P,RN2,2*
G04 #@! TO.N,Net-(BAR2-Pad20)*
X71755000Y-23495000D03*
D10*
G04 #@! TO.P,RN2,1*
G04 #@! TO.N,GND*
X69215000Y-23495000D03*
G04 #@! TD*
G04 #@! TO.P,RN1,1*
G04 #@! TO.N,GND*
X45720000Y-23495000D03*
D11*
G04 #@! TO.P,RN1,2*
G04 #@! TO.N,Net-(BAR1-Pad18)*
X48260000Y-23495000D03*
G04 #@! TO.P,RN1,3*
G04 #@! TO.N,Net-(BAR1-Pad17)*
X50800000Y-23495000D03*
G04 #@! TO.P,RN1,4*
G04 #@! TO.N,Net-(BAR1-Pad16)*
X53340000Y-23495000D03*
G04 #@! TO.P,RN1,5*
G04 #@! TO.N,Net-(BAR1-Pad15)*
X55880000Y-23495000D03*
G04 #@! TO.P,RN1,6*
G04 #@! TO.N,Net-(BAR1-Pad14)*
X58420000Y-23495000D03*
G04 #@! TO.P,RN1,7*
G04 #@! TO.N,Net-(BAR1-Pad13)*
X60960000Y-23495000D03*
G04 #@! TO.P,RN1,8*
G04 #@! TO.N,Net-(BAR1-Pad12)*
X63500000Y-23495000D03*
G04 #@! TO.P,RN1,9*
G04 #@! TO.N,Net-(BAR1-Pad11)*
X66040000Y-23495000D03*
G04 #@! TD*
D16*
G04 #@! TO.N,GND*
X40386000Y-43688000D03*
X44577000Y-43688000D03*
X35687000Y-69215000D03*
X31623000Y-69215000D03*
X54483000Y-94234000D03*
X86995000Y-94234000D03*
X66929000Y-82677000D03*
X66929000Y-90678000D03*
X65278000Y-77470000D03*
G04 #@! TO.N,Net-(BAR2-Pad7)*
X47206300Y-46246100D03*
G04 #@! TO.N,Net-(BAR2-Pad3)*
X47451800Y-71316500D03*
G04 #@! TO.N,Net-(BAR2-Pad2)*
X51309600Y-70773300D03*
G04 #@! TO.N,DATA_BUS0*
X49276900Y-62178400D03*
G04 #@! TO.N,Net-(BAR1-Pad7)*
X66582200Y-76193200D03*
G04 #@! TO.N,Net-(BAR1-Pad8)*
X68162700Y-73741000D03*
G04 #@! TO.N,~CLK_EN*
X55320100Y-54279800D03*
G04 #@! TO.N,Net-(U3-Pad13)*
X61739000Y-79375000D03*
G04 #@! TD*
D17*
G04 #@! TO.N,GND*
X65278000Y-77470000D02*
X66929000Y-78613000D01*
X66929000Y-78613000D02*
X66929000Y-82677000D01*
G04 #@! TO.N,+5V*
X42460200Y-48165400D02*
X50989300Y-48165400D01*
X50989300Y-48165400D02*
X52164700Y-46990000D01*
X34880300Y-52705000D02*
X39419900Y-48165400D01*
X39419900Y-48165400D02*
X42460200Y-48165400D01*
X69309700Y-73025000D02*
X69250400Y-72965700D01*
X69250400Y-72965700D02*
X67534600Y-72965700D01*
X67534600Y-72965700D02*
X66299900Y-74200400D01*
X66299900Y-74200400D02*
X55690700Y-74200400D01*
X55690700Y-74200400D02*
X54515300Y-73025000D01*
X94615000Y-67945000D02*
X93439700Y-67945000D01*
X86995000Y-67945000D02*
X88170300Y-67945000D01*
X88170300Y-67945000D02*
X93439700Y-67945000D01*
X86995000Y-39370000D02*
X79280300Y-39370000D01*
X79280300Y-39370000D02*
X71660300Y-46990000D01*
X94615000Y-39370000D02*
X86995000Y-39370000D01*
X70485000Y-46990000D02*
X71660300Y-46990000D01*
X70485000Y-73025000D02*
X69309700Y-73025000D01*
X70485000Y-73025000D02*
X71660300Y-73025000D01*
X86995000Y-67945000D02*
X85819700Y-67945000D01*
X85819700Y-67945000D02*
X82009700Y-71755000D01*
X82009700Y-71755000D02*
X72930300Y-71755000D01*
X72930300Y-71755000D02*
X71660300Y-73025000D01*
X53340000Y-46990000D02*
X54515300Y-46990000D01*
X70485000Y-46990000D02*
X69309700Y-46990000D01*
X69309700Y-46990000D02*
X68134300Y-48165400D01*
X68134300Y-48165400D02*
X55690700Y-48165400D01*
X55690700Y-48165400D02*
X54515300Y-46990000D01*
X53340000Y-73025000D02*
X54515300Y-73025000D01*
X52752400Y-46990000D02*
X53340000Y-46990000D01*
X52752400Y-46990000D02*
X52164700Y-46990000D01*
X33655000Y-52705000D02*
X34880300Y-52705000D01*
X42460200Y-24680200D02*
X42460200Y-25908000D01*
X41275000Y-23495000D02*
X42460200Y-24680200D01*
X42460200Y-48165400D02*
X42460200Y-25908000D01*
D18*
G04 #@! TO.N,DATA_BUS7*
X94615000Y-90805000D02*
X93489700Y-90805000D01*
X70485000Y-90805000D02*
X71610300Y-90805000D01*
X71610300Y-90805000D02*
X72786300Y-91981000D01*
X72786300Y-91981000D02*
X92313700Y-91981000D01*
X92313700Y-91981000D02*
X93489700Y-90805000D01*
X69922400Y-90805000D02*
X70485000Y-90805000D01*
X69922400Y-90805000D02*
X69359700Y-90805000D01*
X53340000Y-90805000D02*
X54465300Y-90805000D01*
X69359700Y-90805000D02*
X68234400Y-91930300D01*
X68234400Y-91930300D02*
X55590600Y-91930300D01*
X55590600Y-91930300D02*
X54465300Y-90805000D01*
X33655000Y-90805000D02*
X34830300Y-90805000D01*
X53340000Y-90805000D02*
X52214700Y-90805000D01*
X52214700Y-90805000D02*
X51039400Y-89629700D01*
X51039400Y-89629700D02*
X36005600Y-89629700D01*
X36005600Y-89629700D02*
X34830300Y-90805000D01*
G04 #@! TO.N,Net-(BAR2-Pad8)*
X79375000Y-52705000D02*
X78199700Y-52705000D01*
X78199700Y-52705000D02*
X77709400Y-53195300D01*
X77709400Y-53195300D02*
X47970600Y-53195300D01*
X47970600Y-53195300D02*
X46845300Y-52070000D01*
X45720000Y-52070000D02*
X46845300Y-52070000D01*
X79375000Y-49530000D02*
X79375000Y-51181000D01*
X86995000Y-41910000D02*
X79375000Y-49530000D01*
X79375000Y-51181000D02*
X79375000Y-52705000D01*
G04 #@! TO.N,DATA_BUS6*
X53340000Y-88265000D02*
X54465300Y-88265000D01*
X70485000Y-88265000D02*
X69359700Y-88265000D01*
X69359700Y-88265000D02*
X68234400Y-87139700D01*
X68234400Y-87139700D02*
X55590600Y-87139700D01*
X55590600Y-87139700D02*
X54465300Y-88265000D01*
X93489700Y-88265000D02*
X92299100Y-89455600D01*
X92299100Y-89455600D02*
X77487200Y-89455600D01*
X77487200Y-89455600D02*
X76296600Y-88265000D01*
X76296600Y-88265000D02*
X70485000Y-88265000D01*
X94615000Y-88265000D02*
X93489700Y-88265000D01*
X33655000Y-88265000D02*
X34830300Y-88265000D01*
X53340000Y-88265000D02*
X52214700Y-88265000D01*
X52214700Y-88265000D02*
X51039400Y-87089700D01*
X51039400Y-87089700D02*
X36005600Y-87089700D01*
X36005600Y-87089700D02*
X34830300Y-88265000D01*
G04 #@! TO.N,Net-(BAR2-Pad7)*
X86995000Y-34925000D02*
X85056100Y-36863900D01*
X85056100Y-36863900D02*
X56588500Y-36863900D01*
X56588500Y-36863900D02*
X47206300Y-46246100D01*
X84963000Y-48641000D02*
X84963000Y-46482000D01*
X81026000Y-52578000D02*
X84963000Y-48641000D01*
X81026000Y-53594000D02*
X81026000Y-52578000D01*
X84963000Y-46482000D02*
X86995000Y-44450000D01*
X79375000Y-55245000D02*
X81026000Y-53594000D01*
G04 #@! TO.N,DATA_BUS5*
X45720000Y-73025000D02*
X46845300Y-73025000D01*
X62865000Y-73025000D02*
X61739700Y-73025000D01*
X61739700Y-73025000D02*
X60614400Y-71899700D01*
X60614400Y-71899700D02*
X47970600Y-71899700D01*
X47970600Y-71899700D02*
X46845300Y-73025000D01*
X67800300Y-69215000D02*
X63990300Y-73025000D01*
X82550000Y-69215000D02*
X67800300Y-69215000D01*
X63990300Y-73025000D02*
X62865000Y-73025000D01*
X94615000Y-57150000D02*
X82550000Y-69215000D01*
G04 #@! TO.N,Net-(BAR2-Pad6)*
X45720000Y-59690000D02*
X46845300Y-59690000D01*
X79375000Y-57197300D02*
X78007600Y-58564700D01*
X78007600Y-58564700D02*
X47970600Y-58564700D01*
X47970600Y-58564700D02*
X46845300Y-59690000D01*
X79375000Y-57785000D02*
X79375000Y-57197300D01*
X86995000Y-46990000D02*
X86195001Y-47789999D01*
X86195001Y-47789999D02*
X86195001Y-48687299D01*
X79375000Y-57785000D02*
X81669300Y-55490700D01*
X81669300Y-55490700D02*
X81669300Y-53213000D01*
X86195001Y-48687299D02*
X81669300Y-53213000D01*
G04 #@! TO.N,DATA_BUS4*
X89270400Y-79286600D02*
X93168800Y-83185000D01*
X93168800Y-83185000D02*
X93489700Y-83185000D01*
X89270400Y-79286600D02*
X77785000Y-79286600D01*
X77785000Y-79286600D02*
X74063400Y-75565000D01*
X74063400Y-75565000D02*
X70485000Y-75565000D01*
X94615000Y-83185000D02*
X93489700Y-83185000D01*
X34830300Y-83185000D02*
X38533200Y-79482100D01*
X38533200Y-79482100D02*
X48297600Y-79482100D01*
X48297600Y-79482100D02*
X52214700Y-75565000D01*
X69359700Y-75565000D02*
X69262600Y-75467900D01*
X69262600Y-75467900D02*
X65265700Y-75467900D01*
X65265700Y-75467900D02*
X64043300Y-76690300D01*
X64043300Y-76690300D02*
X55590600Y-76690300D01*
X55590600Y-76690300D02*
X54465300Y-75565000D01*
X53340000Y-75565000D02*
X54465300Y-75565000D01*
X70485000Y-75565000D02*
X69359700Y-75565000D01*
X53340000Y-75565000D02*
X52214700Y-75565000D01*
X33655000Y-83185000D02*
X34830300Y-83185000D01*
X89270400Y-74184600D02*
X89270400Y-79286600D01*
X94615000Y-54610000D02*
X95740300Y-55735300D01*
X95740300Y-68465300D02*
X94990600Y-69215000D01*
X94990600Y-69215000D02*
X94240000Y-69215000D01*
X95740300Y-55735300D02*
X95740300Y-68465300D01*
X94240000Y-69215000D02*
X89270400Y-74184600D01*
G04 #@! TO.N,DATA_BUS3*
X70485000Y-64770000D02*
X69359700Y-64770000D01*
X53340000Y-64770000D02*
X54465300Y-64770000D01*
X54465300Y-64770000D02*
X55590600Y-65895300D01*
X55590600Y-65895300D02*
X68234400Y-65895300D01*
X68234400Y-65895300D02*
X69359700Y-64770000D01*
X34830300Y-80645000D02*
X50705300Y-64770000D01*
X50705300Y-64770000D02*
X53340000Y-64770000D01*
X33655000Y-80645000D02*
X34830300Y-80645000D01*
X71610300Y-64770000D02*
X70485000Y-64770000D01*
X81775200Y-61563700D02*
X74816600Y-61563700D01*
X84918900Y-58420000D02*
X81775200Y-61563700D01*
X86360000Y-58420000D02*
X84918900Y-58420000D01*
X86487000Y-58293000D02*
X86360000Y-58420000D01*
X88392000Y-58293000D02*
X86487000Y-58293000D01*
X74816600Y-61563700D02*
X71610300Y-64770000D01*
X94615000Y-52070000D02*
X88392000Y-58293000D01*
G04 #@! TO.N,Net-(BAR2-Pad4)*
X45720000Y-78105000D02*
X44594700Y-76979700D01*
X44594700Y-72082200D02*
X50292400Y-66384500D01*
X44594700Y-76979700D02*
X44594700Y-72082200D01*
X50292400Y-66384500D02*
X74680200Y-66384500D01*
X78199700Y-62865000D02*
X79375000Y-62865000D01*
X74680200Y-66384500D02*
X78199700Y-62865000D01*
G04 #@! TO.N,DATA_BUS2*
X34830300Y-78105000D02*
X50705300Y-62230000D01*
X50705300Y-62230000D02*
X53340000Y-62230000D01*
X70485000Y-62230000D02*
X71610300Y-62230000D01*
X84429700Y-55880000D02*
X81254700Y-59055000D01*
X81254700Y-59055000D02*
X74785300Y-59055000D01*
X74785300Y-59055000D02*
X71610300Y-62230000D01*
X53340000Y-62230000D02*
X54465300Y-62230000D01*
X70485000Y-62230000D02*
X69359700Y-62230000D01*
X69359700Y-62230000D02*
X68234400Y-63355300D01*
X68234400Y-63355300D02*
X55590600Y-63355300D01*
X55590600Y-63355300D02*
X54465300Y-62230000D01*
X33655000Y-78105000D02*
X34830300Y-78105000D01*
X85869999Y-55735001D02*
X85725000Y-55880000D01*
X94615000Y-49530000D02*
X88409999Y-55735001D01*
X88409999Y-55735001D02*
X85869999Y-55735001D01*
X85725000Y-55880000D02*
X84429700Y-55880000D01*
G04 #@! TO.N,Net-(BAR2-Pad3)*
X79375000Y-65405000D02*
X78199700Y-65405000D01*
X78199700Y-65405000D02*
X76769700Y-66835000D01*
X76769700Y-66835000D02*
X51933300Y-66835000D01*
X51933300Y-66835000D02*
X47451800Y-71316500D01*
G04 #@! TO.N,DATA_BUS1*
X46845300Y-46990000D02*
X47488200Y-46990000D01*
X47488200Y-46990000D02*
X48613500Y-45864700D01*
X48613500Y-45864700D02*
X60614400Y-45864700D01*
X60614400Y-45864700D02*
X61739700Y-46990000D01*
X45720000Y-46990000D02*
X46845300Y-46990000D01*
X62865000Y-46990000D02*
X61739700Y-46990000D01*
X63990300Y-46990000D02*
X62865000Y-46990000D01*
X95744500Y-45860500D02*
X95744500Y-38888500D01*
X95744500Y-38888500D02*
X95086400Y-38230400D01*
X94615000Y-46990000D02*
X95744500Y-45860500D01*
X72749900Y-38230400D02*
X63990300Y-46990000D01*
X95086400Y-38230400D02*
X72749900Y-38230400D01*
G04 #@! TO.N,Net-(BAR2-Pad2)*
X79375000Y-67945000D02*
X78199700Y-67945000D01*
X78199700Y-67945000D02*
X54137900Y-67945000D01*
X54137900Y-67945000D02*
X51309600Y-70773300D01*
G04 #@! TO.N,DATA_BUS0*
X70485000Y-49530000D02*
X71610300Y-49530000D01*
X94615000Y-44450000D02*
X93489700Y-44450000D01*
X93489700Y-44450000D02*
X89803600Y-40763900D01*
X89803600Y-40763900D02*
X80376400Y-40763900D01*
X80376400Y-40763900D02*
X71610300Y-49530000D01*
X49276900Y-62178400D02*
X49276900Y-62810700D01*
X49276900Y-62810700D02*
X39062600Y-73025000D01*
X39062600Y-73025000D02*
X33655000Y-73025000D01*
X53340000Y-49530000D02*
X54465300Y-49530000D01*
X70485000Y-49530000D02*
X69359700Y-49530000D01*
X69359700Y-49530000D02*
X68234400Y-50655300D01*
X68234400Y-50655300D02*
X55590600Y-50655300D01*
X55590600Y-50655300D02*
X54465300Y-49530000D01*
G04 #@! TO.N,~PC_H_OUT*
X33655000Y-70485000D02*
X32479700Y-71660300D01*
X32479700Y-71660300D02*
X32479700Y-91297200D01*
X32479700Y-91297200D02*
X33613900Y-92431400D01*
X33613900Y-92431400D02*
X94586300Y-92431400D01*
X94586300Y-92431400D02*
X95741100Y-91276600D01*
X95740001Y-74166901D02*
X95741100Y-74168000D01*
X95740001Y-71610001D02*
X95740001Y-74166901D01*
X94615000Y-70485000D02*
X95740001Y-71610001D01*
X95741100Y-91276600D02*
X95741100Y-74168000D01*
G04 #@! TO.N,Net-(BAR1-Pad3)*
X62865000Y-88265000D02*
X63990300Y-88265000D01*
X79375000Y-90805000D02*
X78199700Y-90805000D01*
X63990300Y-88265000D02*
X65115600Y-89390300D01*
X65115600Y-89390300D02*
X76785000Y-89390300D01*
X76785000Y-89390300D02*
X78199700Y-90805000D01*
G04 #@! TO.N,Net-(BAR1-Pad4)*
X79375000Y-88265000D02*
X78199700Y-88265000D01*
X78199700Y-88265000D02*
X77024400Y-87089700D01*
X77024400Y-87089700D02*
X69760000Y-87089700D01*
X69760000Y-87089700D02*
X68395300Y-85725000D01*
X68395300Y-85725000D02*
X62865000Y-85725000D01*
G04 #@! TO.N,Net-(BAR1-Pad5)*
X85869700Y-83185000D02*
X83329700Y-85725000D01*
X83329700Y-85725000D02*
X79375000Y-85725000D01*
X86995000Y-83185000D02*
X85869700Y-83185000D01*
G04 #@! TO.N,Net-(BAR1-Pad6)*
X85869700Y-80645000D02*
X83329700Y-83185000D01*
X83329700Y-83185000D02*
X79375000Y-83185000D01*
X86995000Y-80645000D02*
X85869700Y-80645000D01*
X63996370Y-78105000D02*
X65024000Y-79132630D01*
X62865000Y-78105000D02*
X63996370Y-78105000D01*
X65024000Y-79132630D02*
X65024000Y-83439000D01*
X65024000Y-83439000D02*
X66040000Y-84455000D01*
X78105000Y-84455000D02*
X79375000Y-83185000D01*
X66040000Y-84455000D02*
X78105000Y-84455000D01*
G04 #@! TO.N,Net-(BAR1-Pad7)*
X79375000Y-80645000D02*
X77096400Y-80645000D01*
X77096400Y-80645000D02*
X73141800Y-76690400D01*
X73141800Y-76690400D02*
X67079400Y-76690400D01*
X67079400Y-76690400D02*
X66582200Y-76193200D01*
G04 #@! TO.N,Net-(BAR1-Pad8)*
X79375000Y-78105000D02*
X78199700Y-78105000D01*
X78199700Y-78105000D02*
X74245000Y-74150300D01*
X74245000Y-74150300D02*
X68572000Y-74150300D01*
X68572000Y-74150300D02*
X68162700Y-73741000D01*
X85869700Y-75565000D02*
X83329700Y-78105000D01*
X83329700Y-78105000D02*
X79375000Y-78105000D01*
X86995000Y-75565000D02*
X85869700Y-75565000D01*
G04 #@! TO.N,Net-(BAR1-Pad9)*
X85869700Y-73025000D02*
X83329700Y-75565000D01*
X83329700Y-75565000D02*
X79375000Y-75565000D01*
X86995000Y-73025000D02*
X85869700Y-73025000D01*
G04 #@! TO.N,Net-(BAR1-Pad10)*
X86995000Y-70485000D02*
X85869700Y-70485000D01*
X85869700Y-70485000D02*
X83329700Y-73025000D01*
X83329700Y-73025000D02*
X79375000Y-73025000D01*
G04 #@! TO.N,~PC_L_LOAD*
X33655000Y-62865000D02*
X34830300Y-62865000D01*
X53340000Y-59690000D02*
X48932500Y-59690000D01*
X48932500Y-59690000D02*
X47662500Y-60960000D01*
X47662500Y-60960000D02*
X36735300Y-60960000D01*
X36735300Y-60960000D02*
X34830300Y-62865000D01*
G04 #@! TO.N,~CLK_EN*
X62865000Y-54610000D02*
X61739700Y-54610000D01*
X55320100Y-54279800D02*
X61409500Y-54279800D01*
X61409500Y-54279800D02*
X61739700Y-54610000D01*
X62865000Y-80645000D02*
X61739700Y-80645000D01*
X45720000Y-80645000D02*
X46845300Y-80645000D01*
X46845300Y-80645000D02*
X47970600Y-81770300D01*
X47970600Y-81770300D02*
X60614400Y-81770300D01*
X60614400Y-81770300D02*
X61739700Y-80645000D01*
G04 #@! TO.N,DOWN_~UP*
X45720000Y-57150000D02*
X44594700Y-57150000D01*
X45720000Y-57150000D02*
X46845300Y-57150000D01*
X46845300Y-57150000D02*
X47970600Y-56024700D01*
X47970600Y-56024700D02*
X60614400Y-56024700D01*
X60614400Y-56024700D02*
X61739700Y-57150000D01*
X44594700Y-57150000D02*
X44025000Y-56580300D01*
X44025000Y-56580300D02*
X33324600Y-56580300D01*
X33324600Y-56580300D02*
X32431400Y-55687100D01*
X62865000Y-57150000D02*
X61739700Y-57150000D01*
X33655000Y-33655000D02*
X33655000Y-34217600D01*
X62865000Y-83185000D02*
X61739700Y-83185000D01*
X45720000Y-83185000D02*
X46845300Y-83185000D01*
X46845300Y-83185000D02*
X47970600Y-84310300D01*
X47970600Y-84310300D02*
X60614400Y-84310300D01*
X60614400Y-84310300D02*
X61739700Y-83185000D01*
X32529700Y-24620300D02*
X32529700Y-33092300D01*
X32529700Y-33092300D02*
X33655000Y-34217600D01*
X33655000Y-23495000D02*
X32529700Y-24620300D01*
X33655000Y-33655000D02*
X32431400Y-34878600D01*
X32431400Y-34878600D02*
X32431400Y-36068000D01*
X32431400Y-55687100D02*
X32431400Y-36068000D01*
X32431400Y-36068000D02*
X32431400Y-35722600D01*
G04 #@! TO.N,CLOCK*
X53340000Y-52070000D02*
X52214700Y-52070000D01*
X33655000Y-55245000D02*
X34830300Y-55245000D01*
X34830300Y-55245000D02*
X39130600Y-50944700D01*
X39130600Y-50944700D02*
X51089400Y-50944700D01*
X51089400Y-50944700D02*
X52214700Y-52070000D01*
G04 #@! TO.N,Net-(U3-Pad13)*
X53340000Y-80645000D02*
X60469000Y-80645000D01*
X60469000Y-80645000D02*
X61739000Y-79375000D01*
G04 #@! TO.N,~PC_H_LOAD*
X69359700Y-59690000D02*
X68234400Y-60815300D01*
X68234400Y-60815300D02*
X49614300Y-60815300D01*
X49614300Y-60815300D02*
X47074200Y-63355400D01*
X47074200Y-63355400D02*
X36879900Y-63355400D01*
X36879900Y-63355400D02*
X34830300Y-65405000D01*
X33655000Y-65405000D02*
X34830300Y-65405000D01*
X70485000Y-59690000D02*
X69359700Y-59690000D01*
G04 #@! TO.N,PC_DEC*
X33655000Y-36195000D02*
X41275000Y-36195000D01*
G04 #@! TD*
D19*
G04 #@! TO.N,GND*
G36*
X100255001Y-96445000D02*
X28015000Y-96445000D01*
X28015000Y-34878600D01*
X31656512Y-34878600D01*
X31671400Y-34953447D01*
X31671401Y-35647745D01*
X31671400Y-35647748D01*
X31671400Y-36142851D01*
X31671401Y-36142856D01*
X31671400Y-55612253D01*
X31656512Y-55687100D01*
X31671400Y-55761947D01*
X31671400Y-55761951D01*
X31715496Y-55983636D01*
X31883471Y-56235029D01*
X31946930Y-56277431D01*
X32504065Y-56834567D01*
X32256161Y-57205582D01*
X32140908Y-57785000D01*
X32256161Y-58364418D01*
X32584375Y-58855625D01*
X32882761Y-59055000D01*
X32584375Y-59254375D01*
X32256161Y-59745582D01*
X32140908Y-60325000D01*
X32256161Y-60904418D01*
X32584375Y-61395625D01*
X32882761Y-61595000D01*
X32584375Y-61794375D01*
X32256161Y-62285582D01*
X32140908Y-62865000D01*
X32256161Y-63444418D01*
X32584375Y-63935625D01*
X32882761Y-64135000D01*
X32584375Y-64334375D01*
X32256161Y-64825582D01*
X32140908Y-65405000D01*
X32256161Y-65984418D01*
X32584375Y-66475625D01*
X32882761Y-66675000D01*
X32584375Y-66874375D01*
X32256161Y-67365582D01*
X32140908Y-67945000D01*
X32256161Y-68524418D01*
X32584375Y-69015625D01*
X32882761Y-69215000D01*
X32584375Y-69414375D01*
X32256161Y-69905582D01*
X32140908Y-70485000D01*
X32213791Y-70851408D01*
X31995230Y-71069969D01*
X31931771Y-71112371D01*
X31763796Y-71363764D01*
X31719700Y-71585449D01*
X31719700Y-71585453D01*
X31704812Y-71660300D01*
X31719700Y-71735147D01*
X31719701Y-91222348D01*
X31704812Y-91297200D01*
X31763797Y-91593737D01*
X31824418Y-91684462D01*
X31931772Y-91845129D01*
X31995228Y-91887529D01*
X33023571Y-92915873D01*
X33065971Y-92979329D01*
X33317363Y-93147304D01*
X33539048Y-93191400D01*
X33539052Y-93191400D01*
X33613899Y-93206288D01*
X33688746Y-93191400D01*
X94511453Y-93191400D01*
X94586300Y-93206288D01*
X94661147Y-93191400D01*
X94661152Y-93191400D01*
X94882837Y-93147304D01*
X95134229Y-92979329D01*
X95176631Y-92915870D01*
X96225573Y-91866929D01*
X96289029Y-91824529D01*
X96361883Y-91715496D01*
X96457004Y-91573138D01*
X96467394Y-91520903D01*
X96501100Y-91351452D01*
X96501100Y-91351448D01*
X96515988Y-91276600D01*
X96501100Y-91201752D01*
X96501100Y-74242846D01*
X96515988Y-74167999D01*
X96501100Y-74093152D01*
X96501100Y-74093148D01*
X96500001Y-74087623D01*
X96500001Y-71684849D01*
X96514889Y-71610001D01*
X96500001Y-71535153D01*
X96500001Y-71535149D01*
X96455905Y-71313464D01*
X96455905Y-71313463D01*
X96330330Y-71125528D01*
X96287930Y-71062072D01*
X96224474Y-71019672D01*
X96013688Y-70808886D01*
X96078113Y-70485000D01*
X95966740Y-69925091D01*
X95721836Y-69558566D01*
X96224773Y-69055629D01*
X96288229Y-69013229D01*
X96456204Y-68761837D01*
X96500300Y-68540152D01*
X96500300Y-68540147D01*
X96515188Y-68465300D01*
X96500300Y-68390453D01*
X96500300Y-55810148D01*
X96515188Y-55735300D01*
X96500300Y-55660452D01*
X96500300Y-55660448D01*
X96456204Y-55438763D01*
X96288229Y-55187371D01*
X96224773Y-55144971D01*
X96013688Y-54933886D01*
X96078113Y-54610000D01*
X95966740Y-54050091D01*
X95649577Y-53575423D01*
X95297242Y-53340000D01*
X95649577Y-53104577D01*
X95966740Y-52629909D01*
X96078113Y-52070000D01*
X95966740Y-51510091D01*
X95649577Y-51035423D01*
X95297242Y-50800000D01*
X95649577Y-50564577D01*
X95966740Y-50089909D01*
X96078113Y-49530000D01*
X95966740Y-48970091D01*
X95649577Y-48495423D01*
X95297242Y-48260000D01*
X95649577Y-48024577D01*
X95966740Y-47549909D01*
X96078113Y-46990000D01*
X96013688Y-46666114D01*
X96228973Y-46450829D01*
X96292429Y-46408429D01*
X96460404Y-46157037D01*
X96504500Y-45935352D01*
X96504500Y-45935348D01*
X96519388Y-45860501D01*
X96504500Y-45785654D01*
X96504500Y-38963347D01*
X96519388Y-38888500D01*
X96504500Y-38813653D01*
X96504500Y-38813648D01*
X96460404Y-38591963D01*
X96292429Y-38340571D01*
X96228973Y-38298171D01*
X95676731Y-37745930D01*
X95634329Y-37682471D01*
X95382937Y-37514496D01*
X95161252Y-37470400D01*
X95161247Y-37470400D01*
X95086400Y-37455512D01*
X95011553Y-37470400D01*
X85516371Y-37470400D01*
X85604029Y-37411829D01*
X85646431Y-37348370D01*
X86491379Y-36503423D01*
X86666596Y-36576000D01*
X87323404Y-36576000D01*
X87930216Y-36324650D01*
X88265000Y-35989866D01*
X88599784Y-36324650D01*
X89206596Y-36576000D01*
X89863404Y-36576000D01*
X90470216Y-36324650D01*
X90805000Y-35989866D01*
X91139784Y-36324650D01*
X91746596Y-36576000D01*
X92403404Y-36576000D01*
X93010216Y-36324650D01*
X93345000Y-35989866D01*
X93679784Y-36324650D01*
X94286596Y-36576000D01*
X94943404Y-36576000D01*
X95550216Y-36324650D01*
X96014650Y-35860216D01*
X96266000Y-35253404D01*
X96266000Y-34596596D01*
X96014650Y-33989784D01*
X95550216Y-33525350D01*
X94943404Y-33274000D01*
X94286596Y-33274000D01*
X93679784Y-33525350D01*
X93345000Y-33860134D01*
X93010216Y-33525350D01*
X92403404Y-33274000D01*
X91746596Y-33274000D01*
X91139784Y-33525350D01*
X90805000Y-33860134D01*
X90470216Y-33525350D01*
X89863404Y-33274000D01*
X89206596Y-33274000D01*
X88599784Y-33525350D01*
X88265000Y-33860134D01*
X87930216Y-33525350D01*
X87323404Y-33274000D01*
X86666596Y-33274000D01*
X86059784Y-33525350D01*
X85725000Y-33860134D01*
X85390216Y-33525350D01*
X84783404Y-33274000D01*
X84126596Y-33274000D01*
X83519784Y-33525350D01*
X83185000Y-33860134D01*
X82850216Y-33525350D01*
X82243404Y-33274000D01*
X81586596Y-33274000D01*
X80979784Y-33525350D01*
X80645000Y-33860134D01*
X80310216Y-33525350D01*
X79703404Y-33274000D01*
X79046596Y-33274000D01*
X78439784Y-33525350D01*
X78105000Y-33860134D01*
X77770216Y-33525350D01*
X77163404Y-33274000D01*
X76506596Y-33274000D01*
X75899784Y-33525350D01*
X75565000Y-33860134D01*
X75230216Y-33525350D01*
X74623404Y-33274000D01*
X73966596Y-33274000D01*
X73359784Y-33525350D01*
X73310975Y-33574159D01*
X73228809Y-33451191D01*
X73018765Y-33310843D01*
X72771000Y-33261560D01*
X70739000Y-33261560D01*
X70491235Y-33310843D01*
X70281191Y-33451191D01*
X70140843Y-33661235D01*
X70091560Y-33909000D01*
X70091560Y-34259958D01*
X69979650Y-33989784D01*
X69515216Y-33525350D01*
X68908404Y-33274000D01*
X68251596Y-33274000D01*
X67644784Y-33525350D01*
X67310000Y-33860134D01*
X66975216Y-33525350D01*
X66368404Y-33274000D01*
X65711596Y-33274000D01*
X65104784Y-33525350D01*
X64770000Y-33860134D01*
X64435216Y-33525350D01*
X63828404Y-33274000D01*
X63171596Y-33274000D01*
X62564784Y-33525350D01*
X62230000Y-33860134D01*
X61895216Y-33525350D01*
X61288404Y-33274000D01*
X60631596Y-33274000D01*
X60024784Y-33525350D01*
X59690000Y-33860134D01*
X59355216Y-33525350D01*
X58748404Y-33274000D01*
X58091596Y-33274000D01*
X57484784Y-33525350D01*
X57150000Y-33860134D01*
X56815216Y-33525350D01*
X56208404Y-33274000D01*
X55551596Y-33274000D01*
X54944784Y-33525350D01*
X54610000Y-33860134D01*
X54275216Y-33525350D01*
X53668404Y-33274000D01*
X53011596Y-33274000D01*
X52404784Y-33525350D01*
X52070000Y-33860134D01*
X51735216Y-33525350D01*
X51128404Y-33274000D01*
X50471596Y-33274000D01*
X49864784Y-33525350D01*
X49530000Y-33860134D01*
X49195216Y-33525350D01*
X48588404Y-33274000D01*
X47931596Y-33274000D01*
X47324784Y-33525350D01*
X47275975Y-33574159D01*
X47193809Y-33451191D01*
X46983765Y-33310843D01*
X46736000Y-33261560D01*
X44704000Y-33261560D01*
X44456235Y-33310843D01*
X44246191Y-33451191D01*
X44105843Y-33661235D01*
X44056560Y-33909000D01*
X44056560Y-35941000D01*
X44105843Y-36188765D01*
X44246191Y-36398809D01*
X44456235Y-36539157D01*
X44704000Y-36588440D01*
X46736000Y-36588440D01*
X46983765Y-36539157D01*
X47193809Y-36398809D01*
X47275975Y-36275841D01*
X47324784Y-36324650D01*
X47931596Y-36576000D01*
X48588404Y-36576000D01*
X49195216Y-36324650D01*
X49530000Y-35989866D01*
X49864784Y-36324650D01*
X50471596Y-36576000D01*
X51128404Y-36576000D01*
X51735216Y-36324650D01*
X52070000Y-35989866D01*
X52404784Y-36324650D01*
X53011596Y-36576000D01*
X53668404Y-36576000D01*
X54275216Y-36324650D01*
X54610000Y-35989866D01*
X54944784Y-36324650D01*
X55551596Y-36576000D01*
X55801597Y-36576000D01*
X47166499Y-45211100D01*
X47000426Y-45211100D01*
X46620020Y-45368669D01*
X46446129Y-45542560D01*
X44920000Y-45542560D01*
X44672235Y-45591843D01*
X44462191Y-45732191D01*
X44321843Y-45942235D01*
X44272560Y-46190000D01*
X44272560Y-47355400D01*
X43270200Y-47355400D01*
X43270200Y-26976596D01*
X44069000Y-26976596D01*
X44069000Y-27633404D01*
X44320350Y-28240216D01*
X44784784Y-28704650D01*
X45391596Y-28956000D01*
X46048404Y-28956000D01*
X46655216Y-28704650D01*
X46990000Y-28369866D01*
X47324784Y-28704650D01*
X47931596Y-28956000D01*
X48588404Y-28956000D01*
X49195216Y-28704650D01*
X49530000Y-28369866D01*
X49864784Y-28704650D01*
X50471596Y-28956000D01*
X51128404Y-28956000D01*
X51735216Y-28704650D01*
X52070000Y-28369866D01*
X52404784Y-28704650D01*
X53011596Y-28956000D01*
X53668404Y-28956000D01*
X54275216Y-28704650D01*
X54610000Y-28369866D01*
X54944784Y-28704650D01*
X55551596Y-28956000D01*
X56208404Y-28956000D01*
X56815216Y-28704650D01*
X57150000Y-28369866D01*
X57484784Y-28704650D01*
X58091596Y-28956000D01*
X58748404Y-28956000D01*
X59355216Y-28704650D01*
X59690000Y-28369866D01*
X60024784Y-28704650D01*
X60631596Y-28956000D01*
X61288404Y-28956000D01*
X61895216Y-28704650D01*
X62230000Y-28369866D01*
X62564784Y-28704650D01*
X63171596Y-28956000D01*
X63828404Y-28956000D01*
X64435216Y-28704650D01*
X64770000Y-28369866D01*
X65104784Y-28704650D01*
X65711596Y-28956000D01*
X66368404Y-28956000D01*
X66975216Y-28704650D01*
X67310000Y-28369866D01*
X67644784Y-28704650D01*
X68251596Y-28956000D01*
X68908404Y-28956000D01*
X69515216Y-28704650D01*
X69979650Y-28240216D01*
X70167500Y-27786706D01*
X70355350Y-28240216D01*
X70819784Y-28704650D01*
X71426596Y-28956000D01*
X72083404Y-28956000D01*
X72690216Y-28704650D01*
X73025000Y-28369866D01*
X73359784Y-28704650D01*
X73966596Y-28956000D01*
X74623404Y-28956000D01*
X75230216Y-28704650D01*
X75565000Y-28369866D01*
X75899784Y-28704650D01*
X76506596Y-28956000D01*
X77163404Y-28956000D01*
X77770216Y-28704650D01*
X78105000Y-28369866D01*
X78439784Y-28704650D01*
X79046596Y-28956000D01*
X79703404Y-28956000D01*
X80310216Y-28704650D01*
X80645000Y-28369866D01*
X80979784Y-28704650D01*
X81586596Y-28956000D01*
X82243404Y-28956000D01*
X82850216Y-28704650D01*
X83185000Y-28369866D01*
X83519784Y-28704650D01*
X84126596Y-28956000D01*
X84783404Y-28956000D01*
X85390216Y-28704650D01*
X85725000Y-28369866D01*
X86059784Y-28704650D01*
X86666596Y-28956000D01*
X87323404Y-28956000D01*
X87930216Y-28704650D01*
X88265000Y-28369866D01*
X88599784Y-28704650D01*
X89206596Y-28956000D01*
X89863404Y-28956000D01*
X90470216Y-28704650D01*
X90805000Y-28369866D01*
X91139784Y-28704650D01*
X91746596Y-28956000D01*
X92403404Y-28956000D01*
X93010216Y-28704650D01*
X93345000Y-28369866D01*
X93679784Y-28704650D01*
X94286596Y-28956000D01*
X94943404Y-28956000D01*
X95550216Y-28704650D01*
X96014650Y-28240216D01*
X96266000Y-27633404D01*
X96266000Y-26976596D01*
X96014650Y-26369784D01*
X95550216Y-25905350D01*
X94943404Y-25654000D01*
X94286596Y-25654000D01*
X93679784Y-25905350D01*
X93345000Y-26240134D01*
X93010216Y-25905350D01*
X92403404Y-25654000D01*
X91746596Y-25654000D01*
X91139784Y-25905350D01*
X90805000Y-26240134D01*
X90470216Y-25905350D01*
X89863404Y-25654000D01*
X89206596Y-25654000D01*
X88599784Y-25905350D01*
X88265000Y-26240134D01*
X87930216Y-25905350D01*
X87323404Y-25654000D01*
X86666596Y-25654000D01*
X86059784Y-25905350D01*
X85725000Y-26240134D01*
X85390216Y-25905350D01*
X84783404Y-25654000D01*
X84126596Y-25654000D01*
X83519784Y-25905350D01*
X83185000Y-26240134D01*
X82850216Y-25905350D01*
X82243404Y-25654000D01*
X81586596Y-25654000D01*
X80979784Y-25905350D01*
X80645000Y-26240134D01*
X80310216Y-25905350D01*
X79703404Y-25654000D01*
X79046596Y-25654000D01*
X78439784Y-25905350D01*
X78105000Y-26240134D01*
X77770216Y-25905350D01*
X77163404Y-25654000D01*
X76506596Y-25654000D01*
X75899784Y-25905350D01*
X75565000Y-26240134D01*
X75230216Y-25905350D01*
X74623404Y-25654000D01*
X73966596Y-25654000D01*
X73359784Y-25905350D01*
X73025000Y-26240134D01*
X72690216Y-25905350D01*
X72083404Y-25654000D01*
X71426596Y-25654000D01*
X70819784Y-25905350D01*
X70355350Y-26369784D01*
X70167500Y-26823294D01*
X69979650Y-26369784D01*
X69515216Y-25905350D01*
X68908404Y-25654000D01*
X68251596Y-25654000D01*
X67644784Y-25905350D01*
X67310000Y-26240134D01*
X66975216Y-25905350D01*
X66368404Y-25654000D01*
X65711596Y-25654000D01*
X65104784Y-25905350D01*
X64770000Y-26240134D01*
X64435216Y-25905350D01*
X63828404Y-25654000D01*
X63171596Y-25654000D01*
X62564784Y-25905350D01*
X62230000Y-26240134D01*
X61895216Y-25905350D01*
X61288404Y-25654000D01*
X60631596Y-25654000D01*
X60024784Y-25905350D01*
X59690000Y-26240134D01*
X59355216Y-25905350D01*
X58748404Y-25654000D01*
X58091596Y-25654000D01*
X57484784Y-25905350D01*
X57150000Y-26240134D01*
X56815216Y-25905350D01*
X56208404Y-25654000D01*
X55551596Y-25654000D01*
X54944784Y-25905350D01*
X54610000Y-26240134D01*
X54275216Y-25905350D01*
X53668404Y-25654000D01*
X53011596Y-25654000D01*
X52404784Y-25905350D01*
X52070000Y-26240134D01*
X51735216Y-25905350D01*
X51128404Y-25654000D01*
X50471596Y-25654000D01*
X49864784Y-25905350D01*
X49530000Y-26240134D01*
X49195216Y-25905350D01*
X48588404Y-25654000D01*
X47931596Y-25654000D01*
X47324784Y-25905350D01*
X46990000Y-26240134D01*
X46655216Y-25905350D01*
X46048404Y-25654000D01*
X45391596Y-25654000D01*
X44784784Y-25905350D01*
X44320350Y-26369784D01*
X44069000Y-26976596D01*
X43270200Y-26976596D01*
X43270200Y-24759973D01*
X43286068Y-24680200D01*
X43259264Y-24545448D01*
X43223203Y-24364154D01*
X43044177Y-24096223D01*
X42976547Y-24051034D01*
X42706263Y-23780750D01*
X44285000Y-23780750D01*
X44285000Y-24421310D01*
X44381673Y-24654699D01*
X44560302Y-24833327D01*
X44793691Y-24930000D01*
X45434250Y-24930000D01*
X45593000Y-24771250D01*
X45593000Y-23622000D01*
X44443750Y-23622000D01*
X44285000Y-23780750D01*
X42706263Y-23780750D01*
X42685420Y-23759907D01*
X42738113Y-23495000D01*
X42626740Y-22935091D01*
X42381919Y-22568690D01*
X44285000Y-22568690D01*
X44285000Y-23209250D01*
X44443750Y-23368000D01*
X45593000Y-23368000D01*
X45593000Y-22218750D01*
X45847000Y-22218750D01*
X45847000Y-23368000D01*
X45867000Y-23368000D01*
X45867000Y-23622000D01*
X45847000Y-23622000D01*
X45847000Y-24771250D01*
X46005750Y-24930000D01*
X46646309Y-24930000D01*
X46879698Y-24833327D01*
X47058327Y-24654699D01*
X47154266Y-24423083D01*
X47225423Y-24529577D01*
X47700091Y-24846740D01*
X48118667Y-24930000D01*
X48401333Y-24930000D01*
X48819909Y-24846740D01*
X49294577Y-24529577D01*
X49530000Y-24177242D01*
X49765423Y-24529577D01*
X50240091Y-24846740D01*
X50658667Y-24930000D01*
X50941333Y-24930000D01*
X51359909Y-24846740D01*
X51834577Y-24529577D01*
X52070000Y-24177242D01*
X52305423Y-24529577D01*
X52780091Y-24846740D01*
X53198667Y-24930000D01*
X53481333Y-24930000D01*
X53899909Y-24846740D01*
X54374577Y-24529577D01*
X54610000Y-24177242D01*
X54845423Y-24529577D01*
X55320091Y-24846740D01*
X55738667Y-24930000D01*
X56021333Y-24930000D01*
X56439909Y-24846740D01*
X56914577Y-24529577D01*
X57150000Y-24177242D01*
X57385423Y-24529577D01*
X57860091Y-24846740D01*
X58278667Y-24930000D01*
X58561333Y-24930000D01*
X58979909Y-24846740D01*
X59454577Y-24529577D01*
X59690000Y-24177242D01*
X59925423Y-24529577D01*
X60400091Y-24846740D01*
X60818667Y-24930000D01*
X61101333Y-24930000D01*
X61519909Y-24846740D01*
X61994577Y-24529577D01*
X62230000Y-24177242D01*
X62465423Y-24529577D01*
X62940091Y-24846740D01*
X63358667Y-24930000D01*
X63641333Y-24930000D01*
X64059909Y-24846740D01*
X64534577Y-24529577D01*
X64770000Y-24177242D01*
X65005423Y-24529577D01*
X65480091Y-24846740D01*
X65898667Y-24930000D01*
X66181333Y-24930000D01*
X66599909Y-24846740D01*
X67074577Y-24529577D01*
X67391740Y-24054909D01*
X67446273Y-23780750D01*
X67780000Y-23780750D01*
X67780000Y-24421310D01*
X67876673Y-24654699D01*
X68055302Y-24833327D01*
X68288691Y-24930000D01*
X68929250Y-24930000D01*
X69088000Y-24771250D01*
X69088000Y-23622000D01*
X67938750Y-23622000D01*
X67780000Y-23780750D01*
X67446273Y-23780750D01*
X67503113Y-23495000D01*
X67391740Y-22935091D01*
X67146919Y-22568690D01*
X67780000Y-22568690D01*
X67780000Y-23209250D01*
X67938750Y-23368000D01*
X69088000Y-23368000D01*
X69088000Y-22218750D01*
X69342000Y-22218750D01*
X69342000Y-23368000D01*
X69362000Y-23368000D01*
X69362000Y-23622000D01*
X69342000Y-23622000D01*
X69342000Y-24771250D01*
X69500750Y-24930000D01*
X70141309Y-24930000D01*
X70374698Y-24833327D01*
X70553327Y-24654699D01*
X70649266Y-24423083D01*
X70720423Y-24529577D01*
X71195091Y-24846740D01*
X71613667Y-24930000D01*
X71896333Y-24930000D01*
X72314909Y-24846740D01*
X72789577Y-24529577D01*
X73025000Y-24177242D01*
X73260423Y-24529577D01*
X73735091Y-24846740D01*
X74153667Y-24930000D01*
X74436333Y-24930000D01*
X74854909Y-24846740D01*
X75329577Y-24529577D01*
X75565000Y-24177242D01*
X75800423Y-24529577D01*
X76275091Y-24846740D01*
X76693667Y-24930000D01*
X76976333Y-24930000D01*
X77394909Y-24846740D01*
X77869577Y-24529577D01*
X78105000Y-24177242D01*
X78340423Y-24529577D01*
X78815091Y-24846740D01*
X79233667Y-24930000D01*
X79516333Y-24930000D01*
X79934909Y-24846740D01*
X80409577Y-24529577D01*
X80645000Y-24177242D01*
X80880423Y-24529577D01*
X81355091Y-24846740D01*
X81773667Y-24930000D01*
X82056333Y-24930000D01*
X82474909Y-24846740D01*
X82949577Y-24529577D01*
X83185000Y-24177242D01*
X83420423Y-24529577D01*
X83895091Y-24846740D01*
X84313667Y-24930000D01*
X84596333Y-24930000D01*
X85014909Y-24846740D01*
X85489577Y-24529577D01*
X85725000Y-24177242D01*
X85960423Y-24529577D01*
X86435091Y-24846740D01*
X86853667Y-24930000D01*
X87136333Y-24930000D01*
X87554909Y-24846740D01*
X88029577Y-24529577D01*
X88265000Y-24177242D01*
X88500423Y-24529577D01*
X88975091Y-24846740D01*
X89393667Y-24930000D01*
X89676333Y-24930000D01*
X90094909Y-24846740D01*
X90569577Y-24529577D01*
X90886740Y-24054909D01*
X90998113Y-23495000D01*
X90886740Y-22935091D01*
X90569577Y-22460423D01*
X90094909Y-22143260D01*
X89676333Y-22060000D01*
X89393667Y-22060000D01*
X88975091Y-22143260D01*
X88500423Y-22460423D01*
X88265000Y-22812758D01*
X88029577Y-22460423D01*
X87554909Y-22143260D01*
X87136333Y-22060000D01*
X86853667Y-22060000D01*
X86435091Y-22143260D01*
X85960423Y-22460423D01*
X85725000Y-22812758D01*
X85489577Y-22460423D01*
X85014909Y-22143260D01*
X84596333Y-22060000D01*
X84313667Y-22060000D01*
X83895091Y-22143260D01*
X83420423Y-22460423D01*
X83185000Y-22812758D01*
X82949577Y-22460423D01*
X82474909Y-22143260D01*
X82056333Y-22060000D01*
X81773667Y-22060000D01*
X81355091Y-22143260D01*
X80880423Y-22460423D01*
X80645000Y-22812758D01*
X80409577Y-22460423D01*
X79934909Y-22143260D01*
X79516333Y-22060000D01*
X79233667Y-22060000D01*
X78815091Y-22143260D01*
X78340423Y-22460423D01*
X78105000Y-22812758D01*
X77869577Y-22460423D01*
X77394909Y-22143260D01*
X76976333Y-22060000D01*
X76693667Y-22060000D01*
X76275091Y-22143260D01*
X75800423Y-22460423D01*
X75565000Y-22812758D01*
X75329577Y-22460423D01*
X74854909Y-22143260D01*
X74436333Y-22060000D01*
X74153667Y-22060000D01*
X73735091Y-22143260D01*
X73260423Y-22460423D01*
X73025000Y-22812758D01*
X72789577Y-22460423D01*
X72314909Y-22143260D01*
X71896333Y-22060000D01*
X71613667Y-22060000D01*
X71195091Y-22143260D01*
X70720423Y-22460423D01*
X70649266Y-22566917D01*
X70553327Y-22335301D01*
X70374698Y-22156673D01*
X70141309Y-22060000D01*
X69500750Y-22060000D01*
X69342000Y-22218750D01*
X69088000Y-22218750D01*
X68929250Y-22060000D01*
X68288691Y-22060000D01*
X68055302Y-22156673D01*
X67876673Y-22335301D01*
X67780000Y-22568690D01*
X67146919Y-22568690D01*
X67074577Y-22460423D01*
X66599909Y-22143260D01*
X66181333Y-22060000D01*
X65898667Y-22060000D01*
X65480091Y-22143260D01*
X65005423Y-22460423D01*
X64770000Y-22812758D01*
X64534577Y-22460423D01*
X64059909Y-22143260D01*
X63641333Y-22060000D01*
X63358667Y-22060000D01*
X62940091Y-22143260D01*
X62465423Y-22460423D01*
X62230000Y-22812758D01*
X61994577Y-22460423D01*
X61519909Y-22143260D01*
X61101333Y-22060000D01*
X60818667Y-22060000D01*
X60400091Y-22143260D01*
X59925423Y-22460423D01*
X59690000Y-22812758D01*
X59454577Y-22460423D01*
X58979909Y-22143260D01*
X58561333Y-22060000D01*
X58278667Y-22060000D01*
X57860091Y-22143260D01*
X57385423Y-22460423D01*
X57150000Y-22812758D01*
X56914577Y-22460423D01*
X56439909Y-22143260D01*
X56021333Y-22060000D01*
X55738667Y-22060000D01*
X55320091Y-22143260D01*
X54845423Y-22460423D01*
X54610000Y-22812758D01*
X54374577Y-22460423D01*
X53899909Y-22143260D01*
X53481333Y-22060000D01*
X53198667Y-22060000D01*
X52780091Y-22143260D01*
X52305423Y-22460423D01*
X52070000Y-22812758D01*
X51834577Y-22460423D01*
X51359909Y-22143260D01*
X50941333Y-22060000D01*
X50658667Y-22060000D01*
X50240091Y-22143260D01*
X49765423Y-22460423D01*
X49530000Y-22812758D01*
X49294577Y-22460423D01*
X48819909Y-22143260D01*
X48401333Y-22060000D01*
X48118667Y-22060000D01*
X47700091Y-22143260D01*
X47225423Y-22460423D01*
X47154266Y-22566917D01*
X47058327Y-22335301D01*
X46879698Y-22156673D01*
X46646309Y-22060000D01*
X46005750Y-22060000D01*
X45847000Y-22218750D01*
X45593000Y-22218750D01*
X45434250Y-22060000D01*
X44793691Y-22060000D01*
X44560302Y-22156673D01*
X44381673Y-22335301D01*
X44285000Y-22568690D01*
X42381919Y-22568690D01*
X42309577Y-22460423D01*
X41834909Y-22143260D01*
X41416333Y-22060000D01*
X41133667Y-22060000D01*
X40715091Y-22143260D01*
X40240423Y-22460423D01*
X39923260Y-22935091D01*
X39811887Y-23495000D01*
X39923260Y-24054909D01*
X40240423Y-24529577D01*
X40592758Y-24765000D01*
X40240423Y-25000423D01*
X39923260Y-25475091D01*
X39811887Y-26035000D01*
X39923260Y-26594909D01*
X40240423Y-27069577D01*
X40592758Y-27305000D01*
X40240423Y-27540423D01*
X39923260Y-28015091D01*
X39811887Y-28575000D01*
X39923260Y-29134909D01*
X40240423Y-29609577D01*
X40592758Y-29845000D01*
X40240423Y-30080423D01*
X39923260Y-30555091D01*
X39811887Y-31115000D01*
X39923260Y-31674909D01*
X40240423Y-32149577D01*
X40592758Y-32385000D01*
X40240423Y-32620423D01*
X39923260Y-33095091D01*
X39811887Y-33655000D01*
X39923260Y-34214909D01*
X40240423Y-34689577D01*
X40592758Y-34925000D01*
X40240423Y-35160423D01*
X40056957Y-35435000D01*
X34873043Y-35435000D01*
X34689577Y-35160423D01*
X34337242Y-34925000D01*
X34689577Y-34689577D01*
X35006740Y-34214909D01*
X35118113Y-33655000D01*
X35006740Y-33095091D01*
X34689577Y-32620423D01*
X34337242Y-32385000D01*
X34689577Y-32149577D01*
X35006740Y-31674909D01*
X35118113Y-31115000D01*
X35006740Y-30555091D01*
X34689577Y-30080423D01*
X34337242Y-29845000D01*
X34689577Y-29609577D01*
X35006740Y-29134909D01*
X35118113Y-28575000D01*
X35006740Y-28015091D01*
X34689577Y-27540423D01*
X34337242Y-27305000D01*
X34689577Y-27069577D01*
X35006740Y-26594909D01*
X35118113Y-26035000D01*
X35006740Y-25475091D01*
X34689577Y-25000423D01*
X34568894Y-24919785D01*
X34702765Y-24893157D01*
X34912809Y-24752809D01*
X35053157Y-24542765D01*
X35102440Y-24295000D01*
X35102440Y-22695000D01*
X35053157Y-22447235D01*
X34912809Y-22237191D01*
X34702765Y-22096843D01*
X34455000Y-22047560D01*
X32855000Y-22047560D01*
X32607235Y-22096843D01*
X32397191Y-22237191D01*
X32256843Y-22447235D01*
X32207560Y-22695000D01*
X32207560Y-23867639D01*
X32045230Y-24029969D01*
X31981771Y-24072371D01*
X31813796Y-24323764D01*
X31769700Y-24545449D01*
X31769700Y-24545453D01*
X31754812Y-24620300D01*
X31769700Y-24695147D01*
X31769701Y-33017448D01*
X31754812Y-33092300D01*
X31769701Y-33167152D01*
X31813797Y-33388837D01*
X31981772Y-33640229D01*
X32045228Y-33682629D01*
X32235163Y-33872565D01*
X32256312Y-33978887D01*
X31946930Y-34288269D01*
X31883471Y-34330671D01*
X31715496Y-34582064D01*
X31671400Y-34803749D01*
X31671400Y-34803753D01*
X31656512Y-34878600D01*
X28015000Y-34878600D01*
X28015000Y-17855000D01*
X100255000Y-17855000D01*
X100255001Y-96445000D01*
X100255001Y-96445000D01*
G37*
X100255001Y-96445000D02*
X28015000Y-96445000D01*
X28015000Y-34878600D01*
X31656512Y-34878600D01*
X31671400Y-34953447D01*
X31671401Y-35647745D01*
X31671400Y-35647748D01*
X31671400Y-36142851D01*
X31671401Y-36142856D01*
X31671400Y-55612253D01*
X31656512Y-55687100D01*
X31671400Y-55761947D01*
X31671400Y-55761951D01*
X31715496Y-55983636D01*
X31883471Y-56235029D01*
X31946930Y-56277431D01*
X32504065Y-56834567D01*
X32256161Y-57205582D01*
X32140908Y-57785000D01*
X32256161Y-58364418D01*
X32584375Y-58855625D01*
X32882761Y-59055000D01*
X32584375Y-59254375D01*
X32256161Y-59745582D01*
X32140908Y-60325000D01*
X32256161Y-60904418D01*
X32584375Y-61395625D01*
X32882761Y-61595000D01*
X32584375Y-61794375D01*
X32256161Y-62285582D01*
X32140908Y-62865000D01*
X32256161Y-63444418D01*
X32584375Y-63935625D01*
X32882761Y-64135000D01*
X32584375Y-64334375D01*
X32256161Y-64825582D01*
X32140908Y-65405000D01*
X32256161Y-65984418D01*
X32584375Y-66475625D01*
X32882761Y-66675000D01*
X32584375Y-66874375D01*
X32256161Y-67365582D01*
X32140908Y-67945000D01*
X32256161Y-68524418D01*
X32584375Y-69015625D01*
X32882761Y-69215000D01*
X32584375Y-69414375D01*
X32256161Y-69905582D01*
X32140908Y-70485000D01*
X32213791Y-70851408D01*
X31995230Y-71069969D01*
X31931771Y-71112371D01*
X31763796Y-71363764D01*
X31719700Y-71585449D01*
X31719700Y-71585453D01*
X31704812Y-71660300D01*
X31719700Y-71735147D01*
X31719701Y-91222348D01*
X31704812Y-91297200D01*
X31763797Y-91593737D01*
X31824418Y-91684462D01*
X31931772Y-91845129D01*
X31995228Y-91887529D01*
X33023571Y-92915873D01*
X33065971Y-92979329D01*
X33317363Y-93147304D01*
X33539048Y-93191400D01*
X33539052Y-93191400D01*
X33613899Y-93206288D01*
X33688746Y-93191400D01*
X94511453Y-93191400D01*
X94586300Y-93206288D01*
X94661147Y-93191400D01*
X94661152Y-93191400D01*
X94882837Y-93147304D01*
X95134229Y-92979329D01*
X95176631Y-92915870D01*
X96225573Y-91866929D01*
X96289029Y-91824529D01*
X96361883Y-91715496D01*
X96457004Y-91573138D01*
X96467394Y-91520903D01*
X96501100Y-91351452D01*
X96501100Y-91351448D01*
X96515988Y-91276600D01*
X96501100Y-91201752D01*
X96501100Y-74242846D01*
X96515988Y-74167999D01*
X96501100Y-74093152D01*
X96501100Y-74093148D01*
X96500001Y-74087623D01*
X96500001Y-71684849D01*
X96514889Y-71610001D01*
X96500001Y-71535153D01*
X96500001Y-71535149D01*
X96455905Y-71313464D01*
X96455905Y-71313463D01*
X96330330Y-71125528D01*
X96287930Y-71062072D01*
X96224474Y-71019672D01*
X96013688Y-70808886D01*
X96078113Y-70485000D01*
X95966740Y-69925091D01*
X95721836Y-69558566D01*
X96224773Y-69055629D01*
X96288229Y-69013229D01*
X96456204Y-68761837D01*
X96500300Y-68540152D01*
X96500300Y-68540147D01*
X96515188Y-68465300D01*
X96500300Y-68390453D01*
X96500300Y-55810148D01*
X96515188Y-55735300D01*
X96500300Y-55660452D01*
X96500300Y-55660448D01*
X96456204Y-55438763D01*
X96288229Y-55187371D01*
X96224773Y-55144971D01*
X96013688Y-54933886D01*
X96078113Y-54610000D01*
X95966740Y-54050091D01*
X95649577Y-53575423D01*
X95297242Y-53340000D01*
X95649577Y-53104577D01*
X95966740Y-52629909D01*
X96078113Y-52070000D01*
X95966740Y-51510091D01*
X95649577Y-51035423D01*
X95297242Y-50800000D01*
X95649577Y-50564577D01*
X95966740Y-50089909D01*
X96078113Y-49530000D01*
X95966740Y-48970091D01*
X95649577Y-48495423D01*
X95297242Y-48260000D01*
X95649577Y-48024577D01*
X95966740Y-47549909D01*
X96078113Y-46990000D01*
X96013688Y-46666114D01*
X96228973Y-46450829D01*
X96292429Y-46408429D01*
X96460404Y-46157037D01*
X96504500Y-45935352D01*
X96504500Y-45935348D01*
X96519388Y-45860501D01*
X96504500Y-45785654D01*
X96504500Y-38963347D01*
X96519388Y-38888500D01*
X96504500Y-38813653D01*
X96504500Y-38813648D01*
X96460404Y-38591963D01*
X96292429Y-38340571D01*
X96228973Y-38298171D01*
X95676731Y-37745930D01*
X95634329Y-37682471D01*
X95382937Y-37514496D01*
X95161252Y-37470400D01*
X95161247Y-37470400D01*
X95086400Y-37455512D01*
X95011553Y-37470400D01*
X85516371Y-37470400D01*
X85604029Y-37411829D01*
X85646431Y-37348370D01*
X86491379Y-36503423D01*
X86666596Y-36576000D01*
X87323404Y-36576000D01*
X87930216Y-36324650D01*
X88265000Y-35989866D01*
X88599784Y-36324650D01*
X89206596Y-36576000D01*
X89863404Y-36576000D01*
X90470216Y-36324650D01*
X90805000Y-35989866D01*
X91139784Y-36324650D01*
X91746596Y-36576000D01*
X92403404Y-36576000D01*
X93010216Y-36324650D01*
X93345000Y-35989866D01*
X93679784Y-36324650D01*
X94286596Y-36576000D01*
X94943404Y-36576000D01*
X95550216Y-36324650D01*
X96014650Y-35860216D01*
X96266000Y-35253404D01*
X96266000Y-34596596D01*
X96014650Y-33989784D01*
X95550216Y-33525350D01*
X94943404Y-33274000D01*
X94286596Y-33274000D01*
X93679784Y-33525350D01*
X93345000Y-33860134D01*
X93010216Y-33525350D01*
X92403404Y-33274000D01*
X91746596Y-33274000D01*
X91139784Y-33525350D01*
X90805000Y-33860134D01*
X90470216Y-33525350D01*
X89863404Y-33274000D01*
X89206596Y-33274000D01*
X88599784Y-33525350D01*
X88265000Y-33860134D01*
X87930216Y-33525350D01*
X87323404Y-33274000D01*
X86666596Y-33274000D01*
X86059784Y-33525350D01*
X85725000Y-33860134D01*
X85390216Y-33525350D01*
X84783404Y-33274000D01*
X84126596Y-33274000D01*
X83519784Y-33525350D01*
X83185000Y-33860134D01*
X82850216Y-33525350D01*
X82243404Y-33274000D01*
X81586596Y-33274000D01*
X80979784Y-33525350D01*
X80645000Y-33860134D01*
X80310216Y-33525350D01*
X79703404Y-33274000D01*
X79046596Y-33274000D01*
X78439784Y-33525350D01*
X78105000Y-33860134D01*
X77770216Y-33525350D01*
X77163404Y-33274000D01*
X76506596Y-33274000D01*
X75899784Y-33525350D01*
X75565000Y-33860134D01*
X75230216Y-33525350D01*
X74623404Y-33274000D01*
X73966596Y-33274000D01*
X73359784Y-33525350D01*
X73310975Y-33574159D01*
X73228809Y-33451191D01*
X73018765Y-33310843D01*
X72771000Y-33261560D01*
X70739000Y-33261560D01*
X70491235Y-33310843D01*
X70281191Y-33451191D01*
X70140843Y-33661235D01*
X70091560Y-33909000D01*
X70091560Y-34259958D01*
X69979650Y-33989784D01*
X69515216Y-33525350D01*
X68908404Y-33274000D01*
X68251596Y-33274000D01*
X67644784Y-33525350D01*
X67310000Y-33860134D01*
X66975216Y-33525350D01*
X66368404Y-33274000D01*
X65711596Y-33274000D01*
X65104784Y-33525350D01*
X64770000Y-33860134D01*
X64435216Y-33525350D01*
X63828404Y-33274000D01*
X63171596Y-33274000D01*
X62564784Y-33525350D01*
X62230000Y-33860134D01*
X61895216Y-33525350D01*
X61288404Y-33274000D01*
X60631596Y-33274000D01*
X60024784Y-33525350D01*
X59690000Y-33860134D01*
X59355216Y-33525350D01*
X58748404Y-33274000D01*
X58091596Y-33274000D01*
X57484784Y-33525350D01*
X57150000Y-33860134D01*
X56815216Y-33525350D01*
X56208404Y-33274000D01*
X55551596Y-33274000D01*
X54944784Y-33525350D01*
X54610000Y-33860134D01*
X54275216Y-33525350D01*
X53668404Y-33274000D01*
X53011596Y-33274000D01*
X52404784Y-33525350D01*
X52070000Y-33860134D01*
X51735216Y-33525350D01*
X51128404Y-33274000D01*
X50471596Y-33274000D01*
X49864784Y-33525350D01*
X49530000Y-33860134D01*
X49195216Y-33525350D01*
X48588404Y-33274000D01*
X47931596Y-33274000D01*
X47324784Y-33525350D01*
X47275975Y-33574159D01*
X47193809Y-33451191D01*
X46983765Y-33310843D01*
X46736000Y-33261560D01*
X44704000Y-33261560D01*
X44456235Y-33310843D01*
X44246191Y-33451191D01*
X44105843Y-33661235D01*
X44056560Y-33909000D01*
X44056560Y-35941000D01*
X44105843Y-36188765D01*
X44246191Y-36398809D01*
X44456235Y-36539157D01*
X44704000Y-36588440D01*
X46736000Y-36588440D01*
X46983765Y-36539157D01*
X47193809Y-36398809D01*
X47275975Y-36275841D01*
X47324784Y-36324650D01*
X47931596Y-36576000D01*
X48588404Y-36576000D01*
X49195216Y-36324650D01*
X49530000Y-35989866D01*
X49864784Y-36324650D01*
X50471596Y-36576000D01*
X51128404Y-36576000D01*
X51735216Y-36324650D01*
X52070000Y-35989866D01*
X52404784Y-36324650D01*
X53011596Y-36576000D01*
X53668404Y-36576000D01*
X54275216Y-36324650D01*
X54610000Y-35989866D01*
X54944784Y-36324650D01*
X55551596Y-36576000D01*
X55801597Y-36576000D01*
X47166499Y-45211100D01*
X47000426Y-45211100D01*
X46620020Y-45368669D01*
X46446129Y-45542560D01*
X44920000Y-45542560D01*
X44672235Y-45591843D01*
X44462191Y-45732191D01*
X44321843Y-45942235D01*
X44272560Y-46190000D01*
X44272560Y-47355400D01*
X43270200Y-47355400D01*
X43270200Y-26976596D01*
X44069000Y-26976596D01*
X44069000Y-27633404D01*
X44320350Y-28240216D01*
X44784784Y-28704650D01*
X45391596Y-28956000D01*
X46048404Y-28956000D01*
X46655216Y-28704650D01*
X46990000Y-28369866D01*
X47324784Y-28704650D01*
X47931596Y-28956000D01*
X48588404Y-28956000D01*
X49195216Y-28704650D01*
X49530000Y-28369866D01*
X49864784Y-28704650D01*
X50471596Y-28956000D01*
X51128404Y-28956000D01*
X51735216Y-28704650D01*
X52070000Y-28369866D01*
X52404784Y-28704650D01*
X53011596Y-28956000D01*
X53668404Y-28956000D01*
X54275216Y-28704650D01*
X54610000Y-28369866D01*
X54944784Y-28704650D01*
X55551596Y-28956000D01*
X56208404Y-28956000D01*
X56815216Y-28704650D01*
X57150000Y-28369866D01*
X57484784Y-28704650D01*
X58091596Y-28956000D01*
X58748404Y-28956000D01*
X59355216Y-28704650D01*
X59690000Y-28369866D01*
X60024784Y-28704650D01*
X60631596Y-28956000D01*
X61288404Y-28956000D01*
X61895216Y-28704650D01*
X62230000Y-28369866D01*
X62564784Y-28704650D01*
X63171596Y-28956000D01*
X63828404Y-28956000D01*
X64435216Y-28704650D01*
X64770000Y-28369866D01*
X65104784Y-28704650D01*
X65711596Y-28956000D01*
X66368404Y-28956000D01*
X66975216Y-28704650D01*
X67310000Y-28369866D01*
X67644784Y-28704650D01*
X68251596Y-28956000D01*
X68908404Y-28956000D01*
X69515216Y-28704650D01*
X69979650Y-28240216D01*
X70167500Y-27786706D01*
X70355350Y-28240216D01*
X70819784Y-28704650D01*
X71426596Y-28956000D01*
X72083404Y-28956000D01*
X72690216Y-28704650D01*
X73025000Y-28369866D01*
X73359784Y-28704650D01*
X73966596Y-28956000D01*
X74623404Y-28956000D01*
X75230216Y-28704650D01*
X75565000Y-28369866D01*
X75899784Y-28704650D01*
X76506596Y-28956000D01*
X77163404Y-28956000D01*
X77770216Y-28704650D01*
X78105000Y-28369866D01*
X78439784Y-28704650D01*
X79046596Y-28956000D01*
X79703404Y-28956000D01*
X80310216Y-28704650D01*
X80645000Y-28369866D01*
X80979784Y-28704650D01*
X81586596Y-28956000D01*
X82243404Y-28956000D01*
X82850216Y-28704650D01*
X83185000Y-28369866D01*
X83519784Y-28704650D01*
X84126596Y-28956000D01*
X84783404Y-28956000D01*
X85390216Y-28704650D01*
X85725000Y-28369866D01*
X86059784Y-28704650D01*
X86666596Y-28956000D01*
X87323404Y-28956000D01*
X87930216Y-28704650D01*
X88265000Y-28369866D01*
X88599784Y-28704650D01*
X89206596Y-28956000D01*
X89863404Y-28956000D01*
X90470216Y-28704650D01*
X90805000Y-28369866D01*
X91139784Y-28704650D01*
X91746596Y-28956000D01*
X92403404Y-28956000D01*
X93010216Y-28704650D01*
X93345000Y-28369866D01*
X93679784Y-28704650D01*
X94286596Y-28956000D01*
X94943404Y-28956000D01*
X95550216Y-28704650D01*
X96014650Y-28240216D01*
X96266000Y-27633404D01*
X96266000Y-26976596D01*
X96014650Y-26369784D01*
X95550216Y-25905350D01*
X94943404Y-25654000D01*
X94286596Y-25654000D01*
X93679784Y-25905350D01*
X93345000Y-26240134D01*
X93010216Y-25905350D01*
X92403404Y-25654000D01*
X91746596Y-25654000D01*
X91139784Y-25905350D01*
X90805000Y-26240134D01*
X90470216Y-25905350D01*
X89863404Y-25654000D01*
X89206596Y-25654000D01*
X88599784Y-25905350D01*
X88265000Y-26240134D01*
X87930216Y-25905350D01*
X87323404Y-25654000D01*
X86666596Y-25654000D01*
X86059784Y-25905350D01*
X85725000Y-26240134D01*
X85390216Y-25905350D01*
X84783404Y-25654000D01*
X84126596Y-25654000D01*
X83519784Y-25905350D01*
X83185000Y-26240134D01*
X82850216Y-25905350D01*
X82243404Y-25654000D01*
X81586596Y-25654000D01*
X80979784Y-25905350D01*
X80645000Y-26240134D01*
X80310216Y-25905350D01*
X79703404Y-25654000D01*
X79046596Y-25654000D01*
X78439784Y-25905350D01*
X78105000Y-26240134D01*
X77770216Y-25905350D01*
X77163404Y-25654000D01*
X76506596Y-25654000D01*
X75899784Y-25905350D01*
X75565000Y-26240134D01*
X75230216Y-25905350D01*
X74623404Y-25654000D01*
X73966596Y-25654000D01*
X73359784Y-25905350D01*
X73025000Y-26240134D01*
X72690216Y-25905350D01*
X72083404Y-25654000D01*
X71426596Y-25654000D01*
X70819784Y-25905350D01*
X70355350Y-26369784D01*
X70167500Y-26823294D01*
X69979650Y-26369784D01*
X69515216Y-25905350D01*
X68908404Y-25654000D01*
X68251596Y-25654000D01*
X67644784Y-25905350D01*
X67310000Y-26240134D01*
X66975216Y-25905350D01*
X66368404Y-25654000D01*
X65711596Y-25654000D01*
X65104784Y-25905350D01*
X64770000Y-26240134D01*
X64435216Y-25905350D01*
X63828404Y-25654000D01*
X63171596Y-25654000D01*
X62564784Y-25905350D01*
X62230000Y-26240134D01*
X61895216Y-25905350D01*
X61288404Y-25654000D01*
X60631596Y-25654000D01*
X60024784Y-25905350D01*
X59690000Y-26240134D01*
X59355216Y-25905350D01*
X58748404Y-25654000D01*
X58091596Y-25654000D01*
X57484784Y-25905350D01*
X57150000Y-26240134D01*
X56815216Y-25905350D01*
X56208404Y-25654000D01*
X55551596Y-25654000D01*
X54944784Y-25905350D01*
X54610000Y-26240134D01*
X54275216Y-25905350D01*
X53668404Y-25654000D01*
X53011596Y-25654000D01*
X52404784Y-25905350D01*
X52070000Y-26240134D01*
X51735216Y-25905350D01*
X51128404Y-25654000D01*
X50471596Y-25654000D01*
X49864784Y-25905350D01*
X49530000Y-26240134D01*
X49195216Y-25905350D01*
X48588404Y-25654000D01*
X47931596Y-25654000D01*
X47324784Y-25905350D01*
X46990000Y-26240134D01*
X46655216Y-25905350D01*
X46048404Y-25654000D01*
X45391596Y-25654000D01*
X44784784Y-25905350D01*
X44320350Y-26369784D01*
X44069000Y-26976596D01*
X43270200Y-26976596D01*
X43270200Y-24759973D01*
X43286068Y-24680200D01*
X43259264Y-24545448D01*
X43223203Y-24364154D01*
X43044177Y-24096223D01*
X42976547Y-24051034D01*
X42706263Y-23780750D01*
X44285000Y-23780750D01*
X44285000Y-24421310D01*
X44381673Y-24654699D01*
X44560302Y-24833327D01*
X44793691Y-24930000D01*
X45434250Y-24930000D01*
X45593000Y-24771250D01*
X45593000Y-23622000D01*
X44443750Y-23622000D01*
X44285000Y-23780750D01*
X42706263Y-23780750D01*
X42685420Y-23759907D01*
X42738113Y-23495000D01*
X42626740Y-22935091D01*
X42381919Y-22568690D01*
X44285000Y-22568690D01*
X44285000Y-23209250D01*
X44443750Y-23368000D01*
X45593000Y-23368000D01*
X45593000Y-22218750D01*
X45847000Y-22218750D01*
X45847000Y-23368000D01*
X45867000Y-23368000D01*
X45867000Y-23622000D01*
X45847000Y-23622000D01*
X45847000Y-24771250D01*
X46005750Y-24930000D01*
X46646309Y-24930000D01*
X46879698Y-24833327D01*
X47058327Y-24654699D01*
X47154266Y-24423083D01*
X47225423Y-24529577D01*
X47700091Y-24846740D01*
X48118667Y-24930000D01*
X48401333Y-24930000D01*
X48819909Y-24846740D01*
X49294577Y-24529577D01*
X49530000Y-24177242D01*
X49765423Y-24529577D01*
X50240091Y-24846740D01*
X50658667Y-24930000D01*
X50941333Y-24930000D01*
X51359909Y-24846740D01*
X51834577Y-24529577D01*
X52070000Y-24177242D01*
X52305423Y-24529577D01*
X52780091Y-24846740D01*
X53198667Y-24930000D01*
X53481333Y-24930000D01*
X53899909Y-24846740D01*
X54374577Y-24529577D01*
X54610000Y-24177242D01*
X54845423Y-24529577D01*
X55320091Y-24846740D01*
X55738667Y-24930000D01*
X56021333Y-24930000D01*
X56439909Y-24846740D01*
X56914577Y-24529577D01*
X57150000Y-24177242D01*
X57385423Y-24529577D01*
X57860091Y-24846740D01*
X58278667Y-24930000D01*
X58561333Y-24930000D01*
X58979909Y-24846740D01*
X59454577Y-24529577D01*
X59690000Y-24177242D01*
X59925423Y-24529577D01*
X60400091Y-24846740D01*
X60818667Y-24930000D01*
X61101333Y-24930000D01*
X61519909Y-24846740D01*
X61994577Y-24529577D01*
X62230000Y-24177242D01*
X62465423Y-24529577D01*
X62940091Y-24846740D01*
X63358667Y-24930000D01*
X63641333Y-24930000D01*
X64059909Y-24846740D01*
X64534577Y-24529577D01*
X64770000Y-24177242D01*
X65005423Y-24529577D01*
X65480091Y-24846740D01*
X65898667Y-24930000D01*
X66181333Y-24930000D01*
X66599909Y-24846740D01*
X67074577Y-24529577D01*
X67391740Y-24054909D01*
X67446273Y-23780750D01*
X67780000Y-23780750D01*
X67780000Y-24421310D01*
X67876673Y-24654699D01*
X68055302Y-24833327D01*
X68288691Y-24930000D01*
X68929250Y-24930000D01*
X69088000Y-24771250D01*
X69088000Y-23622000D01*
X67938750Y-23622000D01*
X67780000Y-23780750D01*
X67446273Y-23780750D01*
X67503113Y-23495000D01*
X67391740Y-22935091D01*
X67146919Y-22568690D01*
X67780000Y-22568690D01*
X67780000Y-23209250D01*
X67938750Y-23368000D01*
X69088000Y-23368000D01*
X69088000Y-22218750D01*
X69342000Y-22218750D01*
X69342000Y-23368000D01*
X69362000Y-23368000D01*
X69362000Y-23622000D01*
X69342000Y-23622000D01*
X69342000Y-24771250D01*
X69500750Y-24930000D01*
X70141309Y-24930000D01*
X70374698Y-24833327D01*
X70553327Y-24654699D01*
X70649266Y-24423083D01*
X70720423Y-24529577D01*
X71195091Y-24846740D01*
X71613667Y-24930000D01*
X71896333Y-24930000D01*
X72314909Y-24846740D01*
X72789577Y-24529577D01*
X73025000Y-24177242D01*
X73260423Y-24529577D01*
X73735091Y-24846740D01*
X74153667Y-24930000D01*
X74436333Y-24930000D01*
X74854909Y-24846740D01*
X75329577Y-24529577D01*
X75565000Y-24177242D01*
X75800423Y-24529577D01*
X76275091Y-24846740D01*
X76693667Y-24930000D01*
X76976333Y-24930000D01*
X77394909Y-24846740D01*
X77869577Y-24529577D01*
X78105000Y-24177242D01*
X78340423Y-24529577D01*
X78815091Y-24846740D01*
X79233667Y-24930000D01*
X79516333Y-24930000D01*
X79934909Y-24846740D01*
X80409577Y-24529577D01*
X80645000Y-24177242D01*
X80880423Y-24529577D01*
X81355091Y-24846740D01*
X81773667Y-24930000D01*
X82056333Y-24930000D01*
X82474909Y-24846740D01*
X82949577Y-24529577D01*
X83185000Y-24177242D01*
X83420423Y-24529577D01*
X83895091Y-24846740D01*
X84313667Y-24930000D01*
X84596333Y-24930000D01*
X85014909Y-24846740D01*
X85489577Y-24529577D01*
X85725000Y-24177242D01*
X85960423Y-24529577D01*
X86435091Y-24846740D01*
X86853667Y-24930000D01*
X87136333Y-24930000D01*
X87554909Y-24846740D01*
X88029577Y-24529577D01*
X88265000Y-24177242D01*
X88500423Y-24529577D01*
X88975091Y-24846740D01*
X89393667Y-24930000D01*
X89676333Y-24930000D01*
X90094909Y-24846740D01*
X90569577Y-24529577D01*
X90886740Y-24054909D01*
X90998113Y-23495000D01*
X90886740Y-22935091D01*
X90569577Y-22460423D01*
X90094909Y-22143260D01*
X89676333Y-22060000D01*
X89393667Y-22060000D01*
X88975091Y-22143260D01*
X88500423Y-22460423D01*
X88265000Y-22812758D01*
X88029577Y-22460423D01*
X87554909Y-22143260D01*
X87136333Y-22060000D01*
X86853667Y-22060000D01*
X86435091Y-22143260D01*
X85960423Y-22460423D01*
X85725000Y-22812758D01*
X85489577Y-22460423D01*
X85014909Y-22143260D01*
X84596333Y-22060000D01*
X84313667Y-22060000D01*
X83895091Y-22143260D01*
X83420423Y-22460423D01*
X83185000Y-22812758D01*
X82949577Y-22460423D01*
X82474909Y-22143260D01*
X82056333Y-22060000D01*
X81773667Y-22060000D01*
X81355091Y-22143260D01*
X80880423Y-22460423D01*
X80645000Y-22812758D01*
X80409577Y-22460423D01*
X79934909Y-22143260D01*
X79516333Y-22060000D01*
X79233667Y-22060000D01*
X78815091Y-22143260D01*
X78340423Y-22460423D01*
X78105000Y-22812758D01*
X77869577Y-22460423D01*
X77394909Y-22143260D01*
X76976333Y-22060000D01*
X76693667Y-22060000D01*
X76275091Y-22143260D01*
X75800423Y-22460423D01*
X75565000Y-22812758D01*
X75329577Y-22460423D01*
X74854909Y-22143260D01*
X74436333Y-22060000D01*
X74153667Y-22060000D01*
X73735091Y-22143260D01*
X73260423Y-22460423D01*
X73025000Y-22812758D01*
X72789577Y-22460423D01*
X72314909Y-22143260D01*
X71896333Y-22060000D01*
X71613667Y-22060000D01*
X71195091Y-22143260D01*
X70720423Y-22460423D01*
X70649266Y-22566917D01*
X70553327Y-22335301D01*
X70374698Y-22156673D01*
X70141309Y-22060000D01*
X69500750Y-22060000D01*
X69342000Y-22218750D01*
X69088000Y-22218750D01*
X68929250Y-22060000D01*
X68288691Y-22060000D01*
X68055302Y-22156673D01*
X67876673Y-22335301D01*
X67780000Y-22568690D01*
X67146919Y-22568690D01*
X67074577Y-22460423D01*
X66599909Y-22143260D01*
X66181333Y-22060000D01*
X65898667Y-22060000D01*
X65480091Y-22143260D01*
X65005423Y-22460423D01*
X64770000Y-22812758D01*
X64534577Y-22460423D01*
X64059909Y-22143260D01*
X63641333Y-22060000D01*
X63358667Y-22060000D01*
X62940091Y-22143260D01*
X62465423Y-22460423D01*
X62230000Y-22812758D01*
X61994577Y-22460423D01*
X61519909Y-22143260D01*
X61101333Y-22060000D01*
X60818667Y-22060000D01*
X60400091Y-22143260D01*
X59925423Y-22460423D01*
X59690000Y-22812758D01*
X59454577Y-22460423D01*
X58979909Y-22143260D01*
X58561333Y-22060000D01*
X58278667Y-22060000D01*
X57860091Y-22143260D01*
X57385423Y-22460423D01*
X57150000Y-22812758D01*
X56914577Y-22460423D01*
X56439909Y-22143260D01*
X56021333Y-22060000D01*
X55738667Y-22060000D01*
X55320091Y-22143260D01*
X54845423Y-22460423D01*
X54610000Y-22812758D01*
X54374577Y-22460423D01*
X53899909Y-22143260D01*
X53481333Y-22060000D01*
X53198667Y-22060000D01*
X52780091Y-22143260D01*
X52305423Y-22460423D01*
X52070000Y-22812758D01*
X51834577Y-22460423D01*
X51359909Y-22143260D01*
X50941333Y-22060000D01*
X50658667Y-22060000D01*
X50240091Y-22143260D01*
X49765423Y-22460423D01*
X49530000Y-22812758D01*
X49294577Y-22460423D01*
X48819909Y-22143260D01*
X48401333Y-22060000D01*
X48118667Y-22060000D01*
X47700091Y-22143260D01*
X47225423Y-22460423D01*
X47154266Y-22566917D01*
X47058327Y-22335301D01*
X46879698Y-22156673D01*
X46646309Y-22060000D01*
X46005750Y-22060000D01*
X45847000Y-22218750D01*
X45593000Y-22218750D01*
X45434250Y-22060000D01*
X44793691Y-22060000D01*
X44560302Y-22156673D01*
X44381673Y-22335301D01*
X44285000Y-22568690D01*
X42381919Y-22568690D01*
X42309577Y-22460423D01*
X41834909Y-22143260D01*
X41416333Y-22060000D01*
X41133667Y-22060000D01*
X40715091Y-22143260D01*
X40240423Y-22460423D01*
X39923260Y-22935091D01*
X39811887Y-23495000D01*
X39923260Y-24054909D01*
X40240423Y-24529577D01*
X40592758Y-24765000D01*
X40240423Y-25000423D01*
X39923260Y-25475091D01*
X39811887Y-26035000D01*
X39923260Y-26594909D01*
X40240423Y-27069577D01*
X40592758Y-27305000D01*
X40240423Y-27540423D01*
X39923260Y-28015091D01*
X39811887Y-28575000D01*
X39923260Y-29134909D01*
X40240423Y-29609577D01*
X40592758Y-29845000D01*
X40240423Y-30080423D01*
X39923260Y-30555091D01*
X39811887Y-31115000D01*
X39923260Y-31674909D01*
X40240423Y-32149577D01*
X40592758Y-32385000D01*
X40240423Y-32620423D01*
X39923260Y-33095091D01*
X39811887Y-33655000D01*
X39923260Y-34214909D01*
X40240423Y-34689577D01*
X40592758Y-34925000D01*
X40240423Y-35160423D01*
X40056957Y-35435000D01*
X34873043Y-35435000D01*
X34689577Y-35160423D01*
X34337242Y-34925000D01*
X34689577Y-34689577D01*
X35006740Y-34214909D01*
X35118113Y-33655000D01*
X35006740Y-33095091D01*
X34689577Y-32620423D01*
X34337242Y-32385000D01*
X34689577Y-32149577D01*
X35006740Y-31674909D01*
X35118113Y-31115000D01*
X35006740Y-30555091D01*
X34689577Y-30080423D01*
X34337242Y-29845000D01*
X34689577Y-29609577D01*
X35006740Y-29134909D01*
X35118113Y-28575000D01*
X35006740Y-28015091D01*
X34689577Y-27540423D01*
X34337242Y-27305000D01*
X34689577Y-27069577D01*
X35006740Y-26594909D01*
X35118113Y-26035000D01*
X35006740Y-25475091D01*
X34689577Y-25000423D01*
X34568894Y-24919785D01*
X34702765Y-24893157D01*
X34912809Y-24752809D01*
X35053157Y-24542765D01*
X35102440Y-24295000D01*
X35102440Y-22695000D01*
X35053157Y-22447235D01*
X34912809Y-22237191D01*
X34702765Y-22096843D01*
X34455000Y-22047560D01*
X32855000Y-22047560D01*
X32607235Y-22096843D01*
X32397191Y-22237191D01*
X32256843Y-22447235D01*
X32207560Y-22695000D01*
X32207560Y-23867639D01*
X32045230Y-24029969D01*
X31981771Y-24072371D01*
X31813796Y-24323764D01*
X31769700Y-24545449D01*
X31769700Y-24545453D01*
X31754812Y-24620300D01*
X31769700Y-24695147D01*
X31769701Y-33017448D01*
X31754812Y-33092300D01*
X31769701Y-33167152D01*
X31813797Y-33388837D01*
X31981772Y-33640229D01*
X32045228Y-33682629D01*
X32235163Y-33872565D01*
X32256312Y-33978887D01*
X31946930Y-34288269D01*
X31883471Y-34330671D01*
X31715496Y-34582064D01*
X31671400Y-34803749D01*
X31671400Y-34803753D01*
X31656512Y-34878600D01*
X28015000Y-34878600D01*
X28015000Y-17855000D01*
X100255000Y-17855000D01*
X100255001Y-96445000D01*
G36*
X44328096Y-90455961D02*
X44450085Y-90678000D01*
X45593000Y-90678000D01*
X45593000Y-90658000D01*
X45847000Y-90658000D01*
X45847000Y-90678000D01*
X46989915Y-90678000D01*
X47111904Y-90455961D01*
X47084460Y-90389700D01*
X50724599Y-90389700D01*
X51624370Y-91289472D01*
X51666771Y-91352929D01*
X51918163Y-91520904D01*
X52119214Y-91560896D01*
X52193051Y-91671400D01*
X46834204Y-91671400D01*
X46951041Y-91542423D01*
X47111904Y-91154039D01*
X46989915Y-90932000D01*
X45847000Y-90932000D01*
X45847000Y-90952000D01*
X45593000Y-90952000D01*
X45593000Y-90932000D01*
X44450085Y-90932000D01*
X44328096Y-91154039D01*
X44488959Y-91542423D01*
X44605796Y-91671400D01*
X34862084Y-91671400D01*
X34937474Y-91558571D01*
X35126837Y-91520904D01*
X35378229Y-91352929D01*
X35420631Y-91289470D01*
X36320402Y-90389700D01*
X44355540Y-90389700D01*
X44328096Y-90455961D01*
X44328096Y-90455961D01*
G37*
X44328096Y-90455961D02*
X44450085Y-90678000D01*
X45593000Y-90678000D01*
X45593000Y-90658000D01*
X45847000Y-90658000D01*
X45847000Y-90678000D01*
X46989915Y-90678000D01*
X47111904Y-90455961D01*
X47084460Y-90389700D01*
X50724599Y-90389700D01*
X51624370Y-91289472D01*
X51666771Y-91352929D01*
X51918163Y-91520904D01*
X52119214Y-91560896D01*
X52193051Y-91671400D01*
X46834204Y-91671400D01*
X46951041Y-91542423D01*
X47111904Y-91154039D01*
X46989915Y-90932000D01*
X45847000Y-90932000D01*
X45847000Y-90952000D01*
X45593000Y-90952000D01*
X45593000Y-90932000D01*
X44450085Y-90932000D01*
X44328096Y-91154039D01*
X44488959Y-91542423D01*
X44605796Y-91671400D01*
X34862084Y-91671400D01*
X34937474Y-91558571D01*
X35126837Y-91520904D01*
X35378229Y-91352929D01*
X35420631Y-91289470D01*
X36320402Y-90389700D01*
X44355540Y-90389700D01*
X44328096Y-90455961D01*
G36*
X93580423Y-89299577D02*
X93932758Y-89535000D01*
X93580423Y-89770423D01*
X93394214Y-90049104D01*
X93193163Y-90089096D01*
X92941771Y-90257071D01*
X92899371Y-90320527D01*
X91998899Y-91221000D01*
X88359170Y-91221000D01*
X88386904Y-91154039D01*
X88264915Y-90932000D01*
X87122000Y-90932000D01*
X87122000Y-90952000D01*
X86868000Y-90952000D01*
X86868000Y-90932000D01*
X85725085Y-90932000D01*
X85603096Y-91154039D01*
X85630830Y-91221000D01*
X80806345Y-91221000D01*
X80889092Y-90805000D01*
X80773839Y-90225582D01*
X80767169Y-90215600D01*
X85702650Y-90215600D01*
X85603096Y-90455961D01*
X85725085Y-90678000D01*
X86868000Y-90678000D01*
X86868000Y-90658000D01*
X87122000Y-90658000D01*
X87122000Y-90678000D01*
X88264915Y-90678000D01*
X88386904Y-90455961D01*
X88287350Y-90215600D01*
X92224253Y-90215600D01*
X92299100Y-90230488D01*
X92373947Y-90215600D01*
X92373952Y-90215600D01*
X92595637Y-90171504D01*
X92847029Y-90003529D01*
X92889431Y-89940070D01*
X93560196Y-89269305D01*
X93580423Y-89299577D01*
X93580423Y-89299577D01*
G37*
X93580423Y-89299577D02*
X93932758Y-89535000D01*
X93580423Y-89770423D01*
X93394214Y-90049104D01*
X93193163Y-90089096D01*
X92941771Y-90257071D01*
X92899371Y-90320527D01*
X91998899Y-91221000D01*
X88359170Y-91221000D01*
X88386904Y-91154039D01*
X88264915Y-90932000D01*
X87122000Y-90932000D01*
X87122000Y-90952000D01*
X86868000Y-90952000D01*
X86868000Y-90932000D01*
X85725085Y-90932000D01*
X85603096Y-91154039D01*
X85630830Y-91221000D01*
X80806345Y-91221000D01*
X80889092Y-90805000D01*
X80773839Y-90225582D01*
X80767169Y-90215600D01*
X85702650Y-90215600D01*
X85603096Y-90455961D01*
X85725085Y-90678000D01*
X86868000Y-90678000D01*
X86868000Y-90658000D01*
X87122000Y-90658000D01*
X87122000Y-90678000D01*
X88264915Y-90678000D01*
X88386904Y-90455961D01*
X88287350Y-90215600D01*
X92224253Y-90215600D01*
X92299100Y-90230488D01*
X92373947Y-90215600D01*
X92373952Y-90215600D01*
X92595637Y-90171504D01*
X92847029Y-90003529D01*
X92889431Y-89940070D01*
X93560196Y-89269305D01*
X93580423Y-89299577D01*
G36*
X61401887Y-88265000D02*
X61513260Y-88824909D01*
X61830423Y-89299577D01*
X62214108Y-89555947D01*
X62009866Y-89652611D01*
X61633959Y-90067577D01*
X61473096Y-90455961D01*
X61595085Y-90678000D01*
X62738000Y-90678000D01*
X62738000Y-90658000D01*
X62992000Y-90658000D01*
X62992000Y-90678000D01*
X64134915Y-90678000D01*
X64256904Y-90455961D01*
X64096041Y-90067577D01*
X63720134Y-89652611D01*
X63515892Y-89555947D01*
X63899577Y-89299577D01*
X63919804Y-89269305D01*
X64525270Y-89874772D01*
X64567671Y-89938229D01*
X64819063Y-90106204D01*
X65040748Y-90150300D01*
X65040752Y-90150300D01*
X65115600Y-90165188D01*
X65190448Y-90150300D01*
X68971565Y-90150300D01*
X68811771Y-90257071D01*
X68769371Y-90320527D01*
X67919599Y-91170300D01*
X64250169Y-91170300D01*
X64256904Y-91154039D01*
X64134915Y-90932000D01*
X62992000Y-90932000D01*
X62992000Y-90952000D01*
X62738000Y-90952000D01*
X62738000Y-90932000D01*
X61595085Y-90932000D01*
X61473096Y-91154039D01*
X61479831Y-91170300D01*
X55905402Y-91170300D01*
X55055631Y-90320530D01*
X55013229Y-90257071D01*
X54761837Y-90089096D01*
X54560786Y-90049104D01*
X54374577Y-89770423D01*
X54022242Y-89535000D01*
X54374577Y-89299577D01*
X54560786Y-89020896D01*
X54761837Y-88980904D01*
X55013229Y-88812929D01*
X55055631Y-88749470D01*
X55905402Y-87899700D01*
X61474550Y-87899700D01*
X61401887Y-88265000D01*
X61401887Y-88265000D01*
G37*
X61401887Y-88265000D02*
X61513260Y-88824909D01*
X61830423Y-89299577D01*
X62214108Y-89555947D01*
X62009866Y-89652611D01*
X61633959Y-90067577D01*
X61473096Y-90455961D01*
X61595085Y-90678000D01*
X62738000Y-90678000D01*
X62738000Y-90658000D01*
X62992000Y-90658000D01*
X62992000Y-90678000D01*
X64134915Y-90678000D01*
X64256904Y-90455961D01*
X64096041Y-90067577D01*
X63720134Y-89652611D01*
X63515892Y-89555947D01*
X63899577Y-89299577D01*
X63919804Y-89269305D01*
X64525270Y-89874772D01*
X64567671Y-89938229D01*
X64819063Y-90106204D01*
X65040748Y-90150300D01*
X65040752Y-90150300D01*
X65115600Y-90165188D01*
X65190448Y-90150300D01*
X68971565Y-90150300D01*
X68811771Y-90257071D01*
X68769371Y-90320527D01*
X67919599Y-91170300D01*
X64250169Y-91170300D01*
X64256904Y-91154039D01*
X64134915Y-90932000D01*
X62992000Y-90932000D01*
X62992000Y-90952000D01*
X62738000Y-90952000D01*
X62738000Y-90932000D01*
X61595085Y-90932000D01*
X61473096Y-91154039D01*
X61479831Y-91170300D01*
X55905402Y-91170300D01*
X55055631Y-90320530D01*
X55013229Y-90257071D01*
X54761837Y-90089096D01*
X54560786Y-90049104D01*
X54374577Y-89770423D01*
X54022242Y-89535000D01*
X54374577Y-89299577D01*
X54560786Y-89020896D01*
X54761837Y-88980904D01*
X55013229Y-88812929D01*
X55055631Y-88749470D01*
X55905402Y-87899700D01*
X61474550Y-87899700D01*
X61401887Y-88265000D01*
G36*
X65547200Y-76399074D02*
X65704769Y-76779480D01*
X65995920Y-77070631D01*
X66376326Y-77228200D01*
X66524703Y-77228200D01*
X66531471Y-77238329D01*
X66782863Y-77406304D01*
X67004548Y-77450400D01*
X67004553Y-77450400D01*
X67079400Y-77465288D01*
X67154247Y-77450400D01*
X69196530Y-77450400D01*
X69133260Y-77545091D01*
X69021887Y-78105000D01*
X69133260Y-78664909D01*
X69450423Y-79139577D01*
X69802758Y-79375000D01*
X69450423Y-79610423D01*
X69133260Y-80085091D01*
X69021887Y-80645000D01*
X69133260Y-81204909D01*
X69450423Y-81679577D01*
X69802758Y-81915000D01*
X69450423Y-82150423D01*
X69133260Y-82625091D01*
X69021887Y-83185000D01*
X69123332Y-83695000D01*
X66354802Y-83695000D01*
X65784000Y-83124199D01*
X65784000Y-79207476D01*
X65798888Y-79132629D01*
X65784000Y-79057782D01*
X65784000Y-79057778D01*
X65739904Y-78836093D01*
X65571929Y-78584701D01*
X65508473Y-78542301D01*
X64586701Y-77620530D01*
X64544299Y-77557071D01*
X64323403Y-77409473D01*
X64339837Y-77406204D01*
X64591229Y-77238229D01*
X64633631Y-77174770D01*
X65547200Y-76261202D01*
X65547200Y-76399074D01*
X65547200Y-76399074D01*
G37*
X65547200Y-76399074D02*
X65704769Y-76779480D01*
X65995920Y-77070631D01*
X66376326Y-77228200D01*
X66524703Y-77228200D01*
X66531471Y-77238329D01*
X66782863Y-77406304D01*
X67004548Y-77450400D01*
X67004553Y-77450400D01*
X67079400Y-77465288D01*
X67154247Y-77450400D01*
X69196530Y-77450400D01*
X69133260Y-77545091D01*
X69021887Y-78105000D01*
X69133260Y-78664909D01*
X69450423Y-79139577D01*
X69802758Y-79375000D01*
X69450423Y-79610423D01*
X69133260Y-80085091D01*
X69021887Y-80645000D01*
X69133260Y-81204909D01*
X69450423Y-81679577D01*
X69802758Y-81915000D01*
X69450423Y-82150423D01*
X69133260Y-82625091D01*
X69021887Y-83185000D01*
X69123332Y-83695000D01*
X66354802Y-83695000D01*
X65784000Y-83124199D01*
X65784000Y-79207476D01*
X65798888Y-79132629D01*
X65784000Y-79057782D01*
X65784000Y-79057778D01*
X65739904Y-78836093D01*
X65571929Y-78584701D01*
X65508473Y-78542301D01*
X64586701Y-77620530D01*
X64544299Y-77557071D01*
X64323403Y-77409473D01*
X64339837Y-77406204D01*
X64591229Y-77238229D01*
X64633631Y-77174770D01*
X65547200Y-76261202D01*
X65547200Y-76399074D01*
G36*
X44328096Y-64420961D02*
X44450085Y-64643000D01*
X45593000Y-64643000D01*
X45593000Y-64623000D01*
X45847000Y-64623000D01*
X45847000Y-64643000D01*
X45867000Y-64643000D01*
X45867000Y-64897000D01*
X45847000Y-64897000D01*
X45847000Y-64917000D01*
X45593000Y-64917000D01*
X45593000Y-64897000D01*
X44450085Y-64897000D01*
X44328096Y-65119039D01*
X44488959Y-65507423D01*
X44864866Y-65922389D01*
X45017955Y-65994843D01*
X38747799Y-72265000D01*
X34933178Y-72265000D01*
X34725625Y-71954375D01*
X34427239Y-71755000D01*
X34725625Y-71555625D01*
X35053839Y-71064418D01*
X35169092Y-70485000D01*
X35053839Y-69905582D01*
X34725625Y-69414375D01*
X34427239Y-69215000D01*
X34725625Y-69015625D01*
X35053839Y-68524418D01*
X35169092Y-67945000D01*
X35053839Y-67365582D01*
X34725625Y-66874375D01*
X34427239Y-66675000D01*
X34725625Y-66475625D01*
X34937474Y-66158571D01*
X35126837Y-66120904D01*
X35378229Y-65952929D01*
X35420631Y-65889470D01*
X37194702Y-64115400D01*
X44454655Y-64115400D01*
X44328096Y-64420961D01*
X44328096Y-64420961D01*
G37*
X44328096Y-64420961D02*
X44450085Y-64643000D01*
X45593000Y-64643000D01*
X45593000Y-64623000D01*
X45847000Y-64623000D01*
X45847000Y-64643000D01*
X45867000Y-64643000D01*
X45867000Y-64897000D01*
X45847000Y-64897000D01*
X45847000Y-64917000D01*
X45593000Y-64917000D01*
X45593000Y-64897000D01*
X44450085Y-64897000D01*
X44328096Y-65119039D01*
X44488959Y-65507423D01*
X44864866Y-65922389D01*
X45017955Y-65994843D01*
X38747799Y-72265000D01*
X34933178Y-72265000D01*
X34725625Y-71954375D01*
X34427239Y-71755000D01*
X34725625Y-71555625D01*
X35053839Y-71064418D01*
X35169092Y-70485000D01*
X35053839Y-69905582D01*
X34725625Y-69414375D01*
X34427239Y-69215000D01*
X34725625Y-69015625D01*
X35053839Y-68524418D01*
X35169092Y-67945000D01*
X35053839Y-67365582D01*
X34725625Y-66874375D01*
X34427239Y-66675000D01*
X34725625Y-66475625D01*
X34937474Y-66158571D01*
X35126837Y-66120904D01*
X35378229Y-65952929D01*
X35420631Y-65889470D01*
X37194702Y-64115400D01*
X44454655Y-64115400D01*
X44328096Y-64420961D01*
G36*
X93151887Y-54610000D02*
X93263260Y-55169909D01*
X93580423Y-55644577D01*
X93932758Y-55880000D01*
X93580423Y-56115423D01*
X93263260Y-56590091D01*
X93151887Y-57150000D01*
X93216312Y-57473886D01*
X88289128Y-62401071D01*
X88264915Y-62357000D01*
X87122000Y-62357000D01*
X87122000Y-63500629D01*
X87165700Y-63524499D01*
X82235199Y-68455000D01*
X80787647Y-68455000D01*
X80889092Y-67945000D01*
X80773839Y-67365582D01*
X80445625Y-66874375D01*
X80147239Y-66675000D01*
X80445625Y-66475625D01*
X80773839Y-65984418D01*
X80889092Y-65405000D01*
X80773839Y-64825582D01*
X80445625Y-64334375D01*
X80147239Y-64135000D01*
X80445625Y-63935625D01*
X80773839Y-63444418D01*
X80889092Y-62865000D01*
X80832211Y-62579039D01*
X85603096Y-62579039D01*
X85763959Y-62967423D01*
X86139866Y-63382389D01*
X86645959Y-63621914D01*
X86868000Y-63500629D01*
X86868000Y-62357000D01*
X85725085Y-62357000D01*
X85603096Y-62579039D01*
X80832211Y-62579039D01*
X80781421Y-62323700D01*
X81700353Y-62323700D01*
X81775200Y-62338588D01*
X81850047Y-62323700D01*
X81850052Y-62323700D01*
X82071737Y-62279604D01*
X82323129Y-62111629D01*
X82365531Y-62048170D01*
X85233702Y-59180000D01*
X85633332Y-59180000D01*
X85531887Y-59690000D01*
X85643260Y-60249909D01*
X85960423Y-60724577D01*
X86344108Y-60980947D01*
X86139866Y-61077611D01*
X85763959Y-61492577D01*
X85603096Y-61880961D01*
X85725085Y-62103000D01*
X86868000Y-62103000D01*
X86868000Y-62083000D01*
X87122000Y-62083000D01*
X87122000Y-62103000D01*
X88264915Y-62103000D01*
X88386904Y-61880961D01*
X88226041Y-61492577D01*
X87850134Y-61077611D01*
X87645892Y-60980947D01*
X88029577Y-60724577D01*
X88346740Y-60249909D01*
X88458113Y-59690000D01*
X88346740Y-59130091D01*
X88295229Y-59053000D01*
X88317153Y-59053000D01*
X88392000Y-59067888D01*
X88466847Y-59053000D01*
X88466852Y-59053000D01*
X88688537Y-59008904D01*
X88939929Y-58840929D01*
X88982331Y-58777470D01*
X93152405Y-54607397D01*
X93151887Y-54610000D01*
X93151887Y-54610000D01*
G37*
X93151887Y-54610000D02*
X93263260Y-55169909D01*
X93580423Y-55644577D01*
X93932758Y-55880000D01*
X93580423Y-56115423D01*
X93263260Y-56590091D01*
X93151887Y-57150000D01*
X93216312Y-57473886D01*
X88289128Y-62401071D01*
X88264915Y-62357000D01*
X87122000Y-62357000D01*
X87122000Y-63500629D01*
X87165700Y-63524499D01*
X82235199Y-68455000D01*
X80787647Y-68455000D01*
X80889092Y-67945000D01*
X80773839Y-67365582D01*
X80445625Y-66874375D01*
X80147239Y-66675000D01*
X80445625Y-66475625D01*
X80773839Y-65984418D01*
X80889092Y-65405000D01*
X80773839Y-64825582D01*
X80445625Y-64334375D01*
X80147239Y-64135000D01*
X80445625Y-63935625D01*
X80773839Y-63444418D01*
X80889092Y-62865000D01*
X80832211Y-62579039D01*
X85603096Y-62579039D01*
X85763959Y-62967423D01*
X86139866Y-63382389D01*
X86645959Y-63621914D01*
X86868000Y-63500629D01*
X86868000Y-62357000D01*
X85725085Y-62357000D01*
X85603096Y-62579039D01*
X80832211Y-62579039D01*
X80781421Y-62323700D01*
X81700353Y-62323700D01*
X81775200Y-62338588D01*
X81850047Y-62323700D01*
X81850052Y-62323700D01*
X82071737Y-62279604D01*
X82323129Y-62111629D01*
X82365531Y-62048170D01*
X85233702Y-59180000D01*
X85633332Y-59180000D01*
X85531887Y-59690000D01*
X85643260Y-60249909D01*
X85960423Y-60724577D01*
X86344108Y-60980947D01*
X86139866Y-61077611D01*
X85763959Y-61492577D01*
X85603096Y-61880961D01*
X85725085Y-62103000D01*
X86868000Y-62103000D01*
X86868000Y-62083000D01*
X87122000Y-62083000D01*
X87122000Y-62103000D01*
X88264915Y-62103000D01*
X88386904Y-61880961D01*
X88226041Y-61492577D01*
X87850134Y-61077611D01*
X87645892Y-60980947D01*
X88029577Y-60724577D01*
X88346740Y-60249909D01*
X88458113Y-59690000D01*
X88346740Y-59130091D01*
X88295229Y-59053000D01*
X88317153Y-59053000D01*
X88392000Y-59067888D01*
X88466847Y-59053000D01*
X88466852Y-59053000D01*
X88688537Y-59008904D01*
X88939929Y-58840929D01*
X88982331Y-58777470D01*
X93152405Y-54607397D01*
X93151887Y-54610000D01*
G36*
X69450423Y-63264577D02*
X69802758Y-63500000D01*
X69450423Y-63735423D01*
X69264214Y-64014104D01*
X69063163Y-64054096D01*
X68811771Y-64222071D01*
X68769371Y-64285527D01*
X67919599Y-65135300D01*
X64250169Y-65135300D01*
X64256904Y-65119039D01*
X64134915Y-64897000D01*
X62992000Y-64897000D01*
X62992000Y-64917000D01*
X62738000Y-64917000D01*
X62738000Y-64897000D01*
X61595085Y-64897000D01*
X61473096Y-65119039D01*
X61479831Y-65135300D01*
X55905402Y-65135300D01*
X55055631Y-64285530D01*
X55013229Y-64222071D01*
X54761837Y-64054096D01*
X54560786Y-64014104D01*
X54374577Y-63735423D01*
X54022242Y-63500000D01*
X54374577Y-63264577D01*
X54394804Y-63234305D01*
X55000271Y-63839773D01*
X55042671Y-63903229D01*
X55294063Y-64071204D01*
X55515748Y-64115300D01*
X55515752Y-64115300D01*
X55590600Y-64130188D01*
X55665448Y-64115300D01*
X61599696Y-64115300D01*
X61473096Y-64420961D01*
X61595085Y-64643000D01*
X62738000Y-64643000D01*
X62738000Y-64623000D01*
X62992000Y-64623000D01*
X62992000Y-64643000D01*
X64134915Y-64643000D01*
X64256904Y-64420961D01*
X64130304Y-64115300D01*
X68159553Y-64115300D01*
X68234400Y-64130188D01*
X68309247Y-64115300D01*
X68309252Y-64115300D01*
X68530937Y-64071204D01*
X68782329Y-63903229D01*
X68824731Y-63839770D01*
X69430196Y-63234305D01*
X69450423Y-63264577D01*
X69450423Y-63264577D01*
G37*
X69450423Y-63264577D02*
X69802758Y-63500000D01*
X69450423Y-63735423D01*
X69264214Y-64014104D01*
X69063163Y-64054096D01*
X68811771Y-64222071D01*
X68769371Y-64285527D01*
X67919599Y-65135300D01*
X64250169Y-65135300D01*
X64256904Y-65119039D01*
X64134915Y-64897000D01*
X62992000Y-64897000D01*
X62992000Y-64917000D01*
X62738000Y-64917000D01*
X62738000Y-64897000D01*
X61595085Y-64897000D01*
X61473096Y-65119039D01*
X61479831Y-65135300D01*
X55905402Y-65135300D01*
X55055631Y-64285530D01*
X55013229Y-64222071D01*
X54761837Y-64054096D01*
X54560786Y-64014104D01*
X54374577Y-63735423D01*
X54022242Y-63500000D01*
X54374577Y-63264577D01*
X54394804Y-63234305D01*
X55000271Y-63839773D01*
X55042671Y-63903229D01*
X55294063Y-64071204D01*
X55515748Y-64115300D01*
X55515752Y-64115300D01*
X55590600Y-64130188D01*
X55665448Y-64115300D01*
X61599696Y-64115300D01*
X61473096Y-64420961D01*
X61595085Y-64643000D01*
X62738000Y-64643000D01*
X62738000Y-64623000D01*
X62992000Y-64623000D01*
X62992000Y-64643000D01*
X64134915Y-64643000D01*
X64256904Y-64420961D01*
X64130304Y-64115300D01*
X68159553Y-64115300D01*
X68234400Y-64130188D01*
X68309247Y-64115300D01*
X68309252Y-64115300D01*
X68530937Y-64071204D01*
X68782329Y-63903229D01*
X68824731Y-63839770D01*
X69430196Y-63234305D01*
X69450423Y-63264577D01*
G36*
X40240423Y-37229577D02*
X40592758Y-37465000D01*
X40240423Y-37700423D01*
X39923260Y-38175091D01*
X39811887Y-38735000D01*
X39923260Y-39294909D01*
X40240423Y-39769577D01*
X40715091Y-40086740D01*
X41133667Y-40170000D01*
X41416333Y-40170000D01*
X41650200Y-40123481D01*
X41650200Y-47355400D01*
X39499673Y-47355400D01*
X39419900Y-47339532D01*
X39340127Y-47355400D01*
X39340126Y-47355400D01*
X39103854Y-47402397D01*
X38835923Y-47581423D01*
X38790735Y-47649052D01*
X34757584Y-51682204D01*
X34725625Y-51634375D01*
X34703967Y-51619904D01*
X34864698Y-51553327D01*
X35043327Y-51374699D01*
X35140000Y-51141310D01*
X35140000Y-50450750D01*
X34981250Y-50292000D01*
X33782000Y-50292000D01*
X33782000Y-50312000D01*
X33528000Y-50312000D01*
X33528000Y-50292000D01*
X33508000Y-50292000D01*
X33508000Y-50038000D01*
X33528000Y-50038000D01*
X33528000Y-48838750D01*
X33782000Y-48838750D01*
X33782000Y-50038000D01*
X34981250Y-50038000D01*
X35140000Y-49879250D01*
X35140000Y-49188690D01*
X35043327Y-48955301D01*
X34864698Y-48776673D01*
X34631309Y-48680000D01*
X33940750Y-48680000D01*
X33782000Y-48838750D01*
X33528000Y-48838750D01*
X33369250Y-48680000D01*
X33191400Y-48680000D01*
X33191400Y-40072695D01*
X33305959Y-40126914D01*
X33528000Y-40005629D01*
X33528000Y-38862000D01*
X33782000Y-38862000D01*
X33782000Y-40005629D01*
X34004041Y-40126914D01*
X34510134Y-39887389D01*
X34886041Y-39472423D01*
X35046904Y-39084039D01*
X34924915Y-38862000D01*
X33782000Y-38862000D01*
X33528000Y-38862000D01*
X33508000Y-38862000D01*
X33508000Y-38608000D01*
X33528000Y-38608000D01*
X33528000Y-38588000D01*
X33782000Y-38588000D01*
X33782000Y-38608000D01*
X34924915Y-38608000D01*
X35046904Y-38385961D01*
X34886041Y-37997577D01*
X34510134Y-37582611D01*
X34305892Y-37485947D01*
X34689577Y-37229577D01*
X34873043Y-36955000D01*
X40056957Y-36955000D01*
X40240423Y-37229577D01*
X40240423Y-37229577D01*
G37*
X40240423Y-37229577D02*
X40592758Y-37465000D01*
X40240423Y-37700423D01*
X39923260Y-38175091D01*
X39811887Y-38735000D01*
X39923260Y-39294909D01*
X40240423Y-39769577D01*
X40715091Y-40086740D01*
X41133667Y-40170000D01*
X41416333Y-40170000D01*
X41650200Y-40123481D01*
X41650200Y-47355400D01*
X39499673Y-47355400D01*
X39419900Y-47339532D01*
X39340127Y-47355400D01*
X39340126Y-47355400D01*
X39103854Y-47402397D01*
X38835923Y-47581423D01*
X38790735Y-47649052D01*
X34757584Y-51682204D01*
X34725625Y-51634375D01*
X34703967Y-51619904D01*
X34864698Y-51553327D01*
X35043327Y-51374699D01*
X35140000Y-51141310D01*
X35140000Y-50450750D01*
X34981250Y-50292000D01*
X33782000Y-50292000D01*
X33782000Y-50312000D01*
X33528000Y-50312000D01*
X33528000Y-50292000D01*
X33508000Y-50292000D01*
X33508000Y-50038000D01*
X33528000Y-50038000D01*
X33528000Y-48838750D01*
X33782000Y-48838750D01*
X33782000Y-50038000D01*
X34981250Y-50038000D01*
X35140000Y-49879250D01*
X35140000Y-49188690D01*
X35043327Y-48955301D01*
X34864698Y-48776673D01*
X34631309Y-48680000D01*
X33940750Y-48680000D01*
X33782000Y-48838750D01*
X33528000Y-48838750D01*
X33369250Y-48680000D01*
X33191400Y-48680000D01*
X33191400Y-40072695D01*
X33305959Y-40126914D01*
X33528000Y-40005629D01*
X33528000Y-38862000D01*
X33782000Y-38862000D01*
X33782000Y-40005629D01*
X34004041Y-40126914D01*
X34510134Y-39887389D01*
X34886041Y-39472423D01*
X35046904Y-39084039D01*
X34924915Y-38862000D01*
X33782000Y-38862000D01*
X33528000Y-38862000D01*
X33508000Y-38862000D01*
X33508000Y-38608000D01*
X33528000Y-38608000D01*
X33528000Y-38588000D01*
X33782000Y-38588000D01*
X33782000Y-38608000D01*
X34924915Y-38608000D01*
X35046904Y-38385961D01*
X34886041Y-37997577D01*
X34510134Y-37582611D01*
X34305892Y-37485947D01*
X34689577Y-37229577D01*
X34873043Y-36955000D01*
X40056957Y-36955000D01*
X40240423Y-37229577D01*
G04 #@! TD*
M02*
