G04 #@! TF.GenerationSoftware,KiCad,Pcbnew,5.0.2+dfsg1-1*
G04 #@! TF.CreationDate,2019-07-29T21:28:13+02:00*
G04 #@! TF.ProjectId,Program-Counter,50726f67-7261-46d2-9d43-6f756e746572,rev?*
G04 #@! TF.SameCoordinates,Original*
G04 #@! TF.FileFunction,Legend,Top*
G04 #@! TF.FilePolarity,Positive*
%FSLAX46Y46*%
G04 Gerber Fmt 4.6, Leading zero omitted, Abs format (unit mm)*
G04 Created by KiCad (PCBNEW 5.0.2+dfsg1-1) date ma 29 jul 2019 21:28:13 CEST*
%MOMM*%
%LPD*%
G01*
G04 APERTURE LIST*
%ADD10C,0.150000*%
%ADD11C,0.120000*%
G04 APERTURE END LIST*
D10*
X35657500Y-69750000D02*
X36407500Y-69750000D01*
X35836071Y-70824285D02*
X35836071Y-70074285D01*
X36121785Y-70074285D01*
X36193214Y-70110000D01*
X36228928Y-70145714D01*
X36264642Y-70217142D01*
X36264642Y-70324285D01*
X36228928Y-70395714D01*
X36193214Y-70431428D01*
X36121785Y-70467142D01*
X35836071Y-70467142D01*
X36407500Y-69750000D02*
X37157500Y-69750000D01*
X37014642Y-70752857D02*
X36978928Y-70788571D01*
X36871785Y-70824285D01*
X36800357Y-70824285D01*
X36693214Y-70788571D01*
X36621785Y-70717142D01*
X36586071Y-70645714D01*
X36550357Y-70502857D01*
X36550357Y-70395714D01*
X36586071Y-70252857D01*
X36621785Y-70181428D01*
X36693214Y-70110000D01*
X36800357Y-70074285D01*
X36871785Y-70074285D01*
X36978928Y-70110000D01*
X37014642Y-70145714D01*
X37157500Y-69750000D02*
X37728928Y-69750000D01*
X37157500Y-70895714D02*
X37728928Y-70895714D01*
X37728928Y-69750000D02*
X38514642Y-69750000D01*
X37907500Y-70824285D02*
X37907500Y-70074285D01*
X37907500Y-70431428D02*
X38336071Y-70431428D01*
X38336071Y-70824285D02*
X38336071Y-70074285D01*
X38514642Y-69750000D02*
X39086071Y-69750000D01*
X38514642Y-70895714D02*
X39086071Y-70895714D01*
X39086071Y-69750000D02*
X39871785Y-69750000D01*
X39407500Y-70074285D02*
X39550357Y-70074285D01*
X39621785Y-70110000D01*
X39693214Y-70181428D01*
X39728928Y-70324285D01*
X39728928Y-70574285D01*
X39693214Y-70717142D01*
X39621785Y-70788571D01*
X39550357Y-70824285D01*
X39407500Y-70824285D01*
X39336071Y-70788571D01*
X39264642Y-70717142D01*
X39228928Y-70574285D01*
X39228928Y-70324285D01*
X39264642Y-70181428D01*
X39336071Y-70110000D01*
X39407500Y-70074285D01*
X39871785Y-69750000D02*
X40657500Y-69750000D01*
X40050357Y-70074285D02*
X40050357Y-70681428D01*
X40086071Y-70752857D01*
X40121785Y-70788571D01*
X40193214Y-70824285D01*
X40336071Y-70824285D01*
X40407500Y-70788571D01*
X40443214Y-70752857D01*
X40478928Y-70681428D01*
X40478928Y-70074285D01*
X40657500Y-69750000D02*
X41228928Y-69750000D01*
X40728928Y-70074285D02*
X41157500Y-70074285D01*
X40943214Y-70824285D02*
X40943214Y-70074285D01*
X81393357Y-80770000D02*
X81750500Y-80770000D01*
X81321928Y-80984285D02*
X81571928Y-80234285D01*
X81821928Y-80984285D01*
X82464785Y-80984285D02*
X82036214Y-80984285D01*
X82250500Y-80984285D02*
X82250500Y-80234285D01*
X82179071Y-80341428D01*
X82107642Y-80412857D01*
X82036214Y-80448571D01*
X83179071Y-80984285D02*
X82750500Y-80984285D01*
X82964785Y-80984285D02*
X82964785Y-80234285D01*
X82893357Y-80341428D01*
X82821928Y-80412857D01*
X82750500Y-80448571D01*
X81393357Y-73150000D02*
X81750500Y-73150000D01*
X81321928Y-73364285D02*
X81571928Y-72614285D01*
X81821928Y-73364285D01*
X82179071Y-72935714D02*
X82107642Y-72900000D01*
X82071928Y-72864285D01*
X82036214Y-72792857D01*
X82036214Y-72757142D01*
X82071928Y-72685714D01*
X82107642Y-72650000D01*
X82179071Y-72614285D01*
X82321928Y-72614285D01*
X82393357Y-72650000D01*
X82429071Y-72685714D01*
X82464785Y-72757142D01*
X82464785Y-72792857D01*
X82429071Y-72864285D01*
X82393357Y-72900000D01*
X82321928Y-72935714D01*
X82179071Y-72935714D01*
X82107642Y-72971428D01*
X82071928Y-73007142D01*
X82036214Y-73078571D01*
X82036214Y-73221428D01*
X82071928Y-73292857D01*
X82107642Y-73328571D01*
X82179071Y-73364285D01*
X82321928Y-73364285D01*
X82393357Y-73328571D01*
X82429071Y-73292857D01*
X82464785Y-73221428D01*
X82464785Y-73078571D01*
X82429071Y-73007142D01*
X82393357Y-72971428D01*
X82321928Y-72935714D01*
X81393357Y-85850000D02*
X81750500Y-85850000D01*
X81321928Y-86064285D02*
X81571928Y-85314285D01*
X81821928Y-86064285D01*
X82464785Y-86064285D02*
X82036214Y-86064285D01*
X82250500Y-86064285D02*
X82250500Y-85314285D01*
X82179071Y-85421428D01*
X82107642Y-85492857D01*
X82036214Y-85528571D01*
X82714785Y-85314285D02*
X83179071Y-85314285D01*
X82929071Y-85600000D01*
X83036214Y-85600000D01*
X83107642Y-85635714D01*
X83143357Y-85671428D01*
X83179071Y-85742857D01*
X83179071Y-85921428D01*
X83143357Y-85992857D01*
X83107642Y-86028571D01*
X83036214Y-86064285D01*
X82821928Y-86064285D01*
X82750500Y-86028571D01*
X82714785Y-85992857D01*
X81393357Y-75690000D02*
X81750500Y-75690000D01*
X81321928Y-75904285D02*
X81571928Y-75154285D01*
X81821928Y-75904285D01*
X82107642Y-75904285D02*
X82250500Y-75904285D01*
X82321928Y-75868571D01*
X82357642Y-75832857D01*
X82429071Y-75725714D01*
X82464785Y-75582857D01*
X82464785Y-75297142D01*
X82429071Y-75225714D01*
X82393357Y-75190000D01*
X82321928Y-75154285D01*
X82179071Y-75154285D01*
X82107642Y-75190000D01*
X82071928Y-75225714D01*
X82036214Y-75297142D01*
X82036214Y-75475714D01*
X82071928Y-75547142D01*
X82107642Y-75582857D01*
X82179071Y-75618571D01*
X82321928Y-75618571D01*
X82393357Y-75582857D01*
X82429071Y-75547142D01*
X82464785Y-75475714D01*
X81393357Y-78230000D02*
X81750500Y-78230000D01*
X81321928Y-78444285D02*
X81571928Y-77694285D01*
X81821928Y-78444285D01*
X82464785Y-78444285D02*
X82036214Y-78444285D01*
X82250500Y-78444285D02*
X82250500Y-77694285D01*
X82179071Y-77801428D01*
X82107642Y-77872857D01*
X82036214Y-77908571D01*
X82929071Y-77694285D02*
X83000500Y-77694285D01*
X83071928Y-77730000D01*
X83107642Y-77765714D01*
X83143357Y-77837142D01*
X83179071Y-77980000D01*
X83179071Y-78158571D01*
X83143357Y-78301428D01*
X83107642Y-78372857D01*
X83071928Y-78408571D01*
X83000500Y-78444285D01*
X82929071Y-78444285D01*
X82857642Y-78408571D01*
X82821928Y-78372857D01*
X82786214Y-78301428D01*
X82750500Y-78158571D01*
X82750500Y-77980000D01*
X82786214Y-77837142D01*
X82821928Y-77765714D01*
X82857642Y-77730000D01*
X82929071Y-77694285D01*
X81393357Y-90930000D02*
X81750500Y-90930000D01*
X81321928Y-91144285D02*
X81571928Y-90394285D01*
X81821928Y-91144285D01*
X82464785Y-91144285D02*
X82036214Y-91144285D01*
X82250500Y-91144285D02*
X82250500Y-90394285D01*
X82179071Y-90501428D01*
X82107642Y-90572857D01*
X82036214Y-90608571D01*
X83143357Y-90394285D02*
X82786214Y-90394285D01*
X82750500Y-90751428D01*
X82786214Y-90715714D01*
X82857642Y-90680000D01*
X83036214Y-90680000D01*
X83107642Y-90715714D01*
X83143357Y-90751428D01*
X83179071Y-90822857D01*
X83179071Y-91001428D01*
X83143357Y-91072857D01*
X83107642Y-91108571D01*
X83036214Y-91144285D01*
X82857642Y-91144285D01*
X82786214Y-91108571D01*
X82750500Y-91072857D01*
X81393357Y-83310000D02*
X81750500Y-83310000D01*
X81321928Y-83524285D02*
X81571928Y-82774285D01*
X81821928Y-83524285D01*
X82464785Y-83524285D02*
X82036214Y-83524285D01*
X82250500Y-83524285D02*
X82250500Y-82774285D01*
X82179071Y-82881428D01*
X82107642Y-82952857D01*
X82036214Y-82988571D01*
X82750500Y-82845714D02*
X82786214Y-82810000D01*
X82857642Y-82774285D01*
X83036214Y-82774285D01*
X83107642Y-82810000D01*
X83143357Y-82845714D01*
X83179071Y-82917142D01*
X83179071Y-82988571D01*
X83143357Y-83095714D01*
X82714785Y-83524285D01*
X83179071Y-83524285D01*
X81393357Y-88390000D02*
X81750500Y-88390000D01*
X81321928Y-88604285D02*
X81571928Y-87854285D01*
X81821928Y-88604285D01*
X82464785Y-88604285D02*
X82036214Y-88604285D01*
X82250500Y-88604285D02*
X82250500Y-87854285D01*
X82179071Y-87961428D01*
X82107642Y-88032857D01*
X82036214Y-88068571D01*
X83107642Y-88104285D02*
X83107642Y-88604285D01*
X82929071Y-87818571D02*
X82750500Y-88354285D01*
X83214785Y-88354285D01*
X81393357Y-68070000D02*
X81750500Y-68070000D01*
X81321928Y-68284285D02*
X81571928Y-67534285D01*
X81821928Y-68284285D01*
X82393357Y-67534285D02*
X82250500Y-67534285D01*
X82179071Y-67570000D01*
X82143357Y-67605714D01*
X82071928Y-67712857D01*
X82036214Y-67855714D01*
X82036214Y-68141428D01*
X82071928Y-68212857D01*
X82107642Y-68248571D01*
X82179071Y-68284285D01*
X82321928Y-68284285D01*
X82393357Y-68248571D01*
X82429071Y-68212857D01*
X82464785Y-68141428D01*
X82464785Y-67962857D01*
X82429071Y-67891428D01*
X82393357Y-67855714D01*
X82321928Y-67820000D01*
X82179071Y-67820000D01*
X82107642Y-67855714D01*
X82071928Y-67891428D01*
X82036214Y-67962857D01*
X81393357Y-52830000D02*
X81750500Y-52830000D01*
X81321928Y-53044285D02*
X81571928Y-52294285D01*
X81821928Y-53044285D01*
X82214785Y-52294285D02*
X82286214Y-52294285D01*
X82357642Y-52330000D01*
X82393357Y-52365714D01*
X82429071Y-52437142D01*
X82464785Y-52580000D01*
X82464785Y-52758571D01*
X82429071Y-52901428D01*
X82393357Y-52972857D01*
X82357642Y-53008571D01*
X82286214Y-53044285D01*
X82214785Y-53044285D01*
X82143357Y-53008571D01*
X82107642Y-52972857D01*
X82071928Y-52901428D01*
X82036214Y-52758571D01*
X82036214Y-52580000D01*
X82071928Y-52437142D01*
X82107642Y-52365714D01*
X82143357Y-52330000D01*
X82214785Y-52294285D01*
X81393357Y-70610000D02*
X81750500Y-70610000D01*
X81321928Y-70824285D02*
X81571928Y-70074285D01*
X81821928Y-70824285D01*
X82000500Y-70074285D02*
X82500500Y-70074285D01*
X82179071Y-70824285D01*
X81393357Y-60450000D02*
X81750500Y-60450000D01*
X81321928Y-60664285D02*
X81571928Y-59914285D01*
X81821928Y-60664285D01*
X82000500Y-59914285D02*
X82464785Y-59914285D01*
X82214785Y-60200000D01*
X82321928Y-60200000D01*
X82393357Y-60235714D01*
X82429071Y-60271428D01*
X82464785Y-60342857D01*
X82464785Y-60521428D01*
X82429071Y-60592857D01*
X82393357Y-60628571D01*
X82321928Y-60664285D01*
X82107642Y-60664285D01*
X82036214Y-60628571D01*
X82000500Y-60592857D01*
X81393357Y-62990000D02*
X81750500Y-62990000D01*
X81321928Y-63204285D02*
X81571928Y-62454285D01*
X81821928Y-63204285D01*
X82393357Y-62704285D02*
X82393357Y-63204285D01*
X82214785Y-62418571D02*
X82036214Y-62954285D01*
X82500500Y-62954285D01*
X81393357Y-65530000D02*
X81750500Y-65530000D01*
X81321928Y-65744285D02*
X81571928Y-64994285D01*
X81821928Y-65744285D01*
X82429071Y-64994285D02*
X82071928Y-64994285D01*
X82036214Y-65351428D01*
X82071928Y-65315714D01*
X82143357Y-65280000D01*
X82321928Y-65280000D01*
X82393357Y-65315714D01*
X82429071Y-65351428D01*
X82464785Y-65422857D01*
X82464785Y-65601428D01*
X82429071Y-65672857D01*
X82393357Y-65708571D01*
X82321928Y-65744285D01*
X82143357Y-65744285D01*
X82071928Y-65708571D01*
X82036214Y-65672857D01*
X81393357Y-55370000D02*
X81750500Y-55370000D01*
X81321928Y-55584285D02*
X81571928Y-54834285D01*
X81821928Y-55584285D01*
X82464785Y-55584285D02*
X82036214Y-55584285D01*
X82250500Y-55584285D02*
X82250500Y-54834285D01*
X82179071Y-54941428D01*
X82107642Y-55012857D01*
X82036214Y-55048571D01*
X81393357Y-57910000D02*
X81750500Y-57910000D01*
X81321928Y-58124285D02*
X81571928Y-57374285D01*
X81821928Y-58124285D01*
X82036214Y-57445714D02*
X82071928Y-57410000D01*
X82143357Y-57374285D01*
X82321928Y-57374285D01*
X82393357Y-57410000D01*
X82429071Y-57445714D01*
X82464785Y-57517142D01*
X82464785Y-57588571D01*
X82429071Y-57695714D01*
X82000500Y-58124285D01*
X82464785Y-58124285D01*
X35657500Y-67210000D02*
X36407500Y-67210000D01*
X35836071Y-68284285D02*
X35836071Y-67534285D01*
X36121785Y-67534285D01*
X36193214Y-67570000D01*
X36228928Y-67605714D01*
X36264642Y-67677142D01*
X36264642Y-67784285D01*
X36228928Y-67855714D01*
X36193214Y-67891428D01*
X36121785Y-67927142D01*
X35836071Y-67927142D01*
X36407500Y-67210000D02*
X37157500Y-67210000D01*
X37014642Y-68212857D02*
X36978928Y-68248571D01*
X36871785Y-68284285D01*
X36800357Y-68284285D01*
X36693214Y-68248571D01*
X36621785Y-68177142D01*
X36586071Y-68105714D01*
X36550357Y-67962857D01*
X36550357Y-67855714D01*
X36586071Y-67712857D01*
X36621785Y-67641428D01*
X36693214Y-67570000D01*
X36800357Y-67534285D01*
X36871785Y-67534285D01*
X36978928Y-67570000D01*
X37014642Y-67605714D01*
X37157500Y-67210000D02*
X37728928Y-67210000D01*
X37157500Y-68355714D02*
X37728928Y-68355714D01*
X37728928Y-67210000D02*
X38336071Y-67210000D01*
X38264642Y-68284285D02*
X37907500Y-68284285D01*
X37907500Y-67534285D01*
X38336071Y-67210000D02*
X38907500Y-67210000D01*
X38336071Y-68355714D02*
X38907500Y-68355714D01*
X38907500Y-67210000D02*
X39693214Y-67210000D01*
X39228928Y-67534285D02*
X39371785Y-67534285D01*
X39443214Y-67570000D01*
X39514642Y-67641428D01*
X39550357Y-67784285D01*
X39550357Y-68034285D01*
X39514642Y-68177142D01*
X39443214Y-68248571D01*
X39371785Y-68284285D01*
X39228928Y-68284285D01*
X39157500Y-68248571D01*
X39086071Y-68177142D01*
X39050357Y-68034285D01*
X39050357Y-67784285D01*
X39086071Y-67641428D01*
X39157500Y-67570000D01*
X39228928Y-67534285D01*
X39693214Y-67210000D02*
X40478928Y-67210000D01*
X39871785Y-67534285D02*
X39871785Y-68141428D01*
X39907500Y-68212857D01*
X39943214Y-68248571D01*
X40014642Y-68284285D01*
X40157500Y-68284285D01*
X40228928Y-68248571D01*
X40264642Y-68212857D01*
X40300357Y-68141428D01*
X40300357Y-67534285D01*
X40478928Y-67210000D02*
X41050357Y-67210000D01*
X40550357Y-67534285D02*
X40978928Y-67534285D01*
X40764642Y-68284285D02*
X40764642Y-67534285D01*
X35657500Y-64670000D02*
X36407500Y-64670000D01*
X35836071Y-65744285D02*
X35836071Y-64994285D01*
X36121785Y-64994285D01*
X36193214Y-65030000D01*
X36228928Y-65065714D01*
X36264642Y-65137142D01*
X36264642Y-65244285D01*
X36228928Y-65315714D01*
X36193214Y-65351428D01*
X36121785Y-65387142D01*
X35836071Y-65387142D01*
X36407500Y-64670000D02*
X37157500Y-64670000D01*
X37014642Y-65672857D02*
X36978928Y-65708571D01*
X36871785Y-65744285D01*
X36800357Y-65744285D01*
X36693214Y-65708571D01*
X36621785Y-65637142D01*
X36586071Y-65565714D01*
X36550357Y-65422857D01*
X36550357Y-65315714D01*
X36586071Y-65172857D01*
X36621785Y-65101428D01*
X36693214Y-65030000D01*
X36800357Y-64994285D01*
X36871785Y-64994285D01*
X36978928Y-65030000D01*
X37014642Y-65065714D01*
X37157500Y-64670000D02*
X37728928Y-64670000D01*
X37157500Y-65815714D02*
X37728928Y-65815714D01*
X37728928Y-64670000D02*
X38514642Y-64670000D01*
X37907500Y-65744285D02*
X37907500Y-64994285D01*
X37907500Y-65351428D02*
X38336071Y-65351428D01*
X38336071Y-65744285D02*
X38336071Y-64994285D01*
X38514642Y-64670000D02*
X39086071Y-64670000D01*
X38514642Y-65815714D02*
X39086071Y-65815714D01*
X39086071Y-64670000D02*
X39693214Y-64670000D01*
X39621785Y-65744285D02*
X39264642Y-65744285D01*
X39264642Y-64994285D01*
X39693214Y-64670000D02*
X40478928Y-64670000D01*
X40014642Y-64994285D02*
X40157500Y-64994285D01*
X40228928Y-65030000D01*
X40300357Y-65101428D01*
X40336071Y-65244285D01*
X40336071Y-65494285D01*
X40300357Y-65637142D01*
X40228928Y-65708571D01*
X40157500Y-65744285D01*
X40014642Y-65744285D01*
X39943214Y-65708571D01*
X39871785Y-65637142D01*
X39836071Y-65494285D01*
X39836071Y-65244285D01*
X39871785Y-65101428D01*
X39943214Y-65030000D01*
X40014642Y-64994285D01*
X40478928Y-64670000D02*
X41121785Y-64670000D01*
X40621785Y-65530000D02*
X40978928Y-65530000D01*
X40550357Y-65744285D02*
X40800357Y-64994285D01*
X41050357Y-65744285D01*
X41121785Y-64670000D02*
X41871785Y-64670000D01*
X41300357Y-65744285D02*
X41300357Y-64994285D01*
X41478928Y-64994285D01*
X41586071Y-65030000D01*
X41657500Y-65101428D01*
X41693214Y-65172857D01*
X41728928Y-65315714D01*
X41728928Y-65422857D01*
X41693214Y-65565714D01*
X41657500Y-65637142D01*
X41586071Y-65708571D01*
X41478928Y-65744285D01*
X41300357Y-65744285D01*
X35657500Y-62130000D02*
X36407500Y-62130000D01*
X35836071Y-63204285D02*
X35836071Y-62454285D01*
X36121785Y-62454285D01*
X36193214Y-62490000D01*
X36228928Y-62525714D01*
X36264642Y-62597142D01*
X36264642Y-62704285D01*
X36228928Y-62775714D01*
X36193214Y-62811428D01*
X36121785Y-62847142D01*
X35836071Y-62847142D01*
X36407500Y-62130000D02*
X37157500Y-62130000D01*
X37014642Y-63132857D02*
X36978928Y-63168571D01*
X36871785Y-63204285D01*
X36800357Y-63204285D01*
X36693214Y-63168571D01*
X36621785Y-63097142D01*
X36586071Y-63025714D01*
X36550357Y-62882857D01*
X36550357Y-62775714D01*
X36586071Y-62632857D01*
X36621785Y-62561428D01*
X36693214Y-62490000D01*
X36800357Y-62454285D01*
X36871785Y-62454285D01*
X36978928Y-62490000D01*
X37014642Y-62525714D01*
X37157500Y-62130000D02*
X37728928Y-62130000D01*
X37157500Y-63275714D02*
X37728928Y-63275714D01*
X37728928Y-62130000D02*
X38336071Y-62130000D01*
X38264642Y-63204285D02*
X37907500Y-63204285D01*
X37907500Y-62454285D01*
X38336071Y-62130000D02*
X38907500Y-62130000D01*
X38336071Y-63275714D02*
X38907500Y-63275714D01*
X38907500Y-62130000D02*
X39514642Y-62130000D01*
X39443214Y-63204285D02*
X39086071Y-63204285D01*
X39086071Y-62454285D01*
X39514642Y-62130000D02*
X40300357Y-62130000D01*
X39836071Y-62454285D02*
X39978928Y-62454285D01*
X40050357Y-62490000D01*
X40121785Y-62561428D01*
X40157500Y-62704285D01*
X40157500Y-62954285D01*
X40121785Y-63097142D01*
X40050357Y-63168571D01*
X39978928Y-63204285D01*
X39836071Y-63204285D01*
X39764642Y-63168571D01*
X39693214Y-63097142D01*
X39657500Y-62954285D01*
X39657500Y-62704285D01*
X39693214Y-62561428D01*
X39764642Y-62490000D01*
X39836071Y-62454285D01*
X40300357Y-62130000D02*
X40943214Y-62130000D01*
X40443214Y-62990000D02*
X40800357Y-62990000D01*
X40371785Y-63204285D02*
X40621785Y-62454285D01*
X40871785Y-63204285D01*
X40943214Y-62130000D02*
X41693214Y-62130000D01*
X41121785Y-63204285D02*
X41121785Y-62454285D01*
X41300357Y-62454285D01*
X41407500Y-62490000D01*
X41478928Y-62561428D01*
X41514642Y-62632857D01*
X41550357Y-62775714D01*
X41550357Y-62882857D01*
X41514642Y-63025714D01*
X41478928Y-63097142D01*
X41407500Y-63168571D01*
X41300357Y-63204285D01*
X41121785Y-63204285D01*
X35836071Y-60664285D02*
X35836071Y-59914285D01*
X36121785Y-59914285D01*
X36193214Y-59950000D01*
X36228928Y-59985714D01*
X36264642Y-60057142D01*
X36264642Y-60164285D01*
X36228928Y-60235714D01*
X36193214Y-60271428D01*
X36121785Y-60307142D01*
X35836071Y-60307142D01*
X37014642Y-60592857D02*
X36978928Y-60628571D01*
X36871785Y-60664285D01*
X36800357Y-60664285D01*
X36693214Y-60628571D01*
X36621785Y-60557142D01*
X36586071Y-60485714D01*
X36550357Y-60342857D01*
X36550357Y-60235714D01*
X36586071Y-60092857D01*
X36621785Y-60021428D01*
X36693214Y-59950000D01*
X36800357Y-59914285D01*
X36871785Y-59914285D01*
X36978928Y-59950000D01*
X37014642Y-59985714D01*
X37157500Y-60735714D02*
X37728928Y-60735714D01*
X37907500Y-60664285D02*
X37907500Y-59914285D01*
X38086071Y-59914285D01*
X38193214Y-59950000D01*
X38264642Y-60021428D01*
X38300357Y-60092857D01*
X38336071Y-60235714D01*
X38336071Y-60342857D01*
X38300357Y-60485714D01*
X38264642Y-60557142D01*
X38193214Y-60628571D01*
X38086071Y-60664285D01*
X37907500Y-60664285D01*
X38657500Y-60271428D02*
X38907500Y-60271428D01*
X39014642Y-60664285D02*
X38657500Y-60664285D01*
X38657500Y-59914285D01*
X39014642Y-59914285D01*
X39764642Y-60592857D02*
X39728928Y-60628571D01*
X39621785Y-60664285D01*
X39550357Y-60664285D01*
X39443214Y-60628571D01*
X39371785Y-60557142D01*
X39336071Y-60485714D01*
X39300357Y-60342857D01*
X39300357Y-60235714D01*
X39336071Y-60092857D01*
X39371785Y-60021428D01*
X39443214Y-59950000D01*
X39550357Y-59914285D01*
X39621785Y-59914285D01*
X39728928Y-59950000D01*
X39764642Y-59985714D01*
X36264642Y-55512857D02*
X36228928Y-55548571D01*
X36121785Y-55584285D01*
X36050357Y-55584285D01*
X35943214Y-55548571D01*
X35871785Y-55477142D01*
X35836071Y-55405714D01*
X35800357Y-55262857D01*
X35800357Y-55155714D01*
X35836071Y-55012857D01*
X35871785Y-54941428D01*
X35943214Y-54870000D01*
X36050357Y-54834285D01*
X36121785Y-54834285D01*
X36228928Y-54870000D01*
X36264642Y-54905714D01*
X36943214Y-55584285D02*
X36586071Y-55584285D01*
X36586071Y-54834285D01*
X37336071Y-54834285D02*
X37478928Y-54834285D01*
X37550357Y-54870000D01*
X37621785Y-54941428D01*
X37657500Y-55084285D01*
X37657500Y-55334285D01*
X37621785Y-55477142D01*
X37550357Y-55548571D01*
X37478928Y-55584285D01*
X37336071Y-55584285D01*
X37264642Y-55548571D01*
X37193214Y-55477142D01*
X37157500Y-55334285D01*
X37157500Y-55084285D01*
X37193214Y-54941428D01*
X37264642Y-54870000D01*
X37336071Y-54834285D01*
X38407500Y-55512857D02*
X38371785Y-55548571D01*
X38264642Y-55584285D01*
X38193214Y-55584285D01*
X38086071Y-55548571D01*
X38014642Y-55477142D01*
X37978928Y-55405714D01*
X37943214Y-55262857D01*
X37943214Y-55155714D01*
X37978928Y-55012857D01*
X38014642Y-54941428D01*
X38086071Y-54870000D01*
X38193214Y-54834285D01*
X38264642Y-54834285D01*
X38371785Y-54870000D01*
X38407500Y-54905714D01*
X38728928Y-55584285D02*
X38728928Y-54834285D01*
X39157500Y-55584285D02*
X38836071Y-55155714D01*
X39157500Y-54834285D02*
X38728928Y-55262857D01*
X35836071Y-73364285D02*
X35836071Y-72614285D01*
X36014642Y-72614285D01*
X36121785Y-72650000D01*
X36193214Y-72721428D01*
X36228928Y-72792857D01*
X36264642Y-72935714D01*
X36264642Y-73042857D01*
X36228928Y-73185714D01*
X36193214Y-73257142D01*
X36121785Y-73328571D01*
X36014642Y-73364285D01*
X35836071Y-73364285D01*
X36728928Y-72614285D02*
X36800357Y-72614285D01*
X36871785Y-72650000D01*
X36907500Y-72685714D01*
X36943214Y-72757142D01*
X36978928Y-72900000D01*
X36978928Y-73078571D01*
X36943214Y-73221428D01*
X36907500Y-73292857D01*
X36871785Y-73328571D01*
X36800357Y-73364285D01*
X36728928Y-73364285D01*
X36657500Y-73328571D01*
X36621785Y-73292857D01*
X36586071Y-73221428D01*
X36550357Y-73078571D01*
X36550357Y-72900000D01*
X36586071Y-72757142D01*
X36621785Y-72685714D01*
X36657500Y-72650000D01*
X36728928Y-72614285D01*
X35836071Y-75904285D02*
X35836071Y-75154285D01*
X36014642Y-75154285D01*
X36121785Y-75190000D01*
X36193214Y-75261428D01*
X36228928Y-75332857D01*
X36264642Y-75475714D01*
X36264642Y-75582857D01*
X36228928Y-75725714D01*
X36193214Y-75797142D01*
X36121785Y-75868571D01*
X36014642Y-75904285D01*
X35836071Y-75904285D01*
X36978928Y-75904285D02*
X36550357Y-75904285D01*
X36764642Y-75904285D02*
X36764642Y-75154285D01*
X36693214Y-75261428D01*
X36621785Y-75332857D01*
X36550357Y-75368571D01*
X35836071Y-78444285D02*
X35836071Y-77694285D01*
X36014642Y-77694285D01*
X36121785Y-77730000D01*
X36193214Y-77801428D01*
X36228928Y-77872857D01*
X36264642Y-78015714D01*
X36264642Y-78122857D01*
X36228928Y-78265714D01*
X36193214Y-78337142D01*
X36121785Y-78408571D01*
X36014642Y-78444285D01*
X35836071Y-78444285D01*
X36550357Y-77765714D02*
X36586071Y-77730000D01*
X36657500Y-77694285D01*
X36836071Y-77694285D01*
X36907500Y-77730000D01*
X36943214Y-77765714D01*
X36978928Y-77837142D01*
X36978928Y-77908571D01*
X36943214Y-78015714D01*
X36514642Y-78444285D01*
X36978928Y-78444285D01*
X35836071Y-80984285D02*
X35836071Y-80234285D01*
X36014642Y-80234285D01*
X36121785Y-80270000D01*
X36193214Y-80341428D01*
X36228928Y-80412857D01*
X36264642Y-80555714D01*
X36264642Y-80662857D01*
X36228928Y-80805714D01*
X36193214Y-80877142D01*
X36121785Y-80948571D01*
X36014642Y-80984285D01*
X35836071Y-80984285D01*
X36514642Y-80234285D02*
X36978928Y-80234285D01*
X36728928Y-80520000D01*
X36836071Y-80520000D01*
X36907500Y-80555714D01*
X36943214Y-80591428D01*
X36978928Y-80662857D01*
X36978928Y-80841428D01*
X36943214Y-80912857D01*
X36907500Y-80948571D01*
X36836071Y-80984285D01*
X36621785Y-80984285D01*
X36550357Y-80948571D01*
X36514642Y-80912857D01*
X35836071Y-83524285D02*
X35836071Y-82774285D01*
X36014642Y-82774285D01*
X36121785Y-82810000D01*
X36193214Y-82881428D01*
X36228928Y-82952857D01*
X36264642Y-83095714D01*
X36264642Y-83202857D01*
X36228928Y-83345714D01*
X36193214Y-83417142D01*
X36121785Y-83488571D01*
X36014642Y-83524285D01*
X35836071Y-83524285D01*
X36907500Y-83024285D02*
X36907500Y-83524285D01*
X36728928Y-82738571D02*
X36550357Y-83274285D01*
X37014642Y-83274285D01*
X35836071Y-86064285D02*
X35836071Y-85314285D01*
X36014642Y-85314285D01*
X36121785Y-85350000D01*
X36193214Y-85421428D01*
X36228928Y-85492857D01*
X36264642Y-85635714D01*
X36264642Y-85742857D01*
X36228928Y-85885714D01*
X36193214Y-85957142D01*
X36121785Y-86028571D01*
X36014642Y-86064285D01*
X35836071Y-86064285D01*
X36943214Y-85314285D02*
X36586071Y-85314285D01*
X36550357Y-85671428D01*
X36586071Y-85635714D01*
X36657500Y-85600000D01*
X36836071Y-85600000D01*
X36907500Y-85635714D01*
X36943214Y-85671428D01*
X36978928Y-85742857D01*
X36978928Y-85921428D01*
X36943214Y-85992857D01*
X36907500Y-86028571D01*
X36836071Y-86064285D01*
X36657500Y-86064285D01*
X36586071Y-86028571D01*
X36550357Y-85992857D01*
X35836071Y-88604285D02*
X35836071Y-87854285D01*
X36014642Y-87854285D01*
X36121785Y-87890000D01*
X36193214Y-87961428D01*
X36228928Y-88032857D01*
X36264642Y-88175714D01*
X36264642Y-88282857D01*
X36228928Y-88425714D01*
X36193214Y-88497142D01*
X36121785Y-88568571D01*
X36014642Y-88604285D01*
X35836071Y-88604285D01*
X36907500Y-87854285D02*
X36764642Y-87854285D01*
X36693214Y-87890000D01*
X36657500Y-87925714D01*
X36586071Y-88032857D01*
X36550357Y-88175714D01*
X36550357Y-88461428D01*
X36586071Y-88532857D01*
X36621785Y-88568571D01*
X36693214Y-88604285D01*
X36836071Y-88604285D01*
X36907500Y-88568571D01*
X36943214Y-88532857D01*
X36978928Y-88461428D01*
X36978928Y-88282857D01*
X36943214Y-88211428D01*
X36907500Y-88175714D01*
X36836071Y-88140000D01*
X36693214Y-88140000D01*
X36621785Y-88175714D01*
X36586071Y-88211428D01*
X36550357Y-88282857D01*
X35836071Y-91144285D02*
X35836071Y-90394285D01*
X36014642Y-90394285D01*
X36121785Y-90430000D01*
X36193214Y-90501428D01*
X36228928Y-90572857D01*
X36264642Y-90715714D01*
X36264642Y-90822857D01*
X36228928Y-90965714D01*
X36193214Y-91037142D01*
X36121785Y-91108571D01*
X36014642Y-91144285D01*
X35836071Y-91144285D01*
X36514642Y-90394285D02*
X37014642Y-90394285D01*
X36693214Y-91144285D01*
X35836071Y-52758571D02*
X36407500Y-52758571D01*
X36121785Y-53044285D02*
X36121785Y-52472857D01*
X37121785Y-52294285D02*
X36764642Y-52294285D01*
X36728928Y-52651428D01*
X36764642Y-52615714D01*
X36836071Y-52580000D01*
X37014642Y-52580000D01*
X37086071Y-52615714D01*
X37121785Y-52651428D01*
X37157500Y-52722857D01*
X37157500Y-52901428D01*
X37121785Y-52972857D01*
X37086071Y-53008571D01*
X37014642Y-53044285D01*
X36836071Y-53044285D01*
X36764642Y-53008571D01*
X36728928Y-52972857D01*
X37371785Y-52294285D02*
X37621785Y-53044285D01*
X37871785Y-52294285D01*
X36228928Y-49790000D02*
X36157500Y-49754285D01*
X36050357Y-49754285D01*
X35943214Y-49790000D01*
X35871785Y-49861428D01*
X35836071Y-49932857D01*
X35800357Y-50075714D01*
X35800357Y-50182857D01*
X35836071Y-50325714D01*
X35871785Y-50397142D01*
X35943214Y-50468571D01*
X36050357Y-50504285D01*
X36121785Y-50504285D01*
X36228928Y-50468571D01*
X36264642Y-50432857D01*
X36264642Y-50182857D01*
X36121785Y-50182857D01*
X36586071Y-50504285D02*
X36586071Y-49754285D01*
X37014642Y-50504285D01*
X37014642Y-49754285D01*
X37371785Y-50504285D02*
X37371785Y-49754285D01*
X37550357Y-49754285D01*
X37657500Y-49790000D01*
X37728928Y-49861428D01*
X37764642Y-49932857D01*
X37800357Y-50075714D01*
X37800357Y-50182857D01*
X37764642Y-50325714D01*
X37728928Y-50397142D01*
X37657500Y-50468571D01*
X37550357Y-50504285D01*
X37371785Y-50504285D01*
X35836071Y-58124285D02*
X35836071Y-57374285D01*
X36121785Y-57374285D01*
X36193214Y-57410000D01*
X36228928Y-57445714D01*
X36264642Y-57517142D01*
X36264642Y-57624285D01*
X36228928Y-57695714D01*
X36193214Y-57731428D01*
X36121785Y-57767142D01*
X35836071Y-57767142D01*
X37014642Y-58052857D02*
X36978928Y-58088571D01*
X36871785Y-58124285D01*
X36800357Y-58124285D01*
X36693214Y-58088571D01*
X36621785Y-58017142D01*
X36586071Y-57945714D01*
X36550357Y-57802857D01*
X36550357Y-57695714D01*
X36586071Y-57552857D01*
X36621785Y-57481428D01*
X36693214Y-57410000D01*
X36800357Y-57374285D01*
X36871785Y-57374285D01*
X36978928Y-57410000D01*
X37014642Y-57445714D01*
X37157500Y-58195714D02*
X37728928Y-58195714D01*
X37907500Y-58124285D02*
X37907500Y-57374285D01*
X38264642Y-58124285D02*
X38264642Y-57374285D01*
X38693214Y-58124285D01*
X38693214Y-57374285D01*
X39478928Y-58052857D02*
X39443214Y-58088571D01*
X39336071Y-58124285D01*
X39264642Y-58124285D01*
X39157500Y-58088571D01*
X39086071Y-58017142D01*
X39050357Y-57945714D01*
X39014642Y-57802857D01*
X39014642Y-57695714D01*
X39050357Y-57552857D01*
X39086071Y-57481428D01*
X39157500Y-57410000D01*
X39264642Y-57374285D01*
X39336071Y-57374285D01*
X39443214Y-57410000D01*
X39478928Y-57445714D01*
D11*
G04 #@! TO.C,U4*
X67675000Y-45660000D02*
G75*
G02X65675000Y-45660000I-1000000J0D01*
G01*
X65675000Y-45660000D02*
X64025000Y-45660000D01*
X64025000Y-45660000D02*
X64025000Y-66100000D01*
X64025000Y-66100000D02*
X69325000Y-66100000D01*
X69325000Y-66100000D02*
X69325000Y-45660000D01*
X69325000Y-45660000D02*
X67675000Y-45660000D01*
G04 #@! TO.C,J2*
X78045000Y-51375000D02*
X79375000Y-51375000D01*
X78045000Y-52705000D02*
X78045000Y-51375000D01*
X78045000Y-53975000D02*
X80705000Y-53975000D01*
X80705000Y-53975000D02*
X80705000Y-92135000D01*
X78045000Y-53975000D02*
X78045000Y-92135000D01*
X78045000Y-92135000D02*
X80705000Y-92135000D01*
G04 #@! TO.C,J1*
X32325000Y-92135000D02*
X34985000Y-92135000D01*
X32325000Y-51435000D02*
X32325000Y-92135000D01*
X34985000Y-51435000D02*
X34985000Y-92135000D01*
X32325000Y-51435000D02*
X34985000Y-51435000D01*
X32325000Y-50165000D02*
X32325000Y-48835000D01*
X32325000Y-48835000D02*
X33655000Y-48835000D01*
G04 #@! TO.C,BAR2*
X70345000Y-25895000D02*
X96025000Y-25895000D01*
X70345000Y-36335000D02*
X70345000Y-25895000D01*
X96025000Y-36335000D02*
X70345000Y-36335000D01*
X96025000Y-25895000D02*
X96025000Y-36335000D01*
X70055000Y-36625000D02*
X71755000Y-36625000D01*
X70055000Y-34925000D02*
X70055000Y-36625000D01*
G04 #@! TO.C,BAR1*
X44020000Y-34925000D02*
X44020000Y-36625000D01*
X44020000Y-36625000D02*
X45720000Y-36625000D01*
X69990000Y-25895000D02*
X69990000Y-36335000D01*
X69990000Y-36335000D02*
X44310000Y-36335000D01*
X44310000Y-36335000D02*
X44310000Y-25895000D01*
X44310000Y-25895000D02*
X69990000Y-25895000D01*
G04 #@! TO.C,U1*
X38465000Y-22165000D02*
G75*
G02X36465000Y-22165000I-1000000J0D01*
G01*
X36465000Y-22165000D02*
X34815000Y-22165000D01*
X34815000Y-22165000D02*
X34815000Y-40065000D01*
X34815000Y-40065000D02*
X40115000Y-40065000D01*
X40115000Y-40065000D02*
X40115000Y-22165000D01*
X40115000Y-22165000D02*
X38465000Y-22165000D01*
G04 #@! TO.C,U5*
X69325000Y-71695000D02*
X67675000Y-71695000D01*
X69325000Y-92135000D02*
X69325000Y-71695000D01*
X64025000Y-92135000D02*
X69325000Y-92135000D01*
X64025000Y-71695000D02*
X64025000Y-92135000D01*
X65675000Y-71695000D02*
X64025000Y-71695000D01*
X67675000Y-71695000D02*
G75*
G02X65675000Y-71695000I-1000000J0D01*
G01*
G04 #@! TO.C,U3*
X52180000Y-71695000D02*
X50530000Y-71695000D01*
X52180000Y-92135000D02*
X52180000Y-71695000D01*
X46880000Y-92135000D02*
X52180000Y-92135000D01*
X46880000Y-71695000D02*
X46880000Y-92135000D01*
X48530000Y-71695000D02*
X46880000Y-71695000D01*
X50530000Y-71695000D02*
G75*
G02X48530000Y-71695000I-1000000J0D01*
G01*
G04 #@! TO.C,U2*
X50530000Y-45660000D02*
G75*
G02X48530000Y-45660000I-1000000J0D01*
G01*
X48530000Y-45660000D02*
X46880000Y-45660000D01*
X46880000Y-45660000D02*
X46880000Y-66100000D01*
X46880000Y-66100000D02*
X52180000Y-66100000D01*
X52180000Y-66100000D02*
X52180000Y-45660000D01*
X52180000Y-45660000D02*
X50530000Y-45660000D01*
G04 #@! TO.C,U7*
X93455000Y-66615000D02*
X91805000Y-66615000D01*
X93455000Y-92135000D02*
X93455000Y-66615000D01*
X88155000Y-92135000D02*
X93455000Y-92135000D01*
X88155000Y-66615000D02*
X88155000Y-92135000D01*
X89805000Y-66615000D02*
X88155000Y-66615000D01*
X91805000Y-66615000D02*
G75*
G02X89805000Y-66615000I-1000000J0D01*
G01*
G04 #@! TO.C,U6*
X91805000Y-38040000D02*
G75*
G02X89805000Y-38040000I-1000000J0D01*
G01*
X89805000Y-38040000D02*
X88155000Y-38040000D01*
X88155000Y-38040000D02*
X88155000Y-63560000D01*
X88155000Y-63560000D02*
X93455000Y-63560000D01*
X93455000Y-63560000D02*
X93455000Y-38040000D01*
X93455000Y-38040000D02*
X91805000Y-38040000D01*
G04 #@! TO.C,RN2*
X70485000Y-22095000D02*
X70485000Y-24895000D01*
X90975000Y-22095000D02*
X67775000Y-22095000D01*
X90975000Y-24895000D02*
X90975000Y-22095000D01*
X67775000Y-24895000D02*
X90975000Y-24895000D01*
X67775000Y-22095000D02*
X67775000Y-24895000D01*
G04 #@! TO.C,RN1*
X44280000Y-22095000D02*
X44280000Y-24895000D01*
X44280000Y-24895000D02*
X67480000Y-24895000D01*
X67480000Y-24895000D02*
X67480000Y-22095000D01*
X67480000Y-22095000D02*
X44280000Y-22095000D01*
X46990000Y-22095000D02*
X46990000Y-24895000D01*
G04 #@! TO.C,U4*
D10*
X65913095Y-55332380D02*
X65913095Y-56141904D01*
X65960714Y-56237142D01*
X66008333Y-56284761D01*
X66103571Y-56332380D01*
X66294047Y-56332380D01*
X66389285Y-56284761D01*
X66436904Y-56237142D01*
X66484523Y-56141904D01*
X66484523Y-55332380D01*
X67389285Y-55665714D02*
X67389285Y-56332380D01*
X67151190Y-55284761D02*
X66913095Y-55999047D01*
X67532142Y-55999047D01*
X64032142Y-66552380D02*
X64698809Y-66552380D01*
X64270238Y-67552380D01*
X65508333Y-66885714D02*
X65508333Y-67552380D01*
X65270238Y-66504761D02*
X65032142Y-67219047D01*
X65651190Y-67219047D01*
X65936904Y-67552380D02*
X66460714Y-66885714D01*
X65936904Y-66885714D02*
X66460714Y-67552380D01*
X67365476Y-67552380D02*
X66794047Y-67552380D01*
X67079761Y-67552380D02*
X67079761Y-66552380D01*
X66984523Y-66695238D01*
X66889285Y-66790476D01*
X66794047Y-66838095D01*
X67841666Y-67552380D02*
X68032142Y-67552380D01*
X68127380Y-67504761D01*
X68175000Y-67457142D01*
X68270238Y-67314285D01*
X68317857Y-67123809D01*
X68317857Y-66742857D01*
X68270238Y-66647619D01*
X68222619Y-66600000D01*
X68127380Y-66552380D01*
X67936904Y-66552380D01*
X67841666Y-66600000D01*
X67794047Y-66647619D01*
X67746428Y-66742857D01*
X67746428Y-66980952D01*
X67794047Y-67076190D01*
X67841666Y-67123809D01*
X67936904Y-67171428D01*
X68127380Y-67171428D01*
X68222619Y-67123809D01*
X68270238Y-67076190D01*
X68317857Y-66980952D01*
X69270238Y-67552380D02*
X68698809Y-67552380D01*
X68984523Y-67552380D02*
X68984523Y-66552380D01*
X68889285Y-66695238D01*
X68794047Y-66790476D01*
X68698809Y-66838095D01*
G04 #@! TO.C,J2*
X79041666Y-49827380D02*
X79041666Y-50541666D01*
X78994047Y-50684523D01*
X78898809Y-50779761D01*
X78755952Y-50827380D01*
X78660714Y-50827380D01*
X79470238Y-49922619D02*
X79517857Y-49875000D01*
X79613095Y-49827380D01*
X79851190Y-49827380D01*
X79946428Y-49875000D01*
X79994047Y-49922619D01*
X80041666Y-50017857D01*
X80041666Y-50113095D01*
X79994047Y-50255952D01*
X79422619Y-50827380D01*
X80041666Y-50827380D01*
X77287380Y-78278809D02*
X76287380Y-78278809D01*
X77001666Y-77945476D01*
X76287380Y-77612142D01*
X77287380Y-77612142D01*
X76763571Y-77135952D02*
X76763571Y-76802619D01*
X77287380Y-76659761D02*
X77287380Y-77135952D01*
X76287380Y-77135952D01*
X76287380Y-76659761D01*
X77287380Y-76231190D02*
X76287380Y-76231190D01*
X77001666Y-75897857D01*
X76287380Y-75564523D01*
X77287380Y-75564523D01*
X76287380Y-74897857D02*
X76287380Y-74707380D01*
X76335000Y-74612142D01*
X76430238Y-74516904D01*
X76620714Y-74469285D01*
X76954047Y-74469285D01*
X77144523Y-74516904D01*
X77239761Y-74612142D01*
X77287380Y-74707380D01*
X77287380Y-74897857D01*
X77239761Y-74993095D01*
X77144523Y-75088333D01*
X76954047Y-75135952D01*
X76620714Y-75135952D01*
X76430238Y-75088333D01*
X76335000Y-74993095D01*
X76287380Y-74897857D01*
X77287380Y-73469285D02*
X76811190Y-73802619D01*
X77287380Y-74040714D02*
X76287380Y-74040714D01*
X76287380Y-73659761D01*
X76335000Y-73564523D01*
X76382619Y-73516904D01*
X76477857Y-73469285D01*
X76620714Y-73469285D01*
X76715952Y-73516904D01*
X76763571Y-73564523D01*
X76811190Y-73659761D01*
X76811190Y-74040714D01*
X76811190Y-72850238D02*
X77287380Y-72850238D01*
X76287380Y-73183571D02*
X76811190Y-72850238D01*
X76287380Y-72516904D01*
X77001666Y-71469285D02*
X77001666Y-70993095D01*
X77287380Y-71564523D02*
X76287380Y-71231190D01*
X77287380Y-70897857D01*
X77287380Y-70564523D02*
X76287380Y-70564523D01*
X76287380Y-70326428D01*
X76335000Y-70183571D01*
X76430238Y-70088333D01*
X76525476Y-70040714D01*
X76715952Y-69993095D01*
X76858809Y-69993095D01*
X77049285Y-70040714D01*
X77144523Y-70088333D01*
X77239761Y-70183571D01*
X77287380Y-70326428D01*
X77287380Y-70564523D01*
X77287380Y-69564523D02*
X76287380Y-69564523D01*
X76287380Y-69326428D01*
X76335000Y-69183571D01*
X76430238Y-69088333D01*
X76525476Y-69040714D01*
X76715952Y-68993095D01*
X76858809Y-68993095D01*
X77049285Y-69040714D01*
X77144523Y-69088333D01*
X77239761Y-69183571D01*
X77287380Y-69326428D01*
X77287380Y-69564523D01*
X77287380Y-67993095D02*
X76811190Y-68326428D01*
X77287380Y-68564523D02*
X76287380Y-68564523D01*
X76287380Y-68183571D01*
X76335000Y-68088333D01*
X76382619Y-68040714D01*
X76477857Y-67993095D01*
X76620714Y-67993095D01*
X76715952Y-68040714D01*
X76763571Y-68088333D01*
X76811190Y-68183571D01*
X76811190Y-68564523D01*
X76763571Y-67564523D02*
X76763571Y-67231190D01*
X77287380Y-67088333D02*
X77287380Y-67564523D01*
X76287380Y-67564523D01*
X76287380Y-67088333D01*
X77239761Y-66707380D02*
X77287380Y-66564523D01*
X77287380Y-66326428D01*
X77239761Y-66231190D01*
X77192142Y-66183571D01*
X77096904Y-66135952D01*
X77001666Y-66135952D01*
X76906428Y-66183571D01*
X76858809Y-66231190D01*
X76811190Y-66326428D01*
X76763571Y-66516904D01*
X76715952Y-66612142D01*
X76668333Y-66659761D01*
X76573095Y-66707380D01*
X76477857Y-66707380D01*
X76382619Y-66659761D01*
X76335000Y-66612142D01*
X76287380Y-66516904D01*
X76287380Y-66278809D01*
X76335000Y-66135952D01*
X77239761Y-65755000D02*
X77287380Y-65612142D01*
X77287380Y-65374047D01*
X77239761Y-65278809D01*
X77192142Y-65231190D01*
X77096904Y-65183571D01*
X77001666Y-65183571D01*
X76906428Y-65231190D01*
X76858809Y-65278809D01*
X76811190Y-65374047D01*
X76763571Y-65564523D01*
X76715952Y-65659761D01*
X76668333Y-65707380D01*
X76573095Y-65755000D01*
X76477857Y-65755000D01*
X76382619Y-65707380D01*
X76335000Y-65659761D01*
X76287380Y-65564523D01*
X76287380Y-65326428D01*
X76335000Y-65183571D01*
G04 #@! TO.C,J1*
X33321666Y-47287380D02*
X33321666Y-48001666D01*
X33274047Y-48144523D01*
X33178809Y-48239761D01*
X33035952Y-48287380D01*
X32940714Y-48287380D01*
X34321666Y-48287380D02*
X33750238Y-48287380D01*
X34035952Y-48287380D02*
X34035952Y-47287380D01*
X33940714Y-47430238D01*
X33845476Y-47525476D01*
X33750238Y-47573095D01*
G04 #@! TO.C,BAR2*
X83748571Y-32448333D02*
X83796190Y-32305476D01*
X83843809Y-32257857D01*
X83939047Y-32210238D01*
X84081904Y-32210238D01*
X84177142Y-32257857D01*
X84224761Y-32305476D01*
X84272380Y-32400714D01*
X84272380Y-32781666D01*
X83272380Y-32781666D01*
X83272380Y-32448333D01*
X83320000Y-32353095D01*
X83367619Y-32305476D01*
X83462857Y-32257857D01*
X83558095Y-32257857D01*
X83653333Y-32305476D01*
X83700952Y-32353095D01*
X83748571Y-32448333D01*
X83748571Y-32781666D01*
X83986666Y-31829285D02*
X83986666Y-31353095D01*
X84272380Y-31924523D02*
X83272380Y-31591190D01*
X84272380Y-31257857D01*
X84272380Y-30353095D02*
X83796190Y-30686428D01*
X84272380Y-30924523D02*
X83272380Y-30924523D01*
X83272380Y-30543571D01*
X83320000Y-30448333D01*
X83367619Y-30400714D01*
X83462857Y-30353095D01*
X83605714Y-30353095D01*
X83700952Y-30400714D01*
X83748571Y-30448333D01*
X83796190Y-30543571D01*
X83796190Y-30924523D01*
X83367619Y-29972142D02*
X83320000Y-29924523D01*
X83272380Y-29829285D01*
X83272380Y-29591190D01*
X83320000Y-29495952D01*
X83367619Y-29448333D01*
X83462857Y-29400714D01*
X83558095Y-29400714D01*
X83700952Y-29448333D01*
X84272380Y-30019761D01*
X84272380Y-29400714D01*
G04 #@! TO.C,BAR1*
X57713571Y-32448333D02*
X57761190Y-32305476D01*
X57808809Y-32257857D01*
X57904047Y-32210238D01*
X58046904Y-32210238D01*
X58142142Y-32257857D01*
X58189761Y-32305476D01*
X58237380Y-32400714D01*
X58237380Y-32781666D01*
X57237380Y-32781666D01*
X57237380Y-32448333D01*
X57285000Y-32353095D01*
X57332619Y-32305476D01*
X57427857Y-32257857D01*
X57523095Y-32257857D01*
X57618333Y-32305476D01*
X57665952Y-32353095D01*
X57713571Y-32448333D01*
X57713571Y-32781666D01*
X57951666Y-31829285D02*
X57951666Y-31353095D01*
X58237380Y-31924523D02*
X57237380Y-31591190D01*
X58237380Y-31257857D01*
X58237380Y-30353095D02*
X57761190Y-30686428D01*
X58237380Y-30924523D02*
X57237380Y-30924523D01*
X57237380Y-30543571D01*
X57285000Y-30448333D01*
X57332619Y-30400714D01*
X57427857Y-30353095D01*
X57570714Y-30353095D01*
X57665952Y-30400714D01*
X57713571Y-30448333D01*
X57761190Y-30543571D01*
X57761190Y-30924523D01*
X58237380Y-29400714D02*
X58237380Y-29972142D01*
X58237380Y-29686428D02*
X57237380Y-29686428D01*
X57380238Y-29781666D01*
X57475476Y-29876904D01*
X57523095Y-29972142D01*
G04 #@! TO.C,U1*
X36703095Y-30567380D02*
X36703095Y-31376904D01*
X36750714Y-31472142D01*
X36798333Y-31519761D01*
X36893571Y-31567380D01*
X37084047Y-31567380D01*
X37179285Y-31519761D01*
X37226904Y-31472142D01*
X37274523Y-31376904D01*
X37274523Y-30567380D01*
X38274523Y-31567380D02*
X37703095Y-31567380D01*
X37988809Y-31567380D02*
X37988809Y-30567380D01*
X37893571Y-30710238D01*
X37798333Y-30805476D01*
X37703095Y-30853095D01*
X35298333Y-20661380D02*
X35965000Y-20661380D01*
X35536428Y-21661380D01*
X36774523Y-20994714D02*
X36774523Y-21661380D01*
X36536428Y-20613761D02*
X36298333Y-21328047D01*
X36917380Y-21328047D01*
X37203095Y-21661380D02*
X37726904Y-20994714D01*
X37203095Y-20994714D02*
X37726904Y-21661380D01*
X38298333Y-20661380D02*
X38393571Y-20661380D01*
X38488809Y-20709000D01*
X38536428Y-20756619D01*
X38584047Y-20851857D01*
X38631666Y-21042333D01*
X38631666Y-21280428D01*
X38584047Y-21470904D01*
X38536428Y-21566142D01*
X38488809Y-21613761D01*
X38393571Y-21661380D01*
X38298333Y-21661380D01*
X38203095Y-21613761D01*
X38155476Y-21566142D01*
X38107857Y-21470904D01*
X38060238Y-21280428D01*
X38060238Y-21042333D01*
X38107857Y-20851857D01*
X38155476Y-20756619D01*
X38203095Y-20709000D01*
X38298333Y-20661380D01*
X39012619Y-20756619D02*
X39060238Y-20709000D01*
X39155476Y-20661380D01*
X39393571Y-20661380D01*
X39488809Y-20709000D01*
X39536428Y-20756619D01*
X39584047Y-20851857D01*
X39584047Y-20947095D01*
X39536428Y-21089952D01*
X38965000Y-21661380D01*
X39584047Y-21661380D01*
G04 #@! TO.C,U5*
X65913095Y-81367380D02*
X65913095Y-82176904D01*
X65960714Y-82272142D01*
X66008333Y-82319761D01*
X66103571Y-82367380D01*
X66294047Y-82367380D01*
X66389285Y-82319761D01*
X66436904Y-82272142D01*
X66484523Y-82176904D01*
X66484523Y-81367380D01*
X67436904Y-81367380D02*
X66960714Y-81367380D01*
X66913095Y-81843571D01*
X66960714Y-81795952D01*
X67055952Y-81748333D01*
X67294047Y-81748333D01*
X67389285Y-81795952D01*
X67436904Y-81843571D01*
X67484523Y-81938809D01*
X67484523Y-82176904D01*
X67436904Y-82272142D01*
X67389285Y-82319761D01*
X67294047Y-82367380D01*
X67055952Y-82367380D01*
X66960714Y-82319761D01*
X66913095Y-82272142D01*
X64032142Y-92587380D02*
X64698809Y-92587380D01*
X64270238Y-93587380D01*
X65508333Y-92920714D02*
X65508333Y-93587380D01*
X65270238Y-92539761D02*
X65032142Y-93254047D01*
X65651190Y-93254047D01*
X65936904Y-93587380D02*
X66460714Y-92920714D01*
X65936904Y-92920714D02*
X66460714Y-93587380D01*
X67365476Y-93587380D02*
X66794047Y-93587380D01*
X67079761Y-93587380D02*
X67079761Y-92587380D01*
X66984523Y-92730238D01*
X66889285Y-92825476D01*
X66794047Y-92873095D01*
X67841666Y-93587380D02*
X68032142Y-93587380D01*
X68127380Y-93539761D01*
X68175000Y-93492142D01*
X68270238Y-93349285D01*
X68317857Y-93158809D01*
X68317857Y-92777857D01*
X68270238Y-92682619D01*
X68222619Y-92635000D01*
X68127380Y-92587380D01*
X67936904Y-92587380D01*
X67841666Y-92635000D01*
X67794047Y-92682619D01*
X67746428Y-92777857D01*
X67746428Y-93015952D01*
X67794047Y-93111190D01*
X67841666Y-93158809D01*
X67936904Y-93206428D01*
X68127380Y-93206428D01*
X68222619Y-93158809D01*
X68270238Y-93111190D01*
X68317857Y-93015952D01*
X69270238Y-93587380D02*
X68698809Y-93587380D01*
X68984523Y-93587380D02*
X68984523Y-92587380D01*
X68889285Y-92730238D01*
X68794047Y-92825476D01*
X68698809Y-92873095D01*
G04 #@! TO.C,U3*
X48768095Y-81367380D02*
X48768095Y-82176904D01*
X48815714Y-82272142D01*
X48863333Y-82319761D01*
X48958571Y-82367380D01*
X49149047Y-82367380D01*
X49244285Y-82319761D01*
X49291904Y-82272142D01*
X49339523Y-82176904D01*
X49339523Y-81367380D01*
X49720476Y-81367380D02*
X50339523Y-81367380D01*
X50006190Y-81748333D01*
X50149047Y-81748333D01*
X50244285Y-81795952D01*
X50291904Y-81843571D01*
X50339523Y-81938809D01*
X50339523Y-82176904D01*
X50291904Y-82272142D01*
X50244285Y-82319761D01*
X50149047Y-82367380D01*
X49863333Y-82367380D01*
X49768095Y-82319761D01*
X49720476Y-82272142D01*
X46887142Y-92587380D02*
X47553809Y-92587380D01*
X47125238Y-93587380D01*
X48363333Y-92920714D02*
X48363333Y-93587380D01*
X48125238Y-92539761D02*
X47887142Y-93254047D01*
X48506190Y-93254047D01*
X48791904Y-93587380D02*
X49315714Y-92920714D01*
X48791904Y-92920714D02*
X49315714Y-93587380D01*
X50220476Y-93587380D02*
X49649047Y-93587380D01*
X49934761Y-93587380D02*
X49934761Y-92587380D01*
X49839523Y-92730238D01*
X49744285Y-92825476D01*
X49649047Y-92873095D01*
X50696666Y-93587380D02*
X50887142Y-93587380D01*
X50982380Y-93539761D01*
X51030000Y-93492142D01*
X51125238Y-93349285D01*
X51172857Y-93158809D01*
X51172857Y-92777857D01*
X51125238Y-92682619D01*
X51077619Y-92635000D01*
X50982380Y-92587380D01*
X50791904Y-92587380D01*
X50696666Y-92635000D01*
X50649047Y-92682619D01*
X50601428Y-92777857D01*
X50601428Y-93015952D01*
X50649047Y-93111190D01*
X50696666Y-93158809D01*
X50791904Y-93206428D01*
X50982380Y-93206428D01*
X51077619Y-93158809D01*
X51125238Y-93111190D01*
X51172857Y-93015952D01*
X52125238Y-93587380D02*
X51553809Y-93587380D01*
X51839523Y-93587380D02*
X51839523Y-92587380D01*
X51744285Y-92730238D01*
X51649047Y-92825476D01*
X51553809Y-92873095D01*
G04 #@! TO.C,U2*
X48768095Y-55332380D02*
X48768095Y-56141904D01*
X48815714Y-56237142D01*
X48863333Y-56284761D01*
X48958571Y-56332380D01*
X49149047Y-56332380D01*
X49244285Y-56284761D01*
X49291904Y-56237142D01*
X49339523Y-56141904D01*
X49339523Y-55332380D01*
X49768095Y-55427619D02*
X49815714Y-55380000D01*
X49910952Y-55332380D01*
X50149047Y-55332380D01*
X50244285Y-55380000D01*
X50291904Y-55427619D01*
X50339523Y-55522857D01*
X50339523Y-55618095D01*
X50291904Y-55760952D01*
X49720476Y-56332380D01*
X50339523Y-56332380D01*
X46887142Y-66552380D02*
X47553809Y-66552380D01*
X47125238Y-67552380D01*
X48363333Y-66885714D02*
X48363333Y-67552380D01*
X48125238Y-66504761D02*
X47887142Y-67219047D01*
X48506190Y-67219047D01*
X48791904Y-67552380D02*
X49315714Y-66885714D01*
X48791904Y-66885714D02*
X49315714Y-67552380D01*
X50220476Y-67552380D02*
X49649047Y-67552380D01*
X49934761Y-67552380D02*
X49934761Y-66552380D01*
X49839523Y-66695238D01*
X49744285Y-66790476D01*
X49649047Y-66838095D01*
X50696666Y-67552380D02*
X50887142Y-67552380D01*
X50982380Y-67504761D01*
X51030000Y-67457142D01*
X51125238Y-67314285D01*
X51172857Y-67123809D01*
X51172857Y-66742857D01*
X51125238Y-66647619D01*
X51077619Y-66600000D01*
X50982380Y-66552380D01*
X50791904Y-66552380D01*
X50696666Y-66600000D01*
X50649047Y-66647619D01*
X50601428Y-66742857D01*
X50601428Y-66980952D01*
X50649047Y-67076190D01*
X50696666Y-67123809D01*
X50791904Y-67171428D01*
X50982380Y-67171428D01*
X51077619Y-67123809D01*
X51125238Y-67076190D01*
X51172857Y-66980952D01*
X52125238Y-67552380D02*
X51553809Y-67552380D01*
X51839523Y-67552380D02*
X51839523Y-66552380D01*
X51744285Y-66695238D01*
X51649047Y-66790476D01*
X51553809Y-66838095D01*
G04 #@! TO.C,U7*
X90043095Y-78827380D02*
X90043095Y-79636904D01*
X90090714Y-79732142D01*
X90138333Y-79779761D01*
X90233571Y-79827380D01*
X90424047Y-79827380D01*
X90519285Y-79779761D01*
X90566904Y-79732142D01*
X90614523Y-79636904D01*
X90614523Y-78827380D01*
X90995476Y-78827380D02*
X91662142Y-78827380D01*
X91233571Y-79827380D01*
X88162142Y-92587380D02*
X88828809Y-92587380D01*
X88400238Y-93587380D01*
X89638333Y-92920714D02*
X89638333Y-93587380D01*
X89400238Y-92539761D02*
X89162142Y-93254047D01*
X89781190Y-93254047D01*
X90066904Y-93587380D02*
X90590714Y-92920714D01*
X90066904Y-92920714D02*
X90590714Y-93587380D01*
X90924047Y-92682619D02*
X90971666Y-92635000D01*
X91066904Y-92587380D01*
X91305000Y-92587380D01*
X91400238Y-92635000D01*
X91447857Y-92682619D01*
X91495476Y-92777857D01*
X91495476Y-92873095D01*
X91447857Y-93015952D01*
X90876428Y-93587380D01*
X91495476Y-93587380D01*
X92352619Y-92920714D02*
X92352619Y-93587380D01*
X92114523Y-92539761D02*
X91876428Y-93254047D01*
X92495476Y-93254047D01*
X93352619Y-92587380D02*
X92876428Y-92587380D01*
X92828809Y-93063571D01*
X92876428Y-93015952D01*
X92971666Y-92968333D01*
X93209761Y-92968333D01*
X93305000Y-93015952D01*
X93352619Y-93063571D01*
X93400238Y-93158809D01*
X93400238Y-93396904D01*
X93352619Y-93492142D01*
X93305000Y-93539761D01*
X93209761Y-93587380D01*
X92971666Y-93587380D01*
X92876428Y-93539761D01*
X92828809Y-93492142D01*
G04 #@! TO.C,U6*
X90043095Y-50252380D02*
X90043095Y-51061904D01*
X90090714Y-51157142D01*
X90138333Y-51204761D01*
X90233571Y-51252380D01*
X90424047Y-51252380D01*
X90519285Y-51204761D01*
X90566904Y-51157142D01*
X90614523Y-51061904D01*
X90614523Y-50252380D01*
X91519285Y-50252380D02*
X91328809Y-50252380D01*
X91233571Y-50300000D01*
X91185952Y-50347619D01*
X91090714Y-50490476D01*
X91043095Y-50680952D01*
X91043095Y-51061904D01*
X91090714Y-51157142D01*
X91138333Y-51204761D01*
X91233571Y-51252380D01*
X91424047Y-51252380D01*
X91519285Y-51204761D01*
X91566904Y-51157142D01*
X91614523Y-51061904D01*
X91614523Y-50823809D01*
X91566904Y-50728571D01*
X91519285Y-50680952D01*
X91424047Y-50633333D01*
X91233571Y-50633333D01*
X91138333Y-50680952D01*
X91090714Y-50728571D01*
X91043095Y-50823809D01*
X88162142Y-64012380D02*
X88828809Y-64012380D01*
X88400238Y-65012380D01*
X89638333Y-64345714D02*
X89638333Y-65012380D01*
X89400238Y-63964761D02*
X89162142Y-64679047D01*
X89781190Y-64679047D01*
X90066904Y-65012380D02*
X90590714Y-64345714D01*
X90066904Y-64345714D02*
X90590714Y-65012380D01*
X90924047Y-64107619D02*
X90971666Y-64060000D01*
X91066904Y-64012380D01*
X91305000Y-64012380D01*
X91400238Y-64060000D01*
X91447857Y-64107619D01*
X91495476Y-64202857D01*
X91495476Y-64298095D01*
X91447857Y-64440952D01*
X90876428Y-65012380D01*
X91495476Y-65012380D01*
X92352619Y-64345714D02*
X92352619Y-65012380D01*
X92114523Y-63964761D02*
X91876428Y-64679047D01*
X92495476Y-64679047D01*
X93352619Y-64012380D02*
X92876428Y-64012380D01*
X92828809Y-64488571D01*
X92876428Y-64440952D01*
X92971666Y-64393333D01*
X93209761Y-64393333D01*
X93305000Y-64440952D01*
X93352619Y-64488571D01*
X93400238Y-64583809D01*
X93400238Y-64821904D01*
X93352619Y-64917142D01*
X93305000Y-64964761D01*
X93209761Y-65012380D01*
X92971666Y-65012380D01*
X92876428Y-64964761D01*
X92828809Y-64917142D01*
G04 #@! TO.C,RN2*
X79954523Y-21547380D02*
X79621190Y-21071190D01*
X79383095Y-21547380D02*
X79383095Y-20547380D01*
X79764047Y-20547380D01*
X79859285Y-20595000D01*
X79906904Y-20642619D01*
X79954523Y-20737857D01*
X79954523Y-20880714D01*
X79906904Y-20975952D01*
X79859285Y-21023571D01*
X79764047Y-21071190D01*
X79383095Y-21071190D01*
X80383095Y-21547380D02*
X80383095Y-20547380D01*
X80954523Y-21547380D01*
X80954523Y-20547380D01*
X81383095Y-20642619D02*
X81430714Y-20595000D01*
X81525952Y-20547380D01*
X81764047Y-20547380D01*
X81859285Y-20595000D01*
X81906904Y-20642619D01*
X81954523Y-20737857D01*
X81954523Y-20833095D01*
X81906904Y-20975952D01*
X81335476Y-21547380D01*
X81954523Y-21547380D01*
G04 #@! TO.C,RN1*
X56459523Y-21547380D02*
X56126190Y-21071190D01*
X55888095Y-21547380D02*
X55888095Y-20547380D01*
X56269047Y-20547380D01*
X56364285Y-20595000D01*
X56411904Y-20642619D01*
X56459523Y-20737857D01*
X56459523Y-20880714D01*
X56411904Y-20975952D01*
X56364285Y-21023571D01*
X56269047Y-21071190D01*
X55888095Y-21071190D01*
X56888095Y-21547380D02*
X56888095Y-20547380D01*
X57459523Y-21547380D01*
X57459523Y-20547380D01*
X58459523Y-21547380D02*
X57888095Y-21547380D01*
X58173809Y-21547380D02*
X58173809Y-20547380D01*
X58078571Y-20690238D01*
X57983333Y-20785476D01*
X57888095Y-20833095D01*
G04 #@! TD*
M02*
