G04 #@! TF.GenerationSoftware,KiCad,Pcbnew,5.0.2+dfsg1-1*
G04 #@! TF.CreationDate,2019-08-03T19:36:51+02:00*
G04 #@! TF.ProjectId,Program-Counter,50726f67-7261-46d2-9d43-6f756e746572,rev?*
G04 #@! TF.SameCoordinates,Original*
G04 #@! TF.FileFunction,Copper,L1,Top*
G04 #@! TF.FilePolarity,Positive*
%FSLAX46Y46*%
G04 Gerber Fmt 4.6, Leading zero omitted, Abs format (unit mm)*
G04 Created by KiCad (PCBNEW 5.0.2+dfsg1-1) date za 03 aug 2019 19:36:51 CEST*
%MOMM*%
%LPD*%
G01*
G04 APERTURE LIST*
G04 #@! TA.AperFunction,ComponentPad*
%ADD10R,1.700000X1.700000*%
G04 #@! TD*
G04 #@! TA.AperFunction,ComponentPad*
%ADD11O,1.700000X1.700000*%
G04 #@! TD*
G04 #@! TA.AperFunction,ComponentPad*
%ADD12O,1.600000X1.600000*%
G04 #@! TD*
G04 #@! TA.AperFunction,ComponentPad*
%ADD13R,1.600000X1.600000*%
G04 #@! TD*
G04 #@! TA.AperFunction,ComponentPad*
%ADD14C,2.032000*%
G04 #@! TD*
G04 #@! TA.AperFunction,ComponentPad*
%ADD15R,2.032000X2.032000*%
G04 #@! TD*
G04 #@! TA.AperFunction,ViaPad*
%ADD16C,0.800000*%
G04 #@! TD*
G04 #@! TA.AperFunction,Conductor*
%ADD17C,0.350000*%
G04 #@! TD*
G04 #@! TA.AperFunction,Conductor*
%ADD18C,0.250000*%
G04 #@! TD*
G04 APERTURE END LIST*
D10*
G04 #@! TO.P,J1,1*
G04 #@! TO.N,GND*
X33655000Y-50165000D03*
D11*
G04 #@! TO.P,J1,2*
G04 #@! TO.N,+5V*
X33655000Y-52705000D03*
G04 #@! TO.P,J1,3*
G04 #@! TO.N,CLOCK*
X33655000Y-55245000D03*
G04 #@! TO.P,J1,4*
G04 #@! TO.N,PC_INC*
X33655000Y-57785000D03*
G04 #@! TO.P,J1,5*
G04 #@! TO.N,PC_DEC*
X33655000Y-60325000D03*
G04 #@! TO.P,J1,6*
G04 #@! TO.N,~PC_L_LOAD*
X33655000Y-62865000D03*
G04 #@! TO.P,J1,7*
G04 #@! TO.N,~PC_H_LOAD*
X33655000Y-65405000D03*
G04 #@! TO.P,J1,8*
G04 #@! TO.N,~PC_L_OUT*
X33655000Y-67945000D03*
G04 #@! TO.P,J1,9*
G04 #@! TO.N,~PC_H_OUT*
X33655000Y-70485000D03*
G04 #@! TO.P,J1,10*
G04 #@! TO.N,~PC_MAR_OUT*
X33655000Y-73025000D03*
G04 #@! TO.P,J1,11*
G04 #@! TO.N,DATA_BUS0*
X33655000Y-75565000D03*
G04 #@! TO.P,J1,12*
G04 #@! TO.N,DATA_BUS1*
X33655000Y-78105000D03*
G04 #@! TO.P,J1,13*
G04 #@! TO.N,DATA_BUS2*
X33655000Y-80645000D03*
G04 #@! TO.P,J1,14*
G04 #@! TO.N,DATA_BUS3*
X33655000Y-83185000D03*
G04 #@! TO.P,J1,15*
G04 #@! TO.N,DATA_BUS4*
X33655000Y-85725000D03*
G04 #@! TO.P,J1,16*
G04 #@! TO.N,DATA_BUS5*
X33655000Y-88265000D03*
G04 #@! TO.P,J1,17*
G04 #@! TO.N,DATA_BUS6*
X33655000Y-90805000D03*
G04 #@! TO.P,J1,18*
G04 #@! TO.N,DATA_BUS7*
X33655000Y-93345000D03*
G04 #@! TD*
D12*
G04 #@! TO.P,U9,20*
G04 #@! TO.N,+5V*
X95250000Y-70485000D03*
G04 #@! TO.P,U9,10*
G04 #@! TO.N,GND*
X87630000Y-93345000D03*
G04 #@! TO.P,U9,19*
G04 #@! TO.N,~PC_MAR_OUT*
X95250000Y-73025000D03*
G04 #@! TO.P,U9,9*
G04 #@! TO.N,Net-(BAR1-Pad3)*
X87630000Y-90805000D03*
G04 #@! TO.P,U9,18*
G04 #@! TO.N,Net-(J2-Pad9)*
X95250000Y-75565000D03*
G04 #@! TO.P,U9,8*
G04 #@! TO.N,Net-(BAR1-Pad4)*
X87630000Y-88265000D03*
G04 #@! TO.P,U9,17*
G04 #@! TO.N,Net-(J2-Pad10)*
X95250000Y-78105000D03*
G04 #@! TO.P,U9,7*
G04 #@! TO.N,Net-(BAR1-Pad5)*
X87630000Y-85725000D03*
G04 #@! TO.P,U9,16*
G04 #@! TO.N,Net-(J2-Pad11)*
X95250000Y-80645000D03*
G04 #@! TO.P,U9,6*
G04 #@! TO.N,Net-(BAR1-Pad6)*
X87630000Y-83185000D03*
G04 #@! TO.P,U9,15*
G04 #@! TO.N,Net-(J2-Pad12)*
X95250000Y-83185000D03*
G04 #@! TO.P,U9,5*
G04 #@! TO.N,Net-(BAR1-Pad7)*
X87630000Y-80645000D03*
G04 #@! TO.P,U9,14*
G04 #@! TO.N,Net-(J2-Pad13)*
X95250000Y-85725000D03*
G04 #@! TO.P,U9,4*
G04 #@! TO.N,Net-(BAR1-Pad8)*
X87630000Y-78105000D03*
G04 #@! TO.P,U9,13*
G04 #@! TO.N,Net-(J2-Pad14)*
X95250000Y-88265000D03*
G04 #@! TO.P,U9,3*
G04 #@! TO.N,Net-(BAR1-Pad9)*
X87630000Y-75565000D03*
G04 #@! TO.P,U9,12*
G04 #@! TO.N,Net-(J2-Pad15)*
X95250000Y-90805000D03*
G04 #@! TO.P,U9,2*
G04 #@! TO.N,Net-(BAR1-Pad10)*
X87630000Y-73025000D03*
G04 #@! TO.P,U9,11*
G04 #@! TO.N,Net-(J2-Pad16)*
X95250000Y-93345000D03*
D13*
G04 #@! TO.P,U9,1*
G04 #@! TO.N,+5V*
X87630000Y-70485000D03*
G04 #@! TD*
G04 #@! TO.P,U8,1*
G04 #@! TO.N,+5V*
X87630000Y-41275000D03*
D12*
G04 #@! TO.P,U8,11*
G04 #@! TO.N,Net-(J2-Pad8)*
X95250000Y-64135000D03*
G04 #@! TO.P,U8,2*
G04 #@! TO.N,Net-(BAR2-Pad8)*
X87630000Y-43815000D03*
G04 #@! TO.P,U8,12*
G04 #@! TO.N,Net-(J2-Pad7)*
X95250000Y-61595000D03*
G04 #@! TO.P,U8,3*
G04 #@! TO.N,Net-(BAR2-Pad7)*
X87630000Y-46355000D03*
G04 #@! TO.P,U8,13*
G04 #@! TO.N,Net-(J2-Pad6)*
X95250000Y-59055000D03*
G04 #@! TO.P,U8,4*
G04 #@! TO.N,Net-(BAR2-Pad6)*
X87630000Y-48895000D03*
G04 #@! TO.P,U8,14*
G04 #@! TO.N,Net-(J2-Pad5)*
X95250000Y-56515000D03*
G04 #@! TO.P,U8,5*
G04 #@! TO.N,Net-(BAR2-Pad5)*
X87630000Y-51435000D03*
G04 #@! TO.P,U8,15*
G04 #@! TO.N,Net-(J2-Pad4)*
X95250000Y-53975000D03*
G04 #@! TO.P,U8,6*
G04 #@! TO.N,Net-(BAR2-Pad4)*
X87630000Y-53975000D03*
G04 #@! TO.P,U8,16*
G04 #@! TO.N,Net-(J2-Pad3)*
X95250000Y-51435000D03*
G04 #@! TO.P,U8,7*
G04 #@! TO.N,Net-(BAR2-Pad3)*
X87630000Y-56515000D03*
G04 #@! TO.P,U8,17*
G04 #@! TO.N,Net-(J2-Pad2)*
X95250000Y-48895000D03*
G04 #@! TO.P,U8,8*
G04 #@! TO.N,Net-(BAR2-Pad2)*
X87630000Y-59055000D03*
G04 #@! TO.P,U8,18*
G04 #@! TO.N,Net-(J2-Pad1)*
X95250000Y-46355000D03*
G04 #@! TO.P,U8,9*
G04 #@! TO.N,Net-(BAR2-Pad1)*
X87630000Y-61595000D03*
G04 #@! TO.P,U8,19*
G04 #@! TO.N,~PC_MAR_OUT*
X95250000Y-43815000D03*
G04 #@! TO.P,U8,10*
G04 #@! TO.N,GND*
X87630000Y-64135000D03*
G04 #@! TO.P,U8,20*
G04 #@! TO.N,+5V*
X95250000Y-41275000D03*
G04 #@! TD*
D13*
G04 #@! TO.P,U4,1*
G04 #@! TO.N,DATA_BUS1*
X59690000Y-41275000D03*
D12*
G04 #@! TO.P,U4,9*
G04 #@! TO.N,DATA_BUS3*
X67310000Y-59055000D03*
G04 #@! TO.P,U4,2*
G04 #@! TO.N,Net-(BAR1-Pad9)*
X59690000Y-43815000D03*
G04 #@! TO.P,U4,10*
G04 #@! TO.N,DATA_BUS2*
X67310000Y-56515000D03*
G04 #@! TO.P,U4,3*
G04 #@! TO.N,Net-(BAR1-Pad10)*
X59690000Y-46355000D03*
G04 #@! TO.P,U4,11*
G04 #@! TO.N,~PC_H_LOAD*
X67310000Y-53975000D03*
G04 #@! TO.P,U4,4*
G04 #@! TO.N,~CLK_EN*
X59690000Y-48895000D03*
G04 #@! TO.P,U4,12*
G04 #@! TO.N,Net-(U4-Pad12)*
X67310000Y-51435000D03*
G04 #@! TO.P,U4,5*
G04 #@! TO.N,DOWN_~UP*
X59690000Y-51435000D03*
G04 #@! TO.P,U4,13*
G04 #@! TO.N,Net-(U4-Pad13)*
X67310000Y-48895000D03*
G04 #@! TO.P,U4,6*
G04 #@! TO.N,Net-(BAR1-Pad8)*
X59690000Y-53975000D03*
G04 #@! TO.P,U4,14*
G04 #@! TO.N,Net-(U3-Pad13)*
X67310000Y-46355000D03*
G04 #@! TO.P,U4,7*
G04 #@! TO.N,Net-(BAR1-Pad7)*
X59690000Y-56515000D03*
G04 #@! TO.P,U4,15*
G04 #@! TO.N,DATA_BUS0*
X67310000Y-43815000D03*
G04 #@! TO.P,U4,8*
G04 #@! TO.N,GND*
X59690000Y-59055000D03*
G04 #@! TO.P,U4,16*
G04 #@! TO.N,+5V*
X67310000Y-41275000D03*
G04 #@! TD*
D11*
G04 #@! TO.P,J2,16*
G04 #@! TO.N,Net-(J2-Pad16)*
X102235000Y-93345000D03*
G04 #@! TO.P,J2,15*
G04 #@! TO.N,Net-(J2-Pad15)*
X102235000Y-90805000D03*
G04 #@! TO.P,J2,14*
G04 #@! TO.N,Net-(J2-Pad14)*
X102235000Y-88265000D03*
G04 #@! TO.P,J2,13*
G04 #@! TO.N,Net-(J2-Pad13)*
X102235000Y-85725000D03*
G04 #@! TO.P,J2,12*
G04 #@! TO.N,Net-(J2-Pad12)*
X102235000Y-83185000D03*
G04 #@! TO.P,J2,11*
G04 #@! TO.N,Net-(J2-Pad11)*
X102235000Y-80645000D03*
G04 #@! TO.P,J2,10*
G04 #@! TO.N,Net-(J2-Pad10)*
X102235000Y-78105000D03*
G04 #@! TO.P,J2,9*
G04 #@! TO.N,Net-(J2-Pad9)*
X102235000Y-75565000D03*
G04 #@! TO.P,J2,8*
G04 #@! TO.N,Net-(J2-Pad8)*
X102235000Y-73025000D03*
G04 #@! TO.P,J2,7*
G04 #@! TO.N,Net-(J2-Pad7)*
X102235000Y-70485000D03*
G04 #@! TO.P,J2,6*
G04 #@! TO.N,Net-(J2-Pad6)*
X102235000Y-67945000D03*
G04 #@! TO.P,J2,5*
G04 #@! TO.N,Net-(J2-Pad5)*
X102235000Y-65405000D03*
G04 #@! TO.P,J2,4*
G04 #@! TO.N,Net-(J2-Pad4)*
X102235000Y-62865000D03*
G04 #@! TO.P,J2,3*
G04 #@! TO.N,Net-(J2-Pad3)*
X102235000Y-60325000D03*
G04 #@! TO.P,J2,2*
G04 #@! TO.N,Net-(J2-Pad2)*
X102235000Y-57785000D03*
D10*
G04 #@! TO.P,J2,1*
G04 #@! TO.N,Net-(J2-Pad1)*
X102235000Y-55245000D03*
G04 #@! TD*
D14*
G04 #@! TO.P,BAR2,20*
G04 #@! TO.N,Net-(BAR2-Pad20)*
X73660000Y-27305000D03*
G04 #@! TO.P,BAR2,19*
G04 #@! TO.N,Net-(BAR2-Pad19)*
X76200000Y-27305000D03*
G04 #@! TO.P,BAR2,18*
G04 #@! TO.N,Net-(BAR2-Pad18)*
X78740000Y-27305000D03*
G04 #@! TO.P,BAR2,17*
G04 #@! TO.N,Net-(BAR2-Pad17)*
X81280000Y-27305000D03*
G04 #@! TO.P,BAR2,9*
G04 #@! TO.N,Net-(BAR2-Pad9)*
X93980000Y-34925000D03*
G04 #@! TO.P,BAR2,10*
G04 #@! TO.N,Net-(BAR2-Pad10)*
X96520000Y-34925000D03*
G04 #@! TO.P,BAR2,11*
G04 #@! TO.N,Net-(BAR2-Pad11)*
X96520000Y-27305000D03*
G04 #@! TO.P,BAR2,12*
G04 #@! TO.N,Net-(BAR2-Pad12)*
X93980000Y-27305000D03*
G04 #@! TO.P,BAR2,8*
G04 #@! TO.N,Net-(BAR2-Pad8)*
X91440000Y-34925000D03*
G04 #@! TO.P,BAR2,7*
G04 #@! TO.N,Net-(BAR2-Pad7)*
X88900000Y-34925000D03*
G04 #@! TO.P,BAR2,6*
G04 #@! TO.N,Net-(BAR2-Pad6)*
X86360000Y-34925000D03*
G04 #@! TO.P,BAR2,5*
G04 #@! TO.N,Net-(BAR2-Pad5)*
X83820000Y-34925000D03*
G04 #@! TO.P,BAR2,16*
G04 #@! TO.N,Net-(BAR2-Pad16)*
X83820000Y-27305000D03*
G04 #@! TO.P,BAR2,15*
G04 #@! TO.N,Net-(BAR2-Pad15)*
X86360000Y-27305000D03*
G04 #@! TO.P,BAR2,14*
G04 #@! TO.N,Net-(BAR2-Pad14)*
X88900000Y-27305000D03*
G04 #@! TO.P,BAR2,13*
G04 #@! TO.N,Net-(BAR2-Pad13)*
X91440000Y-27305000D03*
G04 #@! TO.P,BAR2,4*
G04 #@! TO.N,Net-(BAR2-Pad4)*
X81280000Y-34925000D03*
G04 #@! TO.P,BAR2,3*
G04 #@! TO.N,Net-(BAR2-Pad3)*
X78740000Y-34925000D03*
G04 #@! TO.P,BAR2,2*
G04 #@! TO.N,Net-(BAR2-Pad2)*
X76200000Y-34925000D03*
D15*
G04 #@! TO.P,BAR2,1*
G04 #@! TO.N,Net-(BAR2-Pad1)*
X73660000Y-34925000D03*
G04 #@! TD*
G04 #@! TO.P,BAR1,1*
G04 #@! TO.N,Net-(BAR1-Pad1)*
X47625000Y-34925000D03*
D14*
G04 #@! TO.P,BAR1,2*
G04 #@! TO.N,Net-(BAR1-Pad2)*
X50165000Y-34925000D03*
G04 #@! TO.P,BAR1,3*
G04 #@! TO.N,Net-(BAR1-Pad3)*
X52705000Y-34925000D03*
G04 #@! TO.P,BAR1,4*
G04 #@! TO.N,Net-(BAR1-Pad4)*
X55245000Y-34925000D03*
G04 #@! TO.P,BAR1,13*
G04 #@! TO.N,Net-(BAR1-Pad13)*
X65405000Y-27305000D03*
G04 #@! TO.P,BAR1,14*
G04 #@! TO.N,Net-(BAR1-Pad14)*
X62865000Y-27305000D03*
G04 #@! TO.P,BAR1,15*
G04 #@! TO.N,Net-(BAR1-Pad15)*
X60325000Y-27305000D03*
G04 #@! TO.P,BAR1,16*
G04 #@! TO.N,Net-(BAR1-Pad16)*
X57785000Y-27305000D03*
G04 #@! TO.P,BAR1,5*
G04 #@! TO.N,Net-(BAR1-Pad5)*
X57785000Y-34925000D03*
G04 #@! TO.P,BAR1,6*
G04 #@! TO.N,Net-(BAR1-Pad6)*
X60325000Y-34925000D03*
G04 #@! TO.P,BAR1,7*
G04 #@! TO.N,Net-(BAR1-Pad7)*
X62865000Y-34925000D03*
G04 #@! TO.P,BAR1,8*
G04 #@! TO.N,Net-(BAR1-Pad8)*
X65405000Y-34925000D03*
G04 #@! TO.P,BAR1,12*
G04 #@! TO.N,Net-(BAR1-Pad12)*
X67945000Y-27305000D03*
G04 #@! TO.P,BAR1,11*
G04 #@! TO.N,Net-(BAR1-Pad11)*
X70485000Y-27305000D03*
G04 #@! TO.P,BAR1,10*
G04 #@! TO.N,Net-(BAR1-Pad10)*
X70485000Y-34925000D03*
G04 #@! TO.P,BAR1,9*
G04 #@! TO.N,Net-(BAR1-Pad9)*
X67945000Y-34925000D03*
G04 #@! TO.P,BAR1,17*
G04 #@! TO.N,Net-(BAR1-Pad17)*
X55245000Y-27305000D03*
G04 #@! TO.P,BAR1,18*
G04 #@! TO.N,Net-(BAR1-Pad18)*
X52705000Y-27305000D03*
G04 #@! TO.P,BAR1,19*
G04 #@! TO.N,Net-(BAR1-Pad19)*
X50165000Y-27305000D03*
G04 #@! TO.P,BAR1,20*
G04 #@! TO.N,Net-(BAR1-Pad20)*
X47625000Y-27305000D03*
G04 #@! TD*
D13*
G04 #@! TO.P,U1,1*
G04 #@! TO.N,DOWN_~UP*
X33655000Y-23495000D03*
D12*
G04 #@! TO.P,U1,8*
G04 #@! TO.N,PC_INC*
X41275000Y-38735000D03*
G04 #@! TO.P,U1,2*
X33655000Y-26035000D03*
G04 #@! TO.P,U1,9*
G04 #@! TO.N,PC_DEC*
X41275000Y-36195000D03*
G04 #@! TO.P,U1,3*
G04 #@! TO.N,Net-(U1-Pad3)*
X33655000Y-28575000D03*
G04 #@! TO.P,U1,10*
G04 #@! TO.N,~CLK_EN*
X41275000Y-33655000D03*
G04 #@! TO.P,U1,4*
G04 #@! TO.N,Net-(U1-Pad3)*
X33655000Y-31115000D03*
G04 #@! TO.P,U1,11*
G04 #@! TO.N,N/C*
X41275000Y-31115000D03*
G04 #@! TO.P,U1,5*
G04 #@! TO.N,DOWN_~UP*
X33655000Y-33655000D03*
G04 #@! TO.P,U1,12*
G04 #@! TO.N,N/C*
X41275000Y-28575000D03*
G04 #@! TO.P,U1,6*
G04 #@! TO.N,PC_DEC*
X33655000Y-36195000D03*
G04 #@! TO.P,U1,13*
G04 #@! TO.N,N/C*
X41275000Y-26035000D03*
G04 #@! TO.P,U1,7*
G04 #@! TO.N,GND*
X33655000Y-38735000D03*
G04 #@! TO.P,U1,14*
G04 #@! TO.N,+5V*
X41275000Y-23495000D03*
G04 #@! TD*
G04 #@! TO.P,U5,16*
G04 #@! TO.N,+5V*
X67310000Y-69850000D03*
G04 #@! TO.P,U5,8*
G04 #@! TO.N,GND*
X59690000Y-87630000D03*
G04 #@! TO.P,U5,15*
G04 #@! TO.N,DATA_BUS4*
X67310000Y-72390000D03*
G04 #@! TO.P,U5,7*
G04 #@! TO.N,Net-(BAR1-Pad3)*
X59690000Y-85090000D03*
G04 #@! TO.P,U5,14*
G04 #@! TO.N,Net-(U4-Pad13)*
X67310000Y-74930000D03*
G04 #@! TO.P,U5,6*
G04 #@! TO.N,Net-(BAR1-Pad4)*
X59690000Y-82550000D03*
G04 #@! TO.P,U5,13*
G04 #@! TO.N,Net-(U5-Pad13)*
X67310000Y-77470000D03*
G04 #@! TO.P,U5,5*
G04 #@! TO.N,DOWN_~UP*
X59690000Y-80010000D03*
G04 #@! TO.P,U5,12*
G04 #@! TO.N,Net-(U5-Pad12)*
X67310000Y-80010000D03*
G04 #@! TO.P,U5,4*
G04 #@! TO.N,~CLK_EN*
X59690000Y-77470000D03*
G04 #@! TO.P,U5,11*
G04 #@! TO.N,~PC_H_LOAD*
X67310000Y-82550000D03*
G04 #@! TO.P,U5,3*
G04 #@! TO.N,Net-(BAR1-Pad6)*
X59690000Y-74930000D03*
G04 #@! TO.P,U5,10*
G04 #@! TO.N,DATA_BUS6*
X67310000Y-85090000D03*
G04 #@! TO.P,U5,2*
G04 #@! TO.N,Net-(BAR1-Pad5)*
X59690000Y-72390000D03*
G04 #@! TO.P,U5,9*
G04 #@! TO.N,DATA_BUS7*
X67310000Y-87630000D03*
D13*
G04 #@! TO.P,U5,1*
G04 #@! TO.N,DATA_BUS5*
X59690000Y-69850000D03*
G04 #@! TD*
D12*
G04 #@! TO.P,U3,16*
G04 #@! TO.N,+5V*
X53340000Y-69850000D03*
G04 #@! TO.P,U3,8*
G04 #@! TO.N,GND*
X45720000Y-87630000D03*
G04 #@! TO.P,U3,15*
G04 #@! TO.N,DATA_BUS4*
X53340000Y-72390000D03*
G04 #@! TO.P,U3,7*
G04 #@! TO.N,Net-(BAR2-Pad1)*
X45720000Y-85090000D03*
G04 #@! TO.P,U3,14*
G04 #@! TO.N,Net-(U2-Pad13)*
X53340000Y-74930000D03*
G04 #@! TO.P,U3,6*
G04 #@! TO.N,Net-(BAR2-Pad2)*
X45720000Y-82550000D03*
G04 #@! TO.P,U3,13*
G04 #@! TO.N,Net-(U3-Pad13)*
X53340000Y-77470000D03*
G04 #@! TO.P,U3,5*
G04 #@! TO.N,DOWN_~UP*
X45720000Y-80010000D03*
G04 #@! TO.P,U3,12*
G04 #@! TO.N,Net-(U3-Pad12)*
X53340000Y-80010000D03*
G04 #@! TO.P,U3,4*
G04 #@! TO.N,~CLK_EN*
X45720000Y-77470000D03*
G04 #@! TO.P,U3,11*
G04 #@! TO.N,~PC_L_LOAD*
X53340000Y-82550000D03*
G04 #@! TO.P,U3,3*
G04 #@! TO.N,Net-(BAR2-Pad4)*
X45720000Y-74930000D03*
G04 #@! TO.P,U3,10*
G04 #@! TO.N,DATA_BUS6*
X53340000Y-85090000D03*
G04 #@! TO.P,U3,2*
G04 #@! TO.N,Net-(BAR2-Pad3)*
X45720000Y-72390000D03*
G04 #@! TO.P,U3,9*
G04 #@! TO.N,DATA_BUS7*
X53340000Y-87630000D03*
D13*
G04 #@! TO.P,U3,1*
G04 #@! TO.N,DATA_BUS5*
X45720000Y-69850000D03*
G04 #@! TD*
G04 #@! TO.P,U2,1*
G04 #@! TO.N,DATA_BUS1*
X45720000Y-41275000D03*
D12*
G04 #@! TO.P,U2,9*
G04 #@! TO.N,DATA_BUS3*
X53340000Y-59055000D03*
G04 #@! TO.P,U2,2*
G04 #@! TO.N,Net-(BAR2-Pad7)*
X45720000Y-43815000D03*
G04 #@! TO.P,U2,10*
G04 #@! TO.N,DATA_BUS2*
X53340000Y-56515000D03*
G04 #@! TO.P,U2,3*
G04 #@! TO.N,Net-(BAR2-Pad8)*
X45720000Y-46355000D03*
G04 #@! TO.P,U2,11*
G04 #@! TO.N,~PC_L_LOAD*
X53340000Y-53975000D03*
G04 #@! TO.P,U2,4*
G04 #@! TO.N,~CLK_EN*
X45720000Y-48895000D03*
G04 #@! TO.P,U2,12*
G04 #@! TO.N,Net-(U2-Pad12)*
X53340000Y-51435000D03*
G04 #@! TO.P,U2,5*
G04 #@! TO.N,DOWN_~UP*
X45720000Y-51435000D03*
G04 #@! TO.P,U2,13*
G04 #@! TO.N,Net-(U2-Pad13)*
X53340000Y-48895000D03*
G04 #@! TO.P,U2,6*
G04 #@! TO.N,Net-(BAR2-Pad6)*
X45720000Y-53975000D03*
G04 #@! TO.P,U2,14*
G04 #@! TO.N,CLOCK*
X53340000Y-46355000D03*
G04 #@! TO.P,U2,7*
G04 #@! TO.N,Net-(BAR2-Pad5)*
X45720000Y-56515000D03*
G04 #@! TO.P,U2,15*
G04 #@! TO.N,DATA_BUS0*
X53340000Y-43815000D03*
G04 #@! TO.P,U2,8*
G04 #@! TO.N,GND*
X45720000Y-59055000D03*
G04 #@! TO.P,U2,16*
G04 #@! TO.N,+5V*
X53340000Y-41275000D03*
G04 #@! TD*
G04 #@! TO.P,U7,20*
G04 #@! TO.N,+5V*
X81280000Y-70485000D03*
G04 #@! TO.P,U7,10*
G04 #@! TO.N,GND*
X73660000Y-93345000D03*
G04 #@! TO.P,U7,19*
G04 #@! TO.N,~PC_H_OUT*
X81280000Y-73025000D03*
G04 #@! TO.P,U7,9*
G04 #@! TO.N,Net-(BAR1-Pad3)*
X73660000Y-90805000D03*
G04 #@! TO.P,U7,18*
G04 #@! TO.N,DATA_BUS0*
X81280000Y-75565000D03*
G04 #@! TO.P,U7,8*
G04 #@! TO.N,Net-(BAR1-Pad4)*
X73660000Y-88265000D03*
G04 #@! TO.P,U7,17*
G04 #@! TO.N,DATA_BUS1*
X81280000Y-78105000D03*
G04 #@! TO.P,U7,7*
G04 #@! TO.N,Net-(BAR1-Pad5)*
X73660000Y-85725000D03*
G04 #@! TO.P,U7,16*
G04 #@! TO.N,DATA_BUS2*
X81280000Y-80645000D03*
G04 #@! TO.P,U7,6*
G04 #@! TO.N,Net-(BAR1-Pad6)*
X73660000Y-83185000D03*
G04 #@! TO.P,U7,15*
G04 #@! TO.N,DATA_BUS3*
X81280000Y-83185000D03*
G04 #@! TO.P,U7,5*
G04 #@! TO.N,Net-(BAR1-Pad7)*
X73660000Y-80645000D03*
G04 #@! TO.P,U7,14*
G04 #@! TO.N,DATA_BUS4*
X81280000Y-85725000D03*
G04 #@! TO.P,U7,4*
G04 #@! TO.N,Net-(BAR1-Pad8)*
X73660000Y-78105000D03*
G04 #@! TO.P,U7,13*
G04 #@! TO.N,DATA_BUS5*
X81280000Y-88265000D03*
G04 #@! TO.P,U7,3*
G04 #@! TO.N,Net-(BAR1-Pad9)*
X73660000Y-75565000D03*
G04 #@! TO.P,U7,12*
G04 #@! TO.N,DATA_BUS6*
X81280000Y-90805000D03*
G04 #@! TO.P,U7,2*
G04 #@! TO.N,Net-(BAR1-Pad10)*
X73660000Y-73025000D03*
G04 #@! TO.P,U7,11*
G04 #@! TO.N,DATA_BUS7*
X81280000Y-93345000D03*
D13*
G04 #@! TO.P,U7,1*
G04 #@! TO.N,+5V*
X73660000Y-70485000D03*
G04 #@! TD*
G04 #@! TO.P,U6,1*
G04 #@! TO.N,+5V*
X73660000Y-41275000D03*
D12*
G04 #@! TO.P,U6,11*
G04 #@! TO.N,DATA_BUS7*
X81280000Y-64135000D03*
G04 #@! TO.P,U6,2*
G04 #@! TO.N,Net-(BAR2-Pad8)*
X73660000Y-43815000D03*
G04 #@! TO.P,U6,12*
G04 #@! TO.N,DATA_BUS6*
X81280000Y-61595000D03*
G04 #@! TO.P,U6,3*
G04 #@! TO.N,Net-(BAR2-Pad7)*
X73660000Y-46355000D03*
G04 #@! TO.P,U6,13*
G04 #@! TO.N,DATA_BUS5*
X81280000Y-59055000D03*
G04 #@! TO.P,U6,4*
G04 #@! TO.N,Net-(BAR2-Pad6)*
X73660000Y-48895000D03*
G04 #@! TO.P,U6,14*
G04 #@! TO.N,DATA_BUS4*
X81280000Y-56515000D03*
G04 #@! TO.P,U6,5*
G04 #@! TO.N,Net-(BAR2-Pad5)*
X73660000Y-51435000D03*
G04 #@! TO.P,U6,15*
G04 #@! TO.N,DATA_BUS3*
X81280000Y-53975000D03*
G04 #@! TO.P,U6,6*
G04 #@! TO.N,Net-(BAR2-Pad4)*
X73660000Y-53975000D03*
G04 #@! TO.P,U6,16*
G04 #@! TO.N,DATA_BUS2*
X81280000Y-51435000D03*
G04 #@! TO.P,U6,7*
G04 #@! TO.N,Net-(BAR2-Pad3)*
X73660000Y-56515000D03*
G04 #@! TO.P,U6,17*
G04 #@! TO.N,DATA_BUS1*
X81280000Y-48895000D03*
G04 #@! TO.P,U6,8*
G04 #@! TO.N,Net-(BAR2-Pad2)*
X73660000Y-59055000D03*
G04 #@! TO.P,U6,18*
G04 #@! TO.N,DATA_BUS0*
X81280000Y-46355000D03*
G04 #@! TO.P,U6,9*
G04 #@! TO.N,Net-(BAR2-Pad1)*
X73660000Y-61595000D03*
G04 #@! TO.P,U6,19*
G04 #@! TO.N,~PC_L_OUT*
X81280000Y-43815000D03*
G04 #@! TO.P,U6,10*
G04 #@! TO.N,GND*
X73660000Y-64135000D03*
G04 #@! TO.P,U6,20*
G04 #@! TO.N,+5V*
X81280000Y-41275000D03*
G04 #@! TD*
G04 #@! TO.P,RN2,9*
G04 #@! TO.N,Net-(BAR2-Pad13)*
X91440000Y-23495000D03*
G04 #@! TO.P,RN2,8*
G04 #@! TO.N,Net-(BAR2-Pad14)*
X88900000Y-23495000D03*
G04 #@! TO.P,RN2,7*
G04 #@! TO.N,Net-(BAR2-Pad15)*
X86360000Y-23495000D03*
G04 #@! TO.P,RN2,6*
G04 #@! TO.N,Net-(BAR2-Pad16)*
X83820000Y-23495000D03*
G04 #@! TO.P,RN2,5*
G04 #@! TO.N,Net-(BAR2-Pad17)*
X81280000Y-23495000D03*
G04 #@! TO.P,RN2,4*
G04 #@! TO.N,Net-(BAR2-Pad18)*
X78740000Y-23495000D03*
G04 #@! TO.P,RN2,3*
G04 #@! TO.N,Net-(BAR2-Pad19)*
X76200000Y-23495000D03*
G04 #@! TO.P,RN2,2*
G04 #@! TO.N,Net-(BAR2-Pad20)*
X73660000Y-23495000D03*
D13*
G04 #@! TO.P,RN2,1*
G04 #@! TO.N,GND*
X71120000Y-23495000D03*
G04 #@! TD*
G04 #@! TO.P,RN1,1*
G04 #@! TO.N,GND*
X47625000Y-23495000D03*
D12*
G04 #@! TO.P,RN1,2*
G04 #@! TO.N,Net-(BAR1-Pad18)*
X50165000Y-23495000D03*
G04 #@! TO.P,RN1,3*
G04 #@! TO.N,Net-(BAR1-Pad17)*
X52705000Y-23495000D03*
G04 #@! TO.P,RN1,4*
G04 #@! TO.N,Net-(BAR1-Pad16)*
X55245000Y-23495000D03*
G04 #@! TO.P,RN1,5*
G04 #@! TO.N,Net-(BAR1-Pad15)*
X57785000Y-23495000D03*
G04 #@! TO.P,RN1,6*
G04 #@! TO.N,Net-(BAR1-Pad14)*
X60325000Y-23495000D03*
G04 #@! TO.P,RN1,7*
G04 #@! TO.N,Net-(BAR1-Pad13)*
X62865000Y-23495000D03*
G04 #@! TO.P,RN1,8*
G04 #@! TO.N,Net-(BAR1-Pad12)*
X65405000Y-23495000D03*
G04 #@! TO.P,RN1,9*
G04 #@! TO.N,Net-(BAR1-Pad11)*
X67945000Y-23495000D03*
G04 #@! TD*
D16*
G04 #@! TO.N,Net-(BAR2-Pad6)*
X75456100Y-41090700D03*
G04 #@! TO.N,Net-(BAR2-Pad2)*
X46845300Y-67867900D03*
G04 #@! TO.N,Net-(BAR2-Pad1)*
X51473900Y-68601700D03*
G04 #@! TO.N,~PC_L_OUT*
X70549400Y-59149800D03*
G04 #@! TO.N,Net-(BAR1-Pad5)*
X68572200Y-81376200D03*
G04 #@! TO.N,~CLK_EN*
X56952900Y-50645800D03*
G04 #@! TO.N,DOWN_~UP*
X56886900Y-52022400D03*
G04 #@! TO.N,Net-(U3-Pad13)*
X54944900Y-49544600D03*
G04 #@! TO.N,~PC_H_LOAD*
X67683800Y-60937300D03*
G04 #@! TD*
D17*
G04 #@! TO.N,GND*
X33655000Y-38735000D02*
X33655000Y-48939700D01*
X33655000Y-50165000D02*
X33655000Y-48939700D01*
X45720000Y-60230300D02*
X45720000Y-59055000D01*
X47627300Y-62137600D02*
X45720000Y-60230300D01*
X47627300Y-85722700D02*
X47627300Y-62137600D01*
X45720000Y-87630000D02*
X47627300Y-85722700D01*
X87630000Y-65310300D02*
X87630000Y-64135000D01*
X86454600Y-66485700D02*
X87630000Y-65310300D01*
X86454600Y-92169600D02*
X86454600Y-66485700D01*
X87630000Y-93345000D02*
X86454600Y-92169600D01*
D18*
G04 #@! TO.N,Net-(BAR1-Pad18)*
X50165000Y-23495000D02*
X50165000Y-24620300D01*
X50165000Y-24620300D02*
X52705000Y-27160300D01*
X52705000Y-27160300D02*
X52705000Y-27305000D01*
G04 #@! TO.N,Net-(BAR1-Pad17)*
X52705000Y-23495000D02*
X52705000Y-24620300D01*
X52705000Y-24620300D02*
X55245000Y-27160300D01*
X55245000Y-27160300D02*
X55245000Y-27305000D01*
G04 #@! TO.N,Net-(BAR1-Pad16)*
X55245000Y-23495000D02*
X55245000Y-24620300D01*
X55245000Y-24620300D02*
X57785000Y-27160300D01*
X57785000Y-27160300D02*
X57785000Y-27305000D01*
G04 #@! TO.N,Net-(BAR1-Pad15)*
X57785000Y-23495000D02*
X57785000Y-24620300D01*
X57785000Y-24620300D02*
X60325000Y-27160300D01*
X60325000Y-27160300D02*
X60325000Y-27305000D01*
G04 #@! TO.N,Net-(BAR1-Pad14)*
X60325000Y-23495000D02*
X60325000Y-24620300D01*
X60325000Y-24620300D02*
X62865000Y-27160300D01*
X62865000Y-27160300D02*
X62865000Y-27305000D01*
G04 #@! TO.N,Net-(BAR1-Pad13)*
X62865000Y-23495000D02*
X62865000Y-24620300D01*
X62865000Y-24620300D02*
X65405000Y-27160300D01*
X65405000Y-27160300D02*
X65405000Y-27305000D01*
G04 #@! TO.N,Net-(BAR1-Pad12)*
X65405000Y-23495000D02*
X65405000Y-24620300D01*
X65405000Y-24620300D02*
X67945000Y-27160300D01*
X67945000Y-27160300D02*
X67945000Y-27305000D01*
G04 #@! TO.N,Net-(BAR1-Pad11)*
X67945000Y-23495000D02*
X67945000Y-24620300D01*
X67945000Y-24620300D02*
X70485000Y-27160300D01*
X70485000Y-27160300D02*
X70485000Y-27305000D01*
G04 #@! TO.N,Net-(BAR2-Pad13)*
X91440000Y-23495000D02*
X91440000Y-27305000D01*
G04 #@! TO.N,Net-(BAR2-Pad14)*
X88900000Y-23495000D02*
X88900000Y-27305000D01*
G04 #@! TO.N,Net-(BAR2-Pad15)*
X86360000Y-23495000D02*
X86360000Y-27305000D01*
G04 #@! TO.N,Net-(BAR2-Pad16)*
X83820000Y-23495000D02*
X83820000Y-27305000D01*
G04 #@! TO.N,Net-(BAR2-Pad17)*
X81280000Y-23495000D02*
X81280000Y-27305000D01*
G04 #@! TO.N,Net-(BAR2-Pad18)*
X78740000Y-23495000D02*
X78740000Y-27305000D01*
G04 #@! TO.N,Net-(BAR2-Pad19)*
X76200000Y-23495000D02*
X76200000Y-27305000D01*
G04 #@! TO.N,Net-(BAR2-Pad20)*
X73660000Y-23495000D02*
X73660000Y-27305000D01*
D17*
G04 #@! TO.N,+5V*
X95250000Y-69309700D02*
X94056000Y-68115700D01*
X87630000Y-70485000D02*
X91686700Y-70485000D01*
X91686700Y-70485000D02*
X94056000Y-68115700D01*
X95250000Y-70485000D02*
X95250000Y-69309700D01*
X94056000Y-42469000D02*
X94056000Y-43561000D01*
X95250000Y-41275000D02*
X94056000Y-42469000D01*
X94056000Y-68115700D02*
X94056000Y-43561000D01*
D18*
G04 #@! TO.N,DATA_BUS7*
X53340000Y-87630000D02*
X52214700Y-87630000D01*
X52214700Y-87630000D02*
X46499700Y-93345000D01*
X46499700Y-93345000D02*
X33655000Y-93345000D01*
X76344700Y-89415900D02*
X76344700Y-70195600D01*
X76344700Y-70195600D02*
X81280000Y-65260300D01*
X81280000Y-64135000D02*
X81280000Y-65260300D01*
X76344700Y-89415900D02*
X76344700Y-89535000D01*
X76344700Y-89535000D02*
X80154700Y-93345000D01*
X68435300Y-87630000D02*
X70221200Y-89415900D01*
X70221200Y-89415900D02*
X76344700Y-89415900D01*
X81280000Y-93345000D02*
X80154700Y-93345000D01*
X67310000Y-87630000D02*
X68435300Y-87630000D01*
G04 #@! TO.N,Net-(BAR2-Pad8)*
X89168000Y-32653000D02*
X91440000Y-34925000D01*
X46728400Y-32653000D02*
X89168000Y-32653000D01*
X44594700Y-34786700D02*
X46728400Y-32653000D01*
X44594700Y-45229700D02*
X44594700Y-34786700D01*
X45720000Y-46355000D02*
X44594700Y-45229700D01*
X87630000Y-43815000D02*
X91440000Y-40005000D01*
X91440000Y-40005000D02*
X91440000Y-38862000D01*
X91440000Y-38862000D02*
X91440000Y-34925000D01*
G04 #@! TO.N,DATA_BUS6*
X52214700Y-85090000D02*
X46499700Y-90805000D01*
X46499700Y-90805000D02*
X33655000Y-90805000D01*
X53340000Y-85090000D02*
X52214700Y-85090000D01*
X68435300Y-85090000D02*
X67310000Y-85090000D01*
X74086900Y-84418500D02*
X69106800Y-84418500D01*
X75703300Y-67171700D02*
X75703300Y-82802100D01*
X75703300Y-82802100D02*
X74086900Y-84418500D01*
X81280000Y-61595000D02*
X75703300Y-67171700D01*
X69106800Y-84418500D02*
X68435300Y-85090000D01*
G04 #@! TO.N,Net-(BAR2-Pad7)*
X86504700Y-37320300D02*
X88900000Y-34925000D01*
X86504700Y-45229700D02*
X86504700Y-37320300D01*
X87630000Y-46355000D02*
X86504700Y-45229700D01*
G04 #@! TO.N,DATA_BUS5*
X44594700Y-77325300D02*
X33655000Y-88265000D01*
X45720000Y-70693900D02*
X44594700Y-71819200D01*
X44594700Y-71819200D02*
X44594700Y-77325300D01*
X45720000Y-69850000D02*
X45720000Y-70693900D01*
X78331900Y-85316900D02*
X81280000Y-88265000D01*
X78331900Y-68966300D02*
X78331900Y-85316900D01*
X82432200Y-60207200D02*
X82432200Y-64866000D01*
X82432200Y-64866000D02*
X78331900Y-68966300D01*
X81280000Y-59055000D02*
X82432200Y-60207200D01*
G04 #@! TO.N,Net-(BAR2-Pad6)*
X52914000Y-47625000D02*
X53661600Y-47625000D01*
X53661600Y-47625000D02*
X54510700Y-46775900D01*
X54510700Y-46775900D02*
X54510700Y-43372800D01*
X54510700Y-43372800D02*
X53776100Y-42638200D01*
X53776100Y-42638200D02*
X52762700Y-42638200D01*
X52762700Y-42638200D02*
X46270700Y-36146200D01*
X46270700Y-36146200D02*
X46270700Y-33772800D01*
X46270700Y-33772800D02*
X46931200Y-33112300D01*
X86360000Y-34925000D02*
X86054400Y-35230600D01*
X49657000Y-51169370D02*
X49657000Y-50882000D01*
X46851370Y-53975000D02*
X49657000Y-51169370D01*
X45720000Y-53975000D02*
X46851370Y-53975000D01*
X49657000Y-50882000D02*
X52914000Y-47625000D01*
X73660000Y-48895000D02*
X75456100Y-47098900D01*
X75456100Y-47098900D02*
X75456100Y-45085000D01*
X75456100Y-41090700D02*
X75456100Y-45085000D01*
X86054400Y-47319400D02*
X86054400Y-45593000D01*
X87630000Y-48895000D02*
X86054400Y-47319400D01*
X86054400Y-35230600D02*
X86054400Y-45593000D01*
X84547300Y-33112300D02*
X83566000Y-33112300D01*
X86360000Y-34925000D02*
X84547300Y-33112300D01*
X46931200Y-33112300D02*
X83566000Y-33112300D01*
X83566000Y-33112300D02*
X83936100Y-33112300D01*
G04 #@! TO.N,DATA_BUS4*
X53340000Y-72390000D02*
X52213800Y-73516200D01*
X52213800Y-73516200D02*
X52213800Y-78011400D01*
X52213800Y-78011400D02*
X52797800Y-78595400D01*
X52797800Y-78595400D02*
X53590500Y-78595400D01*
X53590500Y-78595400D02*
X54471000Y-79475900D01*
X54471000Y-79475900D02*
X54471000Y-83940300D01*
X51705900Y-83940300D02*
X54471000Y-83940300D01*
X32479700Y-86900300D02*
X32479700Y-88780300D01*
X33215600Y-89516200D02*
X46130000Y-89516200D01*
X46130000Y-89516200D02*
X51705900Y-83940300D01*
X33655000Y-85725000D02*
X32479700Y-86900300D01*
X32479700Y-88780300D02*
X33215600Y-89516200D01*
X60093400Y-86360000D02*
X56890700Y-86360000D01*
X56890700Y-86360000D02*
X54471000Y-83940300D01*
X81280000Y-85725000D02*
X82405300Y-86850300D01*
X82405300Y-86850300D02*
X82405300Y-93820800D01*
X82405300Y-93820800D02*
X81724500Y-94501600D01*
X81724500Y-94501600D02*
X68235000Y-94501600D01*
X68235000Y-94501600D02*
X60093400Y-86360000D01*
X78782300Y-83227300D02*
X81280000Y-85725000D01*
X81280000Y-56515000D02*
X81280000Y-57358900D01*
X82882700Y-65277700D02*
X78782300Y-69378100D01*
X81280000Y-57358900D02*
X82882700Y-58961600D01*
X82882700Y-58961600D02*
X82882700Y-65277700D01*
X78782300Y-69378100D02*
X78782300Y-83227300D01*
G04 #@! TO.N,Net-(BAR2-Pad5)*
X85604100Y-36709100D02*
X83820000Y-34925000D01*
X85604100Y-49409100D02*
X85604100Y-36709100D01*
X87630000Y-51435000D02*
X85604100Y-49409100D01*
G04 #@! TO.N,DATA_BUS3*
X81280000Y-55100300D02*
X81280000Y-53975000D01*
X82405300Y-55944200D02*
X81561400Y-55100300D01*
X81561400Y-55100300D02*
X81280000Y-55100300D01*
X81280000Y-83185000D02*
X79232600Y-81137600D01*
X83352600Y-58581600D02*
X82405300Y-57634300D01*
X79232600Y-81137600D02*
X79232600Y-69564700D01*
X79232600Y-69564700D02*
X83352600Y-65444700D01*
X82405300Y-57634300D02*
X82405300Y-55944200D01*
X83352600Y-65444700D02*
X83352600Y-58581600D01*
G04 #@! TO.N,Net-(BAR2-Pad4)*
X85100600Y-51445600D02*
X85100600Y-38745600D01*
X85100600Y-38745600D02*
X81280000Y-34925000D01*
X87630000Y-53975000D02*
X85100600Y-51445600D01*
G04 #@! TO.N,DATA_BUS2*
X33655000Y-80645000D02*
X34830300Y-79469700D01*
X52214700Y-56515000D02*
X53340000Y-56515000D01*
X34830300Y-79469700D02*
X34830300Y-68338400D01*
X34830300Y-68338400D02*
X45528400Y-57640300D01*
X45528400Y-57640300D02*
X51089400Y-57640300D01*
X51089400Y-57640300D02*
X52214700Y-56515000D01*
X79688100Y-79053100D02*
X81280000Y-80645000D01*
X79688100Y-70358100D02*
X79688100Y-79053100D01*
X81280000Y-51435000D02*
X82869700Y-53024700D01*
X82869700Y-53024700D02*
X82869700Y-57279900D01*
X83807300Y-58217500D02*
X83807300Y-66238900D01*
X82869700Y-57279900D02*
X83807300Y-58217500D01*
X83807300Y-66238900D02*
X79688100Y-70358100D01*
G04 #@! TO.N,Net-(BAR2-Pad3)*
X84253200Y-53138200D02*
X84253200Y-40438200D01*
X84253200Y-40438200D02*
X78740000Y-34925000D01*
X87630000Y-56515000D02*
X84253200Y-53138200D01*
G04 #@! TO.N,DATA_BUS1*
X80138400Y-76963400D02*
X81280000Y-78105000D01*
X80138400Y-72511200D02*
X80138400Y-76963400D01*
X83320000Y-50935000D02*
X83320000Y-57093300D01*
X81280000Y-48895000D02*
X83320000Y-50935000D01*
X84257600Y-58030900D02*
X84257600Y-69144100D01*
X80894600Y-71755000D02*
X80138400Y-72511200D01*
X81646700Y-71755000D02*
X80894600Y-71755000D01*
X83320000Y-57093300D02*
X84257600Y-58030900D01*
X84257600Y-69144100D02*
X81646700Y-71755000D01*
G04 #@! TO.N,Net-(BAR2-Pad2)*
X45720000Y-82550000D02*
X46845300Y-81424700D01*
X46845300Y-81424700D02*
X46845300Y-80010000D01*
X46845300Y-80010000D02*
X46845300Y-67867900D01*
X76200000Y-56515000D02*
X76200000Y-55118000D01*
X73660000Y-59055000D02*
X76200000Y-56515000D01*
X76200000Y-55118000D02*
X76200000Y-34925000D01*
G04 #@! TO.N,DATA_BUS0*
X46054300Y-52705000D02*
X50165000Y-48594300D01*
X43175200Y-52705000D02*
X46054300Y-52705000D01*
X34285200Y-61595000D02*
X43175200Y-52705000D01*
X50165000Y-48594300D02*
X50165000Y-46990000D01*
X32479700Y-74389700D02*
X32479700Y-62271900D01*
X32479700Y-62271900D02*
X33156600Y-61595000D01*
X50165000Y-46990000D02*
X53340000Y-43815000D01*
X33655000Y-75565000D02*
X32479700Y-74389700D01*
X33156600Y-61595000D02*
X34285200Y-61595000D01*
X84707900Y-72137100D02*
X81280000Y-75565000D01*
X84707900Y-56583100D02*
X84707900Y-72137100D01*
X83770300Y-55645500D02*
X84707900Y-56583100D01*
X83770300Y-48845300D02*
X83770300Y-55645500D01*
X81280000Y-46355000D02*
X83770300Y-48845300D01*
G04 #@! TO.N,Net-(BAR2-Pad1)*
X45720000Y-85090000D02*
X44582900Y-86227100D01*
X44582900Y-86227100D02*
X44582900Y-88106800D01*
X44582900Y-88106800D02*
X45275500Y-88799400D01*
X45275500Y-88799400D02*
X46209900Y-88799400D01*
X46209900Y-88799400D02*
X51250500Y-83758800D01*
X51250500Y-83758800D02*
X51250500Y-68825100D01*
X51250500Y-68825100D02*
X51473900Y-68601700D01*
X73660000Y-36266300D02*
X73660000Y-34925000D01*
X72534700Y-60469700D02*
X72534700Y-37391600D01*
X72534700Y-37391600D02*
X73660000Y-36266300D01*
X73660000Y-61595000D02*
X72534700Y-60469700D01*
G04 #@! TO.N,~PC_L_OUT*
X70549400Y-60167700D02*
X70549400Y-59149800D01*
X81280000Y-43815000D02*
X80154700Y-44940300D01*
X80154700Y-56723800D02*
X74158100Y-62720400D01*
X80154700Y-44940300D02*
X80154700Y-56723800D01*
X74158100Y-62720400D02*
X73102100Y-62720400D01*
X73102100Y-62720400D02*
X70549400Y-60167700D01*
G04 #@! TO.N,Net-(BAR1-Pad3)*
X73660000Y-90805000D02*
X67112700Y-90805000D01*
X67112700Y-90805000D02*
X67112700Y-90750500D01*
X67112700Y-90750500D02*
X66980600Y-90618400D01*
X66980600Y-90618400D02*
X66980600Y-90618300D01*
X66980600Y-90618300D02*
X65532900Y-89170600D01*
X65532900Y-89170600D02*
X65159700Y-89170600D01*
X65159700Y-89170600D02*
X65027800Y-89302500D01*
X65027800Y-89302500D02*
X60815300Y-85090000D01*
X60252700Y-85090000D02*
X59690000Y-85090000D01*
X60252700Y-85090000D02*
X60815300Y-85090000D01*
X55670300Y-53387700D02*
X55670300Y-37890300D01*
X55670300Y-37890300D02*
X52705000Y-34925000D01*
X56097600Y-81497600D02*
X56097600Y-53815000D01*
X56097600Y-53815000D02*
X55670300Y-53387700D01*
X59690000Y-85090000D02*
X56097600Y-81497600D01*
G04 #@! TO.N,Net-(BAR1-Pad4)*
X73660000Y-88265000D02*
X72534700Y-88265000D01*
X59690000Y-82550000D02*
X60815300Y-82550000D01*
X60815300Y-82550000D02*
X64480700Y-86215400D01*
X64480700Y-86215400D02*
X70485100Y-86215400D01*
X70485100Y-86215400D02*
X72534700Y-88265000D01*
X56120600Y-35800600D02*
X55245000Y-34925000D01*
X56120600Y-52281900D02*
X56120600Y-35800600D01*
X56548000Y-79408000D02*
X56548000Y-52709300D01*
X56548000Y-52709300D02*
X56120600Y-52281900D01*
X59690000Y-82550000D02*
X56548000Y-79408000D01*
G04 #@! TO.N,Net-(BAR1-Pad5)*
X67072900Y-81376200D02*
X68572200Y-81376200D01*
X61388700Y-74088700D02*
X61388700Y-75692000D01*
X59690000Y-72390000D02*
X61388700Y-74088700D01*
X61388700Y-75692000D02*
X67072900Y-81376200D01*
X57180200Y-49811000D02*
X57180200Y-35529800D01*
X57180200Y-35529800D02*
X57785000Y-34925000D01*
X58067700Y-70767700D02*
X58067700Y-50698500D01*
X58067700Y-50698500D02*
X57180200Y-49811000D01*
X59690000Y-72390000D02*
X58067700Y-70767700D01*
G04 #@! TO.N,Net-(BAR1-Pad6)*
X73660000Y-83185000D02*
X72534700Y-83185000D01*
X59690000Y-74930000D02*
X65372100Y-80612100D01*
X65372100Y-80612100D02*
X65372100Y-82208300D01*
X65372100Y-82208300D02*
X66839800Y-83676000D01*
X66839800Y-83676000D02*
X72043700Y-83676000D01*
X72043700Y-83676000D02*
X72534700Y-83185000D01*
X60325000Y-34925000D02*
X61687300Y-33562700D01*
X61687300Y-33562700D02*
X71030700Y-33562700D01*
X71030700Y-33562700D02*
X71833200Y-34365200D01*
X71833200Y-34365200D02*
X71833200Y-51689800D01*
X71833200Y-51689800D02*
X69823500Y-53699500D01*
X69823500Y-53699500D02*
X69823500Y-62855600D01*
X69823500Y-62855600D02*
X75252900Y-68285000D01*
X75252900Y-68285000D02*
X75252900Y-81592100D01*
X75252900Y-81592100D02*
X73660000Y-83185000D01*
G04 #@! TO.N,Net-(BAR1-Pad7)*
X62865000Y-34925000D02*
X57649200Y-40140800D01*
X57649200Y-40140800D02*
X57649200Y-49217900D01*
X57649200Y-49217900D02*
X58518000Y-50086700D01*
X58518000Y-50086700D02*
X58518000Y-55343000D01*
X58518000Y-55343000D02*
X59690000Y-56515000D01*
X72534700Y-80645000D02*
X73660000Y-80645000D01*
X59690000Y-56515000D02*
X60815300Y-57640300D01*
X60815300Y-57640300D02*
X60815300Y-72571400D01*
X66983900Y-78740000D02*
X70629700Y-78740000D01*
X70629700Y-78740000D02*
X72534700Y-80645000D01*
X60815300Y-72571400D02*
X66983900Y-78740000D01*
G04 #@! TO.N,Net-(BAR1-Pad8)*
X59034700Y-39846600D02*
X60483400Y-39846600D01*
X58099500Y-40781800D02*
X59034700Y-39846600D01*
X58099500Y-48902000D02*
X58099500Y-40781800D01*
X59690000Y-53975000D02*
X60815300Y-52849700D01*
X60815300Y-50968500D02*
X60011800Y-50165000D01*
X60011800Y-50165000D02*
X59362500Y-50165000D01*
X60483400Y-39846600D02*
X65405000Y-34925000D01*
X60815300Y-52849700D02*
X60815300Y-50968500D01*
X59362500Y-50165000D02*
X58099500Y-48902000D01*
X72534700Y-78105000D02*
X73660000Y-78105000D01*
X70629700Y-76200000D02*
X72534700Y-78105000D01*
X59690000Y-53975000D02*
X62162500Y-56447500D01*
X62162500Y-56447500D02*
X62162500Y-71405200D01*
X62162500Y-71405200D02*
X66957300Y-76200000D01*
X66957300Y-76200000D02*
X70629700Y-76200000D01*
G04 #@! TO.N,Net-(BAR1-Pad9)*
X67945000Y-35560000D02*
X67945000Y-34925000D01*
X59690000Y-43815000D02*
X67945000Y-35560000D01*
X58549900Y-44955100D02*
X59690000Y-43815000D01*
X58549900Y-46849100D02*
X58549900Y-44955100D01*
X73660000Y-75565000D02*
X68885700Y-70790700D01*
X68885700Y-70790700D02*
X68885700Y-48872900D01*
X68885700Y-48872900D02*
X67637800Y-47625000D01*
X67637800Y-47625000D02*
X59325800Y-47625000D01*
X59325800Y-47625000D02*
X58549900Y-46849100D01*
G04 #@! TO.N,Net-(BAR1-Pad10)*
X70485000Y-34925000D02*
X69354600Y-36055400D01*
X69354600Y-36055400D02*
X69354600Y-45229700D01*
X61946670Y-45229700D02*
X62738000Y-45229700D01*
X59690000Y-46355000D02*
X60821370Y-46355000D01*
X60821370Y-46355000D02*
X61946670Y-45229700D01*
X69354600Y-45229700D02*
X62738000Y-45229700D01*
X73660000Y-73025000D02*
X69354600Y-68719600D01*
X69354600Y-68719600D02*
X69354600Y-67945000D01*
X69354600Y-45229700D02*
X69354600Y-67945000D01*
G04 #@! TO.N,~PC_L_LOAD*
X33655000Y-62865000D02*
X34830300Y-62865000D01*
X53340000Y-55100300D02*
X42595000Y-55100300D01*
X42595000Y-55100300D02*
X34830300Y-62865000D01*
X53340000Y-54987700D02*
X53340000Y-55100300D01*
X53340000Y-53975000D02*
X53340000Y-54987700D01*
X53621400Y-55100300D02*
X53340000Y-55100300D01*
X53340000Y-82550000D02*
X51763500Y-80973500D01*
X54465300Y-66636100D02*
X54465300Y-55944200D01*
X51763500Y-80973500D02*
X51763500Y-69337900D01*
X51763500Y-69337900D02*
X54465300Y-66636100D01*
X54465300Y-55944200D02*
X53621400Y-55100300D01*
G04 #@! TO.N,~CLK_EN*
X43694100Y-36074100D02*
X41275000Y-33655000D01*
X43694100Y-46869100D02*
X43694100Y-36074100D01*
X45720000Y-48895000D02*
X43694100Y-46869100D01*
X57617300Y-51310200D02*
X56952900Y-50645800D01*
X57617300Y-75397300D02*
X57617300Y-51310200D01*
X59690000Y-77470000D02*
X57617300Y-75397300D01*
G04 #@! TO.N,DOWN_~UP*
X33655000Y-24545000D02*
X33655000Y-23495000D01*
X32529700Y-32529700D02*
X32529700Y-25464200D01*
X33655000Y-33655000D02*
X32529700Y-32529700D01*
X33101900Y-24892000D02*
X33308000Y-24892000D01*
X32529700Y-25464200D02*
X33101900Y-24892000D01*
X33308000Y-24892000D02*
X33655000Y-24545000D01*
X36068600Y-36068600D02*
X33655000Y-33655000D01*
X36068600Y-41783600D02*
X36068600Y-36068600D01*
X45720000Y-51435000D02*
X36068600Y-41783600D01*
X57166900Y-52302400D02*
X56886900Y-52022400D01*
X57166900Y-77486900D02*
X57166900Y-52302400D01*
X59690000Y-80010000D02*
X57166900Y-77486900D01*
G04 #@! TO.N,Net-(U2-Pad13)*
X53340000Y-50020300D02*
X53340000Y-48895000D01*
X53340000Y-74930000D02*
X54915700Y-73354300D01*
X54915700Y-73354300D02*
X54915700Y-54739200D01*
X53516900Y-50020300D02*
X53340000Y-50020300D01*
X54915700Y-54739200D02*
X54465300Y-54288800D01*
X54465300Y-54288800D02*
X54465300Y-50968700D01*
X54465300Y-50968700D02*
X53516900Y-50020300D01*
G04 #@! TO.N,Net-(U3-Pad13)*
X54944900Y-53622300D02*
X54944900Y-49544600D01*
X55366100Y-54043500D02*
X54944900Y-53622300D01*
X55366100Y-75443900D02*
X55366100Y-54043500D01*
X53340000Y-77470000D02*
X55366100Y-75443900D01*
G04 #@! TO.N,~PC_H_LOAD*
X68435300Y-60937300D02*
X67683800Y-60937300D01*
X68435300Y-60937300D02*
X68435300Y-71937800D01*
X68435300Y-71937800D02*
X73332500Y-76835000D01*
X73332500Y-76835000D02*
X74059000Y-76835000D01*
X74059000Y-76835000D02*
X74795900Y-77571900D01*
X74795900Y-77571900D02*
X74795900Y-81149100D01*
X74795900Y-81149100D02*
X73918800Y-82026200D01*
X73918800Y-82026200D02*
X68959100Y-82026200D01*
X68959100Y-82026200D02*
X68435300Y-82550000D01*
X67310000Y-82550000D02*
X68435300Y-82550000D01*
X68435300Y-55100300D02*
X68435300Y-57150000D01*
X67310000Y-53975000D02*
X68435300Y-55100300D01*
X68435300Y-57150000D02*
X68435300Y-60937300D01*
G04 #@! TO.N,Net-(U4-Pad13)*
X66184700Y-50020300D02*
X66184700Y-73804700D01*
X66184700Y-73804700D02*
X67310000Y-74930000D01*
X67310000Y-48895000D02*
X66184700Y-50020300D01*
G04 #@! TO.N,PC_INC*
X39497000Y-31877000D02*
X39370000Y-31750000D01*
X39497000Y-36957000D02*
X39497000Y-31877000D01*
X41275000Y-38735000D02*
X39497000Y-36957000D01*
X33655000Y-26035000D02*
X39370000Y-31750000D01*
G04 #@! TO.N,PC_DEC*
X34830300Y-37370300D02*
X33655000Y-36195000D01*
X34830300Y-59149700D02*
X34830300Y-37370300D01*
X33655000Y-60325000D02*
X34830300Y-59149700D01*
G04 #@! TO.N,Net-(U1-Pad3)*
X33655000Y-31115000D02*
X33655000Y-28575000D01*
G04 #@! TO.N,Net-(J2-Pad8)*
X95250000Y-65867000D02*
X95250000Y-64135000D01*
X95250000Y-66040000D02*
X95250000Y-64135000D01*
X102235000Y-73025000D02*
X95250000Y-66040000D01*
G04 #@! TO.N,Net-(J2-Pad7)*
X96049999Y-62394999D02*
X95250000Y-61595000D01*
X96607055Y-62952055D02*
X96049999Y-62394999D01*
X96607055Y-64857055D02*
X96607055Y-62952055D01*
X102235000Y-70485000D02*
X96607055Y-64857055D01*
G04 #@! TO.N,Net-(J2-Pad6)*
X101385001Y-67095001D02*
X102235000Y-67945000D01*
X97536000Y-63244590D02*
X101385001Y-67093591D01*
X101385001Y-67093591D02*
X101385001Y-67095001D01*
X97536000Y-61341000D02*
X97536000Y-63244590D01*
X95250000Y-59055000D02*
X97536000Y-61341000D01*
G04 #@! TO.N,Net-(J2-Pad5)*
X101385001Y-64555001D02*
X102235000Y-65405000D01*
X98240009Y-61410009D02*
X101385001Y-64555001D01*
X98240009Y-59505009D02*
X98240009Y-61410009D01*
X95250000Y-56515000D02*
X98240009Y-59505009D01*
G04 #@! TO.N,Net-(J2-Pad4)*
X99187000Y-59817000D02*
X99187000Y-57912000D01*
X102235000Y-62865000D02*
X99187000Y-59817000D01*
X99187000Y-57912000D02*
X95250000Y-53975000D01*
G04 #@! TO.N,Net-(J2-Pad3)*
X99949000Y-58039000D02*
X99949000Y-56134000D01*
X102235000Y-60325000D02*
X99949000Y-58039000D01*
X99949000Y-56134000D02*
X95250000Y-51435000D01*
G04 #@! TO.N,Net-(J2-Pad2)*
X96049999Y-49694999D02*
X95250000Y-48895000D01*
X100711000Y-56261000D02*
X100711000Y-54356000D01*
X102235000Y-57785000D02*
X100711000Y-56261000D01*
X100711000Y-54356000D02*
X96049999Y-49694999D01*
G04 #@! TO.N,Net-(J2-Pad1)*
X102235000Y-53340000D02*
X102235000Y-55245000D01*
X95250000Y-46355000D02*
X102235000Y-53340000D01*
G04 #@! TD*
M02*
