G04 #@! TF.GenerationSoftware,KiCad,Pcbnew,5.0.2+dfsg1-1*
G04 #@! TF.CreationDate,2019-08-03T19:36:51+02:00*
G04 #@! TF.ProjectId,Program-Counter,50726f67-7261-46d2-9d43-6f756e746572,rev?*
G04 #@! TF.SameCoordinates,Original*
G04 #@! TF.FileFunction,Copper,L2,Bot*
G04 #@! TF.FilePolarity,Positive*
%FSLAX46Y46*%
G04 Gerber Fmt 4.6, Leading zero omitted, Abs format (unit mm)*
G04 Created by KiCad (PCBNEW 5.0.2+dfsg1-1) date za 03 aug 2019 19:36:51 CEST*
%MOMM*%
%LPD*%
G01*
G04 APERTURE LIST*
G04 #@! TA.AperFunction,ComponentPad*
%ADD10R,1.700000X1.700000*%
G04 #@! TD*
G04 #@! TA.AperFunction,ComponentPad*
%ADD11O,1.700000X1.700000*%
G04 #@! TD*
G04 #@! TA.AperFunction,ComponentPad*
%ADD12O,1.600000X1.600000*%
G04 #@! TD*
G04 #@! TA.AperFunction,ComponentPad*
%ADD13R,1.600000X1.600000*%
G04 #@! TD*
G04 #@! TA.AperFunction,ComponentPad*
%ADD14C,2.032000*%
G04 #@! TD*
G04 #@! TA.AperFunction,ComponentPad*
%ADD15R,2.032000X2.032000*%
G04 #@! TD*
G04 #@! TA.AperFunction,ViaPad*
%ADD16C,0.800000*%
G04 #@! TD*
G04 #@! TA.AperFunction,Conductor*
%ADD17C,0.350000*%
G04 #@! TD*
G04 #@! TA.AperFunction,Conductor*
%ADD18C,0.250000*%
G04 #@! TD*
G04 #@! TA.AperFunction,Conductor*
%ADD19C,0.254000*%
G04 #@! TD*
G04 APERTURE END LIST*
D10*
G04 #@! TO.P,J1,1*
G04 #@! TO.N,GND*
X33655000Y-50165000D03*
D11*
G04 #@! TO.P,J1,2*
G04 #@! TO.N,+5V*
X33655000Y-52705000D03*
G04 #@! TO.P,J1,3*
G04 #@! TO.N,CLOCK*
X33655000Y-55245000D03*
G04 #@! TO.P,J1,4*
G04 #@! TO.N,PC_INC*
X33655000Y-57785000D03*
G04 #@! TO.P,J1,5*
G04 #@! TO.N,PC_DEC*
X33655000Y-60325000D03*
G04 #@! TO.P,J1,6*
G04 #@! TO.N,~PC_L_LOAD*
X33655000Y-62865000D03*
G04 #@! TO.P,J1,7*
G04 #@! TO.N,~PC_H_LOAD*
X33655000Y-65405000D03*
G04 #@! TO.P,J1,8*
G04 #@! TO.N,~PC_L_OUT*
X33655000Y-67945000D03*
G04 #@! TO.P,J1,9*
G04 #@! TO.N,~PC_H_OUT*
X33655000Y-70485000D03*
G04 #@! TO.P,J1,10*
G04 #@! TO.N,~PC_MAR_OUT*
X33655000Y-73025000D03*
G04 #@! TO.P,J1,11*
G04 #@! TO.N,DATA_BUS0*
X33655000Y-75565000D03*
G04 #@! TO.P,J1,12*
G04 #@! TO.N,DATA_BUS1*
X33655000Y-78105000D03*
G04 #@! TO.P,J1,13*
G04 #@! TO.N,DATA_BUS2*
X33655000Y-80645000D03*
G04 #@! TO.P,J1,14*
G04 #@! TO.N,DATA_BUS3*
X33655000Y-83185000D03*
G04 #@! TO.P,J1,15*
G04 #@! TO.N,DATA_BUS4*
X33655000Y-85725000D03*
G04 #@! TO.P,J1,16*
G04 #@! TO.N,DATA_BUS5*
X33655000Y-88265000D03*
G04 #@! TO.P,J1,17*
G04 #@! TO.N,DATA_BUS6*
X33655000Y-90805000D03*
G04 #@! TO.P,J1,18*
G04 #@! TO.N,DATA_BUS7*
X33655000Y-93345000D03*
G04 #@! TD*
D12*
G04 #@! TO.P,U9,20*
G04 #@! TO.N,+5V*
X95250000Y-70485000D03*
G04 #@! TO.P,U9,10*
G04 #@! TO.N,GND*
X87630000Y-93345000D03*
G04 #@! TO.P,U9,19*
G04 #@! TO.N,~PC_MAR_OUT*
X95250000Y-73025000D03*
G04 #@! TO.P,U9,9*
G04 #@! TO.N,Net-(BAR1-Pad3)*
X87630000Y-90805000D03*
G04 #@! TO.P,U9,18*
G04 #@! TO.N,Net-(J2-Pad9)*
X95250000Y-75565000D03*
G04 #@! TO.P,U9,8*
G04 #@! TO.N,Net-(BAR1-Pad4)*
X87630000Y-88265000D03*
G04 #@! TO.P,U9,17*
G04 #@! TO.N,Net-(J2-Pad10)*
X95250000Y-78105000D03*
G04 #@! TO.P,U9,7*
G04 #@! TO.N,Net-(BAR1-Pad5)*
X87630000Y-85725000D03*
G04 #@! TO.P,U9,16*
G04 #@! TO.N,Net-(J2-Pad11)*
X95250000Y-80645000D03*
G04 #@! TO.P,U9,6*
G04 #@! TO.N,Net-(BAR1-Pad6)*
X87630000Y-83185000D03*
G04 #@! TO.P,U9,15*
G04 #@! TO.N,Net-(J2-Pad12)*
X95250000Y-83185000D03*
G04 #@! TO.P,U9,5*
G04 #@! TO.N,Net-(BAR1-Pad7)*
X87630000Y-80645000D03*
G04 #@! TO.P,U9,14*
G04 #@! TO.N,Net-(J2-Pad13)*
X95250000Y-85725000D03*
G04 #@! TO.P,U9,4*
G04 #@! TO.N,Net-(BAR1-Pad8)*
X87630000Y-78105000D03*
G04 #@! TO.P,U9,13*
G04 #@! TO.N,Net-(J2-Pad14)*
X95250000Y-88265000D03*
G04 #@! TO.P,U9,3*
G04 #@! TO.N,Net-(BAR1-Pad9)*
X87630000Y-75565000D03*
G04 #@! TO.P,U9,12*
G04 #@! TO.N,Net-(J2-Pad15)*
X95250000Y-90805000D03*
G04 #@! TO.P,U9,2*
G04 #@! TO.N,Net-(BAR1-Pad10)*
X87630000Y-73025000D03*
G04 #@! TO.P,U9,11*
G04 #@! TO.N,Net-(J2-Pad16)*
X95250000Y-93345000D03*
D13*
G04 #@! TO.P,U9,1*
G04 #@! TO.N,+5V*
X87630000Y-70485000D03*
G04 #@! TD*
G04 #@! TO.P,U8,1*
G04 #@! TO.N,+5V*
X87630000Y-41275000D03*
D12*
G04 #@! TO.P,U8,11*
G04 #@! TO.N,Net-(J2-Pad8)*
X95250000Y-64135000D03*
G04 #@! TO.P,U8,2*
G04 #@! TO.N,Net-(BAR2-Pad8)*
X87630000Y-43815000D03*
G04 #@! TO.P,U8,12*
G04 #@! TO.N,Net-(J2-Pad7)*
X95250000Y-61595000D03*
G04 #@! TO.P,U8,3*
G04 #@! TO.N,Net-(BAR2-Pad7)*
X87630000Y-46355000D03*
G04 #@! TO.P,U8,13*
G04 #@! TO.N,Net-(J2-Pad6)*
X95250000Y-59055000D03*
G04 #@! TO.P,U8,4*
G04 #@! TO.N,Net-(BAR2-Pad6)*
X87630000Y-48895000D03*
G04 #@! TO.P,U8,14*
G04 #@! TO.N,Net-(J2-Pad5)*
X95250000Y-56515000D03*
G04 #@! TO.P,U8,5*
G04 #@! TO.N,Net-(BAR2-Pad5)*
X87630000Y-51435000D03*
G04 #@! TO.P,U8,15*
G04 #@! TO.N,Net-(J2-Pad4)*
X95250000Y-53975000D03*
G04 #@! TO.P,U8,6*
G04 #@! TO.N,Net-(BAR2-Pad4)*
X87630000Y-53975000D03*
G04 #@! TO.P,U8,16*
G04 #@! TO.N,Net-(J2-Pad3)*
X95250000Y-51435000D03*
G04 #@! TO.P,U8,7*
G04 #@! TO.N,Net-(BAR2-Pad3)*
X87630000Y-56515000D03*
G04 #@! TO.P,U8,17*
G04 #@! TO.N,Net-(J2-Pad2)*
X95250000Y-48895000D03*
G04 #@! TO.P,U8,8*
G04 #@! TO.N,Net-(BAR2-Pad2)*
X87630000Y-59055000D03*
G04 #@! TO.P,U8,18*
G04 #@! TO.N,Net-(J2-Pad1)*
X95250000Y-46355000D03*
G04 #@! TO.P,U8,9*
G04 #@! TO.N,Net-(BAR2-Pad1)*
X87630000Y-61595000D03*
G04 #@! TO.P,U8,19*
G04 #@! TO.N,~PC_MAR_OUT*
X95250000Y-43815000D03*
G04 #@! TO.P,U8,10*
G04 #@! TO.N,GND*
X87630000Y-64135000D03*
G04 #@! TO.P,U8,20*
G04 #@! TO.N,+5V*
X95250000Y-41275000D03*
G04 #@! TD*
D13*
G04 #@! TO.P,U4,1*
G04 #@! TO.N,DATA_BUS1*
X59690000Y-41275000D03*
D12*
G04 #@! TO.P,U4,9*
G04 #@! TO.N,DATA_BUS3*
X67310000Y-59055000D03*
G04 #@! TO.P,U4,2*
G04 #@! TO.N,Net-(BAR1-Pad9)*
X59690000Y-43815000D03*
G04 #@! TO.P,U4,10*
G04 #@! TO.N,DATA_BUS2*
X67310000Y-56515000D03*
G04 #@! TO.P,U4,3*
G04 #@! TO.N,Net-(BAR1-Pad10)*
X59690000Y-46355000D03*
G04 #@! TO.P,U4,11*
G04 #@! TO.N,~PC_H_LOAD*
X67310000Y-53975000D03*
G04 #@! TO.P,U4,4*
G04 #@! TO.N,~CLK_EN*
X59690000Y-48895000D03*
G04 #@! TO.P,U4,12*
G04 #@! TO.N,Net-(U4-Pad12)*
X67310000Y-51435000D03*
G04 #@! TO.P,U4,5*
G04 #@! TO.N,DOWN_~UP*
X59690000Y-51435000D03*
G04 #@! TO.P,U4,13*
G04 #@! TO.N,Net-(U4-Pad13)*
X67310000Y-48895000D03*
G04 #@! TO.P,U4,6*
G04 #@! TO.N,Net-(BAR1-Pad8)*
X59690000Y-53975000D03*
G04 #@! TO.P,U4,14*
G04 #@! TO.N,Net-(U3-Pad13)*
X67310000Y-46355000D03*
G04 #@! TO.P,U4,7*
G04 #@! TO.N,Net-(BAR1-Pad7)*
X59690000Y-56515000D03*
G04 #@! TO.P,U4,15*
G04 #@! TO.N,DATA_BUS0*
X67310000Y-43815000D03*
G04 #@! TO.P,U4,8*
G04 #@! TO.N,GND*
X59690000Y-59055000D03*
G04 #@! TO.P,U4,16*
G04 #@! TO.N,+5V*
X67310000Y-41275000D03*
G04 #@! TD*
D11*
G04 #@! TO.P,J2,16*
G04 #@! TO.N,Net-(J2-Pad16)*
X102235000Y-93345000D03*
G04 #@! TO.P,J2,15*
G04 #@! TO.N,Net-(J2-Pad15)*
X102235000Y-90805000D03*
G04 #@! TO.P,J2,14*
G04 #@! TO.N,Net-(J2-Pad14)*
X102235000Y-88265000D03*
G04 #@! TO.P,J2,13*
G04 #@! TO.N,Net-(J2-Pad13)*
X102235000Y-85725000D03*
G04 #@! TO.P,J2,12*
G04 #@! TO.N,Net-(J2-Pad12)*
X102235000Y-83185000D03*
G04 #@! TO.P,J2,11*
G04 #@! TO.N,Net-(J2-Pad11)*
X102235000Y-80645000D03*
G04 #@! TO.P,J2,10*
G04 #@! TO.N,Net-(J2-Pad10)*
X102235000Y-78105000D03*
G04 #@! TO.P,J2,9*
G04 #@! TO.N,Net-(J2-Pad9)*
X102235000Y-75565000D03*
G04 #@! TO.P,J2,8*
G04 #@! TO.N,Net-(J2-Pad8)*
X102235000Y-73025000D03*
G04 #@! TO.P,J2,7*
G04 #@! TO.N,Net-(J2-Pad7)*
X102235000Y-70485000D03*
G04 #@! TO.P,J2,6*
G04 #@! TO.N,Net-(J2-Pad6)*
X102235000Y-67945000D03*
G04 #@! TO.P,J2,5*
G04 #@! TO.N,Net-(J2-Pad5)*
X102235000Y-65405000D03*
G04 #@! TO.P,J2,4*
G04 #@! TO.N,Net-(J2-Pad4)*
X102235000Y-62865000D03*
G04 #@! TO.P,J2,3*
G04 #@! TO.N,Net-(J2-Pad3)*
X102235000Y-60325000D03*
G04 #@! TO.P,J2,2*
G04 #@! TO.N,Net-(J2-Pad2)*
X102235000Y-57785000D03*
D10*
G04 #@! TO.P,J2,1*
G04 #@! TO.N,Net-(J2-Pad1)*
X102235000Y-55245000D03*
G04 #@! TD*
D14*
G04 #@! TO.P,BAR2,20*
G04 #@! TO.N,Net-(BAR2-Pad20)*
X73660000Y-27305000D03*
G04 #@! TO.P,BAR2,19*
G04 #@! TO.N,Net-(BAR2-Pad19)*
X76200000Y-27305000D03*
G04 #@! TO.P,BAR2,18*
G04 #@! TO.N,Net-(BAR2-Pad18)*
X78740000Y-27305000D03*
G04 #@! TO.P,BAR2,17*
G04 #@! TO.N,Net-(BAR2-Pad17)*
X81280000Y-27305000D03*
G04 #@! TO.P,BAR2,9*
G04 #@! TO.N,Net-(BAR2-Pad9)*
X93980000Y-34925000D03*
G04 #@! TO.P,BAR2,10*
G04 #@! TO.N,Net-(BAR2-Pad10)*
X96520000Y-34925000D03*
G04 #@! TO.P,BAR2,11*
G04 #@! TO.N,Net-(BAR2-Pad11)*
X96520000Y-27305000D03*
G04 #@! TO.P,BAR2,12*
G04 #@! TO.N,Net-(BAR2-Pad12)*
X93980000Y-27305000D03*
G04 #@! TO.P,BAR2,8*
G04 #@! TO.N,Net-(BAR2-Pad8)*
X91440000Y-34925000D03*
G04 #@! TO.P,BAR2,7*
G04 #@! TO.N,Net-(BAR2-Pad7)*
X88900000Y-34925000D03*
G04 #@! TO.P,BAR2,6*
G04 #@! TO.N,Net-(BAR2-Pad6)*
X86360000Y-34925000D03*
G04 #@! TO.P,BAR2,5*
G04 #@! TO.N,Net-(BAR2-Pad5)*
X83820000Y-34925000D03*
G04 #@! TO.P,BAR2,16*
G04 #@! TO.N,Net-(BAR2-Pad16)*
X83820000Y-27305000D03*
G04 #@! TO.P,BAR2,15*
G04 #@! TO.N,Net-(BAR2-Pad15)*
X86360000Y-27305000D03*
G04 #@! TO.P,BAR2,14*
G04 #@! TO.N,Net-(BAR2-Pad14)*
X88900000Y-27305000D03*
G04 #@! TO.P,BAR2,13*
G04 #@! TO.N,Net-(BAR2-Pad13)*
X91440000Y-27305000D03*
G04 #@! TO.P,BAR2,4*
G04 #@! TO.N,Net-(BAR2-Pad4)*
X81280000Y-34925000D03*
G04 #@! TO.P,BAR2,3*
G04 #@! TO.N,Net-(BAR2-Pad3)*
X78740000Y-34925000D03*
G04 #@! TO.P,BAR2,2*
G04 #@! TO.N,Net-(BAR2-Pad2)*
X76200000Y-34925000D03*
D15*
G04 #@! TO.P,BAR2,1*
G04 #@! TO.N,Net-(BAR2-Pad1)*
X73660000Y-34925000D03*
G04 #@! TD*
G04 #@! TO.P,BAR1,1*
G04 #@! TO.N,Net-(BAR1-Pad1)*
X47625000Y-34925000D03*
D14*
G04 #@! TO.P,BAR1,2*
G04 #@! TO.N,Net-(BAR1-Pad2)*
X50165000Y-34925000D03*
G04 #@! TO.P,BAR1,3*
G04 #@! TO.N,Net-(BAR1-Pad3)*
X52705000Y-34925000D03*
G04 #@! TO.P,BAR1,4*
G04 #@! TO.N,Net-(BAR1-Pad4)*
X55245000Y-34925000D03*
G04 #@! TO.P,BAR1,13*
G04 #@! TO.N,Net-(BAR1-Pad13)*
X65405000Y-27305000D03*
G04 #@! TO.P,BAR1,14*
G04 #@! TO.N,Net-(BAR1-Pad14)*
X62865000Y-27305000D03*
G04 #@! TO.P,BAR1,15*
G04 #@! TO.N,Net-(BAR1-Pad15)*
X60325000Y-27305000D03*
G04 #@! TO.P,BAR1,16*
G04 #@! TO.N,Net-(BAR1-Pad16)*
X57785000Y-27305000D03*
G04 #@! TO.P,BAR1,5*
G04 #@! TO.N,Net-(BAR1-Pad5)*
X57785000Y-34925000D03*
G04 #@! TO.P,BAR1,6*
G04 #@! TO.N,Net-(BAR1-Pad6)*
X60325000Y-34925000D03*
G04 #@! TO.P,BAR1,7*
G04 #@! TO.N,Net-(BAR1-Pad7)*
X62865000Y-34925000D03*
G04 #@! TO.P,BAR1,8*
G04 #@! TO.N,Net-(BAR1-Pad8)*
X65405000Y-34925000D03*
G04 #@! TO.P,BAR1,12*
G04 #@! TO.N,Net-(BAR1-Pad12)*
X67945000Y-27305000D03*
G04 #@! TO.P,BAR1,11*
G04 #@! TO.N,Net-(BAR1-Pad11)*
X70485000Y-27305000D03*
G04 #@! TO.P,BAR1,10*
G04 #@! TO.N,Net-(BAR1-Pad10)*
X70485000Y-34925000D03*
G04 #@! TO.P,BAR1,9*
G04 #@! TO.N,Net-(BAR1-Pad9)*
X67945000Y-34925000D03*
G04 #@! TO.P,BAR1,17*
G04 #@! TO.N,Net-(BAR1-Pad17)*
X55245000Y-27305000D03*
G04 #@! TO.P,BAR1,18*
G04 #@! TO.N,Net-(BAR1-Pad18)*
X52705000Y-27305000D03*
G04 #@! TO.P,BAR1,19*
G04 #@! TO.N,Net-(BAR1-Pad19)*
X50165000Y-27305000D03*
G04 #@! TO.P,BAR1,20*
G04 #@! TO.N,Net-(BAR1-Pad20)*
X47625000Y-27305000D03*
G04 #@! TD*
D13*
G04 #@! TO.P,U1,1*
G04 #@! TO.N,DOWN_~UP*
X33655000Y-23495000D03*
D12*
G04 #@! TO.P,U1,8*
G04 #@! TO.N,PC_INC*
X41275000Y-38735000D03*
G04 #@! TO.P,U1,2*
X33655000Y-26035000D03*
G04 #@! TO.P,U1,9*
G04 #@! TO.N,PC_DEC*
X41275000Y-36195000D03*
G04 #@! TO.P,U1,3*
G04 #@! TO.N,Net-(U1-Pad3)*
X33655000Y-28575000D03*
G04 #@! TO.P,U1,10*
G04 #@! TO.N,~CLK_EN*
X41275000Y-33655000D03*
G04 #@! TO.P,U1,4*
G04 #@! TO.N,Net-(U1-Pad3)*
X33655000Y-31115000D03*
G04 #@! TO.P,U1,11*
G04 #@! TO.N,N/C*
X41275000Y-31115000D03*
G04 #@! TO.P,U1,5*
G04 #@! TO.N,DOWN_~UP*
X33655000Y-33655000D03*
G04 #@! TO.P,U1,12*
G04 #@! TO.N,N/C*
X41275000Y-28575000D03*
G04 #@! TO.P,U1,6*
G04 #@! TO.N,PC_DEC*
X33655000Y-36195000D03*
G04 #@! TO.P,U1,13*
G04 #@! TO.N,N/C*
X41275000Y-26035000D03*
G04 #@! TO.P,U1,7*
G04 #@! TO.N,GND*
X33655000Y-38735000D03*
G04 #@! TO.P,U1,14*
G04 #@! TO.N,+5V*
X41275000Y-23495000D03*
G04 #@! TD*
G04 #@! TO.P,U5,16*
G04 #@! TO.N,+5V*
X67310000Y-69850000D03*
G04 #@! TO.P,U5,8*
G04 #@! TO.N,GND*
X59690000Y-87630000D03*
G04 #@! TO.P,U5,15*
G04 #@! TO.N,DATA_BUS4*
X67310000Y-72390000D03*
G04 #@! TO.P,U5,7*
G04 #@! TO.N,Net-(BAR1-Pad3)*
X59690000Y-85090000D03*
G04 #@! TO.P,U5,14*
G04 #@! TO.N,Net-(U4-Pad13)*
X67310000Y-74930000D03*
G04 #@! TO.P,U5,6*
G04 #@! TO.N,Net-(BAR1-Pad4)*
X59690000Y-82550000D03*
G04 #@! TO.P,U5,13*
G04 #@! TO.N,Net-(U5-Pad13)*
X67310000Y-77470000D03*
G04 #@! TO.P,U5,5*
G04 #@! TO.N,DOWN_~UP*
X59690000Y-80010000D03*
G04 #@! TO.P,U5,12*
G04 #@! TO.N,Net-(U5-Pad12)*
X67310000Y-80010000D03*
G04 #@! TO.P,U5,4*
G04 #@! TO.N,~CLK_EN*
X59690000Y-77470000D03*
G04 #@! TO.P,U5,11*
G04 #@! TO.N,~PC_H_LOAD*
X67310000Y-82550000D03*
G04 #@! TO.P,U5,3*
G04 #@! TO.N,Net-(BAR1-Pad6)*
X59690000Y-74930000D03*
G04 #@! TO.P,U5,10*
G04 #@! TO.N,DATA_BUS6*
X67310000Y-85090000D03*
G04 #@! TO.P,U5,2*
G04 #@! TO.N,Net-(BAR1-Pad5)*
X59690000Y-72390000D03*
G04 #@! TO.P,U5,9*
G04 #@! TO.N,DATA_BUS7*
X67310000Y-87630000D03*
D13*
G04 #@! TO.P,U5,1*
G04 #@! TO.N,DATA_BUS5*
X59690000Y-69850000D03*
G04 #@! TD*
D12*
G04 #@! TO.P,U3,16*
G04 #@! TO.N,+5V*
X53340000Y-69850000D03*
G04 #@! TO.P,U3,8*
G04 #@! TO.N,GND*
X45720000Y-87630000D03*
G04 #@! TO.P,U3,15*
G04 #@! TO.N,DATA_BUS4*
X53340000Y-72390000D03*
G04 #@! TO.P,U3,7*
G04 #@! TO.N,Net-(BAR2-Pad1)*
X45720000Y-85090000D03*
G04 #@! TO.P,U3,14*
G04 #@! TO.N,Net-(U2-Pad13)*
X53340000Y-74930000D03*
G04 #@! TO.P,U3,6*
G04 #@! TO.N,Net-(BAR2-Pad2)*
X45720000Y-82550000D03*
G04 #@! TO.P,U3,13*
G04 #@! TO.N,Net-(U3-Pad13)*
X53340000Y-77470000D03*
G04 #@! TO.P,U3,5*
G04 #@! TO.N,DOWN_~UP*
X45720000Y-80010000D03*
G04 #@! TO.P,U3,12*
G04 #@! TO.N,Net-(U3-Pad12)*
X53340000Y-80010000D03*
G04 #@! TO.P,U3,4*
G04 #@! TO.N,~CLK_EN*
X45720000Y-77470000D03*
G04 #@! TO.P,U3,11*
G04 #@! TO.N,~PC_L_LOAD*
X53340000Y-82550000D03*
G04 #@! TO.P,U3,3*
G04 #@! TO.N,Net-(BAR2-Pad4)*
X45720000Y-74930000D03*
G04 #@! TO.P,U3,10*
G04 #@! TO.N,DATA_BUS6*
X53340000Y-85090000D03*
G04 #@! TO.P,U3,2*
G04 #@! TO.N,Net-(BAR2-Pad3)*
X45720000Y-72390000D03*
G04 #@! TO.P,U3,9*
G04 #@! TO.N,DATA_BUS7*
X53340000Y-87630000D03*
D13*
G04 #@! TO.P,U3,1*
G04 #@! TO.N,DATA_BUS5*
X45720000Y-69850000D03*
G04 #@! TD*
G04 #@! TO.P,U2,1*
G04 #@! TO.N,DATA_BUS1*
X45720000Y-41275000D03*
D12*
G04 #@! TO.P,U2,9*
G04 #@! TO.N,DATA_BUS3*
X53340000Y-59055000D03*
G04 #@! TO.P,U2,2*
G04 #@! TO.N,Net-(BAR2-Pad7)*
X45720000Y-43815000D03*
G04 #@! TO.P,U2,10*
G04 #@! TO.N,DATA_BUS2*
X53340000Y-56515000D03*
G04 #@! TO.P,U2,3*
G04 #@! TO.N,Net-(BAR2-Pad8)*
X45720000Y-46355000D03*
G04 #@! TO.P,U2,11*
G04 #@! TO.N,~PC_L_LOAD*
X53340000Y-53975000D03*
G04 #@! TO.P,U2,4*
G04 #@! TO.N,~CLK_EN*
X45720000Y-48895000D03*
G04 #@! TO.P,U2,12*
G04 #@! TO.N,Net-(U2-Pad12)*
X53340000Y-51435000D03*
G04 #@! TO.P,U2,5*
G04 #@! TO.N,DOWN_~UP*
X45720000Y-51435000D03*
G04 #@! TO.P,U2,13*
G04 #@! TO.N,Net-(U2-Pad13)*
X53340000Y-48895000D03*
G04 #@! TO.P,U2,6*
G04 #@! TO.N,Net-(BAR2-Pad6)*
X45720000Y-53975000D03*
G04 #@! TO.P,U2,14*
G04 #@! TO.N,CLOCK*
X53340000Y-46355000D03*
G04 #@! TO.P,U2,7*
G04 #@! TO.N,Net-(BAR2-Pad5)*
X45720000Y-56515000D03*
G04 #@! TO.P,U2,15*
G04 #@! TO.N,DATA_BUS0*
X53340000Y-43815000D03*
G04 #@! TO.P,U2,8*
G04 #@! TO.N,GND*
X45720000Y-59055000D03*
G04 #@! TO.P,U2,16*
G04 #@! TO.N,+5V*
X53340000Y-41275000D03*
G04 #@! TD*
G04 #@! TO.P,U7,20*
G04 #@! TO.N,+5V*
X81280000Y-70485000D03*
G04 #@! TO.P,U7,10*
G04 #@! TO.N,GND*
X73660000Y-93345000D03*
G04 #@! TO.P,U7,19*
G04 #@! TO.N,~PC_H_OUT*
X81280000Y-73025000D03*
G04 #@! TO.P,U7,9*
G04 #@! TO.N,Net-(BAR1-Pad3)*
X73660000Y-90805000D03*
G04 #@! TO.P,U7,18*
G04 #@! TO.N,DATA_BUS0*
X81280000Y-75565000D03*
G04 #@! TO.P,U7,8*
G04 #@! TO.N,Net-(BAR1-Pad4)*
X73660000Y-88265000D03*
G04 #@! TO.P,U7,17*
G04 #@! TO.N,DATA_BUS1*
X81280000Y-78105000D03*
G04 #@! TO.P,U7,7*
G04 #@! TO.N,Net-(BAR1-Pad5)*
X73660000Y-85725000D03*
G04 #@! TO.P,U7,16*
G04 #@! TO.N,DATA_BUS2*
X81280000Y-80645000D03*
G04 #@! TO.P,U7,6*
G04 #@! TO.N,Net-(BAR1-Pad6)*
X73660000Y-83185000D03*
G04 #@! TO.P,U7,15*
G04 #@! TO.N,DATA_BUS3*
X81280000Y-83185000D03*
G04 #@! TO.P,U7,5*
G04 #@! TO.N,Net-(BAR1-Pad7)*
X73660000Y-80645000D03*
G04 #@! TO.P,U7,14*
G04 #@! TO.N,DATA_BUS4*
X81280000Y-85725000D03*
G04 #@! TO.P,U7,4*
G04 #@! TO.N,Net-(BAR1-Pad8)*
X73660000Y-78105000D03*
G04 #@! TO.P,U7,13*
G04 #@! TO.N,DATA_BUS5*
X81280000Y-88265000D03*
G04 #@! TO.P,U7,3*
G04 #@! TO.N,Net-(BAR1-Pad9)*
X73660000Y-75565000D03*
G04 #@! TO.P,U7,12*
G04 #@! TO.N,DATA_BUS6*
X81280000Y-90805000D03*
G04 #@! TO.P,U7,2*
G04 #@! TO.N,Net-(BAR1-Pad10)*
X73660000Y-73025000D03*
G04 #@! TO.P,U7,11*
G04 #@! TO.N,DATA_BUS7*
X81280000Y-93345000D03*
D13*
G04 #@! TO.P,U7,1*
G04 #@! TO.N,+5V*
X73660000Y-70485000D03*
G04 #@! TD*
G04 #@! TO.P,U6,1*
G04 #@! TO.N,+5V*
X73660000Y-41275000D03*
D12*
G04 #@! TO.P,U6,11*
G04 #@! TO.N,DATA_BUS7*
X81280000Y-64135000D03*
G04 #@! TO.P,U6,2*
G04 #@! TO.N,Net-(BAR2-Pad8)*
X73660000Y-43815000D03*
G04 #@! TO.P,U6,12*
G04 #@! TO.N,DATA_BUS6*
X81280000Y-61595000D03*
G04 #@! TO.P,U6,3*
G04 #@! TO.N,Net-(BAR2-Pad7)*
X73660000Y-46355000D03*
G04 #@! TO.P,U6,13*
G04 #@! TO.N,DATA_BUS5*
X81280000Y-59055000D03*
G04 #@! TO.P,U6,4*
G04 #@! TO.N,Net-(BAR2-Pad6)*
X73660000Y-48895000D03*
G04 #@! TO.P,U6,14*
G04 #@! TO.N,DATA_BUS4*
X81280000Y-56515000D03*
G04 #@! TO.P,U6,5*
G04 #@! TO.N,Net-(BAR2-Pad5)*
X73660000Y-51435000D03*
G04 #@! TO.P,U6,15*
G04 #@! TO.N,DATA_BUS3*
X81280000Y-53975000D03*
G04 #@! TO.P,U6,6*
G04 #@! TO.N,Net-(BAR2-Pad4)*
X73660000Y-53975000D03*
G04 #@! TO.P,U6,16*
G04 #@! TO.N,DATA_BUS2*
X81280000Y-51435000D03*
G04 #@! TO.P,U6,7*
G04 #@! TO.N,Net-(BAR2-Pad3)*
X73660000Y-56515000D03*
G04 #@! TO.P,U6,17*
G04 #@! TO.N,DATA_BUS1*
X81280000Y-48895000D03*
G04 #@! TO.P,U6,8*
G04 #@! TO.N,Net-(BAR2-Pad2)*
X73660000Y-59055000D03*
G04 #@! TO.P,U6,18*
G04 #@! TO.N,DATA_BUS0*
X81280000Y-46355000D03*
G04 #@! TO.P,U6,9*
G04 #@! TO.N,Net-(BAR2-Pad1)*
X73660000Y-61595000D03*
G04 #@! TO.P,U6,19*
G04 #@! TO.N,~PC_L_OUT*
X81280000Y-43815000D03*
G04 #@! TO.P,U6,10*
G04 #@! TO.N,GND*
X73660000Y-64135000D03*
G04 #@! TO.P,U6,20*
G04 #@! TO.N,+5V*
X81280000Y-41275000D03*
G04 #@! TD*
G04 #@! TO.P,RN2,9*
G04 #@! TO.N,Net-(BAR2-Pad13)*
X91440000Y-23495000D03*
G04 #@! TO.P,RN2,8*
G04 #@! TO.N,Net-(BAR2-Pad14)*
X88900000Y-23495000D03*
G04 #@! TO.P,RN2,7*
G04 #@! TO.N,Net-(BAR2-Pad15)*
X86360000Y-23495000D03*
G04 #@! TO.P,RN2,6*
G04 #@! TO.N,Net-(BAR2-Pad16)*
X83820000Y-23495000D03*
G04 #@! TO.P,RN2,5*
G04 #@! TO.N,Net-(BAR2-Pad17)*
X81280000Y-23495000D03*
G04 #@! TO.P,RN2,4*
G04 #@! TO.N,Net-(BAR2-Pad18)*
X78740000Y-23495000D03*
G04 #@! TO.P,RN2,3*
G04 #@! TO.N,Net-(BAR2-Pad19)*
X76200000Y-23495000D03*
G04 #@! TO.P,RN2,2*
G04 #@! TO.N,Net-(BAR2-Pad20)*
X73660000Y-23495000D03*
D13*
G04 #@! TO.P,RN2,1*
G04 #@! TO.N,GND*
X71120000Y-23495000D03*
G04 #@! TD*
G04 #@! TO.P,RN1,1*
G04 #@! TO.N,GND*
X47625000Y-23495000D03*
D12*
G04 #@! TO.P,RN1,2*
G04 #@! TO.N,Net-(BAR1-Pad18)*
X50165000Y-23495000D03*
G04 #@! TO.P,RN1,3*
G04 #@! TO.N,Net-(BAR1-Pad17)*
X52705000Y-23495000D03*
G04 #@! TO.P,RN1,4*
G04 #@! TO.N,Net-(BAR1-Pad16)*
X55245000Y-23495000D03*
G04 #@! TO.P,RN1,5*
G04 #@! TO.N,Net-(BAR1-Pad15)*
X57785000Y-23495000D03*
G04 #@! TO.P,RN1,6*
G04 #@! TO.N,Net-(BAR1-Pad14)*
X60325000Y-23495000D03*
G04 #@! TO.P,RN1,7*
G04 #@! TO.N,Net-(BAR1-Pad13)*
X62865000Y-23495000D03*
G04 #@! TO.P,RN1,8*
G04 #@! TO.N,Net-(BAR1-Pad12)*
X65405000Y-23495000D03*
G04 #@! TO.P,RN1,9*
G04 #@! TO.N,Net-(BAR1-Pad11)*
X67945000Y-23495000D03*
G04 #@! TD*
D16*
G04 #@! TO.N,Net-(BAR2-Pad6)*
X75456100Y-41090700D03*
G04 #@! TO.N,Net-(BAR2-Pad2)*
X46845300Y-67867900D03*
G04 #@! TO.N,Net-(BAR2-Pad1)*
X51473900Y-68601700D03*
G04 #@! TO.N,~PC_L_OUT*
X70549400Y-59149800D03*
G04 #@! TO.N,Net-(BAR1-Pad5)*
X68572200Y-81376200D03*
G04 #@! TO.N,~CLK_EN*
X56952900Y-50645800D03*
G04 #@! TO.N,DOWN_~UP*
X56886900Y-52022400D03*
G04 #@! TO.N,Net-(U3-Pad13)*
X54944900Y-49544600D03*
G04 #@! TO.N,~PC_H_LOAD*
X67683800Y-60937300D03*
G04 #@! TD*
D17*
G04 #@! TO.N,GND*
X59690000Y-87630000D02*
X58514700Y-87630000D01*
X45720000Y-87630000D02*
X46895300Y-87630000D01*
X46895300Y-87630000D02*
X48072600Y-88807300D01*
X48072600Y-88807300D02*
X57337400Y-88807300D01*
X57337400Y-88807300D02*
X58514700Y-87630000D01*
X73660000Y-64135000D02*
X74835300Y-64135000D01*
X87630000Y-64135000D02*
X86454700Y-64135000D01*
X86454700Y-64135000D02*
X85264100Y-62944400D01*
X85264100Y-62944400D02*
X76025900Y-62944400D01*
X76025900Y-62944400D02*
X74835300Y-64135000D01*
X59690000Y-87630000D02*
X60865300Y-87630000D01*
X60865300Y-87630000D02*
X66580300Y-93345000D01*
X66580300Y-93345000D02*
X73660000Y-93345000D01*
X87630000Y-93345000D02*
X86454700Y-93345000D01*
X73660000Y-93345000D02*
X74835300Y-93345000D01*
X74835300Y-93345000D02*
X76025200Y-94534900D01*
X76025200Y-94534900D02*
X85264800Y-94534900D01*
X85264800Y-94534900D02*
X86454700Y-93345000D01*
X59690000Y-59055000D02*
X58514700Y-59055000D01*
X45720000Y-59055000D02*
X46895300Y-59055000D01*
X46895300Y-59055000D02*
X48085900Y-57864400D01*
X48085900Y-57864400D02*
X57324100Y-57864400D01*
X57324100Y-57864400D02*
X58514700Y-59055000D01*
X33655000Y-50165000D02*
X33655000Y-50930800D01*
X33187100Y-56515000D02*
X42004700Y-56515000D01*
X33655000Y-50930800D02*
X32421200Y-52164600D01*
X44544700Y-59055000D02*
X45720000Y-59055000D01*
X32421200Y-52164600D02*
X32421200Y-55749100D01*
X42004700Y-56515000D02*
X44544700Y-59055000D01*
X32421200Y-55749100D02*
X33187100Y-56515000D01*
X46449700Y-23495000D02*
X47625000Y-23495000D01*
X40099600Y-22991300D02*
X40771300Y-22319600D01*
X40099600Y-26369300D02*
X40099600Y-22991300D01*
X40771300Y-22319600D02*
X45274300Y-22319600D01*
X33655000Y-38735000D02*
X32470000Y-37550000D01*
X32470000Y-37550000D02*
X32470000Y-33163200D01*
X32470000Y-33163200D02*
X33248200Y-32385000D01*
X45274300Y-22319600D02*
X46449700Y-23495000D01*
X33248200Y-32385000D02*
X34083900Y-32385000D01*
X34083900Y-32385000D02*
X40099600Y-26369300D01*
X69944700Y-23495000D02*
X71120000Y-23495000D01*
X68769400Y-22319700D02*
X69944700Y-23495000D01*
X49608300Y-22319700D02*
X68769400Y-22319700D01*
X48433000Y-23495000D02*
X49608300Y-22319700D01*
X47625000Y-23495000D02*
X48433000Y-23495000D01*
G04 #@! TO.N,+5V*
X73660000Y-41275000D02*
X68485300Y-41275000D01*
X80104700Y-41275000D02*
X79513700Y-41866000D01*
X79513700Y-41866000D02*
X74251000Y-41866000D01*
X74251000Y-41866000D02*
X73660000Y-41275000D01*
X67310000Y-41275000D02*
X68485300Y-41275000D01*
X67310000Y-69850000D02*
X66134700Y-69850000D01*
X53340000Y-69850000D02*
X54515300Y-69850000D01*
X54515300Y-69850000D02*
X55690700Y-71025400D01*
X55690700Y-71025400D02*
X64959300Y-71025400D01*
X64959300Y-71025400D02*
X66134700Y-69850000D01*
X80104700Y-70485000D02*
X74835300Y-70485000D01*
X72484700Y-70485000D02*
X71849700Y-69850000D01*
X71849700Y-69850000D02*
X68485300Y-69850000D01*
X87630000Y-41275000D02*
X82455300Y-41275000D01*
X95250000Y-41275000D02*
X87630000Y-41275000D01*
X81280000Y-41275000D02*
X82455300Y-41275000D01*
X46111600Y-38735000D02*
X35930300Y-48916300D01*
X35930300Y-48916300D02*
X35930300Y-50429700D01*
X35930300Y-50429700D02*
X33655000Y-52705000D01*
X53340000Y-41275000D02*
X48651600Y-41275000D01*
X48651600Y-41275000D02*
X46111600Y-38735000D01*
X53927700Y-41275000D02*
X53340000Y-41275000D01*
X53927700Y-41275000D02*
X54515300Y-41275000D01*
X81280000Y-41275000D02*
X80104700Y-41275000D01*
X67310000Y-41275000D02*
X66134700Y-41275000D01*
X66134700Y-41275000D02*
X64959300Y-40099600D01*
X64959300Y-40099600D02*
X55690700Y-40099600D01*
X55690700Y-40099600D02*
X54515300Y-41275000D01*
X73660000Y-70485000D02*
X74835300Y-70485000D01*
X81280000Y-70485000D02*
X80104700Y-70485000D01*
X73660000Y-70485000D02*
X72484700Y-70485000D01*
X67310000Y-69850000D02*
X68485300Y-69850000D01*
X87042400Y-70485000D02*
X87630000Y-70485000D01*
X87042400Y-70485000D02*
X86454700Y-70485000D01*
X81280000Y-70485000D02*
X86454700Y-70485000D01*
X46111600Y-28331600D02*
X46111600Y-29972000D01*
X41275000Y-23495000D02*
X46111600Y-28331600D01*
X46111600Y-38735000D02*
X46111600Y-29972000D01*
D18*
G04 #@! TO.N,DATA_BUS7*
X67310000Y-87630000D02*
X66184700Y-87630000D01*
X53340000Y-87630000D02*
X54465300Y-87630000D01*
X54465300Y-87630000D02*
X55590600Y-86504700D01*
X55590600Y-86504700D02*
X65059400Y-86504700D01*
X65059400Y-86504700D02*
X66184700Y-87630000D01*
G04 #@! TO.N,Net-(BAR2-Pad8)*
X73660000Y-43815000D02*
X74785300Y-43815000D01*
X87630000Y-43815000D02*
X86504700Y-43815000D01*
X86504700Y-43815000D02*
X85379400Y-44940300D01*
X85379400Y-44940300D02*
X75910600Y-44940300D01*
X75910600Y-44940300D02*
X74785300Y-43815000D01*
G04 #@! TO.N,DATA_BUS6*
X67310000Y-85090000D02*
X66184700Y-85090000D01*
X53340000Y-85090000D02*
X56215800Y-85090000D01*
X56215800Y-85090000D02*
X57341100Y-83964700D01*
X57341100Y-83964700D02*
X65059400Y-83964700D01*
X65059400Y-83964700D02*
X66184700Y-85090000D01*
X81280000Y-90805000D02*
X80154700Y-90805000D01*
X67310000Y-85090000D02*
X68435300Y-85090000D01*
X68435300Y-85090000D02*
X73025000Y-89679700D01*
X73025000Y-89679700D02*
X79029400Y-89679700D01*
X79029400Y-89679700D02*
X80154700Y-90805000D01*
G04 #@! TO.N,Net-(BAR2-Pad7)*
X45720000Y-43815000D02*
X46845300Y-43815000D01*
X46845300Y-43815000D02*
X47970600Y-44940300D01*
X47970600Y-44940300D02*
X67985000Y-44940300D01*
X67985000Y-44940300D02*
X69399700Y-46355000D01*
X69399700Y-46355000D02*
X73660000Y-46355000D01*
X73660000Y-46355000D02*
X74785300Y-46355000D01*
X87630000Y-46355000D02*
X86504700Y-46355000D01*
X86504700Y-46355000D02*
X85379400Y-47480300D01*
X85379400Y-47480300D02*
X75910600Y-47480300D01*
X75910600Y-47480300D02*
X74785300Y-46355000D01*
G04 #@! TO.N,DATA_BUS5*
X50326200Y-69217100D02*
X50326200Y-68723500D01*
X50326200Y-68723500D02*
X51339700Y-67710000D01*
X51339700Y-67710000D02*
X65009700Y-67710000D01*
X65009700Y-67710000D02*
X72250100Y-60469600D01*
X72250100Y-60469600D02*
X74007600Y-60469600D01*
X74007600Y-60469600D02*
X75422200Y-59055000D01*
X75422200Y-59055000D02*
X81280000Y-59055000D01*
X50326200Y-69217100D02*
X50436100Y-69327000D01*
X50436100Y-69327000D02*
X51774400Y-69327000D01*
X51774400Y-69327000D02*
X52376700Y-68724700D01*
X52376700Y-68724700D02*
X57439400Y-68724700D01*
X57439400Y-68724700D02*
X58564700Y-69850000D01*
X59127400Y-69850000D02*
X59690000Y-69850000D01*
X59127400Y-69850000D02*
X58564700Y-69850000D01*
X49693300Y-69850000D02*
X50326200Y-69217100D01*
X45720000Y-69850000D02*
X49693300Y-69850000D01*
G04 #@! TO.N,Net-(BAR2-Pad6)*
X86360000Y-34925000D02*
X85018600Y-36266400D01*
X85018600Y-36266400D02*
X80280400Y-36266400D01*
X80280400Y-36266400D02*
X75456100Y-41090700D01*
G04 #@! TO.N,DATA_BUS4*
X67310000Y-72390000D02*
X66184700Y-72390000D01*
X53340000Y-72390000D02*
X54465300Y-72390000D01*
X54465300Y-72390000D02*
X55590600Y-73515300D01*
X55590600Y-73515300D02*
X65059400Y-73515300D01*
X65059400Y-73515300D02*
X66184700Y-72390000D01*
G04 #@! TO.N,Net-(BAR2-Pad5)*
X73660000Y-51435000D02*
X72534700Y-51435000D01*
X73660000Y-51435000D02*
X74785300Y-51435000D01*
X87630000Y-51435000D02*
X86504700Y-51435000D01*
X86504700Y-51435000D02*
X85379400Y-50309700D01*
X85379400Y-50309700D02*
X75910600Y-50309700D01*
X75910600Y-50309700D02*
X74785300Y-51435000D01*
X45720000Y-56515000D02*
X46845300Y-56515000D01*
X72534700Y-51435000D02*
X71221900Y-52747800D01*
X71221900Y-52747800D02*
X57102500Y-52747800D01*
X57102500Y-52747800D02*
X54460600Y-55389700D01*
X54460600Y-55389700D02*
X47970600Y-55389700D01*
X47970600Y-55389700D02*
X46845300Y-56515000D01*
G04 #@! TO.N,DATA_BUS3*
X67310000Y-59055000D02*
X66184700Y-59055000D01*
X53340000Y-59055000D02*
X54465300Y-59055000D01*
X54465300Y-59055000D02*
X55590600Y-60180300D01*
X55590600Y-60180300D02*
X65059400Y-60180300D01*
X65059400Y-60180300D02*
X66184700Y-59055000D01*
X81280000Y-83185000D02*
X85867800Y-83185000D01*
X85867800Y-83185000D02*
X87282400Y-84599600D01*
X87282400Y-84599600D02*
X88099000Y-84599600D01*
X88099000Y-84599600D02*
X88818200Y-85318800D01*
X88818200Y-85318800D02*
X88818200Y-93798600D01*
X88818200Y-93798600D02*
X87542200Y-95074600D01*
X87542200Y-95074600D02*
X50021100Y-95074600D01*
X50021100Y-95074600D02*
X38131500Y-83185000D01*
X38131500Y-83185000D02*
X33655000Y-83185000D01*
X52777400Y-59055000D02*
X53340000Y-59055000D01*
X52214700Y-59055000D02*
X52777400Y-59055000D01*
X38935400Y-60180300D02*
X51089400Y-60180300D01*
X34980700Y-64135000D02*
X38935400Y-60180300D01*
X51089400Y-60180300D02*
X52214700Y-59055000D01*
X34834500Y-76049700D02*
X34834500Y-72445100D01*
X34834500Y-72445100D02*
X34144400Y-71755000D01*
X32479700Y-77575600D02*
X33220300Y-76835000D01*
X33220300Y-76835000D02*
X34049200Y-76835000D01*
X32479700Y-82009700D02*
X32479700Y-77575600D01*
X34144400Y-71755000D02*
X33262500Y-71755000D01*
X32453200Y-70945700D02*
X32453200Y-64942900D01*
X32453200Y-64942900D02*
X33261100Y-64135000D01*
X33261100Y-64135000D02*
X34980700Y-64135000D01*
X33655000Y-83185000D02*
X32479700Y-82009700D01*
X34049200Y-76835000D02*
X34834500Y-76049700D01*
X33262500Y-71755000D02*
X32453200Y-70945700D01*
G04 #@! TO.N,Net-(BAR2-Pad4)*
X73660000Y-53975000D02*
X74785300Y-53975000D01*
X86504700Y-53975000D02*
X85379400Y-52849700D01*
X85379400Y-52849700D02*
X75910600Y-52849700D01*
X75910600Y-52849700D02*
X74785300Y-53975000D01*
X87630000Y-53975000D02*
X86504700Y-53975000D01*
X44132600Y-68656400D02*
X44132600Y-73342600D01*
X73660000Y-53975000D02*
X71445200Y-56189800D01*
X71445200Y-56189800D02*
X71445200Y-59279800D01*
X44132600Y-73342600D02*
X45720000Y-74930000D01*
X71445200Y-59279800D02*
X67968500Y-62756500D01*
X67968500Y-62756500D02*
X50032500Y-62756500D01*
X50032500Y-62756500D02*
X44132600Y-68656400D01*
G04 #@! TO.N,DATA_BUS2*
X67310000Y-56515000D02*
X68584700Y-56515000D01*
X68584700Y-56515000D02*
X72250100Y-52849600D01*
X72250100Y-52849600D02*
X74007600Y-52849600D01*
X74007600Y-52849600D02*
X75422200Y-51435000D01*
X75422200Y-51435000D02*
X81280000Y-51435000D01*
X66747400Y-56515000D02*
X67310000Y-56515000D01*
X66747400Y-56515000D02*
X66184700Y-56515000D01*
X53340000Y-56515000D02*
X54465300Y-56515000D01*
X54465300Y-56515000D02*
X55590600Y-55389700D01*
X55590600Y-55389700D02*
X65059400Y-55389700D01*
X65059400Y-55389700D02*
X66184700Y-56515000D01*
G04 #@! TO.N,Net-(BAR2-Pad3)*
X73660000Y-56515000D02*
X74785300Y-56515000D01*
X87630000Y-56515000D02*
X86504700Y-56515000D01*
X86504700Y-56515000D02*
X85379400Y-55389700D01*
X85379400Y-55389700D02*
X75910600Y-55389700D01*
X75910600Y-55389700D02*
X74785300Y-56515000D01*
X44594700Y-68844600D02*
X44594700Y-71264700D01*
X73660000Y-56515000D02*
X71895600Y-58279400D01*
X71895600Y-59493800D02*
X64977300Y-66412100D01*
X47027200Y-66412100D02*
X44594700Y-68844600D01*
X71895600Y-58279400D02*
X71895600Y-59493800D01*
X44594700Y-71264700D02*
X45720000Y-72390000D01*
X64977300Y-66412100D02*
X47027200Y-66412100D01*
G04 #@! TO.N,DATA_BUS1*
X59690000Y-41275000D02*
X65284500Y-41275000D01*
X65284500Y-41275000D02*
X66409900Y-42400400D01*
X66409900Y-42400400D02*
X87853200Y-42400400D01*
X87853200Y-42400400D02*
X88763800Y-43311000D01*
X88763800Y-43311000D02*
X88763800Y-46848300D01*
X88763800Y-46848300D02*
X87987100Y-47625000D01*
X87987100Y-47625000D02*
X86810300Y-47625000D01*
X86810300Y-47625000D02*
X85540300Y-48895000D01*
X85540300Y-48895000D02*
X81280000Y-48895000D01*
X46845300Y-41275000D02*
X47978500Y-42408200D01*
X47978500Y-42408200D02*
X54089800Y-42408200D01*
X54089800Y-42408200D02*
X55223000Y-41275000D01*
X55223000Y-41275000D02*
X59690000Y-41275000D01*
X45720000Y-41275000D02*
X46845300Y-41275000D01*
X81280000Y-78105000D02*
X76458900Y-78105000D01*
X76458900Y-78105000D02*
X75228700Y-79335200D01*
X75228700Y-79335200D02*
X69576300Y-79335200D01*
X69576300Y-79335200D02*
X67551100Y-81360400D01*
X67551100Y-81360400D02*
X58747700Y-81360400D01*
X58747700Y-81360400D02*
X56398100Y-83710000D01*
X56398100Y-83710000D02*
X42642600Y-83710000D01*
X42642600Y-83710000D02*
X37037600Y-78105000D01*
X37037600Y-78105000D02*
X33655000Y-78105000D01*
G04 #@! TO.N,Net-(BAR2-Pad2)*
X87630000Y-59055000D02*
X86504700Y-59055000D01*
X73660000Y-59055000D02*
X74785300Y-59055000D01*
X74785300Y-59055000D02*
X75910600Y-57929700D01*
X75910600Y-57929700D02*
X85379400Y-57929700D01*
X85379400Y-57929700D02*
X86504700Y-59055000D01*
X64766700Y-67259600D02*
X47453600Y-67259600D01*
X72171301Y-59854999D02*
X64766700Y-67259600D01*
X72860001Y-59854999D02*
X72171301Y-59854999D01*
X47453600Y-67259600D02*
X46845300Y-67867900D01*
X73660000Y-59055000D02*
X72860001Y-59854999D01*
G04 #@! TO.N,DATA_BUS0*
X67310000Y-43815000D02*
X68435300Y-43815000D01*
X68435300Y-43815000D02*
X69560600Y-44940300D01*
X69560600Y-44940300D02*
X74007500Y-44940300D01*
X74007500Y-44940300D02*
X75422200Y-46355000D01*
X75422200Y-46355000D02*
X81280000Y-46355000D01*
X66747400Y-43815000D02*
X67310000Y-43815000D01*
X53340000Y-43815000D02*
X54465300Y-43815000D01*
X66747400Y-43815000D02*
X66184700Y-43815000D01*
X54465300Y-43815000D02*
X55590600Y-42689700D01*
X55590600Y-42689700D02*
X65059400Y-42689700D01*
X65059400Y-42689700D02*
X66184700Y-43815000D01*
G04 #@! TO.N,Net-(BAR2-Pad1)*
X51473900Y-68601700D02*
X51801200Y-68274400D01*
X51801200Y-68274400D02*
X65855300Y-68274400D01*
X65855300Y-68274400D02*
X72534700Y-61595000D01*
X73660000Y-61595000D02*
X72534700Y-61595000D01*
X87630000Y-61595000D02*
X86504700Y-61595000D01*
X73660000Y-61595000D02*
X74785300Y-61595000D01*
X74785300Y-61595000D02*
X75910600Y-60469700D01*
X75910600Y-60469700D02*
X85379400Y-60469700D01*
X85379400Y-60469700D02*
X86504700Y-61595000D01*
G04 #@! TO.N,~PC_L_OUT*
X33655000Y-67945000D02*
X34830300Y-67945000D01*
X70549400Y-59149800D02*
X67530100Y-62169100D01*
X67530100Y-62169100D02*
X40606200Y-62169100D01*
X40606200Y-62169100D02*
X34830300Y-67945000D01*
G04 #@! TO.N,~PC_H_OUT*
X33655000Y-70485000D02*
X34830300Y-70485000D01*
X81280000Y-73025000D02*
X76195300Y-73025000D01*
X76195300Y-73025000D02*
X74925300Y-74295000D01*
X74925300Y-74295000D02*
X71210700Y-74295000D01*
X71210700Y-74295000D02*
X69448900Y-76056800D01*
X69448900Y-76056800D02*
X40402100Y-76056800D01*
X40402100Y-76056800D02*
X34830300Y-70485000D01*
G04 #@! TO.N,Net-(BAR1-Pad3)*
X87630000Y-90805000D02*
X86504700Y-90805000D01*
X73660000Y-90805000D02*
X74785300Y-90805000D01*
X74785300Y-90805000D02*
X75910600Y-91930300D01*
X75910600Y-91930300D02*
X85379400Y-91930300D01*
X85379400Y-91930300D02*
X86504700Y-90805000D01*
G04 #@! TO.N,Net-(BAR1-Pad4)*
X87630000Y-88265000D02*
X86504700Y-88265000D01*
X73660000Y-88265000D02*
X74785300Y-88265000D01*
X74785300Y-88265000D02*
X75910600Y-87139700D01*
X75910600Y-87139700D02*
X85379400Y-87139700D01*
X85379400Y-87139700D02*
X86504700Y-88265000D01*
G04 #@! TO.N,Net-(BAR1-Pad5)*
X86504700Y-85725000D02*
X85379400Y-84599700D01*
X85379400Y-84599700D02*
X75910600Y-84599700D01*
X75910600Y-84599700D02*
X74785300Y-85725000D01*
X87630000Y-85725000D02*
X86504700Y-85725000D01*
X73660000Y-85725000D02*
X74785300Y-85725000D01*
X69311200Y-81376200D02*
X68572200Y-81376200D01*
X73660000Y-85725000D02*
X69311200Y-81376200D01*
G04 #@! TO.N,Net-(BAR1-Pad6)*
X74785300Y-83185000D02*
X73660000Y-83185000D01*
X86504700Y-82059700D02*
X75910600Y-82059700D01*
X75910600Y-82059700D02*
X74785300Y-83185000D01*
X87630000Y-83185000D02*
X86504700Y-82059700D01*
G04 #@! TO.N,Net-(BAR1-Pad7)*
X86504700Y-80645000D02*
X85379400Y-79519700D01*
X85379400Y-79519700D02*
X75910600Y-79519700D01*
X75910600Y-79519700D02*
X74785300Y-80645000D01*
X87630000Y-80645000D02*
X86504700Y-80645000D01*
X73660000Y-80645000D02*
X74785300Y-80645000D01*
G04 #@! TO.N,Net-(BAR1-Pad8)*
X87630000Y-78105000D02*
X86504700Y-78105000D01*
X73660000Y-78105000D02*
X74785300Y-78105000D01*
X74785300Y-78105000D02*
X75910600Y-76979700D01*
X75910600Y-76979700D02*
X85379400Y-76979700D01*
X85379400Y-76979700D02*
X86504700Y-78105000D01*
G04 #@! TO.N,Net-(BAR1-Pad9)*
X86504700Y-75565000D02*
X85344100Y-74404400D01*
X85344100Y-74404400D02*
X75945900Y-74404400D01*
X75945900Y-74404400D02*
X74785300Y-75565000D01*
X87630000Y-75565000D02*
X86504700Y-75565000D01*
X73660000Y-75565000D02*
X74785300Y-75565000D01*
G04 #@! TO.N,Net-(BAR1-Pad10)*
X87630000Y-73025000D02*
X86504700Y-73025000D01*
X73660000Y-73025000D02*
X74785300Y-73025000D01*
X74785300Y-73025000D02*
X75910600Y-71899700D01*
X75910600Y-71899700D02*
X85379400Y-71899700D01*
X85379400Y-71899700D02*
X86504700Y-73025000D01*
G04 #@! TO.N,~CLK_EN*
X45720000Y-48895000D02*
X46845300Y-48895000D01*
X46845300Y-48895000D02*
X47970600Y-50020300D01*
X47970600Y-50020300D02*
X53725500Y-50020300D01*
X53725500Y-50020300D02*
X54351000Y-50645800D01*
X54351000Y-50645800D02*
X56952900Y-50645800D01*
X59690000Y-77470000D02*
X58564700Y-77470000D01*
X45720000Y-77470000D02*
X46845300Y-77470000D01*
X46845300Y-77470000D02*
X47970600Y-78595300D01*
X47970600Y-78595300D02*
X57439400Y-78595300D01*
X57439400Y-78595300D02*
X58564700Y-77470000D01*
X57939200Y-50645800D02*
X56952900Y-50645800D01*
X59690000Y-48895000D02*
X57939200Y-50645800D01*
G04 #@! TO.N,DOWN_~UP*
X45720000Y-51435000D02*
X46845300Y-51435000D01*
X56886900Y-52022400D02*
X56349000Y-52560300D01*
X56349000Y-52560300D02*
X47970600Y-52560300D01*
X47970600Y-52560300D02*
X46845300Y-51435000D01*
X58564700Y-51435000D02*
X57977300Y-52022400D01*
X57977300Y-52022400D02*
X56886900Y-52022400D01*
X59690000Y-51435000D02*
X58564700Y-51435000D01*
X59690000Y-80010000D02*
X58564700Y-80010000D01*
X45720000Y-80010000D02*
X46845300Y-80010000D01*
X46845300Y-80010000D02*
X47970600Y-81135300D01*
X47970600Y-81135300D02*
X57439400Y-81135300D01*
X57439400Y-81135300D02*
X58564700Y-80010000D01*
G04 #@! TO.N,CLOCK*
X33655000Y-55245000D02*
X34830300Y-55245000D01*
X53340000Y-46355000D02*
X52214700Y-46355000D01*
X52214700Y-46355000D02*
X51089400Y-47480300D01*
X51089400Y-47480300D02*
X42595000Y-47480300D01*
X42595000Y-47480300D02*
X34830300Y-55245000D01*
G04 #@! TO.N,Net-(U3-Pad13)*
X67310000Y-46355000D02*
X66184700Y-46355000D01*
X54944900Y-49544600D02*
X57009200Y-47480300D01*
X57009200Y-47480300D02*
X65059400Y-47480300D01*
X65059400Y-47480300D02*
X66184700Y-46355000D01*
G04 #@! TO.N,~PC_H_LOAD*
X34830300Y-65405000D02*
X39298000Y-60937300D01*
X39298000Y-60937300D02*
X67683800Y-60937300D01*
X33655000Y-65405000D02*
X34830300Y-65405000D01*
G04 #@! TO.N,PC_INC*
X41275000Y-38735000D02*
X41275000Y-39860300D01*
X41275000Y-39860300D02*
X31920800Y-49214500D01*
X31920800Y-49214500D02*
X31920800Y-56050800D01*
X31920800Y-56050800D02*
X33655000Y-57785000D01*
G04 #@! TO.N,PC_DEC*
X33655000Y-36195000D02*
X41275000Y-36195000D01*
G04 #@! TO.N,~PC_MAR_OUT*
X94124700Y-71899700D02*
X95250000Y-73025000D01*
X94124700Y-44940300D02*
X94124700Y-71899700D01*
X95250000Y-43815000D02*
X94124700Y-44940300D01*
X94124700Y-74150300D02*
X95250000Y-73025000D01*
X94124700Y-89129000D02*
X94124700Y-74150300D01*
X36184900Y-84455000D02*
X47260900Y-95531000D01*
X33655000Y-73025000D02*
X32029400Y-74650600D01*
X32029400Y-74650600D02*
X32029400Y-83310100D01*
X32029400Y-83310100D02*
X33174300Y-84455000D01*
X87722700Y-95531000D02*
X94124700Y-89129000D01*
X47260900Y-95531000D02*
X87722700Y-95531000D01*
X33174300Y-84455000D02*
X36184900Y-84455000D01*
G04 #@! TO.N,Net-(J2-Pad9)*
X102235000Y-75565000D02*
X95885000Y-75565000D01*
X95250000Y-75565000D02*
X102235000Y-75565000D01*
G04 #@! TO.N,Net-(J2-Pad10)*
X102235000Y-78105000D02*
X95885000Y-78105000D01*
X102235000Y-78105000D02*
X95250000Y-78105000D01*
G04 #@! TO.N,Net-(J2-Pad11)*
X102235000Y-80645000D02*
X95885000Y-80645000D01*
X95250000Y-80645000D02*
X102235000Y-80645000D01*
G04 #@! TO.N,Net-(J2-Pad12)*
X102235000Y-83185000D02*
X95885000Y-83185000D01*
X95250000Y-83185000D02*
X102235000Y-83185000D01*
G04 #@! TO.N,Net-(J2-Pad13)*
X102235000Y-85725000D02*
X95885000Y-85725000D01*
G04 #@! TO.N,Net-(J2-Pad14)*
X102235000Y-88265000D02*
X95885000Y-88265000D01*
X95250000Y-88265000D02*
X102235000Y-88265000D01*
G04 #@! TO.N,Net-(J2-Pad15)*
X102235000Y-90805000D02*
X95885000Y-90805000D01*
X102235000Y-90805000D02*
X95250000Y-90805000D01*
G04 #@! TO.N,Net-(J2-Pad16)*
X102235000Y-93345000D02*
X95885000Y-93345000D01*
X95250000Y-93345000D02*
X102235000Y-93345000D01*
G04 #@! TD*
D19*
G04 #@! TO.N,GND*
G36*
X107875001Y-98985000D02*
X28015000Y-98985000D01*
X28015000Y-49214500D01*
X31145912Y-49214500D01*
X31160800Y-49289347D01*
X31160801Y-55975948D01*
X31145912Y-56050800D01*
X31204897Y-56347337D01*
X31316927Y-56515001D01*
X31372872Y-56598729D01*
X31436328Y-56641129D01*
X32213791Y-57418592D01*
X32140908Y-57785000D01*
X32256161Y-58364418D01*
X32584375Y-58855625D01*
X32882761Y-59055000D01*
X32584375Y-59254375D01*
X32256161Y-59745582D01*
X32140908Y-60325000D01*
X32256161Y-60904418D01*
X32584375Y-61395625D01*
X32882761Y-61595000D01*
X32584375Y-61794375D01*
X32256161Y-62285582D01*
X32140908Y-62865000D01*
X32256161Y-63444418D01*
X32504786Y-63816512D01*
X31968728Y-64352571D01*
X31905272Y-64394971D01*
X31862872Y-64458427D01*
X31862871Y-64458428D01*
X31737297Y-64646363D01*
X31678312Y-64942900D01*
X31693201Y-65017752D01*
X31693200Y-70870853D01*
X31678312Y-70945700D01*
X31693200Y-71020547D01*
X31693200Y-71020551D01*
X31737296Y-71242236D01*
X31905271Y-71493629D01*
X31968730Y-71536031D01*
X32505347Y-72072649D01*
X32256161Y-72445582D01*
X32140908Y-73025000D01*
X32213791Y-73391408D01*
X31544930Y-74060269D01*
X31481471Y-74102671D01*
X31313496Y-74354064D01*
X31269400Y-74575749D01*
X31269400Y-74575753D01*
X31254512Y-74650600D01*
X31269400Y-74725447D01*
X31269401Y-83235248D01*
X31254512Y-83310100D01*
X31313497Y-83606637D01*
X31426214Y-83775329D01*
X31481472Y-83858029D01*
X31544928Y-83900429D01*
X32470019Y-84825521D01*
X32256161Y-85145582D01*
X32140908Y-85725000D01*
X32256161Y-86304418D01*
X32584375Y-86795625D01*
X32882761Y-86995000D01*
X32584375Y-87194375D01*
X32256161Y-87685582D01*
X32140908Y-88265000D01*
X32256161Y-88844418D01*
X32584375Y-89335625D01*
X32882761Y-89535000D01*
X32584375Y-89734375D01*
X32256161Y-90225582D01*
X32140908Y-90805000D01*
X32256161Y-91384418D01*
X32584375Y-91875625D01*
X32882761Y-92075000D01*
X32584375Y-92274375D01*
X32256161Y-92765582D01*
X32140908Y-93345000D01*
X32256161Y-93924418D01*
X32584375Y-94415625D01*
X33075582Y-94743839D01*
X33508744Y-94830000D01*
X33801256Y-94830000D01*
X34234418Y-94743839D01*
X34725625Y-94415625D01*
X35053839Y-93924418D01*
X35169092Y-93345000D01*
X35053839Y-92765582D01*
X34725625Y-92274375D01*
X34427239Y-92075000D01*
X34725625Y-91875625D01*
X35053839Y-91384418D01*
X35169092Y-90805000D01*
X35053839Y-90225582D01*
X34725625Y-89734375D01*
X34427239Y-89535000D01*
X34725625Y-89335625D01*
X35053839Y-88844418D01*
X35169092Y-88265000D01*
X35053839Y-87685582D01*
X34725625Y-87194375D01*
X34427239Y-86995000D01*
X34725625Y-86795625D01*
X35053839Y-86304418D01*
X35169092Y-85725000D01*
X35067647Y-85215000D01*
X35870099Y-85215000D01*
X46670573Y-96015476D01*
X46712971Y-96078929D01*
X46776424Y-96121327D01*
X46776426Y-96121329D01*
X46901802Y-96205102D01*
X46964363Y-96246904D01*
X47186048Y-96291000D01*
X47186052Y-96291000D01*
X47260899Y-96305888D01*
X47335746Y-96291000D01*
X87647853Y-96291000D01*
X87722700Y-96305888D01*
X87797547Y-96291000D01*
X87797552Y-96291000D01*
X88019237Y-96246904D01*
X88270629Y-96078929D01*
X88313031Y-96015470D01*
X93852286Y-90476215D01*
X93786887Y-90805000D01*
X93898260Y-91364909D01*
X94215423Y-91839577D01*
X94567758Y-92075000D01*
X94215423Y-92310423D01*
X93898260Y-92785091D01*
X93786887Y-93345000D01*
X93898260Y-93904909D01*
X94215423Y-94379577D01*
X94690091Y-94696740D01*
X95108667Y-94780000D01*
X95391333Y-94780000D01*
X95809909Y-94696740D01*
X96284577Y-94379577D01*
X96468043Y-94105000D01*
X100956822Y-94105000D01*
X101164375Y-94415625D01*
X101655582Y-94743839D01*
X102088744Y-94830000D01*
X102381256Y-94830000D01*
X102814418Y-94743839D01*
X103305625Y-94415625D01*
X103633839Y-93924418D01*
X103749092Y-93345000D01*
X103633839Y-92765582D01*
X103305625Y-92274375D01*
X103007239Y-92075000D01*
X103305625Y-91875625D01*
X103633839Y-91384418D01*
X103749092Y-90805000D01*
X103633839Y-90225582D01*
X103305625Y-89734375D01*
X103007239Y-89535000D01*
X103305625Y-89335625D01*
X103633839Y-88844418D01*
X103749092Y-88265000D01*
X103633839Y-87685582D01*
X103305625Y-87194375D01*
X103007239Y-86995000D01*
X103305625Y-86795625D01*
X103633839Y-86304418D01*
X103749092Y-85725000D01*
X103633839Y-85145582D01*
X103305625Y-84654375D01*
X103007239Y-84455000D01*
X103305625Y-84255625D01*
X103633839Y-83764418D01*
X103749092Y-83185000D01*
X103633839Y-82605582D01*
X103305625Y-82114375D01*
X103007239Y-81915000D01*
X103305625Y-81715625D01*
X103633839Y-81224418D01*
X103749092Y-80645000D01*
X103633839Y-80065582D01*
X103305625Y-79574375D01*
X103007239Y-79375000D01*
X103305625Y-79175625D01*
X103633839Y-78684418D01*
X103749092Y-78105000D01*
X103633839Y-77525582D01*
X103305625Y-77034375D01*
X103007239Y-76835000D01*
X103305625Y-76635625D01*
X103633839Y-76144418D01*
X103749092Y-75565000D01*
X103633839Y-74985582D01*
X103305625Y-74494375D01*
X103007239Y-74295000D01*
X103305625Y-74095625D01*
X103633839Y-73604418D01*
X103749092Y-73025000D01*
X103633839Y-72445582D01*
X103305625Y-71954375D01*
X103007239Y-71755000D01*
X103305625Y-71555625D01*
X103633839Y-71064418D01*
X103749092Y-70485000D01*
X103633839Y-69905582D01*
X103305625Y-69414375D01*
X103007239Y-69215000D01*
X103305625Y-69015625D01*
X103633839Y-68524418D01*
X103749092Y-67945000D01*
X103633839Y-67365582D01*
X103305625Y-66874375D01*
X103007239Y-66675000D01*
X103305625Y-66475625D01*
X103633839Y-65984418D01*
X103749092Y-65405000D01*
X103633839Y-64825582D01*
X103305625Y-64334375D01*
X103007239Y-64135000D01*
X103305625Y-63935625D01*
X103633839Y-63444418D01*
X103749092Y-62865000D01*
X103633839Y-62285582D01*
X103305625Y-61794375D01*
X103007239Y-61595000D01*
X103305625Y-61395625D01*
X103633839Y-60904418D01*
X103749092Y-60325000D01*
X103633839Y-59745582D01*
X103305625Y-59254375D01*
X103007239Y-59055000D01*
X103305625Y-58855625D01*
X103633839Y-58364418D01*
X103749092Y-57785000D01*
X103633839Y-57205582D01*
X103305625Y-56714375D01*
X103287381Y-56702184D01*
X103332765Y-56693157D01*
X103542809Y-56552809D01*
X103683157Y-56342765D01*
X103732440Y-56095000D01*
X103732440Y-54395000D01*
X103683157Y-54147235D01*
X103542809Y-53937191D01*
X103332765Y-53796843D01*
X103085000Y-53747560D01*
X101385000Y-53747560D01*
X101137235Y-53796843D01*
X100927191Y-53937191D01*
X100786843Y-54147235D01*
X100737560Y-54395000D01*
X100737560Y-56095000D01*
X100786843Y-56342765D01*
X100927191Y-56552809D01*
X101137235Y-56693157D01*
X101182619Y-56702184D01*
X101164375Y-56714375D01*
X100836161Y-57205582D01*
X100720908Y-57785000D01*
X100836161Y-58364418D01*
X101164375Y-58855625D01*
X101462761Y-59055000D01*
X101164375Y-59254375D01*
X100836161Y-59745582D01*
X100720908Y-60325000D01*
X100836161Y-60904418D01*
X101164375Y-61395625D01*
X101462761Y-61595000D01*
X101164375Y-61794375D01*
X100836161Y-62285582D01*
X100720908Y-62865000D01*
X100836161Y-63444418D01*
X101164375Y-63935625D01*
X101462761Y-64135000D01*
X101164375Y-64334375D01*
X100836161Y-64825582D01*
X100720908Y-65405000D01*
X100836161Y-65984418D01*
X101164375Y-66475625D01*
X101462761Y-66675000D01*
X101164375Y-66874375D01*
X100836161Y-67365582D01*
X100720908Y-67945000D01*
X100836161Y-68524418D01*
X101164375Y-69015625D01*
X101462761Y-69215000D01*
X101164375Y-69414375D01*
X100836161Y-69905582D01*
X100720908Y-70485000D01*
X100836161Y-71064418D01*
X101164375Y-71555625D01*
X101462761Y-71755000D01*
X101164375Y-71954375D01*
X100836161Y-72445582D01*
X100720908Y-73025000D01*
X100836161Y-73604418D01*
X101164375Y-74095625D01*
X101462761Y-74295000D01*
X101164375Y-74494375D01*
X100956822Y-74805000D01*
X96468043Y-74805000D01*
X96284577Y-74530423D01*
X95932242Y-74295000D01*
X96284577Y-74059577D01*
X96601740Y-73584909D01*
X96713113Y-73025000D01*
X96601740Y-72465091D01*
X96284577Y-71990423D01*
X95932242Y-71755000D01*
X96284577Y-71519577D01*
X96601740Y-71044909D01*
X96713113Y-70485000D01*
X96601740Y-69925091D01*
X96284577Y-69450423D01*
X95809909Y-69133260D01*
X95391333Y-69050000D01*
X95108667Y-69050000D01*
X94884700Y-69094550D01*
X94884700Y-65525450D01*
X95108667Y-65570000D01*
X95391333Y-65570000D01*
X95809909Y-65486740D01*
X96284577Y-65169577D01*
X96601740Y-64694909D01*
X96713113Y-64135000D01*
X96601740Y-63575091D01*
X96284577Y-63100423D01*
X95932242Y-62865000D01*
X96284577Y-62629577D01*
X96601740Y-62154909D01*
X96713113Y-61595000D01*
X96601740Y-61035091D01*
X96284577Y-60560423D01*
X95932242Y-60325000D01*
X96284577Y-60089577D01*
X96601740Y-59614909D01*
X96713113Y-59055000D01*
X96601740Y-58495091D01*
X96284577Y-58020423D01*
X95932242Y-57785000D01*
X96284577Y-57549577D01*
X96601740Y-57074909D01*
X96713113Y-56515000D01*
X96601740Y-55955091D01*
X96284577Y-55480423D01*
X95932242Y-55245000D01*
X96284577Y-55009577D01*
X96601740Y-54534909D01*
X96713113Y-53975000D01*
X96601740Y-53415091D01*
X96284577Y-52940423D01*
X95932242Y-52705000D01*
X96284577Y-52469577D01*
X96601740Y-51994909D01*
X96713113Y-51435000D01*
X96601740Y-50875091D01*
X96284577Y-50400423D01*
X95932242Y-50165000D01*
X96284577Y-49929577D01*
X96601740Y-49454909D01*
X96713113Y-48895000D01*
X96601740Y-48335091D01*
X96284577Y-47860423D01*
X95932242Y-47625000D01*
X96284577Y-47389577D01*
X96601740Y-46914909D01*
X96713113Y-46355000D01*
X96601740Y-45795091D01*
X96284577Y-45320423D01*
X95932242Y-45085000D01*
X96284577Y-44849577D01*
X96601740Y-44374909D01*
X96713113Y-43815000D01*
X96601740Y-43255091D01*
X96284577Y-42780423D01*
X95932242Y-42545000D01*
X96284577Y-42309577D01*
X96601740Y-41834909D01*
X96713113Y-41275000D01*
X96601740Y-40715091D01*
X96284577Y-40240423D01*
X95809909Y-39923260D01*
X95391333Y-39840000D01*
X95108667Y-39840000D01*
X94690091Y-39923260D01*
X94215423Y-40240423D01*
X94065365Y-40465000D01*
X89075451Y-40465000D01*
X89028157Y-40227235D01*
X88887809Y-40017191D01*
X88677765Y-39876843D01*
X88430000Y-39827560D01*
X86830000Y-39827560D01*
X86582235Y-39876843D01*
X86372191Y-40017191D01*
X86231843Y-40227235D01*
X86184549Y-40465000D01*
X82464635Y-40465000D01*
X82314577Y-40240423D01*
X81839909Y-39923260D01*
X81421333Y-39840000D01*
X81138667Y-39840000D01*
X80720091Y-39923260D01*
X80245423Y-40240423D01*
X80105819Y-40449355D01*
X80104699Y-40449132D01*
X80024926Y-40465000D01*
X79788654Y-40511997D01*
X79520723Y-40691023D01*
X79475535Y-40758652D01*
X79178188Y-41056000D01*
X76565601Y-41056000D01*
X80595203Y-37026400D01*
X84943753Y-37026400D01*
X85018600Y-37041288D01*
X85093447Y-37026400D01*
X85093452Y-37026400D01*
X85315137Y-36982304D01*
X85566529Y-36814329D01*
X85608931Y-36750870D01*
X85856379Y-36503423D01*
X86031596Y-36576000D01*
X86688404Y-36576000D01*
X87295216Y-36324650D01*
X87630000Y-35989866D01*
X87964784Y-36324650D01*
X88571596Y-36576000D01*
X89228404Y-36576000D01*
X89835216Y-36324650D01*
X90170000Y-35989866D01*
X90504784Y-36324650D01*
X91111596Y-36576000D01*
X91768404Y-36576000D01*
X92375216Y-36324650D01*
X92710000Y-35989866D01*
X93044784Y-36324650D01*
X93651596Y-36576000D01*
X94308404Y-36576000D01*
X94915216Y-36324650D01*
X95250000Y-35989866D01*
X95584784Y-36324650D01*
X96191596Y-36576000D01*
X96848404Y-36576000D01*
X97455216Y-36324650D01*
X97919650Y-35860216D01*
X98171000Y-35253404D01*
X98171000Y-34596596D01*
X97919650Y-33989784D01*
X97455216Y-33525350D01*
X96848404Y-33274000D01*
X96191596Y-33274000D01*
X95584784Y-33525350D01*
X95250000Y-33860134D01*
X94915216Y-33525350D01*
X94308404Y-33274000D01*
X93651596Y-33274000D01*
X93044784Y-33525350D01*
X92710000Y-33860134D01*
X92375216Y-33525350D01*
X91768404Y-33274000D01*
X91111596Y-33274000D01*
X90504784Y-33525350D01*
X90170000Y-33860134D01*
X89835216Y-33525350D01*
X89228404Y-33274000D01*
X88571596Y-33274000D01*
X87964784Y-33525350D01*
X87630000Y-33860134D01*
X87295216Y-33525350D01*
X86688404Y-33274000D01*
X86031596Y-33274000D01*
X85424784Y-33525350D01*
X85090000Y-33860134D01*
X84755216Y-33525350D01*
X84148404Y-33274000D01*
X83491596Y-33274000D01*
X82884784Y-33525350D01*
X82550000Y-33860134D01*
X82215216Y-33525350D01*
X81608404Y-33274000D01*
X80951596Y-33274000D01*
X80344784Y-33525350D01*
X80010000Y-33860134D01*
X79675216Y-33525350D01*
X79068404Y-33274000D01*
X78411596Y-33274000D01*
X77804784Y-33525350D01*
X77470000Y-33860134D01*
X77135216Y-33525350D01*
X76528404Y-33274000D01*
X75871596Y-33274000D01*
X75264784Y-33525350D01*
X75215975Y-33574159D01*
X75133809Y-33451191D01*
X74923765Y-33310843D01*
X74676000Y-33261560D01*
X72644000Y-33261560D01*
X72396235Y-33310843D01*
X72186191Y-33451191D01*
X72045843Y-33661235D01*
X71996560Y-33909000D01*
X71996560Y-34259958D01*
X71884650Y-33989784D01*
X71420216Y-33525350D01*
X70813404Y-33274000D01*
X70156596Y-33274000D01*
X69549784Y-33525350D01*
X69215000Y-33860134D01*
X68880216Y-33525350D01*
X68273404Y-33274000D01*
X67616596Y-33274000D01*
X67009784Y-33525350D01*
X66675000Y-33860134D01*
X66340216Y-33525350D01*
X65733404Y-33274000D01*
X65076596Y-33274000D01*
X64469784Y-33525350D01*
X64135000Y-33860134D01*
X63800216Y-33525350D01*
X63193404Y-33274000D01*
X62536596Y-33274000D01*
X61929784Y-33525350D01*
X61595000Y-33860134D01*
X61260216Y-33525350D01*
X60653404Y-33274000D01*
X59996596Y-33274000D01*
X59389784Y-33525350D01*
X59055000Y-33860134D01*
X58720216Y-33525350D01*
X58113404Y-33274000D01*
X57456596Y-33274000D01*
X56849784Y-33525350D01*
X56515000Y-33860134D01*
X56180216Y-33525350D01*
X55573404Y-33274000D01*
X54916596Y-33274000D01*
X54309784Y-33525350D01*
X53975000Y-33860134D01*
X53640216Y-33525350D01*
X53033404Y-33274000D01*
X52376596Y-33274000D01*
X51769784Y-33525350D01*
X51435000Y-33860134D01*
X51100216Y-33525350D01*
X50493404Y-33274000D01*
X49836596Y-33274000D01*
X49229784Y-33525350D01*
X49180975Y-33574159D01*
X49098809Y-33451191D01*
X48888765Y-33310843D01*
X48641000Y-33261560D01*
X46921600Y-33261560D01*
X46921600Y-28800671D01*
X47296596Y-28956000D01*
X47953404Y-28956000D01*
X48560216Y-28704650D01*
X48895000Y-28369866D01*
X49229784Y-28704650D01*
X49836596Y-28956000D01*
X50493404Y-28956000D01*
X51100216Y-28704650D01*
X51435000Y-28369866D01*
X51769784Y-28704650D01*
X52376596Y-28956000D01*
X53033404Y-28956000D01*
X53640216Y-28704650D01*
X53975000Y-28369866D01*
X54309784Y-28704650D01*
X54916596Y-28956000D01*
X55573404Y-28956000D01*
X56180216Y-28704650D01*
X56515000Y-28369866D01*
X56849784Y-28704650D01*
X57456596Y-28956000D01*
X58113404Y-28956000D01*
X58720216Y-28704650D01*
X59055000Y-28369866D01*
X59389784Y-28704650D01*
X59996596Y-28956000D01*
X60653404Y-28956000D01*
X61260216Y-28704650D01*
X61595000Y-28369866D01*
X61929784Y-28704650D01*
X62536596Y-28956000D01*
X63193404Y-28956000D01*
X63800216Y-28704650D01*
X64135000Y-28369866D01*
X64469784Y-28704650D01*
X65076596Y-28956000D01*
X65733404Y-28956000D01*
X66340216Y-28704650D01*
X66675000Y-28369866D01*
X67009784Y-28704650D01*
X67616596Y-28956000D01*
X68273404Y-28956000D01*
X68880216Y-28704650D01*
X69215000Y-28369866D01*
X69549784Y-28704650D01*
X70156596Y-28956000D01*
X70813404Y-28956000D01*
X71420216Y-28704650D01*
X71884650Y-28240216D01*
X72072500Y-27786706D01*
X72260350Y-28240216D01*
X72724784Y-28704650D01*
X73331596Y-28956000D01*
X73988404Y-28956000D01*
X74595216Y-28704650D01*
X74930000Y-28369866D01*
X75264784Y-28704650D01*
X75871596Y-28956000D01*
X76528404Y-28956000D01*
X77135216Y-28704650D01*
X77470000Y-28369866D01*
X77804784Y-28704650D01*
X78411596Y-28956000D01*
X79068404Y-28956000D01*
X79675216Y-28704650D01*
X80010000Y-28369866D01*
X80344784Y-28704650D01*
X80951596Y-28956000D01*
X81608404Y-28956000D01*
X82215216Y-28704650D01*
X82550000Y-28369866D01*
X82884784Y-28704650D01*
X83491596Y-28956000D01*
X84148404Y-28956000D01*
X84755216Y-28704650D01*
X85090000Y-28369866D01*
X85424784Y-28704650D01*
X86031596Y-28956000D01*
X86688404Y-28956000D01*
X87295216Y-28704650D01*
X87630000Y-28369866D01*
X87964784Y-28704650D01*
X88571596Y-28956000D01*
X89228404Y-28956000D01*
X89835216Y-28704650D01*
X90170000Y-28369866D01*
X90504784Y-28704650D01*
X91111596Y-28956000D01*
X91768404Y-28956000D01*
X92375216Y-28704650D01*
X92710000Y-28369866D01*
X93044784Y-28704650D01*
X93651596Y-28956000D01*
X94308404Y-28956000D01*
X94915216Y-28704650D01*
X95250000Y-28369866D01*
X95584784Y-28704650D01*
X96191596Y-28956000D01*
X96848404Y-28956000D01*
X97455216Y-28704650D01*
X97919650Y-28240216D01*
X98171000Y-27633404D01*
X98171000Y-26976596D01*
X97919650Y-26369784D01*
X97455216Y-25905350D01*
X96848404Y-25654000D01*
X96191596Y-25654000D01*
X95584784Y-25905350D01*
X95250000Y-26240134D01*
X94915216Y-25905350D01*
X94308404Y-25654000D01*
X93651596Y-25654000D01*
X93044784Y-25905350D01*
X92710000Y-26240134D01*
X92375216Y-25905350D01*
X91768404Y-25654000D01*
X91111596Y-25654000D01*
X90504784Y-25905350D01*
X90170000Y-26240134D01*
X89835216Y-25905350D01*
X89228404Y-25654000D01*
X88571596Y-25654000D01*
X87964784Y-25905350D01*
X87630000Y-26240134D01*
X87295216Y-25905350D01*
X86688404Y-25654000D01*
X86031596Y-25654000D01*
X85424784Y-25905350D01*
X85090000Y-26240134D01*
X84755216Y-25905350D01*
X84148404Y-25654000D01*
X83491596Y-25654000D01*
X82884784Y-25905350D01*
X82550000Y-26240134D01*
X82215216Y-25905350D01*
X81608404Y-25654000D01*
X80951596Y-25654000D01*
X80344784Y-25905350D01*
X80010000Y-26240134D01*
X79675216Y-25905350D01*
X79068404Y-25654000D01*
X78411596Y-25654000D01*
X77804784Y-25905350D01*
X77470000Y-26240134D01*
X77135216Y-25905350D01*
X76528404Y-25654000D01*
X75871596Y-25654000D01*
X75264784Y-25905350D01*
X74930000Y-26240134D01*
X74595216Y-25905350D01*
X73988404Y-25654000D01*
X73331596Y-25654000D01*
X72724784Y-25905350D01*
X72260350Y-26369784D01*
X72072500Y-26823294D01*
X71884650Y-26369784D01*
X71420216Y-25905350D01*
X70813404Y-25654000D01*
X70156596Y-25654000D01*
X69549784Y-25905350D01*
X69215000Y-26240134D01*
X68880216Y-25905350D01*
X68273404Y-25654000D01*
X67616596Y-25654000D01*
X67009784Y-25905350D01*
X66675000Y-26240134D01*
X66340216Y-25905350D01*
X65733404Y-25654000D01*
X65076596Y-25654000D01*
X64469784Y-25905350D01*
X64135000Y-26240134D01*
X63800216Y-25905350D01*
X63193404Y-25654000D01*
X62536596Y-25654000D01*
X61929784Y-25905350D01*
X61595000Y-26240134D01*
X61260216Y-25905350D01*
X60653404Y-25654000D01*
X59996596Y-25654000D01*
X59389784Y-25905350D01*
X59055000Y-26240134D01*
X58720216Y-25905350D01*
X58113404Y-25654000D01*
X57456596Y-25654000D01*
X56849784Y-25905350D01*
X56515000Y-26240134D01*
X56180216Y-25905350D01*
X55573404Y-25654000D01*
X54916596Y-25654000D01*
X54309784Y-25905350D01*
X53975000Y-26240134D01*
X53640216Y-25905350D01*
X53033404Y-25654000D01*
X52376596Y-25654000D01*
X51769784Y-25905350D01*
X51435000Y-26240134D01*
X51100216Y-25905350D01*
X50493404Y-25654000D01*
X49836596Y-25654000D01*
X49229784Y-25905350D01*
X48895000Y-26240134D01*
X48560216Y-25905350D01*
X47953404Y-25654000D01*
X47296596Y-25654000D01*
X46689784Y-25905350D01*
X46225350Y-26369784D01*
X45974000Y-26976596D01*
X45974000Y-27048487D01*
X42706263Y-23780750D01*
X46190000Y-23780750D01*
X46190000Y-24421310D01*
X46286673Y-24654699D01*
X46465302Y-24833327D01*
X46698691Y-24930000D01*
X47339250Y-24930000D01*
X47498000Y-24771250D01*
X47498000Y-23622000D01*
X46348750Y-23622000D01*
X46190000Y-23780750D01*
X42706263Y-23780750D01*
X42685420Y-23759907D01*
X42738113Y-23495000D01*
X42626740Y-22935091D01*
X42381919Y-22568690D01*
X46190000Y-22568690D01*
X46190000Y-23209250D01*
X46348750Y-23368000D01*
X47498000Y-23368000D01*
X47498000Y-22218750D01*
X47752000Y-22218750D01*
X47752000Y-23368000D01*
X47772000Y-23368000D01*
X47772000Y-23622000D01*
X47752000Y-23622000D01*
X47752000Y-24771250D01*
X47910750Y-24930000D01*
X48551309Y-24930000D01*
X48784698Y-24833327D01*
X48963327Y-24654699D01*
X49059266Y-24423083D01*
X49130423Y-24529577D01*
X49605091Y-24846740D01*
X50023667Y-24930000D01*
X50306333Y-24930000D01*
X50724909Y-24846740D01*
X51199577Y-24529577D01*
X51435000Y-24177242D01*
X51670423Y-24529577D01*
X52145091Y-24846740D01*
X52563667Y-24930000D01*
X52846333Y-24930000D01*
X53264909Y-24846740D01*
X53739577Y-24529577D01*
X53975000Y-24177242D01*
X54210423Y-24529577D01*
X54685091Y-24846740D01*
X55103667Y-24930000D01*
X55386333Y-24930000D01*
X55804909Y-24846740D01*
X56279577Y-24529577D01*
X56515000Y-24177242D01*
X56750423Y-24529577D01*
X57225091Y-24846740D01*
X57643667Y-24930000D01*
X57926333Y-24930000D01*
X58344909Y-24846740D01*
X58819577Y-24529577D01*
X59055000Y-24177242D01*
X59290423Y-24529577D01*
X59765091Y-24846740D01*
X60183667Y-24930000D01*
X60466333Y-24930000D01*
X60884909Y-24846740D01*
X61359577Y-24529577D01*
X61595000Y-24177242D01*
X61830423Y-24529577D01*
X62305091Y-24846740D01*
X62723667Y-24930000D01*
X63006333Y-24930000D01*
X63424909Y-24846740D01*
X63899577Y-24529577D01*
X64135000Y-24177242D01*
X64370423Y-24529577D01*
X64845091Y-24846740D01*
X65263667Y-24930000D01*
X65546333Y-24930000D01*
X65964909Y-24846740D01*
X66439577Y-24529577D01*
X66675000Y-24177242D01*
X66910423Y-24529577D01*
X67385091Y-24846740D01*
X67803667Y-24930000D01*
X68086333Y-24930000D01*
X68504909Y-24846740D01*
X68979577Y-24529577D01*
X69296740Y-24054909D01*
X69351273Y-23780750D01*
X69685000Y-23780750D01*
X69685000Y-24421310D01*
X69781673Y-24654699D01*
X69960302Y-24833327D01*
X70193691Y-24930000D01*
X70834250Y-24930000D01*
X70993000Y-24771250D01*
X70993000Y-23622000D01*
X69843750Y-23622000D01*
X69685000Y-23780750D01*
X69351273Y-23780750D01*
X69408113Y-23495000D01*
X69296740Y-22935091D01*
X69051919Y-22568690D01*
X69685000Y-22568690D01*
X69685000Y-23209250D01*
X69843750Y-23368000D01*
X70993000Y-23368000D01*
X70993000Y-22218750D01*
X71247000Y-22218750D01*
X71247000Y-23368000D01*
X71267000Y-23368000D01*
X71267000Y-23622000D01*
X71247000Y-23622000D01*
X71247000Y-24771250D01*
X71405750Y-24930000D01*
X72046309Y-24930000D01*
X72279698Y-24833327D01*
X72458327Y-24654699D01*
X72554266Y-24423083D01*
X72625423Y-24529577D01*
X73100091Y-24846740D01*
X73518667Y-24930000D01*
X73801333Y-24930000D01*
X74219909Y-24846740D01*
X74694577Y-24529577D01*
X74930000Y-24177242D01*
X75165423Y-24529577D01*
X75640091Y-24846740D01*
X76058667Y-24930000D01*
X76341333Y-24930000D01*
X76759909Y-24846740D01*
X77234577Y-24529577D01*
X77470000Y-24177242D01*
X77705423Y-24529577D01*
X78180091Y-24846740D01*
X78598667Y-24930000D01*
X78881333Y-24930000D01*
X79299909Y-24846740D01*
X79774577Y-24529577D01*
X80010000Y-24177242D01*
X80245423Y-24529577D01*
X80720091Y-24846740D01*
X81138667Y-24930000D01*
X81421333Y-24930000D01*
X81839909Y-24846740D01*
X82314577Y-24529577D01*
X82550000Y-24177242D01*
X82785423Y-24529577D01*
X83260091Y-24846740D01*
X83678667Y-24930000D01*
X83961333Y-24930000D01*
X84379909Y-24846740D01*
X84854577Y-24529577D01*
X85090000Y-24177242D01*
X85325423Y-24529577D01*
X85800091Y-24846740D01*
X86218667Y-24930000D01*
X86501333Y-24930000D01*
X86919909Y-24846740D01*
X87394577Y-24529577D01*
X87630000Y-24177242D01*
X87865423Y-24529577D01*
X88340091Y-24846740D01*
X88758667Y-24930000D01*
X89041333Y-24930000D01*
X89459909Y-24846740D01*
X89934577Y-24529577D01*
X90170000Y-24177242D01*
X90405423Y-24529577D01*
X90880091Y-24846740D01*
X91298667Y-24930000D01*
X91581333Y-24930000D01*
X91999909Y-24846740D01*
X92474577Y-24529577D01*
X92791740Y-24054909D01*
X92903113Y-23495000D01*
X92791740Y-22935091D01*
X92474577Y-22460423D01*
X91999909Y-22143260D01*
X91581333Y-22060000D01*
X91298667Y-22060000D01*
X90880091Y-22143260D01*
X90405423Y-22460423D01*
X90170000Y-22812758D01*
X89934577Y-22460423D01*
X89459909Y-22143260D01*
X89041333Y-22060000D01*
X88758667Y-22060000D01*
X88340091Y-22143260D01*
X87865423Y-22460423D01*
X87630000Y-22812758D01*
X87394577Y-22460423D01*
X86919909Y-22143260D01*
X86501333Y-22060000D01*
X86218667Y-22060000D01*
X85800091Y-22143260D01*
X85325423Y-22460423D01*
X85090000Y-22812758D01*
X84854577Y-22460423D01*
X84379909Y-22143260D01*
X83961333Y-22060000D01*
X83678667Y-22060000D01*
X83260091Y-22143260D01*
X82785423Y-22460423D01*
X82550000Y-22812758D01*
X82314577Y-22460423D01*
X81839909Y-22143260D01*
X81421333Y-22060000D01*
X81138667Y-22060000D01*
X80720091Y-22143260D01*
X80245423Y-22460423D01*
X80010000Y-22812758D01*
X79774577Y-22460423D01*
X79299909Y-22143260D01*
X78881333Y-22060000D01*
X78598667Y-22060000D01*
X78180091Y-22143260D01*
X77705423Y-22460423D01*
X77470000Y-22812758D01*
X77234577Y-22460423D01*
X76759909Y-22143260D01*
X76341333Y-22060000D01*
X76058667Y-22060000D01*
X75640091Y-22143260D01*
X75165423Y-22460423D01*
X74930000Y-22812758D01*
X74694577Y-22460423D01*
X74219909Y-22143260D01*
X73801333Y-22060000D01*
X73518667Y-22060000D01*
X73100091Y-22143260D01*
X72625423Y-22460423D01*
X72554266Y-22566917D01*
X72458327Y-22335301D01*
X72279698Y-22156673D01*
X72046309Y-22060000D01*
X71405750Y-22060000D01*
X71247000Y-22218750D01*
X70993000Y-22218750D01*
X70834250Y-22060000D01*
X70193691Y-22060000D01*
X69960302Y-22156673D01*
X69781673Y-22335301D01*
X69685000Y-22568690D01*
X69051919Y-22568690D01*
X68979577Y-22460423D01*
X68504909Y-22143260D01*
X68086333Y-22060000D01*
X67803667Y-22060000D01*
X67385091Y-22143260D01*
X66910423Y-22460423D01*
X66675000Y-22812758D01*
X66439577Y-22460423D01*
X65964909Y-22143260D01*
X65546333Y-22060000D01*
X65263667Y-22060000D01*
X64845091Y-22143260D01*
X64370423Y-22460423D01*
X64135000Y-22812758D01*
X63899577Y-22460423D01*
X63424909Y-22143260D01*
X63006333Y-22060000D01*
X62723667Y-22060000D01*
X62305091Y-22143260D01*
X61830423Y-22460423D01*
X61595000Y-22812758D01*
X61359577Y-22460423D01*
X60884909Y-22143260D01*
X60466333Y-22060000D01*
X60183667Y-22060000D01*
X59765091Y-22143260D01*
X59290423Y-22460423D01*
X59055000Y-22812758D01*
X58819577Y-22460423D01*
X58344909Y-22143260D01*
X57926333Y-22060000D01*
X57643667Y-22060000D01*
X57225091Y-22143260D01*
X56750423Y-22460423D01*
X56515000Y-22812758D01*
X56279577Y-22460423D01*
X55804909Y-22143260D01*
X55386333Y-22060000D01*
X55103667Y-22060000D01*
X54685091Y-22143260D01*
X54210423Y-22460423D01*
X53975000Y-22812758D01*
X53739577Y-22460423D01*
X53264909Y-22143260D01*
X52846333Y-22060000D01*
X52563667Y-22060000D01*
X52145091Y-22143260D01*
X51670423Y-22460423D01*
X51435000Y-22812758D01*
X51199577Y-22460423D01*
X50724909Y-22143260D01*
X50306333Y-22060000D01*
X50023667Y-22060000D01*
X49605091Y-22143260D01*
X49130423Y-22460423D01*
X49059266Y-22566917D01*
X48963327Y-22335301D01*
X48784698Y-22156673D01*
X48551309Y-22060000D01*
X47910750Y-22060000D01*
X47752000Y-22218750D01*
X47498000Y-22218750D01*
X47339250Y-22060000D01*
X46698691Y-22060000D01*
X46465302Y-22156673D01*
X46286673Y-22335301D01*
X46190000Y-22568690D01*
X42381919Y-22568690D01*
X42309577Y-22460423D01*
X41834909Y-22143260D01*
X41416333Y-22060000D01*
X41133667Y-22060000D01*
X40715091Y-22143260D01*
X40240423Y-22460423D01*
X39923260Y-22935091D01*
X39811887Y-23495000D01*
X39923260Y-24054909D01*
X40240423Y-24529577D01*
X40592758Y-24765000D01*
X40240423Y-25000423D01*
X39923260Y-25475091D01*
X39811887Y-26035000D01*
X39923260Y-26594909D01*
X40240423Y-27069577D01*
X40592758Y-27305000D01*
X40240423Y-27540423D01*
X39923260Y-28015091D01*
X39811887Y-28575000D01*
X39923260Y-29134909D01*
X40240423Y-29609577D01*
X40592758Y-29845000D01*
X40240423Y-30080423D01*
X39923260Y-30555091D01*
X39811887Y-31115000D01*
X39923260Y-31674909D01*
X40240423Y-32149577D01*
X40592758Y-32385000D01*
X40240423Y-32620423D01*
X39923260Y-33095091D01*
X39811887Y-33655000D01*
X39923260Y-34214909D01*
X40240423Y-34689577D01*
X40592758Y-34925000D01*
X40240423Y-35160423D01*
X40056957Y-35435000D01*
X34873043Y-35435000D01*
X34689577Y-35160423D01*
X34337242Y-34925000D01*
X34689577Y-34689577D01*
X35006740Y-34214909D01*
X35118113Y-33655000D01*
X35006740Y-33095091D01*
X34689577Y-32620423D01*
X34337242Y-32385000D01*
X34689577Y-32149577D01*
X35006740Y-31674909D01*
X35118113Y-31115000D01*
X35006740Y-30555091D01*
X34689577Y-30080423D01*
X34337242Y-29845000D01*
X34689577Y-29609577D01*
X35006740Y-29134909D01*
X35118113Y-28575000D01*
X35006740Y-28015091D01*
X34689577Y-27540423D01*
X34337242Y-27305000D01*
X34689577Y-27069577D01*
X35006740Y-26594909D01*
X35118113Y-26035000D01*
X35006740Y-25475091D01*
X34689577Y-25000423D01*
X34568894Y-24919785D01*
X34702765Y-24893157D01*
X34912809Y-24752809D01*
X35053157Y-24542765D01*
X35102440Y-24295000D01*
X35102440Y-22695000D01*
X35053157Y-22447235D01*
X34912809Y-22237191D01*
X34702765Y-22096843D01*
X34455000Y-22047560D01*
X32855000Y-22047560D01*
X32607235Y-22096843D01*
X32397191Y-22237191D01*
X32256843Y-22447235D01*
X32207560Y-22695000D01*
X32207560Y-24295000D01*
X32256843Y-24542765D01*
X32397191Y-24752809D01*
X32607235Y-24893157D01*
X32741106Y-24919785D01*
X32620423Y-25000423D01*
X32303260Y-25475091D01*
X32191887Y-26035000D01*
X32303260Y-26594909D01*
X32620423Y-27069577D01*
X32972758Y-27305000D01*
X32620423Y-27540423D01*
X32303260Y-28015091D01*
X32191887Y-28575000D01*
X32303260Y-29134909D01*
X32620423Y-29609577D01*
X32972758Y-29845000D01*
X32620423Y-30080423D01*
X32303260Y-30555091D01*
X32191887Y-31115000D01*
X32303260Y-31674909D01*
X32620423Y-32149577D01*
X32972758Y-32385000D01*
X32620423Y-32620423D01*
X32303260Y-33095091D01*
X32191887Y-33655000D01*
X32303260Y-34214909D01*
X32620423Y-34689577D01*
X32972758Y-34925000D01*
X32620423Y-35160423D01*
X32303260Y-35635091D01*
X32191887Y-36195000D01*
X32303260Y-36754909D01*
X32620423Y-37229577D01*
X33004108Y-37485947D01*
X32799866Y-37582611D01*
X32423959Y-37997577D01*
X32263096Y-38385961D01*
X32385085Y-38608000D01*
X33528000Y-38608000D01*
X33528000Y-38588000D01*
X33782000Y-38588000D01*
X33782000Y-38608000D01*
X34924915Y-38608000D01*
X35046904Y-38385961D01*
X34886041Y-37997577D01*
X34510134Y-37582611D01*
X34305892Y-37485947D01*
X34689577Y-37229577D01*
X34873043Y-36955000D01*
X40056957Y-36955000D01*
X40240423Y-37229577D01*
X40592758Y-37465000D01*
X40240423Y-37700423D01*
X39923260Y-38175091D01*
X39811887Y-38735000D01*
X39923260Y-39294909D01*
X40240423Y-39769577D01*
X40270694Y-39789804D01*
X31436330Y-48624169D01*
X31372871Y-48666571D01*
X31204896Y-48917964D01*
X31160800Y-49139649D01*
X31160800Y-49139653D01*
X31145912Y-49214500D01*
X28015000Y-49214500D01*
X28015000Y-39084039D01*
X32263096Y-39084039D01*
X32423959Y-39472423D01*
X32799866Y-39887389D01*
X33305959Y-40126914D01*
X33528000Y-40005629D01*
X33528000Y-38862000D01*
X33782000Y-38862000D01*
X33782000Y-40005629D01*
X34004041Y-40126914D01*
X34510134Y-39887389D01*
X34886041Y-39472423D01*
X35046904Y-39084039D01*
X34924915Y-38862000D01*
X33782000Y-38862000D01*
X33528000Y-38862000D01*
X32385085Y-38862000D01*
X32263096Y-39084039D01*
X28015000Y-39084039D01*
X28015000Y-17855000D01*
X107875000Y-17855000D01*
X107875001Y-98985000D01*
X107875001Y-98985000D01*
G37*
X107875001Y-98985000D02*
X28015000Y-98985000D01*
X28015000Y-49214500D01*
X31145912Y-49214500D01*
X31160800Y-49289347D01*
X31160801Y-55975948D01*
X31145912Y-56050800D01*
X31204897Y-56347337D01*
X31316927Y-56515001D01*
X31372872Y-56598729D01*
X31436328Y-56641129D01*
X32213791Y-57418592D01*
X32140908Y-57785000D01*
X32256161Y-58364418D01*
X32584375Y-58855625D01*
X32882761Y-59055000D01*
X32584375Y-59254375D01*
X32256161Y-59745582D01*
X32140908Y-60325000D01*
X32256161Y-60904418D01*
X32584375Y-61395625D01*
X32882761Y-61595000D01*
X32584375Y-61794375D01*
X32256161Y-62285582D01*
X32140908Y-62865000D01*
X32256161Y-63444418D01*
X32504786Y-63816512D01*
X31968728Y-64352571D01*
X31905272Y-64394971D01*
X31862872Y-64458427D01*
X31862871Y-64458428D01*
X31737297Y-64646363D01*
X31678312Y-64942900D01*
X31693201Y-65017752D01*
X31693200Y-70870853D01*
X31678312Y-70945700D01*
X31693200Y-71020547D01*
X31693200Y-71020551D01*
X31737296Y-71242236D01*
X31905271Y-71493629D01*
X31968730Y-71536031D01*
X32505347Y-72072649D01*
X32256161Y-72445582D01*
X32140908Y-73025000D01*
X32213791Y-73391408D01*
X31544930Y-74060269D01*
X31481471Y-74102671D01*
X31313496Y-74354064D01*
X31269400Y-74575749D01*
X31269400Y-74575753D01*
X31254512Y-74650600D01*
X31269400Y-74725447D01*
X31269401Y-83235248D01*
X31254512Y-83310100D01*
X31313497Y-83606637D01*
X31426214Y-83775329D01*
X31481472Y-83858029D01*
X31544928Y-83900429D01*
X32470019Y-84825521D01*
X32256161Y-85145582D01*
X32140908Y-85725000D01*
X32256161Y-86304418D01*
X32584375Y-86795625D01*
X32882761Y-86995000D01*
X32584375Y-87194375D01*
X32256161Y-87685582D01*
X32140908Y-88265000D01*
X32256161Y-88844418D01*
X32584375Y-89335625D01*
X32882761Y-89535000D01*
X32584375Y-89734375D01*
X32256161Y-90225582D01*
X32140908Y-90805000D01*
X32256161Y-91384418D01*
X32584375Y-91875625D01*
X32882761Y-92075000D01*
X32584375Y-92274375D01*
X32256161Y-92765582D01*
X32140908Y-93345000D01*
X32256161Y-93924418D01*
X32584375Y-94415625D01*
X33075582Y-94743839D01*
X33508744Y-94830000D01*
X33801256Y-94830000D01*
X34234418Y-94743839D01*
X34725625Y-94415625D01*
X35053839Y-93924418D01*
X35169092Y-93345000D01*
X35053839Y-92765582D01*
X34725625Y-92274375D01*
X34427239Y-92075000D01*
X34725625Y-91875625D01*
X35053839Y-91384418D01*
X35169092Y-90805000D01*
X35053839Y-90225582D01*
X34725625Y-89734375D01*
X34427239Y-89535000D01*
X34725625Y-89335625D01*
X35053839Y-88844418D01*
X35169092Y-88265000D01*
X35053839Y-87685582D01*
X34725625Y-87194375D01*
X34427239Y-86995000D01*
X34725625Y-86795625D01*
X35053839Y-86304418D01*
X35169092Y-85725000D01*
X35067647Y-85215000D01*
X35870099Y-85215000D01*
X46670573Y-96015476D01*
X46712971Y-96078929D01*
X46776424Y-96121327D01*
X46776426Y-96121329D01*
X46901802Y-96205102D01*
X46964363Y-96246904D01*
X47186048Y-96291000D01*
X47186052Y-96291000D01*
X47260899Y-96305888D01*
X47335746Y-96291000D01*
X87647853Y-96291000D01*
X87722700Y-96305888D01*
X87797547Y-96291000D01*
X87797552Y-96291000D01*
X88019237Y-96246904D01*
X88270629Y-96078929D01*
X88313031Y-96015470D01*
X93852286Y-90476215D01*
X93786887Y-90805000D01*
X93898260Y-91364909D01*
X94215423Y-91839577D01*
X94567758Y-92075000D01*
X94215423Y-92310423D01*
X93898260Y-92785091D01*
X93786887Y-93345000D01*
X93898260Y-93904909D01*
X94215423Y-94379577D01*
X94690091Y-94696740D01*
X95108667Y-94780000D01*
X95391333Y-94780000D01*
X95809909Y-94696740D01*
X96284577Y-94379577D01*
X96468043Y-94105000D01*
X100956822Y-94105000D01*
X101164375Y-94415625D01*
X101655582Y-94743839D01*
X102088744Y-94830000D01*
X102381256Y-94830000D01*
X102814418Y-94743839D01*
X103305625Y-94415625D01*
X103633839Y-93924418D01*
X103749092Y-93345000D01*
X103633839Y-92765582D01*
X103305625Y-92274375D01*
X103007239Y-92075000D01*
X103305625Y-91875625D01*
X103633839Y-91384418D01*
X103749092Y-90805000D01*
X103633839Y-90225582D01*
X103305625Y-89734375D01*
X103007239Y-89535000D01*
X103305625Y-89335625D01*
X103633839Y-88844418D01*
X103749092Y-88265000D01*
X103633839Y-87685582D01*
X103305625Y-87194375D01*
X103007239Y-86995000D01*
X103305625Y-86795625D01*
X103633839Y-86304418D01*
X103749092Y-85725000D01*
X103633839Y-85145582D01*
X103305625Y-84654375D01*
X103007239Y-84455000D01*
X103305625Y-84255625D01*
X103633839Y-83764418D01*
X103749092Y-83185000D01*
X103633839Y-82605582D01*
X103305625Y-82114375D01*
X103007239Y-81915000D01*
X103305625Y-81715625D01*
X103633839Y-81224418D01*
X103749092Y-80645000D01*
X103633839Y-80065582D01*
X103305625Y-79574375D01*
X103007239Y-79375000D01*
X103305625Y-79175625D01*
X103633839Y-78684418D01*
X103749092Y-78105000D01*
X103633839Y-77525582D01*
X103305625Y-77034375D01*
X103007239Y-76835000D01*
X103305625Y-76635625D01*
X103633839Y-76144418D01*
X103749092Y-75565000D01*
X103633839Y-74985582D01*
X103305625Y-74494375D01*
X103007239Y-74295000D01*
X103305625Y-74095625D01*
X103633839Y-73604418D01*
X103749092Y-73025000D01*
X103633839Y-72445582D01*
X103305625Y-71954375D01*
X103007239Y-71755000D01*
X103305625Y-71555625D01*
X103633839Y-71064418D01*
X103749092Y-70485000D01*
X103633839Y-69905582D01*
X103305625Y-69414375D01*
X103007239Y-69215000D01*
X103305625Y-69015625D01*
X103633839Y-68524418D01*
X103749092Y-67945000D01*
X103633839Y-67365582D01*
X103305625Y-66874375D01*
X103007239Y-66675000D01*
X103305625Y-66475625D01*
X103633839Y-65984418D01*
X103749092Y-65405000D01*
X103633839Y-64825582D01*
X103305625Y-64334375D01*
X103007239Y-64135000D01*
X103305625Y-63935625D01*
X103633839Y-63444418D01*
X103749092Y-62865000D01*
X103633839Y-62285582D01*
X103305625Y-61794375D01*
X103007239Y-61595000D01*
X103305625Y-61395625D01*
X103633839Y-60904418D01*
X103749092Y-60325000D01*
X103633839Y-59745582D01*
X103305625Y-59254375D01*
X103007239Y-59055000D01*
X103305625Y-58855625D01*
X103633839Y-58364418D01*
X103749092Y-57785000D01*
X103633839Y-57205582D01*
X103305625Y-56714375D01*
X103287381Y-56702184D01*
X103332765Y-56693157D01*
X103542809Y-56552809D01*
X103683157Y-56342765D01*
X103732440Y-56095000D01*
X103732440Y-54395000D01*
X103683157Y-54147235D01*
X103542809Y-53937191D01*
X103332765Y-53796843D01*
X103085000Y-53747560D01*
X101385000Y-53747560D01*
X101137235Y-53796843D01*
X100927191Y-53937191D01*
X100786843Y-54147235D01*
X100737560Y-54395000D01*
X100737560Y-56095000D01*
X100786843Y-56342765D01*
X100927191Y-56552809D01*
X101137235Y-56693157D01*
X101182619Y-56702184D01*
X101164375Y-56714375D01*
X100836161Y-57205582D01*
X100720908Y-57785000D01*
X100836161Y-58364418D01*
X101164375Y-58855625D01*
X101462761Y-59055000D01*
X101164375Y-59254375D01*
X100836161Y-59745582D01*
X100720908Y-60325000D01*
X100836161Y-60904418D01*
X101164375Y-61395625D01*
X101462761Y-61595000D01*
X101164375Y-61794375D01*
X100836161Y-62285582D01*
X100720908Y-62865000D01*
X100836161Y-63444418D01*
X101164375Y-63935625D01*
X101462761Y-64135000D01*
X101164375Y-64334375D01*
X100836161Y-64825582D01*
X100720908Y-65405000D01*
X100836161Y-65984418D01*
X101164375Y-66475625D01*
X101462761Y-66675000D01*
X101164375Y-66874375D01*
X100836161Y-67365582D01*
X100720908Y-67945000D01*
X100836161Y-68524418D01*
X101164375Y-69015625D01*
X101462761Y-69215000D01*
X101164375Y-69414375D01*
X100836161Y-69905582D01*
X100720908Y-70485000D01*
X100836161Y-71064418D01*
X101164375Y-71555625D01*
X101462761Y-71755000D01*
X101164375Y-71954375D01*
X100836161Y-72445582D01*
X100720908Y-73025000D01*
X100836161Y-73604418D01*
X101164375Y-74095625D01*
X101462761Y-74295000D01*
X101164375Y-74494375D01*
X100956822Y-74805000D01*
X96468043Y-74805000D01*
X96284577Y-74530423D01*
X95932242Y-74295000D01*
X96284577Y-74059577D01*
X96601740Y-73584909D01*
X96713113Y-73025000D01*
X96601740Y-72465091D01*
X96284577Y-71990423D01*
X95932242Y-71755000D01*
X96284577Y-71519577D01*
X96601740Y-71044909D01*
X96713113Y-70485000D01*
X96601740Y-69925091D01*
X96284577Y-69450423D01*
X95809909Y-69133260D01*
X95391333Y-69050000D01*
X95108667Y-69050000D01*
X94884700Y-69094550D01*
X94884700Y-65525450D01*
X95108667Y-65570000D01*
X95391333Y-65570000D01*
X95809909Y-65486740D01*
X96284577Y-65169577D01*
X96601740Y-64694909D01*
X96713113Y-64135000D01*
X96601740Y-63575091D01*
X96284577Y-63100423D01*
X95932242Y-62865000D01*
X96284577Y-62629577D01*
X96601740Y-62154909D01*
X96713113Y-61595000D01*
X96601740Y-61035091D01*
X96284577Y-60560423D01*
X95932242Y-60325000D01*
X96284577Y-60089577D01*
X96601740Y-59614909D01*
X96713113Y-59055000D01*
X96601740Y-58495091D01*
X96284577Y-58020423D01*
X95932242Y-57785000D01*
X96284577Y-57549577D01*
X96601740Y-57074909D01*
X96713113Y-56515000D01*
X96601740Y-55955091D01*
X96284577Y-55480423D01*
X95932242Y-55245000D01*
X96284577Y-55009577D01*
X96601740Y-54534909D01*
X96713113Y-53975000D01*
X96601740Y-53415091D01*
X96284577Y-52940423D01*
X95932242Y-52705000D01*
X96284577Y-52469577D01*
X96601740Y-51994909D01*
X96713113Y-51435000D01*
X96601740Y-50875091D01*
X96284577Y-50400423D01*
X95932242Y-50165000D01*
X96284577Y-49929577D01*
X96601740Y-49454909D01*
X96713113Y-48895000D01*
X96601740Y-48335091D01*
X96284577Y-47860423D01*
X95932242Y-47625000D01*
X96284577Y-47389577D01*
X96601740Y-46914909D01*
X96713113Y-46355000D01*
X96601740Y-45795091D01*
X96284577Y-45320423D01*
X95932242Y-45085000D01*
X96284577Y-44849577D01*
X96601740Y-44374909D01*
X96713113Y-43815000D01*
X96601740Y-43255091D01*
X96284577Y-42780423D01*
X95932242Y-42545000D01*
X96284577Y-42309577D01*
X96601740Y-41834909D01*
X96713113Y-41275000D01*
X96601740Y-40715091D01*
X96284577Y-40240423D01*
X95809909Y-39923260D01*
X95391333Y-39840000D01*
X95108667Y-39840000D01*
X94690091Y-39923260D01*
X94215423Y-40240423D01*
X94065365Y-40465000D01*
X89075451Y-40465000D01*
X89028157Y-40227235D01*
X88887809Y-40017191D01*
X88677765Y-39876843D01*
X88430000Y-39827560D01*
X86830000Y-39827560D01*
X86582235Y-39876843D01*
X86372191Y-40017191D01*
X86231843Y-40227235D01*
X86184549Y-40465000D01*
X82464635Y-40465000D01*
X82314577Y-40240423D01*
X81839909Y-39923260D01*
X81421333Y-39840000D01*
X81138667Y-39840000D01*
X80720091Y-39923260D01*
X80245423Y-40240423D01*
X80105819Y-40449355D01*
X80104699Y-40449132D01*
X80024926Y-40465000D01*
X79788654Y-40511997D01*
X79520723Y-40691023D01*
X79475535Y-40758652D01*
X79178188Y-41056000D01*
X76565601Y-41056000D01*
X80595203Y-37026400D01*
X84943753Y-37026400D01*
X85018600Y-37041288D01*
X85093447Y-37026400D01*
X85093452Y-37026400D01*
X85315137Y-36982304D01*
X85566529Y-36814329D01*
X85608931Y-36750870D01*
X85856379Y-36503423D01*
X86031596Y-36576000D01*
X86688404Y-36576000D01*
X87295216Y-36324650D01*
X87630000Y-35989866D01*
X87964784Y-36324650D01*
X88571596Y-36576000D01*
X89228404Y-36576000D01*
X89835216Y-36324650D01*
X90170000Y-35989866D01*
X90504784Y-36324650D01*
X91111596Y-36576000D01*
X91768404Y-36576000D01*
X92375216Y-36324650D01*
X92710000Y-35989866D01*
X93044784Y-36324650D01*
X93651596Y-36576000D01*
X94308404Y-36576000D01*
X94915216Y-36324650D01*
X95250000Y-35989866D01*
X95584784Y-36324650D01*
X96191596Y-36576000D01*
X96848404Y-36576000D01*
X97455216Y-36324650D01*
X97919650Y-35860216D01*
X98171000Y-35253404D01*
X98171000Y-34596596D01*
X97919650Y-33989784D01*
X97455216Y-33525350D01*
X96848404Y-33274000D01*
X96191596Y-33274000D01*
X95584784Y-33525350D01*
X95250000Y-33860134D01*
X94915216Y-33525350D01*
X94308404Y-33274000D01*
X93651596Y-33274000D01*
X93044784Y-33525350D01*
X92710000Y-33860134D01*
X92375216Y-33525350D01*
X91768404Y-33274000D01*
X91111596Y-33274000D01*
X90504784Y-33525350D01*
X90170000Y-33860134D01*
X89835216Y-33525350D01*
X89228404Y-33274000D01*
X88571596Y-33274000D01*
X87964784Y-33525350D01*
X87630000Y-33860134D01*
X87295216Y-33525350D01*
X86688404Y-33274000D01*
X86031596Y-33274000D01*
X85424784Y-33525350D01*
X85090000Y-33860134D01*
X84755216Y-33525350D01*
X84148404Y-33274000D01*
X83491596Y-33274000D01*
X82884784Y-33525350D01*
X82550000Y-33860134D01*
X82215216Y-33525350D01*
X81608404Y-33274000D01*
X80951596Y-33274000D01*
X80344784Y-33525350D01*
X80010000Y-33860134D01*
X79675216Y-33525350D01*
X79068404Y-33274000D01*
X78411596Y-33274000D01*
X77804784Y-33525350D01*
X77470000Y-33860134D01*
X77135216Y-33525350D01*
X76528404Y-33274000D01*
X75871596Y-33274000D01*
X75264784Y-33525350D01*
X75215975Y-33574159D01*
X75133809Y-33451191D01*
X74923765Y-33310843D01*
X74676000Y-33261560D01*
X72644000Y-33261560D01*
X72396235Y-33310843D01*
X72186191Y-33451191D01*
X72045843Y-33661235D01*
X71996560Y-33909000D01*
X71996560Y-34259958D01*
X71884650Y-33989784D01*
X71420216Y-33525350D01*
X70813404Y-33274000D01*
X70156596Y-33274000D01*
X69549784Y-33525350D01*
X69215000Y-33860134D01*
X68880216Y-33525350D01*
X68273404Y-33274000D01*
X67616596Y-33274000D01*
X67009784Y-33525350D01*
X66675000Y-33860134D01*
X66340216Y-33525350D01*
X65733404Y-33274000D01*
X65076596Y-33274000D01*
X64469784Y-33525350D01*
X64135000Y-33860134D01*
X63800216Y-33525350D01*
X63193404Y-33274000D01*
X62536596Y-33274000D01*
X61929784Y-33525350D01*
X61595000Y-33860134D01*
X61260216Y-33525350D01*
X60653404Y-33274000D01*
X59996596Y-33274000D01*
X59389784Y-33525350D01*
X59055000Y-33860134D01*
X58720216Y-33525350D01*
X58113404Y-33274000D01*
X57456596Y-33274000D01*
X56849784Y-33525350D01*
X56515000Y-33860134D01*
X56180216Y-33525350D01*
X55573404Y-33274000D01*
X54916596Y-33274000D01*
X54309784Y-33525350D01*
X53975000Y-33860134D01*
X53640216Y-33525350D01*
X53033404Y-33274000D01*
X52376596Y-33274000D01*
X51769784Y-33525350D01*
X51435000Y-33860134D01*
X51100216Y-33525350D01*
X50493404Y-33274000D01*
X49836596Y-33274000D01*
X49229784Y-33525350D01*
X49180975Y-33574159D01*
X49098809Y-33451191D01*
X48888765Y-33310843D01*
X48641000Y-33261560D01*
X46921600Y-33261560D01*
X46921600Y-28800671D01*
X47296596Y-28956000D01*
X47953404Y-28956000D01*
X48560216Y-28704650D01*
X48895000Y-28369866D01*
X49229784Y-28704650D01*
X49836596Y-28956000D01*
X50493404Y-28956000D01*
X51100216Y-28704650D01*
X51435000Y-28369866D01*
X51769784Y-28704650D01*
X52376596Y-28956000D01*
X53033404Y-28956000D01*
X53640216Y-28704650D01*
X53975000Y-28369866D01*
X54309784Y-28704650D01*
X54916596Y-28956000D01*
X55573404Y-28956000D01*
X56180216Y-28704650D01*
X56515000Y-28369866D01*
X56849784Y-28704650D01*
X57456596Y-28956000D01*
X58113404Y-28956000D01*
X58720216Y-28704650D01*
X59055000Y-28369866D01*
X59389784Y-28704650D01*
X59996596Y-28956000D01*
X60653404Y-28956000D01*
X61260216Y-28704650D01*
X61595000Y-28369866D01*
X61929784Y-28704650D01*
X62536596Y-28956000D01*
X63193404Y-28956000D01*
X63800216Y-28704650D01*
X64135000Y-28369866D01*
X64469784Y-28704650D01*
X65076596Y-28956000D01*
X65733404Y-28956000D01*
X66340216Y-28704650D01*
X66675000Y-28369866D01*
X67009784Y-28704650D01*
X67616596Y-28956000D01*
X68273404Y-28956000D01*
X68880216Y-28704650D01*
X69215000Y-28369866D01*
X69549784Y-28704650D01*
X70156596Y-28956000D01*
X70813404Y-28956000D01*
X71420216Y-28704650D01*
X71884650Y-28240216D01*
X72072500Y-27786706D01*
X72260350Y-28240216D01*
X72724784Y-28704650D01*
X73331596Y-28956000D01*
X73988404Y-28956000D01*
X74595216Y-28704650D01*
X74930000Y-28369866D01*
X75264784Y-28704650D01*
X75871596Y-28956000D01*
X76528404Y-28956000D01*
X77135216Y-28704650D01*
X77470000Y-28369866D01*
X77804784Y-28704650D01*
X78411596Y-28956000D01*
X79068404Y-28956000D01*
X79675216Y-28704650D01*
X80010000Y-28369866D01*
X80344784Y-28704650D01*
X80951596Y-28956000D01*
X81608404Y-28956000D01*
X82215216Y-28704650D01*
X82550000Y-28369866D01*
X82884784Y-28704650D01*
X83491596Y-28956000D01*
X84148404Y-28956000D01*
X84755216Y-28704650D01*
X85090000Y-28369866D01*
X85424784Y-28704650D01*
X86031596Y-28956000D01*
X86688404Y-28956000D01*
X87295216Y-28704650D01*
X87630000Y-28369866D01*
X87964784Y-28704650D01*
X88571596Y-28956000D01*
X89228404Y-28956000D01*
X89835216Y-28704650D01*
X90170000Y-28369866D01*
X90504784Y-28704650D01*
X91111596Y-28956000D01*
X91768404Y-28956000D01*
X92375216Y-28704650D01*
X92710000Y-28369866D01*
X93044784Y-28704650D01*
X93651596Y-28956000D01*
X94308404Y-28956000D01*
X94915216Y-28704650D01*
X95250000Y-28369866D01*
X95584784Y-28704650D01*
X96191596Y-28956000D01*
X96848404Y-28956000D01*
X97455216Y-28704650D01*
X97919650Y-28240216D01*
X98171000Y-27633404D01*
X98171000Y-26976596D01*
X97919650Y-26369784D01*
X97455216Y-25905350D01*
X96848404Y-25654000D01*
X96191596Y-25654000D01*
X95584784Y-25905350D01*
X95250000Y-26240134D01*
X94915216Y-25905350D01*
X94308404Y-25654000D01*
X93651596Y-25654000D01*
X93044784Y-25905350D01*
X92710000Y-26240134D01*
X92375216Y-25905350D01*
X91768404Y-25654000D01*
X91111596Y-25654000D01*
X90504784Y-25905350D01*
X90170000Y-26240134D01*
X89835216Y-25905350D01*
X89228404Y-25654000D01*
X88571596Y-25654000D01*
X87964784Y-25905350D01*
X87630000Y-26240134D01*
X87295216Y-25905350D01*
X86688404Y-25654000D01*
X86031596Y-25654000D01*
X85424784Y-25905350D01*
X85090000Y-26240134D01*
X84755216Y-25905350D01*
X84148404Y-25654000D01*
X83491596Y-25654000D01*
X82884784Y-25905350D01*
X82550000Y-26240134D01*
X82215216Y-25905350D01*
X81608404Y-25654000D01*
X80951596Y-25654000D01*
X80344784Y-25905350D01*
X80010000Y-26240134D01*
X79675216Y-25905350D01*
X79068404Y-25654000D01*
X78411596Y-25654000D01*
X77804784Y-25905350D01*
X77470000Y-26240134D01*
X77135216Y-25905350D01*
X76528404Y-25654000D01*
X75871596Y-25654000D01*
X75264784Y-25905350D01*
X74930000Y-26240134D01*
X74595216Y-25905350D01*
X73988404Y-25654000D01*
X73331596Y-25654000D01*
X72724784Y-25905350D01*
X72260350Y-26369784D01*
X72072500Y-26823294D01*
X71884650Y-26369784D01*
X71420216Y-25905350D01*
X70813404Y-25654000D01*
X70156596Y-25654000D01*
X69549784Y-25905350D01*
X69215000Y-26240134D01*
X68880216Y-25905350D01*
X68273404Y-25654000D01*
X67616596Y-25654000D01*
X67009784Y-25905350D01*
X66675000Y-26240134D01*
X66340216Y-25905350D01*
X65733404Y-25654000D01*
X65076596Y-25654000D01*
X64469784Y-25905350D01*
X64135000Y-26240134D01*
X63800216Y-25905350D01*
X63193404Y-25654000D01*
X62536596Y-25654000D01*
X61929784Y-25905350D01*
X61595000Y-26240134D01*
X61260216Y-25905350D01*
X60653404Y-25654000D01*
X59996596Y-25654000D01*
X59389784Y-25905350D01*
X59055000Y-26240134D01*
X58720216Y-25905350D01*
X58113404Y-25654000D01*
X57456596Y-25654000D01*
X56849784Y-25905350D01*
X56515000Y-26240134D01*
X56180216Y-25905350D01*
X55573404Y-25654000D01*
X54916596Y-25654000D01*
X54309784Y-25905350D01*
X53975000Y-26240134D01*
X53640216Y-25905350D01*
X53033404Y-25654000D01*
X52376596Y-25654000D01*
X51769784Y-25905350D01*
X51435000Y-26240134D01*
X51100216Y-25905350D01*
X50493404Y-25654000D01*
X49836596Y-25654000D01*
X49229784Y-25905350D01*
X48895000Y-26240134D01*
X48560216Y-25905350D01*
X47953404Y-25654000D01*
X47296596Y-25654000D01*
X46689784Y-25905350D01*
X46225350Y-26369784D01*
X45974000Y-26976596D01*
X45974000Y-27048487D01*
X42706263Y-23780750D01*
X46190000Y-23780750D01*
X46190000Y-24421310D01*
X46286673Y-24654699D01*
X46465302Y-24833327D01*
X46698691Y-24930000D01*
X47339250Y-24930000D01*
X47498000Y-24771250D01*
X47498000Y-23622000D01*
X46348750Y-23622000D01*
X46190000Y-23780750D01*
X42706263Y-23780750D01*
X42685420Y-23759907D01*
X42738113Y-23495000D01*
X42626740Y-22935091D01*
X42381919Y-22568690D01*
X46190000Y-22568690D01*
X46190000Y-23209250D01*
X46348750Y-23368000D01*
X47498000Y-23368000D01*
X47498000Y-22218750D01*
X47752000Y-22218750D01*
X47752000Y-23368000D01*
X47772000Y-23368000D01*
X47772000Y-23622000D01*
X47752000Y-23622000D01*
X47752000Y-24771250D01*
X47910750Y-24930000D01*
X48551309Y-24930000D01*
X48784698Y-24833327D01*
X48963327Y-24654699D01*
X49059266Y-24423083D01*
X49130423Y-24529577D01*
X49605091Y-24846740D01*
X50023667Y-24930000D01*
X50306333Y-24930000D01*
X50724909Y-24846740D01*
X51199577Y-24529577D01*
X51435000Y-24177242D01*
X51670423Y-24529577D01*
X52145091Y-24846740D01*
X52563667Y-24930000D01*
X52846333Y-24930000D01*
X53264909Y-24846740D01*
X53739577Y-24529577D01*
X53975000Y-24177242D01*
X54210423Y-24529577D01*
X54685091Y-24846740D01*
X55103667Y-24930000D01*
X55386333Y-24930000D01*
X55804909Y-24846740D01*
X56279577Y-24529577D01*
X56515000Y-24177242D01*
X56750423Y-24529577D01*
X57225091Y-24846740D01*
X57643667Y-24930000D01*
X57926333Y-24930000D01*
X58344909Y-24846740D01*
X58819577Y-24529577D01*
X59055000Y-24177242D01*
X59290423Y-24529577D01*
X59765091Y-24846740D01*
X60183667Y-24930000D01*
X60466333Y-24930000D01*
X60884909Y-24846740D01*
X61359577Y-24529577D01*
X61595000Y-24177242D01*
X61830423Y-24529577D01*
X62305091Y-24846740D01*
X62723667Y-24930000D01*
X63006333Y-24930000D01*
X63424909Y-24846740D01*
X63899577Y-24529577D01*
X64135000Y-24177242D01*
X64370423Y-24529577D01*
X64845091Y-24846740D01*
X65263667Y-24930000D01*
X65546333Y-24930000D01*
X65964909Y-24846740D01*
X66439577Y-24529577D01*
X66675000Y-24177242D01*
X66910423Y-24529577D01*
X67385091Y-24846740D01*
X67803667Y-24930000D01*
X68086333Y-24930000D01*
X68504909Y-24846740D01*
X68979577Y-24529577D01*
X69296740Y-24054909D01*
X69351273Y-23780750D01*
X69685000Y-23780750D01*
X69685000Y-24421310D01*
X69781673Y-24654699D01*
X69960302Y-24833327D01*
X70193691Y-24930000D01*
X70834250Y-24930000D01*
X70993000Y-24771250D01*
X70993000Y-23622000D01*
X69843750Y-23622000D01*
X69685000Y-23780750D01*
X69351273Y-23780750D01*
X69408113Y-23495000D01*
X69296740Y-22935091D01*
X69051919Y-22568690D01*
X69685000Y-22568690D01*
X69685000Y-23209250D01*
X69843750Y-23368000D01*
X70993000Y-23368000D01*
X70993000Y-22218750D01*
X71247000Y-22218750D01*
X71247000Y-23368000D01*
X71267000Y-23368000D01*
X71267000Y-23622000D01*
X71247000Y-23622000D01*
X71247000Y-24771250D01*
X71405750Y-24930000D01*
X72046309Y-24930000D01*
X72279698Y-24833327D01*
X72458327Y-24654699D01*
X72554266Y-24423083D01*
X72625423Y-24529577D01*
X73100091Y-24846740D01*
X73518667Y-24930000D01*
X73801333Y-24930000D01*
X74219909Y-24846740D01*
X74694577Y-24529577D01*
X74930000Y-24177242D01*
X75165423Y-24529577D01*
X75640091Y-24846740D01*
X76058667Y-24930000D01*
X76341333Y-24930000D01*
X76759909Y-24846740D01*
X77234577Y-24529577D01*
X77470000Y-24177242D01*
X77705423Y-24529577D01*
X78180091Y-24846740D01*
X78598667Y-24930000D01*
X78881333Y-24930000D01*
X79299909Y-24846740D01*
X79774577Y-24529577D01*
X80010000Y-24177242D01*
X80245423Y-24529577D01*
X80720091Y-24846740D01*
X81138667Y-24930000D01*
X81421333Y-24930000D01*
X81839909Y-24846740D01*
X82314577Y-24529577D01*
X82550000Y-24177242D01*
X82785423Y-24529577D01*
X83260091Y-24846740D01*
X83678667Y-24930000D01*
X83961333Y-24930000D01*
X84379909Y-24846740D01*
X84854577Y-24529577D01*
X85090000Y-24177242D01*
X85325423Y-24529577D01*
X85800091Y-24846740D01*
X86218667Y-24930000D01*
X86501333Y-24930000D01*
X86919909Y-24846740D01*
X87394577Y-24529577D01*
X87630000Y-24177242D01*
X87865423Y-24529577D01*
X88340091Y-24846740D01*
X88758667Y-24930000D01*
X89041333Y-24930000D01*
X89459909Y-24846740D01*
X89934577Y-24529577D01*
X90170000Y-24177242D01*
X90405423Y-24529577D01*
X90880091Y-24846740D01*
X91298667Y-24930000D01*
X91581333Y-24930000D01*
X91999909Y-24846740D01*
X92474577Y-24529577D01*
X92791740Y-24054909D01*
X92903113Y-23495000D01*
X92791740Y-22935091D01*
X92474577Y-22460423D01*
X91999909Y-22143260D01*
X91581333Y-22060000D01*
X91298667Y-22060000D01*
X90880091Y-22143260D01*
X90405423Y-22460423D01*
X90170000Y-22812758D01*
X89934577Y-22460423D01*
X89459909Y-22143260D01*
X89041333Y-22060000D01*
X88758667Y-22060000D01*
X88340091Y-22143260D01*
X87865423Y-22460423D01*
X87630000Y-22812758D01*
X87394577Y-22460423D01*
X86919909Y-22143260D01*
X86501333Y-22060000D01*
X86218667Y-22060000D01*
X85800091Y-22143260D01*
X85325423Y-22460423D01*
X85090000Y-22812758D01*
X84854577Y-22460423D01*
X84379909Y-22143260D01*
X83961333Y-22060000D01*
X83678667Y-22060000D01*
X83260091Y-22143260D01*
X82785423Y-22460423D01*
X82550000Y-22812758D01*
X82314577Y-22460423D01*
X81839909Y-22143260D01*
X81421333Y-22060000D01*
X81138667Y-22060000D01*
X80720091Y-22143260D01*
X80245423Y-22460423D01*
X80010000Y-22812758D01*
X79774577Y-22460423D01*
X79299909Y-22143260D01*
X78881333Y-22060000D01*
X78598667Y-22060000D01*
X78180091Y-22143260D01*
X77705423Y-22460423D01*
X77470000Y-22812758D01*
X77234577Y-22460423D01*
X76759909Y-22143260D01*
X76341333Y-22060000D01*
X76058667Y-22060000D01*
X75640091Y-22143260D01*
X75165423Y-22460423D01*
X74930000Y-22812758D01*
X74694577Y-22460423D01*
X74219909Y-22143260D01*
X73801333Y-22060000D01*
X73518667Y-22060000D01*
X73100091Y-22143260D01*
X72625423Y-22460423D01*
X72554266Y-22566917D01*
X72458327Y-22335301D01*
X72279698Y-22156673D01*
X72046309Y-22060000D01*
X71405750Y-22060000D01*
X71247000Y-22218750D01*
X70993000Y-22218750D01*
X70834250Y-22060000D01*
X70193691Y-22060000D01*
X69960302Y-22156673D01*
X69781673Y-22335301D01*
X69685000Y-22568690D01*
X69051919Y-22568690D01*
X68979577Y-22460423D01*
X68504909Y-22143260D01*
X68086333Y-22060000D01*
X67803667Y-22060000D01*
X67385091Y-22143260D01*
X66910423Y-22460423D01*
X66675000Y-22812758D01*
X66439577Y-22460423D01*
X65964909Y-22143260D01*
X65546333Y-22060000D01*
X65263667Y-22060000D01*
X64845091Y-22143260D01*
X64370423Y-22460423D01*
X64135000Y-22812758D01*
X63899577Y-22460423D01*
X63424909Y-22143260D01*
X63006333Y-22060000D01*
X62723667Y-22060000D01*
X62305091Y-22143260D01*
X61830423Y-22460423D01*
X61595000Y-22812758D01*
X61359577Y-22460423D01*
X60884909Y-22143260D01*
X60466333Y-22060000D01*
X60183667Y-22060000D01*
X59765091Y-22143260D01*
X59290423Y-22460423D01*
X59055000Y-22812758D01*
X58819577Y-22460423D01*
X58344909Y-22143260D01*
X57926333Y-22060000D01*
X57643667Y-22060000D01*
X57225091Y-22143260D01*
X56750423Y-22460423D01*
X56515000Y-22812758D01*
X56279577Y-22460423D01*
X55804909Y-22143260D01*
X55386333Y-22060000D01*
X55103667Y-22060000D01*
X54685091Y-22143260D01*
X54210423Y-22460423D01*
X53975000Y-22812758D01*
X53739577Y-22460423D01*
X53264909Y-22143260D01*
X52846333Y-22060000D01*
X52563667Y-22060000D01*
X52145091Y-22143260D01*
X51670423Y-22460423D01*
X51435000Y-22812758D01*
X51199577Y-22460423D01*
X50724909Y-22143260D01*
X50306333Y-22060000D01*
X50023667Y-22060000D01*
X49605091Y-22143260D01*
X49130423Y-22460423D01*
X49059266Y-22566917D01*
X48963327Y-22335301D01*
X48784698Y-22156673D01*
X48551309Y-22060000D01*
X47910750Y-22060000D01*
X47752000Y-22218750D01*
X47498000Y-22218750D01*
X47339250Y-22060000D01*
X46698691Y-22060000D01*
X46465302Y-22156673D01*
X46286673Y-22335301D01*
X46190000Y-22568690D01*
X42381919Y-22568690D01*
X42309577Y-22460423D01*
X41834909Y-22143260D01*
X41416333Y-22060000D01*
X41133667Y-22060000D01*
X40715091Y-22143260D01*
X40240423Y-22460423D01*
X39923260Y-22935091D01*
X39811887Y-23495000D01*
X39923260Y-24054909D01*
X40240423Y-24529577D01*
X40592758Y-24765000D01*
X40240423Y-25000423D01*
X39923260Y-25475091D01*
X39811887Y-26035000D01*
X39923260Y-26594909D01*
X40240423Y-27069577D01*
X40592758Y-27305000D01*
X40240423Y-27540423D01*
X39923260Y-28015091D01*
X39811887Y-28575000D01*
X39923260Y-29134909D01*
X40240423Y-29609577D01*
X40592758Y-29845000D01*
X40240423Y-30080423D01*
X39923260Y-30555091D01*
X39811887Y-31115000D01*
X39923260Y-31674909D01*
X40240423Y-32149577D01*
X40592758Y-32385000D01*
X40240423Y-32620423D01*
X39923260Y-33095091D01*
X39811887Y-33655000D01*
X39923260Y-34214909D01*
X40240423Y-34689577D01*
X40592758Y-34925000D01*
X40240423Y-35160423D01*
X40056957Y-35435000D01*
X34873043Y-35435000D01*
X34689577Y-35160423D01*
X34337242Y-34925000D01*
X34689577Y-34689577D01*
X35006740Y-34214909D01*
X35118113Y-33655000D01*
X35006740Y-33095091D01*
X34689577Y-32620423D01*
X34337242Y-32385000D01*
X34689577Y-32149577D01*
X35006740Y-31674909D01*
X35118113Y-31115000D01*
X35006740Y-30555091D01*
X34689577Y-30080423D01*
X34337242Y-29845000D01*
X34689577Y-29609577D01*
X35006740Y-29134909D01*
X35118113Y-28575000D01*
X35006740Y-28015091D01*
X34689577Y-27540423D01*
X34337242Y-27305000D01*
X34689577Y-27069577D01*
X35006740Y-26594909D01*
X35118113Y-26035000D01*
X35006740Y-25475091D01*
X34689577Y-25000423D01*
X34568894Y-24919785D01*
X34702765Y-24893157D01*
X34912809Y-24752809D01*
X35053157Y-24542765D01*
X35102440Y-24295000D01*
X35102440Y-22695000D01*
X35053157Y-22447235D01*
X34912809Y-22237191D01*
X34702765Y-22096843D01*
X34455000Y-22047560D01*
X32855000Y-22047560D01*
X32607235Y-22096843D01*
X32397191Y-22237191D01*
X32256843Y-22447235D01*
X32207560Y-22695000D01*
X32207560Y-24295000D01*
X32256843Y-24542765D01*
X32397191Y-24752809D01*
X32607235Y-24893157D01*
X32741106Y-24919785D01*
X32620423Y-25000423D01*
X32303260Y-25475091D01*
X32191887Y-26035000D01*
X32303260Y-26594909D01*
X32620423Y-27069577D01*
X32972758Y-27305000D01*
X32620423Y-27540423D01*
X32303260Y-28015091D01*
X32191887Y-28575000D01*
X32303260Y-29134909D01*
X32620423Y-29609577D01*
X32972758Y-29845000D01*
X32620423Y-30080423D01*
X32303260Y-30555091D01*
X32191887Y-31115000D01*
X32303260Y-31674909D01*
X32620423Y-32149577D01*
X32972758Y-32385000D01*
X32620423Y-32620423D01*
X32303260Y-33095091D01*
X32191887Y-33655000D01*
X32303260Y-34214909D01*
X32620423Y-34689577D01*
X32972758Y-34925000D01*
X32620423Y-35160423D01*
X32303260Y-35635091D01*
X32191887Y-36195000D01*
X32303260Y-36754909D01*
X32620423Y-37229577D01*
X33004108Y-37485947D01*
X32799866Y-37582611D01*
X32423959Y-37997577D01*
X32263096Y-38385961D01*
X32385085Y-38608000D01*
X33528000Y-38608000D01*
X33528000Y-38588000D01*
X33782000Y-38588000D01*
X33782000Y-38608000D01*
X34924915Y-38608000D01*
X35046904Y-38385961D01*
X34886041Y-37997577D01*
X34510134Y-37582611D01*
X34305892Y-37485947D01*
X34689577Y-37229577D01*
X34873043Y-36955000D01*
X40056957Y-36955000D01*
X40240423Y-37229577D01*
X40592758Y-37465000D01*
X40240423Y-37700423D01*
X39923260Y-38175091D01*
X39811887Y-38735000D01*
X39923260Y-39294909D01*
X40240423Y-39769577D01*
X40270694Y-39789804D01*
X31436330Y-48624169D01*
X31372871Y-48666571D01*
X31204896Y-48917964D01*
X31160800Y-49139649D01*
X31160800Y-49139653D01*
X31145912Y-49214500D01*
X28015000Y-49214500D01*
X28015000Y-39084039D01*
X32263096Y-39084039D01*
X32423959Y-39472423D01*
X32799866Y-39887389D01*
X33305959Y-40126914D01*
X33528000Y-40005629D01*
X33528000Y-38862000D01*
X33782000Y-38862000D01*
X33782000Y-40005629D01*
X34004041Y-40126914D01*
X34510134Y-39887389D01*
X34886041Y-39472423D01*
X35046904Y-39084039D01*
X34924915Y-38862000D01*
X33782000Y-38862000D01*
X33528000Y-38862000D01*
X32385085Y-38862000D01*
X32263096Y-39084039D01*
X28015000Y-39084039D01*
X28015000Y-17855000D01*
X107875000Y-17855000D01*
X107875001Y-98985000D01*
G36*
X42052271Y-84194473D02*
X42094671Y-84257929D01*
X42346063Y-84425904D01*
X42567748Y-84470000D01*
X42567752Y-84470000D01*
X42642599Y-84484888D01*
X42717446Y-84470000D01*
X44408412Y-84470000D01*
X44368260Y-84530091D01*
X44256887Y-85090000D01*
X44368260Y-85649909D01*
X44685423Y-86124577D01*
X45069108Y-86380947D01*
X44864866Y-86477611D01*
X44488959Y-86892577D01*
X44328096Y-87280961D01*
X44450085Y-87503000D01*
X45593000Y-87503000D01*
X45593000Y-87483000D01*
X45847000Y-87483000D01*
X45847000Y-87503000D01*
X46989915Y-87503000D01*
X47111904Y-87280961D01*
X46951041Y-86892577D01*
X46575134Y-86477611D01*
X46370892Y-86380947D01*
X46754577Y-86124577D01*
X47071740Y-85649909D01*
X47183113Y-85090000D01*
X47071740Y-84530091D01*
X47031588Y-84470000D01*
X52028412Y-84470000D01*
X51988260Y-84530091D01*
X51876887Y-85090000D01*
X51988260Y-85649909D01*
X52305423Y-86124577D01*
X52657758Y-86360000D01*
X52305423Y-86595423D01*
X51988260Y-87070091D01*
X51876887Y-87630000D01*
X51988260Y-88189909D01*
X52305423Y-88664577D01*
X52780091Y-88981740D01*
X53198667Y-89065000D01*
X53481333Y-89065000D01*
X53899909Y-88981740D01*
X54374577Y-88664577D01*
X54560786Y-88385896D01*
X54761837Y-88345904D01*
X55013229Y-88177929D01*
X55055631Y-88114470D01*
X55191062Y-87979039D01*
X58298096Y-87979039D01*
X58458959Y-88367423D01*
X58834866Y-88782389D01*
X59340959Y-89021914D01*
X59563000Y-88900629D01*
X59563000Y-87757000D01*
X59817000Y-87757000D01*
X59817000Y-88900629D01*
X60039041Y-89021914D01*
X60545134Y-88782389D01*
X60921041Y-88367423D01*
X61081904Y-87979039D01*
X60959915Y-87757000D01*
X59817000Y-87757000D01*
X59563000Y-87757000D01*
X58420085Y-87757000D01*
X58298096Y-87979039D01*
X55191062Y-87979039D01*
X55905402Y-87264700D01*
X58304831Y-87264700D01*
X58298096Y-87280961D01*
X58420085Y-87503000D01*
X59563000Y-87503000D01*
X59563000Y-87483000D01*
X59817000Y-87483000D01*
X59817000Y-87503000D01*
X60959915Y-87503000D01*
X61081904Y-87280961D01*
X61075169Y-87264700D01*
X64744599Y-87264700D01*
X65594371Y-88114473D01*
X65636771Y-88177929D01*
X65888163Y-88345904D01*
X66089214Y-88385896D01*
X66275423Y-88664577D01*
X66750091Y-88981740D01*
X67168667Y-89065000D01*
X67451333Y-89065000D01*
X67869909Y-88981740D01*
X68344577Y-88664577D01*
X68661740Y-88189909D01*
X68773113Y-87630000D01*
X68661740Y-87070091D01*
X68344577Y-86595423D01*
X67992242Y-86360000D01*
X68344577Y-86124577D01*
X68364804Y-86094305D01*
X72391304Y-90120806D01*
X72308260Y-90245091D01*
X72196887Y-90805000D01*
X72308260Y-91364909D01*
X72625423Y-91839577D01*
X73009108Y-92095947D01*
X72804866Y-92192611D01*
X72428959Y-92607577D01*
X72268096Y-92995961D01*
X72390085Y-93218000D01*
X73533000Y-93218000D01*
X73533000Y-93198000D01*
X73787000Y-93198000D01*
X73787000Y-93218000D01*
X74929915Y-93218000D01*
X75051904Y-92995961D01*
X74891041Y-92607577D01*
X74515134Y-92192611D01*
X74310892Y-92095947D01*
X74694577Y-91839577D01*
X74714804Y-91809305D01*
X75320271Y-92414773D01*
X75362671Y-92478229D01*
X75614063Y-92646204D01*
X75835748Y-92690300D01*
X75835752Y-92690300D01*
X75910600Y-92705188D01*
X75985448Y-92690300D01*
X79991597Y-92690300D01*
X79928260Y-92785091D01*
X79816887Y-93345000D01*
X79928260Y-93904909D01*
X80202007Y-94314600D01*
X74680718Y-94314600D01*
X74891041Y-94082423D01*
X75051904Y-93694039D01*
X74929915Y-93472000D01*
X73787000Y-93472000D01*
X73787000Y-93492000D01*
X73533000Y-93492000D01*
X73533000Y-93472000D01*
X72390085Y-93472000D01*
X72268096Y-93694039D01*
X72428959Y-94082423D01*
X72639282Y-94314600D01*
X50335902Y-94314600D01*
X44000341Y-87979039D01*
X44328096Y-87979039D01*
X44488959Y-88367423D01*
X44864866Y-88782389D01*
X45370959Y-89021914D01*
X45593000Y-88900629D01*
X45593000Y-87757000D01*
X45847000Y-87757000D01*
X45847000Y-88900629D01*
X46069041Y-89021914D01*
X46575134Y-88782389D01*
X46951041Y-88367423D01*
X47111904Y-87979039D01*
X46989915Y-87757000D01*
X45847000Y-87757000D01*
X45593000Y-87757000D01*
X44450085Y-87757000D01*
X44328096Y-87979039D01*
X44000341Y-87979039D01*
X38721831Y-82700530D01*
X38679429Y-82637071D01*
X38428037Y-82469096D01*
X38206352Y-82425000D01*
X38206347Y-82425000D01*
X38131500Y-82410112D01*
X38056653Y-82425000D01*
X34933178Y-82425000D01*
X34725625Y-82114375D01*
X34427239Y-81915000D01*
X34725625Y-81715625D01*
X35053839Y-81224418D01*
X35169092Y-80645000D01*
X35053839Y-80065582D01*
X34725625Y-79574375D01*
X34427239Y-79375000D01*
X34725625Y-79175625D01*
X34933178Y-78865000D01*
X36722799Y-78865000D01*
X42052271Y-84194473D01*
X42052271Y-84194473D01*
G37*
X42052271Y-84194473D02*
X42094671Y-84257929D01*
X42346063Y-84425904D01*
X42567748Y-84470000D01*
X42567752Y-84470000D01*
X42642599Y-84484888D01*
X42717446Y-84470000D01*
X44408412Y-84470000D01*
X44368260Y-84530091D01*
X44256887Y-85090000D01*
X44368260Y-85649909D01*
X44685423Y-86124577D01*
X45069108Y-86380947D01*
X44864866Y-86477611D01*
X44488959Y-86892577D01*
X44328096Y-87280961D01*
X44450085Y-87503000D01*
X45593000Y-87503000D01*
X45593000Y-87483000D01*
X45847000Y-87483000D01*
X45847000Y-87503000D01*
X46989915Y-87503000D01*
X47111904Y-87280961D01*
X46951041Y-86892577D01*
X46575134Y-86477611D01*
X46370892Y-86380947D01*
X46754577Y-86124577D01*
X47071740Y-85649909D01*
X47183113Y-85090000D01*
X47071740Y-84530091D01*
X47031588Y-84470000D01*
X52028412Y-84470000D01*
X51988260Y-84530091D01*
X51876887Y-85090000D01*
X51988260Y-85649909D01*
X52305423Y-86124577D01*
X52657758Y-86360000D01*
X52305423Y-86595423D01*
X51988260Y-87070091D01*
X51876887Y-87630000D01*
X51988260Y-88189909D01*
X52305423Y-88664577D01*
X52780091Y-88981740D01*
X53198667Y-89065000D01*
X53481333Y-89065000D01*
X53899909Y-88981740D01*
X54374577Y-88664577D01*
X54560786Y-88385896D01*
X54761837Y-88345904D01*
X55013229Y-88177929D01*
X55055631Y-88114470D01*
X55191062Y-87979039D01*
X58298096Y-87979039D01*
X58458959Y-88367423D01*
X58834866Y-88782389D01*
X59340959Y-89021914D01*
X59563000Y-88900629D01*
X59563000Y-87757000D01*
X59817000Y-87757000D01*
X59817000Y-88900629D01*
X60039041Y-89021914D01*
X60545134Y-88782389D01*
X60921041Y-88367423D01*
X61081904Y-87979039D01*
X60959915Y-87757000D01*
X59817000Y-87757000D01*
X59563000Y-87757000D01*
X58420085Y-87757000D01*
X58298096Y-87979039D01*
X55191062Y-87979039D01*
X55905402Y-87264700D01*
X58304831Y-87264700D01*
X58298096Y-87280961D01*
X58420085Y-87503000D01*
X59563000Y-87503000D01*
X59563000Y-87483000D01*
X59817000Y-87483000D01*
X59817000Y-87503000D01*
X60959915Y-87503000D01*
X61081904Y-87280961D01*
X61075169Y-87264700D01*
X64744599Y-87264700D01*
X65594371Y-88114473D01*
X65636771Y-88177929D01*
X65888163Y-88345904D01*
X66089214Y-88385896D01*
X66275423Y-88664577D01*
X66750091Y-88981740D01*
X67168667Y-89065000D01*
X67451333Y-89065000D01*
X67869909Y-88981740D01*
X68344577Y-88664577D01*
X68661740Y-88189909D01*
X68773113Y-87630000D01*
X68661740Y-87070091D01*
X68344577Y-86595423D01*
X67992242Y-86360000D01*
X68344577Y-86124577D01*
X68364804Y-86094305D01*
X72391304Y-90120806D01*
X72308260Y-90245091D01*
X72196887Y-90805000D01*
X72308260Y-91364909D01*
X72625423Y-91839577D01*
X73009108Y-92095947D01*
X72804866Y-92192611D01*
X72428959Y-92607577D01*
X72268096Y-92995961D01*
X72390085Y-93218000D01*
X73533000Y-93218000D01*
X73533000Y-93198000D01*
X73787000Y-93198000D01*
X73787000Y-93218000D01*
X74929915Y-93218000D01*
X75051904Y-92995961D01*
X74891041Y-92607577D01*
X74515134Y-92192611D01*
X74310892Y-92095947D01*
X74694577Y-91839577D01*
X74714804Y-91809305D01*
X75320271Y-92414773D01*
X75362671Y-92478229D01*
X75614063Y-92646204D01*
X75835748Y-92690300D01*
X75835752Y-92690300D01*
X75910600Y-92705188D01*
X75985448Y-92690300D01*
X79991597Y-92690300D01*
X79928260Y-92785091D01*
X79816887Y-93345000D01*
X79928260Y-93904909D01*
X80202007Y-94314600D01*
X74680718Y-94314600D01*
X74891041Y-94082423D01*
X75051904Y-93694039D01*
X74929915Y-93472000D01*
X73787000Y-93472000D01*
X73787000Y-93492000D01*
X73533000Y-93492000D01*
X73533000Y-93472000D01*
X72390085Y-93472000D01*
X72268096Y-93694039D01*
X72428959Y-94082423D01*
X72639282Y-94314600D01*
X50335902Y-94314600D01*
X44000341Y-87979039D01*
X44328096Y-87979039D01*
X44488959Y-88367423D01*
X44864866Y-88782389D01*
X45370959Y-89021914D01*
X45593000Y-88900629D01*
X45593000Y-87757000D01*
X45847000Y-87757000D01*
X45847000Y-88900629D01*
X46069041Y-89021914D01*
X46575134Y-88782389D01*
X46951041Y-88367423D01*
X47111904Y-87979039D01*
X46989915Y-87757000D01*
X45847000Y-87757000D01*
X45593000Y-87757000D01*
X44450085Y-87757000D01*
X44328096Y-87979039D01*
X44000341Y-87979039D01*
X38721831Y-82700530D01*
X38679429Y-82637071D01*
X38428037Y-82469096D01*
X38206352Y-82425000D01*
X38206347Y-82425000D01*
X38131500Y-82410112D01*
X38056653Y-82425000D01*
X34933178Y-82425000D01*
X34725625Y-82114375D01*
X34427239Y-81915000D01*
X34725625Y-81715625D01*
X35053839Y-81224418D01*
X35169092Y-80645000D01*
X35053839Y-80065582D01*
X34725625Y-79574375D01*
X34427239Y-79375000D01*
X34725625Y-79175625D01*
X34933178Y-78865000D01*
X36722799Y-78865000D01*
X42052271Y-84194473D01*
G36*
X86595423Y-91839577D02*
X86979108Y-92095947D01*
X86774866Y-92192611D01*
X86398959Y-92607577D01*
X86238096Y-92995961D01*
X86360085Y-93218000D01*
X87503000Y-93218000D01*
X87503000Y-93198000D01*
X87757000Y-93198000D01*
X87757000Y-93218000D01*
X87777000Y-93218000D01*
X87777000Y-93472000D01*
X87757000Y-93472000D01*
X87757000Y-93492000D01*
X87503000Y-93492000D01*
X87503000Y-93472000D01*
X86360085Y-93472000D01*
X86238096Y-93694039D01*
X86398959Y-94082423D01*
X86609282Y-94314600D01*
X82357993Y-94314600D01*
X82631740Y-93904909D01*
X82743113Y-93345000D01*
X82631740Y-92785091D01*
X82568403Y-92690300D01*
X85304553Y-92690300D01*
X85379400Y-92705188D01*
X85454247Y-92690300D01*
X85454252Y-92690300D01*
X85675937Y-92646204D01*
X85927329Y-92478229D01*
X85969731Y-92414770D01*
X86575196Y-91809305D01*
X86595423Y-91839577D01*
X86595423Y-91839577D01*
G37*
X86595423Y-91839577D02*
X86979108Y-92095947D01*
X86774866Y-92192611D01*
X86398959Y-92607577D01*
X86238096Y-92995961D01*
X86360085Y-93218000D01*
X87503000Y-93218000D01*
X87503000Y-93198000D01*
X87757000Y-93198000D01*
X87757000Y-93218000D01*
X87777000Y-93218000D01*
X87777000Y-93472000D01*
X87757000Y-93472000D01*
X87757000Y-93492000D01*
X87503000Y-93492000D01*
X87503000Y-93472000D01*
X86360085Y-93472000D01*
X86238096Y-93694039D01*
X86398959Y-94082423D01*
X86609282Y-94314600D01*
X82357993Y-94314600D01*
X82631740Y-93904909D01*
X82743113Y-93345000D01*
X82631740Y-92785091D01*
X82568403Y-92690300D01*
X85304553Y-92690300D01*
X85379400Y-92705188D01*
X85454247Y-92690300D01*
X85454252Y-92690300D01*
X85675937Y-92646204D01*
X85927329Y-92478229D01*
X85969731Y-92414770D01*
X86575196Y-91809305D01*
X86595423Y-91839577D01*
G36*
X94215423Y-42309577D02*
X94567758Y-42545000D01*
X94215423Y-42780423D01*
X93898260Y-43255091D01*
X93786887Y-43815000D01*
X93851312Y-44138887D01*
X93640230Y-44349969D01*
X93576771Y-44392371D01*
X93408796Y-44643764D01*
X93364700Y-44865449D01*
X93364700Y-44865453D01*
X93349812Y-44940300D01*
X93364700Y-45015147D01*
X93364701Y-71824848D01*
X93349812Y-71899700D01*
X93408797Y-72196237D01*
X93525068Y-72370248D01*
X93576772Y-72447629D01*
X93640228Y-72490029D01*
X93851312Y-72701113D01*
X93786887Y-73025000D01*
X93851312Y-73348887D01*
X93640228Y-73559971D01*
X93576772Y-73602371D01*
X93534372Y-73665827D01*
X93534371Y-73665828D01*
X93408797Y-73853763D01*
X93349812Y-74150300D01*
X93364701Y-74225152D01*
X93364700Y-88814198D01*
X89578200Y-92600699D01*
X89578200Y-85393646D01*
X89593088Y-85318799D01*
X89578200Y-85243952D01*
X89578200Y-85243948D01*
X89534104Y-85022263D01*
X89449896Y-84896237D01*
X89408529Y-84834326D01*
X89408527Y-84834324D01*
X89366129Y-84770871D01*
X89302676Y-84728473D01*
X88716328Y-84142126D01*
X88981740Y-83744909D01*
X89093113Y-83185000D01*
X88981740Y-82625091D01*
X88664577Y-82150423D01*
X88312242Y-81915000D01*
X88664577Y-81679577D01*
X88981740Y-81204909D01*
X89093113Y-80645000D01*
X88981740Y-80085091D01*
X88664577Y-79610423D01*
X88312242Y-79375000D01*
X88664577Y-79139577D01*
X88981740Y-78664909D01*
X89093113Y-78105000D01*
X88981740Y-77545091D01*
X88664577Y-77070423D01*
X88312242Y-76835000D01*
X88664577Y-76599577D01*
X88981740Y-76124909D01*
X89093113Y-75565000D01*
X88981740Y-75005091D01*
X88664577Y-74530423D01*
X88312242Y-74295000D01*
X88664577Y-74059577D01*
X88981740Y-73584909D01*
X89093113Y-73025000D01*
X88981740Y-72465091D01*
X88664577Y-71990423D01*
X88543894Y-71909785D01*
X88677765Y-71883157D01*
X88887809Y-71742809D01*
X89028157Y-71532765D01*
X89077440Y-71285000D01*
X89077440Y-69685000D01*
X89028157Y-69437235D01*
X88887809Y-69227191D01*
X88677765Y-69086843D01*
X88430000Y-69037560D01*
X86830000Y-69037560D01*
X86582235Y-69086843D01*
X86372191Y-69227191D01*
X86231843Y-69437235D01*
X86184549Y-69675000D01*
X82464635Y-69675000D01*
X82314577Y-69450423D01*
X81839909Y-69133260D01*
X81421333Y-69050000D01*
X81138667Y-69050000D01*
X80720091Y-69133260D01*
X80245423Y-69450423D01*
X80095365Y-69675000D01*
X75105451Y-69675000D01*
X75058157Y-69437235D01*
X74917809Y-69227191D01*
X74707765Y-69086843D01*
X74460000Y-69037560D01*
X72860000Y-69037560D01*
X72612235Y-69086843D01*
X72402191Y-69227191D01*
X72393971Y-69239492D01*
X72165746Y-69086997D01*
X71929474Y-69040000D01*
X71929473Y-69040000D01*
X71849700Y-69024132D01*
X71769927Y-69040000D01*
X68494635Y-69040000D01*
X68344577Y-68815423D01*
X67869909Y-68498260D01*
X67451333Y-68415000D01*
X67168667Y-68415000D01*
X66750091Y-68498260D01*
X66617942Y-68586559D01*
X70720462Y-64484039D01*
X72268096Y-64484039D01*
X72428959Y-64872423D01*
X72804866Y-65287389D01*
X73310959Y-65526914D01*
X73533000Y-65405629D01*
X73533000Y-64262000D01*
X73787000Y-64262000D01*
X73787000Y-65405629D01*
X74009041Y-65526914D01*
X74515134Y-65287389D01*
X74891041Y-64872423D01*
X75051904Y-64484039D01*
X74929915Y-64262000D01*
X73787000Y-64262000D01*
X73533000Y-64262000D01*
X72390085Y-64262000D01*
X72268096Y-64484039D01*
X70720462Y-64484039D01*
X72605196Y-62599306D01*
X72625423Y-62629577D01*
X73009108Y-62885947D01*
X72804866Y-62982611D01*
X72428959Y-63397577D01*
X72268096Y-63785961D01*
X72390085Y-64008000D01*
X73533000Y-64008000D01*
X73533000Y-63988000D01*
X73787000Y-63988000D01*
X73787000Y-64008000D01*
X74929915Y-64008000D01*
X75051904Y-63785961D01*
X74891041Y-63397577D01*
X74515134Y-62982611D01*
X74310892Y-62885947D01*
X74694577Y-62629577D01*
X74880786Y-62350896D01*
X75081837Y-62310904D01*
X75333229Y-62142929D01*
X75375631Y-62079470D01*
X76225402Y-61229700D01*
X79889550Y-61229700D01*
X79816887Y-61595000D01*
X79928260Y-62154909D01*
X80245423Y-62629577D01*
X80597758Y-62865000D01*
X80245423Y-63100423D01*
X79928260Y-63575091D01*
X79816887Y-64135000D01*
X79928260Y-64694909D01*
X80245423Y-65169577D01*
X80720091Y-65486740D01*
X81138667Y-65570000D01*
X81421333Y-65570000D01*
X81839909Y-65486740D01*
X82314577Y-65169577D01*
X82631740Y-64694909D01*
X82673684Y-64484039D01*
X86238096Y-64484039D01*
X86398959Y-64872423D01*
X86774866Y-65287389D01*
X87280959Y-65526914D01*
X87503000Y-65405629D01*
X87503000Y-64262000D01*
X87757000Y-64262000D01*
X87757000Y-65405629D01*
X87979041Y-65526914D01*
X88485134Y-65287389D01*
X88861041Y-64872423D01*
X89021904Y-64484039D01*
X88899915Y-64262000D01*
X87757000Y-64262000D01*
X87503000Y-64262000D01*
X86360085Y-64262000D01*
X86238096Y-64484039D01*
X82673684Y-64484039D01*
X82743113Y-64135000D01*
X82631740Y-63575091D01*
X82314577Y-63100423D01*
X81962242Y-62865000D01*
X82314577Y-62629577D01*
X82631740Y-62154909D01*
X82743113Y-61595000D01*
X82670450Y-61229700D01*
X85064599Y-61229700D01*
X85914371Y-62079473D01*
X85956771Y-62142929D01*
X86208163Y-62310904D01*
X86409214Y-62350896D01*
X86595423Y-62629577D01*
X86979108Y-62885947D01*
X86774866Y-62982611D01*
X86398959Y-63397577D01*
X86238096Y-63785961D01*
X86360085Y-64008000D01*
X87503000Y-64008000D01*
X87503000Y-63988000D01*
X87757000Y-63988000D01*
X87757000Y-64008000D01*
X88899915Y-64008000D01*
X89021904Y-63785961D01*
X88861041Y-63397577D01*
X88485134Y-62982611D01*
X88280892Y-62885947D01*
X88664577Y-62629577D01*
X88981740Y-62154909D01*
X89093113Y-61595000D01*
X88981740Y-61035091D01*
X88664577Y-60560423D01*
X88312242Y-60325000D01*
X88664577Y-60089577D01*
X88981740Y-59614909D01*
X89093113Y-59055000D01*
X88981740Y-58495091D01*
X88664577Y-58020423D01*
X88312242Y-57785000D01*
X88664577Y-57549577D01*
X88981740Y-57074909D01*
X89093113Y-56515000D01*
X88981740Y-55955091D01*
X88664577Y-55480423D01*
X88312242Y-55245000D01*
X88664577Y-55009577D01*
X88981740Y-54534909D01*
X89093113Y-53975000D01*
X88981740Y-53415091D01*
X88664577Y-52940423D01*
X88312242Y-52705000D01*
X88664577Y-52469577D01*
X88981740Y-51994909D01*
X89093113Y-51435000D01*
X88981740Y-50875091D01*
X88664577Y-50400423D01*
X88312242Y-50165000D01*
X88664577Y-49929577D01*
X88981740Y-49454909D01*
X89093113Y-48895000D01*
X88981740Y-48335091D01*
X88729426Y-47957476D01*
X89248273Y-47438629D01*
X89311729Y-47396229D01*
X89357009Y-47328463D01*
X89479704Y-47144838D01*
X89489280Y-47096695D01*
X89523800Y-46923152D01*
X89523800Y-46923148D01*
X89538688Y-46848300D01*
X89523800Y-46773452D01*
X89523800Y-43385847D01*
X89538688Y-43311000D01*
X89523800Y-43236153D01*
X89523800Y-43236148D01*
X89479704Y-43014463D01*
X89311729Y-42763071D01*
X89248273Y-42720671D01*
X88956944Y-42429342D01*
X89028157Y-42322765D01*
X89075451Y-42085000D01*
X94065365Y-42085000D01*
X94215423Y-42309577D01*
X94215423Y-42309577D01*
G37*
X94215423Y-42309577D02*
X94567758Y-42545000D01*
X94215423Y-42780423D01*
X93898260Y-43255091D01*
X93786887Y-43815000D01*
X93851312Y-44138887D01*
X93640230Y-44349969D01*
X93576771Y-44392371D01*
X93408796Y-44643764D01*
X93364700Y-44865449D01*
X93364700Y-44865453D01*
X93349812Y-44940300D01*
X93364700Y-45015147D01*
X93364701Y-71824848D01*
X93349812Y-71899700D01*
X93408797Y-72196237D01*
X93525068Y-72370248D01*
X93576772Y-72447629D01*
X93640228Y-72490029D01*
X93851312Y-72701113D01*
X93786887Y-73025000D01*
X93851312Y-73348887D01*
X93640228Y-73559971D01*
X93576772Y-73602371D01*
X93534372Y-73665827D01*
X93534371Y-73665828D01*
X93408797Y-73853763D01*
X93349812Y-74150300D01*
X93364701Y-74225152D01*
X93364700Y-88814198D01*
X89578200Y-92600699D01*
X89578200Y-85393646D01*
X89593088Y-85318799D01*
X89578200Y-85243952D01*
X89578200Y-85243948D01*
X89534104Y-85022263D01*
X89449896Y-84896237D01*
X89408529Y-84834326D01*
X89408527Y-84834324D01*
X89366129Y-84770871D01*
X89302676Y-84728473D01*
X88716328Y-84142126D01*
X88981740Y-83744909D01*
X89093113Y-83185000D01*
X88981740Y-82625091D01*
X88664577Y-82150423D01*
X88312242Y-81915000D01*
X88664577Y-81679577D01*
X88981740Y-81204909D01*
X89093113Y-80645000D01*
X88981740Y-80085091D01*
X88664577Y-79610423D01*
X88312242Y-79375000D01*
X88664577Y-79139577D01*
X88981740Y-78664909D01*
X89093113Y-78105000D01*
X88981740Y-77545091D01*
X88664577Y-77070423D01*
X88312242Y-76835000D01*
X88664577Y-76599577D01*
X88981740Y-76124909D01*
X89093113Y-75565000D01*
X88981740Y-75005091D01*
X88664577Y-74530423D01*
X88312242Y-74295000D01*
X88664577Y-74059577D01*
X88981740Y-73584909D01*
X89093113Y-73025000D01*
X88981740Y-72465091D01*
X88664577Y-71990423D01*
X88543894Y-71909785D01*
X88677765Y-71883157D01*
X88887809Y-71742809D01*
X89028157Y-71532765D01*
X89077440Y-71285000D01*
X89077440Y-69685000D01*
X89028157Y-69437235D01*
X88887809Y-69227191D01*
X88677765Y-69086843D01*
X88430000Y-69037560D01*
X86830000Y-69037560D01*
X86582235Y-69086843D01*
X86372191Y-69227191D01*
X86231843Y-69437235D01*
X86184549Y-69675000D01*
X82464635Y-69675000D01*
X82314577Y-69450423D01*
X81839909Y-69133260D01*
X81421333Y-69050000D01*
X81138667Y-69050000D01*
X80720091Y-69133260D01*
X80245423Y-69450423D01*
X80095365Y-69675000D01*
X75105451Y-69675000D01*
X75058157Y-69437235D01*
X74917809Y-69227191D01*
X74707765Y-69086843D01*
X74460000Y-69037560D01*
X72860000Y-69037560D01*
X72612235Y-69086843D01*
X72402191Y-69227191D01*
X72393971Y-69239492D01*
X72165746Y-69086997D01*
X71929474Y-69040000D01*
X71929473Y-69040000D01*
X71849700Y-69024132D01*
X71769927Y-69040000D01*
X68494635Y-69040000D01*
X68344577Y-68815423D01*
X67869909Y-68498260D01*
X67451333Y-68415000D01*
X67168667Y-68415000D01*
X66750091Y-68498260D01*
X66617942Y-68586559D01*
X70720462Y-64484039D01*
X72268096Y-64484039D01*
X72428959Y-64872423D01*
X72804866Y-65287389D01*
X73310959Y-65526914D01*
X73533000Y-65405629D01*
X73533000Y-64262000D01*
X73787000Y-64262000D01*
X73787000Y-65405629D01*
X74009041Y-65526914D01*
X74515134Y-65287389D01*
X74891041Y-64872423D01*
X75051904Y-64484039D01*
X74929915Y-64262000D01*
X73787000Y-64262000D01*
X73533000Y-64262000D01*
X72390085Y-64262000D01*
X72268096Y-64484039D01*
X70720462Y-64484039D01*
X72605196Y-62599306D01*
X72625423Y-62629577D01*
X73009108Y-62885947D01*
X72804866Y-62982611D01*
X72428959Y-63397577D01*
X72268096Y-63785961D01*
X72390085Y-64008000D01*
X73533000Y-64008000D01*
X73533000Y-63988000D01*
X73787000Y-63988000D01*
X73787000Y-64008000D01*
X74929915Y-64008000D01*
X75051904Y-63785961D01*
X74891041Y-63397577D01*
X74515134Y-62982611D01*
X74310892Y-62885947D01*
X74694577Y-62629577D01*
X74880786Y-62350896D01*
X75081837Y-62310904D01*
X75333229Y-62142929D01*
X75375631Y-62079470D01*
X76225402Y-61229700D01*
X79889550Y-61229700D01*
X79816887Y-61595000D01*
X79928260Y-62154909D01*
X80245423Y-62629577D01*
X80597758Y-62865000D01*
X80245423Y-63100423D01*
X79928260Y-63575091D01*
X79816887Y-64135000D01*
X79928260Y-64694909D01*
X80245423Y-65169577D01*
X80720091Y-65486740D01*
X81138667Y-65570000D01*
X81421333Y-65570000D01*
X81839909Y-65486740D01*
X82314577Y-65169577D01*
X82631740Y-64694909D01*
X82673684Y-64484039D01*
X86238096Y-64484039D01*
X86398959Y-64872423D01*
X86774866Y-65287389D01*
X87280959Y-65526914D01*
X87503000Y-65405629D01*
X87503000Y-64262000D01*
X87757000Y-64262000D01*
X87757000Y-65405629D01*
X87979041Y-65526914D01*
X88485134Y-65287389D01*
X88861041Y-64872423D01*
X89021904Y-64484039D01*
X88899915Y-64262000D01*
X87757000Y-64262000D01*
X87503000Y-64262000D01*
X86360085Y-64262000D01*
X86238096Y-64484039D01*
X82673684Y-64484039D01*
X82743113Y-64135000D01*
X82631740Y-63575091D01*
X82314577Y-63100423D01*
X81962242Y-62865000D01*
X82314577Y-62629577D01*
X82631740Y-62154909D01*
X82743113Y-61595000D01*
X82670450Y-61229700D01*
X85064599Y-61229700D01*
X85914371Y-62079473D01*
X85956771Y-62142929D01*
X86208163Y-62310904D01*
X86409214Y-62350896D01*
X86595423Y-62629577D01*
X86979108Y-62885947D01*
X86774866Y-62982611D01*
X86398959Y-63397577D01*
X86238096Y-63785961D01*
X86360085Y-64008000D01*
X87503000Y-64008000D01*
X87503000Y-63988000D01*
X87757000Y-63988000D01*
X87757000Y-64008000D01*
X88899915Y-64008000D01*
X89021904Y-63785961D01*
X88861041Y-63397577D01*
X88485134Y-62982611D01*
X88280892Y-62885947D01*
X88664577Y-62629577D01*
X88981740Y-62154909D01*
X89093113Y-61595000D01*
X88981740Y-61035091D01*
X88664577Y-60560423D01*
X88312242Y-60325000D01*
X88664577Y-60089577D01*
X88981740Y-59614909D01*
X89093113Y-59055000D01*
X88981740Y-58495091D01*
X88664577Y-58020423D01*
X88312242Y-57785000D01*
X88664577Y-57549577D01*
X88981740Y-57074909D01*
X89093113Y-56515000D01*
X88981740Y-55955091D01*
X88664577Y-55480423D01*
X88312242Y-55245000D01*
X88664577Y-55009577D01*
X88981740Y-54534909D01*
X89093113Y-53975000D01*
X88981740Y-53415091D01*
X88664577Y-52940423D01*
X88312242Y-52705000D01*
X88664577Y-52469577D01*
X88981740Y-51994909D01*
X89093113Y-51435000D01*
X88981740Y-50875091D01*
X88664577Y-50400423D01*
X88312242Y-50165000D01*
X88664577Y-49929577D01*
X88981740Y-49454909D01*
X89093113Y-48895000D01*
X88981740Y-48335091D01*
X88729426Y-47957476D01*
X89248273Y-47438629D01*
X89311729Y-47396229D01*
X89357009Y-47328463D01*
X89479704Y-47144838D01*
X89489280Y-47096695D01*
X89523800Y-46923152D01*
X89523800Y-46923148D01*
X89538688Y-46848300D01*
X89523800Y-46773452D01*
X89523800Y-43385847D01*
X89538688Y-43311000D01*
X89523800Y-43236153D01*
X89523800Y-43236148D01*
X89479704Y-43014463D01*
X89311729Y-42763071D01*
X89248273Y-42720671D01*
X88956944Y-42429342D01*
X89028157Y-42322765D01*
X89075451Y-42085000D01*
X94065365Y-42085000D01*
X94215423Y-42309577D01*
G36*
X44368260Y-48335091D02*
X44256887Y-48895000D01*
X44368260Y-49454909D01*
X44685423Y-49929577D01*
X45037758Y-50165000D01*
X44685423Y-50400423D01*
X44368260Y-50875091D01*
X44256887Y-51435000D01*
X44368260Y-51994909D01*
X44685423Y-52469577D01*
X45037758Y-52705000D01*
X44685423Y-52940423D01*
X44368260Y-53415091D01*
X44256887Y-53975000D01*
X44368260Y-54534909D01*
X44685423Y-55009577D01*
X45037758Y-55245000D01*
X44685423Y-55480423D01*
X44368260Y-55955091D01*
X44256887Y-56515000D01*
X44368260Y-57074909D01*
X44685423Y-57549577D01*
X45069108Y-57805947D01*
X44864866Y-57902611D01*
X44488959Y-58317577D01*
X44328096Y-58705961D01*
X44450085Y-58928000D01*
X45593000Y-58928000D01*
X45593000Y-58908000D01*
X45847000Y-58908000D01*
X45847000Y-58928000D01*
X46989915Y-58928000D01*
X47111904Y-58705961D01*
X46951041Y-58317577D01*
X46575134Y-57902611D01*
X46370892Y-57805947D01*
X46754577Y-57549577D01*
X46940786Y-57270896D01*
X47141837Y-57230904D01*
X47393229Y-57062929D01*
X47435631Y-56999470D01*
X48285402Y-56149700D01*
X51949550Y-56149700D01*
X51876887Y-56515000D01*
X51988260Y-57074909D01*
X52305423Y-57549577D01*
X52657758Y-57785000D01*
X52305423Y-58020423D01*
X52119214Y-58299104D01*
X51918163Y-58339096D01*
X51666771Y-58507071D01*
X51624371Y-58570527D01*
X50774599Y-59420300D01*
X47105169Y-59420300D01*
X47111904Y-59404039D01*
X46989915Y-59182000D01*
X45847000Y-59182000D01*
X45847000Y-59202000D01*
X45593000Y-59202000D01*
X45593000Y-59182000D01*
X44450085Y-59182000D01*
X44328096Y-59404039D01*
X44334831Y-59420300D01*
X39010246Y-59420300D01*
X38935399Y-59405412D01*
X38860552Y-59420300D01*
X38860548Y-59420300D01*
X38638863Y-59464396D01*
X38638861Y-59464397D01*
X38638862Y-59464397D01*
X38450926Y-59589971D01*
X38450924Y-59589973D01*
X38387471Y-59632371D01*
X38345073Y-59695824D01*
X35167402Y-62873497D01*
X35169092Y-62865000D01*
X35053839Y-62285582D01*
X34725625Y-61794375D01*
X34427239Y-61595000D01*
X34725625Y-61395625D01*
X35053839Y-60904418D01*
X35169092Y-60325000D01*
X35053839Y-59745582D01*
X34725625Y-59254375D01*
X34427239Y-59055000D01*
X34725625Y-58855625D01*
X35053839Y-58364418D01*
X35169092Y-57785000D01*
X35053839Y-57205582D01*
X34725625Y-56714375D01*
X34427239Y-56515000D01*
X34725625Y-56315625D01*
X34937474Y-55998571D01*
X35126837Y-55960904D01*
X35378229Y-55792929D01*
X35420631Y-55729470D01*
X42909802Y-48240300D01*
X44431597Y-48240300D01*
X44368260Y-48335091D01*
X44368260Y-48335091D01*
G37*
X44368260Y-48335091D02*
X44256887Y-48895000D01*
X44368260Y-49454909D01*
X44685423Y-49929577D01*
X45037758Y-50165000D01*
X44685423Y-50400423D01*
X44368260Y-50875091D01*
X44256887Y-51435000D01*
X44368260Y-51994909D01*
X44685423Y-52469577D01*
X45037758Y-52705000D01*
X44685423Y-52940423D01*
X44368260Y-53415091D01*
X44256887Y-53975000D01*
X44368260Y-54534909D01*
X44685423Y-55009577D01*
X45037758Y-55245000D01*
X44685423Y-55480423D01*
X44368260Y-55955091D01*
X44256887Y-56515000D01*
X44368260Y-57074909D01*
X44685423Y-57549577D01*
X45069108Y-57805947D01*
X44864866Y-57902611D01*
X44488959Y-58317577D01*
X44328096Y-58705961D01*
X44450085Y-58928000D01*
X45593000Y-58928000D01*
X45593000Y-58908000D01*
X45847000Y-58908000D01*
X45847000Y-58928000D01*
X46989915Y-58928000D01*
X47111904Y-58705961D01*
X46951041Y-58317577D01*
X46575134Y-57902611D01*
X46370892Y-57805947D01*
X46754577Y-57549577D01*
X46940786Y-57270896D01*
X47141837Y-57230904D01*
X47393229Y-57062929D01*
X47435631Y-56999470D01*
X48285402Y-56149700D01*
X51949550Y-56149700D01*
X51876887Y-56515000D01*
X51988260Y-57074909D01*
X52305423Y-57549577D01*
X52657758Y-57785000D01*
X52305423Y-58020423D01*
X52119214Y-58299104D01*
X51918163Y-58339096D01*
X51666771Y-58507071D01*
X51624371Y-58570527D01*
X50774599Y-59420300D01*
X47105169Y-59420300D01*
X47111904Y-59404039D01*
X46989915Y-59182000D01*
X45847000Y-59182000D01*
X45847000Y-59202000D01*
X45593000Y-59202000D01*
X45593000Y-59182000D01*
X44450085Y-59182000D01*
X44328096Y-59404039D01*
X44334831Y-59420300D01*
X39010246Y-59420300D01*
X38935399Y-59405412D01*
X38860552Y-59420300D01*
X38860548Y-59420300D01*
X38638863Y-59464396D01*
X38638861Y-59464397D01*
X38638862Y-59464397D01*
X38450926Y-59589971D01*
X38450924Y-59589973D01*
X38387471Y-59632371D01*
X38345073Y-59695824D01*
X35167402Y-62873497D01*
X35169092Y-62865000D01*
X35053839Y-62285582D01*
X34725625Y-61794375D01*
X34427239Y-61595000D01*
X34725625Y-61395625D01*
X35053839Y-60904418D01*
X35169092Y-60325000D01*
X35053839Y-59745582D01*
X34725625Y-59254375D01*
X34427239Y-59055000D01*
X34725625Y-58855625D01*
X35053839Y-58364418D01*
X35169092Y-57785000D01*
X35053839Y-57205582D01*
X34725625Y-56714375D01*
X34427239Y-56515000D01*
X34725625Y-56315625D01*
X34937474Y-55998571D01*
X35126837Y-55960904D01*
X35378229Y-55792929D01*
X35420631Y-55729470D01*
X42909802Y-48240300D01*
X44431597Y-48240300D01*
X44368260Y-48335091D01*
G36*
X58226887Y-56515000D02*
X58338260Y-57074909D01*
X58655423Y-57549577D01*
X59039108Y-57805947D01*
X58834866Y-57902611D01*
X58458959Y-58317577D01*
X58298096Y-58705961D01*
X58420085Y-58928000D01*
X59563000Y-58928000D01*
X59563000Y-58908000D01*
X59817000Y-58908000D01*
X59817000Y-58928000D01*
X60959915Y-58928000D01*
X61081904Y-58705961D01*
X60921041Y-58317577D01*
X60545134Y-57902611D01*
X60340892Y-57805947D01*
X60724577Y-57549577D01*
X61041740Y-57074909D01*
X61153113Y-56515000D01*
X61080450Y-56149700D01*
X64744599Y-56149700D01*
X65594371Y-56999473D01*
X65636771Y-57062929D01*
X65888163Y-57230904D01*
X66089214Y-57270896D01*
X66275423Y-57549577D01*
X66627758Y-57785000D01*
X66275423Y-58020423D01*
X66089214Y-58299104D01*
X65888163Y-58339096D01*
X65636771Y-58507071D01*
X65594371Y-58570527D01*
X64744599Y-59420300D01*
X61075169Y-59420300D01*
X61081904Y-59404039D01*
X60959915Y-59182000D01*
X59817000Y-59182000D01*
X59817000Y-59202000D01*
X59563000Y-59202000D01*
X59563000Y-59182000D01*
X58420085Y-59182000D01*
X58298096Y-59404039D01*
X58304831Y-59420300D01*
X55905402Y-59420300D01*
X55055631Y-58570530D01*
X55013229Y-58507071D01*
X54761837Y-58339096D01*
X54560786Y-58299104D01*
X54374577Y-58020423D01*
X54022242Y-57785000D01*
X54374577Y-57549577D01*
X54560786Y-57270896D01*
X54761837Y-57230904D01*
X55013229Y-57062929D01*
X55055631Y-56999470D01*
X55905402Y-56149700D01*
X58299550Y-56149700D01*
X58226887Y-56515000D01*
X58226887Y-56515000D01*
G37*
X58226887Y-56515000D02*
X58338260Y-57074909D01*
X58655423Y-57549577D01*
X59039108Y-57805947D01*
X58834866Y-57902611D01*
X58458959Y-58317577D01*
X58298096Y-58705961D01*
X58420085Y-58928000D01*
X59563000Y-58928000D01*
X59563000Y-58908000D01*
X59817000Y-58908000D01*
X59817000Y-58928000D01*
X60959915Y-58928000D01*
X61081904Y-58705961D01*
X60921041Y-58317577D01*
X60545134Y-57902611D01*
X60340892Y-57805947D01*
X60724577Y-57549577D01*
X61041740Y-57074909D01*
X61153113Y-56515000D01*
X61080450Y-56149700D01*
X64744599Y-56149700D01*
X65594371Y-56999473D01*
X65636771Y-57062929D01*
X65888163Y-57230904D01*
X66089214Y-57270896D01*
X66275423Y-57549577D01*
X66627758Y-57785000D01*
X66275423Y-58020423D01*
X66089214Y-58299104D01*
X65888163Y-58339096D01*
X65636771Y-58507071D01*
X65594371Y-58570527D01*
X64744599Y-59420300D01*
X61075169Y-59420300D01*
X61081904Y-59404039D01*
X60959915Y-59182000D01*
X59817000Y-59182000D01*
X59817000Y-59202000D01*
X59563000Y-59202000D01*
X59563000Y-59182000D01*
X58420085Y-59182000D01*
X58298096Y-59404039D01*
X58304831Y-59420300D01*
X55905402Y-59420300D01*
X55055631Y-58570530D01*
X55013229Y-58507071D01*
X54761837Y-58339096D01*
X54560786Y-58299104D01*
X54374577Y-58020423D01*
X54022242Y-57785000D01*
X54374577Y-57549577D01*
X54560786Y-57270896D01*
X54761837Y-57230904D01*
X55013229Y-57062929D01*
X55055631Y-56999470D01*
X55905402Y-56149700D01*
X58299550Y-56149700D01*
X58226887Y-56515000D01*
G36*
X45301600Y-28667113D02*
X45301601Y-29892226D01*
X45301600Y-38399487D01*
X35413956Y-48287132D01*
X35346323Y-48332323D01*
X35167297Y-48600255D01*
X35151435Y-48680000D01*
X35104432Y-48916300D01*
X35120300Y-48996074D01*
X35120300Y-49141130D01*
X35043327Y-48955301D01*
X34864698Y-48776673D01*
X34631309Y-48680000D01*
X33940750Y-48680000D01*
X33782000Y-48838750D01*
X33782000Y-50038000D01*
X33802000Y-50038000D01*
X33802000Y-50292000D01*
X33782000Y-50292000D01*
X33782000Y-50312000D01*
X33528000Y-50312000D01*
X33528000Y-50292000D01*
X33508000Y-50292000D01*
X33508000Y-50038000D01*
X33528000Y-50038000D01*
X33528000Y-48838750D01*
X33449676Y-48760426D01*
X41759473Y-40450629D01*
X41822929Y-40408229D01*
X41990904Y-40156837D01*
X42030896Y-39955786D01*
X42309577Y-39769577D01*
X42626740Y-39294909D01*
X42738113Y-38735000D01*
X42626740Y-38175091D01*
X42309577Y-37700423D01*
X41957242Y-37465000D01*
X42309577Y-37229577D01*
X42626740Y-36754909D01*
X42738113Y-36195000D01*
X42626740Y-35635091D01*
X42309577Y-35160423D01*
X41957242Y-34925000D01*
X42309577Y-34689577D01*
X42626740Y-34214909D01*
X42738113Y-33655000D01*
X42626740Y-33095091D01*
X42309577Y-32620423D01*
X41957242Y-32385000D01*
X42309577Y-32149577D01*
X42626740Y-31674909D01*
X42738113Y-31115000D01*
X42626740Y-30555091D01*
X42309577Y-30080423D01*
X41957242Y-29845000D01*
X42309577Y-29609577D01*
X42626740Y-29134909D01*
X42738113Y-28575000D01*
X42626740Y-28015091D01*
X42309577Y-27540423D01*
X41957242Y-27305000D01*
X42309577Y-27069577D01*
X42626740Y-26594909D01*
X42726727Y-26092240D01*
X45301600Y-28667113D01*
X45301600Y-28667113D01*
G37*
X45301600Y-28667113D02*
X45301601Y-29892226D01*
X45301600Y-38399487D01*
X35413956Y-48287132D01*
X35346323Y-48332323D01*
X35167297Y-48600255D01*
X35151435Y-48680000D01*
X35104432Y-48916300D01*
X35120300Y-48996074D01*
X35120300Y-49141130D01*
X35043327Y-48955301D01*
X34864698Y-48776673D01*
X34631309Y-48680000D01*
X33940750Y-48680000D01*
X33782000Y-48838750D01*
X33782000Y-50038000D01*
X33802000Y-50038000D01*
X33802000Y-50292000D01*
X33782000Y-50292000D01*
X33782000Y-50312000D01*
X33528000Y-50312000D01*
X33528000Y-50292000D01*
X33508000Y-50292000D01*
X33508000Y-50038000D01*
X33528000Y-50038000D01*
X33528000Y-48838750D01*
X33449676Y-48760426D01*
X41759473Y-40450629D01*
X41822929Y-40408229D01*
X41990904Y-40156837D01*
X42030896Y-39955786D01*
X42309577Y-39769577D01*
X42626740Y-39294909D01*
X42738113Y-38735000D01*
X42626740Y-38175091D01*
X42309577Y-37700423D01*
X41957242Y-37465000D01*
X42309577Y-37229577D01*
X42626740Y-36754909D01*
X42738113Y-36195000D01*
X42626740Y-35635091D01*
X42309577Y-35160423D01*
X41957242Y-34925000D01*
X42309577Y-34689577D01*
X42626740Y-34214909D01*
X42738113Y-33655000D01*
X42626740Y-33095091D01*
X42309577Y-32620423D01*
X41957242Y-32385000D01*
X42309577Y-32149577D01*
X42626740Y-31674909D01*
X42738113Y-31115000D01*
X42626740Y-30555091D01*
X42309577Y-30080423D01*
X41957242Y-29845000D01*
X42309577Y-29609577D01*
X42626740Y-29134909D01*
X42738113Y-28575000D01*
X42626740Y-28015091D01*
X42309577Y-27540423D01*
X41957242Y-27305000D01*
X42309577Y-27069577D01*
X42626740Y-26594909D01*
X42726727Y-26092240D01*
X45301600Y-28667113D01*
G04 #@! TD*
M02*
