M48
;DRILL file {KiCad 5.0.2+dfsg1-1} date za 03 aug 2019 19:36:54 CEST
;FORMAT={-:-/ absolute / inch / decimal}
FMAT,2
INCH,TZ
T1C0.0157
T2C0.0315
T3C0.0360
T4C0.0394
%
G90
G05
T1
X1.8443Y-2.672
X2.0265Y-2.7009
X2.1632Y-1.9506
X2.2396Y-2.0481
X2.2422Y-1.9939
X2.6647Y-2.3991
X2.6997Y-3.2038
X2.7775Y-2.3287
X2.9707Y-1.6177
T2
X1.8Y-2.75
X1.8Y-2.85
X1.8Y-2.95
X1.8Y-3.05
X1.8Y-3.15
X1.8Y-3.25
X1.8Y-3.35
X1.8Y-3.45
X2.1Y-2.75
X2.1Y-2.85
X2.1Y-2.95
X2.1Y-3.05
X2.1Y-3.15
X2.1Y-3.25
X2.1Y-3.35
X2.1Y-3.45
X2.9Y-2.775
X2.9Y-2.875
X2.9Y-2.975
X2.9Y-3.075
X2.9Y-3.175
X2.9Y-3.275
X2.9Y-3.375
X2.9Y-3.475
X2.9Y-3.575
X2.9Y-3.675
X3.2Y-2.775
X3.2Y-2.875
X3.2Y-2.975
X3.2Y-3.075
X3.2Y-3.175
X3.2Y-3.275
X3.2Y-3.375
X3.2Y-3.475
X3.2Y-3.575
X3.2Y-3.675
X2.35Y-1.625
X2.35Y-1.725
X2.35Y-1.825
X2.35Y-1.925
X2.35Y-2.025
X2.35Y-2.125
X2.35Y-2.225
X2.35Y-2.325
X2.65Y-1.625
X2.65Y-1.725
X2.65Y-1.825
X2.65Y-1.925
X2.65Y-2.025
X2.65Y-2.125
X2.65Y-2.225
X2.65Y-2.325
X2.9Y-1.625
X2.9Y-1.725
X2.9Y-1.825
X2.9Y-1.925
X2.9Y-2.025
X2.9Y-2.125
X2.9Y-2.225
X2.9Y-2.325
X2.9Y-2.425
X2.9Y-2.525
X3.2Y-1.625
X3.2Y-1.725
X3.2Y-1.825
X3.2Y-1.925
X3.2Y-2.025
X3.2Y-2.125
X3.2Y-2.225
X3.2Y-2.325
X3.2Y-2.425
X3.2Y-2.525
X1.8Y-1.625
X1.8Y-1.725
X1.8Y-1.825
X1.8Y-1.925
X1.8Y-2.025
X1.8Y-2.125
X1.8Y-2.225
X1.8Y-2.325
X2.1Y-1.625
X2.1Y-1.725
X2.1Y-1.825
X2.1Y-1.925
X2.1Y-2.025
X2.1Y-2.125
X2.1Y-2.225
X2.1Y-2.325
X2.8Y-0.925
X2.9Y-0.925
X3.Y-0.925
X3.1Y-0.925
X3.2Y-0.925
X3.3Y-0.925
X3.4Y-0.925
X3.5Y-0.925
X3.6Y-0.925
X1.875Y-0.925
X1.975Y-0.925
X2.075Y-0.925
X2.175Y-0.925
X2.275Y-0.925
X2.375Y-0.925
X2.475Y-0.925
X2.575Y-0.925
X2.675Y-0.925
X3.45Y-2.775
X3.45Y-2.875
X3.45Y-2.975
X3.45Y-3.075
X3.45Y-3.175
X3.45Y-3.275
X3.45Y-3.375
X3.45Y-3.475
X3.45Y-3.575
X3.45Y-3.675
X3.75Y-2.775
X3.75Y-2.875
X3.75Y-2.975
X3.75Y-3.075
X3.75Y-3.175
X3.75Y-3.275
X3.75Y-3.375
X3.75Y-3.475
X3.75Y-3.575
X3.75Y-3.675
X3.45Y-1.625
X3.45Y-1.725
X3.45Y-1.825
X3.45Y-1.925
X3.45Y-2.025
X3.45Y-2.125
X3.45Y-2.225
X3.45Y-2.325
X3.45Y-2.425
X3.45Y-2.525
X3.75Y-1.625
X3.75Y-1.725
X3.75Y-1.825
X3.75Y-1.925
X3.75Y-2.025
X3.75Y-2.125
X3.75Y-2.225
X3.75Y-2.325
X3.75Y-2.425
X3.75Y-2.525
X1.325Y-0.925
X1.325Y-1.025
X1.325Y-1.125
X1.325Y-1.225
X1.325Y-1.325
X1.325Y-1.425
X1.325Y-1.525
X1.625Y-0.925
X1.625Y-1.025
X1.625Y-1.125
X1.625Y-1.225
X1.625Y-1.325
X1.625Y-1.425
X1.625Y-1.525
X2.35Y-2.75
X2.35Y-2.85
X2.35Y-2.95
X2.35Y-3.05
X2.35Y-3.15
X2.35Y-3.25
X2.35Y-3.35
X2.35Y-3.45
X2.65Y-2.75
X2.65Y-2.85
X2.65Y-2.95
X2.65Y-3.05
X2.65Y-3.15
X2.65Y-3.25
X2.65Y-3.35
X2.65Y-3.45
T3
X1.875Y-1.075
X1.875Y-1.375
X1.975Y-1.075
X1.975Y-1.375
X2.075Y-1.075
X2.075Y-1.375
X2.175Y-1.075
X2.175Y-1.375
X2.275Y-1.075
X2.275Y-1.375
X2.375Y-1.075
X2.375Y-1.375
X2.475Y-1.075
X2.475Y-1.375
X2.575Y-1.075
X2.575Y-1.375
X2.675Y-1.075
X2.675Y-1.375
X2.775Y-1.075
X2.775Y-1.375
X2.9Y-1.075
X2.9Y-1.375
X3.Y-1.075
X3.Y-1.375
X3.1Y-1.075
X3.1Y-1.375
X3.2Y-1.075
X3.2Y-1.375
X3.3Y-1.075
X3.3Y-1.375
X3.4Y-1.075
X3.4Y-1.375
X3.5Y-1.075
X3.5Y-1.375
X3.6Y-1.075
X3.6Y-1.375
X3.7Y-1.075
X3.7Y-1.375
X3.8Y-1.075
X3.8Y-1.375
T4
X1.325Y-1.975
X1.325Y-2.075
X1.325Y-2.175
X1.325Y-2.275
X1.325Y-2.375
X1.325Y-2.475
X1.325Y-2.575
X1.325Y-2.675
X1.325Y-2.775
X1.325Y-2.875
X1.325Y-2.975
X1.325Y-3.075
X1.325Y-3.175
X1.325Y-3.275
X1.325Y-3.375
X1.325Y-3.475
X1.325Y-3.575
X1.325Y-3.675
X4.025Y-2.175
X4.025Y-2.275
X4.025Y-2.375
X4.025Y-2.475
X4.025Y-2.575
X4.025Y-2.675
X4.025Y-2.775
X4.025Y-2.875
X4.025Y-2.975
X4.025Y-3.075
X4.025Y-3.175
X4.025Y-3.275
X4.025Y-3.375
X4.025Y-3.475
X4.025Y-3.575
X4.025Y-3.675
T0
M30
