G04 #@! TF.GenerationSoftware,KiCad,Pcbnew,5.0.2+dfsg1-1*
G04 #@! TF.CreationDate,2019-07-26T12:17:07+02:00*
G04 #@! TF.ProjectId,Program-Counter,50726f67-7261-46d2-9d43-6f756e746572,rev?*
G04 #@! TF.SameCoordinates,Original*
G04 #@! TF.FileFunction,Copper,L1,Top*
G04 #@! TF.FilePolarity,Positive*
%FSLAX46Y46*%
G04 Gerber Fmt 4.6, Leading zero omitted, Abs format (unit mm)*
G04 Created by KiCad (PCBNEW 5.0.2+dfsg1-1) date vr 26 jul 2019 12:17:07 CEST*
%MOMM*%
%LPD*%
G01*
G04 APERTURE LIST*
G04 #@! TA.AperFunction,ComponentPad*
%ADD10R,1.600000X1.600000*%
G04 #@! TD*
G04 #@! TA.AperFunction,ComponentPad*
%ADD11O,1.600000X1.600000*%
G04 #@! TD*
G04 #@! TA.AperFunction,ComponentPad*
%ADD12O,1.700000X1.700000*%
G04 #@! TD*
G04 #@! TA.AperFunction,ComponentPad*
%ADD13R,1.700000X1.700000*%
G04 #@! TD*
G04 #@! TA.AperFunction,ComponentPad*
%ADD14C,2.032000*%
G04 #@! TD*
G04 #@! TA.AperFunction,ComponentPad*
%ADD15R,2.032000X2.032000*%
G04 #@! TD*
G04 #@! TA.AperFunction,ViaPad*
%ADD16C,0.800000*%
G04 #@! TD*
G04 #@! TA.AperFunction,Conductor*
%ADD17C,0.350000*%
G04 #@! TD*
G04 #@! TA.AperFunction,Conductor*
%ADD18C,0.250000*%
G04 #@! TD*
G04 APERTURE END LIST*
D10*
G04 #@! TO.P,U4,1*
G04 #@! TO.N,DATA_BUS1*
X62865000Y-46990000D03*
D11*
G04 #@! TO.P,U4,9*
G04 #@! TO.N,DATA_BUS3*
X70485000Y-64770000D03*
G04 #@! TO.P,U4,2*
G04 #@! TO.N,Net-(BAR1-Pad9)*
X62865000Y-49530000D03*
G04 #@! TO.P,U4,10*
G04 #@! TO.N,DATA_BUS2*
X70485000Y-62230000D03*
G04 #@! TO.P,U4,3*
G04 #@! TO.N,Net-(BAR1-Pad10)*
X62865000Y-52070000D03*
G04 #@! TO.P,U4,11*
G04 #@! TO.N,~PC_H_LOAD*
X70485000Y-59690000D03*
G04 #@! TO.P,U4,4*
G04 #@! TO.N,~CLK_EN*
X62865000Y-54610000D03*
G04 #@! TO.P,U4,12*
G04 #@! TO.N,Net-(U4-Pad12)*
X70485000Y-57150000D03*
G04 #@! TO.P,U4,5*
G04 #@! TO.N,DOWN_~UP*
X62865000Y-57150000D03*
G04 #@! TO.P,U4,13*
G04 #@! TO.N,Net-(U4-Pad13)*
X70485000Y-54610000D03*
G04 #@! TO.P,U4,6*
G04 #@! TO.N,Net-(BAR1-Pad8)*
X62865000Y-59690000D03*
G04 #@! TO.P,U4,14*
G04 #@! TO.N,Net-(U3-Pad13)*
X70485000Y-52070000D03*
G04 #@! TO.P,U4,7*
G04 #@! TO.N,Net-(BAR1-Pad7)*
X62865000Y-62230000D03*
G04 #@! TO.P,U4,15*
G04 #@! TO.N,DATA_BUS0*
X70485000Y-49530000D03*
G04 #@! TO.P,U4,8*
G04 #@! TO.N,GND*
X62865000Y-64770000D03*
G04 #@! TO.P,U4,16*
G04 #@! TO.N,+5V*
X70485000Y-46990000D03*
G04 #@! TD*
D12*
G04 #@! TO.P,J2,16*
G04 #@! TO.N,Net-(BAR1-Pad3)*
X78740000Y-87630000D03*
G04 #@! TO.P,J2,15*
G04 #@! TO.N,Net-(BAR1-Pad4)*
X78740000Y-85090000D03*
G04 #@! TO.P,J2,14*
G04 #@! TO.N,Net-(BAR1-Pad5)*
X78740000Y-82550000D03*
G04 #@! TO.P,J2,13*
G04 #@! TO.N,Net-(BAR1-Pad6)*
X78740000Y-80010000D03*
G04 #@! TO.P,J2,12*
G04 #@! TO.N,Net-(BAR1-Pad7)*
X78740000Y-77470000D03*
G04 #@! TO.P,J2,11*
G04 #@! TO.N,Net-(BAR1-Pad8)*
X78740000Y-74930000D03*
G04 #@! TO.P,J2,10*
G04 #@! TO.N,Net-(BAR1-Pad9)*
X78740000Y-72390000D03*
G04 #@! TO.P,J2,9*
G04 #@! TO.N,Net-(BAR1-Pad10)*
X78740000Y-69850000D03*
G04 #@! TO.P,J2,8*
G04 #@! TO.N,Net-(BAR2-Pad1)*
X78740000Y-67310000D03*
G04 #@! TO.P,J2,7*
G04 #@! TO.N,Net-(BAR2-Pad2)*
X78740000Y-64770000D03*
G04 #@! TO.P,J2,6*
G04 #@! TO.N,Net-(BAR2-Pad3)*
X78740000Y-62230000D03*
G04 #@! TO.P,J2,5*
G04 #@! TO.N,Net-(BAR2-Pad4)*
X78740000Y-59690000D03*
G04 #@! TO.P,J2,4*
G04 #@! TO.N,Net-(BAR2-Pad5)*
X78740000Y-57150000D03*
G04 #@! TO.P,J2,3*
G04 #@! TO.N,Net-(BAR2-Pad6)*
X78740000Y-54610000D03*
G04 #@! TO.P,J2,2*
G04 #@! TO.N,Net-(BAR2-Pad7)*
X78740000Y-52070000D03*
D13*
G04 #@! TO.P,J2,1*
G04 #@! TO.N,Net-(BAR2-Pad8)*
X78740000Y-49530000D03*
G04 #@! TD*
G04 #@! TO.P,J1,1*
G04 #@! TO.N,GND*
X33655000Y-46990000D03*
D12*
G04 #@! TO.P,J1,2*
G04 #@! TO.N,+5V*
X33655000Y-49530000D03*
G04 #@! TO.P,J1,3*
G04 #@! TO.N,CLOCK*
X33655000Y-52070000D03*
G04 #@! TO.P,J1,4*
G04 #@! TO.N,PC_INC*
X33655000Y-54610000D03*
G04 #@! TO.P,J1,5*
G04 #@! TO.N,PC_DEC*
X33655000Y-57150000D03*
G04 #@! TO.P,J1,6*
G04 #@! TO.N,~PC_L_LOAD*
X33655000Y-59690000D03*
G04 #@! TO.P,J1,7*
G04 #@! TO.N,~PC_H_LOAD*
X33655000Y-62230000D03*
G04 #@! TO.P,J1,8*
G04 #@! TO.N,~PC_L_OUT*
X33655000Y-64770000D03*
G04 #@! TO.P,J1,9*
G04 #@! TO.N,~PC_H_OUT*
X33655000Y-67310000D03*
G04 #@! TO.P,J1,10*
G04 #@! TO.N,DATA_BUS0*
X33655000Y-69850000D03*
G04 #@! TO.P,J1,11*
G04 #@! TO.N,DATA_BUS1*
X33655000Y-72390000D03*
G04 #@! TO.P,J1,12*
G04 #@! TO.N,DATA_BUS2*
X33655000Y-74930000D03*
G04 #@! TO.P,J1,13*
G04 #@! TO.N,DATA_BUS3*
X33655000Y-77470000D03*
G04 #@! TO.P,J1,14*
G04 #@! TO.N,DATA_BUS4*
X33655000Y-80010000D03*
G04 #@! TO.P,J1,15*
G04 #@! TO.N,DATA_BUS5*
X33655000Y-82550000D03*
G04 #@! TO.P,J1,16*
G04 #@! TO.N,DATA_BUS6*
X33655000Y-85090000D03*
G04 #@! TO.P,J1,17*
G04 #@! TO.N,DATA_BUS7*
X33655000Y-87630000D03*
G04 #@! TD*
D14*
G04 #@! TO.P,BAR2,20*
G04 #@! TO.N,Net-(BAR2-Pad20)*
X71755000Y-27305000D03*
G04 #@! TO.P,BAR2,19*
G04 #@! TO.N,Net-(BAR2-Pad19)*
X74295000Y-27305000D03*
G04 #@! TO.P,BAR2,18*
G04 #@! TO.N,Net-(BAR2-Pad18)*
X76835000Y-27305000D03*
G04 #@! TO.P,BAR2,17*
G04 #@! TO.N,Net-(BAR2-Pad17)*
X79375000Y-27305000D03*
G04 #@! TO.P,BAR2,9*
G04 #@! TO.N,Net-(BAR2-Pad9)*
X92075000Y-34925000D03*
G04 #@! TO.P,BAR2,10*
G04 #@! TO.N,Net-(BAR2-Pad10)*
X94615000Y-34925000D03*
G04 #@! TO.P,BAR2,11*
G04 #@! TO.N,Net-(BAR2-Pad11)*
X94615000Y-27305000D03*
G04 #@! TO.P,BAR2,12*
G04 #@! TO.N,Net-(BAR2-Pad12)*
X92075000Y-27305000D03*
G04 #@! TO.P,BAR2,8*
G04 #@! TO.N,Net-(BAR2-Pad8)*
X89535000Y-34925000D03*
G04 #@! TO.P,BAR2,7*
G04 #@! TO.N,Net-(BAR2-Pad7)*
X86995000Y-34925000D03*
G04 #@! TO.P,BAR2,6*
G04 #@! TO.N,Net-(BAR2-Pad6)*
X84455000Y-34925000D03*
G04 #@! TO.P,BAR2,5*
G04 #@! TO.N,Net-(BAR2-Pad5)*
X81915000Y-34925000D03*
G04 #@! TO.P,BAR2,16*
G04 #@! TO.N,Net-(BAR2-Pad16)*
X81915000Y-27305000D03*
G04 #@! TO.P,BAR2,15*
G04 #@! TO.N,Net-(BAR2-Pad15)*
X84455000Y-27305000D03*
G04 #@! TO.P,BAR2,14*
G04 #@! TO.N,Net-(BAR2-Pad14)*
X86995000Y-27305000D03*
G04 #@! TO.P,BAR2,13*
G04 #@! TO.N,Net-(BAR2-Pad13)*
X89535000Y-27305000D03*
G04 #@! TO.P,BAR2,4*
G04 #@! TO.N,Net-(BAR2-Pad4)*
X79375000Y-34925000D03*
G04 #@! TO.P,BAR2,3*
G04 #@! TO.N,Net-(BAR2-Pad3)*
X76835000Y-34925000D03*
G04 #@! TO.P,BAR2,2*
G04 #@! TO.N,Net-(BAR2-Pad2)*
X74295000Y-34925000D03*
D15*
G04 #@! TO.P,BAR2,1*
G04 #@! TO.N,Net-(BAR2-Pad1)*
X71755000Y-34925000D03*
G04 #@! TD*
G04 #@! TO.P,BAR1,1*
G04 #@! TO.N,Net-(BAR1-Pad1)*
X45720000Y-34925000D03*
D14*
G04 #@! TO.P,BAR1,2*
G04 #@! TO.N,Net-(BAR1-Pad2)*
X48260000Y-34925000D03*
G04 #@! TO.P,BAR1,3*
G04 #@! TO.N,Net-(BAR1-Pad3)*
X50800000Y-34925000D03*
G04 #@! TO.P,BAR1,4*
G04 #@! TO.N,Net-(BAR1-Pad4)*
X53340000Y-34925000D03*
G04 #@! TO.P,BAR1,13*
G04 #@! TO.N,Net-(BAR1-Pad13)*
X63500000Y-27305000D03*
G04 #@! TO.P,BAR1,14*
G04 #@! TO.N,Net-(BAR1-Pad14)*
X60960000Y-27305000D03*
G04 #@! TO.P,BAR1,15*
G04 #@! TO.N,Net-(BAR1-Pad15)*
X58420000Y-27305000D03*
G04 #@! TO.P,BAR1,16*
G04 #@! TO.N,Net-(BAR1-Pad16)*
X55880000Y-27305000D03*
G04 #@! TO.P,BAR1,5*
G04 #@! TO.N,Net-(BAR1-Pad5)*
X55880000Y-34925000D03*
G04 #@! TO.P,BAR1,6*
G04 #@! TO.N,Net-(BAR1-Pad6)*
X58420000Y-34925000D03*
G04 #@! TO.P,BAR1,7*
G04 #@! TO.N,Net-(BAR1-Pad7)*
X60960000Y-34925000D03*
G04 #@! TO.P,BAR1,8*
G04 #@! TO.N,Net-(BAR1-Pad8)*
X63500000Y-34925000D03*
G04 #@! TO.P,BAR1,12*
G04 #@! TO.N,Net-(BAR1-Pad12)*
X66040000Y-27305000D03*
G04 #@! TO.P,BAR1,11*
G04 #@! TO.N,Net-(BAR1-Pad11)*
X68580000Y-27305000D03*
G04 #@! TO.P,BAR1,10*
G04 #@! TO.N,Net-(BAR1-Pad10)*
X68580000Y-34925000D03*
G04 #@! TO.P,BAR1,9*
G04 #@! TO.N,Net-(BAR1-Pad9)*
X66040000Y-34925000D03*
G04 #@! TO.P,BAR1,17*
G04 #@! TO.N,Net-(BAR1-Pad17)*
X53340000Y-27305000D03*
G04 #@! TO.P,BAR1,18*
G04 #@! TO.N,Net-(BAR1-Pad18)*
X50800000Y-27305000D03*
G04 #@! TO.P,BAR1,19*
G04 #@! TO.N,Net-(BAR1-Pad19)*
X48260000Y-27305000D03*
G04 #@! TO.P,BAR1,20*
G04 #@! TO.N,Net-(BAR1-Pad20)*
X45720000Y-27305000D03*
G04 #@! TD*
D10*
G04 #@! TO.P,U1,1*
G04 #@! TO.N,DOWN_~UP*
X33655000Y-25400000D03*
D11*
G04 #@! TO.P,U1,8*
G04 #@! TO.N,PC_INC*
X41275000Y-40640000D03*
G04 #@! TO.P,U1,2*
X33655000Y-27940000D03*
G04 #@! TO.P,U1,9*
G04 #@! TO.N,PC_DEC*
X41275000Y-38100000D03*
G04 #@! TO.P,U1,3*
G04 #@! TO.N,Net-(U1-Pad3)*
X33655000Y-30480000D03*
G04 #@! TO.P,U1,10*
G04 #@! TO.N,~CLK_EN*
X41275000Y-35560000D03*
G04 #@! TO.P,U1,4*
G04 #@! TO.N,Net-(U1-Pad3)*
X33655000Y-33020000D03*
G04 #@! TO.P,U1,11*
G04 #@! TO.N,N/C*
X41275000Y-33020000D03*
G04 #@! TO.P,U1,5*
G04 #@! TO.N,DOWN_~UP*
X33655000Y-35560000D03*
G04 #@! TO.P,U1,12*
G04 #@! TO.N,N/C*
X41275000Y-30480000D03*
G04 #@! TO.P,U1,6*
G04 #@! TO.N,PC_DEC*
X33655000Y-38100000D03*
G04 #@! TO.P,U1,13*
G04 #@! TO.N,N/C*
X41275000Y-27940000D03*
G04 #@! TO.P,U1,7*
G04 #@! TO.N,GND*
X33655000Y-40640000D03*
G04 #@! TO.P,U1,14*
G04 #@! TO.N,+5V*
X41275000Y-25400000D03*
G04 #@! TD*
G04 #@! TO.P,U5,16*
G04 #@! TO.N,+5V*
X70485000Y-73025000D03*
G04 #@! TO.P,U5,8*
G04 #@! TO.N,GND*
X62865000Y-90805000D03*
G04 #@! TO.P,U5,15*
G04 #@! TO.N,DATA_BUS4*
X70485000Y-75565000D03*
G04 #@! TO.P,U5,7*
G04 #@! TO.N,Net-(BAR1-Pad3)*
X62865000Y-88265000D03*
G04 #@! TO.P,U5,14*
G04 #@! TO.N,Net-(U4-Pad13)*
X70485000Y-78105000D03*
G04 #@! TO.P,U5,6*
G04 #@! TO.N,Net-(BAR1-Pad4)*
X62865000Y-85725000D03*
G04 #@! TO.P,U5,13*
G04 #@! TO.N,Net-(U5-Pad13)*
X70485000Y-80645000D03*
G04 #@! TO.P,U5,5*
G04 #@! TO.N,DOWN_~UP*
X62865000Y-83185000D03*
G04 #@! TO.P,U5,12*
G04 #@! TO.N,Net-(U5-Pad12)*
X70485000Y-83185000D03*
G04 #@! TO.P,U5,4*
G04 #@! TO.N,~CLK_EN*
X62865000Y-80645000D03*
G04 #@! TO.P,U5,11*
G04 #@! TO.N,~PC_H_LOAD*
X70485000Y-85725000D03*
G04 #@! TO.P,U5,3*
G04 #@! TO.N,Net-(BAR1-Pad6)*
X62865000Y-78105000D03*
G04 #@! TO.P,U5,10*
G04 #@! TO.N,DATA_BUS6*
X70485000Y-88265000D03*
G04 #@! TO.P,U5,2*
G04 #@! TO.N,Net-(BAR1-Pad5)*
X62865000Y-75565000D03*
G04 #@! TO.P,U5,9*
G04 #@! TO.N,DATA_BUS7*
X70485000Y-90805000D03*
D10*
G04 #@! TO.P,U5,1*
G04 #@! TO.N,DATA_BUS5*
X62865000Y-73025000D03*
G04 #@! TD*
D11*
G04 #@! TO.P,U3,16*
G04 #@! TO.N,+5V*
X53340000Y-73025000D03*
G04 #@! TO.P,U3,8*
G04 #@! TO.N,GND*
X45720000Y-90805000D03*
G04 #@! TO.P,U3,15*
G04 #@! TO.N,DATA_BUS4*
X53340000Y-75565000D03*
G04 #@! TO.P,U3,7*
G04 #@! TO.N,Net-(BAR2-Pad1)*
X45720000Y-88265000D03*
G04 #@! TO.P,U3,14*
G04 #@! TO.N,Net-(U2-Pad13)*
X53340000Y-78105000D03*
G04 #@! TO.P,U3,6*
G04 #@! TO.N,Net-(BAR2-Pad2)*
X45720000Y-85725000D03*
G04 #@! TO.P,U3,13*
G04 #@! TO.N,Net-(U3-Pad13)*
X53340000Y-80645000D03*
G04 #@! TO.P,U3,5*
G04 #@! TO.N,DOWN_~UP*
X45720000Y-83185000D03*
G04 #@! TO.P,U3,12*
G04 #@! TO.N,Net-(U3-Pad12)*
X53340000Y-83185000D03*
G04 #@! TO.P,U3,4*
G04 #@! TO.N,~CLK_EN*
X45720000Y-80645000D03*
G04 #@! TO.P,U3,11*
G04 #@! TO.N,~PC_L_LOAD*
X53340000Y-85725000D03*
G04 #@! TO.P,U3,3*
G04 #@! TO.N,Net-(BAR2-Pad4)*
X45720000Y-78105000D03*
G04 #@! TO.P,U3,10*
G04 #@! TO.N,DATA_BUS6*
X53340000Y-88265000D03*
G04 #@! TO.P,U3,2*
G04 #@! TO.N,Net-(BAR2-Pad3)*
X45720000Y-75565000D03*
G04 #@! TO.P,U3,9*
G04 #@! TO.N,DATA_BUS7*
X53340000Y-90805000D03*
D10*
G04 #@! TO.P,U3,1*
G04 #@! TO.N,DATA_BUS5*
X45720000Y-73025000D03*
G04 #@! TD*
G04 #@! TO.P,U2,1*
G04 #@! TO.N,DATA_BUS1*
X45720000Y-46990000D03*
D11*
G04 #@! TO.P,U2,9*
G04 #@! TO.N,DATA_BUS3*
X53340000Y-64770000D03*
G04 #@! TO.P,U2,2*
G04 #@! TO.N,Net-(BAR2-Pad7)*
X45720000Y-49530000D03*
G04 #@! TO.P,U2,10*
G04 #@! TO.N,DATA_BUS2*
X53340000Y-62230000D03*
G04 #@! TO.P,U2,3*
G04 #@! TO.N,Net-(BAR2-Pad8)*
X45720000Y-52070000D03*
G04 #@! TO.P,U2,11*
G04 #@! TO.N,~PC_L_LOAD*
X53340000Y-59690000D03*
G04 #@! TO.P,U2,4*
G04 #@! TO.N,~CLK_EN*
X45720000Y-54610000D03*
G04 #@! TO.P,U2,12*
G04 #@! TO.N,Net-(U2-Pad12)*
X53340000Y-57150000D03*
G04 #@! TO.P,U2,5*
G04 #@! TO.N,DOWN_~UP*
X45720000Y-57150000D03*
G04 #@! TO.P,U2,13*
G04 #@! TO.N,Net-(U2-Pad13)*
X53340000Y-54610000D03*
G04 #@! TO.P,U2,6*
G04 #@! TO.N,Net-(BAR2-Pad6)*
X45720000Y-59690000D03*
G04 #@! TO.P,U2,14*
G04 #@! TO.N,CLOCK*
X53340000Y-52070000D03*
G04 #@! TO.P,U2,7*
G04 #@! TO.N,Net-(BAR2-Pad5)*
X45720000Y-62230000D03*
G04 #@! TO.P,U2,15*
G04 #@! TO.N,DATA_BUS0*
X53340000Y-49530000D03*
G04 #@! TO.P,U2,8*
G04 #@! TO.N,GND*
X45720000Y-64770000D03*
G04 #@! TO.P,U2,16*
G04 #@! TO.N,+5V*
X53340000Y-46990000D03*
G04 #@! TD*
G04 #@! TO.P,U7,20*
G04 #@! TO.N,+5V*
X92710000Y-67945000D03*
G04 #@! TO.P,U7,10*
G04 #@! TO.N,GND*
X85090000Y-90805000D03*
G04 #@! TO.P,U7,19*
G04 #@! TO.N,~PC_H_OUT*
X92710000Y-70485000D03*
G04 #@! TO.P,U7,9*
G04 #@! TO.N,Net-(BAR1-Pad3)*
X85090000Y-88265000D03*
G04 #@! TO.P,U7,18*
G04 #@! TO.N,DATA_BUS0*
X92710000Y-73025000D03*
G04 #@! TO.P,U7,8*
G04 #@! TO.N,Net-(BAR1-Pad4)*
X85090000Y-85725000D03*
G04 #@! TO.P,U7,17*
G04 #@! TO.N,DATA_BUS1*
X92710000Y-75565000D03*
G04 #@! TO.P,U7,7*
G04 #@! TO.N,Net-(BAR1-Pad5)*
X85090000Y-83185000D03*
G04 #@! TO.P,U7,16*
G04 #@! TO.N,DATA_BUS2*
X92710000Y-78105000D03*
G04 #@! TO.P,U7,6*
G04 #@! TO.N,Net-(BAR1-Pad6)*
X85090000Y-80645000D03*
G04 #@! TO.P,U7,15*
G04 #@! TO.N,DATA_BUS3*
X92710000Y-80645000D03*
G04 #@! TO.P,U7,5*
G04 #@! TO.N,Net-(BAR1-Pad7)*
X85090000Y-78105000D03*
G04 #@! TO.P,U7,14*
G04 #@! TO.N,DATA_BUS4*
X92710000Y-83185000D03*
G04 #@! TO.P,U7,4*
G04 #@! TO.N,Net-(BAR1-Pad8)*
X85090000Y-75565000D03*
G04 #@! TO.P,U7,13*
G04 #@! TO.N,DATA_BUS5*
X92710000Y-85725000D03*
G04 #@! TO.P,U7,3*
G04 #@! TO.N,Net-(BAR1-Pad9)*
X85090000Y-73025000D03*
G04 #@! TO.P,U7,12*
G04 #@! TO.N,DATA_BUS6*
X92710000Y-88265000D03*
G04 #@! TO.P,U7,2*
G04 #@! TO.N,Net-(BAR1-Pad10)*
X85090000Y-70485000D03*
G04 #@! TO.P,U7,11*
G04 #@! TO.N,DATA_BUS7*
X92710000Y-90805000D03*
D10*
G04 #@! TO.P,U7,1*
G04 #@! TO.N,+5V*
X85090000Y-67945000D03*
G04 #@! TD*
G04 #@! TO.P,U6,1*
G04 #@! TO.N,+5V*
X85090000Y-39370000D03*
D11*
G04 #@! TO.P,U6,11*
G04 #@! TO.N,DATA_BUS7*
X92710000Y-62230000D03*
G04 #@! TO.P,U6,2*
G04 #@! TO.N,Net-(BAR2-Pad8)*
X85090000Y-41910000D03*
G04 #@! TO.P,U6,12*
G04 #@! TO.N,DATA_BUS6*
X92710000Y-59690000D03*
G04 #@! TO.P,U6,3*
G04 #@! TO.N,Net-(BAR2-Pad7)*
X85090000Y-44450000D03*
G04 #@! TO.P,U6,13*
G04 #@! TO.N,DATA_BUS5*
X92710000Y-57150000D03*
G04 #@! TO.P,U6,4*
G04 #@! TO.N,Net-(BAR2-Pad6)*
X85090000Y-46990000D03*
G04 #@! TO.P,U6,14*
G04 #@! TO.N,DATA_BUS4*
X92710000Y-54610000D03*
G04 #@! TO.P,U6,5*
G04 #@! TO.N,Net-(BAR2-Pad5)*
X85090000Y-49530000D03*
G04 #@! TO.P,U6,15*
G04 #@! TO.N,DATA_BUS3*
X92710000Y-52070000D03*
G04 #@! TO.P,U6,6*
G04 #@! TO.N,Net-(BAR2-Pad4)*
X85090000Y-52070000D03*
G04 #@! TO.P,U6,16*
G04 #@! TO.N,DATA_BUS2*
X92710000Y-49530000D03*
G04 #@! TO.P,U6,7*
G04 #@! TO.N,Net-(BAR2-Pad3)*
X85090000Y-54610000D03*
G04 #@! TO.P,U6,17*
G04 #@! TO.N,DATA_BUS1*
X92710000Y-46990000D03*
G04 #@! TO.P,U6,8*
G04 #@! TO.N,Net-(BAR2-Pad2)*
X85090000Y-57150000D03*
G04 #@! TO.P,U6,18*
G04 #@! TO.N,DATA_BUS0*
X92710000Y-44450000D03*
G04 #@! TO.P,U6,9*
G04 #@! TO.N,Net-(BAR2-Pad1)*
X85090000Y-59690000D03*
G04 #@! TO.P,U6,19*
G04 #@! TO.N,~PC_L_OUT*
X92710000Y-41910000D03*
G04 #@! TO.P,U6,10*
G04 #@! TO.N,GND*
X85090000Y-62230000D03*
G04 #@! TO.P,U6,20*
G04 #@! TO.N,+5V*
X92710000Y-39370000D03*
G04 #@! TD*
G04 #@! TO.P,RN2,9*
G04 #@! TO.N,Net-(BAR2-Pad13)*
X89535000Y-23495000D03*
G04 #@! TO.P,RN2,8*
G04 #@! TO.N,Net-(BAR2-Pad14)*
X86995000Y-23495000D03*
G04 #@! TO.P,RN2,7*
G04 #@! TO.N,Net-(BAR2-Pad15)*
X84455000Y-23495000D03*
G04 #@! TO.P,RN2,6*
G04 #@! TO.N,Net-(BAR2-Pad16)*
X81915000Y-23495000D03*
G04 #@! TO.P,RN2,5*
G04 #@! TO.N,Net-(BAR2-Pad17)*
X79375000Y-23495000D03*
G04 #@! TO.P,RN2,4*
G04 #@! TO.N,Net-(BAR2-Pad18)*
X76835000Y-23495000D03*
G04 #@! TO.P,RN2,3*
G04 #@! TO.N,Net-(BAR2-Pad19)*
X74295000Y-23495000D03*
G04 #@! TO.P,RN2,2*
G04 #@! TO.N,Net-(BAR2-Pad20)*
X71755000Y-23495000D03*
D10*
G04 #@! TO.P,RN2,1*
G04 #@! TO.N,GND*
X69215000Y-23495000D03*
G04 #@! TD*
G04 #@! TO.P,RN1,1*
G04 #@! TO.N,GND*
X45720000Y-23495000D03*
D11*
G04 #@! TO.P,RN1,2*
G04 #@! TO.N,Net-(BAR1-Pad18)*
X48260000Y-23495000D03*
G04 #@! TO.P,RN1,3*
G04 #@! TO.N,Net-(BAR1-Pad17)*
X50800000Y-23495000D03*
G04 #@! TO.P,RN1,4*
G04 #@! TO.N,Net-(BAR1-Pad16)*
X53340000Y-23495000D03*
G04 #@! TO.P,RN1,5*
G04 #@! TO.N,Net-(BAR1-Pad15)*
X55880000Y-23495000D03*
G04 #@! TO.P,RN1,6*
G04 #@! TO.N,Net-(BAR1-Pad14)*
X58420000Y-23495000D03*
G04 #@! TO.P,RN1,7*
G04 #@! TO.N,Net-(BAR1-Pad13)*
X60960000Y-23495000D03*
G04 #@! TO.P,RN1,8*
G04 #@! TO.N,Net-(BAR1-Pad12)*
X63500000Y-23495000D03*
G04 #@! TO.P,RN1,9*
G04 #@! TO.N,Net-(BAR1-Pad11)*
X66040000Y-23495000D03*
G04 #@! TD*
D16*
G04 #@! TO.N,GND*
X88900000Y-45720000D03*
X88900000Y-49784000D03*
X36830000Y-39878000D03*
X36830000Y-36195000D03*
X45720000Y-68453000D03*
X88646000Y-90678000D03*
X88646000Y-94234000D03*
X58547000Y-90678000D03*
X49149000Y-90932000D03*
X42545000Y-77851000D03*
X95377000Y-45720000D03*
X88900000Y-58420000D03*
G04 #@! TO.N,Net-(BAR2-Pad7)*
X49666800Y-45442700D03*
G04 #@! TO.N,DATA_BUS3*
X68423600Y-64411500D03*
G04 #@! TO.N,Net-(BAR2-Pad2)*
X52335700Y-69998700D03*
G04 #@! TO.N,Net-(BAR2-Pad1)*
X52012700Y-71239300D03*
G04 #@! TO.N,Net-(BAR1-Pad7)*
X67423200Y-64386100D03*
G04 #@! TO.N,Net-(BAR1-Pad8)*
X64481500Y-71418700D03*
G04 #@! TO.N,DOWN_~UP*
X52249900Y-58595700D03*
G04 #@! TD*
D17*
G04 #@! TO.N,GND*
X36830000Y-36195000D02*
X36830000Y-39878000D01*
X45720000Y-64770000D02*
X45720000Y-68453000D01*
X88646000Y-90678000D02*
X88646000Y-94234000D01*
X50451001Y-89629999D02*
X49548999Y-90532001D01*
X57498999Y-89629999D02*
X50451001Y-89629999D01*
X49548999Y-90532001D02*
X49149000Y-90932000D01*
X58547000Y-90678000D02*
X57498999Y-89629999D01*
X42545000Y-87630000D02*
X45720000Y-90805000D01*
X42545000Y-77851000D02*
X42545000Y-87630000D01*
X89465685Y-45720000D02*
X92075000Y-45720000D01*
X88900000Y-45720000D02*
X89465685Y-45720000D01*
X95377000Y-45720000D02*
X92075000Y-45720000D01*
X92075000Y-45720000D02*
X90932000Y-45720000D01*
X88900000Y-50349685D02*
X88900000Y-58420000D01*
X88900000Y-49784000D02*
X88900000Y-50349685D01*
D18*
G04 #@! TO.N,Net-(BAR1-Pad18)*
X48260000Y-23495000D02*
X48260000Y-24620300D01*
X48260000Y-24620300D02*
X50800000Y-27160300D01*
X50800000Y-27160300D02*
X50800000Y-27305000D01*
G04 #@! TO.N,Net-(BAR1-Pad17)*
X50800000Y-23495000D02*
X50800000Y-24620300D01*
X50800000Y-24620300D02*
X53340000Y-27160300D01*
X53340000Y-27160300D02*
X53340000Y-27305000D01*
G04 #@! TO.N,Net-(BAR1-Pad16)*
X53340000Y-23495000D02*
X53340000Y-24620300D01*
X53340000Y-24620300D02*
X55880000Y-27160300D01*
X55880000Y-27160300D02*
X55880000Y-27305000D01*
G04 #@! TO.N,Net-(BAR1-Pad15)*
X55880000Y-23495000D02*
X55880000Y-24620300D01*
X55880000Y-24620300D02*
X58420000Y-27160300D01*
X58420000Y-27160300D02*
X58420000Y-27305000D01*
G04 #@! TO.N,Net-(BAR1-Pad14)*
X58420000Y-23495000D02*
X58420000Y-24620300D01*
X58420000Y-24620300D02*
X60960000Y-27160300D01*
X60960000Y-27160300D02*
X60960000Y-27305000D01*
G04 #@! TO.N,Net-(BAR1-Pad13)*
X60960000Y-23495000D02*
X60960000Y-24620300D01*
X60960000Y-24620300D02*
X63500000Y-27160300D01*
X63500000Y-27160300D02*
X63500000Y-27305000D01*
G04 #@! TO.N,Net-(BAR1-Pad12)*
X63500000Y-23495000D02*
X63500000Y-24620300D01*
X63500000Y-24620300D02*
X66040000Y-27160300D01*
X66040000Y-27160300D02*
X66040000Y-27305000D01*
G04 #@! TO.N,Net-(BAR1-Pad11)*
X66040000Y-23495000D02*
X66040000Y-24620300D01*
X66040000Y-24620300D02*
X68580000Y-27160300D01*
X68580000Y-27160300D02*
X68580000Y-27305000D01*
G04 #@! TO.N,Net-(BAR2-Pad13)*
X89535000Y-23495000D02*
X89535000Y-27305000D01*
G04 #@! TO.N,Net-(BAR2-Pad14)*
X86995000Y-23495000D02*
X86995000Y-27305000D01*
G04 #@! TO.N,Net-(BAR2-Pad15)*
X84455000Y-23495000D02*
X84455000Y-27305000D01*
G04 #@! TO.N,Net-(BAR2-Pad16)*
X81915000Y-23495000D02*
X81915000Y-27305000D01*
G04 #@! TO.N,Net-(BAR2-Pad17)*
X79375000Y-23495000D02*
X79375000Y-27305000D01*
G04 #@! TO.N,Net-(BAR2-Pad18)*
X76835000Y-23495000D02*
X76835000Y-27305000D01*
G04 #@! TO.N,Net-(BAR2-Pad19)*
X74295000Y-23495000D02*
X74295000Y-27305000D01*
G04 #@! TO.N,Net-(BAR2-Pad20)*
X71755000Y-23495000D02*
X71755000Y-27305000D01*
D17*
G04 #@! TO.N,+5V*
X85090000Y-67945000D02*
X83914700Y-67945000D01*
X72575000Y-69759700D02*
X70485000Y-71849700D01*
X83914700Y-67945000D02*
X80739700Y-71120000D01*
X80739700Y-71120000D02*
X73935300Y-71120000D01*
X73935300Y-71120000D02*
X72575000Y-69759700D01*
X70485000Y-73025000D02*
X70485000Y-71849700D01*
X72575000Y-49080000D02*
X72575000Y-51816000D01*
X70485000Y-46990000D02*
X72575000Y-49080000D01*
X72575000Y-51816000D02*
X72575000Y-69759700D01*
D18*
G04 #@! TO.N,DATA_BUS7*
X95213400Y-64733400D02*
X95213400Y-88301600D01*
X95213400Y-88301600D02*
X92710000Y-90805000D01*
X92710000Y-62230000D02*
X95213400Y-64733400D01*
G04 #@! TO.N,Net-(BAR2-Pad8)*
X89535000Y-37465000D02*
X89535000Y-34925000D01*
X85090000Y-41910000D02*
X89535000Y-37465000D01*
G04 #@! TO.N,DATA_BUS6*
X94757500Y-86217500D02*
X92710000Y-88265000D01*
X94757500Y-67250800D02*
X94757500Y-86217500D01*
X91581300Y-60818700D02*
X91581300Y-64074600D01*
X91581300Y-64074600D02*
X94757500Y-67250800D01*
X92710000Y-59690000D02*
X91581300Y-60818700D01*
G04 #@! TO.N,Net-(BAR2-Pad7)*
X49666800Y-45442700D02*
X45720000Y-49389500D01*
X45720000Y-49389500D02*
X45720000Y-49530000D01*
X83964700Y-37955300D02*
X86995000Y-34925000D01*
X83964410Y-41275290D02*
X83964700Y-41275000D01*
X83964410Y-43324410D02*
X83964410Y-41275290D01*
X85090000Y-44450000D02*
X83964410Y-43324410D01*
X83964700Y-41275000D02*
X83964700Y-37955300D01*
G04 #@! TO.N,DATA_BUS5*
X33655000Y-82550000D02*
X34830300Y-82550000D01*
X45720000Y-73025000D02*
X44355300Y-73025000D01*
X44355300Y-73025000D02*
X34830300Y-82550000D01*
G04 #@! TO.N,Net-(BAR2-Pad6)*
X83514400Y-35865600D02*
X84455000Y-34925000D01*
X83514400Y-45414400D02*
X83514400Y-35865600D01*
X85090000Y-46990000D02*
X83514400Y-45414400D01*
G04 #@! TO.N,DATA_BUS4*
X86677800Y-76719800D02*
X92580300Y-82622300D01*
X92580300Y-82622300D02*
X92710000Y-82622300D01*
X86677800Y-76719800D02*
X84389800Y-76719800D01*
X84389800Y-76719800D02*
X83818400Y-76148400D01*
X83818400Y-76148400D02*
X72193700Y-76148400D01*
X72193700Y-76148400D02*
X71610300Y-75565000D01*
X70485000Y-75565000D02*
X71610300Y-75565000D01*
X92710000Y-83185000D02*
X92710000Y-82622300D01*
X93843300Y-53476700D02*
X92710000Y-54610000D01*
X86677800Y-76719800D02*
X86677800Y-49593200D01*
X86677800Y-49593200D02*
X87922400Y-48348600D01*
X93843300Y-49013800D02*
X93843300Y-53476700D01*
X93178100Y-48348600D02*
X93843300Y-49013800D01*
X87922400Y-48348600D02*
X93178100Y-48348600D01*
G04 #@! TO.N,Net-(BAR2-Pad5)*
X81915000Y-46355000D02*
X81915000Y-42418000D01*
X85090000Y-49530000D02*
X81915000Y-46355000D01*
X81915000Y-34925000D02*
X81915000Y-42418000D01*
G04 #@! TO.N,DATA_BUS3*
X92710000Y-80645000D02*
X93835300Y-79519700D01*
X93835300Y-79519700D02*
X93835300Y-75033400D01*
X93835300Y-75033400D02*
X93096900Y-74295000D01*
X93096900Y-74295000D02*
X92358200Y-74295000D01*
X92358200Y-74295000D02*
X91130900Y-73067700D01*
X91119610Y-57011710D02*
X91130900Y-57023000D01*
X91119610Y-53660390D02*
X91119610Y-57011710D01*
X92710000Y-52070000D02*
X91119610Y-53660390D01*
X91130900Y-73067700D02*
X91130900Y-57023000D01*
X70126500Y-64411500D02*
X70485000Y-64770000D01*
X68423600Y-64411500D02*
X70126500Y-64411500D01*
G04 #@! TO.N,Net-(BAR2-Pad4)*
X79375000Y-34925000D02*
X79375000Y-46917600D01*
X79375000Y-46917600D02*
X83220300Y-50762900D01*
X83220300Y-50762900D02*
X83220300Y-52070000D01*
X83964700Y-52070000D02*
X83220300Y-52070000D01*
X85090000Y-52070000D02*
X83964700Y-52070000D01*
X83220300Y-55209700D02*
X83220300Y-53467000D01*
X78740000Y-59690000D02*
X83220300Y-55209700D01*
X83220300Y-52070000D02*
X83220300Y-53467000D01*
G04 #@! TO.N,DATA_BUS2*
X90669600Y-51570400D02*
X90669600Y-76064600D01*
X90669600Y-76064600D02*
X92710000Y-78105000D01*
X92710000Y-49530000D02*
X90669600Y-51570400D01*
G04 #@! TO.N,Net-(BAR2-Pad3)*
X78740000Y-61054700D02*
X78438700Y-61054700D01*
X78438700Y-61054700D02*
X76835000Y-59451000D01*
X76835000Y-59451000D02*
X76835000Y-34925000D01*
X78740000Y-62230000D02*
X78740000Y-61054700D01*
X79114302Y-61054700D02*
X78740000Y-61054700D01*
X84290001Y-55879001D02*
X79114302Y-61054700D01*
X84290001Y-55409999D02*
X84290001Y-55879001D01*
X85090000Y-54610000D02*
X84290001Y-55409999D01*
G04 #@! TO.N,DATA_BUS1*
X45720000Y-46990000D02*
X45720000Y-48115300D01*
X45720000Y-48115300D02*
X45438700Y-48115300D01*
X45438700Y-48115300D02*
X43563400Y-49990600D01*
X43563400Y-49990600D02*
X43563400Y-62481600D01*
X43563400Y-62481600D02*
X33655000Y-72390000D01*
G04 #@! TO.N,Net-(BAR2-Pad2)*
X78740000Y-63594700D02*
X78438700Y-63594700D01*
X78438700Y-63594700D02*
X76336800Y-61492800D01*
X76336800Y-61492800D02*
X76336800Y-36966700D01*
X76336800Y-36966700D02*
X76336700Y-36966700D01*
X76336700Y-36966700D02*
X74295000Y-34925000D01*
X78740000Y-64770000D02*
X78740000Y-63594700D01*
X52180500Y-69998700D02*
X52335700Y-69998700D01*
X48081100Y-74098100D02*
X52180500Y-69998700D01*
X48081100Y-83363900D02*
X48081100Y-74098100D01*
X45720000Y-85725000D02*
X48081100Y-83363900D01*
X83964999Y-58744003D02*
X79114302Y-63594700D01*
X79114302Y-63594700D02*
X78740000Y-63594700D01*
X83964999Y-58275001D02*
X83964999Y-58744003D01*
X85090000Y-57150000D02*
X83964999Y-58275001D01*
G04 #@! TO.N,DATA_BUS0*
X46704000Y-53340000D02*
X50514000Y-49530000D01*
X44144300Y-54539800D02*
X45344100Y-53340000D01*
X44144300Y-63575000D02*
X44144300Y-54539800D01*
X50514000Y-49530000D02*
X53340000Y-49530000D01*
X32479700Y-72950000D02*
X33097800Y-73568100D01*
X33655000Y-69850000D02*
X32479700Y-71025300D01*
X33097800Y-73568100D02*
X34151200Y-73568100D01*
X45344100Y-53340000D02*
X46704000Y-53340000D01*
X32479700Y-71025300D02*
X32479700Y-72950000D01*
X34151200Y-73568100D02*
X44144300Y-63575000D01*
G04 #@! TO.N,Net-(BAR2-Pad1)*
X78740000Y-67310000D02*
X78740000Y-66134700D01*
X71755000Y-34925000D02*
X71755000Y-36266300D01*
X71755000Y-36266300D02*
X74921100Y-39432400D01*
X74921100Y-39432400D02*
X74921100Y-62683100D01*
X74921100Y-62683100D02*
X78372700Y-66134700D01*
X78372700Y-66134700D02*
X78740000Y-66134700D01*
X49530000Y-73722000D02*
X52012700Y-71239300D01*
X49530000Y-84455000D02*
X49530000Y-73722000D01*
X45720000Y-88265000D02*
X49530000Y-84455000D01*
X79114302Y-66134700D02*
X78740000Y-66134700D01*
X84290001Y-60959001D02*
X79114302Y-66134700D01*
X84290001Y-60489999D02*
X84290001Y-60959001D01*
X85090000Y-59690000D02*
X84290001Y-60489999D01*
G04 #@! TO.N,~PC_L_OUT*
X95963400Y-38656600D02*
X92710000Y-41910000D01*
X95963400Y-34302800D02*
X95963400Y-38656600D01*
X40798300Y-36685400D02*
X40082900Y-35970000D01*
X42400400Y-37563600D02*
X41522200Y-36685400D01*
X40082900Y-35970000D02*
X40082900Y-35078800D01*
X42400400Y-56024600D02*
X42400400Y-37563600D01*
X33655000Y-64770000D02*
X42400400Y-56024600D01*
X40082900Y-35078800D02*
X40871700Y-34290000D01*
X95199600Y-33539000D02*
X95963400Y-34302800D01*
X40871700Y-34290000D02*
X41805200Y-34290000D01*
X41522200Y-36685400D02*
X40798300Y-36685400D01*
X41805200Y-34290000D02*
X42556200Y-33539000D01*
X42556200Y-33539000D02*
X95199600Y-33539000D01*
G04 #@! TO.N,~PC_H_OUT*
X93177400Y-84310400D02*
X84714400Y-84310400D01*
X92710000Y-70485000D02*
X93841370Y-70485000D01*
X94299700Y-70943330D02*
X94299700Y-83188100D01*
X93841370Y-70485000D02*
X94299700Y-70943330D01*
X94299700Y-83188100D02*
X93177400Y-84310400D01*
X31990800Y-68974200D02*
X33655000Y-67310000D01*
X77087800Y-91937000D02*
X42402200Y-91937000D01*
X42402200Y-91937000D02*
X34285200Y-83820000D01*
X33197200Y-83820000D02*
X31990800Y-82613600D01*
X84714400Y-84310400D02*
X77087800Y-91937000D01*
X34285200Y-83820000D02*
X33197200Y-83820000D01*
X31990800Y-82613600D02*
X31990800Y-68974200D01*
G04 #@! TO.N,Net-(BAR1-Pad3)*
X55300100Y-39425100D02*
X50800000Y-34925000D01*
X55300100Y-80700100D02*
X55300100Y-39425100D01*
X62865000Y-88265000D02*
X55300100Y-80700100D01*
G04 #@! TO.N,Net-(BAR1-Pad4)*
X56167800Y-37752800D02*
X53340000Y-34925000D01*
X56167800Y-79027800D02*
X56167800Y-37752800D01*
X62865000Y-85725000D02*
X56167800Y-79027800D01*
G04 #@! TO.N,Net-(BAR1-Pad5)*
X78740000Y-82550000D02*
X79915300Y-82550000D01*
X85090000Y-83185000D02*
X80550300Y-83185000D01*
X80550300Y-83185000D02*
X79915300Y-82550000D01*
X56716900Y-35761900D02*
X55880000Y-34925000D01*
X56716900Y-69416900D02*
X56716900Y-35761900D01*
X62865000Y-75565000D02*
X56716900Y-69416900D01*
G04 #@! TO.N,Net-(BAR1-Pad6)*
X78740000Y-80010000D02*
X79915300Y-80010000D01*
X85090000Y-80645000D02*
X80550300Y-80645000D01*
X80550300Y-80645000D02*
X79915300Y-80010000D01*
X58420000Y-66382900D02*
X58420000Y-34925000D01*
X63990300Y-71953200D02*
X58420000Y-66382900D01*
X63990300Y-76979700D02*
X63990300Y-71953200D01*
X62865000Y-78105000D02*
X63990300Y-76979700D01*
G04 #@! TO.N,Net-(BAR1-Pad7)*
X77564700Y-77470000D02*
X75772000Y-79262700D01*
X75772000Y-79262700D02*
X70048200Y-79262700D01*
X70048200Y-79262700D02*
X67423200Y-76637700D01*
X67423200Y-76637700D02*
X67423200Y-64386100D01*
X78740000Y-77470000D02*
X77564700Y-77470000D01*
X78740000Y-77470000D02*
X79915300Y-77470000D01*
X85090000Y-78105000D02*
X80550300Y-78105000D01*
X80550300Y-78105000D02*
X79915300Y-77470000D01*
X60791500Y-35093500D02*
X60960000Y-34925000D01*
X60791500Y-60156500D02*
X60791500Y-35093500D01*
X62865000Y-62230000D02*
X60791500Y-60156500D01*
G04 #@! TO.N,Net-(BAR1-Pad8)*
X62865000Y-59690000D02*
X64481500Y-61306500D01*
X64481500Y-61306500D02*
X64481500Y-71418700D01*
X61246200Y-37178800D02*
X63500000Y-34925000D01*
X61246200Y-58071200D02*
X61246200Y-37178800D01*
X62865000Y-59690000D02*
X61246200Y-58071200D01*
G04 #@! TO.N,Net-(BAR1-Pad9)*
X62865000Y-49530000D02*
X66040000Y-46355000D01*
X66040000Y-46355000D02*
X66040000Y-44831000D01*
X66040000Y-44831000D02*
X66040000Y-34925000D01*
X75798900Y-74155800D02*
X77564700Y-72390000D01*
X70020500Y-74155800D02*
X75798900Y-74155800D01*
X61739700Y-50655300D02*
X61739700Y-52567000D01*
X77564700Y-72390000D02*
X78740000Y-72390000D01*
X61739700Y-52567000D02*
X62416100Y-53243400D01*
X62416100Y-53243400D02*
X66626300Y-53243400D01*
X66626300Y-53243400D02*
X68992600Y-50877100D01*
X62865000Y-49530000D02*
X61739700Y-50655300D01*
X72060700Y-69328400D02*
X69344400Y-72044700D01*
X68992600Y-50877100D02*
X70904800Y-50877100D01*
X70904800Y-50877100D02*
X72060700Y-52033000D01*
X72060700Y-52033000D02*
X72060700Y-69328400D01*
X69344400Y-72044700D02*
X69344400Y-73479700D01*
X69344400Y-73479700D02*
X70020500Y-74155800D01*
G04 #@! TO.N,Net-(BAR1-Pad10)*
X78740000Y-68674700D02*
X78372700Y-68674700D01*
X78372700Y-68674700D02*
X74470700Y-64772700D01*
X74470700Y-64772700D02*
X74470700Y-49347400D01*
X74470700Y-49347400D02*
X70929600Y-45806300D01*
X69937900Y-45806300D02*
X69937900Y-36282900D01*
X69937900Y-36282900D02*
X68580000Y-34925000D01*
X78740000Y-69850000D02*
X78740000Y-68674700D01*
X69128700Y-45806300D02*
X70612000Y-45806300D01*
X70929600Y-45806300D02*
X70612000Y-45806300D01*
X62865000Y-52070000D02*
X69128700Y-45806300D01*
X70612000Y-45806300D02*
X69937900Y-45806300D01*
G04 #@! TO.N,~PC_L_LOAD*
X52214700Y-60815300D02*
X52214700Y-68851900D01*
X53061000Y-69698200D02*
X53061000Y-71216800D01*
X53340000Y-59690000D02*
X52214700Y-60815300D01*
X52214700Y-68851900D02*
X53061000Y-69698200D01*
X52214700Y-84599700D02*
X53340000Y-85725000D01*
X52214700Y-72063100D02*
X52214700Y-84599700D01*
X53061000Y-71216800D02*
X52214700Y-72063100D01*
G04 #@! TO.N,~CLK_EN*
X45720000Y-55172600D02*
X47552600Y-53340000D01*
X47552600Y-53340000D02*
X53698700Y-53340000D01*
X53698700Y-53340000D02*
X54470400Y-52568300D01*
X54470400Y-52568300D02*
X54470400Y-49066100D01*
X54470400Y-49066100D02*
X53664300Y-48260000D01*
X53664300Y-48260000D02*
X52947000Y-48260000D01*
X52947000Y-48260000D02*
X50392100Y-45705100D01*
X50392100Y-45705100D02*
X50392100Y-44677100D01*
X50392100Y-44677100D02*
X41275000Y-35560000D01*
X45720000Y-54610000D02*
X45720000Y-55172600D01*
X45720000Y-80645000D02*
X46877300Y-79487700D01*
X46877300Y-79487700D02*
X46877300Y-72012300D01*
X46877300Y-72012300D02*
X44594700Y-69729700D01*
X44594700Y-55735300D02*
X44594700Y-57658000D01*
X45720000Y-54610000D02*
X44594700Y-55735300D01*
X44594700Y-69729700D02*
X44594700Y-57658000D01*
X44594700Y-57658000D02*
X44594700Y-56579200D01*
X65238900Y-56983900D02*
X65238900Y-78271100D01*
X65238900Y-78271100D02*
X62865000Y-80645000D01*
X62865000Y-54610000D02*
X65238900Y-56983900D01*
G04 #@! TO.N,DOWN_~UP*
X32529700Y-27369200D02*
X33655000Y-26243900D01*
X33655000Y-26243900D02*
X33655000Y-25400000D01*
X32529700Y-34434700D02*
X32529700Y-27369200D01*
X33655000Y-35560000D02*
X32529700Y-34434700D01*
X47336600Y-81568400D02*
X47336600Y-79375000D01*
X45720000Y-83185000D02*
X47336600Y-81568400D01*
X47336600Y-58766600D02*
X47336600Y-60833000D01*
X45720000Y-57150000D02*
X47336600Y-58766600D01*
X47336600Y-79375000D02*
X47336600Y-60833000D01*
X47336600Y-60833000D02*
X47336600Y-59610600D01*
X47165700Y-58595700D02*
X52249900Y-58595700D01*
X45720000Y-57150000D02*
X47165700Y-58595700D01*
G04 #@! TO.N,Net-(U2-Pad13)*
X54465300Y-76979700D02*
X53340000Y-78105000D01*
X54465300Y-55735300D02*
X54465300Y-76979700D01*
X53340000Y-54610000D02*
X54465300Y-55735300D01*
G04 #@! TO.N,Net-(U3-Pad13)*
X54139999Y-81444999D02*
X53340000Y-80645000D01*
X70485000Y-52070000D02*
X65960600Y-56594400D01*
X63316600Y-89438700D02*
X62415000Y-89438700D01*
X54421299Y-81444999D02*
X54139999Y-81444999D01*
X65960600Y-56594400D02*
X65960600Y-86794700D01*
X65960600Y-86794700D02*
X63316600Y-89438700D01*
X62415000Y-89438700D02*
X54421299Y-81444999D01*
G04 #@! TO.N,~PC_H_LOAD*
X66687400Y-63487600D02*
X70485000Y-59690000D01*
X66687400Y-81927400D02*
X66687400Y-63487600D01*
X70485000Y-85725000D02*
X66687400Y-81927400D01*
G04 #@! TO.N,Net-(U4-Pad13)*
X70485000Y-54610000D02*
X71610300Y-55735300D01*
X71610300Y-55735300D02*
X71610300Y-68916600D01*
X71610300Y-68916600D02*
X68888700Y-71638200D01*
X68894390Y-76514390D02*
X68894390Y-74681690D01*
X68894390Y-74681690D02*
X68888700Y-74676000D01*
X70485000Y-78105000D02*
X68894390Y-76514390D01*
X68888700Y-71638200D02*
X68888700Y-74676000D01*
G04 #@! TO.N,PC_INC*
X33655000Y-27940000D02*
X34780300Y-29065300D01*
X39632891Y-36983591D02*
X34780300Y-32131000D01*
X39632891Y-38997891D02*
X39632891Y-36983591D01*
X41275000Y-40640000D02*
X39632891Y-38997891D01*
X34780300Y-29065300D02*
X34780300Y-32131000D01*
X41275000Y-46990000D02*
X41275000Y-44450000D01*
X33655000Y-54610000D02*
X41275000Y-46990000D01*
X41275000Y-44450000D02*
X41275000Y-40640000D01*
G04 #@! TO.N,PC_DEC*
X32479700Y-39275300D02*
X33655000Y-38100000D01*
X32479700Y-55974700D02*
X32479700Y-39275300D01*
X33655000Y-57150000D02*
X32479700Y-55974700D01*
G04 #@! TO.N,Net-(U1-Pad3)*
X33655000Y-33020000D02*
X33655000Y-30480000D01*
G04 #@! TD*
M02*
