M48
;DRILL file {KiCad 5.0.2+dfsg1-1} date vr 26 jul 2019 12:17:10 CEST
;FORMAT={-:-/ absolute / inch / decimal}
FMAT,2
INCH,TZ
T1C0.0157
T2C0.0315
T3C0.0360
T4C0.0394
%
G90
G05
T1
X1.45Y-1.425
X1.45Y-1.57
X1.675Y-3.065
X1.8Y-2.695
X1.935Y-3.58
X1.9554Y-1.7891
X2.0477Y-2.8047
X2.0571Y-2.3069
X2.0605Y-2.7559
X2.305Y-3.57
X2.5386Y-2.8118
X2.6545Y-2.5349
X2.6938Y-2.5359
X3.49Y-3.57
X3.49Y-3.71
X3.5Y-1.8
X3.5Y-1.96
X3.5Y-2.3
X3.755Y-1.8
T2
X2.475Y-2.875
X2.475Y-2.975
X2.475Y-3.075
X2.475Y-3.175
X2.475Y-3.275
X2.475Y-3.375
X2.475Y-3.475
X2.475Y-3.575
X2.775Y-2.875
X2.775Y-2.975
X2.775Y-3.075
X2.775Y-3.175
X2.775Y-3.275
X2.775Y-3.375
X2.775Y-3.475
X2.775Y-3.575
X1.8Y-1.85
X1.8Y-1.95
X1.8Y-2.05
X1.8Y-2.15
X1.8Y-2.25
X1.8Y-2.35
X1.8Y-2.45
X1.8Y-2.55
X2.1Y-1.85
X2.1Y-1.95
X2.1Y-2.05
X2.1Y-2.15
X2.1Y-2.25
X2.1Y-2.35
X2.1Y-2.45
X2.1Y-2.55
X1.8Y-2.875
X1.8Y-2.975
X1.8Y-3.075
X1.8Y-3.175
X1.8Y-3.275
X1.8Y-3.375
X1.8Y-3.475
X1.8Y-3.575
X2.1Y-2.875
X2.1Y-2.975
X2.1Y-3.075
X2.1Y-3.175
X2.1Y-3.275
X2.1Y-3.375
X2.1Y-3.475
X2.1Y-3.575
X2.475Y-1.85
X2.475Y-1.95
X2.475Y-2.05
X2.475Y-2.15
X2.475Y-2.25
X2.475Y-2.35
X2.475Y-2.45
X2.475Y-2.55
X2.775Y-1.85
X2.775Y-1.95
X2.775Y-2.05
X2.775Y-2.15
X2.775Y-2.25
X2.775Y-2.35
X2.775Y-2.45
X2.775Y-2.55
X1.8Y-0.925
X1.9Y-0.925
X2.Y-0.925
X2.1Y-0.925
X2.2Y-0.925
X2.3Y-0.925
X2.4Y-0.925
X2.5Y-0.925
X2.6Y-0.925
X3.35Y-2.675
X3.35Y-2.775
X3.35Y-2.875
X3.35Y-2.975
X3.35Y-3.075
X3.35Y-3.175
X3.35Y-3.275
X3.35Y-3.375
X3.35Y-3.475
X3.35Y-3.575
X3.65Y-2.675
X3.65Y-2.775
X3.65Y-2.875
X3.65Y-2.975
X3.65Y-3.075
X3.65Y-3.175
X3.65Y-3.275
X3.65Y-3.375
X3.65Y-3.475
X3.65Y-3.575
X3.35Y-1.55
X3.35Y-1.65
X3.35Y-1.75
X3.35Y-1.85
X3.35Y-1.95
X3.35Y-2.05
X3.35Y-2.15
X3.35Y-2.25
X3.35Y-2.35
X3.35Y-2.45
X3.65Y-1.55
X3.65Y-1.65
X3.65Y-1.75
X3.65Y-1.85
X3.65Y-1.95
X3.65Y-2.05
X3.65Y-2.15
X3.65Y-2.25
X3.65Y-2.35
X3.65Y-2.45
X1.325Y-1.
X1.325Y-1.1
X1.325Y-1.2
X1.325Y-1.3
X1.325Y-1.4
X1.325Y-1.5
X1.325Y-1.6
X1.625Y-1.
X1.625Y-1.1
X1.625Y-1.2
X1.625Y-1.3
X1.625Y-1.4
X1.625Y-1.5
X1.625Y-1.6
X2.725Y-0.925
X2.825Y-0.925
X2.925Y-0.925
X3.025Y-0.925
X3.125Y-0.925
X3.225Y-0.925
X3.325Y-0.925
X3.425Y-0.925
X3.525Y-0.925
T3
X1.8Y-1.075
X1.8Y-1.375
X1.9Y-1.075
X1.9Y-1.375
X2.Y-1.075
X2.Y-1.375
X2.1Y-1.075
X2.1Y-1.375
X2.2Y-1.075
X2.2Y-1.375
X2.3Y-1.075
X2.3Y-1.375
X2.4Y-1.075
X2.4Y-1.375
X2.5Y-1.075
X2.5Y-1.375
X2.6Y-1.075
X2.6Y-1.375
X2.7Y-1.075
X2.7Y-1.375
X2.825Y-1.075
X2.825Y-1.375
X2.925Y-1.075
X2.925Y-1.375
X3.025Y-1.075
X3.025Y-1.375
X3.125Y-1.075
X3.125Y-1.375
X3.225Y-1.075
X3.225Y-1.375
X3.325Y-1.075
X3.325Y-1.375
X3.425Y-1.075
X3.425Y-1.375
X3.525Y-1.075
X3.525Y-1.375
X3.625Y-1.075
X3.625Y-1.375
X3.725Y-1.075
X3.725Y-1.375
T4
X3.1Y-1.95
X3.1Y-2.05
X3.1Y-2.15
X3.1Y-2.25
X3.1Y-2.35
X3.1Y-2.45
X3.1Y-2.55
X3.1Y-2.65
X3.1Y-2.75
X3.1Y-2.85
X3.1Y-2.95
X3.1Y-3.05
X3.1Y-3.15
X3.1Y-3.25
X3.1Y-3.35
X3.1Y-3.45
X1.325Y-1.85
X1.325Y-1.95
X1.325Y-2.05
X1.325Y-2.15
X1.325Y-2.25
X1.325Y-2.35
X1.325Y-2.45
X1.325Y-2.55
X1.325Y-2.65
X1.325Y-2.75
X1.325Y-2.85
X1.325Y-2.95
X1.325Y-3.05
X1.325Y-3.15
X1.325Y-3.25
X1.325Y-3.35
X1.325Y-3.45
T0
M30
