M48
;DRILL file {KiCad 5.0.2+dfsg1-1} date ma 29 jul 2019 21:28:16 CEST
;FORMAT={-:-/ absolute / inch / decimal}
FMAT,2
INCH,TZ
T1C0.0157
T2C0.0315
T3C0.0360
T4C0.0394
%
G90
G05
T1
X1.245Y-2.725
X1.405Y-2.725
X1.59Y-1.72
X1.755Y-1.72
X1.8585Y-1.8207
X1.8682Y-2.8077
X1.94Y-2.448
X2.0201Y-2.7864
X2.145Y-3.71
X2.178Y-2.137
X2.4307Y-3.125
X2.57Y-3.05
X2.6213Y-2.9997
X2.635Y-3.255
X2.635Y-3.57
X2.6836Y-2.9032
X3.425Y-3.71
T2
X2.725Y-0.925
X2.825Y-0.925
X2.925Y-0.925
X3.025Y-0.925
X3.125Y-0.925
X3.225Y-0.925
X3.325Y-0.925
X3.425Y-0.925
X3.525Y-0.925
X3.425Y-1.55
X3.425Y-1.65
X3.425Y-1.75
X3.425Y-1.85
X3.425Y-1.95
X3.425Y-2.05
X3.425Y-2.15
X3.425Y-2.25
X3.425Y-2.35
X3.425Y-2.45
X3.725Y-1.55
X3.725Y-1.65
X3.725Y-1.75
X3.725Y-1.85
X3.725Y-1.95
X3.725Y-2.05
X3.725Y-2.15
X3.725Y-2.25
X3.725Y-2.35
X3.725Y-2.45
X2.475Y-2.875
X2.475Y-2.975
X2.475Y-3.075
X2.475Y-3.175
X2.475Y-3.275
X2.475Y-3.375
X2.475Y-3.475
X2.475Y-3.575
X2.775Y-2.875
X2.775Y-2.975
X2.775Y-3.075
X2.775Y-3.175
X2.775Y-3.275
X2.775Y-3.375
X2.775Y-3.475
X2.775Y-3.575
X3.425Y-2.675
X3.425Y-2.775
X3.425Y-2.875
X3.425Y-2.975
X3.425Y-3.075
X3.425Y-3.175
X3.425Y-3.275
X3.425Y-3.375
X3.425Y-3.475
X3.425Y-3.575
X3.725Y-2.675
X3.725Y-2.775
X3.725Y-2.875
X3.725Y-2.975
X3.725Y-3.075
X3.725Y-3.175
X3.725Y-3.275
X3.725Y-3.375
X3.725Y-3.475
X3.725Y-3.575
X1.325Y-0.925
X1.325Y-1.025
X1.325Y-1.125
X1.325Y-1.225
X1.325Y-1.325
X1.325Y-1.425
X1.325Y-1.525
X1.625Y-0.925
X1.625Y-1.025
X1.625Y-1.125
X1.625Y-1.225
X1.625Y-1.325
X1.625Y-1.425
X1.625Y-1.525
X1.8Y-1.85
X1.8Y-1.95
X1.8Y-2.05
X1.8Y-2.15
X1.8Y-2.25
X1.8Y-2.35
X1.8Y-2.45
X1.8Y-2.55
X2.1Y-1.85
X2.1Y-1.95
X2.1Y-2.05
X2.1Y-2.15
X2.1Y-2.25
X2.1Y-2.35
X2.1Y-2.45
X2.1Y-2.55
X2.475Y-1.85
X2.475Y-1.95
X2.475Y-2.05
X2.475Y-2.15
X2.475Y-2.25
X2.475Y-2.35
X2.475Y-2.45
X2.475Y-2.55
X2.775Y-1.85
X2.775Y-1.95
X2.775Y-2.05
X2.775Y-2.15
X2.775Y-2.25
X2.775Y-2.35
X2.775Y-2.45
X2.775Y-2.55
X1.8Y-2.875
X1.8Y-2.975
X1.8Y-3.075
X1.8Y-3.175
X1.8Y-3.275
X1.8Y-3.375
X1.8Y-3.475
X1.8Y-3.575
X2.1Y-2.875
X2.1Y-2.975
X2.1Y-3.075
X2.1Y-3.175
X2.1Y-3.275
X2.1Y-3.375
X2.1Y-3.475
X2.1Y-3.575
X1.8Y-0.925
X1.9Y-0.925
X2.Y-0.925
X2.1Y-0.925
X2.2Y-0.925
X2.3Y-0.925
X2.4Y-0.925
X2.5Y-0.925
X2.6Y-0.925
T3
X1.8Y-1.075
X1.8Y-1.375
X1.9Y-1.075
X1.9Y-1.375
X2.Y-1.075
X2.Y-1.375
X2.1Y-1.075
X2.1Y-1.375
X2.2Y-1.075
X2.2Y-1.375
X2.3Y-1.075
X2.3Y-1.375
X2.4Y-1.075
X2.4Y-1.375
X2.5Y-1.075
X2.5Y-1.375
X2.6Y-1.075
X2.6Y-1.375
X2.7Y-1.075
X2.7Y-1.375
X2.825Y-1.075
X2.825Y-1.375
X2.925Y-1.075
X2.925Y-1.375
X3.025Y-1.075
X3.025Y-1.375
X3.125Y-1.075
X3.125Y-1.375
X3.225Y-1.075
X3.225Y-1.375
X3.325Y-1.075
X3.325Y-1.375
X3.425Y-1.075
X3.425Y-1.375
X3.525Y-1.075
X3.525Y-1.375
X3.625Y-1.075
X3.625Y-1.375
X3.725Y-1.075
X3.725Y-1.375
T4
X1.325Y-1.975
X1.325Y-2.075
X1.325Y-2.175
X1.325Y-2.275
X1.325Y-2.375
X1.325Y-2.475
X1.325Y-2.575
X1.325Y-2.675
X1.325Y-2.775
X1.325Y-2.875
X1.325Y-2.975
X1.325Y-3.075
X1.325Y-3.175
X1.325Y-3.275
X1.325Y-3.375
X1.325Y-3.475
X1.325Y-3.575
X3.125Y-2.075
X3.125Y-2.175
X3.125Y-2.275
X3.125Y-2.375
X3.125Y-2.475
X3.125Y-2.575
X3.125Y-2.675
X3.125Y-2.775
X3.125Y-2.875
X3.125Y-2.975
X3.125Y-3.075
X3.125Y-3.175
X3.125Y-3.275
X3.125Y-3.375
X3.125Y-3.475
X3.125Y-3.575
T0
M30
