G04 #@! TF.GenerationSoftware,KiCad,Pcbnew,5.0.2+dfsg1-1*
G04 #@! TF.CreationDate,2019-07-26T12:17:07+02:00*
G04 #@! TF.ProjectId,Program-Counter,50726f67-7261-46d2-9d43-6f756e746572,rev?*
G04 #@! TF.SameCoordinates,Original*
G04 #@! TF.FileFunction,Copper,L2,Bot*
G04 #@! TF.FilePolarity,Positive*
%FSLAX46Y46*%
G04 Gerber Fmt 4.6, Leading zero omitted, Abs format (unit mm)*
G04 Created by KiCad (PCBNEW 5.0.2+dfsg1-1) date vr 26 jul 2019 12:17:07 CEST*
%MOMM*%
%LPD*%
G01*
G04 APERTURE LIST*
G04 #@! TA.AperFunction,ComponentPad*
%ADD10R,1.600000X1.600000*%
G04 #@! TD*
G04 #@! TA.AperFunction,ComponentPad*
%ADD11O,1.600000X1.600000*%
G04 #@! TD*
G04 #@! TA.AperFunction,ComponentPad*
%ADD12O,1.700000X1.700000*%
G04 #@! TD*
G04 #@! TA.AperFunction,ComponentPad*
%ADD13R,1.700000X1.700000*%
G04 #@! TD*
G04 #@! TA.AperFunction,ComponentPad*
%ADD14C,2.032000*%
G04 #@! TD*
G04 #@! TA.AperFunction,ComponentPad*
%ADD15R,2.032000X2.032000*%
G04 #@! TD*
G04 #@! TA.AperFunction,ViaPad*
%ADD16C,0.800000*%
G04 #@! TD*
G04 #@! TA.AperFunction,Conductor*
%ADD17C,0.350000*%
G04 #@! TD*
G04 #@! TA.AperFunction,Conductor*
%ADD18C,0.250000*%
G04 #@! TD*
G04 #@! TA.AperFunction,Conductor*
%ADD19C,0.254000*%
G04 #@! TD*
G04 APERTURE END LIST*
D10*
G04 #@! TO.P,U4,1*
G04 #@! TO.N,DATA_BUS1*
X62865000Y-46990000D03*
D11*
G04 #@! TO.P,U4,9*
G04 #@! TO.N,DATA_BUS3*
X70485000Y-64770000D03*
G04 #@! TO.P,U4,2*
G04 #@! TO.N,Net-(BAR1-Pad9)*
X62865000Y-49530000D03*
G04 #@! TO.P,U4,10*
G04 #@! TO.N,DATA_BUS2*
X70485000Y-62230000D03*
G04 #@! TO.P,U4,3*
G04 #@! TO.N,Net-(BAR1-Pad10)*
X62865000Y-52070000D03*
G04 #@! TO.P,U4,11*
G04 #@! TO.N,~PC_H_LOAD*
X70485000Y-59690000D03*
G04 #@! TO.P,U4,4*
G04 #@! TO.N,~CLK_EN*
X62865000Y-54610000D03*
G04 #@! TO.P,U4,12*
G04 #@! TO.N,Net-(U4-Pad12)*
X70485000Y-57150000D03*
G04 #@! TO.P,U4,5*
G04 #@! TO.N,DOWN_~UP*
X62865000Y-57150000D03*
G04 #@! TO.P,U4,13*
G04 #@! TO.N,Net-(U4-Pad13)*
X70485000Y-54610000D03*
G04 #@! TO.P,U4,6*
G04 #@! TO.N,Net-(BAR1-Pad8)*
X62865000Y-59690000D03*
G04 #@! TO.P,U4,14*
G04 #@! TO.N,Net-(U3-Pad13)*
X70485000Y-52070000D03*
G04 #@! TO.P,U4,7*
G04 #@! TO.N,Net-(BAR1-Pad7)*
X62865000Y-62230000D03*
G04 #@! TO.P,U4,15*
G04 #@! TO.N,DATA_BUS0*
X70485000Y-49530000D03*
G04 #@! TO.P,U4,8*
G04 #@! TO.N,GND*
X62865000Y-64770000D03*
G04 #@! TO.P,U4,16*
G04 #@! TO.N,+5V*
X70485000Y-46990000D03*
G04 #@! TD*
D12*
G04 #@! TO.P,J2,16*
G04 #@! TO.N,Net-(BAR1-Pad3)*
X78740000Y-87630000D03*
G04 #@! TO.P,J2,15*
G04 #@! TO.N,Net-(BAR1-Pad4)*
X78740000Y-85090000D03*
G04 #@! TO.P,J2,14*
G04 #@! TO.N,Net-(BAR1-Pad5)*
X78740000Y-82550000D03*
G04 #@! TO.P,J2,13*
G04 #@! TO.N,Net-(BAR1-Pad6)*
X78740000Y-80010000D03*
G04 #@! TO.P,J2,12*
G04 #@! TO.N,Net-(BAR1-Pad7)*
X78740000Y-77470000D03*
G04 #@! TO.P,J2,11*
G04 #@! TO.N,Net-(BAR1-Pad8)*
X78740000Y-74930000D03*
G04 #@! TO.P,J2,10*
G04 #@! TO.N,Net-(BAR1-Pad9)*
X78740000Y-72390000D03*
G04 #@! TO.P,J2,9*
G04 #@! TO.N,Net-(BAR1-Pad10)*
X78740000Y-69850000D03*
G04 #@! TO.P,J2,8*
G04 #@! TO.N,Net-(BAR2-Pad1)*
X78740000Y-67310000D03*
G04 #@! TO.P,J2,7*
G04 #@! TO.N,Net-(BAR2-Pad2)*
X78740000Y-64770000D03*
G04 #@! TO.P,J2,6*
G04 #@! TO.N,Net-(BAR2-Pad3)*
X78740000Y-62230000D03*
G04 #@! TO.P,J2,5*
G04 #@! TO.N,Net-(BAR2-Pad4)*
X78740000Y-59690000D03*
G04 #@! TO.P,J2,4*
G04 #@! TO.N,Net-(BAR2-Pad5)*
X78740000Y-57150000D03*
G04 #@! TO.P,J2,3*
G04 #@! TO.N,Net-(BAR2-Pad6)*
X78740000Y-54610000D03*
G04 #@! TO.P,J2,2*
G04 #@! TO.N,Net-(BAR2-Pad7)*
X78740000Y-52070000D03*
D13*
G04 #@! TO.P,J2,1*
G04 #@! TO.N,Net-(BAR2-Pad8)*
X78740000Y-49530000D03*
G04 #@! TD*
G04 #@! TO.P,J1,1*
G04 #@! TO.N,GND*
X33655000Y-46990000D03*
D12*
G04 #@! TO.P,J1,2*
G04 #@! TO.N,+5V*
X33655000Y-49530000D03*
G04 #@! TO.P,J1,3*
G04 #@! TO.N,CLOCK*
X33655000Y-52070000D03*
G04 #@! TO.P,J1,4*
G04 #@! TO.N,PC_INC*
X33655000Y-54610000D03*
G04 #@! TO.P,J1,5*
G04 #@! TO.N,PC_DEC*
X33655000Y-57150000D03*
G04 #@! TO.P,J1,6*
G04 #@! TO.N,~PC_L_LOAD*
X33655000Y-59690000D03*
G04 #@! TO.P,J1,7*
G04 #@! TO.N,~PC_H_LOAD*
X33655000Y-62230000D03*
G04 #@! TO.P,J1,8*
G04 #@! TO.N,~PC_L_OUT*
X33655000Y-64770000D03*
G04 #@! TO.P,J1,9*
G04 #@! TO.N,~PC_H_OUT*
X33655000Y-67310000D03*
G04 #@! TO.P,J1,10*
G04 #@! TO.N,DATA_BUS0*
X33655000Y-69850000D03*
G04 #@! TO.P,J1,11*
G04 #@! TO.N,DATA_BUS1*
X33655000Y-72390000D03*
G04 #@! TO.P,J1,12*
G04 #@! TO.N,DATA_BUS2*
X33655000Y-74930000D03*
G04 #@! TO.P,J1,13*
G04 #@! TO.N,DATA_BUS3*
X33655000Y-77470000D03*
G04 #@! TO.P,J1,14*
G04 #@! TO.N,DATA_BUS4*
X33655000Y-80010000D03*
G04 #@! TO.P,J1,15*
G04 #@! TO.N,DATA_BUS5*
X33655000Y-82550000D03*
G04 #@! TO.P,J1,16*
G04 #@! TO.N,DATA_BUS6*
X33655000Y-85090000D03*
G04 #@! TO.P,J1,17*
G04 #@! TO.N,DATA_BUS7*
X33655000Y-87630000D03*
G04 #@! TD*
D14*
G04 #@! TO.P,BAR2,20*
G04 #@! TO.N,Net-(BAR2-Pad20)*
X71755000Y-27305000D03*
G04 #@! TO.P,BAR2,19*
G04 #@! TO.N,Net-(BAR2-Pad19)*
X74295000Y-27305000D03*
G04 #@! TO.P,BAR2,18*
G04 #@! TO.N,Net-(BAR2-Pad18)*
X76835000Y-27305000D03*
G04 #@! TO.P,BAR2,17*
G04 #@! TO.N,Net-(BAR2-Pad17)*
X79375000Y-27305000D03*
G04 #@! TO.P,BAR2,9*
G04 #@! TO.N,Net-(BAR2-Pad9)*
X92075000Y-34925000D03*
G04 #@! TO.P,BAR2,10*
G04 #@! TO.N,Net-(BAR2-Pad10)*
X94615000Y-34925000D03*
G04 #@! TO.P,BAR2,11*
G04 #@! TO.N,Net-(BAR2-Pad11)*
X94615000Y-27305000D03*
G04 #@! TO.P,BAR2,12*
G04 #@! TO.N,Net-(BAR2-Pad12)*
X92075000Y-27305000D03*
G04 #@! TO.P,BAR2,8*
G04 #@! TO.N,Net-(BAR2-Pad8)*
X89535000Y-34925000D03*
G04 #@! TO.P,BAR2,7*
G04 #@! TO.N,Net-(BAR2-Pad7)*
X86995000Y-34925000D03*
G04 #@! TO.P,BAR2,6*
G04 #@! TO.N,Net-(BAR2-Pad6)*
X84455000Y-34925000D03*
G04 #@! TO.P,BAR2,5*
G04 #@! TO.N,Net-(BAR2-Pad5)*
X81915000Y-34925000D03*
G04 #@! TO.P,BAR2,16*
G04 #@! TO.N,Net-(BAR2-Pad16)*
X81915000Y-27305000D03*
G04 #@! TO.P,BAR2,15*
G04 #@! TO.N,Net-(BAR2-Pad15)*
X84455000Y-27305000D03*
G04 #@! TO.P,BAR2,14*
G04 #@! TO.N,Net-(BAR2-Pad14)*
X86995000Y-27305000D03*
G04 #@! TO.P,BAR2,13*
G04 #@! TO.N,Net-(BAR2-Pad13)*
X89535000Y-27305000D03*
G04 #@! TO.P,BAR2,4*
G04 #@! TO.N,Net-(BAR2-Pad4)*
X79375000Y-34925000D03*
G04 #@! TO.P,BAR2,3*
G04 #@! TO.N,Net-(BAR2-Pad3)*
X76835000Y-34925000D03*
G04 #@! TO.P,BAR2,2*
G04 #@! TO.N,Net-(BAR2-Pad2)*
X74295000Y-34925000D03*
D15*
G04 #@! TO.P,BAR2,1*
G04 #@! TO.N,Net-(BAR2-Pad1)*
X71755000Y-34925000D03*
G04 #@! TD*
G04 #@! TO.P,BAR1,1*
G04 #@! TO.N,Net-(BAR1-Pad1)*
X45720000Y-34925000D03*
D14*
G04 #@! TO.P,BAR1,2*
G04 #@! TO.N,Net-(BAR1-Pad2)*
X48260000Y-34925000D03*
G04 #@! TO.P,BAR1,3*
G04 #@! TO.N,Net-(BAR1-Pad3)*
X50800000Y-34925000D03*
G04 #@! TO.P,BAR1,4*
G04 #@! TO.N,Net-(BAR1-Pad4)*
X53340000Y-34925000D03*
G04 #@! TO.P,BAR1,13*
G04 #@! TO.N,Net-(BAR1-Pad13)*
X63500000Y-27305000D03*
G04 #@! TO.P,BAR1,14*
G04 #@! TO.N,Net-(BAR1-Pad14)*
X60960000Y-27305000D03*
G04 #@! TO.P,BAR1,15*
G04 #@! TO.N,Net-(BAR1-Pad15)*
X58420000Y-27305000D03*
G04 #@! TO.P,BAR1,16*
G04 #@! TO.N,Net-(BAR1-Pad16)*
X55880000Y-27305000D03*
G04 #@! TO.P,BAR1,5*
G04 #@! TO.N,Net-(BAR1-Pad5)*
X55880000Y-34925000D03*
G04 #@! TO.P,BAR1,6*
G04 #@! TO.N,Net-(BAR1-Pad6)*
X58420000Y-34925000D03*
G04 #@! TO.P,BAR1,7*
G04 #@! TO.N,Net-(BAR1-Pad7)*
X60960000Y-34925000D03*
G04 #@! TO.P,BAR1,8*
G04 #@! TO.N,Net-(BAR1-Pad8)*
X63500000Y-34925000D03*
G04 #@! TO.P,BAR1,12*
G04 #@! TO.N,Net-(BAR1-Pad12)*
X66040000Y-27305000D03*
G04 #@! TO.P,BAR1,11*
G04 #@! TO.N,Net-(BAR1-Pad11)*
X68580000Y-27305000D03*
G04 #@! TO.P,BAR1,10*
G04 #@! TO.N,Net-(BAR1-Pad10)*
X68580000Y-34925000D03*
G04 #@! TO.P,BAR1,9*
G04 #@! TO.N,Net-(BAR1-Pad9)*
X66040000Y-34925000D03*
G04 #@! TO.P,BAR1,17*
G04 #@! TO.N,Net-(BAR1-Pad17)*
X53340000Y-27305000D03*
G04 #@! TO.P,BAR1,18*
G04 #@! TO.N,Net-(BAR1-Pad18)*
X50800000Y-27305000D03*
G04 #@! TO.P,BAR1,19*
G04 #@! TO.N,Net-(BAR1-Pad19)*
X48260000Y-27305000D03*
G04 #@! TO.P,BAR1,20*
G04 #@! TO.N,Net-(BAR1-Pad20)*
X45720000Y-27305000D03*
G04 #@! TD*
D10*
G04 #@! TO.P,U1,1*
G04 #@! TO.N,DOWN_~UP*
X33655000Y-25400000D03*
D11*
G04 #@! TO.P,U1,8*
G04 #@! TO.N,PC_INC*
X41275000Y-40640000D03*
G04 #@! TO.P,U1,2*
X33655000Y-27940000D03*
G04 #@! TO.P,U1,9*
G04 #@! TO.N,PC_DEC*
X41275000Y-38100000D03*
G04 #@! TO.P,U1,3*
G04 #@! TO.N,Net-(U1-Pad3)*
X33655000Y-30480000D03*
G04 #@! TO.P,U1,10*
G04 #@! TO.N,~CLK_EN*
X41275000Y-35560000D03*
G04 #@! TO.P,U1,4*
G04 #@! TO.N,Net-(U1-Pad3)*
X33655000Y-33020000D03*
G04 #@! TO.P,U1,11*
G04 #@! TO.N,N/C*
X41275000Y-33020000D03*
G04 #@! TO.P,U1,5*
G04 #@! TO.N,DOWN_~UP*
X33655000Y-35560000D03*
G04 #@! TO.P,U1,12*
G04 #@! TO.N,N/C*
X41275000Y-30480000D03*
G04 #@! TO.P,U1,6*
G04 #@! TO.N,PC_DEC*
X33655000Y-38100000D03*
G04 #@! TO.P,U1,13*
G04 #@! TO.N,N/C*
X41275000Y-27940000D03*
G04 #@! TO.P,U1,7*
G04 #@! TO.N,GND*
X33655000Y-40640000D03*
G04 #@! TO.P,U1,14*
G04 #@! TO.N,+5V*
X41275000Y-25400000D03*
G04 #@! TD*
G04 #@! TO.P,U5,16*
G04 #@! TO.N,+5V*
X70485000Y-73025000D03*
G04 #@! TO.P,U5,8*
G04 #@! TO.N,GND*
X62865000Y-90805000D03*
G04 #@! TO.P,U5,15*
G04 #@! TO.N,DATA_BUS4*
X70485000Y-75565000D03*
G04 #@! TO.P,U5,7*
G04 #@! TO.N,Net-(BAR1-Pad3)*
X62865000Y-88265000D03*
G04 #@! TO.P,U5,14*
G04 #@! TO.N,Net-(U4-Pad13)*
X70485000Y-78105000D03*
G04 #@! TO.P,U5,6*
G04 #@! TO.N,Net-(BAR1-Pad4)*
X62865000Y-85725000D03*
G04 #@! TO.P,U5,13*
G04 #@! TO.N,Net-(U5-Pad13)*
X70485000Y-80645000D03*
G04 #@! TO.P,U5,5*
G04 #@! TO.N,DOWN_~UP*
X62865000Y-83185000D03*
G04 #@! TO.P,U5,12*
G04 #@! TO.N,Net-(U5-Pad12)*
X70485000Y-83185000D03*
G04 #@! TO.P,U5,4*
G04 #@! TO.N,~CLK_EN*
X62865000Y-80645000D03*
G04 #@! TO.P,U5,11*
G04 #@! TO.N,~PC_H_LOAD*
X70485000Y-85725000D03*
G04 #@! TO.P,U5,3*
G04 #@! TO.N,Net-(BAR1-Pad6)*
X62865000Y-78105000D03*
G04 #@! TO.P,U5,10*
G04 #@! TO.N,DATA_BUS6*
X70485000Y-88265000D03*
G04 #@! TO.P,U5,2*
G04 #@! TO.N,Net-(BAR1-Pad5)*
X62865000Y-75565000D03*
G04 #@! TO.P,U5,9*
G04 #@! TO.N,DATA_BUS7*
X70485000Y-90805000D03*
D10*
G04 #@! TO.P,U5,1*
G04 #@! TO.N,DATA_BUS5*
X62865000Y-73025000D03*
G04 #@! TD*
D11*
G04 #@! TO.P,U3,16*
G04 #@! TO.N,+5V*
X53340000Y-73025000D03*
G04 #@! TO.P,U3,8*
G04 #@! TO.N,GND*
X45720000Y-90805000D03*
G04 #@! TO.P,U3,15*
G04 #@! TO.N,DATA_BUS4*
X53340000Y-75565000D03*
G04 #@! TO.P,U3,7*
G04 #@! TO.N,Net-(BAR2-Pad1)*
X45720000Y-88265000D03*
G04 #@! TO.P,U3,14*
G04 #@! TO.N,Net-(U2-Pad13)*
X53340000Y-78105000D03*
G04 #@! TO.P,U3,6*
G04 #@! TO.N,Net-(BAR2-Pad2)*
X45720000Y-85725000D03*
G04 #@! TO.P,U3,13*
G04 #@! TO.N,Net-(U3-Pad13)*
X53340000Y-80645000D03*
G04 #@! TO.P,U3,5*
G04 #@! TO.N,DOWN_~UP*
X45720000Y-83185000D03*
G04 #@! TO.P,U3,12*
G04 #@! TO.N,Net-(U3-Pad12)*
X53340000Y-83185000D03*
G04 #@! TO.P,U3,4*
G04 #@! TO.N,~CLK_EN*
X45720000Y-80645000D03*
G04 #@! TO.P,U3,11*
G04 #@! TO.N,~PC_L_LOAD*
X53340000Y-85725000D03*
G04 #@! TO.P,U3,3*
G04 #@! TO.N,Net-(BAR2-Pad4)*
X45720000Y-78105000D03*
G04 #@! TO.P,U3,10*
G04 #@! TO.N,DATA_BUS6*
X53340000Y-88265000D03*
G04 #@! TO.P,U3,2*
G04 #@! TO.N,Net-(BAR2-Pad3)*
X45720000Y-75565000D03*
G04 #@! TO.P,U3,9*
G04 #@! TO.N,DATA_BUS7*
X53340000Y-90805000D03*
D10*
G04 #@! TO.P,U3,1*
G04 #@! TO.N,DATA_BUS5*
X45720000Y-73025000D03*
G04 #@! TD*
G04 #@! TO.P,U2,1*
G04 #@! TO.N,DATA_BUS1*
X45720000Y-46990000D03*
D11*
G04 #@! TO.P,U2,9*
G04 #@! TO.N,DATA_BUS3*
X53340000Y-64770000D03*
G04 #@! TO.P,U2,2*
G04 #@! TO.N,Net-(BAR2-Pad7)*
X45720000Y-49530000D03*
G04 #@! TO.P,U2,10*
G04 #@! TO.N,DATA_BUS2*
X53340000Y-62230000D03*
G04 #@! TO.P,U2,3*
G04 #@! TO.N,Net-(BAR2-Pad8)*
X45720000Y-52070000D03*
G04 #@! TO.P,U2,11*
G04 #@! TO.N,~PC_L_LOAD*
X53340000Y-59690000D03*
G04 #@! TO.P,U2,4*
G04 #@! TO.N,~CLK_EN*
X45720000Y-54610000D03*
G04 #@! TO.P,U2,12*
G04 #@! TO.N,Net-(U2-Pad12)*
X53340000Y-57150000D03*
G04 #@! TO.P,U2,5*
G04 #@! TO.N,DOWN_~UP*
X45720000Y-57150000D03*
G04 #@! TO.P,U2,13*
G04 #@! TO.N,Net-(U2-Pad13)*
X53340000Y-54610000D03*
G04 #@! TO.P,U2,6*
G04 #@! TO.N,Net-(BAR2-Pad6)*
X45720000Y-59690000D03*
G04 #@! TO.P,U2,14*
G04 #@! TO.N,CLOCK*
X53340000Y-52070000D03*
G04 #@! TO.P,U2,7*
G04 #@! TO.N,Net-(BAR2-Pad5)*
X45720000Y-62230000D03*
G04 #@! TO.P,U2,15*
G04 #@! TO.N,DATA_BUS0*
X53340000Y-49530000D03*
G04 #@! TO.P,U2,8*
G04 #@! TO.N,GND*
X45720000Y-64770000D03*
G04 #@! TO.P,U2,16*
G04 #@! TO.N,+5V*
X53340000Y-46990000D03*
G04 #@! TD*
G04 #@! TO.P,U7,20*
G04 #@! TO.N,+5V*
X92710000Y-67945000D03*
G04 #@! TO.P,U7,10*
G04 #@! TO.N,GND*
X85090000Y-90805000D03*
G04 #@! TO.P,U7,19*
G04 #@! TO.N,~PC_H_OUT*
X92710000Y-70485000D03*
G04 #@! TO.P,U7,9*
G04 #@! TO.N,Net-(BAR1-Pad3)*
X85090000Y-88265000D03*
G04 #@! TO.P,U7,18*
G04 #@! TO.N,DATA_BUS0*
X92710000Y-73025000D03*
G04 #@! TO.P,U7,8*
G04 #@! TO.N,Net-(BAR1-Pad4)*
X85090000Y-85725000D03*
G04 #@! TO.P,U7,17*
G04 #@! TO.N,DATA_BUS1*
X92710000Y-75565000D03*
G04 #@! TO.P,U7,7*
G04 #@! TO.N,Net-(BAR1-Pad5)*
X85090000Y-83185000D03*
G04 #@! TO.P,U7,16*
G04 #@! TO.N,DATA_BUS2*
X92710000Y-78105000D03*
G04 #@! TO.P,U7,6*
G04 #@! TO.N,Net-(BAR1-Pad6)*
X85090000Y-80645000D03*
G04 #@! TO.P,U7,15*
G04 #@! TO.N,DATA_BUS3*
X92710000Y-80645000D03*
G04 #@! TO.P,U7,5*
G04 #@! TO.N,Net-(BAR1-Pad7)*
X85090000Y-78105000D03*
G04 #@! TO.P,U7,14*
G04 #@! TO.N,DATA_BUS4*
X92710000Y-83185000D03*
G04 #@! TO.P,U7,4*
G04 #@! TO.N,Net-(BAR1-Pad8)*
X85090000Y-75565000D03*
G04 #@! TO.P,U7,13*
G04 #@! TO.N,DATA_BUS5*
X92710000Y-85725000D03*
G04 #@! TO.P,U7,3*
G04 #@! TO.N,Net-(BAR1-Pad9)*
X85090000Y-73025000D03*
G04 #@! TO.P,U7,12*
G04 #@! TO.N,DATA_BUS6*
X92710000Y-88265000D03*
G04 #@! TO.P,U7,2*
G04 #@! TO.N,Net-(BAR1-Pad10)*
X85090000Y-70485000D03*
G04 #@! TO.P,U7,11*
G04 #@! TO.N,DATA_BUS7*
X92710000Y-90805000D03*
D10*
G04 #@! TO.P,U7,1*
G04 #@! TO.N,+5V*
X85090000Y-67945000D03*
G04 #@! TD*
G04 #@! TO.P,U6,1*
G04 #@! TO.N,+5V*
X85090000Y-39370000D03*
D11*
G04 #@! TO.P,U6,11*
G04 #@! TO.N,DATA_BUS7*
X92710000Y-62230000D03*
G04 #@! TO.P,U6,2*
G04 #@! TO.N,Net-(BAR2-Pad8)*
X85090000Y-41910000D03*
G04 #@! TO.P,U6,12*
G04 #@! TO.N,DATA_BUS6*
X92710000Y-59690000D03*
G04 #@! TO.P,U6,3*
G04 #@! TO.N,Net-(BAR2-Pad7)*
X85090000Y-44450000D03*
G04 #@! TO.P,U6,13*
G04 #@! TO.N,DATA_BUS5*
X92710000Y-57150000D03*
G04 #@! TO.P,U6,4*
G04 #@! TO.N,Net-(BAR2-Pad6)*
X85090000Y-46990000D03*
G04 #@! TO.P,U6,14*
G04 #@! TO.N,DATA_BUS4*
X92710000Y-54610000D03*
G04 #@! TO.P,U6,5*
G04 #@! TO.N,Net-(BAR2-Pad5)*
X85090000Y-49530000D03*
G04 #@! TO.P,U6,15*
G04 #@! TO.N,DATA_BUS3*
X92710000Y-52070000D03*
G04 #@! TO.P,U6,6*
G04 #@! TO.N,Net-(BAR2-Pad4)*
X85090000Y-52070000D03*
G04 #@! TO.P,U6,16*
G04 #@! TO.N,DATA_BUS2*
X92710000Y-49530000D03*
G04 #@! TO.P,U6,7*
G04 #@! TO.N,Net-(BAR2-Pad3)*
X85090000Y-54610000D03*
G04 #@! TO.P,U6,17*
G04 #@! TO.N,DATA_BUS1*
X92710000Y-46990000D03*
G04 #@! TO.P,U6,8*
G04 #@! TO.N,Net-(BAR2-Pad2)*
X85090000Y-57150000D03*
G04 #@! TO.P,U6,18*
G04 #@! TO.N,DATA_BUS0*
X92710000Y-44450000D03*
G04 #@! TO.P,U6,9*
G04 #@! TO.N,Net-(BAR2-Pad1)*
X85090000Y-59690000D03*
G04 #@! TO.P,U6,19*
G04 #@! TO.N,~PC_L_OUT*
X92710000Y-41910000D03*
G04 #@! TO.P,U6,10*
G04 #@! TO.N,GND*
X85090000Y-62230000D03*
G04 #@! TO.P,U6,20*
G04 #@! TO.N,+5V*
X92710000Y-39370000D03*
G04 #@! TD*
G04 #@! TO.P,RN2,9*
G04 #@! TO.N,Net-(BAR2-Pad13)*
X89535000Y-23495000D03*
G04 #@! TO.P,RN2,8*
G04 #@! TO.N,Net-(BAR2-Pad14)*
X86995000Y-23495000D03*
G04 #@! TO.P,RN2,7*
G04 #@! TO.N,Net-(BAR2-Pad15)*
X84455000Y-23495000D03*
G04 #@! TO.P,RN2,6*
G04 #@! TO.N,Net-(BAR2-Pad16)*
X81915000Y-23495000D03*
G04 #@! TO.P,RN2,5*
G04 #@! TO.N,Net-(BAR2-Pad17)*
X79375000Y-23495000D03*
G04 #@! TO.P,RN2,4*
G04 #@! TO.N,Net-(BAR2-Pad18)*
X76835000Y-23495000D03*
G04 #@! TO.P,RN2,3*
G04 #@! TO.N,Net-(BAR2-Pad19)*
X74295000Y-23495000D03*
G04 #@! TO.P,RN2,2*
G04 #@! TO.N,Net-(BAR2-Pad20)*
X71755000Y-23495000D03*
D10*
G04 #@! TO.P,RN2,1*
G04 #@! TO.N,GND*
X69215000Y-23495000D03*
G04 #@! TD*
G04 #@! TO.P,RN1,1*
G04 #@! TO.N,GND*
X45720000Y-23495000D03*
D11*
G04 #@! TO.P,RN1,2*
G04 #@! TO.N,Net-(BAR1-Pad18)*
X48260000Y-23495000D03*
G04 #@! TO.P,RN1,3*
G04 #@! TO.N,Net-(BAR1-Pad17)*
X50800000Y-23495000D03*
G04 #@! TO.P,RN1,4*
G04 #@! TO.N,Net-(BAR1-Pad16)*
X53340000Y-23495000D03*
G04 #@! TO.P,RN1,5*
G04 #@! TO.N,Net-(BAR1-Pad15)*
X55880000Y-23495000D03*
G04 #@! TO.P,RN1,6*
G04 #@! TO.N,Net-(BAR1-Pad14)*
X58420000Y-23495000D03*
G04 #@! TO.P,RN1,7*
G04 #@! TO.N,Net-(BAR1-Pad13)*
X60960000Y-23495000D03*
G04 #@! TO.P,RN1,8*
G04 #@! TO.N,Net-(BAR1-Pad12)*
X63500000Y-23495000D03*
G04 #@! TO.P,RN1,9*
G04 #@! TO.N,Net-(BAR1-Pad11)*
X66040000Y-23495000D03*
G04 #@! TD*
D16*
G04 #@! TO.N,GND*
X88900000Y-45720000D03*
X88900000Y-49784000D03*
X36830000Y-39878000D03*
X36830000Y-36195000D03*
X45720000Y-68453000D03*
X88646000Y-90678000D03*
X88646000Y-94234000D03*
X58547000Y-90678000D03*
X49149000Y-90932000D03*
X42545000Y-77851000D03*
X95377000Y-45720000D03*
X88900000Y-58420000D03*
G04 #@! TO.N,Net-(BAR2-Pad7)*
X49666800Y-45442700D03*
G04 #@! TO.N,DATA_BUS3*
X68423600Y-64411500D03*
G04 #@! TO.N,Net-(BAR2-Pad2)*
X52335700Y-69998700D03*
G04 #@! TO.N,Net-(BAR2-Pad1)*
X52012700Y-71239300D03*
G04 #@! TO.N,Net-(BAR1-Pad7)*
X67423200Y-64386100D03*
G04 #@! TO.N,Net-(BAR1-Pad8)*
X64481500Y-71418700D03*
G04 #@! TO.N,DOWN_~UP*
X52249900Y-58595700D03*
G04 #@! TD*
D17*
G04 #@! TO.N,GND*
X88900000Y-49784000D02*
X88900000Y-45720000D01*
G04 #@! TO.N,+5V*
X42450300Y-48165300D02*
X36245000Y-48165300D01*
X36245000Y-48165300D02*
X34880300Y-49530000D01*
X52164700Y-46990000D02*
X50989400Y-48165300D01*
X50989400Y-48165300D02*
X42450300Y-48165300D01*
X33655000Y-49530000D02*
X34880300Y-49530000D01*
X53340000Y-46990000D02*
X52164700Y-46990000D01*
X53927700Y-46990000D02*
X53340000Y-46990000D01*
X85090000Y-39370000D02*
X79280300Y-39370000D01*
X79280300Y-39370000D02*
X71660300Y-46990000D01*
X92710000Y-39370000D02*
X85090000Y-39370000D01*
X70485000Y-46990000D02*
X71660300Y-46990000D01*
X53927700Y-46990000D02*
X54515300Y-46990000D01*
X70485000Y-46990000D02*
X69309700Y-46990000D01*
X54515300Y-46990000D02*
X55690700Y-48165400D01*
X55690700Y-48165400D02*
X68134300Y-48165400D01*
X68134300Y-48165400D02*
X69309700Y-46990000D01*
X70485000Y-73025000D02*
X69309700Y-73025000D01*
X53340000Y-73025000D02*
X54515300Y-73025000D01*
X54515300Y-73025000D02*
X55690700Y-74200400D01*
X55690700Y-74200400D02*
X68134300Y-74200400D01*
X68134300Y-74200400D02*
X69309700Y-73025000D01*
X85090000Y-67945000D02*
X92710000Y-67945000D01*
X42450300Y-26575300D02*
X42450300Y-28448000D01*
X41275000Y-25400000D02*
X42450300Y-26575300D01*
X42450300Y-28448000D02*
X42450300Y-48165300D01*
D18*
G04 #@! TO.N,DATA_BUS7*
X70485000Y-90805000D02*
X71610300Y-90805000D01*
X92710000Y-90805000D02*
X91584700Y-90805000D01*
X91584700Y-90805000D02*
X90459400Y-91930300D01*
X90459400Y-91930300D02*
X72735600Y-91930300D01*
X72735600Y-91930300D02*
X71610300Y-90805000D01*
X53340000Y-90805000D02*
X54465300Y-90805000D01*
X70485000Y-90805000D02*
X69359700Y-90805000D01*
X69359700Y-90805000D02*
X68234400Y-91930300D01*
X68234400Y-91930300D02*
X55590600Y-91930300D01*
X55590600Y-91930300D02*
X54465300Y-90805000D01*
X33655000Y-87630000D02*
X34830300Y-87630000D01*
X53340000Y-90805000D02*
X52214700Y-90805000D01*
X52214700Y-90805000D02*
X51089400Y-89679700D01*
X51089400Y-89679700D02*
X36880000Y-89679700D01*
X36880000Y-89679700D02*
X34830300Y-87630000D01*
G04 #@! TO.N,Net-(BAR2-Pad8)*
X45720000Y-52070000D02*
X46845300Y-52070000D01*
X78740000Y-49362100D02*
X74906800Y-53195300D01*
X74906800Y-53195300D02*
X47970600Y-53195300D01*
X47970600Y-53195300D02*
X46845300Y-52070000D01*
X78740000Y-49362100D02*
X78740000Y-49197200D01*
X78740000Y-49530000D02*
X78740000Y-49362100D01*
X85090000Y-41910000D02*
X85090000Y-43035300D01*
X85090000Y-43035300D02*
X84901900Y-43035300D01*
X84901900Y-43035300D02*
X78740000Y-49197200D01*
G04 #@! TO.N,DATA_BUS6*
X70485000Y-88265000D02*
X71610300Y-88265000D01*
X92710000Y-88265000D02*
X91584700Y-88265000D01*
X91584700Y-88265000D02*
X90459400Y-89390300D01*
X90459400Y-89390300D02*
X72735600Y-89390300D01*
X72735600Y-89390300D02*
X71610300Y-88265000D01*
X53340000Y-88265000D02*
X54465300Y-88265000D01*
X70485000Y-88265000D02*
X69359700Y-88265000D01*
X69359700Y-88265000D02*
X68234400Y-89390300D01*
X68234400Y-89390300D02*
X55590600Y-89390300D01*
X55590600Y-89390300D02*
X54465300Y-88265000D01*
X53340000Y-88265000D02*
X52214700Y-88265000D01*
X52214700Y-88265000D02*
X51089400Y-87139700D01*
X51089400Y-87139700D02*
X36880000Y-87139700D01*
X36880000Y-87139700D02*
X34830300Y-85090000D01*
X33655000Y-85090000D02*
X34830300Y-85090000D01*
G04 #@! TO.N,Net-(BAR2-Pad7)*
X86995000Y-34925000D02*
X85055500Y-36864500D01*
X85055500Y-36864500D02*
X58245000Y-36864500D01*
X58245000Y-36864500D02*
X49666800Y-45442700D01*
X85090000Y-44450000D02*
X85090000Y-45575300D01*
X85090000Y-45575300D02*
X84808600Y-45575300D01*
X81788000Y-49022000D02*
X81788000Y-48595900D01*
X78740000Y-52070000D02*
X81788000Y-49022000D01*
X84808600Y-45575300D02*
X81788000Y-48595900D01*
G04 #@! TO.N,DATA_BUS5*
X76294700Y-68580000D02*
X74181300Y-70693400D01*
X74181300Y-70693400D02*
X64071300Y-70693400D01*
X64071300Y-70693400D02*
X62865000Y-71899700D01*
X46845300Y-73025000D02*
X51252800Y-73025000D01*
X51252800Y-73025000D02*
X52378100Y-71899700D01*
X52378100Y-71899700D02*
X60614400Y-71899700D01*
X60614400Y-71899700D02*
X61739700Y-73025000D01*
X62865000Y-73025000D02*
X61739700Y-73025000D01*
X62865000Y-73025000D02*
X62865000Y-71899700D01*
X45720000Y-73025000D02*
X46845300Y-73025000D01*
X84200601Y-69070001D02*
X84201000Y-69070400D01*
X84148200Y-69070400D02*
X84201000Y-69070400D01*
X81280000Y-68580000D02*
X83820000Y-66040000D01*
X83820000Y-66040000D02*
X82890900Y-66969100D01*
X80436000Y-68580000D02*
X80010000Y-68580000D01*
X80010000Y-68580000D02*
X76294700Y-68580000D01*
X92710000Y-57150000D02*
X83820000Y-66040000D01*
X81170999Y-68580000D02*
X81661000Y-69070001D01*
X80772000Y-68580000D02*
X81170999Y-68580000D01*
X80010000Y-68580000D02*
X80772000Y-68580000D01*
X80772000Y-68580000D02*
X81280000Y-68580000D01*
X81661000Y-69070001D02*
X84200601Y-69070001D01*
X85283700Y-69070400D02*
X84201000Y-69070400D01*
X91584700Y-75371400D02*
X85283700Y-69070400D01*
X91584700Y-84599700D02*
X91584700Y-75371400D01*
X92710000Y-85725000D02*
X91584700Y-84599700D01*
G04 #@! TO.N,Net-(BAR2-Pad6)*
X45720000Y-59690000D02*
X46845300Y-59690000D01*
X78740000Y-54159900D02*
X76939500Y-55960400D01*
X76939500Y-55960400D02*
X50574900Y-55960400D01*
X50574900Y-55960400D02*
X46845300Y-59690000D01*
X78740000Y-54610000D02*
X78740000Y-54159900D01*
X82931000Y-49149000D02*
X82931000Y-49968900D01*
X85090000Y-46990000D02*
X82931000Y-49149000D01*
X82931000Y-49968900D02*
X78740000Y-54159900D01*
G04 #@! TO.N,DATA_BUS4*
X69359700Y-75565000D02*
X68234400Y-76690300D01*
X68234400Y-76690300D02*
X55590600Y-76690300D01*
X55590600Y-76690300D02*
X54465300Y-75565000D01*
X70485000Y-75565000D02*
X69359700Y-75565000D01*
X53340000Y-75565000D02*
X54465300Y-75565000D01*
X33655000Y-80010000D02*
X34830300Y-80010000D01*
X53340000Y-75565000D02*
X50510500Y-75565000D01*
X50510500Y-75565000D02*
X46648900Y-79426600D01*
X46648900Y-79426600D02*
X35413700Y-79426600D01*
X35413700Y-79426600D02*
X34830300Y-80010000D01*
G04 #@! TO.N,Net-(BAR2-Pad5)*
X45720000Y-62230000D02*
X46845300Y-62230000D01*
X78740000Y-57117300D02*
X77357900Y-58499400D01*
X77357900Y-58499400D02*
X57065900Y-58499400D01*
X57065900Y-58499400D02*
X54460600Y-61104700D01*
X54460600Y-61104700D02*
X47970600Y-61104700D01*
X47970600Y-61104700D02*
X46845300Y-62230000D01*
X78740000Y-57117300D02*
X78740000Y-56627500D01*
X78740000Y-57150000D02*
X78740000Y-57117300D01*
X85090000Y-49530000D02*
X83678500Y-50941500D01*
X83678500Y-50941500D02*
X83678500Y-51689000D01*
X83678500Y-51689000D02*
X78740000Y-56627500D01*
G04 #@! TO.N,DATA_BUS3*
X54465300Y-64770000D02*
X55590600Y-63644700D01*
X55590600Y-63644700D02*
X64275000Y-63644700D01*
X64275000Y-63644700D02*
X65771600Y-65141300D01*
X65771600Y-65141300D02*
X67693800Y-65141300D01*
X67693800Y-65141300D02*
X68423600Y-64411500D01*
X53340000Y-64770000D02*
X54465300Y-64770000D01*
X34830300Y-77470000D02*
X47530300Y-64770000D01*
X47530300Y-64770000D02*
X53340000Y-64770000D01*
X33655000Y-77470000D02*
X34830300Y-77470000D01*
X71610300Y-64770000D02*
X70485000Y-64770000D01*
X92710000Y-52070000D02*
X86228300Y-58551700D01*
X86228300Y-58551700D02*
X82569800Y-58551700D01*
X82569800Y-58551700D02*
X80256100Y-60865400D01*
X80256100Y-60865400D02*
X75514900Y-60865400D01*
X75514900Y-60865400D02*
X71610300Y-64770000D01*
G04 #@! TO.N,Net-(BAR2-Pad4)*
X75560300Y-59690000D02*
X78740000Y-59690000D01*
X70296900Y-63355400D02*
X71894900Y-63355400D01*
X69359600Y-64292700D02*
X70296900Y-63355400D01*
X69359600Y-64554700D02*
X69359600Y-64292700D01*
X71894900Y-63355400D02*
X75560300Y-59690000D01*
X45720000Y-78105000D02*
X44130500Y-76515500D01*
X48673400Y-67365200D02*
X66549100Y-67365200D01*
X44130500Y-76515500D02*
X44130500Y-71908100D01*
X44130500Y-71908100D02*
X48673400Y-67365200D01*
X66549100Y-67365200D02*
X69359600Y-64554700D01*
G04 #@! TO.N,DATA_BUS2*
X53340000Y-62230000D02*
X54465300Y-62230000D01*
X33655000Y-74930000D02*
X34830300Y-74930000D01*
X53340000Y-62230000D02*
X52214700Y-62230000D01*
X52214700Y-62230000D02*
X51089400Y-63355300D01*
X51089400Y-63355300D02*
X45523500Y-63355300D01*
X45523500Y-63355300D02*
X34830300Y-74048500D01*
X34830300Y-74048500D02*
X34830300Y-74930000D01*
X69359700Y-62230000D02*
X68234400Y-61104700D01*
X68234400Y-61104700D02*
X55590600Y-61104700D01*
X55590600Y-61104700D02*
X54465300Y-62230000D01*
X70485000Y-62230000D02*
X69359700Y-62230000D01*
X71610300Y-62230000D02*
X70485000Y-62230000D01*
X74890500Y-58949800D02*
X71610300Y-62230000D01*
X77578800Y-58949800D02*
X74890500Y-58949800D01*
X92710000Y-49530000D02*
X86360000Y-55880000D01*
X83363800Y-55880000D02*
X80918400Y-58325400D01*
X86360000Y-55880000D02*
X83363800Y-55880000D01*
X80918400Y-58325400D02*
X78203200Y-58325400D01*
X78203200Y-58325400D02*
X77578800Y-58949800D01*
G04 #@! TO.N,Net-(BAR2-Pad3)*
X45720000Y-75565000D02*
X44594700Y-74439700D01*
X77564700Y-62230000D02*
X78740000Y-62230000D01*
X47584400Y-69094000D02*
X70700700Y-69094000D01*
X44594700Y-74439700D02*
X44594700Y-72083700D01*
X44594700Y-72083700D02*
X47584400Y-69094000D01*
X70700700Y-69094000D02*
X77564700Y-62230000D01*
G04 #@! TO.N,DATA_BUS1*
X46845300Y-46990000D02*
X49145300Y-46990000D01*
X49145300Y-46990000D02*
X50270600Y-45864700D01*
X50270600Y-45864700D02*
X60614400Y-45864700D01*
X60614400Y-45864700D02*
X61739700Y-46990000D01*
X93835300Y-46990000D02*
X93835300Y-38855700D01*
X93835300Y-38855700D02*
X93211300Y-38231700D01*
X93211300Y-38231700D02*
X72748600Y-38231700D01*
X72748600Y-38231700D02*
X63990300Y-46990000D01*
X94320200Y-47474900D02*
X93835300Y-46990000D01*
X92710000Y-46990000D02*
X93835300Y-46990000D01*
X62865000Y-46990000D02*
X63990300Y-46990000D01*
X62865000Y-46990000D02*
X61739700Y-46990000D01*
X45720000Y-46990000D02*
X46845300Y-46990000D01*
X94297310Y-73977690D02*
X94297310Y-72158890D01*
X94297310Y-72158890D02*
X94320200Y-72136000D01*
X92710000Y-75565000D02*
X94297310Y-73977690D01*
X94320200Y-72136000D02*
X94320200Y-47474900D01*
G04 #@! TO.N,Net-(BAR2-Pad2)*
X78740000Y-64770000D02*
X76520000Y-64770000D01*
X76520000Y-64770000D02*
X71745600Y-69544400D01*
X71745600Y-69544400D02*
X52790000Y-69544400D01*
X52790000Y-69544400D02*
X52335700Y-69998700D01*
G04 #@! TO.N,DATA_BUS0*
X70485000Y-49530000D02*
X71610300Y-49530000D01*
X92710000Y-44450000D02*
X91584700Y-44450000D01*
X91584700Y-44450000D02*
X87898600Y-40763900D01*
X87898600Y-40763900D02*
X80376400Y-40763900D01*
X80376400Y-40763900D02*
X71610300Y-49530000D01*
X53340000Y-49530000D02*
X54465300Y-49530000D01*
X70485000Y-49530000D02*
X69359700Y-49530000D01*
X69359700Y-49530000D02*
X68234400Y-50655300D01*
X68234400Y-50655300D02*
X55590600Y-50655300D01*
X55590600Y-50655300D02*
X54465300Y-49530000D01*
X91584700Y-47462600D02*
X91584700Y-44450000D01*
X92710000Y-73025000D02*
X93847300Y-71887700D01*
X93847300Y-49047500D02*
X93133700Y-48333900D01*
X93847300Y-71887700D02*
X93847300Y-49047500D01*
X93133700Y-48333900D02*
X92456000Y-48333900D01*
X92456000Y-48333900D02*
X91584700Y-47462600D01*
G04 #@! TO.N,Net-(BAR2-Pad1)*
X78740000Y-67310000D02*
X75997700Y-67310000D01*
X75997700Y-67310000D02*
X73269600Y-70038100D01*
X73269600Y-70038100D02*
X53521800Y-70038100D01*
X53521800Y-70038100D02*
X52320600Y-71239300D01*
X52320600Y-71239300D02*
X52012700Y-71239300D01*
G04 #@! TO.N,Net-(BAR1-Pad3)*
X78740000Y-87630000D02*
X79915300Y-87630000D01*
X85090000Y-88265000D02*
X80550300Y-88265000D01*
X80550300Y-88265000D02*
X79915300Y-87630000D01*
X63990300Y-88265000D02*
X65115600Y-87139700D01*
X65115600Y-87139700D02*
X77074400Y-87139700D01*
X77074400Y-87139700D02*
X77564700Y-87630000D01*
X62865000Y-88265000D02*
X63990300Y-88265000D01*
X78740000Y-87630000D02*
X77564700Y-87630000D01*
G04 #@! TO.N,Net-(BAR1-Pad4)*
X78740000Y-85090000D02*
X79915300Y-85090000D01*
X85090000Y-85725000D02*
X80550300Y-85725000D01*
X80550300Y-85725000D02*
X79915300Y-85090000D01*
X78740000Y-85090000D02*
X77564700Y-85090000D01*
X62865000Y-85725000D02*
X63990300Y-85725000D01*
X63990300Y-85725000D02*
X65129300Y-84586000D01*
X65129300Y-84586000D02*
X77060700Y-84586000D01*
X77060700Y-84586000D02*
X77564700Y-85090000D01*
G04 #@! TO.N,Net-(BAR1-Pad5)*
X68199000Y-75565000D02*
X62865000Y-75565000D01*
X69338400Y-74425600D02*
X68199000Y-75565000D01*
X78740000Y-82550000D02*
X79959600Y-81330400D01*
X77274500Y-78740000D02*
X72960100Y-74425600D01*
X72960100Y-74425600D02*
X69338400Y-74425600D01*
X79959600Y-81330400D02*
X79959600Y-79566600D01*
X79959600Y-79566600D02*
X79133000Y-78740000D01*
X79133000Y-78740000D02*
X77274500Y-78740000D01*
G04 #@! TO.N,Net-(BAR1-Pad6)*
X62865000Y-78105000D02*
X63990300Y-78105000D01*
X78740000Y-80010000D02*
X77564700Y-80010000D01*
X77564700Y-80010000D02*
X76785000Y-79230300D01*
X76785000Y-79230300D02*
X65115600Y-79230300D01*
X65115600Y-79230300D02*
X63990300Y-78105000D01*
G04 #@! TO.N,Net-(BAR1-Pad7)*
X63990300Y-62230000D02*
X66146400Y-64386100D01*
X66146400Y-64386100D02*
X67423200Y-64386100D01*
X62865000Y-62230000D02*
X63990300Y-62230000D01*
G04 #@! TO.N,Net-(BAR1-Pad8)*
X78740000Y-74930000D02*
X79915300Y-74930000D01*
X85090000Y-75565000D02*
X80550300Y-75565000D01*
X80550300Y-75565000D02*
X79915300Y-74930000D01*
X77564700Y-74930000D02*
X74053400Y-71418700D01*
X74053400Y-71418700D02*
X64481500Y-71418700D01*
X78740000Y-74930000D02*
X77564700Y-74930000D01*
G04 #@! TO.N,Net-(BAR1-Pad9)*
X78740000Y-72390000D02*
X79915300Y-72390000D01*
X85090000Y-73025000D02*
X80550300Y-73025000D01*
X80550300Y-73025000D02*
X79915300Y-72390000D01*
G04 #@! TO.N,Net-(BAR1-Pad10)*
X78740000Y-69850000D02*
X79915300Y-69850000D01*
X85090000Y-70485000D02*
X80550300Y-70485000D01*
X80550300Y-70485000D02*
X79915300Y-69850000D01*
G04 #@! TO.N,~PC_L_LOAD*
X33655000Y-59690000D02*
X34830300Y-59690000D01*
X53340000Y-59690000D02*
X48255300Y-59690000D01*
X48255300Y-59690000D02*
X47080000Y-60865300D01*
X47080000Y-60865300D02*
X36005600Y-60865300D01*
X36005600Y-60865300D02*
X34830300Y-59690000D01*
G04 #@! TO.N,~CLK_EN*
X62865000Y-80645000D02*
X61739700Y-80645000D01*
X45720000Y-80645000D02*
X46845300Y-80645000D01*
X46845300Y-80645000D02*
X47970600Y-79519700D01*
X47970600Y-79519700D02*
X60614400Y-79519700D01*
X60614400Y-79519700D02*
X61739700Y-80645000D01*
G04 #@! TO.N,DOWN_~UP*
X52249900Y-58595700D02*
X52281000Y-58564600D01*
X52281000Y-58564600D02*
X53796500Y-58564600D01*
X53796500Y-58564600D02*
X55211100Y-57150000D01*
X55211100Y-57150000D02*
X62865000Y-57150000D01*
X62865000Y-83185000D02*
X61739700Y-83185000D01*
X45720000Y-83185000D02*
X46845300Y-83185000D01*
X46845300Y-83185000D02*
X47970600Y-82059700D01*
X47970600Y-82059700D02*
X60614400Y-82059700D01*
X60614400Y-82059700D02*
X61739700Y-83185000D01*
X44594700Y-57150000D02*
X45720000Y-57150000D01*
X33655000Y-35560000D02*
X32431300Y-36783700D01*
X32431300Y-52512600D02*
X33258700Y-53340000D01*
X32431300Y-36783700D02*
X32431300Y-52512600D01*
X33258700Y-53340000D02*
X40784700Y-53340000D01*
X40784700Y-53340000D02*
X44594700Y-57150000D01*
G04 #@! TO.N,CLOCK*
X53340000Y-52070000D02*
X52214700Y-52070000D01*
X33655000Y-52070000D02*
X34830300Y-52070000D01*
X34830300Y-52070000D02*
X35955600Y-50944700D01*
X35955600Y-50944700D02*
X51089400Y-50944700D01*
X51089400Y-50944700D02*
X52214700Y-52070000D01*
G04 #@! TO.N,~PC_H_LOAD*
X64007599Y-86906400D02*
X64389000Y-86524999D01*
X69685001Y-86524999D02*
X70485000Y-85725000D01*
X58327200Y-86906400D02*
X64007599Y-86906400D01*
X64389000Y-86524999D02*
X69685001Y-86524999D01*
X43056500Y-84455000D02*
X55875800Y-84455000D01*
X39881500Y-81280000D02*
X43056500Y-84455000D01*
X55875800Y-84455000D02*
X58327200Y-86906400D01*
X33173500Y-81280000D02*
X39881500Y-81280000D01*
X32479700Y-80586200D02*
X33173500Y-81280000D01*
X32479700Y-63405300D02*
X32479700Y-80586200D01*
X33655000Y-62230000D02*
X32479700Y-63405300D01*
G04 #@! TO.N,PC_DEC*
X33655000Y-38100000D02*
X41275000Y-38100000D01*
G04 #@! TD*
D19*
G04 #@! TO.N,GND*
G36*
X100255001Y-96445000D02*
X28015000Y-96445000D01*
X28015000Y-91154039D01*
X44328096Y-91154039D01*
X44488959Y-91542423D01*
X44864866Y-91957389D01*
X45370959Y-92196914D01*
X45593000Y-92075629D01*
X45593000Y-90932000D01*
X45847000Y-90932000D01*
X45847000Y-92075629D01*
X46069041Y-92196914D01*
X46575134Y-91957389D01*
X46951041Y-91542423D01*
X47111904Y-91154039D01*
X46989915Y-90932000D01*
X45847000Y-90932000D01*
X45593000Y-90932000D01*
X44450085Y-90932000D01*
X44328096Y-91154039D01*
X28015000Y-91154039D01*
X28015000Y-36783700D01*
X31656412Y-36783700D01*
X31671300Y-36858547D01*
X31671301Y-52437748D01*
X31656412Y-52512600D01*
X31671301Y-52587452D01*
X31715397Y-52809137D01*
X31883372Y-53060529D01*
X31946827Y-53102929D01*
X32503825Y-53659927D01*
X32256161Y-54030582D01*
X32140908Y-54610000D01*
X32256161Y-55189418D01*
X32584375Y-55680625D01*
X32882761Y-55880000D01*
X32584375Y-56079375D01*
X32256161Y-56570582D01*
X32140908Y-57150000D01*
X32256161Y-57729418D01*
X32584375Y-58220625D01*
X32882761Y-58420000D01*
X32584375Y-58619375D01*
X32256161Y-59110582D01*
X32140908Y-59690000D01*
X32256161Y-60269418D01*
X32584375Y-60760625D01*
X32882761Y-60960000D01*
X32584375Y-61159375D01*
X32256161Y-61650582D01*
X32140908Y-62230000D01*
X32213791Y-62596408D01*
X31995230Y-62814969D01*
X31931771Y-62857371D01*
X31763796Y-63108764D01*
X31719700Y-63330449D01*
X31719700Y-63330453D01*
X31704812Y-63405300D01*
X31719700Y-63480147D01*
X31719701Y-80511348D01*
X31704812Y-80586200D01*
X31719701Y-80661052D01*
X31763797Y-80882737D01*
X31931772Y-81134129D01*
X31995227Y-81176528D01*
X32469698Y-81651001D01*
X32256161Y-81970582D01*
X32140908Y-82550000D01*
X32256161Y-83129418D01*
X32584375Y-83620625D01*
X32882761Y-83820000D01*
X32584375Y-84019375D01*
X32256161Y-84510582D01*
X32140908Y-85090000D01*
X32256161Y-85669418D01*
X32584375Y-86160625D01*
X32882761Y-86360000D01*
X32584375Y-86559375D01*
X32256161Y-87050582D01*
X32140908Y-87630000D01*
X32256161Y-88209418D01*
X32584375Y-88700625D01*
X33075582Y-89028839D01*
X33508744Y-89115000D01*
X33801256Y-89115000D01*
X34234418Y-89028839D01*
X34725625Y-88700625D01*
X34765879Y-88640380D01*
X36289670Y-90164172D01*
X36332071Y-90227629D01*
X36583463Y-90395604D01*
X36805148Y-90439700D01*
X36805152Y-90439700D01*
X36880000Y-90454588D01*
X36954848Y-90439700D01*
X44334831Y-90439700D01*
X44328096Y-90455961D01*
X44450085Y-90678000D01*
X45593000Y-90678000D01*
X45593000Y-90658000D01*
X45847000Y-90658000D01*
X45847000Y-90678000D01*
X46989915Y-90678000D01*
X47111904Y-90455961D01*
X47105169Y-90439700D01*
X50774599Y-90439700D01*
X51624370Y-91289472D01*
X51666771Y-91352929D01*
X51918163Y-91520904D01*
X52119214Y-91560896D01*
X52305423Y-91839577D01*
X52780091Y-92156740D01*
X53198667Y-92240000D01*
X53481333Y-92240000D01*
X53899909Y-92156740D01*
X54374577Y-91839577D01*
X54394804Y-91809305D01*
X55000271Y-92414773D01*
X55042671Y-92478229D01*
X55294063Y-92646204D01*
X55515748Y-92690300D01*
X55515752Y-92690300D01*
X55590600Y-92705188D01*
X55665448Y-92690300D01*
X68159553Y-92690300D01*
X68234400Y-92705188D01*
X68309247Y-92690300D01*
X68309252Y-92690300D01*
X68530937Y-92646204D01*
X68782329Y-92478229D01*
X68824731Y-92414770D01*
X69430196Y-91809305D01*
X69450423Y-91839577D01*
X69925091Y-92156740D01*
X70343667Y-92240000D01*
X70626333Y-92240000D01*
X71044909Y-92156740D01*
X71519577Y-91839577D01*
X71539804Y-91809305D01*
X72145271Y-92414773D01*
X72187671Y-92478229D01*
X72439063Y-92646204D01*
X72660748Y-92690300D01*
X72660752Y-92690300D01*
X72735600Y-92705188D01*
X72810448Y-92690300D01*
X90384553Y-92690300D01*
X90459400Y-92705188D01*
X90534247Y-92690300D01*
X90534252Y-92690300D01*
X90755937Y-92646204D01*
X91007329Y-92478229D01*
X91049731Y-92414770D01*
X91655196Y-91809305D01*
X91675423Y-91839577D01*
X92150091Y-92156740D01*
X92568667Y-92240000D01*
X92851333Y-92240000D01*
X93269909Y-92156740D01*
X93744577Y-91839577D01*
X94061740Y-91364909D01*
X94173113Y-90805000D01*
X94061740Y-90245091D01*
X93744577Y-89770423D01*
X93392242Y-89535000D01*
X93744577Y-89299577D01*
X94061740Y-88824909D01*
X94173113Y-88265000D01*
X94061740Y-87705091D01*
X93744577Y-87230423D01*
X93392242Y-86995000D01*
X93744577Y-86759577D01*
X94061740Y-86284909D01*
X94173113Y-85725000D01*
X94061740Y-85165091D01*
X93744577Y-84690423D01*
X93392242Y-84455000D01*
X93744577Y-84219577D01*
X94061740Y-83744909D01*
X94173113Y-83185000D01*
X94061740Y-82625091D01*
X93744577Y-82150423D01*
X93392242Y-81915000D01*
X93744577Y-81679577D01*
X94061740Y-81204909D01*
X94173113Y-80645000D01*
X94061740Y-80085091D01*
X93744577Y-79610423D01*
X93392242Y-79375000D01*
X93744577Y-79139577D01*
X94061740Y-78664909D01*
X94173113Y-78105000D01*
X94061740Y-77545091D01*
X93744577Y-77070423D01*
X93392242Y-76835000D01*
X93744577Y-76599577D01*
X94061740Y-76124909D01*
X94173113Y-75565000D01*
X94108688Y-75241114D01*
X94781786Y-74568017D01*
X94845239Y-74525619D01*
X94887637Y-74462166D01*
X94887639Y-74462164D01*
X94971412Y-74336788D01*
X95013214Y-74274227D01*
X95057310Y-74052542D01*
X95057310Y-74052538D01*
X95072198Y-73977691D01*
X95057310Y-73902844D01*
X95057310Y-72325928D01*
X95080200Y-72210852D01*
X95080200Y-72210848D01*
X95095088Y-72136001D01*
X95080200Y-72061154D01*
X95080200Y-47549746D01*
X95095088Y-47474899D01*
X95080200Y-47400052D01*
X95080200Y-47400048D01*
X95036104Y-47178363D01*
X94868129Y-46926971D01*
X94804672Y-46884571D01*
X94595300Y-46675199D01*
X94595300Y-38930546D01*
X94610188Y-38855699D01*
X94595300Y-38780852D01*
X94595300Y-38780848D01*
X94551204Y-38559163D01*
X94383229Y-38307771D01*
X94319773Y-38265371D01*
X93801631Y-37747230D01*
X93759229Y-37683771D01*
X93507837Y-37515796D01*
X93286152Y-37471700D01*
X93286147Y-37471700D01*
X93211300Y-37456812D01*
X93136453Y-37471700D01*
X85514724Y-37471700D01*
X85603429Y-37412429D01*
X85645831Y-37348970D01*
X86491379Y-36503423D01*
X86666596Y-36576000D01*
X87323404Y-36576000D01*
X87930216Y-36324650D01*
X88265000Y-35989866D01*
X88599784Y-36324650D01*
X89206596Y-36576000D01*
X89863404Y-36576000D01*
X90470216Y-36324650D01*
X90805000Y-35989866D01*
X91139784Y-36324650D01*
X91746596Y-36576000D01*
X92403404Y-36576000D01*
X93010216Y-36324650D01*
X93345000Y-35989866D01*
X93679784Y-36324650D01*
X94286596Y-36576000D01*
X94943404Y-36576000D01*
X95550216Y-36324650D01*
X96014650Y-35860216D01*
X96266000Y-35253404D01*
X96266000Y-34596596D01*
X96014650Y-33989784D01*
X95550216Y-33525350D01*
X94943404Y-33274000D01*
X94286596Y-33274000D01*
X93679784Y-33525350D01*
X93345000Y-33860134D01*
X93010216Y-33525350D01*
X92403404Y-33274000D01*
X91746596Y-33274000D01*
X91139784Y-33525350D01*
X90805000Y-33860134D01*
X90470216Y-33525350D01*
X89863404Y-33274000D01*
X89206596Y-33274000D01*
X88599784Y-33525350D01*
X88265000Y-33860134D01*
X87930216Y-33525350D01*
X87323404Y-33274000D01*
X86666596Y-33274000D01*
X86059784Y-33525350D01*
X85725000Y-33860134D01*
X85390216Y-33525350D01*
X84783404Y-33274000D01*
X84126596Y-33274000D01*
X83519784Y-33525350D01*
X83185000Y-33860134D01*
X82850216Y-33525350D01*
X82243404Y-33274000D01*
X81586596Y-33274000D01*
X80979784Y-33525350D01*
X80645000Y-33860134D01*
X80310216Y-33525350D01*
X79703404Y-33274000D01*
X79046596Y-33274000D01*
X78439784Y-33525350D01*
X78105000Y-33860134D01*
X77770216Y-33525350D01*
X77163404Y-33274000D01*
X76506596Y-33274000D01*
X75899784Y-33525350D01*
X75565000Y-33860134D01*
X75230216Y-33525350D01*
X74623404Y-33274000D01*
X73966596Y-33274000D01*
X73359784Y-33525350D01*
X73310975Y-33574159D01*
X73228809Y-33451191D01*
X73018765Y-33310843D01*
X72771000Y-33261560D01*
X70739000Y-33261560D01*
X70491235Y-33310843D01*
X70281191Y-33451191D01*
X70140843Y-33661235D01*
X70091560Y-33909000D01*
X70091560Y-34259958D01*
X69979650Y-33989784D01*
X69515216Y-33525350D01*
X68908404Y-33274000D01*
X68251596Y-33274000D01*
X67644784Y-33525350D01*
X67310000Y-33860134D01*
X66975216Y-33525350D01*
X66368404Y-33274000D01*
X65711596Y-33274000D01*
X65104784Y-33525350D01*
X64770000Y-33860134D01*
X64435216Y-33525350D01*
X63828404Y-33274000D01*
X63171596Y-33274000D01*
X62564784Y-33525350D01*
X62230000Y-33860134D01*
X61895216Y-33525350D01*
X61288404Y-33274000D01*
X60631596Y-33274000D01*
X60024784Y-33525350D01*
X59690000Y-33860134D01*
X59355216Y-33525350D01*
X58748404Y-33274000D01*
X58091596Y-33274000D01*
X57484784Y-33525350D01*
X57150000Y-33860134D01*
X56815216Y-33525350D01*
X56208404Y-33274000D01*
X55551596Y-33274000D01*
X54944784Y-33525350D01*
X54610000Y-33860134D01*
X54275216Y-33525350D01*
X53668404Y-33274000D01*
X53011596Y-33274000D01*
X52404784Y-33525350D01*
X52070000Y-33860134D01*
X51735216Y-33525350D01*
X51128404Y-33274000D01*
X50471596Y-33274000D01*
X49864784Y-33525350D01*
X49530000Y-33860134D01*
X49195216Y-33525350D01*
X48588404Y-33274000D01*
X47931596Y-33274000D01*
X47324784Y-33525350D01*
X47275975Y-33574159D01*
X47193809Y-33451191D01*
X46983765Y-33310843D01*
X46736000Y-33261560D01*
X44704000Y-33261560D01*
X44456235Y-33310843D01*
X44246191Y-33451191D01*
X44105843Y-33661235D01*
X44056560Y-33909000D01*
X44056560Y-35941000D01*
X44105843Y-36188765D01*
X44246191Y-36398809D01*
X44456235Y-36539157D01*
X44704000Y-36588440D01*
X46736000Y-36588440D01*
X46983765Y-36539157D01*
X47193809Y-36398809D01*
X47275975Y-36275841D01*
X47324784Y-36324650D01*
X47931596Y-36576000D01*
X48588404Y-36576000D01*
X49195216Y-36324650D01*
X49530000Y-35989866D01*
X49864784Y-36324650D01*
X50471596Y-36576000D01*
X51128404Y-36576000D01*
X51735216Y-36324650D01*
X52070000Y-35989866D01*
X52404784Y-36324650D01*
X53011596Y-36576000D01*
X53668404Y-36576000D01*
X54275216Y-36324650D01*
X54610000Y-35989866D01*
X54944784Y-36324650D01*
X55551596Y-36576000D01*
X56208404Y-36576000D01*
X56815216Y-36324650D01*
X57150000Y-35989866D01*
X57484784Y-36324650D01*
X57644070Y-36390628D01*
X49626999Y-44407700D01*
X49460926Y-44407700D01*
X49080520Y-44565269D01*
X48789369Y-44856420D01*
X48631800Y-45236826D01*
X48631800Y-45648574D01*
X48789369Y-46028980D01*
X48910444Y-46150055D01*
X48830499Y-46230000D01*
X47167440Y-46230000D01*
X47167440Y-46190000D01*
X47118157Y-45942235D01*
X46977809Y-45732191D01*
X46767765Y-45591843D01*
X46520000Y-45542560D01*
X44920000Y-45542560D01*
X44672235Y-45591843D01*
X44462191Y-45732191D01*
X44321843Y-45942235D01*
X44272560Y-46190000D01*
X44272560Y-47355300D01*
X43260300Y-47355300D01*
X43260300Y-26976596D01*
X44069000Y-26976596D01*
X44069000Y-27633404D01*
X44320350Y-28240216D01*
X44784784Y-28704650D01*
X45391596Y-28956000D01*
X46048404Y-28956000D01*
X46655216Y-28704650D01*
X46990000Y-28369866D01*
X47324784Y-28704650D01*
X47931596Y-28956000D01*
X48588404Y-28956000D01*
X49195216Y-28704650D01*
X49530000Y-28369866D01*
X49864784Y-28704650D01*
X50471596Y-28956000D01*
X51128404Y-28956000D01*
X51735216Y-28704650D01*
X52070000Y-28369866D01*
X52404784Y-28704650D01*
X53011596Y-28956000D01*
X53668404Y-28956000D01*
X54275216Y-28704650D01*
X54610000Y-28369866D01*
X54944784Y-28704650D01*
X55551596Y-28956000D01*
X56208404Y-28956000D01*
X56815216Y-28704650D01*
X57150000Y-28369866D01*
X57484784Y-28704650D01*
X58091596Y-28956000D01*
X58748404Y-28956000D01*
X59355216Y-28704650D01*
X59690000Y-28369866D01*
X60024784Y-28704650D01*
X60631596Y-28956000D01*
X61288404Y-28956000D01*
X61895216Y-28704650D01*
X62230000Y-28369866D01*
X62564784Y-28704650D01*
X63171596Y-28956000D01*
X63828404Y-28956000D01*
X64435216Y-28704650D01*
X64770000Y-28369866D01*
X65104784Y-28704650D01*
X65711596Y-28956000D01*
X66368404Y-28956000D01*
X66975216Y-28704650D01*
X67310000Y-28369866D01*
X67644784Y-28704650D01*
X68251596Y-28956000D01*
X68908404Y-28956000D01*
X69515216Y-28704650D01*
X69979650Y-28240216D01*
X70167500Y-27786706D01*
X70355350Y-28240216D01*
X70819784Y-28704650D01*
X71426596Y-28956000D01*
X72083404Y-28956000D01*
X72690216Y-28704650D01*
X73025000Y-28369866D01*
X73359784Y-28704650D01*
X73966596Y-28956000D01*
X74623404Y-28956000D01*
X75230216Y-28704650D01*
X75565000Y-28369866D01*
X75899784Y-28704650D01*
X76506596Y-28956000D01*
X77163404Y-28956000D01*
X77770216Y-28704650D01*
X78105000Y-28369866D01*
X78439784Y-28704650D01*
X79046596Y-28956000D01*
X79703404Y-28956000D01*
X80310216Y-28704650D01*
X80645000Y-28369866D01*
X80979784Y-28704650D01*
X81586596Y-28956000D01*
X82243404Y-28956000D01*
X82850216Y-28704650D01*
X83185000Y-28369866D01*
X83519784Y-28704650D01*
X84126596Y-28956000D01*
X84783404Y-28956000D01*
X85390216Y-28704650D01*
X85725000Y-28369866D01*
X86059784Y-28704650D01*
X86666596Y-28956000D01*
X87323404Y-28956000D01*
X87930216Y-28704650D01*
X88265000Y-28369866D01*
X88599784Y-28704650D01*
X89206596Y-28956000D01*
X89863404Y-28956000D01*
X90470216Y-28704650D01*
X90805000Y-28369866D01*
X91139784Y-28704650D01*
X91746596Y-28956000D01*
X92403404Y-28956000D01*
X93010216Y-28704650D01*
X93345000Y-28369866D01*
X93679784Y-28704650D01*
X94286596Y-28956000D01*
X94943404Y-28956000D01*
X95550216Y-28704650D01*
X96014650Y-28240216D01*
X96266000Y-27633404D01*
X96266000Y-26976596D01*
X96014650Y-26369784D01*
X95550216Y-25905350D01*
X94943404Y-25654000D01*
X94286596Y-25654000D01*
X93679784Y-25905350D01*
X93345000Y-26240134D01*
X93010216Y-25905350D01*
X92403404Y-25654000D01*
X91746596Y-25654000D01*
X91139784Y-25905350D01*
X90805000Y-26240134D01*
X90470216Y-25905350D01*
X89863404Y-25654000D01*
X89206596Y-25654000D01*
X88599784Y-25905350D01*
X88265000Y-26240134D01*
X87930216Y-25905350D01*
X87323404Y-25654000D01*
X86666596Y-25654000D01*
X86059784Y-25905350D01*
X85725000Y-26240134D01*
X85390216Y-25905350D01*
X84783404Y-25654000D01*
X84126596Y-25654000D01*
X83519784Y-25905350D01*
X83185000Y-26240134D01*
X82850216Y-25905350D01*
X82243404Y-25654000D01*
X81586596Y-25654000D01*
X80979784Y-25905350D01*
X80645000Y-26240134D01*
X80310216Y-25905350D01*
X79703404Y-25654000D01*
X79046596Y-25654000D01*
X78439784Y-25905350D01*
X78105000Y-26240134D01*
X77770216Y-25905350D01*
X77163404Y-25654000D01*
X76506596Y-25654000D01*
X75899784Y-25905350D01*
X75565000Y-26240134D01*
X75230216Y-25905350D01*
X74623404Y-25654000D01*
X73966596Y-25654000D01*
X73359784Y-25905350D01*
X73025000Y-26240134D01*
X72690216Y-25905350D01*
X72083404Y-25654000D01*
X71426596Y-25654000D01*
X70819784Y-25905350D01*
X70355350Y-26369784D01*
X70167500Y-26823294D01*
X69979650Y-26369784D01*
X69515216Y-25905350D01*
X68908404Y-25654000D01*
X68251596Y-25654000D01*
X67644784Y-25905350D01*
X67310000Y-26240134D01*
X66975216Y-25905350D01*
X66368404Y-25654000D01*
X65711596Y-25654000D01*
X65104784Y-25905350D01*
X64770000Y-26240134D01*
X64435216Y-25905350D01*
X63828404Y-25654000D01*
X63171596Y-25654000D01*
X62564784Y-25905350D01*
X62230000Y-26240134D01*
X61895216Y-25905350D01*
X61288404Y-25654000D01*
X60631596Y-25654000D01*
X60024784Y-25905350D01*
X59690000Y-26240134D01*
X59355216Y-25905350D01*
X58748404Y-25654000D01*
X58091596Y-25654000D01*
X57484784Y-25905350D01*
X57150000Y-26240134D01*
X56815216Y-25905350D01*
X56208404Y-25654000D01*
X55551596Y-25654000D01*
X54944784Y-25905350D01*
X54610000Y-26240134D01*
X54275216Y-25905350D01*
X53668404Y-25654000D01*
X53011596Y-25654000D01*
X52404784Y-25905350D01*
X52070000Y-26240134D01*
X51735216Y-25905350D01*
X51128404Y-25654000D01*
X50471596Y-25654000D01*
X49864784Y-25905350D01*
X49530000Y-26240134D01*
X49195216Y-25905350D01*
X48588404Y-25654000D01*
X47931596Y-25654000D01*
X47324784Y-25905350D01*
X46990000Y-26240134D01*
X46655216Y-25905350D01*
X46048404Y-25654000D01*
X45391596Y-25654000D01*
X44784784Y-25905350D01*
X44320350Y-26369784D01*
X44069000Y-26976596D01*
X43260300Y-26976596D01*
X43260300Y-26655072D01*
X43276168Y-26575299D01*
X43250800Y-26447765D01*
X43213303Y-26259254D01*
X43034277Y-25991323D01*
X42966647Y-25946134D01*
X42685420Y-25664907D01*
X42738113Y-25400000D01*
X42626740Y-24840091D01*
X42309577Y-24365423D01*
X41834909Y-24048260D01*
X41416333Y-23965000D01*
X41133667Y-23965000D01*
X40715091Y-24048260D01*
X40240423Y-24365423D01*
X39923260Y-24840091D01*
X39811887Y-25400000D01*
X39923260Y-25959909D01*
X40240423Y-26434577D01*
X40592758Y-26670000D01*
X40240423Y-26905423D01*
X39923260Y-27380091D01*
X39811887Y-27940000D01*
X39923260Y-28499909D01*
X40240423Y-28974577D01*
X40592758Y-29210000D01*
X40240423Y-29445423D01*
X39923260Y-29920091D01*
X39811887Y-30480000D01*
X39923260Y-31039909D01*
X40240423Y-31514577D01*
X40592758Y-31750000D01*
X40240423Y-31985423D01*
X39923260Y-32460091D01*
X39811887Y-33020000D01*
X39923260Y-33579909D01*
X40240423Y-34054577D01*
X40592758Y-34290000D01*
X40240423Y-34525423D01*
X39923260Y-35000091D01*
X39811887Y-35560000D01*
X39923260Y-36119909D01*
X40240423Y-36594577D01*
X40592758Y-36830000D01*
X40240423Y-37065423D01*
X40056957Y-37340000D01*
X34873043Y-37340000D01*
X34689577Y-37065423D01*
X34337242Y-36830000D01*
X34689577Y-36594577D01*
X35006740Y-36119909D01*
X35118113Y-35560000D01*
X35006740Y-35000091D01*
X34689577Y-34525423D01*
X34337242Y-34290000D01*
X34689577Y-34054577D01*
X35006740Y-33579909D01*
X35118113Y-33020000D01*
X35006740Y-32460091D01*
X34689577Y-31985423D01*
X34337242Y-31750000D01*
X34689577Y-31514577D01*
X35006740Y-31039909D01*
X35118113Y-30480000D01*
X35006740Y-29920091D01*
X34689577Y-29445423D01*
X34337242Y-29210000D01*
X34689577Y-28974577D01*
X35006740Y-28499909D01*
X35118113Y-27940000D01*
X35006740Y-27380091D01*
X34689577Y-26905423D01*
X34568894Y-26824785D01*
X34702765Y-26798157D01*
X34912809Y-26657809D01*
X35053157Y-26447765D01*
X35102440Y-26200000D01*
X35102440Y-24600000D01*
X35053157Y-24352235D01*
X34912809Y-24142191D01*
X34702765Y-24001843D01*
X34455000Y-23952560D01*
X32855000Y-23952560D01*
X32607235Y-24001843D01*
X32397191Y-24142191D01*
X32256843Y-24352235D01*
X32207560Y-24600000D01*
X32207560Y-26200000D01*
X32256843Y-26447765D01*
X32397191Y-26657809D01*
X32607235Y-26798157D01*
X32741106Y-26824785D01*
X32620423Y-26905423D01*
X32303260Y-27380091D01*
X32191887Y-27940000D01*
X32303260Y-28499909D01*
X32620423Y-28974577D01*
X32972758Y-29210000D01*
X32620423Y-29445423D01*
X32303260Y-29920091D01*
X32191887Y-30480000D01*
X32303260Y-31039909D01*
X32620423Y-31514577D01*
X32972758Y-31750000D01*
X32620423Y-31985423D01*
X32303260Y-32460091D01*
X32191887Y-33020000D01*
X32303260Y-33579909D01*
X32620423Y-34054577D01*
X32972758Y-34290000D01*
X32620423Y-34525423D01*
X32303260Y-35000091D01*
X32191887Y-35560000D01*
X32256312Y-35883887D01*
X31946830Y-36193369D01*
X31883371Y-36235771D01*
X31715396Y-36487164D01*
X31671300Y-36708849D01*
X31671300Y-36708853D01*
X31656412Y-36783700D01*
X28015000Y-36783700D01*
X28015000Y-23780750D01*
X44285000Y-23780750D01*
X44285000Y-24421310D01*
X44381673Y-24654699D01*
X44560302Y-24833327D01*
X44793691Y-24930000D01*
X45434250Y-24930000D01*
X45593000Y-24771250D01*
X45593000Y-23622000D01*
X44443750Y-23622000D01*
X44285000Y-23780750D01*
X28015000Y-23780750D01*
X28015000Y-22568690D01*
X44285000Y-22568690D01*
X44285000Y-23209250D01*
X44443750Y-23368000D01*
X45593000Y-23368000D01*
X45593000Y-22218750D01*
X45847000Y-22218750D01*
X45847000Y-23368000D01*
X45867000Y-23368000D01*
X45867000Y-23622000D01*
X45847000Y-23622000D01*
X45847000Y-24771250D01*
X46005750Y-24930000D01*
X46646309Y-24930000D01*
X46879698Y-24833327D01*
X47058327Y-24654699D01*
X47154266Y-24423083D01*
X47225423Y-24529577D01*
X47700091Y-24846740D01*
X48118667Y-24930000D01*
X48401333Y-24930000D01*
X48819909Y-24846740D01*
X49294577Y-24529577D01*
X49530000Y-24177242D01*
X49765423Y-24529577D01*
X50240091Y-24846740D01*
X50658667Y-24930000D01*
X50941333Y-24930000D01*
X51359909Y-24846740D01*
X51834577Y-24529577D01*
X52070000Y-24177242D01*
X52305423Y-24529577D01*
X52780091Y-24846740D01*
X53198667Y-24930000D01*
X53481333Y-24930000D01*
X53899909Y-24846740D01*
X54374577Y-24529577D01*
X54610000Y-24177242D01*
X54845423Y-24529577D01*
X55320091Y-24846740D01*
X55738667Y-24930000D01*
X56021333Y-24930000D01*
X56439909Y-24846740D01*
X56914577Y-24529577D01*
X57150000Y-24177242D01*
X57385423Y-24529577D01*
X57860091Y-24846740D01*
X58278667Y-24930000D01*
X58561333Y-24930000D01*
X58979909Y-24846740D01*
X59454577Y-24529577D01*
X59690000Y-24177242D01*
X59925423Y-24529577D01*
X60400091Y-24846740D01*
X60818667Y-24930000D01*
X61101333Y-24930000D01*
X61519909Y-24846740D01*
X61994577Y-24529577D01*
X62230000Y-24177242D01*
X62465423Y-24529577D01*
X62940091Y-24846740D01*
X63358667Y-24930000D01*
X63641333Y-24930000D01*
X64059909Y-24846740D01*
X64534577Y-24529577D01*
X64770000Y-24177242D01*
X65005423Y-24529577D01*
X65480091Y-24846740D01*
X65898667Y-24930000D01*
X66181333Y-24930000D01*
X66599909Y-24846740D01*
X67074577Y-24529577D01*
X67391740Y-24054909D01*
X67446273Y-23780750D01*
X67780000Y-23780750D01*
X67780000Y-24421310D01*
X67876673Y-24654699D01*
X68055302Y-24833327D01*
X68288691Y-24930000D01*
X68929250Y-24930000D01*
X69088000Y-24771250D01*
X69088000Y-23622000D01*
X67938750Y-23622000D01*
X67780000Y-23780750D01*
X67446273Y-23780750D01*
X67503113Y-23495000D01*
X67391740Y-22935091D01*
X67146919Y-22568690D01*
X67780000Y-22568690D01*
X67780000Y-23209250D01*
X67938750Y-23368000D01*
X69088000Y-23368000D01*
X69088000Y-22218750D01*
X69342000Y-22218750D01*
X69342000Y-23368000D01*
X69362000Y-23368000D01*
X69362000Y-23622000D01*
X69342000Y-23622000D01*
X69342000Y-24771250D01*
X69500750Y-24930000D01*
X70141309Y-24930000D01*
X70374698Y-24833327D01*
X70553327Y-24654699D01*
X70649266Y-24423083D01*
X70720423Y-24529577D01*
X71195091Y-24846740D01*
X71613667Y-24930000D01*
X71896333Y-24930000D01*
X72314909Y-24846740D01*
X72789577Y-24529577D01*
X73025000Y-24177242D01*
X73260423Y-24529577D01*
X73735091Y-24846740D01*
X74153667Y-24930000D01*
X74436333Y-24930000D01*
X74854909Y-24846740D01*
X75329577Y-24529577D01*
X75565000Y-24177242D01*
X75800423Y-24529577D01*
X76275091Y-24846740D01*
X76693667Y-24930000D01*
X76976333Y-24930000D01*
X77394909Y-24846740D01*
X77869577Y-24529577D01*
X78105000Y-24177242D01*
X78340423Y-24529577D01*
X78815091Y-24846740D01*
X79233667Y-24930000D01*
X79516333Y-24930000D01*
X79934909Y-24846740D01*
X80409577Y-24529577D01*
X80645000Y-24177242D01*
X80880423Y-24529577D01*
X81355091Y-24846740D01*
X81773667Y-24930000D01*
X82056333Y-24930000D01*
X82474909Y-24846740D01*
X82949577Y-24529577D01*
X83185000Y-24177242D01*
X83420423Y-24529577D01*
X83895091Y-24846740D01*
X84313667Y-24930000D01*
X84596333Y-24930000D01*
X85014909Y-24846740D01*
X85489577Y-24529577D01*
X85725000Y-24177242D01*
X85960423Y-24529577D01*
X86435091Y-24846740D01*
X86853667Y-24930000D01*
X87136333Y-24930000D01*
X87554909Y-24846740D01*
X88029577Y-24529577D01*
X88265000Y-24177242D01*
X88500423Y-24529577D01*
X88975091Y-24846740D01*
X89393667Y-24930000D01*
X89676333Y-24930000D01*
X90094909Y-24846740D01*
X90569577Y-24529577D01*
X90886740Y-24054909D01*
X90998113Y-23495000D01*
X90886740Y-22935091D01*
X90569577Y-22460423D01*
X90094909Y-22143260D01*
X89676333Y-22060000D01*
X89393667Y-22060000D01*
X88975091Y-22143260D01*
X88500423Y-22460423D01*
X88265000Y-22812758D01*
X88029577Y-22460423D01*
X87554909Y-22143260D01*
X87136333Y-22060000D01*
X86853667Y-22060000D01*
X86435091Y-22143260D01*
X85960423Y-22460423D01*
X85725000Y-22812758D01*
X85489577Y-22460423D01*
X85014909Y-22143260D01*
X84596333Y-22060000D01*
X84313667Y-22060000D01*
X83895091Y-22143260D01*
X83420423Y-22460423D01*
X83185000Y-22812758D01*
X82949577Y-22460423D01*
X82474909Y-22143260D01*
X82056333Y-22060000D01*
X81773667Y-22060000D01*
X81355091Y-22143260D01*
X80880423Y-22460423D01*
X80645000Y-22812758D01*
X80409577Y-22460423D01*
X79934909Y-22143260D01*
X79516333Y-22060000D01*
X79233667Y-22060000D01*
X78815091Y-22143260D01*
X78340423Y-22460423D01*
X78105000Y-22812758D01*
X77869577Y-22460423D01*
X77394909Y-22143260D01*
X76976333Y-22060000D01*
X76693667Y-22060000D01*
X76275091Y-22143260D01*
X75800423Y-22460423D01*
X75565000Y-22812758D01*
X75329577Y-22460423D01*
X74854909Y-22143260D01*
X74436333Y-22060000D01*
X74153667Y-22060000D01*
X73735091Y-22143260D01*
X73260423Y-22460423D01*
X73025000Y-22812758D01*
X72789577Y-22460423D01*
X72314909Y-22143260D01*
X71896333Y-22060000D01*
X71613667Y-22060000D01*
X71195091Y-22143260D01*
X70720423Y-22460423D01*
X70649266Y-22566917D01*
X70553327Y-22335301D01*
X70374698Y-22156673D01*
X70141309Y-22060000D01*
X69500750Y-22060000D01*
X69342000Y-22218750D01*
X69088000Y-22218750D01*
X68929250Y-22060000D01*
X68288691Y-22060000D01*
X68055302Y-22156673D01*
X67876673Y-22335301D01*
X67780000Y-22568690D01*
X67146919Y-22568690D01*
X67074577Y-22460423D01*
X66599909Y-22143260D01*
X66181333Y-22060000D01*
X65898667Y-22060000D01*
X65480091Y-22143260D01*
X65005423Y-22460423D01*
X64770000Y-22812758D01*
X64534577Y-22460423D01*
X64059909Y-22143260D01*
X63641333Y-22060000D01*
X63358667Y-22060000D01*
X62940091Y-22143260D01*
X62465423Y-22460423D01*
X62230000Y-22812758D01*
X61994577Y-22460423D01*
X61519909Y-22143260D01*
X61101333Y-22060000D01*
X60818667Y-22060000D01*
X60400091Y-22143260D01*
X59925423Y-22460423D01*
X59690000Y-22812758D01*
X59454577Y-22460423D01*
X58979909Y-22143260D01*
X58561333Y-22060000D01*
X58278667Y-22060000D01*
X57860091Y-22143260D01*
X57385423Y-22460423D01*
X57150000Y-22812758D01*
X56914577Y-22460423D01*
X56439909Y-22143260D01*
X56021333Y-22060000D01*
X55738667Y-22060000D01*
X55320091Y-22143260D01*
X54845423Y-22460423D01*
X54610000Y-22812758D01*
X54374577Y-22460423D01*
X53899909Y-22143260D01*
X53481333Y-22060000D01*
X53198667Y-22060000D01*
X52780091Y-22143260D01*
X52305423Y-22460423D01*
X52070000Y-22812758D01*
X51834577Y-22460423D01*
X51359909Y-22143260D01*
X50941333Y-22060000D01*
X50658667Y-22060000D01*
X50240091Y-22143260D01*
X49765423Y-22460423D01*
X49530000Y-22812758D01*
X49294577Y-22460423D01*
X48819909Y-22143260D01*
X48401333Y-22060000D01*
X48118667Y-22060000D01*
X47700091Y-22143260D01*
X47225423Y-22460423D01*
X47154266Y-22566917D01*
X47058327Y-22335301D01*
X46879698Y-22156673D01*
X46646309Y-22060000D01*
X46005750Y-22060000D01*
X45847000Y-22218750D01*
X45593000Y-22218750D01*
X45434250Y-22060000D01*
X44793691Y-22060000D01*
X44560302Y-22156673D01*
X44381673Y-22335301D01*
X44285000Y-22568690D01*
X28015000Y-22568690D01*
X28015000Y-17855000D01*
X100255000Y-17855000D01*
X100255001Y-96445000D01*
X100255001Y-96445000D01*
G37*
X100255001Y-96445000D02*
X28015000Y-96445000D01*
X28015000Y-91154039D01*
X44328096Y-91154039D01*
X44488959Y-91542423D01*
X44864866Y-91957389D01*
X45370959Y-92196914D01*
X45593000Y-92075629D01*
X45593000Y-90932000D01*
X45847000Y-90932000D01*
X45847000Y-92075629D01*
X46069041Y-92196914D01*
X46575134Y-91957389D01*
X46951041Y-91542423D01*
X47111904Y-91154039D01*
X46989915Y-90932000D01*
X45847000Y-90932000D01*
X45593000Y-90932000D01*
X44450085Y-90932000D01*
X44328096Y-91154039D01*
X28015000Y-91154039D01*
X28015000Y-36783700D01*
X31656412Y-36783700D01*
X31671300Y-36858547D01*
X31671301Y-52437748D01*
X31656412Y-52512600D01*
X31671301Y-52587452D01*
X31715397Y-52809137D01*
X31883372Y-53060529D01*
X31946827Y-53102929D01*
X32503825Y-53659927D01*
X32256161Y-54030582D01*
X32140908Y-54610000D01*
X32256161Y-55189418D01*
X32584375Y-55680625D01*
X32882761Y-55880000D01*
X32584375Y-56079375D01*
X32256161Y-56570582D01*
X32140908Y-57150000D01*
X32256161Y-57729418D01*
X32584375Y-58220625D01*
X32882761Y-58420000D01*
X32584375Y-58619375D01*
X32256161Y-59110582D01*
X32140908Y-59690000D01*
X32256161Y-60269418D01*
X32584375Y-60760625D01*
X32882761Y-60960000D01*
X32584375Y-61159375D01*
X32256161Y-61650582D01*
X32140908Y-62230000D01*
X32213791Y-62596408D01*
X31995230Y-62814969D01*
X31931771Y-62857371D01*
X31763796Y-63108764D01*
X31719700Y-63330449D01*
X31719700Y-63330453D01*
X31704812Y-63405300D01*
X31719700Y-63480147D01*
X31719701Y-80511348D01*
X31704812Y-80586200D01*
X31719701Y-80661052D01*
X31763797Y-80882737D01*
X31931772Y-81134129D01*
X31995227Y-81176528D01*
X32469698Y-81651001D01*
X32256161Y-81970582D01*
X32140908Y-82550000D01*
X32256161Y-83129418D01*
X32584375Y-83620625D01*
X32882761Y-83820000D01*
X32584375Y-84019375D01*
X32256161Y-84510582D01*
X32140908Y-85090000D01*
X32256161Y-85669418D01*
X32584375Y-86160625D01*
X32882761Y-86360000D01*
X32584375Y-86559375D01*
X32256161Y-87050582D01*
X32140908Y-87630000D01*
X32256161Y-88209418D01*
X32584375Y-88700625D01*
X33075582Y-89028839D01*
X33508744Y-89115000D01*
X33801256Y-89115000D01*
X34234418Y-89028839D01*
X34725625Y-88700625D01*
X34765879Y-88640380D01*
X36289670Y-90164172D01*
X36332071Y-90227629D01*
X36583463Y-90395604D01*
X36805148Y-90439700D01*
X36805152Y-90439700D01*
X36880000Y-90454588D01*
X36954848Y-90439700D01*
X44334831Y-90439700D01*
X44328096Y-90455961D01*
X44450085Y-90678000D01*
X45593000Y-90678000D01*
X45593000Y-90658000D01*
X45847000Y-90658000D01*
X45847000Y-90678000D01*
X46989915Y-90678000D01*
X47111904Y-90455961D01*
X47105169Y-90439700D01*
X50774599Y-90439700D01*
X51624370Y-91289472D01*
X51666771Y-91352929D01*
X51918163Y-91520904D01*
X52119214Y-91560896D01*
X52305423Y-91839577D01*
X52780091Y-92156740D01*
X53198667Y-92240000D01*
X53481333Y-92240000D01*
X53899909Y-92156740D01*
X54374577Y-91839577D01*
X54394804Y-91809305D01*
X55000271Y-92414773D01*
X55042671Y-92478229D01*
X55294063Y-92646204D01*
X55515748Y-92690300D01*
X55515752Y-92690300D01*
X55590600Y-92705188D01*
X55665448Y-92690300D01*
X68159553Y-92690300D01*
X68234400Y-92705188D01*
X68309247Y-92690300D01*
X68309252Y-92690300D01*
X68530937Y-92646204D01*
X68782329Y-92478229D01*
X68824731Y-92414770D01*
X69430196Y-91809305D01*
X69450423Y-91839577D01*
X69925091Y-92156740D01*
X70343667Y-92240000D01*
X70626333Y-92240000D01*
X71044909Y-92156740D01*
X71519577Y-91839577D01*
X71539804Y-91809305D01*
X72145271Y-92414773D01*
X72187671Y-92478229D01*
X72439063Y-92646204D01*
X72660748Y-92690300D01*
X72660752Y-92690300D01*
X72735600Y-92705188D01*
X72810448Y-92690300D01*
X90384553Y-92690300D01*
X90459400Y-92705188D01*
X90534247Y-92690300D01*
X90534252Y-92690300D01*
X90755937Y-92646204D01*
X91007329Y-92478229D01*
X91049731Y-92414770D01*
X91655196Y-91809305D01*
X91675423Y-91839577D01*
X92150091Y-92156740D01*
X92568667Y-92240000D01*
X92851333Y-92240000D01*
X93269909Y-92156740D01*
X93744577Y-91839577D01*
X94061740Y-91364909D01*
X94173113Y-90805000D01*
X94061740Y-90245091D01*
X93744577Y-89770423D01*
X93392242Y-89535000D01*
X93744577Y-89299577D01*
X94061740Y-88824909D01*
X94173113Y-88265000D01*
X94061740Y-87705091D01*
X93744577Y-87230423D01*
X93392242Y-86995000D01*
X93744577Y-86759577D01*
X94061740Y-86284909D01*
X94173113Y-85725000D01*
X94061740Y-85165091D01*
X93744577Y-84690423D01*
X93392242Y-84455000D01*
X93744577Y-84219577D01*
X94061740Y-83744909D01*
X94173113Y-83185000D01*
X94061740Y-82625091D01*
X93744577Y-82150423D01*
X93392242Y-81915000D01*
X93744577Y-81679577D01*
X94061740Y-81204909D01*
X94173113Y-80645000D01*
X94061740Y-80085091D01*
X93744577Y-79610423D01*
X93392242Y-79375000D01*
X93744577Y-79139577D01*
X94061740Y-78664909D01*
X94173113Y-78105000D01*
X94061740Y-77545091D01*
X93744577Y-77070423D01*
X93392242Y-76835000D01*
X93744577Y-76599577D01*
X94061740Y-76124909D01*
X94173113Y-75565000D01*
X94108688Y-75241114D01*
X94781786Y-74568017D01*
X94845239Y-74525619D01*
X94887637Y-74462166D01*
X94887639Y-74462164D01*
X94971412Y-74336788D01*
X95013214Y-74274227D01*
X95057310Y-74052542D01*
X95057310Y-74052538D01*
X95072198Y-73977691D01*
X95057310Y-73902844D01*
X95057310Y-72325928D01*
X95080200Y-72210852D01*
X95080200Y-72210848D01*
X95095088Y-72136001D01*
X95080200Y-72061154D01*
X95080200Y-47549746D01*
X95095088Y-47474899D01*
X95080200Y-47400052D01*
X95080200Y-47400048D01*
X95036104Y-47178363D01*
X94868129Y-46926971D01*
X94804672Y-46884571D01*
X94595300Y-46675199D01*
X94595300Y-38930546D01*
X94610188Y-38855699D01*
X94595300Y-38780852D01*
X94595300Y-38780848D01*
X94551204Y-38559163D01*
X94383229Y-38307771D01*
X94319773Y-38265371D01*
X93801631Y-37747230D01*
X93759229Y-37683771D01*
X93507837Y-37515796D01*
X93286152Y-37471700D01*
X93286147Y-37471700D01*
X93211300Y-37456812D01*
X93136453Y-37471700D01*
X85514724Y-37471700D01*
X85603429Y-37412429D01*
X85645831Y-37348970D01*
X86491379Y-36503423D01*
X86666596Y-36576000D01*
X87323404Y-36576000D01*
X87930216Y-36324650D01*
X88265000Y-35989866D01*
X88599784Y-36324650D01*
X89206596Y-36576000D01*
X89863404Y-36576000D01*
X90470216Y-36324650D01*
X90805000Y-35989866D01*
X91139784Y-36324650D01*
X91746596Y-36576000D01*
X92403404Y-36576000D01*
X93010216Y-36324650D01*
X93345000Y-35989866D01*
X93679784Y-36324650D01*
X94286596Y-36576000D01*
X94943404Y-36576000D01*
X95550216Y-36324650D01*
X96014650Y-35860216D01*
X96266000Y-35253404D01*
X96266000Y-34596596D01*
X96014650Y-33989784D01*
X95550216Y-33525350D01*
X94943404Y-33274000D01*
X94286596Y-33274000D01*
X93679784Y-33525350D01*
X93345000Y-33860134D01*
X93010216Y-33525350D01*
X92403404Y-33274000D01*
X91746596Y-33274000D01*
X91139784Y-33525350D01*
X90805000Y-33860134D01*
X90470216Y-33525350D01*
X89863404Y-33274000D01*
X89206596Y-33274000D01*
X88599784Y-33525350D01*
X88265000Y-33860134D01*
X87930216Y-33525350D01*
X87323404Y-33274000D01*
X86666596Y-33274000D01*
X86059784Y-33525350D01*
X85725000Y-33860134D01*
X85390216Y-33525350D01*
X84783404Y-33274000D01*
X84126596Y-33274000D01*
X83519784Y-33525350D01*
X83185000Y-33860134D01*
X82850216Y-33525350D01*
X82243404Y-33274000D01*
X81586596Y-33274000D01*
X80979784Y-33525350D01*
X80645000Y-33860134D01*
X80310216Y-33525350D01*
X79703404Y-33274000D01*
X79046596Y-33274000D01*
X78439784Y-33525350D01*
X78105000Y-33860134D01*
X77770216Y-33525350D01*
X77163404Y-33274000D01*
X76506596Y-33274000D01*
X75899784Y-33525350D01*
X75565000Y-33860134D01*
X75230216Y-33525350D01*
X74623404Y-33274000D01*
X73966596Y-33274000D01*
X73359784Y-33525350D01*
X73310975Y-33574159D01*
X73228809Y-33451191D01*
X73018765Y-33310843D01*
X72771000Y-33261560D01*
X70739000Y-33261560D01*
X70491235Y-33310843D01*
X70281191Y-33451191D01*
X70140843Y-33661235D01*
X70091560Y-33909000D01*
X70091560Y-34259958D01*
X69979650Y-33989784D01*
X69515216Y-33525350D01*
X68908404Y-33274000D01*
X68251596Y-33274000D01*
X67644784Y-33525350D01*
X67310000Y-33860134D01*
X66975216Y-33525350D01*
X66368404Y-33274000D01*
X65711596Y-33274000D01*
X65104784Y-33525350D01*
X64770000Y-33860134D01*
X64435216Y-33525350D01*
X63828404Y-33274000D01*
X63171596Y-33274000D01*
X62564784Y-33525350D01*
X62230000Y-33860134D01*
X61895216Y-33525350D01*
X61288404Y-33274000D01*
X60631596Y-33274000D01*
X60024784Y-33525350D01*
X59690000Y-33860134D01*
X59355216Y-33525350D01*
X58748404Y-33274000D01*
X58091596Y-33274000D01*
X57484784Y-33525350D01*
X57150000Y-33860134D01*
X56815216Y-33525350D01*
X56208404Y-33274000D01*
X55551596Y-33274000D01*
X54944784Y-33525350D01*
X54610000Y-33860134D01*
X54275216Y-33525350D01*
X53668404Y-33274000D01*
X53011596Y-33274000D01*
X52404784Y-33525350D01*
X52070000Y-33860134D01*
X51735216Y-33525350D01*
X51128404Y-33274000D01*
X50471596Y-33274000D01*
X49864784Y-33525350D01*
X49530000Y-33860134D01*
X49195216Y-33525350D01*
X48588404Y-33274000D01*
X47931596Y-33274000D01*
X47324784Y-33525350D01*
X47275975Y-33574159D01*
X47193809Y-33451191D01*
X46983765Y-33310843D01*
X46736000Y-33261560D01*
X44704000Y-33261560D01*
X44456235Y-33310843D01*
X44246191Y-33451191D01*
X44105843Y-33661235D01*
X44056560Y-33909000D01*
X44056560Y-35941000D01*
X44105843Y-36188765D01*
X44246191Y-36398809D01*
X44456235Y-36539157D01*
X44704000Y-36588440D01*
X46736000Y-36588440D01*
X46983765Y-36539157D01*
X47193809Y-36398809D01*
X47275975Y-36275841D01*
X47324784Y-36324650D01*
X47931596Y-36576000D01*
X48588404Y-36576000D01*
X49195216Y-36324650D01*
X49530000Y-35989866D01*
X49864784Y-36324650D01*
X50471596Y-36576000D01*
X51128404Y-36576000D01*
X51735216Y-36324650D01*
X52070000Y-35989866D01*
X52404784Y-36324650D01*
X53011596Y-36576000D01*
X53668404Y-36576000D01*
X54275216Y-36324650D01*
X54610000Y-35989866D01*
X54944784Y-36324650D01*
X55551596Y-36576000D01*
X56208404Y-36576000D01*
X56815216Y-36324650D01*
X57150000Y-35989866D01*
X57484784Y-36324650D01*
X57644070Y-36390628D01*
X49626999Y-44407700D01*
X49460926Y-44407700D01*
X49080520Y-44565269D01*
X48789369Y-44856420D01*
X48631800Y-45236826D01*
X48631800Y-45648574D01*
X48789369Y-46028980D01*
X48910444Y-46150055D01*
X48830499Y-46230000D01*
X47167440Y-46230000D01*
X47167440Y-46190000D01*
X47118157Y-45942235D01*
X46977809Y-45732191D01*
X46767765Y-45591843D01*
X46520000Y-45542560D01*
X44920000Y-45542560D01*
X44672235Y-45591843D01*
X44462191Y-45732191D01*
X44321843Y-45942235D01*
X44272560Y-46190000D01*
X44272560Y-47355300D01*
X43260300Y-47355300D01*
X43260300Y-26976596D01*
X44069000Y-26976596D01*
X44069000Y-27633404D01*
X44320350Y-28240216D01*
X44784784Y-28704650D01*
X45391596Y-28956000D01*
X46048404Y-28956000D01*
X46655216Y-28704650D01*
X46990000Y-28369866D01*
X47324784Y-28704650D01*
X47931596Y-28956000D01*
X48588404Y-28956000D01*
X49195216Y-28704650D01*
X49530000Y-28369866D01*
X49864784Y-28704650D01*
X50471596Y-28956000D01*
X51128404Y-28956000D01*
X51735216Y-28704650D01*
X52070000Y-28369866D01*
X52404784Y-28704650D01*
X53011596Y-28956000D01*
X53668404Y-28956000D01*
X54275216Y-28704650D01*
X54610000Y-28369866D01*
X54944784Y-28704650D01*
X55551596Y-28956000D01*
X56208404Y-28956000D01*
X56815216Y-28704650D01*
X57150000Y-28369866D01*
X57484784Y-28704650D01*
X58091596Y-28956000D01*
X58748404Y-28956000D01*
X59355216Y-28704650D01*
X59690000Y-28369866D01*
X60024784Y-28704650D01*
X60631596Y-28956000D01*
X61288404Y-28956000D01*
X61895216Y-28704650D01*
X62230000Y-28369866D01*
X62564784Y-28704650D01*
X63171596Y-28956000D01*
X63828404Y-28956000D01*
X64435216Y-28704650D01*
X64770000Y-28369866D01*
X65104784Y-28704650D01*
X65711596Y-28956000D01*
X66368404Y-28956000D01*
X66975216Y-28704650D01*
X67310000Y-28369866D01*
X67644784Y-28704650D01*
X68251596Y-28956000D01*
X68908404Y-28956000D01*
X69515216Y-28704650D01*
X69979650Y-28240216D01*
X70167500Y-27786706D01*
X70355350Y-28240216D01*
X70819784Y-28704650D01*
X71426596Y-28956000D01*
X72083404Y-28956000D01*
X72690216Y-28704650D01*
X73025000Y-28369866D01*
X73359784Y-28704650D01*
X73966596Y-28956000D01*
X74623404Y-28956000D01*
X75230216Y-28704650D01*
X75565000Y-28369866D01*
X75899784Y-28704650D01*
X76506596Y-28956000D01*
X77163404Y-28956000D01*
X77770216Y-28704650D01*
X78105000Y-28369866D01*
X78439784Y-28704650D01*
X79046596Y-28956000D01*
X79703404Y-28956000D01*
X80310216Y-28704650D01*
X80645000Y-28369866D01*
X80979784Y-28704650D01*
X81586596Y-28956000D01*
X82243404Y-28956000D01*
X82850216Y-28704650D01*
X83185000Y-28369866D01*
X83519784Y-28704650D01*
X84126596Y-28956000D01*
X84783404Y-28956000D01*
X85390216Y-28704650D01*
X85725000Y-28369866D01*
X86059784Y-28704650D01*
X86666596Y-28956000D01*
X87323404Y-28956000D01*
X87930216Y-28704650D01*
X88265000Y-28369866D01*
X88599784Y-28704650D01*
X89206596Y-28956000D01*
X89863404Y-28956000D01*
X90470216Y-28704650D01*
X90805000Y-28369866D01*
X91139784Y-28704650D01*
X91746596Y-28956000D01*
X92403404Y-28956000D01*
X93010216Y-28704650D01*
X93345000Y-28369866D01*
X93679784Y-28704650D01*
X94286596Y-28956000D01*
X94943404Y-28956000D01*
X95550216Y-28704650D01*
X96014650Y-28240216D01*
X96266000Y-27633404D01*
X96266000Y-26976596D01*
X96014650Y-26369784D01*
X95550216Y-25905350D01*
X94943404Y-25654000D01*
X94286596Y-25654000D01*
X93679784Y-25905350D01*
X93345000Y-26240134D01*
X93010216Y-25905350D01*
X92403404Y-25654000D01*
X91746596Y-25654000D01*
X91139784Y-25905350D01*
X90805000Y-26240134D01*
X90470216Y-25905350D01*
X89863404Y-25654000D01*
X89206596Y-25654000D01*
X88599784Y-25905350D01*
X88265000Y-26240134D01*
X87930216Y-25905350D01*
X87323404Y-25654000D01*
X86666596Y-25654000D01*
X86059784Y-25905350D01*
X85725000Y-26240134D01*
X85390216Y-25905350D01*
X84783404Y-25654000D01*
X84126596Y-25654000D01*
X83519784Y-25905350D01*
X83185000Y-26240134D01*
X82850216Y-25905350D01*
X82243404Y-25654000D01*
X81586596Y-25654000D01*
X80979784Y-25905350D01*
X80645000Y-26240134D01*
X80310216Y-25905350D01*
X79703404Y-25654000D01*
X79046596Y-25654000D01*
X78439784Y-25905350D01*
X78105000Y-26240134D01*
X77770216Y-25905350D01*
X77163404Y-25654000D01*
X76506596Y-25654000D01*
X75899784Y-25905350D01*
X75565000Y-26240134D01*
X75230216Y-25905350D01*
X74623404Y-25654000D01*
X73966596Y-25654000D01*
X73359784Y-25905350D01*
X73025000Y-26240134D01*
X72690216Y-25905350D01*
X72083404Y-25654000D01*
X71426596Y-25654000D01*
X70819784Y-25905350D01*
X70355350Y-26369784D01*
X70167500Y-26823294D01*
X69979650Y-26369784D01*
X69515216Y-25905350D01*
X68908404Y-25654000D01*
X68251596Y-25654000D01*
X67644784Y-25905350D01*
X67310000Y-26240134D01*
X66975216Y-25905350D01*
X66368404Y-25654000D01*
X65711596Y-25654000D01*
X65104784Y-25905350D01*
X64770000Y-26240134D01*
X64435216Y-25905350D01*
X63828404Y-25654000D01*
X63171596Y-25654000D01*
X62564784Y-25905350D01*
X62230000Y-26240134D01*
X61895216Y-25905350D01*
X61288404Y-25654000D01*
X60631596Y-25654000D01*
X60024784Y-25905350D01*
X59690000Y-26240134D01*
X59355216Y-25905350D01*
X58748404Y-25654000D01*
X58091596Y-25654000D01*
X57484784Y-25905350D01*
X57150000Y-26240134D01*
X56815216Y-25905350D01*
X56208404Y-25654000D01*
X55551596Y-25654000D01*
X54944784Y-25905350D01*
X54610000Y-26240134D01*
X54275216Y-25905350D01*
X53668404Y-25654000D01*
X53011596Y-25654000D01*
X52404784Y-25905350D01*
X52070000Y-26240134D01*
X51735216Y-25905350D01*
X51128404Y-25654000D01*
X50471596Y-25654000D01*
X49864784Y-25905350D01*
X49530000Y-26240134D01*
X49195216Y-25905350D01*
X48588404Y-25654000D01*
X47931596Y-25654000D01*
X47324784Y-25905350D01*
X46990000Y-26240134D01*
X46655216Y-25905350D01*
X46048404Y-25654000D01*
X45391596Y-25654000D01*
X44784784Y-25905350D01*
X44320350Y-26369784D01*
X44069000Y-26976596D01*
X43260300Y-26976596D01*
X43260300Y-26655072D01*
X43276168Y-26575299D01*
X43250800Y-26447765D01*
X43213303Y-26259254D01*
X43034277Y-25991323D01*
X42966647Y-25946134D01*
X42685420Y-25664907D01*
X42738113Y-25400000D01*
X42626740Y-24840091D01*
X42309577Y-24365423D01*
X41834909Y-24048260D01*
X41416333Y-23965000D01*
X41133667Y-23965000D01*
X40715091Y-24048260D01*
X40240423Y-24365423D01*
X39923260Y-24840091D01*
X39811887Y-25400000D01*
X39923260Y-25959909D01*
X40240423Y-26434577D01*
X40592758Y-26670000D01*
X40240423Y-26905423D01*
X39923260Y-27380091D01*
X39811887Y-27940000D01*
X39923260Y-28499909D01*
X40240423Y-28974577D01*
X40592758Y-29210000D01*
X40240423Y-29445423D01*
X39923260Y-29920091D01*
X39811887Y-30480000D01*
X39923260Y-31039909D01*
X40240423Y-31514577D01*
X40592758Y-31750000D01*
X40240423Y-31985423D01*
X39923260Y-32460091D01*
X39811887Y-33020000D01*
X39923260Y-33579909D01*
X40240423Y-34054577D01*
X40592758Y-34290000D01*
X40240423Y-34525423D01*
X39923260Y-35000091D01*
X39811887Y-35560000D01*
X39923260Y-36119909D01*
X40240423Y-36594577D01*
X40592758Y-36830000D01*
X40240423Y-37065423D01*
X40056957Y-37340000D01*
X34873043Y-37340000D01*
X34689577Y-37065423D01*
X34337242Y-36830000D01*
X34689577Y-36594577D01*
X35006740Y-36119909D01*
X35118113Y-35560000D01*
X35006740Y-35000091D01*
X34689577Y-34525423D01*
X34337242Y-34290000D01*
X34689577Y-34054577D01*
X35006740Y-33579909D01*
X35118113Y-33020000D01*
X35006740Y-32460091D01*
X34689577Y-31985423D01*
X34337242Y-31750000D01*
X34689577Y-31514577D01*
X35006740Y-31039909D01*
X35118113Y-30480000D01*
X35006740Y-29920091D01*
X34689577Y-29445423D01*
X34337242Y-29210000D01*
X34689577Y-28974577D01*
X35006740Y-28499909D01*
X35118113Y-27940000D01*
X35006740Y-27380091D01*
X34689577Y-26905423D01*
X34568894Y-26824785D01*
X34702765Y-26798157D01*
X34912809Y-26657809D01*
X35053157Y-26447765D01*
X35102440Y-26200000D01*
X35102440Y-24600000D01*
X35053157Y-24352235D01*
X34912809Y-24142191D01*
X34702765Y-24001843D01*
X34455000Y-23952560D01*
X32855000Y-23952560D01*
X32607235Y-24001843D01*
X32397191Y-24142191D01*
X32256843Y-24352235D01*
X32207560Y-24600000D01*
X32207560Y-26200000D01*
X32256843Y-26447765D01*
X32397191Y-26657809D01*
X32607235Y-26798157D01*
X32741106Y-26824785D01*
X32620423Y-26905423D01*
X32303260Y-27380091D01*
X32191887Y-27940000D01*
X32303260Y-28499909D01*
X32620423Y-28974577D01*
X32972758Y-29210000D01*
X32620423Y-29445423D01*
X32303260Y-29920091D01*
X32191887Y-30480000D01*
X32303260Y-31039909D01*
X32620423Y-31514577D01*
X32972758Y-31750000D01*
X32620423Y-31985423D01*
X32303260Y-32460091D01*
X32191887Y-33020000D01*
X32303260Y-33579909D01*
X32620423Y-34054577D01*
X32972758Y-34290000D01*
X32620423Y-34525423D01*
X32303260Y-35000091D01*
X32191887Y-35560000D01*
X32256312Y-35883887D01*
X31946830Y-36193369D01*
X31883371Y-36235771D01*
X31715396Y-36487164D01*
X31671300Y-36708849D01*
X31671300Y-36708853D01*
X31656412Y-36783700D01*
X28015000Y-36783700D01*
X28015000Y-23780750D01*
X44285000Y-23780750D01*
X44285000Y-24421310D01*
X44381673Y-24654699D01*
X44560302Y-24833327D01*
X44793691Y-24930000D01*
X45434250Y-24930000D01*
X45593000Y-24771250D01*
X45593000Y-23622000D01*
X44443750Y-23622000D01*
X44285000Y-23780750D01*
X28015000Y-23780750D01*
X28015000Y-22568690D01*
X44285000Y-22568690D01*
X44285000Y-23209250D01*
X44443750Y-23368000D01*
X45593000Y-23368000D01*
X45593000Y-22218750D01*
X45847000Y-22218750D01*
X45847000Y-23368000D01*
X45867000Y-23368000D01*
X45867000Y-23622000D01*
X45847000Y-23622000D01*
X45847000Y-24771250D01*
X46005750Y-24930000D01*
X46646309Y-24930000D01*
X46879698Y-24833327D01*
X47058327Y-24654699D01*
X47154266Y-24423083D01*
X47225423Y-24529577D01*
X47700091Y-24846740D01*
X48118667Y-24930000D01*
X48401333Y-24930000D01*
X48819909Y-24846740D01*
X49294577Y-24529577D01*
X49530000Y-24177242D01*
X49765423Y-24529577D01*
X50240091Y-24846740D01*
X50658667Y-24930000D01*
X50941333Y-24930000D01*
X51359909Y-24846740D01*
X51834577Y-24529577D01*
X52070000Y-24177242D01*
X52305423Y-24529577D01*
X52780091Y-24846740D01*
X53198667Y-24930000D01*
X53481333Y-24930000D01*
X53899909Y-24846740D01*
X54374577Y-24529577D01*
X54610000Y-24177242D01*
X54845423Y-24529577D01*
X55320091Y-24846740D01*
X55738667Y-24930000D01*
X56021333Y-24930000D01*
X56439909Y-24846740D01*
X56914577Y-24529577D01*
X57150000Y-24177242D01*
X57385423Y-24529577D01*
X57860091Y-24846740D01*
X58278667Y-24930000D01*
X58561333Y-24930000D01*
X58979909Y-24846740D01*
X59454577Y-24529577D01*
X59690000Y-24177242D01*
X59925423Y-24529577D01*
X60400091Y-24846740D01*
X60818667Y-24930000D01*
X61101333Y-24930000D01*
X61519909Y-24846740D01*
X61994577Y-24529577D01*
X62230000Y-24177242D01*
X62465423Y-24529577D01*
X62940091Y-24846740D01*
X63358667Y-24930000D01*
X63641333Y-24930000D01*
X64059909Y-24846740D01*
X64534577Y-24529577D01*
X64770000Y-24177242D01*
X65005423Y-24529577D01*
X65480091Y-24846740D01*
X65898667Y-24930000D01*
X66181333Y-24930000D01*
X66599909Y-24846740D01*
X67074577Y-24529577D01*
X67391740Y-24054909D01*
X67446273Y-23780750D01*
X67780000Y-23780750D01*
X67780000Y-24421310D01*
X67876673Y-24654699D01*
X68055302Y-24833327D01*
X68288691Y-24930000D01*
X68929250Y-24930000D01*
X69088000Y-24771250D01*
X69088000Y-23622000D01*
X67938750Y-23622000D01*
X67780000Y-23780750D01*
X67446273Y-23780750D01*
X67503113Y-23495000D01*
X67391740Y-22935091D01*
X67146919Y-22568690D01*
X67780000Y-22568690D01*
X67780000Y-23209250D01*
X67938750Y-23368000D01*
X69088000Y-23368000D01*
X69088000Y-22218750D01*
X69342000Y-22218750D01*
X69342000Y-23368000D01*
X69362000Y-23368000D01*
X69362000Y-23622000D01*
X69342000Y-23622000D01*
X69342000Y-24771250D01*
X69500750Y-24930000D01*
X70141309Y-24930000D01*
X70374698Y-24833327D01*
X70553327Y-24654699D01*
X70649266Y-24423083D01*
X70720423Y-24529577D01*
X71195091Y-24846740D01*
X71613667Y-24930000D01*
X71896333Y-24930000D01*
X72314909Y-24846740D01*
X72789577Y-24529577D01*
X73025000Y-24177242D01*
X73260423Y-24529577D01*
X73735091Y-24846740D01*
X74153667Y-24930000D01*
X74436333Y-24930000D01*
X74854909Y-24846740D01*
X75329577Y-24529577D01*
X75565000Y-24177242D01*
X75800423Y-24529577D01*
X76275091Y-24846740D01*
X76693667Y-24930000D01*
X76976333Y-24930000D01*
X77394909Y-24846740D01*
X77869577Y-24529577D01*
X78105000Y-24177242D01*
X78340423Y-24529577D01*
X78815091Y-24846740D01*
X79233667Y-24930000D01*
X79516333Y-24930000D01*
X79934909Y-24846740D01*
X80409577Y-24529577D01*
X80645000Y-24177242D01*
X80880423Y-24529577D01*
X81355091Y-24846740D01*
X81773667Y-24930000D01*
X82056333Y-24930000D01*
X82474909Y-24846740D01*
X82949577Y-24529577D01*
X83185000Y-24177242D01*
X83420423Y-24529577D01*
X83895091Y-24846740D01*
X84313667Y-24930000D01*
X84596333Y-24930000D01*
X85014909Y-24846740D01*
X85489577Y-24529577D01*
X85725000Y-24177242D01*
X85960423Y-24529577D01*
X86435091Y-24846740D01*
X86853667Y-24930000D01*
X87136333Y-24930000D01*
X87554909Y-24846740D01*
X88029577Y-24529577D01*
X88265000Y-24177242D01*
X88500423Y-24529577D01*
X88975091Y-24846740D01*
X89393667Y-24930000D01*
X89676333Y-24930000D01*
X90094909Y-24846740D01*
X90569577Y-24529577D01*
X90886740Y-24054909D01*
X90998113Y-23495000D01*
X90886740Y-22935091D01*
X90569577Y-22460423D01*
X90094909Y-22143260D01*
X89676333Y-22060000D01*
X89393667Y-22060000D01*
X88975091Y-22143260D01*
X88500423Y-22460423D01*
X88265000Y-22812758D01*
X88029577Y-22460423D01*
X87554909Y-22143260D01*
X87136333Y-22060000D01*
X86853667Y-22060000D01*
X86435091Y-22143260D01*
X85960423Y-22460423D01*
X85725000Y-22812758D01*
X85489577Y-22460423D01*
X85014909Y-22143260D01*
X84596333Y-22060000D01*
X84313667Y-22060000D01*
X83895091Y-22143260D01*
X83420423Y-22460423D01*
X83185000Y-22812758D01*
X82949577Y-22460423D01*
X82474909Y-22143260D01*
X82056333Y-22060000D01*
X81773667Y-22060000D01*
X81355091Y-22143260D01*
X80880423Y-22460423D01*
X80645000Y-22812758D01*
X80409577Y-22460423D01*
X79934909Y-22143260D01*
X79516333Y-22060000D01*
X79233667Y-22060000D01*
X78815091Y-22143260D01*
X78340423Y-22460423D01*
X78105000Y-22812758D01*
X77869577Y-22460423D01*
X77394909Y-22143260D01*
X76976333Y-22060000D01*
X76693667Y-22060000D01*
X76275091Y-22143260D01*
X75800423Y-22460423D01*
X75565000Y-22812758D01*
X75329577Y-22460423D01*
X74854909Y-22143260D01*
X74436333Y-22060000D01*
X74153667Y-22060000D01*
X73735091Y-22143260D01*
X73260423Y-22460423D01*
X73025000Y-22812758D01*
X72789577Y-22460423D01*
X72314909Y-22143260D01*
X71896333Y-22060000D01*
X71613667Y-22060000D01*
X71195091Y-22143260D01*
X70720423Y-22460423D01*
X70649266Y-22566917D01*
X70553327Y-22335301D01*
X70374698Y-22156673D01*
X70141309Y-22060000D01*
X69500750Y-22060000D01*
X69342000Y-22218750D01*
X69088000Y-22218750D01*
X68929250Y-22060000D01*
X68288691Y-22060000D01*
X68055302Y-22156673D01*
X67876673Y-22335301D01*
X67780000Y-22568690D01*
X67146919Y-22568690D01*
X67074577Y-22460423D01*
X66599909Y-22143260D01*
X66181333Y-22060000D01*
X65898667Y-22060000D01*
X65480091Y-22143260D01*
X65005423Y-22460423D01*
X64770000Y-22812758D01*
X64534577Y-22460423D01*
X64059909Y-22143260D01*
X63641333Y-22060000D01*
X63358667Y-22060000D01*
X62940091Y-22143260D01*
X62465423Y-22460423D01*
X62230000Y-22812758D01*
X61994577Y-22460423D01*
X61519909Y-22143260D01*
X61101333Y-22060000D01*
X60818667Y-22060000D01*
X60400091Y-22143260D01*
X59925423Y-22460423D01*
X59690000Y-22812758D01*
X59454577Y-22460423D01*
X58979909Y-22143260D01*
X58561333Y-22060000D01*
X58278667Y-22060000D01*
X57860091Y-22143260D01*
X57385423Y-22460423D01*
X57150000Y-22812758D01*
X56914577Y-22460423D01*
X56439909Y-22143260D01*
X56021333Y-22060000D01*
X55738667Y-22060000D01*
X55320091Y-22143260D01*
X54845423Y-22460423D01*
X54610000Y-22812758D01*
X54374577Y-22460423D01*
X53899909Y-22143260D01*
X53481333Y-22060000D01*
X53198667Y-22060000D01*
X52780091Y-22143260D01*
X52305423Y-22460423D01*
X52070000Y-22812758D01*
X51834577Y-22460423D01*
X51359909Y-22143260D01*
X50941333Y-22060000D01*
X50658667Y-22060000D01*
X50240091Y-22143260D01*
X49765423Y-22460423D01*
X49530000Y-22812758D01*
X49294577Y-22460423D01*
X48819909Y-22143260D01*
X48401333Y-22060000D01*
X48118667Y-22060000D01*
X47700091Y-22143260D01*
X47225423Y-22460423D01*
X47154266Y-22566917D01*
X47058327Y-22335301D01*
X46879698Y-22156673D01*
X46646309Y-22060000D01*
X46005750Y-22060000D01*
X45847000Y-22218750D01*
X45593000Y-22218750D01*
X45434250Y-22060000D01*
X44793691Y-22060000D01*
X44560302Y-22156673D01*
X44381673Y-22335301D01*
X44285000Y-22568690D01*
X28015000Y-22568690D01*
X28015000Y-17855000D01*
X100255000Y-17855000D01*
X100255001Y-96445000D01*
G36*
X91675423Y-89299577D02*
X92027758Y-89535000D01*
X91675423Y-89770423D01*
X91489214Y-90049104D01*
X91288163Y-90089096D01*
X91036771Y-90257071D01*
X90994371Y-90320527D01*
X90144599Y-91170300D01*
X86475169Y-91170300D01*
X86481904Y-91154039D01*
X86359915Y-90932000D01*
X85217000Y-90932000D01*
X85217000Y-90952000D01*
X84963000Y-90952000D01*
X84963000Y-90932000D01*
X83820085Y-90932000D01*
X83698096Y-91154039D01*
X83704831Y-91170300D01*
X73050402Y-91170300D01*
X72200631Y-90320530D01*
X72158229Y-90257071D01*
X71906837Y-90089096D01*
X71705786Y-90049104D01*
X71519577Y-89770423D01*
X71167242Y-89535000D01*
X71519577Y-89299577D01*
X71539804Y-89269305D01*
X72145271Y-89874773D01*
X72187671Y-89938229D01*
X72439063Y-90106204D01*
X72660748Y-90150300D01*
X72660752Y-90150300D01*
X72735600Y-90165188D01*
X72810448Y-90150300D01*
X83824696Y-90150300D01*
X83698096Y-90455961D01*
X83820085Y-90678000D01*
X84963000Y-90678000D01*
X84963000Y-90658000D01*
X85217000Y-90658000D01*
X85217000Y-90678000D01*
X86359915Y-90678000D01*
X86481904Y-90455961D01*
X86355304Y-90150300D01*
X90384553Y-90150300D01*
X90459400Y-90165188D01*
X90534247Y-90150300D01*
X90534252Y-90150300D01*
X90755937Y-90106204D01*
X91007329Y-89938229D01*
X91049731Y-89874770D01*
X91655196Y-89269305D01*
X91675423Y-89299577D01*
X91675423Y-89299577D01*
G37*
X91675423Y-89299577D02*
X92027758Y-89535000D01*
X91675423Y-89770423D01*
X91489214Y-90049104D01*
X91288163Y-90089096D01*
X91036771Y-90257071D01*
X90994371Y-90320527D01*
X90144599Y-91170300D01*
X86475169Y-91170300D01*
X86481904Y-91154039D01*
X86359915Y-90932000D01*
X85217000Y-90932000D01*
X85217000Y-90952000D01*
X84963000Y-90952000D01*
X84963000Y-90932000D01*
X83820085Y-90932000D01*
X83698096Y-91154039D01*
X83704831Y-91170300D01*
X73050402Y-91170300D01*
X72200631Y-90320530D01*
X72158229Y-90257071D01*
X71906837Y-90089096D01*
X71705786Y-90049104D01*
X71519577Y-89770423D01*
X71167242Y-89535000D01*
X71519577Y-89299577D01*
X71539804Y-89269305D01*
X72145271Y-89874773D01*
X72187671Y-89938229D01*
X72439063Y-90106204D01*
X72660748Y-90150300D01*
X72660752Y-90150300D01*
X72735600Y-90165188D01*
X72810448Y-90150300D01*
X83824696Y-90150300D01*
X83698096Y-90455961D01*
X83820085Y-90678000D01*
X84963000Y-90678000D01*
X84963000Y-90658000D01*
X85217000Y-90658000D01*
X85217000Y-90678000D01*
X86359915Y-90678000D01*
X86481904Y-90455961D01*
X86355304Y-90150300D01*
X90384553Y-90150300D01*
X90459400Y-90165188D01*
X90534247Y-90150300D01*
X90534252Y-90150300D01*
X90755937Y-90106204D01*
X91007329Y-89938229D01*
X91049731Y-89874770D01*
X91655196Y-89269305D01*
X91675423Y-89299577D01*
G36*
X69450423Y-89299577D02*
X69802758Y-89535000D01*
X69450423Y-89770423D01*
X69264214Y-90049104D01*
X69063163Y-90089096D01*
X68811771Y-90257071D01*
X68769371Y-90320527D01*
X67919599Y-91170300D01*
X64250169Y-91170300D01*
X64256904Y-91154039D01*
X64134915Y-90932000D01*
X62992000Y-90932000D01*
X62992000Y-90952000D01*
X62738000Y-90952000D01*
X62738000Y-90932000D01*
X61595085Y-90932000D01*
X61473096Y-91154039D01*
X61479831Y-91170300D01*
X55905402Y-91170300D01*
X55055631Y-90320530D01*
X55013229Y-90257071D01*
X54761837Y-90089096D01*
X54560786Y-90049104D01*
X54374577Y-89770423D01*
X54022242Y-89535000D01*
X54374577Y-89299577D01*
X54394804Y-89269305D01*
X55000271Y-89874773D01*
X55042671Y-89938229D01*
X55294063Y-90106204D01*
X55515748Y-90150300D01*
X55515752Y-90150300D01*
X55590600Y-90165188D01*
X55665448Y-90150300D01*
X61599696Y-90150300D01*
X61473096Y-90455961D01*
X61595085Y-90678000D01*
X62738000Y-90678000D01*
X62738000Y-90658000D01*
X62992000Y-90658000D01*
X62992000Y-90678000D01*
X64134915Y-90678000D01*
X64256904Y-90455961D01*
X64130304Y-90150300D01*
X68159553Y-90150300D01*
X68234400Y-90165188D01*
X68309247Y-90150300D01*
X68309252Y-90150300D01*
X68530937Y-90106204D01*
X68782329Y-89938229D01*
X68824731Y-89874770D01*
X69430196Y-89269305D01*
X69450423Y-89299577D01*
X69450423Y-89299577D01*
G37*
X69450423Y-89299577D02*
X69802758Y-89535000D01*
X69450423Y-89770423D01*
X69264214Y-90049104D01*
X69063163Y-90089096D01*
X68811771Y-90257071D01*
X68769371Y-90320527D01*
X67919599Y-91170300D01*
X64250169Y-91170300D01*
X64256904Y-91154039D01*
X64134915Y-90932000D01*
X62992000Y-90932000D01*
X62992000Y-90952000D01*
X62738000Y-90952000D01*
X62738000Y-90932000D01*
X61595085Y-90932000D01*
X61473096Y-91154039D01*
X61479831Y-91170300D01*
X55905402Y-91170300D01*
X55055631Y-90320530D01*
X55013229Y-90257071D01*
X54761837Y-90089096D01*
X54560786Y-90049104D01*
X54374577Y-89770423D01*
X54022242Y-89535000D01*
X54374577Y-89299577D01*
X54394804Y-89269305D01*
X55000271Y-89874773D01*
X55042671Y-89938229D01*
X55294063Y-90106204D01*
X55515748Y-90150300D01*
X55515752Y-90150300D01*
X55590600Y-90165188D01*
X55665448Y-90150300D01*
X61599696Y-90150300D01*
X61473096Y-90455961D01*
X61595085Y-90678000D01*
X62738000Y-90678000D01*
X62738000Y-90658000D01*
X62992000Y-90658000D01*
X62992000Y-90678000D01*
X64134915Y-90678000D01*
X64256904Y-90455961D01*
X64130304Y-90150300D01*
X68159553Y-90150300D01*
X68234400Y-90165188D01*
X68309247Y-90150300D01*
X68309252Y-90150300D01*
X68530937Y-90106204D01*
X68782329Y-89938229D01*
X68824731Y-89874770D01*
X69430196Y-89269305D01*
X69450423Y-89299577D01*
G36*
X61473096Y-64420961D02*
X61595085Y-64643000D01*
X62738000Y-64643000D01*
X62738000Y-64623000D01*
X62992000Y-64623000D01*
X62992000Y-64643000D01*
X64134915Y-64643000D01*
X64157461Y-64601962D01*
X65181271Y-65625773D01*
X65223671Y-65689229D01*
X65475063Y-65857204D01*
X65696748Y-65901300D01*
X65696752Y-65901300D01*
X65771599Y-65916188D01*
X65846446Y-65901300D01*
X66938199Y-65901300D01*
X66234299Y-66605200D01*
X48748248Y-66605200D01*
X48673400Y-66590312D01*
X48598552Y-66605200D01*
X48598548Y-66605200D01*
X48425005Y-66639720D01*
X48376862Y-66649296D01*
X48189818Y-66774276D01*
X48125471Y-66817271D01*
X48083071Y-66880727D01*
X43646028Y-71317771D01*
X43582572Y-71360171D01*
X43540172Y-71423627D01*
X43540171Y-71423628D01*
X43414597Y-71611563D01*
X43355612Y-71908100D01*
X43370501Y-71982952D01*
X43370500Y-76440653D01*
X43355612Y-76515500D01*
X43370500Y-76590347D01*
X43370500Y-76590351D01*
X43414596Y-76812036D01*
X43582571Y-77063429D01*
X43646030Y-77105831D01*
X44321312Y-77781114D01*
X44256887Y-78105000D01*
X44368260Y-78664909D01*
X44369390Y-78666600D01*
X35488546Y-78666600D01*
X35413699Y-78651712D01*
X35338852Y-78666600D01*
X35338848Y-78666600D01*
X35117163Y-78710696D01*
X34865771Y-78878671D01*
X34823371Y-78942127D01*
X34765879Y-78999619D01*
X34725625Y-78939375D01*
X34427239Y-78740000D01*
X34725625Y-78540625D01*
X34937474Y-78223571D01*
X35126837Y-78185904D01*
X35378229Y-78017929D01*
X35420631Y-77954470D01*
X47845102Y-65530000D01*
X52121957Y-65530000D01*
X52305423Y-65804577D01*
X52780091Y-66121740D01*
X53198667Y-66205000D01*
X53481333Y-66205000D01*
X53899909Y-66121740D01*
X54374577Y-65804577D01*
X54560786Y-65525896D01*
X54761837Y-65485904D01*
X55013229Y-65317929D01*
X55055631Y-65254470D01*
X55191062Y-65119039D01*
X61473096Y-65119039D01*
X61633959Y-65507423D01*
X62009866Y-65922389D01*
X62515959Y-66161914D01*
X62738000Y-66040629D01*
X62738000Y-64897000D01*
X62992000Y-64897000D01*
X62992000Y-66040629D01*
X63214041Y-66161914D01*
X63720134Y-65922389D01*
X64096041Y-65507423D01*
X64256904Y-65119039D01*
X64134915Y-64897000D01*
X62992000Y-64897000D01*
X62738000Y-64897000D01*
X61595085Y-64897000D01*
X61473096Y-65119039D01*
X55191062Y-65119039D01*
X55905402Y-64404700D01*
X61479831Y-64404700D01*
X61473096Y-64420961D01*
X61473096Y-64420961D01*
G37*
X61473096Y-64420961D02*
X61595085Y-64643000D01*
X62738000Y-64643000D01*
X62738000Y-64623000D01*
X62992000Y-64623000D01*
X62992000Y-64643000D01*
X64134915Y-64643000D01*
X64157461Y-64601962D01*
X65181271Y-65625773D01*
X65223671Y-65689229D01*
X65475063Y-65857204D01*
X65696748Y-65901300D01*
X65696752Y-65901300D01*
X65771599Y-65916188D01*
X65846446Y-65901300D01*
X66938199Y-65901300D01*
X66234299Y-66605200D01*
X48748248Y-66605200D01*
X48673400Y-66590312D01*
X48598552Y-66605200D01*
X48598548Y-66605200D01*
X48425005Y-66639720D01*
X48376862Y-66649296D01*
X48189818Y-66774276D01*
X48125471Y-66817271D01*
X48083071Y-66880727D01*
X43646028Y-71317771D01*
X43582572Y-71360171D01*
X43540172Y-71423627D01*
X43540171Y-71423628D01*
X43414597Y-71611563D01*
X43355612Y-71908100D01*
X43370501Y-71982952D01*
X43370500Y-76440653D01*
X43355612Y-76515500D01*
X43370500Y-76590347D01*
X43370500Y-76590351D01*
X43414596Y-76812036D01*
X43582571Y-77063429D01*
X43646030Y-77105831D01*
X44321312Y-77781114D01*
X44256887Y-78105000D01*
X44368260Y-78664909D01*
X44369390Y-78666600D01*
X35488546Y-78666600D01*
X35413699Y-78651712D01*
X35338852Y-78666600D01*
X35338848Y-78666600D01*
X35117163Y-78710696D01*
X34865771Y-78878671D01*
X34823371Y-78942127D01*
X34765879Y-78999619D01*
X34725625Y-78939375D01*
X34427239Y-78740000D01*
X34725625Y-78540625D01*
X34937474Y-78223571D01*
X35126837Y-78185904D01*
X35378229Y-78017929D01*
X35420631Y-77954470D01*
X47845102Y-65530000D01*
X52121957Y-65530000D01*
X52305423Y-65804577D01*
X52780091Y-66121740D01*
X53198667Y-66205000D01*
X53481333Y-66205000D01*
X53899909Y-66121740D01*
X54374577Y-65804577D01*
X54560786Y-65525896D01*
X54761837Y-65485904D01*
X55013229Y-65317929D01*
X55055631Y-65254470D01*
X55191062Y-65119039D01*
X61473096Y-65119039D01*
X61633959Y-65507423D01*
X62009866Y-65922389D01*
X62515959Y-66161914D01*
X62738000Y-66040629D01*
X62738000Y-64897000D01*
X62992000Y-64897000D01*
X62992000Y-66040629D01*
X63214041Y-66161914D01*
X63720134Y-65922389D01*
X64096041Y-65507423D01*
X64256904Y-65119039D01*
X64134915Y-64897000D01*
X62992000Y-64897000D01*
X62738000Y-64897000D01*
X61595085Y-64897000D01*
X61473096Y-65119039D01*
X55191062Y-65119039D01*
X55905402Y-64404700D01*
X61479831Y-64404700D01*
X61473096Y-64420961D01*
G36*
X91246887Y-54610000D02*
X91358260Y-55169909D01*
X91675423Y-55644577D01*
X92027758Y-55880000D01*
X91675423Y-56115423D01*
X91358260Y-56590091D01*
X91246887Y-57150000D01*
X91311312Y-57473886D01*
X86384128Y-62401071D01*
X86359915Y-62357000D01*
X85217000Y-62357000D01*
X85217000Y-63500629D01*
X85260700Y-63524499D01*
X83335532Y-65449667D01*
X83335526Y-65449671D01*
X80965199Y-67820000D01*
X80152647Y-67820000D01*
X80254092Y-67310000D01*
X80138839Y-66730582D01*
X79810625Y-66239375D01*
X79512239Y-66040000D01*
X79810625Y-65840625D01*
X80138839Y-65349418D01*
X80254092Y-64770000D01*
X80138839Y-64190582D01*
X79810625Y-63699375D01*
X79512239Y-63500000D01*
X79810625Y-63300625D01*
X80138839Y-62809418D01*
X80184664Y-62579039D01*
X83698096Y-62579039D01*
X83858959Y-62967423D01*
X84234866Y-63382389D01*
X84740959Y-63621914D01*
X84963000Y-63500629D01*
X84963000Y-62357000D01*
X83820085Y-62357000D01*
X83698096Y-62579039D01*
X80184664Y-62579039D01*
X80254092Y-62230000D01*
X80138839Y-61650582D01*
X80122013Y-61625400D01*
X80181253Y-61625400D01*
X80256100Y-61640288D01*
X80330947Y-61625400D01*
X80330952Y-61625400D01*
X80552637Y-61581304D01*
X80804029Y-61413329D01*
X80846431Y-61349870D01*
X82884602Y-59311700D01*
X83702136Y-59311700D01*
X83626887Y-59690000D01*
X83738260Y-60249909D01*
X84055423Y-60724577D01*
X84439108Y-60980947D01*
X84234866Y-61077611D01*
X83858959Y-61492577D01*
X83698096Y-61880961D01*
X83820085Y-62103000D01*
X84963000Y-62103000D01*
X84963000Y-62083000D01*
X85217000Y-62083000D01*
X85217000Y-62103000D01*
X86359915Y-62103000D01*
X86481904Y-61880961D01*
X86321041Y-61492577D01*
X85945134Y-61077611D01*
X85740892Y-60980947D01*
X86124577Y-60724577D01*
X86441740Y-60249909D01*
X86553113Y-59690000D01*
X86471215Y-59278270D01*
X86524837Y-59267604D01*
X86776229Y-59099629D01*
X86818631Y-59036170D01*
X91247405Y-54607397D01*
X91246887Y-54610000D01*
X91246887Y-54610000D01*
G37*
X91246887Y-54610000D02*
X91358260Y-55169909D01*
X91675423Y-55644577D01*
X92027758Y-55880000D01*
X91675423Y-56115423D01*
X91358260Y-56590091D01*
X91246887Y-57150000D01*
X91311312Y-57473886D01*
X86384128Y-62401071D01*
X86359915Y-62357000D01*
X85217000Y-62357000D01*
X85217000Y-63500629D01*
X85260700Y-63524499D01*
X83335532Y-65449667D01*
X83335526Y-65449671D01*
X80965199Y-67820000D01*
X80152647Y-67820000D01*
X80254092Y-67310000D01*
X80138839Y-66730582D01*
X79810625Y-66239375D01*
X79512239Y-66040000D01*
X79810625Y-65840625D01*
X80138839Y-65349418D01*
X80254092Y-64770000D01*
X80138839Y-64190582D01*
X79810625Y-63699375D01*
X79512239Y-63500000D01*
X79810625Y-63300625D01*
X80138839Y-62809418D01*
X80184664Y-62579039D01*
X83698096Y-62579039D01*
X83858959Y-62967423D01*
X84234866Y-63382389D01*
X84740959Y-63621914D01*
X84963000Y-63500629D01*
X84963000Y-62357000D01*
X83820085Y-62357000D01*
X83698096Y-62579039D01*
X80184664Y-62579039D01*
X80254092Y-62230000D01*
X80138839Y-61650582D01*
X80122013Y-61625400D01*
X80181253Y-61625400D01*
X80256100Y-61640288D01*
X80330947Y-61625400D01*
X80330952Y-61625400D01*
X80552637Y-61581304D01*
X80804029Y-61413329D01*
X80846431Y-61349870D01*
X82884602Y-59311700D01*
X83702136Y-59311700D01*
X83626887Y-59690000D01*
X83738260Y-60249909D01*
X84055423Y-60724577D01*
X84439108Y-60980947D01*
X84234866Y-61077611D01*
X83858959Y-61492577D01*
X83698096Y-61880961D01*
X83820085Y-62103000D01*
X84963000Y-62103000D01*
X84963000Y-62083000D01*
X85217000Y-62083000D01*
X85217000Y-62103000D01*
X86359915Y-62103000D01*
X86481904Y-61880961D01*
X86321041Y-61492577D01*
X85945134Y-61077611D01*
X85740892Y-60980947D01*
X86124577Y-60724577D01*
X86441740Y-60249909D01*
X86553113Y-59690000D01*
X86471215Y-59278270D01*
X86524837Y-59267604D01*
X86776229Y-59099629D01*
X86818631Y-59036170D01*
X91247405Y-54607397D01*
X91246887Y-54610000D01*
G36*
X45847000Y-64643000D02*
X45867000Y-64643000D01*
X45867000Y-64897000D01*
X45847000Y-64897000D01*
X45847000Y-64917000D01*
X45593000Y-64917000D01*
X45593000Y-64897000D01*
X45573000Y-64897000D01*
X45573000Y-64643000D01*
X45593000Y-64643000D01*
X45593000Y-64623000D01*
X45847000Y-64623000D01*
X45847000Y-64643000D01*
X45847000Y-64643000D01*
G37*
X45847000Y-64643000D02*
X45867000Y-64643000D01*
X45867000Y-64897000D01*
X45847000Y-64897000D01*
X45847000Y-64917000D01*
X45593000Y-64917000D01*
X45593000Y-64897000D01*
X45573000Y-64897000D01*
X45573000Y-64643000D01*
X45593000Y-64643000D01*
X45593000Y-64623000D01*
X45847000Y-64623000D01*
X45847000Y-64643000D01*
G36*
X90824701Y-44764803D02*
X90824700Y-47387753D01*
X90809812Y-47462600D01*
X90824700Y-47537447D01*
X90824700Y-47537451D01*
X90868796Y-47759136D01*
X91036771Y-48010529D01*
X91100230Y-48052931D01*
X91622270Y-48574972D01*
X91358260Y-48970091D01*
X91246887Y-49530000D01*
X91311312Y-49853886D01*
X86552595Y-54612604D01*
X86553113Y-54610000D01*
X86441740Y-54050091D01*
X86124577Y-53575423D01*
X85772242Y-53340000D01*
X86124577Y-53104577D01*
X86441740Y-52629909D01*
X86553113Y-52070000D01*
X86441740Y-51510091D01*
X86124577Y-51035423D01*
X85772242Y-50800000D01*
X86124577Y-50564577D01*
X86441740Y-50089909D01*
X86553113Y-49530000D01*
X86441740Y-48970091D01*
X86124577Y-48495423D01*
X85772242Y-48260000D01*
X86124577Y-48024577D01*
X86441740Y-47549909D01*
X86553113Y-46990000D01*
X86441740Y-46430091D01*
X86124577Y-45955423D01*
X85828614Y-45757667D01*
X85845896Y-45670786D01*
X86124577Y-45484577D01*
X86441740Y-45009909D01*
X86553113Y-44450000D01*
X86441740Y-43890091D01*
X86124577Y-43415423D01*
X85828614Y-43217667D01*
X85845896Y-43130786D01*
X86124577Y-42944577D01*
X86441740Y-42469909D01*
X86553113Y-41910000D01*
X86476313Y-41523900D01*
X87583799Y-41523900D01*
X90824701Y-44764803D01*
X90824701Y-44764803D01*
G37*
X90824701Y-44764803D02*
X90824700Y-47387753D01*
X90809812Y-47462600D01*
X90824700Y-47537447D01*
X90824700Y-47537451D01*
X90868796Y-47759136D01*
X91036771Y-48010529D01*
X91100230Y-48052931D01*
X91622270Y-48574972D01*
X91358260Y-48970091D01*
X91246887Y-49530000D01*
X91311312Y-49853886D01*
X86552595Y-54612604D01*
X86553113Y-54610000D01*
X86441740Y-54050091D01*
X86124577Y-53575423D01*
X85772242Y-53340000D01*
X86124577Y-53104577D01*
X86441740Y-52629909D01*
X86553113Y-52070000D01*
X86441740Y-51510091D01*
X86124577Y-51035423D01*
X85772242Y-50800000D01*
X86124577Y-50564577D01*
X86441740Y-50089909D01*
X86553113Y-49530000D01*
X86441740Y-48970091D01*
X86124577Y-48495423D01*
X85772242Y-48260000D01*
X86124577Y-48024577D01*
X86441740Y-47549909D01*
X86553113Y-46990000D01*
X86441740Y-46430091D01*
X86124577Y-45955423D01*
X85828614Y-45757667D01*
X85845896Y-45670786D01*
X86124577Y-45484577D01*
X86441740Y-45009909D01*
X86553113Y-44450000D01*
X86441740Y-43890091D01*
X86124577Y-43415423D01*
X85828614Y-43217667D01*
X85845896Y-43130786D01*
X86124577Y-42944577D01*
X86441740Y-42469909D01*
X86553113Y-41910000D01*
X86476313Y-41523900D01*
X87583799Y-41523900D01*
X90824701Y-44764803D01*
G36*
X40240423Y-39134577D02*
X40592758Y-39370000D01*
X40240423Y-39605423D01*
X39923260Y-40080091D01*
X39811887Y-40640000D01*
X39923260Y-41199909D01*
X40240423Y-41674577D01*
X40715091Y-41991740D01*
X41133667Y-42075000D01*
X41416333Y-42075000D01*
X41640301Y-42030450D01*
X41640301Y-47355300D01*
X36324772Y-47355300D01*
X36244999Y-47339432D01*
X36165226Y-47355300D01*
X35928954Y-47402297D01*
X35661023Y-47581323D01*
X35615834Y-47648953D01*
X34757583Y-48507204D01*
X34725625Y-48459375D01*
X34703967Y-48444904D01*
X34864698Y-48378327D01*
X35043327Y-48199699D01*
X35140000Y-47966310D01*
X35140000Y-47275750D01*
X34981250Y-47117000D01*
X33782000Y-47117000D01*
X33782000Y-47137000D01*
X33528000Y-47137000D01*
X33528000Y-47117000D01*
X33508000Y-47117000D01*
X33508000Y-46863000D01*
X33528000Y-46863000D01*
X33528000Y-45663750D01*
X33782000Y-45663750D01*
X33782000Y-46863000D01*
X34981250Y-46863000D01*
X35140000Y-46704250D01*
X35140000Y-46013690D01*
X35043327Y-45780301D01*
X34864698Y-45601673D01*
X34631309Y-45505000D01*
X33940750Y-45505000D01*
X33782000Y-45663750D01*
X33528000Y-45663750D01*
X33369250Y-45505000D01*
X33191300Y-45505000D01*
X33191300Y-41977648D01*
X33305959Y-42031914D01*
X33528000Y-41910629D01*
X33528000Y-40767000D01*
X33782000Y-40767000D01*
X33782000Y-41910629D01*
X34004041Y-42031914D01*
X34510134Y-41792389D01*
X34886041Y-41377423D01*
X35046904Y-40989039D01*
X34924915Y-40767000D01*
X33782000Y-40767000D01*
X33528000Y-40767000D01*
X33508000Y-40767000D01*
X33508000Y-40513000D01*
X33528000Y-40513000D01*
X33528000Y-40493000D01*
X33782000Y-40493000D01*
X33782000Y-40513000D01*
X34924915Y-40513000D01*
X35046904Y-40290961D01*
X34886041Y-39902577D01*
X34510134Y-39487611D01*
X34305892Y-39390947D01*
X34689577Y-39134577D01*
X34873043Y-38860000D01*
X40056957Y-38860000D01*
X40240423Y-39134577D01*
X40240423Y-39134577D01*
G37*
X40240423Y-39134577D02*
X40592758Y-39370000D01*
X40240423Y-39605423D01*
X39923260Y-40080091D01*
X39811887Y-40640000D01*
X39923260Y-41199909D01*
X40240423Y-41674577D01*
X40715091Y-41991740D01*
X41133667Y-42075000D01*
X41416333Y-42075000D01*
X41640301Y-42030450D01*
X41640301Y-47355300D01*
X36324772Y-47355300D01*
X36244999Y-47339432D01*
X36165226Y-47355300D01*
X35928954Y-47402297D01*
X35661023Y-47581323D01*
X35615834Y-47648953D01*
X34757583Y-48507204D01*
X34725625Y-48459375D01*
X34703967Y-48444904D01*
X34864698Y-48378327D01*
X35043327Y-48199699D01*
X35140000Y-47966310D01*
X35140000Y-47275750D01*
X34981250Y-47117000D01*
X33782000Y-47117000D01*
X33782000Y-47137000D01*
X33528000Y-47137000D01*
X33528000Y-47117000D01*
X33508000Y-47117000D01*
X33508000Y-46863000D01*
X33528000Y-46863000D01*
X33528000Y-45663750D01*
X33782000Y-45663750D01*
X33782000Y-46863000D01*
X34981250Y-46863000D01*
X35140000Y-46704250D01*
X35140000Y-46013690D01*
X35043327Y-45780301D01*
X34864698Y-45601673D01*
X34631309Y-45505000D01*
X33940750Y-45505000D01*
X33782000Y-45663750D01*
X33528000Y-45663750D01*
X33369250Y-45505000D01*
X33191300Y-45505000D01*
X33191300Y-41977648D01*
X33305959Y-42031914D01*
X33528000Y-41910629D01*
X33528000Y-40767000D01*
X33782000Y-40767000D01*
X33782000Y-41910629D01*
X34004041Y-42031914D01*
X34510134Y-41792389D01*
X34886041Y-41377423D01*
X35046904Y-40989039D01*
X34924915Y-40767000D01*
X33782000Y-40767000D01*
X33528000Y-40767000D01*
X33508000Y-40767000D01*
X33508000Y-40513000D01*
X33528000Y-40513000D01*
X33528000Y-40493000D01*
X33782000Y-40493000D01*
X33782000Y-40513000D01*
X34924915Y-40513000D01*
X35046904Y-40290961D01*
X34886041Y-39902577D01*
X34510134Y-39487611D01*
X34305892Y-39390947D01*
X34689577Y-39134577D01*
X34873043Y-38860000D01*
X40056957Y-38860000D01*
X40240423Y-39134577D01*
G04 #@! TD*
M02*
