M48
;DRILL file {KiCad 5.0.2+dfsg1-1} date vr 26 jul 2019 14:23:42 CEST
;FORMAT={-:-/ absolute / inch / decimal}
FMAT,2
INCH,TZ
T1C0.0157
T2C0.0276
T3C0.0315
T4C0.0354
T5C0.0394
T6C0.0512
%
G90
G05
T1
X2.075Y-1.41
X2.48Y-0.84
X2.48Y-0.965
X2.48Y-1.175
X2.48Y-2.3
X2.71Y-1.645
X2.785Y-1.645
X2.805Y-2.445
X3.5232Y-1.4683
X3.615Y-1.55
X3.645Y-2.465
T2
X2.475Y-2.95
X2.5734Y-2.95
X2.4766Y-2.75
X2.575Y-2.75
X1.9516Y-1.7
X2.05Y-1.7
X2.4766Y-3.15
X2.575Y-3.15
X2.4766Y-1.7
X2.575Y-1.7
T3
X2.375Y-1.1
X2.675Y-1.1
X3.1048Y-2.5477
X3.1048Y-2.8477
X2.375Y-2.15
X2.675Y-2.15
X3.5048Y-2.5477
X3.5048Y-2.8477
X3.425Y-0.95
X3.425Y-1.05
X3.425Y-1.15
X3.425Y-1.25
X3.425Y-1.35
X3.425Y-1.45
X3.425Y-1.55
X3.725Y-0.95
X3.725Y-1.05
X3.725Y-1.15
X3.725Y-1.25
X3.725Y-1.35
X3.725Y-1.45
X3.725Y-1.55
X1.85Y-2.85
X1.85Y-3.15
X2.15Y-2.85
X2.15Y-3.15
X2.375Y-1.25
X2.375Y-1.35
X2.375Y-1.45
X2.375Y-1.55
X2.675Y-1.25
X2.675Y-1.35
X2.675Y-1.45
X2.675Y-1.55
X2.9Y-0.95
X2.9Y-1.05
X2.9Y-1.15
X2.9Y-1.25
X2.9Y-1.35
X2.9Y-1.45
X2.9Y-1.55
X3.2Y-0.95
X3.2Y-1.05
X3.2Y-1.15
X3.2Y-1.25
X3.2Y-1.35
X3.2Y-1.45
X3.2Y-1.55
X1.85Y-2.
X2.15Y-2.
X1.85Y-2.15
X2.15Y-2.15
X2.375Y-2.3
X2.375Y-2.4
X2.375Y-2.5
X2.375Y-2.6
X2.675Y-2.3
X2.675Y-2.4
X2.675Y-2.5
X2.675Y-2.6
X1.85Y-1.85
X2.15Y-1.85
X2.375Y-2.
X2.675Y-2.
X2.375Y-0.95
X2.675Y-0.95
X1.85Y-1.25
X1.85Y-1.35
X1.85Y-1.45
X1.85Y-1.55
X2.15Y-1.25
X2.15Y-1.35
X2.15Y-1.45
X2.15Y-1.55
X2.9Y-1.75
X2.9Y-1.85
X2.9Y-1.95
X2.9Y-2.05
X2.9Y-2.15
X2.9Y-2.25
X2.9Y-2.35
X3.2Y-1.75
X3.2Y-1.85
X3.2Y-1.95
X3.2Y-2.05
X3.2Y-2.15
X3.2Y-2.25
X3.2Y-2.35
X3.9048Y-2.5477
X3.9048Y-2.8477
X1.5016Y-1.45
X1.6Y-1.45
X1.85Y-0.95
X2.15Y-0.95
X3.425Y-1.75
X3.425Y-1.85
X3.425Y-1.95
X3.425Y-2.05
X3.425Y-2.15
X3.425Y-2.25
X3.425Y-2.35
X3.725Y-1.75
X3.725Y-1.85
X3.725Y-1.95
X3.725Y-2.05
X3.725Y-2.15
X3.725Y-2.25
X3.725Y-2.35
X1.85Y-1.1
X2.15Y-1.1
X1.85Y-2.3
X1.85Y-2.4
X1.85Y-2.5
X1.85Y-2.6
X2.15Y-2.3
X2.15Y-2.4
X2.15Y-2.5
X2.15Y-2.6
T4
X3.7048Y-2.6477
X3.7048Y-2.7477
X2.9048Y-2.6477
X2.9048Y-2.7477
X3.3048Y-2.6477
X3.3048Y-2.7477
T5
X2.7739Y-2.9706
X2.7739Y-3.1477
X3.0298Y-2.9706
X3.0298Y-3.1477
X1.5Y-3.05
X1.5Y-3.15
X4.Y-3.05
X4.Y-3.15
X1.5Y-1.825
X1.5Y-1.925
X4.Y-0.95
X4.Y-1.05
X4.Y-1.15
X4.Y-1.25
X4.Y-1.35
X3.5739Y-2.9706
X3.5739Y-3.1477
X3.8298Y-2.9706
X3.8298Y-3.1477
X3.1739Y-2.9706
X3.1739Y-3.1477
X3.4298Y-2.9706
X3.4298Y-3.1477
T6
X1.5Y-0.9781
X1.5Y-1.175
X1.6969Y-1.0766
T0
M30
