G04 #@! TF.GenerationSoftware,KiCad,Pcbnew,5.0.2+dfsg1-1*
G04 #@! TF.CreationDate,2019-07-29T21:29:43+02:00*
G04 #@! TF.ProjectId,Clock,436c6f63-6b2e-46b6-9963-61645f706362,rev?*
G04 #@! TF.SameCoordinates,Original*
G04 #@! TF.FileFunction,Copper,L2,Bot*
G04 #@! TF.FilePolarity,Positive*
%FSLAX46Y46*%
G04 Gerber Fmt 4.6, Leading zero omitted, Abs format (unit mm)*
G04 Created by KiCad (PCBNEW 5.0.2+dfsg1-1) date ma 29 jul 2019 21:29:43 CEST*
%MOMM*%
%LPD*%
G01*
G04 APERTURE LIST*
G04 #@! TA.AperFunction,ComponentPad*
%ADD10C,1.400000*%
G04 #@! TD*
G04 #@! TA.AperFunction,ComponentPad*
%ADD11C,1.620000*%
G04 #@! TD*
G04 #@! TA.AperFunction,ComponentPad*
%ADD12O,1.700000X1.700000*%
G04 #@! TD*
G04 #@! TA.AperFunction,ComponentPad*
%ADD13R,1.700000X1.700000*%
G04 #@! TD*
G04 #@! TA.AperFunction,ComponentPad*
%ADD14O,1.600000X1.600000*%
G04 #@! TD*
G04 #@! TA.AperFunction,ComponentPad*
%ADD15R,1.600000X1.600000*%
G04 #@! TD*
G04 #@! TA.AperFunction,ComponentPad*
%ADD16C,1.600000*%
G04 #@! TD*
G04 #@! TA.AperFunction,ComponentPad*
%ADD17C,1.800000*%
G04 #@! TD*
G04 #@! TA.AperFunction,ComponentPad*
%ADD18R,1.800000X1.800000*%
G04 #@! TD*
G04 #@! TA.AperFunction,ComponentPad*
%ADD19C,1.700000*%
G04 #@! TD*
G04 #@! TA.AperFunction,ViaPad*
%ADD20C,0.800000*%
G04 #@! TD*
G04 #@! TA.AperFunction,Conductor*
%ADD21C,0.250000*%
G04 #@! TD*
G04 #@! TA.AperFunction,Conductor*
%ADD22C,0.350000*%
G04 #@! TD*
G04 #@! TA.AperFunction,Conductor*
%ADD23C,0.254000*%
G04 #@! TD*
G04 APERTURE END LIST*
D10*
G04 #@! TO.P,SW2,2*
G04 #@! TO.N,GND*
X83947000Y-75184000D03*
G04 #@! TO.P,SW2,1*
G04 #@! TO.N,Net-(R8-Pad1)*
X81915000Y-75184000D03*
G04 #@! TO.P,SW2,3*
G04 #@! TO.N,Net-(R9-Pad1)*
X85979000Y-75184000D03*
G04 #@! TO.P,SW2,*
G04 #@! TO.N,*
X85979000Y-80264000D03*
X83947000Y-80264000D03*
X81915000Y-80264000D03*
G04 #@! TD*
G04 #@! TO.P,SW3,2*
G04 #@! TO.N,GND*
X73787000Y-75184000D03*
G04 #@! TO.P,SW3,1*
G04 #@! TO.N,Net-(R10-Pad1)*
X71755000Y-75184000D03*
G04 #@! TO.P,SW3,3*
G04 #@! TO.N,Net-(R11-Pad1)*
X75819000Y-75184000D03*
G04 #@! TO.P,SW3,*
G04 #@! TO.N,*
X75819000Y-80264000D03*
X73787000Y-80264000D03*
X71755000Y-80264000D03*
G04 #@! TD*
D11*
G04 #@! TO.P,R3,1*
G04 #@! TO.N,Net-(R3-Pad1)*
X38100000Y-29845000D03*
G04 #@! TO.P,R3,2*
G04 #@! TO.N,Net-(R3-Pad2)*
X43100000Y-27345000D03*
G04 #@! TO.P,R3,3*
G04 #@! TO.N,Net-(R2-Pad2)*
X38100000Y-24845000D03*
G04 #@! TD*
D12*
G04 #@! TO.P,J3,2*
G04 #@! TO.N,Net-(J3-Pad2)*
X38100000Y-80010000D03*
D13*
G04 #@! TO.P,J3,1*
G04 #@! TO.N,Net-(J3-Pad1)*
X38100000Y-77470000D03*
G04 #@! TD*
D12*
G04 #@! TO.P,J2,2*
G04 #@! TO.N,Net-(J2-Pad2)*
X38100000Y-49530000D03*
D13*
G04 #@! TO.P,J2,1*
G04 #@! TO.N,Net-(J2-Pad1)*
X38100000Y-46990000D03*
G04 #@! TD*
D12*
G04 #@! TO.P,J4,2*
G04 #@! TO.N,Net-(J4-Pad2)*
X101600000Y-80010000D03*
D13*
G04 #@! TO.P,J4,1*
G04 #@! TO.N,Net-(J4-Pad1)*
X101600000Y-77470000D03*
G04 #@! TD*
D14*
G04 #@! TO.P,U3,14*
G04 #@! TO.N,+5V*
X81280000Y-24130000D03*
G04 #@! TO.P,U3,7*
G04 #@! TO.N,GND*
X73660000Y-39370000D03*
G04 #@! TO.P,U3,13*
G04 #@! TO.N,CLK_TURBO_EN*
X81280000Y-26670000D03*
G04 #@! TO.P,U3,6*
G04 #@! TO.N,Net-(U3-Pad6)*
X73660000Y-36830000D03*
G04 #@! TO.P,U3,12*
G04 #@! TO.N,CLK_MAN_EN*
X81280000Y-29210000D03*
G04 #@! TO.P,U3,5*
G04 #@! TO.N,CLK_TURBO_EN*
X73660000Y-34290000D03*
G04 #@! TO.P,U3,11*
G04 #@! TO.N,Net-(U3-Pad11)*
X81280000Y-31750000D03*
G04 #@! TO.P,U3,4*
G04 #@! TO.N,Net-(U1-Pad2)*
X73660000Y-31750000D03*
G04 #@! TO.P,U3,10*
X81280000Y-34290000D03*
G04 #@! TO.P,U3,3*
G04 #@! TO.N,Net-(U3-Pad3)*
X73660000Y-29210000D03*
G04 #@! TO.P,U3,9*
G04 #@! TO.N,CLK_VAR*
X81280000Y-36830000D03*
G04 #@! TO.P,U3,2*
G04 #@! TO.N,CLK_MAN*
X73660000Y-26670000D03*
G04 #@! TO.P,U3,8*
G04 #@! TO.N,Net-(U3-Pad8)*
X81280000Y-39370000D03*
D15*
G04 #@! TO.P,U3,1*
G04 #@! TO.N,CLK_MAN_EN*
X73660000Y-24130000D03*
G04 #@! TD*
D14*
G04 #@! TO.P,R8,2*
G04 #@! TO.N,+5V*
X67945000Y-27940000D03*
D16*
G04 #@! TO.P,R8,1*
G04 #@! TO.N,Net-(R8-Pad1)*
X60325000Y-27940000D03*
G04 #@! TD*
D14*
G04 #@! TO.P,U2,8*
G04 #@! TO.N,+5V*
X54610000Y-31750000D03*
G04 #@! TO.P,U2,4*
X46990000Y-39370000D03*
G04 #@! TO.P,U2,7*
G04 #@! TO.N,Net-(R1-Pad1)*
X54610000Y-34290000D03*
G04 #@! TO.P,U2,3*
G04 #@! TO.N,CLK_VAR*
X46990000Y-36830000D03*
G04 #@! TO.P,U2,6*
G04 #@! TO.N,Net-(C1-Pad1)*
X54610000Y-36830000D03*
G04 #@! TO.P,U2,2*
X46990000Y-34290000D03*
G04 #@! TO.P,U2,5*
G04 #@! TO.N,Net-(C2-Pad1)*
X54610000Y-39370000D03*
D15*
G04 #@! TO.P,U2,1*
G04 #@! TO.N,GND*
X46990000Y-31750000D03*
G04 #@! TD*
D17*
G04 #@! TO.P,D3,2*
G04 #@! TO.N,CLK_TURBO_EN*
X73782400Y-67252400D03*
D18*
G04 #@! TO.P,D3,1*
G04 #@! TO.N,Net-(D3-Pad1)*
X73782400Y-69792400D03*
G04 #@! TD*
D14*
G04 #@! TO.P,R13,2*
G04 #@! TO.N,GND*
X78862400Y-64712400D03*
D16*
G04 #@! TO.P,R13,1*
G04 #@! TO.N,Net-(D3-Pad1)*
X78862400Y-72332400D03*
G04 #@! TD*
D14*
G04 #@! TO.P,R12,2*
G04 #@! TO.N,GND*
X89022400Y-64712400D03*
D16*
G04 #@! TO.P,R12,1*
G04 #@! TO.N,Net-(D2-Pad1)*
X89022400Y-72332400D03*
G04 #@! TD*
D14*
G04 #@! TO.P,R11,2*
G04 #@! TO.N,+5V*
X67945000Y-50800000D03*
D16*
G04 #@! TO.P,R11,1*
G04 #@! TO.N,Net-(R11-Pad1)*
X60325000Y-50800000D03*
G04 #@! TD*
D14*
G04 #@! TO.P,R10,2*
G04 #@! TO.N,+5V*
X67945000Y-54610000D03*
D16*
G04 #@! TO.P,R10,1*
G04 #@! TO.N,Net-(R10-Pad1)*
X60325000Y-54610000D03*
G04 #@! TD*
D14*
G04 #@! TO.P,R9,2*
G04 #@! TO.N,+5V*
X67945000Y-24130000D03*
D16*
G04 #@! TO.P,R9,1*
G04 #@! TO.N,Net-(R9-Pad1)*
X60325000Y-24130000D03*
G04 #@! TD*
D14*
G04 #@! TO.P,R7,2*
G04 #@! TO.N,GND*
X99182400Y-64712400D03*
D16*
G04 #@! TO.P,R7,1*
G04 #@! TO.N,Net-(D1-Pad1)*
X99182400Y-72332400D03*
G04 #@! TD*
D14*
G04 #@! TO.P,R6,2*
G04 #@! TO.N,Net-(C4-Pad1)*
X46990000Y-50800000D03*
D16*
G04 #@! TO.P,R6,1*
G04 #@! TO.N,+5V*
X54610000Y-50800000D03*
G04 #@! TD*
D14*
G04 #@! TO.P,R1,2*
G04 #@! TO.N,+5V*
X54610000Y-27940000D03*
D16*
G04 #@! TO.P,R1,1*
G04 #@! TO.N,Net-(R1-Pad1)*
X46990000Y-27940000D03*
G04 #@! TD*
D14*
G04 #@! TO.P,R2,2*
G04 #@! TO.N,Net-(R2-Pad2)*
X54610000Y-24130000D03*
D16*
G04 #@! TO.P,R2,1*
G04 #@! TO.N,Net-(C1-Pad1)*
X46990000Y-24130000D03*
G04 #@! TD*
D14*
G04 #@! TO.P,R4,2*
G04 #@! TO.N,Net-(R3-Pad2)*
X46990000Y-46990000D03*
D16*
G04 #@! TO.P,R4,1*
G04 #@! TO.N,Net-(R1-Pad1)*
X54610000Y-46990000D03*
G04 #@! TD*
D14*
G04 #@! TO.P,R5,2*
G04 #@! TO.N,+5V*
X54610000Y-54610000D03*
D16*
G04 #@! TO.P,R5,1*
G04 #@! TO.N,Net-(R5-Pad1)*
X46990000Y-54610000D03*
G04 #@! TD*
D10*
G04 #@! TO.P,C2,2*
G04 #@! TO.N,GND*
X49570000Y-43180000D03*
G04 #@! TO.P,C2,1*
G04 #@! TO.N,Net-(C2-Pad1)*
X52070000Y-43180000D03*
G04 #@! TD*
G04 #@! TO.P,C5,2*
G04 #@! TO.N,GND*
X62905000Y-43180000D03*
G04 #@! TO.P,C5,1*
G04 #@! TO.N,Net-(C5-Pad1)*
X65405000Y-43180000D03*
G04 #@! TD*
G04 #@! TO.P,C4,2*
G04 #@! TO.N,GND*
X62905000Y-80010000D03*
G04 #@! TO.P,C4,1*
G04 #@! TO.N,Net-(C4-Pad1)*
X65405000Y-80010000D03*
G04 #@! TD*
G04 #@! TO.P,C3,2*
G04 #@! TO.N,GND*
X65365000Y-74930000D03*
G04 #@! TO.P,C3,1*
G04 #@! TO.N,Net-(C3-Pad1)*
X62865000Y-74930000D03*
G04 #@! TD*
G04 #@! TO.P,C6,2*
G04 #@! TO.N,GND*
X62905000Y-69850000D03*
G04 #@! TO.P,C6,1*
G04 #@! TO.N,Net-(C6-Pad1)*
X65405000Y-69850000D03*
G04 #@! TD*
D14*
G04 #@! TO.P,U6,8*
G04 #@! TO.N,+5V*
X54610000Y-58420000D03*
G04 #@! TO.P,U6,4*
X46990000Y-66040000D03*
G04 #@! TO.P,U6,7*
G04 #@! TO.N,Net-(C4-Pad1)*
X54610000Y-60960000D03*
G04 #@! TO.P,U6,3*
G04 #@! TO.N,CLK_MAN*
X46990000Y-63500000D03*
G04 #@! TO.P,U6,6*
G04 #@! TO.N,Net-(C4-Pad1)*
X54610000Y-63500000D03*
G04 #@! TO.P,U6,2*
G04 #@! TO.N,Net-(R5-Pad1)*
X46990000Y-60960000D03*
G04 #@! TO.P,U6,5*
G04 #@! TO.N,Net-(C3-Pad1)*
X54610000Y-66040000D03*
D15*
G04 #@! TO.P,U6,1*
G04 #@! TO.N,GND*
X46990000Y-58420000D03*
G04 #@! TD*
D16*
G04 #@! TO.P,Y1,2*
G04 #@! TO.N,GND*
X54610000Y-80010000D03*
G04 #@! TO.P,Y1,3*
G04 #@! TO.N,CLK_TURBO*
X54610000Y-72390000D03*
G04 #@! TO.P,Y1,1*
G04 #@! TO.N,+5V*
X46990000Y-72390000D03*
D15*
G04 #@! TO.P,Y1,4*
G04 #@! TO.N,N/C*
X46990000Y-80010000D03*
G04 #@! TD*
D19*
G04 #@! TO.P,SW1,1*
G04 #@! TO.N,GND*
X97277400Y-79952400D03*
G04 #@! TO.P,SW1,2*
G04 #@! TO.N,Net-(R5-Pad1)*
X90777400Y-79952400D03*
G04 #@! TO.P,SW1,3*
G04 #@! TO.N,N/C*
X97277400Y-75452400D03*
G04 #@! TO.P,SW1,4*
X90777400Y-75452400D03*
G04 #@! TD*
D16*
G04 #@! TO.P,C1,2*
G04 #@! TO.N,GND*
X38140000Y-36830000D03*
D15*
G04 #@! TO.P,C1,1*
G04 #@! TO.N,Net-(C1-Pad1)*
X40640000Y-36830000D03*
G04 #@! TD*
D12*
G04 #@! TO.P,J1,5*
G04 #@! TO.N,CLK_HLT*
X101600000Y-34290000D03*
G04 #@! TO.P,J1,4*
G04 #@! TO.N,~CLOCK*
X101600000Y-31750000D03*
G04 #@! TO.P,J1,3*
G04 #@! TO.N,CLOCK*
X101600000Y-29210000D03*
G04 #@! TO.P,J1,2*
G04 #@! TO.N,+5V*
X101600000Y-26670000D03*
D13*
G04 #@! TO.P,J1,1*
G04 #@! TO.N,GND*
X101600000Y-24130000D03*
G04 #@! TD*
D17*
G04 #@! TO.P,D1,2*
G04 #@! TO.N,CLOCK*
X94102400Y-67252400D03*
D18*
G04 #@! TO.P,D1,1*
G04 #@! TO.N,Net-(D1-Pad1)*
X94102400Y-69792400D03*
G04 #@! TD*
D17*
G04 #@! TO.P,D2,2*
G04 #@! TO.N,CLK_MAN_EN*
X83942400Y-67252400D03*
D18*
G04 #@! TO.P,D2,1*
G04 #@! TO.N,Net-(D2-Pad1)*
X83942400Y-69792400D03*
G04 #@! TD*
D14*
G04 #@! TO.P,U5,14*
G04 #@! TO.N,+5V*
X94615000Y-24130000D03*
G04 #@! TO.P,U5,7*
G04 #@! TO.N,GND*
X86995000Y-39370000D03*
G04 #@! TO.P,U5,13*
G04 #@! TO.N,N/C*
X94615000Y-26670000D03*
G04 #@! TO.P,U5,6*
G04 #@! TO.N,Net-(U4-Pad9)*
X86995000Y-36830000D03*
G04 #@! TO.P,U5,12*
G04 #@! TO.N,N/C*
X94615000Y-29210000D03*
G04 #@! TO.P,U5,5*
G04 #@! TO.N,Net-(U4-Pad6)*
X86995000Y-34290000D03*
G04 #@! TO.P,U5,11*
G04 #@! TO.N,N/C*
X94615000Y-31750000D03*
G04 #@! TO.P,U5,4*
G04 #@! TO.N,Net-(U4-Pad3)*
X86995000Y-31750000D03*
G04 #@! TO.P,U5,10*
G04 #@! TO.N,Net-(U1-Pad4)*
X94615000Y-34290000D03*
G04 #@! TO.P,U5,3*
G04 #@! TO.N,Net-(U4-Pad10)*
X86995000Y-29210000D03*
G04 #@! TO.P,U5,9*
G04 #@! TO.N,Net-(U4-Pad8)*
X94615000Y-36830000D03*
G04 #@! TO.P,U5,2*
G04 #@! TO.N,CLK_TURBO*
X86995000Y-26670000D03*
G04 #@! TO.P,U5,8*
G04 #@! TO.N,CLOCK*
X94615000Y-39370000D03*
D15*
G04 #@! TO.P,U5,1*
G04 #@! TO.N,Net-(U3-Pad6)*
X86995000Y-24130000D03*
G04 #@! TD*
D14*
G04 #@! TO.P,U1,14*
G04 #@! TO.N,+5V*
X81280000Y-44450000D03*
G04 #@! TO.P,U1,7*
G04 #@! TO.N,GND*
X73660000Y-59690000D03*
G04 #@! TO.P,U1,13*
G04 #@! TO.N,N/C*
X81280000Y-46990000D03*
G04 #@! TO.P,U1,6*
G04 #@! TO.N,Net-(U1-Pad6)*
X73660000Y-57150000D03*
G04 #@! TO.P,U1,12*
G04 #@! TO.N,N/C*
X81280000Y-49530000D03*
G04 #@! TO.P,U1,5*
G04 #@! TO.N,CLK_TURBO_EN*
X73660000Y-54610000D03*
G04 #@! TO.P,U1,11*
G04 #@! TO.N,N/C*
X81280000Y-52070000D03*
G04 #@! TO.P,U1,4*
G04 #@! TO.N,Net-(U1-Pad4)*
X73660000Y-52070000D03*
G04 #@! TO.P,U1,10*
G04 #@! TO.N,N/C*
X81280000Y-54610000D03*
G04 #@! TO.P,U1,3*
G04 #@! TO.N,CLK_HLT*
X73660000Y-49530000D03*
G04 #@! TO.P,U1,9*
G04 #@! TO.N,CLOCK*
X81280000Y-57150000D03*
G04 #@! TO.P,U1,2*
G04 #@! TO.N,Net-(U1-Pad2)*
X73660000Y-46990000D03*
G04 #@! TO.P,U1,8*
G04 #@! TO.N,~CLOCK*
X81280000Y-59690000D03*
D15*
G04 #@! TO.P,U1,1*
G04 #@! TO.N,CLK_MAN_EN*
X73660000Y-44450000D03*
G04 #@! TD*
D14*
G04 #@! TO.P,U4,14*
G04 #@! TO.N,+5V*
X94615000Y-44450000D03*
G04 #@! TO.P,U4,7*
G04 #@! TO.N,GND*
X86995000Y-59690000D03*
G04 #@! TO.P,U4,13*
G04 #@! TO.N,N/C*
X94615000Y-46990000D03*
G04 #@! TO.P,U4,6*
G04 #@! TO.N,Net-(U4-Pad6)*
X86995000Y-57150000D03*
G04 #@! TO.P,U4,12*
G04 #@! TO.N,N/C*
X94615000Y-49530000D03*
G04 #@! TO.P,U4,5*
G04 #@! TO.N,Net-(U1-Pad6)*
X86995000Y-54610000D03*
G04 #@! TO.P,U4,11*
G04 #@! TO.N,N/C*
X94615000Y-52070000D03*
G04 #@! TO.P,U4,4*
G04 #@! TO.N,Net-(U3-Pad11)*
X86995000Y-52070000D03*
G04 #@! TO.P,U4,10*
G04 #@! TO.N,Net-(U4-Pad10)*
X94615000Y-54610000D03*
G04 #@! TO.P,U4,3*
G04 #@! TO.N,Net-(U4-Pad3)*
X86995000Y-49530000D03*
G04 #@! TO.P,U4,9*
G04 #@! TO.N,Net-(U4-Pad9)*
X94615000Y-57150000D03*
G04 #@! TO.P,U4,2*
G04 #@! TO.N,Net-(U3-Pad3)*
X86995000Y-46990000D03*
G04 #@! TO.P,U4,8*
G04 #@! TO.N,Net-(U4-Pad8)*
X94615000Y-59690000D03*
D15*
G04 #@! TO.P,U4,1*
G04 #@! TO.N,Net-(U3-Pad8)*
X86995000Y-44450000D03*
G04 #@! TD*
D14*
G04 #@! TO.P,U7,8*
G04 #@! TO.N,+5V*
X67945000Y-31750000D03*
G04 #@! TO.P,U7,4*
G04 #@! TO.N,Net-(R9-Pad1)*
X60325000Y-39370000D03*
G04 #@! TO.P,U7,7*
G04 #@! TO.N,Net-(U7-Pad7)*
X67945000Y-34290000D03*
G04 #@! TO.P,U7,3*
G04 #@! TO.N,CLK_MAN_EN*
X60325000Y-36830000D03*
G04 #@! TO.P,U7,6*
G04 #@! TO.N,GND*
X67945000Y-36830000D03*
G04 #@! TO.P,U7,2*
G04 #@! TO.N,Net-(R8-Pad1)*
X60325000Y-34290000D03*
G04 #@! TO.P,U7,5*
G04 #@! TO.N,Net-(C5-Pad1)*
X67945000Y-39370000D03*
D15*
G04 #@! TO.P,U7,1*
G04 #@! TO.N,GND*
X60325000Y-31750000D03*
G04 #@! TD*
D14*
G04 #@! TO.P,U8,8*
G04 #@! TO.N,+5V*
X67945000Y-58420000D03*
G04 #@! TO.P,U8,4*
G04 #@! TO.N,Net-(R11-Pad1)*
X60325000Y-66040000D03*
G04 #@! TO.P,U8,7*
G04 #@! TO.N,Net-(U8-Pad7)*
X67945000Y-60960000D03*
G04 #@! TO.P,U8,3*
G04 #@! TO.N,CLK_TURBO_EN*
X60325000Y-63500000D03*
G04 #@! TO.P,U8,6*
G04 #@! TO.N,GND*
X67945000Y-63500000D03*
G04 #@! TO.P,U8,2*
G04 #@! TO.N,Net-(R10-Pad1)*
X60325000Y-60960000D03*
G04 #@! TO.P,U8,5*
G04 #@! TO.N,Net-(C6-Pad1)*
X67945000Y-66040000D03*
D15*
G04 #@! TO.P,U8,1*
G04 #@! TO.N,GND*
X60325000Y-58420000D03*
G04 #@! TD*
D20*
G04 #@! TO.N,GND*
X62992000Y-29845000D03*
X70739000Y-41783000D03*
X68834000Y-41783000D03*
X92583000Y-62611000D03*
X71247000Y-62103000D03*
X62992000Y-58420000D03*
X91821000Y-39370000D03*
X52705000Y-35814000D03*
X62992000Y-24511000D03*
X62992000Y-21336000D03*
G04 #@! TO.N,Net-(U4-Pad9)*
X89488200Y-37294400D03*
G04 #@! TD*
D21*
G04 #@! TO.N,Net-(R1-Pad1)*
X55735300Y-45864700D02*
X54610000Y-46990000D01*
X55735300Y-35415300D02*
X55735300Y-45864700D01*
X54610000Y-34290000D02*
X55735300Y-35415300D01*
D22*
G04 #@! TO.N,+5V*
X94615000Y-44450000D02*
X94615000Y-43274700D01*
X54610000Y-50800000D02*
X48165300Y-44355300D01*
X54610000Y-54610000D02*
X54610000Y-50800000D01*
X54610000Y-58420000D02*
X54610000Y-54610000D01*
X46990000Y-39370000D02*
X48165300Y-39370000D01*
X48165300Y-39370000D02*
X48165300Y-39004700D01*
X67945000Y-31750000D02*
X67945000Y-27940000D01*
X67945000Y-50800000D02*
X67945000Y-54610000D01*
X54610000Y-27940000D02*
X54610000Y-31750000D01*
X46990000Y-72390000D02*
X46990000Y-66040000D01*
X48165300Y-38194700D02*
X48165300Y-39751000D01*
X54610000Y-31750000D02*
X48165300Y-38194700D01*
X48165300Y-44355300D02*
X48165300Y-39751000D01*
X48165300Y-39751000D02*
X48165300Y-39370000D01*
X54610000Y-58420000D02*
X46990000Y-66040000D01*
X97155000Y-26670000D02*
X94615000Y-24130000D01*
X101600000Y-26670000D02*
X97155000Y-26670000D01*
X97155000Y-40734700D02*
X96614700Y-41275000D01*
X97155000Y-26670000D02*
X97155000Y-40734700D01*
X94615000Y-43274700D02*
X96614700Y-41275000D01*
D21*
G04 #@! TO.N,Net-(C4-Pad1)*
X54610000Y-60960000D02*
X54610000Y-63500000D01*
X59489200Y-78924600D02*
X64319600Y-78924600D01*
X53462700Y-72898100D02*
X59489200Y-78924600D01*
X53462700Y-64647300D02*
X53462700Y-72898100D01*
X64319600Y-78924600D02*
X65405000Y-80010000D01*
X54610000Y-63500000D02*
X53462700Y-64647300D01*
G04 #@! TO.N,Net-(R9-Pad1)*
X60325000Y-48660000D02*
X60325000Y-39370000D01*
X59199700Y-25255300D02*
X60325000Y-24130000D01*
X59199700Y-38244700D02*
X59199700Y-25255300D01*
X60325000Y-39370000D02*
X59199700Y-38244700D01*
X74549000Y-63754000D02*
X74549000Y-62884000D01*
X85979000Y-75184000D02*
X74549000Y-63754000D01*
X74549000Y-62884000D02*
X60325000Y-48660000D01*
G04 #@! TO.N,Net-(R10-Pad1)*
X61450300Y-60960000D02*
X61450300Y-55735300D01*
X61450300Y-55735300D02*
X60325000Y-54610000D01*
X61337700Y-60960000D02*
X61450300Y-60960000D01*
X60325000Y-60960000D02*
X61337700Y-60960000D01*
X69231100Y-65732700D02*
X68268400Y-64770000D01*
X68268400Y-64770000D02*
X65260300Y-64770000D01*
X65260300Y-64770000D02*
X61450300Y-60960000D01*
X69231100Y-72660100D02*
X69231100Y-71882000D01*
X71755000Y-75184000D02*
X69231100Y-72660100D01*
X69231100Y-72226100D02*
X69231100Y-71882000D01*
X69231100Y-71882000D02*
X69231100Y-65732700D01*
G04 #@! TO.N,Net-(R11-Pad1)*
X59174300Y-51950700D02*
X60325000Y-50800000D01*
X59174300Y-64889300D02*
X59174300Y-51950700D01*
X60325000Y-66040000D02*
X59174300Y-64889300D01*
G04 #@! TO.N,Net-(C6-Pad1)*
X67945000Y-66040000D02*
X67945000Y-67165300D01*
X67945000Y-67165300D02*
X65405000Y-69705300D01*
X65405000Y-69705300D02*
X65405000Y-69850000D01*
G04 #@! TO.N,CLK_TURBO_EN*
X72084300Y-35865700D02*
X73660000Y-34290000D01*
X72084300Y-53034300D02*
X72084300Y-35865700D01*
X73660000Y-54610000D02*
X72084300Y-53034300D01*
G04 #@! TO.N,Net-(C2-Pad1)*
X52070000Y-43180000D02*
X54610000Y-40640000D01*
X54610000Y-40640000D02*
X54610000Y-39370000D01*
G04 #@! TO.N,CLK_MAN_EN*
X83942400Y-67252400D02*
X83942400Y-65140800D01*
X83942400Y-65140800D02*
X75158300Y-56356700D01*
X75158300Y-56356700D02*
X75158300Y-51911600D01*
X75158300Y-51911600D02*
X74046700Y-50800000D01*
X74046700Y-50800000D02*
X73291900Y-50800000D01*
X73291900Y-50800000D02*
X72534700Y-50042800D01*
X72534700Y-50042800D02*
X72534700Y-45575300D01*
X72534700Y-45575300D02*
X73660000Y-44450000D01*
X73660000Y-24130000D02*
X74785300Y-24130000D01*
X74785300Y-24130000D02*
X79865300Y-29210000D01*
X79865300Y-29210000D02*
X81280000Y-29210000D01*
G04 #@! TO.N,Net-(U4-Pad8)*
X94333600Y-37955300D02*
X94615000Y-37955300D01*
X93489700Y-38799200D02*
X94333600Y-37955300D01*
X93489700Y-52591200D02*
X93489700Y-38799200D01*
X94615000Y-37955300D02*
X94615000Y-36830000D01*
X94615000Y-59690000D02*
X95769400Y-58535600D01*
X95769400Y-58535600D02*
X95769400Y-54121900D01*
X95769400Y-54121900D02*
X94987500Y-53340000D01*
X94238500Y-53340000D02*
X93489700Y-52591200D01*
X94987500Y-53340000D02*
X94238500Y-53340000D01*
G04 #@! TO.N,Net-(U3-Pad3)*
X74785300Y-29210000D02*
X73660000Y-29210000D01*
X85869700Y-45864700D02*
X85869700Y-34742600D01*
X85869700Y-34742600D02*
X81462400Y-30335300D01*
X86995000Y-46990000D02*
X85869700Y-45864700D01*
X81462400Y-30335300D02*
X75910600Y-30335300D01*
X75910600Y-30335300D02*
X74785300Y-29210000D01*
G04 #@! TO.N,Net-(U4-Pad9)*
X89488200Y-52023200D02*
X89488200Y-50165000D01*
X94615000Y-57150000D02*
X89488200Y-52023200D01*
X89488200Y-50165000D02*
X89488200Y-37294400D01*
G04 #@! TO.N,Net-(U4-Pad3)*
X88131800Y-32886800D02*
X86995000Y-31750000D01*
X88131800Y-48393200D02*
X88131800Y-32886800D01*
X86995000Y-49530000D02*
X88131800Y-48393200D01*
G04 #@! TO.N,Net-(U4-Pad10)*
X94615000Y-54610000D02*
X90273200Y-50268200D01*
X90273200Y-50268200D02*
X90273200Y-32488200D01*
X90273200Y-32488200D02*
X86995000Y-29210000D01*
G04 #@! TO.N,Net-(U3-Pad11)*
X82079999Y-32549999D02*
X81280000Y-31750000D01*
X82677000Y-33147000D02*
X82079999Y-32549999D01*
X82677000Y-47752000D02*
X82677000Y-33147000D01*
X86995000Y-52070000D02*
X82677000Y-47752000D01*
G04 #@! TO.N,Net-(U4-Pad6)*
X86995000Y-34290000D02*
X85869700Y-33164700D01*
X88582200Y-55562800D02*
X86995000Y-57150000D01*
X85869700Y-33164700D02*
X85869700Y-31244000D01*
X88582200Y-31717200D02*
X88582200Y-55562800D01*
X85869700Y-31244000D02*
X86495500Y-30618200D01*
X86495500Y-30618200D02*
X87483200Y-30618200D01*
X87483200Y-30618200D02*
X88582200Y-31717200D01*
G04 #@! TO.N,Net-(U1-Pad2)*
X74785300Y-34290000D02*
X74785300Y-33719200D01*
X81280000Y-34290000D02*
X74785300Y-34290000D01*
X74785300Y-32875300D02*
X74785300Y-34544000D01*
X73660000Y-31750000D02*
X74785300Y-32875300D01*
X74785300Y-34544000D02*
X74785300Y-34290000D01*
X74785300Y-45864700D02*
X74785300Y-43180000D01*
X74785300Y-43180000D02*
X74785300Y-34544000D01*
X73660000Y-46990000D02*
X74785300Y-45864700D01*
G04 #@! TO.N,~CLOCK*
X82405300Y-59690000D02*
X81280000Y-59690000D01*
X101600000Y-31750000D02*
X100424700Y-32925300D01*
X100424700Y-32925300D02*
X100424700Y-55494400D01*
X95103800Y-60815300D02*
X83530600Y-60815300D01*
X100424700Y-55494400D02*
X95103800Y-60815300D01*
X83530600Y-60815300D02*
X82405300Y-59690000D01*
G04 #@! TO.N,CLK_TURBO*
X86995000Y-26670000D02*
X85869700Y-26670000D01*
X85869700Y-26670000D02*
X82200200Y-23000500D01*
X82200200Y-23000500D02*
X59818600Y-23000500D01*
X59818600Y-23000500D02*
X56714400Y-26104700D01*
X56714400Y-26104700D02*
X56714400Y-70285600D01*
X56714400Y-70285600D02*
X54610000Y-72390000D01*
G04 #@! TO.N,Net-(R8-Pad1)*
X61450300Y-34290000D02*
X61450300Y-29065300D01*
X61450300Y-29065300D02*
X60325000Y-27940000D01*
X84986200Y-68567000D02*
X83449700Y-68567000D01*
X83449700Y-68567000D02*
X80316700Y-65434000D01*
X80316700Y-65434000D02*
X80316700Y-62209100D01*
X80316700Y-62209100D02*
X73987600Y-55880000D01*
X73987600Y-55880000D02*
X73261100Y-55880000D01*
X73261100Y-55880000D02*
X71561200Y-54180100D01*
X71561200Y-54180100D02*
X71561200Y-46474600D01*
X71561200Y-46474600D02*
X61450300Y-36363700D01*
X61450300Y-36363700D02*
X61450300Y-34290000D01*
X60325000Y-34290000D02*
X61450300Y-34290000D01*
X87050500Y-70631300D02*
X86396200Y-69977000D01*
X87503000Y-71083800D02*
X86396200Y-69977000D01*
X86396200Y-69977000D02*
X84986200Y-68567000D01*
X81915000Y-75184000D02*
X83566000Y-76835000D01*
X87503000Y-75819000D02*
X87503000Y-71083800D01*
X83566000Y-76835000D02*
X86487000Y-76835000D01*
X86487000Y-76835000D02*
X87503000Y-75819000D01*
G04 #@! TO.N,Net-(R3-Pad2)*
X46990000Y-46990000D02*
X46990000Y-45864700D01*
X46990000Y-45864700D02*
X43100000Y-41974700D01*
X43100000Y-41974700D02*
X43100000Y-27345000D01*
G04 #@! TD*
D23*
G04 #@! TO.N,GND*
G36*
X107240001Y-85650000D02*
X32460000Y-85650000D01*
X32460000Y-80010000D01*
X36585908Y-80010000D01*
X36701161Y-80589418D01*
X37029375Y-81080625D01*
X37520582Y-81408839D01*
X37953744Y-81495000D01*
X38246256Y-81495000D01*
X38679418Y-81408839D01*
X39170625Y-81080625D01*
X39498839Y-80589418D01*
X39614092Y-80010000D01*
X39498839Y-79430582D01*
X39351451Y-79210000D01*
X45542560Y-79210000D01*
X45542560Y-80810000D01*
X45591843Y-81057765D01*
X45732191Y-81267809D01*
X45942235Y-81408157D01*
X46190000Y-81457440D01*
X47790000Y-81457440D01*
X48037765Y-81408157D01*
X48247809Y-81267809D01*
X48388157Y-81057765D01*
X48396117Y-81017745D01*
X53781861Y-81017745D01*
X53855995Y-81263864D01*
X54393223Y-81456965D01*
X54963454Y-81429778D01*
X55364005Y-81263864D01*
X55438139Y-81017745D01*
X55365670Y-80945275D01*
X62149331Y-80945275D01*
X62211169Y-81181042D01*
X62712122Y-81357419D01*
X63242440Y-81328664D01*
X63598831Y-81181042D01*
X63660669Y-80945275D01*
X62905000Y-80189605D01*
X62149331Y-80945275D01*
X55365670Y-80945275D01*
X54610000Y-80189605D01*
X53781861Y-81017745D01*
X48396117Y-81017745D01*
X48437440Y-80810000D01*
X48437440Y-79793223D01*
X53163035Y-79793223D01*
X53190222Y-80363454D01*
X53356136Y-80764005D01*
X53602255Y-80838139D01*
X54430395Y-80010000D01*
X54789605Y-80010000D01*
X55617745Y-80838139D01*
X55863864Y-80764005D01*
X56056965Y-80226777D01*
X56029778Y-79656546D01*
X55863864Y-79255995D01*
X55617745Y-79181861D01*
X54789605Y-80010000D01*
X54430395Y-80010000D01*
X53602255Y-79181861D01*
X53356136Y-79255995D01*
X53163035Y-79793223D01*
X48437440Y-79793223D01*
X48437440Y-79210000D01*
X48396118Y-79002255D01*
X53781861Y-79002255D01*
X54610000Y-79830395D01*
X55438139Y-79002255D01*
X55364005Y-78756136D01*
X54826777Y-78563035D01*
X54256546Y-78590222D01*
X53855995Y-78756136D01*
X53781861Y-79002255D01*
X48396118Y-79002255D01*
X48388157Y-78962235D01*
X48247809Y-78752191D01*
X48037765Y-78611843D01*
X47790000Y-78562560D01*
X46190000Y-78562560D01*
X45942235Y-78611843D01*
X45732191Y-78752191D01*
X45591843Y-78962235D01*
X45542560Y-79210000D01*
X39351451Y-79210000D01*
X39170625Y-78939375D01*
X39152381Y-78927184D01*
X39197765Y-78918157D01*
X39407809Y-78777809D01*
X39548157Y-78567765D01*
X39597440Y-78320000D01*
X39597440Y-76620000D01*
X39548157Y-76372235D01*
X39407809Y-76162191D01*
X39197765Y-76021843D01*
X38950000Y-75972560D01*
X37250000Y-75972560D01*
X37002235Y-76021843D01*
X36792191Y-76162191D01*
X36651843Y-76372235D01*
X36602560Y-76620000D01*
X36602560Y-78320000D01*
X36651843Y-78567765D01*
X36792191Y-78777809D01*
X37002235Y-78918157D01*
X37047619Y-78927184D01*
X37029375Y-78939375D01*
X36701161Y-79430582D01*
X36585908Y-80010000D01*
X32460000Y-80010000D01*
X32460000Y-57493690D01*
X45555000Y-57493690D01*
X45555000Y-58134250D01*
X45713750Y-58293000D01*
X46863000Y-58293000D01*
X46863000Y-57143750D01*
X47117000Y-57143750D01*
X47117000Y-58293000D01*
X48266250Y-58293000D01*
X48425000Y-58134250D01*
X48425000Y-57493690D01*
X48328327Y-57260301D01*
X48149698Y-57081673D01*
X47916309Y-56985000D01*
X47275750Y-56985000D01*
X47117000Y-57143750D01*
X46863000Y-57143750D01*
X46704250Y-56985000D01*
X46063691Y-56985000D01*
X45830302Y-57081673D01*
X45651673Y-57260301D01*
X45555000Y-57493690D01*
X32460000Y-57493690D01*
X32460000Y-54324561D01*
X45555000Y-54324561D01*
X45555000Y-54895439D01*
X45773466Y-55422862D01*
X46177138Y-55826534D01*
X46704561Y-56045000D01*
X47275439Y-56045000D01*
X47802862Y-55826534D01*
X48206534Y-55422862D01*
X48425000Y-54895439D01*
X48425000Y-54324561D01*
X48206534Y-53797138D01*
X47802862Y-53393466D01*
X47275439Y-53175000D01*
X46704561Y-53175000D01*
X46177138Y-53393466D01*
X45773466Y-53797138D01*
X45555000Y-54324561D01*
X32460000Y-54324561D01*
X32460000Y-49530000D01*
X36585908Y-49530000D01*
X36701161Y-50109418D01*
X37029375Y-50600625D01*
X37520582Y-50928839D01*
X37953744Y-51015000D01*
X38246256Y-51015000D01*
X38679418Y-50928839D01*
X38872239Y-50800000D01*
X45526887Y-50800000D01*
X45638260Y-51359909D01*
X45955423Y-51834577D01*
X46430091Y-52151740D01*
X46848667Y-52235000D01*
X47131333Y-52235000D01*
X47549909Y-52151740D01*
X48024577Y-51834577D01*
X48341740Y-51359909D01*
X48453113Y-50800000D01*
X48341740Y-50240091D01*
X48024577Y-49765423D01*
X47549909Y-49448260D01*
X47131333Y-49365000D01*
X46848667Y-49365000D01*
X46430091Y-49448260D01*
X45955423Y-49765423D01*
X45638260Y-50240091D01*
X45526887Y-50800000D01*
X38872239Y-50800000D01*
X39170625Y-50600625D01*
X39498839Y-50109418D01*
X39614092Y-49530000D01*
X39498839Y-48950582D01*
X39170625Y-48459375D01*
X39152381Y-48447184D01*
X39197765Y-48438157D01*
X39407809Y-48297809D01*
X39548157Y-48087765D01*
X39597440Y-47840000D01*
X39597440Y-46140000D01*
X39548157Y-45892235D01*
X39407809Y-45682191D01*
X39197765Y-45541843D01*
X38950000Y-45492560D01*
X37250000Y-45492560D01*
X37002235Y-45541843D01*
X36792191Y-45682191D01*
X36651843Y-45892235D01*
X36602560Y-46140000D01*
X36602560Y-47840000D01*
X36651843Y-48087765D01*
X36792191Y-48297809D01*
X37002235Y-48438157D01*
X37047619Y-48447184D01*
X37029375Y-48459375D01*
X36701161Y-48950582D01*
X36585908Y-49530000D01*
X32460000Y-49530000D01*
X32460000Y-37837745D01*
X37311861Y-37837745D01*
X37385995Y-38083864D01*
X37923223Y-38276965D01*
X38493454Y-38249778D01*
X38894005Y-38083864D01*
X38968139Y-37837745D01*
X38140000Y-37009605D01*
X37311861Y-37837745D01*
X32460000Y-37837745D01*
X32460000Y-36613223D01*
X36693035Y-36613223D01*
X36720222Y-37183454D01*
X36886136Y-37584005D01*
X37132255Y-37658139D01*
X37960395Y-36830000D01*
X38319605Y-36830000D01*
X39147745Y-37658139D01*
X39195307Y-37643813D01*
X39241843Y-37877765D01*
X39382191Y-38087809D01*
X39592235Y-38228157D01*
X39840000Y-38277440D01*
X41440000Y-38277440D01*
X41687765Y-38228157D01*
X41897809Y-38087809D01*
X42038157Y-37877765D01*
X42087440Y-37630000D01*
X42087440Y-36030000D01*
X42038157Y-35782235D01*
X41897809Y-35572191D01*
X41687765Y-35431843D01*
X41440000Y-35382560D01*
X39840000Y-35382560D01*
X39592235Y-35431843D01*
X39382191Y-35572191D01*
X39241843Y-35782235D01*
X39195307Y-36016187D01*
X39147745Y-36001861D01*
X38319605Y-36830000D01*
X37960395Y-36830000D01*
X37132255Y-36001861D01*
X36886136Y-36075995D01*
X36693035Y-36613223D01*
X32460000Y-36613223D01*
X32460000Y-35822255D01*
X37311861Y-35822255D01*
X38140000Y-36650395D01*
X38968139Y-35822255D01*
X38894005Y-35576136D01*
X38356777Y-35383035D01*
X37786546Y-35410222D01*
X37385995Y-35576136D01*
X37311861Y-35822255D01*
X32460000Y-35822255D01*
X32460000Y-29557572D01*
X36655000Y-29557572D01*
X36655000Y-30132428D01*
X36874988Y-30663527D01*
X37281473Y-31070012D01*
X37812572Y-31290000D01*
X38387428Y-31290000D01*
X38918527Y-31070012D01*
X39325012Y-30663527D01*
X39545000Y-30132428D01*
X39545000Y-29557572D01*
X39325012Y-29026473D01*
X38918527Y-28619988D01*
X38387428Y-28400000D01*
X37812572Y-28400000D01*
X37281473Y-28619988D01*
X36874988Y-29026473D01*
X36655000Y-29557572D01*
X32460000Y-29557572D01*
X32460000Y-27057572D01*
X41655000Y-27057572D01*
X41655000Y-27632428D01*
X41874988Y-28163527D01*
X42281473Y-28570012D01*
X42340001Y-28594255D01*
X42340000Y-41899853D01*
X42325112Y-41974700D01*
X42340000Y-42049547D01*
X42340000Y-42049551D01*
X42384096Y-42271236D01*
X42552071Y-42522629D01*
X42615530Y-42565031D01*
X45985694Y-45935196D01*
X45955423Y-45955423D01*
X45638260Y-46430091D01*
X45526887Y-46990000D01*
X45638260Y-47549909D01*
X45955423Y-48024577D01*
X46430091Y-48341740D01*
X46848667Y-48425000D01*
X47131333Y-48425000D01*
X47549909Y-48341740D01*
X48024577Y-48024577D01*
X48341740Y-47549909D01*
X48453113Y-46990000D01*
X48341740Y-46430091D01*
X48024577Y-45955423D01*
X47745896Y-45769214D01*
X47705904Y-45568163D01*
X47705904Y-45568162D01*
X47580329Y-45380227D01*
X47537929Y-45316771D01*
X47474473Y-45274371D01*
X43860000Y-41659899D01*
X43860000Y-34290000D01*
X45526887Y-34290000D01*
X45638260Y-34849909D01*
X45955423Y-35324577D01*
X46307758Y-35560000D01*
X45955423Y-35795423D01*
X45638260Y-36270091D01*
X45526887Y-36830000D01*
X45638260Y-37389909D01*
X45955423Y-37864577D01*
X46307758Y-38100000D01*
X45955423Y-38335423D01*
X45638260Y-38810091D01*
X45526887Y-39370000D01*
X45638260Y-39929909D01*
X45955423Y-40404577D01*
X46430091Y-40721740D01*
X46848667Y-40805000D01*
X47131333Y-40805000D01*
X47355301Y-40760450D01*
X47355300Y-44275527D01*
X47339432Y-44355300D01*
X47355300Y-44435073D01*
X47402297Y-44671345D01*
X47581323Y-44939277D01*
X47648956Y-44984468D01*
X53176186Y-50511699D01*
X53175000Y-50514561D01*
X53175000Y-51085439D01*
X53393466Y-51612862D01*
X53797138Y-52016534D01*
X53800001Y-52017720D01*
X53800000Y-53425365D01*
X53575423Y-53575423D01*
X53258260Y-54050091D01*
X53146887Y-54610000D01*
X53258260Y-55169909D01*
X53575423Y-55644577D01*
X53800001Y-55794635D01*
X53800000Y-57235365D01*
X53575423Y-57385423D01*
X53258260Y-57860091D01*
X53146887Y-58420000D01*
X53199580Y-58684907D01*
X48441727Y-63442760D01*
X48341740Y-62940091D01*
X48024577Y-62465423D01*
X47672242Y-62230000D01*
X48024577Y-61994577D01*
X48341740Y-61519909D01*
X48453113Y-60960000D01*
X48341740Y-60400091D01*
X48024577Y-59925423D01*
X47918082Y-59854265D01*
X48149698Y-59758327D01*
X48328327Y-59579699D01*
X48425000Y-59346310D01*
X48425000Y-58705750D01*
X48266250Y-58547000D01*
X47117000Y-58547000D01*
X47117000Y-58567000D01*
X46863000Y-58567000D01*
X46863000Y-58547000D01*
X45713750Y-58547000D01*
X45555000Y-58705750D01*
X45555000Y-59346310D01*
X45651673Y-59579699D01*
X45830302Y-59758327D01*
X46061918Y-59854265D01*
X45955423Y-59925423D01*
X45638260Y-60400091D01*
X45526887Y-60960000D01*
X45638260Y-61519909D01*
X45955423Y-61994577D01*
X46307758Y-62230000D01*
X45955423Y-62465423D01*
X45638260Y-62940091D01*
X45526887Y-63500000D01*
X45638260Y-64059909D01*
X45955423Y-64534577D01*
X46307758Y-64770000D01*
X45955423Y-65005423D01*
X45638260Y-65480091D01*
X45526887Y-66040000D01*
X45638260Y-66599909D01*
X45955423Y-67074577D01*
X46180001Y-67224635D01*
X46180000Y-71172280D01*
X46177138Y-71173466D01*
X45773466Y-71577138D01*
X45555000Y-72104561D01*
X45555000Y-72675439D01*
X45773466Y-73202862D01*
X46177138Y-73606534D01*
X46704561Y-73825000D01*
X47275439Y-73825000D01*
X47802862Y-73606534D01*
X48206534Y-73202862D01*
X48425000Y-72675439D01*
X48425000Y-72104561D01*
X48206534Y-71577138D01*
X47802862Y-71173466D01*
X47800000Y-71172281D01*
X47800000Y-67224635D01*
X48024577Y-67074577D01*
X48341740Y-66599909D01*
X48453113Y-66040000D01*
X48400420Y-65775093D01*
X53158273Y-61017240D01*
X53258260Y-61519909D01*
X53575423Y-61994577D01*
X53850000Y-62178044D01*
X53850001Y-62281956D01*
X53575423Y-62465423D01*
X53258260Y-62940091D01*
X53146887Y-63500000D01*
X53211312Y-63823887D01*
X52978230Y-64056969D01*
X52914771Y-64099371D01*
X52746796Y-64350764D01*
X52702700Y-64572449D01*
X52702700Y-64572453D01*
X52687812Y-64647300D01*
X52702700Y-64722147D01*
X52702701Y-72823248D01*
X52687812Y-72898100D01*
X52746797Y-73194637D01*
X52867983Y-73376004D01*
X52914772Y-73446029D01*
X52978228Y-73488429D01*
X58898870Y-79409072D01*
X58941271Y-79472529D01*
X59192663Y-79640504D01*
X59414348Y-79684600D01*
X59414352Y-79684600D01*
X59489199Y-79699488D01*
X59564046Y-79684600D01*
X61604240Y-79684600D01*
X61557581Y-79817122D01*
X61586336Y-80347440D01*
X61733958Y-80703831D01*
X61969725Y-80765669D01*
X62725395Y-80010000D01*
X62711253Y-79995858D01*
X62890858Y-79816253D01*
X62905000Y-79830395D01*
X62919143Y-79816253D01*
X63098748Y-79995858D01*
X63084605Y-80010000D01*
X63840275Y-80765669D01*
X64076042Y-80703831D01*
X64154775Y-80480212D01*
X64273242Y-80766217D01*
X64648783Y-81141758D01*
X65139452Y-81345000D01*
X65670548Y-81345000D01*
X66161217Y-81141758D01*
X66536758Y-80766217D01*
X66740000Y-80275548D01*
X66740000Y-79998452D01*
X70420000Y-79998452D01*
X70420000Y-80529548D01*
X70623242Y-81020217D01*
X70998783Y-81395758D01*
X71489452Y-81599000D01*
X72020548Y-81599000D01*
X72511217Y-81395758D01*
X72771000Y-81135975D01*
X73030783Y-81395758D01*
X73521452Y-81599000D01*
X74052548Y-81599000D01*
X74543217Y-81395758D01*
X74803000Y-81135975D01*
X75062783Y-81395758D01*
X75553452Y-81599000D01*
X76084548Y-81599000D01*
X76575217Y-81395758D01*
X76950758Y-81020217D01*
X77154000Y-80529548D01*
X77154000Y-79998452D01*
X80580000Y-79998452D01*
X80580000Y-80529548D01*
X80783242Y-81020217D01*
X81158783Y-81395758D01*
X81649452Y-81599000D01*
X82180548Y-81599000D01*
X82671217Y-81395758D01*
X82931000Y-81135975D01*
X83190783Y-81395758D01*
X83681452Y-81599000D01*
X84212548Y-81599000D01*
X84703217Y-81395758D01*
X84963000Y-81135975D01*
X85222783Y-81395758D01*
X85713452Y-81599000D01*
X86244548Y-81599000D01*
X86735217Y-81395758D01*
X87110758Y-81020217D01*
X87314000Y-80529548D01*
X87314000Y-79998452D01*
X87172572Y-79657015D01*
X89292400Y-79657015D01*
X89292400Y-80247785D01*
X89518478Y-80793585D01*
X89936215Y-81211322D01*
X90482015Y-81437400D01*
X91072785Y-81437400D01*
X91618585Y-81211322D01*
X91833549Y-80996358D01*
X96413047Y-80996358D01*
X96493320Y-81247659D01*
X97048679Y-81449118D01*
X97638858Y-81422715D01*
X98061480Y-81247659D01*
X98141753Y-80996358D01*
X97277400Y-80132005D01*
X96413047Y-80996358D01*
X91833549Y-80996358D01*
X92036322Y-80793585D01*
X92262400Y-80247785D01*
X92262400Y-79723679D01*
X95780682Y-79723679D01*
X95807085Y-80313858D01*
X95982141Y-80736480D01*
X96233442Y-80816753D01*
X97097795Y-79952400D01*
X97457005Y-79952400D01*
X98321358Y-80816753D01*
X98572659Y-80736480D01*
X98774118Y-80181121D01*
X98766463Y-80010000D01*
X100085908Y-80010000D01*
X100201161Y-80589418D01*
X100529375Y-81080625D01*
X101020582Y-81408839D01*
X101453744Y-81495000D01*
X101746256Y-81495000D01*
X102179418Y-81408839D01*
X102670625Y-81080625D01*
X102998839Y-80589418D01*
X103114092Y-80010000D01*
X102998839Y-79430582D01*
X102670625Y-78939375D01*
X102652381Y-78927184D01*
X102697765Y-78918157D01*
X102907809Y-78777809D01*
X103048157Y-78567765D01*
X103097440Y-78320000D01*
X103097440Y-76620000D01*
X103048157Y-76372235D01*
X102907809Y-76162191D01*
X102697765Y-76021843D01*
X102450000Y-75972560D01*
X100750000Y-75972560D01*
X100502235Y-76021843D01*
X100292191Y-76162191D01*
X100151843Y-76372235D01*
X100102560Y-76620000D01*
X100102560Y-78320000D01*
X100151843Y-78567765D01*
X100292191Y-78777809D01*
X100502235Y-78918157D01*
X100547619Y-78927184D01*
X100529375Y-78939375D01*
X100201161Y-79430582D01*
X100085908Y-80010000D01*
X98766463Y-80010000D01*
X98747715Y-79590942D01*
X98572659Y-79168320D01*
X98321358Y-79088047D01*
X97457005Y-79952400D01*
X97097795Y-79952400D01*
X96233442Y-79088047D01*
X95982141Y-79168320D01*
X95780682Y-79723679D01*
X92262400Y-79723679D01*
X92262400Y-79657015D01*
X92036322Y-79111215D01*
X91833549Y-78908442D01*
X96413047Y-78908442D01*
X97277400Y-79772795D01*
X98141753Y-78908442D01*
X98061480Y-78657141D01*
X97506121Y-78455682D01*
X96915942Y-78482085D01*
X96493320Y-78657141D01*
X96413047Y-78908442D01*
X91833549Y-78908442D01*
X91618585Y-78693478D01*
X91072785Y-78467400D01*
X90482015Y-78467400D01*
X89936215Y-78693478D01*
X89518478Y-79111215D01*
X89292400Y-79657015D01*
X87172572Y-79657015D01*
X87110758Y-79507783D01*
X86735217Y-79132242D01*
X86244548Y-78929000D01*
X85713452Y-78929000D01*
X85222783Y-79132242D01*
X84963000Y-79392025D01*
X84703217Y-79132242D01*
X84212548Y-78929000D01*
X83681452Y-78929000D01*
X83190783Y-79132242D01*
X82931000Y-79392025D01*
X82671217Y-79132242D01*
X82180548Y-78929000D01*
X81649452Y-78929000D01*
X81158783Y-79132242D01*
X80783242Y-79507783D01*
X80580000Y-79998452D01*
X77154000Y-79998452D01*
X76950758Y-79507783D01*
X76575217Y-79132242D01*
X76084548Y-78929000D01*
X75553452Y-78929000D01*
X75062783Y-79132242D01*
X74803000Y-79392025D01*
X74543217Y-79132242D01*
X74052548Y-78929000D01*
X73521452Y-78929000D01*
X73030783Y-79132242D01*
X72771000Y-79392025D01*
X72511217Y-79132242D01*
X72020548Y-78929000D01*
X71489452Y-78929000D01*
X70998783Y-79132242D01*
X70623242Y-79507783D01*
X70420000Y-79998452D01*
X66740000Y-79998452D01*
X66740000Y-79744452D01*
X66536758Y-79253783D01*
X66161217Y-78878242D01*
X65670548Y-78675000D01*
X65144802Y-78675000D01*
X64909931Y-78440129D01*
X64867529Y-78376671D01*
X64616137Y-78208696D01*
X64394452Y-78164600D01*
X64394447Y-78164600D01*
X64319600Y-78149712D01*
X64244753Y-78164600D01*
X59804002Y-78164600D01*
X56303854Y-74664452D01*
X61530000Y-74664452D01*
X61530000Y-75195548D01*
X61733242Y-75686217D01*
X62108783Y-76061758D01*
X62599452Y-76265000D01*
X63130548Y-76265000D01*
X63621217Y-76061758D01*
X63817700Y-75865275D01*
X64609331Y-75865275D01*
X64671169Y-76101042D01*
X65172122Y-76277419D01*
X65702440Y-76248664D01*
X66058831Y-76101042D01*
X66120669Y-75865275D01*
X65365000Y-75109605D01*
X64609331Y-75865275D01*
X63817700Y-75865275D01*
X63996758Y-75686217D01*
X64108279Y-75416983D01*
X64193958Y-75623831D01*
X64429725Y-75685669D01*
X65185395Y-74930000D01*
X65544605Y-74930000D01*
X66300275Y-75685669D01*
X66536042Y-75623831D01*
X66712419Y-75122878D01*
X66683664Y-74592560D01*
X66536042Y-74236169D01*
X66300275Y-74174331D01*
X65544605Y-74930000D01*
X65185395Y-74930000D01*
X64429725Y-74174331D01*
X64193958Y-74236169D01*
X64115225Y-74459788D01*
X63996758Y-74173783D01*
X63817700Y-73994725D01*
X64609331Y-73994725D01*
X65365000Y-74750395D01*
X66120669Y-73994725D01*
X66058831Y-73758958D01*
X65557878Y-73582581D01*
X65027560Y-73611336D01*
X64671169Y-73758958D01*
X64609331Y-73994725D01*
X63817700Y-73994725D01*
X63621217Y-73798242D01*
X63130548Y-73595000D01*
X62599452Y-73595000D01*
X62108783Y-73798242D01*
X61733242Y-74173783D01*
X61530000Y-74664452D01*
X56303854Y-74664452D01*
X55297756Y-73658355D01*
X55422862Y-73606534D01*
X55826534Y-73202862D01*
X56045000Y-72675439D01*
X56045000Y-72104561D01*
X56023103Y-72051698D01*
X57198873Y-70875929D01*
X57262329Y-70833529D01*
X57294571Y-70785275D01*
X62149331Y-70785275D01*
X62211169Y-71021042D01*
X62712122Y-71197419D01*
X63242440Y-71168664D01*
X63598831Y-71021042D01*
X63660669Y-70785275D01*
X62905000Y-70029605D01*
X62149331Y-70785275D01*
X57294571Y-70785275D01*
X57430304Y-70582137D01*
X57474400Y-70360452D01*
X57474400Y-70360448D01*
X57489288Y-70285601D01*
X57474400Y-70210754D01*
X57474400Y-69657122D01*
X61557581Y-69657122D01*
X61586336Y-70187440D01*
X61733958Y-70543831D01*
X61969725Y-70605669D01*
X62725395Y-69850000D01*
X61969725Y-69094331D01*
X61733958Y-69156169D01*
X61557581Y-69657122D01*
X57474400Y-69657122D01*
X57474400Y-68914725D01*
X62149331Y-68914725D01*
X62905000Y-69670395D01*
X63660669Y-68914725D01*
X63598831Y-68678958D01*
X63097878Y-68502581D01*
X62567560Y-68531336D01*
X62211169Y-68678958D01*
X62149331Y-68914725D01*
X57474400Y-68914725D01*
X57474400Y-26419501D01*
X58439701Y-25454200D01*
X58439700Y-38169853D01*
X58424812Y-38244700D01*
X58439700Y-38319547D01*
X58439700Y-38319551D01*
X58483796Y-38541236D01*
X58651771Y-38792629D01*
X58715230Y-38835031D01*
X58926312Y-39046113D01*
X58861887Y-39370000D01*
X58973260Y-39929909D01*
X59290423Y-40404577D01*
X59565001Y-40588044D01*
X59565000Y-48585153D01*
X59550112Y-48660000D01*
X59565000Y-48734847D01*
X59565000Y-48734851D01*
X59609096Y-48956536D01*
X59777071Y-49207929D01*
X59840530Y-49250331D01*
X59979908Y-49389709D01*
X59512138Y-49583466D01*
X59108466Y-49987138D01*
X58890000Y-50514561D01*
X58890000Y-51085439D01*
X58911897Y-51138302D01*
X58689828Y-51360371D01*
X58626372Y-51402771D01*
X58458397Y-51654163D01*
X58422079Y-51836748D01*
X58399412Y-51950700D01*
X58414301Y-52025552D01*
X58414300Y-64814453D01*
X58399412Y-64889300D01*
X58414300Y-64964147D01*
X58414300Y-64964151D01*
X58458396Y-65185836D01*
X58626371Y-65437229D01*
X58689830Y-65479631D01*
X58926312Y-65716113D01*
X58861887Y-66040000D01*
X58973260Y-66599909D01*
X59290423Y-67074577D01*
X59765091Y-67391740D01*
X60183667Y-67475000D01*
X60466333Y-67475000D01*
X60884909Y-67391740D01*
X61359577Y-67074577D01*
X61676740Y-66599909D01*
X61788113Y-66040000D01*
X61676740Y-65480091D01*
X61359577Y-65005423D01*
X61007242Y-64770000D01*
X61359577Y-64534577D01*
X61676740Y-64059909D01*
X61788113Y-63500000D01*
X61676740Y-62940091D01*
X61359577Y-62465423D01*
X61007242Y-62230000D01*
X61359577Y-61994577D01*
X61379804Y-61964305D01*
X64669970Y-65254472D01*
X64712371Y-65317929D01*
X64775827Y-65360329D01*
X64963762Y-65485904D01*
X65011905Y-65495480D01*
X65185448Y-65530000D01*
X65185452Y-65530000D01*
X65260300Y-65544888D01*
X65335148Y-65530000D01*
X66583332Y-65530000D01*
X66481887Y-66040000D01*
X66593260Y-66599909D01*
X66910423Y-67074577D01*
X66940694Y-67094803D01*
X65520498Y-68515000D01*
X65139452Y-68515000D01*
X64648783Y-68718242D01*
X64273242Y-69093783D01*
X64161721Y-69363017D01*
X64076042Y-69156169D01*
X63840275Y-69094331D01*
X63084605Y-69850000D01*
X63840275Y-70605669D01*
X64076042Y-70543831D01*
X64154775Y-70320212D01*
X64273242Y-70606217D01*
X64648783Y-70981758D01*
X65139452Y-71185000D01*
X65670548Y-71185000D01*
X66161217Y-70981758D01*
X66536758Y-70606217D01*
X66740000Y-70115548D01*
X66740000Y-69584452D01*
X66699185Y-69485916D01*
X68429476Y-67755627D01*
X68471101Y-67727814D01*
X68471100Y-71807148D01*
X68471100Y-72585253D01*
X68456212Y-72660100D01*
X68471100Y-72734947D01*
X68471100Y-72734951D01*
X68515196Y-72956636D01*
X68683171Y-73208029D01*
X68746630Y-73250431D01*
X70420000Y-74923802D01*
X70420000Y-75449548D01*
X70623242Y-75940217D01*
X70998783Y-76315758D01*
X71489452Y-76519000D01*
X72020548Y-76519000D01*
X72511217Y-76315758D01*
X72707700Y-76119275D01*
X73031331Y-76119275D01*
X73093169Y-76355042D01*
X73594122Y-76531419D01*
X74124440Y-76502664D01*
X74480831Y-76355042D01*
X74542669Y-76119275D01*
X73787000Y-75363605D01*
X73031331Y-76119275D01*
X72707700Y-76119275D01*
X72886758Y-75940217D01*
X72911918Y-75879477D01*
X73607395Y-75184000D01*
X73966605Y-75184000D01*
X74662082Y-75879477D01*
X74687242Y-75940217D01*
X75062783Y-76315758D01*
X75553452Y-76519000D01*
X76084548Y-76519000D01*
X76575217Y-76315758D01*
X76950758Y-75940217D01*
X77154000Y-75449548D01*
X77154000Y-74918452D01*
X76950758Y-74427783D01*
X76575217Y-74052242D01*
X76084548Y-73849000D01*
X75553452Y-73849000D01*
X75062783Y-74052242D01*
X74687242Y-74427783D01*
X74662082Y-74488523D01*
X73966605Y-75184000D01*
X73607395Y-75184000D01*
X72911918Y-74488523D01*
X72886758Y-74427783D01*
X72707700Y-74248725D01*
X73031331Y-74248725D01*
X73787000Y-75004395D01*
X74542669Y-74248725D01*
X74480831Y-74012958D01*
X73979878Y-73836581D01*
X73449560Y-73865336D01*
X73093169Y-74012958D01*
X73031331Y-74248725D01*
X72707700Y-74248725D01*
X72511217Y-74052242D01*
X72020548Y-73849000D01*
X71494802Y-73849000D01*
X69991100Y-72345299D01*
X69991100Y-72046961D01*
X77427400Y-72046961D01*
X77427400Y-72617839D01*
X77645866Y-73145262D01*
X78049538Y-73548934D01*
X78576961Y-73767400D01*
X79147839Y-73767400D01*
X79675262Y-73548934D01*
X80078934Y-73145262D01*
X80297400Y-72617839D01*
X80297400Y-72046961D01*
X80078934Y-71519538D01*
X79675262Y-71115866D01*
X79147839Y-70897400D01*
X78576961Y-70897400D01*
X78049538Y-71115866D01*
X77645866Y-71519538D01*
X77427400Y-72046961D01*
X69991100Y-72046961D01*
X69991100Y-68892400D01*
X72234960Y-68892400D01*
X72234960Y-70692400D01*
X72284243Y-70940165D01*
X72424591Y-71150209D01*
X72634635Y-71290557D01*
X72882400Y-71339840D01*
X74682400Y-71339840D01*
X74930165Y-71290557D01*
X75140209Y-71150209D01*
X75280557Y-70940165D01*
X75329840Y-70692400D01*
X75329840Y-68892400D01*
X75280557Y-68644635D01*
X75140209Y-68434591D01*
X74930165Y-68294243D01*
X74914492Y-68291125D01*
X75083710Y-68121907D01*
X75317400Y-67557730D01*
X75317400Y-66947070D01*
X75083710Y-66382893D01*
X74651907Y-65951090D01*
X74087730Y-65717400D01*
X73477070Y-65717400D01*
X72912893Y-65951090D01*
X72481090Y-66382893D01*
X72247400Y-66947070D01*
X72247400Y-67557730D01*
X72481090Y-68121907D01*
X72650308Y-68291125D01*
X72634635Y-68294243D01*
X72424591Y-68434591D01*
X72284243Y-68644635D01*
X72234960Y-68892400D01*
X69991100Y-68892400D01*
X69991100Y-65807546D01*
X70005988Y-65732699D01*
X69991100Y-65657852D01*
X69991100Y-65657848D01*
X69947004Y-65436163D01*
X69872123Y-65324096D01*
X69821429Y-65248226D01*
X69821427Y-65248224D01*
X69779029Y-65184771D01*
X69715575Y-65142373D01*
X69002356Y-64429155D01*
X69176041Y-64237423D01*
X69336904Y-63849039D01*
X69214915Y-63627000D01*
X68072000Y-63627000D01*
X68072000Y-63647000D01*
X67818000Y-63647000D01*
X67818000Y-63627000D01*
X66675085Y-63627000D01*
X66553096Y-63849039D01*
X66619764Y-64010000D01*
X65575102Y-64010000D01*
X62210300Y-60645199D01*
X62210300Y-55810148D01*
X62225188Y-55735300D01*
X62210300Y-55660452D01*
X62210300Y-55660448D01*
X62166204Y-55438763D01*
X61998229Y-55187371D01*
X61934773Y-55144971D01*
X61738104Y-54948302D01*
X61760000Y-54895439D01*
X61760000Y-54324561D01*
X61541534Y-53797138D01*
X61137862Y-53393466D01*
X60610439Y-53175000D01*
X60039561Y-53175000D01*
X59934300Y-53218601D01*
X59934300Y-52265501D01*
X59986698Y-52213103D01*
X60039561Y-52235000D01*
X60610439Y-52235000D01*
X61137862Y-52016534D01*
X61541534Y-51612862D01*
X61735291Y-51145092D01*
X67613104Y-57022905D01*
X67385091Y-57068260D01*
X66910423Y-57385423D01*
X66593260Y-57860091D01*
X66481887Y-58420000D01*
X66593260Y-58979909D01*
X66910423Y-59454577D01*
X67262758Y-59690000D01*
X66910423Y-59925423D01*
X66593260Y-60400091D01*
X66481887Y-60960000D01*
X66593260Y-61519909D01*
X66910423Y-61994577D01*
X67294108Y-62250947D01*
X67089866Y-62347611D01*
X66713959Y-62762577D01*
X66553096Y-63150961D01*
X66675085Y-63373000D01*
X67818000Y-63373000D01*
X67818000Y-63353000D01*
X68072000Y-63353000D01*
X68072000Y-63373000D01*
X69214915Y-63373000D01*
X69336904Y-63150961D01*
X69176041Y-62762577D01*
X68800134Y-62347611D01*
X68595892Y-62250947D01*
X68979577Y-61994577D01*
X69296740Y-61519909D01*
X69408113Y-60960000D01*
X69296740Y-60400091D01*
X68979577Y-59925423D01*
X68627242Y-59690000D01*
X68979577Y-59454577D01*
X69296740Y-58979909D01*
X69342095Y-58751896D01*
X73789000Y-63198802D01*
X73789000Y-63679153D01*
X73774112Y-63754000D01*
X73789000Y-63828847D01*
X73789000Y-63828851D01*
X73833096Y-64050536D01*
X74001071Y-64301929D01*
X74064530Y-64344331D01*
X83592571Y-73872373D01*
X83253169Y-74012958D01*
X83191331Y-74248725D01*
X83947000Y-75004395D01*
X83961142Y-74990252D01*
X84140748Y-75169858D01*
X84126605Y-75184000D01*
X84140748Y-75198143D01*
X83961142Y-75377748D01*
X83947000Y-75363605D01*
X83932858Y-75377748D01*
X83753252Y-75198142D01*
X83767395Y-75184000D01*
X83071918Y-74488523D01*
X83046758Y-74427783D01*
X82671217Y-74052242D01*
X82180548Y-73849000D01*
X81649452Y-73849000D01*
X81158783Y-74052242D01*
X80783242Y-74427783D01*
X80580000Y-74918452D01*
X80580000Y-75449548D01*
X80783242Y-75940217D01*
X81158783Y-76315758D01*
X81649452Y-76519000D01*
X82175199Y-76519000D01*
X82975671Y-77319473D01*
X83018071Y-77382929D01*
X83269463Y-77550904D01*
X83491148Y-77595000D01*
X83491152Y-77595000D01*
X83566000Y-77609888D01*
X83640848Y-77595000D01*
X86412153Y-77595000D01*
X86487000Y-77609888D01*
X86561847Y-77595000D01*
X86561852Y-77595000D01*
X86783537Y-77550904D01*
X87034929Y-77382929D01*
X87077331Y-77319470D01*
X87987473Y-76409329D01*
X88050929Y-76366929D01*
X88218904Y-76115537D01*
X88263000Y-75893852D01*
X88263000Y-75893847D01*
X88277888Y-75819000D01*
X88263000Y-75744153D01*
X88263000Y-75157015D01*
X89292400Y-75157015D01*
X89292400Y-75747785D01*
X89518478Y-76293585D01*
X89936215Y-76711322D01*
X90482015Y-76937400D01*
X91072785Y-76937400D01*
X91618585Y-76711322D01*
X92036322Y-76293585D01*
X92262400Y-75747785D01*
X92262400Y-75157015D01*
X95792400Y-75157015D01*
X95792400Y-75747785D01*
X96018478Y-76293585D01*
X96436215Y-76711322D01*
X96982015Y-76937400D01*
X97572785Y-76937400D01*
X98118585Y-76711322D01*
X98536322Y-76293585D01*
X98762400Y-75747785D01*
X98762400Y-75157015D01*
X98536322Y-74611215D01*
X98118585Y-74193478D01*
X97572785Y-73967400D01*
X96982015Y-73967400D01*
X96436215Y-74193478D01*
X96018478Y-74611215D01*
X95792400Y-75157015D01*
X92262400Y-75157015D01*
X92036322Y-74611215D01*
X91618585Y-74193478D01*
X91072785Y-73967400D01*
X90482015Y-73967400D01*
X89936215Y-74193478D01*
X89518478Y-74611215D01*
X89292400Y-75157015D01*
X88263000Y-75157015D01*
X88263000Y-73571079D01*
X88736961Y-73767400D01*
X89307839Y-73767400D01*
X89835262Y-73548934D01*
X90238934Y-73145262D01*
X90457400Y-72617839D01*
X90457400Y-72046961D01*
X97747400Y-72046961D01*
X97747400Y-72617839D01*
X97965866Y-73145262D01*
X98369538Y-73548934D01*
X98896961Y-73767400D01*
X99467839Y-73767400D01*
X99995262Y-73548934D01*
X100398934Y-73145262D01*
X100617400Y-72617839D01*
X100617400Y-72046961D01*
X100398934Y-71519538D01*
X99995262Y-71115866D01*
X99467839Y-70897400D01*
X98896961Y-70897400D01*
X98369538Y-71115866D01*
X97965866Y-71519538D01*
X97747400Y-72046961D01*
X90457400Y-72046961D01*
X90238934Y-71519538D01*
X89835262Y-71115866D01*
X89307839Y-70897400D01*
X88736961Y-70897400D01*
X88277074Y-71087892D01*
X88277888Y-71083800D01*
X88263000Y-71008952D01*
X88263000Y-71008948D01*
X88218904Y-70787263D01*
X88050929Y-70535871D01*
X87987473Y-70493471D01*
X87483065Y-69989063D01*
X86986531Y-69492530D01*
X86986529Y-69492527D01*
X86386402Y-68892400D01*
X92554960Y-68892400D01*
X92554960Y-70692400D01*
X92604243Y-70940165D01*
X92744591Y-71150209D01*
X92954635Y-71290557D01*
X93202400Y-71339840D01*
X95002400Y-71339840D01*
X95250165Y-71290557D01*
X95460209Y-71150209D01*
X95600557Y-70940165D01*
X95649840Y-70692400D01*
X95649840Y-68892400D01*
X95600557Y-68644635D01*
X95460209Y-68434591D01*
X95250165Y-68294243D01*
X95234492Y-68291125D01*
X95403710Y-68121907D01*
X95637400Y-67557730D01*
X95637400Y-66947070D01*
X95403710Y-66382893D01*
X94971907Y-65951090D01*
X94407730Y-65717400D01*
X93797070Y-65717400D01*
X93232893Y-65951090D01*
X92801090Y-66382893D01*
X92567400Y-66947070D01*
X92567400Y-67557730D01*
X92801090Y-68121907D01*
X92970308Y-68291125D01*
X92954635Y-68294243D01*
X92744591Y-68434591D01*
X92604243Y-68644635D01*
X92554960Y-68892400D01*
X86386402Y-68892400D01*
X85576531Y-68082530D01*
X85534129Y-68019071D01*
X85340027Y-67889376D01*
X85477400Y-67557730D01*
X85477400Y-66947070D01*
X85243710Y-66382893D01*
X84811907Y-65951090D01*
X84702400Y-65905731D01*
X84702400Y-65215646D01*
X84717288Y-65140799D01*
X84702400Y-65065952D01*
X84702400Y-65065948D01*
X84701504Y-65061441D01*
X87630486Y-65061441D01*
X87870011Y-65567534D01*
X88284977Y-65943441D01*
X88673361Y-66104304D01*
X88895400Y-65982315D01*
X88895400Y-64839400D01*
X89149400Y-64839400D01*
X89149400Y-65982315D01*
X89371439Y-66104304D01*
X89759823Y-65943441D01*
X90174789Y-65567534D01*
X90414314Y-65061441D01*
X97790486Y-65061441D01*
X98030011Y-65567534D01*
X98444977Y-65943441D01*
X98833361Y-66104304D01*
X99055400Y-65982315D01*
X99055400Y-64839400D01*
X99309400Y-64839400D01*
X99309400Y-65982315D01*
X99531439Y-66104304D01*
X99919823Y-65943441D01*
X100334789Y-65567534D01*
X100574314Y-65061441D01*
X100453029Y-64839400D01*
X99309400Y-64839400D01*
X99055400Y-64839400D01*
X97911771Y-64839400D01*
X97790486Y-65061441D01*
X90414314Y-65061441D01*
X90293029Y-64839400D01*
X89149400Y-64839400D01*
X88895400Y-64839400D01*
X87751771Y-64839400D01*
X87630486Y-65061441D01*
X84701504Y-65061441D01*
X84658304Y-64844263D01*
X84608683Y-64770000D01*
X84532729Y-64656326D01*
X84532727Y-64656324D01*
X84490329Y-64592871D01*
X84426876Y-64550473D01*
X84239762Y-64363359D01*
X87630486Y-64363359D01*
X87751771Y-64585400D01*
X88895400Y-64585400D01*
X88895400Y-63442485D01*
X89149400Y-63442485D01*
X89149400Y-64585400D01*
X90293029Y-64585400D01*
X90414314Y-64363359D01*
X97790486Y-64363359D01*
X97911771Y-64585400D01*
X99055400Y-64585400D01*
X99055400Y-63442485D01*
X99309400Y-63442485D01*
X99309400Y-64585400D01*
X100453029Y-64585400D01*
X100574314Y-64363359D01*
X100334789Y-63857266D01*
X99919823Y-63481359D01*
X99531439Y-63320496D01*
X99309400Y-63442485D01*
X99055400Y-63442485D01*
X98833361Y-63320496D01*
X98444977Y-63481359D01*
X98030011Y-63857266D01*
X97790486Y-64363359D01*
X90414314Y-64363359D01*
X90174789Y-63857266D01*
X89759823Y-63481359D01*
X89371439Y-63320496D01*
X89149400Y-63442485D01*
X88895400Y-63442485D01*
X88673361Y-63320496D01*
X88284977Y-63481359D01*
X87870011Y-63857266D01*
X87630486Y-64363359D01*
X84239762Y-64363359D01*
X80967319Y-61090917D01*
X81138667Y-61125000D01*
X81421333Y-61125000D01*
X81839909Y-61041740D01*
X82314577Y-60724577D01*
X82334804Y-60694305D01*
X82940271Y-61299773D01*
X82982671Y-61363229D01*
X83234063Y-61531204D01*
X83455748Y-61575300D01*
X83455752Y-61575300D01*
X83530600Y-61590188D01*
X83605448Y-61575300D01*
X95028953Y-61575300D01*
X95103800Y-61590188D01*
X95178647Y-61575300D01*
X95178652Y-61575300D01*
X95400337Y-61531204D01*
X95651729Y-61363229D01*
X95694131Y-61299770D01*
X100909173Y-56084729D01*
X100972629Y-56042329D01*
X101140604Y-55790937D01*
X101184700Y-55569252D01*
X101184700Y-55569247D01*
X101199588Y-55494400D01*
X101184700Y-55419553D01*
X101184700Y-35721484D01*
X101453744Y-35775000D01*
X101746256Y-35775000D01*
X102179418Y-35688839D01*
X102670625Y-35360625D01*
X102998839Y-34869418D01*
X103114092Y-34290000D01*
X102998839Y-33710582D01*
X102670625Y-33219375D01*
X102372239Y-33020000D01*
X102670625Y-32820625D01*
X102998839Y-32329418D01*
X103114092Y-31750000D01*
X102998839Y-31170582D01*
X102670625Y-30679375D01*
X102372239Y-30480000D01*
X102670625Y-30280625D01*
X102998839Y-29789418D01*
X103114092Y-29210000D01*
X102998839Y-28630582D01*
X102670625Y-28139375D01*
X102372239Y-27940000D01*
X102670625Y-27740625D01*
X102998839Y-27249418D01*
X103114092Y-26670000D01*
X102998839Y-26090582D01*
X102670625Y-25599375D01*
X102648967Y-25584904D01*
X102809698Y-25518327D01*
X102988327Y-25339699D01*
X103085000Y-25106310D01*
X103085000Y-24415750D01*
X102926250Y-24257000D01*
X101727000Y-24257000D01*
X101727000Y-24277000D01*
X101473000Y-24277000D01*
X101473000Y-24257000D01*
X100273750Y-24257000D01*
X100115000Y-24415750D01*
X100115000Y-25106310D01*
X100211673Y-25339699D01*
X100390302Y-25518327D01*
X100551033Y-25584904D01*
X100529375Y-25599375D01*
X100355231Y-25860000D01*
X97490513Y-25860000D01*
X96025420Y-24394907D01*
X96078113Y-24130000D01*
X95966740Y-23570091D01*
X95688510Y-23153690D01*
X100115000Y-23153690D01*
X100115000Y-23844250D01*
X100273750Y-24003000D01*
X101473000Y-24003000D01*
X101473000Y-22803750D01*
X101727000Y-22803750D01*
X101727000Y-24003000D01*
X102926250Y-24003000D01*
X103085000Y-23844250D01*
X103085000Y-23153690D01*
X102988327Y-22920301D01*
X102809698Y-22741673D01*
X102576309Y-22645000D01*
X101885750Y-22645000D01*
X101727000Y-22803750D01*
X101473000Y-22803750D01*
X101314250Y-22645000D01*
X100623691Y-22645000D01*
X100390302Y-22741673D01*
X100211673Y-22920301D01*
X100115000Y-23153690D01*
X95688510Y-23153690D01*
X95649577Y-23095423D01*
X95174909Y-22778260D01*
X94756333Y-22695000D01*
X94473667Y-22695000D01*
X94055091Y-22778260D01*
X93580423Y-23095423D01*
X93263260Y-23570091D01*
X93151887Y-24130000D01*
X93263260Y-24689909D01*
X93580423Y-25164577D01*
X93932758Y-25400000D01*
X93580423Y-25635423D01*
X93263260Y-26110091D01*
X93151887Y-26670000D01*
X93263260Y-27229909D01*
X93580423Y-27704577D01*
X93932758Y-27940000D01*
X93580423Y-28175423D01*
X93263260Y-28650091D01*
X93151887Y-29210000D01*
X93263260Y-29769909D01*
X93580423Y-30244577D01*
X93932758Y-30480000D01*
X93580423Y-30715423D01*
X93263260Y-31190091D01*
X93151887Y-31750000D01*
X93263260Y-32309909D01*
X93580423Y-32784577D01*
X93932758Y-33020000D01*
X93580423Y-33255423D01*
X93263260Y-33730091D01*
X93151887Y-34290000D01*
X93263260Y-34849909D01*
X93580423Y-35324577D01*
X93932758Y-35560000D01*
X93580423Y-35795423D01*
X93263260Y-36270091D01*
X93151887Y-36830000D01*
X93263260Y-37389909D01*
X93487937Y-37726162D01*
X93005228Y-38208871D01*
X92941772Y-38251271D01*
X92899372Y-38314727D01*
X92899371Y-38314728D01*
X92773797Y-38502663D01*
X92714812Y-38799200D01*
X92729701Y-38874052D01*
X92729700Y-51649898D01*
X91033200Y-49953399D01*
X91033200Y-32563047D01*
X91048088Y-32488200D01*
X91033200Y-32413353D01*
X91033200Y-32413348D01*
X90989104Y-32191663D01*
X90821129Y-31940271D01*
X90757673Y-31897871D01*
X88393688Y-29533887D01*
X88458113Y-29210000D01*
X88346740Y-28650091D01*
X88029577Y-28175423D01*
X87677242Y-27940000D01*
X88029577Y-27704577D01*
X88346740Y-27229909D01*
X88458113Y-26670000D01*
X88346740Y-26110091D01*
X88029577Y-25635423D01*
X87908894Y-25554785D01*
X88042765Y-25528157D01*
X88252809Y-25387809D01*
X88393157Y-25177765D01*
X88442440Y-24930000D01*
X88442440Y-23330000D01*
X88393157Y-23082235D01*
X88252809Y-22872191D01*
X88042765Y-22731843D01*
X87795000Y-22682560D01*
X86195000Y-22682560D01*
X85947235Y-22731843D01*
X85737191Y-22872191D01*
X85596843Y-23082235D01*
X85547560Y-23330000D01*
X85547560Y-24930000D01*
X85596843Y-25177765D01*
X85737191Y-25387809D01*
X85947235Y-25528157D01*
X86081106Y-25554785D01*
X85960423Y-25635423D01*
X85940196Y-25665694D01*
X82790531Y-22516030D01*
X82748129Y-22452571D01*
X82496737Y-22284596D01*
X82275052Y-22240500D01*
X82275047Y-22240500D01*
X82200200Y-22225612D01*
X82125353Y-22240500D01*
X59893448Y-22240500D01*
X59818600Y-22225612D01*
X59743752Y-22240500D01*
X59743748Y-22240500D01*
X59570205Y-22275020D01*
X59522062Y-22284596D01*
X59335018Y-22409576D01*
X59270671Y-22452571D01*
X59228271Y-22516027D01*
X56229930Y-25514369D01*
X56166471Y-25556771D01*
X55998496Y-25808164D01*
X55954400Y-26029849D01*
X55954400Y-26029853D01*
X55939512Y-26104700D01*
X55954400Y-26179547D01*
X55954400Y-27369106D01*
X55644577Y-26905423D01*
X55169909Y-26588260D01*
X54751333Y-26505000D01*
X54468667Y-26505000D01*
X54050091Y-26588260D01*
X53575423Y-26905423D01*
X53258260Y-27380091D01*
X53146887Y-27940000D01*
X53258260Y-28499909D01*
X53575423Y-28974577D01*
X53800000Y-29124635D01*
X53800001Y-30565365D01*
X53575423Y-30715423D01*
X53258260Y-31190091D01*
X53146887Y-31750000D01*
X53199580Y-32014907D01*
X48441727Y-36772761D01*
X48341740Y-36270091D01*
X48024577Y-35795423D01*
X47672242Y-35560000D01*
X48024577Y-35324577D01*
X48341740Y-34849909D01*
X48453113Y-34290000D01*
X48341740Y-33730091D01*
X48024577Y-33255423D01*
X47918082Y-33184265D01*
X48149698Y-33088327D01*
X48328327Y-32909699D01*
X48425000Y-32676310D01*
X48425000Y-32035750D01*
X48266250Y-31877000D01*
X47117000Y-31877000D01*
X47117000Y-31897000D01*
X46863000Y-31897000D01*
X46863000Y-31877000D01*
X45713750Y-31877000D01*
X45555000Y-32035750D01*
X45555000Y-32676310D01*
X45651673Y-32909699D01*
X45830302Y-33088327D01*
X46061918Y-33184265D01*
X45955423Y-33255423D01*
X45638260Y-33730091D01*
X45526887Y-34290000D01*
X43860000Y-34290000D01*
X43860000Y-30823690D01*
X45555000Y-30823690D01*
X45555000Y-31464250D01*
X45713750Y-31623000D01*
X46863000Y-31623000D01*
X46863000Y-30473750D01*
X47117000Y-30473750D01*
X47117000Y-31623000D01*
X48266250Y-31623000D01*
X48425000Y-31464250D01*
X48425000Y-30823690D01*
X48328327Y-30590301D01*
X48149698Y-30411673D01*
X47916309Y-30315000D01*
X47275750Y-30315000D01*
X47117000Y-30473750D01*
X46863000Y-30473750D01*
X46704250Y-30315000D01*
X46063691Y-30315000D01*
X45830302Y-30411673D01*
X45651673Y-30590301D01*
X45555000Y-30823690D01*
X43860000Y-30823690D01*
X43860000Y-28594255D01*
X43918527Y-28570012D01*
X44325012Y-28163527D01*
X44535832Y-27654561D01*
X45555000Y-27654561D01*
X45555000Y-28225439D01*
X45773466Y-28752862D01*
X46177138Y-29156534D01*
X46704561Y-29375000D01*
X47275439Y-29375000D01*
X47802862Y-29156534D01*
X48206534Y-28752862D01*
X48425000Y-28225439D01*
X48425000Y-27654561D01*
X48206534Y-27127138D01*
X47802862Y-26723466D01*
X47275439Y-26505000D01*
X46704561Y-26505000D01*
X46177138Y-26723466D01*
X45773466Y-27127138D01*
X45555000Y-27654561D01*
X44535832Y-27654561D01*
X44545000Y-27632428D01*
X44545000Y-27057572D01*
X44325012Y-26526473D01*
X43918527Y-26119988D01*
X43387428Y-25900000D01*
X42812572Y-25900000D01*
X42281473Y-26119988D01*
X41874988Y-26526473D01*
X41655000Y-27057572D01*
X32460000Y-27057572D01*
X32460000Y-24557572D01*
X36655000Y-24557572D01*
X36655000Y-25132428D01*
X36874988Y-25663527D01*
X37281473Y-26070012D01*
X37812572Y-26290000D01*
X38387428Y-26290000D01*
X38918527Y-26070012D01*
X39325012Y-25663527D01*
X39545000Y-25132428D01*
X39545000Y-24557572D01*
X39325012Y-24026473D01*
X39143100Y-23844561D01*
X45555000Y-23844561D01*
X45555000Y-24415439D01*
X45773466Y-24942862D01*
X46177138Y-25346534D01*
X46704561Y-25565000D01*
X47275439Y-25565000D01*
X47802862Y-25346534D01*
X48206534Y-24942862D01*
X48425000Y-24415439D01*
X48425000Y-24130000D01*
X53146887Y-24130000D01*
X53258260Y-24689909D01*
X53575423Y-25164577D01*
X54050091Y-25481740D01*
X54468667Y-25565000D01*
X54751333Y-25565000D01*
X55169909Y-25481740D01*
X55644577Y-25164577D01*
X55961740Y-24689909D01*
X56073113Y-24130000D01*
X55961740Y-23570091D01*
X55644577Y-23095423D01*
X55169909Y-22778260D01*
X54751333Y-22695000D01*
X54468667Y-22695000D01*
X54050091Y-22778260D01*
X53575423Y-23095423D01*
X53258260Y-23570091D01*
X53146887Y-24130000D01*
X48425000Y-24130000D01*
X48425000Y-23844561D01*
X48206534Y-23317138D01*
X47802862Y-22913466D01*
X47275439Y-22695000D01*
X46704561Y-22695000D01*
X46177138Y-22913466D01*
X45773466Y-23317138D01*
X45555000Y-23844561D01*
X39143100Y-23844561D01*
X38918527Y-23619988D01*
X38387428Y-23400000D01*
X37812572Y-23400000D01*
X37281473Y-23619988D01*
X36874988Y-24026473D01*
X36655000Y-24557572D01*
X32460000Y-24557572D01*
X32460000Y-18490000D01*
X107240000Y-18490000D01*
X107240001Y-85650000D01*
X107240001Y-85650000D01*
G37*
X107240001Y-85650000D02*
X32460000Y-85650000D01*
X32460000Y-80010000D01*
X36585908Y-80010000D01*
X36701161Y-80589418D01*
X37029375Y-81080625D01*
X37520582Y-81408839D01*
X37953744Y-81495000D01*
X38246256Y-81495000D01*
X38679418Y-81408839D01*
X39170625Y-81080625D01*
X39498839Y-80589418D01*
X39614092Y-80010000D01*
X39498839Y-79430582D01*
X39351451Y-79210000D01*
X45542560Y-79210000D01*
X45542560Y-80810000D01*
X45591843Y-81057765D01*
X45732191Y-81267809D01*
X45942235Y-81408157D01*
X46190000Y-81457440D01*
X47790000Y-81457440D01*
X48037765Y-81408157D01*
X48247809Y-81267809D01*
X48388157Y-81057765D01*
X48396117Y-81017745D01*
X53781861Y-81017745D01*
X53855995Y-81263864D01*
X54393223Y-81456965D01*
X54963454Y-81429778D01*
X55364005Y-81263864D01*
X55438139Y-81017745D01*
X55365670Y-80945275D01*
X62149331Y-80945275D01*
X62211169Y-81181042D01*
X62712122Y-81357419D01*
X63242440Y-81328664D01*
X63598831Y-81181042D01*
X63660669Y-80945275D01*
X62905000Y-80189605D01*
X62149331Y-80945275D01*
X55365670Y-80945275D01*
X54610000Y-80189605D01*
X53781861Y-81017745D01*
X48396117Y-81017745D01*
X48437440Y-80810000D01*
X48437440Y-79793223D01*
X53163035Y-79793223D01*
X53190222Y-80363454D01*
X53356136Y-80764005D01*
X53602255Y-80838139D01*
X54430395Y-80010000D01*
X54789605Y-80010000D01*
X55617745Y-80838139D01*
X55863864Y-80764005D01*
X56056965Y-80226777D01*
X56029778Y-79656546D01*
X55863864Y-79255995D01*
X55617745Y-79181861D01*
X54789605Y-80010000D01*
X54430395Y-80010000D01*
X53602255Y-79181861D01*
X53356136Y-79255995D01*
X53163035Y-79793223D01*
X48437440Y-79793223D01*
X48437440Y-79210000D01*
X48396118Y-79002255D01*
X53781861Y-79002255D01*
X54610000Y-79830395D01*
X55438139Y-79002255D01*
X55364005Y-78756136D01*
X54826777Y-78563035D01*
X54256546Y-78590222D01*
X53855995Y-78756136D01*
X53781861Y-79002255D01*
X48396118Y-79002255D01*
X48388157Y-78962235D01*
X48247809Y-78752191D01*
X48037765Y-78611843D01*
X47790000Y-78562560D01*
X46190000Y-78562560D01*
X45942235Y-78611843D01*
X45732191Y-78752191D01*
X45591843Y-78962235D01*
X45542560Y-79210000D01*
X39351451Y-79210000D01*
X39170625Y-78939375D01*
X39152381Y-78927184D01*
X39197765Y-78918157D01*
X39407809Y-78777809D01*
X39548157Y-78567765D01*
X39597440Y-78320000D01*
X39597440Y-76620000D01*
X39548157Y-76372235D01*
X39407809Y-76162191D01*
X39197765Y-76021843D01*
X38950000Y-75972560D01*
X37250000Y-75972560D01*
X37002235Y-76021843D01*
X36792191Y-76162191D01*
X36651843Y-76372235D01*
X36602560Y-76620000D01*
X36602560Y-78320000D01*
X36651843Y-78567765D01*
X36792191Y-78777809D01*
X37002235Y-78918157D01*
X37047619Y-78927184D01*
X37029375Y-78939375D01*
X36701161Y-79430582D01*
X36585908Y-80010000D01*
X32460000Y-80010000D01*
X32460000Y-57493690D01*
X45555000Y-57493690D01*
X45555000Y-58134250D01*
X45713750Y-58293000D01*
X46863000Y-58293000D01*
X46863000Y-57143750D01*
X47117000Y-57143750D01*
X47117000Y-58293000D01*
X48266250Y-58293000D01*
X48425000Y-58134250D01*
X48425000Y-57493690D01*
X48328327Y-57260301D01*
X48149698Y-57081673D01*
X47916309Y-56985000D01*
X47275750Y-56985000D01*
X47117000Y-57143750D01*
X46863000Y-57143750D01*
X46704250Y-56985000D01*
X46063691Y-56985000D01*
X45830302Y-57081673D01*
X45651673Y-57260301D01*
X45555000Y-57493690D01*
X32460000Y-57493690D01*
X32460000Y-54324561D01*
X45555000Y-54324561D01*
X45555000Y-54895439D01*
X45773466Y-55422862D01*
X46177138Y-55826534D01*
X46704561Y-56045000D01*
X47275439Y-56045000D01*
X47802862Y-55826534D01*
X48206534Y-55422862D01*
X48425000Y-54895439D01*
X48425000Y-54324561D01*
X48206534Y-53797138D01*
X47802862Y-53393466D01*
X47275439Y-53175000D01*
X46704561Y-53175000D01*
X46177138Y-53393466D01*
X45773466Y-53797138D01*
X45555000Y-54324561D01*
X32460000Y-54324561D01*
X32460000Y-49530000D01*
X36585908Y-49530000D01*
X36701161Y-50109418D01*
X37029375Y-50600625D01*
X37520582Y-50928839D01*
X37953744Y-51015000D01*
X38246256Y-51015000D01*
X38679418Y-50928839D01*
X38872239Y-50800000D01*
X45526887Y-50800000D01*
X45638260Y-51359909D01*
X45955423Y-51834577D01*
X46430091Y-52151740D01*
X46848667Y-52235000D01*
X47131333Y-52235000D01*
X47549909Y-52151740D01*
X48024577Y-51834577D01*
X48341740Y-51359909D01*
X48453113Y-50800000D01*
X48341740Y-50240091D01*
X48024577Y-49765423D01*
X47549909Y-49448260D01*
X47131333Y-49365000D01*
X46848667Y-49365000D01*
X46430091Y-49448260D01*
X45955423Y-49765423D01*
X45638260Y-50240091D01*
X45526887Y-50800000D01*
X38872239Y-50800000D01*
X39170625Y-50600625D01*
X39498839Y-50109418D01*
X39614092Y-49530000D01*
X39498839Y-48950582D01*
X39170625Y-48459375D01*
X39152381Y-48447184D01*
X39197765Y-48438157D01*
X39407809Y-48297809D01*
X39548157Y-48087765D01*
X39597440Y-47840000D01*
X39597440Y-46140000D01*
X39548157Y-45892235D01*
X39407809Y-45682191D01*
X39197765Y-45541843D01*
X38950000Y-45492560D01*
X37250000Y-45492560D01*
X37002235Y-45541843D01*
X36792191Y-45682191D01*
X36651843Y-45892235D01*
X36602560Y-46140000D01*
X36602560Y-47840000D01*
X36651843Y-48087765D01*
X36792191Y-48297809D01*
X37002235Y-48438157D01*
X37047619Y-48447184D01*
X37029375Y-48459375D01*
X36701161Y-48950582D01*
X36585908Y-49530000D01*
X32460000Y-49530000D01*
X32460000Y-37837745D01*
X37311861Y-37837745D01*
X37385995Y-38083864D01*
X37923223Y-38276965D01*
X38493454Y-38249778D01*
X38894005Y-38083864D01*
X38968139Y-37837745D01*
X38140000Y-37009605D01*
X37311861Y-37837745D01*
X32460000Y-37837745D01*
X32460000Y-36613223D01*
X36693035Y-36613223D01*
X36720222Y-37183454D01*
X36886136Y-37584005D01*
X37132255Y-37658139D01*
X37960395Y-36830000D01*
X38319605Y-36830000D01*
X39147745Y-37658139D01*
X39195307Y-37643813D01*
X39241843Y-37877765D01*
X39382191Y-38087809D01*
X39592235Y-38228157D01*
X39840000Y-38277440D01*
X41440000Y-38277440D01*
X41687765Y-38228157D01*
X41897809Y-38087809D01*
X42038157Y-37877765D01*
X42087440Y-37630000D01*
X42087440Y-36030000D01*
X42038157Y-35782235D01*
X41897809Y-35572191D01*
X41687765Y-35431843D01*
X41440000Y-35382560D01*
X39840000Y-35382560D01*
X39592235Y-35431843D01*
X39382191Y-35572191D01*
X39241843Y-35782235D01*
X39195307Y-36016187D01*
X39147745Y-36001861D01*
X38319605Y-36830000D01*
X37960395Y-36830000D01*
X37132255Y-36001861D01*
X36886136Y-36075995D01*
X36693035Y-36613223D01*
X32460000Y-36613223D01*
X32460000Y-35822255D01*
X37311861Y-35822255D01*
X38140000Y-36650395D01*
X38968139Y-35822255D01*
X38894005Y-35576136D01*
X38356777Y-35383035D01*
X37786546Y-35410222D01*
X37385995Y-35576136D01*
X37311861Y-35822255D01*
X32460000Y-35822255D01*
X32460000Y-29557572D01*
X36655000Y-29557572D01*
X36655000Y-30132428D01*
X36874988Y-30663527D01*
X37281473Y-31070012D01*
X37812572Y-31290000D01*
X38387428Y-31290000D01*
X38918527Y-31070012D01*
X39325012Y-30663527D01*
X39545000Y-30132428D01*
X39545000Y-29557572D01*
X39325012Y-29026473D01*
X38918527Y-28619988D01*
X38387428Y-28400000D01*
X37812572Y-28400000D01*
X37281473Y-28619988D01*
X36874988Y-29026473D01*
X36655000Y-29557572D01*
X32460000Y-29557572D01*
X32460000Y-27057572D01*
X41655000Y-27057572D01*
X41655000Y-27632428D01*
X41874988Y-28163527D01*
X42281473Y-28570012D01*
X42340001Y-28594255D01*
X42340000Y-41899853D01*
X42325112Y-41974700D01*
X42340000Y-42049547D01*
X42340000Y-42049551D01*
X42384096Y-42271236D01*
X42552071Y-42522629D01*
X42615530Y-42565031D01*
X45985694Y-45935196D01*
X45955423Y-45955423D01*
X45638260Y-46430091D01*
X45526887Y-46990000D01*
X45638260Y-47549909D01*
X45955423Y-48024577D01*
X46430091Y-48341740D01*
X46848667Y-48425000D01*
X47131333Y-48425000D01*
X47549909Y-48341740D01*
X48024577Y-48024577D01*
X48341740Y-47549909D01*
X48453113Y-46990000D01*
X48341740Y-46430091D01*
X48024577Y-45955423D01*
X47745896Y-45769214D01*
X47705904Y-45568163D01*
X47705904Y-45568162D01*
X47580329Y-45380227D01*
X47537929Y-45316771D01*
X47474473Y-45274371D01*
X43860000Y-41659899D01*
X43860000Y-34290000D01*
X45526887Y-34290000D01*
X45638260Y-34849909D01*
X45955423Y-35324577D01*
X46307758Y-35560000D01*
X45955423Y-35795423D01*
X45638260Y-36270091D01*
X45526887Y-36830000D01*
X45638260Y-37389909D01*
X45955423Y-37864577D01*
X46307758Y-38100000D01*
X45955423Y-38335423D01*
X45638260Y-38810091D01*
X45526887Y-39370000D01*
X45638260Y-39929909D01*
X45955423Y-40404577D01*
X46430091Y-40721740D01*
X46848667Y-40805000D01*
X47131333Y-40805000D01*
X47355301Y-40760450D01*
X47355300Y-44275527D01*
X47339432Y-44355300D01*
X47355300Y-44435073D01*
X47402297Y-44671345D01*
X47581323Y-44939277D01*
X47648956Y-44984468D01*
X53176186Y-50511699D01*
X53175000Y-50514561D01*
X53175000Y-51085439D01*
X53393466Y-51612862D01*
X53797138Y-52016534D01*
X53800001Y-52017720D01*
X53800000Y-53425365D01*
X53575423Y-53575423D01*
X53258260Y-54050091D01*
X53146887Y-54610000D01*
X53258260Y-55169909D01*
X53575423Y-55644577D01*
X53800001Y-55794635D01*
X53800000Y-57235365D01*
X53575423Y-57385423D01*
X53258260Y-57860091D01*
X53146887Y-58420000D01*
X53199580Y-58684907D01*
X48441727Y-63442760D01*
X48341740Y-62940091D01*
X48024577Y-62465423D01*
X47672242Y-62230000D01*
X48024577Y-61994577D01*
X48341740Y-61519909D01*
X48453113Y-60960000D01*
X48341740Y-60400091D01*
X48024577Y-59925423D01*
X47918082Y-59854265D01*
X48149698Y-59758327D01*
X48328327Y-59579699D01*
X48425000Y-59346310D01*
X48425000Y-58705750D01*
X48266250Y-58547000D01*
X47117000Y-58547000D01*
X47117000Y-58567000D01*
X46863000Y-58567000D01*
X46863000Y-58547000D01*
X45713750Y-58547000D01*
X45555000Y-58705750D01*
X45555000Y-59346310D01*
X45651673Y-59579699D01*
X45830302Y-59758327D01*
X46061918Y-59854265D01*
X45955423Y-59925423D01*
X45638260Y-60400091D01*
X45526887Y-60960000D01*
X45638260Y-61519909D01*
X45955423Y-61994577D01*
X46307758Y-62230000D01*
X45955423Y-62465423D01*
X45638260Y-62940091D01*
X45526887Y-63500000D01*
X45638260Y-64059909D01*
X45955423Y-64534577D01*
X46307758Y-64770000D01*
X45955423Y-65005423D01*
X45638260Y-65480091D01*
X45526887Y-66040000D01*
X45638260Y-66599909D01*
X45955423Y-67074577D01*
X46180001Y-67224635D01*
X46180000Y-71172280D01*
X46177138Y-71173466D01*
X45773466Y-71577138D01*
X45555000Y-72104561D01*
X45555000Y-72675439D01*
X45773466Y-73202862D01*
X46177138Y-73606534D01*
X46704561Y-73825000D01*
X47275439Y-73825000D01*
X47802862Y-73606534D01*
X48206534Y-73202862D01*
X48425000Y-72675439D01*
X48425000Y-72104561D01*
X48206534Y-71577138D01*
X47802862Y-71173466D01*
X47800000Y-71172281D01*
X47800000Y-67224635D01*
X48024577Y-67074577D01*
X48341740Y-66599909D01*
X48453113Y-66040000D01*
X48400420Y-65775093D01*
X53158273Y-61017240D01*
X53258260Y-61519909D01*
X53575423Y-61994577D01*
X53850000Y-62178044D01*
X53850001Y-62281956D01*
X53575423Y-62465423D01*
X53258260Y-62940091D01*
X53146887Y-63500000D01*
X53211312Y-63823887D01*
X52978230Y-64056969D01*
X52914771Y-64099371D01*
X52746796Y-64350764D01*
X52702700Y-64572449D01*
X52702700Y-64572453D01*
X52687812Y-64647300D01*
X52702700Y-64722147D01*
X52702701Y-72823248D01*
X52687812Y-72898100D01*
X52746797Y-73194637D01*
X52867983Y-73376004D01*
X52914772Y-73446029D01*
X52978228Y-73488429D01*
X58898870Y-79409072D01*
X58941271Y-79472529D01*
X59192663Y-79640504D01*
X59414348Y-79684600D01*
X59414352Y-79684600D01*
X59489199Y-79699488D01*
X59564046Y-79684600D01*
X61604240Y-79684600D01*
X61557581Y-79817122D01*
X61586336Y-80347440D01*
X61733958Y-80703831D01*
X61969725Y-80765669D01*
X62725395Y-80010000D01*
X62711253Y-79995858D01*
X62890858Y-79816253D01*
X62905000Y-79830395D01*
X62919143Y-79816253D01*
X63098748Y-79995858D01*
X63084605Y-80010000D01*
X63840275Y-80765669D01*
X64076042Y-80703831D01*
X64154775Y-80480212D01*
X64273242Y-80766217D01*
X64648783Y-81141758D01*
X65139452Y-81345000D01*
X65670548Y-81345000D01*
X66161217Y-81141758D01*
X66536758Y-80766217D01*
X66740000Y-80275548D01*
X66740000Y-79998452D01*
X70420000Y-79998452D01*
X70420000Y-80529548D01*
X70623242Y-81020217D01*
X70998783Y-81395758D01*
X71489452Y-81599000D01*
X72020548Y-81599000D01*
X72511217Y-81395758D01*
X72771000Y-81135975D01*
X73030783Y-81395758D01*
X73521452Y-81599000D01*
X74052548Y-81599000D01*
X74543217Y-81395758D01*
X74803000Y-81135975D01*
X75062783Y-81395758D01*
X75553452Y-81599000D01*
X76084548Y-81599000D01*
X76575217Y-81395758D01*
X76950758Y-81020217D01*
X77154000Y-80529548D01*
X77154000Y-79998452D01*
X80580000Y-79998452D01*
X80580000Y-80529548D01*
X80783242Y-81020217D01*
X81158783Y-81395758D01*
X81649452Y-81599000D01*
X82180548Y-81599000D01*
X82671217Y-81395758D01*
X82931000Y-81135975D01*
X83190783Y-81395758D01*
X83681452Y-81599000D01*
X84212548Y-81599000D01*
X84703217Y-81395758D01*
X84963000Y-81135975D01*
X85222783Y-81395758D01*
X85713452Y-81599000D01*
X86244548Y-81599000D01*
X86735217Y-81395758D01*
X87110758Y-81020217D01*
X87314000Y-80529548D01*
X87314000Y-79998452D01*
X87172572Y-79657015D01*
X89292400Y-79657015D01*
X89292400Y-80247785D01*
X89518478Y-80793585D01*
X89936215Y-81211322D01*
X90482015Y-81437400D01*
X91072785Y-81437400D01*
X91618585Y-81211322D01*
X91833549Y-80996358D01*
X96413047Y-80996358D01*
X96493320Y-81247659D01*
X97048679Y-81449118D01*
X97638858Y-81422715D01*
X98061480Y-81247659D01*
X98141753Y-80996358D01*
X97277400Y-80132005D01*
X96413047Y-80996358D01*
X91833549Y-80996358D01*
X92036322Y-80793585D01*
X92262400Y-80247785D01*
X92262400Y-79723679D01*
X95780682Y-79723679D01*
X95807085Y-80313858D01*
X95982141Y-80736480D01*
X96233442Y-80816753D01*
X97097795Y-79952400D01*
X97457005Y-79952400D01*
X98321358Y-80816753D01*
X98572659Y-80736480D01*
X98774118Y-80181121D01*
X98766463Y-80010000D01*
X100085908Y-80010000D01*
X100201161Y-80589418D01*
X100529375Y-81080625D01*
X101020582Y-81408839D01*
X101453744Y-81495000D01*
X101746256Y-81495000D01*
X102179418Y-81408839D01*
X102670625Y-81080625D01*
X102998839Y-80589418D01*
X103114092Y-80010000D01*
X102998839Y-79430582D01*
X102670625Y-78939375D01*
X102652381Y-78927184D01*
X102697765Y-78918157D01*
X102907809Y-78777809D01*
X103048157Y-78567765D01*
X103097440Y-78320000D01*
X103097440Y-76620000D01*
X103048157Y-76372235D01*
X102907809Y-76162191D01*
X102697765Y-76021843D01*
X102450000Y-75972560D01*
X100750000Y-75972560D01*
X100502235Y-76021843D01*
X100292191Y-76162191D01*
X100151843Y-76372235D01*
X100102560Y-76620000D01*
X100102560Y-78320000D01*
X100151843Y-78567765D01*
X100292191Y-78777809D01*
X100502235Y-78918157D01*
X100547619Y-78927184D01*
X100529375Y-78939375D01*
X100201161Y-79430582D01*
X100085908Y-80010000D01*
X98766463Y-80010000D01*
X98747715Y-79590942D01*
X98572659Y-79168320D01*
X98321358Y-79088047D01*
X97457005Y-79952400D01*
X97097795Y-79952400D01*
X96233442Y-79088047D01*
X95982141Y-79168320D01*
X95780682Y-79723679D01*
X92262400Y-79723679D01*
X92262400Y-79657015D01*
X92036322Y-79111215D01*
X91833549Y-78908442D01*
X96413047Y-78908442D01*
X97277400Y-79772795D01*
X98141753Y-78908442D01*
X98061480Y-78657141D01*
X97506121Y-78455682D01*
X96915942Y-78482085D01*
X96493320Y-78657141D01*
X96413047Y-78908442D01*
X91833549Y-78908442D01*
X91618585Y-78693478D01*
X91072785Y-78467400D01*
X90482015Y-78467400D01*
X89936215Y-78693478D01*
X89518478Y-79111215D01*
X89292400Y-79657015D01*
X87172572Y-79657015D01*
X87110758Y-79507783D01*
X86735217Y-79132242D01*
X86244548Y-78929000D01*
X85713452Y-78929000D01*
X85222783Y-79132242D01*
X84963000Y-79392025D01*
X84703217Y-79132242D01*
X84212548Y-78929000D01*
X83681452Y-78929000D01*
X83190783Y-79132242D01*
X82931000Y-79392025D01*
X82671217Y-79132242D01*
X82180548Y-78929000D01*
X81649452Y-78929000D01*
X81158783Y-79132242D01*
X80783242Y-79507783D01*
X80580000Y-79998452D01*
X77154000Y-79998452D01*
X76950758Y-79507783D01*
X76575217Y-79132242D01*
X76084548Y-78929000D01*
X75553452Y-78929000D01*
X75062783Y-79132242D01*
X74803000Y-79392025D01*
X74543217Y-79132242D01*
X74052548Y-78929000D01*
X73521452Y-78929000D01*
X73030783Y-79132242D01*
X72771000Y-79392025D01*
X72511217Y-79132242D01*
X72020548Y-78929000D01*
X71489452Y-78929000D01*
X70998783Y-79132242D01*
X70623242Y-79507783D01*
X70420000Y-79998452D01*
X66740000Y-79998452D01*
X66740000Y-79744452D01*
X66536758Y-79253783D01*
X66161217Y-78878242D01*
X65670548Y-78675000D01*
X65144802Y-78675000D01*
X64909931Y-78440129D01*
X64867529Y-78376671D01*
X64616137Y-78208696D01*
X64394452Y-78164600D01*
X64394447Y-78164600D01*
X64319600Y-78149712D01*
X64244753Y-78164600D01*
X59804002Y-78164600D01*
X56303854Y-74664452D01*
X61530000Y-74664452D01*
X61530000Y-75195548D01*
X61733242Y-75686217D01*
X62108783Y-76061758D01*
X62599452Y-76265000D01*
X63130548Y-76265000D01*
X63621217Y-76061758D01*
X63817700Y-75865275D01*
X64609331Y-75865275D01*
X64671169Y-76101042D01*
X65172122Y-76277419D01*
X65702440Y-76248664D01*
X66058831Y-76101042D01*
X66120669Y-75865275D01*
X65365000Y-75109605D01*
X64609331Y-75865275D01*
X63817700Y-75865275D01*
X63996758Y-75686217D01*
X64108279Y-75416983D01*
X64193958Y-75623831D01*
X64429725Y-75685669D01*
X65185395Y-74930000D01*
X65544605Y-74930000D01*
X66300275Y-75685669D01*
X66536042Y-75623831D01*
X66712419Y-75122878D01*
X66683664Y-74592560D01*
X66536042Y-74236169D01*
X66300275Y-74174331D01*
X65544605Y-74930000D01*
X65185395Y-74930000D01*
X64429725Y-74174331D01*
X64193958Y-74236169D01*
X64115225Y-74459788D01*
X63996758Y-74173783D01*
X63817700Y-73994725D01*
X64609331Y-73994725D01*
X65365000Y-74750395D01*
X66120669Y-73994725D01*
X66058831Y-73758958D01*
X65557878Y-73582581D01*
X65027560Y-73611336D01*
X64671169Y-73758958D01*
X64609331Y-73994725D01*
X63817700Y-73994725D01*
X63621217Y-73798242D01*
X63130548Y-73595000D01*
X62599452Y-73595000D01*
X62108783Y-73798242D01*
X61733242Y-74173783D01*
X61530000Y-74664452D01*
X56303854Y-74664452D01*
X55297756Y-73658355D01*
X55422862Y-73606534D01*
X55826534Y-73202862D01*
X56045000Y-72675439D01*
X56045000Y-72104561D01*
X56023103Y-72051698D01*
X57198873Y-70875929D01*
X57262329Y-70833529D01*
X57294571Y-70785275D01*
X62149331Y-70785275D01*
X62211169Y-71021042D01*
X62712122Y-71197419D01*
X63242440Y-71168664D01*
X63598831Y-71021042D01*
X63660669Y-70785275D01*
X62905000Y-70029605D01*
X62149331Y-70785275D01*
X57294571Y-70785275D01*
X57430304Y-70582137D01*
X57474400Y-70360452D01*
X57474400Y-70360448D01*
X57489288Y-70285601D01*
X57474400Y-70210754D01*
X57474400Y-69657122D01*
X61557581Y-69657122D01*
X61586336Y-70187440D01*
X61733958Y-70543831D01*
X61969725Y-70605669D01*
X62725395Y-69850000D01*
X61969725Y-69094331D01*
X61733958Y-69156169D01*
X61557581Y-69657122D01*
X57474400Y-69657122D01*
X57474400Y-68914725D01*
X62149331Y-68914725D01*
X62905000Y-69670395D01*
X63660669Y-68914725D01*
X63598831Y-68678958D01*
X63097878Y-68502581D01*
X62567560Y-68531336D01*
X62211169Y-68678958D01*
X62149331Y-68914725D01*
X57474400Y-68914725D01*
X57474400Y-26419501D01*
X58439701Y-25454200D01*
X58439700Y-38169853D01*
X58424812Y-38244700D01*
X58439700Y-38319547D01*
X58439700Y-38319551D01*
X58483796Y-38541236D01*
X58651771Y-38792629D01*
X58715230Y-38835031D01*
X58926312Y-39046113D01*
X58861887Y-39370000D01*
X58973260Y-39929909D01*
X59290423Y-40404577D01*
X59565001Y-40588044D01*
X59565000Y-48585153D01*
X59550112Y-48660000D01*
X59565000Y-48734847D01*
X59565000Y-48734851D01*
X59609096Y-48956536D01*
X59777071Y-49207929D01*
X59840530Y-49250331D01*
X59979908Y-49389709D01*
X59512138Y-49583466D01*
X59108466Y-49987138D01*
X58890000Y-50514561D01*
X58890000Y-51085439D01*
X58911897Y-51138302D01*
X58689828Y-51360371D01*
X58626372Y-51402771D01*
X58458397Y-51654163D01*
X58422079Y-51836748D01*
X58399412Y-51950700D01*
X58414301Y-52025552D01*
X58414300Y-64814453D01*
X58399412Y-64889300D01*
X58414300Y-64964147D01*
X58414300Y-64964151D01*
X58458396Y-65185836D01*
X58626371Y-65437229D01*
X58689830Y-65479631D01*
X58926312Y-65716113D01*
X58861887Y-66040000D01*
X58973260Y-66599909D01*
X59290423Y-67074577D01*
X59765091Y-67391740D01*
X60183667Y-67475000D01*
X60466333Y-67475000D01*
X60884909Y-67391740D01*
X61359577Y-67074577D01*
X61676740Y-66599909D01*
X61788113Y-66040000D01*
X61676740Y-65480091D01*
X61359577Y-65005423D01*
X61007242Y-64770000D01*
X61359577Y-64534577D01*
X61676740Y-64059909D01*
X61788113Y-63500000D01*
X61676740Y-62940091D01*
X61359577Y-62465423D01*
X61007242Y-62230000D01*
X61359577Y-61994577D01*
X61379804Y-61964305D01*
X64669970Y-65254472D01*
X64712371Y-65317929D01*
X64775827Y-65360329D01*
X64963762Y-65485904D01*
X65011905Y-65495480D01*
X65185448Y-65530000D01*
X65185452Y-65530000D01*
X65260300Y-65544888D01*
X65335148Y-65530000D01*
X66583332Y-65530000D01*
X66481887Y-66040000D01*
X66593260Y-66599909D01*
X66910423Y-67074577D01*
X66940694Y-67094803D01*
X65520498Y-68515000D01*
X65139452Y-68515000D01*
X64648783Y-68718242D01*
X64273242Y-69093783D01*
X64161721Y-69363017D01*
X64076042Y-69156169D01*
X63840275Y-69094331D01*
X63084605Y-69850000D01*
X63840275Y-70605669D01*
X64076042Y-70543831D01*
X64154775Y-70320212D01*
X64273242Y-70606217D01*
X64648783Y-70981758D01*
X65139452Y-71185000D01*
X65670548Y-71185000D01*
X66161217Y-70981758D01*
X66536758Y-70606217D01*
X66740000Y-70115548D01*
X66740000Y-69584452D01*
X66699185Y-69485916D01*
X68429476Y-67755627D01*
X68471101Y-67727814D01*
X68471100Y-71807148D01*
X68471100Y-72585253D01*
X68456212Y-72660100D01*
X68471100Y-72734947D01*
X68471100Y-72734951D01*
X68515196Y-72956636D01*
X68683171Y-73208029D01*
X68746630Y-73250431D01*
X70420000Y-74923802D01*
X70420000Y-75449548D01*
X70623242Y-75940217D01*
X70998783Y-76315758D01*
X71489452Y-76519000D01*
X72020548Y-76519000D01*
X72511217Y-76315758D01*
X72707700Y-76119275D01*
X73031331Y-76119275D01*
X73093169Y-76355042D01*
X73594122Y-76531419D01*
X74124440Y-76502664D01*
X74480831Y-76355042D01*
X74542669Y-76119275D01*
X73787000Y-75363605D01*
X73031331Y-76119275D01*
X72707700Y-76119275D01*
X72886758Y-75940217D01*
X72911918Y-75879477D01*
X73607395Y-75184000D01*
X73966605Y-75184000D01*
X74662082Y-75879477D01*
X74687242Y-75940217D01*
X75062783Y-76315758D01*
X75553452Y-76519000D01*
X76084548Y-76519000D01*
X76575217Y-76315758D01*
X76950758Y-75940217D01*
X77154000Y-75449548D01*
X77154000Y-74918452D01*
X76950758Y-74427783D01*
X76575217Y-74052242D01*
X76084548Y-73849000D01*
X75553452Y-73849000D01*
X75062783Y-74052242D01*
X74687242Y-74427783D01*
X74662082Y-74488523D01*
X73966605Y-75184000D01*
X73607395Y-75184000D01*
X72911918Y-74488523D01*
X72886758Y-74427783D01*
X72707700Y-74248725D01*
X73031331Y-74248725D01*
X73787000Y-75004395D01*
X74542669Y-74248725D01*
X74480831Y-74012958D01*
X73979878Y-73836581D01*
X73449560Y-73865336D01*
X73093169Y-74012958D01*
X73031331Y-74248725D01*
X72707700Y-74248725D01*
X72511217Y-74052242D01*
X72020548Y-73849000D01*
X71494802Y-73849000D01*
X69991100Y-72345299D01*
X69991100Y-72046961D01*
X77427400Y-72046961D01*
X77427400Y-72617839D01*
X77645866Y-73145262D01*
X78049538Y-73548934D01*
X78576961Y-73767400D01*
X79147839Y-73767400D01*
X79675262Y-73548934D01*
X80078934Y-73145262D01*
X80297400Y-72617839D01*
X80297400Y-72046961D01*
X80078934Y-71519538D01*
X79675262Y-71115866D01*
X79147839Y-70897400D01*
X78576961Y-70897400D01*
X78049538Y-71115866D01*
X77645866Y-71519538D01*
X77427400Y-72046961D01*
X69991100Y-72046961D01*
X69991100Y-68892400D01*
X72234960Y-68892400D01*
X72234960Y-70692400D01*
X72284243Y-70940165D01*
X72424591Y-71150209D01*
X72634635Y-71290557D01*
X72882400Y-71339840D01*
X74682400Y-71339840D01*
X74930165Y-71290557D01*
X75140209Y-71150209D01*
X75280557Y-70940165D01*
X75329840Y-70692400D01*
X75329840Y-68892400D01*
X75280557Y-68644635D01*
X75140209Y-68434591D01*
X74930165Y-68294243D01*
X74914492Y-68291125D01*
X75083710Y-68121907D01*
X75317400Y-67557730D01*
X75317400Y-66947070D01*
X75083710Y-66382893D01*
X74651907Y-65951090D01*
X74087730Y-65717400D01*
X73477070Y-65717400D01*
X72912893Y-65951090D01*
X72481090Y-66382893D01*
X72247400Y-66947070D01*
X72247400Y-67557730D01*
X72481090Y-68121907D01*
X72650308Y-68291125D01*
X72634635Y-68294243D01*
X72424591Y-68434591D01*
X72284243Y-68644635D01*
X72234960Y-68892400D01*
X69991100Y-68892400D01*
X69991100Y-65807546D01*
X70005988Y-65732699D01*
X69991100Y-65657852D01*
X69991100Y-65657848D01*
X69947004Y-65436163D01*
X69872123Y-65324096D01*
X69821429Y-65248226D01*
X69821427Y-65248224D01*
X69779029Y-65184771D01*
X69715575Y-65142373D01*
X69002356Y-64429155D01*
X69176041Y-64237423D01*
X69336904Y-63849039D01*
X69214915Y-63627000D01*
X68072000Y-63627000D01*
X68072000Y-63647000D01*
X67818000Y-63647000D01*
X67818000Y-63627000D01*
X66675085Y-63627000D01*
X66553096Y-63849039D01*
X66619764Y-64010000D01*
X65575102Y-64010000D01*
X62210300Y-60645199D01*
X62210300Y-55810148D01*
X62225188Y-55735300D01*
X62210300Y-55660452D01*
X62210300Y-55660448D01*
X62166204Y-55438763D01*
X61998229Y-55187371D01*
X61934773Y-55144971D01*
X61738104Y-54948302D01*
X61760000Y-54895439D01*
X61760000Y-54324561D01*
X61541534Y-53797138D01*
X61137862Y-53393466D01*
X60610439Y-53175000D01*
X60039561Y-53175000D01*
X59934300Y-53218601D01*
X59934300Y-52265501D01*
X59986698Y-52213103D01*
X60039561Y-52235000D01*
X60610439Y-52235000D01*
X61137862Y-52016534D01*
X61541534Y-51612862D01*
X61735291Y-51145092D01*
X67613104Y-57022905D01*
X67385091Y-57068260D01*
X66910423Y-57385423D01*
X66593260Y-57860091D01*
X66481887Y-58420000D01*
X66593260Y-58979909D01*
X66910423Y-59454577D01*
X67262758Y-59690000D01*
X66910423Y-59925423D01*
X66593260Y-60400091D01*
X66481887Y-60960000D01*
X66593260Y-61519909D01*
X66910423Y-61994577D01*
X67294108Y-62250947D01*
X67089866Y-62347611D01*
X66713959Y-62762577D01*
X66553096Y-63150961D01*
X66675085Y-63373000D01*
X67818000Y-63373000D01*
X67818000Y-63353000D01*
X68072000Y-63353000D01*
X68072000Y-63373000D01*
X69214915Y-63373000D01*
X69336904Y-63150961D01*
X69176041Y-62762577D01*
X68800134Y-62347611D01*
X68595892Y-62250947D01*
X68979577Y-61994577D01*
X69296740Y-61519909D01*
X69408113Y-60960000D01*
X69296740Y-60400091D01*
X68979577Y-59925423D01*
X68627242Y-59690000D01*
X68979577Y-59454577D01*
X69296740Y-58979909D01*
X69342095Y-58751896D01*
X73789000Y-63198802D01*
X73789000Y-63679153D01*
X73774112Y-63754000D01*
X73789000Y-63828847D01*
X73789000Y-63828851D01*
X73833096Y-64050536D01*
X74001071Y-64301929D01*
X74064530Y-64344331D01*
X83592571Y-73872373D01*
X83253169Y-74012958D01*
X83191331Y-74248725D01*
X83947000Y-75004395D01*
X83961142Y-74990252D01*
X84140748Y-75169858D01*
X84126605Y-75184000D01*
X84140748Y-75198143D01*
X83961142Y-75377748D01*
X83947000Y-75363605D01*
X83932858Y-75377748D01*
X83753252Y-75198142D01*
X83767395Y-75184000D01*
X83071918Y-74488523D01*
X83046758Y-74427783D01*
X82671217Y-74052242D01*
X82180548Y-73849000D01*
X81649452Y-73849000D01*
X81158783Y-74052242D01*
X80783242Y-74427783D01*
X80580000Y-74918452D01*
X80580000Y-75449548D01*
X80783242Y-75940217D01*
X81158783Y-76315758D01*
X81649452Y-76519000D01*
X82175199Y-76519000D01*
X82975671Y-77319473D01*
X83018071Y-77382929D01*
X83269463Y-77550904D01*
X83491148Y-77595000D01*
X83491152Y-77595000D01*
X83566000Y-77609888D01*
X83640848Y-77595000D01*
X86412153Y-77595000D01*
X86487000Y-77609888D01*
X86561847Y-77595000D01*
X86561852Y-77595000D01*
X86783537Y-77550904D01*
X87034929Y-77382929D01*
X87077331Y-77319470D01*
X87987473Y-76409329D01*
X88050929Y-76366929D01*
X88218904Y-76115537D01*
X88263000Y-75893852D01*
X88263000Y-75893847D01*
X88277888Y-75819000D01*
X88263000Y-75744153D01*
X88263000Y-75157015D01*
X89292400Y-75157015D01*
X89292400Y-75747785D01*
X89518478Y-76293585D01*
X89936215Y-76711322D01*
X90482015Y-76937400D01*
X91072785Y-76937400D01*
X91618585Y-76711322D01*
X92036322Y-76293585D01*
X92262400Y-75747785D01*
X92262400Y-75157015D01*
X95792400Y-75157015D01*
X95792400Y-75747785D01*
X96018478Y-76293585D01*
X96436215Y-76711322D01*
X96982015Y-76937400D01*
X97572785Y-76937400D01*
X98118585Y-76711322D01*
X98536322Y-76293585D01*
X98762400Y-75747785D01*
X98762400Y-75157015D01*
X98536322Y-74611215D01*
X98118585Y-74193478D01*
X97572785Y-73967400D01*
X96982015Y-73967400D01*
X96436215Y-74193478D01*
X96018478Y-74611215D01*
X95792400Y-75157015D01*
X92262400Y-75157015D01*
X92036322Y-74611215D01*
X91618585Y-74193478D01*
X91072785Y-73967400D01*
X90482015Y-73967400D01*
X89936215Y-74193478D01*
X89518478Y-74611215D01*
X89292400Y-75157015D01*
X88263000Y-75157015D01*
X88263000Y-73571079D01*
X88736961Y-73767400D01*
X89307839Y-73767400D01*
X89835262Y-73548934D01*
X90238934Y-73145262D01*
X90457400Y-72617839D01*
X90457400Y-72046961D01*
X97747400Y-72046961D01*
X97747400Y-72617839D01*
X97965866Y-73145262D01*
X98369538Y-73548934D01*
X98896961Y-73767400D01*
X99467839Y-73767400D01*
X99995262Y-73548934D01*
X100398934Y-73145262D01*
X100617400Y-72617839D01*
X100617400Y-72046961D01*
X100398934Y-71519538D01*
X99995262Y-71115866D01*
X99467839Y-70897400D01*
X98896961Y-70897400D01*
X98369538Y-71115866D01*
X97965866Y-71519538D01*
X97747400Y-72046961D01*
X90457400Y-72046961D01*
X90238934Y-71519538D01*
X89835262Y-71115866D01*
X89307839Y-70897400D01*
X88736961Y-70897400D01*
X88277074Y-71087892D01*
X88277888Y-71083800D01*
X88263000Y-71008952D01*
X88263000Y-71008948D01*
X88218904Y-70787263D01*
X88050929Y-70535871D01*
X87987473Y-70493471D01*
X87483065Y-69989063D01*
X86986531Y-69492530D01*
X86986529Y-69492527D01*
X86386402Y-68892400D01*
X92554960Y-68892400D01*
X92554960Y-70692400D01*
X92604243Y-70940165D01*
X92744591Y-71150209D01*
X92954635Y-71290557D01*
X93202400Y-71339840D01*
X95002400Y-71339840D01*
X95250165Y-71290557D01*
X95460209Y-71150209D01*
X95600557Y-70940165D01*
X95649840Y-70692400D01*
X95649840Y-68892400D01*
X95600557Y-68644635D01*
X95460209Y-68434591D01*
X95250165Y-68294243D01*
X95234492Y-68291125D01*
X95403710Y-68121907D01*
X95637400Y-67557730D01*
X95637400Y-66947070D01*
X95403710Y-66382893D01*
X94971907Y-65951090D01*
X94407730Y-65717400D01*
X93797070Y-65717400D01*
X93232893Y-65951090D01*
X92801090Y-66382893D01*
X92567400Y-66947070D01*
X92567400Y-67557730D01*
X92801090Y-68121907D01*
X92970308Y-68291125D01*
X92954635Y-68294243D01*
X92744591Y-68434591D01*
X92604243Y-68644635D01*
X92554960Y-68892400D01*
X86386402Y-68892400D01*
X85576531Y-68082530D01*
X85534129Y-68019071D01*
X85340027Y-67889376D01*
X85477400Y-67557730D01*
X85477400Y-66947070D01*
X85243710Y-66382893D01*
X84811907Y-65951090D01*
X84702400Y-65905731D01*
X84702400Y-65215646D01*
X84717288Y-65140799D01*
X84702400Y-65065952D01*
X84702400Y-65065948D01*
X84701504Y-65061441D01*
X87630486Y-65061441D01*
X87870011Y-65567534D01*
X88284977Y-65943441D01*
X88673361Y-66104304D01*
X88895400Y-65982315D01*
X88895400Y-64839400D01*
X89149400Y-64839400D01*
X89149400Y-65982315D01*
X89371439Y-66104304D01*
X89759823Y-65943441D01*
X90174789Y-65567534D01*
X90414314Y-65061441D01*
X97790486Y-65061441D01*
X98030011Y-65567534D01*
X98444977Y-65943441D01*
X98833361Y-66104304D01*
X99055400Y-65982315D01*
X99055400Y-64839400D01*
X99309400Y-64839400D01*
X99309400Y-65982315D01*
X99531439Y-66104304D01*
X99919823Y-65943441D01*
X100334789Y-65567534D01*
X100574314Y-65061441D01*
X100453029Y-64839400D01*
X99309400Y-64839400D01*
X99055400Y-64839400D01*
X97911771Y-64839400D01*
X97790486Y-65061441D01*
X90414314Y-65061441D01*
X90293029Y-64839400D01*
X89149400Y-64839400D01*
X88895400Y-64839400D01*
X87751771Y-64839400D01*
X87630486Y-65061441D01*
X84701504Y-65061441D01*
X84658304Y-64844263D01*
X84608683Y-64770000D01*
X84532729Y-64656326D01*
X84532727Y-64656324D01*
X84490329Y-64592871D01*
X84426876Y-64550473D01*
X84239762Y-64363359D01*
X87630486Y-64363359D01*
X87751771Y-64585400D01*
X88895400Y-64585400D01*
X88895400Y-63442485D01*
X89149400Y-63442485D01*
X89149400Y-64585400D01*
X90293029Y-64585400D01*
X90414314Y-64363359D01*
X97790486Y-64363359D01*
X97911771Y-64585400D01*
X99055400Y-64585400D01*
X99055400Y-63442485D01*
X99309400Y-63442485D01*
X99309400Y-64585400D01*
X100453029Y-64585400D01*
X100574314Y-64363359D01*
X100334789Y-63857266D01*
X99919823Y-63481359D01*
X99531439Y-63320496D01*
X99309400Y-63442485D01*
X99055400Y-63442485D01*
X98833361Y-63320496D01*
X98444977Y-63481359D01*
X98030011Y-63857266D01*
X97790486Y-64363359D01*
X90414314Y-64363359D01*
X90174789Y-63857266D01*
X89759823Y-63481359D01*
X89371439Y-63320496D01*
X89149400Y-63442485D01*
X88895400Y-63442485D01*
X88673361Y-63320496D01*
X88284977Y-63481359D01*
X87870011Y-63857266D01*
X87630486Y-64363359D01*
X84239762Y-64363359D01*
X80967319Y-61090917D01*
X81138667Y-61125000D01*
X81421333Y-61125000D01*
X81839909Y-61041740D01*
X82314577Y-60724577D01*
X82334804Y-60694305D01*
X82940271Y-61299773D01*
X82982671Y-61363229D01*
X83234063Y-61531204D01*
X83455748Y-61575300D01*
X83455752Y-61575300D01*
X83530600Y-61590188D01*
X83605448Y-61575300D01*
X95028953Y-61575300D01*
X95103800Y-61590188D01*
X95178647Y-61575300D01*
X95178652Y-61575300D01*
X95400337Y-61531204D01*
X95651729Y-61363229D01*
X95694131Y-61299770D01*
X100909173Y-56084729D01*
X100972629Y-56042329D01*
X101140604Y-55790937D01*
X101184700Y-55569252D01*
X101184700Y-55569247D01*
X101199588Y-55494400D01*
X101184700Y-55419553D01*
X101184700Y-35721484D01*
X101453744Y-35775000D01*
X101746256Y-35775000D01*
X102179418Y-35688839D01*
X102670625Y-35360625D01*
X102998839Y-34869418D01*
X103114092Y-34290000D01*
X102998839Y-33710582D01*
X102670625Y-33219375D01*
X102372239Y-33020000D01*
X102670625Y-32820625D01*
X102998839Y-32329418D01*
X103114092Y-31750000D01*
X102998839Y-31170582D01*
X102670625Y-30679375D01*
X102372239Y-30480000D01*
X102670625Y-30280625D01*
X102998839Y-29789418D01*
X103114092Y-29210000D01*
X102998839Y-28630582D01*
X102670625Y-28139375D01*
X102372239Y-27940000D01*
X102670625Y-27740625D01*
X102998839Y-27249418D01*
X103114092Y-26670000D01*
X102998839Y-26090582D01*
X102670625Y-25599375D01*
X102648967Y-25584904D01*
X102809698Y-25518327D01*
X102988327Y-25339699D01*
X103085000Y-25106310D01*
X103085000Y-24415750D01*
X102926250Y-24257000D01*
X101727000Y-24257000D01*
X101727000Y-24277000D01*
X101473000Y-24277000D01*
X101473000Y-24257000D01*
X100273750Y-24257000D01*
X100115000Y-24415750D01*
X100115000Y-25106310D01*
X100211673Y-25339699D01*
X100390302Y-25518327D01*
X100551033Y-25584904D01*
X100529375Y-25599375D01*
X100355231Y-25860000D01*
X97490513Y-25860000D01*
X96025420Y-24394907D01*
X96078113Y-24130000D01*
X95966740Y-23570091D01*
X95688510Y-23153690D01*
X100115000Y-23153690D01*
X100115000Y-23844250D01*
X100273750Y-24003000D01*
X101473000Y-24003000D01*
X101473000Y-22803750D01*
X101727000Y-22803750D01*
X101727000Y-24003000D01*
X102926250Y-24003000D01*
X103085000Y-23844250D01*
X103085000Y-23153690D01*
X102988327Y-22920301D01*
X102809698Y-22741673D01*
X102576309Y-22645000D01*
X101885750Y-22645000D01*
X101727000Y-22803750D01*
X101473000Y-22803750D01*
X101314250Y-22645000D01*
X100623691Y-22645000D01*
X100390302Y-22741673D01*
X100211673Y-22920301D01*
X100115000Y-23153690D01*
X95688510Y-23153690D01*
X95649577Y-23095423D01*
X95174909Y-22778260D01*
X94756333Y-22695000D01*
X94473667Y-22695000D01*
X94055091Y-22778260D01*
X93580423Y-23095423D01*
X93263260Y-23570091D01*
X93151887Y-24130000D01*
X93263260Y-24689909D01*
X93580423Y-25164577D01*
X93932758Y-25400000D01*
X93580423Y-25635423D01*
X93263260Y-26110091D01*
X93151887Y-26670000D01*
X93263260Y-27229909D01*
X93580423Y-27704577D01*
X93932758Y-27940000D01*
X93580423Y-28175423D01*
X93263260Y-28650091D01*
X93151887Y-29210000D01*
X93263260Y-29769909D01*
X93580423Y-30244577D01*
X93932758Y-30480000D01*
X93580423Y-30715423D01*
X93263260Y-31190091D01*
X93151887Y-31750000D01*
X93263260Y-32309909D01*
X93580423Y-32784577D01*
X93932758Y-33020000D01*
X93580423Y-33255423D01*
X93263260Y-33730091D01*
X93151887Y-34290000D01*
X93263260Y-34849909D01*
X93580423Y-35324577D01*
X93932758Y-35560000D01*
X93580423Y-35795423D01*
X93263260Y-36270091D01*
X93151887Y-36830000D01*
X93263260Y-37389909D01*
X93487937Y-37726162D01*
X93005228Y-38208871D01*
X92941772Y-38251271D01*
X92899372Y-38314727D01*
X92899371Y-38314728D01*
X92773797Y-38502663D01*
X92714812Y-38799200D01*
X92729701Y-38874052D01*
X92729700Y-51649898D01*
X91033200Y-49953399D01*
X91033200Y-32563047D01*
X91048088Y-32488200D01*
X91033200Y-32413353D01*
X91033200Y-32413348D01*
X90989104Y-32191663D01*
X90821129Y-31940271D01*
X90757673Y-31897871D01*
X88393688Y-29533887D01*
X88458113Y-29210000D01*
X88346740Y-28650091D01*
X88029577Y-28175423D01*
X87677242Y-27940000D01*
X88029577Y-27704577D01*
X88346740Y-27229909D01*
X88458113Y-26670000D01*
X88346740Y-26110091D01*
X88029577Y-25635423D01*
X87908894Y-25554785D01*
X88042765Y-25528157D01*
X88252809Y-25387809D01*
X88393157Y-25177765D01*
X88442440Y-24930000D01*
X88442440Y-23330000D01*
X88393157Y-23082235D01*
X88252809Y-22872191D01*
X88042765Y-22731843D01*
X87795000Y-22682560D01*
X86195000Y-22682560D01*
X85947235Y-22731843D01*
X85737191Y-22872191D01*
X85596843Y-23082235D01*
X85547560Y-23330000D01*
X85547560Y-24930000D01*
X85596843Y-25177765D01*
X85737191Y-25387809D01*
X85947235Y-25528157D01*
X86081106Y-25554785D01*
X85960423Y-25635423D01*
X85940196Y-25665694D01*
X82790531Y-22516030D01*
X82748129Y-22452571D01*
X82496737Y-22284596D01*
X82275052Y-22240500D01*
X82275047Y-22240500D01*
X82200200Y-22225612D01*
X82125353Y-22240500D01*
X59893448Y-22240500D01*
X59818600Y-22225612D01*
X59743752Y-22240500D01*
X59743748Y-22240500D01*
X59570205Y-22275020D01*
X59522062Y-22284596D01*
X59335018Y-22409576D01*
X59270671Y-22452571D01*
X59228271Y-22516027D01*
X56229930Y-25514369D01*
X56166471Y-25556771D01*
X55998496Y-25808164D01*
X55954400Y-26029849D01*
X55954400Y-26029853D01*
X55939512Y-26104700D01*
X55954400Y-26179547D01*
X55954400Y-27369106D01*
X55644577Y-26905423D01*
X55169909Y-26588260D01*
X54751333Y-26505000D01*
X54468667Y-26505000D01*
X54050091Y-26588260D01*
X53575423Y-26905423D01*
X53258260Y-27380091D01*
X53146887Y-27940000D01*
X53258260Y-28499909D01*
X53575423Y-28974577D01*
X53800000Y-29124635D01*
X53800001Y-30565365D01*
X53575423Y-30715423D01*
X53258260Y-31190091D01*
X53146887Y-31750000D01*
X53199580Y-32014907D01*
X48441727Y-36772761D01*
X48341740Y-36270091D01*
X48024577Y-35795423D01*
X47672242Y-35560000D01*
X48024577Y-35324577D01*
X48341740Y-34849909D01*
X48453113Y-34290000D01*
X48341740Y-33730091D01*
X48024577Y-33255423D01*
X47918082Y-33184265D01*
X48149698Y-33088327D01*
X48328327Y-32909699D01*
X48425000Y-32676310D01*
X48425000Y-32035750D01*
X48266250Y-31877000D01*
X47117000Y-31877000D01*
X47117000Y-31897000D01*
X46863000Y-31897000D01*
X46863000Y-31877000D01*
X45713750Y-31877000D01*
X45555000Y-32035750D01*
X45555000Y-32676310D01*
X45651673Y-32909699D01*
X45830302Y-33088327D01*
X46061918Y-33184265D01*
X45955423Y-33255423D01*
X45638260Y-33730091D01*
X45526887Y-34290000D01*
X43860000Y-34290000D01*
X43860000Y-30823690D01*
X45555000Y-30823690D01*
X45555000Y-31464250D01*
X45713750Y-31623000D01*
X46863000Y-31623000D01*
X46863000Y-30473750D01*
X47117000Y-30473750D01*
X47117000Y-31623000D01*
X48266250Y-31623000D01*
X48425000Y-31464250D01*
X48425000Y-30823690D01*
X48328327Y-30590301D01*
X48149698Y-30411673D01*
X47916309Y-30315000D01*
X47275750Y-30315000D01*
X47117000Y-30473750D01*
X46863000Y-30473750D01*
X46704250Y-30315000D01*
X46063691Y-30315000D01*
X45830302Y-30411673D01*
X45651673Y-30590301D01*
X45555000Y-30823690D01*
X43860000Y-30823690D01*
X43860000Y-28594255D01*
X43918527Y-28570012D01*
X44325012Y-28163527D01*
X44535832Y-27654561D01*
X45555000Y-27654561D01*
X45555000Y-28225439D01*
X45773466Y-28752862D01*
X46177138Y-29156534D01*
X46704561Y-29375000D01*
X47275439Y-29375000D01*
X47802862Y-29156534D01*
X48206534Y-28752862D01*
X48425000Y-28225439D01*
X48425000Y-27654561D01*
X48206534Y-27127138D01*
X47802862Y-26723466D01*
X47275439Y-26505000D01*
X46704561Y-26505000D01*
X46177138Y-26723466D01*
X45773466Y-27127138D01*
X45555000Y-27654561D01*
X44535832Y-27654561D01*
X44545000Y-27632428D01*
X44545000Y-27057572D01*
X44325012Y-26526473D01*
X43918527Y-26119988D01*
X43387428Y-25900000D01*
X42812572Y-25900000D01*
X42281473Y-26119988D01*
X41874988Y-26526473D01*
X41655000Y-27057572D01*
X32460000Y-27057572D01*
X32460000Y-24557572D01*
X36655000Y-24557572D01*
X36655000Y-25132428D01*
X36874988Y-25663527D01*
X37281473Y-26070012D01*
X37812572Y-26290000D01*
X38387428Y-26290000D01*
X38918527Y-26070012D01*
X39325012Y-25663527D01*
X39545000Y-25132428D01*
X39545000Y-24557572D01*
X39325012Y-24026473D01*
X39143100Y-23844561D01*
X45555000Y-23844561D01*
X45555000Y-24415439D01*
X45773466Y-24942862D01*
X46177138Y-25346534D01*
X46704561Y-25565000D01*
X47275439Y-25565000D01*
X47802862Y-25346534D01*
X48206534Y-24942862D01*
X48425000Y-24415439D01*
X48425000Y-24130000D01*
X53146887Y-24130000D01*
X53258260Y-24689909D01*
X53575423Y-25164577D01*
X54050091Y-25481740D01*
X54468667Y-25565000D01*
X54751333Y-25565000D01*
X55169909Y-25481740D01*
X55644577Y-25164577D01*
X55961740Y-24689909D01*
X56073113Y-24130000D01*
X55961740Y-23570091D01*
X55644577Y-23095423D01*
X55169909Y-22778260D01*
X54751333Y-22695000D01*
X54468667Y-22695000D01*
X54050091Y-22778260D01*
X53575423Y-23095423D01*
X53258260Y-23570091D01*
X53146887Y-24130000D01*
X48425000Y-24130000D01*
X48425000Y-23844561D01*
X48206534Y-23317138D01*
X47802862Y-22913466D01*
X47275439Y-22695000D01*
X46704561Y-22695000D01*
X46177138Y-22913466D01*
X45773466Y-23317138D01*
X45555000Y-23844561D01*
X39143100Y-23844561D01*
X38918527Y-23619988D01*
X38387428Y-23400000D01*
X37812572Y-23400000D01*
X37281473Y-23619988D01*
X36874988Y-24026473D01*
X36655000Y-24557572D01*
X32460000Y-24557572D01*
X32460000Y-18490000D01*
X107240000Y-18490000D01*
X107240001Y-85650000D01*
G36*
X79556701Y-62523903D02*
X79556701Y-63463498D01*
X79211439Y-63320496D01*
X78989400Y-63442485D01*
X78989400Y-64585400D01*
X79009400Y-64585400D01*
X79009400Y-64839400D01*
X78989400Y-64839400D01*
X78989400Y-65982315D01*
X79211439Y-66104304D01*
X79599823Y-65943441D01*
X79689048Y-65862615D01*
X79768771Y-65981929D01*
X79832230Y-66024331D01*
X82447564Y-68639665D01*
X82444243Y-68644635D01*
X82394960Y-68892400D01*
X82394960Y-70525158D01*
X76931243Y-65061441D01*
X77470486Y-65061441D01*
X77710011Y-65567534D01*
X78124977Y-65943441D01*
X78513361Y-66104304D01*
X78735400Y-65982315D01*
X78735400Y-64839400D01*
X77591771Y-64839400D01*
X77470486Y-65061441D01*
X76931243Y-65061441D01*
X76233161Y-64363359D01*
X77470486Y-64363359D01*
X77591771Y-64585400D01*
X78735400Y-64585400D01*
X78735400Y-63442485D01*
X78513361Y-63320496D01*
X78124977Y-63481359D01*
X77710011Y-63857266D01*
X77470486Y-64363359D01*
X76233161Y-64363359D01*
X75309000Y-63439199D01*
X75309000Y-62958848D01*
X75323888Y-62884000D01*
X75309000Y-62809152D01*
X75309000Y-62809148D01*
X75264904Y-62587463D01*
X75264904Y-62587462D01*
X75139329Y-62399527D01*
X75096929Y-62336071D01*
X75033473Y-62293671D01*
X73787002Y-61047200D01*
X73787002Y-60960630D01*
X74009041Y-61081914D01*
X74515134Y-60842389D01*
X74891041Y-60427423D01*
X75051904Y-60039039D01*
X74929915Y-59817000D01*
X73787000Y-59817000D01*
X73787000Y-59837000D01*
X73533000Y-59837000D01*
X73533000Y-59817000D01*
X73513000Y-59817000D01*
X73513000Y-59563000D01*
X73533000Y-59563000D01*
X73533000Y-59543000D01*
X73787000Y-59543000D01*
X73787000Y-59563000D01*
X74929915Y-59563000D01*
X75051904Y-59340961D01*
X74891041Y-58952577D01*
X74515134Y-58537611D01*
X74310892Y-58440947D01*
X74694577Y-58184577D01*
X74903981Y-57871182D01*
X79556701Y-62523903D01*
X79556701Y-62523903D01*
G37*
X79556701Y-62523903D02*
X79556701Y-63463498D01*
X79211439Y-63320496D01*
X78989400Y-63442485D01*
X78989400Y-64585400D01*
X79009400Y-64585400D01*
X79009400Y-64839400D01*
X78989400Y-64839400D01*
X78989400Y-65982315D01*
X79211439Y-66104304D01*
X79599823Y-65943441D01*
X79689048Y-65862615D01*
X79768771Y-65981929D01*
X79832230Y-66024331D01*
X82447564Y-68639665D01*
X82444243Y-68644635D01*
X82394960Y-68892400D01*
X82394960Y-70525158D01*
X76931243Y-65061441D01*
X77470486Y-65061441D01*
X77710011Y-65567534D01*
X78124977Y-65943441D01*
X78513361Y-66104304D01*
X78735400Y-65982315D01*
X78735400Y-64839400D01*
X77591771Y-64839400D01*
X77470486Y-65061441D01*
X76931243Y-65061441D01*
X76233161Y-64363359D01*
X77470486Y-64363359D01*
X77591771Y-64585400D01*
X78735400Y-64585400D01*
X78735400Y-63442485D01*
X78513361Y-63320496D01*
X78124977Y-63481359D01*
X77710011Y-63857266D01*
X77470486Y-64363359D01*
X76233161Y-64363359D01*
X75309000Y-63439199D01*
X75309000Y-62958848D01*
X75323888Y-62884000D01*
X75309000Y-62809152D01*
X75309000Y-62809148D01*
X75264904Y-62587463D01*
X75264904Y-62587462D01*
X75139329Y-62399527D01*
X75096929Y-62336071D01*
X75033473Y-62293671D01*
X73787002Y-61047200D01*
X73787002Y-60960630D01*
X74009041Y-61081914D01*
X74515134Y-60842389D01*
X74891041Y-60427423D01*
X75051904Y-60039039D01*
X74929915Y-59817000D01*
X73787000Y-59817000D01*
X73787000Y-59837000D01*
X73533000Y-59837000D01*
X73533000Y-59817000D01*
X73513000Y-59817000D01*
X73513000Y-59563000D01*
X73533000Y-59563000D01*
X73533000Y-59543000D01*
X73787000Y-59543000D01*
X73787000Y-59563000D01*
X74929915Y-59563000D01*
X75051904Y-59340961D01*
X74891041Y-58952577D01*
X74515134Y-58537611D01*
X74310892Y-58440947D01*
X74694577Y-58184577D01*
X74903981Y-57871182D01*
X79556701Y-62523903D01*
G36*
X82129071Y-48299929D02*
X82192530Y-48342331D01*
X85596312Y-51746114D01*
X85531887Y-52070000D01*
X85643260Y-52629909D01*
X85960423Y-53104577D01*
X86312758Y-53340000D01*
X85960423Y-53575423D01*
X85643260Y-54050091D01*
X85531887Y-54610000D01*
X85643260Y-55169909D01*
X85960423Y-55644577D01*
X86312758Y-55880000D01*
X85960423Y-56115423D01*
X85643260Y-56590091D01*
X85531887Y-57150000D01*
X85643260Y-57709909D01*
X85960423Y-58184577D01*
X86344108Y-58440947D01*
X86139866Y-58537611D01*
X85763959Y-58952577D01*
X85603096Y-59340961D01*
X85725085Y-59563000D01*
X86868000Y-59563000D01*
X86868000Y-59543000D01*
X87122000Y-59543000D01*
X87122000Y-59563000D01*
X88264915Y-59563000D01*
X88386904Y-59340961D01*
X88226041Y-58952577D01*
X87850134Y-58537611D01*
X87645892Y-58440947D01*
X88029577Y-58184577D01*
X88346740Y-57709909D01*
X88458113Y-57150000D01*
X88393688Y-56826114D01*
X89066673Y-56153129D01*
X89130129Y-56110729D01*
X89182843Y-56031837D01*
X89298104Y-55859338D01*
X89316596Y-55766371D01*
X89342200Y-55637652D01*
X89342200Y-55637648D01*
X89357088Y-55562800D01*
X89342200Y-55487952D01*
X89342200Y-52952001D01*
X93216312Y-56826114D01*
X93151887Y-57150000D01*
X93263260Y-57709909D01*
X93580423Y-58184577D01*
X93932758Y-58420000D01*
X93580423Y-58655423D01*
X93263260Y-59130091D01*
X93151887Y-59690000D01*
X93224550Y-60055300D01*
X88380169Y-60055300D01*
X88386904Y-60039039D01*
X88264915Y-59817000D01*
X87122000Y-59817000D01*
X87122000Y-59837000D01*
X86868000Y-59837000D01*
X86868000Y-59817000D01*
X85725085Y-59817000D01*
X85603096Y-60039039D01*
X85609831Y-60055300D01*
X83845402Y-60055300D01*
X82995631Y-59205530D01*
X82953229Y-59142071D01*
X82701837Y-58974096D01*
X82500786Y-58934104D01*
X82314577Y-58655423D01*
X81962242Y-58420000D01*
X82314577Y-58184577D01*
X82631740Y-57709909D01*
X82743113Y-57150000D01*
X82631740Y-56590091D01*
X82314577Y-56115423D01*
X81962242Y-55880000D01*
X82314577Y-55644577D01*
X82631740Y-55169909D01*
X82743113Y-54610000D01*
X82631740Y-54050091D01*
X82314577Y-53575423D01*
X81962242Y-53340000D01*
X82314577Y-53104577D01*
X82631740Y-52629909D01*
X82743113Y-52070000D01*
X82631740Y-51510091D01*
X82314577Y-51035423D01*
X81962242Y-50800000D01*
X82314577Y-50564577D01*
X82631740Y-50089909D01*
X82743113Y-49530000D01*
X82631740Y-48970091D01*
X82314577Y-48495423D01*
X81962242Y-48260000D01*
X82059133Y-48195259D01*
X82129071Y-48299929D01*
X82129071Y-48299929D01*
G37*
X82129071Y-48299929D02*
X82192530Y-48342331D01*
X85596312Y-51746114D01*
X85531887Y-52070000D01*
X85643260Y-52629909D01*
X85960423Y-53104577D01*
X86312758Y-53340000D01*
X85960423Y-53575423D01*
X85643260Y-54050091D01*
X85531887Y-54610000D01*
X85643260Y-55169909D01*
X85960423Y-55644577D01*
X86312758Y-55880000D01*
X85960423Y-56115423D01*
X85643260Y-56590091D01*
X85531887Y-57150000D01*
X85643260Y-57709909D01*
X85960423Y-58184577D01*
X86344108Y-58440947D01*
X86139866Y-58537611D01*
X85763959Y-58952577D01*
X85603096Y-59340961D01*
X85725085Y-59563000D01*
X86868000Y-59563000D01*
X86868000Y-59543000D01*
X87122000Y-59543000D01*
X87122000Y-59563000D01*
X88264915Y-59563000D01*
X88386904Y-59340961D01*
X88226041Y-58952577D01*
X87850134Y-58537611D01*
X87645892Y-58440947D01*
X88029577Y-58184577D01*
X88346740Y-57709909D01*
X88458113Y-57150000D01*
X88393688Y-56826114D01*
X89066673Y-56153129D01*
X89130129Y-56110729D01*
X89182843Y-56031837D01*
X89298104Y-55859338D01*
X89316596Y-55766371D01*
X89342200Y-55637652D01*
X89342200Y-55637648D01*
X89357088Y-55562800D01*
X89342200Y-55487952D01*
X89342200Y-52952001D01*
X93216312Y-56826114D01*
X93151887Y-57150000D01*
X93263260Y-57709909D01*
X93580423Y-58184577D01*
X93932758Y-58420000D01*
X93580423Y-58655423D01*
X93263260Y-59130091D01*
X93151887Y-59690000D01*
X93224550Y-60055300D01*
X88380169Y-60055300D01*
X88386904Y-60039039D01*
X88264915Y-59817000D01*
X87122000Y-59817000D01*
X87122000Y-59837000D01*
X86868000Y-59837000D01*
X86868000Y-59817000D01*
X85725085Y-59817000D01*
X85603096Y-60039039D01*
X85609831Y-60055300D01*
X83845402Y-60055300D01*
X82995631Y-59205530D01*
X82953229Y-59142071D01*
X82701837Y-58974096D01*
X82500786Y-58934104D01*
X82314577Y-58655423D01*
X81962242Y-58420000D01*
X82314577Y-58184577D01*
X82631740Y-57709909D01*
X82743113Y-57150000D01*
X82631740Y-56590091D01*
X82314577Y-56115423D01*
X81962242Y-55880000D01*
X82314577Y-55644577D01*
X82631740Y-55169909D01*
X82743113Y-54610000D01*
X82631740Y-54050091D01*
X82314577Y-53575423D01*
X81962242Y-53340000D01*
X82314577Y-53104577D01*
X82631740Y-52629909D01*
X82743113Y-52070000D01*
X82631740Y-51510091D01*
X82314577Y-51035423D01*
X81962242Y-50800000D01*
X82314577Y-50564577D01*
X82631740Y-50089909D01*
X82743113Y-49530000D01*
X82631740Y-48970091D01*
X82314577Y-48495423D01*
X81962242Y-48260000D01*
X82059133Y-48195259D01*
X82129071Y-48299929D01*
G36*
X65988498Y-41976699D02*
X65670548Y-41845000D01*
X65139452Y-41845000D01*
X64648783Y-42048242D01*
X64273242Y-42423783D01*
X64161721Y-42693017D01*
X64076042Y-42486169D01*
X63840275Y-42424331D01*
X63084605Y-43180000D01*
X63840275Y-43935669D01*
X64076042Y-43873831D01*
X64154775Y-43650212D01*
X64273242Y-43936217D01*
X64648783Y-44311758D01*
X65139452Y-44515000D01*
X65670548Y-44515000D01*
X66161217Y-44311758D01*
X66536758Y-43936217D01*
X66740000Y-43445548D01*
X66740000Y-42914452D01*
X66608301Y-42596502D01*
X70801201Y-46789403D01*
X70801200Y-54105253D01*
X70786312Y-54180100D01*
X70801200Y-54254947D01*
X70801200Y-54254951D01*
X70845296Y-54476636D01*
X71013271Y-54728029D01*
X71076730Y-54770431D01*
X72543831Y-56237533D01*
X72308260Y-56590091D01*
X72196887Y-57150000D01*
X72308260Y-57709909D01*
X72625423Y-58184577D01*
X73009108Y-58440947D01*
X72804866Y-58537611D01*
X72428959Y-58952577D01*
X72268096Y-59340961D01*
X72390084Y-59562998D01*
X72302800Y-59562998D01*
X68622782Y-55882980D01*
X68979577Y-55644577D01*
X69296740Y-55169909D01*
X69408113Y-54610000D01*
X69296740Y-54050091D01*
X68979577Y-53575423D01*
X68755000Y-53425365D01*
X68755000Y-51984635D01*
X68979577Y-51834577D01*
X69296740Y-51359909D01*
X69408113Y-50800000D01*
X69296740Y-50240091D01*
X68979577Y-49765423D01*
X68504909Y-49448260D01*
X68086333Y-49365000D01*
X67803667Y-49365000D01*
X67385091Y-49448260D01*
X66910423Y-49765423D01*
X66593260Y-50240091D01*
X66481887Y-50800000D01*
X66593260Y-51359909D01*
X66910423Y-51834577D01*
X67135000Y-51984635D01*
X67135001Y-53425365D01*
X66910423Y-53575423D01*
X66672020Y-53932218D01*
X61085000Y-48345199D01*
X61085000Y-44115275D01*
X62149331Y-44115275D01*
X62211169Y-44351042D01*
X62712122Y-44527419D01*
X63242440Y-44498664D01*
X63598831Y-44351042D01*
X63660669Y-44115275D01*
X62905000Y-43359605D01*
X62149331Y-44115275D01*
X61085000Y-44115275D01*
X61085000Y-42987122D01*
X61557581Y-42987122D01*
X61586336Y-43517440D01*
X61733958Y-43873831D01*
X61969725Y-43935669D01*
X62725395Y-43180000D01*
X61969725Y-42424331D01*
X61733958Y-42486169D01*
X61557581Y-42987122D01*
X61085000Y-42987122D01*
X61085000Y-42244725D01*
X62149331Y-42244725D01*
X62905000Y-43000395D01*
X63660669Y-42244725D01*
X63598831Y-42008958D01*
X63097878Y-41832581D01*
X62567560Y-41861336D01*
X62211169Y-42008958D01*
X62149331Y-42244725D01*
X61085000Y-42244725D01*
X61085000Y-40588043D01*
X61359577Y-40404577D01*
X61676740Y-39929909D01*
X61788113Y-39370000D01*
X61676740Y-38810091D01*
X61359577Y-38335423D01*
X61007242Y-38100000D01*
X61359577Y-37864577D01*
X61566578Y-37554779D01*
X65988498Y-41976699D01*
X65988498Y-41976699D01*
G37*
X65988498Y-41976699D02*
X65670548Y-41845000D01*
X65139452Y-41845000D01*
X64648783Y-42048242D01*
X64273242Y-42423783D01*
X64161721Y-42693017D01*
X64076042Y-42486169D01*
X63840275Y-42424331D01*
X63084605Y-43180000D01*
X63840275Y-43935669D01*
X64076042Y-43873831D01*
X64154775Y-43650212D01*
X64273242Y-43936217D01*
X64648783Y-44311758D01*
X65139452Y-44515000D01*
X65670548Y-44515000D01*
X66161217Y-44311758D01*
X66536758Y-43936217D01*
X66740000Y-43445548D01*
X66740000Y-42914452D01*
X66608301Y-42596502D01*
X70801201Y-46789403D01*
X70801200Y-54105253D01*
X70786312Y-54180100D01*
X70801200Y-54254947D01*
X70801200Y-54254951D01*
X70845296Y-54476636D01*
X71013271Y-54728029D01*
X71076730Y-54770431D01*
X72543831Y-56237533D01*
X72308260Y-56590091D01*
X72196887Y-57150000D01*
X72308260Y-57709909D01*
X72625423Y-58184577D01*
X73009108Y-58440947D01*
X72804866Y-58537611D01*
X72428959Y-58952577D01*
X72268096Y-59340961D01*
X72390084Y-59562998D01*
X72302800Y-59562998D01*
X68622782Y-55882980D01*
X68979577Y-55644577D01*
X69296740Y-55169909D01*
X69408113Y-54610000D01*
X69296740Y-54050091D01*
X68979577Y-53575423D01*
X68755000Y-53425365D01*
X68755000Y-51984635D01*
X68979577Y-51834577D01*
X69296740Y-51359909D01*
X69408113Y-50800000D01*
X69296740Y-50240091D01*
X68979577Y-49765423D01*
X68504909Y-49448260D01*
X68086333Y-49365000D01*
X67803667Y-49365000D01*
X67385091Y-49448260D01*
X66910423Y-49765423D01*
X66593260Y-50240091D01*
X66481887Y-50800000D01*
X66593260Y-51359909D01*
X66910423Y-51834577D01*
X67135000Y-51984635D01*
X67135001Y-53425365D01*
X66910423Y-53575423D01*
X66672020Y-53932218D01*
X61085000Y-48345199D01*
X61085000Y-44115275D01*
X62149331Y-44115275D01*
X62211169Y-44351042D01*
X62712122Y-44527419D01*
X63242440Y-44498664D01*
X63598831Y-44351042D01*
X63660669Y-44115275D01*
X62905000Y-43359605D01*
X62149331Y-44115275D01*
X61085000Y-44115275D01*
X61085000Y-42987122D01*
X61557581Y-42987122D01*
X61586336Y-43517440D01*
X61733958Y-43873831D01*
X61969725Y-43935669D01*
X62725395Y-43180000D01*
X61969725Y-42424331D01*
X61733958Y-42486169D01*
X61557581Y-42987122D01*
X61085000Y-42987122D01*
X61085000Y-42244725D01*
X62149331Y-42244725D01*
X62905000Y-43000395D01*
X63660669Y-42244725D01*
X63598831Y-42008958D01*
X63097878Y-41832581D01*
X62567560Y-41861336D01*
X62211169Y-42008958D01*
X62149331Y-42244725D01*
X61085000Y-42244725D01*
X61085000Y-40588043D01*
X61359577Y-40404577D01*
X61676740Y-39929909D01*
X61788113Y-39370000D01*
X61676740Y-38810091D01*
X61359577Y-38335423D01*
X61007242Y-38100000D01*
X61359577Y-37864577D01*
X61566578Y-37554779D01*
X65988498Y-41976699D01*
G36*
X60039561Y-56045000D02*
X60610439Y-56045000D01*
X60663302Y-56023104D01*
X60690301Y-56050103D01*
X60690301Y-56985000D01*
X60610750Y-56985000D01*
X60452000Y-57143750D01*
X60452000Y-58293000D01*
X60472000Y-58293000D01*
X60472000Y-58547000D01*
X60452000Y-58547000D01*
X60452000Y-58567000D01*
X60198000Y-58567000D01*
X60198000Y-58547000D01*
X60178000Y-58547000D01*
X60178000Y-58293000D01*
X60198000Y-58293000D01*
X60198000Y-57143750D01*
X60039250Y-56985000D01*
X59934300Y-56985000D01*
X59934300Y-56001399D01*
X60039561Y-56045000D01*
X60039561Y-56045000D01*
G37*
X60039561Y-56045000D02*
X60610439Y-56045000D01*
X60663302Y-56023104D01*
X60690301Y-56050103D01*
X60690301Y-56985000D01*
X60610750Y-56985000D01*
X60452000Y-57143750D01*
X60452000Y-58293000D01*
X60472000Y-58293000D01*
X60472000Y-58547000D01*
X60452000Y-58547000D01*
X60452000Y-58567000D01*
X60198000Y-58567000D01*
X60198000Y-58547000D01*
X60178000Y-58547000D01*
X60178000Y-58293000D01*
X60198000Y-58293000D01*
X60198000Y-57143750D01*
X60039250Y-56985000D01*
X59934300Y-56985000D01*
X59934300Y-56001399D01*
X60039561Y-56045000D01*
G36*
X53258260Y-34849909D02*
X53575423Y-35324577D01*
X53927758Y-35560000D01*
X53575423Y-35795423D01*
X53258260Y-36270091D01*
X53146887Y-36830000D01*
X53258260Y-37389909D01*
X53575423Y-37864577D01*
X53927758Y-38100000D01*
X53575423Y-38335423D01*
X53258260Y-38810091D01*
X53146887Y-39370000D01*
X53258260Y-39929909D01*
X53575423Y-40404577D01*
X53692435Y-40482762D01*
X52330198Y-41845000D01*
X51804452Y-41845000D01*
X51313783Y-42048242D01*
X50938242Y-42423783D01*
X50826721Y-42693017D01*
X50741042Y-42486169D01*
X50505275Y-42424331D01*
X49749605Y-43180000D01*
X50505275Y-43935669D01*
X50741042Y-43873831D01*
X50819775Y-43650212D01*
X50938242Y-43936217D01*
X51313783Y-44311758D01*
X51804452Y-44515000D01*
X52335548Y-44515000D01*
X52826217Y-44311758D01*
X53201758Y-43936217D01*
X53405000Y-43445548D01*
X53405000Y-42919802D01*
X54975301Y-41349502D01*
X54975301Y-45549897D01*
X54948302Y-45576896D01*
X54895439Y-45555000D01*
X54324561Y-45555000D01*
X53797138Y-45773466D01*
X53393466Y-46177138D01*
X53175000Y-46704561D01*
X53175000Y-47275439D01*
X53393466Y-47802862D01*
X53797138Y-48206534D01*
X54324561Y-48425000D01*
X54895439Y-48425000D01*
X55422862Y-48206534D01*
X55826534Y-47802862D01*
X55954400Y-47494165D01*
X55954401Y-50295835D01*
X55826534Y-49987138D01*
X55422862Y-49583466D01*
X54895439Y-49365000D01*
X54324561Y-49365000D01*
X54321699Y-49366186D01*
X49477489Y-44521977D01*
X49907440Y-44498664D01*
X50263831Y-44351042D01*
X50325669Y-44115275D01*
X49570000Y-43359605D01*
X49555858Y-43373748D01*
X49376252Y-43194142D01*
X49390395Y-43180000D01*
X49376252Y-43165858D01*
X49555858Y-42986252D01*
X49570000Y-43000395D01*
X50325669Y-42244725D01*
X50263831Y-42008958D01*
X49762878Y-41832581D01*
X49232560Y-41861336D01*
X48975300Y-41967897D01*
X48975300Y-39449773D01*
X48991168Y-39370000D01*
X48975300Y-39290226D01*
X48975300Y-38530212D01*
X53158273Y-34347240D01*
X53258260Y-34849909D01*
X53258260Y-34849909D01*
G37*
X53258260Y-34849909D02*
X53575423Y-35324577D01*
X53927758Y-35560000D01*
X53575423Y-35795423D01*
X53258260Y-36270091D01*
X53146887Y-36830000D01*
X53258260Y-37389909D01*
X53575423Y-37864577D01*
X53927758Y-38100000D01*
X53575423Y-38335423D01*
X53258260Y-38810091D01*
X53146887Y-39370000D01*
X53258260Y-39929909D01*
X53575423Y-40404577D01*
X53692435Y-40482762D01*
X52330198Y-41845000D01*
X51804452Y-41845000D01*
X51313783Y-42048242D01*
X50938242Y-42423783D01*
X50826721Y-42693017D01*
X50741042Y-42486169D01*
X50505275Y-42424331D01*
X49749605Y-43180000D01*
X50505275Y-43935669D01*
X50741042Y-43873831D01*
X50819775Y-43650212D01*
X50938242Y-43936217D01*
X51313783Y-44311758D01*
X51804452Y-44515000D01*
X52335548Y-44515000D01*
X52826217Y-44311758D01*
X53201758Y-43936217D01*
X53405000Y-43445548D01*
X53405000Y-42919802D01*
X54975301Y-41349502D01*
X54975301Y-45549897D01*
X54948302Y-45576896D01*
X54895439Y-45555000D01*
X54324561Y-45555000D01*
X53797138Y-45773466D01*
X53393466Y-46177138D01*
X53175000Y-46704561D01*
X53175000Y-47275439D01*
X53393466Y-47802862D01*
X53797138Y-48206534D01*
X54324561Y-48425000D01*
X54895439Y-48425000D01*
X55422862Y-48206534D01*
X55826534Y-47802862D01*
X55954400Y-47494165D01*
X55954401Y-50295835D01*
X55826534Y-49987138D01*
X55422862Y-49583466D01*
X54895439Y-49365000D01*
X54324561Y-49365000D01*
X54321699Y-49366186D01*
X49477489Y-44521977D01*
X49907440Y-44498664D01*
X50263831Y-44351042D01*
X50325669Y-44115275D01*
X49570000Y-43359605D01*
X49555858Y-43373748D01*
X49376252Y-43194142D01*
X49390395Y-43180000D01*
X49376252Y-43165858D01*
X49555858Y-42986252D01*
X49570000Y-43000395D01*
X50325669Y-42244725D01*
X50263831Y-42008958D01*
X49762878Y-41832581D01*
X49232560Y-41861336D01*
X48975300Y-41967897D01*
X48975300Y-39449773D01*
X48991168Y-39370000D01*
X48975300Y-39290226D01*
X48975300Y-38530212D01*
X53158273Y-34347240D01*
X53258260Y-34849909D01*
G36*
X66481887Y-24130000D02*
X66593260Y-24689909D01*
X66910423Y-25164577D01*
X67385091Y-25481740D01*
X67803667Y-25565000D01*
X68086333Y-25565000D01*
X68504909Y-25481740D01*
X68979577Y-25164577D01*
X69296740Y-24689909D01*
X69408113Y-24130000D01*
X69334615Y-23760500D01*
X72212560Y-23760500D01*
X72212560Y-24930000D01*
X72261843Y-25177765D01*
X72402191Y-25387809D01*
X72612235Y-25528157D01*
X72746106Y-25554785D01*
X72625423Y-25635423D01*
X72308260Y-26110091D01*
X72196887Y-26670000D01*
X72308260Y-27229909D01*
X72625423Y-27704577D01*
X72977758Y-27940000D01*
X72625423Y-28175423D01*
X72308260Y-28650091D01*
X72196887Y-29210000D01*
X72308260Y-29769909D01*
X72625423Y-30244577D01*
X72977758Y-30480000D01*
X72625423Y-30715423D01*
X72308260Y-31190091D01*
X72196887Y-31750000D01*
X72308260Y-32309909D01*
X72625423Y-32784577D01*
X72977758Y-33020000D01*
X72625423Y-33255423D01*
X72308260Y-33730091D01*
X72196887Y-34290000D01*
X72261312Y-34613886D01*
X71599828Y-35275371D01*
X71536372Y-35317771D01*
X71493972Y-35381227D01*
X71493971Y-35381228D01*
X71368397Y-35569163D01*
X71309412Y-35865700D01*
X71324301Y-35940552D01*
X71324300Y-45162899D01*
X65531401Y-39370000D01*
X66481887Y-39370000D01*
X66593260Y-39929909D01*
X66910423Y-40404577D01*
X67385091Y-40721740D01*
X67803667Y-40805000D01*
X68086333Y-40805000D01*
X68504909Y-40721740D01*
X68979577Y-40404577D01*
X69296740Y-39929909D01*
X69408113Y-39370000D01*
X69296740Y-38810091D01*
X68979577Y-38335423D01*
X68595892Y-38079053D01*
X68800134Y-37982389D01*
X69176041Y-37567423D01*
X69336904Y-37179039D01*
X69214915Y-36957000D01*
X68072000Y-36957000D01*
X68072000Y-36977000D01*
X67818000Y-36977000D01*
X67818000Y-36957000D01*
X66675085Y-36957000D01*
X66553096Y-37179039D01*
X66713959Y-37567423D01*
X67089866Y-37982389D01*
X67294108Y-38079053D01*
X66910423Y-38335423D01*
X66593260Y-38810091D01*
X66481887Y-39370000D01*
X65531401Y-39370000D01*
X62210300Y-36048899D01*
X62210300Y-34364851D01*
X62225189Y-34290000D01*
X62210300Y-34215148D01*
X62210300Y-29140148D01*
X62225188Y-29065300D01*
X62210300Y-28990452D01*
X62210300Y-28990448D01*
X62166204Y-28768763D01*
X61998229Y-28517371D01*
X61934773Y-28474971D01*
X61738104Y-28278302D01*
X61760000Y-28225439D01*
X61760000Y-27940000D01*
X66481887Y-27940000D01*
X66593260Y-28499909D01*
X66910423Y-28974577D01*
X67135001Y-29124635D01*
X67135000Y-30565365D01*
X66910423Y-30715423D01*
X66593260Y-31190091D01*
X66481887Y-31750000D01*
X66593260Y-32309909D01*
X66910423Y-32784577D01*
X67262758Y-33020000D01*
X66910423Y-33255423D01*
X66593260Y-33730091D01*
X66481887Y-34290000D01*
X66593260Y-34849909D01*
X66910423Y-35324577D01*
X67294108Y-35580947D01*
X67089866Y-35677611D01*
X66713959Y-36092577D01*
X66553096Y-36480961D01*
X66675085Y-36703000D01*
X67818000Y-36703000D01*
X67818000Y-36683000D01*
X68072000Y-36683000D01*
X68072000Y-36703000D01*
X69214915Y-36703000D01*
X69336904Y-36480961D01*
X69176041Y-36092577D01*
X68800134Y-35677611D01*
X68595892Y-35580947D01*
X68979577Y-35324577D01*
X69296740Y-34849909D01*
X69408113Y-34290000D01*
X69296740Y-33730091D01*
X68979577Y-33255423D01*
X68627242Y-33020000D01*
X68979577Y-32784577D01*
X69296740Y-32309909D01*
X69408113Y-31750000D01*
X69296740Y-31190091D01*
X68979577Y-30715423D01*
X68755000Y-30565365D01*
X68755000Y-29124635D01*
X68979577Y-28974577D01*
X69296740Y-28499909D01*
X69408113Y-27940000D01*
X69296740Y-27380091D01*
X68979577Y-26905423D01*
X68504909Y-26588260D01*
X68086333Y-26505000D01*
X67803667Y-26505000D01*
X67385091Y-26588260D01*
X66910423Y-26905423D01*
X66593260Y-27380091D01*
X66481887Y-27940000D01*
X61760000Y-27940000D01*
X61760000Y-27654561D01*
X61541534Y-27127138D01*
X61137862Y-26723466D01*
X60610439Y-26505000D01*
X60039561Y-26505000D01*
X59959700Y-26538080D01*
X59959700Y-25570101D01*
X59986698Y-25543103D01*
X60039561Y-25565000D01*
X60610439Y-25565000D01*
X61137862Y-25346534D01*
X61541534Y-24942862D01*
X61760000Y-24415439D01*
X61760000Y-23844561D01*
X61725181Y-23760500D01*
X66555385Y-23760500D01*
X66481887Y-24130000D01*
X66481887Y-24130000D01*
G37*
X66481887Y-24130000D02*
X66593260Y-24689909D01*
X66910423Y-25164577D01*
X67385091Y-25481740D01*
X67803667Y-25565000D01*
X68086333Y-25565000D01*
X68504909Y-25481740D01*
X68979577Y-25164577D01*
X69296740Y-24689909D01*
X69408113Y-24130000D01*
X69334615Y-23760500D01*
X72212560Y-23760500D01*
X72212560Y-24930000D01*
X72261843Y-25177765D01*
X72402191Y-25387809D01*
X72612235Y-25528157D01*
X72746106Y-25554785D01*
X72625423Y-25635423D01*
X72308260Y-26110091D01*
X72196887Y-26670000D01*
X72308260Y-27229909D01*
X72625423Y-27704577D01*
X72977758Y-27940000D01*
X72625423Y-28175423D01*
X72308260Y-28650091D01*
X72196887Y-29210000D01*
X72308260Y-29769909D01*
X72625423Y-30244577D01*
X72977758Y-30480000D01*
X72625423Y-30715423D01*
X72308260Y-31190091D01*
X72196887Y-31750000D01*
X72308260Y-32309909D01*
X72625423Y-32784577D01*
X72977758Y-33020000D01*
X72625423Y-33255423D01*
X72308260Y-33730091D01*
X72196887Y-34290000D01*
X72261312Y-34613886D01*
X71599828Y-35275371D01*
X71536372Y-35317771D01*
X71493972Y-35381227D01*
X71493971Y-35381228D01*
X71368397Y-35569163D01*
X71309412Y-35865700D01*
X71324301Y-35940552D01*
X71324300Y-45162899D01*
X65531401Y-39370000D01*
X66481887Y-39370000D01*
X66593260Y-39929909D01*
X66910423Y-40404577D01*
X67385091Y-40721740D01*
X67803667Y-40805000D01*
X68086333Y-40805000D01*
X68504909Y-40721740D01*
X68979577Y-40404577D01*
X69296740Y-39929909D01*
X69408113Y-39370000D01*
X69296740Y-38810091D01*
X68979577Y-38335423D01*
X68595892Y-38079053D01*
X68800134Y-37982389D01*
X69176041Y-37567423D01*
X69336904Y-37179039D01*
X69214915Y-36957000D01*
X68072000Y-36957000D01*
X68072000Y-36977000D01*
X67818000Y-36977000D01*
X67818000Y-36957000D01*
X66675085Y-36957000D01*
X66553096Y-37179039D01*
X66713959Y-37567423D01*
X67089866Y-37982389D01*
X67294108Y-38079053D01*
X66910423Y-38335423D01*
X66593260Y-38810091D01*
X66481887Y-39370000D01*
X65531401Y-39370000D01*
X62210300Y-36048899D01*
X62210300Y-34364851D01*
X62225189Y-34290000D01*
X62210300Y-34215148D01*
X62210300Y-29140148D01*
X62225188Y-29065300D01*
X62210300Y-28990452D01*
X62210300Y-28990448D01*
X62166204Y-28768763D01*
X61998229Y-28517371D01*
X61934773Y-28474971D01*
X61738104Y-28278302D01*
X61760000Y-28225439D01*
X61760000Y-27940000D01*
X66481887Y-27940000D01*
X66593260Y-28499909D01*
X66910423Y-28974577D01*
X67135001Y-29124635D01*
X67135000Y-30565365D01*
X66910423Y-30715423D01*
X66593260Y-31190091D01*
X66481887Y-31750000D01*
X66593260Y-32309909D01*
X66910423Y-32784577D01*
X67262758Y-33020000D01*
X66910423Y-33255423D01*
X66593260Y-33730091D01*
X66481887Y-34290000D01*
X66593260Y-34849909D01*
X66910423Y-35324577D01*
X67294108Y-35580947D01*
X67089866Y-35677611D01*
X66713959Y-36092577D01*
X66553096Y-36480961D01*
X66675085Y-36703000D01*
X67818000Y-36703000D01*
X67818000Y-36683000D01*
X68072000Y-36683000D01*
X68072000Y-36703000D01*
X69214915Y-36703000D01*
X69336904Y-36480961D01*
X69176041Y-36092577D01*
X68800134Y-35677611D01*
X68595892Y-35580947D01*
X68979577Y-35324577D01*
X69296740Y-34849909D01*
X69408113Y-34290000D01*
X69296740Y-33730091D01*
X68979577Y-33255423D01*
X68627242Y-33020000D01*
X68979577Y-32784577D01*
X69296740Y-32309909D01*
X69408113Y-31750000D01*
X69296740Y-31190091D01*
X68979577Y-30715423D01*
X68755000Y-30565365D01*
X68755000Y-29124635D01*
X68979577Y-28974577D01*
X69296740Y-28499909D01*
X69408113Y-27940000D01*
X69296740Y-27380091D01*
X68979577Y-26905423D01*
X68504909Y-26588260D01*
X68086333Y-26505000D01*
X67803667Y-26505000D01*
X67385091Y-26588260D01*
X66910423Y-26905423D01*
X66593260Y-27380091D01*
X66481887Y-27940000D01*
X61760000Y-27940000D01*
X61760000Y-27654561D01*
X61541534Y-27127138D01*
X61137862Y-26723466D01*
X60610439Y-26505000D01*
X60039561Y-26505000D01*
X59959700Y-26538080D01*
X59959700Y-25570101D01*
X59986698Y-25543103D01*
X60039561Y-25565000D01*
X60610439Y-25565000D01*
X61137862Y-25346534D01*
X61541534Y-24942862D01*
X61760000Y-24415439D01*
X61760000Y-23844561D01*
X61725181Y-23760500D01*
X66555385Y-23760500D01*
X66481887Y-24130000D01*
G36*
X73787000Y-39243000D02*
X73807000Y-39243000D01*
X73807000Y-39497000D01*
X73787000Y-39497000D01*
X73787000Y-40640629D01*
X74009041Y-40761914D01*
X74025300Y-40754219D01*
X74025300Y-43002560D01*
X72860000Y-43002560D01*
X72844300Y-43005683D01*
X72844300Y-40541052D01*
X73310959Y-40761914D01*
X73533000Y-40640629D01*
X73533000Y-39497000D01*
X73513000Y-39497000D01*
X73513000Y-39243000D01*
X73533000Y-39243000D01*
X73533000Y-39223000D01*
X73787000Y-39223000D01*
X73787000Y-39243000D01*
X73787000Y-39243000D01*
G37*
X73787000Y-39243000D02*
X73807000Y-39243000D01*
X73807000Y-39497000D01*
X73787000Y-39497000D01*
X73787000Y-40640629D01*
X74009041Y-40761914D01*
X74025300Y-40754219D01*
X74025300Y-43002560D01*
X72860000Y-43002560D01*
X72844300Y-43005683D01*
X72844300Y-40541052D01*
X73310959Y-40761914D01*
X73533000Y-40640629D01*
X73533000Y-39497000D01*
X73513000Y-39497000D01*
X73513000Y-39243000D01*
X73533000Y-39243000D01*
X73533000Y-39223000D01*
X73787000Y-39223000D01*
X73787000Y-39243000D01*
G36*
X87122000Y-39243000D02*
X87142000Y-39243000D01*
X87142000Y-39497000D01*
X87122000Y-39497000D01*
X87122000Y-40640629D01*
X87344041Y-40761914D01*
X87371800Y-40748776D01*
X87371800Y-43002560D01*
X86629700Y-43002560D01*
X86629700Y-40754219D01*
X86645959Y-40761914D01*
X86868000Y-40640629D01*
X86868000Y-39497000D01*
X86848000Y-39497000D01*
X86848000Y-39243000D01*
X86868000Y-39243000D01*
X86868000Y-39223000D01*
X87122000Y-39223000D01*
X87122000Y-39243000D01*
X87122000Y-39243000D01*
G37*
X87122000Y-39243000D02*
X87142000Y-39243000D01*
X87142000Y-39497000D01*
X87122000Y-39497000D01*
X87122000Y-40640629D01*
X87344041Y-40761914D01*
X87371800Y-40748776D01*
X87371800Y-43002560D01*
X86629700Y-43002560D01*
X86629700Y-40754219D01*
X86645959Y-40761914D01*
X86868000Y-40640629D01*
X86868000Y-39497000D01*
X86848000Y-39497000D01*
X86848000Y-39243000D01*
X86868000Y-39243000D01*
X86868000Y-39223000D01*
X87122000Y-39223000D01*
X87122000Y-39243000D01*
G36*
X60039561Y-29375000D02*
X60610439Y-29375000D01*
X60663302Y-29353104D01*
X60690301Y-29380103D01*
X60690301Y-30315000D01*
X60610750Y-30315000D01*
X60452000Y-30473750D01*
X60452000Y-31623000D01*
X60472000Y-31623000D01*
X60472000Y-31877000D01*
X60452000Y-31877000D01*
X60452000Y-31897000D01*
X60198000Y-31897000D01*
X60198000Y-31877000D01*
X60178000Y-31877000D01*
X60178000Y-31623000D01*
X60198000Y-31623000D01*
X60198000Y-30473750D01*
X60039250Y-30315000D01*
X59959700Y-30315000D01*
X59959700Y-29341920D01*
X60039561Y-29375000D01*
X60039561Y-29375000D01*
G37*
X60039561Y-29375000D02*
X60610439Y-29375000D01*
X60663302Y-29353104D01*
X60690301Y-29380103D01*
X60690301Y-30315000D01*
X60610750Y-30315000D01*
X60452000Y-30473750D01*
X60452000Y-31623000D01*
X60472000Y-31623000D01*
X60472000Y-31877000D01*
X60452000Y-31877000D01*
X60452000Y-31897000D01*
X60198000Y-31897000D01*
X60198000Y-31877000D01*
X60178000Y-31877000D01*
X60178000Y-31623000D01*
X60198000Y-31623000D01*
X60198000Y-30473750D01*
X60039250Y-30315000D01*
X59959700Y-30315000D01*
X59959700Y-29341920D01*
X60039561Y-29375000D01*
G04 #@! TD*
M02*
