M48
; DRILL file {KiCad (5.1.2)-2} date 09/02/19 15:21:06
; FORMAT={-:-/ absolute / inch / decimal}
; #@! TF.CreationDate,2019-09-02T15:21:06+02:00
; #@! TF.GenerationSoftware,Kicad,Pcbnew,(5.1.2)-2
; #@! TF.FileFunction,Plated,1,2,PTH
FMAT,2
INCH
T1C0.0157
T2C0.0315
T3C0.0394
%
G90
G05
T1
X1.2356Y-4.4471
X1.2634Y-4.725
X1.2822Y-4.8187
X1.5183Y-4.9272
X1.5928Y-5.3524
X1.6293Y-5.1251
X1.6735Y-4.2008
X1.6822Y-5.3273
X1.6914Y-4.375
X1.7093Y-3.6178
X1.7318Y-3.6714
X1.9997Y-2.1811
X2.4815Y-4.3435
X2.5037Y-1.911
X2.6037Y-5.4421
X2.7831Y-4.4255
X2.9409Y-4.0988
X2.9946Y-4.1865
X3.058Y-2.6701
X3.12Y-2.1816
X3.3503Y-2.4707
X3.5115Y-1.8543
X3.5659Y-4.0886
X3.6472Y-2.2339
X3.7499Y-2.2517
X3.8395Y-3.6079
X3.9143Y-2.3785
X3.9539Y-3.432
X3.9972Y-4.3736
X4.0158Y-3.402
X4.0758Y-3.1795
X4.1601Y-2.3571
X4.3407Y-4.4362
X4.475Y-4.3906
X4.5213Y-4.3849
X4.636Y-5.1176
X4.6603Y-2.3075
X4.7046Y-3.4056
X4.7315Y-2.2891
X4.8396Y-4.2398
X4.8504Y-4.9068
X4.9899Y-3.5763
X4.9934Y-2.5947
X5.0477Y-2.3531
X5.1091Y-2.1058
X5.1672Y-3.5462
X5.1693Y-4.2588
X5.2372Y-1.841
X5.3106Y-2.0869
X5.3192Y-1.8629
X5.3618Y-1.8442
X5.4095Y-1.8196
X5.4248Y-3.4007
X5.4313Y-3.2733
X5.4447Y-2.3058
X5.4631Y-3.097
X5.467Y-1.6939
X5.4841Y-2.3004
X5.5178Y-4.3659
X5.525Y-1.7798
X5.5897Y-4.2936
X5.7406Y-1.9308
X5.8291Y-2.1795
X5.8987Y-2.8926
X6.1288Y-3.5595
X6.1393Y-2.3653
X6.2062Y-2.301
X6.2367Y-2.4499
X6.2421Y-2.7805
X6.2904Y-2.1966
X6.3745Y-3.6052
X6.4379Y-2.3774
X6.4397Y-3.6146
X6.5492Y-3.85
X6.5492Y-3.9981
X6.5971Y-3.325
X6.6088Y-4.1987
X6.6653Y-4.5752
X6.7708Y-4.6007
X6.7775Y-4.109
X6.8093Y-2.9891
X6.8173Y-1.8238
X6.822Y-4.2218
X6.8779Y-3.2011
X6.9285Y-3.7633
X6.929Y-3.3386
X6.9634Y-3.5719
X6.974Y-3.0165
X6.9807Y-4.707
X6.9966Y-2.373
X7.1707Y-4.1083
X7.2192Y-4.2632
X7.2298Y-1.5537
X7.3497Y-2.1255
X7.6581Y-2.7929
T2
X5.85Y-2.825
X5.85Y-2.925
X5.85Y-3.025
X5.85Y-3.125
X5.85Y-3.225
X5.85Y-3.325
X5.85Y-3.425
X6.15Y-2.825
X6.15Y-2.925
X6.15Y-3.025
X6.15Y-3.125
X6.15Y-3.225
X6.15Y-3.325
X6.15Y-3.425
X3.025Y-4.7
X3.025Y-4.8
X3.025Y-4.9
X3.025Y-5.0
X3.025Y-5.1
X3.025Y-5.2
X3.025Y-5.3
X3.325Y-4.7
X3.325Y-4.8
X3.325Y-4.9
X3.325Y-5.0
X3.325Y-5.1
X3.325Y-5.2
X3.325Y-5.3
X1.7Y-1.5
X1.7Y-1.8
X2.0Y-1.5
X2.0Y-1.8
X6.475Y-2.025
X6.575Y-2.025
X6.675Y-2.025
X6.775Y-2.025
X6.875Y-2.025
X6.975Y-2.025
X7.075Y-2.025
X7.175Y-2.025
X7.275Y-2.025
X3.275Y-2.425
X3.275Y-2.525
X3.275Y-2.625
X3.275Y-2.725
X3.275Y-2.825
X3.275Y-2.925
X3.275Y-3.025
X3.275Y-3.125
X3.275Y-3.225
X3.275Y-3.325
X3.575Y-2.425
X3.575Y-2.525
X3.575Y-2.625
X3.575Y-2.725
X3.575Y-2.825
X3.575Y-2.925
X3.575Y-3.025
X3.575Y-3.125
X3.575Y-3.225
X3.575Y-3.325
X7.2Y-2.25
X7.2Y-2.55
X7.3Y-2.25
X7.3Y-2.55
X7.4Y-2.25
X7.4Y-2.55
X7.5Y-2.25
X7.5Y-2.55
X7.6Y-2.25
X7.6Y-2.55
X7.7Y-2.25
X7.7Y-2.55
X7.8Y-2.25
X7.8Y-2.55
X3.55Y-1.3
X3.65Y-1.3
X3.75Y-1.3
X3.85Y-1.3
X3.95Y-1.3
X4.05Y-1.3
X4.15Y-1.3
X4.25Y-1.3
X4.35Y-1.3
X6.4Y-3.75
X6.4Y-3.85
X6.4Y-3.95
X6.4Y-4.05
X6.4Y-4.15
X6.4Y-4.25
X6.4Y-4.35
X6.4Y-4.45
X6.7Y-3.75
X6.7Y-3.85
X6.7Y-3.95
X6.7Y-4.05
X6.7Y-4.15
X6.7Y-4.25
X6.7Y-4.35
X6.7Y-4.45
X4.325Y-3.65
X4.325Y-3.75
X4.325Y-3.85
X4.325Y-3.95
X4.325Y-4.05
X4.325Y-4.15
X4.325Y-4.25
X4.625Y-3.65
X4.625Y-3.75
X4.625Y-3.85
X4.625Y-3.95
X4.625Y-4.05
X4.625Y-4.15
X4.625Y-4.25
X4.825Y-4.85
X4.925Y-4.85
X5.025Y-4.85
X5.125Y-4.85
X5.225Y-4.85
X5.325Y-4.85
X5.425Y-4.85
X5.525Y-4.85
X5.625Y-4.85
X6.3Y-1.45
X6.3Y-1.75
X6.4Y-1.45
X6.4Y-1.75
X6.5Y-1.45
X6.5Y-1.75
X6.6Y-1.45
X6.6Y-1.75
X6.7Y-1.45
X6.7Y-1.75
X6.8Y-1.45
X6.8Y-1.75
X6.9Y-1.45
X6.9Y-1.75
X7.0Y-1.45
X7.0Y-1.75
X7.1Y-1.45
X7.1Y-1.75
X7.2Y-1.45
X7.2Y-1.75
X4.925Y-3.65
X4.925Y-3.75
X4.925Y-3.85
X4.925Y-3.95
X4.925Y-4.05
X4.925Y-4.15
X4.925Y-4.25
X5.225Y-3.65
X5.225Y-3.75
X5.225Y-3.85
X5.225Y-3.95
X5.225Y-4.05
X5.225Y-4.15
X5.225Y-4.25
X6.4Y-2.825
X6.4Y-2.925
X6.4Y-3.025
X6.4Y-3.125
X6.4Y-3.225
X6.4Y-3.325
X6.4Y-3.425
X6.7Y-2.825
X6.7Y-2.925
X6.7Y-3.025
X6.7Y-3.125
X6.7Y-3.225
X6.7Y-3.325
X6.7Y-3.425
X4.925Y-2.425
X4.925Y-2.525
X4.925Y-2.625
X4.925Y-2.725
X4.925Y-2.825
X4.925Y-2.925
X4.925Y-3.025
X4.925Y-3.125
X4.925Y-3.225
X4.925Y-3.325
X5.225Y-2.425
X5.225Y-2.525
X5.225Y-2.625
X5.225Y-2.725
X5.225Y-2.825
X5.225Y-2.925
X5.225Y-3.025
X5.225Y-3.125
X5.225Y-3.225
X5.225Y-3.325
X0.775Y-3.575
X0.775Y-3.675
X0.775Y-3.775
X0.775Y-3.875
X0.775Y-3.975
X0.775Y-4.075
X0.775Y-4.175
X0.775Y-4.275
X0.775Y-4.375
X2.475Y-4.7
X2.475Y-4.8
X2.475Y-4.9
X2.475Y-5.0
X2.475Y-5.1
X2.475Y-5.2
X2.475Y-5.3
X2.775Y-4.7
X2.775Y-4.8
X2.775Y-4.9
X2.775Y-5.0
X2.775Y-5.1
X2.775Y-5.2
X2.775Y-5.3
X5.45Y-2.25
X5.45Y-2.55
X5.55Y-2.25
X5.55Y-2.55
X5.65Y-2.25
X5.65Y-2.55
X5.75Y-2.25
X5.75Y-2.55
X5.85Y-2.25
X5.85Y-2.55
X5.95Y-2.25
X5.95Y-2.55
X6.05Y-2.25
X6.05Y-2.55
X1.925Y-2.125
X2.025Y-2.125
X2.125Y-2.125
X2.225Y-2.125
X2.325Y-2.125
X2.425Y-2.125
X2.525Y-2.125
X2.625Y-2.125
X2.725Y-2.125
X1.925Y-2.425
X1.925Y-2.525
X1.925Y-2.625
X1.925Y-2.725
X1.925Y-2.825
X1.925Y-2.925
X1.925Y-3.025
X1.925Y-3.125
X1.925Y-3.225
X1.925Y-3.325
X2.225Y-2.425
X2.225Y-2.525
X2.225Y-2.625
X2.225Y-2.725
X2.225Y-2.825
X2.225Y-2.925
X2.225Y-3.025
X2.225Y-3.125
X2.225Y-3.225
X2.225Y-3.325
X4.725Y-5.0
X4.725Y-5.3
X4.825Y-5.0
X4.825Y-5.3
X4.925Y-5.0
X4.925Y-5.3
X5.025Y-5.0
X5.025Y-5.3
X5.125Y-5.0
X5.125Y-5.3
X5.225Y-5.0
X5.225Y-5.3
X5.325Y-5.0
X5.325Y-5.3
X5.425Y-5.0
X5.425Y-5.3
X5.525Y-5.0
X5.525Y-5.3
X5.625Y-5.0
X5.625Y-5.3
X0.775Y-4.575
X0.775Y-4.875
X4.125Y-4.6
X4.125Y-4.7
X4.125Y-4.8
X4.125Y-4.9
X4.125Y-5.0
X4.125Y-5.1
X4.125Y-5.2
X4.125Y-5.3
X4.425Y-4.6
X4.425Y-4.7
X4.425Y-4.8
X4.425Y-4.9
X4.425Y-5.0
X4.425Y-5.1
X4.425Y-5.2
X4.425Y-5.3
X6.325Y-2.25
X6.325Y-2.55
X6.425Y-2.25
X6.425Y-2.55
X6.525Y-2.25
X6.525Y-2.55
X6.625Y-2.25
X6.625Y-2.55
X6.725Y-2.25
X6.725Y-2.55
X6.825Y-2.25
X6.825Y-2.55
X6.925Y-2.25
X6.925Y-2.55
X2.525Y-3.575
X2.825Y-3.575
X6.4Y-1.3
X6.5Y-1.3
X6.6Y-1.3
X6.7Y-1.3
X6.8Y-1.3
X6.9Y-1.3
X7.0Y-1.3
X7.1Y-1.3
X7.2Y-1.3
X1.65Y-1.3
X1.75Y-1.3
X1.85Y-1.3
X1.95Y-1.3
X2.05Y-1.3
X2.15Y-1.3
X2.25Y-1.3
X2.35Y-1.3
X2.45Y-1.3
X2.6Y-1.3
X2.7Y-1.3
X2.8Y-1.3
X2.9Y-1.3
X3.0Y-1.3
X3.1Y-1.3
X3.2Y-1.3
X3.3Y-1.3
X3.4Y-1.3
X4.825Y-4.7
X5.125Y-4.7
X7.5Y-1.3
X7.5Y-1.4
X7.5Y-1.5
X7.5Y-1.6
X7.5Y-1.7
X7.5Y-1.8
X7.5Y-1.9
X7.8Y-1.3
X7.8Y-1.4
X7.8Y-1.5
X7.8Y-1.6
X7.8Y-1.7
X7.8Y-1.8
X7.8Y-1.9
X3.225Y-1.45
X3.225Y-1.75
X3.325Y-1.45
X3.325Y-1.75
X3.425Y-1.45
X3.425Y-1.75
X3.525Y-1.45
X3.525Y-1.75
X3.625Y-1.45
X3.625Y-1.75
X3.725Y-1.45
X3.725Y-1.75
X3.825Y-1.45
X3.825Y-1.75
X3.925Y-1.45
X3.925Y-1.75
X4.025Y-1.45
X4.025Y-1.75
X4.125Y-1.45
X4.125Y-1.75
X7.8Y-2.825
X7.8Y-2.925
X7.8Y-3.025
X7.8Y-3.125
X7.8Y-3.225
X7.8Y-3.325
X7.8Y-3.425
X7.8Y-3.525
X7.8Y-3.625
X4.825Y-4.575
X5.125Y-4.575
X5.275Y-1.45
X5.275Y-1.75
X5.375Y-1.45
X5.375Y-1.75
X5.475Y-1.45
X5.475Y-1.75
X5.575Y-1.45
X5.575Y-1.75
X5.675Y-1.45
X5.675Y-1.75
X5.775Y-1.45
X5.775Y-1.75
X5.875Y-1.45
X5.875Y-1.75
X5.975Y-1.45
X5.975Y-1.75
X6.075Y-1.45
X6.075Y-1.75
X6.175Y-1.45
X6.175Y-1.75
X2.725Y-2.425
X2.725Y-2.525
X2.725Y-2.625
X2.725Y-2.725
X2.725Y-2.825
X2.725Y-2.925
X2.725Y-3.025
X2.725Y-3.125
X2.725Y-3.225
X2.725Y-3.325
X3.025Y-2.425
X3.025Y-2.525
X3.025Y-2.625
X3.025Y-2.725
X3.025Y-2.825
X3.025Y-2.925
X3.025Y-3.025
X3.025Y-3.125
X3.025Y-3.225
X3.025Y-3.325
X7.0Y-5.3
X7.1Y-5.3
X7.2Y-5.3
X7.3Y-5.3
X7.4Y-5.3
X7.5Y-5.3
X7.6Y-5.3
X7.7Y-5.3
X7.8Y-5.3
X3.725Y-3.6
X3.725Y-3.7
X3.725Y-3.8
X3.725Y-3.9
X3.725Y-4.0
X3.725Y-4.1
X3.725Y-4.2
X3.725Y-4.3
X4.025Y-3.6
X4.025Y-3.7
X4.025Y-3.8
X4.025Y-3.9
X4.025Y-4.0
X4.025Y-4.1
X4.025Y-4.2
X4.025Y-4.3
X3.125Y-3.7
X3.125Y-3.8
X3.125Y-3.9
X3.125Y-4.0
X3.125Y-4.1
X3.125Y-4.2
X3.125Y-4.3
X3.425Y-3.7
X3.425Y-3.8
X3.425Y-3.9
X3.425Y-4.0
X3.425Y-4.1
X3.425Y-4.2
X3.425Y-4.3
X0.9Y-2.0
X0.9Y-2.1
X0.9Y-2.2
X0.9Y-2.3
X0.9Y-2.4
X0.9Y-2.5
X0.9Y-2.6
X0.9Y-2.7
X0.9Y-2.8
X4.5Y-1.3
X4.6Y-1.3
X4.7Y-1.3
X4.8Y-1.3
X4.9Y-1.3
X5.0Y-1.3
X5.1Y-1.3
X5.2Y-1.3
X5.3Y-1.3
X1.925Y-4.7
X1.925Y-4.8
X1.925Y-4.9
X1.925Y-5.0
X1.925Y-5.1
X1.925Y-5.2
X1.925Y-5.3
X2.225Y-4.7
X2.225Y-4.8
X2.225Y-4.9
X2.225Y-5.0
X2.225Y-5.1
X2.225Y-5.2
X2.225Y-5.3
X2.525Y-3.7
X2.525Y-3.8
X2.525Y-3.9
X2.525Y-4.0
X2.525Y-4.1
X2.525Y-4.2
X2.525Y-4.3
X2.825Y-3.7
X2.825Y-3.8
X2.825Y-3.9
X2.825Y-4.0
X2.825Y-4.1
X2.825Y-4.2
X2.825Y-4.3
X3.825Y-2.425
X3.825Y-2.525
X3.825Y-2.625
X3.825Y-2.725
X3.825Y-2.825
X3.825Y-2.925
X3.825Y-3.025
X3.825Y-3.125
X3.825Y-3.225
X3.825Y-3.325
X4.125Y-2.425
X4.125Y-2.525
X4.125Y-2.625
X4.125Y-2.725
X4.125Y-2.825
X4.125Y-2.925
X4.125Y-3.025
X4.125Y-3.125
X4.125Y-3.225
X4.125Y-3.325
X5.45Y-1.3
X5.55Y-1.3
X5.65Y-1.3
X5.75Y-1.3
X5.85Y-1.3
X5.95Y-1.3
X6.05Y-1.3
X6.15Y-1.3
X6.25Y-1.3
X1.925Y-3.7
X1.925Y-3.8
X1.925Y-3.9
X1.925Y-4.0
X1.925Y-4.1
X1.925Y-4.2
X1.925Y-4.3
X2.225Y-3.7
X2.225Y-3.8
X2.225Y-3.9
X2.225Y-4.0
X2.225Y-4.1
X2.225Y-4.2
X2.225Y-4.3
X2.2Y-1.45
X2.2Y-1.75
X2.3Y-1.45
X2.3Y-1.75
X2.4Y-1.45
X2.4Y-1.75
X2.5Y-1.45
X2.5Y-1.75
X2.6Y-1.45
X2.6Y-1.75
X2.7Y-1.45
X2.7Y-1.75
X2.8Y-1.45
X2.8Y-1.75
X2.9Y-1.45
X2.9Y-1.75
X3.0Y-1.45
X3.0Y-1.75
X3.1Y-1.45
X3.1Y-1.75
X5.85Y-4.85
X5.95Y-4.85
X6.05Y-4.85
X6.15Y-4.85
X6.25Y-4.85
X6.35Y-4.85
X6.45Y-4.85
X6.55Y-4.85
X6.65Y-4.85
X4.675Y-4.575
X4.675Y-4.875
X2.475Y-2.525
X2.475Y-2.625
X2.475Y-2.725
X2.475Y-2.825
X2.475Y-2.925
X2.475Y-3.025
X2.475Y-3.125
X2.475Y-3.225
X2.475Y-3.325
X4.375Y-2.425
X4.375Y-2.525
X4.375Y-2.625
X4.375Y-2.725
X4.375Y-2.825
X4.375Y-2.925
X4.375Y-3.025
X4.375Y-3.125
X4.375Y-3.225
X4.375Y-3.325
X4.675Y-2.425
X4.675Y-2.525
X4.675Y-2.625
X4.675Y-2.725
X4.675Y-2.825
X4.675Y-2.925
X4.675Y-3.025
X4.675Y-3.125
X4.675Y-3.225
X4.675Y-3.325
X5.45Y-2.025
X5.55Y-2.025
X5.65Y-2.025
X5.75Y-2.025
X5.85Y-2.025
X5.95Y-2.025
X6.05Y-2.025
X6.15Y-2.025
X6.25Y-2.025
X0.775Y-4.975
X0.775Y-5.275
X3.575Y-4.6
X3.575Y-4.7
X3.575Y-4.8
X3.575Y-4.9
X3.575Y-5.0
X3.575Y-5.1
X3.575Y-5.2
X3.575Y-5.3
X3.875Y-4.6
X3.875Y-4.7
X3.875Y-4.8
X3.875Y-4.9
X3.875Y-5.0
X3.875Y-5.1
X3.875Y-5.2
X3.875Y-5.3
X4.25Y-1.45
X4.25Y-1.75
X4.35Y-1.45
X4.35Y-1.75
X4.45Y-1.45
X4.45Y-1.75
X4.55Y-1.45
X4.55Y-1.75
X4.65Y-1.45
X4.65Y-1.75
X4.75Y-1.45
X4.75Y-1.75
X4.85Y-1.45
X4.85Y-1.75
X4.95Y-1.45
X4.95Y-1.75
X5.05Y-1.45
X5.05Y-1.75
X5.15Y-1.45
X5.15Y-1.75
X5.85Y-3.75
X5.85Y-3.85
X5.85Y-3.95
X5.85Y-4.05
X5.85Y-4.15
X5.85Y-4.25
X5.85Y-4.35
X5.85Y-4.45
X6.15Y-3.75
X6.15Y-3.85
X6.15Y-3.95
X6.15Y-4.05
X6.15Y-4.15
X6.15Y-4.25
X6.15Y-4.35
X6.15Y-4.45
X5.55Y-2.825
X5.55Y-2.925
X5.55Y-3.025
X5.55Y-3.125
X5.55Y-3.225
X5.55Y-3.325
X5.55Y-3.425
X5.55Y-3.525
X5.55Y-3.625
X5.75Y-4.9993
X5.75Y-5.2993
X5.85Y-4.9993
X5.85Y-5.2993
X5.95Y-4.9993
X5.95Y-5.2993
X6.05Y-4.9993
X6.05Y-5.2993
X6.15Y-4.9993
X6.15Y-5.2993
X6.25Y-4.9993
X6.25Y-5.2993
X6.35Y-4.9993
X6.35Y-5.2993
X6.45Y-4.9993
X6.45Y-5.2993
X6.55Y-4.9993
X6.55Y-5.2993
X6.65Y-4.9993
X6.65Y-5.2993
T3
X7.275Y-2.8
X7.275Y-2.9
X7.275Y-3.0
X7.275Y-3.1
X7.275Y-3.2
X7.275Y-3.3
X7.275Y-3.4
X7.275Y-3.5
X7.275Y-3.6
X7.275Y-3.7
X7.275Y-3.8
X7.275Y-3.9
X7.275Y-4.0
X7.275Y-4.1
X7.275Y-4.2
X7.275Y-4.3
X7.275Y-4.4
X7.275Y-4.5
X7.275Y-4.6
X7.275Y-4.7
X7.275Y-4.8
X7.275Y-4.9
X7.275Y-5.0
X7.275Y-5.1
X1.075Y-1.3
X1.075Y-1.4
X1.075Y-1.5
X1.075Y-1.6
X1.075Y-1.7
X1.075Y-1.8
X1.075Y-1.9
X1.075Y-2.0
X1.075Y-2.1
X1.075Y-2.2
X1.075Y-2.3
X1.075Y-2.4
X1.075Y-2.5
X1.075Y-2.6
X1.075Y-2.7
X1.0Y-3.575
X1.0Y-3.675
X1.0Y-3.775
X1.0Y-3.875
X1.0Y-3.975
X1.0Y-4.075
X1.0Y-4.175
X1.0Y-4.275
X1.0Y-4.375
X1.0Y-4.475
X1.0Y-4.575
X1.0Y-4.675
X1.0Y-4.775
X1.0Y-4.875
X1.0Y-4.975
X1.0Y-5.075
X1.6Y-3.575
X1.6Y-3.675
X1.6Y-3.775
X1.6Y-3.875
X1.6Y-3.975
X1.6Y-4.075
X1.6Y-4.175
X1.6Y-4.275
X1.6Y-4.375
X1.6Y-4.475
X1.6Y-4.575
X1.6Y-4.675
X1.6Y-4.775
X1.6Y-4.875
X1.6Y-4.975
X1.6Y-5.075
X7.075Y-2.8
X7.075Y-2.9
X7.075Y-3.0
X7.075Y-3.1
X7.075Y-3.2
X7.075Y-3.3
X7.075Y-3.4
X7.075Y-3.5
X7.075Y-3.6
X7.075Y-3.7
X7.075Y-3.8
X7.075Y-3.9
X7.075Y-4.0
X7.075Y-4.1
X7.075Y-4.2
X7.075Y-4.3
X7.075Y-4.4
X7.075Y-4.5
X7.075Y-4.6
X7.075Y-4.7
X7.075Y-4.8
X7.075Y-4.9
X7.075Y-5.0
X7.075Y-5.1
T0
M30
