M48
;DRILL file {KiCad 5.0.2+dfsg1-1} date vr 16 aug 2019 15:32:45 CEST
;FORMAT={-:-/ absolute / inch / decimal}
FMAT,2
INCH,TZ
T1C0.0157
T2C0.0315
T3C0.0360
T4C0.0394
%
G90
G05
T1
X1.4274Y-3.2387
X1.4559Y-3.2674
X1.4588Y-3.4941
X1.5257Y-2.7059
X1.5471Y-2.8025
X1.5712Y-2.9494
X1.6115Y-4.8604
X1.7775Y-4.5402
X1.812Y-3.366
X1.8481Y-4.0498
X1.8682Y-4.8532
X1.8722Y-2.8539
X1.9134Y-4.1157
X2.0099Y-4.2106
X2.0979Y-2.9689
X2.3213Y-1.8712
X2.3748Y-5.2311
X2.3907Y-5.0342
X2.4192Y-2.7571
X2.518Y-4.2105
X2.5283Y-2.7571
X2.5737Y-3.2022
X2.5993Y-3.1357
X2.6237Y-1.9246
X2.6817Y-3.2646
X2.6824Y-2.0468
X2.6915Y-3.1643
X2.7431Y-3.2386
X2.8913Y-2.0206
X2.8974Y-2.8258
X3.1081Y-1.6582
X3.2513Y-2.8134
X3.2713Y-2.1581
X3.3059Y-4.1705
X3.4682Y-3.4736
X3.4708Y-2.5084
X3.4968Y-2.1356
X3.6761Y-2.2289
X3.6823Y-2.1895
X3.7609Y-2.2591
X3.8828Y-3.1387
X3.9847Y-1.9667
X3.9981Y-1.379
X4.1832Y-4.6971
X4.2702Y-1.8531
X4.2717Y-3.2963
X4.3102Y-1.8584
X4.3172Y-2.0332
X4.3604Y-3.2677
X4.3696Y-3.8722
X4.3898Y-3.325
X4.4077Y-2.0122
X4.4391Y-3.1198
X4.4552Y-1.9981
X4.4966Y-1.9802
X4.591Y-3.1565
X4.8257Y-2.0914
X4.9462Y-3.7247
X5.0487Y-2.0758
X5.0774Y-1.8575
X5.0805Y-2.1044
X5.1181Y-2.7708
X5.1582Y-4.0764
X5.171Y-1.8705
X5.1981Y-1.6795
X5.207Y-4.0943
X5.2468Y-4.1147
X5.2572Y-3.1443
X5.3823Y-3.9839
X5.5315Y-2.4053
X5.6803Y-2.175
X5.7448Y-2.375
X5.8524Y-2.8831
X5.9322Y-2.8646
X6.0185Y-2.0935
X6.0384Y-2.664
X6.1072Y-2.8468
X6.2393Y-1.997
X6.2696Y-2.3811
X6.2828Y-2.9293
X6.7066Y-4.1874
X7.0333Y-3.7537
T2
X4.775Y-4.65
X4.875Y-4.65
X4.975Y-4.65
X5.075Y-4.65
X5.175Y-4.65
X5.275Y-4.65
X5.375Y-4.65
X5.475Y-4.65
X5.575Y-4.65
X6.4Y-1.3
X6.5Y-1.3
X6.6Y-1.3
X6.7Y-1.3
X6.8Y-1.3
X6.9Y-1.3
X7.Y-1.3
X7.1Y-1.3
X7.2Y-1.3
X1.7Y-1.5
X1.7Y-1.8
X2.Y-1.5
X2.Y-1.8
X3.575Y-4.5
X3.575Y-4.6
X3.575Y-4.7
X3.575Y-4.8
X3.575Y-4.9
X3.575Y-5.
X3.575Y-5.1
X3.875Y-4.5
X3.875Y-4.6
X3.875Y-4.7
X3.875Y-4.8
X3.875Y-4.9
X3.875Y-5.
X3.875Y-5.1
X4.775Y-4.5
X5.075Y-4.5
X5.8Y-4.65
X5.9Y-4.65
X6.Y-4.65
X6.1Y-4.65
X6.2Y-4.65
X6.3Y-4.65
X6.4Y-4.65
X6.5Y-4.65
X6.6Y-4.65
X1.925Y-4.4
X1.925Y-4.5
X1.925Y-4.6
X1.925Y-4.7
X1.925Y-4.8
X1.925Y-4.9
X1.925Y-5.
X1.925Y-5.1
X2.225Y-4.4
X2.225Y-4.5
X2.225Y-4.6
X2.225Y-4.7
X2.225Y-4.8
X2.225Y-4.9
X2.225Y-5.
X2.225Y-5.1
X4.125Y-2.125
X4.125Y-2.225
X4.125Y-2.325
X4.125Y-2.425
X4.125Y-2.525
X4.125Y-2.625
X4.125Y-2.725
X4.125Y-2.825
X4.125Y-2.925
X4.125Y-3.025
X4.425Y-2.125
X4.425Y-2.225
X4.425Y-2.325
X4.425Y-2.425
X4.425Y-2.525
X4.425Y-2.625
X4.425Y-2.725
X4.425Y-2.825
X4.425Y-2.925
X4.425Y-3.025
X1.65Y-1.3
X1.75Y-1.3
X1.85Y-1.3
X1.95Y-1.3
X2.05Y-1.3
X2.15Y-1.3
X2.25Y-1.3
X2.35Y-1.3
X2.45Y-1.3
X3.025Y-4.5
X3.025Y-4.6
X3.025Y-4.7
X3.025Y-4.8
X3.025Y-4.9
X3.025Y-5.
X3.025Y-5.1
X3.325Y-4.5
X3.325Y-4.6
X3.325Y-4.7
X3.325Y-4.8
X3.325Y-4.9
X3.325Y-5.
X3.325Y-5.1
X5.9Y-2.125
X5.9Y-2.225
X5.9Y-2.325
X5.9Y-2.425
X5.9Y-2.525
X5.9Y-2.625
X5.9Y-2.725
X6.2Y-2.125
X6.2Y-2.225
X6.2Y-2.325
X6.2Y-2.425
X6.2Y-2.525
X6.2Y-2.625
X6.2Y-2.725
X6.45Y-2.125
X6.45Y-2.225
X6.45Y-2.325
X6.45Y-2.425
X6.45Y-2.525
X6.45Y-2.625
X6.45Y-2.725
X6.75Y-2.125
X6.75Y-2.225
X6.75Y-2.325
X6.75Y-2.425
X6.75Y-2.525
X6.75Y-2.625
X6.75Y-2.725
X2.475Y-3.375
X2.475Y-3.475
X2.475Y-3.575
X2.475Y-3.675
X2.475Y-3.775
X2.475Y-3.875
X2.475Y-3.975
X2.775Y-3.375
X2.775Y-3.475
X2.775Y-3.575
X2.775Y-3.675
X2.775Y-3.775
X2.775Y-3.875
X2.775Y-3.975
X5.575Y-4.5
X5.875Y-4.5
X5.35Y-2.975
X5.35Y-3.075
X5.35Y-3.175
X5.35Y-3.275
X5.35Y-3.375
X5.35Y-3.475
X5.35Y-3.575
X5.65Y-2.975
X5.65Y-3.075
X5.65Y-3.175
X5.65Y-3.275
X5.65Y-3.375
X5.65Y-3.475
X5.65Y-3.575
X2.475Y-4.4
X2.475Y-4.5
X2.475Y-4.6
X2.475Y-4.7
X2.475Y-4.8
X2.475Y-4.9
X2.475Y-5.
X2.475Y-5.1
X2.775Y-4.4
X2.775Y-4.5
X2.775Y-4.6
X2.775Y-4.7
X2.775Y-4.8
X2.775Y-4.9
X2.775Y-5.
X2.775Y-5.1
X3.025Y-3.375
X3.025Y-3.475
X3.025Y-3.575
X3.025Y-3.675
X3.025Y-3.775
X3.025Y-3.875
X3.025Y-3.975
X3.325Y-3.375
X3.325Y-3.475
X3.325Y-3.575
X3.325Y-3.675
X3.325Y-3.775
X3.325Y-3.875
X3.325Y-3.975
X5.35Y-2.125
X5.35Y-2.225
X5.35Y-2.325
X5.35Y-2.425
X5.35Y-2.525
X5.35Y-2.625
X5.35Y-2.725
X5.65Y-2.125
X5.65Y-2.225
X5.65Y-2.325
X5.65Y-2.425
X5.65Y-2.525
X5.65Y-2.625
X5.65Y-2.725
X1.925Y-3.375
X1.925Y-3.475
X1.925Y-3.575
X1.925Y-3.675
X1.925Y-3.775
X1.925Y-3.875
X1.925Y-3.975
X2.225Y-3.375
X2.225Y-3.475
X2.225Y-3.575
X2.225Y-3.675
X2.225Y-3.775
X2.225Y-3.875
X2.225Y-3.975
X2.475Y-2.125
X2.475Y-2.225
X2.475Y-2.325
X2.475Y-2.425
X2.475Y-2.525
X2.475Y-2.625
X2.475Y-2.725
X2.475Y-2.825
X2.475Y-2.925
X2.475Y-3.025
X2.775Y-2.125
X2.775Y-2.225
X2.775Y-2.325
X2.775Y-2.425
X2.775Y-2.525
X2.775Y-2.625
X2.775Y-2.725
X2.775Y-2.825
X2.775Y-2.925
X2.775Y-3.025
X3.025Y-2.125
X3.025Y-2.225
X3.025Y-2.325
X3.025Y-2.425
X3.025Y-2.525
X3.025Y-2.625
X3.025Y-2.725
X3.025Y-2.825
X3.025Y-2.925
X3.025Y-3.025
X3.325Y-2.125
X3.325Y-2.225
X3.325Y-2.325
X3.325Y-2.425
X3.325Y-2.525
X3.325Y-2.625
X3.325Y-2.725
X3.325Y-2.825
X3.325Y-2.925
X3.325Y-3.025
X4.125Y-4.4
X4.125Y-4.5
X4.125Y-4.6
X4.125Y-4.7
X4.125Y-4.8
X4.125Y-4.9
X4.125Y-5.
X4.125Y-5.1
X4.425Y-4.4
X4.425Y-4.5
X4.425Y-4.6
X4.425Y-4.7
X4.425Y-4.8
X4.425Y-4.9
X4.425Y-5.
X4.425Y-5.1
X4.675Y-2.125
X4.675Y-2.225
X4.675Y-2.325
X4.675Y-2.425
X4.675Y-2.525
X4.675Y-2.625
X4.675Y-2.725
X4.675Y-2.825
X4.675Y-2.925
X4.675Y-3.025
X4.975Y-2.125
X4.975Y-2.225
X4.975Y-2.325
X4.975Y-2.425
X4.975Y-2.525
X4.975Y-2.625
X4.975Y-2.725
X4.975Y-2.825
X4.975Y-2.925
X4.975Y-3.025
X4.125Y-3.375
X4.125Y-3.475
X4.125Y-3.575
X4.125Y-3.675
X4.125Y-3.775
X4.125Y-3.875
X4.125Y-3.975
X4.125Y-4.075
X4.425Y-3.375
X4.425Y-3.475
X4.425Y-3.575
X4.425Y-3.675
X4.425Y-3.775
X4.425Y-3.875
X4.425Y-3.975
X4.425Y-4.075
X3.55Y-1.3
X3.65Y-1.3
X3.75Y-1.3
X3.85Y-1.3
X3.95Y-1.3
X4.05Y-1.3
X4.15Y-1.3
X4.25Y-1.3
X4.35Y-1.3
X3.575Y-2.125
X3.575Y-2.225
X3.575Y-2.325
X3.575Y-2.425
X3.575Y-2.525
X3.575Y-2.625
X3.575Y-2.725
X3.575Y-2.825
X3.575Y-2.925
X3.575Y-3.025
X3.875Y-2.125
X3.875Y-2.225
X3.875Y-2.325
X3.875Y-2.425
X3.875Y-2.525
X3.875Y-2.625
X3.875Y-2.725
X3.875Y-2.825
X3.875Y-2.925
X3.875Y-3.025
X3.575Y-3.375
X3.575Y-3.475
X3.575Y-3.575
X3.575Y-3.675
X3.575Y-3.775
X3.575Y-3.875
X3.575Y-3.975
X3.875Y-3.375
X3.875Y-3.475
X3.875Y-3.575
X3.875Y-3.675
X3.875Y-3.775
X3.875Y-3.875
X3.875Y-3.975
X1.925Y-2.125
X1.925Y-2.225
X1.925Y-2.325
X1.925Y-2.425
X1.925Y-2.525
X1.925Y-2.625
X1.925Y-2.725
X1.925Y-2.825
X1.925Y-2.925
X1.925Y-3.025
X2.225Y-2.125
X2.225Y-2.225
X2.225Y-2.325
X2.225Y-2.425
X2.225Y-2.525
X2.225Y-2.625
X2.225Y-2.725
X2.225Y-2.825
X2.225Y-2.925
X2.225Y-3.025
X5.9Y-2.975
X5.9Y-3.075
X5.9Y-3.175
X5.9Y-3.275
X5.9Y-3.375
X5.9Y-3.475
X5.9Y-3.575
X6.2Y-2.975
X6.2Y-3.075
X6.2Y-3.175
X6.2Y-3.275
X6.2Y-3.375
X6.2Y-3.475
X6.2Y-3.575
X5.45Y-1.3
X5.55Y-1.3
X5.65Y-1.3
X5.75Y-1.3
X5.85Y-1.3
X5.95Y-1.3
X6.05Y-1.3
X6.15Y-1.3
X6.25Y-1.3
X5.175Y-4.5
X5.475Y-4.5
X2.6Y-1.3
X2.7Y-1.3
X2.8Y-1.3
X2.9Y-1.3
X3.Y-1.3
X3.1Y-1.3
X3.2Y-1.3
X3.3Y-1.3
X3.4Y-1.3
X4.5Y-1.3
X4.6Y-1.3
X4.7Y-1.3
X4.8Y-1.3
X4.9Y-1.3
X5.Y-1.3
X5.1Y-1.3
X5.2Y-1.3
X5.3Y-1.3
X1.075Y-3.375
X1.075Y-3.475
X1.075Y-3.575
X1.075Y-3.675
X1.075Y-3.775
X1.075Y-3.875
X1.075Y-3.975
X1.075Y-4.075
X1.075Y-4.175
X1.075Y-4.275
X1.075Y-4.375
X1.075Y-4.475
X1.075Y-4.575
X1.075Y-4.675
X1.075Y-4.775
X1.075Y-4.875
X1.675Y-3.375
X1.675Y-3.475
X1.675Y-3.575
X1.675Y-3.675
X1.675Y-3.775
X1.675Y-3.875
X1.675Y-3.975
X1.675Y-4.075
X1.675Y-4.175
X1.675Y-4.275
X1.675Y-4.375
X1.675Y-4.475
X1.675Y-4.575
X1.675Y-4.675
X1.675Y-4.775
X1.675Y-4.875
T3
X4.25Y-1.45
X4.25Y-1.75
X4.35Y-1.45
X4.35Y-1.75
X4.45Y-1.45
X4.45Y-1.75
X4.55Y-1.45
X4.55Y-1.75
X4.65Y-1.45
X4.65Y-1.75
X4.75Y-1.45
X4.75Y-1.75
X4.85Y-1.45
X4.85Y-1.75
X4.95Y-1.45
X4.95Y-1.75
X5.05Y-1.45
X5.05Y-1.75
X5.15Y-1.45
X5.15Y-1.75
X2.2Y-1.45
X2.2Y-1.75
X2.3Y-1.45
X2.3Y-1.75
X2.4Y-1.45
X2.4Y-1.75
X2.5Y-1.45
X2.5Y-1.75
X2.6Y-1.45
X2.6Y-1.75
X2.7Y-1.45
X2.7Y-1.75
X2.8Y-1.45
X2.8Y-1.75
X2.9Y-1.45
X2.9Y-1.75
X3.Y-1.45
X3.Y-1.75
X3.1Y-1.45
X3.1Y-1.75
X5.7Y-4.7993
X5.7Y-5.0993
X5.8Y-4.7993
X5.8Y-5.0993
X5.9Y-4.7993
X5.9Y-5.0993
X6.Y-4.7993
X6.Y-5.0993
X6.1Y-4.7993
X6.1Y-5.0993
X6.2Y-4.7993
X6.2Y-5.0993
X6.3Y-4.7993
X6.3Y-5.0993
X6.4Y-4.7993
X6.4Y-5.0993
X6.5Y-4.7993
X6.5Y-5.0993
X6.6Y-4.7993
X6.6Y-5.0993
X6.3Y-1.45
X6.3Y-1.75
X6.4Y-1.45
X6.4Y-1.75
X6.5Y-1.45
X6.5Y-1.75
X6.6Y-1.45
X6.6Y-1.75
X6.7Y-1.45
X6.7Y-1.75
X6.8Y-1.45
X6.8Y-1.75
X6.9Y-1.45
X6.9Y-1.75
X7.Y-1.45
X7.Y-1.75
X7.1Y-1.45
X7.1Y-1.75
X7.2Y-1.45
X7.2Y-1.75
X5.275Y-1.45
X5.275Y-1.75
X5.375Y-1.45
X5.375Y-1.75
X5.475Y-1.45
X5.475Y-1.75
X5.575Y-1.45
X5.575Y-1.75
X5.675Y-1.45
X5.675Y-1.75
X5.775Y-1.45
X5.775Y-1.75
X5.875Y-1.45
X5.875Y-1.75
X5.975Y-1.45
X5.975Y-1.75
X6.075Y-1.45
X6.075Y-1.75
X6.175Y-1.45
X6.175Y-1.75
X3.225Y-1.45
X3.225Y-1.75
X3.325Y-1.45
X3.325Y-1.75
X3.425Y-1.45
X3.425Y-1.75
X3.525Y-1.45
X3.525Y-1.75
X3.625Y-1.45
X3.625Y-1.75
X3.725Y-1.45
X3.725Y-1.75
X3.825Y-1.45
X3.825Y-1.75
X3.925Y-1.45
X3.925Y-1.75
X4.025Y-1.45
X4.025Y-1.75
X4.125Y-1.45
X4.125Y-1.75
X4.675Y-4.8
X4.675Y-5.1
X4.775Y-4.8
X4.775Y-5.1
X4.875Y-4.8
X4.875Y-5.1
X4.975Y-4.8
X4.975Y-5.1
X5.075Y-4.8
X5.075Y-5.1
X5.175Y-4.8
X5.175Y-5.1
X5.275Y-4.8
X5.275Y-5.1
X5.375Y-4.8
X5.375Y-5.1
X5.475Y-4.8
X5.475Y-5.1
X5.575Y-4.8
X5.575Y-5.1
T4
X1.075Y-1.3
X1.075Y-1.4
X1.075Y-1.5
X1.075Y-1.6
X1.075Y-1.7
X1.075Y-1.8
X1.075Y-1.9
X1.075Y-2.
X1.075Y-2.1
X1.075Y-2.2
X1.075Y-2.3
X1.075Y-2.4
X1.075Y-2.5
X1.075Y-2.6
X1.075Y-2.7
X7.075Y-2.8
X7.075Y-2.9
X7.075Y-3.
X7.075Y-3.1
X7.075Y-3.2
X7.075Y-3.3
X7.075Y-3.4
X7.075Y-3.5
X7.075Y-3.6
X7.075Y-3.7
X7.075Y-3.8
X7.075Y-3.9
X7.075Y-4.
X7.075Y-4.1
X7.075Y-4.2
X7.075Y-4.3
X7.075Y-4.4
X7.075Y-4.5
X7.075Y-4.6
X7.075Y-4.7
X7.075Y-4.8
X7.075Y-4.9
X7.075Y-5.
X7.075Y-5.1
X7.275Y-2.8
X7.275Y-2.9
X7.275Y-3.
X7.275Y-3.1
X7.275Y-3.2
X7.275Y-3.3
X7.275Y-3.4
X7.275Y-3.5
X7.275Y-3.6
X7.275Y-3.7
X7.275Y-3.8
X7.275Y-3.9
X7.275Y-4.
X7.275Y-4.1
X7.275Y-4.2
X7.275Y-4.3
X7.275Y-4.4
X7.275Y-4.5
X7.275Y-4.6
X7.275Y-4.7
X7.275Y-4.8
X7.275Y-4.9
X7.275Y-5.
X7.275Y-5.1
T0
M30
